%TF.GenerationSoftware,KiCad,Pcbnew,10.0.6-10.0.6~ubuntu24.04.1*%
%TF.CreationDate,2026-09-09T10:45:45+02:00*%
%TF.ProjectId,MA600A-RefWinch-Encoder,4d413630-3041-42d5-9265-6657696e6368,rev?*%
%TF.SameCoordinates,Original*%
%TF.FileFunction,Copper,L1,Top*%
%TF.FilePolarity,Positive*%
%FSLAX46Y46*%
G04 Gerber Fmt 4.6, Leading zero omitted, Abs format (unit mm)*
G04 Created by KiCad (PCBNEW 10.0.6-10.0.6~ubuntu24.04.1) date 2026-09-09 10:45:45*
%MOMM*%
%LPD*%
G01*
G04 APERTURE LIST*
G04 Aperture macros list*
%AMRoundRect*
0 Rectangle with rounded corners*
0 $1 Rounding radius*
0 $2 $3 $4 $5 $6 $7 $8 $9 X,Y pos of 4 corners*
0 Add a 4 corners polygon primitive as box body*
4,1,4,$2,$3,$4,$5,$6,$7,$8,$9,$2,$3,0*
0 Add four circle primitives for the rounded corners*
1,1,$1+$1,$2,$3*
1,1,$1+$1,$4,$5*
1,1,$1+$1,$6,$7*
1,1,$1+$1,$8,$9*
0 Add four rect primitives between the rounded corners*
20,1,$1+$1,$2,$3,$4,$5,0*
20,1,$1+$1,$4,$5,$6,$7,0*
20,1,$1+$1,$6,$7,$8,$9,0*
20,1,$1+$1,$8,$9,$2,$3,0*%
G04 Aperture macros list end*
%TA.AperFunction,SMDPad,CuDef*%
%ADD10R,1.200000X0.600000*%
%TD*%
%TA.AperFunction,SMDPad,CuDef*%
%ADD11C,0.600000*%
%TD*%
%TA.AperFunction,SMDPad,CuDef*%
%ADD12C,1.000000*%
%TD*%
%TA.AperFunction,SMDPad,CuDef*%
%ADD13R,0.700000X0.250000*%
%TD*%
%TA.AperFunction,SMDPad,CuDef*%
%ADD14R,0.250000X0.700000*%
%TD*%
%TA.AperFunction,SMDPad,CuDef*%
%ADD15R,1.700000X1.700000*%
%TD*%
%TA.AperFunction,SMDPad,CuDef*%
%ADD16RoundRect,0.225000X-0.225000X-0.250000X0.225000X-0.250000X0.225000X0.250000X-0.225000X0.250000X0*%
%TD*%
%TA.AperFunction,SMDPad,CuDef*%
%ADD17RoundRect,0.150000X0.700000X-0.150000X0.700000X0.150000X-0.700000X0.150000X-0.700000X-0.150000X0*%
%TD*%
%TA.AperFunction,SMDPad,CuDef*%
%ADD18RoundRect,0.250000X1.100000X-0.250000X1.100000X0.250000X-1.100000X0.250000X-1.100000X-0.250000X0*%
%TD*%
%TA.AperFunction,SMDPad,CuDef*%
%ADD19RoundRect,0.140000X0.170000X-0.140000X0.170000X0.140000X-0.170000X0.140000X-0.170000X-0.140000X0*%
%TD*%
%TA.AperFunction,ViaPad*%
%ADD20C,0.600000*%
%TD*%
%TA.AperFunction,Conductor*%
%ADD21C,0.300000*%
%TD*%
%TA.AperFunction,Conductor*%
%ADD22C,0.200000*%
%TD*%
G04 APERTURE END LIST*
D10*
%TO.P,U2,1*%
%TO.N,+5V_IN*%
X12700000Y6950000D03*
%TO.P,U2,2*%
%TO.N,GND*%
X12700000Y6000000D03*
%TO.P,U2,3*%
%TO.N,+5V_IN*%
X12700000Y5050000D03*
%TO.P,U2,4*%
%TO.N,unconnected-(U2-FB-Pad4)*%
X15300000Y5050000D03*
%TO.P,U2,5*%
%TO.N,+3V3*%
X15300000Y6950000D03*
%TD*%
D11*
%TO.P,FID1,*%
%TO.N,*%
X11000000Y11000000D03*
%TD*%
D12*
%TO.P,TP2,1*%
%TO.N,GND*%
X18000000Y8000000D03*
%TD*%
%TO.P,TP1,1*%
%TO.N,+5V_IN*%
X18000000Y10000000D03*
%TD*%
D13*
%TO.P,U1,1*%
%TO.N,unconnected-(U1-IO1-Pad1)*%
X2550000Y6750000D03*
%TO.P,U1,2*%
%TO.N,A_OUT*%
X2550000Y6250000D03*
%TO.P,U1,3*%
%TO.N,Z_OUT*%
X2550000Y5750000D03*
%TO.P,U1,4*%
%TO.N,SPI_COPI*%
X2550000Y5250000D03*
D14*
%TO.P,U1,5*%
%TO.N,SPI_CS*%
X3250000Y4550000D03*
%TO.P,U1,6*%
%TO.N,B_OUT*%
X3750000Y4550000D03*
%TO.P,U1,7*%
%TO.N,SPI_CIPO*%
X4250000Y4550000D03*
%TO.P,U1,8*%
%TO.N,GND*%
X4750000Y4550000D03*
D13*
%TO.P,U1,9*%
%TO.N,unconnected-(U1-IO5-Pad9)*%
X5450000Y5250000D03*
%TO.P,U1,10*%
%TO.N,GND*%
X5450000Y5750000D03*
%TO.P,U1,11*%
%TO.N,unconnected-(U1-CK100-Pad11)*%
X5450000Y6250000D03*
%TO.P,U1,12*%
%TO.N,SPI_SCLK*%
X5450000Y6750000D03*
D14*
%TO.P,U1,13*%
%TO.N,+3V3*%
X4750000Y7450000D03*
%TO.P,U1,14*%
X4250000Y7450000D03*
%TO.P,U1,15*%
%TO.N,unconnected-(U1-IO6-Pad15)*%
X3750000Y7450000D03*
%TO.P,U1,16*%
%TO.N,unconnected-(U1-NC-Pad16)*%
X3250000Y7450000D03*
D15*
%TO.P,U1,17*%
%TO.N,unconnected-(U1-E-PAD-Pad17)*%
X4000000Y6000000D03*
%TD*%
D16*
%TO.P,C1,1*%
%TO.N,+5V_IN*%
X13225000Y9300000D03*
%TO.P,C1,2*%
%TO.N,GND*%
X14775000Y9300000D03*
%TD*%
D17*
%TO.P,J1,1*%
%TO.N,GND*%
X22650000Y2875000D03*
%TO.P,J1,2*%
%TO.N,+5V_IN*%
X22650000Y4125000D03*
%TO.P,J1,3*%
%TO.N,A_OUT*%
X22650000Y5375000D03*
%TO.P,J1,4*%
%TO.N,B_OUT*%
X22650000Y6625000D03*
%TO.P,J1,5*%
%TO.N,Z_OUT*%
X22650000Y7875000D03*
%TO.P,J1,6*%
%TO.N,unconnected-(J1-RSV-Pad6)*%
X22650000Y9125000D03*
D18*
%TO.P,J1,MP*%
%TO.N,N/C*%
X25850000Y1025000D03*
X25850000Y10975000D03*
%TD*%
D12*
%TO.P,TP6,1*%
%TO.N,SPI_CIPO*%
X20000000Y2000000D03*
%TD*%
%TO.P,TP5,1*%
%TO.N,SPI_COPI*%
X18000000Y2000000D03*
%TD*%
%TO.P,TP3,1*%
%TO.N,SPI_CS*%
X18000000Y6000000D03*
%TD*%
%TO.P,TP7,1*%
%TO.N,+3V3*%
X20000000Y10500000D03*
%TD*%
D19*
%TO.P,C3,1*%
%TO.N,+3V3*%
X10500000Y8520000D03*
%TO.P,C3,2*%
%TO.N,GND*%
X10500000Y9480000D03*
%TD*%
D11*
%TO.P,FID2,*%
%TO.N,*%
X15000000Y1000000D03*
%TD*%
D19*
%TO.P,C4,1*%
%TO.N,+3V3*%
X10500000Y6020000D03*
%TO.P,C4,2*%
%TO.N,GND*%
X10500000Y6980000D03*
%TD*%
D11*
%TO.P,FID3,*%
%TO.N,*%
X20000000Y7000000D03*
%TD*%
D12*
%TO.P,TP4,1*%
%TO.N,SPI_SCLK*%
X18000000Y4000000D03*
%TD*%
D16*
%TO.P,C2,1*%
%TO.N,+3V3*%
X13225000Y2800000D03*
%TO.P,C2,2*%
%TO.N,GND*%
X14775000Y2800000D03*
%TD*%
D20*
%TO.N,+5V_IN*%
X11750000Y7450000D03*
X18900000Y10300000D03*
X11600000Y5750000D03*
X21400000Y4100000D03*
%TO.N,GND*%
X23700000Y11300000D03*
X21700000Y11300000D03*
X13700000Y700000D03*
X7000000Y5750000D03*
X13700000Y11300000D03*
X9700000Y700000D03*
X15900000Y8450000D03*
X13750000Y6300000D03*
X9700000Y11300000D03*
X23700000Y700000D03*
X19700000Y700000D03*
X11700000Y700000D03*
X21400000Y2900000D03*
X15700000Y11300000D03*
X21700000Y700000D03*
X11200000Y6600000D03*
X17050000Y7800000D03*
X19700000Y8500000D03*
X14800000Y3700000D03*
X5650000Y2600000D03*
%TO.N,A_OUT*%
X21400000Y5400000D03*
X21000000Y9950000D03*
X1300000Y6650000D03*
%TO.N,Z_OUT*%
X21400000Y7900000D03*
X700000Y5750000D03*
%TO.N,SPI_COPI*%
X17050000Y1650000D03*
X1300000Y4850000D03*
%TO.N,SPI_CS*%
X17050000Y6000000D03*
X2800000Y3400000D03*
%TO.N,B_OUT*%
X21400000Y6600000D03*
X3600000Y2600000D03*
%TO.N,SPI_SCLK*%
X10900000Y4200000D03*
X8500000Y6400000D03*
X14150000Y4200000D03*
X7000000Y6750000D03*
%TD*%
%TO.N,+5V_IN*%
D21*
X13900000Y10000000D02*
X14000000Y10000000D01*
X14100000Y10050000D02*
X14150000Y10100000D01*
X13225000Y9300000D02*
X13200000Y9300000D01*
X13200000Y7450000D02*
X13200000Y9300000D01*
X22650000Y4125000D02*
X21400000Y4100000D01*
X15450000Y10050000D02*
X15500000Y10050000D01*
X12700000Y6950000D02*
X12700000Y6950000D01*
X12250000Y5050000D02*
X12700000Y5050000D01*
X11600000Y5750000D02*
X11750000Y5600000D01*
X15400000Y10100000D02*
X15450000Y10050000D01*
X12100000Y7350000D02*
X11850000Y7350000D01*
X11750000Y5600000D02*
X11750000Y5550000D01*
X11750000Y5550000D02*
X12250000Y5050000D01*
X18000000Y10000000D02*
X18400000Y10000000D01*
X14050000Y10050000D02*
X14100000Y10050000D01*
X14150000Y10100000D02*
X15400000Y10100000D01*
X14000000Y10000000D02*
X14050000Y10050000D01*
X18700000Y10300000D02*
X18900000Y10300000D01*
X15550000Y10000000D02*
X18000000Y10000000D01*
X11850000Y7350000D02*
X11750000Y7450000D01*
X18400000Y10000000D02*
X18700000Y10300000D01*
X13225000Y9300000D02*
X13200000Y9300000D01*
X15500000Y10050000D02*
X15550000Y10000000D01*
X12500000Y6950000D02*
X12100000Y7350000D01*
X12700000Y6950000D02*
X12500000Y6950000D01*
X12700000Y6950000D02*
X13200000Y7450000D01*
X12700000Y5050000D02*
X12700000Y5050000D01*
X12700000Y6950000D02*
X12700000Y6950000D01*
X13200000Y9300000D02*
X13900000Y10000000D01*
%TO.N,GND*%
X17250000Y8000000D02*
X18000000Y8000000D01*
X10650000Y6850000D02*
X10800000Y6850000D01*
X11150000Y8950000D02*
X11100000Y9000000D01*
X19050000Y6950000D02*
X19050000Y5300000D01*
X21350000Y3000000D02*
X21350000Y2950000D01*
X10650000Y9500000D02*
X10500000Y9500000D01*
X11050000Y6600000D02*
X11200000Y6600000D01*
X10500000Y7000000D02*
X10650000Y6850000D01*
X5450000Y5750000D02*
X7000000Y5750000D01*
X12700000Y6000000D02*
X12700000Y6000000D01*
X14350000Y7400000D02*
X14800000Y7850000D01*
X4750000Y4550000D02*
X5650000Y2600000D01*
X15650000Y8450000D02*
X15900000Y8450000D01*
X14800000Y3700000D02*
X14800000Y2800000D01*
X22650000Y2875000D02*
X21400000Y2900000D01*
X13450000Y6300000D02*
X14350000Y7200000D01*
X12700000Y6000000D02*
X13050000Y6000000D01*
X10500000Y6980000D02*
X10500000Y7000000D01*
X10500000Y7000000D02*
X11100000Y7600000D01*
X11250000Y7000000D02*
X10500000Y7000000D01*
X11100000Y9050000D02*
X10650000Y9500000D01*
X14775000Y2800000D02*
X14800000Y2800000D01*
X13400000Y6300000D02*
X13750000Y6300000D01*
X12700000Y6000000D02*
X12700000Y6000000D01*
X21350000Y2950000D02*
X21400000Y2900000D01*
X10500000Y6980000D02*
X10500000Y7000000D01*
X12700000Y6000000D02*
X12700000Y6000000D01*
X14350000Y7200000D02*
X14350000Y7400000D01*
X11950000Y6300000D02*
X11250000Y7000000D01*
X10800000Y6850000D02*
X11050000Y6600000D01*
X10500000Y6980000D02*
X10500000Y7000000D01*
X12400000Y6300000D02*
X11950000Y6300000D01*
X18000000Y8000000D02*
X19050000Y6950000D01*
X19050000Y5300000D02*
X21350000Y3000000D01*
X10500000Y9480000D02*
X10500000Y9500000D01*
X11100000Y9000000D02*
X11100000Y9050000D01*
X11100000Y7600000D02*
X11100000Y8050000D01*
X14800000Y9300000D02*
X15650000Y8450000D01*
X12700000Y6000000D02*
X13100000Y6000000D01*
X11150000Y8100000D02*
X11150000Y8950000D01*
X14775000Y9300000D02*
X14800000Y9300000D01*
X13100000Y6000000D02*
X13400000Y6300000D01*
X17050000Y7800000D02*
X17250000Y8000000D01*
X14775000Y9300000D02*
X14800000Y9300000D01*
X13350000Y6300000D02*
X13450000Y6300000D01*
X11100000Y8050000D02*
X11150000Y8100000D01*
X12700000Y6000000D02*
X12400000Y6300000D01*
X14800000Y7850000D02*
X14800000Y9300000D01*
X13050000Y6000000D02*
X13350000Y6300000D01*
%TO.N,+3V3*%
X9450000Y7450000D02*
X4750000Y7450000D01*
X9900000Y6450000D02*
X9900000Y6500000D01*
X10350000Y6150000D02*
X10200000Y6150000D01*
X9900000Y7450000D02*
X9900000Y7500000D01*
X9900000Y6500000D02*
X9850000Y6550000D01*
X13650000Y5300000D02*
X13650000Y4600000D01*
X10500000Y6020000D02*
X10500000Y6000000D01*
X4750000Y7450000D02*
X4250000Y7450000D01*
X13225000Y2800000D02*
X13200000Y2800000D01*
X13200000Y4150000D02*
X13200000Y2800000D01*
X10200000Y6150000D02*
X9900000Y6450000D01*
X4250000Y7450000D02*
X4250000Y7450000D01*
X4750000Y7450000D02*
X4750000Y7450000D01*
X17500000Y9150000D02*
X18650000Y9150000D01*
X4750000Y7450000D02*
X4750000Y7450000D01*
X15300000Y6950000D02*
X15300000Y6950000D01*
X13200000Y2800000D02*
X10500000Y5500000D01*
X9900000Y7500000D02*
X10500000Y8100000D01*
X13225000Y2800000D02*
X13200000Y2800000D01*
X10500000Y8100000D02*
X10500000Y8500000D01*
X9850000Y6550000D02*
X9850000Y7400000D01*
X10500000Y6000000D02*
X10350000Y6150000D01*
X13650000Y4600000D02*
X13200000Y4150000D01*
X10500000Y8520000D02*
X10500000Y8500000D01*
X10500000Y8520000D02*
X10500000Y8500000D01*
X10500000Y8500000D02*
X9450000Y7450000D01*
X15300000Y6950000D02*
X15300000Y6950000D01*
X10500000Y5500000D02*
X10500000Y6000000D01*
X10500000Y6020000D02*
X10500000Y6000000D01*
X15300000Y6950000D02*
X17500000Y9150000D01*
X15300000Y6950000D02*
X13650000Y5300000D01*
X9850000Y7400000D02*
X9900000Y7450000D01*
X18650000Y9150000D02*
X20000000Y10500000D01*
%TO.N,A_OUT*%
D22*
X21000000Y9950000D02*
X21000000Y8400000D01*
X20950000Y6200000D02*
X20950000Y6150000D01*
X21400000Y5700000D02*
X21400000Y5400000D01*
X20950000Y8350000D02*
X20950000Y8300000D01*
X20800000Y6450000D02*
X20850000Y6400000D01*
X2550000Y6250000D02*
X1300000Y6650000D01*
X20850000Y8100000D02*
X20800000Y8050000D01*
X20950000Y6150000D02*
X21400000Y5700000D01*
X21000000Y8400000D02*
X20950000Y8350000D01*
X20800000Y8050000D02*
X20800000Y6450000D01*
X22650000Y5375000D02*
X21400000Y5400000D01*
X20850000Y6400000D02*
X20850000Y6300000D01*
X20850000Y6300000D02*
X20950000Y6200000D01*
X20850000Y8200000D02*
X20850000Y8100000D01*
X20950000Y8300000D02*
X20850000Y8200000D01*
%TO.N,Z_OUT*%
X22650000Y7875000D02*
X21400000Y7900000D01*
X2550000Y5750000D02*
X700000Y5750000D01*
%TO.N,SPI_COPI*%
X17050000Y1650000D02*
X17400000Y2000000D01*
X17400000Y2000000D02*
X18000000Y2000000D01*
X2550000Y5250000D02*
X1300000Y4850000D01*
%TO.N,SPI_CS*%
X3250000Y4550000D02*
X2800000Y3400000D01*
X17050000Y6000000D02*
X18000000Y6000000D01*
%TO.N,B_OUT*%
X22650000Y6625000D02*
X21400000Y6600000D01*
X3750000Y4550000D02*
X3600000Y2600000D01*
%TO.N,SPI_CIPO*%
X5100000Y2400000D02*
X5100000Y2300000D01*
X5000000Y2900000D02*
X5000000Y2850000D01*
X5200000Y2200000D02*
X5200000Y2150000D01*
X5200000Y2150000D02*
X5350000Y2000000D01*
X5000000Y2850000D02*
X5050000Y2800000D01*
X4500000Y3400000D02*
X5000000Y2900000D01*
X5050000Y2450000D02*
X5100000Y2400000D01*
X16550000Y2000000D02*
X17350000Y2800000D01*
X17350000Y2800000D02*
X18650000Y2800000D01*
X5350000Y2000000D02*
X16550000Y2000000D01*
X5050000Y2800000D02*
X5050000Y2450000D01*
X19450000Y2000000D02*
X20000000Y2000000D01*
X5100000Y2300000D02*
X5200000Y2200000D01*
X18650000Y2800000D02*
X19450000Y2000000D01*
X4250000Y4550000D02*
X4500000Y3400000D01*
%TO.N,SPI_SCLK*%
X15000000Y4250000D02*
X15100000Y4250000D01*
X8500000Y6400000D02*
X8550000Y6350000D01*
X15100000Y4250000D02*
X15200000Y4150000D01*
X5450000Y6750000D02*
X7000000Y6750000D01*
X15400000Y4000000D02*
X18000000Y4000000D01*
X14500000Y4250000D02*
X14600000Y4250000D01*
X15200000Y4150000D02*
X15250000Y4150000D01*
X14600000Y4250000D02*
X14650000Y4300000D01*
X14650000Y4300000D02*
X14950000Y4300000D01*
X14950000Y4300000D02*
X15000000Y4250000D01*
X15250000Y4150000D02*
X15400000Y4000000D01*
X14150000Y4200000D02*
X14450000Y4200000D01*
X8550000Y6350000D02*
X8750000Y6350000D01*
X14450000Y4200000D02*
X14500000Y4250000D01*
X8750000Y6350000D02*
X10900000Y4200000D01*
%TD*%
%TA.AperFunction,Conductor*%
%TO.N,GND*%
G36*
X14607840Y1680593D02*
G01*
X14643804Y1631093D01*
X14643804Y1569907D01*
X14607840Y1520407D01*
X14604651Y1518185D01*
X14585331Y1505277D01*
X14494727Y1414673D01*
X14494724Y1414669D01*
X14423538Y1308134D01*
X14423534Y1308126D01*
X14374500Y1189748D01*
X14374499Y1189745D01*
X14374499Y1189744D01*
X14366494Y1149500D01*
X14349500Y1064070D01*
X14349500Y935931D01*
X14374499Y810258D01*
X14374500Y810253D01*
X14423534Y691875D01*
X14423538Y691867D01*
X14466365Y627774D01*
X14494724Y585331D01*
X14585331Y494724D01*
X14605401Y481314D01*
X14643278Y433264D01*
X14645680Y372126D01*
X14611686Y321253D01*
X14554282Y300076D01*
X14550397Y300000D01*
X9199000Y300000D01*
X9140809Y318907D01*
X9104845Y368407D01*
X9100000Y399000D01*
X9100000Y1600500D01*
X9118907Y1658691D01*
X9168407Y1694655D01*
X9199000Y1699500D01*
X14549649Y1699500D01*
X14607840Y1680593D01*
G37*
%TD.AperFunction*%
%TA.AperFunction,Conductor*%
G36*
X10608588Y11681093D02*
G01*
X10644552Y11631593D01*
X10644552Y11570407D01*
X10608588Y11520907D01*
X10605422Y11518701D01*
X10585331Y11505276D01*
X10585327Y11505273D01*
X10494727Y11414673D01*
X10494724Y11414669D01*
X10423538Y11308134D01*
X10423534Y11308126D01*
X10374500Y11189748D01*
X10374499Y11189745D01*
X10374499Y11189744D01*
X10349500Y11064069D01*
X10349500Y10935931D01*
X10370211Y10831811D01*
X10374499Y10810258D01*
X10374500Y10810253D01*
X10423534Y10691875D01*
X10423538Y10691867D01*
X10457991Y10640306D01*
X10494724Y10585331D01*
X10585331Y10494724D01*
X10648848Y10452283D01*
X10691866Y10423539D01*
X10691870Y10423537D01*
X10691873Y10423535D01*
X10810256Y10374499D01*
X10935931Y10349500D01*
X10935932Y10349500D01*
X11064068Y10349500D01*
X11064069Y10349500D01*
X11189744Y10374499D01*
X11308127Y10423535D01*
X11414669Y10494724D01*
X11505276Y10585331D01*
X11576465Y10691873D01*
X11625501Y10810256D01*
X11650500Y10935931D01*
X11650500Y11064069D01*
X11625501Y11189744D01*
X11576465Y11308127D01*
X11576463Y11308130D01*
X11576461Y11308134D01*
X11547717Y11351152D01*
X11505276Y11414669D01*
X11414669Y11505276D01*
X11394598Y11518687D01*
X11356722Y11566736D01*
X11354320Y11627874D01*
X11388314Y11678747D01*
X11445718Y11699924D01*
X11449603Y11700000D01*
X24344550Y11700000D01*
X24402741Y11681093D01*
X24438705Y11631593D01*
X24438705Y11570407D01*
X24424205Y11542212D01*
X24347207Y11437884D01*
X24302355Y11309704D01*
X24302353Y11309695D01*
X24299500Y11279275D01*
X24299500Y10670726D01*
X24302353Y10640306D01*
X24302355Y10640297D01*
X24347207Y10512117D01*
X24427845Y10402856D01*
X24427847Y10402854D01*
X24427850Y10402850D01*
X24427853Y10402848D01*
X24427855Y10402846D01*
X24537116Y10322208D01*
X24537117Y10322208D01*
X24537118Y10322207D01*
X24665301Y10277354D01*
X24695725Y10274501D01*
X24695727Y10274500D01*
X24695734Y10274500D01*
X27004273Y10274500D01*
X27004273Y10274501D01*
X27034699Y10277354D01*
X27162882Y10322207D01*
X27272150Y10402850D01*
X27352793Y10512118D01*
X27397646Y10640301D01*
X27400499Y10670727D01*
X27400500Y10670727D01*
X27400500Y11279273D01*
X27400499Y11279275D01*
X27397646Y11309699D01*
X27352793Y11437882D01*
X27352792Y11437884D01*
X27275795Y11542212D01*
X27256453Y11600260D01*
X27274924Y11658590D01*
X27324154Y11694923D01*
X27355450Y11700000D01*
X27601000Y11700000D01*
X27659191Y11681093D01*
X27695155Y11631593D01*
X27700000Y11601000D01*
X27700000Y399000D01*
X27681093Y340809D01*
X27631593Y304845D01*
X27601000Y300000D01*
X27355450Y300000D01*
X27297259Y318907D01*
X27261295Y368407D01*
X27261295Y429593D01*
X27275795Y457788D01*
X27352792Y562117D01*
X27352791Y562117D01*
X27352793Y562118D01*
X27397646Y690301D01*
X27400499Y720727D01*
X27400500Y720727D01*
X27400500Y1329273D01*
X27400499Y1329275D01*
X27397646Y1359695D01*
X27397646Y1359699D01*
X27352793Y1487882D01*
X27330428Y1518185D01*
X27272154Y1597145D01*
X27272152Y1597147D01*
X27272150Y1597150D01*
X27272146Y1597153D01*
X27272144Y1597155D01*
X27162883Y1677793D01*
X27034703Y1722645D01*
X27034694Y1722647D01*
X27004274Y1725500D01*
X27004266Y1725500D01*
X24695734Y1725500D01*
X24695725Y1725500D01*
X24665305Y1722647D01*
X24665296Y1722645D01*
X24537116Y1677793D01*
X24427855Y1597155D01*
X24427845Y1597145D01*
X24347207Y1487884D01*
X24302355Y1359704D01*
X24302353Y1359695D01*
X24299500Y1329275D01*
X24299500Y720726D01*
X24302353Y690306D01*
X24302355Y690297D01*
X24347207Y562117D01*
X24424205Y457788D01*
X24443547Y399740D01*
X24425076Y341410D01*
X24375846Y305077D01*
X24344550Y300000D01*
X15449603Y300000D01*
X15391412Y318907D01*
X15355448Y368407D01*
X15355448Y429593D01*
X15391412Y479093D01*
X15394577Y481300D01*
X15414669Y494724D01*
X15505276Y585331D01*
X15576465Y691873D01*
X15625501Y810256D01*
X15650500Y935931D01*
X15650500Y1064069D01*
X15625501Y1189744D01*
X15576465Y1308127D01*
X15576463Y1308130D01*
X15576461Y1308134D01*
X15528960Y1379223D01*
X15505276Y1414669D01*
X15414669Y1505276D01*
X15395348Y1518186D01*
X15357470Y1566235D01*
X15355068Y1627374D01*
X15389061Y1678247D01*
X15446465Y1699424D01*
X15450351Y1699500D01*
X16450500Y1699500D01*
X16508691Y1680593D01*
X16544655Y1631093D01*
X16549500Y1600500D01*
X16549500Y1584108D01*
X16575971Y1485316D01*
X16583609Y1456810D01*
X16649496Y1342691D01*
X16649498Y1342689D01*
X16649500Y1342686D01*
X16742686Y1249500D01*
X16742688Y1249499D01*
X16742690Y1249497D01*
X16856810Y1183610D01*
X16856808Y1183610D01*
X16856812Y1183609D01*
X16856814Y1183608D01*
X16984108Y1149500D01*
X16984110Y1149500D01*
X17115890Y1149500D01*
X17115892Y1149500D01*
X17243186Y1183608D01*
X17243188Y1183610D01*
X17243190Y1183610D01*
X17357309Y1249497D01*
X17357309Y1249498D01*
X17357314Y1249500D01*
X17450500Y1342686D01*
X17473473Y1382478D01*
X17518940Y1423417D01*
X17579791Y1429814D01*
X17614211Y1415292D01*
X17668182Y1379229D01*
X17668193Y1379223D01*
X17715283Y1359718D01*
X17795672Y1326420D01*
X17931007Y1299500D01*
X17931008Y1299500D01*
X18068992Y1299500D01*
X18068993Y1299500D01*
X18204328Y1326420D01*
X18331811Y1379225D01*
X18446542Y1455886D01*
X18544114Y1553458D01*
X18620775Y1668189D01*
X18673580Y1795672D01*
X18700500Y1931007D01*
X18700500Y2068993D01*
X18700499Y2068994D01*
X18700023Y2073837D01*
X18701443Y2073977D01*
X18707904Y2128637D01*
X18749430Y2173574D01*
X18809438Y2185520D01*
X18865007Y2159912D01*
X18867821Y2157208D01*
X19209540Y1815489D01*
X19209539Y1815489D01*
X19265489Y1759540D01*
X19336137Y1718751D01*
X19377078Y1673282D01*
X19378100Y1670903D01*
X19379222Y1668194D01*
X19379223Y1668192D01*
X19379224Y1668190D01*
X19379225Y1668189D01*
X19455886Y1553458D01*
X19455889Y1553455D01*
X19553458Y1455886D01*
X19668182Y1379229D01*
X19668193Y1379223D01*
X19715283Y1359718D01*
X19795672Y1326420D01*
X19931007Y1299500D01*
X19931008Y1299500D01*
X20068992Y1299500D01*
X20068993Y1299500D01*
X20204328Y1326420D01*
X20331811Y1379225D01*
X20446542Y1455886D01*
X20544114Y1553458D01*
X20620775Y1668189D01*
X20673580Y1795672D01*
X20700500Y1931007D01*
X20700500Y2068993D01*
X20673580Y2204328D01*
X20642227Y2280022D01*
X20620777Y2331807D01*
X20620771Y2331818D01*
X20544114Y2446542D01*
X20446541Y2544115D01*
X20331817Y2620772D01*
X20331806Y2620778D01*
X20204328Y2673580D01*
X20102128Y2693909D01*
X20068993Y2700500D01*
X19931007Y2700500D01*
X19931004Y2700500D01*
X19795672Y2673580D01*
X19795670Y2673580D01*
X19668193Y2620778D01*
X19668182Y2620772D01*
X19553458Y2544115D01*
X19553448Y2544106D01*
X19512160Y2502818D01*
X19457643Y2475041D01*
X19397211Y2484613D01*
X19372154Y2502818D01*
X19124972Y2749999D01*
X21600001Y2749999D01*
X21600001Y2691784D01*
X21609912Y2623750D01*
X21661214Y2518812D01*
X21743812Y2436214D01*
X21848751Y2384913D01*
X21916784Y2375001D01*
X22524998Y2375001D01*
X22525000Y2375002D01*
X22525000Y2749999D01*
X22775000Y2749999D01*
X22775000Y2375002D01*
X22775001Y2375001D01*
X23383213Y2375001D01*
X23383216Y2375002D01*
X23451250Y2384913D01*
X23556188Y2436215D01*
X23638786Y2518813D01*
X23690087Y2623752D01*
X23700000Y2691785D01*
X23700000Y2749999D01*
X23699999Y2750000D01*
X22775001Y2750000D01*
X22775000Y2749999D01*
X22525000Y2749999D01*
X22524999Y2750000D01*
X21600002Y2750000D01*
X21600001Y2749999D01*
X19124972Y2749999D01*
X18883179Y2991792D01*
X18834511Y3040460D01*
X18834508Y3040462D01*
X18803757Y3058216D01*
X21600000Y3058216D01*
X21600000Y3000001D01*
X21600001Y3000000D01*
X22524999Y3000000D01*
X22525000Y3000001D01*
X22525000Y3374999D01*
X22775000Y3374999D01*
X22775000Y3000001D01*
X22775001Y3000000D01*
X23699998Y3000000D01*
X23699999Y3000001D01*
X23699999Y3058214D01*
X23699998Y3058217D01*
X23690087Y3126251D01*
X23638785Y3231189D01*
X23556187Y3313787D01*
X23451248Y3365088D01*
X23383216Y3375000D01*
X22775001Y3375000D01*
X22775000Y3374999D01*
X22525000Y3374999D01*
X22524999Y3375000D01*
X21916786Y3375000D01*
X21916783Y3374999D01*
X21848749Y3365088D01*
X21743811Y3313786D01*
X21661213Y3231188D01*
X21609912Y3126249D01*
X21600000Y3058216D01*
X18803757Y3058216D01*
X18765992Y3080020D01*
X18765988Y3080022D01*
X18689564Y3100500D01*
X18689562Y3100500D01*
X17310438Y3100500D01*
X17310435Y3100500D01*
X17234011Y3080022D01*
X17234007Y3080020D01*
X17165491Y3040462D01*
X16454525Y2329496D01*
X16400008Y2301719D01*
X16384521Y2300500D01*
X15506695Y2300500D01*
X15448504Y2319407D01*
X15412540Y2368907D01*
X15408914Y2414988D01*
X15425000Y2516548D01*
X15425000Y2674999D01*
X15424999Y2675000D01*
X14125002Y2675000D01*
X14125001Y2674999D01*
X14125001Y2516547D01*
X14125000Y2516547D01*
X14141085Y2414986D01*
X14131513Y2354554D01*
X14088248Y2311290D01*
X14043304Y2300500D01*
X13957201Y2300500D01*
X13899010Y2319407D01*
X13863046Y2368907D01*
X13859420Y2414987D01*
X13875500Y2516510D01*
X13875500Y3083454D01*
X14125000Y3083454D01*
X14125000Y2925001D01*
X14125001Y2925000D01*
X14649999Y2925000D01*
X14650000Y2925001D01*
X14650000Y3474999D01*
X14900000Y3474999D01*
X14900000Y2925001D01*
X14900001Y2925000D01*
X15424998Y2925000D01*
X15424999Y2925001D01*
X15424999Y3083454D01*
X15409239Y3182966D01*
X15409237Y3182970D01*
X15348118Y3302922D01*
X15252921Y3398119D01*
X15132969Y3459238D01*
X15132970Y3459238D01*
X15033454Y3475000D01*
X14900001Y3475000D01*
X14900000Y3474999D01*
X14650000Y3474999D01*
X14649999Y3475000D01*
X14516547Y3475000D01*
X14516546Y3474999D01*
X14417034Y3459240D01*
X14417030Y3459238D01*
X14297078Y3398119D01*
X14201881Y3302922D01*
X14140762Y3182970D01*
X14125000Y3083454D01*
X13875500Y3083454D01*
X13875500Y3083490D01*
X13868727Y3126251D01*
X13859719Y3183126D01*
X13859716Y3183131D01*
X13859716Y3183133D01*
X13798529Y3303218D01*
X13798528Y3303220D01*
X13703220Y3398528D01*
X13701568Y3399370D01*
X13604554Y3448802D01*
X13561290Y3492067D01*
X13550500Y3537011D01*
X13550500Y3867891D01*
X13569407Y3926082D01*
X13618907Y3962046D01*
X13680093Y3962046D01*
X13729593Y3926082D01*
X13735232Y3917398D01*
X13749500Y3892686D01*
X13842686Y3799500D01*
X13842688Y3799499D01*
X13842690Y3799497D01*
X13956810Y3733610D01*
X13956808Y3733610D01*
X13956812Y3733609D01*
X13956814Y3733608D01*
X14084108Y3699500D01*
X14084110Y3699500D01*
X14215890Y3699500D01*
X14215892Y3699500D01*
X14343186Y3733608D01*
X14343188Y3733610D01*
X14343190Y3733610D01*
X14457309Y3799497D01*
X14457309Y3799498D01*
X14457314Y3799500D01*
X14550500Y3892686D01*
X14553125Y3897234D01*
X14589380Y3933485D01*
X14594167Y3936249D01*
X14633379Y3946751D01*
X14633129Y3948653D01*
X14639556Y3949500D01*
X14639562Y3949500D01*
X14715989Y3969979D01*
X14730230Y3978201D01*
X14744150Y3986237D01*
X14793649Y3999500D01*
X14806352Y3999500D01*
X14855852Y3986237D01*
X14884012Y3969978D01*
X14955429Y3950842D01*
X14999807Y3925221D01*
X15015486Y3909543D01*
X15015489Y3909540D01*
X15084011Y3869979D01*
X15087124Y3869145D01*
X15089915Y3867534D01*
X15090006Y3867496D01*
X15090001Y3867485D01*
X15131507Y3843522D01*
X15159540Y3815489D01*
X15159539Y3815489D01*
X15215489Y3759540D01*
X15284007Y3719981D01*
X15284011Y3719979D01*
X15360435Y3699501D01*
X15360437Y3699500D01*
X15360438Y3699500D01*
X15439562Y3699500D01*
X17305387Y3699500D01*
X17363578Y3680593D01*
X17387702Y3655502D01*
X17455886Y3553458D01*
X17455889Y3553455D01*
X17553458Y3455886D01*
X17668182Y3379229D01*
X17668193Y3379223D01*
X17702319Y3365088D01*
X17795672Y3326420D01*
X17931007Y3299500D01*
X17931008Y3299500D01*
X18068992Y3299500D01*
X18068993Y3299500D01*
X18204328Y3326420D01*
X18331811Y3379225D01*
X18446542Y3455886D01*
X18544114Y3553458D01*
X18620775Y3668189D01*
X18673580Y3795672D01*
X18700500Y3931007D01*
X18700500Y4068993D01*
X18681225Y4165892D01*
X20899500Y4165892D01*
X20899500Y4034108D01*
X20927126Y3931007D01*
X20933609Y3906810D01*
X20999496Y3792691D01*
X20999498Y3792689D01*
X20999500Y3792686D01*
X21092686Y3699500D01*
X21092688Y3699499D01*
X21092690Y3699497D01*
X21206810Y3633610D01*
X21206808Y3633610D01*
X21206812Y3633609D01*
X21206814Y3633608D01*
X21334108Y3599500D01*
X21334110Y3599500D01*
X21465890Y3599500D01*
X21465892Y3599500D01*
X21593186Y3633608D01*
X21665428Y3675318D01*
X21725275Y3688039D01*
X21758408Y3678522D01*
X21848604Y3634428D01*
X21848605Y3634428D01*
X21848607Y3634427D01*
X21916740Y3624500D01*
X21916743Y3624500D01*
X23383257Y3624500D01*
X23383260Y3624500D01*
X23451393Y3634427D01*
X23556483Y3685802D01*
X23639198Y3768517D01*
X23690573Y3873607D01*
X23700500Y3941740D01*
X23700500Y4308260D01*
X23690573Y4376393D01*
X23688567Y4380496D01*
X23656279Y4446542D01*
X23639198Y4481483D01*
X23556483Y4564198D01*
X23551995Y4566392D01*
X23451395Y4615573D01*
X23415710Y4620772D01*
X23383260Y4625500D01*
X21916740Y4625500D01*
X21884290Y4620772D01*
X21848604Y4615573D01*
X21743514Y4564197D01*
X21736841Y4559432D01*
X21736107Y4560460D01*
X21689064Y4536500D01*
X21628634Y4546082D01*
X21624094Y4548548D01*
X21593189Y4566391D01*
X21593191Y4566391D01*
X21542318Y4580022D01*
X21465892Y4600500D01*
X21334108Y4600500D01*
X21257682Y4580022D01*
X21206809Y4566391D01*
X21092690Y4500504D01*
X20999496Y4407310D01*
X20933609Y4293191D01*
X20917889Y4234521D01*
X20899500Y4165892D01*
X18681225Y4165892D01*
X18673580Y4204328D01*
X18654659Y4250008D01*
X18620777Y4331807D01*
X18620771Y4331818D01*
X18544114Y4446542D01*
X18446541Y4544115D01*
X18331817Y4620772D01*
X18331806Y4620778D01*
X18204328Y4673580D01*
X18068995Y4700500D01*
X18068993Y4700500D01*
X17931007Y4700500D01*
X17931004Y4700500D01*
X17795672Y4673580D01*
X17795670Y4673580D01*
X17668193Y4620778D01*
X17668182Y4620772D01*
X17553458Y4544115D01*
X17455889Y4446546D01*
X17455886Y4446542D01*
X17387702Y4344498D01*
X17339652Y4306619D01*
X17305387Y4300500D01*
X15565479Y4300500D01*
X15507288Y4319407D01*
X15495475Y4329496D01*
X15444475Y4380496D01*
X15416698Y4435013D01*
X15426269Y4495445D01*
X15469534Y4538710D01*
X15514479Y4549500D01*
X15919747Y4549500D01*
X15919748Y4549500D01*
X15978231Y4561133D01*
X16044552Y4605448D01*
X16088867Y4671769D01*
X16100500Y4730252D01*
X16100500Y5369748D01*
X16088867Y5428231D01*
X16044552Y5494552D01*
X16018754Y5511790D01*
X15978233Y5538866D01*
X15978231Y5538867D01*
X15978228Y5538868D01*
X15978227Y5538868D01*
X15919758Y5550499D01*
X15919748Y5550500D01*
X14680252Y5550500D01*
X14680249Y5550500D01*
X14645734Y5543634D01*
X14584973Y5550826D01*
X14540043Y5592358D01*
X14528106Y5652368D01*
X14553722Y5707933D01*
X14556417Y5710736D01*
X14911573Y6065892D01*
X16549500Y6065892D01*
X16549500Y5934108D01*
X16567533Y5866809D01*
X16583609Y5806810D01*
X16649496Y5692691D01*
X16649498Y5692689D01*
X16649500Y5692686D01*
X16742686Y5599500D01*
X16742688Y5599499D01*
X16742690Y5599497D01*
X16856810Y5533610D01*
X16856808Y5533610D01*
X16856812Y5533609D01*
X16856814Y5533608D01*
X16984108Y5499500D01*
X16984110Y5499500D01*
X17115890Y5499500D01*
X17115892Y5499500D01*
X17243186Y5533608D01*
X17243188Y5533610D01*
X17243190Y5533610D01*
X17325944Y5581388D01*
X17385792Y5594110D01*
X17441688Y5569224D01*
X17452383Y5556868D01*
X17452804Y5557213D01*
X17455882Y5553462D01*
X17553458Y5455886D01*
X17668182Y5379229D01*
X17668193Y5379223D01*
X17715283Y5359718D01*
X17795672Y5326420D01*
X17931007Y5299500D01*
X17931008Y5299500D01*
X18068992Y5299500D01*
X18068993Y5299500D01*
X18204328Y5326420D01*
X18331811Y5379225D01*
X18446542Y5455886D01*
X18544114Y5553458D01*
X18620775Y5668189D01*
X18673580Y5795672D01*
X18700500Y5931007D01*
X18700500Y6068993D01*
X18673580Y6204328D01*
X18650339Y6260438D01*
X18620777Y6331807D01*
X18620771Y6331818D01*
X18544114Y6446542D01*
X18446541Y6544115D01*
X18331817Y6620772D01*
X18331806Y6620778D01*
X18204328Y6673580D01*
X18068995Y6700500D01*
X18068993Y6700500D01*
X17931007Y6700500D01*
X17931004Y6700500D01*
X17795672Y6673580D01*
X17795670Y6673580D01*
X17668193Y6620778D01*
X17668182Y6620772D01*
X17553458Y6544115D01*
X17553449Y6544107D01*
X17455884Y6446541D01*
X17452799Y6442781D01*
X17451159Y6444127D01*
X17409651Y6411447D01*
X17348512Y6409083D01*
X17325944Y6418612D01*
X17243187Y6466392D01*
X17198233Y6478437D01*
X17115892Y6500500D01*
X16984108Y6500500D01*
X16906200Y6479625D01*
X16856809Y6466391D01*
X16742690Y6400504D01*
X16649496Y6307310D01*
X16583609Y6193191D01*
X16572170Y6150500D01*
X16549500Y6065892D01*
X14911573Y6065892D01*
X15266185Y6420504D01*
X15320702Y6448281D01*
X15336189Y6449500D01*
X15919747Y6449500D01*
X15919748Y6449500D01*
X15978231Y6461133D01*
X16044552Y6505448D01*
X16088867Y6571769D01*
X16100500Y6630252D01*
X16100500Y7213810D01*
X16119407Y7272001D01*
X16129496Y7283814D01*
X16270204Y7424522D01*
X17601297Y7424522D01*
X17668428Y7379667D01*
X17795816Y7326902D01*
X17931055Y7300001D01*
X17931057Y7300000D01*
X18068943Y7300000D01*
X18068944Y7300001D01*
X18204183Y7326902D01*
X18331571Y7379667D01*
X18398701Y7424522D01*
X17999999Y7823224D01*
X17601297Y7424522D01*
X16270204Y7424522D01*
X16377102Y7531420D01*
X16762074Y7916392D01*
X17170865Y8325184D01*
X17225380Y8352959D01*
X17285812Y8343388D01*
X17329077Y8300123D01*
X17338648Y8239691D01*
X17332333Y8217296D01*
X17326901Y8204181D01*
X17300000Y8068945D01*
X17300000Y7931056D01*
X17326901Y7795817D01*
X17379666Y7668429D01*
X17424520Y7601299D01*
X17823224Y8000001D01*
X18176776Y8000001D01*
X18575478Y7601299D01*
X18620333Y7668429D01*
X18673098Y7795817D01*
X18699999Y7931056D01*
X18700000Y7931058D01*
X18700000Y8068943D01*
X18699999Y8068945D01*
X18673098Y8204184D01*
X18620333Y8331572D01*
X18575478Y8398703D01*
X18176776Y8000001D01*
X17823224Y8000001D01*
X17911612Y8088388D01*
X17934237Y8111013D01*
X18398702Y8575479D01*
X18334789Y8618184D01*
X18296909Y8666234D01*
X18294507Y8727372D01*
X18328499Y8778246D01*
X18385903Y8799424D01*
X18389790Y8799500D01*
X18696142Y8799500D01*
X18696144Y8799500D01*
X18785288Y8823386D01*
X18790873Y8826611D01*
X18790878Y8826612D01*
X18790878Y8826613D01*
X18812961Y8839364D01*
X18865212Y8869530D01*
X19780299Y9784620D01*
X19834814Y9812396D01*
X19869610Y9811714D01*
X19931007Y9799500D01*
X19931013Y9799500D01*
X20068992Y9799500D01*
X20068993Y9799500D01*
X20204328Y9826420D01*
X20331811Y9879225D01*
X20360274Y9898244D01*
X20419160Y9914853D01*
X20476564Y9893677D01*
X20510558Y9842805D01*
X20510893Y9841588D01*
X20526158Y9784618D01*
X20533609Y9756810D01*
X20599496Y9642691D01*
X20599498Y9642689D01*
X20599500Y9642686D01*
X20670505Y9571681D01*
X20698281Y9517166D01*
X20699500Y9501679D01*
X20699500Y8543649D01*
X20686237Y8494150D01*
X20669981Y8465995D01*
X20669976Y8465982D01*
X20669140Y8462862D01*
X20667528Y8460071D01*
X20667499Y8460000D01*
X20667489Y8460004D01*
X20643522Y8418495D01*
X20609539Y8384512D01*
X20569980Y8315993D01*
X20569978Y8315989D01*
X20549500Y8239565D01*
X20548653Y8233129D01*
X20546748Y8233380D01*
X20536237Y8194151D01*
X20519981Y8165994D01*
X20519977Y8165986D01*
X20499500Y8089565D01*
X20499500Y7633810D01*
X20480593Y7575619D01*
X20431093Y7539655D01*
X20369907Y7539655D01*
X20345498Y7551495D01*
X20308134Y7576462D01*
X20308125Y7576466D01*
X20189747Y7625500D01*
X20189745Y7625501D01*
X20189744Y7625501D01*
X20064069Y7650500D01*
X19935931Y7650500D01*
X19935930Y7650500D01*
X19899187Y7643191D01*
X19810256Y7625501D01*
X19810255Y7625501D01*
X19810252Y7625500D01*
X19691874Y7576466D01*
X19691866Y7576462D01*
X19585331Y7505276D01*
X19585327Y7505273D01*
X19494727Y7414673D01*
X19494724Y7414669D01*
X19423538Y7308134D01*
X19423534Y7308126D01*
X19374500Y7189748D01*
X19374499Y7189743D01*
X19349500Y7064070D01*
X19349500Y6935931D01*
X19374499Y6810258D01*
X19374500Y6810253D01*
X19423534Y6691875D01*
X19423538Y6691867D01*
X19454733Y6645182D01*
X19494724Y6585331D01*
X19585331Y6494724D01*
X19635601Y6461135D01*
X19691866Y6423539D01*
X19691870Y6423537D01*
X19691873Y6423535D01*
X19810256Y6374499D01*
X19935931Y6349500D01*
X19935932Y6349500D01*
X20064068Y6349500D01*
X20064069Y6349500D01*
X20189744Y6374499D01*
X20308127Y6423535D01*
X20352592Y6453247D01*
X20411477Y6469855D01*
X20468881Y6448679D01*
X20502875Y6397806D01*
X20503219Y6396556D01*
X20519979Y6334010D01*
X20519980Y6334008D01*
X20536236Y6305852D01*
X20546748Y6266621D01*
X20548653Y6266871D01*
X20549500Y6260436D01*
X20569978Y6184012D01*
X20574998Y6175317D01*
X20589904Y6149500D01*
X20604048Y6125001D01*
X20609541Y6115488D01*
X20643520Y6081508D01*
X20667485Y6040003D01*
X20667495Y6040006D01*
X20667524Y6039935D01*
X20669141Y6037135D01*
X20669977Y6034013D01*
X20674604Y6026000D01*
X20689904Y5999500D01*
X20709540Y5965489D01*
X20934151Y5740878D01*
X20961927Y5686363D01*
X20952356Y5625931D01*
X20949884Y5621378D01*
X20934141Y5594110D01*
X20933608Y5593186D01*
X20899500Y5465892D01*
X20899500Y5334108D01*
X20929227Y5223164D01*
X20933609Y5206810D01*
X20999496Y5092691D01*
X20999498Y5092689D01*
X20999500Y5092686D01*
X21092686Y4999500D01*
X21092688Y4999499D01*
X21092690Y4999497D01*
X21206810Y4933610D01*
X21206808Y4933610D01*
X21206812Y4933609D01*
X21206814Y4933608D01*
X21334108Y4899500D01*
X21334110Y4899500D01*
X21465890Y4899500D01*
X21465892Y4899500D01*
X21593186Y4933608D01*
X21624092Y4951453D01*
X21683938Y4964176D01*
X21739835Y4939292D01*
X21743502Y4935814D01*
X21743514Y4935805D01*
X21743517Y4935802D01*
X21797285Y4909517D01*
X21848604Y4884428D01*
X21848605Y4884428D01*
X21848607Y4884427D01*
X21916740Y4874500D01*
X21916743Y4874500D01*
X23383257Y4874500D01*
X23383260Y4874500D01*
X23451393Y4884427D01*
X23556483Y4935802D01*
X23639198Y5018517D01*
X23690573Y5123607D01*
X23700500Y5191740D01*
X23700500Y5558260D01*
X23690573Y5626393D01*
X23639198Y5731483D01*
X23556483Y5814198D01*
X23539710Y5822398D01*
X23451395Y5865573D01*
X23424139Y5869544D01*
X23383260Y5875500D01*
X21916740Y5875500D01*
X21848607Y5865573D01*
X21848606Y5865573D01*
X21848602Y5865572D01*
X21777817Y5830968D01*
X21776451Y5830775D01*
X21775434Y5829842D01*
X21746268Y5826506D01*
X21717235Y5822398D01*
X21716017Y5823045D01*
X21714645Y5822887D01*
X21689089Y5837331D01*
X21663186Y5851073D01*
X21662579Y5852313D01*
X21661378Y5852992D01*
X21648602Y5870409D01*
X21640460Y5884511D01*
X21584511Y5940461D01*
X21584511Y5940460D01*
X21555243Y5969728D01*
X21527466Y6024245D01*
X21537037Y6084677D01*
X21580302Y6127942D01*
X21587368Y6131199D01*
X21593180Y6133607D01*
X21593186Y6133608D01*
X21665428Y6175318D01*
X21670220Y6176337D01*
X21673832Y6179648D01*
X21699752Y6182614D01*
X21725275Y6188039D01*
X21731512Y6186248D01*
X21734621Y6186603D01*
X21739113Y6184065D01*
X21758408Y6178522D01*
X21848604Y6134428D01*
X21848605Y6134428D01*
X21848607Y6134427D01*
X21916740Y6124500D01*
X21916743Y6124500D01*
X23383257Y6124500D01*
X23383260Y6124500D01*
X23451393Y6134427D01*
X23556483Y6185802D01*
X23639198Y6268517D01*
X23690573Y6373607D01*
X23700500Y6441740D01*
X23700500Y6808260D01*
X23690573Y6876393D01*
X23688275Y6881093D01*
X23639198Y6981482D01*
X23639198Y6981483D01*
X23556483Y7064198D01*
X23526205Y7079000D01*
X23451395Y7115573D01*
X23424139Y7119544D01*
X23383260Y7125500D01*
X21916740Y7125500D01*
X21882673Y7120537D01*
X21848604Y7115573D01*
X21743514Y7064197D01*
X21736841Y7059432D01*
X21736107Y7060460D01*
X21689064Y7036500D01*
X21628634Y7046082D01*
X21624094Y7048548D01*
X21593189Y7066391D01*
X21593191Y7066391D01*
X21540187Y7080593D01*
X21465892Y7100500D01*
X21334108Y7100500D01*
X21312294Y7094655D01*
X21225122Y7071298D01*
X21164021Y7074501D01*
X21116471Y7113006D01*
X21100500Y7166925D01*
X21100500Y7333076D01*
X21119407Y7391267D01*
X21168907Y7427231D01*
X21225120Y7428703D01*
X21334108Y7399500D01*
X21334110Y7399500D01*
X21465890Y7399500D01*
X21465892Y7399500D01*
X21593186Y7433608D01*
X21624092Y7451453D01*
X21683938Y7464176D01*
X21739835Y7439292D01*
X21743502Y7435814D01*
X21743514Y7435805D01*
X21743517Y7435802D01*
X21786746Y7414669D01*
X21848604Y7384428D01*
X21848605Y7384428D01*
X21848607Y7384427D01*
X21916740Y7374500D01*
X21916743Y7374500D01*
X23383257Y7374500D01*
X23383260Y7374500D01*
X23451393Y7384427D01*
X23556483Y7435802D01*
X23639198Y7518517D01*
X23690573Y7623607D01*
X23700500Y7691740D01*
X23700500Y8058260D01*
X23690573Y8126393D01*
X23639198Y8231483D01*
X23556483Y8314198D01*
X23556481Y8314199D01*
X23451395Y8365573D01*
X23424139Y8369544D01*
X23383260Y8375500D01*
X21916740Y8375500D01*
X21882673Y8370537D01*
X21848604Y8365573D01*
X21758408Y8321479D01*
X21697825Y8312908D01*
X21665428Y8324683D01*
X21593187Y8366392D01*
X21525564Y8384511D01*
X21465892Y8400500D01*
X21399500Y8400500D01*
X21341309Y8419407D01*
X21305345Y8468907D01*
X21300500Y8499500D01*
X21300500Y9308260D01*
X21599500Y9308260D01*
X21599500Y8941740D01*
X21601160Y8930350D01*
X21609427Y8873605D01*
X21646985Y8796780D01*
X21660802Y8768517D01*
X21743517Y8685802D01*
X21797285Y8659517D01*
X21848604Y8634428D01*
X21848605Y8634428D01*
X21848607Y8634427D01*
X21916740Y8624500D01*
X21916743Y8624500D01*
X23383257Y8624500D01*
X23383260Y8624500D01*
X23451393Y8634427D01*
X23556483Y8685802D01*
X23639198Y8768517D01*
X23690573Y8873607D01*
X23700500Y8941740D01*
X23700500Y9308260D01*
X23690573Y9376393D01*
X23639198Y9481483D01*
X23556483Y9564198D01*
X23527187Y9578520D01*
X23451395Y9615573D01*
X23424139Y9619544D01*
X23383260Y9625500D01*
X21916740Y9625500D01*
X21882673Y9620537D01*
X21848604Y9615573D01*
X21743518Y9564199D01*
X21660801Y9481482D01*
X21609427Y9376396D01*
X21609427Y9376393D01*
X21599500Y9308260D01*
X21300500Y9308260D01*
X21300500Y9501679D01*
X21319407Y9559870D01*
X21329490Y9571677D01*
X21400500Y9642686D01*
X21423852Y9683133D01*
X21466390Y9756810D01*
X21466390Y9756812D01*
X21466392Y9756814D01*
X21500500Y9884108D01*
X21500500Y10015892D01*
X21466392Y10143186D01*
X21466390Y10143189D01*
X21466390Y10143191D01*
X21400503Y10257310D01*
X21400501Y10257312D01*
X21400500Y10257314D01*
X21307314Y10350500D01*
X21307311Y10350502D01*
X21307309Y10350504D01*
X21193189Y10416391D01*
X21193191Y10416391D01*
X21143799Y10429625D01*
X21065892Y10450500D01*
X20934108Y10450500D01*
X20892438Y10439335D01*
X20825122Y10421298D01*
X20764021Y10424501D01*
X20716471Y10463006D01*
X20700500Y10516925D01*
X20700500Y10568992D01*
X20700499Y10568996D01*
X20698587Y10578610D01*
X20673580Y10704328D01*
X20647872Y10766392D01*
X20620777Y10831807D01*
X20620771Y10831818D01*
X20544114Y10946542D01*
X20446541Y11044115D01*
X20331817Y11120772D01*
X20331806Y11120778D01*
X20204328Y11173580D01*
X20068995Y11200500D01*
X20068993Y11200500D01*
X19931007Y11200500D01*
X19931004Y11200500D01*
X19795672Y11173580D01*
X19795670Y11173580D01*
X19668193Y11120778D01*
X19668182Y11120772D01*
X19553458Y11044115D01*
X19455885Y10946542D01*
X19379228Y10831818D01*
X19379224Y10831810D01*
X19345354Y10750039D01*
X19305617Y10703514D01*
X19246123Y10689230D01*
X19204390Y10702189D01*
X19093189Y10766391D01*
X19093191Y10766391D01*
X19043799Y10779625D01*
X18965892Y10800500D01*
X18834108Y10800500D01*
X18756200Y10779625D01*
X18706809Y10766391D01*
X18592690Y10700504D01*
X18592684Y10700500D01*
X18497851Y10605667D01*
X18443334Y10577890D01*
X18382902Y10587462D01*
X18372855Y10593350D01*
X18349436Y10608998D01*
X18331812Y10620775D01*
X18331806Y10620778D01*
X18204328Y10673580D01*
X18068995Y10700500D01*
X18068993Y10700500D01*
X17931007Y10700500D01*
X17931004Y10700500D01*
X17795672Y10673580D01*
X17795670Y10673580D01*
X17668193Y10620778D01*
X17668182Y10620772D01*
X17553458Y10544115D01*
X17553449Y10544107D01*
X17472350Y10463006D01*
X17455886Y10446542D01*
X17435740Y10416391D01*
X17421112Y10394499D01*
X17373062Y10356619D01*
X17338796Y10350500D01*
X15707047Y10350500D01*
X15657548Y10363763D01*
X15635290Y10376613D01*
X15635289Y10376614D01*
X15635288Y10376614D01*
X15622876Y10379940D01*
X15599004Y10389829D01*
X15535289Y10426614D01*
X15505573Y10434576D01*
X15446144Y10450500D01*
X14103856Y10450500D01*
X14089085Y10446542D01*
X14089084Y10446543D01*
X14014713Y10426615D01*
X14014711Y10426614D01*
X13950997Y10389829D01*
X13927125Y10379941D01*
X13914712Y10376614D01*
X13914711Y10376614D01*
X13914709Y10376613D01*
X13891147Y10363010D01*
X13860050Y10352453D01*
X13860124Y10352179D01*
X13855956Y10351063D01*
X13854583Y10350596D01*
X13853861Y10350501D01*
X13853857Y10350500D01*
X13853856Y10350500D01*
X13815655Y10340264D01*
X13764707Y10326613D01*
X13684791Y10280473D01*
X13684786Y10280469D01*
X13408813Y10004496D01*
X13354297Y9976719D01*
X13338810Y9975500D01*
X12966510Y9975500D01*
X12866874Y9959719D01*
X12866867Y9959717D01*
X12746782Y9898530D01*
X12651470Y9803218D01*
X12590283Y9683133D01*
X12590281Y9683126D01*
X12574500Y9583490D01*
X12574500Y9016511D01*
X12590281Y8916875D01*
X12590283Y8916868D01*
X12651470Y8796783D01*
X12651472Y8796780D01*
X12746780Y8701472D01*
X12746782Y8701471D01*
X12746783Y8701470D01*
X12775360Y8686910D01*
X12795444Y8676677D01*
X12838709Y8633414D01*
X12849500Y8588467D01*
X12849500Y7636190D01*
X12830593Y7577999D01*
X12820504Y7566186D01*
X12733814Y7479496D01*
X12679297Y7451719D01*
X12663810Y7450500D01*
X12536190Y7450500D01*
X12477999Y7469407D01*
X12466187Y7479496D01*
X12315211Y7630471D01*
X12235291Y7676613D01*
X12235287Y7676615D01*
X12229710Y7678109D01*
X12178396Y7711433D01*
X12169602Y7724228D01*
X12150500Y7757314D01*
X12057314Y7850500D01*
X12057311Y7850502D01*
X12057309Y7850504D01*
X11943189Y7916391D01*
X11943191Y7916391D01*
X11888451Y7931058D01*
X11815892Y7950500D01*
X11684108Y7950500D01*
X11611549Y7931058D01*
X11556809Y7916391D01*
X11442690Y7850504D01*
X11349496Y7757310D01*
X11283609Y7643191D01*
X11270745Y7595182D01*
X11249500Y7515892D01*
X11249500Y7384108D01*
X11274058Y7292457D01*
X11283609Y7256810D01*
X11349496Y7142691D01*
X11349498Y7142689D01*
X11349500Y7142686D01*
X11442686Y7049500D01*
X11442688Y7049499D01*
X11442690Y7049497D01*
X11556810Y6983610D01*
X11556808Y6983610D01*
X11556812Y6983609D01*
X11556814Y6983608D01*
X11684108Y6949500D01*
X11684110Y6949500D01*
X11800500Y6949500D01*
X11858691Y6930593D01*
X11894655Y6881093D01*
X11899500Y6850500D01*
X11899500Y6630254D01*
X11899501Y6630242D01*
X11911132Y6571773D01*
X11911134Y6571767D01*
X11939341Y6529553D01*
X11955950Y6470665D01*
X11939342Y6419550D01*
X11911603Y6378037D01*
X11900000Y6319701D01*
X11900000Y6316791D01*
X11899589Y6315528D01*
X11899524Y6314862D01*
X11899377Y6314877D01*
X11881093Y6258600D01*
X11831593Y6222636D01*
X11775378Y6221164D01*
X11709409Y6238840D01*
X11665892Y6250500D01*
X11534108Y6250500D01*
X11456200Y6229625D01*
X11406809Y6216391D01*
X11292690Y6150504D01*
X11199498Y6057312D01*
X11195234Y6049926D01*
X11149763Y6008987D01*
X11088913Y6002593D01*
X11035926Y6033187D01*
X11011041Y6089084D01*
X11010499Y6099429D01*
X11010499Y6199896D01*
X11010498Y6199908D01*
X11003972Y6249487D01*
X11003972Y6249489D01*
X10953225Y6358314D01*
X10953224Y6358315D01*
X10953224Y6358316D01*
X10881187Y6430353D01*
X10853412Y6484867D01*
X10862983Y6545299D01*
X10881189Y6570358D01*
X10952809Y6641979D01*
X11003478Y6750639D01*
X11003480Y6750646D01*
X11010000Y6800162D01*
X11010000Y6854999D01*
X11009999Y6855000D01*
X10599000Y6855000D01*
X10540809Y6873907D01*
X10513511Y6904074D01*
X10468039Y6981937D01*
X10415809Y6998907D01*
X10379845Y7048407D01*
X10375000Y7079000D01*
X10375000Y7438312D01*
X10378571Y7449304D01*
X10625000Y7449304D01*
X10625000Y7105791D01*
X10625462Y7105000D01*
X11009999Y7105000D01*
X11010000Y7105001D01*
X11010000Y7159839D01*
X11003480Y7209355D01*
X11003478Y7209362D01*
X10952809Y7318022D01*
X10868021Y7402810D01*
X10759361Y7453479D01*
X10759354Y7453481D01*
X10709839Y7460000D01*
X10635696Y7460000D01*
X10625000Y7449304D01*
X10378571Y7449304D01*
X10393907Y7496503D01*
X10403988Y7508308D01*
X10780470Y7884788D01*
X10826614Y7964712D01*
X10838866Y8010438D01*
X10850500Y8053856D01*
X10850500Y8053857D01*
X10852179Y8060123D01*
X10854696Y8059449D01*
X10876236Y8104648D01*
X10878031Y8106492D01*
X10953224Y8181684D01*
X11003972Y8290513D01*
X11010500Y8340099D01*
X11010499Y8699900D01*
X11003972Y8749487D01*
X11003972Y8749489D01*
X10953225Y8858314D01*
X10953224Y8858315D01*
X10953224Y8858316D01*
X10881187Y8930353D01*
X10853412Y8984867D01*
X10862983Y9045299D01*
X10881189Y9070358D01*
X10952809Y9141979D01*
X11003478Y9250639D01*
X11003480Y9250646D01*
X11010000Y9300162D01*
X11010000Y9354999D01*
X11009999Y9355000D01*
X9990001Y9355000D01*
X9990000Y9354999D01*
X9990000Y9300162D01*
X9996519Y9250646D01*
X9996521Y9250639D01*
X10047190Y9141979D01*
X10118811Y9070358D01*
X10146588Y9015841D01*
X10137017Y8955409D01*
X10118813Y8930354D01*
X10062067Y8873607D01*
X10046774Y8858314D01*
X9996029Y8749490D01*
X9996028Y8749489D01*
X9989500Y8699900D01*
X9989500Y8526190D01*
X9970593Y8467999D01*
X9960504Y8456186D01*
X9333814Y7829496D01*
X9279297Y7801719D01*
X9263810Y7800500D01*
X9199000Y7800500D01*
X9140809Y7819407D01*
X9104845Y7868907D01*
X9100000Y7899500D01*
X9100000Y9659839D01*
X9990000Y9659839D01*
X9990000Y9605001D01*
X9990001Y9605000D01*
X10374999Y9605000D01*
X10375000Y9605001D01*
X10375000Y9959999D01*
X10625000Y9959999D01*
X10625000Y9605001D01*
X10625001Y9605000D01*
X11009999Y9605000D01*
X11010000Y9605001D01*
X11010000Y9659839D01*
X11003480Y9709355D01*
X11003478Y9709362D01*
X10952809Y9818022D01*
X10868021Y9902810D01*
X10759361Y9953479D01*
X10759354Y9953481D01*
X10709839Y9960000D01*
X10625001Y9960000D01*
X10625000Y9959999D01*
X10375000Y9959999D01*
X10374999Y9960000D01*
X10290161Y9960000D01*
X10240645Y9953481D01*
X10240638Y9953479D01*
X10131978Y9902810D01*
X10047190Y9818022D01*
X9996521Y9709362D01*
X9996519Y9709355D01*
X9990000Y9659839D01*
X9100000Y9659839D01*
X9100000Y11601000D01*
X9118907Y11659191D01*
X9168407Y11695155D01*
X9199000Y11700000D01*
X10550397Y11700000D01*
X10608588Y11681093D01*
G37*
%TD.AperFunction*%
%TA.AperFunction,Conductor*%
G36*
X17352878Y9630593D02*
G01*
X17388842Y9581093D01*
X17388842Y9519907D01*
X17352878Y9470407D01*
X17344199Y9464772D01*
X17284788Y9430470D01*
X15333814Y7479496D01*
X15279297Y7451719D01*
X15263810Y7450500D01*
X14680252Y7450500D01*
X14680251Y7450500D01*
X14680241Y7450499D01*
X14621772Y7438868D01*
X14621766Y7438866D01*
X14555451Y7394555D01*
X14555445Y7394549D01*
X14511134Y7328234D01*
X14511132Y7328228D01*
X14499501Y7269759D01*
X14499500Y7269747D01*
X14499500Y6686191D01*
X14480593Y6628000D01*
X14470504Y6616187D01*
X13669004Y5814688D01*
X13614487Y5786911D01*
X13554055Y5796482D01*
X13510790Y5839747D01*
X13503062Y5871937D01*
X13499999Y5875000D01*
X12799000Y5875000D01*
X12740809Y5893907D01*
X12704845Y5943407D01*
X12700000Y5974000D01*
X12700000Y6026000D01*
X12718907Y6084191D01*
X12768407Y6120155D01*
X12799000Y6125000D01*
X13499999Y6125000D01*
X13500000Y6125001D01*
X13500000Y6319698D01*
X13499999Y6319701D01*
X13488396Y6378037D01*
X13460658Y6419549D01*
X13444049Y6478437D01*
X13460656Y6529550D01*
X13488867Y6571769D01*
X13500500Y6630252D01*
X13500500Y7242955D01*
X13513765Y7292457D01*
X13518382Y7300456D01*
X13526614Y7314712D01*
X13550500Y7403856D01*
X13550500Y7496144D01*
X13550500Y8562990D01*
X13569407Y8621181D01*
X13604555Y8651199D01*
X13672466Y8685802D01*
X13703220Y8701472D01*
X13798528Y8796780D01*
X13859719Y8916874D01*
X13875500Y9016512D01*
X13875500Y9016547D01*
X14125000Y9016547D01*
X14140760Y8917035D01*
X14140762Y8917031D01*
X14201881Y8797079D01*
X14297078Y8701882D01*
X14417030Y8640763D01*
X14417029Y8640763D01*
X14516545Y8625001D01*
X14650000Y8625001D01*
X14650000Y9174999D01*
X14900000Y9174999D01*
X14900000Y8625002D01*
X14900001Y8625001D01*
X15033453Y8625001D01*
X15132965Y8640761D01*
X15132969Y8640763D01*
X15252921Y8701882D01*
X15348118Y8797079D01*
X15409237Y8917031D01*
X15425000Y9016547D01*
X15425000Y9174999D01*
X15424999Y9175000D01*
X14900001Y9175000D01*
X14900000Y9174999D01*
X14650000Y9174999D01*
X14649999Y9175000D01*
X14125002Y9175000D01*
X14125001Y9174999D01*
X14125001Y9016547D01*
X14125000Y9016547D01*
X13875500Y9016547D01*
X13875500Y9438810D01*
X13894407Y9497001D01*
X13904496Y9508814D01*
X13955996Y9560314D01*
X14010513Y9588091D01*
X14070945Y9578520D01*
X14114210Y9535255D01*
X14125000Y9490310D01*
X14125000Y9425001D01*
X14125001Y9425000D01*
X15424998Y9425000D01*
X15424999Y9425001D01*
X15424999Y9550500D01*
X15443906Y9608691D01*
X15493406Y9644655D01*
X15523999Y9649500D01*
X15596144Y9649500D01*
X17294687Y9649500D01*
X17352878Y9630593D01*
G37*
%TD.AperFunction*%
%TD*%
M02*
