M48
; DRILL file KiCad 10.0.6-10.0.6~ubuntu24.04.1 date 2026-09-09T10:45:45
; FORMAT={-:-/ absolute / metric / decimal}
; #@! TF.CreationDate,2026-09-09T10:45:45+02:00
; #@! TF.GenerationSoftware,Kicad,Pcbnew,10.0.6-10.0.6~ubuntu24.04.1
; #@! TF.FileFunction,Plated,1,2,PTH
FMAT,2
METRIC
; #@! TA.AperFunction,Plated,PTH,ViaDrill
T1C0.300
%
G90
G05
T1
X0.7Y5.75
X1.3Y6.65
X1.3Y4.85
X2.8Y3.4
X3.6Y2.6
X5.65Y2.6
X7.0Y6.75
X7.0Y5.75
X8.5Y6.4
X9.7Y11.3
X9.7Y0.7
X10.9Y4.2
X11.2Y6.6
X11.6Y5.75
X11.7Y0.7
X11.75Y7.45
X13.7Y11.3
X13.7Y0.7
X13.75Y6.3
X14.15Y4.2
X14.8Y3.7
X15.7Y11.3
X15.9Y8.45
X17.05Y7.8
X17.05Y6.0
X17.05Y1.65
X18.9Y10.3
X19.7Y8.5
X19.7Y0.7
X21.0Y9.95
X21.4Y7.9
X21.4Y6.6
X21.4Y5.4
X21.4Y4.1
X21.4Y2.9
X21.7Y11.3
X21.7Y0.7
X23.7Y11.3
X23.7Y0.7
M30
