%TF.GenerationSoftware,KiCad,Pcbnew,10.0.6-10.0.6~ubuntu24.04.1*%
%TF.CreationDate,2026-09-09T09:43:24+02:00*%
%TF.ProjectId,MA600A-RefWinch-Encoder,4d413630-3041-42d5-9265-6657696e6368,rev?*%
%TF.SameCoordinates,Original*%
%TF.FileFunction,Legend,Top*%
%TF.FilePolarity,Positive*%
%FSLAX46Y46*%
G04 Gerber Fmt 4.6, Leading zero omitted, Abs format (unit mm)*
G04 Created by KiCad (PCBNEW 10.0.6-10.0.6~ubuntu24.04.1) date 2026-09-09 09:43:24*
%MOMM*%
%LPD*%
G01*
G04 APERTURE LIST*
%ADD10C,0.120000*%
G04 APERTURE END LIST*
D10*
X2328571Y7636145D02*
X1871428Y7636145D01*
X2100000Y7636145D02*
X2100000Y8436145D01*
X2100000Y8436145D02*
X2023809Y8321860D01*
X2023809Y8321860D02*
X1947619Y8245669D01*
X1947619Y8245669D02*
X1871428Y8207574D01*
X1842857Y10286145D02*
X1842857Y11086145D01*
X1842857Y11086145D02*
X2109523Y10514717D01*
X2109523Y10514717D02*
X2376190Y11086145D01*
X2376190Y11086145D02*
X2376190Y10286145D01*
X2719047Y10514717D02*
X3100000Y10514717D01*
X2642857Y10286145D02*
X2909524Y11086145D01*
X2909524Y11086145D02*
X3176190Y10286145D01*
X3785714Y11086145D02*
X3633333Y11086145D01*
X3633333Y11086145D02*
X3557142Y11048050D01*
X3557142Y11048050D02*
X3519047Y11009955D01*
X3519047Y11009955D02*
X3442857Y10895669D01*
X3442857Y10895669D02*
X3404761Y10743288D01*
X3404761Y10743288D02*
X3404761Y10438526D01*
X3404761Y10438526D02*
X3442857Y10362336D01*
X3442857Y10362336D02*
X3480952Y10324240D01*
X3480952Y10324240D02*
X3557142Y10286145D01*
X3557142Y10286145D02*
X3709523Y10286145D01*
X3709523Y10286145D02*
X3785714Y10324240D01*
X3785714Y10324240D02*
X3823809Y10362336D01*
X3823809Y10362336D02*
X3861904Y10438526D01*
X3861904Y10438526D02*
X3861904Y10629002D01*
X3861904Y10629002D02*
X3823809Y10705193D01*
X3823809Y10705193D02*
X3785714Y10743288D01*
X3785714Y10743288D02*
X3709523Y10781383D01*
X3709523Y10781383D02*
X3557142Y10781383D01*
X3557142Y10781383D02*
X3480952Y10743288D01*
X3480952Y10743288D02*
X3442857Y10705193D01*
X3442857Y10705193D02*
X3404761Y10629002D01*
X4357143Y11086145D02*
X4433333Y11086145D01*
X4433333Y11086145D02*
X4509524Y11048050D01*
X4509524Y11048050D02*
X4547619Y11009955D01*
X4547619Y11009955D02*
X4585714Y10933764D01*
X4585714Y10933764D02*
X4623809Y10781383D01*
X4623809Y10781383D02*
X4623809Y10590907D01*
X4623809Y10590907D02*
X4585714Y10438526D01*
X4585714Y10438526D02*
X4547619Y10362336D01*
X4547619Y10362336D02*
X4509524Y10324240D01*
X4509524Y10324240D02*
X4433333Y10286145D01*
X4433333Y10286145D02*
X4357143Y10286145D01*
X4357143Y10286145D02*
X4280952Y10324240D01*
X4280952Y10324240D02*
X4242857Y10362336D01*
X4242857Y10362336D02*
X4204762Y10438526D01*
X4204762Y10438526D02*
X4166666Y10590907D01*
X4166666Y10590907D02*
X4166666Y10781383D01*
X4166666Y10781383D02*
X4204762Y10933764D01*
X4204762Y10933764D02*
X4242857Y11009955D01*
X4242857Y11009955D02*
X4280952Y11048050D01*
X4280952Y11048050D02*
X4357143Y11086145D01*
X5119048Y11086145D02*
X5195238Y11086145D01*
X5195238Y11086145D02*
X5271429Y11048050D01*
X5271429Y11048050D02*
X5309524Y11009955D01*
X5309524Y11009955D02*
X5347619Y10933764D01*
X5347619Y10933764D02*
X5385714Y10781383D01*
X5385714Y10781383D02*
X5385714Y10590907D01*
X5385714Y10590907D02*
X5347619Y10438526D01*
X5347619Y10438526D02*
X5309524Y10362336D01*
X5309524Y10362336D02*
X5271429Y10324240D01*
X5271429Y10324240D02*
X5195238Y10286145D01*
X5195238Y10286145D02*
X5119048Y10286145D01*
X5119048Y10286145D02*
X5042857Y10324240D01*
X5042857Y10324240D02*
X5004762Y10362336D01*
X5004762Y10362336D02*
X4966667Y10438526D01*
X4966667Y10438526D02*
X4928571Y10590907D01*
X4928571Y10590907D02*
X4928571Y10781383D01*
X4928571Y10781383D02*
X4966667Y10933764D01*
X4966667Y10933764D02*
X5004762Y11009955D01*
X5004762Y11009955D02*
X5042857Y11048050D01*
X5042857Y11048050D02*
X5119048Y11086145D01*
X5690476Y10514717D02*
X6071429Y10514717D01*
X5614286Y10286145D02*
X5880953Y11086145D01*
X5880953Y11086145D02*
X6147619Y10286145D01*
X6947619Y10819479D02*
X7138095Y10286145D01*
X7138095Y10286145D02*
X7328572Y10819479D01*
X7785715Y11086145D02*
X7861905Y11086145D01*
X7861905Y11086145D02*
X7938096Y11048050D01*
X7938096Y11048050D02*
X7976191Y11009955D01*
X7976191Y11009955D02*
X8014286Y10933764D01*
X8014286Y10933764D02*
X8052381Y10781383D01*
X8052381Y10781383D02*
X8052381Y10590907D01*
X8052381Y10590907D02*
X8014286Y10438526D01*
X8014286Y10438526D02*
X7976191Y10362336D01*
X7976191Y10362336D02*
X7938096Y10324240D01*
X7938096Y10324240D02*
X7861905Y10286145D01*
X7861905Y10286145D02*
X7785715Y10286145D01*
X7785715Y10286145D02*
X7709524Y10324240D01*
X7709524Y10324240D02*
X7671429Y10362336D01*
X7671429Y10362336D02*
X7633334Y10438526D01*
X7633334Y10438526D02*
X7595238Y10590907D01*
X7595238Y10590907D02*
X7595238Y10781383D01*
X7595238Y10781383D02*
X7633334Y10933764D01*
X7633334Y10933764D02*
X7671429Y11009955D01*
X7671429Y11009955D02*
X7709524Y11048050D01*
X7709524Y11048050D02*
X7785715Y11086145D01*
X8395239Y10362336D02*
X8433334Y10324240D01*
X8433334Y10324240D02*
X8395239Y10286145D01*
X8395239Y10286145D02*
X8357143Y10324240D01*
X8357143Y10324240D02*
X8395239Y10362336D01*
X8395239Y10362336D02*
X8395239Y10286145D01*
X8700000Y11086145D02*
X9195238Y11086145D01*
X9195238Y11086145D02*
X8928572Y10781383D01*
X8928572Y10781383D02*
X9042857Y10781383D01*
X9042857Y10781383D02*
X9119048Y10743288D01*
X9119048Y10743288D02*
X9157143Y10705193D01*
X9157143Y10705193D02*
X9195238Y10629002D01*
X9195238Y10629002D02*
X9195238Y10438526D01*
X9195238Y10438526D02*
X9157143Y10362336D01*
X9157143Y10362336D02*
X9119048Y10324240D01*
X9119048Y10324240D02*
X9042857Y10286145D01*
X9042857Y10286145D02*
X8814286Y10286145D01*
X8814286Y10286145D02*
X8738095Y10324240D01*
X8738095Y10324240D02*
X8700000Y10362336D01*
X17847619Y11386145D02*
X17466667Y11386145D01*
X17466667Y11386145D02*
X17428571Y11005193D01*
X17428571Y11005193D02*
X17466667Y11043288D01*
X17466667Y11043288D02*
X17542857Y11081383D01*
X17542857Y11081383D02*
X17733333Y11081383D01*
X17733333Y11081383D02*
X17809524Y11043288D01*
X17809524Y11043288D02*
X17847619Y11005193D01*
X17847619Y11005193D02*
X17885714Y10929002D01*
X17885714Y10929002D02*
X17885714Y10738526D01*
X17885714Y10738526D02*
X17847619Y10662336D01*
X17847619Y10662336D02*
X17809524Y10624240D01*
X17809524Y10624240D02*
X17733333Y10586145D01*
X17733333Y10586145D02*
X17542857Y10586145D01*
X17542857Y10586145D02*
X17466667Y10624240D01*
X17466667Y10624240D02*
X17428571Y10662336D01*
X18114286Y11386145D02*
X18380953Y10586145D01*
X18380953Y10586145D02*
X18647619Y11386145D01*
X17390476Y9348050D02*
X17314286Y9386145D01*
X17314286Y9386145D02*
X17200000Y9386145D01*
X17200000Y9386145D02*
X17085714Y9348050D01*
X17085714Y9348050D02*
X17009524Y9271860D01*
X17009524Y9271860D02*
X16971429Y9195669D01*
X16971429Y9195669D02*
X16933333Y9043288D01*
X16933333Y9043288D02*
X16933333Y8929002D01*
X16933333Y8929002D02*
X16971429Y8776621D01*
X16971429Y8776621D02*
X17009524Y8700431D01*
X17009524Y8700431D02*
X17085714Y8624240D01*
X17085714Y8624240D02*
X17200000Y8586145D01*
X17200000Y8586145D02*
X17276191Y8586145D01*
X17276191Y8586145D02*
X17390476Y8624240D01*
X17390476Y8624240D02*
X17428572Y8662336D01*
X17428572Y8662336D02*
X17428572Y8929002D01*
X17428572Y8929002D02*
X17276191Y8929002D01*
X17771429Y8586145D02*
X17771429Y9386145D01*
X17771429Y9386145D02*
X18228572Y8586145D01*
X18228572Y8586145D02*
X18228572Y9386145D01*
X18609524Y8586145D02*
X18609524Y9386145D01*
X18609524Y9386145D02*
X18800000Y9386145D01*
X18800000Y9386145D02*
X18914286Y9348050D01*
X18914286Y9348050D02*
X18990476Y9271860D01*
X18990476Y9271860D02*
X19028571Y9195669D01*
X19028571Y9195669D02*
X19066667Y9043288D01*
X19066667Y9043288D02*
X19066667Y8929002D01*
X19066667Y8929002D02*
X19028571Y8776621D01*
X19028571Y8776621D02*
X18990476Y8700431D01*
X18990476Y8700431D02*
X18914286Y8624240D01*
X18914286Y8624240D02*
X18800000Y8586145D01*
X18800000Y8586145D02*
X18609524Y8586145D01*
X17866667Y6662336D02*
X17828571Y6624240D01*
X17828571Y6624240D02*
X17714286Y6586145D01*
X17714286Y6586145D02*
X17638095Y6586145D01*
X17638095Y6586145D02*
X17523809Y6624240D01*
X17523809Y6624240D02*
X17447619Y6700431D01*
X17447619Y6700431D02*
X17409524Y6776621D01*
X17409524Y6776621D02*
X17371428Y6929002D01*
X17371428Y6929002D02*
X17371428Y7043288D01*
X17371428Y7043288D02*
X17409524Y7195669D01*
X17409524Y7195669D02*
X17447619Y7271860D01*
X17447619Y7271860D02*
X17523809Y7348050D01*
X17523809Y7348050D02*
X17638095Y7386145D01*
X17638095Y7386145D02*
X17714286Y7386145D01*
X17714286Y7386145D02*
X17828571Y7348050D01*
X17828571Y7348050D02*
X17866667Y7309955D01*
X18171428Y6624240D02*
X18285714Y6586145D01*
X18285714Y6586145D02*
X18476190Y6586145D01*
X18476190Y6586145D02*
X18552381Y6624240D01*
X18552381Y6624240D02*
X18590476Y6662336D01*
X18590476Y6662336D02*
X18628571Y6738526D01*
X18628571Y6738526D02*
X18628571Y6814717D01*
X18628571Y6814717D02*
X18590476Y6890907D01*
X18590476Y6890907D02*
X18552381Y6929002D01*
X18552381Y6929002D02*
X18476190Y6967098D01*
X18476190Y6967098D02*
X18323809Y7005193D01*
X18323809Y7005193D02*
X18247619Y7043288D01*
X18247619Y7043288D02*
X18209524Y7081383D01*
X18209524Y7081383D02*
X18171428Y7157574D01*
X18171428Y7157574D02*
X18171428Y7233764D01*
X18171428Y7233764D02*
X18209524Y7309955D01*
X18209524Y7309955D02*
X18247619Y7348050D01*
X18247619Y7348050D02*
X18323809Y7386145D01*
X18323809Y7386145D02*
X18514286Y7386145D01*
X18514286Y7386145D02*
X18628571Y7348050D01*
X16647618Y4624240D02*
X16761904Y4586145D01*
X16761904Y4586145D02*
X16952380Y4586145D01*
X16952380Y4586145D02*
X17028571Y4624240D01*
X17028571Y4624240D02*
X17066666Y4662336D01*
X17066666Y4662336D02*
X17104761Y4738526D01*
X17104761Y4738526D02*
X17104761Y4814717D01*
X17104761Y4814717D02*
X17066666Y4890907D01*
X17066666Y4890907D02*
X17028571Y4929002D01*
X17028571Y4929002D02*
X16952380Y4967098D01*
X16952380Y4967098D02*
X16799999Y5005193D01*
X16799999Y5005193D02*
X16723809Y5043288D01*
X16723809Y5043288D02*
X16685714Y5081383D01*
X16685714Y5081383D02*
X16647618Y5157574D01*
X16647618Y5157574D02*
X16647618Y5233764D01*
X16647618Y5233764D02*
X16685714Y5309955D01*
X16685714Y5309955D02*
X16723809Y5348050D01*
X16723809Y5348050D02*
X16799999Y5386145D01*
X16799999Y5386145D02*
X16990476Y5386145D01*
X16990476Y5386145D02*
X17104761Y5348050D01*
X17904762Y4662336D02*
X17866666Y4624240D01*
X17866666Y4624240D02*
X17752381Y4586145D01*
X17752381Y4586145D02*
X17676190Y4586145D01*
X17676190Y4586145D02*
X17561904Y4624240D01*
X17561904Y4624240D02*
X17485714Y4700431D01*
X17485714Y4700431D02*
X17447619Y4776621D01*
X17447619Y4776621D02*
X17409523Y4929002D01*
X17409523Y4929002D02*
X17409523Y5043288D01*
X17409523Y5043288D02*
X17447619Y5195669D01*
X17447619Y5195669D02*
X17485714Y5271860D01*
X17485714Y5271860D02*
X17561904Y5348050D01*
X17561904Y5348050D02*
X17676190Y5386145D01*
X17676190Y5386145D02*
X17752381Y5386145D01*
X17752381Y5386145D02*
X17866666Y5348050D01*
X17866666Y5348050D02*
X17904762Y5309955D01*
X18628571Y4586145D02*
X18247619Y4586145D01*
X18247619Y4586145D02*
X18247619Y5386145D01*
X18895238Y4586145D02*
X18895238Y5386145D01*
X19352381Y4586145D02*
X19009523Y5043288D01*
X19352381Y5386145D02*
X18895238Y4929002D01*
X19238096Y562336D02*
X19200000Y524240D01*
X19200000Y524240D02*
X19085715Y486145D01*
X19085715Y486145D02*
X19009524Y486145D01*
X19009524Y486145D02*
X18895238Y524240D01*
X18895238Y524240D02*
X18819048Y600431D01*
X18819048Y600431D02*
X18780953Y676621D01*
X18780953Y676621D02*
X18742857Y829002D01*
X18742857Y829002D02*
X18742857Y943288D01*
X18742857Y943288D02*
X18780953Y1095669D01*
X18780953Y1095669D02*
X18819048Y1171860D01*
X18819048Y1171860D02*
X18895238Y1248050D01*
X18895238Y1248050D02*
X19009524Y1286145D01*
X19009524Y1286145D02*
X19085715Y1286145D01*
X19085715Y1286145D02*
X19200000Y1248050D01*
X19200000Y1248050D02*
X19238096Y1209955D01*
X19580953Y486145D02*
X19580953Y1286145D01*
X19961905Y486145D02*
X19961905Y1286145D01*
X19961905Y1286145D02*
X20266667Y1286145D01*
X20266667Y1286145D02*
X20342857Y1248050D01*
X20342857Y1248050D02*
X20380952Y1209955D01*
X20380952Y1209955D02*
X20419048Y1133764D01*
X20419048Y1133764D02*
X20419048Y1019479D01*
X20419048Y1019479D02*
X20380952Y943288D01*
X20380952Y943288D02*
X20342857Y905193D01*
X20342857Y905193D02*
X20266667Y867098D01*
X20266667Y867098D02*
X19961905Y867098D01*
X20914286Y1286145D02*
X21066667Y1286145D01*
X21066667Y1286145D02*
X21142857Y1248050D01*
X21142857Y1248050D02*
X21219048Y1171860D01*
X21219048Y1171860D02*
X21257143Y1019479D01*
X21257143Y1019479D02*
X21257143Y752812D01*
X21257143Y752812D02*
X21219048Y600431D01*
X21219048Y600431D02*
X21142857Y524240D01*
X21142857Y524240D02*
X21066667Y486145D01*
X21066667Y486145D02*
X20914286Y486145D01*
X20914286Y486145D02*
X20838095Y524240D01*
X20838095Y524240D02*
X20761905Y600431D01*
X20761905Y600431D02*
X20723809Y752812D01*
X20723809Y752812D02*
X20723809Y1019479D01*
X20723809Y1019479D02*
X20761905Y1171860D01*
X20761905Y1171860D02*
X20838095Y1248050D01*
X20838095Y1248050D02*
X20914286Y1286145D01*
X19509523Y9736145D02*
X20004761Y9736145D01*
X20004761Y9736145D02*
X19738095Y9431383D01*
X19738095Y9431383D02*
X19852380Y9431383D01*
X19852380Y9431383D02*
X19928571Y9393288D01*
X19928571Y9393288D02*
X19966666Y9355193D01*
X19966666Y9355193D02*
X20004761Y9279002D01*
X20004761Y9279002D02*
X20004761Y9088526D01*
X20004761Y9088526D02*
X19966666Y9012336D01*
X19966666Y9012336D02*
X19928571Y8974240D01*
X19928571Y8974240D02*
X19852380Y8936145D01*
X19852380Y8936145D02*
X19623809Y8936145D01*
X19623809Y8936145D02*
X19547618Y8974240D01*
X19547618Y8974240D02*
X19509523Y9012336D01*
X20233333Y9736145D02*
X20500000Y8936145D01*
X20500000Y8936145D02*
X20766666Y9736145D01*
X20957142Y9736145D02*
X21452380Y9736145D01*
X21452380Y9736145D02*
X21185714Y9431383D01*
X21185714Y9431383D02*
X21299999Y9431383D01*
X21299999Y9431383D02*
X21376190Y9393288D01*
X21376190Y9393288D02*
X21414285Y9355193D01*
X21414285Y9355193D02*
X21452380Y9279002D01*
X21452380Y9279002D02*
X21452380Y9088526D01*
X21452380Y9088526D02*
X21414285Y9012336D01*
X21414285Y9012336D02*
X21376190Y8974240D01*
X21376190Y8974240D02*
X21299999Y8936145D01*
X21299999Y8936145D02*
X21071428Y8936145D01*
X21071428Y8936145D02*
X20995237Y8974240D01*
X20995237Y8974240D02*
X20957142Y9012336D01*
X23828571Y1436145D02*
X23371428Y1436145D01*
X23600000Y1436145D02*
X23600000Y2236145D01*
X23600000Y2236145D02*
X23523809Y2121860D01*
X23523809Y2121860D02*
X23447619Y2045669D01*
X23447619Y2045669D02*
X23371428Y2007574D01*
X17087664Y1238097D02*
X17125760Y1200001D01*
X17125760Y1200001D02*
X17163855Y1085716D01*
X17163855Y1085716D02*
X17163855Y1009525D01*
X17163855Y1009525D02*
X17125760Y895239D01*
X17125760Y895239D02*
X17049569Y819049D01*
X17049569Y819049D02*
X16973379Y780954D01*
X16973379Y780954D02*
X16820998Y742858D01*
X16820998Y742858D02*
X16706712Y742858D01*
X16706712Y742858D02*
X16554331Y780954D01*
X16554331Y780954D02*
X16478140Y819049D01*
X16478140Y819049D02*
X16401950Y895239D01*
X16401950Y895239D02*
X16363855Y1009525D01*
X16363855Y1009525D02*
X16363855Y1085716D01*
X16363855Y1085716D02*
X16401950Y1200001D01*
X16401950Y1200001D02*
X16440045Y1238097D01*
X16363855Y1733335D02*
X16363855Y1885716D01*
X16363855Y1885716D02*
X16401950Y1961906D01*
X16401950Y1961906D02*
X16478140Y2038097D01*
X16478140Y2038097D02*
X16630521Y2076192D01*
X16630521Y2076192D02*
X16897188Y2076192D01*
X16897188Y2076192D02*
X17049569Y2038097D01*
X17049569Y2038097D02*
X17125760Y1961906D01*
X17125760Y1961906D02*
X17163855Y1885716D01*
X17163855Y1885716D02*
X17163855Y1733335D01*
X17163855Y1733335D02*
X17125760Y1657144D01*
X17125760Y1657144D02*
X17049569Y1580954D01*
X17049569Y1580954D02*
X16897188Y1542858D01*
X16897188Y1542858D02*
X16630521Y1542858D01*
X16630521Y1542858D02*
X16478140Y1580954D01*
X16478140Y1580954D02*
X16401950Y1657144D01*
X16401950Y1657144D02*
X16363855Y1733335D01*
X17163855Y2419049D02*
X16363855Y2419049D01*
X16363855Y2419049D02*
X16363855Y2723811D01*
X16363855Y2723811D02*
X16401950Y2800001D01*
X16401950Y2800001D02*
X16440045Y2838096D01*
X16440045Y2838096D02*
X16516236Y2876192D01*
X16516236Y2876192D02*
X16630521Y2876192D01*
X16630521Y2876192D02*
X16706712Y2838096D01*
X16706712Y2838096D02*
X16744807Y2800001D01*
X16744807Y2800001D02*
X16782902Y2723811D01*
X16782902Y2723811D02*
X16782902Y2419049D01*
X17163855Y3219049D02*
X16363855Y3219049D01*
X3390476Y9086145D02*
X3390476Y8438526D01*
X3390476Y8438526D02*
X3428571Y8362336D01*
X3428571Y8362336D02*
X3466666Y8324240D01*
X3466666Y8324240D02*
X3542857Y8286145D01*
X3542857Y8286145D02*
X3695238Y8286145D01*
X3695238Y8286145D02*
X3771428Y8324240D01*
X3771428Y8324240D02*
X3809523Y8362336D01*
X3809523Y8362336D02*
X3847619Y8438526D01*
X3847619Y8438526D02*
X3847619Y9086145D01*
X4647618Y8286145D02*
X4190475Y8286145D01*
X4419047Y8286145D02*
X4419047Y9086145D01*
X4419047Y9086145D02*
X4342856Y8971860D01*
X4342856Y8971860D02*
X4266666Y8895669D01*
X4266666Y8895669D02*
X4190475Y8857574D01*
X13866667Y10442336D02*
X13828571Y10404240D01*
X13828571Y10404240D02*
X13714286Y10366145D01*
X13714286Y10366145D02*
X13638095Y10366145D01*
X13638095Y10366145D02*
X13523809Y10404240D01*
X13523809Y10404240D02*
X13447619Y10480431D01*
X13447619Y10480431D02*
X13409524Y10556621D01*
X13409524Y10556621D02*
X13371428Y10709002D01*
X13371428Y10709002D02*
X13371428Y10823288D01*
X13371428Y10823288D02*
X13409524Y10975669D01*
X13409524Y10975669D02*
X13447619Y11051860D01*
X13447619Y11051860D02*
X13523809Y11128050D01*
X13523809Y11128050D02*
X13638095Y11166145D01*
X13638095Y11166145D02*
X13714286Y11166145D01*
X13714286Y11166145D02*
X13828571Y11128050D01*
X13828571Y11128050D02*
X13866667Y11089955D01*
X14628571Y10366145D02*
X14171428Y10366145D01*
X14400000Y10366145D02*
X14400000Y11166145D01*
X14400000Y11166145D02*
X14323809Y11051860D01*
X14323809Y11051860D02*
X14247619Y10975669D01*
X14247619Y10975669D02*
X14171428Y10937574D01*
X24063855Y5733334D02*
X24635283Y5733334D01*
X24635283Y5733334D02*
X24749569Y5695239D01*
X24749569Y5695239D02*
X24825760Y5619048D01*
X24825760Y5619048D02*
X24863855Y5504763D01*
X24863855Y5504763D02*
X24863855Y5428572D01*
X24863855Y6533334D02*
X24863855Y6076191D01*
X24863855Y6304763D02*
X24063855Y6304763D01*
X24063855Y6304763D02*
X24178140Y6228572D01*
X24178140Y6228572D02*
X24254331Y6152382D01*
X24254331Y6152382D02*
X24292426Y6076191D01*
X9627664Y8866668D02*
X9665760Y8828572D01*
X9665760Y8828572D02*
X9703855Y8714287D01*
X9703855Y8714287D02*
X9703855Y8638096D01*
X9703855Y8638096D02*
X9665760Y8523810D01*
X9665760Y8523810D02*
X9589569Y8447620D01*
X9589569Y8447620D02*
X9513379Y8409525D01*
X9513379Y8409525D02*
X9360998Y8371429D01*
X9360998Y8371429D02*
X9246712Y8371429D01*
X9246712Y8371429D02*
X9094331Y8409525D01*
X9094331Y8409525D02*
X9018140Y8447620D01*
X9018140Y8447620D02*
X8941950Y8523810D01*
X8941950Y8523810D02*
X8903855Y8638096D01*
X8903855Y8638096D02*
X8903855Y8714287D01*
X8903855Y8714287D02*
X8941950Y8828572D01*
X8941950Y8828572D02*
X8980045Y8866668D01*
X8903855Y9133334D02*
X8903855Y9628572D01*
X8903855Y9628572D02*
X9208617Y9361906D01*
X9208617Y9361906D02*
X9208617Y9476191D01*
X9208617Y9476191D02*
X9246712Y9552382D01*
X9246712Y9552382D02*
X9284807Y9590477D01*
X9284807Y9590477D02*
X9360998Y9628572D01*
X9360998Y9628572D02*
X9551474Y9628572D01*
X9551474Y9628572D02*
X9627664Y9590477D01*
X9627664Y9590477D02*
X9665760Y9552382D01*
X9665760Y9552382D02*
X9703855Y9476191D01*
X9703855Y9476191D02*
X9703855Y9247620D01*
X9703855Y9247620D02*
X9665760Y9171429D01*
X9665760Y9171429D02*
X9627664Y9133334D01*
X9627664Y6366668D02*
X9665760Y6328572D01*
X9665760Y6328572D02*
X9703855Y6214287D01*
X9703855Y6214287D02*
X9703855Y6138096D01*
X9703855Y6138096D02*
X9665760Y6023810D01*
X9665760Y6023810D02*
X9589569Y5947620D01*
X9589569Y5947620D02*
X9513379Y5909525D01*
X9513379Y5909525D02*
X9360998Y5871429D01*
X9360998Y5871429D02*
X9246712Y5871429D01*
X9246712Y5871429D02*
X9094331Y5909525D01*
X9094331Y5909525D02*
X9018140Y5947620D01*
X9018140Y5947620D02*
X8941950Y6023810D01*
X8941950Y6023810D02*
X8903855Y6138096D01*
X8903855Y6138096D02*
X8903855Y6214287D01*
X8903855Y6214287D02*
X8941950Y6328572D01*
X8941950Y6328572D02*
X8980045Y6366668D01*
X9170521Y7052382D02*
X9703855Y7052382D01*
X8865760Y6861906D02*
X9437188Y6671429D01*
X9437188Y6671429D02*
X9437188Y7166668D01*
X13866667Y3942336D02*
X13828571Y3904240D01*
X13828571Y3904240D02*
X13714286Y3866145D01*
X13714286Y3866145D02*
X13638095Y3866145D01*
X13638095Y3866145D02*
X13523809Y3904240D01*
X13523809Y3904240D02*
X13447619Y3980431D01*
X13447619Y3980431D02*
X13409524Y4056621D01*
X13409524Y4056621D02*
X13371428Y4209002D01*
X13371428Y4209002D02*
X13371428Y4323288D01*
X13371428Y4323288D02*
X13409524Y4475669D01*
X13409524Y4475669D02*
X13447619Y4551860D01*
X13447619Y4551860D02*
X13523809Y4628050D01*
X13523809Y4628050D02*
X13638095Y4666145D01*
X13638095Y4666145D02*
X13714286Y4666145D01*
X13714286Y4666145D02*
X13828571Y4628050D01*
X13828571Y4628050D02*
X13866667Y4589955D01*
X14171428Y4589955D02*
X14209524Y4628050D01*
X14209524Y4628050D02*
X14285714Y4666145D01*
X14285714Y4666145D02*
X14476190Y4666145D01*
X14476190Y4666145D02*
X14552381Y4628050D01*
X14552381Y4628050D02*
X14590476Y4589955D01*
X14590476Y4589955D02*
X14628571Y4513764D01*
X14628571Y4513764D02*
X14628571Y4437574D01*
X14628571Y4437574D02*
X14590476Y4323288D01*
X14590476Y4323288D02*
X14133333Y3866145D01*
X14133333Y3866145D02*
X14628571Y3866145D01*
%TO.C,C1*%
X13859420Y9810000D02*
X14140580Y9810000D01*
X13859420Y8790000D02*
X14140580Y8790000D01*
%TO.C,J1*%
X22790000Y11485000D02*
X22790000Y9685000D01*
X22790000Y2315000D02*
X21800000Y2315000D01*
X22790000Y515000D02*
X22790000Y2315000D01*
X24240000Y11485000D02*
X22790000Y11485000D01*
X24240000Y515000D02*
X22790000Y515000D01*
X27060000Y1785000D02*
X27060000Y10215000D01*
%TO.C,C3*%
X10140000Y8892164D02*
X10140000Y9107836D01*
X10860000Y8892164D02*
X10860000Y9107836D01*
%TO.C,C4*%
X10140000Y6392164D02*
X10140000Y6607836D01*
X10860000Y6392164D02*
X10860000Y6607836D01*
%TO.C,C2*%
X13859420Y3310000D02*
X14140580Y3310000D01*
X13859420Y2290000D02*
X14140580Y2290000D01*
%TD*%
M02*
