%TF.GenerationSoftware,KiCad,Pcbnew,10.0.6-10.0.6~ubuntu24.04.1*%
%TF.CreationDate,2026-09-09T09:43:24+02:00*%
%TF.ProjectId,MA600A-RefWinch-Encoder,4d413630-3041-42d5-9265-6657696e6368,rev?*%
%TF.SameCoordinates,Original*%
%TF.FileFunction,Soldermask,Top*%
%TF.FilePolarity,Negative*%
%FSLAX46Y46*%
G04 Gerber Fmt 4.6, Leading zero omitted, Abs format (unit mm)*
G04 Created by KiCad (PCBNEW 10.0.6-10.0.6~ubuntu24.04.1) date 2026-09-09 09:43:24*
%MOMM*%
%LPD*%
G01*
G04 APERTURE LIST*
G04 APERTURE END LIST*
G36*
X15210476Y1508134D02*
G01*
X15334819Y1436344D01*
X15436344Y1334819D01*
X15508134Y1210476D01*
X15545295Y1071789D01*
X15545295Y928211D01*
X15508134Y789524D01*
X15436344Y665181D01*
X15334819Y563656D01*
X15210476Y491866D01*
X15071789Y454705D01*
X14928211Y454705D01*
X14789524Y491866D01*
X14665181Y563656D01*
X14563656Y665181D01*
X14491866Y789524D01*
X14454705Y928211D01*
X14454705Y1071789D01*
X14491866Y1210476D01*
X14563656Y1334819D01*
X14665181Y1436344D01*
X14789524Y1508134D01*
X14928211Y1545295D01*
X15071789Y1545295D01*
X15210476Y1508134D01*
G37*
G36*
X27018685Y1567031D02*
G01*
X27027358Y1563202D01*
X27034925Y1562099D01*
X27082223Y1538977D01*
X27119541Y1522499D01*
X27122996Y1519044D01*
X27123920Y1518592D01*
X27193591Y1448921D01*
X27194042Y1447998D01*
X27197499Y1444541D01*
X27213978Y1407218D01*
X27237098Y1359927D01*
X27238200Y1352361D01*
X27242031Y1343685D01*
X27250000Y1275000D01*
X27250000Y775000D01*
X27242031Y706315D01*
X27238199Y697639D01*
X27237098Y690075D01*
X27213985Y642798D01*
X27197499Y605459D01*
X27194041Y602002D01*
X27193591Y601080D01*
X27123920Y531409D01*
X27122998Y530959D01*
X27119541Y527501D01*
X27082207Y511017D01*
X27034926Y487902D01*
X27027361Y486800D01*
X27018685Y482969D01*
X26950000Y475000D01*
X24750000Y475000D01*
X24681315Y482969D01*
X24672638Y486800D01*
X24665074Y487902D01*
X24617787Y511019D01*
X24580459Y527501D01*
X24577002Y530958D01*
X24576079Y531409D01*
X24506408Y601080D01*
X24505956Y602004D01*
X24502501Y605459D01*
X24486025Y642772D01*
X24462901Y690074D01*
X24461798Y697643D01*
X24457969Y706315D01*
X24450000Y775000D01*
X24450000Y1275000D01*
X24457969Y1343685D01*
X24461798Y1352358D01*
X24462901Y1359926D01*
X24486028Y1407234D01*
X24502501Y1444541D01*
X24505955Y1447996D01*
X24506408Y1448921D01*
X24576079Y1518592D01*
X24577004Y1519045D01*
X24580459Y1522499D01*
X24617761Y1538970D01*
X24665073Y1562099D01*
X24672642Y1563202D01*
X24681315Y1567031D01*
X24750000Y1575000D01*
X26950000Y1575000D01*
X27018685Y1567031D01*
G37*
G36*
X18210476Y2508134D02*
G01*
X18334819Y2436344D01*
X18436344Y2334819D01*
X18508134Y2210476D01*
X18545295Y2071789D01*
X18545295Y1928211D01*
X18508134Y1789524D01*
X18436344Y1665181D01*
X18334819Y1563656D01*
X18210476Y1491866D01*
X18071789Y1454705D01*
X17928211Y1454705D01*
X17789524Y1491866D01*
X17665181Y1563656D01*
X17563656Y1665181D01*
X17491866Y1789524D01*
X17454705Y1928211D01*
X17454705Y2071789D01*
X17491866Y2210476D01*
X17563656Y2334819D01*
X17665181Y2436344D01*
X17789524Y2508134D01*
X17928211Y2545295D01*
X18071789Y2545295D01*
X18210476Y2508134D01*
G37*
G36*
X20210476Y2508134D02*
G01*
X20334819Y2436344D01*
X20436344Y2334819D01*
X20508134Y2210476D01*
X20545295Y2071789D01*
X20545295Y1928211D01*
X20508134Y1789524D01*
X20436344Y1665181D01*
X20334819Y1563656D01*
X20210476Y1491866D01*
X20071789Y1454705D01*
X19928211Y1454705D01*
X19789524Y1491866D01*
X19665181Y1563656D01*
X19563656Y1665181D01*
X19491866Y1789524D01*
X19454705Y1928211D01*
X19454705Y2071789D01*
X19491866Y2210476D01*
X19563656Y2334819D01*
X19665181Y2436344D01*
X19789524Y2508134D01*
X19928211Y2545295D01*
X20071789Y2545295D01*
X20210476Y2508134D01*
G37*
G36*
X13456409Y3323725D02*
G01*
X13519958Y3315359D01*
X13535943Y3307905D01*
X13555238Y3304067D01*
X13580792Y3286992D01*
X13607290Y3274636D01*
X13623412Y3258514D01*
X13644454Y3244454D01*
X13658513Y3223413D01*
X13674635Y3207291D01*
X13686990Y3180796D01*
X13704067Y3155238D01*
X13707905Y3135942D01*
X13715358Y3119959D01*
X13723722Y3056423D01*
X13725000Y3050000D01*
X13725000Y2550000D01*
X13723722Y2543576D01*
X13715358Y2480042D01*
X13707905Y2464061D01*
X13704067Y2444762D01*
X13686988Y2419203D01*
X13674635Y2392710D01*
X13658516Y2376592D01*
X13644454Y2355546D01*
X13623408Y2341484D01*
X13607290Y2325365D01*
X13580797Y2313012D01*
X13555238Y2295933D01*
X13535939Y2292095D01*
X13519958Y2284642D01*
X13456424Y2276278D01*
X13450000Y2275000D01*
X13000000Y2275000D01*
X12993577Y2276278D01*
X12930041Y2284642D01*
X12914058Y2292095D01*
X12894762Y2295933D01*
X12869204Y2313010D01*
X12842709Y2325365D01*
X12826587Y2341487D01*
X12805546Y2355546D01*
X12791486Y2376588D01*
X12775364Y2392710D01*
X12763008Y2419208D01*
X12745933Y2444762D01*
X12742095Y2464057D01*
X12734641Y2480042D01*
X12726275Y2543591D01*
X12725000Y2550000D01*
X12725000Y3050000D01*
X12726274Y3056408D01*
X12734641Y3119959D01*
X12742095Y3135946D01*
X12745933Y3155238D01*
X12763006Y3180791D01*
X12775364Y3207291D01*
X12791488Y3223416D01*
X12805546Y3244454D01*
X12826584Y3258512D01*
X12842709Y3274636D01*
X12869209Y3286994D01*
X12894762Y3304067D01*
X12914054Y3307905D01*
X12930041Y3315359D01*
X12993592Y3323726D01*
X13000000Y3325000D01*
X13450000Y3325000D01*
X13456409Y3323725D01*
G37*
G36*
X15006409Y3323725D02*
G01*
X15069958Y3315359D01*
X15085943Y3307905D01*
X15105238Y3304067D01*
X15130792Y3286992D01*
X15157290Y3274636D01*
X15173412Y3258514D01*
X15194454Y3244454D01*
X15208513Y3223413D01*
X15224635Y3207291D01*
X15236990Y3180796D01*
X15254067Y3155238D01*
X15257905Y3135942D01*
X15265358Y3119959D01*
X15273722Y3056423D01*
X15275000Y3050000D01*
X15275000Y2550000D01*
X15273722Y2543576D01*
X15265358Y2480042D01*
X15257905Y2464061D01*
X15254067Y2444762D01*
X15236988Y2419203D01*
X15224635Y2392710D01*
X15208516Y2376592D01*
X15194454Y2355546D01*
X15173408Y2341484D01*
X15157290Y2325365D01*
X15130797Y2313012D01*
X15105238Y2295933D01*
X15085939Y2292095D01*
X15069958Y2284642D01*
X15006424Y2276278D01*
X15000000Y2275000D01*
X14550000Y2275000D01*
X14543577Y2276278D01*
X14480041Y2284642D01*
X14464058Y2292095D01*
X14444762Y2295933D01*
X14419204Y2313010D01*
X14392709Y2325365D01*
X14376587Y2341487D01*
X14355546Y2355546D01*
X14341486Y2376588D01*
X14325364Y2392710D01*
X14313008Y2419208D01*
X14295933Y2444762D01*
X14292095Y2464057D01*
X14284641Y2480042D01*
X14276275Y2543591D01*
X14275000Y2550000D01*
X14275000Y3050000D01*
X14276274Y3056408D01*
X14284641Y3119959D01*
X14292095Y3135946D01*
X14295933Y3155238D01*
X14313006Y3180791D01*
X14325364Y3207291D01*
X14341488Y3223416D01*
X14355546Y3244454D01*
X14376584Y3258512D01*
X14392709Y3274636D01*
X14419209Y3286994D01*
X14444762Y3304067D01*
X14464054Y3307905D01*
X14480041Y3315359D01*
X14543592Y3323726D01*
X14550000Y3325000D01*
X15000000Y3325000D01*
X15006409Y3323725D01*
G37*
G36*
X23426537Y3209776D02*
G01*
X23491421Y3166421D01*
X23534776Y3101537D01*
X23550000Y3025000D01*
X23550000Y2725000D01*
X23534776Y2648463D01*
X23491421Y2583579D01*
X23426537Y2540224D01*
X23350000Y2525000D01*
X21950000Y2525000D01*
X21873463Y2540224D01*
X21808579Y2583579D01*
X21765224Y2648463D01*
X21750000Y2725000D01*
X21750000Y3025000D01*
X21765224Y3101537D01*
X21808579Y3166421D01*
X21873463Y3209776D01*
X21950000Y3225000D01*
X23350000Y3225000D01*
X23426537Y3209776D01*
G37*
G36*
X18210476Y4508134D02*
G01*
X18334819Y4436344D01*
X18436344Y4334819D01*
X18508134Y4210476D01*
X18545295Y4071789D01*
X18545295Y3928211D01*
X18508134Y3789524D01*
X18436344Y3665181D01*
X18334819Y3563656D01*
X18210476Y3491866D01*
X18071789Y3454705D01*
X17928211Y3454705D01*
X17789524Y3491866D01*
X17665181Y3563656D01*
X17563656Y3665181D01*
X17491866Y3789524D01*
X17454705Y3928211D01*
X17454705Y4071789D01*
X17491866Y4210476D01*
X17563656Y4334819D01*
X17665181Y4436344D01*
X17789524Y4508134D01*
X17928211Y4545295D01*
X18071789Y4545295D01*
X18210476Y4508134D01*
G37*
G36*
X23426537Y4459776D02*
G01*
X23491421Y4416421D01*
X23534776Y4351537D01*
X23550000Y4275000D01*
X23550000Y3975000D01*
X23534776Y3898463D01*
X23491421Y3833579D01*
X23426537Y3790224D01*
X23350000Y3775000D01*
X21950000Y3775000D01*
X21873463Y3790224D01*
X21808579Y3833579D01*
X21765224Y3898463D01*
X21750000Y3975000D01*
X21750000Y4275000D01*
X21765224Y4351537D01*
X21808579Y4416421D01*
X21873463Y4459776D01*
X21950000Y4475000D01*
X23350000Y4475000D01*
X23426537Y4459776D01*
G37*
G36*
X3394134Y4946194D02*
G01*
X3410355Y4935355D01*
X3421194Y4919134D01*
X3425000Y4900000D01*
X3425000Y4200000D01*
X3421194Y4180866D01*
X3410355Y4164645D01*
X3394134Y4153806D01*
X3375000Y4150000D01*
X3125000Y4150000D01*
X3105866Y4153806D01*
X3089645Y4164645D01*
X3078806Y4180866D01*
X3075000Y4200000D01*
X3075000Y4900000D01*
X3078806Y4919134D01*
X3089645Y4935355D01*
X3105866Y4946194D01*
X3125000Y4950000D01*
X3375000Y4950000D01*
X3394134Y4946194D01*
G37*
G36*
X3894134Y4946194D02*
G01*
X3910355Y4935355D01*
X3921194Y4919134D01*
X3925000Y4900000D01*
X3925000Y4200000D01*
X3921194Y4180866D01*
X3910355Y4164645D01*
X3894134Y4153806D01*
X3875000Y4150000D01*
X3625000Y4150000D01*
X3605866Y4153806D01*
X3589645Y4164645D01*
X3578806Y4180866D01*
X3575000Y4200000D01*
X3575000Y4900000D01*
X3578806Y4919134D01*
X3589645Y4935355D01*
X3605866Y4946194D01*
X3625000Y4950000D01*
X3875000Y4950000D01*
X3894134Y4946194D01*
G37*
G36*
X4394134Y4946194D02*
G01*
X4410355Y4935355D01*
X4421194Y4919134D01*
X4425000Y4900000D01*
X4425000Y4200000D01*
X4421194Y4180866D01*
X4410355Y4164645D01*
X4394134Y4153806D01*
X4375000Y4150000D01*
X4125000Y4150000D01*
X4105866Y4153806D01*
X4089645Y4164645D01*
X4078806Y4180866D01*
X4075000Y4200000D01*
X4075000Y4900000D01*
X4078806Y4919134D01*
X4089645Y4935355D01*
X4105866Y4946194D01*
X4125000Y4950000D01*
X4375000Y4950000D01*
X4394134Y4946194D01*
G37*
G36*
X4894134Y4946194D02*
G01*
X4910355Y4935355D01*
X4921194Y4919134D01*
X4925000Y4900000D01*
X4925000Y4200000D01*
X4921194Y4180866D01*
X4910355Y4164645D01*
X4894134Y4153806D01*
X4875000Y4150000D01*
X4625000Y4150000D01*
X4605866Y4153806D01*
X4589645Y4164645D01*
X4578806Y4180866D01*
X4575000Y4200000D01*
X4575000Y4900000D01*
X4578806Y4919134D01*
X4589645Y4935355D01*
X4605866Y4946194D01*
X4625000Y4950000D01*
X4875000Y4950000D01*
X4894134Y4946194D01*
G37*
G36*
X13319134Y5396194D02*
G01*
X13335355Y5385355D01*
X13346194Y5369134D01*
X13350000Y5350000D01*
X13350000Y4750000D01*
X13346194Y4730866D01*
X13335355Y4714645D01*
X13319134Y4703806D01*
X13300000Y4700000D01*
X12100000Y4700000D01*
X12080866Y4703806D01*
X12064645Y4714645D01*
X12053806Y4730866D01*
X12050000Y4750000D01*
X12050000Y5350000D01*
X12053806Y5369134D01*
X12064645Y5385355D01*
X12080866Y5396194D01*
X12100000Y5400000D01*
X13300000Y5400000D01*
X13319134Y5396194D01*
G37*
G36*
X15919134Y5396194D02*
G01*
X15935355Y5385355D01*
X15946194Y5369134D01*
X15950000Y5350000D01*
X15950000Y4750000D01*
X15946194Y4730866D01*
X15935355Y4714645D01*
X15919134Y4703806D01*
X15900000Y4700000D01*
X14700000Y4700000D01*
X14680866Y4703806D01*
X14664645Y4714645D01*
X14653806Y4730866D01*
X14650000Y4750000D01*
X14650000Y5350000D01*
X14653806Y5369134D01*
X14664645Y5385355D01*
X14680866Y5396194D01*
X14700000Y5400000D01*
X15900000Y5400000D01*
X15919134Y5396194D01*
G37*
G36*
X23426537Y5709776D02*
G01*
X23491421Y5666421D01*
X23534776Y5601537D01*
X23550000Y5525000D01*
X23550000Y5225000D01*
X23534776Y5148463D01*
X23491421Y5083579D01*
X23426537Y5040224D01*
X23350000Y5025000D01*
X21950000Y5025000D01*
X21873463Y5040224D01*
X21808579Y5083579D01*
X21765224Y5148463D01*
X21750000Y5225000D01*
X21750000Y5525000D01*
X21765224Y5601537D01*
X21808579Y5666421D01*
X21873463Y5709776D01*
X21950000Y5725000D01*
X23350000Y5725000D01*
X23426537Y5709776D01*
G37*
G36*
X2919134Y5421194D02*
G01*
X2935355Y5410355D01*
X2946194Y5394134D01*
X2950000Y5375000D01*
X2950000Y5125000D01*
X2946194Y5105866D01*
X2935355Y5089645D01*
X2919134Y5078806D01*
X2900000Y5075000D01*
X2200000Y5075000D01*
X2180866Y5078806D01*
X2164645Y5089645D01*
X2153806Y5105866D01*
X2150000Y5125000D01*
X2150000Y5375000D01*
X2153806Y5394134D01*
X2164645Y5410355D01*
X2180866Y5421194D01*
X2200000Y5425000D01*
X2900000Y5425000D01*
X2919134Y5421194D01*
G37*
G36*
X5819134Y5421194D02*
G01*
X5835355Y5410355D01*
X5846194Y5394134D01*
X5850000Y5375000D01*
X5850000Y5125000D01*
X5846194Y5105866D01*
X5835355Y5089645D01*
X5819134Y5078806D01*
X5800000Y5075000D01*
X5100000Y5075000D01*
X5080866Y5078806D01*
X5064645Y5089645D01*
X5053806Y5105866D01*
X5050000Y5125000D01*
X5050000Y5375000D01*
X5053806Y5394134D01*
X5064645Y5410355D01*
X5080866Y5421194D01*
X5100000Y5425000D01*
X5800000Y5425000D01*
X5819134Y5421194D01*
G37*
G36*
X4869134Y6896194D02*
G01*
X4885355Y6885355D01*
X4896194Y6869134D01*
X4900000Y6850000D01*
X4900000Y5150000D01*
X4896194Y5130866D01*
X4885355Y5114645D01*
X4869134Y5103806D01*
X4850000Y5100000D01*
X3150000Y5100000D01*
X3130866Y5103806D01*
X3114645Y5114645D01*
X3103806Y5130866D01*
X3100000Y5150000D01*
X3100000Y6850000D01*
X3103806Y6869134D01*
X3114645Y6885355D01*
X3130866Y6896194D01*
X3150000Y6900000D01*
X4850000Y6900000D01*
X4869134Y6896194D01*
G37*
G36*
X18210476Y6508134D02*
G01*
X18334819Y6436344D01*
X18436344Y6334819D01*
X18508134Y6210476D01*
X18545295Y6071789D01*
X18545295Y5928211D01*
X18508134Y5789524D01*
X18436344Y5665181D01*
X18334819Y5563656D01*
X18210476Y5491866D01*
X18071789Y5454705D01*
X17928211Y5454705D01*
X17789524Y5491866D01*
X17665181Y5563656D01*
X17563656Y5665181D01*
X17491866Y5789524D01*
X17454705Y5928211D01*
X17454705Y6071789D01*
X17491866Y6210476D01*
X17563656Y6334819D01*
X17665181Y6436344D01*
X17789524Y6508134D01*
X17928211Y6545295D01*
X18071789Y6545295D01*
X18210476Y6508134D01*
G37*
G36*
X2919134Y5921194D02*
G01*
X2935355Y5910355D01*
X2946194Y5894134D01*
X2950000Y5875000D01*
X2950000Y5625000D01*
X2946194Y5605866D01*
X2935355Y5589645D01*
X2919134Y5578806D01*
X2900000Y5575000D01*
X2200000Y5575000D01*
X2180866Y5578806D01*
X2164645Y5589645D01*
X2153806Y5605866D01*
X2150000Y5625000D01*
X2150000Y5875000D01*
X2153806Y5894134D01*
X2164645Y5910355D01*
X2180866Y5921194D01*
X2200000Y5925000D01*
X2900000Y5925000D01*
X2919134Y5921194D01*
G37*
G36*
X5819134Y5921194D02*
G01*
X5835355Y5910355D01*
X5846194Y5894134D01*
X5850000Y5875000D01*
X5850000Y5625000D01*
X5846194Y5605866D01*
X5835355Y5589645D01*
X5819134Y5578806D01*
X5800000Y5575000D01*
X5100000Y5575000D01*
X5080866Y5578806D01*
X5064645Y5589645D01*
X5053806Y5605866D01*
X5050000Y5625000D01*
X5050000Y5875000D01*
X5053806Y5894134D01*
X5064645Y5910355D01*
X5080866Y5921194D01*
X5100000Y5925000D01*
X5800000Y5925000D01*
X5819134Y5921194D01*
G37*
G36*
X13319134Y6346194D02*
G01*
X13335355Y6335355D01*
X13346194Y6319134D01*
X13350000Y6300000D01*
X13350000Y5700000D01*
X13346194Y5680866D01*
X13335355Y5664645D01*
X13319134Y5653806D01*
X13300000Y5650000D01*
X12100000Y5650000D01*
X12080866Y5653806D01*
X12064645Y5664645D01*
X12053806Y5680866D01*
X12050000Y5700000D01*
X12050000Y6300000D01*
X12053806Y6319134D01*
X12064645Y6335355D01*
X12080866Y6346194D01*
X12100000Y6350000D01*
X13300000Y6350000D01*
X13319134Y6346194D01*
G37*
G36*
X10742710Y6335537D02*
G01*
X10804350Y6294350D01*
X10845537Y6232710D01*
X10860000Y6160000D01*
X10860000Y5880000D01*
X10845537Y5807290D01*
X10804350Y5745650D01*
X10742710Y5704463D01*
X10670000Y5690000D01*
X10330000Y5690000D01*
X10257290Y5704463D01*
X10195650Y5745650D01*
X10154463Y5807290D01*
X10140000Y5880000D01*
X10140000Y6160000D01*
X10154463Y6232710D01*
X10195650Y6294350D01*
X10257290Y6335537D01*
X10330000Y6350000D01*
X10670000Y6350000D01*
X10742710Y6335537D01*
G37*
G36*
X2919134Y6421194D02*
G01*
X2935355Y6410355D01*
X2946194Y6394134D01*
X2950000Y6375000D01*
X2950000Y6125000D01*
X2946194Y6105866D01*
X2935355Y6089645D01*
X2919134Y6078806D01*
X2900000Y6075000D01*
X2200000Y6075000D01*
X2180866Y6078806D01*
X2164645Y6089645D01*
X2153806Y6105866D01*
X2150000Y6125000D01*
X2150000Y6375000D01*
X2153806Y6394134D01*
X2164645Y6410355D01*
X2180866Y6421194D01*
X2200000Y6425000D01*
X2900000Y6425000D01*
X2919134Y6421194D01*
G37*
G36*
X5819134Y6421194D02*
G01*
X5835355Y6410355D01*
X5846194Y6394134D01*
X5850000Y6375000D01*
X5850000Y6125000D01*
X5846194Y6105866D01*
X5835355Y6089645D01*
X5819134Y6078806D01*
X5800000Y6075000D01*
X5100000Y6075000D01*
X5080866Y6078806D01*
X5064645Y6089645D01*
X5053806Y6105866D01*
X5050000Y6125000D01*
X5050000Y6375000D01*
X5053806Y6394134D01*
X5064645Y6410355D01*
X5080866Y6421194D01*
X5100000Y6425000D01*
X5800000Y6425000D01*
X5819134Y6421194D01*
G37*
G36*
X23426537Y6959776D02*
G01*
X23491421Y6916421D01*
X23534776Y6851537D01*
X23550000Y6775000D01*
X23550000Y6475000D01*
X23534776Y6398463D01*
X23491421Y6333579D01*
X23426537Y6290224D01*
X23350000Y6275000D01*
X21950000Y6275000D01*
X21873463Y6290224D01*
X21808579Y6333579D01*
X21765224Y6398463D01*
X21750000Y6475000D01*
X21750000Y6775000D01*
X21765224Y6851537D01*
X21808579Y6916421D01*
X21873463Y6959776D01*
X21950000Y6975000D01*
X23350000Y6975000D01*
X23426537Y6959776D01*
G37*
G36*
X20210476Y7508134D02*
G01*
X20334819Y7436344D01*
X20436344Y7334819D01*
X20508134Y7210476D01*
X20545295Y7071789D01*
X20545295Y6928211D01*
X20508134Y6789524D01*
X20436344Y6665181D01*
X20334819Y6563656D01*
X20210476Y6491866D01*
X20071789Y6454705D01*
X19928211Y6454705D01*
X19789524Y6491866D01*
X19665181Y6563656D01*
X19563656Y6665181D01*
X19491866Y6789524D01*
X19454705Y6928211D01*
X19454705Y7071789D01*
X19491866Y7210476D01*
X19563656Y7334819D01*
X19665181Y7436344D01*
X19789524Y7508134D01*
X19928211Y7545295D01*
X20071789Y7545295D01*
X20210476Y7508134D01*
G37*
G36*
X2919134Y6921194D02*
G01*
X2935355Y6910355D01*
X2946194Y6894134D01*
X2950000Y6875000D01*
X2950000Y6625000D01*
X2946194Y6605866D01*
X2935355Y6589645D01*
X2919134Y6578806D01*
X2900000Y6575000D01*
X2200000Y6575000D01*
X2180866Y6578806D01*
X2164645Y6589645D01*
X2153806Y6605866D01*
X2150000Y6625000D01*
X2150000Y6875000D01*
X2153806Y6894134D01*
X2164645Y6910355D01*
X2180866Y6921194D01*
X2200000Y6925000D01*
X2900000Y6925000D01*
X2919134Y6921194D01*
G37*
G36*
X5819134Y6921194D02*
G01*
X5835355Y6910355D01*
X5846194Y6894134D01*
X5850000Y6875000D01*
X5850000Y6625000D01*
X5846194Y6605866D01*
X5835355Y6589645D01*
X5819134Y6578806D01*
X5800000Y6575000D01*
X5100000Y6575000D01*
X5080866Y6578806D01*
X5064645Y6589645D01*
X5053806Y6605866D01*
X5050000Y6625000D01*
X5050000Y6875000D01*
X5053806Y6894134D01*
X5064645Y6910355D01*
X5080866Y6921194D01*
X5100000Y6925000D01*
X5800000Y6925000D01*
X5819134Y6921194D01*
G37*
G36*
X13319134Y7296194D02*
G01*
X13335355Y7285355D01*
X13346194Y7269134D01*
X13350000Y7250000D01*
X13350000Y6650000D01*
X13346194Y6630866D01*
X13335355Y6614645D01*
X13319134Y6603806D01*
X13300000Y6600000D01*
X12100000Y6600000D01*
X12080866Y6603806D01*
X12064645Y6614645D01*
X12053806Y6630866D01*
X12050000Y6650000D01*
X12050000Y7250000D01*
X12053806Y7269134D01*
X12064645Y7285355D01*
X12080866Y7296194D01*
X12100000Y7300000D01*
X13300000Y7300000D01*
X13319134Y7296194D01*
G37*
G36*
X15919134Y7296194D02*
G01*
X15935355Y7285355D01*
X15946194Y7269134D01*
X15950000Y7250000D01*
X15950000Y6650000D01*
X15946194Y6630866D01*
X15935355Y6614645D01*
X15919134Y6603806D01*
X15900000Y6600000D01*
X14700000Y6600000D01*
X14680866Y6603806D01*
X14664645Y6614645D01*
X14653806Y6630866D01*
X14650000Y6650000D01*
X14650000Y7250000D01*
X14653806Y7269134D01*
X14664645Y7285355D01*
X14680866Y7296194D01*
X14700000Y7300000D01*
X15900000Y7300000D01*
X15919134Y7296194D01*
G37*
G36*
X10742710Y7295537D02*
G01*
X10804350Y7254350D01*
X10845537Y7192710D01*
X10860000Y7120000D01*
X10860000Y6840000D01*
X10845537Y6767290D01*
X10804350Y6705650D01*
X10742710Y6664463D01*
X10670000Y6650000D01*
X10330000Y6650000D01*
X10257290Y6664463D01*
X10195650Y6705650D01*
X10154463Y6767290D01*
X10140000Y6840000D01*
X10140000Y7120000D01*
X10154463Y7192710D01*
X10195650Y7254350D01*
X10257290Y7295537D01*
X10330000Y7310000D01*
X10670000Y7310000D01*
X10742710Y7295537D01*
G37*
G36*
X3394134Y7846194D02*
G01*
X3410355Y7835355D01*
X3421194Y7819134D01*
X3425000Y7800000D01*
X3425000Y7100000D01*
X3421194Y7080866D01*
X3410355Y7064645D01*
X3394134Y7053806D01*
X3375000Y7050000D01*
X3125000Y7050000D01*
X3105866Y7053806D01*
X3089645Y7064645D01*
X3078806Y7080866D01*
X3075000Y7100000D01*
X3075000Y7800000D01*
X3078806Y7819134D01*
X3089645Y7835355D01*
X3105866Y7846194D01*
X3125000Y7850000D01*
X3375000Y7850000D01*
X3394134Y7846194D01*
G37*
G36*
X3894134Y7846194D02*
G01*
X3910355Y7835355D01*
X3921194Y7819134D01*
X3925000Y7800000D01*
X3925000Y7100000D01*
X3921194Y7080866D01*
X3910355Y7064645D01*
X3894134Y7053806D01*
X3875000Y7050000D01*
X3625000Y7050000D01*
X3605866Y7053806D01*
X3589645Y7064645D01*
X3578806Y7080866D01*
X3575000Y7100000D01*
X3575000Y7800000D01*
X3578806Y7819134D01*
X3589645Y7835355D01*
X3605866Y7846194D01*
X3625000Y7850000D01*
X3875000Y7850000D01*
X3894134Y7846194D01*
G37*
G36*
X4394134Y7846194D02*
G01*
X4410355Y7835355D01*
X4421194Y7819134D01*
X4425000Y7800000D01*
X4425000Y7100000D01*
X4421194Y7080866D01*
X4410355Y7064645D01*
X4394134Y7053806D01*
X4375000Y7050000D01*
X4125000Y7050000D01*
X4105866Y7053806D01*
X4089645Y7064645D01*
X4078806Y7080866D01*
X4075000Y7100000D01*
X4075000Y7800000D01*
X4078806Y7819134D01*
X4089645Y7835355D01*
X4105866Y7846194D01*
X4125000Y7850000D01*
X4375000Y7850000D01*
X4394134Y7846194D01*
G37*
G36*
X4894134Y7846194D02*
G01*
X4910355Y7835355D01*
X4921194Y7819134D01*
X4925000Y7800000D01*
X4925000Y7100000D01*
X4921194Y7080866D01*
X4910355Y7064645D01*
X4894134Y7053806D01*
X4875000Y7050000D01*
X4625000Y7050000D01*
X4605866Y7053806D01*
X4589645Y7064645D01*
X4578806Y7080866D01*
X4575000Y7100000D01*
X4575000Y7800000D01*
X4578806Y7819134D01*
X4589645Y7835355D01*
X4605866Y7846194D01*
X4625000Y7850000D01*
X4875000Y7850000D01*
X4894134Y7846194D01*
G37*
G36*
X18210476Y8508134D02*
G01*
X18334819Y8436344D01*
X18436344Y8334819D01*
X18508134Y8210476D01*
X18545295Y8071789D01*
X18545295Y7928211D01*
X18508134Y7789524D01*
X18436344Y7665181D01*
X18334819Y7563656D01*
X18210476Y7491866D01*
X18071789Y7454705D01*
X17928211Y7454705D01*
X17789524Y7491866D01*
X17665181Y7563656D01*
X17563656Y7665181D01*
X17491866Y7789524D01*
X17454705Y7928211D01*
X17454705Y8071789D01*
X17491866Y8210476D01*
X17563656Y8334819D01*
X17665181Y8436344D01*
X17789524Y8508134D01*
X17928211Y8545295D01*
X18071789Y8545295D01*
X18210476Y8508134D01*
G37*
G36*
X23426537Y8209776D02*
G01*
X23491421Y8166421D01*
X23534776Y8101537D01*
X23550000Y8025000D01*
X23550000Y7725000D01*
X23534776Y7648463D01*
X23491421Y7583579D01*
X23426537Y7540224D01*
X23350000Y7525000D01*
X21950000Y7525000D01*
X21873463Y7540224D01*
X21808579Y7583579D01*
X21765224Y7648463D01*
X21750000Y7725000D01*
X21750000Y8025000D01*
X21765224Y8101537D01*
X21808579Y8166421D01*
X21873463Y8209776D01*
X21950000Y8225000D01*
X23350000Y8225000D01*
X23426537Y8209776D01*
G37*
G36*
X10742710Y8835537D02*
G01*
X10804350Y8794350D01*
X10845537Y8732710D01*
X10860000Y8660000D01*
X10860000Y8380000D01*
X10845537Y8307290D01*
X10804350Y8245650D01*
X10742710Y8204463D01*
X10670000Y8190000D01*
X10330000Y8190000D01*
X10257290Y8204463D01*
X10195650Y8245650D01*
X10154463Y8307290D01*
X10140000Y8380000D01*
X10140000Y8660000D01*
X10154463Y8732710D01*
X10195650Y8794350D01*
X10257290Y8835537D01*
X10330000Y8850000D01*
X10670000Y8850000D01*
X10742710Y8835537D01*
G37*
G36*
X13456409Y9823725D02*
G01*
X13519958Y9815359D01*
X13535943Y9807905D01*
X13555238Y9804067D01*
X13580792Y9786992D01*
X13607290Y9774636D01*
X13623412Y9758514D01*
X13644454Y9744454D01*
X13658513Y9723413D01*
X13674635Y9707291D01*
X13686990Y9680796D01*
X13704067Y9655238D01*
X13707905Y9635942D01*
X13715358Y9619959D01*
X13723722Y9556423D01*
X13725000Y9550000D01*
X13725000Y9050000D01*
X13723722Y9043576D01*
X13715358Y8980042D01*
X13707905Y8964061D01*
X13704067Y8944762D01*
X13686988Y8919203D01*
X13674635Y8892710D01*
X13658516Y8876592D01*
X13644454Y8855546D01*
X13623408Y8841484D01*
X13607290Y8825365D01*
X13580797Y8813012D01*
X13555238Y8795933D01*
X13535939Y8792095D01*
X13519958Y8784642D01*
X13456424Y8776278D01*
X13450000Y8775000D01*
X13000000Y8775000D01*
X12993577Y8776278D01*
X12930041Y8784642D01*
X12914058Y8792095D01*
X12894762Y8795933D01*
X12869204Y8813010D01*
X12842709Y8825365D01*
X12826587Y8841487D01*
X12805546Y8855546D01*
X12791486Y8876588D01*
X12775364Y8892710D01*
X12763008Y8919208D01*
X12745933Y8944762D01*
X12742095Y8964057D01*
X12734641Y8980042D01*
X12726275Y9043591D01*
X12725000Y9050000D01*
X12725000Y9550000D01*
X12726274Y9556408D01*
X12734641Y9619959D01*
X12742095Y9635946D01*
X12745933Y9655238D01*
X12763006Y9680791D01*
X12775364Y9707291D01*
X12791488Y9723416D01*
X12805546Y9744454D01*
X12826584Y9758512D01*
X12842709Y9774636D01*
X12869209Y9786994D01*
X12894762Y9804067D01*
X12914054Y9807905D01*
X12930041Y9815359D01*
X12993592Y9823726D01*
X13000000Y9825000D01*
X13450000Y9825000D01*
X13456409Y9823725D01*
G37*
G36*
X15006409Y9823725D02*
G01*
X15069958Y9815359D01*
X15085943Y9807905D01*
X15105238Y9804067D01*
X15130792Y9786992D01*
X15157290Y9774636D01*
X15173412Y9758514D01*
X15194454Y9744454D01*
X15208513Y9723413D01*
X15224635Y9707291D01*
X15236990Y9680796D01*
X15254067Y9655238D01*
X15257905Y9635942D01*
X15265358Y9619959D01*
X15273722Y9556423D01*
X15275000Y9550000D01*
X15275000Y9050000D01*
X15273722Y9043576D01*
X15265358Y8980042D01*
X15257905Y8964061D01*
X15254067Y8944762D01*
X15236988Y8919203D01*
X15224635Y8892710D01*
X15208516Y8876592D01*
X15194454Y8855546D01*
X15173408Y8841484D01*
X15157290Y8825365D01*
X15130797Y8813012D01*
X15105238Y8795933D01*
X15085939Y8792095D01*
X15069958Y8784642D01*
X15006424Y8776278D01*
X15000000Y8775000D01*
X14550000Y8775000D01*
X14543577Y8776278D01*
X14480041Y8784642D01*
X14464058Y8792095D01*
X14444762Y8795933D01*
X14419204Y8813010D01*
X14392709Y8825365D01*
X14376587Y8841487D01*
X14355546Y8855546D01*
X14341486Y8876588D01*
X14325364Y8892710D01*
X14313008Y8919208D01*
X14295933Y8944762D01*
X14292095Y8964057D01*
X14284641Y8980042D01*
X14276275Y9043591D01*
X14275000Y9050000D01*
X14275000Y9550000D01*
X14276274Y9556408D01*
X14284641Y9619959D01*
X14292095Y9635946D01*
X14295933Y9655238D01*
X14313006Y9680791D01*
X14325364Y9707291D01*
X14341488Y9723416D01*
X14355546Y9744454D01*
X14376584Y9758512D01*
X14392709Y9774636D01*
X14419209Y9786994D01*
X14444762Y9804067D01*
X14464054Y9807905D01*
X14480041Y9815359D01*
X14543592Y9823726D01*
X14550000Y9825000D01*
X15000000Y9825000D01*
X15006409Y9823725D01*
G37*
G36*
X23426537Y9459776D02*
G01*
X23491421Y9416421D01*
X23534776Y9351537D01*
X23550000Y9275000D01*
X23550000Y8975000D01*
X23534776Y8898463D01*
X23491421Y8833579D01*
X23426537Y8790224D01*
X23350000Y8775000D01*
X21950000Y8775000D01*
X21873463Y8790224D01*
X21808579Y8833579D01*
X21765224Y8898463D01*
X21750000Y8975000D01*
X21750000Y9275000D01*
X21765224Y9351537D01*
X21808579Y9416421D01*
X21873463Y9459776D01*
X21950000Y9475000D01*
X23350000Y9475000D01*
X23426537Y9459776D01*
G37*
G36*
X10742710Y9795537D02*
G01*
X10804350Y9754350D01*
X10845537Y9692710D01*
X10860000Y9620000D01*
X10860000Y9340000D01*
X10845537Y9267290D01*
X10804350Y9205650D01*
X10742710Y9164463D01*
X10670000Y9150000D01*
X10330000Y9150000D01*
X10257290Y9164463D01*
X10195650Y9205650D01*
X10154463Y9267290D01*
X10140000Y9340000D01*
X10140000Y9620000D01*
X10154463Y9692710D01*
X10195650Y9754350D01*
X10257290Y9795537D01*
X10330000Y9810000D01*
X10670000Y9810000D01*
X10742710Y9795537D01*
G37*
G36*
X18210476Y10508134D02*
G01*
X18334819Y10436344D01*
X18436344Y10334819D01*
X18508134Y10210476D01*
X18545295Y10071789D01*
X18545295Y9928211D01*
X18508134Y9789524D01*
X18436344Y9665181D01*
X18334819Y9563656D01*
X18210476Y9491866D01*
X18071789Y9454705D01*
X17928211Y9454705D01*
X17789524Y9491866D01*
X17665181Y9563656D01*
X17563656Y9665181D01*
X17491866Y9789524D01*
X17454705Y9928211D01*
X17454705Y10071789D01*
X17491866Y10210476D01*
X17563656Y10334819D01*
X17665181Y10436344D01*
X17789524Y10508134D01*
X17928211Y10545295D01*
X18071789Y10545295D01*
X18210476Y10508134D01*
G37*
G36*
X20210476Y11008134D02*
G01*
X20334819Y10936344D01*
X20436344Y10834819D01*
X20508134Y10710476D01*
X20545295Y10571789D01*
X20545295Y10428211D01*
X20508134Y10289524D01*
X20436344Y10165181D01*
X20334819Y10063656D01*
X20210476Y9991866D01*
X20071789Y9954705D01*
X19928211Y9954705D01*
X19789524Y9991866D01*
X19665181Y10063656D01*
X19563656Y10165181D01*
X19491866Y10289524D01*
X19454705Y10428211D01*
X19454705Y10571789D01*
X19491866Y10710476D01*
X19563656Y10834819D01*
X19665181Y10936344D01*
X19789524Y11008134D01*
X19928211Y11045295D01*
X20071789Y11045295D01*
X20210476Y11008134D01*
G37*
G36*
X27018685Y11517031D02*
G01*
X27027358Y11513202D01*
X27034925Y11512099D01*
X27082223Y11488977D01*
X27119541Y11472499D01*
X27122996Y11469044D01*
X27123920Y11468592D01*
X27193591Y11398921D01*
X27194042Y11397998D01*
X27197499Y11394541D01*
X27213978Y11357218D01*
X27237098Y11309927D01*
X27238200Y11302361D01*
X27242031Y11293685D01*
X27250000Y11225000D01*
X27250000Y10725000D01*
X27242031Y10656315D01*
X27238199Y10647639D01*
X27237098Y10640075D01*
X27213985Y10592798D01*
X27197499Y10555459D01*
X27194041Y10552002D01*
X27193591Y10551080D01*
X27123920Y10481409D01*
X27122998Y10480959D01*
X27119541Y10477501D01*
X27082207Y10461017D01*
X27034926Y10437902D01*
X27027361Y10436800D01*
X27018685Y10432969D01*
X26950000Y10425000D01*
X24750000Y10425000D01*
X24681315Y10432969D01*
X24672638Y10436800D01*
X24665074Y10437902D01*
X24617787Y10461019D01*
X24580459Y10477501D01*
X24577002Y10480958D01*
X24576079Y10481409D01*
X24506408Y10551080D01*
X24505956Y10552004D01*
X24502501Y10555459D01*
X24486025Y10592772D01*
X24462901Y10640074D01*
X24461798Y10647643D01*
X24457969Y10656315D01*
X24450000Y10725000D01*
X24450000Y11225000D01*
X24457969Y11293685D01*
X24461798Y11302358D01*
X24462901Y11309926D01*
X24486028Y11357234D01*
X24502501Y11394541D01*
X24505955Y11397996D01*
X24506408Y11398921D01*
X24576079Y11468592D01*
X24577004Y11469045D01*
X24580459Y11472499D01*
X24617761Y11488970D01*
X24665073Y11512099D01*
X24672642Y11513202D01*
X24681315Y11517031D01*
X24750000Y11525000D01*
X26950000Y11525000D01*
X27018685Y11517031D01*
G37*
G36*
X11210476Y11508134D02*
G01*
X11334819Y11436344D01*
X11436344Y11334819D01*
X11508134Y11210476D01*
X11545295Y11071789D01*
X11545295Y10928211D01*
X11508134Y10789524D01*
X11436344Y10665181D01*
X11334819Y10563656D01*
X11210476Y10491866D01*
X11071789Y10454705D01*
X10928211Y10454705D01*
X10789524Y10491866D01*
X10665181Y10563656D01*
X10563656Y10665181D01*
X10491866Y10789524D01*
X10454705Y10928211D01*
X10454705Y11071789D01*
X10491866Y11210476D01*
X10563656Y11334819D01*
X10665181Y11436344D01*
X10789524Y11508134D01*
X10928211Y11545295D01*
X11071789Y11545295D01*
X11210476Y11508134D01*
G37*
M02*
