%TF.GenerationSoftware,KiCad,Pcbnew,7.0.11+dfsg-1build4*%
%TF.CreationDate,2026-09-09T09:00:32+02:00*%
%TF.ProjectId,MA600A-RefWinch-Encoder,4d413630-3041-42d5-9265-6657696e6368,rev?*%
%TF.SameCoordinates,Original*%
%TF.FileFunction,Copper,L2,Bot*%
%TF.FilePolarity,Positive*%
%FSLAX46Y46*%
G04 Gerber Fmt 4.6, Leading zero omitted, Abs format (unit mm)*
G04 Created by KiCad (PCBNEW 7.0.11+dfsg-1build4) date 2026-09-09 09:00:32*
%MOMM*%
%LPD*%
G01*
G04 APERTURE LIST*
%TA.AperFunction,ViaPad*%
%ADD10C,0.600000*%
%TD*%
%TA.AperFunction,Conductor*%
%ADD11C,0.300000*%
%TD*%
%TA.AperFunction,Conductor*%
%ADD12C,0.200000*%
%TD*%
G04 APERTURE END LIST*
D10*
%TO.N,+5V_IN*%
X11750000Y7450000D03*
X18900000Y10300000D03*
X11600000Y5750000D03*
X21400000Y4100000D03*
%TO.N,A_OUT*%
X21400000Y5400000D03*
X21000000Y9950000D03*
X1300000Y6650000D03*
%TO.N,B_OUT*%
X21400000Y6600000D03*
X3600000Y2600000D03*
%TO.N,GND*%
X23700000Y11300000D03*
X21700000Y11300000D03*
X13700000Y700000D03*
X7000000Y5750000D03*
X13700000Y11300000D03*
X9700000Y700000D03*
X15900000Y8450000D03*
X13750000Y6300000D03*
X9700000Y11300000D03*
X23700000Y700000D03*
X19700000Y700000D03*
X11700000Y700000D03*
X21400000Y2900000D03*
X15700000Y11300000D03*
X21700000Y700000D03*
X11200000Y6600000D03*
X17050000Y7800000D03*
X19700000Y8500000D03*
X14800000Y3700000D03*
X5650000Y2600000D03*
%TO.N,SPI_COPI*%
X17050000Y1650000D03*
X1300000Y4850000D03*
%TO.N,SPI_CS*%
X17050000Y6000000D03*
X2800000Y3400000D03*
%TO.N,SPI_SCLK*%
X10900000Y4200000D03*
X8500000Y6400000D03*
X14150000Y4200000D03*
X7000000Y6750000D03*
%TO.N,Z_OUT*%
X21400000Y7900000D03*
X700000Y5750000D03*
%TD*%
D11*
%TO.N,+5V_IN*%
X20800000Y5100000D02*
X20850000Y5050000D01*
X11850000Y7350000D02*
X11850000Y6000000D01*
X20800000Y5150000D02*
X20800000Y5100000D01*
X11750000Y7450000D02*
X11850000Y7350000D01*
X20750000Y8450000D02*
X20750000Y5200000D01*
X21400000Y4450000D02*
X21400000Y4100000D01*
X20850000Y5000000D02*
X21400000Y4450000D01*
X20750000Y5200000D02*
X20800000Y5150000D01*
X20850000Y5050000D02*
X20850000Y5000000D01*
X21400000Y4100000D02*
X21400000Y4100000D01*
X18900000Y10300000D02*
X20750000Y8450000D01*
X11850000Y6000000D02*
X11600000Y5750000D01*
D12*
%TO.N,A_OUT*%
X19350000Y11250000D02*
X19400000Y11200000D01*
X11250000Y8800000D02*
X11300000Y8850000D01*
X19450000Y11200000D02*
X19550000Y11100000D01*
X11100000Y8750000D02*
X11150000Y8800000D01*
X18350000Y11200000D02*
X18400000Y11200000D01*
X16550000Y9450000D02*
X18200000Y11100000D01*
X19250000Y11250000D02*
X19350000Y11250000D01*
X5850000Y8300000D02*
X10500000Y8300000D01*
X5750000Y8250000D02*
X5800000Y8250000D01*
X15550000Y9400000D02*
X15600000Y9450000D01*
X11150000Y8800000D02*
X11250000Y8800000D01*
X18550000Y11250000D02*
X18600000Y11300000D01*
X10950000Y8700000D02*
X11000000Y8700000D01*
X15200000Y9250000D02*
X15250000Y9250000D01*
X19200000Y11300000D02*
X19250000Y11250000D01*
X18200000Y11100000D02*
X18250000Y11100000D01*
X14800000Y8850000D02*
X15200000Y9250000D01*
X11050000Y8750000D02*
X11100000Y8750000D01*
X19550000Y11100000D02*
X19600000Y11100000D01*
X15400000Y9350000D02*
X15450000Y9400000D01*
X15600000Y9450000D02*
X16550000Y9450000D01*
X15250000Y9250000D02*
X15350000Y9350000D01*
X10500000Y8300000D02*
X10800000Y8600000D01*
X19600000Y11100000D02*
X20750000Y9950000D01*
X18250000Y11100000D02*
X18350000Y11200000D01*
X11000000Y8700000D02*
X11050000Y8750000D01*
X2100000Y6750000D02*
X2850000Y6750000D01*
X15350000Y9350000D02*
X15400000Y9350000D01*
X21400000Y5400000D02*
X21400000Y5400000D01*
X2850000Y6750000D02*
X2900000Y6800000D01*
X19400000Y11200000D02*
X19450000Y11200000D01*
X1300000Y6650000D02*
X1300000Y6650000D01*
X18600000Y11300000D02*
X19200000Y11300000D01*
X4300000Y6800000D02*
X5750000Y8250000D01*
X10850000Y8600000D02*
X10950000Y8700000D01*
X5800000Y8250000D02*
X5850000Y8300000D01*
X2000000Y6650000D02*
X2100000Y6750000D01*
X1300000Y6650000D02*
X2000000Y6650000D01*
X18400000Y11200000D02*
X18450000Y11250000D01*
X10800000Y8600000D02*
X10850000Y8600000D01*
X20750000Y9950000D02*
X21000000Y9950000D01*
X15450000Y9400000D02*
X15550000Y9400000D01*
X2900000Y6800000D02*
X4300000Y6800000D01*
X11300000Y8850000D02*
X14800000Y8850000D01*
X18450000Y11250000D02*
X18550000Y11250000D01*
%TO.N,B_OUT*%
X4000000Y2600000D02*
X4300000Y2300000D01*
X21950000Y5600000D02*
X21950000Y5700000D01*
X21850000Y5800000D02*
X21850000Y5850000D01*
X22000000Y5550000D02*
X21950000Y5600000D01*
X4300000Y2300000D02*
X5050000Y2300000D01*
X5250000Y2150000D02*
X5350000Y2050000D01*
X21950000Y5700000D02*
X21850000Y5800000D01*
X21850000Y3700000D02*
X21950000Y3800000D01*
X21850000Y3650000D02*
X21850000Y3700000D01*
X21950000Y3900000D02*
X22000000Y3950000D01*
X15450000Y3450000D02*
X15600000Y3450000D01*
X3600000Y2600000D02*
X4000000Y2600000D01*
X15250000Y3250000D02*
X15450000Y3450000D01*
X15000000Y3150000D02*
X15100000Y3150000D01*
X15100000Y3150000D02*
X15200000Y3250000D01*
X21400000Y6300000D02*
X21400000Y6600000D01*
X5450000Y2050000D02*
X5500000Y2000000D01*
X21700000Y3550000D02*
X21800000Y3650000D01*
X21800000Y3650000D02*
X21850000Y3650000D01*
X21400000Y6600000D02*
X21400000Y6600000D01*
X5350000Y2050000D02*
X5450000Y2050000D01*
X7600000Y3100000D02*
X14950000Y3100000D01*
X5500000Y2000000D02*
X6500000Y2000000D01*
X22000000Y3950000D02*
X22000000Y5550000D01*
X15200000Y3250000D02*
X15250000Y3250000D01*
X21550000Y3500000D02*
X21600000Y3550000D01*
X21950000Y3800000D02*
X21950000Y3900000D01*
X5050000Y2300000D02*
X5200000Y2150000D01*
X5200000Y2150000D02*
X5250000Y2150000D01*
X21850000Y5850000D02*
X21400000Y6300000D01*
X6500000Y2000000D02*
X7600000Y3100000D01*
X15650000Y3500000D02*
X21550000Y3500000D01*
X21600000Y3550000D02*
X21700000Y3550000D01*
X14950000Y3100000D02*
X15000000Y3150000D01*
X15600000Y3450000D02*
X15650000Y3500000D01*
D11*
%TO.N,GND*%
X7000000Y5750000D02*
X5650000Y4400000D01*
X21400000Y2900000D02*
X21400000Y2900000D01*
X13800000Y5500000D02*
X14800000Y4500000D01*
X16350000Y8450000D02*
X16800000Y8000000D01*
X11200000Y6600000D02*
X10350000Y5750000D01*
X13800000Y6250000D02*
X13800000Y5500000D01*
X16800000Y8000000D02*
X16850000Y8000000D01*
X15900000Y8450000D02*
X16350000Y8450000D01*
X14800000Y4500000D02*
X14800000Y3700000D01*
X13750000Y6300000D02*
X13800000Y6250000D01*
X16850000Y8000000D02*
X17050000Y7800000D01*
X10350000Y5750000D02*
X7000000Y5750000D01*
X5650000Y4400000D02*
X5650000Y2600000D01*
D12*
%TO.N,SPI_COPI*%
X2350000Y3000000D02*
X2350000Y2950000D01*
X2250000Y3100000D02*
X2350000Y3000000D01*
X4850000Y1900000D02*
X4950000Y1800000D01*
X2250000Y3200000D02*
X2250000Y3100000D01*
X4950000Y1800000D02*
X5000000Y1800000D01*
X2200000Y3600000D02*
X2200000Y3250000D01*
X4100000Y1950000D02*
X4150000Y1900000D01*
X5100000Y1700000D02*
X5150000Y1700000D01*
X1300000Y4850000D02*
X2150000Y4000000D01*
X3300000Y2000000D02*
X4000000Y2000000D01*
X5300000Y1650000D02*
X5350000Y1600000D01*
X4150000Y1900000D02*
X4850000Y1900000D01*
X5000000Y1800000D02*
X5100000Y1700000D01*
X4050000Y1950000D02*
X4100000Y1950000D01*
X4000000Y2000000D02*
X4050000Y1950000D01*
X5150000Y1700000D02*
X5200000Y1650000D01*
X2200000Y3250000D02*
X2250000Y3200000D01*
X6650000Y1600000D02*
X6700000Y1650000D01*
X2150000Y4000000D02*
X2150000Y3650000D01*
X5350000Y1600000D02*
X6650000Y1600000D01*
X2150000Y3650000D02*
X2200000Y3600000D01*
X2350000Y2950000D02*
X3300000Y2000000D01*
X6700000Y1650000D02*
X17050000Y1650000D01*
X5200000Y1650000D02*
X5300000Y1650000D01*
%TO.N,SPI_CS*%
X14950000Y6000000D02*
X17050000Y6000000D01*
X11900000Y8050000D02*
X11950000Y8000000D01*
X11950000Y8000000D02*
X12050000Y8000000D01*
X6550000Y7200000D02*
X6600000Y7200000D01*
X6700000Y7300000D02*
X6800000Y7300000D01*
X6600000Y7200000D02*
X6700000Y7300000D01*
X10750000Y7350000D02*
X11300000Y7900000D01*
X11550000Y8000000D02*
X11600000Y8050000D01*
X13900000Y6900000D02*
X13950000Y6850000D01*
X11350000Y7900000D02*
X11450000Y8000000D01*
X13950000Y6850000D02*
X14050000Y6850000D01*
X14050000Y6850000D02*
X14150000Y6750000D01*
X14150000Y6750000D02*
X14200000Y6750000D01*
X6550000Y7150000D02*
X6550000Y7200000D01*
X6800000Y7300000D02*
X6850000Y7350000D01*
X13200000Y6900000D02*
X13900000Y6900000D01*
X12050000Y8000000D02*
X12150000Y7900000D01*
X12200000Y7900000D02*
X13200000Y6900000D01*
X11450000Y8000000D02*
X11550000Y8000000D01*
X2800000Y3400000D02*
X2800000Y3400000D01*
X11300000Y7900000D02*
X11350000Y7900000D01*
X12150000Y7900000D02*
X12200000Y7900000D01*
X2800000Y3400000D02*
X6550000Y7150000D01*
X14200000Y6750000D02*
X14950000Y6000000D01*
X6850000Y7350000D02*
X10750000Y7350000D01*
X11600000Y8050000D02*
X11900000Y8050000D01*
%TO.N,SPI_SCLK*%
X7000000Y6750000D02*
X7350000Y6750000D01*
X7650000Y6450000D02*
X8450000Y6450000D01*
X8450000Y6450000D02*
X8500000Y6400000D01*
X10900000Y4200000D02*
X14150000Y4200000D01*
X7350000Y6750000D02*
X7650000Y6450000D01*
%TO.N,Z_OUT*%
X19300000Y10750000D02*
X19350000Y10750000D01*
X11200000Y8350000D02*
X11250000Y8350000D01*
X18500000Y10750000D02*
X18600000Y10850000D01*
X15000000Y8450000D02*
X15450000Y8900000D01*
X19100000Y10850000D02*
X19200000Y10850000D01*
X15450000Y8900000D02*
X15500000Y8900000D01*
X1050000Y5750000D02*
X1100000Y5800000D01*
X19050000Y10900000D02*
X19100000Y10850000D01*
X10700000Y7900000D02*
X11050000Y8250000D01*
X700000Y5750000D02*
X1050000Y5750000D01*
X18750000Y10900000D02*
X19050000Y10900000D01*
X6000000Y7900000D02*
X10700000Y7900000D01*
X19350000Y10750000D02*
X21400000Y8700000D01*
X15750000Y9050000D02*
X16750000Y9050000D01*
X11400000Y8400000D02*
X11450000Y8450000D01*
X3900000Y5800000D02*
X6000000Y7900000D01*
X18450000Y10750000D02*
X18500000Y10750000D01*
X15600000Y9000000D02*
X15700000Y9000000D01*
X700000Y5750000D02*
X700000Y5750000D01*
X11250000Y8350000D02*
X11300000Y8400000D01*
X19200000Y10850000D02*
X19300000Y10750000D01*
X18700000Y10850000D02*
X18750000Y10900000D01*
X18600000Y10850000D02*
X18700000Y10850000D01*
X1100000Y5800000D02*
X3900000Y5800000D01*
X15700000Y9000000D02*
X15750000Y9050000D01*
X21400000Y8700000D02*
X21400000Y7900000D01*
X11450000Y8450000D02*
X15000000Y8450000D01*
X21400000Y7900000D02*
X21400000Y7900000D01*
X11300000Y8400000D02*
X11400000Y8400000D01*
X11050000Y8250000D02*
X11100000Y8250000D01*
X11100000Y8250000D02*
X11200000Y8350000D01*
X16750000Y9050000D02*
X18450000Y10750000D01*
X15500000Y8900000D02*
X15600000Y9000000D01*
%TD*%
%TA.AperFunction,Conductor*%
%TO.N,GND*%
G36*
X27659191Y11681093D02*
G01*
X27695155Y11631593D01*
X27700000Y11601000D01*
X27700000Y399000D01*
X27681093Y340809D01*
X27631593Y304845D01*
X27601000Y300000D01*
X9199000Y300000D01*
X9140809Y318907D01*
X9104845Y368407D01*
X9100000Y399000D01*
X9100000Y1250500D01*
X9118907Y1308691D01*
X9168407Y1344655D01*
X9199000Y1349500D01*
X16602917Y1349500D01*
X16661108Y1330593D01*
X16677733Y1315333D01*
X16718872Y1267857D01*
X16839947Y1190047D01*
X16946403Y1158789D01*
X16978035Y1149501D01*
X16978036Y1149501D01*
X16978039Y1149500D01*
X16978041Y1149500D01*
X17121959Y1149500D01*
X17121961Y1149500D01*
X17260053Y1190047D01*
X17381128Y1267857D01*
X17475377Y1376627D01*
X17535165Y1507543D01*
X17555647Y1650000D01*
X17535165Y1792457D01*
X17475377Y1923373D01*
X17381128Y2032143D01*
X17381127Y2032144D01*
X17381126Y2032145D01*
X17260057Y2109951D01*
X17260054Y2109953D01*
X17260053Y2109953D01*
X17260050Y2109954D01*
X17121964Y2150500D01*
X17121961Y2150500D01*
X16978039Y2150500D01*
X16978035Y2150500D01*
X16839949Y2109954D01*
X16839942Y2109951D01*
X16718876Y2032146D01*
X16718871Y2032142D01*
X16677736Y1984669D01*
X16625340Y1953073D01*
X16602917Y1950500D01*
X9199000Y1950500D01*
X9140809Y1969407D01*
X9104845Y2018907D01*
X9100000Y2049500D01*
X9100000Y2700500D01*
X9118907Y2758691D01*
X9168407Y2794655D01*
X9199000Y2799500D01*
X14884836Y2799500D01*
X14898511Y2797268D01*
X14898683Y2798494D01*
X14907764Y2797228D01*
X14907765Y2797227D01*
X14907765Y2797228D01*
X14907766Y2797227D01*
X14954642Y2799394D01*
X14959214Y2799500D01*
X14977842Y2799500D01*
X14977844Y2799500D01*
X14977948Y2799520D01*
X14991571Y2801102D01*
X15019992Y2802415D01*
X15028976Y2806383D01*
X15050777Y2813135D01*
X15060433Y2814939D01*
X15084617Y2829914D01*
X15096727Y2836298D01*
X15112008Y2843045D01*
X15147418Y2851373D01*
X15169992Y2852415D01*
X15178976Y2856383D01*
X15200777Y2863135D01*
X15210433Y2864939D01*
X15234618Y2879914D01*
X15246728Y2886299D01*
X15272765Y2897794D01*
X15279709Y2904740D01*
X15297601Y2918911D01*
X15305952Y2924081D01*
X15310058Y2929519D01*
X15353305Y2962178D01*
X15360428Y2964939D01*
X15360433Y2964939D01*
X15384618Y2979914D01*
X15396728Y2986299D01*
X15422765Y2997794D01*
X15429709Y3004740D01*
X15447601Y3018911D01*
X15455952Y3024081D01*
X15473089Y3046777D01*
X15482090Y3057120D01*
X15545475Y3120504D01*
X15599992Y3148281D01*
X15615478Y3149500D01*
X15627842Y3149500D01*
X15627844Y3149500D01*
X15627948Y3149520D01*
X15641571Y3151102D01*
X15669992Y3152415D01*
X15678976Y3156383D01*
X15700777Y3163135D01*
X15710433Y3164939D01*
X15734617Y3179914D01*
X15746735Y3186301D01*
X15757527Y3191067D01*
X15797512Y3199500D01*
X21484836Y3199500D01*
X21498511Y3197268D01*
X21498683Y3198494D01*
X21507764Y3197228D01*
X21507765Y3197227D01*
X21507765Y3197228D01*
X21507766Y3197227D01*
X21554642Y3199394D01*
X21559214Y3199500D01*
X21577842Y3199500D01*
X21577844Y3199500D01*
X21577948Y3199520D01*
X21591571Y3201102D01*
X21619992Y3202415D01*
X21628976Y3206383D01*
X21650777Y3213135D01*
X21660433Y3214939D01*
X21684617Y3229914D01*
X21696727Y3236298D01*
X21712008Y3243045D01*
X21747418Y3251373D01*
X21769992Y3252415D01*
X21778976Y3256383D01*
X21800777Y3263135D01*
X21810433Y3264939D01*
X21834618Y3279914D01*
X21846728Y3286299D01*
X21872765Y3297794D01*
X21879709Y3304740D01*
X21897601Y3318911D01*
X21905952Y3324081D01*
X21910058Y3329519D01*
X21953302Y3362177D01*
X21960424Y3364938D01*
X21960433Y3364939D01*
X21992498Y3384795D01*
X22000462Y3389230D01*
X22034228Y3406042D01*
X22034519Y3406362D01*
X22055576Y3423849D01*
X22055952Y3424081D01*
X22078671Y3454169D01*
X22084515Y3461205D01*
X22109916Y3489067D01*
X22110076Y3489479D01*
X22123395Y3513391D01*
X22123656Y3513736D01*
X22129984Y3535980D01*
X22152044Y3575586D01*
X22165853Y3590734D01*
X22168992Y3594023D01*
X22182174Y3607203D01*
X22182238Y3607298D01*
X22190753Y3618047D01*
X22209916Y3639067D01*
X22213465Y3648230D01*
X22224106Y3668418D01*
X22229656Y3676519D01*
X22236169Y3704215D01*
X22240220Y3717294D01*
X22250500Y3743827D01*
X22250500Y3746255D01*
X22257184Y3782014D01*
X22263465Y3798229D01*
X22274105Y3818417D01*
X22279657Y3826520D01*
X22286170Y3854214D01*
X22290218Y3867288D01*
X22300500Y3893827D01*
X22300500Y3903652D01*
X22303129Y3926317D01*
X22305379Y3935881D01*
X22301449Y3964056D01*
X22300500Y3977732D01*
X22300500Y5484831D01*
X22302731Y5498504D01*
X22301505Y5498675D01*
X22302773Y5507767D01*
X22300606Y5554642D01*
X22300500Y5559214D01*
X22300500Y5577840D01*
X22300500Y5577844D01*
X22300478Y5577958D01*
X22298898Y5591570D01*
X22297585Y5619991D01*
X22293613Y5628986D01*
X22286865Y5650780D01*
X22285061Y5660433D01*
X22270087Y5684617D01*
X22263700Y5696733D01*
X22256953Y5712012D01*
X22248627Y5747419D01*
X22247585Y5769992D01*
X22243614Y5778984D01*
X22236864Y5800786D01*
X22236549Y5802470D01*
X22235061Y5810433D01*
X22220085Y5834621D01*
X22213697Y5846740D01*
X22202206Y5872766D01*
X22202205Y5872767D01*
X22202204Y5872769D01*
X22195254Y5879719D01*
X22181088Y5897605D01*
X22175921Y5905949D01*
X22175919Y5905953D01*
X22170479Y5910060D01*
X22137823Y5953302D01*
X22135061Y5960430D01*
X22135061Y5960433D01*
X22120085Y5984621D01*
X22113698Y5996738D01*
X22102206Y6022765D01*
X22102205Y6022767D01*
X22095256Y6029716D01*
X22081090Y6047601D01*
X22075919Y6055952D01*
X22053221Y6073093D01*
X22042879Y6082092D01*
X21865506Y6259465D01*
X21837729Y6313982D01*
X21845457Y6370596D01*
X21850730Y6382142D01*
X21885165Y6457543D01*
X21894222Y6520535D01*
X21905647Y6599998D01*
X21905647Y6600003D01*
X21885165Y6742457D01*
X21825377Y6873372D01*
X21825377Y6873373D01*
X21731128Y6982143D01*
X21731127Y6982144D01*
X21731126Y6982145D01*
X21610057Y7059951D01*
X21610054Y7059953D01*
X21610053Y7059953D01*
X21610050Y7059954D01*
X21471964Y7100500D01*
X21471961Y7100500D01*
X21328039Y7100500D01*
X21328035Y7100500D01*
X21227391Y7070948D01*
X21166230Y7072696D01*
X21117778Y7110059D01*
X21100500Y7165938D01*
X21100500Y7334063D01*
X21119407Y7392254D01*
X21168907Y7428218D01*
X21227389Y7429053D01*
X21328039Y7399500D01*
X21328041Y7399500D01*
X21471959Y7399500D01*
X21471961Y7399500D01*
X21610053Y7440047D01*
X21731128Y7517857D01*
X21825377Y7626627D01*
X21885165Y7757543D01*
X21905647Y7900000D01*
X21885165Y8042457D01*
X21825377Y8173373D01*
X21731128Y8282143D01*
X21731127Y8282144D01*
X21726491Y8287494D01*
X21728524Y8289257D01*
X21703067Y8331495D01*
X21700500Y8353895D01*
X21700500Y8634831D01*
X21702731Y8648504D01*
X21701505Y8648675D01*
X21702773Y8657767D01*
X21700606Y8704642D01*
X21700500Y8709214D01*
X21700500Y8727840D01*
X21700500Y8727844D01*
X21700478Y8727958D01*
X21698898Y8741570D01*
X21697585Y8769991D01*
X21693613Y8778986D01*
X21686865Y8800780D01*
X21685061Y8810433D01*
X21670087Y8834617D01*
X21663692Y8846750D01*
X21661282Y8852208D01*
X21658616Y8858246D01*
X21652207Y8872764D01*
X21645257Y8879714D01*
X21631088Y8897604D01*
X21625920Y8905951D01*
X21625919Y8905952D01*
X21603221Y8923093D01*
X21592879Y8932092D01*
X21190309Y9334662D01*
X21162532Y9389179D01*
X21172103Y9449611D01*
X21206790Y9487950D01*
X21284402Y9537828D01*
X21331128Y9567857D01*
X21425377Y9676627D01*
X21485165Y9807543D01*
X21494545Y9872783D01*
X21505647Y9949998D01*
X21505647Y9950003D01*
X21485165Y10092457D01*
X21473189Y10118680D01*
X21425377Y10223373D01*
X21331128Y10332143D01*
X21331127Y10332144D01*
X21331126Y10332145D01*
X21210057Y10409951D01*
X21210054Y10409953D01*
X21210053Y10409953D01*
X21205660Y10411243D01*
X21071964Y10450500D01*
X21071961Y10450500D01*
X20928039Y10450500D01*
X20928035Y10450500D01*
X20788385Y10409495D01*
X20727225Y10411243D01*
X20690490Y10434481D01*
X19858565Y11266406D01*
X19850479Y11277656D01*
X19849487Y11276906D01*
X19843958Y11284228D01*
X19809272Y11315849D01*
X19805968Y11319004D01*
X19792800Y11332172D01*
X19792796Y11332175D01*
X19792693Y11332245D01*
X19781962Y11340745D01*
X19760933Y11359916D01*
X19751762Y11363469D01*
X19731586Y11374105D01*
X19723481Y11379657D01*
X19715475Y11381540D01*
X19671450Y11404747D01*
X19659274Y11415847D01*
X19655969Y11419003D01*
X19642800Y11432172D01*
X19642796Y11432175D01*
X19642693Y11432245D01*
X19631962Y11440745D01*
X19610933Y11459916D01*
X19601762Y11463469D01*
X19581586Y11474105D01*
X19573484Y11479655D01*
X19573478Y11479658D01*
X19558947Y11483075D01*
X19514914Y11506287D01*
X19510933Y11509916D01*
X19503136Y11514743D01*
X19504322Y11516660D01*
X19466677Y11547339D01*
X19451024Y11606488D01*
X19473128Y11663541D01*
X19524546Y11696706D01*
X19549872Y11700000D01*
X27601000Y11700000D01*
X27659191Y11681093D01*
G37*
%TD.AperFunction*%
%TA.AperFunction,Conductor*%
G36*
X18387475Y10165763D02*
G01*
X18430740Y10122498D01*
X18432583Y10118680D01*
X18474623Y10026627D01*
X18541018Y9950003D01*
X18568873Y9917856D01*
X18689942Y9840050D01*
X18689947Y9840047D01*
X18796403Y9808789D01*
X18828035Y9799501D01*
X18828036Y9799501D01*
X18828039Y9799500D01*
X18863810Y9799500D01*
X18922001Y9780593D01*
X18933814Y9770504D01*
X20370504Y8333814D01*
X20398281Y8279297D01*
X20399500Y8263810D01*
X20399500Y5246619D01*
X20397393Y5226304D01*
X20394957Y5214687D01*
X20398740Y5184338D01*
X20399500Y5172093D01*
X20399500Y5170958D01*
X20402751Y5151472D01*
X20403337Y5147453D01*
X20409427Y5098607D01*
X20411527Y5091552D01*
X20413907Y5084620D01*
X20437322Y5041354D01*
X20439196Y5037713D01*
X20458277Y4998680D01*
X20462970Y4987351D01*
X20463907Y4984620D01*
X20487322Y4941354D01*
X20489196Y4937713D01*
X20508277Y4898680D01*
X20512970Y4887351D01*
X20513907Y4884620D01*
X20537322Y4841354D01*
X20539195Y4837715D01*
X20560801Y4793518D01*
X20565078Y4787528D01*
X20569581Y4781742D01*
X20605764Y4748433D01*
X20608717Y4745601D01*
X20928000Y4426318D01*
X20955777Y4371801D01*
X20948050Y4315188D01*
X20914833Y4242455D01*
X20894353Y4100003D01*
X20894353Y4099998D01*
X20914834Y3957544D01*
X20922560Y3940627D01*
X20929535Y3879840D01*
X20899449Y3826563D01*
X20843793Y3801145D01*
X20832507Y3800500D01*
X15715165Y3800500D01*
X15701489Y3802733D01*
X15701318Y3801506D01*
X15692234Y3802774D01*
X15645359Y3800606D01*
X15640787Y3800500D01*
X15622152Y3800500D01*
X15622029Y3800477D01*
X15608419Y3798899D01*
X15580011Y3797586D01*
X15580007Y3797585D01*
X15571013Y3793614D01*
X15549228Y3786868D01*
X15539571Y3785063D01*
X15539563Y3785060D01*
X15515379Y3770087D01*
X15503259Y3763699D01*
X15493845Y3759542D01*
X15458432Y3751211D01*
X15450092Y3750825D01*
X15445353Y3750606D01*
X15440785Y3750500D01*
X15422152Y3750500D01*
X15422029Y3750477D01*
X15408419Y3748899D01*
X15380011Y3747586D01*
X15380007Y3747585D01*
X15371013Y3743614D01*
X15349228Y3736868D01*
X15339571Y3735063D01*
X15339565Y3735061D01*
X15315381Y3720087D01*
X15303259Y3713698D01*
X15277238Y3702208D01*
X15277231Y3702204D01*
X15270286Y3695258D01*
X15252406Y3681095D01*
X15244048Y3675920D01*
X15226907Y3653222D01*
X15217909Y3642882D01*
X15136484Y3561457D01*
X15097203Y3540748D01*
X15098122Y3538376D01*
X15089566Y3535062D01*
X15065386Y3520091D01*
X15053266Y3513702D01*
X15027235Y3502207D01*
X15027234Y3502207D01*
X15020280Y3495253D01*
X15002403Y3481093D01*
X14994049Y3475921D01*
X14991147Y3473274D01*
X14935407Y3448042D01*
X14930216Y3447634D01*
X14930007Y3447585D01*
X14921013Y3443614D01*
X14899228Y3436868D01*
X14889571Y3435063D01*
X14889563Y3435060D01*
X14865379Y3420087D01*
X14853265Y3413701D01*
X14842483Y3408939D01*
X14802486Y3400500D01*
X9199000Y3400500D01*
X9140809Y3419407D01*
X9104845Y3468907D01*
X9100000Y3499500D01*
X9100000Y4199998D01*
X10394353Y4199998D01*
X10414834Y4057544D01*
X10460504Y3957543D01*
X10474623Y3926627D01*
X10515164Y3879840D01*
X10568873Y3817856D01*
X10689942Y3740050D01*
X10689947Y3740047D01*
X10789241Y3710892D01*
X10828035Y3699501D01*
X10828036Y3699501D01*
X10828039Y3699500D01*
X10828041Y3699500D01*
X10971959Y3699500D01*
X10971961Y3699500D01*
X11110053Y3740047D01*
X11231128Y3817857D01*
X11272264Y3865332D01*
X11324660Y3896927D01*
X11347083Y3899500D01*
X13702917Y3899500D01*
X13761108Y3880593D01*
X13777733Y3865333D01*
X13818872Y3817857D01*
X13874645Y3782014D01*
X13934396Y3743614D01*
X13939947Y3740047D01*
X14039241Y3710892D01*
X14078035Y3699501D01*
X14078036Y3699501D01*
X14078039Y3699500D01*
X14078041Y3699500D01*
X14221959Y3699500D01*
X14221961Y3699500D01*
X14360053Y3740047D01*
X14481128Y3817857D01*
X14575377Y3926627D01*
X14635165Y4057543D01*
X14655647Y4200000D01*
X14635165Y4342457D01*
X14575377Y4473373D01*
X14481128Y4582143D01*
X14481127Y4582144D01*
X14481126Y4582145D01*
X14360057Y4659951D01*
X14360054Y4659953D01*
X14360053Y4659953D01*
X14353991Y4661733D01*
X14221964Y4700500D01*
X14221961Y4700500D01*
X14078039Y4700500D01*
X14078035Y4700500D01*
X13939949Y4659954D01*
X13939942Y4659951D01*
X13818876Y4582146D01*
X13818875Y4582145D01*
X13818872Y4582143D01*
X13787272Y4545674D01*
X13777736Y4534669D01*
X13725340Y4503073D01*
X13702917Y4500500D01*
X11347083Y4500500D01*
X11288892Y4519407D01*
X11272264Y4534669D01*
X11231128Y4582143D01*
X11198182Y4603316D01*
X11110057Y4659951D01*
X11110054Y4659953D01*
X11110053Y4659953D01*
X11103991Y4661733D01*
X10971964Y4700500D01*
X10971961Y4700500D01*
X10828039Y4700500D01*
X10828035Y4700500D01*
X10689949Y4659954D01*
X10689942Y4659951D01*
X10568873Y4582145D01*
X10474622Y4473372D01*
X10414834Y4342457D01*
X10394353Y4200003D01*
X10394353Y4199998D01*
X9100000Y4199998D01*
X9100000Y6950500D01*
X9118907Y7008691D01*
X9168407Y7044655D01*
X9199000Y7049500D01*
X10684836Y7049500D01*
X10698511Y7047268D01*
X10698683Y7048494D01*
X10707764Y7047228D01*
X10707765Y7047227D01*
X10707765Y7047228D01*
X10707766Y7047227D01*
X10754642Y7049394D01*
X10759214Y7049500D01*
X10777842Y7049500D01*
X10777844Y7049500D01*
X10777948Y7049520D01*
X10791571Y7051102D01*
X10819992Y7052415D01*
X10828976Y7056383D01*
X10850777Y7063135D01*
X10860433Y7064939D01*
X10884618Y7079914D01*
X10896728Y7086299D01*
X10922765Y7097794D01*
X10929709Y7104740D01*
X10947601Y7118911D01*
X10955952Y7124081D01*
X10973089Y7146777D01*
X10982082Y7157113D01*
X11122528Y7297559D01*
X11177043Y7325334D01*
X11237475Y7315763D01*
X11280740Y7272498D01*
X11282583Y7268680D01*
X11300478Y7229496D01*
X11324623Y7176627D01*
X11418872Y7067857D01*
X11454024Y7045266D01*
X11492754Y6997902D01*
X11499500Y6961983D01*
X11499500Y6316232D01*
X11480593Y6258041D01*
X11431093Y6222077D01*
X11428393Y6221243D01*
X11389952Y6209956D01*
X11389942Y6209951D01*
X11268873Y6132145D01*
X11174622Y6023372D01*
X11114834Y5892457D01*
X11094353Y5750003D01*
X11094353Y5749998D01*
X11114834Y5607544D01*
X11160403Y5507764D01*
X11174623Y5476627D01*
X11268872Y5367857D01*
X11268873Y5367856D01*
X11389942Y5290050D01*
X11389947Y5290047D01*
X11496403Y5258789D01*
X11528035Y5249501D01*
X11528036Y5249501D01*
X11528039Y5249500D01*
X11528041Y5249500D01*
X11671959Y5249500D01*
X11671961Y5249500D01*
X11810053Y5290047D01*
X11931128Y5367857D01*
X12025377Y5476627D01*
X12085165Y5607543D01*
X12098386Y5699500D01*
X12103096Y5732256D01*
X12120511Y5775686D01*
X12129880Y5788808D01*
X12132290Y5792039D01*
X12146606Y5810432D01*
X12162517Y5830874D01*
X12162517Y5830877D01*
X12166014Y5837338D01*
X12169239Y5843933D01*
X12174008Y5859953D01*
X12183281Y5891104D01*
X12184512Y5894946D01*
X12200500Y5941512D01*
X12200500Y5941516D01*
X12201706Y5948741D01*
X12202617Y5956046D01*
X12200585Y6005176D01*
X12200500Y6009267D01*
X12200500Y7210103D01*
X12209447Y7251230D01*
X12217416Y7268679D01*
X12258789Y7313757D01*
X12318756Y7325907D01*
X12374411Y7300488D01*
X12377468Y7297561D01*
X12661561Y7013467D01*
X12941437Y6733591D01*
X12949537Y6722352D01*
X12950516Y6723091D01*
X12956044Y6715770D01*
X12990714Y6684164D01*
X12994019Y6681008D01*
X13007200Y6667828D01*
X13007203Y6667825D01*
X13007300Y6667759D01*
X13018049Y6659244D01*
X13033803Y6644883D01*
X13039067Y6640084D01*
X13039070Y6640083D01*
X13048226Y6636536D01*
X13068416Y6625895D01*
X13076520Y6620343D01*
X13104212Y6613831D01*
X13117299Y6609778D01*
X13143827Y6599500D01*
X13153653Y6599500D01*
X13176317Y6596871D01*
X13185882Y6594621D01*
X13214056Y6598552D01*
X13227732Y6599500D01*
X13746256Y6599500D01*
X13782017Y6592816D01*
X13789065Y6590086D01*
X13789067Y6590084D01*
X13798233Y6586533D01*
X13818412Y6575897D01*
X13826520Y6570343D01*
X13854215Y6563829D01*
X13867296Y6559778D01*
X13893827Y6549500D01*
X13893829Y6549500D01*
X13902678Y6547846D01*
X13954494Y6520535D01*
X13957203Y6517826D01*
X13957295Y6517763D01*
X13968042Y6509250D01*
X13989064Y6490086D01*
X13989065Y6490086D01*
X13989067Y6490084D01*
X13998230Y6486534D01*
X14018417Y6475894D01*
X14026518Y6470344D01*
X14035927Y6468131D01*
X14083264Y6441765D01*
X14691436Y5833593D01*
X14699537Y5822353D01*
X14700516Y5823091D01*
X14706044Y5815770D01*
X14740724Y5784155D01*
X14744032Y5780997D01*
X14757203Y5767826D01*
X14757295Y5767763D01*
X14768042Y5759250D01*
X14789064Y5740086D01*
X14789065Y5740086D01*
X14789067Y5740084D01*
X14798230Y5736534D01*
X14818416Y5725895D01*
X14826519Y5720344D01*
X14854215Y5713830D01*
X14867293Y5709780D01*
X14893827Y5699500D01*
X14903652Y5699500D01*
X14926316Y5696871D01*
X14935881Y5694621D01*
X14960958Y5698120D01*
X14964054Y5698551D01*
X14977731Y5699500D01*
X16602917Y5699500D01*
X16661108Y5680593D01*
X16677733Y5665333D01*
X16718872Y5617857D01*
X16839947Y5540047D01*
X16945906Y5508935D01*
X16978035Y5499501D01*
X16978036Y5499501D01*
X16978039Y5499500D01*
X16978041Y5499500D01*
X17121959Y5499500D01*
X17121961Y5499500D01*
X17260053Y5540047D01*
X17381128Y5617857D01*
X17475377Y5726627D01*
X17535165Y5857543D01*
X17548933Y5953302D01*
X17555647Y5999998D01*
X17555647Y6000003D01*
X17535165Y6142457D01*
X17482379Y6258041D01*
X17475377Y6273373D01*
X17381128Y6382143D01*
X17381127Y6382144D01*
X17381126Y6382145D01*
X17260057Y6459951D01*
X17260054Y6459953D01*
X17260053Y6459953D01*
X17256242Y6461072D01*
X17121964Y6500500D01*
X17121961Y6500500D01*
X16978039Y6500500D01*
X16978035Y6500500D01*
X16839949Y6459954D01*
X16839942Y6459951D01*
X16718876Y6382146D01*
X16718871Y6382142D01*
X16677736Y6334669D01*
X16625340Y6303073D01*
X16602917Y6300500D01*
X15115479Y6300500D01*
X15057288Y6319407D01*
X15045475Y6329496D01*
X14458565Y6916406D01*
X14450479Y6927656D01*
X14449487Y6926906D01*
X14443958Y6934228D01*
X14409272Y6965849D01*
X14405968Y6969004D01*
X14392800Y6982172D01*
X14392796Y6982175D01*
X14392693Y6982245D01*
X14381962Y6990745D01*
X14360933Y7009916D01*
X14351762Y7013469D01*
X14331586Y7024105D01*
X14323481Y7029657D01*
X14315475Y7031540D01*
X14271450Y7054747D01*
X14259274Y7065847D01*
X14255969Y7069003D01*
X14242800Y7082172D01*
X14242796Y7082175D01*
X14242693Y7082245D01*
X14231962Y7090745D01*
X14210933Y7109916D01*
X14201762Y7113469D01*
X14181586Y7124105D01*
X14173484Y7129655D01*
X14173479Y7129657D01*
X14145797Y7136168D01*
X14132703Y7140223D01*
X14106177Y7150500D01*
X14106173Y7150500D01*
X14103744Y7150500D01*
X14067979Y7157186D01*
X14051767Y7163467D01*
X14031586Y7174105D01*
X14023484Y7179655D01*
X14023479Y7179657D01*
X13995797Y7186168D01*
X13982703Y7190223D01*
X13956177Y7200500D01*
X13956173Y7200500D01*
X13946348Y7200500D01*
X13923683Y7203130D01*
X13914119Y7205379D01*
X13914118Y7205379D01*
X13885946Y7201449D01*
X13872269Y7200500D01*
X13365479Y7200500D01*
X13307288Y7219407D01*
X13295475Y7229496D01*
X12544475Y7980496D01*
X12516698Y8035013D01*
X12526269Y8095445D01*
X12569534Y8138710D01*
X12614479Y8149500D01*
X14934836Y8149500D01*
X14948511Y8147268D01*
X14948683Y8148494D01*
X14957764Y8147228D01*
X14957765Y8147227D01*
X14957765Y8147228D01*
X14957766Y8147227D01*
X15004642Y8149394D01*
X15009214Y8149500D01*
X15027842Y8149500D01*
X15027844Y8149500D01*
X15027948Y8149520D01*
X15041571Y8151102D01*
X15069992Y8152415D01*
X15078976Y8156383D01*
X15100777Y8163135D01*
X15110433Y8164939D01*
X15134618Y8179914D01*
X15146728Y8186299D01*
X15172765Y8197794D01*
X15179709Y8204740D01*
X15197601Y8218911D01*
X15205952Y8224081D01*
X15223089Y8246777D01*
X15232082Y8257113D01*
X15563515Y8588546D01*
X15602799Y8609247D01*
X15601878Y8611625D01*
X15610429Y8614939D01*
X15610433Y8614939D01*
X15634618Y8629914D01*
X15646728Y8636299D01*
X15672765Y8647794D01*
X15679709Y8654740D01*
X15697601Y8668911D01*
X15705952Y8674081D01*
X15705956Y8674087D01*
X15708856Y8676729D01*
X15764598Y8701959D01*
X15769790Y8702368D01*
X15769990Y8702415D01*
X15769992Y8702415D01*
X15778976Y8706383D01*
X15800777Y8713135D01*
X15810433Y8714939D01*
X15834617Y8729914D01*
X15846735Y8736301D01*
X15857527Y8741067D01*
X15897512Y8749500D01*
X16684836Y8749500D01*
X16698511Y8747268D01*
X16698683Y8748494D01*
X16707764Y8747228D01*
X16707765Y8747227D01*
X16707765Y8747228D01*
X16707766Y8747227D01*
X16754642Y8749394D01*
X16759214Y8749500D01*
X16777842Y8749500D01*
X16777844Y8749500D01*
X16777948Y8749520D01*
X16791571Y8751102D01*
X16819992Y8752415D01*
X16828976Y8756383D01*
X16850777Y8763135D01*
X16860433Y8764939D01*
X16884618Y8779914D01*
X16896728Y8786299D01*
X16922765Y8797794D01*
X16929709Y8804740D01*
X16947601Y8818911D01*
X16955952Y8824081D01*
X16973089Y8846777D01*
X16982082Y8857113D01*
X18272528Y10147559D01*
X18327043Y10175334D01*
X18387475Y10165763D01*
G37*
%TD.AperFunction*%
%TA.AperFunction,Conductor*%
G36*
X18314075Y11681093D02*
G01*
X18350039Y11631593D01*
X18350039Y11570407D01*
X18314075Y11520907D01*
X18295876Y11510438D01*
X18294696Y11509916D01*
X18277232Y11502205D01*
X18274176Y11500111D01*
X18247807Y11489188D01*
X18248122Y11488376D01*
X18239566Y11485062D01*
X18215386Y11470091D01*
X18203266Y11463702D01*
X18177235Y11452207D01*
X18177234Y11452207D01*
X18170280Y11445253D01*
X18152403Y11431093D01*
X18144049Y11425921D01*
X18144045Y11425917D01*
X18139936Y11420475D01*
X18096707Y11387828D01*
X18089565Y11385061D01*
X18065386Y11370091D01*
X18053266Y11363702D01*
X18027235Y11352207D01*
X18027234Y11352207D01*
X18020280Y11345253D01*
X18002403Y11331093D01*
X17994046Y11325919D01*
X17976909Y11303226D01*
X17967912Y11292886D01*
X16454525Y9779496D01*
X16400008Y9751719D01*
X16384521Y9750500D01*
X15665165Y9750500D01*
X15651489Y9752733D01*
X15651318Y9751506D01*
X15642234Y9752774D01*
X15595359Y9750606D01*
X15590787Y9750500D01*
X15572152Y9750500D01*
X15572029Y9750477D01*
X15558419Y9748899D01*
X15530011Y9747586D01*
X15530007Y9747585D01*
X15521013Y9743614D01*
X15499228Y9736868D01*
X15489571Y9735063D01*
X15489563Y9735060D01*
X15465379Y9720087D01*
X15453261Y9713700D01*
X15438001Y9706961D01*
X15402580Y9698629D01*
X15380011Y9697586D01*
X15380007Y9697585D01*
X15371013Y9693614D01*
X15349228Y9686868D01*
X15339571Y9685063D01*
X15339565Y9685061D01*
X15315381Y9670087D01*
X15303259Y9663698D01*
X15277235Y9652207D01*
X15274176Y9650111D01*
X15247807Y9639188D01*
X15248122Y9638376D01*
X15239566Y9635062D01*
X15215386Y9620091D01*
X15203266Y9613702D01*
X15177235Y9602207D01*
X15177234Y9602207D01*
X15170280Y9595253D01*
X15152403Y9581093D01*
X15144049Y9575921D01*
X15144045Y9575917D01*
X15139936Y9570475D01*
X15096707Y9537828D01*
X15089565Y9535061D01*
X15065386Y9520091D01*
X15053266Y9513702D01*
X15027235Y9502207D01*
X15027234Y9502207D01*
X15020280Y9495253D01*
X15002403Y9481093D01*
X14994048Y9475920D01*
X14976907Y9453222D01*
X14967909Y9442883D01*
X14704526Y9179497D01*
X14650010Y9151719D01*
X14634522Y9150500D01*
X11365165Y9150500D01*
X11351489Y9152733D01*
X11351318Y9151506D01*
X11342234Y9152774D01*
X11295359Y9150606D01*
X11290787Y9150500D01*
X11272152Y9150500D01*
X11272029Y9150477D01*
X11258419Y9148899D01*
X11230011Y9147586D01*
X11230007Y9147585D01*
X11221013Y9143614D01*
X11199228Y9136868D01*
X11189571Y9135063D01*
X11189563Y9135060D01*
X11165379Y9120087D01*
X11153261Y9113700D01*
X11138001Y9106961D01*
X11102580Y9098629D01*
X11080011Y9097586D01*
X11080007Y9097585D01*
X11071013Y9093614D01*
X11049228Y9086868D01*
X11039571Y9085063D01*
X11039565Y9085061D01*
X11015381Y9070087D01*
X11003259Y9063698D01*
X10977233Y9052206D01*
X10974172Y9050109D01*
X10947805Y9039186D01*
X10948120Y9038374D01*
X10939565Y9035061D01*
X10915381Y9020087D01*
X10903259Y9013698D01*
X10877235Y9002207D01*
X10874176Y9000111D01*
X10847807Y8989188D01*
X10848122Y8988376D01*
X10839566Y8985062D01*
X10815386Y8970091D01*
X10803266Y8963702D01*
X10777235Y8952207D01*
X10777234Y8952207D01*
X10770280Y8945253D01*
X10752403Y8931093D01*
X10744049Y8925921D01*
X10742237Y8923522D01*
X10739937Y8920476D01*
X10696702Y8887825D01*
X10689563Y8885060D01*
X10665381Y8870088D01*
X10653262Y8863700D01*
X10627237Y8852208D01*
X10627233Y8852205D01*
X10620284Y8845256D01*
X10602409Y8831097D01*
X10594048Y8825920D01*
X10576904Y8803218D01*
X10567906Y8792879D01*
X10404526Y8629497D01*
X10350010Y8601719D01*
X10334522Y8600500D01*
X9199000Y8600500D01*
X9140809Y8619407D01*
X9104845Y8668907D01*
X9100000Y8699500D01*
X9100000Y11601000D01*
X9118907Y11659191D01*
X9168407Y11695155D01*
X9199000Y11700000D01*
X18255884Y11700000D01*
X18314075Y11681093D01*
G37*
%TD.AperFunction*%
%TD*%
M02*
