solid OpenSCAD_Model
  facet normal -1 0 0
    outer loop
      vertex 4.9 -2.8 6.21725e-16
      vertex 4.9 0 0.0268421
      vertex 4.9 0 0
    endloop
  endfacet
  facet normal -1 -0 0
    outer loop
      vertex 4.9 0 0.0268421
      vertex 4.9 -2.8 6.21725e-16
      vertex 4.9 -2.8 0.0268421
    endloop
  endfacet
  facet normal -1 0 0
    outer loop
      vertex 4.9 -2.8 11.9732
      vertex 4.9 0 12
      vertex 4.9 0 11.9732
    endloop
  endfacet
  facet normal -1 -0 0
    outer loop
      vertex 4.9 0 12
      vertex 4.9 -2.8 11.9732
      vertex 4.9 -2.8 12
    endloop
  endfacet
  facet normal 0 -1 0
    outer loop
      vertex 5.29079 -2.8 7.87003
      vertex 4.38781 -2.8 11.9732
      vertex 3.38582 -2.8 11.7602
    endloop
  endfacet
  facet normal 0 -1 0
    outer loop
      vertex 4.9 -2.8 11.9732
      vertex 12.2127 -2.8 12
      vertex 4.9 -2.8 12
    endloop
  endfacet
  facet normal 0 -1 0
    outer loop
      vertex 4.38781 -2.8 11.9732
      vertex 5.29079 -2.8 7.87003
      vertex 4.9 -2.8 11.9732
    endloop
  endfacet
  facet normal 0 -1 0
    outer loop
      vertex 5.29079 -2.8 7.87003
      vertex 3.38582 -2.8 11.7602
      vertex 2.45 -2.8 11.3435
    endloop
  endfacet
  facet normal 0 -1 0
    outer loop
      vertex 4.50298 -2.8 7.32625
      vertex 2.45 -2.8 11.3435
      vertex 1.62126 -2.8 10.7414
    endloop
  endfacet
  facet normal 0 -1 0
    outer loop
      vertex 4.50298 -2.8 7.32625
      vertex 1.62126 -2.8 10.7414
      vertex 0.935816 -2.8 9.98015
    endloop
  endfacet
  facet normal 0 -1 0
    outer loop
      vertex 4.50298 -2.8 7.32625
      vertex 0.935816 -2.8 9.98015
      vertex 0.423627 -2.8 9.09301
    endloop
  endfacet
  facet normal 0 -1 0
    outer loop
      vertex 4.50298 -2.8 7.32625
      vertex 0.423627 -2.8 9.09301
      vertex 0.107077 -2.8 8.11877
    endloop
  endfacet
  facet normal 0 -1 0
    outer loop
      vertex 4.9 -2.8 11.9732
      vertex 5.29079 -2.8 7.87003
      vertex 6.24107 -2.8 7.98542
    endloop
  endfacet
  facet normal 0 -1 0
    outer loop
      vertex 4.9 -2.8 11.9732
      vertex 7.13613 -2.8 7.64597
      vertex 12.2127 -2.8 12
    endloop
  endfacet
  facet normal 0 -1 0
    outer loop
      vertex 7.77091 -2.8 6.92945
      vertex 12.2127 -2.8 12
      vertex 7.13613 -2.8 7.64597
    endloop
  endfacet
  facet normal 0 -1 0
    outer loop
      vertex 8 -2.8 6
      vertex 12.2127 -2.8 12
      vertex 7.77091 -2.8 6.92945
    endloop
  endfacet
  facet normal 0 -1 0
    outer loop
      vertex 12.2127 -2.8 6.21725e-16
      vertex 8 -2.8 6
      vertex 7.77091 -2.8 5.07055
    endloop
  endfacet
  facet normal 0 -1 0
    outer loop
      vertex 1.62126 -2.8 1.25859
      vertex 4.50298 -2.8 4.67375
      vertex 0.935816 -2.8 2.01985
    endloop
  endfacet
  facet normal 0 -1 0
    outer loop
      vertex 2.45 -2.8 0.656475
      vertex 4.50298 -2.8 4.67375
      vertex 1.62126 -2.8 1.25859
    endloop
  endfacet
  facet normal 0 -1 -0
    outer loop
      vertex 4.50298 -2.8 4.67375
      vertex 2.45 -2.8 0.656475
      vertex 5.29079 -2.8 4.12997
    endloop
  endfacet
  facet normal 0 -1 0
    outer loop
      vertex 3.38582 -2.8 0.239822
      vertex 5.29079 -2.8 4.12997
      vertex 2.45 -2.8 0.656475
    endloop
  endfacet
  facet normal 0 -1 0
    outer loop
      vertex 4.38781 -2.8 0.0268421
      vertex 5.29079 -2.8 4.12997
      vertex 3.38582 -2.8 0.239822
    endloop
  endfacet
  facet normal 0 -1 0
    outer loop
      vertex 4.9 -2.8 0.0268421
      vertex 5.29079 -2.8 4.12997
      vertex 4.38781 -2.8 0.0268421
    endloop
  endfacet
  facet normal 0 -1 -0
    outer loop
      vertex 5.29079 -2.8 4.12997
      vertex 4.9 -2.8 0.0268421
      vertex 6.24107 -2.8 4.01458
    endloop
  endfacet
  facet normal 0 -1 -0
    outer loop
      vertex 6.24107 -2.8 4.01458
      vertex 4.9 -2.8 0.0268421
      vertex 7.13613 -2.8 4.35403
    endloop
  endfacet
  facet normal 0 -1 0
    outer loop
      vertex 11.2776 -2.8 6.21725e-16
      vertex 7.13613 -2.8 4.35403
      vertex 4.9 -2.8 0.0268421
    endloop
  endfacet
  facet normal 0 -1 0
    outer loop
      vertex 7.13613 -2.8 4.35403
      vertex 11.2776 -2.8 6.21725e-16
      vertex 7.77091 -2.8 5.07055
    endloop
  endfacet
  facet normal 0 -1 0
    outer loop
      vertex 11.2776 -2.8 6.21725e-16
      vertex 4.9 -2.8 0.0268421
      vertex 4.9 -2.8 6.21725e-16
    endloop
  endfacet
  facet normal 0 -1 0
    outer loop
      vertex 12.2127 -2.8 6.21725e-16
      vertex 7.77091 -2.8 5.07055
      vertex 11.2776 -2.8 6.21725e-16
    endloop
  endfacet
  facet normal 0 -1 0
    outer loop
      vertex 8 -2.8 6
      vertex 12.2127 -2.8 6.21725e-16
      vertex 12.2127 -2.8 12
    endloop
  endfacet
  facet normal 0 -1 0
    outer loop
      vertex 7.13613 -2.8 7.64597
      vertex 4.9 -2.8 11.9732
      vertex 6.24107 -2.8 7.98542
    endloop
  endfacet
  facet normal 0 -1 0
    outer loop
      vertex 2.45 -2.8 11.3435
      vertex 4.50298 -2.8 7.32625
      vertex 5.29079 -2.8 7.87003
    endloop
  endfacet
  facet normal 0 -1 0
    outer loop
      vertex 4.05812 -2.8 6.47863
      vertex 0.107077 -2.8 8.11877
      vertex 0 -2.8 7.1
    endloop
  endfacet
  facet normal 0 -1 0
    outer loop
      vertex 0.107077 -2.8 8.11877
      vertex 4.05812 -2.8 6.47863
      vertex 4.50298 -2.8 7.32625
    endloop
  endfacet
  facet normal 0 -1 0
    outer loop
      vertex 0 -2.8 7.1
      vertex 4.05812 -2.8 5.52137
      vertex 4.05812 -2.8 6.47863
    endloop
  endfacet
  facet normal 0 -1 0
    outer loop
      vertex 0 -2.8 4.9
      vertex 4.05812 -2.8 5.52137
      vertex 0 -2.8 7.1
    endloop
  endfacet
  facet normal 0 -1 0
    outer loop
      vertex 0.107077 -2.8 3.88123
      vertex 4.05812 -2.8 5.52137
      vertex 0 -2.8 4.9
    endloop
  endfacet
  facet normal 0 -1 -0
    outer loop
      vertex 4.05812 -2.8 5.52137
      vertex 0.107077 -2.8 3.88123
      vertex 4.50298 -2.8 4.67375
    endloop
  endfacet
  facet normal 0 -1 0
    outer loop
      vertex 0.935816 -2.8 2.01985
      vertex 4.50298 -2.8 4.67375
      vertex 0.423627 -2.8 2.90699
    endloop
  endfacet
  facet normal 0 -1 0
    outer loop
      vertex 0.423627 -2.8 2.90699
      vertex 4.50298 -2.8 4.67375
      vertex 0.107077 -2.8 3.88123
    endloop
  endfacet
  facet normal 0 0 0
    outer loop
      vertex 4.9 -2.8 12
      vertex 12.2127 -2.8 12
      vertex 14 -2.8 12
    endloop
  endfacet
  facet normal -0 0 1
    outer loop
      vertex 4.9 0 12
      vertex 14 -2.8 12
      vertex 14 0 12
    endloop
  endfacet
  facet normal 0 0 1
    outer loop
      vertex 14 -2.8 12
      vertex 4.9 0 12
      vertex 4.9 -2.8 12
    endloop
  endfacet
  facet normal 0 -2.22045e-16 -1
    outer loop
      vertex 12.1158 -2.50193 5.5554e-16
      vertex 11.2776 -2.8 6.21725e-16
      vertex 12 -1.4 3.10862e-16
    endloop
  endfacet
  facet normal 0 -2.22045e-16 -1
    outer loop
      vertex 11.2776 -2.8 6.21725e-16
      vertex 12.1158 -2.50193 5.5554e-16
      vertex 12.2127 -2.8 6.21725e-16
    endloop
  endfacet
  facet normal 0 -2.22045e-16 -1
    outer loop
      vertex 11.2776 -2.8 6.21725e-16
      vertex 12.1158 -0.298067 6.61842e-17
      vertex 12 -1.4 3.10862e-16
    endloop
  endfacet
  facet normal 0 -2.22045e-16 -1
    outer loop
      vertex 4.9 0 0
      vertex 12.1158 -0.298067 6.61842e-17
      vertex 11.2776 -2.8 6.21725e-16
    endloop
  endfacet
  facet normal 0 -2.22045e-16 -1
    outer loop
      vertex 4.9 0 0
      vertex 11.2776 -2.8 6.21725e-16
      vertex 4.9 -2.8 6.21725e-16
    endloop
  endfacet
  facet normal 0 -2.22045e-16 -1
    outer loop
      vertex 12.1158 -0.298067 6.61842e-17
      vertex 4.9 0 0
      vertex 12.2127 0 0
    endloop
  endfacet
  facet normal -1 0 0
    outer loop
      vertex 0 -2.8 4.9
      vertex 0 0 7.1
      vertex 0 0 4.9
    endloop
  endfacet
  facet normal -1 -0 0
    outer loop
      vertex 0 0 7.1
      vertex 0 -2.8 4.9
      vertex 0 -2.8 7.1
    endloop
  endfacet
  facet normal 0 0 -1
    outer loop
      vertex 4.38781 -2.8 0.0268421
      vertex 4.9 0 0.0268421
      vertex 4.9 -2.8 0.0268421
    endloop
  endfacet
  facet normal -0 0 -1
    outer loop
      vertex 4.9 0 0.0268421
      vertex 4.38781 -2.8 0.0268421
      vertex 4.38781 0 0.0268421
    endloop
  endfacet
  facet normal -0.866026 0 -0.5
    outer loop
      vertex 0.935816 -2.8 2.01985
      vertex 0.423627 0 2.90699
      vertex 0.935816 0 2.01985
    endloop
  endfacet
  facet normal -0.866026 -0 -0.5
    outer loop
      vertex 0.423627 0 2.90699
      vertex 0.935816 -2.8 2.01985
      vertex 0.423627 -2.8 2.90699
    endloop
  endfacet
  facet normal -0.207912 0 -0.978148
    outer loop
      vertex 3.38582 -2.8 0.239822
      vertex 4.38781 0 0.0268421
      vertex 4.38781 -2.8 0.0268421
    endloop
  endfacet
  facet normal -0.207912 0 -0.978148
    outer loop
      vertex 4.38781 0 0.0268421
      vertex 3.38582 -2.8 0.239822
      vertex 3.38582 0 0.239822
    endloop
  endfacet
  facet normal -0.587785 0 -0.809017
    outer loop
      vertex 1.62126 -2.8 1.25859
      vertex 2.45 0 0.656475
      vertex 2.45 -2.8 0.656475
    endloop
  endfacet
  facet normal -0.587785 0 -0.809017
    outer loop
      vertex 2.45 0 0.656475
      vertex 1.62126 -2.8 1.25859
      vertex 1.62126 0 1.25859
    endloop
  endfacet
  facet normal -0.406737 0 -0.913545
    outer loop
      vertex 2.45 -2.8 0.656475
      vertex 3.38582 0 0.239822
      vertex 3.38582 -2.8 0.239822
    endloop
  endfacet
  facet normal -0.406737 0 -0.913545
    outer loop
      vertex 3.38582 0 0.239822
      vertex 2.45 -2.8 0.656475
      vertex 2.45 0 0.656475
    endloop
  endfacet
  facet normal -0.743145 0 -0.669131
    outer loop
      vertex 1.62126 -2.8 1.25859
      vertex 0.935816 0 2.01985
      vertex 1.62126 0 1.25859
    endloop
  endfacet
  facet normal -0.743145 -0 -0.669131
    outer loop
      vertex 0.935816 0 2.01985
      vertex 1.62126 -2.8 1.25859
      vertex 0.935816 -2.8 2.01985
    endloop
  endfacet
  facet normal -0.951057 0 -0.309017
    outer loop
      vertex 0.423627 -2.8 2.90699
      vertex 0.107077 0 3.88123
      vertex 0.423627 0 2.90699
    endloop
  endfacet
  facet normal -0.951057 -0 -0.309017
    outer loop
      vertex 0.107077 0 3.88123
      vertex 0.423627 -2.8 2.90699
      vertex 0.107077 -2.8 3.88123
    endloop
  endfacet
  facet normal -0.994522 0 -0.104528
    outer loop
      vertex 0.107077 -2.8 3.88123
      vertex 0 0 4.9
      vertex 0.107077 0 3.88123
    endloop
  endfacet
  facet normal -0.994522 -0 -0.104528
    outer loop
      vertex 0 0 4.9
      vertex 0.107077 -2.8 3.88123
      vertex 0 -2.8 4.9
    endloop
  endfacet
  facet normal -0.994522 0 0.104528
    outer loop
      vertex 0 -2.8 7.1
      vertex 0.107077 0 8.11877
      vertex 0 0 7.1
    endloop
  endfacet
  facet normal -0.994522 0 0.104528
    outer loop
      vertex 0.107077 0 8.11877
      vertex 0 -2.8 7.1
      vertex 0.107077 -2.8 8.11877
    endloop
  endfacet
  facet normal -0.406737 0 0.913545
    outer loop
      vertex 2.45 0 11.3435
      vertex 3.38582 -2.8 11.7602
      vertex 3.38582 0 11.7602
    endloop
  endfacet
  facet normal -0.406737 0 0.913545
    outer loop
      vertex 3.38582 -2.8 11.7602
      vertex 2.45 0 11.3435
      vertex 2.45 -2.8 11.3435
    endloop
  endfacet
  facet normal -0.951057 0 0.309017
    outer loop
      vertex 0.107077 -2.8 8.11877
      vertex 0.423627 0 9.09301
      vertex 0.107077 0 8.11877
    endloop
  endfacet
  facet normal -0.951057 0 0.309017
    outer loop
      vertex 0.423627 0 9.09301
      vertex 0.107077 -2.8 8.11877
      vertex 0.423627 -2.8 9.09301
    endloop
  endfacet
  facet normal -0 0 1
    outer loop
      vertex 4.38781 0 11.9732
      vertex 4.9 -2.8 11.9732
      vertex 4.9 0 11.9732
    endloop
  endfacet
  facet normal 0 0 1
    outer loop
      vertex 4.9 -2.8 11.9732
      vertex 4.38781 0 11.9732
      vertex 4.38781 -2.8 11.9732
    endloop
  endfacet
  facet normal -0.866026 0 0.5
    outer loop
      vertex 0.423627 -2.8 9.09301
      vertex 0.935816 0 9.98015
      vertex 0.423627 0 9.09301
    endloop
  endfacet
  facet normal -0.866026 0 0.5
    outer loop
      vertex 0.935816 0 9.98015
      vertex 0.423627 -2.8 9.09301
      vertex 0.935816 -2.8 9.98015
    endloop
  endfacet
  facet normal -0.587785 0 0.809017
    outer loop
      vertex 1.62126 0 10.7414
      vertex 2.45 -2.8 11.3435
      vertex 2.45 0 11.3435
    endloop
  endfacet
  facet normal -0.587785 0 0.809017
    outer loop
      vertex 2.45 -2.8 11.3435
      vertex 1.62126 0 10.7414
      vertex 1.62126 -2.8 10.7414
    endloop
  endfacet
  facet normal -0.207912 0 0.978148
    outer loop
      vertex 3.38582 0 11.7602
      vertex 4.38781 -2.8 11.9732
      vertex 4.38781 0 11.9732
    endloop
  endfacet
  facet normal -0.207912 0 0.978148
    outer loop
      vertex 4.38781 -2.8 11.9732
      vertex 3.38582 0 11.7602
      vertex 3.38582 -2.8 11.7602
    endloop
  endfacet
  facet normal -0.743145 0 0.669131
    outer loop
      vertex 0.935816 -2.8 9.98015
      vertex 1.62126 0 10.7414
      vertex 0.935816 0 9.98015
    endloop
  endfacet
  facet normal -0.743145 0 0.669131
    outer loop
      vertex 1.62126 0 10.7414
      vertex 0.935816 -2.8 9.98015
      vertex 1.62126 -2.8 10.7414
    endloop
  endfacet
  facet normal 0.994522 0.104529 0
    outer loop
      vertex 22.6 -1.4 12
      vertex 22.4842 -0.298067 0
      vertex 22.4842 -0.298067 12
    endloop
  endfacet
  facet normal 0.994522 0.104529 0
    outer loop
      vertex 22.4842 -0.298067 0
      vertex 22.6 -1.4 12
      vertex 22.6 -1.4 0
    endloop
  endfacet
  facet normal 0 0 -1
    outer loop
      vertex 22.4842 -2.50193 0
      vertex 19.6097 -2.35671 0
      vertex 19.8 -1.4 0
    endloop
  endfacet
  facet normal 0 0 -1
    outer loop
      vertex 20.8464 -5.33867 0
      vertex 19.0678 -3.16777 0
      vertex 19.6097 -2.35671 0
    endloop
  endfacet
  facet normal 0 0 -1
    outer loop
      vertex 18.2567 -3.7097 0
      vertex 19.95 -5.98993 0
      vertex 18.9378 -6.4406 0
    endloop
  endfacet
  facet normal 0 0 -1
    outer loop
      vertex 19.95 -5.98993 0
      vertex 18.2567 -3.7097 0
      vertex 19.0678 -3.16777 0
    endloop
  endfacet
  facet normal 0 0 -1
    outer loop
      vertex 17.854 -6.67097 0
      vertex 18.2567 -3.7097 0
      vertex 18.9378 -6.4406 0
    endloop
  endfacet
  facet normal 0 0 -1
    outer loop
      vertex 17.854 -6.67097 0
      vertex 17.3 -3.9 0
      vertex 18.2567 -3.7097 0
    endloop
  endfacet
  facet normal 0 0 -1
    outer loop
      vertex 16.746 -6.67097 0
      vertex 17.3 -3.9 0
      vertex 17.854 -6.67097 0
    endloop
  endfacet
  facet normal 0 0 -1
    outer loop
      vertex 16.746 -6.67097 0
      vertex 16.3433 -3.7097 0
      vertex 17.3 -3.9 0
    endloop
  endfacet
  facet normal 0 0 -1
    outer loop
      vertex 15.6622 -6.4406 0
      vertex 16.3433 -3.7097 0
      vertex 16.746 -6.67097 0
    endloop
  endfacet
  facet normal 0 0 -1
    outer loop
      vertex 14.65 -5.98993 0
      vertex 16.3433 -3.7097 0
      vertex 15.6622 -6.4406 0
    endloop
  endfacet
  facet normal -0 0 -1
    outer loop
      vertex 16.3433 -3.7097 0
      vertex 14.65 -5.98993 0
      vertex 15.5322 -3.16777 0
    endloop
  endfacet
  facet normal 0 0 -1
    outer loop
      vertex 13.7536 -5.33867 0
      vertex 15.5322 -3.16777 0
      vertex 14.65 -5.98993 0
    endloop
  endfacet
  facet normal 0 0 -1
    outer loop
      vertex 13.0122 -4.51526 0
      vertex 15.5322 -3.16777 0
      vertex 13.7536 -5.33867 0
    endloop
  endfacet
  facet normal 0 0 -1
    outer loop
      vertex 19.8 -1.4 0
      vertex 22.6 -1.4 0
      vertex 22.4842 -2.50193 0
    endloop
  endfacet
  facet normal 0 0 -1
    outer loop
      vertex 22.6 -1.4 0
      vertex 19.8 -1.4 0
      vertex 22.4842 -0.298067 0
    endloop
  endfacet
  facet normal 0 0 -1
    outer loop
      vertex 19.6097 -2.35671 0
      vertex 22.4842 -2.50193 0
      vertex 22.1418 -3.5557 0
    endloop
  endfacet
  facet normal 0 0 -1
    outer loop
      vertex 19.6097 -2.35671 0
      vertex 22.1418 -3.5557 0
      vertex 21.5878 -4.51526 0
    endloop
  endfacet
  facet normal 0 0 -1
    outer loop
      vertex 19.6097 -2.35671 0
      vertex 21.5878 -4.51526 0
      vertex 20.8464 -5.33867 0
    endloop
  endfacet
  facet normal 0 0 -1
    outer loop
      vertex 19.0678 -3.16777 0
      vertex 20.8464 -5.33867 0
      vertex 19.95 -5.98993 0
    endloop
  endfacet
  facet normal 0 0 -1
    outer loop
      vertex 19.6097 -0.443291 0
      vertex 22.4842 -0.298067 0
      vertex 19.8 -1.4 0
    endloop
  endfacet
  facet normal -0 0 -1
    outer loop
      vertex 22.4842 -0.298067 0
      vertex 19.6097 -0.443291 0
      vertex 22.3873 0 0
    endloop
  endfacet
  facet normal -0 0 -1
    outer loop
      vertex 22.3873 0 0
      vertex 19.6097 -0.443291 0
      vertex 19.3135 0 0
    endloop
  endfacet
  facet normal -0 0 -1
    outer loop
      vertex 15.5322 -3.16777 0
      vertex 13.0122 -4.51526 0
      vertex 14.9903 -2.35671 0
    endloop
  endfacet
  facet normal 0 0 -1
    outer loop
      vertex 12.4582 -3.5557 0
      vertex 14.9903 -2.35671 0
      vertex 13.0122 -4.51526 0
    endloop
  endfacet
  facet normal 0 0 -1
    outer loop
      vertex 12.1158 -2.50193 0
      vertex 14.9903 -2.35671 0
      vertex 12.4582 -3.5557 0
    endloop
  endfacet
  facet normal -0 0 -1
    outer loop
      vertex 14.9903 -2.35671 0
      vertex 12.1158 -2.50193 0
      vertex 14.8 -1.4 0
    endloop
  endfacet
  facet normal 0 0 -1
    outer loop
      vertex 12 -1.4 0
      vertex 14.8 -1.4 0
      vertex 12.1158 -2.50193 0
    endloop
  endfacet
  facet normal 0 -0 -1
    outer loop
      vertex 12.1158 -0.298067 0
      vertex 14.8 -1.4 0
      vertex 12 -1.4 0
    endloop
  endfacet
  facet normal 0 0 -1
    outer loop
      vertex 14.8 -1.4 0
      vertex 12.1158 -0.298067 0
      vertex 14.9903 -0.443291 0
    endloop
  endfacet
  facet normal 0 -0 -1
    outer loop
      vertex 12.2127 0 0
      vertex 14.9903 -0.443291 0
      vertex 12.1158 -0.298067 0
    endloop
  endfacet
  facet normal 0 0 -1
    outer loop
      vertex 14.9903 -0.443291 0
      vertex 12.2127 0 0
      vertex 15.2865 0 0
    endloop
  endfacet
  facet normal -0.994522 0.104528 0
    outer loop
      vertex 12 -1.4 0
      vertex 12.1158 -0.298067 6.61842e-17
      vertex 12.1158 -0.298067 0
    endloop
  endfacet
  facet normal -0.994522 0.104528 0
    outer loop
      vertex 12.1158 -0.298067 6.61842e-17
      vertex 12 -1.4 0
      vertex 12 -1.4 3.10862e-16
    endloop
  endfacet
  facet normal -0.951056 0.309019 0
    outer loop
      vertex 12.2127 0 0
      vertex 12.1158 -0.298067 0
      vertex 12.1158 -0.298067 6.61842e-17
    endloop
  endfacet
  facet normal 0.406737 -0.913545 0
    outer loop
      vertex 18.9378 -6.4406 0
      vertex 19.95 -5.98993 12
      vertex 18.9378 -6.4406 12
    endloop
  endfacet
  facet normal 0.406737 -0.913545 0
    outer loop
      vertex 19.95 -5.98993 12
      vertex 18.9378 -6.4406 0
      vertex 19.95 -5.98993 0
    endloop
  endfacet
  facet normal 0.951057 0.309016 0
    outer loop
      vertex 22.4842 -0.298067 12
      vertex 22.3873 0 0
      vertex 22.3873 0 12
    endloop
  endfacet
  facet normal 0.951057 0.309016 0
    outer loop
      vertex 22.3873 0 0
      vertex 22.4842 -0.298067 12
      vertex 22.4842 -0.298067 0
    endloop
  endfacet
  facet normal -0.994522 -0.104528 0
    outer loop
      vertex 12.1158 -2.50193 0
      vertex 12 -1.4 3.10862e-16
      vertex 12 -1.4 0
    endloop
  endfacet
  facet normal -0.994522 -0.104528 0
    outer loop
      vertex 12 -1.4 3.10862e-16
      vertex 12.1158 -2.50193 0
      vertex 12.1158 -2.50193 5.5554e-16
    endloop
  endfacet
  facet normal 0.951057 -0.309016 0
    outer loop
      vertex 22.1418 -3.5557 12
      vertex 22.4842 -2.50193 0
      vertex 22.4842 -2.50193 12
    endloop
  endfacet
  facet normal 0.951057 -0.309016 0
    outer loop
      vertex 22.4842 -2.50193 0
      vertex 22.1418 -3.5557 12
      vertex 22.1418 -3.5557 0
    endloop
  endfacet
  facet normal 0 -1 0
    outer loop
      vertex 16.746 -6.67097 0
      vertex 17.854 -6.67097 12
      vertex 16.746 -6.67097 12
    endloop
  endfacet
  facet normal 0 -1 -0
    outer loop
      vertex 17.854 -6.67097 12
      vertex 16.746 -6.67097 0
      vertex 17.854 -6.67097 0
    endloop
  endfacet
  facet normal 0.743145 -0.669131 0
    outer loop
      vertex 20.8464 -5.33867 12
      vertex 21.5878 -4.51526 0
      vertex 21.5878 -4.51526 12
    endloop
  endfacet
  facet normal 0.743145 -0.669131 0
    outer loop
      vertex 21.5878 -4.51526 0
      vertex 20.8464 -5.33867 12
      vertex 20.8464 -5.33867 0
    endloop
  endfacet
  facet normal 0.994522 -0.104529 0
    outer loop
      vertex 22.4842 -2.50193 12
      vertex 22.6 -1.4 0
      vertex 22.6 -1.4 12
    endloop
  endfacet
  facet normal 0.994522 -0.104529 0
    outer loop
      vertex 22.6 -1.4 0
      vertex 22.4842 -2.50193 12
      vertex 22.4842 -2.50193 0
    endloop
  endfacet
  facet normal -0 0 1
    outer loop
      vertex 14 0 12
      vertex 14.9903 -0.443291 12
      vertex 15.2865 0 12
    endloop
  endfacet
  facet normal 0 0 1
    outer loop
      vertex 14 0 12
      vertex 14.8 -1.4 12
      vertex 14.9903 -0.443291 12
    endloop
  endfacet
  facet normal 0 0 1
    outer loop
      vertex 14.8 -1.4 12
      vertex 14 -2.8 12
      vertex 14.9903 -2.35671 12
    endloop
  endfacet
  facet normal 0 0 1
    outer loop
      vertex 13.7536 -5.33867 12
      vertex 14.9903 -2.35671 12
      vertex 14 -2.8 12
    endloop
  endfacet
  facet normal 0 0 1
    outer loop
      vertex 14.9903 -2.35671 12
      vertex 13.7536 -5.33867 12
      vertex 14.65 -5.98993 12
    endloop
  endfacet
  facet normal 0 0 1
    outer loop
      vertex 14 -2.8 12
      vertex 13.0122 -4.51526 12
      vertex 13.7536 -5.33867 12
    endloop
  endfacet
  facet normal 0 0 1
    outer loop
      vertex 14 -2.8 12
      vertex 12.4582 -3.5557 12
      vertex 13.0122 -4.51526 12
    endloop
  endfacet
  facet normal 0 -0 1
    outer loop
      vertex 12.4582 -3.5557 12
      vertex 14 -2.8 12
      vertex 12.2127 -2.8 12
    endloop
  endfacet
  facet normal 0 0 1
    outer loop
      vertex 19.8 -1.4 12
      vertex 22.6 -1.4 12
      vertex 22.4842 -0.298067 12
    endloop
  endfacet
  facet normal 0 0 1
    outer loop
      vertex 19.6097 -0.443291 12
      vertex 22.4842 -0.298067 12
      vertex 22.3873 0 12
    endloop
  endfacet
  facet normal 0 0 1
    outer loop
      vertex 22.6 -1.4 12
      vertex 19.8 -1.4 12
      vertex 22.4842 -2.50193 12
    endloop
  endfacet
  facet normal -0 0 1
    outer loop
      vertex 19.6097 -2.35671 12
      vertex 22.4842 -2.50193 12
      vertex 19.8 -1.4 12
    endloop
  endfacet
  facet normal 0 0 1
    outer loop
      vertex 22.4842 -2.50193 12
      vertex 19.6097 -2.35671 12
      vertex 22.1418 -3.5557 12
    endloop
  endfacet
  facet normal -0 0 1
    outer loop
      vertex 19.0678 -3.16777 12
      vertex 21.5878 -4.51526 12
      vertex 19.6097 -2.35671 12
    endloop
  endfacet
  facet normal 0 0 1
    outer loop
      vertex 22.1418 -3.5557 12
      vertex 19.6097 -2.35671 12
      vertex 21.5878 -4.51526 12
    endloop
  endfacet
  facet normal 0 0 1
    outer loop
      vertex 22.4842 -0.298067 12
      vertex 19.6097 -0.443291 12
      vertex 19.8 -1.4 12
    endloop
  endfacet
  facet normal 0 -0 1
    outer loop
      vertex 19.6097 -0.443291 12
      vertex 22.3873 0 12
      vertex 19.3135 0 12
    endloop
  endfacet
  facet normal 0 0 1
    outer loop
      vertex 21.5878 -4.51526 12
      vertex 19.0678 -3.16777 12
      vertex 20.8464 -5.33867 12
    endloop
  endfacet
  facet normal 0 0 1
    outer loop
      vertex 20.8464 -5.33867 12
      vertex 19.0678 -3.16777 12
      vertex 19.95 -5.98993 12
    endloop
  endfacet
  facet normal -0 0 1
    outer loop
      vertex 18.2567 -3.7097 12
      vertex 19.95 -5.98993 12
      vertex 19.0678 -3.16777 12
    endloop
  endfacet
  facet normal 0 0 1
    outer loop
      vertex 19.95 -5.98993 12
      vertex 18.2567 -3.7097 12
      vertex 18.9378 -6.4406 12
    endloop
  endfacet
  facet normal 0 0 1
    outer loop
      vertex 18.2567 -3.7097 12
      vertex 17.854 -6.67097 12
      vertex 18.9378 -6.4406 12
    endloop
  endfacet
  facet normal -0 0 1
    outer loop
      vertex 17.3 -3.9 12
      vertex 17.854 -6.67097 12
      vertex 18.2567 -3.7097 12
    endloop
  endfacet
  facet normal 0 0 1
    outer loop
      vertex 17.3 -3.9 12
      vertex 16.746 -6.67097 12
      vertex 17.854 -6.67097 12
    endloop
  endfacet
  facet normal 0 0 1
    outer loop
      vertex 16.3433 -3.7097 12
      vertex 16.746 -6.67097 12
      vertex 17.3 -3.9 12
    endloop
  endfacet
  facet normal 0 0 1
    outer loop
      vertex 16.3433 -3.7097 12
      vertex 15.6622 -6.4406 12
      vertex 16.746 -6.67097 12
    endloop
  endfacet
  facet normal 0 0 1
    outer loop
      vertex 14.65 -5.98993 12
      vertex 16.3433 -3.7097 12
      vertex 15.5322 -3.16777 12
    endloop
  endfacet
  facet normal 0 0 1
    outer loop
      vertex 14.65 -5.98993 12
      vertex 15.5322 -3.16777 12
      vertex 14.9903 -2.35671 12
    endloop
  endfacet
  facet normal 0 0 1
    outer loop
      vertex 14 -2.8 12
      vertex 14.8 -1.4 12
      vertex 14 0 12
    endloop
  endfacet
  facet normal 0 0 1
    outer loop
      vertex 16.3433 -3.7097 12
      vertex 14.65 -5.98993 12
      vertex 15.6622 -6.4406 12
    endloop
  endfacet
  facet normal -0.951056 -0.309018 0
    outer loop
      vertex 12.1158 -2.50193 0
      vertex 12.2127 -2.8 6.21725e-16
      vertex 12.1158 -2.50193 5.5554e-16
    endloop
  endfacet
  facet normal -0.951056 -0.309017 0
    outer loop
      vertex 12.4582 -3.5557 0
      vertex 12.2127 -2.8 1.00955
      vertex 12.2127 -2.8 6.21725e-16
    endloop
  endfacet
  facet normal -0.951056 -0.309017 1.67986e-07
    outer loop
      vertex 12.2127 -2.8 1.00955
      vertex 12.4582 -3.5557 0
      vertex 12.396 -3.36436 1.353
    endloop
  endfacet
  facet normal -3.12782e-09 -1.01629e-09 1
    outer loop
      vertex 12.4582 -3.5557 0
      vertex 12.2127 -2.8 6.21725e-16
      vertex 12.1158 -2.50193 0
    endloop
  endfacet
  facet normal -0.951059 -0.30901 -9.12027e-07
    outer loop
      vertex 12.396 -3.36436 1.353
      vertex 12.4582 -3.5557 0
      vertex 12.4196 -3.43675 1.41774
    endloop
  endfacet
  facet normal -0.951055 -0.30902 0
    outer loop
      vertex 12.4196 -3.43675 1.41774
      vertex 12.4582 -3.5557 0
      vertex 12.4582 -3.5557 1.52412
    endloop
  endfacet
  facet normal -0.951056 -0.309017 -1.67986e-07
    outer loop
      vertex 12.4582 -3.5557 12
      vertex 12.2127 -2.8 10.9905
      vertex 12.396 -3.36436 10.647
    endloop
  endfacet
  facet normal -0.951059 -0.30901 9.12026e-07
    outer loop
      vertex 12.4582 -3.5557 12
      vertex 12.396 -3.36436 10.647
      vertex 12.4196 -3.43675 10.5823
    endloop
  endfacet
  facet normal -0.951055 -0.30902 -0
    outer loop
      vertex 12.4582 -3.5557 12
      vertex 12.4196 -3.43675 10.5823
      vertex 12.4582 -3.5557 10.4759
    endloop
  endfacet
  facet normal -0.951056 -0.309017 0
    outer loop
      vertex 12.2127 -2.8 10.9905
      vertex 12.4582 -3.5557 12
      vertex 12.2127 -2.8 12
    endloop
  endfacet
  facet normal 0 0 0
    outer loop
      vertex 12.2127 -2.8 10.9905
      vertex 12.2127 -2.8 12
      vertex 12.2127 -2.8 6.21725e-16
    endloop
  endfacet
  facet normal 0 0 0
    outer loop
      vertex 12.2127 -2.8 6.21725e-16
      vertex 12.2127 -2.8 1.00955
      vertex 12.2127 -2.8 10.9905
    endloop
  endfacet
  facet normal 0.866025 -0.5 0
    outer loop
      vertex 21.5878 -4.51526 12
      vertex 22.1418 -3.5557 0
      vertex 22.1418 -3.5557 12
    endloop
  endfacet
  facet normal 0.866025 -0.5 0
    outer loop
      vertex 22.1418 -3.5557 0
      vertex 21.5878 -4.51526 12
      vertex 21.5878 -4.51526 0
    endloop
  endfacet
  facet normal -0.406737 -0.913545 0
    outer loop
      vertex 14.65 -5.98993 0
      vertex 15.6622 -6.4406 12
      vertex 14.65 -5.98993 12
    endloop
  endfacet
  facet normal -0.406737 -0.913545 -0
    outer loop
      vertex 15.6622 -6.4406 12
      vertex 14.65 -5.98993 0
      vertex 15.6622 -6.4406 0
    endloop
  endfacet
  facet normal 0.207911 -0.978148 0
    outer loop
      vertex 17.854 -6.67097 0
      vertex 18.9378 -6.4406 12
      vertex 17.854 -6.67097 12
    endloop
  endfacet
  facet normal 0.207911 -0.978148 0
    outer loop
      vertex 18.9378 -6.4406 12
      vertex 17.854 -6.67097 0
      vertex 18.9378 -6.4406 0
    endloop
  endfacet
  facet normal -0.866025 -0.5 -0
    outer loop
      vertex 13.0122 -4.51526 12
      vertex 12.4582 -3.5557 10.4759
      vertex 13.0122 -4.51526 9.19822
    endloop
  endfacet
  facet normal -0.866025 -0.5 0
    outer loop
      vertex 12.4582 -3.5557 10.4759
      vertex 13.0122 -4.51526 12
      vertex 12.4582 -3.5557 12
    endloop
  endfacet
  facet normal -0.866025 -0.5 0
    outer loop
      vertex 13.0122 -4.51526 0
      vertex 12.4582 -3.5557 1.52412
      vertex 12.4582 -3.5557 0
    endloop
  endfacet
  facet normal -0.866025 -0.5 0
    outer loop
      vertex 12.4582 -3.5557 1.52412
      vertex 13.0122 -4.51526 0
      vertex 13.0122 -4.51526 2.80178
    endloop
  endfacet
  facet normal -0.587785 -0.809017 0
    outer loop
      vertex 13.7536 -5.33867 0
      vertex 14.65 -5.98993 12
      vertex 13.7536 -5.33867 12
    endloop
  endfacet
  facet normal -0.587785 -0.809017 -0
    outer loop
      vertex 14.65 -5.98993 12
      vertex 13.7536 -5.33867 0
      vertex 14.65 -5.98993 0
    endloop
  endfacet
  facet normal -0.743145 -0.669131 0
    outer loop
      vertex 13.7536 -5.33867 0
      vertex 13.0122 -4.51526 2.80178
      vertex 13.0122 -4.51526 0
    endloop
  endfacet
  facet normal -0.743145 -0.66913 -2.06247e-07
    outer loop
      vertex 13.0122 -4.51526 2.80178
      vertex 13.7536 -5.33867 0
      vertex 13.0421 -4.5485 2.86464
    endloop
  endfacet
  facet normal -0.743145 -0.669131 -5.292e-08
    outer loop
      vertex 13.0421 -4.5485 2.86464
      vertex 13.7536 -5.33867 0
      vertex 13.4049 -4.95144 4.19738
    endloop
  endfacet
  facet normal -0.743146 -0.66913 -9.99422e-08
    outer loop
      vertex 13.7536 -5.33867 0
      vertex 13.5828 -5.149 5.75581
      vertex 13.4638 -5.01679 4.41352
    endloop
  endfacet
  facet normal -0.743146 -0.66913 -9.75912e-08
    outer loop
      vertex 13.5828 -5.149 5.75581
      vertex 13.7536 -5.33867 0
      vertex 13.6045 -5.17306 6
    endloop
  endfacet
  facet normal -0.743142 -0.669134 4.13013e-07
    outer loop
      vertex 13.4049 -4.95144 4.19738
      vertex 13.7536 -5.33867 0
      vertex 13.4638 -5.01679 4.41352
    endloop
  endfacet
  facet normal -0.743145 -0.66913 2.06246e-07
    outer loop
      vertex 13.7536 -5.33867 12
      vertex 13.0122 -4.51526 9.19822
      vertex 13.0421 -4.5485 9.13536
    endloop
  endfacet
  facet normal -0.743145 -0.669131 5.292e-08
    outer loop
      vertex 13.7536 -5.33867 12
      vertex 13.0421 -4.5485 9.13536
      vertex 13.4049 -4.95144 7.80262
    endloop
  endfacet
  facet normal -0.743142 -0.669134 -4.13013e-07
    outer loop
      vertex 13.7536 -5.33867 12
      vertex 13.4049 -4.95144 7.80262
      vertex 13.4638 -5.01679 7.58648
    endloop
  endfacet
  facet normal -0.743146 -0.66913 9.75912e-08
    outer loop
      vertex 13.7536 -5.33867 12
      vertex 13.5828 -5.149 6.24419
      vertex 13.6045 -5.17306 6
    endloop
  endfacet
  facet normal -0.743145 -0.669131 0
    outer loop
      vertex 13.0122 -4.51526 9.19822
      vertex 13.7536 -5.33867 12
      vertex 13.0122 -4.51526 12
    endloop
  endfacet
  facet normal -0.743146 -0.66913 9.99422e-08
    outer loop
      vertex 13.5828 -5.149 6.24419
      vertex 13.7536 -5.33867 12
      vertex 13.4638 -5.01679 7.58648
    endloop
  endfacet
  facet normal -0.743144 -0.669132 -0
    outer loop
      vertex 13.7536 -5.33867 12
      vertex 13.6045 -5.17306 6
      vertex 13.7536 -5.33867 0
    endloop
  endfacet
  facet normal 0.587786 -0.809017 0
    outer loop
      vertex 19.95 -5.98993 0
      vertex 20.8464 -5.33867 12
      vertex 19.95 -5.98993 12
    endloop
  endfacet
  facet normal 0.587786 -0.809017 0
    outer loop
      vertex 20.8464 -5.33867 12
      vertex 19.95 -5.98993 0
      vertex 20.8464 -5.33867 0
    endloop
  endfacet
  facet normal -0.207911 -0.978148 0
    outer loop
      vertex 15.6622 -6.4406 0
      vertex 16.746 -6.67097 12
      vertex 15.6622 -6.4406 12
    endloop
  endfacet
  facet normal -0.207911 -0.978148 -0
    outer loop
      vertex 16.746 -6.67097 12
      vertex 15.6622 -6.4406 0
      vertex 16.746 -6.67097 0
    endloop
  endfacet
  facet normal 0 1 -0
    outer loop
      vertex 15.2865 0 0
      vertex 14 0 12
      vertex 15.2865 0 12
    endloop
  endfacet
  facet normal 0 1 0
    outer loop
      vertex 14 0 12
      vertex 4.9 0 11.9732
      vertex 4.9 0 12
    endloop
  endfacet
  facet normal 0 1 0
    outer loop
      vertex 5.29079 0 7.87003
      vertex 4.38781 0 11.9732
      vertex 4.9 0 11.9732
    endloop
  endfacet
  facet normal 0 1 0
    outer loop
      vertex 14 0 12
      vertex 7.13613 0 7.64597
      vertex 4.9 0 11.9732
    endloop
  endfacet
  facet normal -0 1 -0
    outer loop
      vertex 6.24107 0 7.98542
      vertex 4.9 0 11.9732
      vertex 7.13613 0 7.64597
    endloop
  endfacet
  facet normal 0 1 0
    outer loop
      vertex 4.38781 0 11.9732
      vertex 5.29079 0 7.87003
      vertex 3.38582 0 11.7602
    endloop
  endfacet
  facet normal 0 1 0
    outer loop
      vertex 3.38582 0 11.7602
      vertex 5.29079 0 7.87003
      vertex 2.45 0 11.3435
    endloop
  endfacet
  facet normal 0 1 -0
    outer loop
      vertex 4.50298 0 7.32625
      vertex 2.45 0 11.3435
      vertex 5.29079 0 7.87003
    endloop
  endfacet
  facet normal 0 1 0
    outer loop
      vertex 2.45 0 11.3435
      vertex 4.50298 0 7.32625
      vertex 1.62126 0 10.7414
    endloop
  endfacet
  facet normal 0 1 0
    outer loop
      vertex 1.62126 0 10.7414
      vertex 4.50298 0 7.32625
      vertex 0.935816 0 9.98015
    endloop
  endfacet
  facet normal 0 1 -0
    outer loop
      vertex 5.29079 0 7.87003
      vertex 4.9 0 11.9732
      vertex 6.24107 0 7.98542
    endloop
  endfacet
  facet normal 0 1 0
    outer loop
      vertex 14 0 12
      vertex 7.77091 0 6.92945
      vertex 7.13613 0 7.64597
    endloop
  endfacet
  facet normal 0 1 0
    outer loop
      vertex 14 0 12
      vertex 8 0 6
      vertex 7.77091 0 6.92945
    endloop
  endfacet
  facet normal 0 1 0
    outer loop
      vertex 14 0 12
      vertex 15.2865 0 0
      vertex 8 0 6
    endloop
  endfacet
  facet normal 0 1 -0
    outer loop
      vertex 12.2127 0 0
      vertex 8 0 6
      vertex 15.2865 0 0
    endloop
  endfacet
  facet normal 0 1 0
    outer loop
      vertex 4.50298 0 4.67375
      vertex 0.423627 0 2.90699
      vertex 0.107077 0 3.88123
    endloop
  endfacet
  facet normal 0 1 0
    outer loop
      vertex 5.29079 0 4.12997
      vertex 0.935816 0 2.01985
      vertex 0.423627 0 2.90699
    endloop
  endfacet
  facet normal 0 1 0
    outer loop
      vertex 5.29079 0 4.12997
      vertex 1.62126 0 1.25859
      vertex 0.935816 0 2.01985
    endloop
  endfacet
  facet normal 0 1 0
    outer loop
      vertex 4.9 0 0.0268421
      vertex 6.24107 0 4.01458
      vertex 7.13613 0 4.35403
    endloop
  endfacet
  facet normal 0 1 0
    outer loop
      vertex 5.29079 0 4.12997
      vertex 2.45 0 0.656475
      vertex 1.62126 0 1.25859
    endloop
  endfacet
  facet normal 0 1 0
    outer loop
      vertex 5.29079 0 4.12997
      vertex 3.38582 0 0.239822
      vertex 2.45 0 0.656475
    endloop
  endfacet
  facet normal 0 1 0
    outer loop
      vertex 7.77091 0 5.07055
      vertex 12.2127 0 0
      vertex 7.13613 0 4.35403
    endloop
  endfacet
  facet normal 0 1 0
    outer loop
      vertex 5.29079 0 4.12997
      vertex 4.9 0 0.0268421
      vertex 4.38781 0 0.0268421
    endloop
  endfacet
  facet normal 0 1 0
    outer loop
      vertex 8 0 6
      vertex 12.2127 0 0
      vertex 7.77091 0 5.07055
    endloop
  endfacet
  facet normal 0 1 0
    outer loop
      vertex 7.13613 0 4.35403
      vertex 12.2127 0 0
      vertex 4.9 0 0.0268421
    endloop
  endfacet
  facet normal 0 1 0
    outer loop
      vertex 4.9 0 0.0268421
      vertex 12.2127 0 0
      vertex 4.9 0 0
    endloop
  endfacet
  facet normal 0 1 0
    outer loop
      vertex 0.935816 0 9.98015
      vertex 4.50298 0 7.32625
      vertex 0.423627 0 9.09301
    endloop
  endfacet
  facet normal 0 1 0
    outer loop
      vertex 0.423627 0 9.09301
      vertex 4.50298 0 7.32625
      vertex 0.107077 0 8.11877
    endloop
  endfacet
  facet normal 0 1 -0
    outer loop
      vertex 4.05812 0 6.47863
      vertex 0.107077 0 8.11877
      vertex 4.50298 0 7.32625
    endloop
  endfacet
  facet normal 0 1 0
    outer loop
      vertex 0.107077 0 8.11877
      vertex 4.05812 0 6.47863
      vertex 0 0 7.1
    endloop
  endfacet
  facet normal 0 1 -0
    outer loop
      vertex 4.05812 0 5.52137
      vertex 0 0 7.1
      vertex 4.05812 0 6.47863
    endloop
  endfacet
  facet normal 0 1 0
    outer loop
      vertex 4.05812 0 5.52137
      vertex 0 0 4.9
      vertex 0 0 7.1
    endloop
  endfacet
  facet normal 0 1 0
    outer loop
      vertex 0.107077 0 3.88123
      vertex 4.05812 0 5.52137
      vertex 4.50298 0 4.67375
    endloop
  endfacet
  facet normal 0 1 0
    outer loop
      vertex 0.423627 0 2.90699
      vertex 4.50298 0 4.67375
      vertex 5.29079 0 4.12997
    endloop
  endfacet
  facet normal 0 1 0
    outer loop
      vertex 4.05812 0 5.52137
      vertex 0.107077 0 3.88123
      vertex 0 0 4.9
    endloop
  endfacet
  facet normal 0 1 0
    outer loop
      vertex 4.9 0 0.0268421
      vertex 5.29079 0 4.12997
      vertex 6.24107 0 4.01458
    endloop
  endfacet
  facet normal 0 1 0
    outer loop
      vertex 5.29079 0 4.12997
      vertex 4.38781 0 0.0268421
      vertex 3.38582 0 0.239822
    endloop
  endfacet
  facet normal 0 1 -0
    outer loop
      vertex 22.3873 0 0
      vertex 19.3135 0 12
      vertex 22.3873 0 12
    endloop
  endfacet
  facet normal 0 1 0
    outer loop
      vertex 19.3135 0 12
      vertex 22.3873 0 0
      vertex 19.3135 0 0
    endloop
  endfacet
  facet normal -0.970942 0 -0.239317
    outer loop
      vertex 8 -2.8 6
      vertex 7.77091 0 6.92945
      vertex 8 0 6
    endloop
  endfacet
  facet normal -0.970942 -0 -0.239317
    outer loop
      vertex 7.77091 0 6.92945
      vertex 8 -2.8 6
      vertex 7.77091 -2.8 6.92945
    endloop
  endfacet
  facet normal -0.354605 0 0.935016
    outer loop
      vertex 6.24107 0 4.01458
      vertex 7.13613 -2.8 4.35403
      vertex 7.13613 0 4.35403
    endloop
  endfacet
  facet normal -0.354605 0 0.935016
    outer loop
      vertex 7.13613 -2.8 4.35403
      vertex 6.24107 0 4.01458
      vertex 6.24107 -2.8 4.01458
    endloop
  endfacet
  facet normal -0.748511 0 -0.663122
    outer loop
      vertex 7.77091 -2.8 6.92945
      vertex 7.13613 0 7.64597
      vertex 7.77091 0 6.92945
    endloop
  endfacet
  facet normal -0.748511 -0 -0.663122
    outer loop
      vertex 7.13613 0 7.64597
      vertex 7.77091 -2.8 6.92945
      vertex 7.13613 -2.8 7.64597
    endloop
  endfacet
  facet normal 1 -0 0
    outer loop
      vertex 4.05812 -2.8 6.47863
      vertex 4.05812 0 5.52137
      vertex 4.05812 0 6.47863
    endloop
  endfacet
  facet normal 1 0 0
    outer loop
      vertex 4.05812 0 5.52137
      vertex 4.05812 -2.8 6.47863
      vertex 4.05812 -2.8 5.52137
    endloop
  endfacet
  facet normal 0.120536 0 -0.992709
    outer loop
      vertex 5.29079 -2.8 7.87003
      vertex 6.24107 0 7.98542
      vertex 6.24107 -2.8 7.98542
    endloop
  endfacet
  facet normal 0.120536 0 -0.992709
    outer loop
      vertex 6.24107 0 7.98542
      vertex 5.29079 -2.8 7.87003
      vertex 5.29079 0 7.87003
    endloop
  endfacet
  facet normal -0.354605 0 -0.935016
    outer loop
      vertex 6.24107 -2.8 7.98542
      vertex 7.13613 0 7.64597
      vertex 7.13613 -2.8 7.64597
    endloop
  endfacet
  facet normal -0.354605 0 -0.935016
    outer loop
      vertex 7.13613 0 7.64597
      vertex 6.24107 -2.8 7.98542
      vertex 6.24107 0 7.98542
    endloop
  endfacet
  facet normal 0.568065 0 -0.822984
    outer loop
      vertex 4.50298 -2.8 7.32625
      vertex 5.29079 0 7.87003
      vertex 5.29079 -2.8 7.87003
    endloop
  endfacet
  facet normal 0.568065 0 -0.822984
    outer loop
      vertex 5.29079 0 7.87003
      vertex 4.50298 -2.8 7.32625
      vertex 4.50298 0 7.32625
    endloop
  endfacet
  facet normal 0.885456 0 -0.464723
    outer loop
      vertex 4.50298 -2.8 7.32625
      vertex 4.05812 0 6.47863
      vertex 4.50298 0 7.32625
    endloop
  endfacet
  facet normal 0.885456 0 -0.464723
    outer loop
      vertex 4.05812 0 6.47863
      vertex 4.50298 -2.8 7.32625
      vertex 4.05812 -2.8 6.47863
    endloop
  endfacet
  facet normal 0.120536 0 0.992709
    outer loop
      vertex 5.29079 0 4.12997
      vertex 6.24107 -2.8 4.01458
      vertex 6.24107 0 4.01458
    endloop
  endfacet
  facet normal 0.120536 0 0.992709
    outer loop
      vertex 6.24107 -2.8 4.01458
      vertex 5.29079 0 4.12997
      vertex 5.29079 -2.8 4.12997
    endloop
  endfacet
  facet normal 0.568065 0 0.822984
    outer loop
      vertex 4.50298 0 4.67375
      vertex 5.29079 -2.8 4.12997
      vertex 5.29079 0 4.12997
    endloop
  endfacet
  facet normal 0.568065 0 0.822984
    outer loop
      vertex 5.29079 -2.8 4.12997
      vertex 4.50298 0 4.67375
      vertex 4.50298 -2.8 4.67375
    endloop
  endfacet
  facet normal 0.885456 -0 0.464723
    outer loop
      vertex 4.05812 -2.8 5.52137
      vertex 4.50298 0 4.67375
      vertex 4.05812 0 5.52137
    endloop
  endfacet
  facet normal 0.885456 0 0.464723
    outer loop
      vertex 4.50298 0 4.67375
      vertex 4.05812 -2.8 5.52137
      vertex 4.50298 -2.8 4.67375
    endloop
  endfacet
  facet normal -0.748511 0 0.663122
    outer loop
      vertex 7.13613 -2.8 4.35403
      vertex 7.77091 0 5.07055
      vertex 7.13613 0 4.35403
    endloop
  endfacet
  facet normal -0.748511 0 0.663122
    outer loop
      vertex 7.77091 0 5.07055
      vertex 7.13613 -2.8 4.35403
      vertex 7.77091 -2.8 5.07055
    endloop
  endfacet
  facet normal -0.970942 0 0.239316
    outer loop
      vertex 7.77091 -2.8 5.07055
      vertex 8 0 6
      vertex 7.77091 0 5.07055
    endloop
  endfacet
  facet normal -0.970942 0 0.239316
    outer loop
      vertex 8 0 6
      vertex 7.77091 -2.8 5.07055
      vertex 8 -2.8 6
    endloop
  endfacet
  facet normal -0.981135 0.163523 -0.103122
    outer loop
      vertex 14 -2.8 6
      vertex 13.6045 -5.17306 6
      vertex 13.5828 -5.149 6.24419
    endloop
  endfacet
  facet normal -0.981135 0.163522 -0.103122
    outer loop
      vertex 14 -2.8 6
      vertex 13.4638 -5.01679 7.58648
      vertex 13.8252 -2.8 7.66329
    endloop
  endfacet
  facet normal -0.981135 0.163523 -0.103121
    outer loop
      vertex 13.4638 -5.01679 7.58648
      vertex 14 -2.8 6
      vertex 13.5828 -5.149 6.24419
    endloop
  endfacet
  facet normal -0.854368 0.163523 0.49327
    outer loop
      vertex 12.4196 -3.43675 1.41774
      vertex 13.3084 -2.8 2.74611
      vertex 12.4721 -2.8 1.29772
    endloop
  endfacet
  facet normal -0.854368 0.163521 0.493271
    outer loop
      vertex 12.4582 -3.5557 1.52412
      vertex 13.3084 -2.8 2.74611
      vertex 12.4196 -3.43675 1.41774
    endloop
  endfacet
  facet normal -0.854368 0.163523 0.49327
    outer loop
      vertex 13.0122 -4.51526 2.80178
      vertex 13.3084 -2.8 2.74611
      vertex 12.4582 -3.5557 1.52412
    endloop
  endfacet
  facet normal -0.854369 0.163523 0.493269
    outer loop
      vertex 13.3084 -2.8 2.74611
      vertex 13.0122 -4.51526 2.80178
      vertex 13.0421 -4.5485 2.86464
    endloop
  endfacet
  facet normal -0.938255 0.163523 0.304857
    outer loop
      vertex 13.0421 -4.5485 2.86464
      vertex 13.8252 -2.8 4.33671
      vertex 13.3084 -2.8 2.74611
    endloop
  endfacet
  facet normal -0.938255 0.163522 0.304858
    outer loop
      vertex 13.8252 -2.8 4.33671
      vertex 13.0421 -4.5485 2.86464
      vertex 13.4049 -4.95144 4.19738
    endloop
  endfacet
  facet normal -0.733142 0.163522 -0.660124
    outer loop
      vertex 12.4721 -2.8 10.7023
      vertex 12.396 -3.36436 10.647
      vertex 12.2127 -2.8 10.9905
    endloop
  endfacet
  facet normal -0.854373 0.163522 0.493263
    outer loop
      vertex 12.4196 -3.43675 1.41774
      vertex 12.4721 -2.8 1.29772
      vertex 12.396 -3.36436 1.353
    endloop
  endfacet
  facet normal -0.981135 0.163523 0.103122
    outer loop
      vertex 13.6045 -5.17306 6
      vertex 14 -2.8 6
      vertex 13.5828 -5.149 5.75581
    endloop
  endfacet
  facet normal -0.938255 0.163522 -0.304859
    outer loop
      vertex 13.8252 -2.8 7.66329
      vertex 13.4638 -5.01679 7.58648
      vertex 13.4049 -4.95144 7.80262
    endloop
  endfacet
  facet normal 0 -1 0
    outer loop
      vertex 12.2127 -2.8 10.9905
      vertex 13.3084 -2.8 9.25389
      vertex 12.4721 -2.8 10.7023
    endloop
  endfacet
  facet normal 0 -1 0
    outer loop
      vertex 12.2127 -2.8 10.9905
      vertex 13.8252 -2.8 7.66329
      vertex 13.3084 -2.8 9.25389
    endloop
  endfacet
  facet normal 0 -1 0
    outer loop
      vertex 12.2127 -2.8 10.9905
      vertex 14 -2.8 6
      vertex 13.8252 -2.8 7.66329
    endloop
  endfacet
  facet normal 0 -1 0
    outer loop
      vertex 12.2127 -2.8 10.9905
      vertex 13.8252 -2.8 4.33671
      vertex 14 -2.8 6
    endloop
  endfacet
  facet normal 0 -1 0
    outer loop
      vertex 12.2127 -2.8 1.00955
      vertex 13.8252 -2.8 4.33671
      vertex 12.2127 -2.8 10.9905
    endloop
  endfacet
  facet normal 0 -1 0
    outer loop
      vertex 13.8252 -2.8 4.33671
      vertex 12.2127 -2.8 1.00955
      vertex 13.3084 -2.8 2.74611
    endloop
  endfacet
  facet normal 0 -1 0
    outer loop
      vertex 13.3084 -2.8 2.74611
      vertex 12.2127 -2.8 1.00955
      vertex 12.4721 -2.8 1.29772
    endloop
  endfacet
  facet normal -0.854373 0.163522 -0.493262
    outer loop
      vertex 12.4721 -2.8 10.7023
      vertex 12.4196 -3.43675 10.5823
      vertex 12.396 -3.36436 10.647
    endloop
  endfacet
  facet normal -0.733142 0.163522 0.660124
    outer loop
      vertex 12.396 -3.36436 1.353
      vertex 12.4721 -2.8 1.29772
      vertex 12.2127 -2.8 1.00955
    endloop
  endfacet
  facet normal -0.981135 0.163522 0.103122
    outer loop
      vertex 13.4638 -5.01679 4.41352
      vertex 14 -2.8 6
      vertex 13.8252 -2.8 4.33671
    endloop
  endfacet
  facet normal -0.981135 0.163523 0.103121
    outer loop
      vertex 14 -2.8 6
      vertex 13.4638 -5.01679 4.41352
      vertex 13.5828 -5.149 5.75581
    endloop
  endfacet
  facet normal -0.938255 0.163523 -0.304857
    outer loop
      vertex 13.8252 -2.8 7.66329
      vertex 13.0421 -4.5485 9.13536
      vertex 13.3084 -2.8 9.25389
    endloop
  endfacet
  facet normal -0.938255 0.163522 -0.304858
    outer loop
      vertex 13.0421 -4.5485 9.13536
      vertex 13.8252 -2.8 7.66329
      vertex 13.4049 -4.95144 7.80262
    endloop
  endfacet
  facet normal -0.854368 0.163523 -0.49327
    outer loop
      vertex 13.3084 -2.8 9.25389
      vertex 12.4196 -3.43675 10.5823
      vertex 12.4721 -2.8 10.7023
    endloop
  endfacet
  facet normal -0.854368 0.163521 -0.49327
    outer loop
      vertex 13.3084 -2.8 9.25389
      vertex 12.4582 -3.5557 10.4759
      vertex 12.4196 -3.43675 10.5823
    endloop
  endfacet
  facet normal -0.854368 0.163523 -0.49327
    outer loop
      vertex 13.3084 -2.8 9.25389
      vertex 13.0122 -4.51526 9.19822
      vertex 12.4582 -3.5557 10.4759
    endloop
  endfacet
  facet normal -0.85437 0.163523 -0.493267
    outer loop
      vertex 13.0122 -4.51526 9.19822
      vertex 13.3084 -2.8 9.25389
      vertex 13.0421 -4.5485 9.13536
    endloop
  endfacet
  facet normal -0.938255 0.163522 0.304859
    outer loop
      vertex 13.4638 -5.01679 4.41352
      vertex 13.8252 -2.8 4.33671
      vertex 13.4049 -4.95144 4.19738
    endloop
  endfacet
  facet normal -0.980786 -0.195089 0
    outer loop
      vertex 19.8 -1.4 0
      vertex 19.6097 -0.443291 12
      vertex 19.6097 -0.443291 0
    endloop
  endfacet
  facet normal -0.980786 -0.195089 0
    outer loop
      vertex 19.6097 -0.443291 12
      vertex 19.8 -1.4 0
      vertex 19.8 -1.4 12
    endloop
  endfacet
  facet normal 0.980785 -0.195091 0
    outer loop
      vertex 14.8 -1.4 12
      vertex 14.9903 -0.443291 0
      vertex 14.9903 -0.443291 12
    endloop
  endfacet
  facet normal 0.980785 -0.195091 0
    outer loop
      vertex 14.9903 -0.443291 0
      vertex 14.8 -1.4 12
      vertex 14.8 -1.4 0
    endloop
  endfacet
  facet normal 0.980785 0.195091 0
    outer loop
      vertex 14.9903 -2.35671 12
      vertex 14.8 -1.4 0
      vertex 14.8 -1.4 12
    endloop
  endfacet
  facet normal 0.980785 0.195091 0
    outer loop
      vertex 14.8 -1.4 0
      vertex 14.9903 -2.35671 12
      vertex 14.9903 -2.35671 0
    endloop
  endfacet
  facet normal -0.831468 -0.555573 0
    outer loop
      vertex 19.6097 -0.443291 0
      vertex 19.3135 0 12
      vertex 19.3135 0 0
    endloop
  endfacet
  facet normal -0.831468 -0.555573 0
    outer loop
      vertex 19.3135 0 12
      vertex 19.6097 -0.443291 0
      vertex 19.6097 -0.443291 12
    endloop
  endfacet
  facet normal -0.980786 0.195089 0
    outer loop
      vertex 19.6097 -2.35671 0
      vertex 19.8 -1.4 12
      vertex 19.8 -1.4 0
    endloop
  endfacet
  facet normal -0.980786 0.195089 0
    outer loop
      vertex 19.8 -1.4 12
      vertex 19.6097 -2.35671 0
      vertex 19.6097 -2.35671 12
    endloop
  endfacet
  facet normal 0.831469 -0.555571 0
    outer loop
      vertex 14.9903 -0.443291 12
      vertex 15.2865 0 0
      vertex 15.2865 0 12
    endloop
  endfacet
  facet normal 0.831469 -0.555571 0
    outer loop
      vertex 15.2865 0 0
      vertex 14.9903 -0.443291 12
      vertex 14.9903 -0.443291 0
    endloop
  endfacet
  facet normal -0.555571 0.831469 0
    outer loop
      vertex 19.0678 -3.16777 0
      vertex 18.2567 -3.7097 12
      vertex 19.0678 -3.16777 12
    endloop
  endfacet
  facet normal -0.555571 0.831469 0
    outer loop
      vertex 18.2567 -3.7097 12
      vertex 19.0678 -3.16777 0
      vertex 18.2567 -3.7097 0
    endloop
  endfacet
  facet normal -0.831469 0.555571 0
    outer loop
      vertex 19.0678 -3.16777 0
      vertex 19.6097 -2.35671 12
      vertex 19.6097 -2.35671 0
    endloop
  endfacet
  facet normal -0.831469 0.555571 0
    outer loop
      vertex 19.6097 -2.35671 12
      vertex 19.0678 -3.16777 0
      vertex 19.0678 -3.16777 12
    endloop
  endfacet
  facet normal 0.55557 0.83147 -0
    outer loop
      vertex 16.3433 -3.7097 0
      vertex 15.5322 -3.16777 12
      vertex 16.3433 -3.7097 12
    endloop
  endfacet
  facet normal 0.55557 0.83147 0
    outer loop
      vertex 15.5322 -3.16777 12
      vertex 16.3433 -3.7097 0
      vertex 15.5322 -3.16777 0
    endloop
  endfacet
  facet normal 0.83147 0.55557 0
    outer loop
      vertex 15.5322 -3.16777 12
      vertex 14.9903 -2.35671 0
      vertex 14.9903 -2.35671 12
    endloop
  endfacet
  facet normal 0.83147 0.55557 0
    outer loop
      vertex 14.9903 -2.35671 0
      vertex 15.5322 -3.16777 12
      vertex 15.5322 -3.16777 0
    endloop
  endfacet
  facet normal -0.19509 0.980785 0
    outer loop
      vertex 18.2567 -3.7097 0
      vertex 17.3 -3.9 12
      vertex 18.2567 -3.7097 12
    endloop
  endfacet
  facet normal -0.19509 0.980785 0
    outer loop
      vertex 17.3 -3.9 12
      vertex 18.2567 -3.7097 0
      vertex 17.3 -3.9 0
    endloop
  endfacet
  facet normal 0.19509 0.980785 -0
    outer loop
      vertex 17.3 -3.9 0
      vertex 16.3433 -3.7097 12
      vertex 17.3 -3.9 12
    endloop
  endfacet
  facet normal 0.19509 0.980785 0
    outer loop
      vertex 16.3433 -3.7097 12
      vertex 17.3 -3.9 0
      vertex 16.3433 -3.7097 0
    endloop
  endfacet
endsolid OpenSCAD_Model
