solid OpenSCAD_Model
  facet normal 0.978148 0.207912 0
    outer loop
      vertex 2.6 0 2.5
      vertex 2.37522 1.05752 0
      vertex 2.37522 1.05752 2.5
    endloop
  endfacet
  facet normal 0.978148 0.207912 0
    outer loop
      vertex 2.37522 1.05752 0
      vertex 2.6 0 2.5
      vertex 2.6 0 0
    endloop
  endfacet
  facet normal -1 0 0
    outer loop
      vertex -2.54318 -0.54057 0
      vertex -2.54318 0.54057 2.5
      vertex -2.54318 0.54057 0
    endloop
  endfacet
  facet normal -1 -0 0
    outer loop
      vertex -2.54318 0.54057 2.5
      vertex -2.54318 -0.54057 0
      vertex -2.54318 -0.54057 2.5
    endloop
  endfacet
  facet normal 0.104528 0.994522 -0
    outer loop
      vertex 0.803444 2.47275 0
      vertex -0.271773 2.58576 2.5
      vertex 0.803444 2.47275 2.5
    endloop
  endfacet
  facet normal 0.104528 0.994522 0
    outer loop
      vertex -0.271773 2.58576 2.5
      vertex 0.803444 2.47275 0
      vertex -0.271773 2.58576 0
    endloop
  endfacet
  facet normal 0 0 -1
    outer loop
      vertex 1.6 0 0
      vertex 2.6 0 0
      vertex 2.37522 -1.05752 0
    endloop
  endfacet
  facet normal 0 0 -1
    outer loop
      vertex 1.46167 -0.650778 0
      vertex 2.37522 -1.05752 0
      vertex 1.73974 -1.93218 0
    endloop
  endfacet
  facet normal 0 0 -1
    outer loop
      vertex 2.6 0 0
      vertex 1.6 0 0
      vertex 2.37522 1.05752 0
    endloop
  endfacet
  facet normal 0 0 -1
    outer loop
      vertex 1.46167 0.650778 0
      vertex 2.37522 1.05752 0
      vertex 1.6 0 0
    endloop
  endfacet
  facet normal 0 0 -1
    outer loop
      vertex 2.37522 -1.05752 0
      vertex 1.46167 -0.650778 0
      vertex 1.6 0 0
    endloop
  endfacet
  facet normal 0 0 -1
    outer loop
      vertex 1.73974 -1.93218 0
      vertex 1.07061 -1.18903 0
      vertex 1.46167 -0.650778 0
    endloop
  endfacet
  facet normal 0 0 -1
    outer loop
      vertex 0.803444 -2.47275 0
      vertex 1.07061 -1.18903 0
      vertex 1.73974 -1.93218 0
    endloop
  endfacet
  facet normal 0 0 -1
    outer loop
      vertex 0.803444 -2.47275 0
      vertex 0.494427 -1.52169 0
      vertex 1.07061 -1.18903 0
    endloop
  endfacet
  facet normal 0 0 -1
    outer loop
      vertex 0.803444 -2.47275 0
      vertex -0.167245 -1.59123 0
      vertex 0.494427 -1.52169 0
    endloop
  endfacet
  facet normal 0 0 -1
    outer loop
      vertex -0.271773 -2.58576 0
      vertex -0.167245 -1.59123 0
      vertex 0.803444 -2.47275 0
    endloop
  endfacet
  facet normal 0 0 -1
    outer loop
      vertex -0.271773 -2.58576 0
      vertex -0.799999 -1.38564 0
      vertex -0.167245 -1.59123 0
    endloop
  endfacet
  facet normal 0 0 -1
    outer loop
      vertex -1.3 -2.25167 0
      vertex -0.799999 -1.38564 0
      vertex -0.271773 -2.58576 0
    endloop
  endfacet
  facet normal -0 0 -1
    outer loop
      vertex -0.799999 -1.38564 0
      vertex -1.3 -2.25167 0
      vertex -1.29443 -0.940456 0
    endloop
  endfacet
  facet normal 0 0 -1
    outer loop
      vertex -2.10344 -1.52824 0
      vertex -1.29443 -0.940456 0
      vertex -1.3 -2.25167 0
    endloop
  endfacet
  facet normal 0 0 -1
    outer loop
      vertex -2.54318 -0.54057 0
      vertex -1.56504 -0.332658 0
      vertex -2.10344 -1.52824 0
    endloop
  endfacet
  facet normal -0 0 -1
    outer loop
      vertex -1.29443 -0.940456 0
      vertex -2.10344 -1.52824 0
      vertex -1.56504 -0.332658 0
    endloop
  endfacet
  facet normal -0 0 -1
    outer loop
      vertex 2.37522 1.05752 0
      vertex 1.46167 0.650778 0
      vertex 1.73974 1.93218 0
    endloop
  endfacet
  facet normal 0 0 -1
    outer loop
      vertex 1.07061 1.18903 0
      vertex 1.73974 1.93218 0
      vertex 1.46167 0.650778 0
    endloop
  endfacet
  facet normal 0 0 -1
    outer loop
      vertex 1.07061 1.18903 0
      vertex 0.803444 2.47275 0
      vertex 1.73974 1.93218 0
    endloop
  endfacet
  facet normal 0 0 -1
    outer loop
      vertex 0.494427 1.52169 0
      vertex 0.803444 2.47275 0
      vertex 1.07061 1.18903 0
    endloop
  endfacet
  facet normal 0 0 -1
    outer loop
      vertex -0.167245 1.59123 0
      vertex 0.803444 2.47275 0
      vertex 0.494427 1.52169 0
    endloop
  endfacet
  facet normal 0 0 -1
    outer loop
      vertex -0.167245 1.59123 0
      vertex -0.271773 2.58576 0
      vertex 0.803444 2.47275 0
    endloop
  endfacet
  facet normal 0 0 -1
    outer loop
      vertex -0.799999 1.38564 0
      vertex -0.271773 2.58576 0
      vertex -0.167245 1.59123 0
    endloop
  endfacet
  facet normal 0 0 -1
    outer loop
      vertex -1.3 2.25167 0
      vertex -0.799999 1.38564 0
      vertex -1.29443 0.940456 0
    endloop
  endfacet
  facet normal 0 0 -1
    outer loop
      vertex -0.799999 1.38564 0
      vertex -1.3 2.25167 0
      vertex -0.271773 2.58576 0
    endloop
  endfacet
  facet normal 0 0 -1
    outer loop
      vertex -2.10344 1.52824 0
      vertex -1.29443 0.940456 0
      vertex -1.56504 0.332658 0
    endloop
  endfacet
  facet normal -0 0 -1
    outer loop
      vertex -1.56504 -0.332658 0
      vertex -2.54318 -0.54057 0
      vertex -1.56504 0.332658 0
    endloop
  endfacet
  facet normal 0 0 -1
    outer loop
      vertex -1.29443 0.940456 0
      vertex -2.10344 1.52824 0
      vertex -1.3 2.25167 0
    endloop
  endfacet
  facet normal 0 0 -1
    outer loop
      vertex -2.54318 0.54057 0
      vertex -1.56504 0.332658 0
      vertex -2.54318 -0.54057 0
    endloop
  endfacet
  facet normal 0 0 -1
    outer loop
      vertex -1.56504 0.332658 0
      vertex -2.54318 0.54057 0
      vertex -2.10344 1.52824 0
    endloop
  endfacet
  facet normal 0.500001 0.866025 -0
    outer loop
      vertex 1.73974 1.93218 0
      vertex 0.803444 2.47275 2.5
      vertex 1.73974 1.93218 2.5
    endloop
  endfacet
  facet normal 0.500001 0.866025 0
    outer loop
      vertex 0.803444 2.47275 2.5
      vertex 1.73974 1.93218 0
      vertex 0.803444 2.47275 0
    endloop
  endfacet
  facet normal 0.809017 0.587785 0
    outer loop
      vertex 2.37522 1.05752 2.5
      vertex 1.73974 1.93218 0
      vertex 1.73974 1.93218 2.5
    endloop
  endfacet
  facet normal 0.809017 0.587785 0
    outer loop
      vertex 1.73974 1.93218 0
      vertex 2.37522 1.05752 2.5
      vertex 2.37522 1.05752 0
    endloop
  endfacet
  facet normal -0.66913 0.743145 0
    outer loop
      vertex -1.3 2.25167 0
      vertex -2.10344 1.52824 2.5
      vertex -1.3 2.25167 2.5
    endloop
  endfacet
  facet normal -0.66913 0.743145 0
    outer loop
      vertex -2.10344 1.52824 2.5
      vertex -1.3 2.25167 0
      vertex -2.10344 1.52824 0
    endloop
  endfacet
  facet normal -0.913546 0.406736 0
    outer loop
      vertex -2.54318 0.54057 0
      vertex -2.10344 1.52824 2.5
      vertex -2.10344 1.52824 0
    endloop
  endfacet
  facet normal -0.913546 0.406736 0
    outer loop
      vertex -2.10344 1.52824 2.5
      vertex -2.54318 0.54057 0
      vertex -2.54318 0.54057 2.5
    endloop
  endfacet
  facet normal 0 0 1
    outer loop
      vertex 1.6 0 2.5
      vertex 2.6 0 2.5
      vertex 2.37522 1.05752 2.5
    endloop
  endfacet
  facet normal 0 0 1
    outer loop
      vertex 1.46167 0.650778 2.5
      vertex 2.37522 1.05752 2.5
      vertex 1.73974 1.93218 2.5
    endloop
  endfacet
  facet normal 0 0 1
    outer loop
      vertex 2.6 0 2.5
      vertex 1.6 0 2.5
      vertex 2.37522 -1.05752 2.5
    endloop
  endfacet
  facet normal -0 0 1
    outer loop
      vertex 1.46167 -0.650778 2.5
      vertex 2.37522 -1.05752 2.5
      vertex 1.6 0 2.5
    endloop
  endfacet
  facet normal 0 0 1
    outer loop
      vertex 2.37522 1.05752 2.5
      vertex 1.46167 0.650778 2.5
      vertex 1.6 0 2.5
    endloop
  endfacet
  facet normal 0 0 1
    outer loop
      vertex 1.73974 1.93218 2.5
      vertex 1.07061 1.18903 2.5
      vertex 1.46167 0.650778 2.5
    endloop
  endfacet
  facet normal 0 0 1
    outer loop
      vertex 0.803444 2.47275 2.5
      vertex 1.07061 1.18903 2.5
      vertex 1.73974 1.93218 2.5
    endloop
  endfacet
  facet normal 0 0 1
    outer loop
      vertex 0.803444 2.47275 2.5
      vertex 0.494427 1.52169 2.5
      vertex 1.07061 1.18903 2.5
    endloop
  endfacet
  facet normal 0 0 1
    outer loop
      vertex 0.803444 2.47275 2.5
      vertex -0.167245 1.59123 2.5
      vertex 0.494427 1.52169 2.5
    endloop
  endfacet
  facet normal 0 0 1
    outer loop
      vertex -0.271773 2.58576 2.5
      vertex -0.167245 1.59123 2.5
      vertex 0.803444 2.47275 2.5
    endloop
  endfacet
  facet normal 0 0 1
    outer loop
      vertex -0.271773 2.58576 2.5
      vertex -0.799999 1.38564 2.5
      vertex -0.167245 1.59123 2.5
    endloop
  endfacet
  facet normal -0 0 1
    outer loop
      vertex -1.3 2.25167 2.5
      vertex -0.799999 1.38564 2.5
      vertex -0.271773 2.58576 2.5
    endloop
  endfacet
  facet normal 0 0 1
    outer loop
      vertex -0.799999 1.38564 2.5
      vertex -1.3 2.25167 2.5
      vertex -1.29443 0.940456 2.5
    endloop
  endfacet
  facet normal -0 0 1
    outer loop
      vertex -2.10344 1.52824 2.5
      vertex -1.29443 0.940456 2.5
      vertex -1.3 2.25167 2.5
    endloop
  endfacet
  facet normal -0 0 1
    outer loop
      vertex -2.54318 0.54057 2.5
      vertex -1.56504 0.332658 2.5
      vertex -2.10344 1.52824 2.5
    endloop
  endfacet
  facet normal 0 0 1
    outer loop
      vertex -1.29443 0.940456 2.5
      vertex -2.10344 1.52824 2.5
      vertex -1.56504 0.332658 2.5
    endloop
  endfacet
  facet normal 0 0 1
    outer loop
      vertex 2.37522 -1.05752 2.5
      vertex 1.46167 -0.650778 2.5
      vertex 1.73974 -1.93218 2.5
    endloop
  endfacet
  facet normal -0 0 1
    outer loop
      vertex 1.07061 -1.18903 2.5
      vertex 1.73974 -1.93218 2.5
      vertex 1.46167 -0.650778 2.5
    endloop
  endfacet
  facet normal 0 0 1
    outer loop
      vertex 1.07061 -1.18903 2.5
      vertex 0.803444 -2.47275 2.5
      vertex 1.73974 -1.93218 2.5
    endloop
  endfacet
  facet normal -0 0 1
    outer loop
      vertex 0.494427 -1.52169 2.5
      vertex 0.803444 -2.47275 2.5
      vertex 1.07061 -1.18903 2.5
    endloop
  endfacet
  facet normal -0 0 1
    outer loop
      vertex -0.167245 -1.59123 2.5
      vertex 0.803444 -2.47275 2.5
      vertex 0.494427 -1.52169 2.5
    endloop
  endfacet
  facet normal 0 0 1
    outer loop
      vertex -0.167245 -1.59123 2.5
      vertex -0.271773 -2.58576 2.5
      vertex 0.803444 -2.47275 2.5
    endloop
  endfacet
  facet normal 0 0 1
    outer loop
      vertex -0.799999 -1.38564 2.5
      vertex -0.271773 -2.58576 2.5
      vertex -0.167245 -1.59123 2.5
    endloop
  endfacet
  facet normal 0 0 1
    outer loop
      vertex -1.3 -2.25167 2.5
      vertex -0.799999 -1.38564 2.5
      vertex -1.29443 -0.940456 2.5
    endloop
  endfacet
  facet normal 0 0 1
    outer loop
      vertex -0.799999 -1.38564 2.5
      vertex -1.3 -2.25167 2.5
      vertex -0.271773 -2.58576 2.5
    endloop
  endfacet
  facet normal 0 0 1
    outer loop
      vertex -2.10344 -1.52824 2.5
      vertex -1.29443 -0.940456 2.5
      vertex -1.56504 -0.332658 2.5
    endloop
  endfacet
  facet normal 0 0 1
    outer loop
      vertex -1.56504 0.332658 2.5
      vertex -2.54318 0.54057 2.5
      vertex -1.56504 -0.332658 2.5
    endloop
  endfacet
  facet normal 0 0 1
    outer loop
      vertex -1.29443 -0.940456 2.5
      vertex -2.10344 -1.52824 2.5
      vertex -1.3 -2.25167 2.5
    endloop
  endfacet
  facet normal 0 0 1
    outer loop
      vertex -2.54318 -0.54057 2.5
      vertex -1.56504 -0.332658 2.5
      vertex -2.54318 0.54057 2.5
    endloop
  endfacet
  facet normal 0 0 1
    outer loop
      vertex -1.56504 -0.332658 2.5
      vertex -2.54318 -0.54057 2.5
      vertex -2.10344 -1.52824 2.5
    endloop
  endfacet
  facet normal -0.309017 0.951056 0
    outer loop
      vertex -0.271773 2.58576 0
      vertex -1.3 2.25167 2.5
      vertex -0.271773 2.58576 2.5
    endloop
  endfacet
  facet normal -0.309017 0.951056 0
    outer loop
      vertex -1.3 2.25167 2.5
      vertex -0.271773 2.58576 0
      vertex -1.3 2.25167 0
    endloop
  endfacet
  facet normal 0.978148 -0.207912 0
    outer loop
      vertex 2.37522 -1.05752 2.5
      vertex 2.6 0 0
      vertex 2.6 0 2.5
    endloop
  endfacet
  facet normal 0.978148 -0.207912 0
    outer loop
      vertex 2.6 0 0
      vertex 2.37522 -1.05752 2.5
      vertex 2.37522 -1.05752 0
    endloop
  endfacet
  facet normal -0.309017 -0.951056 0
    outer loop
      vertex -1.3 -2.25167 0
      vertex -0.271773 -2.58576 2.5
      vertex -1.3 -2.25167 2.5
    endloop
  endfacet
  facet normal -0.309017 -0.951056 -0
    outer loop
      vertex -0.271773 -2.58576 2.5
      vertex -1.3 -2.25167 0
      vertex -0.271773 -2.58576 0
    endloop
  endfacet
  facet normal -0.913546 -0.406736 0
    outer loop
      vertex -2.10344 -1.52824 0
      vertex -2.54318 -0.54057 2.5
      vertex -2.54318 -0.54057 0
    endloop
  endfacet
  facet normal -0.913546 -0.406736 0
    outer loop
      vertex -2.54318 -0.54057 2.5
      vertex -2.10344 -1.52824 0
      vertex -2.10344 -1.52824 2.5
    endloop
  endfacet
  facet normal 0.809017 -0.587785 0
    outer loop
      vertex 1.73974 -1.93218 2.5
      vertex 2.37522 -1.05752 0
      vertex 2.37522 -1.05752 2.5
    endloop
  endfacet
  facet normal 0.809017 -0.587785 0
    outer loop
      vertex 2.37522 -1.05752 0
      vertex 1.73974 -1.93218 2.5
      vertex 1.73974 -1.93218 0
    endloop
  endfacet
  facet normal 0.500001 -0.866025 0
    outer loop
      vertex 0.803444 -2.47275 0
      vertex 1.73974 -1.93218 2.5
      vertex 0.803444 -2.47275 2.5
    endloop
  endfacet
  facet normal 0.500001 -0.866025 0
    outer loop
      vertex 1.73974 -1.93218 2.5
      vertex 0.803444 -2.47275 0
      vertex 1.73974 -1.93218 0
    endloop
  endfacet
  facet normal 0.104528 -0.994522 0
    outer loop
      vertex -0.271773 -2.58576 0
      vertex 0.803444 -2.47275 2.5
      vertex -0.271773 -2.58576 2.5
    endloop
  endfacet
  facet normal 0.104528 -0.994522 0
    outer loop
      vertex 0.803444 -2.47275 2.5
      vertex -0.271773 -2.58576 0
      vertex 0.803444 -2.47275 0
    endloop
  endfacet
  facet normal -0.66913 -0.743145 0
    outer loop
      vertex -2.10344 -1.52824 0
      vertex -1.3 -2.25167 2.5
      vertex -2.10344 -1.52824 2.5
    endloop
  endfacet
  facet normal -0.66913 -0.743145 -0
    outer loop
      vertex -1.3 -2.25167 2.5
      vertex -2.10344 -1.52824 0
      vertex -1.3 -2.25167 0
    endloop
  endfacet
  facet normal -0.978147 -0.207912 0
    outer loop
      vertex 1.6 0 0
      vertex 1.46167 0.650778 2.5
      vertex 1.46167 0.650778 0
    endloop
  endfacet
  facet normal -0.978147 -0.207912 0
    outer loop
      vertex 1.46167 0.650778 2.5
      vertex 1.6 0 0
      vertex 1.6 0 2.5
    endloop
  endfacet
  facet normal 1 -0 0
    outer loop
      vertex -1.56504 -0.332658 2.5
      vertex -1.56504 0.332658 0
      vertex -1.56504 0.332658 2.5
    endloop
  endfacet
  facet normal 1 0 0
    outer loop
      vertex -1.56504 0.332658 0
      vertex -1.56504 -0.332658 2.5
      vertex -1.56504 -0.332658 0
    endloop
  endfacet
  facet normal 0.309017 -0.951057 0
    outer loop
      vertex -0.799999 1.38564 0
      vertex -0.167245 1.59123 2.5
      vertex -0.799999 1.38564 2.5
    endloop
  endfacet
  facet normal 0.309017 -0.951057 0
    outer loop
      vertex -0.167245 1.59123 2.5
      vertex -0.799999 1.38564 0
      vertex -0.167245 1.59123 0
    endloop
  endfacet
  facet normal 0.66913 -0.743146 0
    outer loop
      vertex -1.29443 0.940456 0
      vertex -0.799999 1.38564 2.5
      vertex -1.29443 0.940456 2.5
    endloop
  endfacet
  facet normal 0.66913 -0.743146 0
    outer loop
      vertex -0.799999 1.38564 2.5
      vertex -1.29443 0.940456 0
      vertex -0.799999 1.38564 0
    endloop
  endfacet
  facet normal -0.5 -0.866025 0
    outer loop
      vertex 0.494427 1.52169 0
      vertex 1.07061 1.18903 2.5
      vertex 0.494427 1.52169 2.5
    endloop
  endfacet
  facet normal -0.5 -0.866025 -0
    outer loop
      vertex 1.07061 1.18903 2.5
      vertex 0.494427 1.52169 0
      vertex 1.07061 1.18903 0
    endloop
  endfacet
  facet normal -0.809017 -0.587785 0
    outer loop
      vertex 1.46167 0.650778 0
      vertex 1.07061 1.18903 2.5
      vertex 1.07061 1.18903 0
    endloop
  endfacet
  facet normal -0.809017 -0.587785 0
    outer loop
      vertex 1.07061 1.18903 2.5
      vertex 1.46167 0.650778 0
      vertex 1.46167 0.650778 2.5
    endloop
  endfacet
  facet normal -0.104527 -0.994522 0
    outer loop
      vertex -0.167245 1.59123 0
      vertex 0.494427 1.52169 2.5
      vertex -0.167245 1.59123 2.5
    endloop
  endfacet
  facet normal -0.104527 -0.994522 -0
    outer loop
      vertex 0.494427 1.52169 2.5
      vertex -0.167245 1.59123 0
      vertex 0.494427 1.52169 0
    endloop
  endfacet
  facet normal 0.913546 -0.406736 0
    outer loop
      vertex -1.56504 0.332658 2.5
      vertex -1.29443 0.940456 0
      vertex -1.29443 0.940456 2.5
    endloop
  endfacet
  facet normal 0.913546 -0.406736 0
    outer loop
      vertex -1.29443 0.940456 0
      vertex -1.56504 0.332658 2.5
      vertex -1.56504 0.332658 0
    endloop
  endfacet
  facet normal -0.978147 0.207912 0
    outer loop
      vertex 1.46167 -0.650778 0
      vertex 1.6 0 2.5
      vertex 1.6 0 0
    endloop
  endfacet
  facet normal -0.978147 0.207912 0
    outer loop
      vertex 1.6 0 2.5
      vertex 1.46167 -0.650778 0
      vertex 1.46167 -0.650778 2.5
    endloop
  endfacet
  facet normal 0.309017 0.951057 -0
    outer loop
      vertex -0.167245 -1.59123 0
      vertex -0.799999 -1.38564 2.5
      vertex -0.167245 -1.59123 2.5
    endloop
  endfacet
  facet normal 0.309017 0.951057 0
    outer loop
      vertex -0.799999 -1.38564 2.5
      vertex -0.167245 -1.59123 0
      vertex -0.799999 -1.38564 0
    endloop
  endfacet
  facet normal 0.913546 0.406736 0
    outer loop
      vertex -1.29443 -0.940456 2.5
      vertex -1.56504 -0.332658 0
      vertex -1.56504 -0.332658 2.5
    endloop
  endfacet
  facet normal 0.913546 0.406736 0
    outer loop
      vertex -1.56504 -0.332658 0
      vertex -1.29443 -0.940456 2.5
      vertex -1.29443 -0.940456 0
    endloop
  endfacet
  facet normal -0.809017 0.587785 0
    outer loop
      vertex 1.07061 -1.18903 0
      vertex 1.46167 -0.650778 2.5
      vertex 1.46167 -0.650778 0
    endloop
  endfacet
  facet normal -0.809017 0.587785 0
    outer loop
      vertex 1.46167 -0.650778 2.5
      vertex 1.07061 -1.18903 0
      vertex 1.07061 -1.18903 2.5
    endloop
  endfacet
  facet normal -0.5 0.866025 0
    outer loop
      vertex 1.07061 -1.18903 0
      vertex 0.494427 -1.52169 2.5
      vertex 1.07061 -1.18903 2.5
    endloop
  endfacet
  facet normal -0.5 0.866025 0
    outer loop
      vertex 0.494427 -1.52169 2.5
      vertex 1.07061 -1.18903 0
      vertex 0.494427 -1.52169 0
    endloop
  endfacet
  facet normal -0.104527 0.994522 0
    outer loop
      vertex 0.494427 -1.52169 0
      vertex -0.167245 -1.59123 2.5
      vertex 0.494427 -1.52169 2.5
    endloop
  endfacet
  facet normal -0.104527 0.994522 0
    outer loop
      vertex -0.167245 -1.59123 2.5
      vertex 0.494427 -1.52169 0
      vertex -0.167245 -1.59123 0
    endloop
  endfacet
  facet normal 0.66913 0.743146 -0
    outer loop
      vertex -0.799999 -1.38564 0
      vertex -1.29443 -0.940456 2.5
      vertex -0.799999 -1.38564 2.5
    endloop
  endfacet
  facet normal 0.66913 0.743146 0
    outer loop
      vertex -1.29443 -0.940456 2.5
      vertex -0.799999 -1.38564 0
      vertex -1.29443 -0.940456 0
    endloop
  endfacet
endsolid OpenSCAD_Model
