  0
SECTION
  2
BLOCKS
  0
ENDSEC
  0
SECTION
  2
ENTITIES
  0
LINE
  8
0
 10
2.33528
 20
219.958
 11
2.89806
 21
220.128
  0
LINE
  8
0
 10
2.89806
 20
220.128
 11
3.41672
 21
220.406
  0
LINE
  8
0
 10
3.41672
 20
220.406
 11
3.87132
 21
220.779
  0
LINE
  8
0
 10
3.87132
 20
220.779
 11
4.24442
 21
221.233
  0
LINE
  8
0
 10
4.24442
 20
221.233
 11
4.52165
 21
221.752
  0
LINE
  8
0
 10
4.52165
 20
221.752
 11
4.69237
 21
222.315
  0
LINE
  8
0
 10
4.69237
 20
222.315
 11
4.75
 21
222.9
  0
LINE
  8
0
 10
4.75
 20
222.9
 11
4.75
 21
246.1
  0
LINE
  8
0
 10
4.75
 20
246.1
 11
4.69237
 21
246.685
  0
LINE
  8
0
 10
4.69237
 20
246.685
 11
4.52165
 21
247.248
  0
LINE
  8
0
 10
4.52165
 20
247.248
 11
4.24442
 21
247.767
  0
LINE
  8
0
 10
4.24442
 20
247.767
 11
3.87132
 21
248.221
  0
LINE
  8
0
 10
3.87132
 20
248.221
 11
3.41672
 21
248.594
  0
LINE
  8
0
 10
3.41672
 20
248.594
 11
2.89806
 21
248.872
  0
LINE
  8
0
 10
2.89806
 20
248.872
 11
2.33528
 21
249.042
  0
LINE
  8
0
 10
2.33528
 20
249.042
 11
1.75
 21
249.1
  0
LINE
  8
0
 10
1.75
 20
249.1
 11
-36.25
 21
249.1
  0
LINE
  8
0
 10
-36.25
 20
249.1
 11
-36.8353
 21
249.042
  0
LINE
  8
0
 10
-36.8353
 20
249.042
 11
-37.398
 21
248.872
  0
LINE
  8
0
 10
-37.398
 20
248.872
 11
-37.9167
 21
248.594
  0
LINE
  8
0
 10
-37.9167
 20
248.594
 11
-38.3713
 21
248.221
  0
LINE
  8
0
 10
-38.3713
 20
248.221
 11
-38.7444
 21
247.767
  0
LINE
  8
0
 10
-38.7444
 20
247.767
 11
-39.0216
 21
247.248
  0
LINE
  8
0
 10
-39.0216
 20
247.248
 11
-39.1924
 21
246.685
  0
LINE
  8
0
 10
-39.1924
 20
246.685
 11
-39.25
 21
246.1
  0
LINE
  8
0
 10
-39.25
 20
246.1
 11
-39.25
 21
222.9
  0
LINE
  8
0
 10
-39.25
 20
222.9
 11
-39.1924
 21
222.315
  0
LINE
  8
0
 10
-39.1924
 20
222.315
 11
-39.0216
 21
221.752
  0
LINE
  8
0
 10
-39.0216
 20
221.752
 11
-38.7444
 21
221.233
  0
LINE
  8
0
 10
-38.7444
 20
221.233
 11
-38.3713
 21
220.779
  0
LINE
  8
0
 10
-38.3713
 20
220.779
 11
-37.9167
 21
220.406
  0
LINE
  8
0
 10
-37.9167
 20
220.406
 11
-37.398
 21
220.128
  0
LINE
  8
0
 10
-37.398
 20
220.128
 11
-36.8353
 21
219.958
  0
LINE
  8
0
 10
-36.8353
 20
219.958
 11
-36.25
 21
219.9
  0
LINE
  8
0
 10
-36.25
 20
219.9
 11
1.75
 21
219.9
  0
LINE
  8
0
 10
1.75
 20
219.9
 11
2.33528
 21
219.958
  0
LINE
  8
0
 10
0.0215759
 20
242.865
 11
-0.202942
 21
242.91
  0
LINE
  8
0
 10
-0.202942
 20
242.91
 11
-0.419708
 21
242.983
  0
LINE
  8
0
 10
-0.419708
 20
242.983
 11
-0.625
 21
243.084
  0
LINE
  8
0
 10
-0.625
 20
243.084
 11
-0.815338
 21
243.212
  0
LINE
  8
0
 10
-0.815338
 20
243.212
 11
-0.987442
 21
243.363
  0
LINE
  8
0
 10
-0.987442
 20
243.363
 11
-1.13838
 21
243.535
  0
LINE
  8
0
 10
-1.13838
 20
243.535
 11
-1.26555
 21
243.725
  0
LINE
  8
0
 10
-1.26555
 20
243.725
 11
-1.36679
 21
243.93
  0
LINE
  8
0
 10
-1.36679
 20
243.93
 11
-1.44038
 21
244.147
  0
LINE
  8
0
 10
-1.44038
 20
244.147
 11
-1.48503
 21
244.372
  0
LINE
  8
0
 10
-1.48503
 20
244.372
 11
-1.5
 21
244.6
  0
LINE
  8
0
 10
-1.5
 20
244.6
 11
-1.48503
 21
244.828
  0
LINE
  8
0
 10
-1.48503
 20
244.828
 11
-1.44038
 21
245.053
  0
LINE
  8
0
 10
-1.44038
 20
245.053
 11
-1.36679
 21
245.27
  0
LINE
  8
0
 10
-1.36679
 20
245.27
 11
-1.26555
 21
245.475
  0
LINE
  8
0
 10
-1.26555
 20
245.475
 11
-1.13838
 21
245.665
  0
LINE
  8
0
 10
-1.13838
 20
245.665
 11
-0.987442
 21
245.837
  0
LINE
  8
0
 10
-0.987442
 20
245.837
 11
-0.815338
 21
245.988
  0
LINE
  8
0
 10
-0.815338
 20
245.988
 11
-0.625
 21
246.116
  0
LINE
  8
0
 10
-0.625
 20
246.116
 11
-0.419708
 21
246.217
  0
LINE
  8
0
 10
-0.419708
 20
246.217
 11
-0.202942
 21
246.29
  0
LINE
  8
0
 10
-0.202942
 20
246.29
 11
0.0215759
 21
246.335
  0
LINE
  8
0
 10
0.0215759
 20
246.335
 11
0.25
 21
246.35
  0
LINE
  8
0
 10
0.25
 20
246.35
 11
0.478409
 21
246.335
  0
LINE
  8
0
 10
0.478409
 20
246.335
 11
0.702927
 21
246.29
  0
LINE
  8
0
 10
0.702927
 20
246.29
 11
0.919693
 21
246.217
  0
LINE
  8
0
 10
0.919693
 20
246.217
 11
1.125
 21
246.116
  0
LINE
  8
0
 10
1.125
 20
246.116
 11
1.31532
 21
245.988
  0
LINE
  8
0
 10
1.31532
 20
245.988
 11
1.48743
 21
245.837
  0
LINE
  8
0
 10
1.48743
 20
245.837
 11
1.63837
 21
245.665
  0
LINE
  8
0
 10
1.63837
 20
245.665
 11
1.76553
 21
245.475
  0
LINE
  8
0
 10
1.76553
 20
245.475
 11
1.86678
 21
245.27
  0
LINE
  8
0
 10
1.86678
 20
245.27
 11
1.94037
 21
245.053
  0
LINE
  8
0
 10
1.94037
 20
245.053
 11
1.98502
 21
244.828
  0
LINE
  8
0
 10
1.98502
 20
244.828
 11
2
 21
244.6
  0
LINE
  8
0
 10
2
 20
244.6
 11
1.98502
 21
244.372
  0
LINE
  8
0
 10
1.98502
 20
244.372
 11
1.94037
 21
244.147
  0
LINE
  8
0
 10
1.94037
 20
244.147
 11
1.86678
 21
243.93
  0
LINE
  8
0
 10
1.86678
 20
243.93
 11
1.76553
 21
243.725
  0
LINE
  8
0
 10
1.76553
 20
243.725
 11
1.63837
 21
243.535
  0
LINE
  8
0
 10
1.63837
 20
243.535
 11
1.48743
 21
243.363
  0
LINE
  8
0
 10
1.48743
 20
243.363
 11
1.31532
 21
243.212
  0
LINE
  8
0
 10
1.31532
 20
243.212
 11
1.125
 21
243.084
  0
LINE
  8
0
 10
1.125
 20
243.084
 11
0.919693
 21
242.983
  0
LINE
  8
0
 10
0.919693
 20
242.983
 11
0.702927
 21
242.91
  0
LINE
  8
0
 10
0.702927
 20
242.91
 11
0.478409
 21
242.865
  0
LINE
  8
0
 10
0.478409
 20
242.865
 11
0.25
 21
242.85
  0
LINE
  8
0
 10
0.25
 20
242.85
 11
0.0215759
 21
242.865
  0
LINE
  8
0
 10
-34.9784
 20
242.865
 11
-35.2029
 21
242.91
  0
LINE
  8
0
 10
-35.2029
 20
242.91
 11
-35.4197
 21
242.983
  0
LINE
  8
0
 10
-35.4197
 20
242.983
 11
-35.625
 21
243.084
  0
LINE
  8
0
 10
-35.625
 20
243.084
 11
-35.8153
 21
243.212
  0
LINE
  8
0
 10
-35.8153
 20
243.212
 11
-35.9874
 21
243.363
  0
LINE
  8
0
 10
-35.9874
 20
243.363
 11
-36.1384
 21
243.535
  0
LINE
  8
0
 10
-36.1384
 20
243.535
 11
-36.2655
 21
243.725
  0
LINE
  8
0
 10
-36.2655
 20
243.725
 11
-36.3668
 21
243.93
  0
LINE
  8
0
 10
-36.3668
 20
243.93
 11
-36.4404
 21
244.147
  0
LINE
  8
0
 10
-36.4404
 20
244.147
 11
-36.485
 21
244.372
  0
LINE
  8
0
 10
-36.485
 20
244.372
 11
-36.5
 21
244.6
  0
LINE
  8
0
 10
-36.5
 20
244.6
 11
-36.485
 21
244.828
  0
LINE
  8
0
 10
-36.485
 20
244.828
 11
-36.4404
 21
245.053
  0
LINE
  8
0
 10
-36.4404
 20
245.053
 11
-36.3668
 21
245.27
  0
LINE
  8
0
 10
-36.3668
 20
245.27
 11
-36.2655
 21
245.475
  0
LINE
  8
0
 10
-36.2655
 20
245.475
 11
-36.1384
 21
245.665
  0
LINE
  8
0
 10
-36.1384
 20
245.665
 11
-35.9874
 21
245.837
  0
LINE
  8
0
 10
-35.9874
 20
245.837
 11
-35.8153
 21
245.988
  0
LINE
  8
0
 10
-35.8153
 20
245.988
 11
-35.625
 21
246.116
  0
LINE
  8
0
 10
-35.625
 20
246.116
 11
-35.4197
 21
246.217
  0
LINE
  8
0
 10
-35.4197
 20
246.217
 11
-35.2029
 21
246.29
  0
LINE
  8
0
 10
-35.2029
 20
246.29
 11
-34.9784
 21
246.335
  0
LINE
  8
0
 10
-34.9784
 20
246.335
 11
-34.75
 21
246.35
  0
LINE
  8
0
 10
-34.75
 20
246.35
 11
-34.5216
 21
246.335
  0
LINE
  8
0
 10
-34.5216
 20
246.335
 11
-34.2971
 21
246.29
  0
LINE
  8
0
 10
-34.2971
 20
246.29
 11
-34.0803
 21
246.217
  0
LINE
  8
0
 10
-34.0803
 20
246.217
 11
-33.875
 21
246.116
  0
LINE
  8
0
 10
-33.875
 20
246.116
 11
-33.6847
 21
245.988
  0
LINE
  8
0
 10
-33.6847
 20
245.988
 11
-33.5126
 21
245.837
  0
LINE
  8
0
 10
-33.5126
 20
245.837
 11
-33.3616
 21
245.665
  0
LINE
  8
0
 10
-33.3616
 20
245.665
 11
-33.2345
 21
245.475
  0
LINE
  8
0
 10
-33.2345
 20
245.475
 11
-33.1332
 21
245.27
  0
LINE
  8
0
 10
-33.1332
 20
245.27
 11
-33.0596
 21
245.053
  0
LINE
  8
0
 10
-33.0596
 20
245.053
 11
-33.015
 21
244.828
  0
LINE
  8
0
 10
-33.015
 20
244.828
 11
-33
 21
244.6
  0
LINE
  8
0
 10
-33
 20
244.6
 11
-33.015
 21
244.372
  0
LINE
  8
0
 10
-33.015
 20
244.372
 11
-33.0596
 21
244.147
  0
LINE
  8
0
 10
-33.0596
 20
244.147
 11
-33.1332
 21
243.93
  0
LINE
  8
0
 10
-33.1332
 20
243.93
 11
-33.2345
 21
243.725
  0
LINE
  8
0
 10
-33.2345
 20
243.725
 11
-33.3616
 21
243.535
  0
LINE
  8
0
 10
-33.3616
 20
243.535
 11
-33.5126
 21
243.363
  0
LINE
  8
0
 10
-33.5126
 20
243.363
 11
-33.6847
 21
243.212
  0
LINE
  8
0
 10
-33.6847
 20
243.212
 11
-33.875
 21
243.084
  0
LINE
  8
0
 10
-33.875
 20
243.084
 11
-34.0803
 21
242.983
  0
LINE
  8
0
 10
-34.0803
 20
242.983
 11
-34.2971
 21
242.91
  0
LINE
  8
0
 10
-34.2971
 20
242.91
 11
-34.5216
 21
242.865
  0
LINE
  8
0
 10
-34.5216
 20
242.865
 11
-34.75
 21
242.85
  0
LINE
  8
0
 10
-34.75
 20
242.85
 11
-34.9784
 21
242.865
  0
LINE
  8
0
 10
0.0215759
 20
222.665
 11
-0.202942
 21
222.71
  0
LINE
  8
0
 10
-0.202942
 20
222.71
 11
-0.419708
 21
222.783
  0
LINE
  8
0
 10
-0.419708
 20
222.783
 11
-0.625
 21
222.884
  0
LINE
  8
0
 10
-0.625
 20
222.884
 11
-0.815338
 21
223.012
  0
LINE
  8
0
 10
-0.815338
 20
223.012
 11
-0.987442
 21
223.163
  0
LINE
  8
0
 10
-0.987442
 20
223.163
 11
-1.13838
 21
223.335
  0
LINE
  8
0
 10
-1.13838
 20
223.335
 11
-1.26555
 21
223.525
  0
LINE
  8
0
 10
-1.26555
 20
223.525
 11
-1.36679
 21
223.73
  0
LINE
  8
0
 10
-1.36679
 20
223.73
 11
-1.44038
 21
223.947
  0
LINE
  8
0
 10
-1.44038
 20
223.947
 11
-1.48503
 21
224.172
  0
LINE
  8
0
 10
-1.48503
 20
224.172
 11
-1.5
 21
224.4
  0
LINE
  8
0
 10
-1.5
 20
224.4
 11
-1.48503
 21
224.628
  0
LINE
  8
0
 10
-1.48503
 20
224.628
 11
-1.44038
 21
224.853
  0
LINE
  8
0
 10
-1.44038
 20
224.853
 11
-1.36679
 21
225.07
  0
LINE
  8
0
 10
-1.36679
 20
225.07
 11
-1.26555
 21
225.275
  0
LINE
  8
0
 10
-1.26555
 20
225.275
 11
-1.13838
 21
225.465
  0
LINE
  8
0
 10
-1.13838
 20
225.465
 11
-0.987442
 21
225.637
  0
LINE
  8
0
 10
-0.987442
 20
225.637
 11
-0.815338
 21
225.788
  0
LINE
  8
0
 10
-0.815338
 20
225.788
 11
-0.625
 21
225.916
  0
LINE
  8
0
 10
-0.625
 20
225.916
 11
-0.419708
 21
226.017
  0
LINE
  8
0
 10
-0.419708
 20
226.017
 11
-0.202942
 21
226.09
  0
LINE
  8
0
 10
-0.202942
 20
226.09
 11
0.0215759
 21
226.135
  0
LINE
  8
0
 10
0.0215759
 20
226.135
 11
0.25
 21
226.15
  0
LINE
  8
0
 10
0.25
 20
226.15
 11
0.478409
 21
226.135
  0
LINE
  8
0
 10
0.478409
 20
226.135
 11
0.702927
 21
226.09
  0
LINE
  8
0
 10
0.702927
 20
226.09
 11
0.919693
 21
226.017
  0
LINE
  8
0
 10
0.919693
 20
226.017
 11
1.125
 21
225.916
  0
LINE
  8
0
 10
1.125
 20
225.916
 11
1.31532
 21
225.788
  0
LINE
  8
0
 10
1.31532
 20
225.788
 11
1.48743
 21
225.637
  0
LINE
  8
0
 10
1.48743
 20
225.637
 11
1.63837
 21
225.465
  0
LINE
  8
0
 10
1.63837
 20
225.465
 11
1.76553
 21
225.275
  0
LINE
  8
0
 10
1.76553
 20
225.275
 11
1.86678
 21
225.07
  0
LINE
  8
0
 10
1.86678
 20
225.07
 11
1.94037
 21
224.853
  0
LINE
  8
0
 10
1.94037
 20
224.853
 11
1.98502
 21
224.628
  0
LINE
  8
0
 10
1.98502
 20
224.628
 11
2
 21
224.4
  0
LINE
  8
0
 10
2
 20
224.4
 11
1.98502
 21
224.172
  0
LINE
  8
0
 10
1.98502
 20
224.172
 11
1.94037
 21
223.947
  0
LINE
  8
0
 10
1.94037
 20
223.947
 11
1.86678
 21
223.73
  0
LINE
  8
0
 10
1.86678
 20
223.73
 11
1.76553
 21
223.525
  0
LINE
  8
0
 10
1.76553
 20
223.525
 11
1.63837
 21
223.335
  0
LINE
  8
0
 10
1.63837
 20
223.335
 11
1.48743
 21
223.163
  0
LINE
  8
0
 10
1.48743
 20
223.163
 11
1.31532
 21
223.012
  0
LINE
  8
0
 10
1.31532
 20
223.012
 11
1.125
 21
222.884
  0
LINE
  8
0
 10
1.125
 20
222.884
 11
0.919693
 21
222.783
  0
LINE
  8
0
 10
0.919693
 20
222.783
 11
0.702927
 21
222.71
  0
LINE
  8
0
 10
0.702927
 20
222.71
 11
0.478409
 21
222.665
  0
LINE
  8
0
 10
0.478409
 20
222.665
 11
0.25
 21
222.65
  0
LINE
  8
0
 10
0.25
 20
222.65
 11
0.0215759
 21
222.665
  0
LINE
  8
0
 10
-34.9784
 20
222.665
 11
-35.2029
 21
222.71
  0
LINE
  8
0
 10
-35.2029
 20
222.71
 11
-35.4197
 21
222.783
  0
LINE
  8
0
 10
-35.4197
 20
222.783
 11
-35.625
 21
222.884
  0
LINE
  8
0
 10
-35.625
 20
222.884
 11
-35.8153
 21
223.012
  0
LINE
  8
0
 10
-35.8153
 20
223.012
 11
-35.9874
 21
223.163
  0
LINE
  8
0
 10
-35.9874
 20
223.163
 11
-36.1384
 21
223.335
  0
LINE
  8
0
 10
-36.1384
 20
223.335
 11
-36.2655
 21
223.525
  0
LINE
  8
0
 10
-36.2655
 20
223.525
 11
-36.3668
 21
223.73
  0
LINE
  8
0
 10
-36.3668
 20
223.73
 11
-36.4404
 21
223.947
  0
LINE
  8
0
 10
-36.4404
 20
223.947
 11
-36.485
 21
224.172
  0
LINE
  8
0
 10
-36.485
 20
224.172
 11
-36.5
 21
224.4
  0
LINE
  8
0
 10
-36.5
 20
224.4
 11
-36.485
 21
224.628
  0
LINE
  8
0
 10
-36.485
 20
224.628
 11
-36.4404
 21
224.853
  0
LINE
  8
0
 10
-36.4404
 20
224.853
 11
-36.3668
 21
225.07
  0
LINE
  8
0
 10
-36.3668
 20
225.07
 11
-36.2655
 21
225.275
  0
LINE
  8
0
 10
-36.2655
 20
225.275
 11
-36.1384
 21
225.465
  0
LINE
  8
0
 10
-36.1384
 20
225.465
 11
-35.9874
 21
225.637
  0
LINE
  8
0
 10
-35.9874
 20
225.637
 11
-35.8153
 21
225.788
  0
LINE
  8
0
 10
-35.8153
 20
225.788
 11
-35.625
 21
225.916
  0
LINE
  8
0
 10
-35.625
 20
225.916
 11
-35.4197
 21
226.017
  0
LINE
  8
0
 10
-35.4197
 20
226.017
 11
-35.2029
 21
226.09
  0
LINE
  8
0
 10
-35.2029
 20
226.09
 11
-34.9784
 21
226.135
  0
LINE
  8
0
 10
-34.9784
 20
226.135
 11
-34.75
 21
226.15
  0
LINE
  8
0
 10
-34.75
 20
226.15
 11
-34.5216
 21
226.135
  0
LINE
  8
0
 10
-34.5216
 20
226.135
 11
-34.2971
 21
226.09
  0
LINE
  8
0
 10
-34.2971
 20
226.09
 11
-34.0803
 21
226.017
  0
LINE
  8
0
 10
-34.0803
 20
226.017
 11
-33.875
 21
225.916
  0
LINE
  8
0
 10
-33.875
 20
225.916
 11
-33.6847
 21
225.788
  0
LINE
  8
0
 10
-33.6847
 20
225.788
 11
-33.5126
 21
225.637
  0
LINE
  8
0
 10
-33.5126
 20
225.637
 11
-33.3616
 21
225.465
  0
LINE
  8
0
 10
-33.3616
 20
225.465
 11
-33.2345
 21
225.275
  0
LINE
  8
0
 10
-33.2345
 20
225.275
 11
-33.1332
 21
225.07
  0
LINE
  8
0
 10
-33.1332
 20
225.07
 11
-33.0596
 21
224.853
  0
LINE
  8
0
 10
-33.0596
 20
224.853
 11
-33.015
 21
224.628
  0
LINE
  8
0
 10
-33.015
 20
224.628
 11
-33
 21
224.4
  0
LINE
  8
0
 10
-33
 20
224.4
 11
-33.015
 21
224.172
  0
LINE
  8
0
 10
-33.015
 20
224.172
 11
-33.0596
 21
223.947
  0
LINE
  8
0
 10
-33.0596
 20
223.947
 11
-33.1332
 21
223.73
  0
LINE
  8
0
 10
-33.1332
 20
223.73
 11
-33.2345
 21
223.525
  0
LINE
  8
0
 10
-33.2345
 20
223.525
 11
-33.3616
 21
223.335
  0
LINE
  8
0
 10
-33.3616
 20
223.335
 11
-33.5126
 21
223.163
  0
LINE
  8
0
 10
-33.5126
 20
223.163
 11
-33.6847
 21
223.012
  0
LINE
  8
0
 10
-33.6847
 20
223.012
 11
-33.875
 21
222.884
  0
LINE
  8
0
 10
-33.875
 20
222.884
 11
-34.0803
 21
222.783
  0
LINE
  8
0
 10
-34.0803
 20
222.783
 11
-34.2971
 21
222.71
  0
LINE
  8
0
 10
-34.2971
 20
222.71
 11
-34.5216
 21
222.665
  0
LINE
  8
0
 10
-34.5216
 20
222.665
 11
-34.75
 21
222.65
  0
LINE
  8
0
 10
-34.75
 20
222.65
 11
-34.9784
 21
222.665
  0
LINE
  8
0
 10
230.634
 20
196.728
 11
231.584
 21
196.902
  0
LINE
  8
0
 10
231.584
 20
196.902
 11
232.506
 21
197.189
  0
LINE
  8
0
 10
232.506
 20
197.189
 11
233.387
 21
197.586
  0
LINE
  8
0
 10
233.387
 20
197.586
 11
234.214
 21
198.086
  0
LINE
  8
0
 10
234.214
 20
198.086
 11
234.974
 21
198.681
  0
LINE
  8
0
 10
234.974
 20
198.681
 11
235.658
 21
199.364
  0
LINE
  8
0
 10
235.658
 20
199.364
 11
236.253
 21
200.125
  0
LINE
  8
0
 10
236.253
 20
200.125
 11
236.753
 21
200.952
  0
LINE
  8
0
 10
236.753
 20
200.952
 11
237.15
 21
201.833
  0
LINE
  8
0
 10
237.15
 20
201.833
 11
237.437
 21
202.755
  0
LINE
  8
0
 10
237.437
 20
202.755
 11
237.611
 21
203.705
  0
LINE
  8
0
 10
237.611
 20
203.705
 11
237.669
 21
204.669
  0
LINE
  8
0
 10
237.669
 20
204.669
 11
237.669
 21
208.169
  0
LINE
  8
0
 10
237.669
 20
208.169
 11
237.738
 21
208.687
  0
LINE
  8
0
 10
237.738
 20
208.687
 11
237.937
 21
209.169
  0
LINE
  8
0
 10
237.937
 20
209.169
 11
238.255
 21
209.584
  0
LINE
  8
0
 10
238.255
 20
209.584
 11
238.669
 21
209.901
  0
LINE
  8
0
 10
238.669
 20
209.901
 11
239.152
 21
210.101
  0
LINE
  8
0
 10
239.152
 20
210.101
 11
239.669
 21
210.169
  0
LINE
  8
0
 10
239.669
 20
210.169
 11
241.669
 21
210.169
  0
LINE
  8
0
 10
241.669
 20
210.169
 11
242.634
 21
210.228
  0
LINE
  8
0
 10
242.634
 20
210.228
 11
243.584
 21
210.402
  0
LINE
  8
0
 10
243.584
 20
210.402
 11
244.506
 21
210.689
  0
LINE
  8
0
 10
244.506
 20
210.689
 11
245.387
 21
211.086
  0
LINE
  8
0
 10
245.387
 20
211.086
 11
246.214
 21
211.586
  0
LINE
  8
0
 10
246.214
 20
211.586
 11
246.974
 21
212.181
  0
LINE
  8
0
 10
246.974
 20
212.181
 11
247.658
 21
212.864
  0
LINE
  8
0
 10
247.658
 20
212.864
 11
248.253
 21
213.625
  0
LINE
  8
0
 10
248.253
 20
213.625
 11
248.753
 21
214.452
  0
LINE
  8
0
 10
248.753
 20
214.452
 11
249.15
 21
215.333
  0
LINE
  8
0
 10
249.15
 20
215.333
 11
249.437
 21
216.255
  0
LINE
  8
0
 10
249.437
 20
216.255
 11
249.611
 21
217.205
  0
LINE
  8
0
 10
249.611
 20
217.205
 11
249.669
 21
218.169
  0
LINE
  8
0
 10
249.669
 20
218.169
 11
249.669
 21
223.169
  0
LINE
  8
0
 10
249.669
 20
223.169
 11
249.611
 21
224.134
  0
LINE
  8
0
 10
249.611
 20
224.134
 11
249.437
 21
225.084
  0
LINE
  8
0
 10
249.437
 20
225.084
 11
249.15
 21
226.006
  0
LINE
  8
0
 10
249.15
 20
226.006
 11
248.753
 21
226.887
  0
LINE
  8
0
 10
248.753
 20
226.887
 11
248.253
 21
227.714
  0
LINE
  8
0
 10
248.253
 20
227.714
 11
247.658
 21
228.474
  0
LINE
  8
0
 10
247.658
 20
228.474
 11
246.974
 21
229.158
  0
LINE
  8
0
 10
246.974
 20
229.158
 11
246.214
 21
229.753
  0
LINE
  8
0
 10
246.214
 20
229.753
 11
245.387
 21
230.253
  0
LINE
  8
0
 10
245.387
 20
230.253
 11
244.506
 21
230.65
  0
LINE
  8
0
 10
244.506
 20
230.65
 11
243.584
 21
230.937
  0
LINE
  8
0
 10
243.584
 20
230.937
 11
242.634
 21
231.111
  0
LINE
  8
0
 10
242.634
 20
231.111
 11
241.669
 21
231.169
  0
LINE
  8
0
 10
241.669
 20
231.169
 11
239.669
 21
231.169
  0
LINE
  8
0
 10
239.669
 20
231.169
 11
239.152
 21
231.238
  0
LINE
  8
0
 10
239.152
 20
231.238
 11
238.669
 21
231.437
  0
LINE
  8
0
 10
238.669
 20
231.437
 11
238.255
 21
231.755
  0
LINE
  8
0
 10
238.255
 20
231.755
 11
237.937
 21
232.169
  0
LINE
  8
0
 10
237.937
 20
232.169
 11
237.738
 21
232.652
  0
LINE
  8
0
 10
237.738
 20
232.652
 11
237.669
 21
233.169
  0
LINE
  8
0
 10
237.669
 20
233.169
 11
237.669
 21
236.669
  0
LINE
  8
0
 10
237.669
 20
236.669
 11
237.611
 21
237.634
  0
LINE
  8
0
 10
237.611
 20
237.634
 11
237.437
 21
238.584
  0
LINE
  8
0
 10
237.437
 20
238.584
 11
237.15
 21
239.506
  0
LINE
  8
0
 10
237.15
 20
239.506
 11
236.753
 21
240.387
  0
LINE
  8
0
 10
236.753
 20
240.387
 11
236.253
 21
241.214
  0
LINE
  8
0
 10
236.253
 20
241.214
 11
235.658
 21
241.974
  0
LINE
  8
0
 10
235.658
 20
241.974
 11
234.974
 21
242.658
  0
LINE
  8
0
 10
234.974
 20
242.658
 11
234.214
 21
243.253
  0
LINE
  8
0
 10
234.214
 20
243.253
 11
233.387
 21
243.753
  0
LINE
  8
0
 10
233.387
 20
243.753
 11
232.506
 21
244.15
  0
LINE
  8
0
 10
232.506
 20
244.15
 11
231.584
 21
244.437
  0
LINE
  8
0
 10
231.584
 20
244.437
 11
230.634
 21
244.611
  0
LINE
  8
0
 10
230.634
 20
244.611
 11
229.669
 21
244.669
  0
LINE
  8
0
 10
229.669
 20
244.669
 11
216.669
 21
244.669
  0
LINE
  8
0
 10
216.669
 20
244.669
 11
216.669
 21
196.669
  0
LINE
  8
0
 10
216.669
 20
196.669
 11
229.669
 21
196.669
  0
LINE
  8
0
 10
229.669
 20
196.669
 11
230.634
 21
196.728
  0
LINE
  8
0
 10
226.941
 20
235.934
 11
226.717
 21
235.979
  0
LINE
  8
0
 10
226.717
 20
235.979
 11
226.5
 21
236.053
  0
LINE
  8
0
 10
226.5
 20
236.053
 11
226.294
 21
236.154
  0
LINE
  8
0
 10
226.294
 20
236.154
 11
226.104
 21
236.281
  0
LINE
  8
0
 10
226.104
 20
236.281
 11
225.932
 21
236.432
  0
LINE
  8
0
 10
225.932
 20
236.432
 11
225.781
 21
236.604
  0
LINE
  8
0
 10
225.781
 20
236.604
 11
225.654
 21
236.794
  0
LINE
  8
0
 10
225.654
 20
236.794
 11
225.553
 21
237
  0
LINE
  8
0
 10
225.553
 20
237
 11
225.479
 21
237.216
  0
LINE
  8
0
 10
225.479
 20
237.216
 11
225.434
 21
237.441
  0
LINE
  8
0
 10
225.434
 20
237.441
 11
225.419
 21
237.669
  0
LINE
  8
0
 10
225.419
 20
237.669
 11
225.434
 21
237.898
  0
LINE
  8
0
 10
225.434
 20
237.898
 11
225.479
 21
238.122
  0
LINE
  8
0
 10
225.479
 20
238.122
 11
225.553
 21
238.339
  0
LINE
  8
0
 10
225.553
 20
238.339
 11
225.654
 21
238.544
  0
LINE
  8
0
 10
225.654
 20
238.544
 11
225.781
 21
238.735
  0
LINE
  8
0
 10
225.781
 20
238.735
 11
225.932
 21
238.907
  0
LINE
  8
0
 10
225.932
 20
238.907
 11
226.104
 21
239.058
  0
LINE
  8
0
 10
226.104
 20
239.058
 11
226.294
 21
239.185
  0
LINE
  8
0
 10
226.294
 20
239.185
 11
226.5
 21
239.286
  0
LINE
  8
0
 10
226.5
 20
239.286
 11
226.717
 21
239.36
  0
LINE
  8
0
 10
226.717
 20
239.36
 11
226.941
 21
239.404
  0
LINE
  8
0
 10
226.941
 20
239.404
 11
227.169
 21
239.419
  0
LINE
  8
0
 10
227.169
 20
239.419
 11
227.398
 21
239.404
  0
LINE
  8
0
 10
227.398
 20
239.404
 11
227.622
 21
239.36
  0
LINE
  8
0
 10
227.622
 20
239.36
 11
227.839
 21
239.286
  0
LINE
  8
0
 10
227.839
 20
239.286
 11
228.044
 21
239.185
  0
LINE
  8
0
 10
228.044
 20
239.185
 11
228.235
 21
239.058
  0
LINE
  8
0
 10
228.235
 20
239.058
 11
228.407
 21
238.907
  0
LINE
  8
0
 10
228.407
 20
238.907
 11
228.558
 21
238.735
  0
LINE
  8
0
 10
228.558
 20
238.735
 11
228.685
 21
238.544
  0
LINE
  8
0
 10
228.685
 20
238.544
 11
228.786
 21
238.339
  0
LINE
  8
0
 10
228.786
 20
238.339
 11
228.86
 21
238.122
  0
LINE
  8
0
 10
228.86
 20
238.122
 11
228.904
 21
237.898
  0
LINE
  8
0
 10
228.904
 20
237.898
 11
228.919
 21
237.669
  0
LINE
  8
0
 10
228.919
 20
237.669
 11
228.904
 21
237.441
  0
LINE
  8
0
 10
228.904
 20
237.441
 11
228.86
 21
237.216
  0
LINE
  8
0
 10
228.86
 20
237.216
 11
228.786
 21
237
  0
LINE
  8
0
 10
228.786
 20
237
 11
228.685
 21
236.794
  0
LINE
  8
0
 10
228.685
 20
236.794
 11
228.558
 21
236.604
  0
LINE
  8
0
 10
228.558
 20
236.604
 11
228.407
 21
236.432
  0
LINE
  8
0
 10
228.407
 20
236.432
 11
228.235
 21
236.281
  0
LINE
  8
0
 10
228.235
 20
236.281
 11
228.044
 21
236.154
  0
LINE
  8
0
 10
228.044
 20
236.154
 11
227.839
 21
236.053
  0
LINE
  8
0
 10
227.839
 20
236.053
 11
227.622
 21
235.979
  0
LINE
  8
0
 10
227.622
 20
235.979
 11
227.398
 21
235.934
  0
LINE
  8
0
 10
227.398
 20
235.934
 11
227.169
 21
235.919
  0
LINE
  8
0
 10
227.169
 20
235.919
 11
226.941
 21
235.934
  0
LINE
  8
0
 10
240.941
 20
218.934
 11
240.716
 21
218.979
  0
LINE
  8
0
 10
240.716
 20
218.979
 11
240.5
 21
219.053
  0
LINE
  8
0
 10
240.5
 20
219.053
 11
240.294
 21
219.154
  0
LINE
  8
0
 10
240.294
 20
219.154
 11
240.104
 21
219.281
  0
LINE
  8
0
 10
240.104
 20
219.281
 11
239.932
 21
219.432
  0
LINE
  8
0
 10
239.932
 20
219.432
 11
239.781
 21
219.604
  0
LINE
  8
0
 10
239.781
 20
219.604
 11
239.654
 21
219.794
  0
LINE
  8
0
 10
239.654
 20
219.794
 11
239.553
 21
220
  0
LINE
  8
0
 10
239.553
 20
220
 11
239.479
 21
220.217
  0
LINE
  8
0
 10
239.479
 20
220.217
 11
239.434
 21
220.441
  0
LINE
  8
0
 10
239.434
 20
220.441
 11
239.419
 21
220.669
  0
LINE
  8
0
 10
239.419
 20
220.669
 11
239.434
 21
220.898
  0
LINE
  8
0
 10
239.434
 20
220.898
 11
239.479
 21
221.122
  0
LINE
  8
0
 10
239.479
 20
221.122
 11
239.553
 21
221.339
  0
LINE
  8
0
 10
239.553
 20
221.339
 11
239.654
 21
221.544
  0
LINE
  8
0
 10
239.654
 20
221.544
 11
239.781
 21
221.735
  0
LINE
  8
0
 10
239.781
 20
221.735
 11
239.932
 21
221.907
  0
LINE
  8
0
 10
239.932
 20
221.907
 11
240.104
 21
222.058
  0
LINE
  8
0
 10
240.104
 20
222.058
 11
240.294
 21
222.185
  0
LINE
  8
0
 10
240.294
 20
222.185
 11
240.5
 21
222.286
  0
LINE
  8
0
 10
240.5
 20
222.286
 11
240.716
 21
222.36
  0
LINE
  8
0
 10
240.716
 20
222.36
 11
240.941
 21
222.404
  0
LINE
  8
0
 10
240.941
 20
222.404
 11
241.169
 21
222.419
  0
LINE
  8
0
 10
241.169
 20
222.419
 11
241.398
 21
222.404
  0
LINE
  8
0
 10
241.398
 20
222.404
 11
241.622
 21
222.36
  0
LINE
  8
0
 10
241.622
 20
222.36
 11
241.839
 21
222.286
  0
LINE
  8
0
 10
241.839
 20
222.286
 11
242.044
 21
222.185
  0
LINE
  8
0
 10
242.044
 20
222.185
 11
242.235
 21
222.058
  0
LINE
  8
0
 10
242.235
 20
222.058
 11
242.407
 21
221.907
  0
LINE
  8
0
 10
242.407
 20
221.907
 11
242.558
 21
221.735
  0
LINE
  8
0
 10
242.558
 20
221.735
 11
242.685
 21
221.544
  0
LINE
  8
0
 10
242.685
 20
221.544
 11
242.786
 21
221.339
  0
LINE
  8
0
 10
242.786
 20
221.339
 11
242.86
 21
221.122
  0
LINE
  8
0
 10
242.86
 20
221.122
 11
242.904
 21
220.898
  0
LINE
  8
0
 10
242.904
 20
220.898
 11
242.919
 21
220.669
  0
LINE
  8
0
 10
242.919
 20
220.669
 11
242.904
 21
220.441
  0
LINE
  8
0
 10
242.904
 20
220.441
 11
242.86
 21
220.217
  0
LINE
  8
0
 10
242.86
 20
220.217
 11
242.786
 21
220
  0
LINE
  8
0
 10
242.786
 20
220
 11
242.685
 21
219.794
  0
LINE
  8
0
 10
242.685
 20
219.794
 11
242.558
 21
219.604
  0
LINE
  8
0
 10
242.558
 20
219.604
 11
242.407
 21
219.432
  0
LINE
  8
0
 10
242.407
 20
219.432
 11
242.235
 21
219.281
  0
LINE
  8
0
 10
242.235
 20
219.281
 11
242.044
 21
219.154
  0
LINE
  8
0
 10
242.044
 20
219.154
 11
241.839
 21
219.053
  0
LINE
  8
0
 10
241.839
 20
219.053
 11
241.622
 21
218.979
  0
LINE
  8
0
 10
241.622
 20
218.979
 11
241.398
 21
218.934
  0
LINE
  8
0
 10
241.398
 20
218.934
 11
241.169
 21
218.919
  0
LINE
  8
0
 10
241.169
 20
218.919
 11
240.941
 21
218.934
  0
LINE
  8
0
 10
226.941
 20
201.934
 11
226.717
 21
201.979
  0
LINE
  8
0
 10
226.717
 20
201.979
 11
226.5
 21
202.053
  0
LINE
  8
0
 10
226.5
 20
202.053
 11
226.294
 21
202.154
  0
LINE
  8
0
 10
226.294
 20
202.154
 11
226.104
 21
202.281
  0
LINE
  8
0
 10
226.104
 20
202.281
 11
225.932
 21
202.432
  0
LINE
  8
0
 10
225.932
 20
202.432
 11
225.781
 21
202.604
  0
LINE
  8
0
 10
225.781
 20
202.604
 11
225.654
 21
202.794
  0
LINE
  8
0
 10
225.654
 20
202.794
 11
225.553
 21
203
  0
LINE
  8
0
 10
225.553
 20
203
 11
225.479
 21
203.217
  0
LINE
  8
0
 10
225.479
 20
203.217
 11
225.434
 21
203.441
  0
LINE
  8
0
 10
225.434
 20
203.441
 11
225.419
 21
203.669
  0
LINE
  8
0
 10
225.419
 20
203.669
 11
225.434
 21
203.898
  0
LINE
  8
0
 10
225.434
 20
203.898
 11
225.479
 21
204.122
  0
LINE
  8
0
 10
225.479
 20
204.122
 11
225.553
 21
204.339
  0
LINE
  8
0
 10
225.553
 20
204.339
 11
225.654
 21
204.544
  0
LINE
  8
0
 10
225.654
 20
204.544
 11
225.781
 21
204.735
  0
LINE
  8
0
 10
225.781
 20
204.735
 11
225.932
 21
204.907
  0
LINE
  8
0
 10
225.932
 20
204.907
 11
226.104
 21
205.058
  0
LINE
  8
0
 10
226.104
 20
205.058
 11
226.294
 21
205.185
  0
LINE
  8
0
 10
226.294
 20
205.185
 11
226.5
 21
205.286
  0
LINE
  8
0
 10
226.5
 20
205.286
 11
226.717
 21
205.36
  0
LINE
  8
0
 10
226.717
 20
205.36
 11
226.941
 21
205.404
  0
LINE
  8
0
 10
226.941
 20
205.404
 11
227.169
 21
205.419
  0
LINE
  8
0
 10
227.169
 20
205.419
 11
227.398
 21
205.404
  0
LINE
  8
0
 10
227.398
 20
205.404
 11
227.622
 21
205.36
  0
LINE
  8
0
 10
227.622
 20
205.36
 11
227.839
 21
205.286
  0
LINE
  8
0
 10
227.839
 20
205.286
 11
228.044
 21
205.185
  0
LINE
  8
0
 10
228.044
 20
205.185
 11
228.235
 21
205.058
  0
LINE
  8
0
 10
228.235
 20
205.058
 11
228.407
 21
204.907
  0
LINE
  8
0
 10
228.407
 20
204.907
 11
228.558
 21
204.735
  0
LINE
  8
0
 10
228.558
 20
204.735
 11
228.685
 21
204.544
  0
LINE
  8
0
 10
228.685
 20
204.544
 11
228.786
 21
204.339
  0
LINE
  8
0
 10
228.786
 20
204.339
 11
228.86
 21
204.122
  0
LINE
  8
0
 10
228.86
 20
204.122
 11
228.904
 21
203.898
  0
LINE
  8
0
 10
228.904
 20
203.898
 11
228.919
 21
203.669
  0
LINE
  8
0
 10
228.919
 20
203.669
 11
228.904
 21
203.441
  0
LINE
  8
0
 10
228.904
 20
203.441
 11
228.86
 21
203.217
  0
LINE
  8
0
 10
228.86
 20
203.217
 11
228.786
 21
203
  0
LINE
  8
0
 10
228.786
 20
203
 11
228.685
 21
202.794
  0
LINE
  8
0
 10
228.685
 20
202.794
 11
228.558
 21
202.604
  0
LINE
  8
0
 10
228.558
 20
202.604
 11
228.407
 21
202.432
  0
LINE
  8
0
 10
228.407
 20
202.432
 11
228.235
 21
202.281
  0
LINE
  8
0
 10
228.235
 20
202.281
 11
228.044
 21
202.154
  0
LINE
  8
0
 10
228.044
 20
202.154
 11
227.839
 21
202.053
  0
LINE
  8
0
 10
227.839
 20
202.053
 11
227.622
 21
201.979
  0
LINE
  8
0
 10
227.622
 20
201.979
 11
227.398
 21
201.934
  0
LINE
  8
0
 10
227.398
 20
201.934
 11
227.169
 21
201.919
  0
LINE
  8
0
 10
227.169
 20
201.919
 11
226.941
 21
201.934
  0
LINE
  8
0
 10
-216.669
 20
244.669
 11
-229.669
 21
244.669
  0
LINE
  8
0
 10
-229.669
 20
244.669
 11
-230.634
 21
244.611
  0
LINE
  8
0
 10
-230.634
 20
244.611
 11
-231.584
 21
244.437
  0
LINE
  8
0
 10
-231.584
 20
244.437
 11
-232.506
 21
244.15
  0
LINE
  8
0
 10
-232.506
 20
244.15
 11
-233.387
 21
243.753
  0
LINE
  8
0
 10
-233.387
 20
243.753
 11
-234.214
 21
243.253
  0
LINE
  8
0
 10
-234.214
 20
243.253
 11
-234.974
 21
242.658
  0
LINE
  8
0
 10
-234.974
 20
242.658
 11
-235.658
 21
241.974
  0
LINE
  8
0
 10
-235.658
 20
241.974
 11
-236.253
 21
241.214
  0
LINE
  8
0
 10
-236.253
 20
241.214
 11
-236.753
 21
240.387
  0
LINE
  8
0
 10
-236.753
 20
240.387
 11
-237.15
 21
239.506
  0
LINE
  8
0
 10
-237.15
 20
239.506
 11
-237.437
 21
238.584
  0
LINE
  8
0
 10
-237.437
 20
238.584
 11
-237.611
 21
237.634
  0
LINE
  8
0
 10
-237.611
 20
237.634
 11
-237.669
 21
236.669
  0
LINE
  8
0
 10
-237.669
 20
236.669
 11
-237.669
 21
233.169
  0
LINE
  8
0
 10
-237.669
 20
233.169
 11
-237.738
 21
232.652
  0
LINE
  8
0
 10
-237.738
 20
232.652
 11
-237.937
 21
232.169
  0
LINE
  8
0
 10
-237.937
 20
232.169
 11
-238.255
 21
231.755
  0
LINE
  8
0
 10
-238.255
 20
231.755
 11
-238.669
 21
231.437
  0
LINE
  8
0
 10
-238.669
 20
231.437
 11
-239.152
 21
231.238
  0
LINE
  8
0
 10
-239.152
 20
231.238
 11
-239.669
 21
231.169
  0
LINE
  8
0
 10
-239.669
 20
231.169
 11
-241.669
 21
231.169
  0
LINE
  8
0
 10
-241.669
 20
231.169
 11
-242.634
 21
231.111
  0
LINE
  8
0
 10
-242.634
 20
231.111
 11
-243.584
 21
230.937
  0
LINE
  8
0
 10
-243.584
 20
230.937
 11
-244.506
 21
230.65
  0
LINE
  8
0
 10
-244.506
 20
230.65
 11
-245.387
 21
230.253
  0
LINE
  8
0
 10
-245.387
 20
230.253
 11
-246.214
 21
229.753
  0
LINE
  8
0
 10
-246.214
 20
229.753
 11
-246.974
 21
229.158
  0
LINE
  8
0
 10
-246.974
 20
229.158
 11
-247.658
 21
228.474
  0
LINE
  8
0
 10
-247.658
 20
228.474
 11
-248.253
 21
227.714
  0
LINE
  8
0
 10
-248.253
 20
227.714
 11
-248.753
 21
226.887
  0
LINE
  8
0
 10
-248.753
 20
226.887
 11
-249.15
 21
226.006
  0
LINE
  8
0
 10
-249.15
 20
226.006
 11
-249.437
 21
225.084
  0
LINE
  8
0
 10
-249.437
 20
225.084
 11
-249.611
 21
224.134
  0
LINE
  8
0
 10
-249.611
 20
224.134
 11
-249.669
 21
223.169
  0
LINE
  8
0
 10
-249.669
 20
223.169
 11
-249.669
 21
218.169
  0
LINE
  8
0
 10
-249.669
 20
218.169
 11
-249.611
 21
217.205
  0
LINE
  8
0
 10
-249.611
 20
217.205
 11
-249.437
 21
216.255
  0
LINE
  8
0
 10
-249.437
 20
216.255
 11
-249.15
 21
215.333
  0
LINE
  8
0
 10
-249.15
 20
215.333
 11
-248.753
 21
214.452
  0
LINE
  8
0
 10
-248.753
 20
214.452
 11
-248.253
 21
213.625
  0
LINE
  8
0
 10
-248.253
 20
213.625
 11
-247.658
 21
212.864
  0
LINE
  8
0
 10
-247.658
 20
212.864
 11
-246.974
 21
212.181
  0
LINE
  8
0
 10
-246.974
 20
212.181
 11
-246.214
 21
211.586
  0
LINE
  8
0
 10
-246.214
 20
211.586
 11
-245.387
 21
211.086
  0
LINE
  8
0
 10
-245.387
 20
211.086
 11
-244.506
 21
210.689
  0
LINE
  8
0
 10
-244.506
 20
210.689
 11
-243.584
 21
210.402
  0
LINE
  8
0
 10
-243.584
 20
210.402
 11
-242.634
 21
210.228
  0
LINE
  8
0
 10
-242.634
 20
210.228
 11
-241.669
 21
210.169
  0
LINE
  8
0
 10
-241.669
 20
210.169
 11
-239.669
 21
210.169
  0
LINE
  8
0
 10
-239.669
 20
210.169
 11
-239.152
 21
210.101
  0
LINE
  8
0
 10
-239.152
 20
210.101
 11
-238.669
 21
209.901
  0
LINE
  8
0
 10
-238.669
 20
209.901
 11
-238.255
 21
209.584
  0
LINE
  8
0
 10
-238.255
 20
209.584
 11
-237.937
 21
209.169
  0
LINE
  8
0
 10
-237.937
 20
209.169
 11
-237.738
 21
208.687
  0
LINE
  8
0
 10
-237.738
 20
208.687
 11
-237.669
 21
208.169
  0
LINE
  8
0
 10
-237.669
 20
208.169
 11
-237.669
 21
204.669
  0
LINE
  8
0
 10
-237.669
 20
204.669
 11
-237.611
 21
203.705
  0
LINE
  8
0
 10
-237.611
 20
203.705
 11
-237.437
 21
202.755
  0
LINE
  8
0
 10
-237.437
 20
202.755
 11
-237.15
 21
201.833
  0
LINE
  8
0
 10
-237.15
 20
201.833
 11
-236.753
 21
200.952
  0
LINE
  8
0
 10
-236.753
 20
200.952
 11
-236.253
 21
200.125
  0
LINE
  8
0
 10
-236.253
 20
200.125
 11
-235.658
 21
199.364
  0
LINE
  8
0
 10
-235.658
 20
199.364
 11
-234.974
 21
198.681
  0
LINE
  8
0
 10
-234.974
 20
198.681
 11
-234.214
 21
198.086
  0
LINE
  8
0
 10
-234.214
 20
198.086
 11
-233.387
 21
197.586
  0
LINE
  8
0
 10
-233.387
 20
197.586
 11
-232.506
 21
197.189
  0
LINE
  8
0
 10
-232.506
 20
197.189
 11
-231.584
 21
196.902
  0
LINE
  8
0
 10
-231.584
 20
196.902
 11
-230.634
 21
196.728
  0
LINE
  8
0
 10
-230.634
 20
196.728
 11
-229.669
 21
196.669
  0
LINE
  8
0
 10
-229.669
 20
196.669
 11
-216.669
 21
196.669
  0
LINE
  8
0
 10
-216.669
 20
196.669
 11
-216.669
 21
244.669
  0
LINE
  8
0
 10
-227.398
 20
235.934
 11
-227.622
 21
235.979
  0
LINE
  8
0
 10
-227.622
 20
235.979
 11
-227.839
 21
236.053
  0
LINE
  8
0
 10
-227.839
 20
236.053
 11
-228.044
 21
236.154
  0
LINE
  8
0
 10
-228.044
 20
236.154
 11
-228.235
 21
236.281
  0
LINE
  8
0
 10
-228.235
 20
236.281
 11
-228.407
 21
236.432
  0
LINE
  8
0
 10
-228.407
 20
236.432
 11
-228.558
 21
236.604
  0
LINE
  8
0
 10
-228.558
 20
236.604
 11
-228.685
 21
236.794
  0
LINE
  8
0
 10
-228.685
 20
236.794
 11
-228.786
 21
237
  0
LINE
  8
0
 10
-228.786
 20
237
 11
-228.86
 21
237.216
  0
LINE
  8
0
 10
-228.86
 20
237.216
 11
-228.904
 21
237.441
  0
LINE
  8
0
 10
-228.904
 20
237.441
 11
-228.919
 21
237.669
  0
LINE
  8
0
 10
-228.919
 20
237.669
 11
-228.904
 21
237.898
  0
LINE
  8
0
 10
-228.904
 20
237.898
 11
-228.86
 21
238.122
  0
LINE
  8
0
 10
-228.86
 20
238.122
 11
-228.786
 21
238.339
  0
LINE
  8
0
 10
-228.786
 20
238.339
 11
-228.685
 21
238.544
  0
LINE
  8
0
 10
-228.685
 20
238.544
 11
-228.558
 21
238.735
  0
LINE
  8
0
 10
-228.558
 20
238.735
 11
-228.407
 21
238.907
  0
LINE
  8
0
 10
-228.407
 20
238.907
 11
-228.235
 21
239.058
  0
LINE
  8
0
 10
-228.235
 20
239.058
 11
-228.044
 21
239.185
  0
LINE
  8
0
 10
-228.044
 20
239.185
 11
-227.839
 21
239.286
  0
LINE
  8
0
 10
-227.839
 20
239.286
 11
-227.622
 21
239.36
  0
LINE
  8
0
 10
-227.622
 20
239.36
 11
-227.398
 21
239.404
  0
LINE
  8
0
 10
-227.398
 20
239.404
 11
-227.169
 21
239.419
  0
LINE
  8
0
 10
-227.169
 20
239.419
 11
-226.941
 21
239.404
  0
LINE
  8
0
 10
-226.941
 20
239.404
 11
-226.717
 21
239.36
  0
LINE
  8
0
 10
-226.717
 20
239.36
 11
-226.5
 21
239.286
  0
LINE
  8
0
 10
-226.5
 20
239.286
 11
-226.294
 21
239.185
  0
LINE
  8
0
 10
-226.294
 20
239.185
 11
-226.104
 21
239.058
  0
LINE
  8
0
 10
-226.104
 20
239.058
 11
-225.932
 21
238.907
  0
LINE
  8
0
 10
-225.932
 20
238.907
 11
-225.781
 21
238.735
  0
LINE
  8
0
 10
-225.781
 20
238.735
 11
-225.654
 21
238.544
  0
LINE
  8
0
 10
-225.654
 20
238.544
 11
-225.553
 21
238.339
  0
LINE
  8
0
 10
-225.553
 20
238.339
 11
-225.479
 21
238.122
  0
LINE
  8
0
 10
-225.479
 20
238.122
 11
-225.434
 21
237.898
  0
LINE
  8
0
 10
-225.434
 20
237.898
 11
-225.419
 21
237.669
  0
LINE
  8
0
 10
-225.419
 20
237.669
 11
-225.434
 21
237.441
  0
LINE
  8
0
 10
-225.434
 20
237.441
 11
-225.479
 21
237.216
  0
LINE
  8
0
 10
-225.479
 20
237.216
 11
-225.553
 21
237
  0
LINE
  8
0
 10
-225.553
 20
237
 11
-225.654
 21
236.794
  0
LINE
  8
0
 10
-225.654
 20
236.794
 11
-225.781
 21
236.604
  0
LINE
  8
0
 10
-225.781
 20
236.604
 11
-225.932
 21
236.432
  0
LINE
  8
0
 10
-225.932
 20
236.432
 11
-226.104
 21
236.281
  0
LINE
  8
0
 10
-226.104
 20
236.281
 11
-226.294
 21
236.154
  0
LINE
  8
0
 10
-226.294
 20
236.154
 11
-226.5
 21
236.053
  0
LINE
  8
0
 10
-226.5
 20
236.053
 11
-226.717
 21
235.979
  0
LINE
  8
0
 10
-226.717
 20
235.979
 11
-226.941
 21
235.934
  0
LINE
  8
0
 10
-226.941
 20
235.934
 11
-227.169
 21
235.919
  0
LINE
  8
0
 10
-227.169
 20
235.919
 11
-227.398
 21
235.934
  0
LINE
  8
0
 10
-241.398
 20
218.934
 11
-241.622
 21
218.979
  0
LINE
  8
0
 10
-241.622
 20
218.979
 11
-241.839
 21
219.053
  0
LINE
  8
0
 10
-241.839
 20
219.053
 11
-242.044
 21
219.154
  0
LINE
  8
0
 10
-242.044
 20
219.154
 11
-242.235
 21
219.281
  0
LINE
  8
0
 10
-242.235
 20
219.281
 11
-242.407
 21
219.432
  0
LINE
  8
0
 10
-242.407
 20
219.432
 11
-242.558
 21
219.604
  0
LINE
  8
0
 10
-242.558
 20
219.604
 11
-242.685
 21
219.794
  0
LINE
  8
0
 10
-242.685
 20
219.794
 11
-242.786
 21
220
  0
LINE
  8
0
 10
-242.786
 20
220
 11
-242.86
 21
220.217
  0
LINE
  8
0
 10
-242.86
 20
220.217
 11
-242.904
 21
220.441
  0
LINE
  8
0
 10
-242.904
 20
220.441
 11
-242.919
 21
220.669
  0
LINE
  8
0
 10
-242.919
 20
220.669
 11
-242.904
 21
220.898
  0
LINE
  8
0
 10
-242.904
 20
220.898
 11
-242.86
 21
221.122
  0
LINE
  8
0
 10
-242.86
 20
221.122
 11
-242.786
 21
221.339
  0
LINE
  8
0
 10
-242.786
 20
221.339
 11
-242.685
 21
221.544
  0
LINE
  8
0
 10
-242.685
 20
221.544
 11
-242.558
 21
221.735
  0
LINE
  8
0
 10
-242.558
 20
221.735
 11
-242.407
 21
221.907
  0
LINE
  8
0
 10
-242.407
 20
221.907
 11
-242.235
 21
222.058
  0
LINE
  8
0
 10
-242.235
 20
222.058
 11
-242.044
 21
222.185
  0
LINE
  8
0
 10
-242.044
 20
222.185
 11
-241.839
 21
222.286
  0
LINE
  8
0
 10
-241.839
 20
222.286
 11
-241.622
 21
222.36
  0
LINE
  8
0
 10
-241.622
 20
222.36
 11
-241.398
 21
222.404
  0
LINE
  8
0
 10
-241.398
 20
222.404
 11
-241.169
 21
222.419
  0
LINE
  8
0
 10
-241.169
 20
222.419
 11
-240.941
 21
222.404
  0
LINE
  8
0
 10
-240.941
 20
222.404
 11
-240.716
 21
222.36
  0
LINE
  8
0
 10
-240.716
 20
222.36
 11
-240.5
 21
222.286
  0
LINE
  8
0
 10
-240.5
 20
222.286
 11
-240.294
 21
222.185
  0
LINE
  8
0
 10
-240.294
 20
222.185
 11
-240.104
 21
222.058
  0
LINE
  8
0
 10
-240.104
 20
222.058
 11
-239.932
 21
221.907
  0
LINE
  8
0
 10
-239.932
 20
221.907
 11
-239.781
 21
221.735
  0
LINE
  8
0
 10
-239.781
 20
221.735
 11
-239.654
 21
221.544
  0
LINE
  8
0
 10
-239.654
 20
221.544
 11
-239.553
 21
221.339
  0
LINE
  8
0
 10
-239.553
 20
221.339
 11
-239.479
 21
221.122
  0
LINE
  8
0
 10
-239.479
 20
221.122
 11
-239.434
 21
220.898
  0
LINE
  8
0
 10
-239.434
 20
220.898
 11
-239.419
 21
220.669
  0
LINE
  8
0
 10
-239.419
 20
220.669
 11
-239.434
 21
220.441
  0
LINE
  8
0
 10
-239.434
 20
220.441
 11
-239.479
 21
220.217
  0
LINE
  8
0
 10
-239.479
 20
220.217
 11
-239.553
 21
220
  0
LINE
  8
0
 10
-239.553
 20
220
 11
-239.654
 21
219.794
  0
LINE
  8
0
 10
-239.654
 20
219.794
 11
-239.781
 21
219.604
  0
LINE
  8
0
 10
-239.781
 20
219.604
 11
-239.932
 21
219.432
  0
LINE
  8
0
 10
-239.932
 20
219.432
 11
-240.104
 21
219.281
  0
LINE
  8
0
 10
-240.104
 20
219.281
 11
-240.294
 21
219.154
  0
LINE
  8
0
 10
-240.294
 20
219.154
 11
-240.5
 21
219.053
  0
LINE
  8
0
 10
-240.5
 20
219.053
 11
-240.716
 21
218.979
  0
LINE
  8
0
 10
-240.716
 20
218.979
 11
-240.941
 21
218.934
  0
LINE
  8
0
 10
-240.941
 20
218.934
 11
-241.169
 21
218.919
  0
LINE
  8
0
 10
-241.169
 20
218.919
 11
-241.398
 21
218.934
  0
LINE
  8
0
 10
-227.398
 20
201.934
 11
-227.622
 21
201.979
  0
LINE
  8
0
 10
-227.622
 20
201.979
 11
-227.839
 21
202.053
  0
LINE
  8
0
 10
-227.839
 20
202.053
 11
-228.044
 21
202.154
  0
LINE
  8
0
 10
-228.044
 20
202.154
 11
-228.235
 21
202.281
  0
LINE
  8
0
 10
-228.235
 20
202.281
 11
-228.407
 21
202.432
  0
LINE
  8
0
 10
-228.407
 20
202.432
 11
-228.558
 21
202.604
  0
LINE
  8
0
 10
-228.558
 20
202.604
 11
-228.685
 21
202.794
  0
LINE
  8
0
 10
-228.685
 20
202.794
 11
-228.786
 21
203
  0
LINE
  8
0
 10
-228.786
 20
203
 11
-228.86
 21
203.217
  0
LINE
  8
0
 10
-228.86
 20
203.217
 11
-228.904
 21
203.441
  0
LINE
  8
0
 10
-228.904
 20
203.441
 11
-228.919
 21
203.669
  0
LINE
  8
0
 10
-228.919
 20
203.669
 11
-228.904
 21
203.898
  0
LINE
  8
0
 10
-228.904
 20
203.898
 11
-228.86
 21
204.122
  0
LINE
  8
0
 10
-228.86
 20
204.122
 11
-228.786
 21
204.339
  0
LINE
  8
0
 10
-228.786
 20
204.339
 11
-228.685
 21
204.544
  0
LINE
  8
0
 10
-228.685
 20
204.544
 11
-228.558
 21
204.735
  0
LINE
  8
0
 10
-228.558
 20
204.735
 11
-228.407
 21
204.907
  0
LINE
  8
0
 10
-228.407
 20
204.907
 11
-228.235
 21
205.058
  0
LINE
  8
0
 10
-228.235
 20
205.058
 11
-228.044
 21
205.185
  0
LINE
  8
0
 10
-228.044
 20
205.185
 11
-227.839
 21
205.286
  0
LINE
  8
0
 10
-227.839
 20
205.286
 11
-227.622
 21
205.36
  0
LINE
  8
0
 10
-227.622
 20
205.36
 11
-227.398
 21
205.404
  0
LINE
  8
0
 10
-227.398
 20
205.404
 11
-227.169
 21
205.419
  0
LINE
  8
0
 10
-227.169
 20
205.419
 11
-226.941
 21
205.404
  0
LINE
  8
0
 10
-226.941
 20
205.404
 11
-226.717
 21
205.36
  0
LINE
  8
0
 10
-226.717
 20
205.36
 11
-226.5
 21
205.286
  0
LINE
  8
0
 10
-226.5
 20
205.286
 11
-226.294
 21
205.185
  0
LINE
  8
0
 10
-226.294
 20
205.185
 11
-226.104
 21
205.058
  0
LINE
  8
0
 10
-226.104
 20
205.058
 11
-225.932
 21
204.907
  0
LINE
  8
0
 10
-225.932
 20
204.907
 11
-225.781
 21
204.735
  0
LINE
  8
0
 10
-225.781
 20
204.735
 11
-225.654
 21
204.544
  0
LINE
  8
0
 10
-225.654
 20
204.544
 11
-225.553
 21
204.339
  0
LINE
  8
0
 10
-225.553
 20
204.339
 11
-225.479
 21
204.122
  0
LINE
  8
0
 10
-225.479
 20
204.122
 11
-225.434
 21
203.898
  0
LINE
  8
0
 10
-225.434
 20
203.898
 11
-225.419
 21
203.669
  0
LINE
  8
0
 10
-225.419
 20
203.669
 11
-225.434
 21
203.441
  0
LINE
  8
0
 10
-225.434
 20
203.441
 11
-225.479
 21
203.217
  0
LINE
  8
0
 10
-225.479
 20
203.217
 11
-225.553
 21
203
  0
LINE
  8
0
 10
-225.553
 20
203
 11
-225.654
 21
202.794
  0
LINE
  8
0
 10
-225.654
 20
202.794
 11
-225.781
 21
202.604
  0
LINE
  8
0
 10
-225.781
 20
202.604
 11
-225.932
 21
202.432
  0
LINE
  8
0
 10
-225.932
 20
202.432
 11
-226.104
 21
202.281
  0
LINE
  8
0
 10
-226.104
 20
202.281
 11
-226.294
 21
202.154
  0
LINE
  8
0
 10
-226.294
 20
202.154
 11
-226.5
 21
202.053
  0
LINE
  8
0
 10
-226.5
 20
202.053
 11
-226.717
 21
201.979
  0
LINE
  8
0
 10
-226.717
 20
201.979
 11
-226.941
 21
201.934
  0
LINE
  8
0
 10
-226.941
 20
201.934
 11
-227.169
 21
201.919
  0
LINE
  8
0
 10
-227.169
 20
201.919
 11
-227.398
 21
201.934
  0
LINE
  8
0
 10
-4.11754
 20
150.901
 11
-2.84981
 21
151.616
  0
LINE
  8
0
 10
-2.84981
 20
151.616
 11
-1.77299
 21
152.595
  0
LINE
  8
0
 10
-1.77299
 20
152.595
 11
-0.941116
 21
153.79
  0
LINE
  8
0
 10
-0.941116
 20
153.79
 11
-0.395859
 21
155.139
  0
LINE
  8
0
 10
-0.395859
 20
155.139
 11
-0.164597
 21
156.576
  0
LINE
  8
0
 10
-0.164597
 20
156.576
 11
-0.258881
 21
158.029
  0
LINE
  8
0
 10
-0.258881
 20
158.029
 11
-0.674011
 21
159.424
  0
LINE
  8
0
 10
-0.674011
 20
159.424
 11
-13.1774
 21
188.88
  0
LINE
  8
0
 10
-13.1774
 20
188.88
 11
-13.8926
 21
190.148
  0
LINE
  8
0
 10
-13.8926
 20
190.148
 11
-14.8719
 21
191.224
  0
LINE
  8
0
 10
-14.8719
 20
191.224
 11
-16.0663
 21
192.056
  0
LINE
  8
0
 10
-16.0663
 20
192.056
 11
-17.4158
 21
192.601
  0
LINE
  8
0
 10
-17.4158
 20
192.601
 11
-18.8529
 21
192.833
  0
LINE
  8
0
 10
-18.8529
 20
192.833
 11
-20.3054
 21
192.738
  0
LINE
  8
0
 10
-20.3054
 20
192.738
 11
-21.7004
 21
192.323
  0
LINE
  8
0
 10
-21.7004
 20
192.323
 11
-24.9206
 21
190.956
  0
LINE
  8
0
 10
-24.9206
 20
190.956
 11
-29.7173
 21
179.084
  0
LINE
  8
0
 10
-29.7173
 20
179.084
 11
-19.21
 21
154.33
  0
LINE
  8
0
 10
-19.21
 20
154.33
 11
-7.33771
 21
149.534
  0
LINE
  8
0
 10
-7.33771
 20
149.534
 11
-4.11754
 21
150.901
  0
LINE
  8
0
 10
-18.673
 20
185.444
 11
-18.8979
 21
185.487
  0
LINE
  8
0
 10
-18.8979
 20
185.487
 11
-19.1153
 21
185.558
  0
LINE
  8
0
 10
-19.1153
 20
185.558
 11
-19.3215
 21
185.658
  0
LINE
  8
0
 10
-19.3215
 20
185.658
 11
-19.5129
 21
185.783
  0
LINE
  8
0
 10
-19.5129
 20
185.783
 11
-19.6863
 21
185.933
  0
LINE
  8
0
 10
-19.6863
 20
185.933
 11
-19.8387
 21
186.103
  0
LINE
  8
0
 10
-19.8387
 20
186.103
 11
-19.9676
 21
186.293
  0
LINE
  8
0
 10
-19.9676
 20
186.293
 11
-20.0706
 21
186.497
  0
LINE
  8
0
 10
-20.0706
 20
186.497
 11
-20.1461
 21
186.713
  0
LINE
  8
0
 10
-20.1461
 20
186.713
 11
-20.1927
 21
186.937
  0
LINE
  8
0
 10
-20.1927
 20
186.937
 11
-20.2097
 21
187.166
  0
LINE
  8
0
 10
-20.2097
 20
187.166
 11
-20.1967
 21
187.394
  0
LINE
  8
0
 10
-20.1967
 20
187.394
 11
-20.154
 21
187.619
  0
LINE
  8
0
 10
-20.154
 20
187.619
 11
-20.0823
 21
187.836
  0
LINE
  8
0
 10
-20.0823
 20
187.836
 11
-19.9828
 21
188.043
  0
LINE
  8
0
 10
-19.9828
 20
188.043
 11
-19.8573
 21
188.234
  0
LINE
  8
0
 10
-19.8573
 20
188.234
 11
-19.7079
 21
188.407
  0
LINE
  8
0
 10
-19.7079
 20
188.407
 11
-19.5371
 21
188.56
  0
LINE
  8
0
 10
-19.5371
 20
188.56
 11
-19.3479
 21
188.689
  0
LINE
  8
0
 10
-19.3479
 20
188.689
 11
-19.1435
 21
188.792
  0
LINE
  8
0
 10
-19.1435
 20
188.792
 11
-18.9274
 21
188.867
  0
LINE
  8
0
 10
-18.9274
 20
188.867
 11
-18.7033
 21
188.914
  0
LINE
  8
0
 10
-18.7033
 20
188.914
 11
-18.475
 21
188.931
  0
LINE
  8
0
 10
-18.475
 20
188.931
 11
-18.2465
 21
188.918
  0
LINE
  8
0
 10
-18.2465
 20
188.918
 11
-18.0216
 21
188.875
  0
LINE
  8
0
 10
-18.0216
 20
188.875
 11
-17.8042
 21
188.803
  0
LINE
  8
0
 10
-17.8042
 20
188.803
 11
-17.598
 21
188.704
  0
LINE
  8
0
 10
-17.598
 20
188.704
 11
-17.4066
 21
188.578
  0
LINE
  8
0
 10
-17.4066
 20
188.578
 11
-17.2332
 21
188.429
  0
LINE
  8
0
 10
-17.2332
 20
188.429
 11
-17.0807
 21
188.258
  0
LINE
  8
0
 10
-17.0807
 20
188.258
 11
-16.9519
 21
188.069
  0
LINE
  8
0
 10
-16.9519
 20
188.069
 11
-16.8489
 21
187.865
  0
LINE
  8
0
 10
-16.8489
 20
187.865
 11
-16.7734
 21
187.648
  0
LINE
  8
0
 10
-16.7734
 20
187.648
 11
-16.7268
 21
187.424
  0
LINE
  8
0
 10
-16.7268
 20
187.424
 11
-16.7098
 21
187.196
  0
LINE
  8
0
 10
-16.7098
 20
187.196
 11
-16.7228
 21
186.968
  0
LINE
  8
0
 10
-16.7228
 20
186.968
 11
-16.7655
 21
186.743
  0
LINE
  8
0
 10
-16.7655
 20
186.743
 11
-16.8372
 21
186.525
  0
LINE
  8
0
 10
-16.8372
 20
186.525
 11
-16.9366
 21
186.319
  0
LINE
  8
0
 10
-16.9366
 20
186.319
 11
-17.0621
 21
186.128
  0
LINE
  8
0
 10
-17.0621
 20
186.128
 11
-17.2116
 21
185.954
  0
LINE
  8
0
 10
-17.2116
 20
185.954
 11
-17.3823
 21
185.802
  0
LINE
  8
0
 10
-17.3823
 20
185.802
 11
-17.5715
 21
185.673
  0
LINE
  8
0
 10
-17.5715
 20
185.673
 11
-17.776
 21
185.57
  0
LINE
  8
0
 10
-17.776
 20
185.57
 11
-17.9921
 21
185.494
  0
LINE
  8
0
 10
-17.9921
 20
185.494
 11
-18.2162
 21
185.448
  0
LINE
  8
0
 10
-18.2162
 20
185.448
 11
-18.4445
 21
185.431
  0
LINE
  8
0
 10
-18.4445
 20
185.431
 11
-18.673
 21
185.444
  0
LINE
  8
0
 10
-5.77887
 20
155.067
 11
-6.00375
 21
155.11
  0
LINE
  8
0
 10
-6.00375
 20
155.11
 11
-6.22116
 21
155.182
  0
LINE
  8
0
 10
-6.22116
 20
155.182
 11
-6.42734
 21
155.281
  0
LINE
  8
0
 10
-6.42734
 20
155.281
 11
-6.61877
 21
155.407
  0
LINE
  8
0
 10
-6.61877
 20
155.407
 11
-6.79219
 21
155.556
  0
LINE
  8
0
 10
-6.79219
 20
155.556
 11
-6.94463
 21
155.727
  0
LINE
  8
0
 10
-6.94463
 20
155.727
 11
-7.07346
 21
155.916
  0
LINE
  8
0
 10
-7.07346
 20
155.916
 11
-7.17648
 21
156.12
  0
LINE
  8
0
 10
-7.17648
 20
156.12
 11
-7.25195
 21
156.336
  0
LINE
  8
0
 10
-7.25195
 20
156.336
 11
-7.29857
 21
156.561
  0
LINE
  8
0
 10
-7.29857
 20
156.561
 11
-7.31554
 21
156.789
  0
LINE
  8
0
 10
-7.31554
 20
156.789
 11
-7.30255
 21
157.017
  0
LINE
  8
0
 10
-7.30255
 20
157.017
 11
-7.25986
 21
157.242
  0
LINE
  8
0
 10
-7.25986
 20
157.242
 11
-7.18817
 21
157.46
  0
LINE
  8
0
 10
-7.18817
 20
157.46
 11
-7.08871
 21
157.666
  0
LINE
  8
0
 10
-7.08871
 20
157.666
 11
-6.96321
 21
157.857
  0
LINE
  8
0
 10
-6.96321
 20
157.857
 11
-6.81378
 21
158.031
  0
LINE
  8
0
 10
-6.81378
 20
158.031
 11
-6.64301
 21
158.183
  0
LINE
  8
0
 10
-6.64301
 20
158.183
 11
-6.4538
 21
158.312
  0
LINE
  8
0
 10
-6.4538
 20
158.312
 11
-6.24937
 21
158.415
  0
LINE
  8
0
 10
-6.24937
 20
158.415
 11
-6.03326
 21
158.49
  0
LINE
  8
0
 10
-6.03326
 20
158.49
 11
-5.80916
 21
158.537
  0
LINE
  8
0
 10
-5.80916
 20
158.537
 11
-5.58089
 21
158.554
  0
LINE
  8
0
 10
-5.58089
 20
158.554
 11
-5.35234
 21
158.541
  0
LINE
  8
0
 10
-5.35234
 20
158.541
 11
-5.12746
 21
158.498
  0
LINE
  8
0
 10
-5.12746
 20
158.498
 11
-4.91005
 21
158.427
  0
LINE
  8
0
 10
-4.91005
 20
158.427
 11
-4.70387
 21
158.327
  0
LINE
  8
0
 10
-4.70387
 20
158.327
 11
-4.51244
 21
158.202
  0
LINE
  8
0
 10
-4.51244
 20
158.202
 11
-4.33902
 21
158.052
  0
LINE
  8
0
 10
-4.33902
 20
158.052
 11
-4.1866
 21
157.882
  0
LINE
  8
0
 10
-4.1866
 20
157.882
 11
-4.05777
 21
157.692
  0
LINE
  8
0
 10
-4.05777
 20
157.692
 11
-3.95473
 21
157.488
  0
LINE
  8
0
 10
-3.95473
 20
157.488
 11
-3.87926
 21
157.272
  0
LINE
  8
0
 10
-3.87926
 20
157.272
 11
-3.83266
 21
157.048
  0
LINE
  8
0
 10
-3.83266
 20
157.048
 11
-3.81567
 21
156.819
  0
LINE
  8
0
 10
-3.81567
 20
156.819
 11
-3.82866
 21
156.591
  0
LINE
  8
0
 10
-3.82866
 20
156.591
 11
-3.87137
 21
156.366
  0
LINE
  8
0
 10
-3.87137
 20
156.366
 11
-3.94304
 21
156.149
  0
LINE
  8
0
 10
-3.94304
 20
156.149
 11
-4.04248
 21
155.942
  0
LINE
  8
0
 10
-4.04248
 20
155.942
 11
-4.16801
 21
155.751
  0
LINE
  8
0
 10
-4.16801
 20
155.751
 11
-4.31743
 21
155.578
  0
LINE
  8
0
 10
-4.31743
 20
155.578
 11
-4.48819
 21
155.425
  0
LINE
  8
0
 10
-4.48819
 20
155.425
 11
-4.67741
 21
155.296
  0
LINE
  8
0
 10
-4.67741
 20
155.296
 11
-4.88182
 21
155.193
  0
LINE
  8
0
 10
-4.88182
 20
155.193
 11
-5.09795
 21
155.118
  0
LINE
  8
0
 10
-5.09795
 20
155.118
 11
-5.32204
 21
155.071
  0
LINE
  8
0
 10
-5.32204
 20
155.071
 11
-5.55034
 21
155.054
  0
LINE
  8
0
 10
-5.55034
 20
155.054
 11
-5.77887
 21
155.067
  0
LINE
  8
0
 10
19.21
 20
154.33
 11
29.7173
 21
179.084
  0
LINE
  8
0
 10
29.7173
 20
179.084
 11
24.9206
 21
190.956
  0
LINE
  8
0
 10
24.9206
 20
190.956
 11
21.7004
 21
192.323
  0
LINE
  8
0
 10
21.7004
 20
192.323
 11
20.3054
 21
192.738
  0
LINE
  8
0
 10
20.3054
 20
192.738
 11
18.8529
 21
192.833
  0
LINE
  8
0
 10
18.8529
 20
192.833
 11
17.4158
 21
192.602
  0
LINE
  8
0
 10
17.4158
 20
192.602
 11
16.0663
 21
192.056
  0
LINE
  8
0
 10
16.0663
 20
192.056
 11
14.8719
 21
191.224
  0
LINE
  8
0
 10
14.8719
 20
191.224
 11
13.8926
 21
190.148
  0
LINE
  8
0
 10
13.8926
 20
190.148
 11
13.1774
 21
188.88
  0
LINE
  8
0
 10
13.1774
 20
188.88
 11
0.674011
 21
159.424
  0
LINE
  8
0
 10
0.674011
 20
159.424
 11
0.258881
 21
158.029
  0
LINE
  8
0
 10
0.258881
 20
158.029
 11
0.164597
 21
156.576
  0
LINE
  8
0
 10
0.164597
 20
156.576
 11
0.395874
 21
155.139
  0
LINE
  8
0
 10
0.395874
 20
155.139
 11
0.941132
 21
153.79
  0
LINE
  8
0
 10
0.941132
 20
153.79
 11
1.77301
 21
152.595
  0
LINE
  8
0
 10
1.77301
 20
152.595
 11
2.84981
 21
151.616
  0
LINE
  8
0
 10
2.84981
 20
151.616
 11
4.11754
 21
150.901
  0
LINE
  8
0
 10
4.11754
 20
150.901
 11
7.33771
 21
149.534
  0
LINE
  8
0
 10
7.33771
 20
149.534
 11
19.21
 21
154.33
  0
LINE
  8
0
 10
18.2162
 20
185.448
 11
17.9921
 21
185.494
  0
LINE
  8
0
 10
17.9921
 20
185.494
 11
17.776
 21
185.57
  0
LINE
  8
0
 10
17.776
 20
185.57
 11
17.5715
 21
185.673
  0
LINE
  8
0
 10
17.5715
 20
185.673
 11
17.3823
 21
185.802
  0
LINE
  8
0
 10
17.3823
 20
185.802
 11
17.2116
 21
185.954
  0
LINE
  8
0
 10
17.2116
 20
185.954
 11
17.0621
 21
186.128
  0
LINE
  8
0
 10
17.0621
 20
186.128
 11
16.9366
 21
186.319
  0
LINE
  8
0
 10
16.9366
 20
186.319
 11
16.8372
 21
186.525
  0
LINE
  8
0
 10
16.8372
 20
186.525
 11
16.7655
 21
186.743
  0
LINE
  8
0
 10
16.7655
 20
186.743
 11
16.7228
 21
186.968
  0
LINE
  8
0
 10
16.7228
 20
186.968
 11
16.7098
 21
187.196
  0
LINE
  8
0
 10
16.7098
 20
187.196
 11
16.7268
 21
187.424
  0
LINE
  8
0
 10
16.7268
 20
187.424
 11
16.7734
 21
187.648
  0
LINE
  8
0
 10
16.7734
 20
187.648
 11
16.8489
 21
187.865
  0
LINE
  8
0
 10
16.8489
 20
187.865
 11
16.9519
 21
188.069
  0
LINE
  8
0
 10
16.9519
 20
188.069
 11
17.0807
 21
188.258
  0
LINE
  8
0
 10
17.0807
 20
188.258
 11
17.2332
 21
188.429
  0
LINE
  8
0
 10
17.2332
 20
188.429
 11
17.4066
 21
188.578
  0
LINE
  8
0
 10
17.4066
 20
188.578
 11
17.598
 21
188.704
  0
LINE
  8
0
 10
17.598
 20
188.704
 11
17.8042
 21
188.803
  0
LINE
  8
0
 10
17.8042
 20
188.803
 11
18.0216
 21
188.875
  0
LINE
  8
0
 10
18.0216
 20
188.875
 11
18.2465
 21
188.918
  0
LINE
  8
0
 10
18.2465
 20
188.918
 11
18.475
 21
188.931
  0
LINE
  8
0
 10
18.475
 20
188.931
 11
18.7033
 21
188.914
  0
LINE
  8
0
 10
18.7033
 20
188.914
 11
18.9274
 21
188.867
  0
LINE
  8
0
 10
18.9274
 20
188.867
 11
19.1435
 21
188.792
  0
LINE
  8
0
 10
19.1435
 20
188.792
 11
19.3479
 21
188.689
  0
LINE
  8
0
 10
19.3479
 20
188.689
 11
19.5371
 21
188.56
  0
LINE
  8
0
 10
19.5371
 20
188.56
 11
19.7079
 21
188.407
  0
LINE
  8
0
 10
19.7079
 20
188.407
 11
19.8573
 21
188.234
  0
LINE
  8
0
 10
19.8573
 20
188.234
 11
19.9828
 21
188.043
  0
LINE
  8
0
 10
19.9828
 20
188.043
 11
20.0823
 21
187.836
  0
LINE
  8
0
 10
20.0823
 20
187.836
 11
20.154
 21
187.619
  0
LINE
  8
0
 10
20.154
 20
187.619
 11
20.1967
 21
187.394
  0
LINE
  8
0
 10
20.1967
 20
187.394
 11
20.2097
 21
187.166
  0
LINE
  8
0
 10
20.2097
 20
187.166
 11
20.1927
 21
186.937
  0
LINE
  8
0
 10
20.1927
 20
186.937
 11
20.1461
 21
186.713
  0
LINE
  8
0
 10
20.1461
 20
186.713
 11
20.0706
 21
186.497
  0
LINE
  8
0
 10
20.0706
 20
186.497
 11
19.9676
 21
186.293
  0
LINE
  8
0
 10
19.9676
 20
186.293
 11
19.8387
 21
186.103
  0
LINE
  8
0
 10
19.8387
 20
186.103
 11
19.6863
 21
185.933
  0
LINE
  8
0
 10
19.6863
 20
185.933
 11
19.5129
 21
185.783
  0
LINE
  8
0
 10
19.5129
 20
185.783
 11
19.3215
 21
185.658
  0
LINE
  8
0
 10
19.3215
 20
185.658
 11
19.1153
 21
185.558
  0
LINE
  8
0
 10
19.1153
 20
185.558
 11
18.8979
 21
185.487
  0
LINE
  8
0
 10
18.8979
 20
185.487
 11
18.673
 21
185.444
  0
LINE
  8
0
 10
18.673
 20
185.444
 11
18.4445
 21
185.431
  0
LINE
  8
0
 10
18.4445
 20
185.431
 11
18.2162
 21
185.448
  0
LINE
  8
0
 10
5.32204
 20
155.071
 11
5.09795
 21
155.118
  0
LINE
  8
0
 10
5.09795
 20
155.118
 11
4.88182
 21
155.193
  0
LINE
  8
0
 10
4.88182
 20
155.193
 11
4.67741
 21
155.296
  0
LINE
  8
0
 10
4.67741
 20
155.296
 11
4.48819
 21
155.425
  0
LINE
  8
0
 10
4.48819
 20
155.425
 11
4.31743
 21
155.578
  0
LINE
  8
0
 10
4.31743
 20
155.578
 11
4.16801
 21
155.751
  0
LINE
  8
0
 10
4.16801
 20
155.751
 11
4.04248
 21
155.942
  0
LINE
  8
0
 10
4.04248
 20
155.942
 11
3.94304
 21
156.149
  0
LINE
  8
0
 10
3.94304
 20
156.149
 11
3.87137
 21
156.366
  0
LINE
  8
0
 10
3.87137
 20
156.366
 11
3.82866
 21
156.591
  0
LINE
  8
0
 10
3.82866
 20
156.591
 11
3.81567
 21
156.819
  0
LINE
  8
0
 10
3.81567
 20
156.819
 11
3.83266
 21
157.048
  0
LINE
  8
0
 10
3.83266
 20
157.048
 11
3.87926
 21
157.272
  0
LINE
  8
0
 10
3.87926
 20
157.272
 11
3.95473
 21
157.488
  0
LINE
  8
0
 10
3.95473
 20
157.488
 11
4.05777
 21
157.692
  0
LINE
  8
0
 10
4.05777
 20
157.692
 11
4.1866
 21
157.882
  0
LINE
  8
0
 10
4.1866
 20
157.882
 11
4.33902
 21
158.052
  0
LINE
  8
0
 10
4.33902
 20
158.052
 11
4.51244
 21
158.202
  0
LINE
  8
0
 10
4.51244
 20
158.202
 11
4.70387
 21
158.327
  0
LINE
  8
0
 10
4.70387
 20
158.327
 11
4.91005
 21
158.427
  0
LINE
  8
0
 10
4.91005
 20
158.427
 11
5.12746
 21
158.498
  0
LINE
  8
0
 10
5.12746
 20
158.498
 11
5.35234
 21
158.541
  0
LINE
  8
0
 10
5.35234
 20
158.541
 11
5.58089
 21
158.554
  0
LINE
  8
0
 10
5.58089
 20
158.554
 11
5.80916
 21
158.537
  0
LINE
  8
0
 10
5.80916
 20
158.537
 11
6.03326
 21
158.49
  0
LINE
  8
0
 10
6.03326
 20
158.49
 11
6.24937
 21
158.415
  0
LINE
  8
0
 10
6.24937
 20
158.415
 11
6.4538
 21
158.312
  0
LINE
  8
0
 10
6.4538
 20
158.312
 11
6.64301
 21
158.183
  0
LINE
  8
0
 10
6.64301
 20
158.183
 11
6.81378
 21
158.031
  0
LINE
  8
0
 10
6.81378
 20
158.031
 11
6.96321
 21
157.857
  0
LINE
  8
0
 10
6.96321
 20
157.857
 11
7.08871
 21
157.666
  0
LINE
  8
0
 10
7.08871
 20
157.666
 11
7.18817
 21
157.46
  0
LINE
  8
0
 10
7.18817
 20
157.46
 11
7.25986
 21
157.242
  0
LINE
  8
0
 10
7.25986
 20
157.242
 11
7.30255
 21
157.017
  0
LINE
  8
0
 10
7.30255
 20
157.017
 11
7.31554
 21
156.789
  0
LINE
  8
0
 10
7.31554
 20
156.789
 11
7.29857
 21
156.561
  0
LINE
  8
0
 10
7.29857
 20
156.561
 11
7.25195
 21
156.336
  0
LINE
  8
0
 10
7.25195
 20
156.336
 11
7.17648
 21
156.12
  0
LINE
  8
0
 10
7.17648
 20
156.12
 11
7.07346
 21
155.916
  0
LINE
  8
0
 10
7.07346
 20
155.916
 11
6.94463
 21
155.727
  0
LINE
  8
0
 10
6.94463
 20
155.727
 11
6.79219
 21
155.556
  0
LINE
  8
0
 10
6.79219
 20
155.556
 11
6.61877
 21
155.407
  0
LINE
  8
0
 10
6.61877
 20
155.407
 11
6.42734
 21
155.281
  0
LINE
  8
0
 10
6.42734
 20
155.281
 11
6.22116
 21
155.182
  0
LINE
  8
0
 10
6.22116
 20
155.182
 11
6.00375
 21
155.11
  0
LINE
  8
0
 10
6.00375
 20
155.11
 11
5.77887
 21
155.067
  0
LINE
  8
0
 10
5.77887
 20
155.067
 11
5.55034
 21
155.054
  0
LINE
  8
0
 10
5.55034
 20
155.054
 11
5.32204
 21
155.071
  0
LINE
  8
0
 10
99.6634
 20
145.381
 11
101.286
 21
146.464
  0
LINE
  8
0
 10
101.286
 20
146.464
 11
102.369
 21
148.087
  0
LINE
  8
0
 10
102.369
 20
148.087
 11
102.651
 21
149.5
  0
LINE
  8
0
 10
102.651
 20
149.5
 11
123.25
 21
149.5
  0
LINE
  8
0
 10
123.25
 20
149.5
 11
123.719
 21
149.537
  0
LINE
  8
0
 10
123.719
 20
149.537
 11
124.177
 21
149.647
  0
LINE
  8
0
 10
124.177
 20
149.647
 11
124.612
 21
149.827
  0
LINE
  8
0
 10
124.612
 20
149.827
 11
125.013
 21
150.073
  0
LINE
  8
0
 10
125.013
 20
150.073
 11
125.371
 21
150.379
  0
LINE
  8
0
 10
125.371
 20
150.379
 11
125.677
 21
150.737
  0
LINE
  8
0
 10
125.677
 20
150.737
 11
125.923
 21
151.138
  0
LINE
  8
0
 10
125.923
 20
151.138
 11
126.103
 21
151.573
  0
LINE
  8
0
 10
126.103
 20
151.573
 11
126.213
 21
152.031
  0
LINE
  8
0
 10
126.213
 20
152.031
 11
126.25
 21
152.5
  0
LINE
  8
0
 10
126.25
 20
152.5
 11
126.25
 21
158.5
  0
LINE
  8
0
 10
126.25
 20
158.5
 11
126.213
 21
158.969
  0
LINE
  8
0
 10
126.213
 20
158.969
 11
126.103
 21
159.427
  0
LINE
  8
0
 10
126.103
 20
159.427
 11
125.923
 21
159.862
  0
LINE
  8
0
 10
125.923
 20
159.862
 11
125.677
 21
160.263
  0
LINE
  8
0
 10
125.677
 20
160.263
 11
125.371
 21
160.621
  0
LINE
  8
0
 10
125.371
 20
160.621
 11
125.013
 21
160.927
  0
LINE
  8
0
 10
125.013
 20
160.927
 11
124.612
 21
161.173
  0
LINE
  8
0
 10
124.612
 20
161.173
 11
124.177
 21
161.353
  0
LINE
  8
0
 10
124.177
 20
161.353
 11
123.719
 21
161.463
  0
LINE
  8
0
 10
123.719
 20
161.463
 11
123.25
 21
161.5
  0
LINE
  8
0
 10
123.25
 20
161.5
 11
116
 21
161.5
  0
LINE
  8
0
 10
116
 20
161.5
 11
116
 21
176
  0
LINE
  8
0
 10
116
 20
176
 11
123.25
 21
176
  0
LINE
  8
0
 10
123.25
 20
176
 11
123.719
 21
176.037
  0
LINE
  8
0
 10
123.719
 20
176.037
 11
124.177
 21
176.147
  0
LINE
  8
0
 10
124.177
 20
176.147
 11
124.612
 21
176.327
  0
LINE
  8
0
 10
124.612
 20
176.327
 11
125.013
 21
176.573
  0
LINE
  8
0
 10
125.013
 20
176.573
 11
125.371
 21
176.879
  0
LINE
  8
0
 10
125.371
 20
176.879
 11
125.677
 21
177.237
  0
LINE
  8
0
 10
125.677
 20
177.237
 11
125.923
 21
177.638
  0
LINE
  8
0
 10
125.923
 20
177.638
 11
126.103
 21
178.073
  0
LINE
  8
0
 10
126.103
 20
178.073
 11
126.213
 21
178.531
  0
LINE
  8
0
 10
126.213
 20
178.531
 11
126.25
 21
179
  0
LINE
  8
0
 10
126.25
 20
179
 11
126.25
 21
185
  0
LINE
  8
0
 10
126.25
 20
185
 11
126.213
 21
185.469
  0
LINE
  8
0
 10
126.213
 20
185.469
 11
126.103
 21
185.927
  0
LINE
  8
0
 10
126.103
 20
185.927
 11
125.923
 21
186.362
  0
LINE
  8
0
 10
125.923
 20
186.362
 11
125.677
 21
186.763
  0
LINE
  8
0
 10
125.677
 20
186.763
 11
125.371
 21
187.121
  0
LINE
  8
0
 10
125.371
 20
187.121
 11
125.013
 21
187.427
  0
LINE
  8
0
 10
125.013
 20
187.427
 11
124.612
 21
187.673
  0
LINE
  8
0
 10
124.612
 20
187.673
 11
124.177
 21
187.853
  0
LINE
  8
0
 10
124.177
 20
187.853
 11
123.719
 21
187.963
  0
LINE
  8
0
 10
123.719
 20
187.963
 11
123.25
 21
188
  0
LINE
  8
0
 10
123.25
 20
188
 11
72.25
 21
188
  0
LINE
  8
0
 10
72.25
 20
188
 11
71.7807
 21
187.963
  0
LINE
  8
0
 10
71.7807
 20
187.963
 11
71.3229
 21
187.853
  0
LINE
  8
0
 10
71.3229
 20
187.853
 11
70.888
 21
187.673
  0
LINE
  8
0
 10
70.888
 20
187.673
 11
70.4866
 21
187.427
  0
LINE
  8
0
 10
70.4866
 20
187.427
 11
70.1287
 21
187.121
  0
LINE
  8
0
 10
70.1287
 20
187.121
 11
69.8229
 21
186.763
  0
LINE
  8
0
 10
69.8229
 20
186.763
 11
69.577
 21
186.362
  0
LINE
  8
0
 10
69.577
 20
186.362
 11
69.3968
 21
185.927
  0
LINE
  8
0
 10
69.3968
 20
185.927
 11
69.2869
 21
185.469
  0
LINE
  8
0
 10
69.2869
 20
185.469
 11
69.25
 21
185
  0
LINE
  8
0
 10
69.25
 20
185
 11
69.25
 21
179
  0
LINE
  8
0
 10
69.25
 20
179
 11
69.2869
 21
178.531
  0
LINE
  8
0
 10
69.2869
 20
178.531
 11
69.3968
 21
178.073
  0
LINE
  8
0
 10
69.3968
 20
178.073
 11
69.577
 21
177.638
  0
LINE
  8
0
 10
69.577
 20
177.638
 11
69.8229
 21
177.237
  0
LINE
  8
0
 10
69.8229
 20
177.237
 11
70.1287
 21
176.879
  0
LINE
  8
0
 10
70.1287
 20
176.879
 11
70.4866
 21
176.573
  0
LINE
  8
0
 10
70.4866
 20
176.573
 11
70.888
 21
176.327
  0
LINE
  8
0
 10
70.888
 20
176.327
 11
71.3229
 21
176.147
  0
LINE
  8
0
 10
71.3229
 20
176.147
 11
71.7807
 21
176.037
  0
LINE
  8
0
 10
71.7807
 20
176.037
 11
72.25
 21
176
  0
LINE
  8
0
 10
72.25
 20
176
 11
79.5
 21
176
  0
LINE
  8
0
 10
79.5
 20
176
 11
79.5
 21
161.5
  0
LINE
  8
0
 10
79.5
 20
161.5
 11
72.25
 21
161.5
  0
LINE
  8
0
 10
72.25
 20
161.5
 11
71.7807
 21
161.463
  0
LINE
  8
0
 10
71.7807
 20
161.463
 11
71.3229
 21
161.353
  0
LINE
  8
0
 10
71.3229
 20
161.353
 11
70.888
 21
161.173
  0
LINE
  8
0
 10
70.888
 20
161.173
 11
70.4866
 21
160.927
  0
LINE
  8
0
 10
70.4866
 20
160.927
 11
70.1287
 21
160.621
  0
LINE
  8
0
 10
70.1287
 20
160.621
 11
69.8229
 21
160.263
  0
LINE
  8
0
 10
69.8229
 20
160.263
 11
69.577
 21
159.862
  0
LINE
  8
0
 10
69.577
 20
159.862
 11
69.3968
 21
159.427
  0
LINE
  8
0
 10
69.3968
 20
159.427
 11
69.2869
 21
158.969
  0
LINE
  8
0
 10
69.2869
 20
158.969
 11
69.25
 21
158.5
  0
LINE
  8
0
 10
69.25
 20
158.5
 11
69.25
 21
152.5
  0
LINE
  8
0
 10
69.25
 20
152.5
 11
69.2869
 21
152.031
  0
LINE
  8
0
 10
69.2869
 20
152.031
 11
69.3968
 21
151.573
  0
LINE
  8
0
 10
69.3968
 20
151.573
 11
69.577
 21
151.138
  0
LINE
  8
0
 10
69.577
 20
151.138
 11
69.8229
 21
150.737
  0
LINE
  8
0
 10
69.8229
 20
150.737
 11
70.1287
 21
150.379
  0
LINE
  8
0
 10
70.1287
 20
150.379
 11
70.4866
 21
150.073
  0
LINE
  8
0
 10
70.4866
 20
150.073
 11
70.888
 21
149.827
  0
LINE
  8
0
 10
70.888
 20
149.827
 11
71.3229
 21
149.647
  0
LINE
  8
0
 10
71.3229
 20
149.647
 11
71.7807
 21
149.537
  0
LINE
  8
0
 10
71.7807
 20
149.537
 11
72.25
 21
149.5
  0
LINE
  8
0
 10
72.25
 20
149.5
 11
92.8495
 21
149.5
  0
LINE
  8
0
 10
92.8495
 20
149.5
 11
93.1306
 21
148.087
  0
LINE
  8
0
 10
93.1306
 20
148.087
 11
94.2145
 21
146.464
  0
LINE
  8
0
 10
94.2145
 20
146.464
 11
95.8366
 21
145.381
  0
LINE
  8
0
 10
95.8366
 20
145.381
 11
97.75
 21
145
  0
LINE
  8
0
 10
97.75
 20
145
 11
99.6634
 21
145.381
  0
LINE
  8
0
 10
74.0216
 20
180.265
 11
73.7971
 21
180.31
  0
LINE
  8
0
 10
73.7971
 20
180.31
 11
73.5803
 21
180.383
  0
LINE
  8
0
 10
73.5803
 20
180.383
 11
73.375
 21
180.484
  0
LINE
  8
0
 10
73.375
 20
180.484
 11
73.1847
 21
180.612
  0
LINE
  8
0
 10
73.1847
 20
180.612
 11
73.0126
 21
180.763
  0
LINE
  8
0
 10
73.0126
 20
180.763
 11
72.8616
 21
180.935
  0
LINE
  8
0
 10
72.8616
 20
180.935
 11
72.7345
 21
181.125
  0
LINE
  8
0
 10
72.7345
 20
181.125
 11
72.6332
 21
181.33
  0
LINE
  8
0
 10
72.6332
 20
181.33
 11
72.5596
 21
181.547
  0
LINE
  8
0
 10
72.5596
 20
181.547
 11
72.515
 21
181.772
  0
LINE
  8
0
 10
72.515
 20
181.772
 11
72.5
 21
182
  0
LINE
  8
0
 10
72.5
 20
182
 11
72.515
 21
182.228
  0
LINE
  8
0
 10
72.515
 20
182.228
 11
72.5596
 21
182.453
  0
LINE
  8
0
 10
72.5596
 20
182.453
 11
72.6332
 21
182.67
  0
LINE
  8
0
 10
72.6332
 20
182.67
 11
72.7345
 21
182.875
  0
LINE
  8
0
 10
72.7345
 20
182.875
 11
72.8616
 21
183.065
  0
LINE
  8
0
 10
72.8616
 20
183.065
 11
73.0126
 21
183.237
  0
LINE
  8
0
 10
73.0126
 20
183.237
 11
73.1847
 21
183.388
  0
LINE
  8
0
 10
73.1847
 20
183.388
 11
73.375
 21
183.516
  0
LINE
  8
0
 10
73.375
 20
183.516
 11
73.5803
 21
183.617
  0
LINE
  8
0
 10
73.5803
 20
183.617
 11
73.7971
 21
183.69
  0
LINE
  8
0
 10
73.7971
 20
183.69
 11
74.0216
 21
183.735
  0
LINE
  8
0
 10
74.0216
 20
183.735
 11
74.25
 21
183.75
  0
LINE
  8
0
 10
74.25
 20
183.75
 11
74.4784
 21
183.735
  0
LINE
  8
0
 10
74.4784
 20
183.735
 11
74.7029
 21
183.69
  0
LINE
  8
0
 10
74.7029
 20
183.69
 11
74.9197
 21
183.617
  0
LINE
  8
0
 10
74.9197
 20
183.617
 11
75.125
 21
183.516
  0
LINE
  8
0
 10
75.125
 20
183.516
 11
75.3153
 21
183.388
  0
LINE
  8
0
 10
75.3153
 20
183.388
 11
75.4874
 21
183.237
  0
LINE
  8
0
 10
75.4874
 20
183.237
 11
75.6384
 21
183.065
  0
LINE
  8
0
 10
75.6384
 20
183.065
 11
75.7655
 21
182.875
  0
LINE
  8
0
 10
75.7655
 20
182.875
 11
75.8668
 21
182.67
  0
LINE
  8
0
 10
75.8668
 20
182.67
 11
75.9404
 21
182.453
  0
LINE
  8
0
 10
75.9404
 20
182.453
 11
75.985
 21
182.228
  0
LINE
  8
0
 10
75.985
 20
182.228
 11
76
 21
182
  0
LINE
  8
0
 10
76
 20
182
 11
75.985
 21
181.772
  0
LINE
  8
0
 10
75.985
 20
181.772
 11
75.9404
 21
181.547
  0
LINE
  8
0
 10
75.9404
 20
181.547
 11
75.8668
 21
181.33
  0
LINE
  8
0
 10
75.8668
 20
181.33
 11
75.7655
 21
181.125
  0
LINE
  8
0
 10
75.7655
 20
181.125
 11
75.6384
 21
180.935
  0
LINE
  8
0
 10
75.6384
 20
180.935
 11
75.4874
 21
180.763
  0
LINE
  8
0
 10
75.4874
 20
180.763
 11
75.3153
 21
180.612
  0
LINE
  8
0
 10
75.3153
 20
180.612
 11
75.125
 21
180.484
  0
LINE
  8
0
 10
75.125
 20
180.484
 11
74.9197
 21
180.383
  0
LINE
  8
0
 10
74.9197
 20
180.383
 11
74.7029
 21
180.31
  0
LINE
  8
0
 10
74.7029
 20
180.31
 11
74.4784
 21
180.265
  0
LINE
  8
0
 10
74.4784
 20
180.265
 11
74.25
 21
180.25
  0
LINE
  8
0
 10
74.25
 20
180.25
 11
74.0216
 21
180.265
  0
LINE
  8
0
 10
121.022
 20
180.265
 11
120.797
 21
180.31
  0
LINE
  8
0
 10
120.797
 20
180.31
 11
120.58
 21
180.383
  0
LINE
  8
0
 10
120.58
 20
180.383
 11
120.375
 21
180.484
  0
LINE
  8
0
 10
120.375
 20
180.484
 11
120.185
 21
180.612
  0
LINE
  8
0
 10
120.185
 20
180.612
 11
120.013
 21
180.763
  0
LINE
  8
0
 10
120.013
 20
180.763
 11
119.862
 21
180.935
  0
LINE
  8
0
 10
119.862
 20
180.935
 11
119.734
 21
181.125
  0
LINE
  8
0
 10
119.734
 20
181.125
 11
119.633
 21
181.33
  0
LINE
  8
0
 10
119.633
 20
181.33
 11
119.56
 21
181.547
  0
LINE
  8
0
 10
119.56
 20
181.547
 11
119.515
 21
181.772
  0
LINE
  8
0
 10
119.515
 20
181.772
 11
119.5
 21
182
  0
LINE
  8
0
 10
119.5
 20
182
 11
119.515
 21
182.228
  0
LINE
  8
0
 10
119.515
 20
182.228
 11
119.56
 21
182.453
  0
LINE
  8
0
 10
119.56
 20
182.453
 11
119.633
 21
182.67
  0
LINE
  8
0
 10
119.633
 20
182.67
 11
119.734
 21
182.875
  0
LINE
  8
0
 10
119.734
 20
182.875
 11
119.862
 21
183.065
  0
LINE
  8
0
 10
119.862
 20
183.065
 11
120.013
 21
183.237
  0
LINE
  8
0
 10
120.013
 20
183.237
 11
120.185
 21
183.388
  0
LINE
  8
0
 10
120.185
 20
183.388
 11
120.375
 21
183.516
  0
LINE
  8
0
 10
120.375
 20
183.516
 11
120.58
 21
183.617
  0
LINE
  8
0
 10
120.58
 20
183.617
 11
120.797
 21
183.69
  0
LINE
  8
0
 10
120.797
 20
183.69
 11
121.022
 21
183.735
  0
LINE
  8
0
 10
121.022
 20
183.735
 11
121.25
 21
183.75
  0
LINE
  8
0
 10
121.25
 20
183.75
 11
121.478
 21
183.735
  0
LINE
  8
0
 10
121.478
 20
183.735
 11
121.703
 21
183.69
  0
LINE
  8
0
 10
121.703
 20
183.69
 11
121.92
 21
183.617
  0
LINE
  8
0
 10
121.92
 20
183.617
 11
122.125
 21
183.516
  0
LINE
  8
0
 10
122.125
 20
183.516
 11
122.315
 21
183.388
  0
LINE
  8
0
 10
122.315
 20
183.388
 11
122.487
 21
183.237
  0
LINE
  8
0
 10
122.487
 20
183.237
 11
122.638
 21
183.065
  0
LINE
  8
0
 10
122.638
 20
183.065
 11
122.766
 21
182.875
  0
LINE
  8
0
 10
122.766
 20
182.875
 11
122.867
 21
182.67
  0
LINE
  8
0
 10
122.867
 20
182.67
 11
122.94
 21
182.453
  0
LINE
  8
0
 10
122.94
 20
182.453
 11
122.985
 21
182.228
  0
LINE
  8
0
 10
122.985
 20
182.228
 11
123
 21
182
  0
LINE
  8
0
 10
123
 20
182
 11
122.985
 21
181.772
  0
LINE
  8
0
 10
122.985
 20
181.772
 11
122.94
 21
181.547
  0
LINE
  8
0
 10
122.94
 20
181.547
 11
122.867
 21
181.33
  0
LINE
  8
0
 10
122.867
 20
181.33
 11
122.766
 21
181.125
  0
LINE
  8
0
 10
122.766
 20
181.125
 11
122.638
 21
180.935
  0
LINE
  8
0
 10
122.638
 20
180.935
 11
122.487
 21
180.763
  0
LINE
  8
0
 10
122.487
 20
180.763
 11
122.315
 21
180.612
  0
LINE
  8
0
 10
122.315
 20
180.612
 11
122.125
 21
180.484
  0
LINE
  8
0
 10
122.125
 20
180.484
 11
121.92
 21
180.383
  0
LINE
  8
0
 10
121.92
 20
180.383
 11
121.703
 21
180.31
  0
LINE
  8
0
 10
121.703
 20
180.31
 11
121.478
 21
180.265
  0
LINE
  8
0
 10
121.478
 20
180.265
 11
121.25
 21
180.25
  0
LINE
  8
0
 10
121.25
 20
180.25
 11
121.022
 21
180.265
  0
LINE
  8
0
 10
121.022
 20
153.765
 11
120.797
 21
153.81
  0
LINE
  8
0
 10
120.797
 20
153.81
 11
120.58
 21
153.883
  0
LINE
  8
0
 10
120.58
 20
153.883
 11
120.375
 21
153.984
  0
LINE
  8
0
 10
120.375
 20
153.984
 11
120.185
 21
154.112
  0
LINE
  8
0
 10
120.185
 20
154.112
 11
120.013
 21
154.263
  0
LINE
  8
0
 10
120.013
 20
154.263
 11
119.862
 21
154.435
  0
LINE
  8
0
 10
119.862
 20
154.435
 11
119.734
 21
154.625
  0
LINE
  8
0
 10
119.734
 20
154.625
 11
119.633
 21
154.83
  0
LINE
  8
0
 10
119.633
 20
154.83
 11
119.56
 21
155.047
  0
LINE
  8
0
 10
119.56
 20
155.047
 11
119.515
 21
155.272
  0
LINE
  8
0
 10
119.515
 20
155.272
 11
119.5
 21
155.5
  0
LINE
  8
0
 10
119.5
 20
155.5
 11
119.515
 21
155.728
  0
LINE
  8
0
 10
119.515
 20
155.728
 11
119.56
 21
155.953
  0
LINE
  8
0
 10
119.56
 20
155.953
 11
119.633
 21
156.17
  0
LINE
  8
0
 10
119.633
 20
156.17
 11
119.734
 21
156.375
  0
LINE
  8
0
 10
119.734
 20
156.375
 11
119.862
 21
156.565
  0
LINE
  8
0
 10
119.862
 20
156.565
 11
120.013
 21
156.737
  0
LINE
  8
0
 10
120.013
 20
156.737
 11
120.185
 21
156.888
  0
LINE
  8
0
 10
120.185
 20
156.888
 11
120.375
 21
157.016
  0
LINE
  8
0
 10
120.375
 20
157.016
 11
120.58
 21
157.117
  0
LINE
  8
0
 10
120.58
 20
157.117
 11
120.797
 21
157.19
  0
LINE
  8
0
 10
120.797
 20
157.19
 11
121.022
 21
157.235
  0
LINE
  8
0
 10
121.022
 20
157.235
 11
121.25
 21
157.25
  0
LINE
  8
0
 10
121.25
 20
157.25
 11
121.478
 21
157.235
  0
LINE
  8
0
 10
121.478
 20
157.235
 11
121.703
 21
157.19
  0
LINE
  8
0
 10
121.703
 20
157.19
 11
121.92
 21
157.117
  0
LINE
  8
0
 10
121.92
 20
157.117
 11
122.125
 21
157.016
  0
LINE
  8
0
 10
122.125
 20
157.016
 11
122.315
 21
156.888
  0
LINE
  8
0
 10
122.315
 20
156.888
 11
122.487
 21
156.737
  0
LINE
  8
0
 10
122.487
 20
156.737
 11
122.638
 21
156.565
  0
LINE
  8
0
 10
122.638
 20
156.565
 11
122.766
 21
156.375
  0
LINE
  8
0
 10
122.766
 20
156.375
 11
122.867
 21
156.17
  0
LINE
  8
0
 10
122.867
 20
156.17
 11
122.94
 21
155.953
  0
LINE
  8
0
 10
122.94
 20
155.953
 11
122.985
 21
155.728
  0
LINE
  8
0
 10
122.985
 20
155.728
 11
123
 21
155.5
  0
LINE
  8
0
 10
123
 20
155.5
 11
122.985
 21
155.272
  0
LINE
  8
0
 10
122.985
 20
155.272
 11
122.94
 21
155.047
  0
LINE
  8
0
 10
122.94
 20
155.047
 11
122.867
 21
154.83
  0
LINE
  8
0
 10
122.867
 20
154.83
 11
122.766
 21
154.625
  0
LINE
  8
0
 10
122.766
 20
154.625
 11
122.638
 21
154.435
  0
LINE
  8
0
 10
122.638
 20
154.435
 11
122.487
 21
154.263
  0
LINE
  8
0
 10
122.487
 20
154.263
 11
122.315
 21
154.112
  0
LINE
  8
0
 10
122.315
 20
154.112
 11
122.125
 21
153.984
  0
LINE
  8
0
 10
122.125
 20
153.984
 11
121.92
 21
153.883
  0
LINE
  8
0
 10
121.92
 20
153.883
 11
121.703
 21
153.81
  0
LINE
  8
0
 10
121.703
 20
153.81
 11
121.478
 21
153.765
  0
LINE
  8
0
 10
121.478
 20
153.765
 11
121.25
 21
153.75
  0
LINE
  8
0
 10
121.25
 20
153.75
 11
121.022
 21
153.765
  0
LINE
  8
0
 10
74.0216
 20
153.765
 11
73.7971
 21
153.81
  0
LINE
  8
0
 10
73.7971
 20
153.81
 11
73.5803
 21
153.883
  0
LINE
  8
0
 10
73.5803
 20
153.883
 11
73.375
 21
153.984
  0
LINE
  8
0
 10
73.375
 20
153.984
 11
73.1847
 21
154.112
  0
LINE
  8
0
 10
73.1847
 20
154.112
 11
73.0126
 21
154.263
  0
LINE
  8
0
 10
73.0126
 20
154.263
 11
72.8616
 21
154.435
  0
LINE
  8
0
 10
72.8616
 20
154.435
 11
72.7345
 21
154.625
  0
LINE
  8
0
 10
72.7345
 20
154.625
 11
72.6332
 21
154.83
  0
LINE
  8
0
 10
72.6332
 20
154.83
 11
72.5596
 21
155.047
  0
LINE
  8
0
 10
72.5596
 20
155.047
 11
72.515
 21
155.272
  0
LINE
  8
0
 10
72.515
 20
155.272
 11
72.5
 21
155.5
  0
LINE
  8
0
 10
72.5
 20
155.5
 11
72.515
 21
155.728
  0
LINE
  8
0
 10
72.515
 20
155.728
 11
72.5596
 21
155.953
  0
LINE
  8
0
 10
72.5596
 20
155.953
 11
72.6332
 21
156.17
  0
LINE
  8
0
 10
72.6332
 20
156.17
 11
72.7345
 21
156.375
  0
LINE
  8
0
 10
72.7345
 20
156.375
 11
72.8616
 21
156.565
  0
LINE
  8
0
 10
72.8616
 20
156.565
 11
73.0126
 21
156.737
  0
LINE
  8
0
 10
73.0126
 20
156.737
 11
73.1847
 21
156.888
  0
LINE
  8
0
 10
73.1847
 20
156.888
 11
73.375
 21
157.016
  0
LINE
  8
0
 10
73.375
 20
157.016
 11
73.5803
 21
157.117
  0
LINE
  8
0
 10
73.5803
 20
157.117
 11
73.7971
 21
157.19
  0
LINE
  8
0
 10
73.7971
 20
157.19
 11
74.0216
 21
157.235
  0
LINE
  8
0
 10
74.0216
 20
157.235
 11
74.25
 21
157.25
  0
LINE
  8
0
 10
74.25
 20
157.25
 11
74.4784
 21
157.235
  0
LINE
  8
0
 10
74.4784
 20
157.235
 11
74.7029
 21
157.19
  0
LINE
  8
0
 10
74.7029
 20
157.19
 11
74.9197
 21
157.117
  0
LINE
  8
0
 10
74.9197
 20
157.117
 11
75.125
 21
157.016
  0
LINE
  8
0
 10
75.125
 20
157.016
 11
75.3153
 21
156.888
  0
LINE
  8
0
 10
75.3153
 20
156.888
 11
75.4874
 21
156.737
  0
LINE
  8
0
 10
75.4874
 20
156.737
 11
75.6384
 21
156.565
  0
LINE
  8
0
 10
75.6384
 20
156.565
 11
75.7655
 21
156.375
  0
LINE
  8
0
 10
75.7655
 20
156.375
 11
75.8668
 21
156.17
  0
LINE
  8
0
 10
75.8668
 20
156.17
 11
75.9404
 21
155.953
  0
LINE
  8
0
 10
75.9404
 20
155.953
 11
75.985
 21
155.728
  0
LINE
  8
0
 10
75.985
 20
155.728
 11
76
 21
155.5
  0
LINE
  8
0
 10
76
 20
155.5
 11
75.985
 21
155.272
  0
LINE
  8
0
 10
75.985
 20
155.272
 11
75.9404
 21
155.047
  0
LINE
  8
0
 10
75.9404
 20
155.047
 11
75.8668
 21
154.83
  0
LINE
  8
0
 10
75.8668
 20
154.83
 11
75.7655
 21
154.625
  0
LINE
  8
0
 10
75.7655
 20
154.625
 11
75.6384
 21
154.435
  0
LINE
  8
0
 10
75.6384
 20
154.435
 11
75.4874
 21
154.263
  0
LINE
  8
0
 10
75.4874
 20
154.263
 11
75.3153
 21
154.112
  0
LINE
  8
0
 10
75.3153
 20
154.112
 11
75.125
 21
153.984
  0
LINE
  8
0
 10
75.125
 20
153.984
 11
74.9197
 21
153.883
  0
LINE
  8
0
 10
74.9197
 20
153.883
 11
74.7029
 21
153.81
  0
LINE
  8
0
 10
74.7029
 20
153.81
 11
74.4784
 21
153.765
  0
LINE
  8
0
 10
74.4784
 20
153.765
 11
74.25
 21
153.75
  0
LINE
  8
0
 10
74.25
 20
153.75
 11
74.0216
 21
153.765
  0
LINE
  8
0
 10
31.0526
 20
106.054
 11
31.0526
 21
132.946
  0
LINE
  8
0
 10
31.0526
 20
132.946
 11
21.9983
 21
142
  0
LINE
  8
0
 10
21.9983
 20
142
 11
18.5
 21
142
  0
LINE
  8
0
 10
18.5
 20
142
 11
17.0536
 21
141.837
  0
LINE
  8
0
 10
17.0536
 20
141.837
 11
15.6798
 21
141.356
  0
LINE
  8
0
 10
15.6798
 20
141.356
 11
14.4473
 21
140.582
  0
LINE
  8
0
 10
14.4473
 20
140.582
 11
13.4181
 21
139.553
  0
LINE
  8
0
 10
13.4181
 20
139.553
 11
12.6437
 21
138.32
  0
LINE
  8
0
 10
12.6437
 20
138.32
 11
12.163
 21
136.946
  0
LINE
  8
0
 10
12.163
 20
136.946
 11
12
 21
135.5
  0
LINE
  8
0
 10
12
 20
135.5
 11
12
 21
103.5
  0
LINE
  8
0
 10
12
 20
103.5
 11
12.163
 21
102.054
  0
LINE
  8
0
 10
12.163
 20
102.054
 11
12.6437
 21
100.68
  0
LINE
  8
0
 10
12.6437
 20
100.68
 11
13.4181
 21
99.4473
  0
LINE
  8
0
 10
13.4181
 20
99.4473
 11
14.4473
 21
98.4181
  0
LINE
  8
0
 10
14.4473
 20
98.4181
 11
15.6798
 21
97.6437
  0
LINE
  8
0
 10
15.6798
 20
97.6437
 11
17.0536
 21
97.163
  0
LINE
  8
0
 10
17.0536
 20
97.163
 11
18.5
 21
97
  0
LINE
  8
0
 10
18.5
 20
97
 11
21.9983
 21
97
  0
LINE
  8
0
 10
21.9983
 20
97
 11
31.0526
 21
106.054
  0
LINE
  8
0
 10
17.2979
 20
134.265
 11
17.0733
 21
134.31
  0
LINE
  8
0
 10
17.0733
 20
134.31
 11
16.8566
 21
134.383
  0
LINE
  8
0
 10
16.8566
 20
134.383
 11
16.6513
 21
134.484
  0
LINE
  8
0
 10
16.6513
 20
134.484
 11
16.461
 21
134.612
  0
LINE
  8
0
 10
16.461
 20
134.612
 11
16.2888
 21
134.763
  0
LINE
  8
0
 10
16.2888
 20
134.763
 11
16.1379
 21
134.935
  0
LINE
  8
0
 10
16.1379
 20
134.935
 11
16.0107
 21
135.125
  0
LINE
  8
0
 10
16.0107
 20
135.125
 11
15.9095
 21
135.33
  0
LINE
  8
0
 10
15.9095
 20
135.33
 11
15.8359
 21
135.547
  0
LINE
  8
0
 10
15.8359
 20
135.547
 11
15.7913
 21
135.772
  0
LINE
  8
0
 10
15.7913
 20
135.772
 11
15.7763
 21
136
  0
LINE
  8
0
 10
15.7763
 20
136
 11
15.7913
 21
136.228
  0
LINE
  8
0
 10
15.7913
 20
136.228
 11
15.8359
 21
136.453
  0
LINE
  8
0
 10
15.8359
 20
136.453
 11
15.9095
 21
136.67
  0
LINE
  8
0
 10
15.9095
 20
136.67
 11
16.0107
 21
136.875
  0
LINE
  8
0
 10
16.0107
 20
136.875
 11
16.1379
 21
137.065
  0
LINE
  8
0
 10
16.1379
 20
137.065
 11
16.2888
 21
137.237
  0
LINE
  8
0
 10
16.2888
 20
137.237
 11
16.461
 21
137.388
  0
LINE
  8
0
 10
16.461
 20
137.388
 11
16.6513
 21
137.516
  0
LINE
  8
0
 10
16.6513
 20
137.516
 11
16.8566
 21
137.617
  0
LINE
  8
0
 10
16.8566
 20
137.617
 11
17.0733
 21
137.69
  0
LINE
  8
0
 10
17.0733
 20
137.69
 11
17.2979
 21
137.735
  0
LINE
  8
0
 10
17.2979
 20
137.735
 11
17.5263
 21
137.75
  0
LINE
  8
0
 10
17.5263
 20
137.75
 11
17.7547
 21
137.735
  0
LINE
  8
0
 10
17.7547
 20
137.735
 11
17.9792
 21
137.69
  0
LINE
  8
0
 10
17.9792
 20
137.69
 11
18.196
 21
137.617
  0
LINE
  8
0
 10
18.196
 20
137.617
 11
18.4013
 21
137.516
  0
LINE
  8
0
 10
18.4013
 20
137.516
 11
18.5916
 21
137.388
  0
LINE
  8
0
 10
18.5916
 20
137.388
 11
18.7637
 21
137.237
  0
LINE
  8
0
 10
18.7637
 20
137.237
 11
18.9146
 21
137.065
  0
LINE
  8
0
 10
18.9146
 20
137.065
 11
19.0418
 21
136.875
  0
LINE
  8
0
 10
19.0418
 20
136.875
 11
19.1431
 21
136.67
  0
LINE
  8
0
 10
19.1431
 20
136.67
 11
19.2166
 21
136.453
  0
LINE
  8
0
 10
19.2166
 20
136.453
 11
19.2613
 21
136.228
  0
LINE
  8
0
 10
19.2613
 20
136.228
 11
19.2763
 21
136
  0
LINE
  8
0
 10
19.2763
 20
136
 11
19.2613
 21
135.772
  0
LINE
  8
0
 10
19.2613
 20
135.772
 11
19.2166
 21
135.547
  0
LINE
  8
0
 10
19.2166
 20
135.547
 11
19.1431
 21
135.33
  0
LINE
  8
0
 10
19.1431
 20
135.33
 11
19.0418
 21
135.125
  0
LINE
  8
0
 10
19.0418
 20
135.125
 11
18.9146
 21
134.935
  0
LINE
  8
0
 10
18.9146
 20
134.935
 11
18.7637
 21
134.763
  0
LINE
  8
0
 10
18.7637
 20
134.763
 11
18.5916
 21
134.612
  0
LINE
  8
0
 10
18.5916
 20
134.612
 11
18.4013
 21
134.484
  0
LINE
  8
0
 10
18.4013
 20
134.484
 11
18.196
 21
134.383
  0
LINE
  8
0
 10
18.196
 20
134.383
 11
17.9792
 21
134.31
  0
LINE
  8
0
 10
17.9792
 20
134.31
 11
17.7547
 21
134.265
  0
LINE
  8
0
 10
17.7547
 20
134.265
 11
17.5263
 21
134.25
  0
LINE
  8
0
 10
17.5263
 20
134.25
 11
17.2979
 21
134.265
  0
LINE
  8
0
 10
17.2979
 20
101.265
 11
17.0733
 21
101.31
  0
LINE
  8
0
 10
17.0733
 20
101.31
 11
16.8566
 21
101.383
  0
LINE
  8
0
 10
16.8566
 20
101.383
 11
16.6513
 21
101.484
  0
LINE
  8
0
 10
16.6513
 20
101.484
 11
16.461
 21
101.612
  0
LINE
  8
0
 10
16.461
 20
101.612
 11
16.2888
 21
101.763
  0
LINE
  8
0
 10
16.2888
 20
101.763
 11
16.1379
 21
101.935
  0
LINE
  8
0
 10
16.1379
 20
101.935
 11
16.0107
 21
102.125
  0
LINE
  8
0
 10
16.0107
 20
102.125
 11
15.9095
 21
102.33
  0
LINE
  8
0
 10
15.9095
 20
102.33
 11
15.8359
 21
102.547
  0
LINE
  8
0
 10
15.8359
 20
102.547
 11
15.7913
 21
102.772
  0
LINE
  8
0
 10
15.7913
 20
102.772
 11
15.7763
 21
103
  0
LINE
  8
0
 10
15.7763
 20
103
 11
15.7913
 21
103.228
  0
LINE
  8
0
 10
15.7913
 20
103.228
 11
15.8359
 21
103.453
  0
LINE
  8
0
 10
15.8359
 20
103.453
 11
15.9095
 21
103.67
  0
LINE
  8
0
 10
15.9095
 20
103.67
 11
16.0107
 21
103.875
  0
LINE
  8
0
 10
16.0107
 20
103.875
 11
16.1379
 21
104.065
  0
LINE
  8
0
 10
16.1379
 20
104.065
 11
16.2888
 21
104.237
  0
LINE
  8
0
 10
16.2888
 20
104.237
 11
16.461
 21
104.388
  0
LINE
  8
0
 10
16.461
 20
104.388
 11
16.6513
 21
104.516
  0
LINE
  8
0
 10
16.6513
 20
104.516
 11
16.8566
 21
104.617
  0
LINE
  8
0
 10
16.8566
 20
104.617
 11
17.0733
 21
104.69
  0
LINE
  8
0
 10
17.0733
 20
104.69
 11
17.2979
 21
104.735
  0
LINE
  8
0
 10
17.2979
 20
104.735
 11
17.5263
 21
104.75
  0
LINE
  8
0
 10
17.5263
 20
104.75
 11
17.7547
 21
104.735
  0
LINE
  8
0
 10
17.7547
 20
104.735
 11
17.9792
 21
104.69
  0
LINE
  8
0
 10
17.9792
 20
104.69
 11
18.196
 21
104.617
  0
LINE
  8
0
 10
18.196
 20
104.617
 11
18.4013
 21
104.516
  0
LINE
  8
0
 10
18.4013
 20
104.516
 11
18.5916
 21
104.388
  0
LINE
  8
0
 10
18.5916
 20
104.388
 11
18.7637
 21
104.237
  0
LINE
  8
0
 10
18.7637
 20
104.237
 11
18.9146
 21
104.065
  0
LINE
  8
0
 10
18.9146
 20
104.065
 11
19.0418
 21
103.875
  0
LINE
  8
0
 10
19.0418
 20
103.875
 11
19.1431
 21
103.67
  0
LINE
  8
0
 10
19.1431
 20
103.67
 11
19.2166
 21
103.453
  0
LINE
  8
0
 10
19.2166
 20
103.453
 11
19.2613
 21
103.228
  0
LINE
  8
0
 10
19.2613
 20
103.228
 11
19.2763
 21
103
  0
LINE
  8
0
 10
19.2763
 20
103
 11
19.2613
 21
102.772
  0
LINE
  8
0
 10
19.2613
 20
102.772
 11
19.2166
 21
102.547
  0
LINE
  8
0
 10
19.2166
 20
102.547
 11
19.1431
 21
102.33
  0
LINE
  8
0
 10
19.1431
 20
102.33
 11
19.0418
 21
102.125
  0
LINE
  8
0
 10
19.0418
 20
102.125
 11
18.9146
 21
101.935
  0
LINE
  8
0
 10
18.9146
 20
101.935
 11
18.7637
 21
101.763
  0
LINE
  8
0
 10
18.7637
 20
101.763
 11
18.5916
 21
101.612
  0
LINE
  8
0
 10
18.5916
 20
101.612
 11
18.4013
 21
101.484
  0
LINE
  8
0
 10
18.4013
 20
101.484
 11
18.196
 21
101.383
  0
LINE
  8
0
 10
18.196
 20
101.383
 11
17.9792
 21
101.31
  0
LINE
  8
0
 10
17.9792
 20
101.31
 11
17.7547
 21
101.265
  0
LINE
  8
0
 10
17.7547
 20
101.265
 11
17.5263
 21
101.25
  0
LINE
  8
0
 10
17.5263
 20
101.25
 11
17.2979
 21
101.265
  0
LINE
  8
0
 10
51.0482
 20
102.729
 11
63.2566
 21
126.689
  0
LINE
  8
0
 10
63.2566
 20
126.689
 11
59.2998
 21
138.867
  0
LINE
  8
0
 10
59.2998
 20
138.867
 11
56.1828
 21
140.456
  0
LINE
  8
0
 10
56.1828
 20
140.456
 11
54.8201
 21
140.967
  0
LINE
  8
0
 10
54.8201
 20
140.967
 11
53.3777
 21
141.162
  0
LINE
  8
0
 10
53.3777
 20
141.162
 11
51.928
 21
141.032
  0
LINE
  8
0
 10
51.928
 20
141.032
 11
50.5437
 21
140.582
  0
LINE
  8
0
 10
50.5437
 20
140.582
 11
49.2942
 21
139.836
  0
LINE
  8
0
 10
49.2942
 20
139.836
 11
48.2422
 21
138.83
  0
LINE
  8
0
 10
48.2422
 20
138.83
 11
47.4403
 21
137.615
  0
LINE
  8
0
 10
47.4403
 20
137.615
 11
32.9126
 21
109.103
  0
LINE
  8
0
 10
32.9126
 20
109.103
 11
32.4012
 21
107.74
  0
LINE
  8
0
 10
32.4012
 20
107.74
 11
32.2058
 21
106.298
  0
LINE
  8
0
 10
32.2058
 20
106.298
 11
32.3363
 21
104.848
  0
LINE
  8
0
 10
32.3363
 20
104.848
 11
32.786
 21
103.464
  0
LINE
  8
0
 10
32.786
 20
103.464
 11
33.5326
 21
102.214
  0
LINE
  8
0
 10
33.5326
 20
102.214
 11
34.5385
 21
101.162
  0
LINE
  8
0
 10
34.5385
 20
101.162
 11
35.7532
 21
100.36
  0
LINE
  8
0
 10
35.7532
 20
100.36
 11
38.8702
 21
98.7721
  0
LINE
  8
0
 10
38.8702
 20
98.7721
 11
51.0482
 21
102.729
  0
LINE
  8
0
 10
52.4539
 20
133.807
 11
52.2274
 21
133.84
  0
LINE
  8
0
 10
52.2274
 20
133.84
 11
52.0071
 21
133.902
  0
LINE
  8
0
 10
52.0071
 20
133.902
 11
51.7967
 21
133.992
  0
LINE
  8
0
 10
51.7967
 20
133.992
 11
51.6
 21
134.109
  0
LINE
  8
0
 10
51.6
 20
134.109
 11
51.4202
 21
134.251
  0
LINE
  8
0
 10
51.4202
 20
134.251
 11
51.2605
 21
134.415
  0
LINE
  8
0
 10
51.2605
 20
134.415
 11
51.1236
 21
134.599
  0
LINE
  8
0
 10
51.1236
 20
134.599
 11
51.0117
 21
134.798
  0
LINE
  8
0
 10
51.0117
 20
134.798
 11
50.9269
 21
135.011
  0
LINE
  8
0
 10
50.9269
 20
135.011
 11
50.8705
 21
135.233
  0
LINE
  8
0
 10
50.8705
 20
135.233
 11
50.8436
 21
135.46
  0
LINE
  8
0
 10
50.8436
 20
135.46
 11
50.8466
 21
135.689
  0
LINE
  8
0
 10
50.8466
 20
135.689
 11
50.8795
 21
135.915
  0
LINE
  8
0
 10
50.8795
 20
135.915
 11
50.9416
 21
136.136
  0
LINE
  8
0
 10
50.9416
 20
136.136
 11
51.032
 21
136.346
  0
LINE
  8
0
 10
51.032
 20
136.346
 11
51.149
 21
136.543
  0
LINE
  8
0
 10
51.149
 20
136.543
 11
51.2907
 21
136.723
  0
LINE
  8
0
 10
51.2907
 20
136.723
 11
51.4547
 21
136.882
  0
LINE
  8
0
 10
51.4547
 20
136.882
 11
51.6381
 21
137.019
  0
LINE
  8
0
 10
51.6381
 20
137.019
 11
51.8378
 21
137.131
  0
LINE
  8
0
 10
51.8378
 20
137.131
 11
52.0504
 21
137.216
  0
LINE
  8
0
 10
52.0504
 20
137.216
 11
52.2723
 21
137.272
  0
LINE
  8
0
 10
52.2723
 20
137.272
 11
52.4996
 21
137.299
  0
LINE
  8
0
 10
52.4996
 20
137.299
 11
52.7285
 21
137.296
  0
LINE
  8
0
 10
52.7285
 20
137.296
 11
52.9551
 21
137.263
  0
LINE
  8
0
 10
52.9551
 20
137.263
 11
53.1754
 21
137.201
  0
LINE
  8
0
 10
53.1754
 20
137.201
 11
53.3857
 21
137.111
  0
LINE
  8
0
 10
53.3857
 20
137.111
 11
53.5824
 21
136.994
  0
LINE
  8
0
 10
53.5824
 20
136.994
 11
53.7622
 21
136.852
  0
LINE
  8
0
 10
53.7622
 20
136.852
 11
53.9219
 21
136.688
  0
LINE
  8
0
 10
53.9219
 20
136.688
 11
54.0589
 21
136.505
  0
LINE
  8
0
 10
54.0589
 20
136.505
 11
54.1707
 21
136.305
  0
LINE
  8
0
 10
54.1707
 20
136.305
 11
54.2556
 21
136.092
  0
LINE
  8
0
 10
54.2556
 20
136.092
 11
54.3119
 21
135.871
  0
LINE
  8
0
 10
54.3119
 20
135.871
 11
54.3388
 21
135.643
  0
LINE
  8
0
 10
54.3388
 20
135.643
 11
54.3358
 21
135.414
  0
LINE
  8
0
 10
54.3358
 20
135.414
 11
54.303
 21
135.188
  0
LINE
  8
0
 10
54.303
 20
135.188
 11
54.2408
 21
134.967
  0
LINE
  8
0
 10
54.2408
 20
134.967
 11
54.1505
 21
134.757
  0
LINE
  8
0
 10
54.1505
 20
134.757
 11
54.0334
 21
134.56
  0
LINE
  8
0
 10
54.0334
 20
134.56
 11
53.8917
 21
134.381
  0
LINE
  8
0
 10
53.8917
 20
134.381
 11
53.7278
 21
134.221
  0
LINE
  8
0
 10
53.7278
 20
134.221
 11
53.5443
 21
134.084
  0
LINE
  8
0
 10
53.5443
 20
134.084
 11
53.3446
 21
133.972
  0
LINE
  8
0
 10
53.3446
 20
133.972
 11
53.132
 21
133.887
  0
LINE
  8
0
 10
53.132
 20
133.887
 11
52.9101
 21
133.831
  0
LINE
  8
0
 10
52.9101
 20
133.831
 11
52.6828
 21
133.804
  0
LINE
  8
0
 10
52.6828
 20
133.804
 11
52.4539
 21
133.807
  0
LINE
  8
0
 10
37.4722
 20
104.404
 11
37.2457
 21
104.437
  0
LINE
  8
0
 10
37.2457
 20
104.437
 11
37.0254
 21
104.499
  0
LINE
  8
0
 10
37.0254
 20
104.499
 11
36.8151
 21
104.589
  0
LINE
  8
0
 10
36.8151
 20
104.589
 11
36.6183
 21
104.706
  0
LINE
  8
0
 10
36.6183
 20
104.706
 11
36.4386
 21
104.848
  0
LINE
  8
0
 10
36.4386
 20
104.848
 11
36.2789
 21
105.012
  0
LINE
  8
0
 10
36.2789
 20
105.012
 11
36.1419
 21
105.195
  0
LINE
  8
0
 10
36.1419
 20
105.195
 11
36.03
 21
105.395
  0
LINE
  8
0
 10
36.03
 20
105.395
 11
35.9452
 21
105.608
  0
LINE
  8
0
 10
35.9452
 20
105.608
 11
35.8889
 21
105.83
  0
LINE
  8
0
 10
35.8889
 20
105.83
 11
35.862
 21
106.057
  0
LINE
  8
0
 10
35.862
 20
106.057
 11
35.8649
 21
106.286
  0
LINE
  8
0
 10
35.8649
 20
106.286
 11
35.8978
 21
106.512
  0
LINE
  8
0
 10
35.8978
 20
106.512
 11
35.9599
 21
106.733
  0
LINE
  8
0
 10
35.9599
 20
106.733
 11
36.0503
 21
106.943
  0
LINE
  8
0
 10
36.0503
 20
106.943
 11
36.1673
 21
107.14
  0
LINE
  8
0
 10
36.1673
 20
107.14
 11
36.3091
 21
107.319
  0
LINE
  8
0
 10
36.3091
 20
107.319
 11
36.473
 21
107.479
  0
LINE
  8
0
 10
36.473
 20
107.479
 11
36.6564
 21
107.616
  0
LINE
  8
0
 10
36.6564
 20
107.616
 11
36.8562
 21
107.728
  0
LINE
  8
0
 10
36.8562
 20
107.728
 11
37.0688
 21
107.813
  0
LINE
  8
0
 10
37.0688
 20
107.813
 11
37.2906
 21
107.869
  0
LINE
  8
0
 10
37.2906
 20
107.869
 11
37.518
 21
107.896
  0
LINE
  8
0
 10
37.518
 20
107.896
 11
37.7469
 21
107.893
  0
LINE
  8
0
 10
37.7469
 20
107.893
 11
37.9734
 21
107.86
  0
LINE
  8
0
 10
37.9734
 20
107.86
 11
38.1937
 21
107.798
  0
LINE
  8
0
 10
38.1937
 20
107.798
 11
38.404
 21
107.708
  0
LINE
  8
0
 10
38.404
 20
107.708
 11
38.6008
 21
107.591
  0
LINE
  8
0
 10
38.6008
 20
107.591
 11
38.7805
 21
107.449
  0
LINE
  8
0
 10
38.7805
 20
107.449
 11
38.9402
 21
107.285
  0
LINE
  8
0
 10
38.9402
 20
107.285
 11
39.0772
 21
107.102
  0
LINE
  8
0
 10
39.0772
 20
107.102
 11
39.1891
 21
106.902
  0
LINE
  8
0
 10
39.1891
 20
106.902
 11
39.2739
 21
106.689
  0
LINE
  8
0
 10
39.2739
 20
106.689
 11
39.3302
 21
106.467
  0
LINE
  8
0
 10
39.3302
 20
106.467
 11
39.3571
 21
106.24
  0
LINE
  8
0
 10
39.3571
 20
106.24
 11
39.3542
 21
106.011
  0
LINE
  8
0
 10
39.3542
 20
106.011
 11
39.3213
 21
105.785
  0
LINE
  8
0
 10
39.3213
 20
105.785
 11
39.2592
 21
105.564
  0
LINE
  8
0
 10
39.2592
 20
105.564
 11
39.1688
 21
105.354
  0
LINE
  8
0
 10
39.1688
 20
105.354
 11
39.0518
 21
105.157
  0
LINE
  8
0
 10
39.0518
 20
105.157
 11
38.91
 21
104.977
  0
LINE
  8
0
 10
38.91
 20
104.977
 11
38.7461
 21
104.818
  0
LINE
  8
0
 10
38.7461
 20
104.818
 11
38.5627
 21
104.681
  0
LINE
  8
0
 10
38.5627
 20
104.681
 11
38.3629
 21
104.569
  0
LINE
  8
0
 10
38.3629
 20
104.569
 11
38.1503
 21
104.484
  0
LINE
  8
0
 10
38.1503
 20
104.484
 11
37.9285
 21
104.428
  0
LINE
  8
0
 10
37.9285
 20
104.428
 11
37.7011
 21
104.401
  0
LINE
  8
0
 10
37.7011
 20
104.401
 11
37.4722
 21
104.404
  0
LINE
  8
0
 10
-71.7807
 20
-109.437
 11
-71.3229
 21
-109.327
  0
LINE
  8
0
 10
-71.3229
 20
-109.327
 11
-70.888
 21
-109.147
  0
LINE
  8
0
 10
-70.888
 20
-109.147
 11
-70.4866
 21
-108.901
  0
LINE
  8
0
 10
-70.4866
 20
-108.901
 11
-70.1287
 21
-108.595
  0
LINE
  8
0
 10
-70.1287
 20
-108.595
 11
-69.8229
 21
-108.237
  0
LINE
  8
0
 10
-69.8229
 20
-108.237
 11
-69.577
 21
-107.836
  0
LINE
  8
0
 10
-69.577
 20
-107.836
 11
-69.3968
 21
-107.401
  0
LINE
  8
0
 10
-69.3968
 20
-107.401
 11
-69.2869
 21
-106.943
  0
LINE
  8
0
 10
-69.2869
 20
-106.943
 11
-69.25
 21
-106.474
  0
LINE
  8
0
 10
-69.25
 20
-106.474
 11
-69.25
 21
-100.474
  0
LINE
  8
0
 10
-69.25
 20
-100.474
 11
-69.2869
 21
-100.004
  0
LINE
  8
0
 10
-69.2869
 20
-100.004
 11
-69.3968
 21
-99.5466
  0
LINE
  8
0
 10
-69.3968
 20
-99.5466
 11
-69.577
 21
-99.1117
  0
LINE
  8
0
 10
-69.577
 20
-99.1117
 11
-69.8229
 21
-98.7103
  0
LINE
  8
0
 10
-69.8229
 20
-98.7103
 11
-70.1287
 21
-98.3524
  0
LINE
  8
0
 10
-70.1287
 20
-98.3524
 11
-70.4866
 21
-98.0466
  0
LINE
  8
0
 10
-70.4866
 20
-98.0466
 11
-70.888
 21
-97.8007
  0
LINE
  8
0
 10
-70.888
 20
-97.8007
 11
-71.3229
 21
-97.6205
  0
LINE
  8
0
 10
-71.3229
 20
-97.6205
 11
-71.7807
 21
-97.5106
  0
LINE
  8
0
 10
-71.7807
 20
-97.5106
 11
-72.25
 21
-97.4737
  0
LINE
  8
0
 10
-72.25
 20
-97.4737
 11
-79.5
 21
-97.4737
  0
LINE
  8
0
 10
-79.5
 20
-97.4737
 11
-79.5
 21
-82.9737
  0
LINE
  8
0
 10
-79.5
 20
-82.9737
 11
-72.25
 21
-82.9737
  0
LINE
  8
0
 10
-72.25
 20
-82.9737
 11
-71.7807
 21
-82.9368
  0
LINE
  8
0
 10
-71.7807
 20
-82.9368
 11
-71.3229
 21
-82.8269
  0
LINE
  8
0
 10
-71.3229
 20
-82.8269
 11
-70.888
 21
-82.6467
  0
LINE
  8
0
 10
-70.888
 20
-82.6467
 11
-70.4866
 21
-82.4008
  0
LINE
  8
0
 10
-70.4866
 20
-82.4008
 11
-70.1287
 21
-82.095
  0
LINE
  8
0
 10
-70.1287
 20
-82.095
 11
-69.8229
 21
-81.7371
  0
LINE
  8
0
 10
-69.8229
 20
-81.7371
 11
-69.577
 21
-81.3357
  0
LINE
  8
0
 10
-69.577
 20
-81.3357
 11
-69.3968
 21
-80.9008
  0
LINE
  8
0
 10
-69.3968
 20
-80.9008
 11
-69.2869
 21
-80.443
  0
LINE
  8
0
 10
-69.2869
 20
-80.443
 11
-69.25
 21
-79.9737
  0
LINE
  8
0
 10
-69.25
 20
-79.9737
 11
-69.25
 21
-73.9737
  0
LINE
  8
0
 10
-69.25
 20
-73.9737
 11
-69.2869
 21
-73.5044
  0
LINE
  8
0
 10
-69.2869
 20
-73.5044
 11
-69.3968
 21
-73.0466
  0
LINE
  8
0
 10
-69.3968
 20
-73.0466
 11
-69.577
 21
-72.6117
  0
LINE
  8
0
 10
-69.577
 20
-72.6117
 11
-69.8229
 21
-72.2103
  0
LINE
  8
0
 10
-69.8229
 20
-72.2103
 11
-70.1287
 21
-71.8524
  0
LINE
  8
0
 10
-70.1287
 20
-71.8524
 11
-70.4866
 21
-71.5466
  0
LINE
  8
0
 10
-70.4866
 20
-71.5466
 11
-70.888
 21
-71.3007
  0
LINE
  8
0
 10
-70.888
 20
-71.3007
 11
-71.3229
 21
-71.1205
  0
LINE
  8
0
 10
-71.3229
 20
-71.1205
 11
-71.7807
 21
-71.0106
  0
LINE
  8
0
 10
-71.7807
 20
-71.0106
 11
-72.25
 21
-70.9737
  0
LINE
  8
0
 10
-72.25
 20
-70.9737
 11
-92.8495
 21
-70.9737
  0
LINE
  8
0
 10
-92.8495
 20
-70.9737
 11
-93.1306
 21
-69.5603
  0
LINE
  8
0
 10
-93.1306
 20
-69.5603
 11
-94.2145
 21
-67.9382
  0
LINE
  8
0
 10
-94.2145
 20
-67.9382
 11
-95.8366
 21
-66.8543
  0
LINE
  8
0
 10
-95.8366
 20
-66.8543
 11
-97.75
 21
-66.4737
  0
LINE
  8
0
 10
-97.75
 20
-66.4737
 11
-99.6634
 21
-66.8543
  0
LINE
  8
0
 10
-99.6634
 20
-66.8543
 11
-101.286
 21
-67.9382
  0
LINE
  8
0
 10
-101.286
 20
-67.9382
 11
-102.369
 21
-69.5603
  0
LINE
  8
0
 10
-102.369
 20
-69.5603
 11
-102.651
 21
-70.9737
  0
LINE
  8
0
 10
-102.651
 20
-70.9737
 11
-123.25
 21
-70.9737
  0
LINE
  8
0
 10
-123.25
 20
-70.9737
 11
-123.719
 21
-71.0106
  0
LINE
  8
0
 10
-123.719
 20
-71.0106
 11
-124.177
 21
-71.1205
  0
LINE
  8
0
 10
-124.177
 20
-71.1205
 11
-124.612
 21
-71.3007
  0
LINE
  8
0
 10
-124.612
 20
-71.3007
 11
-125.013
 21
-71.5466
  0
LINE
  8
0
 10
-125.013
 20
-71.5466
 11
-125.371
 21
-71.8524
  0
LINE
  8
0
 10
-125.371
 20
-71.8524
 11
-125.677
 21
-72.2103
  0
LINE
  8
0
 10
-125.677
 20
-72.2103
 11
-125.923
 21
-72.6117
  0
LINE
  8
0
 10
-125.923
 20
-72.6117
 11
-126.103
 21
-73.0466
  0
LINE
  8
0
 10
-126.103
 20
-73.0466
 11
-126.213
 21
-73.5044
  0
LINE
  8
0
 10
-126.213
 20
-73.5044
 11
-126.25
 21
-73.9737
  0
LINE
  8
0
 10
-126.25
 20
-73.9737
 11
-126.25
 21
-79.9737
  0
LINE
  8
0
 10
-126.25
 20
-79.9737
 11
-126.213
 21
-80.443
  0
LINE
  8
0
 10
-126.213
 20
-80.443
 11
-126.103
 21
-80.9008
  0
LINE
  8
0
 10
-126.103
 20
-80.9008
 11
-125.923
 21
-81.3357
  0
LINE
  8
0
 10
-125.923
 20
-81.3357
 11
-125.677
 21
-81.7371
  0
LINE
  8
0
 10
-125.677
 20
-81.7371
 11
-125.371
 21
-82.095
  0
LINE
  8
0
 10
-125.371
 20
-82.095
 11
-125.013
 21
-82.4008
  0
LINE
  8
0
 10
-125.013
 20
-82.4008
 11
-124.612
 21
-82.6467
  0
LINE
  8
0
 10
-124.612
 20
-82.6467
 11
-124.177
 21
-82.8269
  0
LINE
  8
0
 10
-124.177
 20
-82.8269
 11
-123.719
 21
-82.9368
  0
LINE
  8
0
 10
-123.719
 20
-82.9368
 11
-123.25
 21
-82.9737
  0
LINE
  8
0
 10
-123.25
 20
-82.9737
 11
-116
 21
-82.9737
  0
LINE
  8
0
 10
-116
 20
-82.9737
 11
-116
 21
-97.4737
  0
LINE
  8
0
 10
-116
 20
-97.4737
 11
-123.25
 21
-97.4737
  0
LINE
  8
0
 10
-123.25
 20
-97.4737
 11
-123.719
 21
-97.5106
  0
LINE
  8
0
 10
-123.719
 20
-97.5106
 11
-124.177
 21
-97.6205
  0
LINE
  8
0
 10
-124.177
 20
-97.6205
 11
-124.612
 21
-97.8007
  0
LINE
  8
0
 10
-124.612
 20
-97.8007
 11
-125.013
 21
-98.0466
  0
LINE
  8
0
 10
-125.013
 20
-98.0466
 11
-125.371
 21
-98.3524
  0
LINE
  8
0
 10
-125.371
 20
-98.3524
 11
-125.677
 21
-98.7103
  0
LINE
  8
0
 10
-125.677
 20
-98.7103
 11
-125.923
 21
-99.1117
  0
LINE
  8
0
 10
-125.923
 20
-99.1117
 11
-126.103
 21
-99.5466
  0
LINE
  8
0
 10
-126.103
 20
-99.5466
 11
-126.213
 21
-100.004
  0
LINE
  8
0
 10
-126.213
 20
-100.004
 11
-126.25
 21
-100.474
  0
LINE
  8
0
 10
-126.25
 20
-100.474
 11
-126.25
 21
-106.474
  0
LINE
  8
0
 10
-126.25
 20
-106.474
 11
-126.213
 21
-106.943
  0
LINE
  8
0
 10
-126.213
 20
-106.943
 11
-126.103
 21
-107.401
  0
LINE
  8
0
 10
-126.103
 20
-107.401
 11
-125.923
 21
-107.836
  0
LINE
  8
0
 10
-125.923
 20
-107.836
 11
-125.677
 21
-108.237
  0
LINE
  8
0
 10
-125.677
 20
-108.237
 11
-125.371
 21
-108.595
  0
LINE
  8
0
 10
-125.371
 20
-108.595
 11
-125.013
 21
-108.901
  0
LINE
  8
0
 10
-125.013
 20
-108.901
 11
-124.612
 21
-109.147
  0
LINE
  8
0
 10
-124.612
 20
-109.147
 11
-124.177
 21
-109.327
  0
LINE
  8
0
 10
-124.177
 20
-109.327
 11
-123.719
 21
-109.437
  0
LINE
  8
0
 10
-123.719
 20
-109.437
 11
-123.25
 21
-109.474
  0
LINE
  8
0
 10
-123.25
 20
-109.474
 11
-72.25
 21
-109.474
  0
LINE
  8
0
 10
-72.25
 20
-109.474
 11
-71.7807
 21
-109.437
  0
LINE
  8
0
 10
-74.4784
 20
-78.7087
 11
-74.7029
 21
-78.6641
  0
LINE
  8
0
 10
-74.7029
 20
-78.6641
 11
-74.9197
 21
-78.5905
  0
LINE
  8
0
 10
-74.9197
 20
-78.5905
 11
-75.125
 21
-78.4892
  0
LINE
  8
0
 10
-75.125
 20
-78.4892
 11
-75.3153
 21
-78.3621
  0
LINE
  8
0
 10
-75.3153
 20
-78.3621
 11
-75.4874
 21
-78.2111
  0
LINE
  8
0
 10
-75.4874
 20
-78.2111
 11
-75.6384
 21
-78.039
  0
LINE
  8
0
 10
-75.6384
 20
-78.039
 11
-75.7655
 21
-77.8487
  0
LINE
  8
0
 10
-75.7655
 20
-77.8487
 11
-75.8668
 21
-77.6434
  0
LINE
  8
0
 10
-75.8668
 20
-77.6434
 11
-75.9404
 21
-77.4266
  0
LINE
  8
0
 10
-75.9404
 20
-77.4266
 11
-75.985
 21
-77.2021
  0
LINE
  8
0
 10
-75.985
 20
-77.2021
 11
-76
 21
-76.9737
  0
LINE
  8
0
 10
-76
 20
-76.9737
 11
-75.985
 21
-76.7453
  0
LINE
  8
0
 10
-75.985
 20
-76.7453
 11
-75.9404
 21
-76.5208
  0
LINE
  8
0
 10
-75.9404
 20
-76.5208
 11
-75.8668
 21
-76.304
  0
LINE
  8
0
 10
-75.8668
 20
-76.304
 11
-75.7655
 21
-76.0987
  0
LINE
  8
0
 10
-75.7655
 20
-76.0987
 11
-75.6384
 21
-75.9084
  0
LINE
  8
0
 10
-75.6384
 20
-75.9084
 11
-75.4874
 21
-75.7363
  0
LINE
  8
0
 10
-75.4874
 20
-75.7363
 11
-75.3153
 21
-75.5853
  0
LINE
  8
0
 10
-75.3153
 20
-75.5853
 11
-75.125
 21
-75.4582
  0
LINE
  8
0
 10
-75.125
 20
-75.4582
 11
-74.9197
 21
-75.3569
  0
LINE
  8
0
 10
-74.9197
 20
-75.3569
 11
-74.7029
 21
-75.2833
  0
LINE
  8
0
 10
-74.7029
 20
-75.2833
 11
-74.4784
 21
-75.2387
  0
LINE
  8
0
 10
-74.4784
 20
-75.2387
 11
-74.25
 21
-75.2237
  0
LINE
  8
0
 10
-74.25
 20
-75.2237
 11
-74.0216
 21
-75.2387
  0
LINE
  8
0
 10
-74.0216
 20
-75.2387
 11
-73.7971
 21
-75.2833
  0
LINE
  8
0
 10
-73.7971
 20
-75.2833
 11
-73.5803
 21
-75.3569
  0
LINE
  8
0
 10
-73.5803
 20
-75.3569
 11
-73.375
 21
-75.4582
  0
LINE
  8
0
 10
-73.375
 20
-75.4582
 11
-73.1847
 21
-75.5853
  0
LINE
  8
0
 10
-73.1847
 20
-75.5853
 11
-73.0126
 21
-75.7363
  0
LINE
  8
0
 10
-73.0126
 20
-75.7363
 11
-72.8616
 21
-75.9084
  0
LINE
  8
0
 10
-72.8616
 20
-75.9084
 11
-72.7345
 21
-76.0987
  0
LINE
  8
0
 10
-72.7345
 20
-76.0987
 11
-72.6332
 21
-76.304
  0
LINE
  8
0
 10
-72.6332
 20
-76.304
 11
-72.5596
 21
-76.5208
  0
LINE
  8
0
 10
-72.5596
 20
-76.5208
 11
-72.515
 21
-76.7453
  0
LINE
  8
0
 10
-72.515
 20
-76.7453
 11
-72.5
 21
-76.9737
  0
LINE
  8
0
 10
-72.5
 20
-76.9737
 11
-72.515
 21
-77.2021
  0
LINE
  8
0
 10
-72.515
 20
-77.2021
 11
-72.5596
 21
-77.4266
  0
LINE
  8
0
 10
-72.5596
 20
-77.4266
 11
-72.6332
 21
-77.6434
  0
LINE
  8
0
 10
-72.6332
 20
-77.6434
 11
-72.7345
 21
-77.8487
  0
LINE
  8
0
 10
-72.7345
 20
-77.8487
 11
-72.8616
 21
-78.039
  0
LINE
  8
0
 10
-72.8616
 20
-78.039
 11
-73.0126
 21
-78.2111
  0
LINE
  8
0
 10
-73.0126
 20
-78.2111
 11
-73.1847
 21
-78.3621
  0
LINE
  8
0
 10
-73.1847
 20
-78.3621
 11
-73.375
 21
-78.4892
  0
LINE
  8
0
 10
-73.375
 20
-78.4892
 11
-73.5803
 21
-78.5905
  0
LINE
  8
0
 10
-73.5803
 20
-78.5905
 11
-73.7971
 21
-78.6641
  0
LINE
  8
0
 10
-73.7971
 20
-78.6641
 11
-74.0216
 21
-78.7087
  0
LINE
  8
0
 10
-74.0216
 20
-78.7087
 11
-74.25
 21
-78.7237
  0
LINE
  8
0
 10
-74.25
 20
-78.7237
 11
-74.4784
 21
-78.7087
  0
LINE
  8
0
 10
-121.478
 20
-78.7087
 11
-121.703
 21
-78.6641
  0
LINE
  8
0
 10
-121.703
 20
-78.6641
 11
-121.92
 21
-78.5905
  0
LINE
  8
0
 10
-121.92
 20
-78.5905
 11
-122.125
 21
-78.4892
  0
LINE
  8
0
 10
-122.125
 20
-78.4892
 11
-122.315
 21
-78.3621
  0
LINE
  8
0
 10
-122.315
 20
-78.3621
 11
-122.487
 21
-78.2111
  0
LINE
  8
0
 10
-122.487
 20
-78.2111
 11
-122.638
 21
-78.039
  0
LINE
  8
0
 10
-122.638
 20
-78.039
 11
-122.766
 21
-77.8487
  0
LINE
  8
0
 10
-122.766
 20
-77.8487
 11
-122.867
 21
-77.6434
  0
LINE
  8
0
 10
-122.867
 20
-77.6434
 11
-122.94
 21
-77.4266
  0
LINE
  8
0
 10
-122.94
 20
-77.4266
 11
-122.985
 21
-77.2021
  0
LINE
  8
0
 10
-122.985
 20
-77.2021
 11
-123
 21
-76.9737
  0
LINE
  8
0
 10
-123
 20
-76.9737
 11
-122.985
 21
-76.7453
  0
LINE
  8
0
 10
-122.985
 20
-76.7453
 11
-122.94
 21
-76.5208
  0
LINE
  8
0
 10
-122.94
 20
-76.5208
 11
-122.867
 21
-76.304
  0
LINE
  8
0
 10
-122.867
 20
-76.304
 11
-122.766
 21
-76.0987
  0
LINE
  8
0
 10
-122.766
 20
-76.0987
 11
-122.638
 21
-75.9084
  0
LINE
  8
0
 10
-122.638
 20
-75.9084
 11
-122.487
 21
-75.7363
  0
LINE
  8
0
 10
-122.487
 20
-75.7363
 11
-122.315
 21
-75.5853
  0
LINE
  8
0
 10
-122.315
 20
-75.5853
 11
-122.125
 21
-75.4582
  0
LINE
  8
0
 10
-122.125
 20
-75.4582
 11
-121.92
 21
-75.3569
  0
LINE
  8
0
 10
-121.92
 20
-75.3569
 11
-121.703
 21
-75.2833
  0
LINE
  8
0
 10
-121.703
 20
-75.2833
 11
-121.478
 21
-75.2387
  0
LINE
  8
0
 10
-121.478
 20
-75.2387
 11
-121.25
 21
-75.2237
  0
LINE
  8
0
 10
-121.25
 20
-75.2237
 11
-121.022
 21
-75.2387
  0
LINE
  8
0
 10
-121.022
 20
-75.2387
 11
-120.797
 21
-75.2833
  0
LINE
  8
0
 10
-120.797
 20
-75.2833
 11
-120.58
 21
-75.3569
  0
LINE
  8
0
 10
-120.58
 20
-75.3569
 11
-120.375
 21
-75.4582
  0
LINE
  8
0
 10
-120.375
 20
-75.4582
 11
-120.185
 21
-75.5853
  0
LINE
  8
0
 10
-120.185
 20
-75.5853
 11
-120.013
 21
-75.7363
  0
LINE
  8
0
 10
-120.013
 20
-75.7363
 11
-119.862
 21
-75.9084
  0
LINE
  8
0
 10
-119.862
 20
-75.9084
 11
-119.734
 21
-76.0987
  0
LINE
  8
0
 10
-119.734
 20
-76.0987
 11
-119.633
 21
-76.304
  0
LINE
  8
0
 10
-119.633
 20
-76.304
 11
-119.56
 21
-76.5208
  0
LINE
  8
0
 10
-119.56
 20
-76.5208
 11
-119.515
 21
-76.7453
  0
LINE
  8
0
 10
-119.515
 20
-76.7453
 11
-119.5
 21
-76.9737
  0
LINE
  8
0
 10
-119.5
 20
-76.9737
 11
-119.515
 21
-77.2021
  0
LINE
  8
0
 10
-119.515
 20
-77.2021
 11
-119.56
 21
-77.4266
  0
LINE
  8
0
 10
-119.56
 20
-77.4266
 11
-119.633
 21
-77.6434
  0
LINE
  8
0
 10
-119.633
 20
-77.6434
 11
-119.734
 21
-77.8487
  0
LINE
  8
0
 10
-119.734
 20
-77.8487
 11
-119.862
 21
-78.039
  0
LINE
  8
0
 10
-119.862
 20
-78.039
 11
-120.013
 21
-78.2111
  0
LINE
  8
0
 10
-120.013
 20
-78.2111
 11
-120.185
 21
-78.3621
  0
LINE
  8
0
 10
-120.185
 20
-78.3621
 11
-120.375
 21
-78.4892
  0
LINE
  8
0
 10
-120.375
 20
-78.4892
 11
-120.58
 21
-78.5905
  0
LINE
  8
0
 10
-120.58
 20
-78.5905
 11
-120.797
 21
-78.6641
  0
LINE
  8
0
 10
-120.797
 20
-78.6641
 11
-121.022
 21
-78.7087
  0
LINE
  8
0
 10
-121.022
 20
-78.7087
 11
-121.25
 21
-78.7237
  0
LINE
  8
0
 10
-121.25
 20
-78.7237
 11
-121.478
 21
-78.7087
  0
LINE
  8
0
 10
-74.4784
 20
-105.209
 11
-74.7029
 21
-105.164
  0
LINE
  8
0
 10
-74.7029
 20
-105.164
 11
-74.9197
 21
-105.09
  0
LINE
  8
0
 10
-74.9197
 20
-105.09
 11
-75.125
 21
-104.989
  0
LINE
  8
0
 10
-75.125
 20
-104.989
 11
-75.3153
 21
-104.862
  0
LINE
  8
0
 10
-75.3153
 20
-104.862
 11
-75.4874
 21
-104.711
  0
LINE
  8
0
 10
-75.4874
 20
-104.711
 11
-75.6384
 21
-104.539
  0
LINE
  8
0
 10
-75.6384
 20
-104.539
 11
-75.7655
 21
-104.349
  0
LINE
  8
0
 10
-75.7655
 20
-104.349
 11
-75.8668
 21
-104.143
  0
LINE
  8
0
 10
-75.8668
 20
-104.143
 11
-75.9404
 21
-103.927
  0
LINE
  8
0
 10
-75.9404
 20
-103.927
 11
-75.985
 21
-103.702
  0
LINE
  8
0
 10
-75.985
 20
-103.702
 11
-76
 21
-103.474
  0
LINE
  8
0
 10
-76
 20
-103.474
 11
-75.985
 21
-103.245
  0
LINE
  8
0
 10
-75.985
 20
-103.245
 11
-75.9404
 21
-103.021
  0
LINE
  8
0
 10
-75.9404
 20
-103.021
 11
-75.8668
 21
-102.804
  0
LINE
  8
0
 10
-75.8668
 20
-102.804
 11
-75.7655
 21
-102.599
  0
LINE
  8
0
 10
-75.7655
 20
-102.599
 11
-75.6384
 21
-102.408
  0
LINE
  8
0
 10
-75.6384
 20
-102.408
 11
-75.4874
 21
-102.236
  0
LINE
  8
0
 10
-75.4874
 20
-102.236
 11
-75.3153
 21
-102.085
  0
LINE
  8
0
 10
-75.3153
 20
-102.085
 11
-75.125
 21
-101.958
  0
LINE
  8
0
 10
-75.125
 20
-101.958
 11
-74.9197
 21
-101.857
  0
LINE
  8
0
 10
-74.9197
 20
-101.857
 11
-74.7029
 21
-101.783
  0
LINE
  8
0
 10
-74.7029
 20
-101.783
 11
-74.4784
 21
-101.739
  0
LINE
  8
0
 10
-74.4784
 20
-101.739
 11
-74.25
 21
-101.724
  0
LINE
  8
0
 10
-74.25
 20
-101.724
 11
-74.0216
 21
-101.739
  0
LINE
  8
0
 10
-74.0216
 20
-101.739
 11
-73.7971
 21
-101.783
  0
LINE
  8
0
 10
-73.7971
 20
-101.783
 11
-73.5803
 21
-101.857
  0
LINE
  8
0
 10
-73.5803
 20
-101.857
 11
-73.375
 21
-101.958
  0
LINE
  8
0
 10
-73.375
 20
-101.958
 11
-73.1847
 21
-102.085
  0
LINE
  8
0
 10
-73.1847
 20
-102.085
 11
-73.0126
 21
-102.236
  0
LINE
  8
0
 10
-73.0126
 20
-102.236
 11
-72.8616
 21
-102.408
  0
LINE
  8
0
 10
-72.8616
 20
-102.408
 11
-72.7345
 21
-102.599
  0
LINE
  8
0
 10
-72.7345
 20
-102.599
 11
-72.6332
 21
-102.804
  0
LINE
  8
0
 10
-72.6332
 20
-102.804
 11
-72.5596
 21
-103.021
  0
LINE
  8
0
 10
-72.5596
 20
-103.021
 11
-72.515
 21
-103.245
  0
LINE
  8
0
 10
-72.515
 20
-103.245
 11
-72.5
 21
-103.474
  0
LINE
  8
0
 10
-72.5
 20
-103.474
 11
-72.515
 21
-103.702
  0
LINE
  8
0
 10
-72.515
 20
-103.702
 11
-72.5596
 21
-103.927
  0
LINE
  8
0
 10
-72.5596
 20
-103.927
 11
-72.6332
 21
-104.143
  0
LINE
  8
0
 10
-72.6332
 20
-104.143
 11
-72.7345
 21
-104.349
  0
LINE
  8
0
 10
-72.7345
 20
-104.349
 11
-72.8616
 21
-104.539
  0
LINE
  8
0
 10
-72.8616
 20
-104.539
 11
-73.0126
 21
-104.711
  0
LINE
  8
0
 10
-73.0126
 20
-104.711
 11
-73.1847
 21
-104.862
  0
LINE
  8
0
 10
-73.1847
 20
-104.862
 11
-73.375
 21
-104.989
  0
LINE
  8
0
 10
-73.375
 20
-104.989
 11
-73.5803
 21
-105.09
  0
LINE
  8
0
 10
-73.5803
 20
-105.09
 11
-73.7971
 21
-105.164
  0
LINE
  8
0
 10
-73.7971
 20
-105.164
 11
-74.0216
 21
-105.209
  0
LINE
  8
0
 10
-74.0216
 20
-105.209
 11
-74.25
 21
-105.224
  0
LINE
  8
0
 10
-74.25
 20
-105.224
 11
-74.4784
 21
-105.209
  0
LINE
  8
0
 10
-121.478
 20
-105.209
 11
-121.703
 21
-105.164
  0
LINE
  8
0
 10
-121.703
 20
-105.164
 11
-121.92
 21
-105.09
  0
LINE
  8
0
 10
-121.92
 20
-105.09
 11
-122.125
 21
-104.989
  0
LINE
  8
0
 10
-122.125
 20
-104.989
 11
-122.315
 21
-104.862
  0
LINE
  8
0
 10
-122.315
 20
-104.862
 11
-122.487
 21
-104.711
  0
LINE
  8
0
 10
-122.487
 20
-104.711
 11
-122.638
 21
-104.539
  0
LINE
  8
0
 10
-122.638
 20
-104.539
 11
-122.766
 21
-104.349
  0
LINE
  8
0
 10
-122.766
 20
-104.349
 11
-122.867
 21
-104.143
  0
LINE
  8
0
 10
-122.867
 20
-104.143
 11
-122.94
 21
-103.927
  0
LINE
  8
0
 10
-122.94
 20
-103.927
 11
-122.985
 21
-103.702
  0
LINE
  8
0
 10
-122.985
 20
-103.702
 11
-123
 21
-103.474
  0
LINE
  8
0
 10
-123
 20
-103.474
 11
-122.985
 21
-103.245
  0
LINE
  8
0
 10
-122.985
 20
-103.245
 11
-122.94
 21
-103.021
  0
LINE
  8
0
 10
-122.94
 20
-103.021
 11
-122.867
 21
-102.804
  0
LINE
  8
0
 10
-122.867
 20
-102.804
 11
-122.766
 21
-102.599
  0
LINE
  8
0
 10
-122.766
 20
-102.599
 11
-122.638
 21
-102.408
  0
LINE
  8
0
 10
-122.638
 20
-102.408
 11
-122.487
 21
-102.236
  0
LINE
  8
0
 10
-122.487
 20
-102.236
 11
-122.315
 21
-102.085
  0
LINE
  8
0
 10
-122.315
 20
-102.085
 11
-122.125
 21
-101.958
  0
LINE
  8
0
 10
-122.125
 20
-101.958
 11
-121.92
 21
-101.857
  0
LINE
  8
0
 10
-121.92
 20
-101.857
 11
-121.703
 21
-101.783
  0
LINE
  8
0
 10
-121.703
 20
-101.783
 11
-121.478
 21
-101.739
  0
LINE
  8
0
 10
-121.478
 20
-101.739
 11
-121.25
 21
-101.724
  0
LINE
  8
0
 10
-121.25
 20
-101.724
 11
-121.022
 21
-101.739
  0
LINE
  8
0
 10
-121.022
 20
-101.739
 11
-120.797
 21
-101.783
  0
LINE
  8
0
 10
-120.797
 20
-101.783
 11
-120.58
 21
-101.857
  0
LINE
  8
0
 10
-120.58
 20
-101.857
 11
-120.375
 21
-101.958
  0
LINE
  8
0
 10
-120.375
 20
-101.958
 11
-120.185
 21
-102.085
  0
LINE
  8
0
 10
-120.185
 20
-102.085
 11
-120.013
 21
-102.236
  0
LINE
  8
0
 10
-120.013
 20
-102.236
 11
-119.862
 21
-102.408
  0
LINE
  8
0
 10
-119.862
 20
-102.408
 11
-119.734
 21
-102.599
  0
LINE
  8
0
 10
-119.734
 20
-102.599
 11
-119.633
 21
-102.804
  0
LINE
  8
0
 10
-119.633
 20
-102.804
 11
-119.56
 21
-103.021
  0
LINE
  8
0
 10
-119.56
 20
-103.021
 11
-119.515
 21
-103.245
  0
LINE
  8
0
 10
-119.515
 20
-103.245
 11
-119.5
 21
-103.474
  0
LINE
  8
0
 10
-119.5
 20
-103.474
 11
-119.515
 21
-103.702
  0
LINE
  8
0
 10
-119.515
 20
-103.702
 11
-119.56
 21
-103.927
  0
LINE
  8
0
 10
-119.56
 20
-103.927
 11
-119.633
 21
-104.143
  0
LINE
  8
0
 10
-119.633
 20
-104.143
 11
-119.734
 21
-104.349
  0
LINE
  8
0
 10
-119.734
 20
-104.349
 11
-119.862
 21
-104.539
  0
LINE
  8
0
 10
-119.862
 20
-104.539
 11
-120.013
 21
-104.711
  0
LINE
  8
0
 10
-120.013
 20
-104.711
 11
-120.185
 21
-104.862
  0
LINE
  8
0
 10
-120.185
 20
-104.862
 11
-120.375
 21
-104.989
  0
LINE
  8
0
 10
-120.375
 20
-104.989
 11
-120.58
 21
-105.09
  0
LINE
  8
0
 10
-120.58
 20
-105.09
 11
-120.797
 21
-105.164
  0
LINE
  8
0
 10
-120.797
 20
-105.164
 11
-121.022
 21
-105.209
  0
LINE
  8
0
 10
-121.022
 20
-105.209
 11
-121.25
 21
-105.224
  0
LINE
  8
0
 10
-121.25
 20
-105.224
 11
-121.478
 21
-105.209
  0
LINE
  8
0
 10
225.969
 20
-151.437
 11
226.427
 21
-151.327
  0
LINE
  8
0
 10
226.427
 20
-151.327
 11
226.862
 21
-151.147
  0
LINE
  8
0
 10
226.862
 20
-151.147
 11
227.263
 21
-150.901
  0
LINE
  8
0
 10
227.263
 20
-150.901
 11
227.621
 21
-150.595
  0
LINE
  8
0
 10
227.621
 20
-150.595
 11
227.927
 21
-150.237
  0
LINE
  8
0
 10
227.927
 20
-150.237
 11
228.173
 21
-149.836
  0
LINE
  8
0
 10
228.173
 20
-149.836
 11
228.353
 21
-149.401
  0
LINE
  8
0
 10
228.353
 20
-149.401
 11
228.463
 21
-148.943
  0
LINE
  8
0
 10
228.463
 20
-148.943
 11
228.5
 21
-148.474
  0
LINE
  8
0
 10
228.5
 20
-148.474
 11
228.5
 21
-142.474
  0
LINE
  8
0
 10
228.5
 20
-142.474
 11
228.463
 21
-142.004
  0
LINE
  8
0
 10
228.463
 20
-142.004
 11
228.353
 21
-141.547
  0
LINE
  8
0
 10
228.353
 20
-141.547
 11
228.173
 21
-141.112
  0
LINE
  8
0
 10
228.173
 20
-141.112
 11
227.927
 21
-140.71
  0
LINE
  8
0
 10
227.927
 20
-140.71
 11
227.621
 21
-140.352
  0
LINE
  8
0
 10
227.621
 20
-140.352
 11
227.263
 21
-140.047
  0
LINE
  8
0
 10
227.263
 20
-140.047
 11
226.862
 21
-139.801
  0
LINE
  8
0
 10
226.862
 20
-139.801
 11
226.427
 21
-139.621
  0
LINE
  8
0
 10
226.427
 20
-139.621
 11
225.969
 21
-139.511
  0
LINE
  8
0
 10
225.969
 20
-139.511
 11
225.5
 21
-139.474
  0
LINE
  8
0
 10
225.5
 20
-139.474
 11
218.25
 21
-139.474
  0
LINE
  8
0
 10
218.25
 20
-139.474
 11
218.25
 21
-124.974
  0
LINE
  8
0
 10
218.25
 20
-124.974
 11
225.5
 21
-124.974
  0
LINE
  8
0
 10
225.5
 20
-124.974
 11
225.969
 21
-124.937
  0
LINE
  8
0
 10
225.969
 20
-124.937
 11
226.427
 21
-124.827
  0
LINE
  8
0
 10
226.427
 20
-124.827
 11
226.862
 21
-124.647
  0
LINE
  8
0
 10
226.862
 20
-124.647
 11
227.263
 21
-124.401
  0
LINE
  8
0
 10
227.263
 20
-124.401
 11
227.621
 21
-124.095
  0
LINE
  8
0
 10
227.621
 20
-124.095
 11
227.927
 21
-123.737
  0
LINE
  8
0
 10
227.927
 20
-123.737
 11
228.173
 21
-123.336
  0
LINE
  8
0
 10
228.173
 20
-123.336
 11
228.353
 21
-122.901
  0
LINE
  8
0
 10
228.353
 20
-122.901
 11
228.463
 21
-122.443
  0
LINE
  8
0
 10
228.463
 20
-122.443
 11
228.5
 21
-121.974
  0
LINE
  8
0
 10
228.5
 20
-121.974
 11
228.5
 21
-115.974
  0
LINE
  8
0
 10
228.5
 20
-115.974
 11
228.463
 21
-115.504
  0
LINE
  8
0
 10
228.463
 20
-115.504
 11
228.353
 21
-115.047
  0
LINE
  8
0
 10
228.353
 20
-115.047
 11
228.173
 21
-114.612
  0
LINE
  8
0
 10
228.173
 20
-114.612
 11
227.927
 21
-114.21
  0
LINE
  8
0
 10
227.927
 20
-114.21
 11
227.621
 21
-113.852
  0
LINE
  8
0
 10
227.621
 20
-113.852
 11
227.263
 21
-113.547
  0
LINE
  8
0
 10
227.263
 20
-113.547
 11
226.862
 21
-113.301
  0
LINE
  8
0
 10
226.862
 20
-113.301
 11
226.427
 21
-113.121
  0
LINE
  8
0
 10
226.427
 20
-113.121
 11
225.969
 21
-113.011
  0
LINE
  8
0
 10
225.969
 20
-113.011
 11
225.5
 21
-112.974
  0
LINE
  8
0
 10
225.5
 20
-112.974
 11
204.901
 21
-112.974
  0
LINE
  8
0
 10
204.901
 20
-112.974
 11
204.619
 21
-111.56
  0
LINE
  8
0
 10
204.619
 20
-111.56
 11
203.536
 21
-109.938
  0
LINE
  8
0
 10
203.536
 20
-109.938
 11
201.913
 21
-108.854
  0
LINE
  8
0
 10
201.913
 20
-108.854
 11
200
 21
-108.474
  0
LINE
  8
0
 10
200
 20
-108.474
 11
198.087
 21
-108.854
  0
LINE
  8
0
 10
198.087
 20
-108.854
 11
196.464
 21
-109.938
  0
LINE
  8
0
 10
196.464
 20
-109.938
 11
195.381
 21
-111.56
  0
LINE
  8
0
 10
195.381
 20
-111.56
 11
195.099
 21
-112.974
  0
LINE
  8
0
 10
195.099
 20
-112.974
 11
174.5
 21
-112.974
  0
LINE
  8
0
 10
174.5
 20
-112.974
 11
174.031
 21
-113.011
  0
LINE
  8
0
 10
174.031
 20
-113.011
 11
173.573
 21
-113.121
  0
LINE
  8
0
 10
173.573
 20
-113.121
 11
173.138
 21
-113.301
  0
LINE
  8
0
 10
173.138
 20
-113.301
 11
172.737
 21
-113.547
  0
LINE
  8
0
 10
172.737
 20
-113.547
 11
172.379
 21
-113.852
  0
LINE
  8
0
 10
172.379
 20
-113.852
 11
172.073
 21
-114.21
  0
LINE
  8
0
 10
172.073
 20
-114.21
 11
171.827
 21
-114.612
  0
LINE
  8
0
 10
171.827
 20
-114.612
 11
171.647
 21
-115.047
  0
LINE
  8
0
 10
171.647
 20
-115.047
 11
171.537
 21
-115.504
  0
LINE
  8
0
 10
171.537
 20
-115.504
 11
171.5
 21
-115.974
  0
LINE
  8
0
 10
171.5
 20
-115.974
 11
171.5
 21
-121.974
  0
LINE
  8
0
 10
171.5
 20
-121.974
 11
171.537
 21
-122.443
  0
LINE
  8
0
 10
171.537
 20
-122.443
 11
171.647
 21
-122.901
  0
LINE
  8
0
 10
171.647
 20
-122.901
 11
171.827
 21
-123.336
  0
LINE
  8
0
 10
171.827
 20
-123.336
 11
172.073
 21
-123.737
  0
LINE
  8
0
 10
172.073
 20
-123.737
 11
172.379
 21
-124.095
  0
LINE
  8
0
 10
172.379
 20
-124.095
 11
172.737
 21
-124.401
  0
LINE
  8
0
 10
172.737
 20
-124.401
 11
173.138
 21
-124.647
  0
LINE
  8
0
 10
173.138
 20
-124.647
 11
173.573
 21
-124.827
  0
LINE
  8
0
 10
173.573
 20
-124.827
 11
174.031
 21
-124.937
  0
LINE
  8
0
 10
174.031
 20
-124.937
 11
174.5
 21
-124.974
  0
LINE
  8
0
 10
174.5
 20
-124.974
 11
181.75
 21
-124.974
  0
LINE
  8
0
 10
181.75
 20
-124.974
 11
181.75
 21
-139.474
  0
LINE
  8
0
 10
181.75
 20
-139.474
 11
174.5
 21
-139.474
  0
LINE
  8
0
 10
174.5
 20
-139.474
 11
174.031
 21
-139.511
  0
LINE
  8
0
 10
174.031
 20
-139.511
 11
173.573
 21
-139.621
  0
LINE
  8
0
 10
173.573
 20
-139.621
 11
173.138
 21
-139.801
  0
LINE
  8
0
 10
173.138
 20
-139.801
 11
172.737
 21
-140.047
  0
LINE
  8
0
 10
172.737
 20
-140.047
 11
172.379
 21
-140.352
  0
LINE
  8
0
 10
172.379
 20
-140.352
 11
172.073
 21
-140.71
  0
LINE
  8
0
 10
172.073
 20
-140.71
 11
171.827
 21
-141.112
  0
LINE
  8
0
 10
171.827
 20
-141.112
 11
171.647
 21
-141.547
  0
LINE
  8
0
 10
171.647
 20
-141.547
 11
171.537
 21
-142.004
  0
LINE
  8
0
 10
171.537
 20
-142.004
 11
171.5
 21
-142.474
  0
LINE
  8
0
 10
171.5
 20
-142.474
 11
171.5
 21
-148.474
  0
LINE
  8
0
 10
171.5
 20
-148.474
 11
171.537
 21
-148.943
  0
LINE
  8
0
 10
171.537
 20
-148.943
 11
171.647
 21
-149.401
  0
LINE
  8
0
 10
171.647
 20
-149.401
 11
171.827
 21
-149.836
  0
LINE
  8
0
 10
171.827
 20
-149.836
 11
172.073
 21
-150.237
  0
LINE
  8
0
 10
172.073
 20
-150.237
 11
172.379
 21
-150.595
  0
LINE
  8
0
 10
172.379
 20
-150.595
 11
172.737
 21
-150.901
  0
LINE
  8
0
 10
172.737
 20
-150.901
 11
173.138
 21
-151.147
  0
LINE
  8
0
 10
173.138
 20
-151.147
 11
173.573
 21
-151.327
  0
LINE
  8
0
 10
173.573
 20
-151.327
 11
174.031
 21
-151.437
  0
LINE
  8
0
 10
174.031
 20
-151.437
 11
174.5
 21
-151.474
  0
LINE
  8
0
 10
174.5
 20
-151.474
 11
225.5
 21
-151.474
  0
LINE
  8
0
 10
225.5
 20
-151.474
 11
225.969
 21
-151.437
  0
LINE
  8
0
 10
223.272
 20
-120.709
 11
223.047
 21
-120.664
  0
LINE
  8
0
 10
223.047
 20
-120.664
 11
222.83
 21
-120.59
  0
LINE
  8
0
 10
222.83
 20
-120.59
 11
222.625
 21
-120.489
  0
LINE
  8
0
 10
222.625
 20
-120.489
 11
222.435
 21
-120.362
  0
LINE
  8
0
 10
222.435
 20
-120.362
 11
222.263
 21
-120.211
  0
LINE
  8
0
 10
222.263
 20
-120.211
 11
222.112
 21
-120.039
  0
LINE
  8
0
 10
222.112
 20
-120.039
 11
221.984
 21
-119.849
  0
LINE
  8
0
 10
221.984
 20
-119.849
 11
221.883
 21
-119.643
  0
LINE
  8
0
 10
221.883
 20
-119.643
 11
221.81
 21
-119.427
  0
LINE
  8
0
 10
221.81
 20
-119.427
 11
221.765
 21
-119.202
  0
LINE
  8
0
 10
221.765
 20
-119.202
 11
221.75
 21
-118.974
  0
LINE
  8
0
 10
221.75
 20
-118.974
 11
221.765
 21
-118.745
  0
LINE
  8
0
 10
221.765
 20
-118.745
 11
221.81
 21
-118.521
  0
LINE
  8
0
 10
221.81
 20
-118.521
 11
221.883
 21
-118.304
  0
LINE
  8
0
 10
221.883
 20
-118.304
 11
221.984
 21
-118.099
  0
LINE
  8
0
 10
221.984
 20
-118.099
 11
222.112
 21
-117.908
  0
LINE
  8
0
 10
222.112
 20
-117.908
 11
222.263
 21
-117.736
  0
LINE
  8
0
 10
222.263
 20
-117.736
 11
222.435
 21
-117.585
  0
LINE
  8
0
 10
222.435
 20
-117.585
 11
222.625
 21
-117.458
  0
LINE
  8
0
 10
222.625
 20
-117.458
 11
222.83
 21
-117.357
  0
LINE
  8
0
 10
222.83
 20
-117.357
 11
223.047
 21
-117.283
  0
LINE
  8
0
 10
223.047
 20
-117.283
 11
223.272
 21
-117.239
  0
LINE
  8
0
 10
223.272
 20
-117.239
 11
223.5
 21
-117.224
  0
LINE
  8
0
 10
223.5
 20
-117.224
 11
223.728
 21
-117.239
  0
LINE
  8
0
 10
223.728
 20
-117.239
 11
223.953
 21
-117.283
  0
LINE
  8
0
 10
223.953
 20
-117.283
 11
224.17
 21
-117.357
  0
LINE
  8
0
 10
224.17
 20
-117.357
 11
224.375
 21
-117.458
  0
LINE
  8
0
 10
224.375
 20
-117.458
 11
224.565
 21
-117.585
  0
LINE
  8
0
 10
224.565
 20
-117.585
 11
224.737
 21
-117.736
  0
LINE
  8
0
 10
224.737
 20
-117.736
 11
224.888
 21
-117.908
  0
LINE
  8
0
 10
224.888
 20
-117.908
 11
225.016
 21
-118.099
  0
LINE
  8
0
 10
225.016
 20
-118.099
 11
225.117
 21
-118.304
  0
LINE
  8
0
 10
225.117
 20
-118.304
 11
225.19
 21
-118.521
  0
LINE
  8
0
 10
225.19
 20
-118.521
 11
225.235
 21
-118.745
  0
LINE
  8
0
 10
225.235
 20
-118.745
 11
225.25
 21
-118.974
  0
LINE
  8
0
 10
225.25
 20
-118.974
 11
225.235
 21
-119.202
  0
LINE
  8
0
 10
225.235
 20
-119.202
 11
225.19
 21
-119.427
  0
LINE
  8
0
 10
225.19
 20
-119.427
 11
225.117
 21
-119.643
  0
LINE
  8
0
 10
225.117
 20
-119.643
 11
225.016
 21
-119.849
  0
LINE
  8
0
 10
225.016
 20
-119.849
 11
224.888
 21
-120.039
  0
LINE
  8
0
 10
224.888
 20
-120.039
 11
224.737
 21
-120.211
  0
LINE
  8
0
 10
224.737
 20
-120.211
 11
224.565
 21
-120.362
  0
LINE
  8
0
 10
224.565
 20
-120.362
 11
224.375
 21
-120.489
  0
LINE
  8
0
 10
224.375
 20
-120.489
 11
224.17
 21
-120.59
  0
LINE
  8
0
 10
224.17
 20
-120.59
 11
223.953
 21
-120.664
  0
LINE
  8
0
 10
223.953
 20
-120.664
 11
223.728
 21
-120.709
  0
LINE
  8
0
 10
223.728
 20
-120.709
 11
223.5
 21
-120.724
  0
LINE
  8
0
 10
223.5
 20
-120.724
 11
223.272
 21
-120.709
  0
LINE
  8
0
 10
176.272
 20
-120.709
 11
176.047
 21
-120.664
  0
LINE
  8
0
 10
176.047
 20
-120.664
 11
175.83
 21
-120.59
  0
LINE
  8
0
 10
175.83
 20
-120.59
 11
175.625
 21
-120.489
  0
LINE
  8
0
 10
175.625
 20
-120.489
 11
175.435
 21
-120.362
  0
LINE
  8
0
 10
175.435
 20
-120.362
 11
175.263
 21
-120.211
  0
LINE
  8
0
 10
175.263
 20
-120.211
 11
175.112
 21
-120.039
  0
LINE
  8
0
 10
175.112
 20
-120.039
 11
174.984
 21
-119.849
  0
LINE
  8
0
 10
174.984
 20
-119.849
 11
174.883
 21
-119.643
  0
LINE
  8
0
 10
174.883
 20
-119.643
 11
174.81
 21
-119.427
  0
LINE
  8
0
 10
174.81
 20
-119.427
 11
174.765
 21
-119.202
  0
LINE
  8
0
 10
174.765
 20
-119.202
 11
174.75
 21
-118.974
  0
LINE
  8
0
 10
174.75
 20
-118.974
 11
174.765
 21
-118.745
  0
LINE
  8
0
 10
174.765
 20
-118.745
 11
174.81
 21
-118.521
  0
LINE
  8
0
 10
174.81
 20
-118.521
 11
174.883
 21
-118.304
  0
LINE
  8
0
 10
174.883
 20
-118.304
 11
174.984
 21
-118.099
  0
LINE
  8
0
 10
174.984
 20
-118.099
 11
175.112
 21
-117.908
  0
LINE
  8
0
 10
175.112
 20
-117.908
 11
175.263
 21
-117.736
  0
LINE
  8
0
 10
175.263
 20
-117.736
 11
175.435
 21
-117.585
  0
LINE
  8
0
 10
175.435
 20
-117.585
 11
175.625
 21
-117.458
  0
LINE
  8
0
 10
175.625
 20
-117.458
 11
175.83
 21
-117.357
  0
LINE
  8
0
 10
175.83
 20
-117.357
 11
176.047
 21
-117.283
  0
LINE
  8
0
 10
176.047
 20
-117.283
 11
176.272
 21
-117.239
  0
LINE
  8
0
 10
176.272
 20
-117.239
 11
176.5
 21
-117.224
  0
LINE
  8
0
 10
176.5
 20
-117.224
 11
176.728
 21
-117.239
  0
LINE
  8
0
 10
176.728
 20
-117.239
 11
176.953
 21
-117.283
  0
LINE
  8
0
 10
176.953
 20
-117.283
 11
177.17
 21
-117.357
  0
LINE
  8
0
 10
177.17
 20
-117.357
 11
177.375
 21
-117.458
  0
LINE
  8
0
 10
177.375
 20
-117.458
 11
177.565
 21
-117.585
  0
LINE
  8
0
 10
177.565
 20
-117.585
 11
177.737
 21
-117.736
  0
LINE
  8
0
 10
177.737
 20
-117.736
 11
177.888
 21
-117.908
  0
LINE
  8
0
 10
177.888
 20
-117.908
 11
178.016
 21
-118.099
  0
LINE
  8
0
 10
178.016
 20
-118.099
 11
178.117
 21
-118.304
  0
LINE
  8
0
 10
178.117
 20
-118.304
 11
178.19
 21
-118.521
  0
LINE
  8
0
 10
178.19
 20
-118.521
 11
178.235
 21
-118.745
  0
LINE
  8
0
 10
178.235
 20
-118.745
 11
178.25
 21
-118.974
  0
LINE
  8
0
 10
178.25
 20
-118.974
 11
178.235
 21
-119.202
  0
LINE
  8
0
 10
178.235
 20
-119.202
 11
178.19
 21
-119.427
  0
LINE
  8
0
 10
178.19
 20
-119.427
 11
178.117
 21
-119.643
  0
LINE
  8
0
 10
178.117
 20
-119.643
 11
178.016
 21
-119.849
  0
LINE
  8
0
 10
178.016
 20
-119.849
 11
177.888
 21
-120.039
  0
LINE
  8
0
 10
177.888
 20
-120.039
 11
177.737
 21
-120.211
  0
LINE
  8
0
 10
177.737
 20
-120.211
 11
177.565
 21
-120.362
  0
LINE
  8
0
 10
177.565
 20
-120.362
 11
177.375
 21
-120.489
  0
LINE
  8
0
 10
177.375
 20
-120.489
 11
177.17
 21
-120.59
  0
LINE
  8
0
 10
177.17
 20
-120.59
 11
176.953
 21
-120.664
  0
LINE
  8
0
 10
176.953
 20
-120.664
 11
176.728
 21
-120.709
  0
LINE
  8
0
 10
176.728
 20
-120.709
 11
176.5
 21
-120.724
  0
LINE
  8
0
 10
176.5
 20
-120.724
 11
176.272
 21
-120.709
  0
LINE
  8
0
 10
223.272
 20
-147.209
 11
223.047
 21
-147.164
  0
LINE
  8
0
 10
223.047
 20
-147.164
 11
222.83
 21
-147.09
  0
LINE
  8
0
 10
222.83
 20
-147.09
 11
222.625
 21
-146.989
  0
LINE
  8
0
 10
222.625
 20
-146.989
 11
222.435
 21
-146.862
  0
LINE
  8
0
 10
222.435
 20
-146.862
 11
222.263
 21
-146.711
  0
LINE
  8
0
 10
222.263
 20
-146.711
 11
222.112
 21
-146.539
  0
LINE
  8
0
 10
222.112
 20
-146.539
 11
221.984
 21
-146.349
  0
LINE
  8
0
 10
221.984
 20
-146.349
 11
221.883
 21
-146.143
  0
LINE
  8
0
 10
221.883
 20
-146.143
 11
221.81
 21
-145.927
  0
LINE
  8
0
 10
221.81
 20
-145.927
 11
221.765
 21
-145.702
  0
LINE
  8
0
 10
221.765
 20
-145.702
 11
221.75
 21
-145.474
  0
LINE
  8
0
 10
221.75
 20
-145.474
 11
221.765
 21
-145.245
  0
LINE
  8
0
 10
221.765
 20
-145.245
 11
221.81
 21
-145.021
  0
LINE
  8
0
 10
221.81
 20
-145.021
 11
221.883
 21
-144.804
  0
LINE
  8
0
 10
221.883
 20
-144.804
 11
221.984
 21
-144.599
  0
LINE
  8
0
 10
221.984
 20
-144.599
 11
222.112
 21
-144.408
  0
LINE
  8
0
 10
222.112
 20
-144.408
 11
222.263
 21
-144.236
  0
LINE
  8
0
 10
222.263
 20
-144.236
 11
222.435
 21
-144.085
  0
LINE
  8
0
 10
222.435
 20
-144.085
 11
222.625
 21
-143.958
  0
LINE
  8
0
 10
222.625
 20
-143.958
 11
222.83
 21
-143.857
  0
LINE
  8
0
 10
222.83
 20
-143.857
 11
223.047
 21
-143.783
  0
LINE
  8
0
 10
223.047
 20
-143.783
 11
223.272
 21
-143.739
  0
LINE
  8
0
 10
223.272
 20
-143.739
 11
223.5
 21
-143.724
  0
LINE
  8
0
 10
223.5
 20
-143.724
 11
223.728
 21
-143.739
  0
LINE
  8
0
 10
223.728
 20
-143.739
 11
223.953
 21
-143.783
  0
LINE
  8
0
 10
223.953
 20
-143.783
 11
224.17
 21
-143.857
  0
LINE
  8
0
 10
224.17
 20
-143.857
 11
224.375
 21
-143.958
  0
LINE
  8
0
 10
224.375
 20
-143.958
 11
224.565
 21
-144.085
  0
LINE
  8
0
 10
224.565
 20
-144.085
 11
224.737
 21
-144.236
  0
LINE
  8
0
 10
224.737
 20
-144.236
 11
224.888
 21
-144.408
  0
LINE
  8
0
 10
224.888
 20
-144.408
 11
225.016
 21
-144.599
  0
LINE
  8
0
 10
225.016
 20
-144.599
 11
225.117
 21
-144.804
  0
LINE
  8
0
 10
225.117
 20
-144.804
 11
225.19
 21
-145.021
  0
LINE
  8
0
 10
225.19
 20
-145.021
 11
225.235
 21
-145.245
  0
LINE
  8
0
 10
225.235
 20
-145.245
 11
225.25
 21
-145.474
  0
LINE
  8
0
 10
225.25
 20
-145.474
 11
225.235
 21
-145.702
  0
LINE
  8
0
 10
225.235
 20
-145.702
 11
225.19
 21
-145.927
  0
LINE
  8
0
 10
225.19
 20
-145.927
 11
225.117
 21
-146.143
  0
LINE
  8
0
 10
225.117
 20
-146.143
 11
225.016
 21
-146.349
  0
LINE
  8
0
 10
225.016
 20
-146.349
 11
224.888
 21
-146.539
  0
LINE
  8
0
 10
224.888
 20
-146.539
 11
224.737
 21
-146.711
  0
LINE
  8
0
 10
224.737
 20
-146.711
 11
224.565
 21
-146.862
  0
LINE
  8
0
 10
224.565
 20
-146.862
 11
224.375
 21
-146.989
  0
LINE
  8
0
 10
224.375
 20
-146.989
 11
224.17
 21
-147.09
  0
LINE
  8
0
 10
224.17
 20
-147.09
 11
223.953
 21
-147.164
  0
LINE
  8
0
 10
223.953
 20
-147.164
 11
223.728
 21
-147.209
  0
LINE
  8
0
 10
223.728
 20
-147.209
 11
223.5
 21
-147.224
  0
LINE
  8
0
 10
223.5
 20
-147.224
 11
223.272
 21
-147.209
  0
LINE
  8
0
 10
176.272
 20
-147.209
 11
176.047
 21
-147.164
  0
LINE
  8
0
 10
176.047
 20
-147.164
 11
175.83
 21
-147.09
  0
LINE
  8
0
 10
175.83
 20
-147.09
 11
175.625
 21
-146.989
  0
LINE
  8
0
 10
175.625
 20
-146.989
 11
175.435
 21
-146.862
  0
LINE
  8
0
 10
175.435
 20
-146.862
 11
175.263
 21
-146.711
  0
LINE
  8
0
 10
175.263
 20
-146.711
 11
175.112
 21
-146.539
  0
LINE
  8
0
 10
175.112
 20
-146.539
 11
174.984
 21
-146.349
  0
LINE
  8
0
 10
174.984
 20
-146.349
 11
174.883
 21
-146.143
  0
LINE
  8
0
 10
174.883
 20
-146.143
 11
174.81
 21
-145.927
  0
LINE
  8
0
 10
174.81
 20
-145.927
 11
174.765
 21
-145.702
  0
LINE
  8
0
 10
174.765
 20
-145.702
 11
174.75
 21
-145.474
  0
LINE
  8
0
 10
174.75
 20
-145.474
 11
174.765
 21
-145.245
  0
LINE
  8
0
 10
174.765
 20
-145.245
 11
174.81
 21
-145.021
  0
LINE
  8
0
 10
174.81
 20
-145.021
 11
174.883
 21
-144.804
  0
LINE
  8
0
 10
174.883
 20
-144.804
 11
174.984
 21
-144.599
  0
LINE
  8
0
 10
174.984
 20
-144.599
 11
175.112
 21
-144.408
  0
LINE
  8
0
 10
175.112
 20
-144.408
 11
175.263
 21
-144.236
  0
LINE
  8
0
 10
175.263
 20
-144.236
 11
175.435
 21
-144.085
  0
LINE
  8
0
 10
175.435
 20
-144.085
 11
175.625
 21
-143.958
  0
LINE
  8
0
 10
175.625
 20
-143.958
 11
175.83
 21
-143.857
  0
LINE
  8
0
 10
175.83
 20
-143.857
 11
176.047
 21
-143.783
  0
LINE
  8
0
 10
176.047
 20
-143.783
 11
176.272
 21
-143.739
  0
LINE
  8
0
 10
176.272
 20
-143.739
 11
176.5
 21
-143.724
  0
LINE
  8
0
 10
176.5
 20
-143.724
 11
176.728
 21
-143.739
  0
LINE
  8
0
 10
176.728
 20
-143.739
 11
176.953
 21
-143.783
  0
LINE
  8
0
 10
176.953
 20
-143.783
 11
177.17
 21
-143.857
  0
LINE
  8
0
 10
177.17
 20
-143.857
 11
177.375
 21
-143.958
  0
LINE
  8
0
 10
177.375
 20
-143.958
 11
177.565
 21
-144.085
  0
LINE
  8
0
 10
177.565
 20
-144.085
 11
177.737
 21
-144.236
  0
LINE
  8
0
 10
177.737
 20
-144.236
 11
177.888
 21
-144.408
  0
LINE
  8
0
 10
177.888
 20
-144.408
 11
178.016
 21
-144.599
  0
LINE
  8
0
 10
178.016
 20
-144.599
 11
178.117
 21
-144.804
  0
LINE
  8
0
 10
178.117
 20
-144.804
 11
178.19
 21
-145.021
  0
LINE
  8
0
 10
178.19
 20
-145.021
 11
178.235
 21
-145.245
  0
LINE
  8
0
 10
178.235
 20
-145.245
 11
178.25
 21
-145.474
  0
LINE
  8
0
 10
178.25
 20
-145.474
 11
178.235
 21
-145.702
  0
LINE
  8
0
 10
178.235
 20
-145.702
 11
178.19
 21
-145.927
  0
LINE
  8
0
 10
178.19
 20
-145.927
 11
178.117
 21
-146.143
  0
LINE
  8
0
 10
178.117
 20
-146.143
 11
178.016
 21
-146.349
  0
LINE
  8
0
 10
178.016
 20
-146.349
 11
177.888
 21
-146.539
  0
LINE
  8
0
 10
177.888
 20
-146.539
 11
177.737
 21
-146.711
  0
LINE
  8
0
 10
177.737
 20
-146.711
 11
177.565
 21
-146.862
  0
LINE
  8
0
 10
177.565
 20
-146.862
 11
177.375
 21
-146.989
  0
LINE
  8
0
 10
177.375
 20
-146.989
 11
177.17
 21
-147.09
  0
LINE
  8
0
 10
177.17
 20
-147.09
 11
176.953
 21
-147.164
  0
LINE
  8
0
 10
176.953
 20
-147.164
 11
176.728
 21
-147.209
  0
LINE
  8
0
 10
176.728
 20
-147.209
 11
176.5
 21
-147.224
  0
LINE
  8
0
 10
176.5
 20
-147.224
 11
176.272
 21
-147.209
  0
LINE
  8
0
 10
-174.031
 20
-151.437
 11
-173.573
 21
-151.327
  0
LINE
  8
0
 10
-173.573
 20
-151.327
 11
-173.138
 21
-151.147
  0
LINE
  8
0
 10
-173.138
 20
-151.147
 11
-172.737
 21
-150.901
  0
LINE
  8
0
 10
-172.737
 20
-150.901
 11
-172.379
 21
-150.595
  0
LINE
  8
0
 10
-172.379
 20
-150.595
 11
-172.073
 21
-150.237
  0
LINE
  8
0
 10
-172.073
 20
-150.237
 11
-171.827
 21
-149.836
  0
LINE
  8
0
 10
-171.827
 20
-149.836
 11
-171.647
 21
-149.401
  0
LINE
  8
0
 10
-171.647
 20
-149.401
 11
-171.537
 21
-148.943
  0
LINE
  8
0
 10
-171.537
 20
-148.943
 11
-171.5
 21
-148.474
  0
LINE
  8
0
 10
-171.5
 20
-148.474
 11
-171.5
 21
-142.474
  0
LINE
  8
0
 10
-171.5
 20
-142.474
 11
-171.537
 21
-142.004
  0
LINE
  8
0
 10
-171.537
 20
-142.004
 11
-171.647
 21
-141.547
  0
LINE
  8
0
 10
-171.647
 20
-141.547
 11
-171.827
 21
-141.112
  0
LINE
  8
0
 10
-171.827
 20
-141.112
 11
-172.073
 21
-140.71
  0
LINE
  8
0
 10
-172.073
 20
-140.71
 11
-172.379
 21
-140.352
  0
LINE
  8
0
 10
-172.379
 20
-140.352
 11
-172.737
 21
-140.047
  0
LINE
  8
0
 10
-172.737
 20
-140.047
 11
-173.138
 21
-139.801
  0
LINE
  8
0
 10
-173.138
 20
-139.801
 11
-173.573
 21
-139.621
  0
LINE
  8
0
 10
-173.573
 20
-139.621
 11
-174.031
 21
-139.511
  0
LINE
  8
0
 10
-174.031
 20
-139.511
 11
-174.5
 21
-139.474
  0
LINE
  8
0
 10
-174.5
 20
-139.474
 11
-181.75
 21
-139.474
  0
LINE
  8
0
 10
-181.75
 20
-139.474
 11
-181.75
 21
-124.974
  0
LINE
  8
0
 10
-181.75
 20
-124.974
 11
-174.5
 21
-124.974
  0
LINE
  8
0
 10
-174.5
 20
-124.974
 11
-174.031
 21
-124.937
  0
LINE
  8
0
 10
-174.031
 20
-124.937
 11
-173.573
 21
-124.827
  0
LINE
  8
0
 10
-173.573
 20
-124.827
 11
-173.138
 21
-124.647
  0
LINE
  8
0
 10
-173.138
 20
-124.647
 11
-172.737
 21
-124.401
  0
LINE
  8
0
 10
-172.737
 20
-124.401
 11
-172.379
 21
-124.095
  0
LINE
  8
0
 10
-172.379
 20
-124.095
 11
-172.073
 21
-123.737
  0
LINE
  8
0
 10
-172.073
 20
-123.737
 11
-171.827
 21
-123.336
  0
LINE
  8
0
 10
-171.827
 20
-123.336
 11
-171.647
 21
-122.901
  0
LINE
  8
0
 10
-171.647
 20
-122.901
 11
-171.537
 21
-122.443
  0
LINE
  8
0
 10
-171.537
 20
-122.443
 11
-171.5
 21
-121.974
  0
LINE
  8
0
 10
-171.5
 20
-121.974
 11
-171.5
 21
-115.974
  0
LINE
  8
0
 10
-171.5
 20
-115.974
 11
-171.537
 21
-115.504
  0
LINE
  8
0
 10
-171.537
 20
-115.504
 11
-171.647
 21
-115.047
  0
LINE
  8
0
 10
-171.647
 20
-115.047
 11
-171.827
 21
-114.612
  0
LINE
  8
0
 10
-171.827
 20
-114.612
 11
-172.073
 21
-114.21
  0
LINE
  8
0
 10
-172.073
 20
-114.21
 11
-172.379
 21
-113.852
  0
LINE
  8
0
 10
-172.379
 20
-113.852
 11
-172.737
 21
-113.547
  0
LINE
  8
0
 10
-172.737
 20
-113.547
 11
-173.138
 21
-113.301
  0
LINE
  8
0
 10
-173.138
 20
-113.301
 11
-173.573
 21
-113.121
  0
LINE
  8
0
 10
-173.573
 20
-113.121
 11
-174.031
 21
-113.011
  0
LINE
  8
0
 10
-174.031
 20
-113.011
 11
-174.5
 21
-112.974
  0
LINE
  8
0
 10
-174.5
 20
-112.974
 11
-195.099
 21
-112.974
  0
LINE
  8
0
 10
-195.099
 20
-112.974
 11
-195.381
 21
-111.56
  0
LINE
  8
0
 10
-195.381
 20
-111.56
 11
-196.464
 21
-109.938
  0
LINE
  8
0
 10
-196.464
 20
-109.938
 11
-198.087
 21
-108.854
  0
LINE
  8
0
 10
-198.087
 20
-108.854
 11
-200
 21
-108.474
  0
LINE
  8
0
 10
-200
 20
-108.474
 11
-201.913
 21
-108.854
  0
LINE
  8
0
 10
-201.913
 20
-108.854
 11
-203.536
 21
-109.938
  0
LINE
  8
0
 10
-203.536
 20
-109.938
 11
-204.619
 21
-111.56
  0
LINE
  8
0
 10
-204.619
 20
-111.56
 11
-204.901
 21
-112.974
  0
LINE
  8
0
 10
-204.901
 20
-112.974
 11
-225.5
 21
-112.974
  0
LINE
  8
0
 10
-225.5
 20
-112.974
 11
-225.969
 21
-113.011
  0
LINE
  8
0
 10
-225.969
 20
-113.011
 11
-226.427
 21
-113.121
  0
LINE
  8
0
 10
-226.427
 20
-113.121
 11
-226.862
 21
-113.301
  0
LINE
  8
0
 10
-226.862
 20
-113.301
 11
-227.263
 21
-113.547
  0
LINE
  8
0
 10
-227.263
 20
-113.547
 11
-227.621
 21
-113.852
  0
LINE
  8
0
 10
-227.621
 20
-113.852
 11
-227.927
 21
-114.21
  0
LINE
  8
0
 10
-227.927
 20
-114.21
 11
-228.173
 21
-114.612
  0
LINE
  8
0
 10
-228.173
 20
-114.612
 11
-228.353
 21
-115.047
  0
LINE
  8
0
 10
-228.353
 20
-115.047
 11
-228.463
 21
-115.504
  0
LINE
  8
0
 10
-228.463
 20
-115.504
 11
-228.5
 21
-115.974
  0
LINE
  8
0
 10
-228.5
 20
-115.974
 11
-228.5
 21
-121.974
  0
LINE
  8
0
 10
-228.5
 20
-121.974
 11
-228.463
 21
-122.443
  0
LINE
  8
0
 10
-228.463
 20
-122.443
 11
-228.353
 21
-122.901
  0
LINE
  8
0
 10
-228.353
 20
-122.901
 11
-228.173
 21
-123.336
  0
LINE
  8
0
 10
-228.173
 20
-123.336
 11
-227.927
 21
-123.737
  0
LINE
  8
0
 10
-227.927
 20
-123.737
 11
-227.621
 21
-124.095
  0
LINE
  8
0
 10
-227.621
 20
-124.095
 11
-227.263
 21
-124.401
  0
LINE
  8
0
 10
-227.263
 20
-124.401
 11
-226.862
 21
-124.647
  0
LINE
  8
0
 10
-226.862
 20
-124.647
 11
-226.427
 21
-124.827
  0
LINE
  8
0
 10
-226.427
 20
-124.827
 11
-225.969
 21
-124.937
  0
LINE
  8
0
 10
-225.969
 20
-124.937
 11
-225.5
 21
-124.974
  0
LINE
  8
0
 10
-225.5
 20
-124.974
 11
-218.25
 21
-124.974
  0
LINE
  8
0
 10
-218.25
 20
-124.974
 11
-218.25
 21
-139.474
  0
LINE
  8
0
 10
-218.25
 20
-139.474
 11
-225.5
 21
-139.474
  0
LINE
  8
0
 10
-225.5
 20
-139.474
 11
-225.969
 21
-139.511
  0
LINE
  8
0
 10
-225.969
 20
-139.511
 11
-226.427
 21
-139.621
  0
LINE
  8
0
 10
-226.427
 20
-139.621
 11
-226.862
 21
-139.801
  0
LINE
  8
0
 10
-226.862
 20
-139.801
 11
-227.263
 21
-140.047
  0
LINE
  8
0
 10
-227.263
 20
-140.047
 11
-227.621
 21
-140.352
  0
LINE
  8
0
 10
-227.621
 20
-140.352
 11
-227.927
 21
-140.71
  0
LINE
  8
0
 10
-227.927
 20
-140.71
 11
-228.173
 21
-141.112
  0
LINE
  8
0
 10
-228.173
 20
-141.112
 11
-228.353
 21
-141.547
  0
LINE
  8
0
 10
-228.353
 20
-141.547
 11
-228.463
 21
-142.004
  0
LINE
  8
0
 10
-228.463
 20
-142.004
 11
-228.5
 21
-142.474
  0
LINE
  8
0
 10
-228.5
 20
-142.474
 11
-228.5
 21
-148.474
  0
LINE
  8
0
 10
-228.5
 20
-148.474
 11
-228.463
 21
-148.943
  0
LINE
  8
0
 10
-228.463
 20
-148.943
 11
-228.353
 21
-149.401
  0
LINE
  8
0
 10
-228.353
 20
-149.401
 11
-228.173
 21
-149.836
  0
LINE
  8
0
 10
-228.173
 20
-149.836
 11
-227.927
 21
-150.237
  0
LINE
  8
0
 10
-227.927
 20
-150.237
 11
-227.621
 21
-150.595
  0
LINE
  8
0
 10
-227.621
 20
-150.595
 11
-227.263
 21
-150.901
  0
LINE
  8
0
 10
-227.263
 20
-150.901
 11
-226.862
 21
-151.147
  0
LINE
  8
0
 10
-226.862
 20
-151.147
 11
-226.427
 21
-151.327
  0
LINE
  8
0
 10
-226.427
 20
-151.327
 11
-225.969
 21
-151.437
  0
LINE
  8
0
 10
-225.969
 20
-151.437
 11
-225.5
 21
-151.474
  0
LINE
  8
0
 10
-225.5
 20
-151.474
 11
-174.5
 21
-151.474
  0
LINE
  8
0
 10
-174.5
 20
-151.474
 11
-174.031
 21
-151.437
  0
LINE
  8
0
 10
-176.728
 20
-120.709
 11
-176.953
 21
-120.664
  0
LINE
  8
0
 10
-176.953
 20
-120.664
 11
-177.17
 21
-120.59
  0
LINE
  8
0
 10
-177.17
 20
-120.59
 11
-177.375
 21
-120.489
  0
LINE
  8
0
 10
-177.375
 20
-120.489
 11
-177.565
 21
-120.362
  0
LINE
  8
0
 10
-177.565
 20
-120.362
 11
-177.737
 21
-120.211
  0
LINE
  8
0
 10
-177.737
 20
-120.211
 11
-177.888
 21
-120.039
  0
LINE
  8
0
 10
-177.888
 20
-120.039
 11
-178.016
 21
-119.849
  0
LINE
  8
0
 10
-178.016
 20
-119.849
 11
-178.117
 21
-119.643
  0
LINE
  8
0
 10
-178.117
 20
-119.643
 11
-178.19
 21
-119.427
  0
LINE
  8
0
 10
-178.19
 20
-119.427
 11
-178.235
 21
-119.202
  0
LINE
  8
0
 10
-178.235
 20
-119.202
 11
-178.25
 21
-118.974
  0
LINE
  8
0
 10
-178.25
 20
-118.974
 11
-178.235
 21
-118.745
  0
LINE
  8
0
 10
-178.235
 20
-118.745
 11
-178.19
 21
-118.521
  0
LINE
  8
0
 10
-178.19
 20
-118.521
 11
-178.117
 21
-118.304
  0
LINE
  8
0
 10
-178.117
 20
-118.304
 11
-178.016
 21
-118.099
  0
LINE
  8
0
 10
-178.016
 20
-118.099
 11
-177.888
 21
-117.908
  0
LINE
  8
0
 10
-177.888
 20
-117.908
 11
-177.737
 21
-117.736
  0
LINE
  8
0
 10
-177.737
 20
-117.736
 11
-177.565
 21
-117.585
  0
LINE
  8
0
 10
-177.565
 20
-117.585
 11
-177.375
 21
-117.458
  0
LINE
  8
0
 10
-177.375
 20
-117.458
 11
-177.17
 21
-117.357
  0
LINE
  8
0
 10
-177.17
 20
-117.357
 11
-176.953
 21
-117.283
  0
LINE
  8
0
 10
-176.953
 20
-117.283
 11
-176.728
 21
-117.239
  0
LINE
  8
0
 10
-176.728
 20
-117.239
 11
-176.5
 21
-117.224
  0
LINE
  8
0
 10
-176.5
 20
-117.224
 11
-176.272
 21
-117.239
  0
LINE
  8
0
 10
-176.272
 20
-117.239
 11
-176.047
 21
-117.283
  0
LINE
  8
0
 10
-176.047
 20
-117.283
 11
-175.83
 21
-117.357
  0
LINE
  8
0
 10
-175.83
 20
-117.357
 11
-175.625
 21
-117.458
  0
LINE
  8
0
 10
-175.625
 20
-117.458
 11
-175.435
 21
-117.585
  0
LINE
  8
0
 10
-175.435
 20
-117.585
 11
-175.263
 21
-117.736
  0
LINE
  8
0
 10
-175.263
 20
-117.736
 11
-175.112
 21
-117.908
  0
LINE
  8
0
 10
-175.112
 20
-117.908
 11
-174.984
 21
-118.099
  0
LINE
  8
0
 10
-174.984
 20
-118.099
 11
-174.883
 21
-118.304
  0
LINE
  8
0
 10
-174.883
 20
-118.304
 11
-174.81
 21
-118.521
  0
LINE
  8
0
 10
-174.81
 20
-118.521
 11
-174.765
 21
-118.745
  0
LINE
  8
0
 10
-174.765
 20
-118.745
 11
-174.75
 21
-118.974
  0
LINE
  8
0
 10
-174.75
 20
-118.974
 11
-174.765
 21
-119.202
  0
LINE
  8
0
 10
-174.765
 20
-119.202
 11
-174.81
 21
-119.427
  0
LINE
  8
0
 10
-174.81
 20
-119.427
 11
-174.883
 21
-119.643
  0
LINE
  8
0
 10
-174.883
 20
-119.643
 11
-174.984
 21
-119.849
  0
LINE
  8
0
 10
-174.984
 20
-119.849
 11
-175.112
 21
-120.039
  0
LINE
  8
0
 10
-175.112
 20
-120.039
 11
-175.263
 21
-120.211
  0
LINE
  8
0
 10
-175.263
 20
-120.211
 11
-175.435
 21
-120.362
  0
LINE
  8
0
 10
-175.435
 20
-120.362
 11
-175.625
 21
-120.489
  0
LINE
  8
0
 10
-175.625
 20
-120.489
 11
-175.83
 21
-120.59
  0
LINE
  8
0
 10
-175.83
 20
-120.59
 11
-176.047
 21
-120.664
  0
LINE
  8
0
 10
-176.047
 20
-120.664
 11
-176.272
 21
-120.709
  0
LINE
  8
0
 10
-176.272
 20
-120.709
 11
-176.5
 21
-120.724
  0
LINE
  8
0
 10
-176.5
 20
-120.724
 11
-176.728
 21
-120.709
  0
LINE
  8
0
 10
-223.728
 20
-120.709
 11
-223.953
 21
-120.664
  0
LINE
  8
0
 10
-223.953
 20
-120.664
 11
-224.17
 21
-120.59
  0
LINE
  8
0
 10
-224.17
 20
-120.59
 11
-224.375
 21
-120.489
  0
LINE
  8
0
 10
-224.375
 20
-120.489
 11
-224.565
 21
-120.362
  0
LINE
  8
0
 10
-224.565
 20
-120.362
 11
-224.737
 21
-120.211
  0
LINE
  8
0
 10
-224.737
 20
-120.211
 11
-224.888
 21
-120.039
  0
LINE
  8
0
 10
-224.888
 20
-120.039
 11
-225.016
 21
-119.849
  0
LINE
  8
0
 10
-225.016
 20
-119.849
 11
-225.117
 21
-119.643
  0
LINE
  8
0
 10
-225.117
 20
-119.643
 11
-225.19
 21
-119.427
  0
LINE
  8
0
 10
-225.19
 20
-119.427
 11
-225.235
 21
-119.202
  0
LINE
  8
0
 10
-225.235
 20
-119.202
 11
-225.25
 21
-118.974
  0
LINE
  8
0
 10
-225.25
 20
-118.974
 11
-225.235
 21
-118.745
  0
LINE
  8
0
 10
-225.235
 20
-118.745
 11
-225.19
 21
-118.521
  0
LINE
  8
0
 10
-225.19
 20
-118.521
 11
-225.117
 21
-118.304
  0
LINE
  8
0
 10
-225.117
 20
-118.304
 11
-225.016
 21
-118.099
  0
LINE
  8
0
 10
-225.016
 20
-118.099
 11
-224.888
 21
-117.908
  0
LINE
  8
0
 10
-224.888
 20
-117.908
 11
-224.737
 21
-117.736
  0
LINE
  8
0
 10
-224.737
 20
-117.736
 11
-224.565
 21
-117.585
  0
LINE
  8
0
 10
-224.565
 20
-117.585
 11
-224.375
 21
-117.458
  0
LINE
  8
0
 10
-224.375
 20
-117.458
 11
-224.17
 21
-117.357
  0
LINE
  8
0
 10
-224.17
 20
-117.357
 11
-223.953
 21
-117.283
  0
LINE
  8
0
 10
-223.953
 20
-117.283
 11
-223.728
 21
-117.239
  0
LINE
  8
0
 10
-223.728
 20
-117.239
 11
-223.5
 21
-117.224
  0
LINE
  8
0
 10
-223.5
 20
-117.224
 11
-223.272
 21
-117.239
  0
LINE
  8
0
 10
-223.272
 20
-117.239
 11
-223.047
 21
-117.283
  0
LINE
  8
0
 10
-223.047
 20
-117.283
 11
-222.83
 21
-117.357
  0
LINE
  8
0
 10
-222.83
 20
-117.357
 11
-222.625
 21
-117.458
  0
LINE
  8
0
 10
-222.625
 20
-117.458
 11
-222.435
 21
-117.585
  0
LINE
  8
0
 10
-222.435
 20
-117.585
 11
-222.263
 21
-117.736
  0
LINE
  8
0
 10
-222.263
 20
-117.736
 11
-222.112
 21
-117.908
  0
LINE
  8
0
 10
-222.112
 20
-117.908
 11
-221.984
 21
-118.099
  0
LINE
  8
0
 10
-221.984
 20
-118.099
 11
-221.883
 21
-118.304
  0
LINE
  8
0
 10
-221.883
 20
-118.304
 11
-221.81
 21
-118.521
  0
LINE
  8
0
 10
-221.81
 20
-118.521
 11
-221.765
 21
-118.745
  0
LINE
  8
0
 10
-221.765
 20
-118.745
 11
-221.75
 21
-118.974
  0
LINE
  8
0
 10
-221.75
 20
-118.974
 11
-221.765
 21
-119.202
  0
LINE
  8
0
 10
-221.765
 20
-119.202
 11
-221.81
 21
-119.427
  0
LINE
  8
0
 10
-221.81
 20
-119.427
 11
-221.883
 21
-119.643
  0
LINE
  8
0
 10
-221.883
 20
-119.643
 11
-221.984
 21
-119.849
  0
LINE
  8
0
 10
-221.984
 20
-119.849
 11
-222.112
 21
-120.039
  0
LINE
  8
0
 10
-222.112
 20
-120.039
 11
-222.263
 21
-120.211
  0
LINE
  8
0
 10
-222.263
 20
-120.211
 11
-222.435
 21
-120.362
  0
LINE
  8
0
 10
-222.435
 20
-120.362
 11
-222.625
 21
-120.489
  0
LINE
  8
0
 10
-222.625
 20
-120.489
 11
-222.83
 21
-120.59
  0
LINE
  8
0
 10
-222.83
 20
-120.59
 11
-223.047
 21
-120.664
  0
LINE
  8
0
 10
-223.047
 20
-120.664
 11
-223.272
 21
-120.709
  0
LINE
  8
0
 10
-223.272
 20
-120.709
 11
-223.5
 21
-120.724
  0
LINE
  8
0
 10
-223.5
 20
-120.724
 11
-223.728
 21
-120.709
  0
LINE
  8
0
 10
-176.728
 20
-147.209
 11
-176.953
 21
-147.164
  0
LINE
  8
0
 10
-176.953
 20
-147.164
 11
-177.17
 21
-147.09
  0
LINE
  8
0
 10
-177.17
 20
-147.09
 11
-177.375
 21
-146.989
  0
LINE
  8
0
 10
-177.375
 20
-146.989
 11
-177.565
 21
-146.862
  0
LINE
  8
0
 10
-177.565
 20
-146.862
 11
-177.737
 21
-146.711
  0
LINE
  8
0
 10
-177.737
 20
-146.711
 11
-177.888
 21
-146.539
  0
LINE
  8
0
 10
-177.888
 20
-146.539
 11
-178.016
 21
-146.349
  0
LINE
  8
0
 10
-178.016
 20
-146.349
 11
-178.117
 21
-146.143
  0
LINE
  8
0
 10
-178.117
 20
-146.143
 11
-178.19
 21
-145.927
  0
LINE
  8
0
 10
-178.19
 20
-145.927
 11
-178.235
 21
-145.702
  0
LINE
  8
0
 10
-178.235
 20
-145.702
 11
-178.25
 21
-145.474
  0
LINE
  8
0
 10
-178.25
 20
-145.474
 11
-178.235
 21
-145.245
  0
LINE
  8
0
 10
-178.235
 20
-145.245
 11
-178.19
 21
-145.021
  0
LINE
  8
0
 10
-178.19
 20
-145.021
 11
-178.117
 21
-144.804
  0
LINE
  8
0
 10
-178.117
 20
-144.804
 11
-178.016
 21
-144.599
  0
LINE
  8
0
 10
-178.016
 20
-144.599
 11
-177.888
 21
-144.408
  0
LINE
  8
0
 10
-177.888
 20
-144.408
 11
-177.737
 21
-144.236
  0
LINE
  8
0
 10
-177.737
 20
-144.236
 11
-177.565
 21
-144.085
  0
LINE
  8
0
 10
-177.565
 20
-144.085
 11
-177.375
 21
-143.958
  0
LINE
  8
0
 10
-177.375
 20
-143.958
 11
-177.17
 21
-143.857
  0
LINE
  8
0
 10
-177.17
 20
-143.857
 11
-176.953
 21
-143.783
  0
LINE
  8
0
 10
-176.953
 20
-143.783
 11
-176.728
 21
-143.739
  0
LINE
  8
0
 10
-176.728
 20
-143.739
 11
-176.5
 21
-143.724
  0
LINE
  8
0
 10
-176.5
 20
-143.724
 11
-176.272
 21
-143.739
  0
LINE
  8
0
 10
-176.272
 20
-143.739
 11
-176.047
 21
-143.783
  0
LINE
  8
0
 10
-176.047
 20
-143.783
 11
-175.83
 21
-143.857
  0
LINE
  8
0
 10
-175.83
 20
-143.857
 11
-175.625
 21
-143.958
  0
LINE
  8
0
 10
-175.625
 20
-143.958
 11
-175.435
 21
-144.085
  0
LINE
  8
0
 10
-175.435
 20
-144.085
 11
-175.263
 21
-144.236
  0
LINE
  8
0
 10
-175.263
 20
-144.236
 11
-175.112
 21
-144.408
  0
LINE
  8
0
 10
-175.112
 20
-144.408
 11
-174.984
 21
-144.599
  0
LINE
  8
0
 10
-174.984
 20
-144.599
 11
-174.883
 21
-144.804
  0
LINE
  8
0
 10
-174.883
 20
-144.804
 11
-174.81
 21
-145.021
  0
LINE
  8
0
 10
-174.81
 20
-145.021
 11
-174.765
 21
-145.245
  0
LINE
  8
0
 10
-174.765
 20
-145.245
 11
-174.75
 21
-145.474
  0
LINE
  8
0
 10
-174.75
 20
-145.474
 11
-174.765
 21
-145.702
  0
LINE
  8
0
 10
-174.765
 20
-145.702
 11
-174.81
 21
-145.927
  0
LINE
  8
0
 10
-174.81
 20
-145.927
 11
-174.883
 21
-146.143
  0
LINE
  8
0
 10
-174.883
 20
-146.143
 11
-174.984
 21
-146.349
  0
LINE
  8
0
 10
-174.984
 20
-146.349
 11
-175.112
 21
-146.539
  0
LINE
  8
0
 10
-175.112
 20
-146.539
 11
-175.263
 21
-146.711
  0
LINE
  8
0
 10
-175.263
 20
-146.711
 11
-175.435
 21
-146.862
  0
LINE
  8
0
 10
-175.435
 20
-146.862
 11
-175.625
 21
-146.989
  0
LINE
  8
0
 10
-175.625
 20
-146.989
 11
-175.83
 21
-147.09
  0
LINE
  8
0
 10
-175.83
 20
-147.09
 11
-176.047
 21
-147.164
  0
LINE
  8
0
 10
-176.047
 20
-147.164
 11
-176.272
 21
-147.209
  0
LINE
  8
0
 10
-176.272
 20
-147.209
 11
-176.5
 21
-147.224
  0
LINE
  8
0
 10
-176.5
 20
-147.224
 11
-176.728
 21
-147.209
  0
LINE
  8
0
 10
-223.728
 20
-147.209
 11
-223.953
 21
-147.164
  0
LINE
  8
0
 10
-223.953
 20
-147.164
 11
-224.17
 21
-147.09
  0
LINE
  8
0
 10
-224.17
 20
-147.09
 11
-224.375
 21
-146.989
  0
LINE
  8
0
 10
-224.375
 20
-146.989
 11
-224.565
 21
-146.862
  0
LINE
  8
0
 10
-224.565
 20
-146.862
 11
-224.737
 21
-146.711
  0
LINE
  8
0
 10
-224.737
 20
-146.711
 11
-224.888
 21
-146.539
  0
LINE
  8
0
 10
-224.888
 20
-146.539
 11
-225.016
 21
-146.349
  0
LINE
  8
0
 10
-225.016
 20
-146.349
 11
-225.117
 21
-146.143
  0
LINE
  8
0
 10
-225.117
 20
-146.143
 11
-225.19
 21
-145.927
  0
LINE
  8
0
 10
-225.19
 20
-145.927
 11
-225.235
 21
-145.702
  0
LINE
  8
0
 10
-225.235
 20
-145.702
 11
-225.25
 21
-145.474
  0
LINE
  8
0
 10
-225.25
 20
-145.474
 11
-225.235
 21
-145.245
  0
LINE
  8
0
 10
-225.235
 20
-145.245
 11
-225.19
 21
-145.021
  0
LINE
  8
0
 10
-225.19
 20
-145.021
 11
-225.117
 21
-144.804
  0
LINE
  8
0
 10
-225.117
 20
-144.804
 11
-225.016
 21
-144.599
  0
LINE
  8
0
 10
-225.016
 20
-144.599
 11
-224.888
 21
-144.408
  0
LINE
  8
0
 10
-224.888
 20
-144.408
 11
-224.737
 21
-144.236
  0
LINE
  8
0
 10
-224.737
 20
-144.236
 11
-224.565
 21
-144.085
  0
LINE
  8
0
 10
-224.565
 20
-144.085
 11
-224.375
 21
-143.958
  0
LINE
  8
0
 10
-224.375
 20
-143.958
 11
-224.17
 21
-143.857
  0
LINE
  8
0
 10
-224.17
 20
-143.857
 11
-223.953
 21
-143.783
  0
LINE
  8
0
 10
-223.953
 20
-143.783
 11
-223.728
 21
-143.739
  0
LINE
  8
0
 10
-223.728
 20
-143.739
 11
-223.5
 21
-143.724
  0
LINE
  8
0
 10
-223.5
 20
-143.724
 11
-223.272
 21
-143.739
  0
LINE
  8
0
 10
-223.272
 20
-143.739
 11
-223.047
 21
-143.783
  0
LINE
  8
0
 10
-223.047
 20
-143.783
 11
-222.83
 21
-143.857
  0
LINE
  8
0
 10
-222.83
 20
-143.857
 11
-222.625
 21
-143.958
  0
LINE
  8
0
 10
-222.625
 20
-143.958
 11
-222.435
 21
-144.085
  0
LINE
  8
0
 10
-222.435
 20
-144.085
 11
-222.263
 21
-144.236
  0
LINE
  8
0
 10
-222.263
 20
-144.236
 11
-222.112
 21
-144.408
  0
LINE
  8
0
 10
-222.112
 20
-144.408
 11
-221.984
 21
-144.599
  0
LINE
  8
0
 10
-221.984
 20
-144.599
 11
-221.883
 21
-144.804
  0
LINE
  8
0
 10
-221.883
 20
-144.804
 11
-221.81
 21
-145.021
  0
LINE
  8
0
 10
-221.81
 20
-145.021
 11
-221.765
 21
-145.245
  0
LINE
  8
0
 10
-221.765
 20
-145.245
 11
-221.75
 21
-145.474
  0
LINE
  8
0
 10
-221.75
 20
-145.474
 11
-221.765
 21
-145.702
  0
LINE
  8
0
 10
-221.765
 20
-145.702
 11
-221.81
 21
-145.927
  0
LINE
  8
0
 10
-221.81
 20
-145.927
 11
-221.883
 21
-146.143
  0
LINE
  8
0
 10
-221.883
 20
-146.143
 11
-221.984
 21
-146.349
  0
LINE
  8
0
 10
-221.984
 20
-146.349
 11
-222.112
 21
-146.539
  0
LINE
  8
0
 10
-222.112
 20
-146.539
 11
-222.263
 21
-146.711
  0
LINE
  8
0
 10
-222.263
 20
-146.711
 11
-222.435
 21
-146.862
  0
LINE
  8
0
 10
-222.435
 20
-146.862
 11
-222.625
 21
-146.989
  0
LINE
  8
0
 10
-222.625
 20
-146.989
 11
-222.83
 21
-147.09
  0
LINE
  8
0
 10
-222.83
 20
-147.09
 11
-223.047
 21
-147.164
  0
LINE
  8
0
 10
-223.047
 20
-147.164
 11
-223.272
 21
-147.209
  0
LINE
  8
0
 10
-223.272
 20
-147.209
 11
-223.5
 21
-147.224
  0
LINE
  8
0
 10
-223.5
 20
-147.224
 11
-223.728
 21
-147.209
  0
LINE
  8
0
 10
-216.669
 20
-196.669
 11
-229.669
 21
-196.669
  0
LINE
  8
0
 10
-229.669
 20
-196.669
 11
-230.634
 21
-196.728
  0
LINE
  8
0
 10
-230.634
 20
-196.728
 11
-231.584
 21
-196.902
  0
LINE
  8
0
 10
-231.584
 20
-196.902
 11
-232.506
 21
-197.189
  0
LINE
  8
0
 10
-232.506
 20
-197.189
 11
-233.387
 21
-197.586
  0
LINE
  8
0
 10
-233.387
 20
-197.586
 11
-234.214
 21
-198.086
  0
LINE
  8
0
 10
-234.214
 20
-198.086
 11
-234.974
 21
-198.681
  0
LINE
  8
0
 10
-234.974
 20
-198.681
 11
-235.658
 21
-199.364
  0
LINE
  8
0
 10
-235.658
 20
-199.364
 11
-236.253
 21
-200.125
  0
LINE
  8
0
 10
-236.253
 20
-200.125
 11
-236.753
 21
-200.952
  0
LINE
  8
0
 10
-236.753
 20
-200.952
 11
-237.15
 21
-201.833
  0
LINE
  8
0
 10
-237.15
 20
-201.833
 11
-237.437
 21
-202.755
  0
LINE
  8
0
 10
-237.437
 20
-202.755
 11
-237.611
 21
-203.705
  0
LINE
  8
0
 10
-237.611
 20
-203.705
 11
-237.669
 21
-204.669
  0
LINE
  8
0
 10
-237.669
 20
-204.669
 11
-237.669
 21
-208.169
  0
LINE
  8
0
 10
-237.669
 20
-208.169
 11
-237.738
 21
-208.687
  0
LINE
  8
0
 10
-237.738
 20
-208.687
 11
-237.937
 21
-209.169
  0
LINE
  8
0
 10
-237.937
 20
-209.169
 11
-238.255
 21
-209.584
  0
LINE
  8
0
 10
-238.255
 20
-209.584
 11
-238.669
 21
-209.901
  0
LINE
  8
0
 10
-238.669
 20
-209.901
 11
-239.152
 21
-210.101
  0
LINE
  8
0
 10
-239.152
 20
-210.101
 11
-239.669
 21
-210.169
  0
LINE
  8
0
 10
-239.669
 20
-210.169
 11
-241.669
 21
-210.169
  0
LINE
  8
0
 10
-241.669
 20
-210.169
 11
-242.634
 21
-210.228
  0
LINE
  8
0
 10
-242.634
 20
-210.228
 11
-243.584
 21
-210.402
  0
LINE
  8
0
 10
-243.584
 20
-210.402
 11
-244.506
 21
-210.689
  0
LINE
  8
0
 10
-244.506
 20
-210.689
 11
-245.387
 21
-211.086
  0
LINE
  8
0
 10
-245.387
 20
-211.086
 11
-246.214
 21
-211.586
  0
LINE
  8
0
 10
-246.214
 20
-211.586
 11
-246.974
 21
-212.181
  0
LINE
  8
0
 10
-246.974
 20
-212.181
 11
-247.658
 21
-212.864
  0
LINE
  8
0
 10
-247.658
 20
-212.864
 11
-248.253
 21
-213.625
  0
LINE
  8
0
 10
-248.253
 20
-213.625
 11
-248.753
 21
-214.452
  0
LINE
  8
0
 10
-248.753
 20
-214.452
 11
-249.15
 21
-215.333
  0
LINE
  8
0
 10
-249.15
 20
-215.333
 11
-249.437
 21
-216.255
  0
LINE
  8
0
 10
-249.437
 20
-216.255
 11
-249.611
 21
-217.205
  0
LINE
  8
0
 10
-249.611
 20
-217.205
 11
-249.669
 21
-218.169
  0
LINE
  8
0
 10
-249.669
 20
-218.169
 11
-249.669
 21
-223.169
  0
LINE
  8
0
 10
-249.669
 20
-223.169
 11
-249.611
 21
-224.134
  0
LINE
  8
0
 10
-249.611
 20
-224.134
 11
-249.437
 21
-225.084
  0
LINE
  8
0
 10
-249.437
 20
-225.084
 11
-249.15
 21
-226.006
  0
LINE
  8
0
 10
-249.15
 20
-226.006
 11
-248.753
 21
-226.887
  0
LINE
  8
0
 10
-248.753
 20
-226.887
 11
-248.253
 21
-227.714
  0
LINE
  8
0
 10
-248.253
 20
-227.714
 11
-247.658
 21
-228.474
  0
LINE
  8
0
 10
-247.658
 20
-228.474
 11
-246.974
 21
-229.158
  0
LINE
  8
0
 10
-246.974
 20
-229.158
 11
-246.214
 21
-229.753
  0
LINE
  8
0
 10
-246.214
 20
-229.753
 11
-245.387
 21
-230.253
  0
LINE
  8
0
 10
-245.387
 20
-230.253
 11
-244.506
 21
-230.65
  0
LINE
  8
0
 10
-244.506
 20
-230.65
 11
-243.584
 21
-230.937
  0
LINE
  8
0
 10
-243.584
 20
-230.937
 11
-242.634
 21
-231.111
  0
LINE
  8
0
 10
-242.634
 20
-231.111
 11
-241.669
 21
-231.169
  0
LINE
  8
0
 10
-241.669
 20
-231.169
 11
-239.669
 21
-231.169
  0
LINE
  8
0
 10
-239.669
 20
-231.169
 11
-239.152
 21
-231.238
  0
LINE
  8
0
 10
-239.152
 20
-231.238
 11
-238.669
 21
-231.437
  0
LINE
  8
0
 10
-238.669
 20
-231.437
 11
-238.255
 21
-231.755
  0
LINE
  8
0
 10
-238.255
 20
-231.755
 11
-237.937
 21
-232.169
  0
LINE
  8
0
 10
-237.937
 20
-232.169
 11
-237.738
 21
-232.652
  0
LINE
  8
0
 10
-237.738
 20
-232.652
 11
-237.669
 21
-233.169
  0
LINE
  8
0
 10
-237.669
 20
-233.169
 11
-237.669
 21
-236.669
  0
LINE
  8
0
 10
-237.669
 20
-236.669
 11
-237.611
 21
-237.634
  0
LINE
  8
0
 10
-237.611
 20
-237.634
 11
-237.437
 21
-238.584
  0
LINE
  8
0
 10
-237.437
 20
-238.584
 11
-237.15
 21
-239.506
  0
LINE
  8
0
 10
-237.15
 20
-239.506
 11
-236.753
 21
-240.387
  0
LINE
  8
0
 10
-236.753
 20
-240.387
 11
-236.253
 21
-241.214
  0
LINE
  8
0
 10
-236.253
 20
-241.214
 11
-235.658
 21
-241.974
  0
LINE
  8
0
 10
-235.658
 20
-241.974
 11
-234.974
 21
-242.658
  0
LINE
  8
0
 10
-234.974
 20
-242.658
 11
-234.214
 21
-243.253
  0
LINE
  8
0
 10
-234.214
 20
-243.253
 11
-233.387
 21
-243.753
  0
LINE
  8
0
 10
-233.387
 20
-243.753
 11
-232.506
 21
-244.15
  0
LINE
  8
0
 10
-232.506
 20
-244.15
 11
-231.584
 21
-244.437
  0
LINE
  8
0
 10
-231.584
 20
-244.437
 11
-230.634
 21
-244.611
  0
LINE
  8
0
 10
-230.634
 20
-244.611
 11
-229.669
 21
-244.669
  0
LINE
  8
0
 10
-229.669
 20
-244.669
 11
-216.669
 21
-244.669
  0
LINE
  8
0
 10
-216.669
 20
-244.669
 11
-216.669
 21
-196.669
  0
LINE
  8
0
 10
-227.398
 20
-205.404
 11
-227.622
 21
-205.36
  0
LINE
  8
0
 10
-227.622
 20
-205.36
 11
-227.839
 21
-205.286
  0
LINE
  8
0
 10
-227.839
 20
-205.286
 11
-228.044
 21
-205.185
  0
LINE
  8
0
 10
-228.044
 20
-205.185
 11
-228.235
 21
-205.058
  0
LINE
  8
0
 10
-228.235
 20
-205.058
 11
-228.407
 21
-204.907
  0
LINE
  8
0
 10
-228.407
 20
-204.907
 11
-228.558
 21
-204.735
  0
LINE
  8
0
 10
-228.558
 20
-204.735
 11
-228.685
 21
-204.544
  0
LINE
  8
0
 10
-228.685
 20
-204.544
 11
-228.786
 21
-204.339
  0
LINE
  8
0
 10
-228.786
 20
-204.339
 11
-228.86
 21
-204.122
  0
LINE
  8
0
 10
-228.86
 20
-204.122
 11
-228.904
 21
-203.898
  0
LINE
  8
0
 10
-228.904
 20
-203.898
 11
-228.919
 21
-203.669
  0
LINE
  8
0
 10
-228.919
 20
-203.669
 11
-228.904
 21
-203.441
  0
LINE
  8
0
 10
-228.904
 20
-203.441
 11
-228.86
 21
-203.217
  0
LINE
  8
0
 10
-228.86
 20
-203.217
 11
-228.786
 21
-203
  0
LINE
  8
0
 10
-228.786
 20
-203
 11
-228.685
 21
-202.794
  0
LINE
  8
0
 10
-228.685
 20
-202.794
 11
-228.558
 21
-202.604
  0
LINE
  8
0
 10
-228.558
 20
-202.604
 11
-228.407
 21
-202.432
  0
LINE
  8
0
 10
-228.407
 20
-202.432
 11
-228.235
 21
-202.281
  0
LINE
  8
0
 10
-228.235
 20
-202.281
 11
-228.044
 21
-202.154
  0
LINE
  8
0
 10
-228.044
 20
-202.154
 11
-227.839
 21
-202.053
  0
LINE
  8
0
 10
-227.839
 20
-202.053
 11
-227.622
 21
-201.979
  0
LINE
  8
0
 10
-227.622
 20
-201.979
 11
-227.398
 21
-201.934
  0
LINE
  8
0
 10
-227.398
 20
-201.934
 11
-227.169
 21
-201.919
  0
LINE
  8
0
 10
-227.169
 20
-201.919
 11
-226.941
 21
-201.934
  0
LINE
  8
0
 10
-226.941
 20
-201.934
 11
-226.717
 21
-201.979
  0
LINE
  8
0
 10
-226.717
 20
-201.979
 11
-226.5
 21
-202.053
  0
LINE
  8
0
 10
-226.5
 20
-202.053
 11
-226.294
 21
-202.154
  0
LINE
  8
0
 10
-226.294
 20
-202.154
 11
-226.104
 21
-202.281
  0
LINE
  8
0
 10
-226.104
 20
-202.281
 11
-225.932
 21
-202.432
  0
LINE
  8
0
 10
-225.932
 20
-202.432
 11
-225.781
 21
-202.604
  0
LINE
  8
0
 10
-225.781
 20
-202.604
 11
-225.654
 21
-202.794
  0
LINE
  8
0
 10
-225.654
 20
-202.794
 11
-225.553
 21
-203
  0
LINE
  8
0
 10
-225.553
 20
-203
 11
-225.479
 21
-203.217
  0
LINE
  8
0
 10
-225.479
 20
-203.217
 11
-225.434
 21
-203.441
  0
LINE
  8
0
 10
-225.434
 20
-203.441
 11
-225.419
 21
-203.669
  0
LINE
  8
0
 10
-225.419
 20
-203.669
 11
-225.434
 21
-203.898
  0
LINE
  8
0
 10
-225.434
 20
-203.898
 11
-225.479
 21
-204.122
  0
LINE
  8
0
 10
-225.479
 20
-204.122
 11
-225.553
 21
-204.339
  0
LINE
  8
0
 10
-225.553
 20
-204.339
 11
-225.654
 21
-204.544
  0
LINE
  8
0
 10
-225.654
 20
-204.544
 11
-225.781
 21
-204.735
  0
LINE
  8
0
 10
-225.781
 20
-204.735
 11
-225.932
 21
-204.907
  0
LINE
  8
0
 10
-225.932
 20
-204.907
 11
-226.104
 21
-205.058
  0
LINE
  8
0
 10
-226.104
 20
-205.058
 11
-226.294
 21
-205.185
  0
LINE
  8
0
 10
-226.294
 20
-205.185
 11
-226.5
 21
-205.286
  0
LINE
  8
0
 10
-226.5
 20
-205.286
 11
-226.717
 21
-205.36
  0
LINE
  8
0
 10
-226.717
 20
-205.36
 11
-226.941
 21
-205.404
  0
LINE
  8
0
 10
-226.941
 20
-205.404
 11
-227.169
 21
-205.419
  0
LINE
  8
0
 10
-227.169
 20
-205.419
 11
-227.398
 21
-205.404
  0
LINE
  8
0
 10
-241.398
 20
-222.404
 11
-241.622
 21
-222.36
  0
LINE
  8
0
 10
-241.622
 20
-222.36
 11
-241.839
 21
-222.286
  0
LINE
  8
0
 10
-241.839
 20
-222.286
 11
-242.044
 21
-222.185
  0
LINE
  8
0
 10
-242.044
 20
-222.185
 11
-242.235
 21
-222.058
  0
LINE
  8
0
 10
-242.235
 20
-222.058
 11
-242.407
 21
-221.907
  0
LINE
  8
0
 10
-242.407
 20
-221.907
 11
-242.558
 21
-221.735
  0
LINE
  8
0
 10
-242.558
 20
-221.735
 11
-242.685
 21
-221.544
  0
LINE
  8
0
 10
-242.685
 20
-221.544
 11
-242.786
 21
-221.339
  0
LINE
  8
0
 10
-242.786
 20
-221.339
 11
-242.86
 21
-221.122
  0
LINE
  8
0
 10
-242.86
 20
-221.122
 11
-242.904
 21
-220.898
  0
LINE
  8
0
 10
-242.904
 20
-220.898
 11
-242.919
 21
-220.669
  0
LINE
  8
0
 10
-242.919
 20
-220.669
 11
-242.904
 21
-220.441
  0
LINE
  8
0
 10
-242.904
 20
-220.441
 11
-242.86
 21
-220.217
  0
LINE
  8
0
 10
-242.86
 20
-220.217
 11
-242.786
 21
-220
  0
LINE
  8
0
 10
-242.786
 20
-220
 11
-242.685
 21
-219.794
  0
LINE
  8
0
 10
-242.685
 20
-219.794
 11
-242.558
 21
-219.604
  0
LINE
  8
0
 10
-242.558
 20
-219.604
 11
-242.407
 21
-219.432
  0
LINE
  8
0
 10
-242.407
 20
-219.432
 11
-242.235
 21
-219.281
  0
LINE
  8
0
 10
-242.235
 20
-219.281
 11
-242.044
 21
-219.154
  0
LINE
  8
0
 10
-242.044
 20
-219.154
 11
-241.839
 21
-219.053
  0
LINE
  8
0
 10
-241.839
 20
-219.053
 11
-241.622
 21
-218.979
  0
LINE
  8
0
 10
-241.622
 20
-218.979
 11
-241.398
 21
-218.934
  0
LINE
  8
0
 10
-241.398
 20
-218.934
 11
-241.169
 21
-218.919
  0
LINE
  8
0
 10
-241.169
 20
-218.919
 11
-240.941
 21
-218.934
  0
LINE
  8
0
 10
-240.941
 20
-218.934
 11
-240.716
 21
-218.979
  0
LINE
  8
0
 10
-240.716
 20
-218.979
 11
-240.5
 21
-219.053
  0
LINE
  8
0
 10
-240.5
 20
-219.053
 11
-240.294
 21
-219.154
  0
LINE
  8
0
 10
-240.294
 20
-219.154
 11
-240.104
 21
-219.281
  0
LINE
  8
0
 10
-240.104
 20
-219.281
 11
-239.932
 21
-219.432
  0
LINE
  8
0
 10
-239.932
 20
-219.432
 11
-239.781
 21
-219.604
  0
LINE
  8
0
 10
-239.781
 20
-219.604
 11
-239.654
 21
-219.794
  0
LINE
  8
0
 10
-239.654
 20
-219.794
 11
-239.553
 21
-220
  0
LINE
  8
0
 10
-239.553
 20
-220
 11
-239.479
 21
-220.217
  0
LINE
  8
0
 10
-239.479
 20
-220.217
 11
-239.434
 21
-220.441
  0
LINE
  8
0
 10
-239.434
 20
-220.441
 11
-239.419
 21
-220.669
  0
LINE
  8
0
 10
-239.419
 20
-220.669
 11
-239.434
 21
-220.898
  0
LINE
  8
0
 10
-239.434
 20
-220.898
 11
-239.479
 21
-221.122
  0
LINE
  8
0
 10
-239.479
 20
-221.122
 11
-239.553
 21
-221.339
  0
LINE
  8
0
 10
-239.553
 20
-221.339
 11
-239.654
 21
-221.544
  0
LINE
  8
0
 10
-239.654
 20
-221.544
 11
-239.781
 21
-221.735
  0
LINE
  8
0
 10
-239.781
 20
-221.735
 11
-239.932
 21
-221.907
  0
LINE
  8
0
 10
-239.932
 20
-221.907
 11
-240.104
 21
-222.058
  0
LINE
  8
0
 10
-240.104
 20
-222.058
 11
-240.294
 21
-222.185
  0
LINE
  8
0
 10
-240.294
 20
-222.185
 11
-240.5
 21
-222.286
  0
LINE
  8
0
 10
-240.5
 20
-222.286
 11
-240.716
 21
-222.36
  0
LINE
  8
0
 10
-240.716
 20
-222.36
 11
-240.941
 21
-222.404
  0
LINE
  8
0
 10
-240.941
 20
-222.404
 11
-241.169
 21
-222.419
  0
LINE
  8
0
 10
-241.169
 20
-222.419
 11
-241.398
 21
-222.404
  0
LINE
  8
0
 10
-227.398
 20
-239.404
 11
-227.622
 21
-239.36
  0
LINE
  8
0
 10
-227.622
 20
-239.36
 11
-227.839
 21
-239.286
  0
LINE
  8
0
 10
-227.839
 20
-239.286
 11
-228.044
 21
-239.185
  0
LINE
  8
0
 10
-228.044
 20
-239.185
 11
-228.235
 21
-239.058
  0
LINE
  8
0
 10
-228.235
 20
-239.058
 11
-228.407
 21
-238.907
  0
LINE
  8
0
 10
-228.407
 20
-238.907
 11
-228.558
 21
-238.735
  0
LINE
  8
0
 10
-228.558
 20
-238.735
 11
-228.685
 21
-238.544
  0
LINE
  8
0
 10
-228.685
 20
-238.544
 11
-228.786
 21
-238.339
  0
LINE
  8
0
 10
-228.786
 20
-238.339
 11
-228.86
 21
-238.122
  0
LINE
  8
0
 10
-228.86
 20
-238.122
 11
-228.904
 21
-237.898
  0
LINE
  8
0
 10
-228.904
 20
-237.898
 11
-228.919
 21
-237.669
  0
LINE
  8
0
 10
-228.919
 20
-237.669
 11
-228.904
 21
-237.441
  0
LINE
  8
0
 10
-228.904
 20
-237.441
 11
-228.86
 21
-237.216
  0
LINE
  8
0
 10
-228.86
 20
-237.216
 11
-228.786
 21
-237
  0
LINE
  8
0
 10
-228.786
 20
-237
 11
-228.685
 21
-236.794
  0
LINE
  8
0
 10
-228.685
 20
-236.794
 11
-228.558
 21
-236.604
  0
LINE
  8
0
 10
-228.558
 20
-236.604
 11
-228.407
 21
-236.432
  0
LINE
  8
0
 10
-228.407
 20
-236.432
 11
-228.235
 21
-236.281
  0
LINE
  8
0
 10
-228.235
 20
-236.281
 11
-228.044
 21
-236.154
  0
LINE
  8
0
 10
-228.044
 20
-236.154
 11
-227.839
 21
-236.053
  0
LINE
  8
0
 10
-227.839
 20
-236.053
 11
-227.622
 21
-235.979
  0
LINE
  8
0
 10
-227.622
 20
-235.979
 11
-227.398
 21
-235.934
  0
LINE
  8
0
 10
-227.398
 20
-235.934
 11
-227.169
 21
-235.919
  0
LINE
  8
0
 10
-227.169
 20
-235.919
 11
-226.941
 21
-235.934
  0
LINE
  8
0
 10
-226.941
 20
-235.934
 11
-226.717
 21
-235.979
  0
LINE
  8
0
 10
-226.717
 20
-235.979
 11
-226.5
 21
-236.053
  0
LINE
  8
0
 10
-226.5
 20
-236.053
 11
-226.294
 21
-236.154
  0
LINE
  8
0
 10
-226.294
 20
-236.154
 11
-226.104
 21
-236.281
  0
LINE
  8
0
 10
-226.104
 20
-236.281
 11
-225.932
 21
-236.432
  0
LINE
  8
0
 10
-225.932
 20
-236.432
 11
-225.781
 21
-236.604
  0
LINE
  8
0
 10
-225.781
 20
-236.604
 11
-225.654
 21
-236.794
  0
LINE
  8
0
 10
-225.654
 20
-236.794
 11
-225.553
 21
-237
  0
LINE
  8
0
 10
-225.553
 20
-237
 11
-225.479
 21
-237.216
  0
LINE
  8
0
 10
-225.479
 20
-237.216
 11
-225.434
 21
-237.441
  0
LINE
  8
0
 10
-225.434
 20
-237.441
 11
-225.419
 21
-237.669
  0
LINE
  8
0
 10
-225.419
 20
-237.669
 11
-225.434
 21
-237.898
  0
LINE
  8
0
 10
-225.434
 20
-237.898
 11
-225.479
 21
-238.122
  0
LINE
  8
0
 10
-225.479
 20
-238.122
 11
-225.553
 21
-238.339
  0
LINE
  8
0
 10
-225.553
 20
-238.339
 11
-225.654
 21
-238.544
  0
LINE
  8
0
 10
-225.654
 20
-238.544
 11
-225.781
 21
-238.735
  0
LINE
  8
0
 10
-225.781
 20
-238.735
 11
-225.932
 21
-238.907
  0
LINE
  8
0
 10
-225.932
 20
-238.907
 11
-226.104
 21
-239.058
  0
LINE
  8
0
 10
-226.104
 20
-239.058
 11
-226.294
 21
-239.185
  0
LINE
  8
0
 10
-226.294
 20
-239.185
 11
-226.5
 21
-239.286
  0
LINE
  8
0
 10
-226.5
 20
-239.286
 11
-226.717
 21
-239.36
  0
LINE
  8
0
 10
-226.717
 20
-239.36
 11
-226.941
 21
-239.404
  0
LINE
  8
0
 10
-226.941
 20
-239.404
 11
-227.169
 21
-239.419
  0
LINE
  8
0
 10
-227.169
 20
-239.419
 11
-227.398
 21
-239.404
  0
LINE
  8
0
 10
230.634
 20
-244.611
 11
231.584
 21
-244.437
  0
LINE
  8
0
 10
231.584
 20
-244.437
 11
232.506
 21
-244.15
  0
LINE
  8
0
 10
232.506
 20
-244.15
 11
233.387
 21
-243.753
  0
LINE
  8
0
 10
233.387
 20
-243.753
 11
234.214
 21
-243.253
  0
LINE
  8
0
 10
234.214
 20
-243.253
 11
234.974
 21
-242.658
  0
LINE
  8
0
 10
234.974
 20
-242.658
 11
235.658
 21
-241.974
  0
LINE
  8
0
 10
235.658
 20
-241.974
 11
236.253
 21
-241.214
  0
LINE
  8
0
 10
236.253
 20
-241.214
 11
236.753
 21
-240.387
  0
LINE
  8
0
 10
236.753
 20
-240.387
 11
237.15
 21
-239.506
  0
LINE
  8
0
 10
237.15
 20
-239.506
 11
237.437
 21
-238.584
  0
LINE
  8
0
 10
237.437
 20
-238.584
 11
237.611
 21
-237.634
  0
LINE
  8
0
 10
237.611
 20
-237.634
 11
237.669
 21
-236.669
  0
LINE
  8
0
 10
237.669
 20
-236.669
 11
237.669
 21
-233.169
  0
LINE
  8
0
 10
237.669
 20
-233.169
 11
237.738
 21
-232.652
  0
LINE
  8
0
 10
237.738
 20
-232.652
 11
237.937
 21
-232.169
  0
LINE
  8
0
 10
237.937
 20
-232.169
 11
238.255
 21
-231.755
  0
LINE
  8
0
 10
238.255
 20
-231.755
 11
238.669
 21
-231.437
  0
LINE
  8
0
 10
238.669
 20
-231.437
 11
239.152
 21
-231.238
  0
LINE
  8
0
 10
239.152
 20
-231.238
 11
239.669
 21
-231.169
  0
LINE
  8
0
 10
239.669
 20
-231.169
 11
241.669
 21
-231.169
  0
LINE
  8
0
 10
241.669
 20
-231.169
 11
242.634
 21
-231.111
  0
LINE
  8
0
 10
242.634
 20
-231.111
 11
243.584
 21
-230.937
  0
LINE
  8
0
 10
243.584
 20
-230.937
 11
244.506
 21
-230.65
  0
LINE
  8
0
 10
244.506
 20
-230.65
 11
245.387
 21
-230.253
  0
LINE
  8
0
 10
245.387
 20
-230.253
 11
246.214
 21
-229.753
  0
LINE
  8
0
 10
246.214
 20
-229.753
 11
246.974
 21
-229.158
  0
LINE
  8
0
 10
246.974
 20
-229.158
 11
247.658
 21
-228.474
  0
LINE
  8
0
 10
247.658
 20
-228.474
 11
248.253
 21
-227.714
  0
LINE
  8
0
 10
248.253
 20
-227.714
 11
248.753
 21
-226.887
  0
LINE
  8
0
 10
248.753
 20
-226.887
 11
249.15
 21
-226.006
  0
LINE
  8
0
 10
249.15
 20
-226.006
 11
249.437
 21
-225.084
  0
LINE
  8
0
 10
249.437
 20
-225.084
 11
249.611
 21
-224.134
  0
LINE
  8
0
 10
249.611
 20
-224.134
 11
249.669
 21
-223.169
  0
LINE
  8
0
 10
249.669
 20
-223.169
 11
249.669
 21
-218.169
  0
LINE
  8
0
 10
249.669
 20
-218.169
 11
249.611
 21
-217.205
  0
LINE
  8
0
 10
249.611
 20
-217.205
 11
249.437
 21
-216.255
  0
LINE
  8
0
 10
249.437
 20
-216.255
 11
249.15
 21
-215.333
  0
LINE
  8
0
 10
249.15
 20
-215.333
 11
248.753
 21
-214.452
  0
LINE
  8
0
 10
248.753
 20
-214.452
 11
248.253
 21
-213.625
  0
LINE
  8
0
 10
248.253
 20
-213.625
 11
247.658
 21
-212.864
  0
LINE
  8
0
 10
247.658
 20
-212.864
 11
246.974
 21
-212.181
  0
LINE
  8
0
 10
246.974
 20
-212.181
 11
246.214
 21
-211.586
  0
LINE
  8
0
 10
246.214
 20
-211.586
 11
245.387
 21
-211.086
  0
LINE
  8
0
 10
245.387
 20
-211.086
 11
244.506
 21
-210.689
  0
LINE
  8
0
 10
244.506
 20
-210.689
 11
243.584
 21
-210.402
  0
LINE
  8
0
 10
243.584
 20
-210.402
 11
242.634
 21
-210.228
  0
LINE
  8
0
 10
242.634
 20
-210.228
 11
241.669
 21
-210.169
  0
LINE
  8
0
 10
241.669
 20
-210.169
 11
239.669
 21
-210.169
  0
LINE
  8
0
 10
239.669
 20
-210.169
 11
239.152
 21
-210.101
  0
LINE
  8
0
 10
239.152
 20
-210.101
 11
238.669
 21
-209.901
  0
LINE
  8
0
 10
238.669
 20
-209.901
 11
238.255
 21
-209.584
  0
LINE
  8
0
 10
238.255
 20
-209.584
 11
237.937
 21
-209.169
  0
LINE
  8
0
 10
237.937
 20
-209.169
 11
237.738
 21
-208.687
  0
LINE
  8
0
 10
237.738
 20
-208.687
 11
237.669
 21
-208.169
  0
LINE
  8
0
 10
237.669
 20
-208.169
 11
237.669
 21
-204.669
  0
LINE
  8
0
 10
237.669
 20
-204.669
 11
237.611
 21
-203.705
  0
LINE
  8
0
 10
237.611
 20
-203.705
 11
237.437
 21
-202.755
  0
LINE
  8
0
 10
237.437
 20
-202.755
 11
237.15
 21
-201.833
  0
LINE
  8
0
 10
237.15
 20
-201.833
 11
236.753
 21
-200.952
  0
LINE
  8
0
 10
236.753
 20
-200.952
 11
236.253
 21
-200.125
  0
LINE
  8
0
 10
236.253
 20
-200.125
 11
235.658
 21
-199.364
  0
LINE
  8
0
 10
235.658
 20
-199.364
 11
234.974
 21
-198.681
  0
LINE
  8
0
 10
234.974
 20
-198.681
 11
234.214
 21
-198.086
  0
LINE
  8
0
 10
234.214
 20
-198.086
 11
233.387
 21
-197.586
  0
LINE
  8
0
 10
233.387
 20
-197.586
 11
232.506
 21
-197.189
  0
LINE
  8
0
 10
232.506
 20
-197.189
 11
231.584
 21
-196.902
  0
LINE
  8
0
 10
231.584
 20
-196.902
 11
230.634
 21
-196.728
  0
LINE
  8
0
 10
230.634
 20
-196.728
 11
229.669
 21
-196.669
  0
LINE
  8
0
 10
229.669
 20
-196.669
 11
216.669
 21
-196.669
  0
LINE
  8
0
 10
216.669
 20
-196.669
 11
216.669
 21
-244.669
  0
LINE
  8
0
 10
216.669
 20
-244.669
 11
229.669
 21
-244.669
  0
LINE
  8
0
 10
229.669
 20
-244.669
 11
230.634
 21
-244.611
  0
LINE
  8
0
 10
226.941
 20
-205.404
 11
226.717
 21
-205.36
  0
LINE
  8
0
 10
226.717
 20
-205.36
 11
226.5
 21
-205.286
  0
LINE
  8
0
 10
226.5
 20
-205.286
 11
226.294
 21
-205.185
  0
LINE
  8
0
 10
226.294
 20
-205.185
 11
226.104
 21
-205.058
  0
LINE
  8
0
 10
226.104
 20
-205.058
 11
225.932
 21
-204.907
  0
LINE
  8
0
 10
225.932
 20
-204.907
 11
225.781
 21
-204.735
  0
LINE
  8
0
 10
225.781
 20
-204.735
 11
225.654
 21
-204.544
  0
LINE
  8
0
 10
225.654
 20
-204.544
 11
225.553
 21
-204.339
  0
LINE
  8
0
 10
225.553
 20
-204.339
 11
225.479
 21
-204.122
  0
LINE
  8
0
 10
225.479
 20
-204.122
 11
225.434
 21
-203.898
  0
LINE
  8
0
 10
225.434
 20
-203.898
 11
225.419
 21
-203.669
  0
LINE
  8
0
 10
225.419
 20
-203.669
 11
225.434
 21
-203.441
  0
LINE
  8
0
 10
225.434
 20
-203.441
 11
225.479
 21
-203.217
  0
LINE
  8
0
 10
225.479
 20
-203.217
 11
225.553
 21
-203
  0
LINE
  8
0
 10
225.553
 20
-203
 11
225.654
 21
-202.794
  0
LINE
  8
0
 10
225.654
 20
-202.794
 11
225.781
 21
-202.604
  0
LINE
  8
0
 10
225.781
 20
-202.604
 11
225.932
 21
-202.432
  0
LINE
  8
0
 10
225.932
 20
-202.432
 11
226.104
 21
-202.281
  0
LINE
  8
0
 10
226.104
 20
-202.281
 11
226.294
 21
-202.154
  0
LINE
  8
0
 10
226.294
 20
-202.154
 11
226.5
 21
-202.053
  0
LINE
  8
0
 10
226.5
 20
-202.053
 11
226.717
 21
-201.979
  0
LINE
  8
0
 10
226.717
 20
-201.979
 11
226.941
 21
-201.934
  0
LINE
  8
0
 10
226.941
 20
-201.934
 11
227.169
 21
-201.919
  0
LINE
  8
0
 10
227.169
 20
-201.919
 11
227.398
 21
-201.934
  0
LINE
  8
0
 10
227.398
 20
-201.934
 11
227.622
 21
-201.979
  0
LINE
  8
0
 10
227.622
 20
-201.979
 11
227.839
 21
-202.053
  0
LINE
  8
0
 10
227.839
 20
-202.053
 11
228.044
 21
-202.154
  0
LINE
  8
0
 10
228.044
 20
-202.154
 11
228.235
 21
-202.281
  0
LINE
  8
0
 10
228.235
 20
-202.281
 11
228.407
 21
-202.432
  0
LINE
  8
0
 10
228.407
 20
-202.432
 11
228.558
 21
-202.604
  0
LINE
  8
0
 10
228.558
 20
-202.604
 11
228.685
 21
-202.794
  0
LINE
  8
0
 10
228.685
 20
-202.794
 11
228.786
 21
-203
  0
LINE
  8
0
 10
228.786
 20
-203
 11
228.86
 21
-203.217
  0
LINE
  8
0
 10
228.86
 20
-203.217
 11
228.904
 21
-203.441
  0
LINE
  8
0
 10
228.904
 20
-203.441
 11
228.919
 21
-203.669
  0
LINE
  8
0
 10
228.919
 20
-203.669
 11
228.904
 21
-203.898
  0
LINE
  8
0
 10
228.904
 20
-203.898
 11
228.86
 21
-204.122
  0
LINE
  8
0
 10
228.86
 20
-204.122
 11
228.786
 21
-204.339
  0
LINE
  8
0
 10
228.786
 20
-204.339
 11
228.685
 21
-204.544
  0
LINE
  8
0
 10
228.685
 20
-204.544
 11
228.558
 21
-204.735
  0
LINE
  8
0
 10
228.558
 20
-204.735
 11
228.407
 21
-204.907
  0
LINE
  8
0
 10
228.407
 20
-204.907
 11
228.235
 21
-205.058
  0
LINE
  8
0
 10
228.235
 20
-205.058
 11
228.044
 21
-205.185
  0
LINE
  8
0
 10
228.044
 20
-205.185
 11
227.839
 21
-205.286
  0
LINE
  8
0
 10
227.839
 20
-205.286
 11
227.622
 21
-205.36
  0
LINE
  8
0
 10
227.622
 20
-205.36
 11
227.398
 21
-205.404
  0
LINE
  8
0
 10
227.398
 20
-205.404
 11
227.169
 21
-205.419
  0
LINE
  8
0
 10
227.169
 20
-205.419
 11
226.941
 21
-205.404
  0
LINE
  8
0
 10
240.941
 20
-222.404
 11
240.716
 21
-222.36
  0
LINE
  8
0
 10
240.716
 20
-222.36
 11
240.5
 21
-222.286
  0
LINE
  8
0
 10
240.5
 20
-222.286
 11
240.294
 21
-222.185
  0
LINE
  8
0
 10
240.294
 20
-222.185
 11
240.104
 21
-222.058
  0
LINE
  8
0
 10
240.104
 20
-222.058
 11
239.932
 21
-221.907
  0
LINE
  8
0
 10
239.932
 20
-221.907
 11
239.781
 21
-221.735
  0
LINE
  8
0
 10
239.781
 20
-221.735
 11
239.654
 21
-221.544
  0
LINE
  8
0
 10
239.654
 20
-221.544
 11
239.553
 21
-221.339
  0
LINE
  8
0
 10
239.553
 20
-221.339
 11
239.479
 21
-221.122
  0
LINE
  8
0
 10
239.479
 20
-221.122
 11
239.434
 21
-220.898
  0
LINE
  8
0
 10
239.434
 20
-220.898
 11
239.419
 21
-220.669
  0
LINE
  8
0
 10
239.419
 20
-220.669
 11
239.434
 21
-220.441
  0
LINE
  8
0
 10
239.434
 20
-220.441
 11
239.479
 21
-220.217
  0
LINE
  8
0
 10
239.479
 20
-220.217
 11
239.553
 21
-220
  0
LINE
  8
0
 10
239.553
 20
-220
 11
239.654
 21
-219.794
  0
LINE
  8
0
 10
239.654
 20
-219.794
 11
239.781
 21
-219.604
  0
LINE
  8
0
 10
239.781
 20
-219.604
 11
239.932
 21
-219.432
  0
LINE
  8
0
 10
239.932
 20
-219.432
 11
240.104
 21
-219.281
  0
LINE
  8
0
 10
240.104
 20
-219.281
 11
240.294
 21
-219.154
  0
LINE
  8
0
 10
240.294
 20
-219.154
 11
240.5
 21
-219.053
  0
LINE
  8
0
 10
240.5
 20
-219.053
 11
240.716
 21
-218.979
  0
LINE
  8
0
 10
240.716
 20
-218.979
 11
240.941
 21
-218.934
  0
LINE
  8
0
 10
240.941
 20
-218.934
 11
241.169
 21
-218.919
  0
LINE
  8
0
 10
241.169
 20
-218.919
 11
241.398
 21
-218.934
  0
LINE
  8
0
 10
241.398
 20
-218.934
 11
241.622
 21
-218.979
  0
LINE
  8
0
 10
241.622
 20
-218.979
 11
241.839
 21
-219.053
  0
LINE
  8
0
 10
241.839
 20
-219.053
 11
242.044
 21
-219.154
  0
LINE
  8
0
 10
242.044
 20
-219.154
 11
242.235
 21
-219.281
  0
LINE
  8
0
 10
242.235
 20
-219.281
 11
242.407
 21
-219.432
  0
LINE
  8
0
 10
242.407
 20
-219.432
 11
242.558
 21
-219.604
  0
LINE
  8
0
 10
242.558
 20
-219.604
 11
242.685
 21
-219.794
  0
LINE
  8
0
 10
242.685
 20
-219.794
 11
242.786
 21
-220
  0
LINE
  8
0
 10
242.786
 20
-220
 11
242.86
 21
-220.217
  0
LINE
  8
0
 10
242.86
 20
-220.217
 11
242.904
 21
-220.441
  0
LINE
  8
0
 10
242.904
 20
-220.441
 11
242.919
 21
-220.669
  0
LINE
  8
0
 10
242.919
 20
-220.669
 11
242.904
 21
-220.898
  0
LINE
  8
0
 10
242.904
 20
-220.898
 11
242.86
 21
-221.122
  0
LINE
  8
0
 10
242.86
 20
-221.122
 11
242.786
 21
-221.339
  0
LINE
  8
0
 10
242.786
 20
-221.339
 11
242.685
 21
-221.544
  0
LINE
  8
0
 10
242.685
 20
-221.544
 11
242.558
 21
-221.735
  0
LINE
  8
0
 10
242.558
 20
-221.735
 11
242.407
 21
-221.907
  0
LINE
  8
0
 10
242.407
 20
-221.907
 11
242.235
 21
-222.058
  0
LINE
  8
0
 10
242.235
 20
-222.058
 11
242.044
 21
-222.185
  0
LINE
  8
0
 10
242.044
 20
-222.185
 11
241.839
 21
-222.286
  0
LINE
  8
0
 10
241.839
 20
-222.286
 11
241.622
 21
-222.36
  0
LINE
  8
0
 10
241.622
 20
-222.36
 11
241.398
 21
-222.404
  0
LINE
  8
0
 10
241.398
 20
-222.404
 11
241.169
 21
-222.419
  0
LINE
  8
0
 10
241.169
 20
-222.419
 11
240.941
 21
-222.404
  0
LINE
  8
0
 10
226.941
 20
-239.404
 11
226.717
 21
-239.36
  0
LINE
  8
0
 10
226.717
 20
-239.36
 11
226.5
 21
-239.286
  0
LINE
  8
0
 10
226.5
 20
-239.286
 11
226.294
 21
-239.185
  0
LINE
  8
0
 10
226.294
 20
-239.185
 11
226.104
 21
-239.058
  0
LINE
  8
0
 10
226.104
 20
-239.058
 11
225.932
 21
-238.907
  0
LINE
  8
0
 10
225.932
 20
-238.907
 11
225.781
 21
-238.735
  0
LINE
  8
0
 10
225.781
 20
-238.735
 11
225.654
 21
-238.544
  0
LINE
  8
0
 10
225.654
 20
-238.544
 11
225.553
 21
-238.339
  0
LINE
  8
0
 10
225.553
 20
-238.339
 11
225.479
 21
-238.122
  0
LINE
  8
0
 10
225.479
 20
-238.122
 11
225.434
 21
-237.898
  0
LINE
  8
0
 10
225.434
 20
-237.898
 11
225.419
 21
-237.669
  0
LINE
  8
0
 10
225.419
 20
-237.669
 11
225.434
 21
-237.441
  0
LINE
  8
0
 10
225.434
 20
-237.441
 11
225.479
 21
-237.216
  0
LINE
  8
0
 10
225.479
 20
-237.216
 11
225.553
 21
-237
  0
LINE
  8
0
 10
225.553
 20
-237
 11
225.654
 21
-236.794
  0
LINE
  8
0
 10
225.654
 20
-236.794
 11
225.781
 21
-236.604
  0
LINE
  8
0
 10
225.781
 20
-236.604
 11
225.932
 21
-236.432
  0
LINE
  8
0
 10
225.932
 20
-236.432
 11
226.104
 21
-236.281
  0
LINE
  8
0
 10
226.104
 20
-236.281
 11
226.294
 21
-236.154
  0
LINE
  8
0
 10
226.294
 20
-236.154
 11
226.5
 21
-236.053
  0
LINE
  8
0
 10
226.5
 20
-236.053
 11
226.717
 21
-235.979
  0
LINE
  8
0
 10
226.717
 20
-235.979
 11
226.941
 21
-235.934
  0
LINE
  8
0
 10
226.941
 20
-235.934
 11
227.169
 21
-235.919
  0
LINE
  8
0
 10
227.169
 20
-235.919
 11
227.398
 21
-235.934
  0
LINE
  8
0
 10
227.398
 20
-235.934
 11
227.622
 21
-235.979
  0
LINE
  8
0
 10
227.622
 20
-235.979
 11
227.839
 21
-236.053
  0
LINE
  8
0
 10
227.839
 20
-236.053
 11
228.044
 21
-236.154
  0
LINE
  8
0
 10
228.044
 20
-236.154
 11
228.235
 21
-236.281
  0
LINE
  8
0
 10
228.235
 20
-236.281
 11
228.407
 21
-236.432
  0
LINE
  8
0
 10
228.407
 20
-236.432
 11
228.558
 21
-236.604
  0
LINE
  8
0
 10
228.558
 20
-236.604
 11
228.685
 21
-236.794
  0
LINE
  8
0
 10
228.685
 20
-236.794
 11
228.786
 21
-237
  0
LINE
  8
0
 10
228.786
 20
-237
 11
228.86
 21
-237.216
  0
LINE
  8
0
 10
228.86
 20
-237.216
 11
228.904
 21
-237.441
  0
LINE
  8
0
 10
228.904
 20
-237.441
 11
228.919
 21
-237.669
  0
LINE
  8
0
 10
228.919
 20
-237.669
 11
228.904
 21
-237.898
  0
LINE
  8
0
 10
228.904
 20
-237.898
 11
228.86
 21
-238.122
  0
LINE
  8
0
 10
228.86
 20
-238.122
 11
228.786
 21
-238.339
  0
LINE
  8
0
 10
228.786
 20
-238.339
 11
228.685
 21
-238.544
  0
LINE
  8
0
 10
228.685
 20
-238.544
 11
228.558
 21
-238.735
  0
LINE
  8
0
 10
228.558
 20
-238.735
 11
228.407
 21
-238.907
  0
LINE
  8
0
 10
228.407
 20
-238.907
 11
228.235
 21
-239.058
  0
LINE
  8
0
 10
228.235
 20
-239.058
 11
228.044
 21
-239.185
  0
LINE
  8
0
 10
228.044
 20
-239.185
 11
227.839
 21
-239.286
  0
LINE
  8
0
 10
227.839
 20
-239.286
 11
227.622
 21
-239.36
  0
LINE
  8
0
 10
227.622
 20
-239.36
 11
227.398
 21
-239.404
  0
LINE
  8
0
 10
227.398
 20
-239.404
 11
227.169
 21
-239.419
  0
LINE
  8
0
 10
227.169
 20
-239.419
 11
226.941
 21
-239.404
  0
ENDSEC
  0
SECTION
  2
OBJECTS
  0
DICTIONARY
  0
ENDSEC
  0
EOF
