  0
SECTION
  2
BLOCKS
  0
ENDSEC
  0
SECTION
  2
ENTITIES
  0
LINE
  8
0
 10
-185
 20
138
 11
-181.9
 21
138
  0
LINE
  8
0
 10
-181.9
 20
138
 11
-181.309
 21
138.036
  0
LINE
  8
0
 10
-181.309
 20
138.036
 11
-180.727
 21
138.142
  0
LINE
  8
0
 10
-180.727
 20
138.142
 11
-180.162
 21
138.318
  0
LINE
  8
0
 10
-180.162
 20
138.318
 11
-179.623
 21
138.561
  0
LINE
  8
0
 10
-179.623
 20
138.561
 11
-179.116
 21
138.867
  0
LINE
  8
0
 10
-179.116
 20
138.867
 11
-178.651
 21
139.232
  0
LINE
  8
0
 10
-178.651
 20
139.232
 11
-178.232
 21
139.651
  0
LINE
  8
0
 10
-178.232
 20
139.651
 11
-177.867
 21
140.116
  0
LINE
  8
0
 10
-177.867
 20
140.116
 11
-177.561
 21
140.623
  0
LINE
  8
0
 10
-177.561
 20
140.623
 11
-177.318
 21
141.162
  0
LINE
  8
0
 10
-177.318
 20
141.162
 11
-177.142
 21
141.727
  0
LINE
  8
0
 10
-177.142
 20
141.727
 11
-177.036
 21
142.309
  0
LINE
  8
0
 10
-177.036
 20
142.309
 11
-177
 21
142.9
  0
LINE
  8
0
 10
-177
 20
142.9
 11
-177
 21
151
  0
LINE
  8
0
 10
-177
 20
151
 11
-168.9
 21
151
  0
LINE
  8
0
 10
-168.9
 20
151
 11
-168.309
 21
151.036
  0
LINE
  8
0
 10
-168.309
 20
151.036
 11
-167.727
 21
151.142
  0
LINE
  8
0
 10
-167.727
 20
151.142
 11
-167.162
 21
151.318
  0
LINE
  8
0
 10
-167.162
 20
151.318
 11
-166.623
 21
151.561
  0
LINE
  8
0
 10
-166.623
 20
151.561
 11
-166.116
 21
151.867
  0
LINE
  8
0
 10
-166.116
 20
151.867
 11
-165.651
 21
152.232
  0
LINE
  8
0
 10
-165.651
 20
152.232
 11
-165.232
 21
152.651
  0
LINE
  8
0
 10
-165.232
 20
152.651
 11
-164.867
 21
153.116
  0
LINE
  8
0
 10
-164.867
 20
153.116
 11
-164.561
 21
153.623
  0
LINE
  8
0
 10
-164.561
 20
153.623
 11
-164.318
 21
154.162
  0
LINE
  8
0
 10
-164.318
 20
154.162
 11
-164.142
 21
154.727
  0
LINE
  8
0
 10
-164.142
 20
154.727
 11
-164.036
 21
155.309
  0
LINE
  8
0
 10
-164.036
 20
155.309
 11
-164
 21
155.9
  0
LINE
  8
0
 10
-164
 20
155.9
 11
-164
 21
164.1
  0
LINE
  8
0
 10
-164
 20
164.1
 11
-164.036
 21
164.691
  0
LINE
  8
0
 10
-164.036
 20
164.691
 11
-164.142
 21
165.273
  0
LINE
  8
0
 10
-164.142
 20
165.273
 11
-164.318
 21
165.838
  0
LINE
  8
0
 10
-164.318
 20
165.838
 11
-164.561
 21
166.377
  0
LINE
  8
0
 10
-164.561
 20
166.377
 11
-164.867
 21
166.884
  0
LINE
  8
0
 10
-164.867
 20
166.884
 11
-165.232
 21
167.349
  0
LINE
  8
0
 10
-165.232
 20
167.349
 11
-165.651
 21
167.768
  0
LINE
  8
0
 10
-165.651
 20
167.768
 11
-166.116
 21
168.133
  0
LINE
  8
0
 10
-166.116
 20
168.133
 11
-166.623
 21
168.439
  0
LINE
  8
0
 10
-166.623
 20
168.439
 11
-167.162
 21
168.682
  0
LINE
  8
0
 10
-167.162
 20
168.682
 11
-167.727
 21
168.858
  0
LINE
  8
0
 10
-167.727
 20
168.858
 11
-168.309
 21
168.964
  0
LINE
  8
0
 10
-168.309
 20
168.964
 11
-168.9
 21
169
  0
LINE
  8
0
 10
-168.9
 20
169
 11
-177
 21
169
  0
LINE
  8
0
 10
-177
 20
169
 11
-177
 21
177.1
  0
LINE
  8
0
 10
-177
 20
177.1
 11
-177.036
 21
177.691
  0
LINE
  8
0
 10
-177.036
 20
177.691
 11
-177.142
 21
178.273
  0
LINE
  8
0
 10
-177.142
 20
178.273
 11
-177.318
 21
178.838
  0
LINE
  8
0
 10
-177.318
 20
178.838
 11
-177.561
 21
179.377
  0
LINE
  8
0
 10
-177.561
 20
179.377
 11
-177.867
 21
179.884
  0
LINE
  8
0
 10
-177.867
 20
179.884
 11
-178.232
 21
180.349
  0
LINE
  8
0
 10
-178.232
 20
180.349
 11
-178.651
 21
180.768
  0
LINE
  8
0
 10
-178.651
 20
180.768
 11
-179.116
 21
181.133
  0
LINE
  8
0
 10
-179.116
 20
181.133
 11
-179.623
 21
181.439
  0
LINE
  8
0
 10
-179.623
 20
181.439
 11
-180.162
 21
181.682
  0
LINE
  8
0
 10
-180.162
 20
181.682
 11
-180.727
 21
181.858
  0
LINE
  8
0
 10
-180.727
 20
181.858
 11
-181.309
 21
181.964
  0
LINE
  8
0
 10
-181.309
 20
181.964
 11
-181.9
 21
182
  0
LINE
  8
0
 10
-181.9
 20
182
 11
-185
 21
182
  0
LINE
  8
0
 10
-185
 20
182
 11
-185
 21
187
  0
LINE
  8
0
 10
-185
 20
187
 11
-187
 21
187
  0
LINE
  8
0
 10
-187
 20
187
 11
-187
 21
182
  0
LINE
  8
0
 10
-187
 20
182
 11
-190.1
 21
182
  0
LINE
  8
0
 10
-190.1
 20
182
 11
-190.691
 21
181.964
  0
LINE
  8
0
 10
-190.691
 20
181.964
 11
-191.273
 21
181.858
  0
LINE
  8
0
 10
-191.273
 20
181.858
 11
-191.838
 21
181.682
  0
LINE
  8
0
 10
-191.838
 20
181.682
 11
-192.377
 21
181.439
  0
LINE
  8
0
 10
-192.377
 20
181.439
 11
-192.883
 21
181.133
  0
LINE
  8
0
 10
-192.883
 20
181.133
 11
-193.349
 21
180.768
  0
LINE
  8
0
 10
-193.349
 20
180.768
 11
-193.768
 21
180.349
  0
LINE
  8
0
 10
-193.768
 20
180.349
 11
-194.133
 21
179.884
  0
LINE
  8
0
 10
-194.133
 20
179.884
 11
-194.439
 21
179.377
  0
LINE
  8
0
 10
-194.439
 20
179.377
 11
-194.682
 21
178.838
  0
LINE
  8
0
 10
-194.682
 20
178.838
 11
-194.858
 21
178.273
  0
LINE
  8
0
 10
-194.858
 20
178.273
 11
-194.964
 21
177.691
  0
LINE
  8
0
 10
-194.964
 20
177.691
 11
-195
 21
177.1
  0
LINE
  8
0
 10
-195
 20
177.1
 11
-195
 21
169
  0
LINE
  8
0
 10
-195
 20
169
 11
-203.1
 21
169
  0
LINE
  8
0
 10
-203.1
 20
169
 11
-203.691
 21
168.964
  0
LINE
  8
0
 10
-203.691
 20
168.964
 11
-204.273
 21
168.858
  0
LINE
  8
0
 10
-204.273
 20
168.858
 11
-204.838
 21
168.682
  0
LINE
  8
0
 10
-204.838
 20
168.682
 11
-205.377
 21
168.439
  0
LINE
  8
0
 10
-205.377
 20
168.439
 11
-205.883
 21
168.133
  0
LINE
  8
0
 10
-205.883
 20
168.133
 11
-206.349
 21
167.768
  0
LINE
  8
0
 10
-206.349
 20
167.768
 11
-206.768
 21
167.349
  0
LINE
  8
0
 10
-206.768
 20
167.349
 11
-207.133
 21
166.884
  0
LINE
  8
0
 10
-207.133
 20
166.884
 11
-207.439
 21
166.377
  0
LINE
  8
0
 10
-207.439
 20
166.377
 11
-207.682
 21
165.838
  0
LINE
  8
0
 10
-207.682
 20
165.838
 11
-207.858
 21
165.273
  0
LINE
  8
0
 10
-207.858
 20
165.273
 11
-207.964
 21
164.691
  0
LINE
  8
0
 10
-207.964
 20
164.691
 11
-208
 21
164.1
  0
LINE
  8
0
 10
-208
 20
164.1
 11
-208
 21
155.9
  0
LINE
  8
0
 10
-208
 20
155.9
 11
-207.964
 21
155.309
  0
LINE
  8
0
 10
-207.964
 20
155.309
 11
-207.858
 21
154.727
  0
LINE
  8
0
 10
-207.858
 20
154.727
 11
-207.682
 21
154.162
  0
LINE
  8
0
 10
-207.682
 20
154.162
 11
-207.439
 21
153.623
  0
LINE
  8
0
 10
-207.439
 20
153.623
 11
-207.133
 21
153.116
  0
LINE
  8
0
 10
-207.133
 20
153.116
 11
-206.768
 21
152.651
  0
LINE
  8
0
 10
-206.768
 20
152.651
 11
-206.349
 21
152.232
  0
LINE
  8
0
 10
-206.349
 20
152.232
 11
-205.883
 21
151.867
  0
LINE
  8
0
 10
-205.883
 20
151.867
 11
-205.377
 21
151.561
  0
LINE
  8
0
 10
-205.377
 20
151.561
 11
-204.838
 21
151.318
  0
LINE
  8
0
 10
-204.838
 20
151.318
 11
-204.273
 21
151.142
  0
LINE
  8
0
 10
-204.273
 20
151.142
 11
-203.691
 21
151.036
  0
LINE
  8
0
 10
-203.691
 20
151.036
 11
-203.1
 21
151
  0
LINE
  8
0
 10
-203.1
 20
151
 11
-195
 21
151
  0
LINE
  8
0
 10
-195
 20
151
 11
-195
 21
142.9
  0
LINE
  8
0
 10
-195
 20
142.9
 11
-194.964
 21
142.309
  0
LINE
  8
0
 10
-194.964
 20
142.309
 11
-194.858
 21
141.727
  0
LINE
  8
0
 10
-194.858
 20
141.727
 11
-194.682
 21
141.162
  0
LINE
  8
0
 10
-194.682
 20
141.162
 11
-194.439
 21
140.623
  0
LINE
  8
0
 10
-194.439
 20
140.623
 11
-194.133
 21
140.116
  0
LINE
  8
0
 10
-194.133
 20
140.116
 11
-193.768
 21
139.651
  0
LINE
  8
0
 10
-193.768
 20
139.651
 11
-193.349
 21
139.232
  0
LINE
  8
0
 10
-193.349
 20
139.232
 11
-192.883
 21
138.867
  0
LINE
  8
0
 10
-192.883
 20
138.867
 11
-192.377
 21
138.561
  0
LINE
  8
0
 10
-192.377
 20
138.561
 11
-191.838
 21
138.318
  0
LINE
  8
0
 10
-191.838
 20
138.318
 11
-191.273
 21
138.142
  0
LINE
  8
0
 10
-191.273
 20
138.142
 11
-190.691
 21
138.036
  0
LINE
  8
0
 10
-190.691
 20
138.036
 11
-190.1
 21
138
  0
LINE
  8
0
 10
-190.1
 20
138
 11
-187
 21
138
  0
LINE
  8
0
 10
-187
 20
138
 11
-187
 21
133
  0
LINE
  8
0
 10
-187
 20
133
 11
-185
 21
133
  0
LINE
  8
0
 10
-185
 20
133
 11
-185
 21
138
  0
LINE
  8
0
 10
-186.468
 20
172.799
 11
-187.322
 21
173.18
  0
LINE
  8
0
 10
-187.322
 20
173.18
 11
-187.949
 21
173.875
  0
LINE
  8
0
 10
-187.949
 20
173.875
 11
-188.238
 21
174.765
  0
LINE
  8
0
 10
-188.238
 20
174.765
 11
-188.14
 21
175.695
  0
LINE
  8
0
 10
-188.14
 20
175.695
 11
-187.672
 21
176.506
  0
LINE
  8
0
 10
-187.672
 20
176.506
 11
-186.915
 21
177.055
  0
LINE
  8
0
 10
-186.915
 20
177.055
 11
-186
 21
177.25
  0
LINE
  8
0
 10
-186
 20
177.25
 11
-185.085
 21
177.055
  0
LINE
  8
0
 10
-185.085
 20
177.055
 11
-184.328
 21
176.506
  0
LINE
  8
0
 10
-184.328
 20
176.506
 11
-183.86
 21
175.695
  0
LINE
  8
0
 10
-183.86
 20
175.695
 11
-183.762
 21
174.765
  0
LINE
  8
0
 10
-183.762
 20
174.765
 11
-184.051
 21
173.875
  0
LINE
  8
0
 10
-184.051
 20
173.875
 11
-184.677
 21
173.18
  0
LINE
  8
0
 10
-184.677
 20
173.18
 11
-185.532
 21
172.799
  0
LINE
  8
0
 10
-185.532
 20
172.799
 11
-186.468
 21
172.799
  0
LINE
  8
0
 10
-171.695
 20
157.86
 11
-172.506
 21
158.328
  0
LINE
  8
0
 10
-172.506
 20
158.328
 11
-173.055
 21
159.085
  0
LINE
  8
0
 10
-173.055
 20
159.085
 11
-173.25
 21
160
  0
LINE
  8
0
 10
-173.25
 20
160
 11
-173.055
 21
160.915
  0
LINE
  8
0
 10
-173.055
 20
160.915
 11
-172.506
 21
161.672
  0
LINE
  8
0
 10
-172.506
 20
161.672
 11
-171.695
 21
162.14
  0
LINE
  8
0
 10
-171.695
 20
162.14
 11
-170.765
 21
162.238
  0
LINE
  8
0
 10
-170.765
 20
162.238
 11
-169.875
 21
161.949
  0
LINE
  8
0
 10
-169.875
 20
161.949
 11
-169.18
 21
161.323
  0
LINE
  8
0
 10
-169.18
 20
161.323
 11
-168.799
 21
160.468
  0
LINE
  8
0
 10
-168.799
 20
160.468
 11
-168.799
 21
159.532
  0
LINE
  8
0
 10
-168.799
 20
159.532
 11
-169.18
 21
158.677
  0
LINE
  8
0
 10
-169.18
 20
158.677
 11
-169.875
 21
158.051
  0
LINE
  8
0
 10
-169.875
 20
158.051
 11
-170.765
 21
157.762
  0
LINE
  8
0
 10
-170.765
 20
157.762
 11
-171.695
 21
157.86
  0
LINE
  8
0
 10
-201.695
 20
157.86
 11
-202.506
 21
158.328
  0
LINE
  8
0
 10
-202.506
 20
158.328
 11
-203.055
 21
159.085
  0
LINE
  8
0
 10
-203.055
 20
159.085
 11
-203.25
 21
160
  0
LINE
  8
0
 10
-203.25
 20
160
 11
-203.055
 21
160.915
  0
LINE
  8
0
 10
-203.055
 20
160.915
 11
-202.506
 21
161.672
  0
LINE
  8
0
 10
-202.506
 20
161.672
 11
-201.695
 21
162.14
  0
LINE
  8
0
 10
-201.695
 20
162.14
 11
-200.765
 21
162.238
  0
LINE
  8
0
 10
-200.765
 20
162.238
 11
-199.875
 21
161.949
  0
LINE
  8
0
 10
-199.875
 20
161.949
 11
-199.18
 21
161.323
  0
LINE
  8
0
 10
-199.18
 20
161.323
 11
-198.799
 21
160.468
  0
LINE
  8
0
 10
-198.799
 20
160.468
 11
-198.799
 21
159.532
  0
LINE
  8
0
 10
-198.799
 20
159.532
 11
-199.18
 21
158.677
  0
LINE
  8
0
 10
-199.18
 20
158.677
 11
-199.875
 21
158.051
  0
LINE
  8
0
 10
-199.875
 20
158.051
 11
-200.765
 21
157.762
  0
LINE
  8
0
 10
-200.765
 20
157.762
 11
-201.695
 21
157.86
  0
LINE
  8
0
 10
-186.468
 20
142.799
 11
-187.322
 21
143.18
  0
LINE
  8
0
 10
-187.322
 20
143.18
 11
-187.949
 21
143.875
  0
LINE
  8
0
 10
-187.949
 20
143.875
 11
-188.238
 21
144.765
  0
LINE
  8
0
 10
-188.238
 20
144.765
 11
-188.14
 21
145.695
  0
LINE
  8
0
 10
-188.14
 20
145.695
 11
-187.672
 21
146.506
  0
LINE
  8
0
 10
-187.672
 20
146.506
 11
-186.915
 21
147.055
  0
LINE
  8
0
 10
-186.915
 20
147.055
 11
-186
 21
147.25
  0
LINE
  8
0
 10
-186
 20
147.25
 11
-185.085
 21
147.055
  0
LINE
  8
0
 10
-185.085
 20
147.055
 11
-184.328
 21
146.506
  0
LINE
  8
0
 10
-184.328
 20
146.506
 11
-183.86
 21
145.695
  0
LINE
  8
0
 10
-183.86
 20
145.695
 11
-183.762
 21
144.765
  0
LINE
  8
0
 10
-183.762
 20
144.765
 11
-184.051
 21
143.875
  0
LINE
  8
0
 10
-184.051
 20
143.875
 11
-184.677
 21
143.18
  0
LINE
  8
0
 10
-184.677
 20
143.18
 11
-185.532
 21
142.799
  0
LINE
  8
0
 10
-185.532
 20
142.799
 11
-186.468
 21
142.799
  0
LINE
  8
0
 10
110.535
 20
117.613
 11
111.113
 21
117.743
  0
LINE
  8
0
 10
111.113
 20
117.743
 11
111.67
 21
117.942
  0
LINE
  8
0
 10
111.67
 20
117.942
 11
112.199
 21
118.206
  0
LINE
  8
0
 10
112.199
 20
118.206
 11
119.301
 21
122.306
  0
LINE
  8
0
 10
119.301
 20
122.306
 11
119.794
 21
122.632
  0
LINE
  8
0
 10
119.794
 20
122.632
 11
120.245
 21
123.016
  0
LINE
  8
0
 10
120.245
 20
123.016
 11
120.646
 21
123.451
  0
LINE
  8
0
 10
120.646
 20
123.451
 11
120.992
 21
123.931
  0
LINE
  8
0
 10
120.992
 20
123.931
 11
121.278
 21
124.449
  0
LINE
  8
0
 10
121.278
 20
124.449
 11
121.499
 21
124.998
  0
LINE
  8
0
 10
121.499
 20
124.998
 11
121.652
 21
125.569
  0
LINE
  8
0
 10
121.652
 20
125.569
 11
121.735
 21
126.155
  0
LINE
  8
0
 10
121.735
 20
126.155
 11
121.747
 21
126.747
  0
LINE
  8
0
 10
121.747
 20
126.747
 11
121.687
 21
127.336
  0
LINE
  8
0
 10
121.687
 20
127.336
 11
121.557
 21
127.913
  0
LINE
  8
0
 10
121.557
 20
127.913
 11
121.359
 21
128.47
  0
LINE
  8
0
 10
121.359
 20
128.47
 11
121.094
 21
129
  0
LINE
  8
0
 10
121.094
 20
129
 11
110.294
 21
147.706
  0
LINE
  8
0
 10
110.294
 20
147.706
 11
129
 21
158.506
  0
LINE
  8
0
 10
129
 20
158.506
 11
129.494
 21
158.832
  0
LINE
  8
0
 10
129.494
 20
158.832
 11
129.945
 21
159.215
  0
LINE
  8
0
 10
129.945
 20
159.215
 11
130.346
 21
159.65
  0
LINE
  8
0
 10
130.346
 20
159.65
 11
130.692
 21
160.13
  0
LINE
  8
0
 10
130.692
 20
160.13
 11
130.977
 21
160.649
  0
LINE
  8
0
 10
130.977
 20
160.649
 11
131.198
 21
161.198
  0
LINE
  8
0
 10
131.198
 20
161.198
 11
131.351
 21
161.769
  0
LINE
  8
0
 10
131.351
 20
161.769
 11
131.434
 21
162.355
  0
LINE
  8
0
 10
131.434
 20
162.355
 11
131.446
 21
162.947
  0
LINE
  8
0
 10
131.446
 20
162.947
 11
131.387
 21
163.535
  0
LINE
  8
0
 10
131.387
 20
163.535
 11
131.257
 21
164.113
  0
LINE
  8
0
 10
131.257
 20
164.113
 11
131.058
 21
164.67
  0
LINE
  8
0
 10
131.058
 20
164.67
 11
130.794
 21
165.199
  0
LINE
  8
0
 10
130.794
 20
165.199
 11
126.694
 21
172.301
  0
LINE
  8
0
 10
126.694
 20
172.301
 11
126.368
 21
172.794
  0
LINE
  8
0
 10
126.368
 20
172.794
 11
125.984
 21
173.245
  0
LINE
  8
0
 10
125.984
 20
173.245
 11
125.549
 21
173.646
  0
LINE
  8
0
 10
125.549
 20
173.646
 11
125.069
 21
173.992
  0
LINE
  8
0
 10
125.069
 20
173.992
 11
124.551
 21
174.278
  0
LINE
  8
0
 10
124.551
 20
174.278
 11
124.002
 21
174.499
  0
LINE
  8
0
 10
124.002
 20
174.499
 11
123.43
 21
174.652
  0
LINE
  8
0
 10
123.43
 20
174.652
 11
122.845
 21
174.735
  0
LINE
  8
0
 10
122.845
 20
174.735
 11
122.253
 21
174.747
  0
LINE
  8
0
 10
122.253
 20
174.747
 11
121.664
 21
174.687
  0
LINE
  8
0
 10
121.664
 20
174.687
 11
121.087
 21
174.557
  0
LINE
  8
0
 10
121.087
 20
174.557
 11
120.53
 21
174.359
  0
LINE
  8
0
 10
120.53
 20
174.359
 11
120
 21
174.094
  0
LINE
  8
0
 10
120
 20
174.094
 11
101.294
 21
163.294
  0
LINE
  8
0
 10
101.294
 20
163.294
 11
90.4942
 21
182
  0
LINE
  8
0
 10
90.4942
 20
182
 11
90.1679
 21
182.494
  0
LINE
  8
0
 10
90.1679
 20
182.494
 11
89.7846
 21
182.945
  0
LINE
  8
0
 10
89.7846
 20
182.945
 11
89.3497
 21
183.346
  0
LINE
  8
0
 10
89.3497
 20
183.346
 11
88.8696
 21
183.692
  0
LINE
  8
0
 10
88.8696
 20
183.692
 11
88.3513
 21
183.977
  0
LINE
  8
0
 10
88.3513
 20
183.977
 11
87.8024
 21
184.198
  0
LINE
  8
0
 10
87.8024
 20
184.198
 11
87.2308
 21
184.351
  0
LINE
  8
0
 10
87.2308
 20
184.351
 11
86.645
 21
184.434
  0
LINE
  8
0
 10
86.645
 20
184.434
 11
86.0534
 21
184.446
  0
LINE
  8
0
 10
86.0534
 20
184.446
 11
85.4647
 21
184.387
  0
LINE
  8
0
 10
85.4647
 20
184.387
 11
84.8874
 21
184.257
  0
LINE
  8
0
 10
84.8874
 20
184.257
 11
84.33
 21
184.058
  0
LINE
  8
0
 10
84.33
 20
184.058
 11
83.8007
 21
183.794
  0
LINE
  8
0
 10
83.8007
 20
183.794
 11
76.6993
 21
179.694
  0
LINE
  8
0
 10
76.6993
 20
179.694
 11
76.2056
 21
179.368
  0
LINE
  8
0
 10
76.2056
 20
179.368
 11
75.7549
 21
178.984
  0
LINE
  8
0
 10
75.7549
 20
178.984
 11
75.3537
 21
178.549
  0
LINE
  8
0
 10
75.3537
 20
178.549
 11
75.0079
 21
178.069
  0
LINE
  8
0
 10
75.0079
 20
178.069
 11
74.7224
 21
177.551
  0
LINE
  8
0
 10
74.7224
 20
177.551
 11
74.5015
 21
177.002
  0
LINE
  8
0
 10
74.5015
 20
177.002
 11
74.3483
 21
176.43
  0
LINE
  8
0
 10
74.3483
 20
176.43
 11
74.2652
 21
175.845
  0
LINE
  8
0
 10
74.2652
 20
175.845
 11
74.2533
 21
175.253
  0
LINE
  8
0
 10
74.2533
 20
175.253
 11
74.3127
 21
174.664
  0
LINE
  8
0
 10
74.3127
 20
174.664
 11
74.4427
 21
174.087
  0
LINE
  8
0
 10
74.4427
 20
174.087
 11
74.6414
 21
173.53
  0
LINE
  8
0
 10
74.6414
 20
173.53
 11
74.9058
 21
173
  0
LINE
  8
0
 10
74.9058
 20
173
 11
85.7058
 21
154.294
  0
LINE
  8
0
 10
85.7058
 20
154.294
 11
66.9996
 21
143.494
  0
LINE
  8
0
 10
66.9996
 20
143.494
 11
66.506
 21
143.168
  0
LINE
  8
0
 10
66.506
 20
143.168
 11
66.0553
 21
142.785
  0
LINE
  8
0
 10
66.0553
 20
142.785
 11
65.6541
 21
142.35
  0
LINE
  8
0
 10
65.6541
 20
142.35
 11
65.3082
 21
141.87
  0
LINE
  8
0
 10
65.3082
 20
141.87
 11
65.0227
 21
141.351
  0
LINE
  8
0
 10
65.0227
 20
141.351
 11
64.8018
 21
140.802
  0
LINE
  8
0
 10
64.8018
 20
140.802
 11
64.6487
 21
140.231
  0
LINE
  8
0
 10
64.6487
 20
140.231
 11
64.5655
 21
139.645
  0
LINE
  8
0
 10
64.5655
 20
139.645
 11
64.5536
 21
139.053
  0
LINE
  8
0
 10
64.5536
 20
139.053
 11
64.6131
 21
138.465
  0
LINE
  8
0
 10
64.6131
 20
138.465
 11
64.7431
 21
137.887
  0
LINE
  8
0
 10
64.7431
 20
137.887
 11
64.9417
 21
137.33
  0
LINE
  8
0
 10
64.9417
 20
137.33
 11
65.2061
 21
136.801
  0
LINE
  8
0
 10
65.2061
 20
136.801
 11
69.3061
 21
129.699
  0
LINE
  8
0
 10
69.3061
 20
129.699
 11
69.6324
 21
129.206
  0
LINE
  8
0
 10
69.6324
 20
129.206
 11
70.0157
 21
128.755
  0
LINE
  8
0
 10
70.0157
 20
128.755
 11
70.4507
 21
128.354
  0
LINE
  8
0
 10
70.4507
 20
128.354
 11
70.9308
 21
128.008
  0
LINE
  8
0
 10
70.9308
 20
128.008
 11
71.449
 21
127.722
  0
LINE
  8
0
 10
71.449
 20
127.722
 11
71.9979
 21
127.501
  0
LINE
  8
0
 10
71.9979
 20
127.501
 11
72.5695
 21
127.348
  0
LINE
  8
0
 10
72.5695
 20
127.348
 11
73.1553
 21
127.265
  0
LINE
  8
0
 10
73.1553
 20
127.265
 11
73.7469
 21
127.253
  0
LINE
  8
0
 10
73.7469
 20
127.253
 11
74.3356
 21
127.313
  0
LINE
  8
0
 10
74.3356
 20
127.313
 11
74.9129
 21
127.443
  0
LINE
  8
0
 10
74.9129
 20
127.443
 11
75.4703
 21
127.641
  0
LINE
  8
0
 10
75.4703
 20
127.641
 11
75.9996
 21
127.906
  0
LINE
  8
0
 10
75.9996
 20
127.906
 11
94.7058
 21
138.706
  0
LINE
  8
0
 10
94.7058
 20
138.706
 11
105.506
 21
120
  0
LINE
  8
0
 10
105.506
 20
120
 11
105.832
 21
119.506
  0
LINE
  8
0
 10
105.832
 20
119.506
 11
106.215
 21
119.055
  0
LINE
  8
0
 10
106.215
 20
119.055
 11
106.65
 21
118.654
  0
LINE
  8
0
 10
106.65
 20
118.654
 11
107.13
 21
118.308
  0
LINE
  8
0
 10
107.13
 20
118.308
 11
107.649
 21
118.023
  0
LINE
  8
0
 10
107.649
 20
118.023
 11
108.198
 21
117.802
  0
LINE
  8
0
 10
108.198
 20
117.802
 11
108.769
 21
117.649
  0
LINE
  8
0
 10
108.769
 20
117.649
 11
109.355
 21
117.565
  0
LINE
  8
0
 10
109.355
 20
117.565
 11
109.947
 21
117.554
  0
LINE
  8
0
 10
109.947
 20
117.554
 11
110.535
 21
117.613
  0
LINE
  8
0
 10
82.625
 20
173.733
 11
81.9297
 21
174.359
  0
LINE
  8
0
 10
81.9297
 20
174.359
 11
81.5492
 21
175.214
  0
LINE
  8
0
 10
81.5492
 20
175.214
 11
81.5491
 21
176.15
  0
LINE
  8
0
 10
81.5491
 20
176.15
 11
81.9297
 21
177.004
  0
LINE
  8
0
 10
81.9297
 20
177.004
 11
82.625
 21
177.63
  0
LINE
  8
0
 10
82.625
 20
177.63
 11
83.5148
 21
177.919
  0
LINE
  8
0
 10
83.5148
 20
177.919
 11
84.4453
 21
177.822
  0
LINE
  8
0
 10
84.4453
 20
177.822
 11
85.2555
 21
177.354
  0
LINE
  8
0
 10
85.2555
 20
177.354
 11
85.8055
 21
176.597
  0
LINE
  8
0
 10
85.8055
 20
176.597
 11
86
 21
175.682
  0
LINE
  8
0
 10
86
 20
175.682
 11
85.8055
 21
174.767
  0
LINE
  8
0
 10
85.8055
 20
174.767
 11
85.2555
 21
174.01
  0
LINE
  8
0
 10
85.2555
 20
174.01
 11
84.4453
 21
173.542
  0
LINE
  8
0
 10
84.4453
 20
173.542
 11
83.5148
 21
173.444
  0
LINE
  8
0
 10
83.5148
 20
173.444
 11
82.625
 21
173.733
  0
LINE
  8
0
 10
121.359
 20
163.43
 11
120.733
 21
164.125
  0
LINE
  8
0
 10
120.733
 20
164.125
 11
120.444
 21
165.015
  0
LINE
  8
0
 10
120.444
 20
165.015
 11
120.542
 21
165.945
  0
LINE
  8
0
 10
120.542
 20
165.945
 11
121.01
 21
166.756
  0
LINE
  8
0
 10
121.01
 20
166.756
 11
121.767
 21
167.305
  0
LINE
  8
0
 10
121.767
 20
167.305
 11
122.682
 21
167.5
  0
LINE
  8
0
 10
122.682
 20
167.5
 11
123.597
 21
167.305
  0
LINE
  8
0
 10
123.597
 20
167.305
 11
124.354
 21
166.756
  0
LINE
  8
0
 10
124.354
 20
166.756
 11
124.822
 21
165.945
  0
LINE
  8
0
 10
124.822
 20
165.945
 11
124.919
 21
165.015
  0
LINE
  8
0
 10
124.919
 20
165.015
 11
124.63
 21
164.125
  0
LINE
  8
0
 10
124.63
 20
164.125
 11
124.004
 21
163.43
  0
LINE
  8
0
 10
124.004
 20
163.43
 11
123.15
 21
163.049
  0
LINE
  8
0
 10
123.15
 20
163.049
 11
122.214
 21
163.049
  0
LINE
  8
0
 10
122.214
 20
163.049
 11
121.359
 21
163.43
  0
LINE
  8
0
 10
95.9215
 20
149.8
 11
95.6818
 21
151.621
  0
LINE
  8
0
 10
95.6818
 20
151.621
 11
96.8
 21
153.078
  0
LINE
  8
0
 10
96.8
 20
153.078
 11
98.6212
 21
153.318
  0
LINE
  8
0
 10
98.6212
 20
153.318
 11
100.078
 21
152.2
  0
LINE
  8
0
 10
100.078
 20
152.2
 11
100.318
 21
150.379
  0
LINE
  8
0
 10
100.318
 20
150.379
 11
99.2
 21
148.922
  0
LINE
  8
0
 10
99.2
 20
148.922
 11
97.3788
 21
148.682
  0
LINE
  8
0
 10
97.3788
 20
148.682
 11
95.9215
 21
149.8
  0
LINE
  8
0
 10
71.9958
 20
134.93
 11
71.3697
 21
135.625
  0
LINE
  8
0
 10
71.3697
 20
135.625
 11
71.0806
 21
136.515
  0
LINE
  8
0
 10
71.0806
 20
136.515
 11
71.1784
 21
137.445
  0
LINE
  8
0
 10
71.1784
 20
137.445
 11
71.6462
 21
138.256
  0
LINE
  8
0
 10
71.6462
 20
138.256
 11
72.4031
 21
138.805
  0
LINE
  8
0
 10
72.4031
 20
138.805
 11
73.3183
 21
139
  0
LINE
  8
0
 10
73.3183
 20
139
 11
74.2334
 21
138.805
  0
LINE
  8
0
 10
74.2334
 20
138.805
 11
74.9904
 21
138.256
  0
LINE
  8
0
 10
74.9904
 20
138.256
 11
75.4581
 21
137.445
  0
LINE
  8
0
 10
75.4581
 20
137.445
 11
75.556
 21
136.515
  0
LINE
  8
0
 10
75.556
 20
136.515
 11
75.2668
 21
135.625
  0
LINE
  8
0
 10
75.2668
 20
135.625
 11
74.6408
 21
134.93
  0
LINE
  8
0
 10
74.6408
 20
134.93
 11
73.7861
 21
134.549
  0
LINE
  8
0
 10
73.7861
 20
134.549
 11
72.8505
 21
134.549
  0
LINE
  8
0
 10
72.8505
 20
134.549
 11
71.9958
 21
134.93
  0
LINE
  8
0
 10
111.125
 20
124.37
 11
110.43
 21
124.996
  0
LINE
  8
0
 10
110.43
 20
124.996
 11
110.049
 21
125.85
  0
LINE
  8
0
 10
110.049
 20
125.85
 11
110.049
 21
126.786
  0
LINE
  8
0
 10
110.049
 20
126.786
 11
110.43
 21
127.641
  0
LINE
  8
0
 10
110.43
 20
127.641
 11
111.125
 21
128.267
  0
LINE
  8
0
 10
111.125
 20
128.267
 11
112.015
 21
128.556
  0
LINE
  8
0
 10
112.015
 20
128.556
 11
112.945
 21
128.458
  0
LINE
  8
0
 10
112.945
 20
128.458
 11
113.756
 21
127.99
  0
LINE
  8
0
 10
113.756
 20
127.99
 11
114.305
 21
127.233
  0
LINE
  8
0
 10
114.305
 20
127.233
 11
114.5
 21
126.318
  0
LINE
  8
0
 10
114.5
 20
126.318
 11
114.305
 21
125.403
  0
LINE
  8
0
 10
114.305
 20
125.403
 11
113.756
 21
124.646
  0
LINE
  8
0
 10
113.756
 20
124.646
 11
112.945
 21
124.178
  0
LINE
  8
0
 10
112.945
 20
124.178
 11
112.015
 21
124.081
  0
LINE
  8
0
 10
112.015
 20
124.081
 11
111.125
 21
124.37
  0
LINE
  8
0
 10
229.179
 20
106.652
 11
229.761
 21
106.758
  0
LINE
  8
0
 10
229.761
 20
106.758
 11
230.326
 21
106.932
  0
LINE
  8
0
 10
230.326
 20
106.932
 11
230.866
 21
107.174
  0
LINE
  8
0
 10
230.866
 20
107.174
 11
231.373
 21
107.479
  0
LINE
  8
0
 10
231.373
 20
107.479
 11
238.131
 21
112.124
  0
LINE
  8
0
 10
238.131
 20
112.124
 11
238.598
 21
112.488
  0
LINE
  8
0
 10
238.598
 20
112.488
 11
239.017
 21
112.905
  0
LINE
  8
0
 10
239.017
 20
112.905
 11
239.383
 21
113.37
  0
LINE
  8
0
 10
239.383
 20
113.37
 11
239.69
 21
113.876
  0
LINE
  8
0
 10
239.69
 20
113.876
 11
239.934
 21
114.415
  0
LINE
  8
0
 10
239.934
 20
114.415
 11
240.111
 21
114.98
  0
LINE
  8
0
 10
240.111
 20
114.98
 11
240.219
 21
115.562
  0
LINE
  8
0
 10
240.219
 20
115.562
 11
240.256
 21
116.152
  0
LINE
  8
0
 10
240.256
 20
116.152
 11
240.221
 21
116.743
  0
LINE
  8
0
 10
240.221
 20
116.743
 11
240.116
 21
117.325
  0
LINE
  8
0
 10
240.116
 20
117.325
 11
239.941
 21
117.89
  0
LINE
  8
0
 10
239.941
 20
117.89
 11
239.699
 21
118.43
  0
LINE
  8
0
 10
239.699
 20
118.43
 11
239.394
 21
118.937
  0
LINE
  8
0
 10
239.394
 20
118.937
 11
234.806
 21
125.613
  0
LINE
  8
0
 10
234.806
 20
125.613
 11
241.482
 21
130.201
  0
LINE
  8
0
 10
241.482
 20
130.201
 11
241.948
 21
130.565
  0
LINE
  8
0
 10
241.948
 20
130.565
 11
242.367
 21
130.982
  0
LINE
  8
0
 10
242.367
 20
130.982
 11
242.733
 21
131.447
  0
LINE
  8
0
 10
242.733
 20
131.447
 11
243.04
 21
131.953
  0
LINE
  8
0
 10
243.04
 20
131.953
 11
243.284
 21
132.492
  0
LINE
  8
0
 10
243.284
 20
132.492
 11
243.461
 21
133.057
  0
LINE
  8
0
 10
243.461
 20
133.057
 11
243.569
 21
133.639
  0
LINE
  8
0
 10
243.569
 20
133.639
 11
243.606
 21
134.229
  0
LINE
  8
0
 10
243.606
 20
134.229
 11
243.572
 21
134.82
  0
LINE
  8
0
 10
243.572
 20
134.82
 11
243.466
 21
135.402
  0
LINE
  8
0
 10
243.466
 20
135.402
 11
243.291
 21
135.967
  0
LINE
  8
0
 10
243.291
 20
135.967
 11
243.05
 21
136.507
  0
LINE
  8
0
 10
243.05
 20
136.507
 11
242.744
 21
137.014
  0
LINE
  8
0
 10
242.744
 20
137.014
 11
238.1
 21
143.772
  0
LINE
  8
0
 10
238.1
 20
143.772
 11
237.736
 21
144.239
  0
LINE
  8
0
 10
237.736
 20
144.239
 11
237.318
 21
144.658
  0
LINE
  8
0
 10
237.318
 20
144.658
 11
236.853
 21
145.024
  0
LINE
  8
0
 10
236.853
 20
145.024
 11
236.348
 21
145.331
  0
LINE
  8
0
 10
236.348
 20
145.331
 11
235.809
 21
145.575
  0
LINE
  8
0
 10
235.809
 20
145.575
 11
235.244
 21
145.752
  0
LINE
  8
0
 10
235.244
 20
145.752
 11
234.662
 21
145.86
  0
LINE
  8
0
 10
234.662
 20
145.86
 11
234.072
 21
145.897
  0
LINE
  8
0
 10
234.072
 20
145.897
 11
233.481
 21
145.862
  0
LINE
  8
0
 10
233.481
 20
145.862
 11
232.899
 21
145.757
  0
LINE
  8
0
 10
232.899
 20
145.757
 11
232.333
 21
145.582
  0
LINE
  8
0
 10
232.333
 20
145.582
 11
231.793
 21
145.34
  0
LINE
  8
0
 10
231.793
 20
145.34
 11
231.286
 21
145.035
  0
LINE
  8
0
 10
231.286
 20
145.035
 11
224.611
 21
140.447
  0
LINE
  8
0
 10
224.611
 20
140.447
 11
220.023
 21
147.123
  0
LINE
  8
0
 10
220.023
 20
147.123
 11
219.659
 21
147.589
  0
LINE
  8
0
 10
219.659
 20
147.589
 11
219.241
 21
148.008
  0
LINE
  8
0
 10
219.241
 20
148.008
 11
218.776
 21
148.374
  0
LINE
  8
0
 10
218.776
 20
148.374
 11
218.271
 21
148.681
  0
LINE
  8
0
 10
218.271
 20
148.681
 11
217.732
 21
148.925
  0
LINE
  8
0
 10
217.732
 20
148.925
 11
217.167
 21
149.102
  0
LINE
  8
0
 10
217.167
 20
149.102
 11
216.585
 21
149.21
  0
LINE
  8
0
 10
216.585
 20
149.21
 11
215.995
 21
149.247
  0
LINE
  8
0
 10
215.995
 20
149.247
 11
215.404
 21
149.213
  0
LINE
  8
0
 10
215.404
 20
149.213
 11
214.822
 21
149.107
  0
LINE
  8
0
 10
214.822
 20
149.107
 11
214.256
 21
148.932
  0
LINE
  8
0
 10
214.256
 20
148.932
 11
213.716
 21
148.69
  0
LINE
  8
0
 10
213.716
 20
148.69
 11
213.209
 21
148.385
  0
LINE
  8
0
 10
213.209
 20
148.385
 11
206.452
 21
143.741
  0
LINE
  8
0
 10
206.452
 20
143.741
 11
205.985
 21
143.377
  0
LINE
  8
0
 10
205.985
 20
143.377
 11
205.566
 21
142.959
  0
LINE
  8
0
 10
205.566
 20
142.959
 11
205.2
 21
142.494
  0
LINE
  8
0
 10
205.2
 20
142.494
 11
204.893
 21
141.988
  0
LINE
  8
0
 10
204.893
 20
141.988
 11
204.649
 21
141.449
  0
LINE
  8
0
 10
204.649
 20
141.449
 11
204.472
 21
140.885
  0
LINE
  8
0
 10
204.472
 20
140.885
 11
204.364
 21
140.303
  0
LINE
  8
0
 10
204.364
 20
140.303
 11
204.327
 21
139.712
  0
LINE
  8
0
 10
204.327
 20
139.712
 11
204.361
 21
139.122
  0
LINE
  8
0
 10
204.361
 20
139.122
 11
204.467
 21
138.54
  0
LINE
  8
0
 10
204.467
 20
138.54
 11
204.642
 21
137.974
  0
LINE
  8
0
 10
204.642
 20
137.974
 11
204.884
 21
137.434
  0
LINE
  8
0
 10
204.884
 20
137.434
 11
205.189
 21
136.927
  0
LINE
  8
0
 10
205.189
 20
136.927
 11
209.777
 21
130.252
  0
LINE
  8
0
 10
209.777
 20
130.252
 11
203.101
 21
125.664
  0
LINE
  8
0
 10
203.101
 20
125.664
 11
202.635
 21
125.3
  0
LINE
  8
0
 10
202.635
 20
125.3
 11
202.215
 21
124.882
  0
LINE
  8
0
 10
202.215
 20
124.882
 11
201.85
 21
124.417
  0
LINE
  8
0
 10
201.85
 20
124.417
 11
201.542
 21
123.912
  0
LINE
  8
0
 10
201.542
 20
123.912
 11
201.299
 21
123.372
  0
LINE
  8
0
 10
201.299
 20
123.372
 11
201.121
 21
122.808
  0
LINE
  8
0
 10
201.121
 20
122.808
 11
201.014
 21
122.226
  0
LINE
  8
0
 10
201.014
 20
122.226
 11
200.977
 21
121.636
  0
LINE
  8
0
 10
200.977
 20
121.636
 11
201.011
 21
121.045
  0
LINE
  8
0
 10
201.011
 20
121.045
 11
201.117
 21
120.463
  0
LINE
  8
0
 10
201.117
 20
120.463
 11
201.292
 21
119.897
  0
LINE
  8
0
 10
201.292
 20
119.897
 11
201.533
 21
119.357
  0
LINE
  8
0
 10
201.533
 20
119.357
 11
201.838
 21
118.85
  0
LINE
  8
0
 10
201.838
 20
118.85
 11
203.594
 21
116.296
  0
LINE
  8
0
 10
203.594
 20
116.296
 11
199.474
 21
113.463
  0
LINE
  8
0
 10
199.474
 20
113.463
 11
200.606
 21
111.815
  0
LINE
  8
0
 10
200.606
 20
111.815
 11
204.727
 21
114.647
  0
LINE
  8
0
 10
204.727
 20
114.647
 11
206.483
 21
112.092
  0
LINE
  8
0
 10
206.483
 20
112.092
 11
206.847
 21
111.626
  0
LINE
  8
0
 10
206.847
 20
111.626
 11
207.264
 21
111.207
  0
LINE
  8
0
 10
207.264
 20
111.207
 11
207.73
 21
110.841
  0
LINE
  8
0
 10
207.73
 20
110.841
 11
208.235
 21
110.534
  0
LINE
  8
0
 10
208.235
 20
110.534
 11
208.774
 21
110.29
  0
LINE
  8
0
 10
208.774
 20
110.29
 11
209.339
 21
110.113
  0
LINE
  8
0
 10
209.339
 20
110.113
 11
209.921
 21
110.005
  0
LINE
  8
0
 10
209.921
 20
110.005
 11
210.511
 21
109.968
  0
LINE
  8
0
 10
210.511
 20
109.968
 11
211.102
 21
110.002
  0
LINE
  8
0
 10
211.102
 20
110.002
 11
211.684
 21
110.108
  0
LINE
  8
0
 10
211.684
 20
110.108
 11
212.249
 21
110.283
  0
LINE
  8
0
 10
212.249
 20
110.283
 11
212.79
 21
110.525
  0
LINE
  8
0
 10
212.79
 20
110.525
 11
213.297
 21
110.83
  0
LINE
  8
0
 10
213.297
 20
110.83
 11
219.972
 21
115.418
  0
LINE
  8
0
 10
219.972
 20
115.418
 11
224.56
 21
108.742
  0
LINE
  8
0
 10
224.56
 20
108.742
 11
224.924
 21
108.276
  0
LINE
  8
0
 10
224.924
 20
108.276
 11
225.341
 21
107.856
  0
LINE
  8
0
 10
225.341
 20
107.856
 11
225.806
 21
107.491
  0
LINE
  8
0
 10
225.806
 20
107.491
 11
226.312
 21
107.183
  0
LINE
  8
0
 10
226.312
 20
107.183
 11
226.851
 21
106.939
  0
LINE
  8
0
 10
226.851
 20
106.939
 11
227.416
 21
106.762
  0
LINE
  8
0
 10
227.416
 20
106.762
 11
227.998
 21
106.654
  0
LINE
  8
0
 10
227.998
 20
106.654
 11
228.588
 21
106.618
  0
LINE
  8
0
 10
228.588
 20
106.618
 11
229.179
 21
106.652
  0
LINE
  8
0
 10
213.27
 20
138.106
 11
212.426
 21
138.509
  0
LINE
  8
0
 10
212.426
 20
138.509
 11
211.818
 21
139.221
  0
LINE
  8
0
 10
211.818
 20
139.221
 11
211.552
 21
140.118
  0
LINE
  8
0
 10
211.552
 20
140.118
 11
211.674
 21
141.045
  0
LINE
  8
0
 10
211.674
 20
141.045
 11
212.163
 21
141.843
  0
LINE
  8
0
 10
212.163
 20
141.843
 11
212.934
 21
142.373
  0
LINE
  8
0
 10
212.934
 20
142.373
 11
213.854
 21
142.543
  0
LINE
  8
0
 10
213.854
 20
142.543
 11
214.764
 21
142.325
  0
LINE
  8
0
 10
214.764
 20
142.325
 11
215.506
 21
141.755
  0
LINE
  8
0
 10
215.506
 20
141.755
 11
215.953
 21
140.933
  0
LINE
  8
0
 10
215.953
 20
140.933
 11
216.026
 21
140.001
  0
LINE
  8
0
 10
216.026
 20
140.001
 11
215.714
 21
139.119
  0
LINE
  8
0
 10
215.714
 20
139.119
 11
215.07
 21
138.44
  0
LINE
  8
0
 10
215.07
 20
138.44
 11
214.205
 21
138.082
  0
LINE
  8
0
 10
214.205
 20
138.082
 11
213.27
 21
138.106
  0
LINE
  8
0
 10
233.478
 20
134.51
 11
232.799
 21
135.154
  0
LINE
  8
0
 10
232.799
 20
135.154
 11
232.441
 21
136.018
  0
LINE
  8
0
 10
232.441
 20
136.018
 11
232.465
 21
136.954
  0
LINE
  8
0
 10
232.465
 20
136.954
 11
232.868
 21
137.798
  0
LINE
  8
0
 10
232.868
 20
137.798
 11
233.58
 21
138.406
  0
LINE
  8
0
 10
233.58
 20
138.406
 11
234.477
 21
138.671
  0
LINE
  8
0
 10
234.477
 20
138.671
 11
235.404
 21
138.549
  0
LINE
  8
0
 10
235.404
 20
138.549
 11
236.202
 21
138.061
  0
LINE
  8
0
 10
236.202
 20
138.061
 11
236.732
 21
137.289
  0
LINE
  8
0
 10
236.732
 20
137.289
 11
236.903
 21
136.37
  0
LINE
  8
0
 10
236.903
 20
136.37
 11
236.684
 21
135.46
  0
LINE
  8
0
 10
236.684
 20
135.46
 11
236.115
 21
134.718
  0
LINE
  8
0
 10
236.115
 20
134.718
 11
235.292
 21
134.271
  0
LINE
  8
0
 10
235.292
 20
134.271
 11
234.36
 21
134.198
  0
LINE
  8
0
 10
234.36
 20
134.198
 11
233.478
 21
134.51
  0
LINE
  8
0
 10
208.754
 20
117.518
 11
208.075
 21
118.162
  0
LINE
  8
0
 10
208.075
 20
118.162
 11
207.717
 21
119.026
  0
LINE
  8
0
 10
207.717
 20
119.026
 11
207.742
 21
119.962
  0
LINE
  8
0
 10
207.742
 20
119.962
 11
208.144
 21
120.806
  0
LINE
  8
0
 10
208.144
 20
120.806
 11
208.856
 21
121.414
  0
LINE
  8
0
 10
208.856
 20
121.414
 11
209.753
 21
121.679
  0
LINE
  8
0
 10
209.753
 20
121.679
 11
210.681
 21
121.557
  0
LINE
  8
0
 10
210.681
 20
121.557
 11
211.478
 21
121.068
  0
LINE
  8
0
 10
211.478
 20
121.068
 11
212.008
 21
120.297
  0
LINE
  8
0
 10
212.008
 20
120.297
 11
212.179
 21
119.377
  0
LINE
  8
0
 10
212.179
 20
119.377
 11
211.96
 21
118.468
  0
LINE
  8
0
 10
211.96
 20
118.468
 11
211.391
 21
117.725
  0
LINE
  8
0
 10
211.391
 20
117.725
 11
210.569
 21
117.279
  0
LINE
  8
0
 10
210.569
 20
117.279
 11
209.636
 21
117.205
  0
LINE
  8
0
 10
209.636
 20
117.205
 11
208.754
 21
117.518
  0
LINE
  8
0
 10
230.262
 20
113.383
 11
229.418
 21
113.785
  0
LINE
  8
0
 10
229.418
 20
113.785
 11
228.81
 21
114.497
  0
LINE
  8
0
 10
228.81
 20
114.497
 11
228.544
 21
115.394
  0
LINE
  8
0
 10
228.544
 20
115.394
 11
228.667
 21
116.322
  0
LINE
  8
0
 10
228.667
 20
116.322
 11
229.155
 21
117.119
  0
LINE
  8
0
 10
229.155
 20
117.119
 11
229.926
 21
117.649
  0
LINE
  8
0
 10
229.926
 20
117.649
 11
230.846
 21
117.82
  0
LINE
  8
0
 10
230.846
 20
117.82
 11
231.756
 21
117.601
  0
LINE
  8
0
 10
231.756
 20
117.601
 11
232.498
 21
117.032
  0
LINE
  8
0
 10
232.498
 20
117.032
 11
232.945
 21
116.209
  0
LINE
  8
0
 10
232.945
 20
116.209
 11
233.018
 21
115.277
  0
LINE
  8
0
 10
233.018
 20
115.277
 11
232.706
 21
114.395
  0
LINE
  8
0
 10
232.706
 20
114.395
 11
232.062
 21
113.716
  0
LINE
  8
0
 10
232.062
 20
113.716
 11
231.198
 21
113.358
  0
LINE
  8
0
 10
231.198
 20
113.358
 11
230.262
 21
113.383
  0
LINE
  8
0
 10
-226.064
 20
103.962
 11
-222.967
 21
103.838
  0
LINE
  8
0
 10
-222.967
 20
103.838
 11
-222.375
 21
103.85
  0
LINE
  8
0
 10
-222.375
 20
103.85
 11
-221.789
 21
103.933
  0
LINE
  8
0
 10
-221.789
 20
103.933
 11
-221.218
 21
104.086
  0
LINE
  8
0
 10
-221.218
 20
104.086
 11
-220.669
 21
104.307
  0
LINE
  8
0
 10
-220.669
 20
104.307
 11
-220.151
 21
104.593
  0
LINE
  8
0
 10
-220.151
 20
104.593
 11
-219.671
 21
104.939
  0
LINE
  8
0
 10
-219.671
 20
104.939
 11
-219.236
 21
105.34
  0
LINE
  8
0
 10
-219.236
 20
105.34
 11
-218.852
 21
105.791
  0
LINE
  8
0
 10
-218.852
 20
105.791
 11
-218.526
 21
106.285
  0
LINE
  8
0
 10
-218.526
 20
106.285
 11
-218.262
 21
106.814
  0
LINE
  8
0
 10
-218.262
 20
106.814
 11
-218.063
 21
107.371
  0
LINE
  8
0
 10
-218.063
 20
107.371
 11
-217.934
 21
107.949
  0
LINE
  8
0
 10
-217.934
 20
107.949
 11
-217.874
 21
108.537
  0
LINE
  8
0
 10
-217.874
 20
108.537
 11
-217.549
 21
116.631
  0
LINE
  8
0
 10
-217.549
 20
116.631
 11
-209.456
 21
116.306
  0
LINE
  8
0
 10
-209.456
 20
116.306
 11
-208.864
 21
116.318
  0
LINE
  8
0
 10
-208.864
 20
116.318
 11
-208.278
 21
116.401
  0
LINE
  8
0
 10
-208.278
 20
116.401
 11
-207.707
 21
116.554
  0
LINE
  8
0
 10
-207.707
 20
116.554
 11
-207.158
 21
116.775
  0
LINE
  8
0
 10
-207.158
 20
116.775
 11
-206.639
 21
117.061
  0
LINE
  8
0
 10
-206.639
 20
117.061
 11
-206.159
 21
117.407
  0
LINE
  8
0
 10
-206.159
 20
117.407
 11
-205.725
 21
117.808
  0
LINE
  8
0
 10
-205.725
 20
117.808
 11
-205.341
 21
118.259
  0
LINE
  8
0
 10
-205.341
 20
118.259
 11
-205.015
 21
118.752
  0
LINE
  8
0
 10
-205.015
 20
118.752
 11
-204.751
 21
119.282
  0
LINE
  8
0
 10
-204.751
 20
119.282
 11
-204.552
 21
119.839
  0
LINE
  8
0
 10
-204.552
 20
119.839
 11
-204.422
 21
120.416
  0
LINE
  8
0
 10
-204.422
 20
120.416
 11
-204.363
 21
121.005
  0
LINE
  8
0
 10
-204.363
 20
121.005
 11
-204.034
 21
129.199
  0
LINE
  8
0
 10
-204.034
 20
129.199
 11
-204.046
 21
129.79
  0
LINE
  8
0
 10
-204.046
 20
129.79
 11
-204.129
 21
130.376
  0
LINE
  8
0
 10
-204.129
 20
130.376
 11
-204.282
 21
130.948
  0
LINE
  8
0
 10
-204.282
 20
130.948
 11
-204.503
 21
131.496
  0
LINE
  8
0
 10
-204.503
 20
131.496
 11
-204.789
 21
132.015
  0
LINE
  8
0
 10
-204.789
 20
132.015
 11
-205.135
 21
132.495
  0
LINE
  8
0
 10
-205.135
 20
132.495
 11
-205.536
 21
132.93
  0
LINE
  8
0
 10
-205.536
 20
132.93
 11
-205.987
 21
133.313
  0
LINE
  8
0
 10
-205.987
 20
133.313
 11
-206.48
 21
133.639
  0
LINE
  8
0
 10
-206.48
 20
133.639
 11
-207.01
 21
133.903
  0
LINE
  8
0
 10
-207.01
 20
133.903
 11
-207.567
 21
134.102
  0
LINE
  8
0
 10
-207.567
 20
134.102
 11
-208.144
 21
134.232
  0
LINE
  8
0
 10
-208.144
 20
134.232
 11
-208.733
 21
134.291
  0
LINE
  8
0
 10
-208.733
 20
134.291
 11
-216.827
 21
134.616
  0
LINE
  8
0
 10
-216.827
 20
134.616
 11
-216.502
 21
142.71
  0
LINE
  8
0
 10
-216.502
 20
142.71
 11
-216.514
 21
143.301
  0
LINE
  8
0
 10
-216.514
 20
143.301
 11
-216.597
 21
143.887
  0
LINE
  8
0
 10
-216.597
 20
143.887
 11
-216.75
 21
144.459
  0
LINE
  8
0
 10
-216.75
 20
144.459
 11
-216.971
 21
145.008
  0
LINE
  8
0
 10
-216.971
 20
145.008
 11
-217.257
 21
145.526
  0
LINE
  8
0
 10
-217.257
 20
145.526
 11
-217.602
 21
146.006
  0
LINE
  8
0
 10
-217.602
 20
146.006
 11
-218.004
 21
146.441
  0
LINE
  8
0
 10
-218.004
 20
146.441
 11
-218.455
 21
146.824
  0
LINE
  8
0
 10
-218.455
 20
146.824
 11
-218.948
 21
147.15
  0
LINE
  8
0
 10
-218.948
 20
147.15
 11
-219.478
 21
147.415
  0
LINE
  8
0
 10
-219.478
 20
147.415
 11
-220.035
 21
147.613
  0
LINE
  8
0
 10
-220.035
 20
147.613
 11
-220.612
 21
147.743
  0
LINE
  8
0
 10
-220.612
 20
147.743
 11
-221.201
 21
147.803
  0
LINE
  8
0
 10
-221.201
 20
147.803
 11
-229.394
 21
148.132
  0
LINE
  8
0
 10
-229.394
 20
148.132
 11
-229.986
 21
148.12
  0
LINE
  8
0
 10
-229.986
 20
148.12
 11
-230.572
 21
148.036
  0
LINE
  8
0
 10
-230.572
 20
148.036
 11
-231.143
 21
147.883
  0
LINE
  8
0
 10
-231.143
 20
147.883
 11
-231.692
 21
147.662
  0
LINE
  8
0
 10
-231.692
 20
147.662
 11
-232.21
 21
147.377
  0
LINE
  8
0
 10
-232.21
 20
147.377
 11
-232.691
 21
147.031
  0
LINE
  8
0
 10
-232.691
 20
147.031
 11
-233.125
 21
146.629
  0
LINE
  8
0
 10
-233.125
 20
146.629
 11
-233.509
 21
146.179
  0
LINE
  8
0
 10
-233.509
 20
146.179
 11
-233.835
 21
145.685
  0
LINE
  8
0
 10
-233.835
 20
145.685
 11
-234.099
 21
145.156
  0
LINE
  8
0
 10
-234.099
 20
145.156
 11
-234.298
 21
144.598
  0
LINE
  8
0
 10
-234.298
 20
144.598
 11
-234.428
 21
144.021
  0
LINE
  8
0
 10
-234.428
 20
144.021
 11
-234.487
 21
143.432
  0
LINE
  8
0
 10
-234.487
 20
143.432
 11
-234.812
 21
135.339
  0
LINE
  8
0
 10
-234.812
 20
135.339
 11
-242.906
 21
135.664
  0
LINE
  8
0
 10
-242.906
 20
135.664
 11
-243.497
 21
135.652
  0
LINE
  8
0
 10
-243.497
 20
135.652
 11
-244.083
 21
135.569
  0
LINE
  8
0
 10
-244.083
 20
135.569
 11
-244.655
 21
135.415
  0
LINE
  8
0
 10
-244.655
 20
135.415
 11
-245.203
 21
135.194
  0
LINE
  8
0
 10
-245.203
 20
135.194
 11
-245.722
 21
134.909
  0
LINE
  8
0
 10
-245.722
 20
134.909
 11
-246.202
 21
134.563
  0
LINE
  8
0
 10
-246.202
 20
134.563
 11
-246.637
 21
134.162
  0
LINE
  8
0
 10
-246.637
 20
134.162
 11
-247.02
 21
133.711
  0
LINE
  8
0
 10
-247.02
 20
133.711
 11
-247.346
 21
133.217
  0
LINE
  8
0
 10
-247.346
 20
133.217
 11
-247.61
 21
132.688
  0
LINE
  8
0
 10
-247.61
 20
132.688
 11
-247.809
 21
132.13
  0
LINE
  8
0
 10
-247.809
 20
132.13
 11
-247.939
 21
131.553
  0
LINE
  8
0
 10
-247.939
 20
131.553
 11
-247.998
 21
130.964
  0
LINE
  8
0
 10
-247.998
 20
130.964
 11
-248.327
 21
122.771
  0
LINE
  8
0
 10
-248.327
 20
122.771
 11
-248.315
 21
122.179
  0
LINE
  8
0
 10
-248.315
 20
122.179
 11
-248.232
 21
121.594
  0
LINE
  8
0
 10
-248.232
 20
121.594
 11
-248.079
 21
121.022
  0
LINE
  8
0
 10
-248.079
 20
121.022
 11
-247.858
 21
120.473
  0
LINE
  8
0
 10
-247.858
 20
120.473
 11
-247.572
 21
119.955
  0
LINE
  8
0
 10
-247.572
 20
119.955
 11
-247.227
 21
119.475
  0
LINE
  8
0
 10
-247.227
 20
119.475
 11
-246.825
 21
119.04
  0
LINE
  8
0
 10
-246.825
 20
119.04
 11
-246.374
 21
118.657
  0
LINE
  8
0
 10
-246.374
 20
118.657
 11
-245.881
 21
118.33
  0
LINE
  8
0
 10
-245.881
 20
118.33
 11
-245.351
 21
118.066
  0
LINE
  8
0
 10
-245.351
 20
118.066
 11
-244.794
 21
117.868
  0
LINE
  8
0
 10
-244.794
 20
117.868
 11
-244.217
 21
117.738
  0
LINE
  8
0
 10
-244.217
 20
117.738
 11
-243.628
 21
117.678
  0
LINE
  8
0
 10
-243.628
 20
117.678
 11
-235.535
 21
117.353
  0
LINE
  8
0
 10
-235.535
 20
117.353
 11
-235.86
 21
109.26
  0
LINE
  8
0
 10
-235.86
 20
109.26
 11
-235.848
 21
108.668
  0
LINE
  8
0
 10
-235.848
 20
108.668
 11
-235.764
 21
108.082
  0
LINE
  8
0
 10
-235.764
 20
108.082
 11
-235.611
 21
107.511
  0
LINE
  8
0
 10
-235.611
 20
107.511
 11
-235.39
 21
106.962
  0
LINE
  8
0
 10
-235.39
 20
106.962
 11
-235.105
 21
106.444
  0
LINE
  8
0
 10
-235.105
 20
106.444
 11
-234.759
 21
105.964
  0
LINE
  8
0
 10
-234.759
 20
105.964
 11
-234.357
 21
105.529
  0
LINE
  8
0
 10
-234.357
 20
105.529
 11
-233.907
 21
105.145
  0
LINE
  8
0
 10
-233.907
 20
105.145
 11
-233.413
 21
104.819
  0
LINE
  8
0
 10
-233.413
 20
104.819
 11
-232.884
 21
104.555
  0
LINE
  8
0
 10
-232.884
 20
104.555
 11
-232.326
 21
104.356
  0
LINE
  8
0
 10
-232.326
 20
104.356
 11
-231.749
 21
104.226
  0
LINE
  8
0
 10
-231.749
 20
104.226
 11
-231.16
 21
104.167
  0
LINE
  8
0
 10
-231.16
 20
104.167
 11
-228.063
 21
104.043
  0
LINE
  8
0
 10
-228.063
 20
104.043
 11
-228.263
 21
99.0467
  0
LINE
  8
0
 10
-228.263
 20
99.0467
 11
-226.265
 21
98.9664
  0
LINE
  8
0
 10
-226.265
 20
98.9664
 11
-226.064
 21
103.962
  0
LINE
  8
0
 10
-226.576
 20
138.956
 11
-227.31
 21
139.535
  0
LINE
  8
0
 10
-227.31
 20
139.535
 11
-227.745
 21
140.364
  0
LINE
  8
0
 10
-227.745
 20
140.364
 11
-227.805
 21
141.298
  0
LINE
  8
0
 10
-227.805
 20
141.298
 11
-227.48
 21
142.175
  0
LINE
  8
0
 10
-227.48
 20
142.175
 11
-226.827
 21
142.845
  0
LINE
  8
0
 10
-226.827
 20
142.845
 11
-225.958
 21
143.191
  0
LINE
  8
0
 10
-225.958
 20
143.191
 11
-225.023
 21
143.153
  0
LINE
  8
0
 10
-225.023
 20
143.153
 11
-224.184
 21
142.738
  0
LINE
  8
0
 10
-224.184
 20
142.738
 11
-223.586
 21
142.019
  0
LINE
  8
0
 10
-223.586
 20
142.019
 11
-223.333
 21
141.118
  0
LINE
  8
0
 10
-223.333
 20
141.118
 11
-223.468
 21
140.192
  0
LINE
  8
0
 10
-223.468
 20
140.192
 11
-223.968
 21
139.401
  0
LINE
  8
0
 10
-223.968
 20
139.401
 11
-224.747
 21
138.882
  0
LINE
  8
0
 10
-224.747
 20
138.882
 11
-225.669
 21
138.725
  0
LINE
  8
0
 10
-225.669
 20
138.725
 11
-226.576
 21
138.956
  0
LINE
  8
0
 10
-242.371
 20
124.685
 11
-243.04
 21
125.338
  0
LINE
  8
0
 10
-243.04
 20
125.338
 11
-243.386
 21
126.208
  0
LINE
  8
0
 10
-243.386
 20
126.208
 11
-243.349
 21
127.142
  0
LINE
  8
0
 10
-243.349
 20
127.142
 11
-242.934
 21
127.981
  0
LINE
  8
0
 10
-242.934
 20
127.981
 11
-242.214
 21
128.579
  0
LINE
  8
0
 10
-242.214
 20
128.579
 11
-241.314
 21
128.832
  0
LINE
  8
0
 10
-241.314
 20
128.832
 11
-240.388
 21
128.697
  0
LINE
  8
0
 10
-240.388
 20
128.697
 11
-239.597
 21
128.197
  0
LINE
  8
0
 10
-239.597
 20
128.197
 11
-239.078
 21
127.419
  0
LINE
  8
0
 10
-239.078
 20
127.419
 11
-238.92
 21
126.496
  0
LINE
  8
0
 10
-238.92
 20
126.496
 11
-239.151
 21
125.59
  0
LINE
  8
0
 10
-239.151
 20
125.59
 11
-239.731
 21
124.856
  0
LINE
  8
0
 10
-239.731
 20
124.856
 11
-240.56
 21
124.421
  0
LINE
  8
0
 10
-240.56
 20
124.421
 11
-241.493
 21
124.36
  0
LINE
  8
0
 10
-241.493
 20
124.36
 11
-242.371
 21
124.685
  0
LINE
  8
0
 10
-212.395
 20
123.481
 11
-213.065
 21
124.134
  0
LINE
  8
0
 10
-213.065
 20
124.134
 11
-213.411
 21
125.004
  0
LINE
  8
0
 10
-213.411
 20
125.004
 11
-213.373
 21
125.939
  0
LINE
  8
0
 10
-213.373
 20
125.939
 11
-212.958
 21
126.777
  0
LINE
  8
0
 10
-212.958
 20
126.777
 11
-212.239
 21
127.375
  0
LINE
  8
0
 10
-212.239
 20
127.375
 11
-211.338
 21
127.628
  0
LINE
  8
0
 10
-211.338
 20
127.628
 11
-210.412
 21
127.493
  0
LINE
  8
0
 10
-210.412
 20
127.493
 11
-209.621
 21
126.993
  0
LINE
  8
0
 10
-209.621
 20
126.993
 11
-209.102
 21
126.215
  0
LINE
  8
0
 10
-209.102
 20
126.215
 11
-208.944
 21
125.293
  0
LINE
  8
0
 10
-208.944
 20
125.293
 11
-209.176
 21
124.386
  0
LINE
  8
0
 10
-209.176
 20
124.386
 11
-209.755
 21
123.652
  0
LINE
  8
0
 10
-209.755
 20
123.652
 11
-210.584
 21
123.217
  0
LINE
  8
0
 10
-210.584
 20
123.217
 11
-211.517
 21
123.156
  0
LINE
  8
0
 10
-211.517
 20
123.156
 11
-212.395
 21
123.481
  0
LINE
  8
0
 10
-227.779
 20
108.98
 11
-228.514
 21
109.56
  0
LINE
  8
0
 10
-228.514
 20
109.56
 11
-228.949
 21
110.388
  0
LINE
  8
0
 10
-228.949
 20
110.388
 11
-229.009
 21
111.322
  0
LINE
  8
0
 10
-229.009
 20
111.322
 11
-228.684
 21
112.199
  0
LINE
  8
0
 10
-228.684
 20
112.199
 11
-228.031
 21
112.869
  0
LINE
  8
0
 10
-228.031
 20
112.869
 11
-227.162
 21
113.215
  0
LINE
  8
0
 10
-227.162
 20
113.215
 11
-226.227
 21
113.177
  0
LINE
  8
0
 10
-226.227
 20
113.177
 11
-225.388
 21
112.763
  0
LINE
  8
0
 10
-225.388
 20
112.763
 11
-224.79
 21
112.043
  0
LINE
  8
0
 10
-224.79
 20
112.043
 11
-224.537
 21
111.142
  0
LINE
  8
0
 10
-224.537
 20
111.142
 11
-224.672
 21
110.216
  0
LINE
  8
0
 10
-224.672
 20
110.216
 11
-225.172
 21
109.425
  0
LINE
  8
0
 10
-225.172
 20
109.425
 11
-225.951
 21
108.906
  0
LINE
  8
0
 10
-225.951
 20
108.906
 11
-226.873
 21
108.749
  0
LINE
  8
0
 10
-226.873
 20
108.749
 11
-227.779
 21
108.98
  0
LINE
  8
0
 10
54.6324
 20
65.2012
 11
55.8319
 21
65.5679
  0
LINE
  8
0
 10
55.8319
 20
65.5679
 11
56.929
 21
66.1761
  0
LINE
  8
0
 10
56.929
 20
66.1761
 11
57.8756
 21
66.999
  0
LINE
  8
0
 10
57.8756
 20
66.999
 11
58.6305
 21
68.0008
  0
LINE
  8
0
 10
58.6305
 20
68.0008
 11
59.1606
 21
69.1376
  0
LINE
  8
0
 10
59.1606
 20
69.1376
 11
59.4428
 21
70.3598
  0
LINE
  8
0
 10
59.4428
 20
70.3598
 11
59.4537
 21
70.9868
  0
LINE
  8
0
 10
59.4537
 20
70.9868
 11
59.4866
 21
70.9863
  0
LINE
  8
0
 10
59.4866
 20
70.9863
 11
59.7438
 21
85.7204
  0
LINE
  8
0
 10
59.7438
 20
85.7204
 11
52.8459
 21
90.2
  0
LINE
  8
0
 10
52.8459
 20
90.2
 11
45.5817
 21
96.3387
  0
LINE
  8
0
 10
45.5817
 20
96.3387
 11
39.1441
 21
103.339
  0
LINE
  8
0
 10
39.1441
 20
103.339
 11
33.6348
 21
111.092
  0
LINE
  8
0
 10
33.6348
 20
111.092
 11
29.1405
 21
119.474
  0
LINE
  8
0
 10
29.1405
 20
119.474
 11
25.7322
 21
128.353
  0
LINE
  8
0
 10
25.7322
 20
128.353
 11
23.842
 21
136.048
  0
LINE
  8
0
 10
23.842
 20
136.048
 11
18.1875
 21
136.147
  0
LINE
  8
0
 10
18.1875
 20
136.147
 11
16.938
 21
136.038
  0
LINE
  8
0
 10
16.938
 20
136.038
 11
15.7384
 21
135.671
  0
LINE
  8
0
 10
15.7384
 20
135.671
 11
14.6414
 21
135.063
  0
LINE
  8
0
 10
14.6414
 20
135.063
 11
13.6947
 21
134.24
  0
LINE
  8
0
 10
13.6947
 20
134.24
 11
12.9398
 21
133.238
  0
LINE
  8
0
 10
12.9398
 20
133.238
 11
12.4097
 21
132.101
  0
LINE
  8
0
 10
12.4097
 20
132.101
 11
12.1275
 21
130.879
  0
LINE
  8
0
 10
12.1275
 20
130.879
 11
12.1166
 21
130.252
  0
LINE
  8
0
 10
12.1166
 20
130.252
 11
12.0837
 21
130.253
  0
LINE
  8
0
 10
12.0837
 20
130.253
 11
11.064
 21
71.8315
  0
LINE
  8
0
 10
11.064
 20
71.8315
 11
11.0968
 21
71.8309
  0
LINE
  8
0
 10
11.0968
 20
71.8309
 11
11.0859
 21
71.2038
  0
LINE
  8
0
 10
11.0859
 20
71.2038
 11
11.3252
 21
69.9725
  0
LINE
  8
0
 10
11.3252
 20
69.9725
 11
11.8154
 21
68.8179
  0
LINE
  8
0
 10
11.8154
 20
68.8179
 11
12.5348
 21
67.7904
  0
LINE
  8
0
 10
12.5348
 20
67.7904
 11
13.4522
 21
66.935
  0
LINE
  8
0
 10
13.4522
 20
66.935
 11
14.5274
 21
66.2889
  0
LINE
  8
0
 10
14.5274
 20
66.2889
 11
15.7134
 21
65.8806
  0
LINE
  8
0
 10
15.7134
 20
65.8806
 11
16.9584
 21
65.7277
  0
LINE
  8
0
 10
16.9584
 20
65.7277
 11
53.3828
 21
65.0919
  0
LINE
  8
0
 10
53.3828
 20
65.0919
 11
54.6324
 21
65.2012
  0
LINE
  8
0
 10
17.2843
 20
128.394
 11
16.583
 21
130.174
  0
LINE
  8
0
 10
16.583
 20
130.174
 11
17.346
 21
131.929
  0
LINE
  8
0
 10
17.346
 20
131.929
 11
19.1263
 21
132.63
  0
LINE
  8
0
 10
19.1263
 20
132.63
 11
20.881
 21
131.867
  0
LINE
  8
0
 10
20.881
 20
131.867
 11
21.5823
 21
130.087
  0
LINE
  8
0
 10
21.5823
 20
130.087
 11
20.8193
 21
128.332
  0
LINE
  8
0
 10
20.8193
 20
128.332
 11
19.039
 21
127.631
  0
LINE
  8
0
 10
19.039
 20
127.631
 11
17.2843
 21
128.394
  0
LINE
  8
0
 10
16.2646
 20
69.9727
 11
15.5633
 21
71.7529
  0
LINE
  8
0
 10
15.5633
 20
71.7529
 11
16.3263
 21
73.5077
  0
LINE
  8
0
 10
16.3263
 20
73.5077
 11
18.1065
 21
74.2089
  0
LINE
  8
0
 10
18.1065
 20
74.2089
 11
19.8613
 21
73.446
  0
LINE
  8
0
 10
19.8613
 20
73.446
 11
20.5625
 21
71.6657
  0
LINE
  8
0
 10
20.5625
 20
71.6657
 11
19.7995
 21
69.911
  0
LINE
  8
0
 10
19.7995
 20
69.911
 11
18.0193
 21
69.2097
  0
LINE
  8
0
 10
18.0193
 20
69.2097
 11
16.2646
 21
69.9727
  0
LINE
  8
0
 10
50.6893
 20
69.3718
 11
49.988
 21
71.1521
  0
LINE
  8
0
 10
49.988
 20
71.1521
 11
50.751
 21
72.9068
  0
LINE
  8
0
 10
50.751
 20
72.9068
 11
52.5313
 21
73.608
  0
LINE
  8
0
 10
52.5313
 20
73.608
 11
54.286
 21
72.8451
  0
LINE
  8
0
 10
54.286
 20
72.8451
 11
54.9873
 21
71.0648
  0
LINE
  8
0
 10
54.9873
 20
71.0648
 11
54.2243
 21
69.3101
  0
LINE
  8
0
 10
54.2243
 20
69.3101
 11
52.444
 21
68.6088
  0
LINE
  8
0
 10
52.444
 20
68.6088
 11
50.6893
 21
69.3718
  0
LINE
  8
0
 10
-65.8409
 20
89.1057
 11
-65.2637
 21
89.2357
  0
LINE
  8
0
 10
-65.2637
 20
89.2357
 11
-64.7063
 21
89.4343
  0
LINE
  8
0
 10
-64.7063
 20
89.4343
 11
-64.1769
 21
89.6987
  0
LINE
  8
0
 10
-64.1769
 20
89.6987
 11
-57.0755
 21
93.7987
  0
LINE
  8
0
 10
-57.0755
 20
93.7987
 11
-56.5819
 21
94.125
  0
LINE
  8
0
 10
-56.5819
 20
94.125
 11
-56.1312
 21
94.5083
  0
LINE
  8
0
 10
-56.1312
 20
94.5083
 11
-55.73
 21
94.9433
  0
LINE
  8
0
 10
-55.73
 20
94.9433
 11
-55.3841
 21
95.4234
  0
LINE
  8
0
 10
-55.3841
 20
95.4234
 11
-55.0986
 21
95.9416
  0
LINE
  8
0
 10
-55.0986
 20
95.9416
 11
-54.8777
 21
96.4906
  0
LINE
  8
0
 10
-54.8777
 20
96.4906
 11
-54.7246
 21
97.0621
  0
LINE
  8
0
 10
-54.7246
 20
97.0621
 11
-54.6414
 21
97.6479
  0
LINE
  8
0
 10
-54.6414
 20
97.6479
 11
-54.6295
 21
98.2395
  0
LINE
  8
0
 10
-54.6295
 20
98.2395
 11
-54.689
 21
98.8282
  0
LINE
  8
0
 10
-54.689
 20
98.8282
 11
-54.819
 21
99.4055
  0
LINE
  8
0
 10
-54.819
 20
99.4055
 11
-55.0176
 21
99.9629
  0
LINE
  8
0
 10
-55.0176
 20
99.9629
 11
-55.282
 21
100.492
  0
LINE
  8
0
 10
-55.282
 20
100.492
 11
-59.332
 21
107.507
  0
LINE
  8
0
 10
-59.332
 20
107.507
 11
-52.3172
 21
111.557
  0
LINE
  8
0
 10
-52.3172
 20
111.557
 11
-51.8235
 21
111.883
  0
LINE
  8
0
 10
-51.8235
 20
111.883
 11
-51.3728
 21
112.267
  0
LINE
  8
0
 10
-51.3728
 20
112.267
 11
-50.9716
 21
112.702
  0
LINE
  8
0
 10
-50.9716
 20
112.702
 11
-50.6258
 21
113.182
  0
LINE
  8
0
 10
-50.6258
 20
113.182
 11
-50.3403
 21
113.7
  0
LINE
  8
0
 10
-50.3403
 20
113.7
 11
-50.1194
 21
114.249
  0
LINE
  8
0
 10
-50.1194
 20
114.249
 11
-49.9662
 21
114.82
  0
LINE
  8
0
 10
-49.9662
 20
114.82
 11
-49.8831
 21
115.406
  0
LINE
  8
0
 10
-49.8831
 20
115.406
 11
-49.8712
 21
115.998
  0
LINE
  8
0
 10
-49.8712
 20
115.998
 11
-49.9306
 21
116.587
  0
LINE
  8
0
 10
-49.9306
 20
116.587
 11
-50.0607
 21
117.164
  0
LINE
  8
0
 10
-50.0607
 20
117.164
 11
-50.2593
 21
117.721
  0
LINE
  8
0
 10
-50.2593
 20
117.721
 11
-50.5237
 21
118.251
  0
LINE
  8
0
 10
-50.5237
 20
118.251
 11
-52.0737
 21
120.935
  0
LINE
  8
0
 10
-52.0737
 20
120.935
 11
-47.7436
 21
123.435
  0
LINE
  8
0
 10
-47.7436
 20
123.435
 11
-48.7435
 21
125.167
  0
LINE
  8
0
 10
-48.7435
 20
125.167
 11
-53.0737
 21
122.667
  0
LINE
  8
0
 10
-53.0737
 20
122.667
 11
-54.6237
 21
125.352
  0
LINE
  8
0
 10
-54.6237
 20
125.352
 11
-54.9499
 21
125.846
  0
LINE
  8
0
 10
-54.9499
 20
125.846
 11
-55.3333
 21
126.296
  0
LINE
  8
0
 10
-55.3333
 20
126.296
 11
-55.7682
 21
126.698
  0
LINE
  8
0
 10
-55.7682
 20
126.698
 11
-56.2483
 21
127.043
  0
LINE
  8
0
 10
-56.2483
 20
127.043
 11
-56.7666
 21
127.329
  0
LINE
  8
0
 10
-56.7666
 20
127.329
 11
-57.3155
 21
127.55
  0
LINE
  8
0
 10
-57.3155
 20
127.55
 11
-57.8871
 21
127.703
  0
LINE
  8
0
 10
-57.8871
 20
127.703
 11
-58.4729
 21
127.786
  0
LINE
  8
0
 10
-58.4729
 20
127.786
 11
-59.0645
 21
127.798
  0
LINE
  8
0
 10
-59.0645
 20
127.798
 11
-59.6532
 21
127.739
  0
LINE
  8
0
 10
-59.6532
 20
127.739
 11
-60.2305
 21
127.609
  0
LINE
  8
0
 10
-60.2305
 20
127.609
 11
-60.7878
 21
127.41
  0
LINE
  8
0
 10
-60.7878
 20
127.41
 11
-61.3172
 21
127.145
  0
LINE
  8
0
 10
-61.3172
 20
127.145
 11
-68.332
 21
123.095
  0
LINE
  8
0
 10
-68.332
 20
123.095
 11
-72.382
 21
130.11
  0
LINE
  8
0
 10
-72.382
 20
130.11
 11
-72.7083
 21
130.604
  0
LINE
  8
0
 10
-72.7083
 20
130.604
 11
-73.0917
 21
131.055
  0
LINE
  8
0
 10
-73.0917
 20
131.055
 11
-73.5266
 21
131.456
  0
LINE
  8
0
 10
-73.5266
 20
131.456
 11
-74.0067
 21
131.802
  0
LINE
  8
0
 10
-74.0067
 20
131.802
 11
-74.5249
 21
132.087
  0
LINE
  8
0
 10
-74.5249
 20
132.087
 11
-75.0739
 21
132.308
  0
LINE
  8
0
 10
-75.0739
 20
132.308
 11
-75.6454
 21
132.461
  0
LINE
  8
0
 10
-75.6454
 20
132.461
 11
-76.2312
 21
132.544
  0
LINE
  8
0
 10
-76.2312
 20
132.544
 11
-76.8228
 21
132.556
  0
LINE
  8
0
 10
-76.8228
 20
132.556
 11
-77.4115
 21
132.497
  0
LINE
  8
0
 10
-77.4115
 20
132.497
 11
-77.9888
 21
132.367
  0
LINE
  8
0
 10
-77.9888
 20
132.367
 11
-78.5462
 21
132.168
  0
LINE
  8
0
 10
-78.5462
 20
132.168
 11
-79.0755
 21
131.904
  0
LINE
  8
0
 10
-79.0755
 20
131.904
 11
-86.1769
 21
127.804
  0
LINE
  8
0
 10
-86.1769
 20
127.804
 11
-86.6706
 21
127.478
  0
LINE
  8
0
 10
-86.6706
 20
127.478
 11
-87.1213
 21
127.094
  0
LINE
  8
0
 10
-87.1213
 20
127.094
 11
-87.5225
 21
126.659
  0
LINE
  8
0
 10
-87.5225
 20
126.659
 11
-87.8684
 21
126.179
  0
LINE
  8
0
 10
-87.8684
 20
126.179
 11
-88.1539
 21
125.661
  0
LINE
  8
0
 10
-88.1539
 20
125.661
 11
-88.3748
 21
125.112
  0
LINE
  8
0
 10
-88.3748
 20
125.112
 11
-88.5279
 21
124.54
  0
LINE
  8
0
 10
-88.5279
 20
124.54
 11
-88.6111
 21
123.955
  0
LINE
  8
0
 10
-88.6111
 20
123.955
 11
-88.623
 21
123.363
  0
LINE
  8
0
 10
-88.623
 20
123.363
 11
-88.5635
 21
122.774
  0
LINE
  8
0
 10
-88.5635
 20
122.774
 11
-88.4335
 21
122.197
  0
LINE
  8
0
 10
-88.4335
 20
122.197
 11
-88.2348
 21
121.64
  0
LINE
  8
0
 10
-88.2348
 20
121.64
 11
-87.9705
 21
121.11
  0
LINE
  8
0
 10
-87.9705
 20
121.11
 11
-83.9205
 21
114.095
  0
LINE
  8
0
 10
-83.9205
 20
114.095
 11
-90.9353
 21
110.046
  0
LINE
  8
0
 10
-90.9353
 20
110.046
 11
-91.4289
 21
109.719
  0
LINE
  8
0
 10
-91.4289
 20
109.719
 11
-91.8796
 21
109.336
  0
LINE
  8
0
 10
-91.8796
 20
109.336
 11
-92.2808
 21
108.901
  0
LINE
  8
0
 10
-92.2808
 20
108.901
 11
-92.6267
 21
108.421
  0
LINE
  8
0
 10
-92.6267
 20
108.421
 11
-92.9122
 21
107.903
  0
LINE
  8
0
 10
-92.9122
 20
107.903
 11
-93.1331
 21
107.354
  0
LINE
  8
0
 10
-93.1331
 20
107.354
 11
-93.2862
 21
106.782
  0
LINE
  8
0
 10
-93.2862
 20
106.782
 11
-93.3694
 21
106.196
  0
LINE
  8
0
 10
-93.3694
 20
106.196
 11
-93.3813
 21
105.605
  0
LINE
  8
0
 10
-93.3813
 20
105.605
 11
-93.3218
 21
105.016
  0
LINE
  8
0
 10
-93.3218
 20
105.016
 11
-93.1918
 21
104.439
  0
LINE
  8
0
 10
-93.1918
 20
104.439
 11
-92.9932
 21
103.881
  0
LINE
  8
0
 10
-92.9932
 20
103.881
 11
-92.7288
 21
103.352
  0
LINE
  8
0
 10
-92.7288
 20
103.352
 11
-91.1788
 21
100.667
  0
LINE
  8
0
 10
-91.1788
 20
100.667
 11
-95.5089
 21
98.1673
  0
LINE
  8
0
 10
-95.5089
 20
98.1673
 11
-94.5089
 21
96.4352
  0
LINE
  8
0
 10
-94.5089
 20
96.4352
 11
-90.1788
 21
98.9352
  0
LINE
  8
0
 10
-90.1788
 20
98.9352
 11
-88.6288
 21
96.2505
  0
LINE
  8
0
 10
-88.6288
 20
96.2505
 11
-88.3025
 21
95.7569
  0
LINE
  8
0
 10
-88.3025
 20
95.7569
 11
-87.9191
 21
95.3062
  0
LINE
  8
0
 10
-87.9191
 20
95.3062
 11
-87.4842
 21
94.905
  0
LINE
  8
0
 10
-87.4842
 20
94.905
 11
-87.0041
 21
94.5591
  0
LINE
  8
0
 10
-87.0041
 20
94.5591
 11
-86.4859
 21
94.2737
  0
LINE
  8
0
 10
-86.4859
 20
94.2737
 11
-85.9369
 21
94.0527
  0
LINE
  8
0
 10
-85.9369
 20
94.0527
 11
-85.3654
 21
93.8996
  0
LINE
  8
0
 10
-85.3654
 20
93.8996
 11
-84.7796
 21
93.8164
  0
LINE
  8
0
 10
-84.7796
 20
93.8164
 11
-84.188
 21
93.8045
  0
LINE
  8
0
 10
-84.188
 20
93.8045
 11
-83.5992
 21
93.864
  0
LINE
  8
0
 10
-83.5992
 20
93.864
 11
-83.022
 21
93.994
  0
LINE
  8
0
 10
-83.022
 20
93.994
 11
-82.4646
 21
94.1927
  0
LINE
  8
0
 10
-82.4646
 20
94.1927
 11
-81.9353
 21
94.457
  0
LINE
  8
0
 10
-81.9353
 20
94.457
 11
-74.9205
 21
98.507
  0
LINE
  8
0
 10
-74.9205
 20
98.507
 11
-70.8705
 21
91.4922
  0
LINE
  8
0
 10
-70.8705
 20
91.4922
 11
-70.5442
 21
90.9986
  0
LINE
  8
0
 10
-70.5442
 20
90.9986
 11
-70.1608
 21
90.5479
  0
LINE
  8
0
 10
-70.1608
 20
90.5479
 11
-69.7259
 21
90.1467
  0
LINE
  8
0
 10
-69.7259
 20
90.1467
 11
-69.2458
 21
89.8008
  0
LINE
  8
0
 10
-69.2458
 20
89.8008
 11
-68.7275
 21
89.5153
  0
LINE
  8
0
 10
-68.7275
 20
89.5153
 11
-68.1786
 21
89.2944
  0
LINE
  8
0
 10
-68.1786
 20
89.2944
 11
-67.6071
 21
89.1412
  0
LINE
  8
0
 10
-67.6071
 20
89.1412
 11
-67.0212
 21
89.0581
  0
LINE
  8
0
 10
-67.0212
 20
89.0581
 11
-66.4296
 21
89.0462
  0
LINE
  8
0
 10
-66.4296
 20
89.0462
 11
-65.8409
 21
89.1057
  0
LINE
  8
0
 10
-80.2512
 20
121.843
 11
-80.9465
 21
122.469
  0
LINE
  8
0
 10
-80.9465
 20
122.469
 11
-81.3271
 21
123.324
  0
LINE
  8
0
 10
-81.3271
 20
123.324
 11
-81.3271
 21
124.259
  0
LINE
  8
0
 10
-81.3271
 20
124.259
 11
-80.9465
 21
125.114
  0
LINE
  8
0
 10
-80.9465
 20
125.114
 11
-80.2512
 21
125.74
  0
LINE
  8
0
 10
-80.2512
 20
125.74
 11
-79.3614
 21
126.029
  0
LINE
  8
0
 10
-79.3614
 20
126.029
 11
-78.4309
 21
125.932
  0
LINE
  8
0
 10
-78.4309
 20
125.932
 11
-77.6207
 21
125.464
  0
LINE
  8
0
 10
-77.6207
 20
125.464
 11
-77.0708
 21
124.707
  0
LINE
  8
0
 10
-77.0708
 20
124.707
 11
-76.8762
 21
123.792
  0
LINE
  8
0
 10
-76.8762
 20
123.792
 11
-77.0708
 21
122.876
  0
LINE
  8
0
 10
-77.0708
 20
122.876
 11
-77.6207
 21
122.12
  0
LINE
  8
0
 10
-77.6207
 20
122.12
 11
-78.431
 21
121.652
  0
LINE
  8
0
 10
-78.431
 20
121.652
 11
-79.3614
 21
121.554
  0
LINE
  8
0
 10
-79.3614
 20
121.554
 11
-80.2512
 21
121.843
  0
LINE
  8
0
 10
-59.9584
 20
116.481
 11
-60.5844
 21
117.176
  0
LINE
  8
0
 10
-60.5844
 20
117.176
 11
-60.8735
 21
118.066
  0
LINE
  8
0
 10
-60.8735
 20
118.066
 11
-60.7757
 21
118.997
  0
LINE
  8
0
 10
-60.7757
 20
118.997
 11
-60.3079
 21
119.807
  0
LINE
  8
0
 10
-60.3079
 20
119.807
 11
-59.551
 21
120.357
  0
LINE
  8
0
 10
-59.551
 20
120.357
 11
-58.6358
 21
120.551
  0
LINE
  8
0
 10
-58.6358
 20
120.551
 11
-57.7207
 21
120.357
  0
LINE
  8
0
 10
-57.7207
 20
120.357
 11
-56.9638
 21
119.807
  0
LINE
  8
0
 10
-56.9638
 20
119.807
 11
-56.496
 21
118.997
  0
LINE
  8
0
 10
-56.496
 20
118.997
 11
-56.3982
 21
118.066
  0
LINE
  8
0
 10
-56.3982
 20
118.066
 11
-56.6873
 21
117.176
  0
LINE
  8
0
 10
-56.6873
 20
117.176
 11
-57.3133
 21
116.481
  0
LINE
  8
0
 10
-57.3133
 20
116.481
 11
-58.168
 21
116.1
  0
LINE
  8
0
 10
-58.168
 20
116.1
 11
-59.1036
 21
116.1
  0
LINE
  8
0
 10
-59.1036
 20
116.1
 11
-59.9584
 21
116.481
  0
LINE
  8
0
 10
-85.9391
 20
101.481
 11
-86.5652
 21
102.176
  0
LINE
  8
0
 10
-86.5652
 20
102.176
 11
-86.8543
 21
103.066
  0
LINE
  8
0
 10
-86.8543
 20
103.066
 11
-86.7565
 21
103.997
  0
LINE
  8
0
 10
-86.7565
 20
103.997
 11
-86.2887
 21
104.807
  0
LINE
  8
0
 10
-86.2887
 20
104.807
 11
-85.5318
 21
105.357
  0
LINE
  8
0
 10
-85.5318
 20
105.357
 11
-84.6166
 21
105.551
  0
LINE
  8
0
 10
-84.6166
 20
105.551
 11
-83.7014
 21
105.357
  0
LINE
  8
0
 10
-83.7014
 20
105.357
 11
-82.9445
 21
104.807
  0
LINE
  8
0
 10
-82.9445
 20
104.807
 11
-82.4767
 21
103.997
  0
LINE
  8
0
 10
-82.4767
 20
103.997
 11
-82.3789
 21
103.066
  0
LINE
  8
0
 10
-82.3789
 20
103.066
 11
-82.6681
 21
102.176
  0
LINE
  8
0
 10
-82.6681
 20
102.176
 11
-83.2941
 21
101.481
  0
LINE
  8
0
 10
-83.2941
 20
101.481
 11
-84.1488
 21
101.1
  0
LINE
  8
0
 10
-84.1488
 20
101.1
 11
-85.0844
 21
101.1
  0
LINE
  8
0
 10
-85.0844
 20
101.1
 11
-85.9391
 21
101.481
  0
LINE
  8
0
 10
-65.2512
 20
95.8623
 11
-65.9465
 21
96.4884
  0
LINE
  8
0
 10
-65.9465
 20
96.4884
 11
-66.3271
 21
97.3431
  0
LINE
  8
0
 10
-66.3271
 20
97.3431
 11
-66.3271
 21
98.2787
  0
LINE
  8
0
 10
-66.3271
 20
98.2787
 11
-65.9465
 21
99.1334
  0
LINE
  8
0
 10
-65.9465
 20
99.1334
 11
-65.2512
 21
99.7594
  0
LINE
  8
0
 10
-65.2512
 20
99.7594
 11
-64.3614
 21
100.049
  0
LINE
  8
0
 10
-64.3614
 20
100.049
 11
-63.431
 21
99.9508
  0
LINE
  8
0
 10
-63.431
 20
99.9508
 11
-62.6207
 21
99.483
  0
LINE
  8
0
 10
-62.6207
 20
99.483
 11
-62.0708
 21
98.726
  0
LINE
  8
0
 10
-62.0708
 20
98.726
 11
-61.8763
 21
97.8109
  0
LINE
  8
0
 10
-61.8763
 20
97.8109
 11
-62.0708
 21
96.8957
  0
LINE
  8
0
 10
-62.0708
 20
96.8957
 11
-62.6207
 21
96.1388
  0
LINE
  8
0
 10
-62.6207
 20
96.1388
 11
-63.431
 21
95.671
  0
LINE
  8
0
 10
-63.431
 20
95.671
 11
-64.3614
 21
95.5732
  0
LINE
  8
0
 10
-64.3614
 20
95.5732
 11
-65.2512
 21
95.8623
  0
LINE
  8
0
 10
-43.5004
 20
-17.4864
 11
-42.3009
 21
-17.1196
  0
LINE
  8
0
 10
-42.3009
 20
-17.1196
 11
-41.2038
 21
-16.5115
  0
LINE
  8
0
 10
-41.2038
 20
-16.5115
 11
-40.2572
 21
-15.6886
  0
LINE
  8
0
 10
-40.2572
 20
-15.6886
 11
-39.5023
 21
-14.6868
  0
LINE
  8
0
 10
-39.5023
 20
-14.6868
 11
-20.7395
 21
16.5397
  0
LINE
  8
0
 10
-20.7395
 20
16.5397
 11
-20.2094
 21
17.6766
  0
LINE
  8
0
 10
-20.2094
 20
17.6766
 11
-19.9272
 21
18.8988
  0
LINE
  8
0
 10
-19.9272
 20
18.8988
 11
-19.9053
 21
20.1529
  0
LINE
  8
0
 10
-19.9053
 20
20.1529
 11
-20.1446
 21
21.3842
  0
LINE
  8
0
 10
-20.1446
 20
21.3842
 11
-20.6347
 21
22.5388
  0
LINE
  8
0
 10
-20.6347
 20
22.5388
 11
-21.3542
 21
23.5663
  0
LINE
  8
0
 10
-21.3542
 20
23.5663
 11
-22.2716
 21
24.4218
  0
LINE
  8
0
 10
-22.2716
 20
24.4218
 11
-22.8092
 21
24.7448
  0
LINE
  8
0
 10
-22.8092
 20
24.7448
 11
-22.7922
 21
24.773
  0
LINE
  8
0
 10
-22.7922
 20
24.773
 11
-72.8765
 21
54.8666
  0
LINE
  8
0
 10
-72.8765
 20
54.8666
 11
-72.8934
 21
54.8385
  0
LINE
  8
0
 10
-72.8934
 20
54.8385
 11
-73.431
 21
55.1615
  0
LINE
  8
0
 10
-73.431
 20
55.1615
 11
-74.617
 21
55.5699
  0
LINE
  8
0
 10
-74.617
 20
55.5699
 11
-75.862
 21
55.7227
  0
LINE
  8
0
 10
-75.862
 20
55.7227
 11
-77.1116
 21
55.6134
  0
LINE
  8
0
 10
-77.1116
 20
55.6134
 11
-78.3111
 21
55.2467
  0
LINE
  8
0
 10
-78.3111
 20
55.2467
 11
-79.4082
 21
54.6385
  0
LINE
  8
0
 10
-79.4082
 20
54.6385
 11
-80.3548
 21
53.8156
  0
LINE
  8
0
 10
-80.3548
 20
53.8156
 11
-81.1097
 21
52.8139
  0
LINE
  8
0
 10
-81.1097
 20
52.8139
 11
-84.0224
 21
47.9663
  0
LINE
  8
0
 10
-84.0224
 20
47.9663
 11
-78.4978
 21
42.2853
  0
LINE
  8
0
 10
-78.4978
 20
42.2853
 11
-72.7742
 21
34.6897
  0
LINE
  8
0
 10
-72.7742
 20
34.6897
 11
-68.0476
 21
26.4367
  0
LINE
  8
0
 10
-68.0476
 20
26.4367
 11
-64.3927
 21
17.6563
  0
LINE
  8
0
 10
-64.3927
 20
17.6563
 11
-61.8671
 21
8.48715
  0
LINE
  8
0
 10
-61.8671
 20
8.48715
 11
-60.5106
 21
-0.926254
  0
LINE
  8
0
 10
-60.5106
 20
-0.926254
 11
-60.3671
 21
-9.14977
  0
LINE
  8
0
 10
-60.3671
 20
-9.14977
 11
-47.7355
 21
-16.7396
  0
LINE
  8
0
 10
-47.7355
 20
-16.7396
 11
-47.7186
 21
-16.7114
  0
LINE
  8
0
 10
-47.7186
 20
-16.7114
 11
-47.181
 21
-17.0344
  0
LINE
  8
0
 10
-47.181
 20
-17.0344
 11
-45.995
 21
-17.4428
  0
LINE
  8
0
 10
-45.995
 20
-17.4428
 11
-44.75
 21
-17.5957
  0
LINE
  8
0
 10
-44.75
 20
-17.5957
 11
-43.5004
 21
-17.4864
  0
LINE
  8
0
 10
-77.7693
 20
46.7236
 11
-78.9075
 21
48.2617
  0
LINE
  8
0
 10
-78.9075
 20
48.2617
 11
-78.6247
 21
50.1541
  0
LINE
  8
0
 10
-78.6247
 20
50.1541
 11
-77.0865
 21
51.2922
  0
LINE
  8
0
 10
-77.0865
 20
51.2922
 11
-75.1941
 21
51.0094
  0
LINE
  8
0
 10
-75.1941
 20
51.0094
 11
-74.056
 21
49.4713
  0
LINE
  8
0
 10
-74.056
 20
49.4713
 11
-74.3388
 21
47.5789
  0
LINE
  8
0
 10
-74.3388
 20
47.5789
 11
-75.8769
 21
46.4407
  0
LINE
  8
0
 10
-75.8769
 20
46.4407
 11
-77.7693
 21
46.7236
  0
LINE
  8
0
 10
-27.6851
 20
16.6299
 11
-28.8232
 21
18.168
  0
LINE
  8
0
 10
-28.8232
 20
18.168
 11
-28.5404
 21
20.0604
  0
LINE
  8
0
 10
-28.5404
 20
20.0604
 11
-27.0023
 21
21.1985
  0
LINE
  8
0
 10
-27.0023
 20
21.1985
 11
-25.1099
 21
20.9157
  0
LINE
  8
0
 10
-25.1099
 20
20.9157
 11
-23.9717
 21
19.3776
  0
LINE
  8
0
 10
-23.9717
 20
19.3776
 11
-24.2546
 21
17.4852
  0
LINE
  8
0
 10
-24.2546
 20
17.4852
 11
-25.7927
 21
16.3471
  0
LINE
  8
0
 10
-25.7927
 20
16.3471
 11
-27.6851
 21
16.6299
  0
LINE
  8
0
 10
-45.4178
 20
-12.8823
 11
-46.556
 21
-11.3442
  0
LINE
  8
0
 10
-46.556
 20
-11.3442
 11
-46.2731
 21
-9.45183
  0
LINE
  8
0
 10
-46.2731
 20
-9.45183
 11
-44.735
 21
-8.31367
  0
LINE
  8
0
 10
-44.735
 20
-8.31367
 11
-42.8426
 21
-8.5965
  0
LINE
  8
0
 10
-42.8426
 20
-8.5965
 11
-41.7045
 21
-10.1346
  0
LINE
  8
0
 10
-41.7045
 20
-10.1346
 11
-41.9873
 21
-12.027
  0
LINE
  8
0
 10
-41.9873
 20
-12.027
 11
-43.5254
 21
-13.1651
  0
LINE
  8
0
 10
-43.5254
 20
-13.1651
 11
-45.4178
 21
-12.8823
  0
LINE
  8
0
 10
-131.309
 20
-42.4643
 11
-130.727
 21
-42.3576
  0
LINE
  8
0
 10
-130.727
 20
-42.3576
 11
-130.162
 21
-42.1816
  0
LINE
  8
0
 10
-130.162
 20
-42.1816
 11
-129.623
 21
-41.9387
  0
LINE
  8
0
 10
-129.623
 20
-41.9387
 11
-129.116
 21
-41.6326
  0
LINE
  8
0
 10
-129.116
 20
-41.6326
 11
-128.651
 21
-41.2677
  0
LINE
  8
0
 10
-128.651
 20
-41.2677
 11
-128.232
 21
-40.8493
  0
LINE
  8
0
 10
-128.232
 20
-40.8493
 11
-127.867
 21
-40.3835
  0
LINE
  8
0
 10
-127.867
 20
-40.3835
 11
-127.561
 21
-39.8772
  0
LINE
  8
0
 10
-127.561
 20
-39.8772
 11
-127.318
 21
-39.3376
  0
LINE
  8
0
 10
-127.318
 20
-39.3376
 11
-127.142
 21
-38.7727
  0
LINE
  8
0
 10
-127.142
 20
-38.7727
 11
-127.036
 21
-38.1906
  0
LINE
  8
0
 10
-127.036
 20
-38.1906
 11
-127
 21
-37.6
  0
LINE
  8
0
 10
-127
 20
-37.6
 11
-127
 21
-16
  0
LINE
  8
0
 10
-127
 20
-16
 11
-105.4
 21
-16
  0
LINE
  8
0
 10
-105.4
 20
-16
 11
-104.809
 21
-15.9643
  0
LINE
  8
0
 10
-104.809
 20
-15.9643
 11
-104.227
 21
-15.8576
  0
LINE
  8
0
 10
-104.227
 20
-15.8576
 11
-103.662
 21
-15.6816
  0
LINE
  8
0
 10
-103.662
 20
-15.6816
 11
-103.123
 21
-15.4387
  0
LINE
  8
0
 10
-103.123
 20
-15.4387
 11
-102.616
 21
-15.1326
  0
LINE
  8
0
 10
-102.616
 20
-15.1326
 11
-102.151
 21
-14.7677
  0
LINE
  8
0
 10
-102.151
 20
-14.7677
 11
-101.732
 21
-14.3493
  0
LINE
  8
0
 10
-101.732
 20
-14.3493
 11
-101.367
 21
-13.8835
  0
LINE
  8
0
 10
-101.367
 20
-13.8835
 11
-101.061
 21
-13.3771
  0
LINE
  8
0
 10
-101.061
 20
-13.3771
 11
-100.818
 21
-12.8376
  0
LINE
  8
0
 10
-100.818
 20
-12.8376
 11
-100.642
 21
-12.2726
  0
LINE
  8
0
 10
-100.642
 20
-12.2726
 11
-100.536
 21
-11.6906
  0
LINE
  8
0
 10
-100.536
 20
-11.6906
 11
-100.5
 21
-11.1
  0
LINE
  8
0
 10
-100.5
 20
-11.1
 11
-100.5
 21
-2.89999
  0
LINE
  8
0
 10
-100.5
 20
-2.89999
 11
-100.536
 21
-2.30936
  0
LINE
  8
0
 10
-100.536
 20
-2.30936
 11
-100.642
 21
-1.72734
  0
LINE
  8
0
 10
-100.642
 20
-1.72734
 11
-100.818
 21
-1.16243
  0
LINE
  8
0
 10
-100.818
 20
-1.16243
 11
-101.061
 21
-0.622849
  0
LINE
  8
0
 10
-101.061
 20
-0.622849
 11
-101.367
 21
-0.11647
  0
LINE
  8
0
 10
-101.367
 20
-0.11647
 11
-101.732
 21
0.349289
  0
LINE
  8
0
 10
-101.732
 20
0.349289
 11
-102.151
 21
0.7677
  0
LINE
  8
0
 10
-102.151
 20
0.7677
 11
-102.616
 21
1.13261
  0
LINE
  8
0
 10
-102.616
 20
1.13261
 11
-103.123
 21
1.43872
  0
LINE
  8
0
 10
-103.123
 20
1.43872
 11
-103.662
 21
1.68156
  0
LINE
  8
0
 10
-103.662
 20
1.68156
 11
-104.227
 21
1.8576
  0
LINE
  8
0
 10
-104.227
 20
1.8576
 11
-104.809
 21
1.96426
  0
LINE
  8
0
 10
-104.809
 20
1.96426
 11
-105.4
 21
1.99998
  0
LINE
  8
0
 10
-105.4
 20
1.99998
 11
-127
 21
1.99998
  0
LINE
  8
0
 10
-127
 20
1.99998
 11
-127
 21
23.6
  0
LINE
  8
0
 10
-127
 20
23.6
 11
-127.036
 21
24.1906
  0
LINE
  8
0
 10
-127.036
 20
24.1906
 11
-127.142
 21
24.7726
  0
LINE
  8
0
 10
-127.142
 20
24.7726
 11
-127.318
 21
25.3376
  0
LINE
  8
0
 10
-127.318
 20
25.3376
 11
-127.561
 21
25.8771
  0
LINE
  8
0
 10
-127.561
 20
25.8771
 11
-127.867
 21
26.3835
  0
LINE
  8
0
 10
-127.867
 20
26.3835
 11
-128.232
 21
26.8493
  0
LINE
  8
0
 10
-128.232
 20
26.8493
 11
-128.651
 21
27.2677
  0
LINE
  8
0
 10
-128.651
 20
27.2677
 11
-129.116
 21
27.6326
  0
LINE
  8
0
 10
-129.116
 20
27.6326
 11
-129.623
 21
27.9387
  0
LINE
  8
0
 10
-129.623
 20
27.9387
 11
-130.162
 21
28.1816
  0
LINE
  8
0
 10
-130.162
 20
28.1816
 11
-130.727
 21
28.3576
  0
LINE
  8
0
 10
-130.727
 20
28.3576
 11
-131.309
 21
28.4643
  0
LINE
  8
0
 10
-131.309
 20
28.4643
 11
-131.9
 21
28.5
  0
LINE
  8
0
 10
-131.9
 20
28.5
 11
-140.1
 21
28.5
  0
LINE
  8
0
 10
-140.1
 20
28.5
 11
-140.691
 21
28.4643
  0
LINE
  8
0
 10
-140.691
 20
28.4643
 11
-141.273
 21
28.3576
  0
LINE
  8
0
 10
-141.273
 20
28.3576
 11
-141.838
 21
28.1816
  0
LINE
  8
0
 10
-141.838
 20
28.1816
 11
-142.377
 21
27.9387
  0
LINE
  8
0
 10
-142.377
 20
27.9387
 11
-142.884
 21
27.6326
  0
LINE
  8
0
 10
-142.884
 20
27.6326
 11
-143.349
 21
27.2677
  0
LINE
  8
0
 10
-143.349
 20
27.2677
 11
-143.768
 21
26.8493
  0
LINE
  8
0
 10
-143.768
 20
26.8493
 11
-144.133
 21
26.3835
  0
LINE
  8
0
 10
-144.133
 20
26.3835
 11
-144.439
 21
25.8771
  0
LINE
  8
0
 10
-144.439
 20
25.8771
 11
-144.682
 21
25.3376
  0
LINE
  8
0
 10
-144.682
 20
25.3376
 11
-144.858
 21
24.7726
  0
LINE
  8
0
 10
-144.858
 20
24.7726
 11
-144.964
 21
24.1906
  0
LINE
  8
0
 10
-144.964
 20
24.1906
 11
-145
 21
23.6
  0
LINE
  8
0
 10
-145
 20
23.6
 11
-145
 21
2
  0
LINE
  8
0
 10
-145
 20
2
 11
-166.6
 21
2
  0
LINE
  8
0
 10
-166.6
 20
2
 11
-167.191
 21
1.96428
  0
LINE
  8
0
 10
-167.191
 20
1.96428
 11
-167.773
 21
1.85762
  0
LINE
  8
0
 10
-167.773
 20
1.85762
 11
-168.338
 21
1.68158
  0
LINE
  8
0
 10
-168.338
 20
1.68158
 11
-168.877
 21
1.43874
  0
LINE
  8
0
 10
-168.877
 20
1.43874
 11
-169.384
 21
1.13263
  0
LINE
  8
0
 10
-169.384
 20
1.13263
 11
-169.849
 21
0.767715
  0
LINE
  8
0
 10
-169.849
 20
0.767715
 11
-170.268
 21
0.349304
  0
LINE
  8
0
 10
-170.268
 20
0.349304
 11
-170.633
 21
-0.116455
  0
LINE
  8
0
 10
-170.633
 20
-0.116455
 11
-170.939
 21
-0.622833
  0
LINE
  8
0
 10
-170.939
 20
-0.622833
 11
-171.182
 21
-1.16241
  0
LINE
  8
0
 10
-171.182
 20
-1.16241
 11
-171.358
 21
-1.72733
  0
LINE
  8
0
 10
-171.358
 20
-1.72733
 11
-171.464
 21
-2.30934
  0
LINE
  8
0
 10
-171.464
 20
-2.30934
 11
-171.5
 21
-2.89998
  0
LINE
  8
0
 10
-171.5
 20
-2.89998
 11
-171.5
 21
-11.1
  0
LINE
  8
0
 10
-171.5
 20
-11.1
 11
-171.464
 21
-11.6906
  0
LINE
  8
0
 10
-171.464
 20
-11.6906
 11
-171.358
 21
-12.2726
  0
LINE
  8
0
 10
-171.358
 20
-12.2726
 11
-171.182
 21
-12.8375
  0
LINE
  8
0
 10
-171.182
 20
-12.8375
 11
-170.939
 21
-13.3771
  0
LINE
  8
0
 10
-170.939
 20
-13.3771
 11
-170.633
 21
-13.8835
  0
LINE
  8
0
 10
-170.633
 20
-13.8835
 11
-170.268
 21
-14.3493
  0
LINE
  8
0
 10
-170.268
 20
-14.3493
 11
-169.849
 21
-14.7677
  0
LINE
  8
0
 10
-169.849
 20
-14.7677
 11
-169.384
 21
-15.1326
  0
LINE
  8
0
 10
-169.384
 20
-15.1326
 11
-168.877
 21
-15.4387
  0
LINE
  8
0
 10
-168.877
 20
-15.4387
 11
-168.338
 21
-15.6815
  0
LINE
  8
0
 10
-168.338
 20
-15.6815
 11
-167.773
 21
-15.8576
  0
LINE
  8
0
 10
-167.773
 20
-15.8576
 11
-167.191
 21
-15.9642
  0
LINE
  8
0
 10
-167.191
 20
-15.9642
 11
-166.6
 21
-16
  0
LINE
  8
0
 10
-166.6
 20
-16
 11
-145
 21
-16
  0
LINE
  8
0
 10
-145
 20
-16
 11
-145
 21
-37.6
  0
LINE
  8
0
 10
-145
 20
-37.6
 11
-144.964
 21
-38.1906
  0
LINE
  8
0
 10
-144.964
 20
-38.1906
 11
-144.858
 21
-38.7727
  0
LINE
  8
0
 10
-144.858
 20
-38.7727
 11
-144.682
 21
-39.3376
  0
LINE
  8
0
 10
-144.682
 20
-39.3376
 11
-144.439
 21
-39.8772
  0
LINE
  8
0
 10
-144.439
 20
-39.8772
 11
-144.133
 21
-40.3835
  0
LINE
  8
0
 10
-144.133
 20
-40.3835
 11
-143.768
 21
-40.8493
  0
LINE
  8
0
 10
-143.768
 20
-40.8493
 11
-143.349
 21
-41.2677
  0
LINE
  8
0
 10
-143.349
 20
-41.2677
 11
-142.884
 21
-41.6326
  0
LINE
  8
0
 10
-142.884
 20
-41.6326
 11
-142.377
 21
-41.9387
  0
LINE
  8
0
 10
-142.377
 20
-41.9387
 11
-141.838
 21
-42.1816
  0
LINE
  8
0
 10
-141.838
 20
-42.1816
 11
-141.273
 21
-42.3576
  0
LINE
  8
0
 10
-141.273
 20
-42.3576
 11
-140.691
 21
-42.4643
  0
LINE
  8
0
 10
-140.691
 20
-42.4643
 11
-140.1
 21
-42.5
  0
LINE
  8
0
 10
-140.1
 20
-42.5
 11
-131.9
 21
-42.5
  0
LINE
  8
0
 10
-131.9
 20
-42.5
 11
-131.309
 21
-42.4643
  0
LINE
  8
0
 10
-136.468
 20
19.2992
 11
-137.323
 21
19.6797
  0
LINE
  8
0
 10
-137.323
 20
19.6797
 11
-137.949
 21
20.375
  0
LINE
  8
0
 10
-137.949
 20
20.375
 11
-138.238
 21
21.2648
  0
LINE
  8
0
 10
-138.238
 20
21.2648
 11
-138.14
 21
22.1953
  0
LINE
  8
0
 10
-138.14
 20
22.1953
 11
-137.672
 21
23.0055
  0
LINE
  8
0
 10
-137.672
 20
23.0055
 11
-136.915
 21
23.5555
  0
LINE
  8
0
 10
-136.915
 20
23.5555
 11
-136
 21
23.75
  0
LINE
  8
0
 10
-136
 20
23.75
 11
-135.085
 21
23.5555
  0
LINE
  8
0
 10
-135.085
 20
23.5555
 11
-134.328
 21
23.0055
  0
LINE
  8
0
 10
-134.328
 20
23.0055
 11
-133.86
 21
22.1953
  0
LINE
  8
0
 10
-133.86
 20
22.1953
 11
-133.762
 21
21.2648
  0
LINE
  8
0
 10
-133.762
 20
21.2648
 11
-134.051
 21
20.375
  0
LINE
  8
0
 10
-134.051
 20
20.375
 11
-134.677
 21
19.6797
  0
LINE
  8
0
 10
-134.677
 20
19.6797
 11
-135.532
 21
19.2992
  0
LINE
  8
0
 10
-135.532
 20
19.2992
 11
-136.468
 21
19.2992
  0
LINE
  8
0
 10
-137.697
 20
-8.69705
 11
-138.4
 21
-6.99998
  0
LINE
  8
0
 10
-138.4
 20
-6.99998
 11
-137.697
 21
-5.30295
  0
LINE
  8
0
 10
-137.697
 20
-5.30295
 11
-136
 21
-4.60001
  0
LINE
  8
0
 10
-136
 20
-4.60001
 11
-134.303
 21
-5.30295
  0
LINE
  8
0
 10
-134.303
 20
-5.30295
 11
-133.6
 21
-7
  0
LINE
  8
0
 10
-133.6
 20
-7
 11
-134.303
 21
-8.69705
  0
LINE
  8
0
 10
-134.303
 20
-8.69705
 11
-136
 21
-9.39999
  0
LINE
  8
0
 10
-136
 20
-9.39999
 11
-137.697
 21
-8.69705
  0
LINE
  8
0
 10
-165.195
 20
-9.13983
 11
-166.006
 21
-8.67204
  0
LINE
  8
0
 10
-166.006
 20
-8.67204
 11
-166.555
 21
-7.91512
  0
LINE
  8
0
 10
-166.555
 20
-7.91512
 11
-166.75
 21
-6.99998
  0
LINE
  8
0
 10
-166.75
 20
-6.99998
 11
-166.555
 21
-6.08482
  0
LINE
  8
0
 10
-166.555
 20
-6.08482
 11
-166.006
 21
-5.3279
  0
LINE
  8
0
 10
-166.006
 20
-5.3279
 11
-165.195
 21
-4.86011
  0
LINE
  8
0
 10
-165.195
 20
-4.86011
 11
-164.265
 21
-4.7623
  0
LINE
  8
0
 10
-164.265
 20
-4.7623
 11
-163.375
 21
-5.05142
  0
LINE
  8
0
 10
-163.375
 20
-5.05142
 11
-162.68
 21
-5.67746
  0
LINE
  8
0
 10
-162.68
 20
-5.67746
 11
-162.299
 21
-6.53218
  0
LINE
  8
0
 10
-162.299
 20
-6.53218
 11
-162.299
 21
-7.46776
  0
LINE
  8
0
 10
-162.299
 20
-7.46776
 11
-162.68
 21
-8.32248
  0
LINE
  8
0
 10
-162.68
 20
-8.32248
 11
-163.375
 21
-8.94852
  0
LINE
  8
0
 10
-163.375
 20
-8.94852
 11
-164.265
 21
-9.23764
  0
LINE
  8
0
 10
-164.265
 20
-9.23764
 11
-165.195
 21
-9.13983
  0
LINE
  8
0
 10
-108.195
 20
-9.13986
 11
-109.006
 21
-8.67207
  0
LINE
  8
0
 10
-109.006
 20
-8.67207
 11
-109.555
 21
-7.91515
  0
LINE
  8
0
 10
-109.555
 20
-7.91515
 11
-109.75
 21
-7
  0
LINE
  8
0
 10
-109.75
 20
-7
 11
-109.555
 21
-6.08484
  0
LINE
  8
0
 10
-109.555
 20
-6.08484
 11
-109.006
 21
-5.32791
  0
LINE
  8
0
 10
-109.006
 20
-5.32791
 11
-108.195
 21
-4.86012
  0
LINE
  8
0
 10
-108.195
 20
-4.86012
 11
-107.265
 21
-4.76231
  0
LINE
  8
0
 10
-107.265
 20
-4.76231
 11
-106.375
 21
-5.05144
  0
LINE
  8
0
 10
-106.375
 20
-5.05144
 11
-105.68
 21
-5.67747
  0
LINE
  8
0
 10
-105.68
 20
-5.67747
 11
-105.299
 21
-6.5322
  0
LINE
  8
0
 10
-105.299
 20
-6.5322
 11
-105.299
 21
-7.46779
  0
LINE
  8
0
 10
-105.299
 20
-7.46779
 11
-105.68
 21
-8.32251
  0
LINE
  8
0
 10
-105.68
 20
-8.32251
 11
-106.375
 21
-8.94855
  0
LINE
  8
0
 10
-106.375
 20
-8.94855
 11
-107.265
 21
-9.23767
  0
LINE
  8
0
 10
-107.265
 20
-9.23767
 11
-108.195
 21
-9.13986
  0
LINE
  8
0
 10
-136.468
 20
-37.7008
 11
-137.323
 21
-37.3203
  0
LINE
  8
0
 10
-137.323
 20
-37.3203
 11
-137.949
 21
-36.625
  0
LINE
  8
0
 10
-137.949
 20
-36.625
 11
-138.238
 21
-35.7352
  0
LINE
  8
0
 10
-138.238
 20
-35.7352
 11
-138.14
 21
-34.8047
  0
LINE
  8
0
 10
-138.14
 20
-34.8047
 11
-137.672
 21
-33.9945
  0
LINE
  8
0
 10
-137.672
 20
-33.9945
 11
-136.915
 21
-33.4445
  0
LINE
  8
0
 10
-136.915
 20
-33.4445
 11
-136
 21
-33.25
  0
LINE
  8
0
 10
-136
 20
-33.25
 11
-135.085
 21
-33.4445
  0
LINE
  8
0
 10
-135.085
 20
-33.4445
 11
-134.328
 21
-33.9945
  0
LINE
  8
0
 10
-134.328
 20
-33.9945
 11
-133.86
 21
-34.8047
  0
LINE
  8
0
 10
-133.86
 20
-34.8047
 11
-133.762
 21
-35.7352
  0
LINE
  8
0
 10
-133.762
 20
-35.7352
 11
-134.051
 21
-36.625
  0
LINE
  8
0
 10
-134.051
 20
-36.625
 11
-134.677
 21
-37.3203
  0
LINE
  8
0
 10
-134.677
 20
-37.3203
 11
-135.532
 21
-37.7008
  0
LINE
  8
0
 10
-135.532
 20
-37.7008
 11
-136.468
 21
-37.7008
  0
LINE
  8
0
 10
66.5944
 20
-136.269
 11
67.7654
 21
-135.819
  0
LINE
  8
0
 10
67.7654
 20
-135.819
 11
68.8174
 21
-135.136
  0
LINE
  8
0
 10
68.8174
 20
-135.136
 11
69.7044
 21
-134.249
  0
LINE
  8
0
 10
69.7044
 20
-134.249
 11
70.3875
 21
-133.197
  0
LINE
  8
0
 10
70.3875
 20
-133.197
 11
70.837
 21
-132.026
  0
LINE
  8
0
 10
70.837
 20
-132.026
 11
70.9351
 21
-131.407
  0
LINE
  8
0
 10
70.9351
 20
-131.407
 11
70.9676
 21
-131.412
  0
LINE
  8
0
 10
70.9676
 20
-131.412
 11
80.1081
 21
-73.7011
  0
LINE
  8
0
 10
80.1081
 20
-73.7011
 11
80.0756
 21
-73.696
  0
LINE
  8
0
 10
80.0756
 20
-73.696
 11
80.1737
 21
-73.0765
  0
LINE
  8
0
 10
80.1737
 20
-73.0765
 11
80.1081
 21
-71.8239
  0
LINE
  8
0
 10
80.1081
 20
-71.8239
 11
79.7834
 21
-70.6123
  0
LINE
  8
0
 10
79.7834
 20
-70.6123
 11
79.214
 21
-69.4947
  0
LINE
  8
0
 10
79.214
 20
-69.4947
 11
78.4246
 21
-68.5199
  0
LINE
  8
0
 10
78.4246
 20
-68.5199
 11
77.4498
 21
-67.7305
  0
LINE
  8
0
 10
77.4498
 20
-67.7305
 11
76.3322
 21
-67.161
  0
LINE
  8
0
 10
76.3322
 20
-67.161
 11
75.1206
 21
-66.8364
  0
LINE
  8
0
 10
75.1206
 20
-66.8364
 11
39.1391
 21
-61.1375
  0
LINE
  8
0
 10
39.1391
 20
-61.1375
 11
37.8864
 21
-61.0718
  0
LINE
  8
0
 10
37.8864
 20
-61.0718
 11
36.6476
 21
-61.268
  0
LINE
  8
0
 10
36.6476
 20
-61.268
 11
35.4765
 21
-61.7175
  0
LINE
  8
0
 10
35.4765
 20
-61.7175
 11
34.4245
 21
-62.4007
  0
LINE
  8
0
 10
34.4245
 20
-62.4007
 11
33.5376
 21
-63.2877
  0
LINE
  8
0
 10
33.5376
 20
-63.2877
 11
32.8544
 21
-64.3396
  0
LINE
  8
0
 10
32.8544
 20
-64.3396
 11
32.4049
 21
-65.5107
  0
LINE
  8
0
 10
32.4049
 20
-65.5107
 11
32.3068
 21
-66.1301
  0
LINE
  8
0
 10
32.3068
 20
-66.1301
 11
32.2744
 21
-66.125
  0
LINE
  8
0
 10
32.2744
 20
-66.125
 11
29.9691
 21
-80.68
  0
LINE
  8
0
 10
29.9691
 20
-80.68
 11
36.1764
 21
-86.0759
  0
LINE
  8
0
 10
36.1764
 20
-86.0759
 11
42.5155
 21
-93.1659
  0
LINE
  8
0
 10
42.5155
 20
-93.1659
 11
47.9161
 21
-100.994
  0
LINE
  8
0
 10
47.9161
 20
-100.994
 11
52.2929
 21
-109.438
  0
LINE
  8
0
 10
52.2929
 20
-109.438
 11
55.5769
 21
-118.364
  0
LINE
  8
0
 10
55.5769
 20
-118.364
 11
57.7164
 21
-127.631
  0
LINE
  8
0
 10
57.7164
 20
-127.631
 11
58.5172
 21
-135.515
  0
LINE
  8
0
 10
58.5172
 20
-135.515
 11
64.1029
 21
-136.399
  0
LINE
  8
0
 10
64.1029
 20
-136.399
 11
65.3555
 21
-136.465
  0
LINE
  8
0
 10
65.3555
 20
-136.465
 11
66.5944
 21
-136.269
  0
LINE
  8
0
 10
37.1656
 20
-68.6895
 11
36.7189
 21
-66.8289
  0
LINE
  8
0
 10
36.7189
 20
-66.8289
 11
37.7187
 21
-65.1975
  0
LINE
  8
0
 10
37.7187
 20
-65.1975
 11
39.5793
 21
-64.7508
  0
LINE
  8
0
 10
39.5793
 20
-64.7508
 11
41.2107
 21
-65.7505
  0
LINE
  8
0
 10
41.2107
 20
-65.7505
 11
41.6574
 21
-67.6111
  0
LINE
  8
0
 10
41.6574
 20
-67.6111
 11
40.6576
 21
-69.2426
  0
LINE
  8
0
 10
40.6576
 20
-69.2426
 11
38.7971
 21
-69.6892
  0
LINE
  8
0
 10
38.7971
 20
-69.6892
 11
37.1656
 21
-68.6895
  0
LINE
  8
0
 10
71.1717
 20
-74.0755
 11
70.725
 21
-72.215
  0
LINE
  8
0
 10
70.725
 20
-72.215
 11
71.7248
 21
-70.5835
  0
LINE
  8
0
 10
71.7248
 20
-70.5835
 11
73.5854
 21
-70.1368
  0
LINE
  8
0
 10
73.5854
 20
-70.1368
 11
75.2168
 21
-71.1366
  0
LINE
  8
0
 10
75.2168
 20
-71.1366
 11
75.6635
 21
-72.9971
  0
LINE
  8
0
 10
75.6635
 20
-72.9971
 11
74.6637
 21
-74.6286
  0
LINE
  8
0
 10
74.6637
 20
-74.6286
 11
72.8032
 21
-75.0753
  0
LINE
  8
0
 10
72.8032
 20
-75.0753
 11
71.1717
 21
-74.0755
  0
LINE
  8
0
 10
62.0313
 20
-131.786
 11
61.5846
 21
-129.926
  0
LINE
  8
0
 10
61.5846
 20
-129.926
 11
62.5843
 21
-128.294
  0
LINE
  8
0
 10
62.5843
 20
-128.294
 11
64.4449
 21
-127.847
  0
LINE
  8
0
 10
64.4449
 20
-127.847
 11
66.0763
 21
-128.847
  0
LINE
  8
0
 10
66.0763
 20
-128.847
 11
66.523
 21
-130.708
  0
LINE
  8
0
 10
66.523
 20
-130.708
 11
65.5233
 21
-132.339
  0
LINE
  8
0
 10
65.5233
 20
-132.339
 11
63.6627
 21
-132.786
  0
LINE
  8
0
 10
63.6627
 20
-132.786
 11
62.0313
 21
-131.786
  0
LINE
  8
0
 10
-28.355
 20
-173.434
 11
-27.7692
 21
-173.351
  0
LINE
  8
0
 10
-27.7692
 20
-173.351
 11
-27.1976
 21
-173.198
  0
LINE
  8
0
 10
-27.1976
 20
-173.198
 11
-26.6487
 21
-172.977
  0
LINE
  8
0
 10
-26.6487
 20
-172.977
 11
-26.1304
 21
-172.692
  0
LINE
  8
0
 10
-26.1304
 20
-172.692
 11
-25.6503
 21
-172.346
  0
LINE
  8
0
 10
-25.6503
 20
-172.346
 11
-25.2154
 21
-171.945
  0
LINE
  8
0
 10
-25.2154
 20
-171.945
 11
-24.832
 21
-171.494
  0
LINE
  8
0
 10
-24.832
 20
-171.494
 11
-24.5058
 21
-171
  0
LINE
  8
0
 10
-24.5058
 20
-171
 11
-13.7058
 21
-152.294
  0
LINE
  8
0
 10
-13.7058
 20
-152.294
 11
5.00037
 21
-163.094
  0
LINE
  8
0
 10
5.00037
 20
-163.094
 11
5.52974
 21
-163.359
  0
LINE
  8
0
 10
5.52974
 20
-163.359
 11
6.08711
 21
-163.557
  0
LINE
  8
0
 10
6.08711
 20
-163.557
 11
6.66435
 21
-163.687
  0
LINE
  8
0
 10
6.66435
 20
-163.687
 11
7.25307
 21
-163.747
  0
LINE
  8
0
 10
7.25307
 20
-163.747
 11
7.84465
 21
-163.735
  0
LINE
  8
0
 10
7.84465
 20
-163.735
 11
8.43048
 21
-163.652
  0
LINE
  8
0
 10
8.43048
 20
-163.652
 11
9.00204
 21
-163.499
  0
LINE
  8
0
 10
9.00204
 20
-163.499
 11
9.55096
 21
-163.278
  0
LINE
  8
0
 10
9.55096
 20
-163.278
 11
10.0692
 21
-162.992
  0
LINE
  8
0
 10
10.0692
 20
-162.992
 11
10.5493
 21
-162.646
  0
LINE
  8
0
 10
10.5493
 20
-162.646
 11
10.9843
 21
-162.245
  0
LINE
  8
0
 10
10.9843
 20
-162.245
 11
11.3676
 21
-161.794
  0
LINE
  8
0
 10
11.3676
 20
-161.794
 11
11.6939
 21
-161.301
  0
LINE
  8
0
 10
11.6939
 20
-161.301
 11
15.7939
 21
-154.199
  0
LINE
  8
0
 10
15.7939
 20
-154.199
 11
16.0583
 21
-153.67
  0
LINE
  8
0
 10
16.0583
 20
-153.67
 11
16.2569
 21
-153.113
  0
LINE
  8
0
 10
16.2569
 20
-153.113
 11
16.3869
 21
-152.535
  0
LINE
  8
0
 10
16.3869
 20
-152.535
 11
16.4464
 21
-151.947
  0
LINE
  8
0
 10
16.4464
 20
-151.947
 11
16.4345
 21
-151.355
  0
LINE
  8
0
 10
16.4345
 20
-151.355
 11
16.3513
 21
-150.769
  0
LINE
  8
0
 10
16.3513
 20
-150.769
 11
16.1982
 21
-150.198
  0
LINE
  8
0
 10
16.1982
 20
-150.198
 11
15.9773
 21
-149.649
  0
LINE
  8
0
 10
15.9773
 20
-149.649
 11
15.6918
 21
-149.13
  0
LINE
  8
0
 10
15.6918
 20
-149.13
 11
15.3459
 21
-148.65
  0
LINE
  8
0
 10
15.3459
 20
-148.65
 11
14.9447
 21
-148.215
  0
LINE
  8
0
 10
14.9447
 20
-148.215
 11
14.494
 21
-147.832
  0
LINE
  8
0
 10
14.494
 20
-147.832
 11
14.0004
 21
-147.506
  0
LINE
  8
0
 10
14.0004
 20
-147.506
 11
-4.70576
 21
-136.706
  0
LINE
  8
0
 10
-4.70576
 20
-136.706
 11
6.09422
 21
-118
  0
LINE
  8
0
 10
6.09422
 20
-118
 11
6.35861
 21
-117.47
  0
LINE
  8
0
 10
6.35861
 20
-117.47
 11
6.55725
 21
-116.913
  0
LINE
  8
0
 10
6.55725
 20
-116.913
 11
6.68724
 21
-116.336
  0
LINE
  8
0
 10
6.68724
 20
-116.336
 11
6.74673
 21
-115.747
  0
LINE
  8
0
 10
6.74673
 20
-115.747
 11
6.73482
 21
-115.155
  0
LINE
  8
0
 10
6.73482
 20
-115.155
 11
6.65169
 21
-114.569
  0
LINE
  8
0
 10
6.65169
 20
-114.569
 11
6.49854
 21
-113.998
  0
LINE
  8
0
 10
6.49854
 20
-113.998
 11
6.27762
 21
-113.449
  0
LINE
  8
0
 10
6.27762
 20
-113.449
 11
5.99214
 21
-112.931
  0
LINE
  8
0
 10
5.99214
 20
-112.931
 11
5.64627
 21
-112.451
  0
LINE
  8
0
 10
5.64627
 20
-112.451
 11
5.24506
 21
-112.016
  0
LINE
  8
0
 10
5.24506
 20
-112.016
 11
4.79434
 21
-111.632
  0
LINE
  8
0
 10
4.79434
 20
-111.632
 11
4.3007
 21
-111.306
  0
LINE
  8
0
 10
4.3007
 20
-111.306
 11
-2.80069
 21
-107.206
  0
LINE
  8
0
 10
-2.80069
 20
-107.206
 11
-3.33006
 21
-106.942
  0
LINE
  8
0
 10
-3.33006
 20
-106.942
 11
-3.88742
 21
-106.743
  0
LINE
  8
0
 10
-3.88742
 20
-106.743
 11
-4.46468
 21
-106.613
  0
LINE
  8
0
 10
-4.46468
 20
-106.613
 11
-5.05339
 21
-106.554
  0
LINE
  8
0
 10
-5.05339
 20
-106.554
 11
-5.64497
 21
-106.565
  0
LINE
  8
0
 10
-5.64497
 20
-106.565
 11
-6.2308
 21
-106.649
  0
LINE
  8
0
 10
-6.2308
 20
-106.649
 11
-6.80237
 21
-106.802
  0
LINE
  8
0
 10
-6.80237
 20
-106.802
 11
-7.35127
 21
-107.023
  0
LINE
  8
0
 10
-7.35127
 20
-107.023
 11
-7.86957
 21
-107.308
  0
LINE
  8
0
 10
-7.86957
 20
-107.308
 11
-8.34966
 21
-107.654
  0
LINE
  8
0
 10
-8.34966
 20
-107.654
 11
-8.78458
 21
-108.055
  0
LINE
  8
0
 10
-8.78458
 20
-108.055
 11
-9.16795
 21
-108.506
  0
LINE
  8
0
 10
-9.16795
 20
-108.506
 11
-9.49423
 21
-109
  0
LINE
  8
0
 10
-9.49423
 20
-109
 11
-20.2942
 21
-127.706
  0
LINE
  8
0
 10
-20.2942
 20
-127.706
 11
-39.0004
 21
-116.906
  0
LINE
  8
0
 10
-39.0004
 20
-116.906
 11
-39.5297
 21
-116.641
  0
LINE
  8
0
 10
-39.5297
 20
-116.641
 11
-40.0871
 21
-116.443
  0
LINE
  8
0
 10
-40.0871
 20
-116.443
 11
-40.6644
 21
-116.313
  0
LINE
  8
0
 10
-40.6644
 20
-116.313
 11
-41.2531
 21
-116.253
  0
LINE
  8
0
 10
-41.2531
 20
-116.253
 11
-41.8447
 21
-116.265
  0
LINE
  8
0
 10
-41.8447
 20
-116.265
 11
-42.4305
 21
-116.348
  0
LINE
  8
0
 10
-42.4305
 20
-116.348
 11
-43.0021
 21
-116.501
  0
LINE
  8
0
 10
-43.0021
 20
-116.501
 11
-43.551
 21
-116.722
  0
LINE
  8
0
 10
-43.551
 20
-116.722
 11
-44.0692
 21
-117.008
  0
LINE
  8
0
 10
-44.0692
 20
-117.008
 11
-44.5493
 21
-117.354
  0
LINE
  8
0
 10
-44.5493
 20
-117.354
 11
-44.9843
 21
-117.755
  0
LINE
  8
0
 10
-44.9843
 20
-117.755
 11
-45.3676
 21
-118.206
  0
LINE
  8
0
 10
-45.3676
 20
-118.206
 11
-45.6939
 21
-118.699
  0
LINE
  8
0
 10
-45.6939
 20
-118.699
 11
-49.7939
 21
-125.801
  0
LINE
  8
0
 10
-49.7939
 20
-125.801
 11
-50.0583
 21
-126.33
  0
LINE
  8
0
 10
-50.0583
 20
-126.33
 11
-50.2569
 21
-126.887
  0
LINE
  8
0
 10
-50.2569
 20
-126.887
 11
-50.3869
 21
-127.465
  0
LINE
  8
0
 10
-50.3869
 20
-127.465
 11
-50.4464
 21
-128.053
  0
LINE
  8
0
 10
-50.4464
 20
-128.053
 11
-50.4345
 21
-128.645
  0
LINE
  8
0
 10
-50.4345
 20
-128.645
 11
-50.3513
 21
-129.231
  0
LINE
  8
0
 10
-50.3513
 20
-129.231
 11
-50.1982
 21
-129.802
  0
LINE
  8
0
 10
-50.1982
 20
-129.802
 11
-49.9773
 21
-130.351
  0
LINE
  8
0
 10
-49.9773
 20
-130.351
 11
-49.6918
 21
-130.87
  0
LINE
  8
0
 10
-49.6918
 20
-130.87
 11
-49.3459
 21
-131.35
  0
LINE
  8
0
 10
-49.3459
 20
-131.35
 11
-48.9447
 21
-131.785
  0
LINE
  8
0
 10
-48.9447
 20
-131.785
 11
-48.494
 21
-132.168
  0
LINE
  8
0
 10
-48.494
 20
-132.168
 11
-48.0004
 21
-132.494
  0
LINE
  8
0
 10
-48.0004
 20
-132.494
 11
-29.2942
 21
-143.294
  0
LINE
  8
0
 10
-29.2942
 20
-143.294
 11
-40.0942
 21
-162
  0
LINE
  8
0
 10
-40.0942
 20
-162
 11
-40.3586
 21
-162.53
  0
LINE
  8
0
 10
-40.3586
 20
-162.53
 11
-40.5572
 21
-163.087
  0
LINE
  8
0
 10
-40.5572
 20
-163.087
 11
-40.6872
 21
-163.664
  0
LINE
  8
0
 10
-40.6872
 20
-163.664
 11
-40.7467
 21
-164.253
  0
LINE
  8
0
 10
-40.7467
 20
-164.253
 11
-40.7348
 21
-164.845
  0
LINE
  8
0
 10
-40.7348
 20
-164.845
 11
-40.6516
 21
-165.43
  0
LINE
  8
0
 10
-40.6516
 20
-165.43
 11
-40.4985
 21
-166.002
  0
LINE
  8
0
 10
-40.4985
 20
-166.002
 11
-40.2776
 21
-166.551
  0
LINE
  8
0
 10
-40.2776
 20
-166.551
 11
-39.9921
 21
-167.069
  0
LINE
  8
0
 10
-39.9921
 20
-167.069
 11
-39.6462
 21
-167.549
  0
LINE
  8
0
 10
-39.6462
 20
-167.549
 11
-39.245
 21
-167.984
  0
LINE
  8
0
 10
-39.245
 20
-167.984
 11
-38.7943
 21
-168.368
  0
LINE
  8
0
 10
-38.7943
 20
-168.368
 11
-38.3007
 21
-168.694
  0
LINE
  8
0
 10
-38.3007
 20
-168.694
 11
-31.1993
 21
-172.794
  0
LINE
  8
0
 10
-31.1993
 20
-172.794
 11
-30.6699
 21
-173.058
  0
LINE
  8
0
 10
-30.6699
 20
-173.058
 11
-30.1125
 21
-173.257
  0
LINE
  8
0
 10
-30.1125
 20
-173.257
 11
-29.5353
 21
-173.387
  0
LINE
  8
0
 10
-29.5353
 20
-173.387
 11
-28.9466
 21
-173.446
  0
LINE
  8
0
 10
-28.9466
 20
-173.446
 11
-28.355
 21
-173.434
  0
LINE
  8
0
 10
-3.875
 20
-117.267
 11
-4.57027
 21
-116.641
  0
LINE
  8
0
 10
-4.57027
 20
-116.641
 11
-4.95082
 21
-115.786
  0
LINE
  8
0
 10
-4.95082
 20
-115.786
 11
-4.95082
 21
-114.85
  0
LINE
  8
0
 10
-4.95082
 20
-114.85
 11
-4.57028
 21
-113.996
  0
LINE
  8
0
 10
-4.57028
 20
-113.996
 11
-3.87498
 21
-113.37
  0
LINE
  8
0
 10
-3.87498
 20
-113.37
 11
-2.98518
 21
-113.081
  0
LINE
  8
0
 10
-2.98518
 20
-113.081
 11
-2.05469
 21
-113.178
  0
LINE
  8
0
 10
-2.05469
 20
-113.178
 11
-1.24445
 21
-113.646
  0
LINE
  8
0
 10
-1.24445
 20
-113.646
 11
-0.694504
 21
-114.403
  0
LINE
  8
0
 10
-0.694504
 20
-114.403
 11
-0.499985
 21
-115.318
  0
LINE
  8
0
 10
-0.499985
 20
-115.318
 11
-0.694504
 21
-116.233
  0
LINE
  8
0
 10
-0.694504
 20
-116.233
 11
-1.24445
 21
-116.99
  0
LINE
  8
0
 10
-1.24445
 20
-116.99
 11
-2.05469
 21
-117.458
  0
LINE
  8
0
 10
-2.05469
 20
-117.458
 11
-2.98517
 21
-117.556
  0
LINE
  8
0
 10
-2.98517
 20
-117.556
 11
-3.875
 21
-117.267
  0
LINE
  8
0
 10
-42.1495
 20
-127.951
 11
-43.0042
 21
-127.57
  0
LINE
  8
0
 10
-43.0042
 20
-127.57
 11
-43.6303
 21
-126.875
  0
LINE
  8
0
 10
-43.6303
 20
-126.875
 11
-43.9194
 21
-125.985
  0
LINE
  8
0
 10
-43.9194
 20
-125.985
 11
-43.8216
 21
-125.055
  0
LINE
  8
0
 10
-43.8216
 20
-125.055
 11
-43.3538
 21
-124.244
  0
LINE
  8
0
 10
-43.3538
 20
-124.244
 11
-42.5969
 21
-123.695
  0
LINE
  8
0
 10
-42.5969
 20
-123.695
 11
-41.6817
 21
-123.5
  0
LINE
  8
0
 10
-41.6817
 20
-123.5
 11
-40.7666
 21
-123.695
  0
LINE
  8
0
 10
-40.7666
 20
-123.695
 11
-40.0096
 21
-124.244
  0
LINE
  8
0
 10
-40.0096
 20
-124.244
 11
-39.5418
 21
-125.055
  0
LINE
  8
0
 10
-39.5418
 20
-125.055
 11
-39.444
 21
-125.985
  0
LINE
  8
0
 10
-39.444
 20
-125.985
 11
-39.7332
 21
-126.875
  0
LINE
  8
0
 10
-39.7332
 20
-126.875
 11
-40.3592
 21
-127.57
  0
LINE
  8
0
 10
-40.3592
 20
-127.57
 11
-41.2139
 21
-127.951
  0
LINE
  8
0
 10
-41.2139
 20
-127.951
 11
-42.1495
 21
-127.951
  0
LINE
  8
0
 10
-18.2
 20
-142.078
 11
-19.3182
 21
-140.621
  0
LINE
  8
0
 10
-19.3182
 20
-140.621
 11
-19.0784
 21
-138.8
  0
LINE
  8
0
 10
-19.0784
 20
-138.8
 11
-17.6212
 21
-137.682
  0
LINE
  8
0
 10
-17.6212
 20
-137.682
 11
-15.8
 21
-137.922
  0
LINE
  8
0
 10
-15.8
 20
-137.922
 11
-14.6818
 21
-139.379
  0
LINE
  8
0
 10
-14.6818
 20
-139.379
 11
-14.9215
 21
-141.2
  0
LINE
  8
0
 10
-14.9215
 20
-141.2
 11
-16.3788
 21
-142.318
  0
LINE
  8
0
 10
-16.3788
 20
-142.318
 11
-18.2
 21
-142.078
  0
LINE
  8
0
 10
7.21391
 20
-156.451
 11
6.35919
 21
-156.07
  0
LINE
  8
0
 10
6.35919
 20
-156.07
 11
5.73317
 21
-155.375
  0
LINE
  8
0
 10
5.73317
 20
-155.375
 11
5.44403
 21
-154.485
  0
LINE
  8
0
 10
5.44403
 20
-154.485
 11
5.54184
 21
-153.555
  0
LINE
  8
0
 10
5.54184
 20
-153.555
 11
6.00964
 21
-152.744
  0
LINE
  8
0
 10
6.00964
 20
-152.744
 11
6.76656
 21
-152.195
  0
LINE
  8
0
 10
6.76656
 20
-152.195
 11
7.68172
 21
-152
  0
LINE
  8
0
 10
7.68172
 20
-152
 11
8.59688
 21
-152.195
  0
LINE
  8
0
 10
8.59688
 20
-152.195
 11
9.35379
 21
-152.744
  0
LINE
  8
0
 10
9.35379
 20
-152.744
 11
9.82159
 21
-153.555
  0
LINE
  8
0
 10
9.82159
 20
-153.555
 11
9.91939
 21
-154.485
  0
LINE
  8
0
 10
9.91939
 20
-154.485
 11
9.63028
 21
-155.375
  0
LINE
  8
0
 10
9.63028
 20
-155.375
 11
9.00423
 21
-156.07
  0
LINE
  8
0
 10
9.00423
 20
-156.07
 11
8.14952
 21
-156.451
  0
LINE
  8
0
 10
8.14952
 20
-156.451
 11
7.21391
 21
-156.451
  0
LINE
  8
0
 10
-32.375
 20
-166.63
 11
-33.0703
 21
-166.004
  0
LINE
  8
0
 10
-33.0703
 20
-166.004
 11
-33.4508
 21
-165.15
  0
LINE
  8
0
 10
-33.4508
 20
-165.15
 11
-33.4508
 21
-164.214
  0
LINE
  8
0
 10
-33.4508
 20
-164.214
 11
-33.0703
 21
-163.359
  0
LINE
  8
0
 10
-33.0703
 20
-163.359
 11
-32.375
 21
-162.733
  0
LINE
  8
0
 10
-32.375
 20
-162.733
 11
-31.4852
 21
-162.444
  0
LINE
  8
0
 10
-31.4852
 20
-162.444
 11
-30.5547
 21
-162.542
  0
LINE
  8
0
 10
-30.5547
 20
-162.542
 11
-29.7444
 21
-163.01
  0
LINE
  8
0
 10
-29.7444
 20
-163.01
 11
-29.1945
 21
-163.767
  0
LINE
  8
0
 10
-29.1945
 20
-163.767
 11
-29
 21
-164.682
  0
LINE
  8
0
 10
-29
 20
-164.682
 11
-29.1945
 21
-165.597
  0
LINE
  8
0
 10
-29.1945
 20
-165.597
 11
-29.7444
 21
-166.354
  0
LINE
  8
0
 10
-29.7444
 20
-166.354
 11
-30.5547
 21
-166.822
  0
LINE
  8
0
 10
-30.5547
 20
-166.822
 11
-31.4852
 21
-166.919
  0
LINE
  8
0
 10
-31.4852
 20
-166.919
 11
-32.375
 21
-166.63
  0
LINE
  8
0
 10
-185.576
 20
-250.731
 11
-184.994
 21
-250.624
  0
LINE
  8
0
 10
-184.994
 20
-250.624
 11
-184.429
 21
-250.448
  0
LINE
  8
0
 10
-184.429
 20
-250.448
 11
-183.89
 21
-250.205
  0
LINE
  8
0
 10
-183.89
 20
-250.205
 11
-183.383
 21
-249.899
  0
LINE
  8
0
 10
-183.383
 20
-249.899
 11
-182.917
 21
-249.534
  0
LINE
  8
0
 10
-182.917
 20
-249.534
 11
-182.499
 21
-249.116
  0
LINE
  8
0
 10
-182.499
 20
-249.116
 11
-182.134
 21
-248.65
  0
LINE
  8
0
 10
-182.134
 20
-248.65
 11
-181.828
 21
-248.144
  0
LINE
  8
0
 10
-181.828
 20
-248.144
 11
-181.585
 21
-247.604
  0
LINE
  8
0
 10
-181.585
 20
-247.604
 11
-181.409
 21
-247.039
  0
LINE
  8
0
 10
-181.409
 20
-247.039
 11
-181.302
 21
-246.457
  0
LINE
  8
0
 10
-181.302
 20
-246.457
 11
-181.267
 21
-245.867
  0
LINE
  8
0
 10
-181.267
 20
-245.867
 11
-181.267
 21
-224.267
  0
LINE
  8
0
 10
-181.267
 20
-224.267
 11
-159.667
 21
-224.267
  0
LINE
  8
0
 10
-159.667
 20
-224.267
 11
-159.076
 21
-224.231
  0
LINE
  8
0
 10
-159.076
 20
-224.231
 11
-158.494
 21
-224.124
  0
LINE
  8
0
 10
-158.494
 20
-224.124
 11
-157.929
 21
-223.948
  0
LINE
  8
0
 10
-157.929
 20
-223.948
 11
-157.39
 21
-223.705
  0
LINE
  8
0
 10
-157.39
 20
-223.705
 11
-156.883
 21
-223.399
  0
LINE
  8
0
 10
-156.883
 20
-223.399
 11
-156.417
 21
-223.034
  0
LINE
  8
0
 10
-156.417
 20
-223.034
 11
-155.999
 21
-222.616
  0
LINE
  8
0
 10
-155.999
 20
-222.616
 11
-155.634
 21
-222.15
  0
LINE
  8
0
 10
-155.634
 20
-222.15
 11
-155.328
 21
-221.644
  0
LINE
  8
0
 10
-155.328
 20
-221.644
 11
-155.085
 21
-221.104
  0
LINE
  8
0
 10
-155.085
 20
-221.104
 11
-154.909
 21
-220.539
  0
LINE
  8
0
 10
-154.909
 20
-220.539
 11
-154.802
 21
-219.957
  0
LINE
  8
0
 10
-154.802
 20
-219.957
 11
-154.767
 21
-219.367
  0
LINE
  8
0
 10
-154.767
 20
-219.367
 11
-154.767
 21
-211.167
  0
LINE
  8
0
 10
-154.767
 20
-211.167
 11
-154.802
 21
-210.576
  0
LINE
  8
0
 10
-154.802
 20
-210.576
 11
-154.909
 21
-209.994
  0
LINE
  8
0
 10
-154.909
 20
-209.994
 11
-155.085
 21
-209.429
  0
LINE
  8
0
 10
-155.085
 20
-209.429
 11
-155.328
 21
-208.89
  0
LINE
  8
0
 10
-155.328
 20
-208.89
 11
-155.634
 21
-208.383
  0
LINE
  8
0
 10
-155.634
 20
-208.383
 11
-155.999
 21
-207.917
  0
LINE
  8
0
 10
-155.999
 20
-207.917
 11
-156.417
 21
-207.499
  0
LINE
  8
0
 10
-156.417
 20
-207.499
 11
-156.883
 21
-207.134
  0
LINE
  8
0
 10
-156.883
 20
-207.134
 11
-157.39
 21
-206.828
  0
LINE
  8
0
 10
-157.39
 20
-206.828
 11
-157.929
 21
-206.585
  0
LINE
  8
0
 10
-157.929
 20
-206.585
 11
-158.494
 21
-206.409
  0
LINE
  8
0
 10
-158.494
 20
-206.409
 11
-159.076
 21
-206.302
  0
LINE
  8
0
 10
-159.076
 20
-206.302
 11
-159.667
 21
-206.267
  0
LINE
  8
0
 10
-159.667
 20
-206.267
 11
-181.267
 21
-206.267
  0
LINE
  8
0
 10
-181.267
 20
-206.267
 11
-181.267
 21
-184.667
  0
LINE
  8
0
 10
-181.267
 20
-184.667
 11
-181.302
 21
-184.076
  0
LINE
  8
0
 10
-181.302
 20
-184.076
 11
-181.409
 21
-183.494
  0
LINE
  8
0
 10
-181.409
 20
-183.494
 11
-181.585
 21
-182.929
  0
LINE
  8
0
 10
-181.585
 20
-182.929
 11
-181.828
 21
-182.39
  0
LINE
  8
0
 10
-181.828
 20
-182.39
 11
-182.134
 21
-181.883
  0
LINE
  8
0
 10
-182.134
 20
-181.883
 11
-182.499
 21
-181.417
  0
LINE
  8
0
 10
-182.499
 20
-181.417
 11
-182.917
 21
-180.999
  0
LINE
  8
0
 10
-182.917
 20
-180.999
 11
-183.383
 21
-180.634
  0
LINE
  8
0
 10
-183.383
 20
-180.634
 11
-183.89
 21
-180.328
  0
LINE
  8
0
 10
-183.89
 20
-180.328
 11
-184.429
 21
-180.085
  0
LINE
  8
0
 10
-184.429
 20
-180.085
 11
-184.994
 21
-179.909
  0
LINE
  8
0
 10
-184.994
 20
-179.909
 11
-185.576
 21
-179.802
  0
LINE
  8
0
 10
-185.576
 20
-179.802
 11
-186.167
 21
-179.767
  0
LINE
  8
0
 10
-186.167
 20
-179.767
 11
-194.367
 21
-179.767
  0
LINE
  8
0
 10
-194.367
 20
-179.767
 11
-194.957
 21
-179.802
  0
LINE
  8
0
 10
-194.957
 20
-179.802
 11
-195.539
 21
-179.909
  0
LINE
  8
0
 10
-195.539
 20
-179.909
 11
-196.104
 21
-180.085
  0
LINE
  8
0
 10
-196.104
 20
-180.085
 11
-196.644
 21
-180.328
  0
LINE
  8
0
 10
-196.644
 20
-180.328
 11
-197.15
 21
-180.634
  0
LINE
  8
0
 10
-197.15
 20
-180.634
 11
-197.616
 21
-180.999
  0
LINE
  8
0
 10
-197.616
 20
-180.999
 11
-198.034
 21
-181.417
  0
LINE
  8
0
 10
-198.034
 20
-181.417
 11
-198.399
 21
-181.883
  0
LINE
  8
0
 10
-198.399
 20
-181.883
 11
-198.705
 21
-182.39
  0
LINE
  8
0
 10
-198.705
 20
-182.39
 11
-198.948
 21
-182.929
  0
LINE
  8
0
 10
-198.948
 20
-182.929
 11
-199.124
 21
-183.494
  0
LINE
  8
0
 10
-199.124
 20
-183.494
 11
-199.231
 21
-184.076
  0
LINE
  8
0
 10
-199.231
 20
-184.076
 11
-199.267
 21
-184.667
  0
LINE
  8
0
 10
-199.267
 20
-184.667
 11
-199.267
 21
-206.267
  0
LINE
  8
0
 10
-199.267
 20
-206.267
 11
-220.867
 21
-206.267
  0
LINE
  8
0
 10
-220.867
 20
-206.267
 11
-221.457
 21
-206.302
  0
LINE
  8
0
 10
-221.457
 20
-206.302
 11
-222.039
 21
-206.409
  0
LINE
  8
0
 10
-222.039
 20
-206.409
 11
-222.604
 21
-206.585
  0
LINE
  8
0
 10
-222.604
 20
-206.585
 11
-223.144
 21
-206.828
  0
LINE
  8
0
 10
-223.144
 20
-206.828
 11
-223.65
 21
-207.134
  0
LINE
  8
0
 10
-223.65
 20
-207.134
 11
-224.116
 21
-207.499
  0
LINE
  8
0
 10
-224.116
 20
-207.499
 11
-224.534
 21
-207.917
  0
LINE
  8
0
 10
-224.534
 20
-207.917
 11
-224.899
 21
-208.383
  0
LINE
  8
0
 10
-224.899
 20
-208.383
 11
-225.205
 21
-208.89
  0
LINE
  8
0
 10
-225.205
 20
-208.89
 11
-225.448
 21
-209.429
  0
LINE
  8
0
 10
-225.448
 20
-209.429
 11
-225.624
 21
-209.994
  0
LINE
  8
0
 10
-225.624
 20
-209.994
 11
-225.731
 21
-210.576
  0
LINE
  8
0
 10
-225.731
 20
-210.576
 11
-225.767
 21
-211.167
  0
LINE
  8
0
 10
-225.767
 20
-211.167
 11
-225.767
 21
-219.367
  0
LINE
  8
0
 10
-225.767
 20
-219.367
 11
-225.731
 21
-219.957
  0
LINE
  8
0
 10
-225.731
 20
-219.957
 11
-225.624
 21
-220.539
  0
LINE
  8
0
 10
-225.624
 20
-220.539
 11
-225.448
 21
-221.104
  0
LINE
  8
0
 10
-225.448
 20
-221.104
 11
-225.205
 21
-221.644
  0
LINE
  8
0
 10
-225.205
 20
-221.644
 11
-224.899
 21
-222.15
  0
LINE
  8
0
 10
-224.899
 20
-222.15
 11
-224.534
 21
-222.616
  0
LINE
  8
0
 10
-224.534
 20
-222.616
 11
-224.116
 21
-223.034
  0
LINE
  8
0
 10
-224.116
 20
-223.034
 11
-223.65
 21
-223.399
  0
LINE
  8
0
 10
-223.65
 20
-223.399
 11
-223.144
 21
-223.705
  0
LINE
  8
0
 10
-223.144
 20
-223.705
 11
-222.604
 21
-223.948
  0
LINE
  8
0
 10
-222.604
 20
-223.948
 11
-222.039
 21
-224.124
  0
LINE
  8
0
 10
-222.039
 20
-224.124
 11
-221.457
 21
-224.231
  0
LINE
  8
0
 10
-221.457
 20
-224.231
 11
-220.867
 21
-224.267
  0
LINE
  8
0
 10
-220.867
 20
-224.267
 11
-199.267
 21
-224.267
  0
LINE
  8
0
 10
-199.267
 20
-224.267
 11
-199.267
 21
-245.867
  0
LINE
  8
0
 10
-199.267
 20
-245.867
 11
-199.231
 21
-246.457
  0
LINE
  8
0
 10
-199.231
 20
-246.457
 11
-199.124
 21
-247.039
  0
LINE
  8
0
 10
-199.124
 20
-247.039
 11
-198.948
 21
-247.604
  0
LINE
  8
0
 10
-198.948
 20
-247.604
 11
-198.705
 21
-248.144
  0
LINE
  8
0
 10
-198.705
 20
-248.144
 11
-198.399
 21
-248.65
  0
LINE
  8
0
 10
-198.399
 20
-248.65
 11
-198.034
 21
-249.116
  0
LINE
  8
0
 10
-198.034
 20
-249.116
 11
-197.616
 21
-249.534
  0
LINE
  8
0
 10
-197.616
 20
-249.534
 11
-197.15
 21
-249.899
  0
LINE
  8
0
 10
-197.15
 20
-249.899
 11
-196.644
 21
-250.205
  0
LINE
  8
0
 10
-196.644
 20
-250.205
 11
-196.104
 21
-250.448
  0
LINE
  8
0
 10
-196.104
 20
-250.448
 11
-195.539
 21
-250.624
  0
LINE
  8
0
 10
-195.539
 20
-250.624
 11
-194.957
 21
-250.731
  0
LINE
  8
0
 10
-194.957
 20
-250.731
 11
-194.367
 21
-250.767
  0
LINE
  8
0
 10
-194.367
 20
-250.767
 11
-186.167
 21
-250.767
  0
LINE
  8
0
 10
-186.167
 20
-250.767
 11
-185.576
 21
-250.731
  0
LINE
  8
0
 10
-190.734
 20
-188.967
 11
-191.589
 21
-188.587
  0
LINE
  8
0
 10
-191.589
 20
-188.587
 11
-192.215
 21
-187.892
  0
LINE
  8
0
 10
-192.215
 20
-187.892
 11
-192.504
 21
-187.002
  0
LINE
  8
0
 10
-192.504
 20
-187.002
 11
-192.407
 21
-186.071
  0
LINE
  8
0
 10
-192.407
 20
-186.071
 11
-191.939
 21
-185.261
  0
LINE
  8
0
 10
-191.939
 20
-185.261
 11
-191.182
 21
-184.711
  0
LINE
  8
0
 10
-191.182
 20
-184.711
 11
-190.267
 21
-184.517
  0
LINE
  8
0
 10
-190.267
 20
-184.517
 11
-189.352
 21
-184.711
  0
LINE
  8
0
 10
-189.352
 20
-184.711
 11
-188.595
 21
-185.261
  0
LINE
  8
0
 10
-188.595
 20
-185.261
 11
-188.127
 21
-186.071
  0
LINE
  8
0
 10
-188.127
 20
-186.071
 11
-188.029
 21
-187.002
  0
LINE
  8
0
 10
-188.029
 20
-187.002
 11
-188.318
 21
-187.892
  0
LINE
  8
0
 10
-188.318
 20
-187.892
 11
-188.944
 21
-188.587
  0
LINE
  8
0
 10
-188.944
 20
-188.587
 11
-189.799
 21
-188.967
  0
LINE
  8
0
 10
-189.799
 20
-188.967
 11
-190.734
 21
-188.967
  0
LINE
  8
0
 10
-191.964
 20
-216.964
 11
-192.667
 21
-215.267
  0
LINE
  8
0
 10
-192.667
 20
-215.267
 11
-191.964
 21
-213.57
  0
LINE
  8
0
 10
-191.964
 20
-213.57
 11
-190.267
 21
-212.867
  0
LINE
  8
0
 10
-190.267
 20
-212.867
 11
-188.57
 21
-213.57
  0
LINE
  8
0
 10
-188.57
 20
-213.57
 11
-187.867
 21
-215.267
  0
LINE
  8
0
 10
-187.867
 20
-215.267
 11
-188.57
 21
-216.964
  0
LINE
  8
0
 10
-188.57
 20
-216.964
 11
-190.267
 21
-217.667
  0
LINE
  8
0
 10
-190.267
 20
-217.667
 11
-191.964
 21
-216.964
  0
LINE
  8
0
 10
-219.892
 20
-217.215
 11
-220.587
 21
-216.589
  0
LINE
  8
0
 10
-220.587
 20
-216.589
 11
-220.967
 21
-215.734
  0
LINE
  8
0
 10
-220.967
 20
-215.734
 11
-220.967
 21
-214.799
  0
LINE
  8
0
 10
-220.967
 20
-214.799
 11
-220.587
 21
-213.944
  0
LINE
  8
0
 10
-220.587
 20
-213.944
 11
-219.892
 21
-213.318
  0
LINE
  8
0
 10
-219.892
 20
-213.318
 11
-219.002
 21
-213.029
  0
LINE
  8
0
 10
-219.002
 20
-213.029
 11
-218.071
 21
-213.127
  0
LINE
  8
0
 10
-218.071
 20
-213.127
 11
-217.261
 21
-213.595
  0
LINE
  8
0
 10
-217.261
 20
-213.595
 11
-216.711
 21
-214.352
  0
LINE
  8
0
 10
-216.711
 20
-214.352
 11
-216.517
 21
-215.267
  0
LINE
  8
0
 10
-216.517
 20
-215.267
 11
-216.711
 21
-216.182
  0
LINE
  8
0
 10
-216.711
 20
-216.182
 11
-217.261
 21
-216.939
  0
LINE
  8
0
 10
-217.261
 20
-216.939
 11
-218.071
 21
-217.407
  0
LINE
  8
0
 10
-218.071
 20
-217.407
 11
-219.002
 21
-217.504
  0
LINE
  8
0
 10
-219.002
 20
-217.504
 11
-219.892
 21
-217.215
  0
LINE
  8
0
 10
-162.892
 20
-217.215
 11
-163.587
 21
-216.589
  0
LINE
  8
0
 10
-163.587
 20
-216.589
 11
-163.967
 21
-215.734
  0
LINE
  8
0
 10
-163.967
 20
-215.734
 11
-163.967
 21
-214.799
  0
LINE
  8
0
 10
-163.967
 20
-214.799
 11
-163.587
 21
-213.944
  0
LINE
  8
0
 10
-163.587
 20
-213.944
 11
-162.892
 21
-213.318
  0
LINE
  8
0
 10
-162.892
 20
-213.318
 11
-162.002
 21
-213.029
  0
LINE
  8
0
 10
-162.002
 20
-213.029
 11
-161.071
 21
-213.127
  0
LINE
  8
0
 10
-161.071
 20
-213.127
 11
-160.261
 21
-213.595
  0
LINE
  8
0
 10
-160.261
 20
-213.595
 11
-159.711
 21
-214.352
  0
LINE
  8
0
 10
-159.711
 20
-214.352
 11
-159.517
 21
-215.267
  0
LINE
  8
0
 10
-159.517
 20
-215.267
 11
-159.711
 21
-216.182
  0
LINE
  8
0
 10
-159.711
 20
-216.182
 11
-160.261
 21
-216.939
  0
LINE
  8
0
 10
-160.261
 20
-216.939
 11
-161.071
 21
-217.407
  0
LINE
  8
0
 10
-161.071
 20
-217.407
 11
-162.002
 21
-217.504
  0
LINE
  8
0
 10
-162.002
 20
-217.504
 11
-162.892
 21
-217.215
  0
LINE
  8
0
 10
-190.734
 20
-245.967
 11
-191.589
 21
-245.587
  0
LINE
  8
0
 10
-191.589
 20
-245.587
 11
-192.215
 21
-244.892
  0
LINE
  8
0
 10
-192.215
 20
-244.892
 11
-192.504
 21
-244.002
  0
LINE
  8
0
 10
-192.504
 20
-244.002
 11
-192.407
 21
-243.071
  0
LINE
  8
0
 10
-192.407
 20
-243.071
 11
-191.939
 21
-242.261
  0
LINE
  8
0
 10
-191.939
 20
-242.261
 11
-191.182
 21
-241.711
  0
LINE
  8
0
 10
-191.182
 20
-241.711
 11
-190.267
 21
-241.517
  0
LINE
  8
0
 10
-190.267
 20
-241.517
 11
-189.352
 21
-241.711
  0
LINE
  8
0
 10
-189.352
 20
-241.711
 11
-188.595
 21
-242.261
  0
LINE
  8
0
 10
-188.595
 20
-242.261
 11
-188.127
 21
-243.071
  0
LINE
  8
0
 10
-188.127
 20
-243.071
 11
-188.029
 21
-244.002
  0
LINE
  8
0
 10
-188.029
 20
-244.002
 11
-188.318
 21
-244.892
  0
LINE
  8
0
 10
-188.318
 20
-244.892
 11
-188.944
 21
-245.587
  0
LINE
  8
0
 10
-188.944
 20
-245.587
 11
-189.799
 21
-245.967
  0
LINE
  8
0
 10
-189.799
 20
-245.967
 11
-190.734
 21
-245.967
  0
LINE
  8
0
 10
-121.328
 20
-282.272
 11
-120.111
 21
-281.968
  0
LINE
  8
0
 10
-120.111
 20
-281.968
 11
-85.8783
 21
-269.509
  0
LINE
  8
0
 10
-85.8783
 20
-269.509
 11
-84.7509
 21
-268.959
  0
LINE
  8
0
 10
-84.7509
 20
-268.959
 11
-83.7625
 21
-268.187
  0
LINE
  8
0
 10
-83.7625
 20
-268.187
 11
-82.9562
 21
-267.226
  0
LINE
  8
0
 10
-82.9562
 20
-267.226
 11
-82.3674
 21
-266.118
  0
LINE
  8
0
 10
-82.3674
 20
-266.118
 11
-82.0216
 21
-264.912
  0
LINE
  8
0
 10
-82.0216
 20
-264.912
 11
-81.9341
 21
-263.661
  0
LINE
  8
0
 10
-81.9341
 20
-263.661
 11
-82.1087
 21
-262.419
  0
LINE
  8
0
 10
-82.1087
 20
-262.419
 11
-82.3232
 21
-261.83
  0
LINE
  8
0
 10
-82.3232
 20
-261.83
 11
-82.2923
 21
-261.818
  0
LINE
  8
0
 10
-82.2923
 20
-261.818
 11
-102.277
 21
-206.912
  0
LINE
  8
0
 10
-102.277
 20
-206.912
 11
-102.307
 21
-206.923
  0
LINE
  8
0
 10
-102.307
 20
-206.923
 11
-102.522
 21
-206.334
  0
LINE
  8
0
 10
-102.522
 20
-206.334
 11
-103.187
 21
-205.27
  0
LINE
  8
0
 10
-103.187
 20
-205.27
 11
-104.058
 21
-204.368
  0
LINE
  8
0
 10
-104.058
 20
-204.368
 11
-105.098
 21
-203.667
  0
LINE
  8
0
 10
-105.098
 20
-203.667
 11
-106.261
 21
-203.197
  0
LINE
  8
0
 10
-106.261
 20
-203.197
 11
-107.496
 21
-202.979
  0
LINE
  8
0
 10
-107.496
 20
-202.979
 11
-108.75
 21
-203.023
  0
LINE
  8
0
 10
-108.75
 20
-203.023
 11
-109.967
 21
-203.326
  0
LINE
  8
0
 10
-109.967
 20
-203.326
 11
-115.281
 21
-205.26
  0
LINE
  8
0
 10
-115.281
 20
-205.26
 11
-114.563
 21
-213.152
  0
LINE
  8
0
 10
-114.563
 20
-213.152
 11
-114.895
 21
-222.657
  0
LINE
  8
0
 10
-114.895
 20
-222.657
 11
-116.415
 21
-232.045
  0
LINE
  8
0
 10
-116.415
 20
-232.045
 11
-119.101
 21
-241.169
  0
LINE
  8
0
 10
-119.101
 20
-241.169
 11
-122.908
 21
-249.884
  0
LINE
  8
0
 10
-122.908
 20
-249.884
 11
-127.778
 21
-258.053
  0
LINE
  8
0
 10
-127.778
 20
-258.053
 11
-132.842
 21
-264.535
  0
LINE
  8
0
 10
-132.842
 20
-264.535
 11
-127.802
 21
-278.382
  0
LINE
  8
0
 10
-127.802
 20
-278.382
 11
-127.771
 21
-278.371
  0
LINE
  8
0
 10
-127.771
 20
-278.371
 11
-127.556
 21
-278.96
  0
LINE
  8
0
 10
-127.556
 20
-278.96
 11
-126.892
 21
-280.024
  0
LINE
  8
0
 10
-126.892
 20
-280.024
 11
-126.02
 21
-280.927
  0
LINE
  8
0
 10
-126.02
 20
-280.927
 11
-124.98
 21
-281.628
  0
LINE
  8
0
 10
-124.98
 20
-281.628
 11
-123.817
 21
-282.098
  0
LINE
  8
0
 10
-123.817
 20
-282.098
 11
-122.582
 21
-282.316
  0
LINE
  8
0
 10
-122.582
 20
-282.316
 11
-121.328
 21
-282.272
  0
LINE
  8
0
 10
-109.911
 20
-211.572
 11
-111.204
 21
-210.161
  0
LINE
  8
0
 10
-111.204
 20
-210.161
 11
-111.12
 21
-208.25
  0
LINE
  8
0
 10
-111.12
 20
-208.25
 11
-109.709
 21
-206.957
  0
LINE
  8
0
 10
-109.709
 20
-206.957
 11
-107.798
 21
-207.041
  0
LINE
  8
0
 10
-107.798
 20
-207.041
 11
-106.505
 21
-208.451
  0
LINE
  8
0
 10
-106.505
 20
-208.451
 11
-106.589
 21
-210.363
  0
LINE
  8
0
 10
-106.589
 20
-210.363
 11
-107.999
 21
-211.656
  0
LINE
  8
0
 10
-107.999
 20
-211.656
 11
-109.911
 21
-211.572
  0
LINE
  8
0
 10
-89.9267
 20
-266.478
 11
-91.2194
 21
-265.068
  0
LINE
  8
0
 10
-91.2194
 20
-265.068
 11
-91.1359
 21
-263.156
  0
LINE
  8
0
 10
-91.1359
 20
-263.156
 11
-89.7252
 21
-261.863
  0
LINE
  8
0
 10
-89.7252
 20
-261.863
 11
-87.8136
 21
-261.947
  0
LINE
  8
0
 10
-87.8136
 20
-261.947
 11
-86.5209
 21
-263.357
  0
LINE
  8
0
 10
-86.5209
 20
-263.357
 11
-86.6044
 21
-265.269
  0
LINE
  8
0
 10
-86.6044
 20
-265.269
 11
-88.0151
 21
-266.562
  0
LINE
  8
0
 10
-88.0151
 20
-266.562
 11
-89.9267
 21
-266.478
  0
LINE
  8
0
 10
-122.28
 20
-278.254
 11
-123.573
 21
-276.843
  0
LINE
  8
0
 10
-123.573
 20
-276.843
 11
-123.49
 21
-274.932
  0
LINE
  8
0
 10
-123.49
 20
-274.932
 11
-122.079
 21
-273.639
  0
LINE
  8
0
 10
-122.079
 20
-273.639
 11
-120.167
 21
-273.722
  0
LINE
  8
0
 10
-120.167
 20
-273.722
 11
-118.875
 21
-275.133
  0
LINE
  8
0
 10
-118.875
 20
-275.133
 11
-118.958
 21
-277.045
  0
LINE
  8
0
 10
-118.958
 20
-277.045
 11
-120.369
 21
-278.337
  0
LINE
  8
0
 10
-120.369
 20
-278.337
 11
-122.28
 21
-278.254
  0
LINE
  8
0
 10
-7.81664
 20
-280.74
 11
-7.23409
 21
-280.637
  0
LINE
  8
0
 10
-7.23409
 20
-280.637
 11
-6.66821
 21
-280.464
  0
LINE
  8
0
 10
-6.66821
 20
-280.464
 11
-6.12735
 21
-280.224
  0
LINE
  8
0
 10
-6.12735
 20
-280.224
 11
-5.61934
 21
-279.92
  0
LINE
  8
0
 10
-5.61934
 20
-279.92
 11
-5.1516
 21
-279.558
  0
LINE
  8
0
 10
-5.1516
 20
-279.558
 11
-4.73096
 21
-279.142
  0
LINE
  8
0
 10
-4.73096
 20
-279.142
 11
-4.36354
 21
-278.678
  0
LINE
  8
0
 10
-4.36354
 20
-278.678
 11
-4.0547
 21
-278.173
  0
LINE
  8
0
 10
-4.0547
 20
-278.173
 11
-0.251984
 21
-271.021
  0
LINE
  8
0
 10
-0.251984
 20
-271.021
 11
6.89989
 21
-274.824
  0
LINE
  8
0
 10
6.89989
 20
-274.824
 11
7.43817
 21
-275.07
  0
LINE
  8
0
 10
7.43817
 20
-275.07
 11
8.00214
 21
-275.249
  0
LINE
  8
0
 10
8.00214
 20
-275.249
 11
8.58357
 21
-275.359
  0
LINE
  8
0
 10
8.58357
 20
-275.359
 11
9.174
 21
-275.398
  0
LINE
  8
0
 10
9.174
 20
-275.398
 11
9.76482
 21
-275.365
  0
LINE
  8
0
 10
9.76482
 20
-275.365
 11
10.3474
 21
-275.262
  0
LINE
  8
0
 10
10.3474
 20
-275.262
 11
10.9133
 21
-275.089
  0
LINE
  8
0
 10
10.9133
 20
-275.089
 11
11.4541
 21
-274.849
  0
LINE
  8
0
 10
11.4541
 20
-274.849
 11
11.9621
 21
-274.545
  0
LINE
  8
0
 10
11.9621
 20
-274.545
 11
12.4299
 21
-274.183
  0
LINE
  8
0
 10
12.4299
 20
-274.183
 11
12.8505
 21
-273.767
  0
LINE
  8
0
 10
12.8505
 20
-273.767
 11
13.2179
 21
-273.303
  0
LINE
  8
0
 10
13.2179
 20
-273.303
 11
13.5267
 21
-272.798
  0
LINE
  8
0
 10
13.5267
 20
-272.798
 11
17.3764
 21
-265.558
  0
LINE
  8
0
 10
17.3764
 20
-265.558
 11
17.6222
 21
-265.02
  0
LINE
  8
0
 10
17.6222
 20
-265.02
 11
17.8012
 21
-264.456
  0
LINE
  8
0
 10
17.8012
 20
-264.456
 11
17.911
 21
-263.874
  0
LINE
  8
0
 10
17.911
 20
-263.874
 11
17.9499
 21
-263.284
  0
LINE
  8
0
 10
17.9499
 20
-263.284
 11
17.9174
 21
-262.693
  0
LINE
  8
0
 10
17.9174
 20
-262.693
 11
17.8138
 21
-262.11
  0
LINE
  8
0
 10
17.8138
 20
-262.11
 11
17.6408
 21
-261.545
  0
LINE
  8
0
 10
17.6408
 20
-261.545
 11
17.4009
 21
-261.004
  0
LINE
  8
0
 10
17.4009
 20
-261.004
 11
17.0975
 21
-260.496
  0
LINE
  8
0
 10
17.0975
 20
-260.496
 11
16.7351
 21
-260.028
  0
LINE
  8
0
 10
16.7351
 20
-260.028
 11
16.3189
 21
-259.607
  0
LINE
  8
0
 10
16.3189
 20
-259.607
 11
15.8551
 21
-259.24
  0
LINE
  8
0
 10
15.8551
 20
-259.24
 11
15.3504
 21
-258.931
  0
LINE
  8
0
 10
15.3504
 20
-258.931
 11
8.1985
 21
-255.128
  0
LINE
  8
0
 10
8.1985
 20
-255.128
 11
12.0012
 21
-247.977
  0
LINE
  8
0
 10
12.0012
 20
-247.977
 11
12.2469
 21
-247.438
  0
LINE
  8
0
 10
12.2469
 20
-247.438
 11
12.426
 21
-246.874
  0
LINE
  8
0
 10
12.426
 20
-246.874
 11
12.5358
 21
-246.293
  0
LINE
  8
0
 10
12.5358
 20
-246.293
 11
12.5747
 21
-245.702
  0
LINE
  8
0
 10
12.5747
 20
-245.702
 11
12.5421
 21
-245.112
  0
LINE
  8
0
 10
12.5421
 20
-245.112
 11
12.4386
 21
-244.529
  0
LINE
  8
0
 10
12.4386
 20
-244.529
 11
12.2656
 21
-243.963
  0
LINE
  8
0
 10
12.2656
 20
-243.963
 11
12.0257
 21
-243.422
  0
LINE
  8
0
 10
12.0257
 20
-243.422
 11
11.7223
 21
-242.914
  0
LINE
  8
0
 10
11.7223
 20
-242.914
 11
11.3599
 21
-242.447
  0
LINE
  8
0
 10
11.3599
 20
-242.447
 11
10.9437
 21
-242.026
  0
LINE
  8
0
 10
10.9437
 20
-242.026
 11
10.4799
 21
-241.659
  0
LINE
  8
0
 10
10.4799
 20
-241.659
 11
9.97517
 21
-241.35
  0
LINE
  8
0
 10
9.97517
 20
-241.35
 11
2.73502
 21
-237.5
  0
LINE
  8
0
 10
2.73502
 20
-237.5
 11
2.19675
 21
-237.254
  0
LINE
  8
0
 10
2.19675
 20
-237.254
 11
1.63278
 21
-237.075
  0
LINE
  8
0
 10
1.63278
 20
-237.075
 11
1.05135
 21
-236.965
  0
LINE
  8
0
 10
1.05135
 20
-236.965
 11
0.460907
 21
-236.927
  0
LINE
  8
0
 10
0.460907
 20
-236.927
 11
-0.129883
 21
-236.959
  0
LINE
  8
0
 10
-0.129883
 20
-236.959
 11
-0.712448
 21
-237.063
  0
LINE
  8
0
 10
-0.712448
 20
-237.063
 11
-1.27832
 21
-237.236
  0
LINE
  8
0
 10
-1.27832
 20
-237.236
 11
-1.81918
 21
-237.476
  0
LINE
  8
0
 10
-1.81918
 20
-237.476
 11
-2.32719
 21
-237.779
  0
LINE
  8
0
 10
-2.32719
 20
-237.779
 11
-2.79494
 21
-238.141
  0
LINE
  8
0
 10
-2.79494
 20
-238.141
 11
-3.21558
 21
-238.557
  0
LINE
  8
0
 10
-3.21558
 20
-238.557
 11
-3.58299
 21
-239.021
  0
LINE
  8
0
 10
-3.58299
 20
-239.021
 11
-3.89182
 21
-239.526
  0
LINE
  8
0
 10
-3.89182
 20
-239.526
 11
-7.69453
 21
-246.678
  0
LINE
  8
0
 10
-7.69453
 20
-246.678
 11
-14.8464
 21
-242.875
  0
LINE
  8
0
 10
-14.8464
 20
-242.875
 11
-15.3847
 21
-242.629
  0
LINE
  8
0
 10
-15.3847
 20
-242.629
 11
-15.9486
 21
-242.45
  0
LINE
  8
0
 10
-15.9486
 20
-242.45
 11
-16.5301
 21
-242.341
  0
LINE
  8
0
 10
-16.5301
 20
-242.341
 11
-17.1205
 21
-242.302
  0
LINE
  8
0
 10
-17.1205
 20
-242.302
 11
-17.7113
 21
-242.334
  0
LINE
  8
0
 10
-17.7113
 20
-242.334
 11
-18.2939
 21
-242.438
  0
LINE
  8
0
 10
-18.2939
 20
-242.438
 11
-18.8598
 21
-242.611
  0
LINE
  8
0
 10
-18.8598
 20
-242.611
 11
-19.4006
 21
-242.851
  0
LINE
  8
0
 10
-19.4006
 20
-242.851
 11
-19.9086
 21
-243.154
  0
LINE
  8
0
 10
-19.9086
 20
-243.154
 11
-20.3764
 21
-243.517
  0
LINE
  8
0
 10
-20.3764
 20
-243.517
 11
-20.797
 21
-243.933
  0
LINE
  8
0
 10
-20.797
 20
-243.933
 11
-21.1644
 21
-244.396
  0
LINE
  8
0
 10
-21.1644
 20
-244.396
 11
-21.4733
 21
-244.901
  0
LINE
  8
0
 10
-21.4733
 20
-244.901
 11
-22.9286
 21
-247.638
  0
LINE
  8
0
 10
-22.9286
 20
-247.638
 11
-27.3434
 21
-245.291
  0
LINE
  8
0
 10
-27.3434
 20
-245.291
 11
-28.2823
 21
-247.057
  0
LINE
  8
0
 10
-28.2823
 20
-247.057
 11
-23.8676
 21
-249.404
  0
LINE
  8
0
 10
-23.8676
 20
-249.404
 11
-25.3229
 21
-252.141
  0
LINE
  8
0
 10
-25.3229
 20
-252.141
 11
-25.5687
 21
-252.68
  0
LINE
  8
0
 10
-25.5687
 20
-252.68
 11
-25.7477
 21
-253.244
  0
LINE
  8
0
 10
-25.7477
 20
-253.244
 11
-25.8575
 21
-253.825
  0
LINE
  8
0
 10
-25.8575
 20
-253.825
 11
-25.8964
 21
-254.415
  0
LINE
  8
0
 10
-25.8964
 20
-254.415
 11
-25.8639
 21
-255.006
  0
LINE
  8
0
 10
-25.8639
 20
-255.006
 11
-25.7603
 21
-255.589
  0
LINE
  8
0
 10
-25.7603
 20
-255.589
 11
-25.5873
 21
-256.155
  0
LINE
  8
0
 10
-25.5873
 20
-256.155
 11
-25.3474
 21
-256.696
  0
LINE
  8
0
 10
-25.3474
 20
-256.696
 11
-25.044
 21
-257.204
  0
LINE
  8
0
 10
-25.044
 20
-257.204
 11
-24.6816
 21
-257.671
  0
LINE
  8
0
 10
-24.6816
 20
-257.671
 11
-24.2654
 21
-258.092
  0
LINE
  8
0
 10
-24.2654
 20
-258.092
 11
-23.8016
 21
-258.459
  0
LINE
  8
0
 10
-23.8016
 20
-258.459
 11
-23.2969
 21
-258.768
  0
LINE
  8
0
 10
-23.2969
 20
-258.768
 11
-16.145
 21
-262.571
  0
LINE
  8
0
 10
-16.145
 20
-262.571
 11
-19.9477
 21
-269.723
  0
LINE
  8
0
 10
-19.9477
 20
-269.723
 11
-20.1935
 21
-270.261
  0
LINE
  8
0
 10
-20.1935
 20
-270.261
 11
-20.3726
 21
-270.825
  0
LINE
  8
0
 10
-20.3726
 20
-270.825
 11
-20.4823
 21
-271.407
  0
LINE
  8
0
 10
-20.4823
 20
-271.407
 11
-20.5212
 21
-271.997
  0
LINE
  8
0
 10
-20.5212
 20
-271.997
 11
-20.4887
 21
-272.588
  0
LINE
  8
0
 10
-20.4887
 20
-272.588
 11
-20.3851
 21
-273.17
  0
LINE
  8
0
 10
-20.3851
 20
-273.17
 11
-20.2122
 21
-273.736
  0
LINE
  8
0
 10
-20.2122
 20
-273.736
 11
-19.9722
 21
-274.277
  0
LINE
  8
0
 10
-19.9722
 20
-274.277
 11
-19.6688
 21
-274.785
  0
LINE
  8
0
 10
-19.6688
 20
-274.785
 11
-19.3064
 21
-275.253
  0
LINE
  8
0
 10
-19.3064
 20
-275.253
 11
-18.8903
 21
-275.673
  0
LINE
  8
0
 10
-18.8903
 20
-275.673
 11
-18.4265
 21
-276.041
  0
LINE
  8
0
 10
-18.4265
 20
-276.041
 11
-17.9217
 21
-276.35
  0
LINE
  8
0
 10
-17.9217
 20
-276.35
 11
-10.6815
 21
-280.199
  0
LINE
  8
0
 10
-10.6815
 20
-280.199
 11
-10.1433
 21
-280.445
  0
LINE
  8
0
 10
-10.1433
 20
-280.445
 11
-9.57932
 21
-280.624
  0
LINE
  8
0
 10
-9.57932
 20
-280.624
 11
-8.99788
 21
-280.734
  0
LINE
  8
0
 10
-8.99788
 20
-280.734
 11
-8.40746
 21
-280.773
  0
LINE
  8
0
 10
-8.40746
 20
-280.773
 11
-7.81664
 21
-280.74
  0
LINE
  8
0
 10
2.01248
 20
-247.592
 11
1.29578
 21
-246.991
  0
LINE
  8
0
 10
1.29578
 20
-246.991
 11
0.88562
 21
-246.15
  0
LINE
  8
0
 10
0.88562
 20
-246.15
 11
0.852982
 21
-245.215
  0
LINE
  8
0
 10
0.852982
 20
-245.215
 11
1.20346
 21
-244.347
  0
LINE
  8
0
 10
1.20346
 20
-244.347
 11
1.87648
 21
-243.697
  0
LINE
  8
0
 10
1.87648
 20
-243.697
 11
2.75566
 21
-243.377
  0
LINE
  8
0
 10
2.75566
 20
-243.377
 11
3.68898
 21
-243.443
  0
LINE
  8
0
 10
3.68898
 20
-243.443
 11
4.51506
 21
-243.882
  0
LINE
  8
0
 10
4.51506
 20
-243.882
 11
5.09108
 21
-244.619
  0
LINE
  8
0
 10
5.09108
 20
-244.619
 11
5.31741
 21
-245.527
  0
LINE
  8
0
 10
5.31741
 20
-245.527
 11
5.15495
 21
-246.448
  0
LINE
  8
0
 10
5.15495
 20
-246.448
 11
4.63176
 21
-247.224
  0
LINE
  8
0
 10
4.63176
 20
-247.224
 11
3.83833
 21
-247.72
  0
LINE
  8
0
 10
3.83833
 20
-247.72
 11
2.91183
 21
-247.85
  0
LINE
  8
0
 10
2.91183
 20
-247.85
 11
2.01248
 21
-247.592
  0
LINE
  8
0
 10
-18.0603
 20
-253.894
 11
-18.836
 21
-253.371
  0
LINE
  8
0
 10
-18.836
 20
-253.371
 11
-19.3318
 21
-252.577
  0
LINE
  8
0
 10
-19.3318
 20
-252.577
 11
-19.462
 21
-251.651
  0
LINE
  8
0
 10
-19.462
 20
-251.651
 11
-19.2041
 21
-250.751
  0
LINE
  8
0
 10
-19.2041
 20
-250.751
 11
-18.6027
 21
-250.035
  0
LINE
  8
0
 10
-18.6027
 20
-250.035
 11
-17.7618
 21
-249.624
  0
LINE
  8
0
 10
-17.7618
 20
-249.624
 11
-16.8268
 21
-249.592
  0
LINE
  8
0
 10
-16.8268
 20
-249.592
 11
-15.9593
 21
-249.942
  0
LINE
  8
0
 10
-15.9593
 20
-249.942
 11
-15.3094
 21
-250.615
  0
LINE
  8
0
 10
-15.3094
 20
-250.615
 11
-14.9893
 21
-251.494
  0
LINE
  8
0
 10
-14.9893
 20
-251.494
 11
-15.0546
 21
-252.428
  0
LINE
  8
0
 10
-15.0546
 20
-252.428
 11
-15.4939
 21
-253.254
  0
LINE
  8
0
 10
-15.4939
 20
-253.254
 11
-16.2311
 21
-253.83
  0
LINE
  8
0
 10
-16.2311
 20
-253.83
 11
-17.1389
 21
-254.056
  0
LINE
  8
0
 10
-17.1389
 20
-254.056
 11
-18.0603
 21
-253.894
  0
LINE
  8
0
 10
8.42809
 20
-267.978
 11
7.65244
 21
-267.455
  0
LINE
  8
0
 10
7.65244
 20
-267.455
 11
7.15665
 21
-266.661
  0
LINE
  8
0
 10
7.15665
 20
-266.661
 11
7.02644
 21
-265.735
  0
LINE
  8
0
 10
7.02644
 20
-265.735
 11
7.28432
 21
-264.835
  0
LINE
  8
0
 10
7.28432
 20
-264.835
 11
7.88571
 21
-264.119
  0
LINE
  8
0
 10
7.88571
 20
-264.119
 11
8.72662
 21
-263.709
  0
LINE
  8
0
 10
8.72662
 20
-263.709
 11
9.66165
 21
-263.676
  0
LINE
  8
0
 10
9.66165
 20
-263.676
 11
10.5291
 21
-264.026
  0
LINE
  8
0
 10
10.5291
 20
-264.026
 11
11.1791
 21
-264.699
  0
LINE
  8
0
 10
11.1791
 20
-264.699
 11
11.4991
 21
-265.579
  0
LINE
  8
0
 10
11.4991
 20
-265.579
 11
11.4338
 21
-266.512
  0
LINE
  8
0
 10
11.4338
 20
-266.512
 11
10.9946
 21
-267.338
  0
LINE
  8
0
 10
10.9946
 20
-267.338
 11
10.2573
 21
-267.914
  0
LINE
  8
0
 10
10.2573
 20
-267.914
 11
9.34947
 21
-268.14
  0
LINE
  8
0
 10
9.34947
 20
-268.14
 11
8.42809
 21
-267.978
  0
LINE
  8
0
 10
-12.0716
 20
-274.081
 11
-12.7883
 21
-273.479
  0
LINE
  8
0
 10
-12.7883
 20
-273.479
 11
-13.1985
 21
-272.638
  0
LINE
  8
0
 10
-13.1985
 20
-272.638
 11
-13.2311
 21
-271.703
  0
LINE
  8
0
 10
-13.2311
 20
-271.703
 11
-12.8807
 21
-270.836
  0
LINE
  8
0
 10
-12.8807
 20
-270.836
 11
-12.2077
 21
-270.186
  0
LINE
  8
0
 10
-12.2077
 20
-270.186
 11
-11.3285
 21
-269.866
  0
LINE
  8
0
 10
-11.3285
 20
-269.866
 11
-10.3951
 21
-269.931
  0
LINE
  8
0
 10
-10.3951
 20
-269.931
 11
-9.56906
 21
-270.37
  0
LINE
  8
0
 10
-9.56906
 20
-270.37
 11
-8.99304
 21
-271.108
  0
LINE
  8
0
 10
-8.99304
 20
-271.108
 11
-8.76671
 21
-272.015
  0
LINE
  8
0
 10
-8.76671
 20
-272.015
 11
-8.92917
 21
-272.937
  0
LINE
  8
0
 10
-8.92917
 20
-272.937
 11
-9.45236
 21
-273.712
  0
LINE
  8
0
 10
-9.45236
 20
-273.712
 11
-10.2458
 21
-274.208
  0
LINE
  8
0
 10
-10.2458
 20
-274.208
 11
-11.1723
 21
-274.338
  0
LINE
  8
0
 10
-11.1723
 20
-274.338
 11
-12.0716
 21
-274.081
  0
LINE
  8
0
 10
98.0212
 20
-288.544
 11
98.6071
 21
-288.461
  0
LINE
  8
0
 10
98.6071
 20
-288.461
 11
99.1786
 21
-288.308
  0
LINE
  8
0
 10
99.1786
 20
-288.308
 11
99.7275
 21
-288.087
  0
LINE
  8
0
 10
99.7275
 20
-288.087
 11
100.246
 21
-287.802
  0
LINE
  8
0
 10
100.246
 20
-287.802
 11
100.726
 21
-287.456
  0
LINE
  8
0
 10
100.726
 20
-287.456
 11
101.161
 21
-287.055
  0
LINE
  8
0
 10
101.161
 20
-287.055
 11
101.544
 21
-286.604
  0
LINE
  8
0
 10
101.544
 20
-286.604
 11
101.87
 21
-286.11
  0
LINE
  8
0
 10
101.87
 20
-286.11
 11
105.92
 21
-279.095
  0
LINE
  8
0
 10
105.92
 20
-279.095
 11
112.935
 21
-283.145
  0
LINE
  8
0
 10
112.935
 20
-283.145
 11
113.465
 21
-283.41
  0
LINE
  8
0
 10
113.465
 20
-283.41
 11
114.022
 21
-283.608
  0
LINE
  8
0
 10
114.022
 20
-283.608
 11
114.599
 21
-283.738
  0
LINE
  8
0
 10
114.599
 20
-283.738
 11
115.188
 21
-283.798
  0
LINE
  8
0
 10
115.188
 20
-283.798
 11
115.78
 21
-283.786
  0
LINE
  8
0
 10
115.78
 20
-283.786
 11
116.365
 21
-283.703
  0
LINE
  8
0
 10
116.365
 20
-283.703
 11
116.937
 21
-283.55
  0
LINE
  8
0
 10
116.937
 20
-283.55
 11
117.486
 21
-283.329
  0
LINE
  8
0
 10
117.486
 20
-283.329
 11
118.004
 21
-283.043
  0
LINE
  8
0
 10
118.004
 20
-283.043
 11
118.484
 21
-282.698
  0
LINE
  8
0
 10
118.484
 20
-282.698
 11
118.919
 21
-282.296
  0
LINE
  8
0
 10
118.919
 20
-282.296
 11
119.303
 21
-281.846
  0
LINE
  8
0
 10
119.303
 20
-281.846
 11
119.629
 21
-281.352
  0
LINE
  8
0
 10
119.629
 20
-281.352
 11
121.179
 21
-278.667
  0
LINE
  8
0
 10
121.179
 20
-278.667
 11
125.509
 21
-281.167
  0
LINE
  8
0
 10
125.509
 20
-281.167
 11
126.509
 21
-279.435
  0
LINE
  8
0
 10
126.509
 20
-279.435
 11
122.179
 21
-276.935
  0
LINE
  8
0
 10
122.179
 20
-276.935
 11
123.729
 21
-274.251
  0
LINE
  8
0
 10
123.729
 20
-274.251
 11
123.993
 21
-273.721
  0
LINE
  8
0
 10
123.993
 20
-273.721
 11
124.192
 21
-273.164
  0
LINE
  8
0
 10
124.192
 20
-273.164
 11
124.322
 21
-272.587
  0
LINE
  8
0
 10
124.322
 20
-272.587
 11
124.381
 21
-271.998
  0
LINE
  8
0
 10
124.381
 20
-271.998
 11
124.369
 21
-271.406
  0
LINE
  8
0
 10
124.369
 20
-271.406
 11
124.286
 21
-270.82
  0
LINE
  8
0
 10
124.286
 20
-270.82
 11
124.133
 21
-270.249
  0
LINE
  8
0
 10
124.133
 20
-270.249
 11
123.912
 21
-269.7
  0
LINE
  8
0
 10
123.912
 20
-269.7
 11
123.627
 21
-269.182
  0
LINE
  8
0
 10
123.627
 20
-269.182
 11
123.281
 21
-268.702
  0
LINE
  8
0
 10
123.281
 20
-268.702
 11
122.88
 21
-268.267
  0
LINE
  8
0
 10
122.88
 20
-268.267
 11
122.429
 21
-267.883
  0
LINE
  8
0
 10
122.429
 20
-267.883
 11
121.935
 21
-267.557
  0
LINE
  8
0
 10
121.935
 20
-267.557
 11
114.92
 21
-263.507
  0
LINE
  8
0
 10
114.92
 20
-263.507
 11
118.97
 21
-256.492
  0
LINE
  8
0
 10
118.97
 20
-256.492
 11
119.235
 21
-255.963
  0
LINE
  8
0
 10
119.235
 20
-255.963
 11
119.433
 21
-255.405
  0
LINE
  8
0
 10
119.433
 20
-255.405
 11
119.563
 21
-254.828
  0
LINE
  8
0
 10
119.563
 20
-254.828
 11
119.623
 21
-254.24
  0
LINE
  8
0
 10
119.623
 20
-254.24
 11
119.611
 21
-253.648
  0
LINE
  8
0
 10
119.611
 20
-253.648
 11
119.528
 21
-253.062
  0
LINE
  8
0
 10
119.528
 20
-253.062
 11
119.375
 21
-252.491
  0
LINE
  8
0
 10
119.375
 20
-252.491
 11
119.154
 21
-251.942
  0
LINE
  8
0
 10
119.154
 20
-251.942
 11
118.868
 21
-251.423
  0
LINE
  8
0
 10
118.868
 20
-251.423
 11
118.523
 21
-250.943
  0
LINE
  8
0
 10
118.523
 20
-250.943
 11
118.121
 21
-250.508
  0
LINE
  8
0
 10
118.121
 20
-250.508
 11
117.671
 21
-250.125
  0
LINE
  8
0
 10
117.671
 20
-250.125
 11
117.177
 21
-249.799
  0
LINE
  8
0
 10
117.177
 20
-249.799
 11
110.076
 21
-245.699
  0
LINE
  8
0
 10
110.076
 20
-245.699
 11
109.546
 21
-245.434
  0
LINE
  8
0
 10
109.546
 20
-245.434
 11
108.989
 21
-245.236
  0
LINE
  8
0
 10
108.989
 20
-245.236
 11
108.412
 21
-245.106
  0
LINE
  8
0
 10
108.412
 20
-245.106
 11
107.823
 21
-245.046
  0
LINE
  8
0
 10
107.823
 20
-245.046
 11
107.231
 21
-245.058
  0
LINE
  8
0
 10
107.231
 20
-245.058
 11
106.645
 21
-245.141
  0
LINE
  8
0
 10
106.645
 20
-245.141
 11
106.074
 21
-245.294
  0
LINE
  8
0
 10
106.074
 20
-245.294
 11
105.525
 21
-245.515
  0
LINE
  8
0
 10
105.525
 20
-245.515
 11
105.007
 21
-245.801
  0
LINE
  8
0
 10
105.007
 20
-245.801
 11
104.527
 21
-246.147
  0
LINE
  8
0
 10
104.527
 20
-246.147
 11
104.092
 21
-246.548
  0
LINE
  8
0
 10
104.092
 20
-246.548
 11
103.708
 21
-246.999
  0
LINE
  8
0
 10
103.708
 20
-246.999
 11
103.382
 21
-247.492
  0
LINE
  8
0
 10
103.382
 20
-247.492
 11
99.332
 21
-254.507
  0
LINE
  8
0
 10
99.332
 20
-254.507
 11
92.3172
 21
-250.457
  0
LINE
  8
0
 10
92.3172
 20
-250.457
 11
91.7878
 21
-250.193
  0
LINE
  8
0
 10
91.7878
 20
-250.193
 11
91.2305
 21
-249.994
  0
LINE
  8
0
 10
91.2305
 20
-249.994
 11
90.6532
 21
-249.864
  0
LINE
  8
0
 10
90.6532
 20
-249.864
 11
90.0645
 21
-249.805
  0
LINE
  8
0
 10
90.0645
 20
-249.805
 11
89.4729
 21
-249.816
  0
LINE
  8
0
 10
89.4729
 20
-249.816
 11
88.8871
 21
-249.9
  0
LINE
  8
0
 10
88.8871
 20
-249.9
 11
88.3155
 21
-250.053
  0
LINE
  8
0
 10
88.3155
 20
-250.053
 11
87.7666
 21
-250.274
  0
LINE
  8
0
 10
87.7666
 20
-250.274
 11
87.2483
 21
-250.559
  0
LINE
  8
0
 10
87.2483
 20
-250.559
 11
86.7682
 21
-250.905
  0
LINE
  8
0
 10
86.7682
 20
-250.905
 11
86.3333
 21
-251.306
  0
LINE
  8
0
 10
86.3333
 20
-251.306
 11
85.9499
 21
-251.757
  0
LINE
  8
0
 10
85.9499
 20
-251.757
 11
85.6237
 21
-252.251
  0
LINE
  8
0
 10
85.6237
 20
-252.251
 11
84.0737
 21
-254.935
  0
LINE
  8
0
 10
84.0737
 20
-254.935
 11
79.7435
 21
-252.435
  0
LINE
  8
0
 10
79.7435
 20
-252.435
 11
78.7435
 21
-254.167
  0
LINE
  8
0
 10
78.7435
 20
-254.167
 11
83.0737
 21
-256.667
  0
LINE
  8
0
 10
83.0737
 20
-256.667
 11
81.5237
 21
-259.352
  0
LINE
  8
0
 10
81.5237
 20
-259.352
 11
81.2593
 21
-259.881
  0
LINE
  8
0
 10
81.2593
 20
-259.881
 11
81.0607
 21
-260.439
  0
LINE
  8
0
 10
81.0607
 20
-260.439
 11
80.9307
 21
-261.016
  0
LINE
  8
0
 10
80.9307
 20
-261.016
 11
80.8712
 21
-261.605
  0
LINE
  8
0
 10
80.8712
 20
-261.605
 11
80.8831
 21
-262.196
  0
LINE
  8
0
 10
80.8831
 20
-262.196
 11
80.9662
 21
-262.782
  0
LINE
  8
0
 10
80.9662
 20
-262.782
 11
81.1194
 21
-263.354
  0
LINE
  8
0
 10
81.1194
 20
-263.354
 11
81.3403
 21
-263.903
  0
LINE
  8
0
 10
81.3403
 20
-263.903
 11
81.6258
 21
-264.421
  0
LINE
  8
0
 10
81.6258
 20
-264.421
 11
81.9716
 21
-264.901
  0
LINE
  8
0
 10
81.9716
 20
-264.901
 11
82.3728
 21
-265.336
  0
LINE
  8
0
 10
82.3728
 20
-265.336
 11
82.8236
 21
-265.719
  0
LINE
  8
0
 10
82.8236
 20
-265.719
 11
83.3172
 21
-266.045
  0
LINE
  8
0
 10
83.3172
 20
-266.045
 11
90.332
 21
-270.096
  0
LINE
  8
0
 10
90.332
 20
-270.096
 11
86.282
 21
-277.11
  0
LINE
  8
0
 10
86.282
 20
-277.11
 11
86.0177
 21
-277.64
  0
LINE
  8
0
 10
86.0177
 20
-277.64
 11
85.819
 21
-278.197
  0
LINE
  8
0
 10
85.819
 20
-278.197
 11
85.689
 21
-278.774
  0
LINE
  8
0
 10
85.689
 20
-278.774
 11
85.6295
 21
-279.363
  0
LINE
  8
0
 10
85.6295
 20
-279.363
 11
85.6414
 21
-279.955
  0
LINE
  8
0
 10
85.6414
 20
-279.955
 11
85.7246
 21
-280.54
  0
LINE
  8
0
 10
85.7246
 20
-280.54
 11
85.8777
 21
-281.112
  0
LINE
  8
0
 10
85.8777
 20
-281.112
 11
86.0986
 21
-281.661
  0
LINE
  8
0
 10
86.0986
 20
-281.661
 11
86.3841
 21
-282.179
  0
LINE
  8
0
 10
86.3841
 20
-282.179
 11
86.73
 21
-282.659
  0
LINE
  8
0
 10
86.73
 20
-282.659
 11
87.1312
 21
-283.094
  0
LINE
  8
0
 10
87.1312
 20
-283.094
 11
87.5819
 21
-283.478
  0
LINE
  8
0
 10
87.5819
 20
-283.478
 11
88.0755
 21
-283.804
  0
LINE
  8
0
 10
88.0755
 20
-283.804
 11
95.1769
 21
-287.904
  0
LINE
  8
0
 10
95.1769
 20
-287.904
 11
95.7063
 21
-288.168
  0
LINE
  8
0
 10
95.7063
 20
-288.168
 11
96.2637
 21
-288.367
  0
LINE
  8
0
 10
96.2637
 20
-288.367
 11
96.8409
 21
-288.497
  0
LINE
  8
0
 10
96.8409
 20
-288.497
 11
97.4297
 21
-288.556
  0
LINE
  8
0
 10
97.4297
 20
-288.556
 11
98.0212
 21
-288.544
  0
LINE
  8
0
 10
109.001
 20
-255.759
 11
108.306
 21
-255.133
  0
LINE
  8
0
 10
108.306
 20
-255.133
 11
107.925
 21
-254.279
  0
LINE
  8
0
 10
107.925
 20
-254.279
 11
107.925
 21
-253.343
  0
LINE
  8
0
 10
107.925
 20
-253.343
 11
108.306
 21
-252.488
  0
LINE
  8
0
 10
108.306
 20
-252.488
 11
109.001
 21
-251.862
  0
LINE
  8
0
 10
109.001
 20
-251.862
 11
109.891
 21
-251.573
  0
LINE
  8
0
 10
109.891
 20
-251.573
 11
110.822
 21
-251.671
  0
LINE
  8
0
 10
110.822
 20
-251.671
 11
111.632
 21
-252.139
  0
LINE
  8
0
 10
111.632
 20
-252.139
 11
112.182
 21
-252.896
  0
LINE
  8
0
 10
112.182
 20
-252.896
 11
112.376
 21
-253.811
  0
LINE
  8
0
 10
112.376
 20
-253.811
 11
112.182
 21
-254.726
  0
LINE
  8
0
 10
112.182
 20
-254.726
 11
111.632
 21
-255.483
  0
LINE
  8
0
 10
111.632
 20
-255.483
 11
110.822
 21
-255.951
  0
LINE
  8
0
 10
110.822
 20
-255.951
 11
109.891
 21
-256.049
  0
LINE
  8
0
 10
109.891
 20
-256.049
 11
109.001
 21
-255.759
  0
LINE
  8
0
 10
89.1681
 20
-261.502
 11
88.3133
 21
-261.122
  0
LINE
  8
0
 10
88.3133
 20
-261.122
 11
87.6873
 21
-260.426
  0
LINE
  8
0
 10
87.6873
 20
-260.426
 11
87.3982
 21
-259.536
  0
LINE
  8
0
 10
87.3982
 20
-259.536
 11
87.496
 21
-258.606
  0
LINE
  8
0
 10
87.496
 20
-258.606
 11
87.9638
 21
-257.796
  0
LINE
  8
0
 10
87.9638
 20
-257.796
 11
88.7207
 21
-257.246
  0
LINE
  8
0
 10
88.7207
 20
-257.246
 11
89.6358
 21
-257.051
  0
LINE
  8
0
 10
89.6358
 20
-257.051
 11
90.551
 21
-257.246
  0
LINE
  8
0
 10
90.551
 20
-257.246
 11
91.3079
 21
-257.796
  0
LINE
  8
0
 10
91.3079
 20
-257.796
 11
91.7757
 21
-258.606
  0
LINE
  8
0
 10
91.7757
 20
-258.606
 11
91.8735
 21
-259.536
  0
LINE
  8
0
 10
91.8735
 20
-259.536
 11
91.5844
 21
-260.426
  0
LINE
  8
0
 10
91.5844
 20
-260.426
 11
90.9584
 21
-261.122
  0
LINE
  8
0
 10
90.9584
 20
-261.122
 11
90.1037
 21
-261.502
  0
LINE
  8
0
 10
90.1037
 20
-261.502
 11
89.1681
 21
-261.502
  0
LINE
  8
0
 10
115.149
 20
-276.502
 11
114.294
 21
-276.122
  0
LINE
  8
0
 10
114.294
 20
-276.122
 11
113.668
 21
-275.426
  0
LINE
  8
0
 10
113.668
 20
-275.426
 11
113.379
 21
-274.536
  0
LINE
  8
0
 10
113.379
 20
-274.536
 11
113.477
 21
-273.606
  0
LINE
  8
0
 10
113.477
 20
-273.606
 11
113.945
 21
-272.796
  0
LINE
  8
0
 10
113.945
 20
-272.796
 11
114.701
 21
-272.246
  0
LINE
  8
0
 10
114.701
 20
-272.246
 11
115.617
 21
-272.051
  0
LINE
  8
0
 10
115.617
 20
-272.051
 11
116.532
 21
-272.246
  0
LINE
  8
0
 10
116.532
 20
-272.246
 11
117.289
 21
-272.796
  0
LINE
  8
0
 10
117.289
 20
-272.796
 11
117.757
 21
-273.606
  0
LINE
  8
0
 10
117.757
 20
-273.606
 11
117.854
 21
-274.536
  0
LINE
  8
0
 10
117.854
 20
-274.536
 11
117.565
 21
-275.426
  0
LINE
  8
0
 10
117.565
 20
-275.426
 11
116.939
 21
-276.122
  0
LINE
  8
0
 10
116.939
 20
-276.122
 11
116.084
 21
-276.502
  0
LINE
  8
0
 10
116.084
 20
-276.502
 11
115.149
 21
-276.502
  0
LINE
  8
0
 10
94.0012
 20
-281.74
 11
93.306
 21
-281.114
  0
LINE
  8
0
 10
93.306
 20
-281.114
 11
92.9254
 21
-280.259
  0
LINE
  8
0
 10
92.9254
 20
-280.259
 11
92.9254
 21
-279.324
  0
LINE
  8
0
 10
92.9254
 20
-279.324
 11
93.306
 21
-278.469
  0
LINE
  8
0
 10
93.306
 20
-278.469
 11
94.0012
 21
-277.843
  0
LINE
  8
0
 10
94.0012
 20
-277.843
 11
94.8911
 21
-277.554
  0
LINE
  8
0
 10
94.8911
 20
-277.554
 11
95.8215
 21
-277.652
  0
LINE
  8
0
 10
95.8215
 20
-277.652
 11
96.6318
 21
-278.12
  0
LINE
  8
0
 10
96.6318
 20
-278.12
 11
97.1817
 21
-278.876
  0
LINE
  8
0
 10
97.1817
 20
-278.876
 11
97.3762
 21
-279.792
  0
LINE
  8
0
 10
97.3762
 20
-279.792
 11
97.1817
 21
-280.707
  0
LINE
  8
0
 10
97.1817
 20
-280.707
 11
96.6318
 21
-281.464
  0
LINE
  8
0
 10
96.6318
 20
-281.464
 11
95.8215
 21
-281.932
  0
LINE
  8
0
 10
95.8215
 20
-281.932
 11
94.8911
 21
-282.029
  0
LINE
  8
0
 10
94.8911
 20
-282.029
 11
94.0012
 21
-281.74
  0
ENDSEC
  0
SECTION
  2
OBJECTS
  0
DICTIONARY
  0
ENDSEC
  0
EOF
