  0
SECTION
  2
BLOCKS
  0
ENDSEC
  0
SECTION
  2
ENTITIES
  0
LINE
  8
0
 10
113.434
 20
78.3889
 11
128.193
 21
83.1845
  0
LINE
  8
0
 10
128.193
 20
83.1845
 11
141.633
 21
90.944
  0
LINE
  8
0
 10
141.633
 20
90.944
 11
153.166
 21
101.328
  0
LINE
  8
0
 10
153.166
 20
101.328
 11
162.288
 21
113.883
  0
LINE
  8
0
 10
162.288
 20
113.883
 11
168.6
 21
128.061
  0
LINE
  8
0
 10
168.6
 20
128.061
 11
171.827
 21
143.24
  0
LINE
  8
0
 10
171.827
 20
143.24
 11
171.827
 21
158.759
  0
LINE
  8
0
 10
171.827
 20
158.759
 11
168.6
 21
173.939
  0
LINE
  8
0
 10
168.6
 20
173.939
 11
162.288
 21
188.117
  0
LINE
  8
0
 10
162.288
 20
188.117
 11
153.166
 21
200.672
  0
LINE
  8
0
 10
153.166
 20
200.672
 11
141.633
 21
211.056
  0
LINE
  8
0
 10
141.633
 20
211.056
 11
128.193
 21
218.816
  0
LINE
  8
0
 10
128.193
 20
218.816
 11
113.434
 21
223.611
  0
LINE
  8
0
 10
113.434
 20
223.611
 11
98
 21
225.233
  0
LINE
  8
0
 10
98
 20
225.233
 11
82.566
 21
223.611
  0
LINE
  8
0
 10
82.566
 20
223.611
 11
67.8066
 21
218.816
  0
LINE
  8
0
 10
67.8066
 20
218.816
 11
54.3667
 21
211.056
  0
LINE
  8
0
 10
54.3667
 20
211.056
 11
42.8339
 21
200.672
  0
LINE
  8
0
 10
42.8339
 20
200.672
 11
33.7121
 21
188.117
  0
LINE
  8
0
 10
33.7121
 20
188.117
 11
27.3999
 21
173.939
  0
LINE
  8
0
 10
27.3999
 20
173.939
 11
24.1733
 21
158.759
  0
LINE
  8
0
 10
24.1733
 20
158.759
 11
24.1733
 21
143.24
  0
LINE
  8
0
 10
24.1733
 20
143.24
 11
27.3999
 21
128.061
  0
LINE
  8
0
 10
27.3999
 20
128.061
 11
33.7121
 21
113.883
  0
LINE
  8
0
 10
33.7121
 20
113.883
 11
42.8339
 21
101.328
  0
LINE
  8
0
 10
42.8339
 20
101.328
 11
54.3667
 21
90.944
  0
LINE
  8
0
 10
54.3667
 20
90.944
 11
67.8066
 21
83.1845
  0
LINE
  8
0
 10
67.8066
 20
83.1845
 11
82.566
 21
78.3889
  0
LINE
  8
0
 10
82.566
 20
78.3889
 11
98
 21
76.7667
  0
LINE
  8
0
 10
98
 20
76.7667
 11
113.434
 21
78.3889
  0
LINE
  8
0
 10
105.855
 20
123.628
 11
105.269
 21
123.711
  0
LINE
  8
0
 10
105.269
 20
123.711
 11
104.698
 21
123.864
  0
LINE
  8
0
 10
104.698
 20
123.864
 11
104.149
 21
124.085
  0
LINE
  8
0
 10
104.149
 20
124.085
 11
103.63
 21
124.37
  0
LINE
  8
0
 10
103.63
 20
124.37
 11
103.15
 21
124.716
  0
LINE
  8
0
 10
103.15
 20
124.716
 11
102.715
 21
125.117
  0
LINE
  8
0
 10
102.715
 20
125.117
 11
102.332
 21
125.568
  0
LINE
  8
0
 10
102.332
 20
125.568
 11
102.006
 21
126.062
  0
LINE
  8
0
 10
102.006
 20
126.062
 11
94.7058
 21
138.706
  0
LINE
  8
0
 10
94.7058
 20
138.706
 11
82.0618
 21
131.406
  0
LINE
  8
0
 10
82.0618
 20
131.406
 11
81.5324
 21
131.141
  0
LINE
  8
0
 10
81.5324
 20
131.141
 11
80.9751
 21
130.943
  0
LINE
  8
0
 10
80.9751
 20
130.943
 11
80.3978
 21
130.813
  0
LINE
  8
0
 10
80.3978
 20
130.813
 11
79.8091
 21
130.753
  0
LINE
  8
0
 10
79.8091
 20
130.753
 11
79.2175
 21
130.765
  0
LINE
  8
0
 10
79.2175
 20
130.765
 11
78.6317
 21
130.848
  0
LINE
  8
0
 10
78.6317
 20
130.848
 11
78.0601
 21
131.001
  0
LINE
  8
0
 10
78.0601
 20
131.001
 11
77.5112
 21
131.222
  0
LINE
  8
0
 10
77.5112
 20
131.222
 11
76.9929
 21
131.508
  0
LINE
  8
0
 10
76.9929
 20
131.508
 11
76.5128
 21
131.854
  0
LINE
  8
0
 10
76.5128
 20
131.854
 11
76.0779
 21
132.255
  0
LINE
  8
0
 10
76.0779
 20
132.255
 11
75.6945
 21
132.706
  0
LINE
  8
0
 10
75.6945
 20
132.706
 11
75.3683
 21
133.199
  0
LINE
  8
0
 10
75.3683
 20
133.199
 11
71.2683
 21
140.301
  0
LINE
  8
0
 10
71.2683
 20
140.301
 11
71.0039
 21
140.83
  0
LINE
  8
0
 10
71.0039
 20
140.83
 11
70.8053
 21
141.387
  0
LINE
  8
0
 10
70.8053
 20
141.387
 11
70.6753
 21
141.965
  0
LINE
  8
0
 10
70.6753
 20
141.965
 11
70.6158
 21
142.553
  0
LINE
  8
0
 10
70.6158
 20
142.553
 11
70.6277
 21
143.145
  0
LINE
  8
0
 10
70.6277
 20
143.145
 11
70.7108
 21
143.731
  0
LINE
  8
0
 10
70.7108
 20
143.731
 11
70.864
 21
144.302
  0
LINE
  8
0
 10
70.864
 20
144.302
 11
71.0849
 21
144.851
  0
LINE
  8
0
 10
71.0849
 20
144.851
 11
71.3704
 21
145.37
  0
LINE
  8
0
 10
71.3704
 20
145.37
 11
71.7162
 21
145.85
  0
LINE
  8
0
 10
71.7162
 20
145.85
 11
72.1174
 21
146.285
  0
LINE
  8
0
 10
72.1174
 20
146.285
 11
72.5682
 21
146.668
  0
LINE
  8
0
 10
72.5682
 20
146.668
 11
73.0618
 21
146.994
  0
LINE
  8
0
 10
73.0618
 20
146.994
 11
85.7058
 21
154.294
  0
LINE
  8
0
 10
85.7058
 20
154.294
 11
78.4058
 21
166.938
  0
LINE
  8
0
 10
78.4058
 20
166.938
 11
78.1414
 21
167.468
  0
LINE
  8
0
 10
78.1414
 20
167.468
 11
77.9427
 21
168.025
  0
LINE
  8
0
 10
77.9427
 20
168.025
 11
77.8127
 21
168.602
  0
LINE
  8
0
 10
77.8127
 20
168.602
 11
77.7533
 21
169.191
  0
LINE
  8
0
 10
77.7533
 20
169.191
 11
77.7652
 21
169.782
  0
LINE
  8
0
 10
77.7652
 20
169.782
 11
77.8483
 21
170.368
  0
LINE
  8
0
 10
77.8483
 20
170.368
 11
78.0014
 21
170.94
  0
LINE
  8
0
 10
78.0014
 20
170.94
 11
78.2224
 21
171.489
  0
LINE
  8
0
 10
78.2224
 20
171.489
 11
78.5078
 21
172.007
  0
LINE
  8
0
 10
78.5078
 20
172.007
 11
78.8537
 21
172.487
  0
LINE
  8
0
 10
78.8537
 20
172.487
 11
79.2549
 21
172.922
  0
LINE
  8
0
 10
79.2549
 20
172.922
 11
79.7056
 21
173.305
  0
LINE
  8
0
 10
79.7056
 20
173.305
 11
80.1993
 21
173.632
  0
LINE
  8
0
 10
80.1993
 20
173.632
 11
87.3007
 21
177.732
  0
LINE
  8
0
 10
87.3007
 20
177.732
 11
87.8301
 21
177.996
  0
LINE
  8
0
 10
87.8301
 20
177.996
 11
88.3874
 21
178.195
  0
LINE
  8
0
 10
88.3874
 20
178.195
 11
88.9647
 21
178.325
  0
LINE
  8
0
 10
88.9647
 20
178.325
 11
89.5534
 21
178.384
  0
LINE
  8
0
 10
89.5534
 20
178.384
 11
90.145
 21
178.372
  0
LINE
  8
0
 10
90.145
 20
178.372
 11
90.7308
 21
178.289
  0
LINE
  8
0
 10
90.7308
 20
178.289
 11
91.3024
 21
178.136
  0
LINE
  8
0
 10
91.3024
 20
178.136
 11
91.8513
 21
177.915
  0
LINE
  8
0
 10
91.8513
 20
177.915
 11
92.3696
 21
177.63
  0
LINE
  8
0
 10
92.3696
 20
177.63
 11
92.8497
 21
177.284
  0
LINE
  8
0
 10
92.8497
 20
177.284
 11
93.2846
 21
176.883
  0
LINE
  8
0
 10
93.2846
 20
176.883
 11
93.668
 21
176.432
  0
LINE
  8
0
 10
93.668
 20
176.432
 11
93.9942
 21
175.938
  0
LINE
  8
0
 10
93.9942
 20
175.938
 11
101.294
 21
163.294
  0
LINE
  8
0
 10
101.294
 20
163.294
 11
113.938
 21
170.594
  0
LINE
  8
0
 10
113.938
 20
170.594
 11
114.468
 21
170.859
  0
LINE
  8
0
 10
114.468
 20
170.859
 11
115.025
 21
171.057
  0
LINE
  8
0
 10
115.025
 20
171.057
 11
115.602
 21
171.187
  0
LINE
  8
0
 10
115.602
 20
171.187
 11
116.191
 21
171.247
  0
LINE
  8
0
 10
116.191
 20
171.247
 11
116.782
 21
171.235
  0
LINE
  8
0
 10
116.782
 20
171.235
 11
117.368
 21
171.152
  0
LINE
  8
0
 10
117.368
 20
171.152
 11
117.94
 21
170.999
  0
LINE
  8
0
 10
117.94
 20
170.999
 11
118.489
 21
170.778
  0
LINE
  8
0
 10
118.489
 20
170.778
 11
119.007
 21
170.492
  0
LINE
  8
0
 10
119.007
 20
170.492
 11
119.487
 21
170.146
  0
LINE
  8
0
 10
119.487
 20
170.146
 11
119.922
 21
169.745
  0
LINE
  8
0
 10
119.922
 20
169.745
 11
120.305
 21
169.294
  0
LINE
  8
0
 10
120.305
 20
169.294
 11
120.632
 21
168.801
  0
LINE
  8
0
 10
120.632
 20
168.801
 11
124.732
 21
161.699
  0
LINE
  8
0
 10
124.732
 20
161.699
 11
124.996
 21
161.17
  0
LINE
  8
0
 10
124.996
 20
161.17
 11
125.195
 21
160.613
  0
LINE
  8
0
 10
125.195
 20
160.613
 11
125.325
 21
160.035
  0
LINE
  8
0
 10
125.325
 20
160.035
 11
125.384
 21
159.447
  0
LINE
  8
0
 10
125.384
 20
159.447
 11
125.372
 21
158.855
  0
LINE
  8
0
 10
125.372
 20
158.855
 11
125.289
 21
158.269
  0
LINE
  8
0
 10
125.289
 20
158.269
 11
125.136
 21
157.698
  0
LINE
  8
0
 10
125.136
 20
157.698
 11
124.915
 21
157.149
  0
LINE
  8
0
 10
124.915
 20
157.149
 11
124.63
 21
156.63
  0
LINE
  8
0
 10
124.63
 20
156.63
 11
124.284
 21
156.15
  0
LINE
  8
0
 10
124.284
 20
156.15
 11
123.883
 21
155.715
  0
LINE
  8
0
 10
123.883
 20
155.715
 11
123.432
 21
155.332
  0
LINE
  8
0
 10
123.432
 20
155.332
 11
122.938
 21
155.006
  0
LINE
  8
0
 10
122.938
 20
155.006
 11
110.294
 21
147.706
  0
LINE
  8
0
 10
110.294
 20
147.706
 11
117.594
 21
135.062
  0
LINE
  8
0
 10
117.594
 20
135.062
 11
117.859
 21
134.532
  0
LINE
  8
0
 10
117.859
 20
134.532
 11
118.057
 21
133.975
  0
LINE
  8
0
 10
118.057
 20
133.975
 11
118.187
 21
133.398
  0
LINE
  8
0
 10
118.187
 20
133.398
 11
118.247
 21
132.809
  0
LINE
  8
0
 10
118.247
 20
132.809
 11
118.235
 21
132.217
  0
LINE
  8
0
 10
118.235
 20
132.217
 11
118.152
 21
131.632
  0
LINE
  8
0
 10
118.152
 20
131.632
 11
117.999
 21
131.06
  0
LINE
  8
0
 10
117.999
 20
131.06
 11
117.778
 21
130.511
  0
LINE
  8
0
 10
117.778
 20
130.511
 11
117.492
 21
129.993
  0
LINE
  8
0
 10
117.492
 20
129.993
 11
117.146
 21
129.513
  0
LINE
  8
0
 10
117.146
 20
129.513
 11
116.745
 21
129.078
  0
LINE
  8
0
 10
116.745
 20
129.078
 11
116.294
 21
128.695
  0
LINE
  8
0
 10
116.294
 20
128.695
 11
115.801
 21
128.368
  0
LINE
  8
0
 10
115.801
 20
128.368
 11
108.699
 21
124.268
  0
LINE
  8
0
 10
108.699
 20
124.268
 11
108.17
 21
124.004
  0
LINE
  8
0
 10
108.17
 20
124.004
 11
107.613
 21
123.805
  0
LINE
  8
0
 10
107.613
 20
123.805
 11
107.035
 21
123.675
  0
LINE
  8
0
 10
107.035
 20
123.675
 11
106.447
 21
123.616
  0
LINE
  8
0
 10
106.447
 20
123.616
 11
105.855
 21
123.628
  0
LINE
  8
0
 10
88.375
 20
167.671
 11
89.0703
 21
168.297
  0
LINE
  8
0
 10
89.0703
 20
168.297
 11
89.4508
 21
169.152
  0
LINE
  8
0
 10
89.4508
 20
169.152
 11
89.4508
 21
170.087
  0
LINE
  8
0
 10
89.4508
 20
170.087
 11
89.0703
 21
170.942
  0
LINE
  8
0
 10
89.0703
 20
170.942
 11
88.375
 21
171.568
  0
LINE
  8
0
 10
88.375
 20
171.568
 11
87.4852
 21
171.857
  0
LINE
  8
0
 10
87.4852
 20
171.857
 11
86.5547
 21
171.759
  0
LINE
  8
0
 10
86.5547
 20
171.759
 11
85.7444
 21
171.292
  0
LINE
  8
0
 10
85.7444
 20
171.292
 11
85.1945
 21
170.535
  0
LINE
  8
0
 10
85.1945
 20
170.535
 11
85
 21
169.62
  0
LINE
  8
0
 10
85
 20
169.62
 11
85.1945
 21
168.704
  0
LINE
  8
0
 10
85.1945
 20
168.704
 11
85.7444
 21
167.947
  0
LINE
  8
0
 10
85.7444
 20
167.947
 11
86.5547
 21
167.48
  0
LINE
  8
0
 10
86.5547
 20
167.48
 11
87.4852
 21
167.382
  0
LINE
  8
0
 10
87.4852
 20
167.382
 11
88.375
 21
167.671
  0
LINE
  8
0
 10
117.087
 20
159.549
 11
117.942
 21
159.93
  0
LINE
  8
0
 10
117.942
 20
159.93
 11
118.568
 21
160.625
  0
LINE
  8
0
 10
118.568
 20
160.625
 11
118.857
 21
161.515
  0
LINE
  8
0
 10
118.857
 20
161.515
 11
118.759
 21
162.445
  0
LINE
  8
0
 10
118.759
 20
162.445
 11
118.292
 21
163.256
  0
LINE
  8
0
 10
118.292
 20
163.256
 11
117.535
 21
163.805
  0
LINE
  8
0
 10
117.535
 20
163.805
 11
116.62
 21
164
  0
LINE
  8
0
 10
116.62
 20
164
 11
115.704
 21
163.805
  0
LINE
  8
0
 10
115.704
 20
163.805
 11
114.947
 21
163.256
  0
LINE
  8
0
 10
114.947
 20
163.256
 11
114.48
 21
162.445
  0
LINE
  8
0
 10
114.48
 20
162.445
 11
114.382
 21
161.515
  0
LINE
  8
0
 10
114.382
 20
161.515
 11
114.671
 21
160.625
  0
LINE
  8
0
 10
114.671
 20
160.625
 11
115.297
 21
159.93
  0
LINE
  8
0
 10
115.297
 20
159.93
 11
116.152
 21
159.549
  0
LINE
  8
0
 10
116.152
 20
159.549
 11
117.087
 21
159.549
  0
LINE
  8
0
 10
99.2
 20
148.922
 11
100.318
 21
150.379
  0
LINE
  8
0
 10
100.318
 20
150.379
 11
100.078
 21
152.2
  0
LINE
  8
0
 10
100.078
 20
152.2
 11
98.6212
 21
153.318
  0
LINE
  8
0
 10
98.6212
 20
153.318
 11
96.8
 21
153.078
  0
LINE
  8
0
 10
96.8
 20
153.078
 11
95.6818
 21
151.621
  0
LINE
  8
0
 10
95.6818
 20
151.621
 11
95.9215
 21
149.8
  0
LINE
  8
0
 10
95.9215
 20
149.8
 11
97.3788
 21
148.682
  0
LINE
  8
0
 10
97.3788
 20
148.682
 11
99.2
 21
148.922
  0
LINE
  8
0
 10
79.8483
 20
138.049
 11
80.703
 21
138.43
  0
LINE
  8
0
 10
80.703
 20
138.43
 11
81.329
 21
139.125
  0
LINE
  8
0
 10
81.329
 20
139.125
 11
81.6181
 21
140.015
  0
LINE
  8
0
 10
81.6181
 20
140.015
 11
81.5203
 21
140.945
  0
LINE
  8
0
 10
81.5203
 20
140.945
 11
81.0525
 21
141.756
  0
LINE
  8
0
 10
81.0525
 20
141.756
 11
80.2956
 21
142.305
  0
LINE
  8
0
 10
80.2956
 20
142.305
 11
79.3804
 21
142.5
  0
LINE
  8
0
 10
79.3804
 20
142.5
 11
78.4653
 21
142.305
  0
LINE
  8
0
 10
78.4653
 20
142.305
 11
77.7084
 21
141.756
  0
LINE
  8
0
 10
77.7084
 20
141.756
 11
77.2406
 21
140.945
  0
LINE
  8
0
 10
77.2406
 20
140.945
 11
77.1428
 21
140.015
  0
LINE
  8
0
 10
77.1428
 20
140.015
 11
77.4319
 21
139.125
  0
LINE
  8
0
 10
77.4319
 20
139.125
 11
78.0579
 21
138.43
  0
LINE
  8
0
 10
78.0579
 20
138.43
 11
78.9126
 21
138.049
  0
LINE
  8
0
 10
78.9126
 20
138.049
 11
79.8483
 21
138.049
  0
LINE
  8
0
 10
109.875
 20
130.432
 11
110.57
 21
131.058
  0
LINE
  8
0
 10
110.57
 20
131.058
 11
110.951
 21
131.913
  0
LINE
  8
0
 10
110.951
 20
131.913
 11
110.951
 21
132.848
  0
LINE
  8
0
 10
110.951
 20
132.848
 11
110.57
 21
133.703
  0
LINE
  8
0
 10
110.57
 20
133.703
 11
109.875
 21
134.329
  0
LINE
  8
0
 10
109.875
 20
134.329
 11
108.985
 21
134.618
  0
LINE
  8
0
 10
108.985
 20
134.618
 11
108.055
 21
134.52
  0
LINE
  8
0
 10
108.055
 20
134.52
 11
107.244
 21
134.053
  0
LINE
  8
0
 10
107.244
 20
134.053
 11
106.695
 21
133.296
  0
LINE
  8
0
 10
106.695
 20
133.296
 11
106.5
 21
132.38
  0
LINE
  8
0
 10
106.5
 20
132.38
 11
106.695
 21
131.465
  0
LINE
  8
0
 10
106.695
 20
131.465
 11
107.244
 21
130.708
  0
LINE
  8
0
 10
107.244
 20
130.708
 11
108.055
 21
130.241
  0
LINE
  8
0
 10
108.055
 20
130.241
 11
108.985
 21
130.143
  0
LINE
  8
0
 10
108.985
 20
130.143
 11
109.875
 21
130.432
  0
LINE
  8
0
 10
-190
 20
138
 11
-186.9
 21
138
  0
LINE
  8
0
 10
-186.9
 20
138
 11
-186.309
 21
138.036
  0
LINE
  8
0
 10
-186.309
 20
138.036
 11
-185.727
 21
138.142
  0
LINE
  8
0
 10
-185.727
 20
138.142
 11
-185.162
 21
138.318
  0
LINE
  8
0
 10
-185.162
 20
138.318
 11
-184.623
 21
138.561
  0
LINE
  8
0
 10
-184.623
 20
138.561
 11
-184.116
 21
138.867
  0
LINE
  8
0
 10
-184.116
 20
138.867
 11
-183.651
 21
139.232
  0
LINE
  8
0
 10
-183.651
 20
139.232
 11
-183.232
 21
139.651
  0
LINE
  8
0
 10
-183.232
 20
139.651
 11
-182.867
 21
140.116
  0
LINE
  8
0
 10
-182.867
 20
140.116
 11
-182.561
 21
140.623
  0
LINE
  8
0
 10
-182.561
 20
140.623
 11
-182.318
 21
141.162
  0
LINE
  8
0
 10
-182.318
 20
141.162
 11
-182.142
 21
141.727
  0
LINE
  8
0
 10
-182.142
 20
141.727
 11
-182.036
 21
142.309
  0
LINE
  8
0
 10
-182.036
 20
142.309
 11
-182
 21
142.9
  0
LINE
  8
0
 10
-182
 20
142.9
 11
-182
 21
151
  0
LINE
  8
0
 10
-182
 20
151
 11
-173.9
 21
151
  0
LINE
  8
0
 10
-173.9
 20
151
 11
-173.309
 21
151.036
  0
LINE
  8
0
 10
-173.309
 20
151.036
 11
-172.727
 21
151.142
  0
LINE
  8
0
 10
-172.727
 20
151.142
 11
-172.162
 21
151.318
  0
LINE
  8
0
 10
-172.162
 20
151.318
 11
-171.623
 21
151.561
  0
LINE
  8
0
 10
-171.623
 20
151.561
 11
-171.116
 21
151.867
  0
LINE
  8
0
 10
-171.116
 20
151.867
 11
-170.651
 21
152.232
  0
LINE
  8
0
 10
-170.651
 20
152.232
 11
-170.232
 21
152.651
  0
LINE
  8
0
 10
-170.232
 20
152.651
 11
-169.867
 21
153.116
  0
LINE
  8
0
 10
-169.867
 20
153.116
 11
-169.561
 21
153.623
  0
LINE
  8
0
 10
-169.561
 20
153.623
 11
-169.318
 21
154.162
  0
LINE
  8
0
 10
-169.318
 20
154.162
 11
-169.142
 21
154.727
  0
LINE
  8
0
 10
-169.142
 20
154.727
 11
-169.036
 21
155.309
  0
LINE
  8
0
 10
-169.036
 20
155.309
 11
-169
 21
155.9
  0
LINE
  8
0
 10
-169
 20
155.9
 11
-169
 21
164.1
  0
LINE
  8
0
 10
-169
 20
164.1
 11
-169.036
 21
164.691
  0
LINE
  8
0
 10
-169.036
 20
164.691
 11
-169.142
 21
165.273
  0
LINE
  8
0
 10
-169.142
 20
165.273
 11
-169.318
 21
165.838
  0
LINE
  8
0
 10
-169.318
 20
165.838
 11
-169.561
 21
166.377
  0
LINE
  8
0
 10
-169.561
 20
166.377
 11
-169.867
 21
166.884
  0
LINE
  8
0
 10
-169.867
 20
166.884
 11
-170.232
 21
167.349
  0
LINE
  8
0
 10
-170.232
 20
167.349
 11
-170.651
 21
167.768
  0
LINE
  8
0
 10
-170.651
 20
167.768
 11
-171.116
 21
168.133
  0
LINE
  8
0
 10
-171.116
 20
168.133
 11
-171.623
 21
168.439
  0
LINE
  8
0
 10
-171.623
 20
168.439
 11
-172.162
 21
168.682
  0
LINE
  8
0
 10
-172.162
 20
168.682
 11
-172.727
 21
168.858
  0
LINE
  8
0
 10
-172.727
 20
168.858
 11
-173.309
 21
168.964
  0
LINE
  8
0
 10
-173.309
 20
168.964
 11
-173.9
 21
169
  0
LINE
  8
0
 10
-173.9
 20
169
 11
-182
 21
169
  0
LINE
  8
0
 10
-182
 20
169
 11
-182
 21
177.1
  0
LINE
  8
0
 10
-182
 20
177.1
 11
-182.036
 21
177.691
  0
LINE
  8
0
 10
-182.036
 20
177.691
 11
-182.142
 21
178.273
  0
LINE
  8
0
 10
-182.142
 20
178.273
 11
-182.318
 21
178.838
  0
LINE
  8
0
 10
-182.318
 20
178.838
 11
-182.561
 21
179.377
  0
LINE
  8
0
 10
-182.561
 20
179.377
 11
-182.867
 21
179.884
  0
LINE
  8
0
 10
-182.867
 20
179.884
 11
-183.232
 21
180.349
  0
LINE
  8
0
 10
-183.232
 20
180.349
 11
-183.651
 21
180.768
  0
LINE
  8
0
 10
-183.651
 20
180.768
 11
-184.116
 21
181.133
  0
LINE
  8
0
 10
-184.116
 20
181.133
 11
-184.623
 21
181.439
  0
LINE
  8
0
 10
-184.623
 20
181.439
 11
-185.162
 21
181.682
  0
LINE
  8
0
 10
-185.162
 20
181.682
 11
-185.727
 21
181.858
  0
LINE
  8
0
 10
-185.727
 20
181.858
 11
-186.309
 21
181.964
  0
LINE
  8
0
 10
-186.309
 20
181.964
 11
-186.9
 21
182
  0
LINE
  8
0
 10
-186.9
 20
182
 11
-190
 21
182
  0
LINE
  8
0
 10
-190
 20
182
 11
-190
 21
187
  0
LINE
  8
0
 10
-190
 20
187
 11
-192
 21
187
  0
LINE
  8
0
 10
-192
 20
187
 11
-192
 21
182
  0
LINE
  8
0
 10
-192
 20
182
 11
-195.1
 21
182
  0
LINE
  8
0
 10
-195.1
 20
182
 11
-195.691
 21
181.964
  0
LINE
  8
0
 10
-195.691
 20
181.964
 11
-196.273
 21
181.858
  0
LINE
  8
0
 10
-196.273
 20
181.858
 11
-196.838
 21
181.682
  0
LINE
  8
0
 10
-196.838
 20
181.682
 11
-197.377
 21
181.439
  0
LINE
  8
0
 10
-197.377
 20
181.439
 11
-197.883
 21
181.133
  0
LINE
  8
0
 10
-197.883
 20
181.133
 11
-198.349
 21
180.768
  0
LINE
  8
0
 10
-198.349
 20
180.768
 11
-198.768
 21
180.349
  0
LINE
  8
0
 10
-198.768
 20
180.349
 11
-199.133
 21
179.884
  0
LINE
  8
0
 10
-199.133
 20
179.884
 11
-199.439
 21
179.377
  0
LINE
  8
0
 10
-199.439
 20
179.377
 11
-199.682
 21
178.838
  0
LINE
  8
0
 10
-199.682
 20
178.838
 11
-199.858
 21
178.273
  0
LINE
  8
0
 10
-199.858
 20
178.273
 11
-199.964
 21
177.691
  0
LINE
  8
0
 10
-199.964
 20
177.691
 11
-200
 21
177.1
  0
LINE
  8
0
 10
-200
 20
177.1
 11
-200
 21
169
  0
LINE
  8
0
 10
-200
 20
169
 11
-208.1
 21
169
  0
LINE
  8
0
 10
-208.1
 20
169
 11
-208.691
 21
168.964
  0
LINE
  8
0
 10
-208.691
 20
168.964
 11
-209.273
 21
168.858
  0
LINE
  8
0
 10
-209.273
 20
168.858
 11
-209.838
 21
168.682
  0
LINE
  8
0
 10
-209.838
 20
168.682
 11
-210.377
 21
168.439
  0
LINE
  8
0
 10
-210.377
 20
168.439
 11
-210.883
 21
168.133
  0
LINE
  8
0
 10
-210.883
 20
168.133
 11
-211.349
 21
167.768
  0
LINE
  8
0
 10
-211.349
 20
167.768
 11
-211.768
 21
167.349
  0
LINE
  8
0
 10
-211.768
 20
167.349
 11
-212.133
 21
166.884
  0
LINE
  8
0
 10
-212.133
 20
166.884
 11
-212.439
 21
166.377
  0
LINE
  8
0
 10
-212.439
 20
166.377
 11
-212.682
 21
165.838
  0
LINE
  8
0
 10
-212.682
 20
165.838
 11
-212.858
 21
165.273
  0
LINE
  8
0
 10
-212.858
 20
165.273
 11
-212.964
 21
164.691
  0
LINE
  8
0
 10
-212.964
 20
164.691
 11
-213
 21
164.1
  0
LINE
  8
0
 10
-213
 20
164.1
 11
-213
 21
155.9
  0
LINE
  8
0
 10
-213
 20
155.9
 11
-212.964
 21
155.309
  0
LINE
  8
0
 10
-212.964
 20
155.309
 11
-212.858
 21
154.727
  0
LINE
  8
0
 10
-212.858
 20
154.727
 11
-212.682
 21
154.162
  0
LINE
  8
0
 10
-212.682
 20
154.162
 11
-212.439
 21
153.623
  0
LINE
  8
0
 10
-212.439
 20
153.623
 11
-212.133
 21
153.116
  0
LINE
  8
0
 10
-212.133
 20
153.116
 11
-211.768
 21
152.651
  0
LINE
  8
0
 10
-211.768
 20
152.651
 11
-211.349
 21
152.232
  0
LINE
  8
0
 10
-211.349
 20
152.232
 11
-210.883
 21
151.867
  0
LINE
  8
0
 10
-210.883
 20
151.867
 11
-210.377
 21
151.561
  0
LINE
  8
0
 10
-210.377
 20
151.561
 11
-209.838
 21
151.318
  0
LINE
  8
0
 10
-209.838
 20
151.318
 11
-209.273
 21
151.142
  0
LINE
  8
0
 10
-209.273
 20
151.142
 11
-208.691
 21
151.036
  0
LINE
  8
0
 10
-208.691
 20
151.036
 11
-208.1
 21
151
  0
LINE
  8
0
 10
-208.1
 20
151
 11
-200
 21
151
  0
LINE
  8
0
 10
-200
 20
151
 11
-200
 21
142.9
  0
LINE
  8
0
 10
-200
 20
142.9
 11
-199.964
 21
142.309
  0
LINE
  8
0
 10
-199.964
 20
142.309
 11
-199.858
 21
141.727
  0
LINE
  8
0
 10
-199.858
 20
141.727
 11
-199.682
 21
141.162
  0
LINE
  8
0
 10
-199.682
 20
141.162
 11
-199.439
 21
140.623
  0
LINE
  8
0
 10
-199.439
 20
140.623
 11
-199.133
 21
140.116
  0
LINE
  8
0
 10
-199.133
 20
140.116
 11
-198.768
 21
139.651
  0
LINE
  8
0
 10
-198.768
 20
139.651
 11
-198.349
 21
139.232
  0
LINE
  8
0
 10
-198.349
 20
139.232
 11
-197.883
 21
138.867
  0
LINE
  8
0
 10
-197.883
 20
138.867
 11
-197.377
 21
138.561
  0
LINE
  8
0
 10
-197.377
 20
138.561
 11
-196.838
 21
138.318
  0
LINE
  8
0
 10
-196.838
 20
138.318
 11
-196.273
 21
138.142
  0
LINE
  8
0
 10
-196.273
 20
138.142
 11
-195.691
 21
138.036
  0
LINE
  8
0
 10
-195.691
 20
138.036
 11
-195.1
 21
138
  0
LINE
  8
0
 10
-195.1
 20
138
 11
-192
 21
138
  0
LINE
  8
0
 10
-192
 20
138
 11
-192
 21
133
  0
LINE
  8
0
 10
-192
 20
133
 11
-190
 21
133
  0
LINE
  8
0
 10
-190
 20
133
 11
-190
 21
138
  0
LINE
  8
0
 10
-191.468
 20
172.799
 11
-192.322
 21
173.18
  0
LINE
  8
0
 10
-192.322
 20
173.18
 11
-192.949
 21
173.875
  0
LINE
  8
0
 10
-192.949
 20
173.875
 11
-193.238
 21
174.765
  0
LINE
  8
0
 10
-193.238
 20
174.765
 11
-193.14
 21
175.695
  0
LINE
  8
0
 10
-193.14
 20
175.695
 11
-192.672
 21
176.506
  0
LINE
  8
0
 10
-192.672
 20
176.506
 11
-191.915
 21
177.055
  0
LINE
  8
0
 10
-191.915
 20
177.055
 11
-191
 21
177.25
  0
LINE
  8
0
 10
-191
 20
177.25
 11
-190.085
 21
177.055
  0
LINE
  8
0
 10
-190.085
 20
177.055
 11
-189.328
 21
176.506
  0
LINE
  8
0
 10
-189.328
 20
176.506
 11
-188.86
 21
175.695
  0
LINE
  8
0
 10
-188.86
 20
175.695
 11
-188.762
 21
174.765
  0
LINE
  8
0
 10
-188.762
 20
174.765
 11
-189.051
 21
173.875
  0
LINE
  8
0
 10
-189.051
 20
173.875
 11
-189.677
 21
173.18
  0
LINE
  8
0
 10
-189.677
 20
173.18
 11
-190.532
 21
172.799
  0
LINE
  8
0
 10
-190.532
 20
172.799
 11
-191.468
 21
172.799
  0
LINE
  8
0
 10
-206.695
 20
157.86
 11
-207.506
 21
158.328
  0
LINE
  8
0
 10
-207.506
 20
158.328
 11
-208.055
 21
159.085
  0
LINE
  8
0
 10
-208.055
 20
159.085
 11
-208.25
 21
160
  0
LINE
  8
0
 10
-208.25
 20
160
 11
-208.055
 21
160.915
  0
LINE
  8
0
 10
-208.055
 20
160.915
 11
-207.506
 21
161.672
  0
LINE
  8
0
 10
-207.506
 20
161.672
 11
-206.695
 21
162.14
  0
LINE
  8
0
 10
-206.695
 20
162.14
 11
-205.765
 21
162.238
  0
LINE
  8
0
 10
-205.765
 20
162.238
 11
-204.875
 21
161.949
  0
LINE
  8
0
 10
-204.875
 20
161.949
 11
-204.18
 21
161.323
  0
LINE
  8
0
 10
-204.18
 20
161.323
 11
-203.799
 21
160.468
  0
LINE
  8
0
 10
-203.799
 20
160.468
 11
-203.799
 21
159.532
  0
LINE
  8
0
 10
-203.799
 20
159.532
 11
-204.18
 21
158.677
  0
LINE
  8
0
 10
-204.18
 20
158.677
 11
-204.875
 21
158.051
  0
LINE
  8
0
 10
-204.875
 20
158.051
 11
-205.765
 21
157.762
  0
LINE
  8
0
 10
-205.765
 20
157.762
 11
-206.695
 21
157.86
  0
LINE
  8
0
 10
-176.695
 20
157.86
 11
-177.506
 21
158.328
  0
LINE
  8
0
 10
-177.506
 20
158.328
 11
-178.055
 21
159.085
  0
LINE
  8
0
 10
-178.055
 20
159.085
 11
-178.25
 21
160
  0
LINE
  8
0
 10
-178.25
 20
160
 11
-178.055
 21
160.915
  0
LINE
  8
0
 10
-178.055
 20
160.915
 11
-177.506
 21
161.672
  0
LINE
  8
0
 10
-177.506
 20
161.672
 11
-176.695
 21
162.14
  0
LINE
  8
0
 10
-176.695
 20
162.14
 11
-175.765
 21
162.238
  0
LINE
  8
0
 10
-175.765
 20
162.238
 11
-174.875
 21
161.949
  0
LINE
  8
0
 10
-174.875
 20
161.949
 11
-174.18
 21
161.323
  0
LINE
  8
0
 10
-174.18
 20
161.323
 11
-173.799
 21
160.468
  0
LINE
  8
0
 10
-173.799
 20
160.468
 11
-173.799
 21
159.532
  0
LINE
  8
0
 10
-173.799
 20
159.532
 11
-174.18
 21
158.677
  0
LINE
  8
0
 10
-174.18
 20
158.677
 11
-174.875
 21
158.051
  0
LINE
  8
0
 10
-174.875
 20
158.051
 11
-175.765
 21
157.762
  0
LINE
  8
0
 10
-175.765
 20
157.762
 11
-176.695
 21
157.86
  0
LINE
  8
0
 10
-191.468
 20
142.799
 11
-192.322
 21
143.18
  0
LINE
  8
0
 10
-192.322
 20
143.18
 11
-192.949
 21
143.875
  0
LINE
  8
0
 10
-192.949
 20
143.875
 11
-193.238
 21
144.765
  0
LINE
  8
0
 10
-193.238
 20
144.765
 11
-193.14
 21
145.695
  0
LINE
  8
0
 10
-193.14
 20
145.695
 11
-192.672
 21
146.506
  0
LINE
  8
0
 10
-192.672
 20
146.506
 11
-191.915
 21
147.055
  0
LINE
  8
0
 10
-191.915
 20
147.055
 11
-191
 21
147.25
  0
LINE
  8
0
 10
-191
 20
147.25
 11
-190.085
 21
147.055
  0
LINE
  8
0
 10
-190.085
 20
147.055
 11
-189.328
 21
146.506
  0
LINE
  8
0
 10
-189.328
 20
146.506
 11
-188.86
 21
145.695
  0
LINE
  8
0
 10
-188.86
 20
145.695
 11
-188.762
 21
144.765
  0
LINE
  8
0
 10
-188.762
 20
144.765
 11
-189.051
 21
143.875
  0
LINE
  8
0
 10
-189.051
 20
143.875
 11
-189.677
 21
143.18
  0
LINE
  8
0
 10
-189.677
 20
143.18
 11
-190.532
 21
142.799
  0
LINE
  8
0
 10
-190.532
 20
142.799
 11
-191.468
 21
142.799
  0
LINE
  8
0
 10
228.763
 20
106.6
 11
229.346
 21
106.696
  0
LINE
  8
0
 10
229.346
 20
106.696
 11
229.915
 21
106.861
  0
LINE
  8
0
 10
229.915
 20
106.861
 11
230.459
 21
107.093
  0
LINE
  8
0
 10
230.459
 20
107.093
 11
230.971
 21
107.389
  0
LINE
  8
0
 10
230.971
 20
107.389
 11
237.809
 21
111.915
  0
LINE
  8
0
 10
237.809
 20
111.915
 11
238.282
 21
112.271
  0
LINE
  8
0
 10
238.282
 20
112.271
 11
238.708
 21
112.681
  0
LINE
  8
0
 10
238.708
 20
112.681
 11
239.082
 21
113.139
  0
LINE
  8
0
 10
239.082
 20
113.139
 11
239.398
 21
113.64
  0
LINE
  8
0
 10
239.398
 20
113.64
 11
239.651
 21
114.175
  0
LINE
  8
0
 10
239.651
 20
114.175
 11
239.838
 21
114.736
  0
LINE
  8
0
 10
239.838
 20
114.736
 11
239.956
 21
115.316
  0
LINE
  8
0
 10
239.956
 20
115.316
 11
240.004
 21
115.906
  0
LINE
  8
0
 10
240.004
 20
115.906
 11
239.979
 21
116.497
  0
LINE
  8
0
 10
239.979
 20
116.497
 11
239.884
 21
117.081
  0
LINE
  8
0
 10
239.884
 20
117.081
 11
239.719
 21
117.649
  0
LINE
  8
0
 10
239.719
 20
117.649
 11
239.487
 21
118.193
  0
LINE
  8
0
 10
239.487
 20
118.193
 11
239.191
 21
118.705
  0
LINE
  8
0
 10
239.191
 20
118.705
 11
234.72
 21
125.46
  0
LINE
  8
0
 10
234.72
 20
125.46
 11
241.474
 21
129.931
  0
LINE
  8
0
 10
241.474
 20
129.931
 11
241.947
 21
130.286
  0
LINE
  8
0
 10
241.947
 20
130.286
 11
242.374
 21
130.697
  0
LINE
  8
0
 10
242.374
 20
130.697
 11
242.748
 21
131.155
  0
LINE
  8
0
 10
242.748
 20
131.155
 11
243.063
 21
131.655
  0
LINE
  8
0
 10
243.063
 20
131.655
 11
243.317
 21
132.19
  0
LINE
  8
0
 10
243.317
 20
132.19
 11
243.504
 21
132.752
  0
LINE
  8
0
 10
243.504
 20
132.752
 11
243.622
 21
133.331
  0
LINE
  8
0
 10
243.622
 20
133.331
 11
243.669
 21
133.921
  0
LINE
  8
0
 10
243.669
 20
133.921
 11
243.645
 21
134.512
  0
LINE
  8
0
 10
243.645
 20
134.512
 11
243.549
 21
135.096
  0
LINE
  8
0
 10
243.549
 20
135.096
 11
243.384
 21
135.665
  0
LINE
  8
0
 10
243.384
 20
135.665
 11
243.152
 21
136.209
  0
LINE
  8
0
 10
243.152
 20
136.209
 11
242.856
 21
136.721
  0
LINE
  8
0
 10
242.856
 20
136.721
 11
238.33
 21
143.559
  0
LINE
  8
0
 10
238.33
 20
143.559
 11
237.974
 21
144.032
  0
LINE
  8
0
 10
237.974
 20
144.032
 11
237.564
 21
144.458
  0
LINE
  8
0
 10
237.564
 20
144.458
 11
237.105
 21
144.832
  0
LINE
  8
0
 10
237.105
 20
144.832
 11
236.605
 21
145.148
  0
LINE
  8
0
 10
236.605
 20
145.148
 11
236.07
 21
145.401
  0
LINE
  8
0
 10
236.07
 20
145.401
 11
235.509
 21
145.588
  0
LINE
  8
0
 10
235.509
 20
145.588
 11
234.929
 21
145.706
  0
LINE
  8
0
 10
234.929
 20
145.706
 11
234.339
 21
145.754
  0
LINE
  8
0
 10
234.339
 20
145.754
 11
233.748
 21
145.729
  0
LINE
  8
0
 10
233.748
 20
145.729
 11
233.164
 21
145.634
  0
LINE
  8
0
 10
233.164
 20
145.634
 11
232.596
 21
145.469
  0
LINE
  8
0
 10
232.596
 20
145.469
 11
232.052
 21
145.237
  0
LINE
  8
0
 10
232.052
 20
145.237
 11
231.54
 21
144.941
  0
LINE
  8
0
 10
231.54
 20
144.941
 11
224.785
 21
140.47
  0
LINE
  8
0
 10
224.785
 20
140.47
 11
220.314
 21
147.224
  0
LINE
  8
0
 10
220.314
 20
147.224
 11
219.959
 21
147.697
  0
LINE
  8
0
 10
219.959
 20
147.697
 11
219.548
 21
148.124
  0
LINE
  8
0
 10
219.548
 20
148.124
 11
219.09
 21
148.497
  0
LINE
  8
0
 10
219.09
 20
148.497
 11
218.589
 21
148.813
  0
LINE
  8
0
 10
218.589
 20
148.813
 11
218.055
 21
149.067
  0
LINE
  8
0
 10
218.055
 20
149.067
 11
217.493
 21
149.254
  0
LINE
  8
0
 10
217.493
 20
149.254
 11
216.914
 21
149.372
  0
LINE
  8
0
 10
216.914
 20
149.372
 11
216.324
 21
149.419
  0
LINE
  8
0
 10
216.324
 20
149.419
 11
215.732
 21
149.395
  0
LINE
  8
0
 10
215.732
 20
149.395
 11
215.148
 21
149.299
  0
LINE
  8
0
 10
215.148
 20
149.299
 11
214.58
 21
149.134
  0
LINE
  8
0
 10
214.58
 20
149.134
 11
214.036
 21
148.902
  0
LINE
  8
0
 10
214.036
 20
148.902
 11
213.524
 21
148.606
  0
LINE
  8
0
 10
213.524
 20
148.606
 11
206.686
 21
144.08
  0
LINE
  8
0
 10
206.686
 20
144.08
 11
206.213
 21
143.724
  0
LINE
  8
0
 10
206.213
 20
143.724
 11
205.787
 21
143.314
  0
LINE
  8
0
 10
205.787
 20
143.314
 11
205.413
 21
142.855
  0
LINE
  8
0
 10
205.413
 20
142.855
 11
205.097
 21
142.355
  0
LINE
  8
0
 10
205.097
 20
142.355
 11
204.844
 21
141.82
  0
LINE
  8
0
 10
204.844
 20
141.82
 11
204.657
 21
141.259
  0
LINE
  8
0
 10
204.657
 20
141.259
 11
204.539
 21
140.679
  0
LINE
  8
0
 10
204.539
 20
140.679
 11
204.491
 21
140.089
  0
LINE
  8
0
 10
204.491
 20
140.089
 11
204.516
 21
139.498
  0
LINE
  8
0
 10
204.516
 20
139.498
 11
204.611
 21
138.914
  0
LINE
  8
0
 10
204.611
 20
138.914
 11
204.776
 21
138.346
  0
LINE
  8
0
 10
204.776
 20
138.346
 11
205.008
 21
137.802
  0
LINE
  8
0
 10
205.008
 20
137.802
 11
205.304
 21
137.289
  0
LINE
  8
0
 10
205.304
 20
137.289
 11
209.775
 21
130.535
  0
LINE
  8
0
 10
209.775
 20
130.535
 11
203.021
 21
126.064
  0
LINE
  8
0
 10
203.021
 20
126.064
 11
202.548
 21
125.709
  0
LINE
  8
0
 10
202.548
 20
125.709
 11
202.121
 21
125.298
  0
LINE
  8
0
 10
202.121
 20
125.298
 11
201.747
 21
124.84
  0
LINE
  8
0
 10
201.747
 20
124.84
 11
201.432
 21
124.339
  0
LINE
  8
0
 10
201.432
 20
124.339
 11
201.178
 21
123.805
  0
LINE
  8
0
 10
201.178
 20
123.805
 11
200.991
 21
123.243
  0
LINE
  8
0
 10
200.991
 20
123.243
 11
200.873
 21
122.663
  0
LINE
  8
0
 10
200.873
 20
122.663
 11
200.826
 21
122.074
  0
LINE
  8
0
 10
200.826
 20
122.074
 11
200.85
 21
121.482
  0
LINE
  8
0
 10
200.85
 20
121.482
 11
200.946
 21
120.898
  0
LINE
  8
0
 10
200.946
 20
120.898
 11
201.111
 21
120.33
  0
LINE
  8
0
 10
201.111
 20
120.33
 11
201.343
 21
119.786
  0
LINE
  8
0
 10
201.343
 20
119.786
 11
201.639
 21
119.274
  0
LINE
  8
0
 10
201.639
 20
119.274
 11
203.35
 21
116.689
  0
LINE
  8
0
 10
203.35
 20
116.689
 11
199.181
 21
113.929
  0
LINE
  8
0
 10
199.181
 20
113.929
 11
200.285
 21
112.261
  0
LINE
  8
0
 10
200.285
 20
112.261
 11
204.454
 21
115.021
  0
LINE
  8
0
 10
204.454
 20
115.021
 11
206.165
 21
112.436
  0
LINE
  8
0
 10
206.165
 20
112.436
 11
206.521
 21
111.963
  0
LINE
  8
0
 10
206.521
 20
111.963
 11
206.931
 21
111.537
  0
LINE
  8
0
 10
206.931
 20
111.537
 11
207.39
 21
111.163
  0
LINE
  8
0
 10
207.39
 20
111.163
 11
207.89
 21
110.847
  0
LINE
  8
0
 10
207.89
 20
110.847
 11
208.425
 21
110.594
  0
LINE
  8
0
 10
208.425
 20
110.594
 11
208.986
 21
110.407
  0
LINE
  8
0
 10
208.986
 20
110.407
 11
209.566
 21
110.289
  0
LINE
  8
0
 10
209.566
 20
110.289
 11
210.156
 21
110.241
  0
LINE
  8
0
 10
210.156
 20
110.241
 11
210.747
 21
110.266
  0
LINE
  8
0
 10
210.747
 20
110.266
 11
211.331
 21
110.361
  0
LINE
  8
0
 10
211.331
 20
110.361
 11
211.899
 21
110.526
  0
LINE
  8
0
 10
211.899
 20
110.526
 11
212.443
 21
110.758
  0
LINE
  8
0
 10
212.443
 20
110.758
 11
212.956
 21
111.054
  0
LINE
  8
0
 10
212.956
 20
111.054
 11
219.71
 21
115.525
  0
LINE
  8
0
 10
219.71
 20
115.525
 11
224.181
 21
108.771
  0
LINE
  8
0
 10
224.181
 20
108.771
 11
224.536
 21
108.298
  0
LINE
  8
0
 10
224.536
 20
108.298
 11
224.947
 21
107.871
  0
LINE
  8
0
 10
224.947
 20
107.871
 11
225.405
 21
107.497
  0
LINE
  8
0
 10
225.405
 20
107.497
 11
225.906
 21
107.181
  0
LINE
  8
0
 10
225.906
 20
107.181
 11
226.44
 21
106.928
  0
LINE
  8
0
 10
226.44
 20
106.928
 11
227.002
 21
106.741
  0
LINE
  8
0
 10
227.002
 20
106.741
 11
227.581
 21
106.623
  0
LINE
  8
0
 10
227.581
 20
106.623
 11
228.171
 21
106.576
  0
LINE
  8
0
 10
228.171
 20
106.576
 11
228.763
 21
106.6
  0
LINE
  8
0
 10
213.405
 20
138.327
 11
212.568
 21
138.745
  0
LINE
  8
0
 10
212.568
 20
138.745
 11
211.973
 21
139.467
  0
LINE
  8
0
 10
211.973
 20
139.467
 11
211.723
 21
140.368
  0
LINE
  8
0
 10
211.723
 20
140.368
 11
211.861
 21
141.294
  0
LINE
  8
0
 10
211.861
 20
141.294
 11
212.364
 21
142.083
  0
LINE
  8
0
 10
212.364
 20
142.083
 11
213.144
 21
142.599
  0
LINE
  8
0
 10
213.144
 20
142.599
 11
214.067
 21
142.754
  0
LINE
  8
0
 10
214.067
 20
142.754
 11
214.972
 21
142.519
  0
LINE
  8
0
 10
214.972
 20
142.519
 11
215.705
 21
141.937
  0
LINE
  8
0
 10
215.705
 20
141.937
 11
216.137
 21
141.107
  0
LINE
  8
0
 10
216.137
 20
141.107
 11
216.194
 21
140.173
  0
LINE
  8
0
 10
216.194
 20
140.173
 11
215.866
 21
139.297
  0
LINE
  8
0
 10
215.866
 20
139.297
 11
215.21
 21
138.629
  0
LINE
  8
0
 10
215.21
 20
138.629
 11
214.34
 21
138.287
  0
LINE
  8
0
 10
214.34
 20
138.287
 11
213.405
 21
138.327
  0
LINE
  8
0
 10
233.547
 20
134.379
 11
232.88
 21
135.035
  0
LINE
  8
0
 10
232.88
 20
135.035
 11
232.537
 21
135.905
  0
LINE
  8
0
 10
232.537
 20
135.905
 11
232.577
 21
136.84
  0
LINE
  8
0
 10
232.577
 20
136.84
 11
232.995
 21
137.677
  0
LINE
  8
0
 10
232.995
 20
137.677
 11
233.717
 21
138.272
  0
LINE
  8
0
 10
233.717
 20
138.272
 11
234.618
 21
138.522
  0
LINE
  8
0
 10
234.618
 20
138.522
 11
235.544
 21
138.384
  0
LINE
  8
0
 10
235.544
 20
138.384
 11
236.333
 21
137.881
  0
LINE
  8
0
 10
236.333
 20
137.881
 11
236.849
 21
137.101
  0
LINE
  8
0
 10
236.849
 20
137.101
 11
237.004
 21
136.178
  0
LINE
  8
0
 10
237.004
 20
136.178
 11
236.769
 21
135.273
  0
LINE
  8
0
 10
236.769
 20
135.273
 11
236.187
 21
134.54
  0
LINE
  8
0
 10
236.187
 20
134.54
 11
235.357
 21
134.108
  0
LINE
  8
0
 10
235.357
 20
134.108
 11
234.423
 21
134.051
  0
LINE
  8
0
 10
234.423
 20
134.051
 11
233.547
 21
134.379
  0
LINE
  8
0
 10
208.53
 20
117.821
 11
207.863
 21
118.477
  0
LINE
  8
0
 10
207.863
 20
118.477
 11
207.52
 21
119.347
  0
LINE
  8
0
 10
207.52
 20
119.347
 11
207.561
 21
120.282
  0
LINE
  8
0
 10
207.561
 20
120.282
 11
207.978
 21
121.119
  0
LINE
  8
0
 10
207.978
 20
121.119
 11
208.7
 21
121.714
  0
LINE
  8
0
 10
208.7
 20
121.714
 11
209.602
 21
121.964
  0
LINE
  8
0
 10
209.602
 20
121.964
 11
210.527
 21
121.826
  0
LINE
  8
0
 10
210.527
 20
121.826
 11
211.316
 21
121.323
  0
LINE
  8
0
 10
211.316
 20
121.323
 11
211.833
 21
120.543
  0
LINE
  8
0
 10
211.833
 20
120.543
 11
211.987
 21
119.62
  0
LINE
  8
0
 10
211.987
 20
119.62
 11
211.753
 21
118.714
  0
LINE
  8
0
 10
211.753
 20
118.714
 11
211.17
 21
117.982
  0
LINE
  8
0
 10
211.17
 20
117.982
 11
210.34
 21
117.55
  0
LINE
  8
0
 10
210.34
 20
117.55
 11
209.407
 21
117.493
  0
LINE
  8
0
 10
209.407
 20
117.493
 11
208.53
 21
117.821
  0
LINE
  8
0
 10
229.963
 20
113.311
 11
229.126
 21
113.728
  0
LINE
  8
0
 10
229.126
 20
113.728
 11
228.531
 21
114.45
  0
LINE
  8
0
 10
228.531
 20
114.45
 11
228.281
 21
115.352
  0
LINE
  8
0
 10
228.281
 20
115.352
 11
228.419
 21
116.277
  0
LINE
  8
0
 10
228.419
 20
116.277
 11
228.922
 21
117.066
  0
LINE
  8
0
 10
228.922
 20
117.066
 11
229.702
 21
117.583
  0
LINE
  8
0
 10
229.702
 20
117.583
 11
230.625
 21
117.737
  0
LINE
  8
0
 10
230.625
 20
117.737
 11
231.531
 21
117.503
  0
LINE
  8
0
 10
231.531
 20
117.503
 11
232.263
 21
116.92
  0
LINE
  8
0
 10
232.263
 20
116.92
 11
232.695
 21
116.09
  0
LINE
  8
0
 10
232.695
 20
116.09
 11
232.752
 21
115.157
  0
LINE
  8
0
 10
232.752
 20
115.157
 11
232.424
 21
114.28
  0
LINE
  8
0
 10
232.424
 20
114.28
 11
231.768
 21
113.613
  0
LINE
  8
0
 10
231.768
 20
113.613
 11
230.898
 21
113.27
  0
LINE
  8
0
 10
230.898
 20
113.27
 11
229.963
 21
113.311
  0
LINE
  8
0
 10
-226.388
 20
103.965
 11
-223.293
 21
103.803
  0
LINE
  8
0
 10
-223.293
 20
103.803
 11
-222.701
 21
103.808
  0
LINE
  8
0
 10
-222.701
 20
103.808
 11
-222.114
 21
103.884
  0
LINE
  8
0
 10
-222.114
 20
103.884
 11
-221.541
 21
104.03
  0
LINE
  8
0
 10
-221.541
 20
104.03
 11
-220.989
 21
104.244
  0
LINE
  8
0
 10
-220.989
 20
104.244
 11
-220.467
 21
104.523
  0
LINE
  8
0
 10
-220.467
 20
104.523
 11
-219.983
 21
104.863
  0
LINE
  8
0
 10
-219.983
 20
104.863
 11
-219.543
 21
105.259
  0
LINE
  8
0
 10
-219.543
 20
105.259
 11
-219.155
 21
105.705
  0
LINE
  8
0
 10
-219.155
 20
105.705
 11
-218.822
 21
106.195
  0
LINE
  8
0
 10
-218.822
 20
106.195
 11
-218.552
 21
106.721
  0
LINE
  8
0
 10
-218.552
 20
106.721
 11
-218.346
 21
107.276
  0
LINE
  8
0
 10
-218.346
 20
107.276
 11
-218.209
 21
107.852
  0
LINE
  8
0
 10
-218.209
 20
107.852
 11
-218.143
 21
108.44
  0
LINE
  8
0
 10
-218.143
 20
108.44
 11
-217.719
 21
116.529
  0
LINE
  8
0
 10
-217.719
 20
116.529
 11
-209.63
 21
116.105
  0
LINE
  8
0
 10
-209.63
 20
116.105
 11
-209.038
 21
116.109
  0
LINE
  8
0
 10
-209.038
 20
116.109
 11
-208.451
 21
116.186
  0
LINE
  8
0
 10
-208.451
 20
116.186
 11
-207.878
 21
116.332
  0
LINE
  8
0
 10
-207.878
 20
116.332
 11
-207.327
 21
116.546
  0
LINE
  8
0
 10
-207.327
 20
116.546
 11
-206.805
 21
116.825
  0
LINE
  8
0
 10
-206.805
 20
116.825
 11
-206.321
 21
117.165
  0
LINE
  8
0
 10
-206.321
 20
117.165
 11
-205.881
 21
117.561
  0
LINE
  8
0
 10
-205.881
 20
117.561
 11
-205.492
 21
118.007
  0
LINE
  8
0
 10
-205.492
 20
118.007
 11
-205.16
 21
118.497
  0
LINE
  8
0
 10
-205.16
 20
118.497
 11
-204.889
 21
119.023
  0
LINE
  8
0
 10
-204.889
 20
119.023
 11
-204.684
 21
119.578
  0
LINE
  8
0
 10
-204.684
 20
119.578
 11
-204.547
 21
120.154
  0
LINE
  8
0
 10
-204.547
 20
120.154
 11
-204.48
 21
120.742
  0
LINE
  8
0
 10
-204.48
 20
120.742
 11
-204.051
 21
128.93
  0
LINE
  8
0
 10
-204.051
 20
128.93
 11
-204.056
 21
129.522
  0
LINE
  8
0
 10
-204.056
 20
129.522
 11
-204.132
 21
130.109
  0
LINE
  8
0
 10
-204.132
 20
130.109
 11
-204.278
 21
130.682
  0
LINE
  8
0
 10
-204.278
 20
130.682
 11
-204.492
 21
131.234
  0
LINE
  8
0
 10
-204.492
 20
131.234
 11
-204.772
 21
131.755
  0
LINE
  8
0
 10
-204.772
 20
131.755
 11
-205.112
 21
132.24
  0
LINE
  8
0
 10
-205.112
 20
132.24
 11
-205.508
 21
132.679
  0
LINE
  8
0
 10
-205.508
 20
132.679
 11
-205.954
 21
133.068
  0
LINE
  8
0
 10
-205.954
 20
133.068
 11
-206.443
 21
133.4
  0
LINE
  8
0
 10
-206.443
 20
133.4
 11
-206.969
 21
133.671
  0
LINE
  8
0
 10
-206.969
 20
133.671
 11
-207.524
 21
133.876
  0
LINE
  8
0
 10
-207.524
 20
133.876
 11
-208.1
 21
134.013
  0
LINE
  8
0
 10
-208.1
 20
134.013
 11
-208.688
 21
134.08
  0
LINE
  8
0
 10
-208.688
 20
134.08
 11
-216.777
 21
134.504
  0
LINE
  8
0
 10
-216.777
 20
134.504
 11
-216.353
 21
142.593
  0
LINE
  8
0
 10
-216.353
 20
142.593
 11
-216.358
 21
143.185
  0
LINE
  8
0
 10
-216.358
 20
143.185
 11
-216.434
 21
143.771
  0
LINE
  8
0
 10
-216.434
 20
143.771
 11
-216.58
 21
144.345
  0
LINE
  8
0
 10
-216.58
 20
144.345
 11
-216.794
 21
144.896
  0
LINE
  8
0
 10
-216.794
 20
144.896
 11
-217.073
 21
145.418
  0
LINE
  8
0
 10
-217.073
 20
145.418
 11
-217.413
 21
145.902
  0
LINE
  8
0
 10
-217.413
 20
145.902
 11
-217.809
 21
146.342
  0
LINE
  8
0
 10
-217.809
 20
146.342
 11
-218.255
 21
146.731
  0
LINE
  8
0
 10
-218.255
 20
146.731
 11
-218.745
 21
147.063
  0
LINE
  8
0
 10
-218.745
 20
147.063
 11
-219.271
 21
147.334
  0
LINE
  8
0
 10
-219.271
 20
147.334
 11
-219.826
 21
147.539
  0
LINE
  8
0
 10
-219.826
 20
147.539
 11
-220.402
 21
147.676
  0
LINE
  8
0
 10
-220.402
 20
147.676
 11
-220.99
 21
147.743
  0
LINE
  8
0
 10
-220.99
 20
147.743
 11
-229.178
 21
148.172
  0
LINE
  8
0
 10
-229.178
 20
148.172
 11
-229.77
 21
148.167
  0
LINE
  8
0
 10
-229.77
 20
148.167
 11
-230.357
 21
148.091
  0
LINE
  8
0
 10
-230.357
 20
148.091
 11
-230.93
 21
147.945
  0
LINE
  8
0
 10
-230.93
 20
147.945
 11
-231.482
 21
147.73
  0
LINE
  8
0
 10
-231.482
 20
147.73
 11
-232.004
 21
147.451
  0
LINE
  8
0
 10
-232.004
 20
147.451
 11
-232.488
 21
147.111
  0
LINE
  8
0
 10
-232.488
 20
147.111
 11
-232.928
 21
146.715
  0
LINE
  8
0
 10
-232.928
 20
146.715
 11
-233.316
 21
146.269
  0
LINE
  8
0
 10
-233.316
 20
146.269
 11
-233.649
 21
145.78
  0
LINE
  8
0
 10
-233.649
 20
145.78
 11
-233.919
 21
145.253
  0
LINE
  8
0
 10
-233.919
 20
145.253
 11
-234.125
 21
144.699
  0
LINE
  8
0
 10
-234.125
 20
144.699
 11
-234.262
 21
144.123
  0
LINE
  8
0
 10
-234.262
 20
144.123
 11
-234.328
 21
143.535
  0
LINE
  8
0
 10
-234.328
 20
143.535
 11
-234.752
 21
135.446
  0
LINE
  8
0
 10
-234.752
 20
135.446
 11
-242.841
 21
135.87
  0
LINE
  8
0
 10
-242.841
 20
135.87
 11
-243.433
 21
135.865
  0
LINE
  8
0
 10
-243.433
 20
135.865
 11
-244.02
 21
135.789
  0
LINE
  8
0
 10
-244.02
 20
135.789
 11
-244.593
 21
135.643
  0
LINE
  8
0
 10
-244.593
 20
135.643
 11
-245.144
 21
135.429
  0
LINE
  8
0
 10
-245.144
 20
135.429
 11
-245.666
 21
135.149
  0
LINE
  8
0
 10
-245.666
 20
135.149
 11
-246.15
 21
134.809
  0
LINE
  8
0
 10
-246.15
 20
134.809
 11
-246.59
 21
134.413
  0
LINE
  8
0
 10
-246.59
 20
134.413
 11
-246.979
 21
133.967
  0
LINE
  8
0
 10
-246.979
 20
133.967
 11
-247.311
 21
133.478
  0
LINE
  8
0
 10
-247.311
 20
133.478
 11
-247.582
 21
132.952
  0
LINE
  8
0
 10
-247.582
 20
132.952
 11
-247.787
 21
132.397
  0
LINE
  8
0
 10
-247.787
 20
132.397
 11
-247.924
 21
131.821
  0
LINE
  8
0
 10
-247.924
 20
131.821
 11
-247.991
 21
131.233
  0
LINE
  8
0
 10
-247.991
 20
131.233
 11
-248.42
 21
123.044
  0
LINE
  8
0
 10
-248.42
 20
123.044
 11
-248.415
 21
122.453
  0
LINE
  8
0
 10
-248.415
 20
122.453
 11
-248.339
 21
121.866
  0
LINE
  8
0
 10
-248.339
 20
121.866
 11
-248.193
 21
121.292
  0
LINE
  8
0
 10
-248.193
 20
121.292
 11
-247.979
 21
120.741
  0
LINE
  8
0
 10
-247.979
 20
120.741
 11
-247.699
 21
120.219
  0
LINE
  8
0
 10
-247.699
 20
120.219
 11
-247.359
 21
119.735
  0
LINE
  8
0
 10
-247.359
 20
119.735
 11
-246.963
 21
119.295
  0
LINE
  8
0
 10
-246.963
 20
119.295
 11
-246.517
 21
118.906
  0
LINE
  8
0
 10
-246.517
 20
118.906
 11
-246.028
 21
118.574
  0
LINE
  8
0
 10
-246.028
 20
118.574
 11
-245.502
 21
118.304
  0
LINE
  8
0
 10
-245.502
 20
118.304
 11
-244.947
 21
118.098
  0
LINE
  8
0
 10
-244.947
 20
118.098
 11
-244.371
 21
117.961
  0
LINE
  8
0
 10
-244.371
 20
117.961
 11
-243.783
 21
117.895
  0
LINE
  8
0
 10
-243.783
 20
117.895
 11
-235.694
 21
117.471
  0
LINE
  8
0
 10
-235.694
 20
117.471
 11
-236.118
 21
109.382
  0
LINE
  8
0
 10
-236.118
 20
109.382
 11
-236.113
 21
108.79
  0
LINE
  8
0
 10
-236.113
 20
108.79
 11
-236.037
 21
108.203
  0
LINE
  8
0
 10
-236.037
 20
108.203
 11
-235.891
 21
107.63
  0
LINE
  8
0
 10
-235.891
 20
107.63
 11
-235.677
 21
107.078
  0
LINE
  8
0
 10
-235.677
 20
107.078
 11
-235.398
 21
106.557
  0
LINE
  8
0
 10
-235.398
 20
106.557
 11
-235.058
 21
106.072
  0
LINE
  8
0
 10
-235.058
 20
106.072
 11
-234.662
 21
105.633
  0
LINE
  8
0
 10
-234.662
 20
105.633
 11
-234.216
 21
105.244
  0
LINE
  8
0
 10
-234.216
 20
105.244
 11
-233.726
 21
104.912
  0
LINE
  8
0
 10
-233.726
 20
104.912
 11
-233.2
 21
104.641
  0
LINE
  8
0
 10
-233.2
 20
104.641
 11
-232.645
 21
104.436
  0
LINE
  8
0
 10
-232.645
 20
104.436
 11
-232.069
 21
104.299
  0
LINE
  8
0
 10
-232.069
 20
104.299
 11
-231.481
 21
104.232
  0
LINE
  8
0
 10
-231.481
 20
104.232
 11
-228.386
 21
104.07
  0
LINE
  8
0
 10
-228.386
 20
104.07
 11
-228.647
 21
99.0767
  0
LINE
  8
0
 10
-228.647
 20
99.0767
 11
-226.65
 21
98.972
  0
LINE
  8
0
 10
-226.65
 20
98.972
 11
-226.388
 21
103.965
  0
LINE
  8
0
 10
-226.472
 20
138.962
 11
-227.199
 21
139.551
  0
LINE
  8
0
 10
-227.199
 20
139.551
 11
-227.624
 21
140.384
  0
LINE
  8
0
 10
-227.624
 20
140.384
 11
-227.673
 21
141.319
  0
LINE
  8
0
 10
-227.673
 20
141.319
 11
-227.337
 21
142.192
  0
LINE
  8
0
 10
-227.337
 20
142.192
 11
-226.676
 21
142.854
  0
LINE
  8
0
 10
-226.676
 20
142.854
 11
-225.802
 21
143.189
  0
LINE
  8
0
 10
-225.802
 20
143.189
 11
-224.868
 21
143.14
  0
LINE
  8
0
 10
-224.868
 20
143.14
 11
-224.035
 21
142.715
  0
LINE
  8
0
 10
-224.035
 20
142.715
 11
-223.446
 21
141.988
  0
LINE
  8
0
 10
-223.446
 20
141.988
 11
-223.204
 21
141.085
  0
LINE
  8
0
 10
-223.204
 20
141.085
 11
-223.35
 21
140.16
  0
LINE
  8
0
 10
-223.35
 20
140.16
 11
-223.859
 21
139.376
  0
LINE
  8
0
 10
-223.859
 20
139.376
 11
-224.644
 21
138.866
  0
LINE
  8
0
 10
-224.644
 20
138.866
 11
-225.568
 21
138.72
  0
LINE
  8
0
 10
-225.568
 20
138.72
 11
-226.472
 21
138.962
  0
LINE
  8
0
 10
-242.44
 20
124.885
 11
-243.102
 21
125.547
  0
LINE
  8
0
 10
-243.102
 20
125.547
 11
-243.437
 21
126.42
  0
LINE
  8
0
 10
-243.437
 20
126.42
 11
-243.388
 21
127.355
  0
LINE
  8
0
 10
-243.388
 20
127.355
 11
-242.964
 21
128.188
  0
LINE
  8
0
 10
-242.964
 20
128.188
 11
-242.236
 21
128.777
  0
LINE
  8
0
 10
-242.236
 20
128.777
 11
-241.333
 21
129.019
  0
LINE
  8
0
 10
-241.333
 20
129.019
 11
-240.409
 21
128.873
  0
LINE
  8
0
 10
-240.409
 20
128.873
 11
-239.624
 21
128.363
  0
LINE
  8
0
 10
-239.624
 20
128.363
 11
-239.114
 21
127.579
  0
LINE
  8
0
 10
-239.114
 20
127.579
 11
-238.968
 21
126.655
  0
LINE
  8
0
 10
-238.968
 20
126.655
 11
-239.21
 21
125.751
  0
LINE
  8
0
 10
-239.21
 20
125.751
 11
-239.799
 21
125.024
  0
LINE
  8
0
 10
-239.799
 20
125.024
 11
-240.633
 21
124.599
  0
LINE
  8
0
 10
-240.633
 20
124.599
 11
-241.567
 21
124.55
  0
LINE
  8
0
 10
-241.567
 20
124.55
 11
-242.44
 21
124.885
  0
LINE
  8
0
 10
-212.482
 20
123.315
 11
-213.143
 21
123.977
  0
LINE
  8
0
 10
-213.143
 20
123.977
 11
-213.478
 21
124.85
  0
LINE
  8
0
 10
-213.478
 20
124.85
 11
-213.429
 21
125.785
  0
LINE
  8
0
 10
-213.429
 20
125.785
 11
-213.005
 21
126.618
  0
LINE
  8
0
 10
-213.005
 20
126.618
 11
-212.278
 21
127.207
  0
LINE
  8
0
 10
-212.278
 20
127.207
 11
-211.374
 21
127.449
  0
LINE
  8
0
 10
-211.374
 20
127.449
 11
-210.45
 21
127.303
  0
LINE
  8
0
 10
-210.45
 20
127.303
 11
-209.665
 21
126.793
  0
LINE
  8
0
 10
-209.665
 20
126.793
 11
-209.156
 21
126.009
  0
LINE
  8
0
 10
-209.156
 20
126.009
 11
-209.009
 21
125.085
  0
LINE
  8
0
 10
-209.009
 20
125.085
 11
-209.251
 21
124.181
  0
LINE
  8
0
 10
-209.251
 20
124.181
 11
-209.84
 21
123.454
  0
LINE
  8
0
 10
-209.84
 20
123.454
 11
-210.674
 21
123.029
  0
LINE
  8
0
 10
-210.674
 20
123.029
 11
-211.608
 21
122.98
  0
LINE
  8
0
 10
-211.608
 20
122.98
 11
-212.482
 21
123.315
  0
LINE
  8
0
 10
-228.042
 20
109.003
 11
-228.769
 21
109.592
  0
LINE
  8
0
 10
-228.769
 20
109.592
 11
-229.194
 21
110.426
  0
LINE
  8
0
 10
-229.194
 20
110.426
 11
-229.243
 21
111.36
  0
LINE
  8
0
 10
-229.243
 20
111.36
 11
-228.908
 21
112.233
  0
LINE
  8
0
 10
-228.908
 20
112.233
 11
-228.246
 21
112.895
  0
LINE
  8
0
 10
-228.246
 20
112.895
 11
-227.373
 21
113.23
  0
LINE
  8
0
 10
-227.373
 20
113.23
 11
-226.438
 21
113.181
  0
LINE
  8
0
 10
-226.438
 20
113.181
 11
-225.605
 21
112.756
  0
LINE
  8
0
 10
-225.605
 20
112.756
 11
-225.016
 21
112.029
  0
LINE
  8
0
 10
-225.016
 20
112.029
 11
-224.774
 21
111.126
  0
LINE
  8
0
 10
-224.774
 20
111.126
 11
-224.92
 21
110.202
  0
LINE
  8
0
 10
-224.92
 20
110.202
 11
-225.43
 21
109.417
  0
LINE
  8
0
 10
-225.43
 20
109.417
 11
-226.214
 21
108.907
  0
LINE
  8
0
 10
-226.214
 20
108.907
 11
-227.138
 21
108.761
  0
LINE
  8
0
 10
-227.138
 20
108.761
 11
-228.042
 21
109.003
  0
LINE
  8
0
 10
62.4736
 20
68.7897
 11
63.6907
 21
69.0931
  0
LINE
  8
0
 10
63.6907
 20
69.0931
 11
64.8181
 21
69.643
  0
LINE
  8
0
 10
64.8181
 20
69.643
 11
65.8065
 21
70.4152
  0
LINE
  8
0
 10
65.8065
 20
70.4152
 11
66.6128
 21
71.3761
  0
LINE
  8
0
 10
66.6128
 20
71.3761
 11
67.2017
 21
72.4837
  0
LINE
  8
0
 10
67.2017
 20
72.4837
 11
67.5474
 21
73.6894
  0
LINE
  8
0
 10
67.5474
 20
73.6894
 11
68.5294
 21
79.2588
  0
LINE
  8
0
 10
68.5294
 20
79.2588
 11
61.3359
 21
82.5827
  0
LINE
  8
0
 10
61.3359
 20
82.5827
 11
53.2704
 21
87.6226
  0
LINE
  8
0
 10
53.2704
 20
87.6226
 11
45.9001
 21
93.6336
  0
LINE
  8
0
 10
45.9001
 20
93.6336
 11
39.3414
 21
100.521
  0
LINE
  8
0
 10
39.3414
 20
100.521
 11
33.6976
 21
108.176
  0
LINE
  8
0
 10
33.6976
 20
108.176
 11
29.0577
 21
116.478
  0
LINE
  8
0
 10
29.0577
 20
116.478
 11
25.9767
 21
124.104
  0
LINE
  8
0
 10
25.9767
 20
124.104
 11
11.4642
 21
126.663
  0
LINE
  8
0
 10
11.4642
 20
126.663
 11
11.4584
 21
126.631
  0
LINE
  8
0
 10
11.4584
 20
126.631
 11
10.8408
 21
126.739
  0
LINE
  8
0
 10
10.8408
 20
126.739
 11
9.58722
 21
126.696
  0
LINE
  8
0
 10
9.58722
 20
126.696
 11
8.37013
 21
126.392
  0
LINE
  8
0
 10
8.37013
 20
126.392
 11
7.24275
 21
125.842
  0
LINE
  8
0
 10
7.24275
 20
125.842
 11
6.2543
 21
125.07
  0
LINE
  8
0
 10
6.2543
 20
125.07
 11
5.44803
 21
124.109
  0
LINE
  8
0
 10
5.44803
 20
124.109
 11
4.85916
 21
123.002
  0
LINE
  8
0
 10
4.85916
 20
123.002
 11
4.51341
 21
121.796
  0
LINE
  8
0
 10
4.51341
 20
121.796
 11
-1.81259
 21
85.9194
  0
LINE
  8
0
 10
-1.81259
 20
85.9194
 11
-1.90009
 21
84.6682
  0
LINE
  8
0
 10
-1.90009
 20
84.6682
 11
-1.72552
 21
83.426
  0
LINE
  8
0
 10
-1.72552
 20
83.426
 11
-1.29649
 21
82.2473
  0
LINE
  8
0
 10
-1.29649
 20
82.2473
 11
-0.63179
 21
81.1836
  0
LINE
  8
0
 10
-0.63179
 20
81.1836
 11
0.239532
 21
80.2813
  0
LINE
  8
0
 10
0.239532
 20
80.2813
 11
1.27942
 21
79.5799
  0
LINE
  8
0
 10
1.27942
 20
79.5799
 11
2.44243
 21
79.11
  0
LINE
  8
0
 10
2.44243
 20
79.11
 11
3.06007
 21
79.0011
  0
LINE
  8
0
 10
3.06007
 20
79.0011
 11
3.05437
 21
78.9687
  0
LINE
  8
0
 10
3.05437
 20
78.9687
 11
60.5966
 21
68.8224
  0
LINE
  8
0
 10
60.5966
 20
68.8224
 11
60.6024
 21
68.8548
  0
LINE
  8
0
 10
60.6024
 20
68.8548
 11
61.22
 21
68.7459
  0
LINE
  8
0
 10
61.22
 20
68.7459
 11
62.4736
 21
68.7897
  0
LINE
  8
0
 10
8.20071
 20
118.335
 11
7.78658
 21
120.203
  0
LINE
  8
0
 10
7.78658
 20
120.203
 11
8.81465
 21
121.817
  0
LINE
  8
0
 10
8.81465
 20
121.817
 11
10.6827
 21
122.231
  0
LINE
  8
0
 10
10.6827
 20
122.231
 11
12.2965
 21
121.203
  0
LINE
  8
0
 10
12.2965
 20
121.203
 11
12.7106
 21
119.335
  0
LINE
  8
0
 10
12.7106
 20
119.335
 11
11.6825
 21
117.721
  0
LINE
  8
0
 10
11.6825
 20
117.721
 11
9.81447
 21
117.307
  0
LINE
  8
0
 10
9.81447
 20
117.307
 11
8.20071
 21
118.335
  0
LINE
  8
0
 10
2.222
 20
84.4284
 11
1.80786
 21
86.2965
  0
LINE
  8
0
 10
1.80786
 20
86.2965
 11
2.83594
 21
87.9102
  0
LINE
  8
0
 10
2.83594
 20
87.9102
 11
4.70401
 21
88.3244
  0
LINE
  8
0
 10
4.70401
 20
88.3244
 11
6.31778
 21
87.2963
  0
LINE
  8
0
 10
6.31778
 20
87.2963
 11
6.7319
 21
85.4282
  0
LINE
  8
0
 10
6.7319
 20
85.4282
 11
5.70384
 21
83.8145
  0
LINE
  8
0
 10
5.70384
 20
83.8145
 11
3.83575
 21
83.4003
  0
LINE
  8
0
 10
3.83575
 20
83.4003
 11
2.222
 21
84.4284
  0
LINE
  8
0
 10
59.7643
 20
74.2822
 11
59.3502
 21
76.1502
  0
LINE
  8
0
 10
59.3502
 20
76.1502
 11
60.3782
 21
77.764
  0
LINE
  8
0
 10
60.3782
 20
77.764
 11
62.2463
 21
78.1781
  0
LINE
  8
0
 10
62.2463
 20
78.1781
 11
63.8601
 21
77.15
  0
LINE
  8
0
 10
63.8601
 20
77.15
 11
64.2742
 21
75.282
  0
LINE
  8
0
 10
64.2742
 20
75.282
 11
63.2461
 21
73.6682
  0
LINE
  8
0
 10
63.2461
 20
73.6682
 11
61.3781
 21
73.2541
  0
LINE
  8
0
 10
61.3781
 20
73.2541
 11
59.7643
 21
74.2822
  0
LINE
  8
0
 10
-176.919
 20
58.9607
 11
-168.522
 21
63.4257
  0
LINE
  8
0
 10
-168.522
 20
63.4257
 11
-159.631
 21
66.803
  0
LINE
  8
0
 10
-159.631
 20
66.803
 11
-150.387
 21
69.0394
  0
LINE
  8
0
 10
-150.387
 20
69.0394
 11
-140.935
 21
70.0995
  0
LINE
  8
0
 10
-140.935
 20
70.0995
 11
-131.426
 21
69.9667
  0
LINE
  8
0
 10
-131.426
 20
69.9667
 11
-123.281
 21
68.822
  0
LINE
  8
0
 10
-123.281
 20
68.822
 11
-113.809
 21
80.1108
  0
LINE
  8
0
 10
-113.809
 20
80.1108
 11
-113.834
 21
80.1319
  0
LINE
  8
0
 10
-113.834
 20
80.1319
 11
-113.431
 21
80.6124
  0
LINE
  8
0
 10
-113.431
 20
80.6124
 11
-112.842
 21
81.7199
  0
LINE
  8
0
 10
-112.842
 20
81.7199
 11
-112.496
 21
82.9256
  0
LINE
  8
0
 10
-112.496
 20
82.9256
 11
-112.409
 21
84.1769
  0
LINE
  8
0
 10
-112.409
 20
84.1769
 11
-112.583
 21
85.419
  0
LINE
  8
0
 10
-112.583
 20
85.419
 11
-113.012
 21
86.5977
  0
LINE
  8
0
 10
-113.012
 20
86.5977
 11
-113.677
 21
87.6615
  0
LINE
  8
0
 10
-113.677
 20
87.6615
 11
-114.548
 21
88.5638
  0
LINE
  8
0
 10
-114.548
 20
88.5638
 11
-142.455
 21
111.981
  0
LINE
  8
0
 10
-142.455
 20
111.981
 11
-143.495
 21
112.682
  0
LINE
  8
0
 10
-143.495
 20
112.682
 11
-144.658
 21
113.152
  0
LINE
  8
0
 10
-144.658
 20
113.152
 11
-145.893
 21
113.37
  0
LINE
  8
0
 10
-145.893
 20
113.37
 11
-147.147
 21
113.326
  0
LINE
  8
0
 10
-147.147
 20
113.326
 11
-148.364
 21
113.022
  0
LINE
  8
0
 10
-148.364
 20
113.022
 11
-149.491
 21
112.473
  0
LINE
  8
0
 10
-149.491
 20
112.473
 11
-150.48
 21
111.7
  0
LINE
  8
0
 10
-150.48
 20
111.7
 11
-150.883
 21
111.22
  0
LINE
  8
0
 10
-150.883
 20
111.22
 11
-150.908
 21
111.241
  0
LINE
  8
0
 10
-150.908
 20
111.241
 11
-188.466
 21
66.481
  0
LINE
  8
0
 10
-188.466
 20
66.481
 11
-188.441
 21
66.4599
  0
LINE
  8
0
 10
-188.441
 20
66.4599
 11
-188.844
 21
65.9794
  0
LINE
  8
0
 10
-188.844
 20
65.9794
 11
-189.433
 21
64.8719
  0
LINE
  8
0
 10
-189.433
 20
64.8719
 11
-189.779
 21
63.6662
  0
LINE
  8
0
 10
-189.779
 20
63.6662
 11
-189.866
 21
62.4149
  0
LINE
  8
0
 10
-189.866
 20
62.4149
 11
-189.692
 21
61.1728
  0
LINE
  8
0
 10
-189.692
 20
61.1728
 11
-189.263
 21
59.994
  0
LINE
  8
0
 10
-189.263
 20
59.994
 11
-188.598
 21
58.9303
  0
LINE
  8
0
 10
-188.598
 20
58.9303
 11
-187.727
 21
58.028
  0
LINE
  8
0
 10
-187.727
 20
58.028
 11
-183.394
 21
54.3929
  0
LINE
  8
0
 10
-183.394
 20
54.3929
 11
-176.919
 21
58.9607
  0
LINE
  8
0
 10
-147.153
 20
104.826
 11
-148.036
 21
106.524
  0
LINE
  8
0
 10
-148.036
 20
106.524
 11
-147.461
 21
108.348
  0
LINE
  8
0
 10
-147.461
 20
108.348
 11
-145.764
 21
109.232
  0
LINE
  8
0
 10
-145.764
 20
109.232
 11
-143.939
 21
108.657
  0
LINE
  8
0
 10
-143.939
 20
108.657
 11
-143.055
 21
106.959
  0
LINE
  8
0
 10
-143.055
 20
106.959
 11
-143.631
 21
105.135
  0
LINE
  8
0
 10
-143.631
 20
105.135
 11
-145.328
 21
104.251
  0
LINE
  8
0
 10
-145.328
 20
104.251
 11
-147.153
 21
104.826
  0
LINE
  8
0
 10
-120.778
 20
82.6952
 11
-121.661
 21
84.3924
  0
LINE
  8
0
 10
-121.661
 20
84.3924
 11
-121.086
 21
86.2173
  0
LINE
  8
0
 10
-121.086
 20
86.2173
 11
-119.389
 21
87.1008
  0
LINE
  8
0
 10
-119.389
 20
87.1008
 11
-117.564
 21
86.5254
  0
LINE
  8
0
 10
-117.564
 20
86.5254
 11
-116.68
 21
84.8282
  0
LINE
  8
0
 10
-116.68
 20
84.8282
 11
-117.256
 21
83.0033
  0
LINE
  8
0
 10
-117.256
 20
83.0033
 11
-118.953
 21
82.1198
  0
LINE
  8
0
 10
-118.953
 20
82.1198
 11
-120.778
 21
82.6952
  0
LINE
  8
0
 10
-184.711
 20
60.0664
 11
-185.594
 21
61.7636
  0
LINE
  8
0
 10
-185.594
 20
61.7636
 11
-185.019
 21
63.5885
  0
LINE
  8
0
 10
-185.019
 20
63.5885
 11
-183.322
 21
64.472
  0
LINE
  8
0
 10
-183.322
 20
64.472
 11
-181.497
 21
63.8966
  0
LINE
  8
0
 10
-181.497
 20
63.8966
 11
-180.613
 21
62.1994
  0
LINE
  8
0
 10
-180.613
 20
62.1994
 11
-181.189
 21
60.3745
  0
LINE
  8
0
 10
-181.189
 20
60.3745
 11
-182.886
 21
59.491
  0
LINE
  8
0
 10
-182.886
 20
59.491
 11
-184.711
 21
60.0664
  0
LINE
  8
0
 10
-120.566
 20
-79.6111
 11
-105.807
 21
-74.8155
  0
LINE
  8
0
 10
-105.807
 20
-74.8155
 11
-92.3667
 21
-67.056
  0
LINE
  8
0
 10
-92.3667
 20
-67.056
 11
-80.8339
 21
-56.6718
  0
LINE
  8
0
 10
-80.8339
 20
-56.6718
 11
-71.7121
 21
-44.1167
  0
LINE
  8
0
 10
-71.7121
 20
-44.1167
 11
-65.3999
 21
-29.9393
  0
LINE
  8
0
 10
-65.3999
 20
-29.9393
 11
-62.1733
 21
-14.7595
  0
LINE
  8
0
 10
-62.1733
 20
-14.7595
 11
-62.1733
 21
0.759476
  0
LINE
  8
0
 10
-62.1733
 20
0.759476
 11
-65.3999
 21
15.9393
  0
LINE
  8
0
 10
-65.3999
 20
15.9393
 11
-71.712
 21
30.1166
  0
LINE
  8
0
 10
-71.712
 20
30.1166
 11
-80.8339
 21
42.6718
  0
LINE
  8
0
 10
-80.8339
 20
42.6718
 11
-92.3667
 21
53.056
  0
LINE
  8
0
 10
-92.3667
 20
53.056
 11
-105.807
 21
60.8155
  0
LINE
  8
0
 10
-105.807
 20
60.8155
 11
-120.566
 21
65.6111
  0
LINE
  8
0
 10
-120.566
 20
65.6111
 11
-136
 21
67.2333
  0
LINE
  8
0
 10
-136
 20
67.2333
 11
-151.434
 21
65.6111
  0
LINE
  8
0
 10
-151.434
 20
65.6111
 11
-166.193
 21
60.8155
  0
LINE
  8
0
 10
-166.193
 20
60.8155
 11
-179.633
 21
53.056
  0
LINE
  8
0
 10
-179.633
 20
53.056
 11
-191.166
 21
42.6718
  0
LINE
  8
0
 10
-191.166
 20
42.6718
 11
-200.288
 21
30.1167
  0
LINE
  8
0
 10
-200.288
 20
30.1167
 11
-206.6
 21
15.9393
  0
LINE
  8
0
 10
-206.6
 20
15.9393
 11
-209.827
 21
0.759491
  0
LINE
  8
0
 10
-209.827
 20
0.759491
 11
-209.827
 21
-14.7595
  0
LINE
  8
0
 10
-209.827
 20
-14.7595
 11
-206.6
 21
-29.9393
  0
LINE
  8
0
 10
-206.6
 20
-29.9393
 11
-200.288
 21
-44.1166
  0
LINE
  8
0
 10
-200.288
 20
-44.1166
 11
-191.166
 21
-56.6718
  0
LINE
  8
0
 10
-191.166
 20
-56.6718
 11
-179.633
 21
-67.056
  0
LINE
  8
0
 10
-179.633
 20
-67.056
 11
-166.193
 21
-74.8155
  0
LINE
  8
0
 10
-166.193
 20
-74.8155
 11
-151.434
 21
-79.6111
  0
LINE
  8
0
 10
-151.434
 20
-79.6111
 11
-136
 21
-81.2333
  0
LINE
  8
0
 10
-136
 20
-81.2333
 11
-120.566
 21
-79.6111
  0
LINE
  8
0
 10
-140.1
 20
-35.5
 11
-140.691
 21
-35.4643
  0
LINE
  8
0
 10
-140.691
 20
-35.4643
 11
-141.273
 21
-35.3576
  0
LINE
  8
0
 10
-141.273
 20
-35.3576
 11
-141.838
 21
-35.1816
  0
LINE
  8
0
 10
-141.838
 20
-35.1816
 11
-142.377
 21
-34.9387
  0
LINE
  8
0
 10
-142.377
 20
-34.9387
 11
-142.884
 21
-34.6326
  0
LINE
  8
0
 10
-142.884
 20
-34.6326
 11
-143.349
 21
-34.2677
  0
LINE
  8
0
 10
-143.349
 20
-34.2677
 11
-143.768
 21
-33.8493
  0
LINE
  8
0
 10
-143.768
 20
-33.8493
 11
-144.133
 21
-33.3835
  0
LINE
  8
0
 10
-144.133
 20
-33.3835
 11
-144.439
 21
-32.8772
  0
LINE
  8
0
 10
-144.439
 20
-32.8772
 11
-144.682
 21
-32.3376
  0
LINE
  8
0
 10
-144.682
 20
-32.3376
 11
-144.858
 21
-31.7726
  0
LINE
  8
0
 10
-144.858
 20
-31.7726
 11
-144.964
 21
-31.1906
  0
LINE
  8
0
 10
-144.964
 20
-31.1906
 11
-145
 21
-30.6
  0
LINE
  8
0
 10
-145
 20
-30.6
 11
-145
 21
-16
  0
LINE
  8
0
 10
-145
 20
-16
 11
-159.6
 21
-16
  0
LINE
  8
0
 10
-159.6
 20
-16
 11
-160.191
 21
-15.9642
  0
LINE
  8
0
 10
-160.191
 20
-15.9642
 11
-160.773
 21
-15.8576
  0
LINE
  8
0
 10
-160.773
 20
-15.8576
 11
-161.338
 21
-15.6815
  0
LINE
  8
0
 10
-161.338
 20
-15.6815
 11
-161.877
 21
-15.4387
  0
LINE
  8
0
 10
-161.877
 20
-15.4387
 11
-162.384
 21
-15.1326
  0
LINE
  8
0
 10
-162.384
 20
-15.1326
 11
-162.849
 21
-14.7677
  0
LINE
  8
0
 10
-162.849
 20
-14.7677
 11
-163.268
 21
-14.3493
  0
LINE
  8
0
 10
-163.268
 20
-14.3493
 11
-163.633
 21
-13.8835
  0
LINE
  8
0
 10
-163.633
 20
-13.8835
 11
-163.939
 21
-13.3771
  0
LINE
  8
0
 10
-163.939
 20
-13.3771
 11
-164.182
 21
-12.8375
  0
LINE
  8
0
 10
-164.182
 20
-12.8375
 11
-164.358
 21
-12.2726
  0
LINE
  8
0
 10
-164.358
 20
-12.2726
 11
-164.464
 21
-11.6906
  0
LINE
  8
0
 10
-164.464
 20
-11.6906
 11
-164.5
 21
-11.1
  0
LINE
  8
0
 10
-164.5
 20
-11.1
 11
-164.5
 21
-2.89998
  0
LINE
  8
0
 10
-164.5
 20
-2.89998
 11
-164.464
 21
-2.30934
  0
LINE
  8
0
 10
-164.464
 20
-2.30934
 11
-164.358
 21
-1.72733
  0
LINE
  8
0
 10
-164.358
 20
-1.72733
 11
-164.182
 21
-1.16241
  0
LINE
  8
0
 10
-164.182
 20
-1.16241
 11
-163.939
 21
-0.622833
  0
LINE
  8
0
 10
-163.939
 20
-0.622833
 11
-163.633
 21
-0.116455
  0
LINE
  8
0
 10
-163.633
 20
-0.116455
 11
-163.268
 21
0.349304
  0
LINE
  8
0
 10
-163.268
 20
0.349304
 11
-162.849
 21
0.767715
  0
LINE
  8
0
 10
-162.849
 20
0.767715
 11
-162.384
 21
1.13263
  0
LINE
  8
0
 10
-162.384
 20
1.13263
 11
-161.877
 21
1.43874
  0
LINE
  8
0
 10
-161.877
 20
1.43874
 11
-161.338
 21
1.68158
  0
LINE
  8
0
 10
-161.338
 20
1.68158
 11
-160.773
 21
1.85762
  0
LINE
  8
0
 10
-160.773
 20
1.85762
 11
-160.191
 21
1.96428
  0
LINE
  8
0
 10
-160.191
 20
1.96428
 11
-159.6
 21
2
  0
LINE
  8
0
 10
-159.6
 20
2
 11
-145
 21
2
  0
LINE
  8
0
 10
-145
 20
2
 11
-145
 21
16.6
  0
LINE
  8
0
 10
-145
 20
16.6
 11
-144.964
 21
17.1906
  0
LINE
  8
0
 10
-144.964
 20
17.1906
 11
-144.858
 21
17.7726
  0
LINE
  8
0
 10
-144.858
 20
17.7726
 11
-144.682
 21
18.3376
  0
LINE
  8
0
 10
-144.682
 20
18.3376
 11
-144.439
 21
18.8771
  0
LINE
  8
0
 10
-144.439
 20
18.8771
 11
-144.133
 21
19.3835
  0
LINE
  8
0
 10
-144.133
 20
19.3835
 11
-143.768
 21
19.8493
  0
LINE
  8
0
 10
-143.768
 20
19.8493
 11
-143.349
 21
20.2677
  0
LINE
  8
0
 10
-143.349
 20
20.2677
 11
-142.884
 21
20.6326
  0
LINE
  8
0
 10
-142.884
 20
20.6326
 11
-142.377
 21
20.9387
  0
LINE
  8
0
 10
-142.377
 20
20.9387
 11
-141.838
 21
21.1816
  0
LINE
  8
0
 10
-141.838
 20
21.1816
 11
-141.273
 21
21.3576
  0
LINE
  8
0
 10
-141.273
 20
21.3576
 11
-140.691
 21
21.4643
  0
LINE
  8
0
 10
-140.691
 20
21.4643
 11
-140.1
 21
21.5
  0
LINE
  8
0
 10
-140.1
 20
21.5
 11
-131.9
 21
21.5
  0
LINE
  8
0
 10
-131.9
 20
21.5
 11
-131.309
 21
21.4643
  0
LINE
  8
0
 10
-131.309
 20
21.4643
 11
-130.727
 21
21.3576
  0
LINE
  8
0
 10
-130.727
 20
21.3576
 11
-130.162
 21
21.1816
  0
LINE
  8
0
 10
-130.162
 20
21.1816
 11
-129.623
 21
20.9387
  0
LINE
  8
0
 10
-129.623
 20
20.9387
 11
-129.116
 21
20.6326
  0
LINE
  8
0
 10
-129.116
 20
20.6326
 11
-128.651
 21
20.2677
  0
LINE
  8
0
 10
-128.651
 20
20.2677
 11
-128.232
 21
19.8493
  0
LINE
  8
0
 10
-128.232
 20
19.8493
 11
-127.867
 21
19.3835
  0
LINE
  8
0
 10
-127.867
 20
19.3835
 11
-127.561
 21
18.8771
  0
LINE
  8
0
 10
-127.561
 20
18.8771
 11
-127.318
 21
18.3375
  0
LINE
  8
0
 10
-127.318
 20
18.3375
 11
-127.142
 21
17.7726
  0
LINE
  8
0
 10
-127.142
 20
17.7726
 11
-127.036
 21
17.1906
  0
LINE
  8
0
 10
-127.036
 20
17.1906
 11
-127
 21
16.6
  0
LINE
  8
0
 10
-127
 20
16.6
 11
-127
 21
1.99998
  0
LINE
  8
0
 10
-127
 20
1.99998
 11
-112.4
 21
1.99998
  0
LINE
  8
0
 10
-112.4
 20
1.99998
 11
-111.809
 21
1.96426
  0
LINE
  8
0
 10
-111.809
 20
1.96426
 11
-111.227
 21
1.8576
  0
LINE
  8
0
 10
-111.227
 20
1.8576
 11
-110.662
 21
1.68156
  0
LINE
  8
0
 10
-110.662
 20
1.68156
 11
-110.123
 21
1.43872
  0
LINE
  8
0
 10
-110.123
 20
1.43872
 11
-109.616
 21
1.13261
  0
LINE
  8
0
 10
-109.616
 20
1.13261
 11
-109.151
 21
0.7677
  0
LINE
  8
0
 10
-109.151
 20
0.7677
 11
-108.732
 21
0.349289
  0
LINE
  8
0
 10
-108.732
 20
0.349289
 11
-108.367
 21
-0.11647
  0
LINE
  8
0
 10
-108.367
 20
-0.11647
 11
-108.061
 21
-0.622849
  0
LINE
  8
0
 10
-108.061
 20
-0.622849
 11
-107.818
 21
-1.16243
  0
LINE
  8
0
 10
-107.818
 20
-1.16243
 11
-107.642
 21
-1.72734
  0
LINE
  8
0
 10
-107.642
 20
-1.72734
 11
-107.536
 21
-2.30936
  0
LINE
  8
0
 10
-107.536
 20
-2.30936
 11
-107.5
 21
-2.89999
  0
LINE
  8
0
 10
-107.5
 20
-2.89999
 11
-107.5
 21
-11.1
  0
LINE
  8
0
 10
-107.5
 20
-11.1
 11
-107.536
 21
-11.6906
  0
LINE
  8
0
 10
-107.536
 20
-11.6906
 11
-107.642
 21
-12.2726
  0
LINE
  8
0
 10
-107.642
 20
-12.2726
 11
-107.818
 21
-12.8376
  0
LINE
  8
0
 10
-107.818
 20
-12.8376
 11
-108.061
 21
-13.3771
  0
LINE
  8
0
 10
-108.061
 20
-13.3771
 11
-108.367
 21
-13.8835
  0
LINE
  8
0
 10
-108.367
 20
-13.8835
 11
-108.732
 21
-14.3493
  0
LINE
  8
0
 10
-108.732
 20
-14.3493
 11
-109.151
 21
-14.7677
  0
LINE
  8
0
 10
-109.151
 20
-14.7677
 11
-109.616
 21
-15.1326
  0
LINE
  8
0
 10
-109.616
 20
-15.1326
 11
-110.123
 21
-15.4387
  0
LINE
  8
0
 10
-110.123
 20
-15.4387
 11
-110.662
 21
-15.6816
  0
LINE
  8
0
 10
-110.662
 20
-15.6816
 11
-111.227
 21
-15.8576
  0
LINE
  8
0
 10
-111.227
 20
-15.8576
 11
-111.809
 21
-15.9643
  0
LINE
  8
0
 10
-111.809
 20
-15.9643
 11
-112.4
 21
-16
  0
LINE
  8
0
 10
-112.4
 20
-16
 11
-127
 21
-16
  0
LINE
  8
0
 10
-127
 20
-16
 11
-127
 21
-30.6
  0
LINE
  8
0
 10
-127
 20
-30.6
 11
-127.036
 21
-31.1906
  0
LINE
  8
0
 10
-127.036
 20
-31.1906
 11
-127.142
 21
-31.7727
  0
LINE
  8
0
 10
-127.142
 20
-31.7727
 11
-127.318
 21
-32.3376
  0
LINE
  8
0
 10
-127.318
 20
-32.3376
 11
-127.561
 21
-32.8772
  0
LINE
  8
0
 10
-127.561
 20
-32.8772
 11
-127.867
 21
-33.3835
  0
LINE
  8
0
 10
-127.867
 20
-33.3835
 11
-128.232
 21
-33.8493
  0
LINE
  8
0
 10
-128.232
 20
-33.8493
 11
-128.651
 21
-34.2677
  0
LINE
  8
0
 10
-128.651
 20
-34.2677
 11
-129.116
 21
-34.6326
  0
LINE
  8
0
 10
-129.116
 20
-34.6326
 11
-129.623
 21
-34.9387
  0
LINE
  8
0
 10
-129.623
 20
-34.9387
 11
-130.162
 21
-35.1816
  0
LINE
  8
0
 10
-130.162
 20
-35.1816
 11
-130.727
 21
-35.3576
  0
LINE
  8
0
 10
-130.727
 20
-35.3576
 11
-131.309
 21
-35.4643
  0
LINE
  8
0
 10
-131.309
 20
-35.4643
 11
-131.9
 21
-35.5
  0
LINE
  8
0
 10
-131.9
 20
-35.5
 11
-140.1
 21
-35.5
  0
LINE
  8
0
 10
-134.677
 20
12.6797
 11
-134.051
 21
13.375
  0
LINE
  8
0
 10
-134.051
 20
13.375
 11
-133.762
 21
14.2648
  0
LINE
  8
0
 10
-133.762
 20
14.2648
 11
-133.86
 21
15.1953
  0
LINE
  8
0
 10
-133.86
 20
15.1953
 11
-134.328
 21
16.0055
  0
LINE
  8
0
 10
-134.328
 20
16.0055
 11
-135.085
 21
16.5555
  0
LINE
  8
0
 10
-135.085
 20
16.5555
 11
-136
 21
16.75
  0
LINE
  8
0
 10
-136
 20
16.75
 11
-136.915
 21
16.5555
  0
LINE
  8
0
 10
-136.915
 20
16.5555
 11
-137.672
 21
16.0055
  0
LINE
  8
0
 10
-137.672
 20
16.0055
 11
-138.14
 21
15.1953
  0
LINE
  8
0
 10
-138.14
 20
15.1953
 11
-138.238
 21
14.2648
  0
LINE
  8
0
 10
-138.238
 20
14.2648
 11
-137.949
 21
13.375
  0
LINE
  8
0
 10
-137.949
 20
13.375
 11
-137.323
 21
12.6797
  0
LINE
  8
0
 10
-137.323
 20
12.6797
 11
-136.468
 21
12.2992
  0
LINE
  8
0
 10
-136.468
 20
12.2992
 11
-135.532
 21
12.2992
  0
LINE
  8
0
 10
-135.532
 20
12.2992
 11
-134.677
 21
12.6797
  0
LINE
  8
0
 10
-134.303
 20
-8.69705
 11
-133.6
 21
-7
  0
LINE
  8
0
 10
-133.6
 20
-7
 11
-134.303
 21
-5.30295
  0
LINE
  8
0
 10
-134.303
 20
-5.30295
 11
-136
 21
-4.60001
  0
LINE
  8
0
 10
-136
 20
-4.60001
 11
-137.697
 21
-5.30295
  0
LINE
  8
0
 10
-137.697
 20
-5.30295
 11
-138.4
 21
-6.99998
  0
LINE
  8
0
 10
-138.4
 20
-6.99998
 11
-137.697
 21
-8.69705
  0
LINE
  8
0
 10
-137.697
 20
-8.69705
 11
-136
 21
-9.39999
  0
LINE
  8
0
 10
-136
 20
-9.39999
 11
-134.303
 21
-8.69705
  0
LINE
  8
0
 10
-156.375
 20
-8.94852
 11
-155.68
 21
-8.32248
  0
LINE
  8
0
 10
-155.68
 20
-8.32248
 11
-155.299
 21
-7.46776
  0
LINE
  8
0
 10
-155.299
 20
-7.46776
 11
-155.299
 21
-6.53218
  0
LINE
  8
0
 10
-155.299
 20
-6.53218
 11
-155.68
 21
-5.67746
  0
LINE
  8
0
 10
-155.68
 20
-5.67746
 11
-156.375
 21
-5.05142
  0
LINE
  8
0
 10
-156.375
 20
-5.05142
 11
-157.265
 21
-4.7623
  0
LINE
  8
0
 10
-157.265
 20
-4.7623
 11
-158.195
 21
-4.86011
  0
LINE
  8
0
 10
-158.195
 20
-4.86011
 11
-159.006
 21
-5.3279
  0
LINE
  8
0
 10
-159.006
 20
-5.3279
 11
-159.555
 21
-6.08482
  0
LINE
  8
0
 10
-159.555
 20
-6.08482
 11
-159.75
 21
-6.99998
  0
LINE
  8
0
 10
-159.75
 20
-6.99998
 11
-159.555
 21
-7.91512
  0
LINE
  8
0
 10
-159.555
 20
-7.91512
 11
-159.006
 21
-8.67204
  0
LINE
  8
0
 10
-159.006
 20
-8.67204
 11
-158.195
 21
-9.13983
  0
LINE
  8
0
 10
-158.195
 20
-9.13983
 11
-157.265
 21
-9.23764
  0
LINE
  8
0
 10
-157.265
 20
-9.23764
 11
-156.375
 21
-8.94852
  0
LINE
  8
0
 10
-113.375
 20
-8.94855
 11
-112.68
 21
-8.32251
  0
LINE
  8
0
 10
-112.68
 20
-8.32251
 11
-112.299
 21
-7.46779
  0
LINE
  8
0
 10
-112.299
 20
-7.46779
 11
-112.299
 21
-6.5322
  0
LINE
  8
0
 10
-112.299
 20
-6.5322
 11
-112.68
 21
-5.67747
  0
LINE
  8
0
 10
-112.68
 20
-5.67747
 11
-113.375
 21
-5.05144
  0
LINE
  8
0
 10
-113.375
 20
-5.05144
 11
-114.265
 21
-4.76231
  0
LINE
  8
0
 10
-114.265
 20
-4.76231
 11
-115.195
 21
-4.86012
  0
LINE
  8
0
 10
-115.195
 20
-4.86012
 11
-116.006
 21
-5.32791
  0
LINE
  8
0
 10
-116.006
 20
-5.32791
 11
-116.555
 21
-6.08484
  0
LINE
  8
0
 10
-116.555
 20
-6.08484
 11
-116.75
 21
-7
  0
LINE
  8
0
 10
-116.75
 20
-7
 11
-116.555
 21
-7.91515
  0
LINE
  8
0
 10
-116.555
 20
-7.91515
 11
-116.006
 21
-8.67207
  0
LINE
  8
0
 10
-116.006
 20
-8.67207
 11
-115.195
 21
-9.13986
  0
LINE
  8
0
 10
-115.195
 20
-9.13986
 11
-114.265
 21
-9.23767
  0
LINE
  8
0
 10
-114.265
 20
-9.23767
 11
-113.375
 21
-8.94855
  0
LINE
  8
0
 10
-134.677
 20
-30.3203
 11
-134.051
 21
-29.625
  0
LINE
  8
0
 10
-134.051
 20
-29.625
 11
-133.762
 21
-28.7352
  0
LINE
  8
0
 10
-133.762
 20
-28.7352
 11
-133.86
 21
-27.8047
  0
LINE
  8
0
 10
-133.86
 20
-27.8047
 11
-134.328
 21
-26.9945
  0
LINE
  8
0
 10
-134.328
 20
-26.9945
 11
-135.085
 21
-26.4445
  0
LINE
  8
0
 10
-135.085
 20
-26.4445
 11
-136
 21
-26.25
  0
LINE
  8
0
 10
-136
 20
-26.25
 11
-136.915
 21
-26.4445
  0
LINE
  8
0
 10
-136.915
 20
-26.4445
 11
-137.672
 21
-26.9945
  0
LINE
  8
0
 10
-137.672
 20
-26.9945
 11
-138.14
 21
-27.8047
  0
LINE
  8
0
 10
-138.14
 20
-27.8047
 11
-138.238
 21
-28.7352
  0
LINE
  8
0
 10
-138.238
 20
-28.7352
 11
-137.949
 21
-29.625
  0
LINE
  8
0
 10
-137.949
 20
-29.625
 11
-137.323
 21
-30.3203
  0
LINE
  8
0
 10
-137.323
 20
-30.3203
 11
-136.468
 21
-30.7008
  0
LINE
  8
0
 10
-136.468
 20
-30.7008
 11
-135.532
 21
-30.7008
  0
LINE
  8
0
 10
-135.532
 20
-30.7008
 11
-134.677
 21
-30.3203
  0
LINE
  8
0
 10
-13.3409
 20
-1.82697
 11
-12.7637
 21
-1.69696
  0
LINE
  8
0
 10
-12.7637
 20
-1.69696
 11
-12.2063
 21
-1.49832
  0
LINE
  8
0
 10
-12.2063
 20
-1.49832
 11
-11.6769
 21
-1.23395
  0
LINE
  8
0
 10
-11.6769
 20
-1.23395
 11
-4.57553
 21
2.86603
  0
LINE
  8
0
 10
-4.57553
 20
2.86603
 11
-4.08189
 21
3.19229
  0
LINE
  8
0
 10
-4.08189
 20
3.19229
 11
-3.6312
 21
3.57568
  0
LINE
  8
0
 10
-3.6312
 20
3.57568
 11
-3.22998
 21
4.01059
  0
LINE
  8
0
 10
-3.22998
 20
4.01059
 11
-2.88411
 21
4.49069
  0
LINE
  8
0
 10
-2.88411
 20
4.49069
 11
-2.59863
 21
5.00897
  0
LINE
  8
0
 10
-2.59863
 20
5.00897
 11
-2.37773
 21
5.55788
  0
LINE
  8
0
 10
-2.37773
 20
5.55788
 11
-2.22458
 21
6.12944
  0
LINE
  8
0
 10
-2.22458
 20
6.12944
 11
-2.14143
 21
6.71527
  0
LINE
  8
0
 10
-2.14143
 20
6.71527
 11
-2.12953
 21
7.30685
  0
LINE
  8
0
 10
-2.12953
 20
7.30685
 11
-2.18901
 21
7.89557
  0
LINE
  8
0
 10
-2.18901
 20
7.89557
 11
-2.31902
 21
8.47281
  0
LINE
  8
0
 10
-2.31902
 20
8.47281
 11
-2.51765
 21
9.03018
  0
LINE
  8
0
 10
-2.51765
 20
9.03018
 11
-2.78203
 21
9.55956
  0
LINE
  8
0
 10
-2.78203
 20
9.55956
 11
-6.83202
 21
16.5744
  0
LINE
  8
0
 10
-6.83202
 20
16.5744
 11
0.182785
 21
20.6244
  0
LINE
  8
0
 10
0.182785
 20
20.6244
 11
0.676422
 21
20.9506
  0
LINE
  8
0
 10
0.676422
 20
20.9506
 11
1.12714
 21
21.334
  0
LINE
  8
0
 10
1.12714
 20
21.334
 11
1.52835
 21
21.7689
  0
LINE
  8
0
 10
1.52835
 20
21.7689
 11
1.87422
 21
22.249
  0
LINE
  8
0
 10
1.87422
 20
22.249
 11
2.1597
 21
22.7673
  0
LINE
  8
0
 10
2.1597
 20
22.7673
 11
2.38062
 21
23.3162
  0
LINE
  8
0
 10
2.38062
 20
23.3162
 11
2.53377
 21
23.8878
  0
LINE
  8
0
 10
2.53377
 20
23.8878
 11
2.6169
 21
24.4736
  0
LINE
  8
0
 10
2.6169
 20
24.4736
 11
2.62881
 21
25.0652
  0
LINE
  8
0
 10
2.62881
 20
25.0652
 11
2.56932
 21
25.6539
  0
LINE
  8
0
 10
2.56932
 20
25.6539
 11
2.43933
 21
26.2312
  0
LINE
  8
0
 10
2.43933
 20
26.2312
 11
2.24069
 21
26.7885
  0
LINE
  8
0
 10
2.24069
 20
26.7885
 11
1.9763
 21
27.3179
  0
LINE
  8
0
 10
1.9763
 20
27.3179
 11
0.426315
 21
30.0026
  0
LINE
  8
0
 10
0.426315
 20
30.0026
 11
4.75644
 21
32.5026
  0
LINE
  8
0
 10
4.75644
 20
32.5026
 11
3.75644
 21
34.2346
  0
LINE
  8
0
 10
3.75644
 20
34.2346
 11
-0.573669
 21
31.7346
  0
LINE
  8
0
 10
-0.573669
 20
31.7346
 11
-2.12367
 21
34.4193
  0
LINE
  8
0
 10
-2.12367
 20
34.4193
 11
-2.44994
 21
34.9129
  0
LINE
  8
0
 10
-2.44994
 20
34.9129
 11
-2.83331
 21
35.3637
  0
LINE
  8
0
 10
-2.83331
 20
35.3637
 11
-3.26822
 21
35.7649
  0
LINE
  8
0
 10
-3.26822
 20
35.7649
 11
-3.74832
 21
36.1107
  0
LINE
  8
0
 10
-3.74832
 20
36.1107
 11
-4.2666
 21
36.3962
  0
LINE
  8
0
 10
-4.2666
 20
36.3962
 11
-4.81552
 21
36.6171
  0
LINE
  8
0
 10
-4.81552
 20
36.6171
 11
-5.38708
 21
36.7703
  0
LINE
  8
0
 10
-5.38708
 20
36.7703
 11
-5.9729
 21
36.8534
  0
LINE
  8
0
 10
-5.9729
 20
36.8534
 11
-6.5645
 21
36.8653
  0
LINE
  8
0
 10
-6.5645
 20
36.8653
 11
-7.15321
 21
36.8058
  0
LINE
  8
0
 10
-7.15321
 20
36.8058
 11
-7.73045
 21
36.6758
  0
LINE
  8
0
 10
-7.73045
 20
36.6758
 11
-8.28783
 21
36.4772
  0
LINE
  8
0
 10
-8.28783
 20
36.4772
 11
-8.8172
 21
36.2128
  0
LINE
  8
0
 10
-8.8172
 20
36.2128
 11
-15.832
 21
32.1628
  0
LINE
  8
0
 10
-15.832
 20
32.1628
 11
-19.882
 21
39.1776
  0
LINE
  8
0
 10
-19.882
 20
39.1776
 11
-20.2083
 21
39.6713
  0
LINE
  8
0
 10
-20.2083
 20
39.6713
 11
-20.5916
 21
40.122
  0
LINE
  8
0
 10
-20.5916
 20
40.122
 11
-21.0266
 21
40.5232
  0
LINE
  8
0
 10
-21.0266
 20
40.5232
 11
-21.5067
 21
40.869
  0
LINE
  8
0
 10
-21.5067
 20
40.869
 11
-22.0249
 21
41.1545
  0
LINE
  8
0
 10
-22.0249
 20
41.1545
 11
-22.5739
 21
41.3754
  0
LINE
  8
0
 10
-22.5739
 20
41.3754
 11
-23.1454
 21
41.5286
  0
LINE
  8
0
 10
-23.1454
 20
41.5286
 11
-23.7312
 21
41.6117
  0
LINE
  8
0
 10
-23.7312
 20
41.6117
 11
-24.3228
 21
41.6236
  0
LINE
  8
0
 10
-24.3228
 20
41.6236
 11
-24.9115
 21
41.5642
  0
LINE
  8
0
 10
-24.9115
 20
41.5642
 11
-25.4888
 21
41.4342
  0
LINE
  8
0
 10
-25.4888
 20
41.4342
 11
-26.0462
 21
41.2355
  0
LINE
  8
0
 10
-26.0462
 20
41.2355
 11
-26.5755
 21
40.9711
  0
LINE
  8
0
 10
-26.5755
 20
40.9711
 11
-33.6769
 21
36.8712
  0
LINE
  8
0
 10
-33.6769
 20
36.8712
 11
-34.1706
 21
36.5449
  0
LINE
  8
0
 10
-34.1706
 20
36.5449
 11
-34.6213
 21
36.1615
  0
LINE
  8
0
 10
-34.6213
 20
36.1615
 11
-35.0225
 21
35.7266
  0
LINE
  8
0
 10
-35.0225
 20
35.7266
 11
-35.3684
 21
35.2465
  0
LINE
  8
0
 10
-35.3684
 20
35.2465
 11
-35.6539
 21
34.7282
  0
LINE
  8
0
 10
-35.6539
 20
34.7282
 11
-35.8748
 21
34.1793
  0
LINE
  8
0
 10
-35.8748
 20
34.1793
 11
-36.0279
 21
33.6078
  0
LINE
  8
0
 10
-36.0279
 20
33.6078
 11
-36.1111
 21
33.0219
  0
LINE
  8
0
 10
-36.1111
 20
33.0219
 11
-36.123
 21
32.4303
  0
LINE
  8
0
 10
-36.123
 20
32.4303
 11
-36.0635
 21
31.8416
  0
LINE
  8
0
 10
-36.0635
 20
31.8416
 11
-35.9335
 21
31.2644
  0
LINE
  8
0
 10
-35.9335
 20
31.2644
 11
-35.7348
 21
30.707
  0
LINE
  8
0
 10
-35.7348
 20
30.707
 11
-35.4705
 21
30.1776
  0
LINE
  8
0
 10
-35.4705
 20
30.1776
 11
-31.4205
 21
23.1628
  0
LINE
  8
0
 10
-31.4205
 20
23.1628
 11
-38.4353
 21
19.1128
  0
LINE
  8
0
 10
-38.4353
 20
19.1128
 11
-38.9289
 21
18.7866
  0
LINE
  8
0
 10
-38.9289
 20
18.7866
 11
-39.3796
 21
18.4032
  0
LINE
  8
0
 10
-39.3796
 20
18.4032
 11
-39.7808
 21
17.9683
  0
LINE
  8
0
 10
-39.7808
 20
17.9683
 11
-40.1267
 21
17.4882
  0
LINE
  8
0
 10
-40.1267
 20
17.4882
 11
-40.4122
 21
16.9699
  0
LINE
  8
0
 10
-40.4122
 20
16.9699
 11
-40.6331
 21
16.421
  0
LINE
  8
0
 10
-40.6331
 20
16.421
 11
-40.7862
 21
15.8494
  0
LINE
  8
0
 10
-40.7862
 20
15.8494
 11
-40.8694
 21
15.2636
  0
LINE
  8
0
 10
-40.8694
 20
15.2636
 11
-40.8813
 21
14.672
  0
LINE
  8
0
 10
-40.8813
 20
14.672
 11
-40.8218
 21
14.0833
  0
LINE
  8
0
 10
-40.8218
 20
14.0833
 11
-40.6918
 21
13.506
  0
LINE
  8
0
 10
-40.6918
 20
13.506
 11
-40.4932
 21
12.9487
  0
LINE
  8
0
 10
-40.4932
 20
12.9487
 11
-40.2288
 21
12.4193
  0
LINE
  8
0
 10
-40.2288
 20
12.4193
 11
-38.6788
 21
9.73462
  0
LINE
  8
0
 10
-38.6788
 20
9.73462
 11
-43.0089
 21
7.23462
  0
LINE
  8
0
 10
-43.0089
 20
7.23462
 11
-42.0089
 21
5.50256
  0
LINE
  8
0
 10
-42.0089
 20
5.50256
 11
-37.6788
 21
8.00256
  0
LINE
  8
0
 10
-37.6788
 20
8.00256
 11
-36.1288
 21
5.3179
  0
LINE
  8
0
 10
-36.1288
 20
5.3179
 11
-35.8025
 21
4.82426
  0
LINE
  8
0
 10
-35.8025
 20
4.82426
 11
-35.4192
 21
4.37355
  0
LINE
  8
0
 10
-35.4192
 20
4.37355
 11
-34.9842
 21
3.97234
  0
LINE
  8
0
 10
-34.9842
 20
3.97234
 11
-34.5042
 21
3.62648
  0
LINE
  8
0
 10
-34.5042
 20
3.62648
 11
-33.9859
 21
3.34099
  0
LINE
  8
0
 10
-33.9859
 20
3.34099
 11
-33.437
 21
3.12007
  0
LINE
  8
0
 10
-33.437
 20
3.12007
 11
-32.8654
 21
2.96692
  0
LINE
  8
0
 10
-32.8654
 20
2.96692
 11
-32.2796
 21
2.88379
  0
LINE
  8
0
 10
-32.2796
 20
2.88379
 11
-31.688
 21
2.87189
  0
LINE
  8
0
 10
-31.688
 20
2.87189
 11
-31.0993
 21
2.93137
  0
LINE
  8
0
 10
-31.0993
 20
2.93137
 11
-30.522
 21
3.06136
  0
LINE
  8
0
 10
-30.522
 20
3.06136
 11
-29.9646
 21
3.25999
  0
LINE
  8
0
 10
-29.9646
 20
3.25999
 11
-29.4353
 21
3.52437
  0
LINE
  8
0
 10
-29.4353
 20
3.52437
 11
-22.4205
 21
7.57437
  0
LINE
  8
0
 10
-22.4205
 20
7.57437
 11
-18.3705
 21
0.55957
  0
LINE
  8
0
 10
-18.3705
 20
0.55957
 11
-18.0442
 21
0.065918
  0
LINE
  8
0
 10
-18.0442
 20
0.065918
 11
-17.6608
 21
-0.384781
  0
LINE
  8
0
 10
-17.6608
 20
-0.384781
 11
-17.2259
 21
-0.78598
  0
LINE
  8
0
 10
-17.2259
 20
-0.78598
 11
-16.7458
 21
-1.13185
  0
LINE
  8
0
 10
-16.7458
 20
-1.13185
 11
-16.2275
 21
-1.41733
  0
LINE
  8
0
 10
-16.2275
 20
-1.41733
 11
-15.6786
 21
-1.63824
  0
LINE
  8
0
 10
-15.6786
 20
-1.63824
 11
-15.1071
 21
-1.7914
  0
LINE
  8
0
 10
-15.1071
 20
-1.7914
 11
-14.5212
 21
-1.87454
  0
LINE
  8
0
 10
-14.5212
 20
-1.87454
 11
-13.9297
 21
-1.88644
  0
LINE
  8
0
 10
-13.9297
 20
-1.88644
 11
-13.3409
 21
-1.82697
  0
LINE
  8
0
 10
-27.3215
 20
30.7191
 11
-28.1318
 21
31.1869
  0
LINE
  8
0
 10
-28.1318
 20
31.1869
 11
-28.6817
 21
31.9438
  0
LINE
  8
0
 10
-28.6817
 20
31.9438
 11
-28.8763
 21
32.859
  0
LINE
  8
0
 10
-28.8763
 20
32.859
 11
-28.6817
 21
33.7741
  0
LINE
  8
0
 10
-28.6817
 20
33.7741
 11
-28.1318
 21
34.5311
  0
LINE
  8
0
 10
-28.1318
 20
34.5311
 11
-27.3215
 21
34.9989
  0
LINE
  8
0
 10
-27.3215
 20
34.9989
 11
-26.3911
 21
35.0966
  0
LINE
  8
0
 10
-26.3911
 20
35.0966
 11
-25.5012
 21
34.8075
  0
LINE
  8
0
 10
-25.5012
 20
34.8075
 11
-24.806
 21
34.1815
  0
LINE
  8
0
 10
-24.806
 20
34.1815
 11
-24.4254
 21
33.3268
  0
LINE
  8
0
 10
-24.4254
 20
33.3268
 11
-24.4254
 21
32.3912
  0
LINE
  8
0
 10
-24.4254
 20
32.3912
 11
-24.806
 21
31.5365
  0
LINE
  8
0
 10
-24.806
 20
31.5365
 11
-25.5012
 21
30.9104
  0
LINE
  8
0
 10
-25.5012
 20
30.9104
 11
-26.3911
 21
30.6213
  0
LINE
  8
0
 10
-26.3911
 20
30.6213
 11
-27.3215
 21
30.7191
  0
LINE
  8
0
 10
-7.45836
 20
25.5483
 11
-8.08441
 21
26.2436
  0
LINE
  8
0
 10
-8.08441
 20
26.2436
 11
-8.37352
 21
27.1334
  0
LINE
  8
0
 10
-8.37352
 20
27.1334
 11
-8.27573
 21
28.0639
  0
LINE
  8
0
 10
-8.27573
 20
28.0639
 11
-7.80792
 21
28.8741
  0
LINE
  8
0
 10
-7.80792
 20
28.8741
 11
-7.05101
 21
29.4241
  0
LINE
  8
0
 10
-7.05101
 20
29.4241
 11
-6.13585
 21
29.6186
  0
LINE
  8
0
 10
-6.13585
 20
29.6186
 11
-5.22069
 21
29.4241
  0
LINE
  8
0
 10
-5.22069
 20
29.4241
 11
-4.46378
 21
28.8741
  0
LINE
  8
0
 10
-4.46378
 20
28.8741
 11
-3.99599
 21
28.0639
  0
LINE
  8
0
 10
-3.99599
 20
28.0639
 11
-3.89818
 21
27.1334
  0
LINE
  8
0
 10
-3.89818
 20
27.1334
 11
-4.1873
 21
26.2436
  0
LINE
  8
0
 10
-4.1873
 20
26.2436
 11
-4.81332
 21
25.5483
  0
LINE
  8
0
 10
-4.81332
 20
25.5483
 11
-5.66806
 21
25.1678
  0
LINE
  8
0
 10
-5.66806
 20
25.1678
 11
-6.60365
 21
25.1678
  0
LINE
  8
0
 10
-6.60365
 20
25.1678
 11
-7.45836
 21
25.5483
  0
LINE
  8
0
 10
-33.4391
 20
10.5483
 11
-34.0652
 21
11.2436
  0
LINE
  8
0
 10
-34.0652
 20
11.2436
 11
-34.3543
 21
12.1334
  0
LINE
  8
0
 10
-34.3543
 20
12.1334
 11
-34.2565
 21
13.0639
  0
LINE
  8
0
 10
-34.2565
 20
13.0639
 11
-33.7887
 21
13.8741
  0
LINE
  8
0
 10
-33.7887
 20
13.8741
 11
-33.0318
 21
14.4241
  0
LINE
  8
0
 10
-33.0318
 20
14.4241
 11
-32.1166
 21
14.6186
  0
LINE
  8
0
 10
-32.1166
 20
14.6186
 11
-31.2015
 21
14.4241
  0
LINE
  8
0
 10
-31.2015
 20
14.4241
 11
-30.4445
 21
13.8741
  0
LINE
  8
0
 10
-30.4445
 20
13.8741
 11
-29.9767
 21
13.0639
  0
LINE
  8
0
 10
-29.9767
 20
13.0639
 11
-29.8789
 21
12.1334
  0
LINE
  8
0
 10
-29.8789
 20
12.1334
 11
-30.1681
 21
11.2436
  0
LINE
  8
0
 10
-30.1681
 20
11.2436
 11
-30.7941
 21
10.5483
  0
LINE
  8
0
 10
-30.7941
 20
10.5483
 11
-31.6488
 21
10.1678
  0
LINE
  8
0
 10
-31.6488
 20
10.1678
 11
-32.5844
 21
10.1678
  0
LINE
  8
0
 10
-32.5844
 20
10.1678
 11
-33.4391
 21
10.5483
  0
LINE
  8
0
 10
-12.3215
 20
4.73834
 11
-13.1318
 21
5.20615
  0
LINE
  8
0
 10
-13.1318
 20
5.20615
 11
-13.6817
 21
5.96306
  0
LINE
  8
0
 10
-13.6817
 20
5.96306
 11
-13.8762
 21
6.8782
  0
LINE
  8
0
 10
-13.8762
 20
6.8782
 11
-13.6817
 21
7.79338
  0
LINE
  8
0
 10
-13.6817
 20
7.79338
 11
-13.1318
 21
8.55029
  0
LINE
  8
0
 10
-13.1318
 20
8.55029
 11
-12.3215
 21
9.01808
  0
LINE
  8
0
 10
-12.3215
 20
9.01808
 11
-11.3911
 21
9.11589
  0
LINE
  8
0
 10
-11.3911
 20
9.11589
 11
-10.5012
 21
8.82677
  0
LINE
  8
0
 10
-10.5012
 20
8.82677
 11
-9.80595
 21
8.20074
  0
LINE
  8
0
 10
-9.80595
 20
8.20074
 11
-9.42542
 21
7.34601
  0
LINE
  8
0
 10
-9.42542
 20
7.34601
 11
-9.4254
 21
6.41042
  0
LINE
  8
0
 10
-9.4254
 20
6.41042
 11
-9.80597
 21
5.55569
  0
LINE
  8
0
 10
-9.80597
 20
5.55569
 11
-10.5012
 21
4.92966
  0
LINE
  8
0
 10
-10.5012
 20
4.92966
 11
-11.3911
 21
4.64055
  0
LINE
  8
0
 10
-11.3911
 20
4.64055
 11
-12.3215
 21
4.73834
  0
LINE
  8
0
 10
-1.56602
 20
-212.611
 11
13.1934
 21
-207.816
  0
LINE
  8
0
 10
13.1934
 20
-207.816
 11
26.6333
 21
-200.056
  0
LINE
  8
0
 10
26.6333
 20
-200.056
 11
38.1661
 21
-189.672
  0
LINE
  8
0
 10
38.1661
 20
-189.672
 11
47.2879
 21
-177.117
  0
LINE
  8
0
 10
47.2879
 20
-177.117
 11
53.6001
 21
-162.939
  0
LINE
  8
0
 10
53.6001
 20
-162.939
 11
56.8267
 21
-147.759
  0
LINE
  8
0
 10
56.8267
 20
-147.759
 11
56.8267
 21
-132.24
  0
LINE
  8
0
 10
56.8267
 20
-132.24
 11
53.6001
 21
-117.061
  0
LINE
  8
0
 10
53.6001
 20
-117.061
 11
47.2879
 21
-102.883
  0
LINE
  8
0
 10
47.2879
 20
-102.883
 11
38.1661
 21
-90.3282
  0
LINE
  8
0
 10
38.1661
 20
-90.3282
 11
26.6332
 21
-79.944
  0
LINE
  8
0
 10
26.6332
 20
-79.944
 11
13.1934
 21
-72.1845
  0
LINE
  8
0
 10
13.1934
 20
-72.1845
 11
-1.56601
 21
-67.3889
  0
LINE
  8
0
 10
-1.56601
 20
-67.3889
 11
-17
 21
-65.7667
  0
LINE
  8
0
 10
-17
 20
-65.7667
 11
-32.434
 21
-67.3889
  0
LINE
  8
0
 10
-32.434
 20
-67.3889
 11
-47.1934
 21
-72.1845
  0
LINE
  8
0
 10
-47.1934
 20
-72.1845
 11
-60.6333
 21
-79.944
  0
LINE
  8
0
 10
-60.6333
 20
-79.944
 11
-72.1661
 21
-90.3282
  0
LINE
  8
0
 10
-72.1661
 20
-90.3282
 11
-81.2879
 21
-102.883
  0
LINE
  8
0
 10
-81.2879
 20
-102.883
 11
-87.6001
 21
-117.061
  0
LINE
  8
0
 10
-87.6001
 20
-117.061
 11
-90.8267
 21
-132.24
  0
LINE
  8
0
 10
-90.8267
 20
-132.24
 11
-90.8267
 21
-147.759
  0
LINE
  8
0
 10
-90.8267
 20
-147.759
 11
-87.6001
 21
-162.939
  0
LINE
  8
0
 10
-87.6001
 20
-162.939
 11
-81.2879
 21
-177.117
  0
LINE
  8
0
 10
-81.2879
 20
-177.117
 11
-72.1661
 21
-189.672
  0
LINE
  8
0
 10
-72.1661
 20
-189.672
 11
-60.6332
 21
-200.056
  0
LINE
  8
0
 10
-60.6332
 20
-200.056
 11
-47.1934
 21
-207.816
  0
LINE
  8
0
 10
-47.1934
 20
-207.816
 11
-32.434
 21
-212.611
  0
LINE
  8
0
 10
-32.434
 20
-212.611
 11
-17
 21
-214.233
  0
LINE
  8
0
 10
-17
 20
-214.233
 11
-1.56602
 21
-212.611
  0
LINE
  8
0
 10
-26.0353
 20
-167.325
 11
-26.6125
 21
-167.195
  0
LINE
  8
0
 10
-26.6125
 20
-167.195
 11
-27.1699
 21
-166.996
  0
LINE
  8
0
 10
-27.1699
 20
-166.996
 11
-27.6993
 21
-166.732
  0
LINE
  8
0
 10
-27.6993
 20
-166.732
 11
-34.8007
 21
-162.632
  0
LINE
  8
0
 10
-34.8007
 20
-162.632
 11
-35.2943
 21
-162.305
  0
LINE
  8
0
 10
-35.2943
 20
-162.305
 11
-35.745
 21
-161.922
  0
LINE
  8
0
 10
-35.745
 20
-161.922
 11
-36.1462
 21
-161.487
  0
LINE
  8
0
 10
-36.1462
 20
-161.487
 11
-36.4921
 21
-161.007
  0
LINE
  8
0
 10
-36.4921
 20
-161.007
 11
-36.7776
 21
-160.489
  0
LINE
  8
0
 10
-36.7776
 20
-160.489
 11
-36.9985
 21
-159.94
  0
LINE
  8
0
 10
-36.9985
 20
-159.94
 11
-37.1517
 21
-159.368
  0
LINE
  8
0
 10
-37.1517
 20
-159.368
 11
-37.2348
 21
-158.782
  0
LINE
  8
0
 10
-37.2348
 20
-158.782
 11
-37.2467
 21
-158.191
  0
LINE
  8
0
 10
-37.2467
 20
-158.191
 11
-37.1872
 21
-157.602
  0
LINE
  8
0
 10
-37.1872
 20
-157.602
 11
-37.0572
 21
-157.025
  0
LINE
  8
0
 10
-37.0572
 20
-157.025
 11
-36.8586
 21
-156.468
  0
LINE
  8
0
 10
-36.8586
 20
-156.468
 11
-36.5942
 21
-155.938
  0
LINE
  8
0
 10
-36.5942
 20
-155.938
 11
-29.2942
 21
-143.294
  0
LINE
  8
0
 10
-29.2942
 20
-143.294
 11
-41.9382
 21
-135.994
  0
LINE
  8
0
 10
-41.9382
 20
-135.994
 11
-42.4318
 21
-135.668
  0
LINE
  8
0
 10
-42.4318
 20
-135.668
 11
-42.8826
 21
-135.285
  0
LINE
  8
0
 10
-42.8826
 20
-135.285
 11
-43.2838
 21
-134.85
  0
LINE
  8
0
 10
-43.2838
 20
-134.85
 11
-43.6296
 21
-134.37
  0
LINE
  8
0
 10
-43.6296
 20
-134.37
 11
-43.9151
 21
-133.851
  0
LINE
  8
0
 10
-43.9151
 20
-133.851
 11
-44.136
 21
-133.302
  0
LINE
  8
0
 10
-44.136
 20
-133.302
 11
-44.2892
 21
-132.731
  0
LINE
  8
0
 10
-44.2892
 20
-132.731
 11
-44.3723
 21
-132.145
  0
LINE
  8
0
 10
-44.3723
 20
-132.145
 11
-44.3842
 21
-131.553
  0
LINE
  8
0
 10
-44.3842
 20
-131.553
 11
-44.3247
 21
-130.965
  0
LINE
  8
0
 10
-44.3247
 20
-130.965
 11
-44.1947
 21
-130.387
  0
LINE
  8
0
 10
-44.1947
 20
-130.387
 11
-43.9961
 21
-129.83
  0
LINE
  8
0
 10
-43.9961
 20
-129.83
 11
-43.7317
 21
-129.301
  0
LINE
  8
0
 10
-43.7317
 20
-129.301
 11
-39.6317
 21
-122.199
  0
LINE
  8
0
 10
-39.6317
 20
-122.199
 11
-39.3055
 21
-121.706
  0
LINE
  8
0
 10
-39.3055
 20
-121.706
 11
-38.9221
 21
-121.255
  0
LINE
  8
0
 10
-38.9221
 20
-121.255
 11
-38.4872
 21
-120.854
  0
LINE
  8
0
 10
-38.4872
 20
-120.854
 11
-38.0071
 21
-120.508
  0
LINE
  8
0
 10
-38.0071
 20
-120.508
 11
-37.4888
 21
-120.222
  0
LINE
  8
0
 10
-37.4888
 20
-120.222
 11
-36.9399
 21
-120.001
  0
LINE
  8
0
 10
-36.9399
 20
-120.001
 11
-36.3683
 21
-119.848
  0
LINE
  8
0
 10
-36.3683
 20
-119.848
 11
-35.7825
 21
-119.765
  0
LINE
  8
0
 10
-35.7825
 20
-119.765
 11
-35.1909
 21
-119.753
  0
LINE
  8
0
 10
-35.1909
 20
-119.753
 11
-34.6022
 21
-119.813
  0
LINE
  8
0
 10
-34.6022
 20
-119.813
 11
-34.0249
 21
-119.943
  0
LINE
  8
0
 10
-34.0249
 20
-119.943
 11
-33.4676
 21
-120.141
  0
LINE
  8
0
 10
-33.4676
 20
-120.141
 11
-32.9382
 21
-120.406
  0
LINE
  8
0
 10
-32.9382
 20
-120.406
 11
-20.2942
 21
-127.706
  0
LINE
  8
0
 10
-20.2942
 20
-127.706
 11
-12.9942
 21
-115.062
  0
LINE
  8
0
 10
-12.9942
 20
-115.062
 11
-12.6679
 21
-114.568
  0
LINE
  8
0
 10
-12.6679
 20
-114.568
 11
-12.2846
 21
-114.117
  0
LINE
  8
0
 10
-12.2846
 20
-114.117
 11
-11.8497
 21
-113.716
  0
LINE
  8
0
 10
-11.8497
 20
-113.716
 11
-11.3696
 21
-113.37
  0
LINE
  8
0
 10
-11.3696
 20
-113.37
 11
-10.8513
 21
-113.085
  0
LINE
  8
0
 10
-10.8513
 20
-113.085
 11
-10.3024
 21
-112.864
  0
LINE
  8
0
 10
-10.3024
 20
-112.864
 11
-9.7308
 21
-112.711
  0
LINE
  8
0
 10
-9.7308
 20
-112.711
 11
-9.14497
 21
-112.628
  0
LINE
  8
0
 10
-9.14497
 20
-112.628
 11
-8.55338
 21
-112.616
  0
LINE
  8
0
 10
-8.55338
 20
-112.616
 11
-7.96466
 21
-112.675
  0
LINE
  8
0
 10
-7.96466
 20
-112.675
 11
-7.38742
 21
-112.805
  0
LINE
  8
0
 10
-7.38742
 20
-112.805
 11
-6.83005
 21
-113.004
  0
LINE
  8
0
 10
-6.83005
 20
-113.004
 11
-6.30067
 21
-113.268
  0
LINE
  8
0
 10
-6.30067
 20
-113.268
 11
0.800705
 21
-117.368
  0
LINE
  8
0
 10
0.800705
 20
-117.368
 11
1.29434
 21
-117.695
  0
LINE
  8
0
 10
1.29434
 20
-117.695
 11
1.74506
 21
-118.078
  0
LINE
  8
0
 10
1.74506
 20
-118.078
 11
2.14626
 21
-118.513
  0
LINE
  8
0
 10
2.14626
 20
-118.513
 11
2.49213
 21
-118.993
  0
LINE
  8
0
 10
2.49213
 20
-118.993
 11
2.77762
 21
-119.511
  0
LINE
  8
0
 10
2.77762
 20
-119.511
 11
2.99852
 21
-120.06
  0
LINE
  8
0
 10
2.99852
 20
-120.06
 11
3.15167
 21
-120.632
  0
LINE
  8
0
 10
3.15167
 20
-120.632
 11
3.23482
 21
-121.218
  0
LINE
  8
0
 10
3.23482
 20
-121.218
 11
3.24672
 21
-121.809
  0
LINE
  8
0
 10
3.24672
 20
-121.809
 11
3.18724
 21
-122.398
  0
LINE
  8
0
 10
3.18724
 20
-122.398
 11
3.05724
 21
-122.975
  0
LINE
  8
0
 10
3.05724
 20
-122.975
 11
2.8586
 21
-123.532
  0
LINE
  8
0
 10
2.8586
 20
-123.532
 11
2.59422
 21
-124.062
  0
LINE
  8
0
 10
2.59422
 20
-124.062
 11
-4.70576
 21
-136.706
  0
LINE
  8
0
 10
-4.70576
 20
-136.706
 11
7.93819
 21
-144.006
  0
LINE
  8
0
 10
7.93819
 20
-144.006
 11
8.43182
 21
-144.332
  0
LINE
  8
0
 10
8.43182
 20
-144.332
 11
8.88254
 21
-144.715
  0
LINE
  8
0
 10
8.88254
 20
-144.715
 11
9.28374
 21
-145.15
  0
LINE
  8
0
 10
9.28374
 20
-145.15
 11
9.62961
 21
-145.63
  0
LINE
  8
0
 10
9.62961
 20
-145.63
 11
9.9151
 21
-146.149
  0
LINE
  8
0
 10
9.9151
 20
-146.149
 11
10.136
 21
-146.698
  0
LINE
  8
0
 10
10.136
 20
-146.698
 11
10.2892
 21
-147.269
  0
LINE
  8
0
 10
10.2892
 20
-147.269
 11
10.3723
 21
-147.855
  0
LINE
  8
0
 10
10.3723
 20
-147.855
 11
10.3842
 21
-148.447
  0
LINE
  8
0
 10
10.3842
 20
-148.447
 11
10.3247
 21
-149.035
  0
LINE
  8
0
 10
10.3247
 20
-149.035
 11
10.1947
 21
-149.613
  0
LINE
  8
0
 10
10.1947
 20
-149.613
 11
9.99608
 21
-150.17
  0
LINE
  8
0
 10
9.99608
 20
-150.17
 11
9.7317
 21
-150.699
  0
LINE
  8
0
 10
9.7317
 20
-150.699
 11
5.63171
 21
-157.801
  0
LINE
  8
0
 10
5.63171
 20
-157.801
 11
5.30545
 21
-158.294
  0
LINE
  8
0
 10
5.30545
 20
-158.294
 11
4.92207
 21
-158.745
  0
LINE
  8
0
 10
4.92207
 20
-158.745
 11
4.48715
 21
-159.146
  0
LINE
  8
0
 10
4.48715
 20
-159.146
 11
4.00706
 21
-159.492
  0
LINE
  8
0
 10
4.00706
 20
-159.492
 11
3.48877
 21
-159.778
  0
LINE
  8
0
 10
3.48877
 20
-159.778
 11
2.93987
 21
-159.999
  0
LINE
  8
0
 10
2.93987
 20
-159.999
 11
2.3683
 21
-160.152
  0
LINE
  8
0
 10
2.3683
 20
-160.152
 11
1.78247
 21
-160.235
  0
LINE
  8
0
 10
1.78247
 20
-160.235
 11
1.19089
 21
-160.247
  0
LINE
  8
0
 10
1.19089
 20
-160.247
 11
0.602173
 21
-160.187
  0
LINE
  8
0
 10
0.602173
 20
-160.187
 11
0.0249176
 21
-160.057
  0
LINE
  8
0
 10
0.0249176
 20
-160.057
 11
-0.53244
 21
-159.859
  0
LINE
  8
0
 10
-0.53244
 20
-159.859
 11
-1.0618
 21
-159.594
  0
LINE
  8
0
 10
-1.0618
 20
-159.594
 11
-13.7058
 21
-152.294
  0
LINE
  8
0
 10
-13.7058
 20
-152.294
 11
-21.0058
 21
-164.938
  0
LINE
  8
0
 10
-21.0058
 20
-164.938
 11
-21.332
 21
-165.432
  0
LINE
  8
0
 10
-21.332
 20
-165.432
 11
-21.7154
 21
-165.883
  0
LINE
  8
0
 10
-21.7154
 20
-165.883
 11
-22.1503
 21
-166.284
  0
LINE
  8
0
 10
-22.1503
 20
-166.284
 11
-22.6304
 21
-166.63
  0
LINE
  8
0
 10
-22.6304
 20
-166.63
 11
-23.1487
 21
-166.915
  0
LINE
  8
0
 10
-23.1487
 20
-166.915
 11
-23.6976
 21
-167.136
  0
LINE
  8
0
 10
-23.6976
 20
-167.136
 11
-24.2692
 21
-167.289
  0
LINE
  8
0
 10
-24.2692
 20
-167.289
 11
-24.855
 21
-167.372
  0
LINE
  8
0
 10
-24.855
 20
-167.372
 11
-25.4466
 21
-167.384
  0
LINE
  8
0
 10
-25.4466
 20
-167.384
 11
-26.0353
 21
-167.325
  0
LINE
  8
0
 10
-5.12498
 20
-123.329
 11
-4.4297
 21
-122.703
  0
LINE
  8
0
 10
-4.4297
 20
-122.703
 11
-4.04916
 21
-121.848
  0
LINE
  8
0
 10
-4.04916
 20
-121.848
 11
-4.04915
 21
-120.913
  0
LINE
  8
0
 10
-4.04915
 20
-120.913
 11
-4.4297
 21
-120.058
  0
LINE
  8
0
 10
-4.4297
 20
-120.058
 11
-5.125
 21
-119.432
  0
LINE
  8
0
 10
-5.125
 20
-119.432
 11
-6.01479
 21
-119.143
  0
LINE
  8
0
 10
-6.01479
 20
-119.143
 11
-6.94527
 21
-119.241
  0
LINE
  8
0
 10
-6.94527
 20
-119.241
 11
-7.75551
 21
-119.708
  0
LINE
  8
0
 10
-7.75551
 20
-119.708
 11
-8.30547
 21
-120.465
  0
LINE
  8
0
 10
-8.30547
 20
-120.465
 11
-8.49997
 21
-121.38
  0
LINE
  8
0
 10
-8.49997
 20
-121.38
 11
-8.30545
 21
-122.296
  0
LINE
  8
0
 10
-8.30545
 20
-122.296
 11
-7.75551
 21
-123.053
  0
LINE
  8
0
 10
-7.75551
 20
-123.053
 11
-6.94528
 21
-123.52
  0
LINE
  8
0
 10
-6.94528
 20
-123.52
 11
-6.0148
 21
-123.618
  0
LINE
  8
0
 10
-6.0148
 20
-123.618
 11
-5.12498
 21
-123.329
  0
LINE
  8
0
 10
-34.297
 20
-131.07
 11
-33.671
 21
-130.375
  0
LINE
  8
0
 10
-33.671
 20
-130.375
 11
-33.3819
 21
-129.485
  0
LINE
  8
0
 10
-33.3819
 20
-129.485
 11
-33.4797
 21
-128.555
  0
LINE
  8
0
 10
-33.4797
 20
-128.555
 11
-33.9475
 21
-127.744
  0
LINE
  8
0
 10
-33.9475
 20
-127.744
 11
-34.7044
 21
-127.195
  0
LINE
  8
0
 10
-34.7044
 20
-127.195
 11
-35.6195
 21
-127
  0
LINE
  8
0
 10
-35.6195
 20
-127
 11
-36.5347
 21
-127.195
  0
LINE
  8
0
 10
-36.5347
 20
-127.195
 11
-37.2916
 21
-127.744
  0
LINE
  8
0
 10
-37.2916
 20
-127.744
 11
-37.7594
 21
-128.555
  0
LINE
  8
0
 10
-37.7594
 20
-128.555
 11
-37.8572
 21
-129.485
  0
LINE
  8
0
 10
-37.8572
 20
-129.485
 11
-37.5681
 21
-130.375
  0
LINE
  8
0
 10
-37.5681
 20
-130.375
 11
-36.9421
 21
-131.07
  0
LINE
  8
0
 10
-36.9421
 20
-131.07
 11
-36.0873
 21
-131.451
  0
LINE
  8
0
 10
-36.0873
 20
-131.451
 11
-35.1517
 21
-131.451
  0
LINE
  8
0
 10
-35.1517
 20
-131.451
 11
-34.297
 21
-131.07
  0
LINE
  8
0
 10
-14.9215
 20
-141.2
 11
-14.6818
 21
-139.379
  0
LINE
  8
0
 10
-14.6818
 20
-139.379
 11
-15.8
 21
-137.922
  0
LINE
  8
0
 10
-15.8
 20
-137.922
 11
-17.6212
 21
-137.682
  0
LINE
  8
0
 10
-17.6212
 20
-137.682
 11
-19.0784
 21
-138.8
  0
LINE
  8
0
 10
-19.0784
 20
-138.8
 11
-19.3182
 21
-140.621
  0
LINE
  8
0
 10
-19.3182
 20
-140.621
 11
-18.2
 21
-142.078
  0
LINE
  8
0
 10
-18.2
 20
-142.078
 11
-16.3788
 21
-142.318
  0
LINE
  8
0
 10
-16.3788
 20
-142.318
 11
-14.9215
 21
-141.2
  0
LINE
  8
0
 10
2.94205
 20
-152.57
 11
3.5681
 21
-151.875
  0
LINE
  8
0
 10
3.5681
 20
-151.875
 11
3.85719
 21
-150.985
  0
LINE
  8
0
 10
3.85719
 20
-150.985
 11
3.75941
 21
-150.055
  0
LINE
  8
0
 10
3.75941
 20
-150.055
 11
3.2916
 21
-149.244
  0
LINE
  8
0
 10
3.2916
 20
-149.244
 11
2.53468
 21
-148.695
  0
LINE
  8
0
 10
2.53468
 20
-148.695
 11
1.61954
 21
-148.5
  0
LINE
  8
0
 10
1.61954
 20
-148.5
 11
0.704376
 21
-148.695
  0
LINE
  8
0
 10
0.704376
 20
-148.695
 11
-0.052536
 21
-149.244
  0
LINE
  8
0
 10
-0.052536
 20
-149.244
 11
-0.520325
 21
-150.055
  0
LINE
  8
0
 10
-0.520325
 20
-150.055
 11
-0.618134
 21
-150.985
  0
LINE
  8
0
 10
-0.618134
 20
-150.985
 11
-0.32901
 21
-151.875
  0
LINE
  8
0
 10
-0.32901
 20
-151.875
 11
0.297012
 21
-152.57
  0
LINE
  8
0
 10
0.297012
 20
-152.57
 11
1.15173
 21
-152.951
  0
LINE
  8
0
 10
1.15173
 20
-152.951
 11
2.08733
 21
-152.951
  0
LINE
  8
0
 10
2.08733
 20
-152.951
 11
2.94205
 21
-152.57
  0
LINE
  8
0
 10
-26.625
 20
-160.568
 11
-25.9297
 21
-159.942
  0
LINE
  8
0
 10
-25.9297
 20
-159.942
 11
-25.5492
 21
-159.087
  0
LINE
  8
0
 10
-25.5492
 20
-159.087
 11
-25.5491
 21
-158.152
  0
LINE
  8
0
 10
-25.5491
 20
-158.152
 11
-25.9297
 21
-157.297
  0
LINE
  8
0
 10
-25.9297
 20
-157.297
 11
-26.625
 21
-156.671
  0
LINE
  8
0
 10
-26.625
 20
-156.671
 11
-27.5148
 21
-156.382
  0
LINE
  8
0
 10
-27.5148
 20
-156.382
 11
-28.4453
 21
-156.48
  0
LINE
  8
0
 10
-28.4453
 20
-156.48
 11
-29.2555
 21
-156.947
  0
LINE
  8
0
 10
-29.2555
 20
-156.947
 11
-29.8055
 21
-157.704
  0
LINE
  8
0
 10
-29.8055
 20
-157.704
 11
-30
 21
-158.62
  0
LINE
  8
0
 10
-30
 20
-158.62
 11
-29.8055
 21
-159.535
  0
LINE
  8
0
 10
-29.8055
 20
-159.535
 11
-29.2555
 21
-160.292
  0
LINE
  8
0
 10
-29.2555
 20
-160.292
 11
-28.4453
 21
-160.759
  0
LINE
  8
0
 10
-28.4453
 20
-160.759
 11
-27.5148
 21
-160.857
  0
LINE
  8
0
 10
-27.5148
 20
-160.857
 11
-26.625
 21
-160.568
  0
LINE
  8
0
 10
53.8176
 20
-206.663
 11
55.0347
 21
-206.36
  0
LINE
  8
0
 10
55.0347
 20
-206.36
 11
89.2677
 21
-193.9
  0
LINE
  8
0
 10
89.2677
 20
-193.9
 11
90.3951
 21
-193.35
  0
LINE
  8
0
 10
90.3951
 20
-193.35
 11
91.3835
 21
-192.578
  0
LINE
  8
0
 10
91.3835
 20
-192.578
 11
92.1898
 21
-191.617
  0
LINE
  8
0
 10
92.1898
 20
-191.617
 11
92.7787
 21
-190.509
  0
LINE
  8
0
 10
92.7787
 20
-190.509
 11
93.1244
 21
-189.304
  0
LINE
  8
0
 10
93.1244
 20
-189.304
 11
93.2119
 21
-188.052
  0
LINE
  8
0
 10
93.2119
 20
-188.052
 11
93.0374
 21
-186.81
  0
LINE
  8
0
 10
93.0374
 20
-186.81
 11
92.8228
 21
-186.221
  0
LINE
  8
0
 10
92.8228
 20
-186.221
 11
92.8537
 21
-186.21
  0
LINE
  8
0
 10
92.8537
 20
-186.21
 11
72.8695
 21
-131.303
  0
LINE
  8
0
 10
72.8695
 20
-131.303
 11
72.8386
 21
-131.315
  0
LINE
  8
0
 10
72.8386
 20
-131.315
 11
72.6241
 21
-130.725
  0
LINE
  8
0
 10
72.6241
 20
-130.725
 11
71.9594
 21
-129.662
  0
LINE
  8
0
 10
71.9594
 20
-129.662
 11
71.0881
 21
-128.759
  0
LINE
  8
0
 10
71.0881
 20
-128.759
 11
70.0482
 21
-128.058
  0
LINE
  8
0
 10
70.0482
 20
-128.058
 11
68.8852
 21
-127.588
  0
LINE
  8
0
 10
68.8852
 20
-127.588
 11
67.6499
 21
-127.37
  0
LINE
  8
0
 10
67.6499
 20
-127.37
 11
66.3963
 21
-127.414
  0
LINE
  8
0
 10
66.3963
 20
-127.414
 11
65.1792
 21
-127.717
  0
LINE
  8
0
 10
65.1792
 20
-127.717
 11
59.865
 21
-129.652
  0
LINE
  8
0
 10
59.865
 20
-129.652
 11
60.5832
 21
-137.543
  0
LINE
  8
0
 10
60.5832
 20
-137.543
 11
60.2513
 21
-147.048
  0
LINE
  8
0
 10
60.2513
 20
-147.048
 11
58.7307
 21
-156.437
  0
LINE
  8
0
 10
58.7307
 20
-156.437
 11
56.0454
 21
-165.56
  0
LINE
  8
0
 10
56.0454
 20
-165.56
 11
52.2378
 21
-174.276
  0
LINE
  8
0
 10
52.2378
 20
-174.276
 11
47.368
 21
-182.445
  0
LINE
  8
0
 10
47.368
 20
-182.445
 11
42.3043
 21
-188.926
  0
LINE
  8
0
 10
42.3043
 20
-188.926
 11
47.3444
 21
-202.774
  0
LINE
  8
0
 10
47.3444
 20
-202.774
 11
47.3753
 21
-202.762
  0
LINE
  8
0
 10
47.3753
 20
-202.762
 11
47.5898
 21
-203.352
  0
LINE
  8
0
 10
47.5898
 20
-203.352
 11
48.2545
 21
-204.416
  0
LINE
  8
0
 10
48.2545
 20
-204.416
 11
49.1259
 21
-205.318
  0
LINE
  8
0
 10
49.1259
 20
-205.318
 11
50.1658
 21
-206.019
  0
LINE
  8
0
 10
50.1658
 20
-206.019
 11
51.3288
 21
-206.489
  0
LINE
  8
0
 10
51.3288
 20
-206.489
 11
52.5641
 21
-206.707
  0
LINE
  8
0
 10
52.5641
 20
-206.707
 11
53.8176
 21
-206.663
  0
LINE
  8
0
 10
65.2351
 20
-135.963
 11
63.9424
 21
-134.553
  0
LINE
  8
0
 10
63.9424
 20
-134.553
 11
64.0259
 21
-132.641
  0
LINE
  8
0
 10
64.0259
 20
-132.641
 11
65.4366
 21
-131.348
  0
LINE
  8
0
 10
65.4366
 20
-131.348
 11
67.3482
 21
-131.432
  0
LINE
  8
0
 10
67.3482
 20
-131.432
 11
68.6409
 21
-132.843
  0
LINE
  8
0
 10
68.6409
 20
-132.843
 11
68.5574
 21
-134.754
  0
LINE
  8
0
 10
68.5574
 20
-134.754
 11
67.1467
 21
-136.047
  0
LINE
  8
0
 10
67.1467
 20
-136.047
 11
65.2351
 21
-135.963
  0
LINE
  8
0
 10
85.2194
 20
-190.87
 11
83.9267
 21
-189.459
  0
LINE
  8
0
 10
83.9267
 20
-189.459
 11
84.0101
 21
-187.547
  0
LINE
  8
0
 10
84.0101
 20
-187.547
 11
85.4209
 21
-186.255
  0
LINE
  8
0
 10
85.4209
 20
-186.255
 11
87.3324
 21
-186.338
  0
LINE
  8
0
 10
87.3324
 20
-186.338
 11
88.6251
 21
-187.749
  0
LINE
  8
0
 10
88.6251
 20
-187.749
 11
88.5417
 21
-189.66
  0
LINE
  8
0
 10
88.5417
 20
-189.66
 11
87.131
 21
-190.953
  0
LINE
  8
0
 10
87.131
 20
-190.953
 11
85.2194
 21
-190.87
  0
LINE
  8
0
 10
52.8658
 20
-202.645
 11
51.5731
 21
-201.235
  0
LINE
  8
0
 10
51.5731
 20
-201.235
 11
51.6565
 21
-199.323
  0
LINE
  8
0
 10
51.6565
 20
-199.323
 11
53.0672
 21
-198.03
  0
LINE
  8
0
 10
53.0672
 20
-198.03
 11
54.9789
 21
-198.114
  0
LINE
  8
0
 10
54.9789
 20
-198.114
 11
56.2715
 21
-199.525
  0
LINE
  8
0
 10
56.2715
 20
-199.525
 11
56.1881
 21
-201.436
  0
LINE
  8
0
 10
56.1881
 20
-201.436
 11
54.7773
 21
-202.729
  0
LINE
  8
0
 10
54.7773
 20
-202.729
 11
52.8658
 21
-202.645
  0
LINE
  8
0
 10
-167.327
 20
-285.867
 11
-153.15
 21
-279.555
  0
LINE
  8
0
 10
-153.15
 20
-279.555
 11
-140.595
 21
-270.433
  0
LINE
  8
0
 10
-140.595
 20
-270.433
 11
-130.211
 21
-258.9
  0
LINE
  8
0
 10
-130.211
 20
-258.9
 11
-122.451
 21
-245.46
  0
LINE
  8
0
 10
-122.451
 20
-245.46
 11
-117.656
 21
-230.701
  0
LINE
  8
0
 10
-117.656
 20
-230.701
 11
-116.033
 21
-215.267
  0
LINE
  8
0
 10
-116.033
 20
-215.267
 11
-117.656
 21
-199.833
  0
LINE
  8
0
 10
-117.656
 20
-199.833
 11
-122.451
 21
-185.073
  0
LINE
  8
0
 10
-122.451
 20
-185.073
 11
-130.211
 21
-171.633
  0
LINE
  8
0
 10
-130.211
 20
-171.633
 11
-140.595
 21
-160.101
  0
LINE
  8
0
 10
-140.595
 20
-160.101
 11
-153.15
 21
-150.979
  0
LINE
  8
0
 10
-153.15
 20
-150.979
 11
-167.327
 21
-144.667
  0
LINE
  8
0
 10
-167.327
 20
-144.667
 11
-182.507
 21
-141.44
  0
LINE
  8
0
 10
-182.507
 20
-141.44
 11
-198.026
 21
-141.44
  0
LINE
  8
0
 10
-198.026
 20
-141.44
 11
-213.206
 21
-144.667
  0
LINE
  8
0
 10
-213.206
 20
-144.667
 11
-227.383
 21
-150.979
  0
LINE
  8
0
 10
-227.383
 20
-150.979
 11
-239.938
 21
-160.101
  0
LINE
  8
0
 10
-239.938
 20
-160.101
 11
-250.323
 21
-171.633
  0
LINE
  8
0
 10
-250.323
 20
-171.633
 11
-258.082
 21
-185.073
  0
LINE
  8
0
 10
-258.082
 20
-185.073
 11
-262.878
 21
-199.833
  0
LINE
  8
0
 10
-262.878
 20
-199.833
 11
-264.5
 21
-215.267
  0
LINE
  8
0
 10
-264.5
 20
-215.267
 11
-262.878
 21
-230.701
  0
LINE
  8
0
 10
-262.878
 20
-230.701
 11
-258.082
 21
-245.46
  0
LINE
  8
0
 10
-258.082
 20
-245.46
 11
-250.323
 21
-258.9
  0
LINE
  8
0
 10
-250.323
 20
-258.9
 11
-239.938
 21
-270.433
  0
LINE
  8
0
 10
-239.938
 20
-270.433
 11
-227.383
 21
-279.555
  0
LINE
  8
0
 10
-227.383
 20
-279.555
 11
-213.206
 21
-285.867
  0
LINE
  8
0
 10
-213.206
 20
-285.867
 11
-198.026
 21
-289.093
  0
LINE
  8
0
 10
-198.026
 20
-289.093
 11
-182.507
 21
-289.093
  0
LINE
  8
0
 10
-182.507
 20
-289.093
 11
-167.327
 21
-285.867
  0
LINE
  8
0
 10
-194.367
 20
-243.767
 11
-194.957
 21
-243.731
  0
LINE
  8
0
 10
-194.957
 20
-243.731
 11
-195.539
 21
-243.624
  0
LINE
  8
0
 10
-195.539
 20
-243.624
 11
-196.104
 21
-243.448
  0
LINE
  8
0
 10
-196.104
 20
-243.448
 11
-196.644
 21
-243.205
  0
LINE
  8
0
 10
-196.644
 20
-243.205
 11
-197.15
 21
-242.899
  0
LINE
  8
0
 10
-197.15
 20
-242.899
 11
-197.616
 21
-242.534
  0
LINE
  8
0
 10
-197.616
 20
-242.534
 11
-198.034
 21
-242.116
  0
LINE
  8
0
 10
-198.034
 20
-242.116
 11
-198.399
 21
-241.65
  0
LINE
  8
0
 10
-198.399
 20
-241.65
 11
-198.705
 21
-241.144
  0
LINE
  8
0
 10
-198.705
 20
-241.144
 11
-198.948
 21
-240.604
  0
LINE
  8
0
 10
-198.948
 20
-240.604
 11
-199.124
 21
-240.039
  0
LINE
  8
0
 10
-199.124
 20
-240.039
 11
-199.231
 21
-239.457
  0
LINE
  8
0
 10
-199.231
 20
-239.457
 11
-199.267
 21
-238.867
  0
LINE
  8
0
 10
-199.267
 20
-238.867
 11
-199.267
 21
-224.267
  0
LINE
  8
0
 10
-199.267
 20
-224.267
 11
-213.867
 21
-224.267
  0
LINE
  8
0
 10
-213.867
 20
-224.267
 11
-214.457
 21
-224.231
  0
LINE
  8
0
 10
-214.457
 20
-224.231
 11
-215.039
 21
-224.124
  0
LINE
  8
0
 10
-215.039
 20
-224.124
 11
-215.604
 21
-223.948
  0
LINE
  8
0
 10
-215.604
 20
-223.948
 11
-216.144
 21
-223.705
  0
LINE
  8
0
 10
-216.144
 20
-223.705
 11
-216.65
 21
-223.399
  0
LINE
  8
0
 10
-216.65
 20
-223.399
 11
-217.116
 21
-223.034
  0
LINE
  8
0
 10
-217.116
 20
-223.034
 11
-217.534
 21
-222.616
  0
LINE
  8
0
 10
-217.534
 20
-222.616
 11
-217.899
 21
-222.15
  0
LINE
  8
0
 10
-217.899
 20
-222.15
 11
-218.205
 21
-221.644
  0
LINE
  8
0
 10
-218.205
 20
-221.644
 11
-218.448
 21
-221.104
  0
LINE
  8
0
 10
-218.448
 20
-221.104
 11
-218.624
 21
-220.539
  0
LINE
  8
0
 10
-218.624
 20
-220.539
 11
-218.731
 21
-219.957
  0
LINE
  8
0
 10
-218.731
 20
-219.957
 11
-218.767
 21
-219.367
  0
LINE
  8
0
 10
-218.767
 20
-219.367
 11
-218.767
 21
-211.167
  0
LINE
  8
0
 10
-218.767
 20
-211.167
 11
-218.731
 21
-210.576
  0
LINE
  8
0
 10
-218.731
 20
-210.576
 11
-218.624
 21
-209.994
  0
LINE
  8
0
 10
-218.624
 20
-209.994
 11
-218.448
 21
-209.429
  0
LINE
  8
0
 10
-218.448
 20
-209.429
 11
-218.205
 21
-208.89
  0
LINE
  8
0
 10
-218.205
 20
-208.89
 11
-217.899
 21
-208.383
  0
LINE
  8
0
 10
-217.899
 20
-208.383
 11
-217.534
 21
-207.917
  0
LINE
  8
0
 10
-217.534
 20
-207.917
 11
-217.116
 21
-207.499
  0
LINE
  8
0
 10
-217.116
 20
-207.499
 11
-216.65
 21
-207.134
  0
LINE
  8
0
 10
-216.65
 20
-207.134
 11
-216.144
 21
-206.828
  0
LINE
  8
0
 10
-216.144
 20
-206.828
 11
-215.604
 21
-206.585
  0
LINE
  8
0
 10
-215.604
 20
-206.585
 11
-215.039
 21
-206.409
  0
LINE
  8
0
 10
-215.039
 20
-206.409
 11
-214.457
 21
-206.302
  0
LINE
  8
0
 10
-214.457
 20
-206.302
 11
-213.867
 21
-206.267
  0
LINE
  8
0
 10
-213.867
 20
-206.267
 11
-199.267
 21
-206.267
  0
LINE
  8
0
 10
-199.267
 20
-206.267
 11
-199.267
 21
-191.667
  0
LINE
  8
0
 10
-199.267
 20
-191.667
 11
-199.231
 21
-191.076
  0
LINE
  8
0
 10
-199.231
 20
-191.076
 11
-199.124
 21
-190.494
  0
LINE
  8
0
 10
-199.124
 20
-190.494
 11
-198.948
 21
-189.929
  0
LINE
  8
0
 10
-198.948
 20
-189.929
 11
-198.705
 21
-189.39
  0
LINE
  8
0
 10
-198.705
 20
-189.39
 11
-198.399
 21
-188.883
  0
LINE
  8
0
 10
-198.399
 20
-188.883
 11
-198.034
 21
-188.417
  0
LINE
  8
0
 10
-198.034
 20
-188.417
 11
-197.616
 21
-187.999
  0
LINE
  8
0
 10
-197.616
 20
-187.999
 11
-197.15
 21
-187.634
  0
LINE
  8
0
 10
-197.15
 20
-187.634
 11
-196.644
 21
-187.328
  0
LINE
  8
0
 10
-196.644
 20
-187.328
 11
-196.104
 21
-187.085
  0
LINE
  8
0
 10
-196.104
 20
-187.085
 11
-195.539
 21
-186.909
  0
LINE
  8
0
 10
-195.539
 20
-186.909
 11
-194.957
 21
-186.802
  0
LINE
  8
0
 10
-194.957
 20
-186.802
 11
-194.367
 21
-186.767
  0
LINE
  8
0
 10
-194.367
 20
-186.767
 11
-186.167
 21
-186.767
  0
LINE
  8
0
 10
-186.167
 20
-186.767
 11
-185.576
 21
-186.802
  0
LINE
  8
0
 10
-185.576
 20
-186.802
 11
-184.994
 21
-186.909
  0
LINE
  8
0
 10
-184.994
 20
-186.909
 11
-184.429
 21
-187.085
  0
LINE
  8
0
 10
-184.429
 20
-187.085
 11
-183.89
 21
-187.328
  0
LINE
  8
0
 10
-183.89
 20
-187.328
 11
-183.383
 21
-187.634
  0
LINE
  8
0
 10
-183.383
 20
-187.634
 11
-182.917
 21
-187.999
  0
LINE
  8
0
 10
-182.917
 20
-187.999
 11
-182.499
 21
-188.417
  0
LINE
  8
0
 10
-182.499
 20
-188.417
 11
-182.134
 21
-188.883
  0
LINE
  8
0
 10
-182.134
 20
-188.883
 11
-181.828
 21
-189.39
  0
LINE
  8
0
 10
-181.828
 20
-189.39
 11
-181.585
 21
-189.929
  0
LINE
  8
0
 10
-181.585
 20
-189.929
 11
-181.409
 21
-190.494
  0
LINE
  8
0
 10
-181.409
 20
-190.494
 11
-181.302
 21
-191.076
  0
LINE
  8
0
 10
-181.302
 20
-191.076
 11
-181.267
 21
-191.667
  0
LINE
  8
0
 10
-181.267
 20
-191.667
 11
-181.267
 21
-206.267
  0
LINE
  8
0
 10
-181.267
 20
-206.267
 11
-166.667
 21
-206.267
  0
LINE
  8
0
 10
-166.667
 20
-206.267
 11
-166.076
 21
-206.302
  0
LINE
  8
0
 10
-166.076
 20
-206.302
 11
-165.494
 21
-206.409
  0
LINE
  8
0
 10
-165.494
 20
-206.409
 11
-164.929
 21
-206.585
  0
LINE
  8
0
 10
-164.929
 20
-206.585
 11
-164.39
 21
-206.828
  0
LINE
  8
0
 10
-164.39
 20
-206.828
 11
-163.883
 21
-207.134
  0
LINE
  8
0
 10
-163.883
 20
-207.134
 11
-163.417
 21
-207.499
  0
LINE
  8
0
 10
-163.417
 20
-207.499
 11
-162.999
 21
-207.917
  0
LINE
  8
0
 10
-162.999
 20
-207.917
 11
-162.634
 21
-208.383
  0
LINE
  8
0
 10
-162.634
 20
-208.383
 11
-162.328
 21
-208.89
  0
LINE
  8
0
 10
-162.328
 20
-208.89
 11
-162.085
 21
-209.429
  0
LINE
  8
0
 10
-162.085
 20
-209.429
 11
-161.909
 21
-209.994
  0
LINE
  8
0
 10
-161.909
 20
-209.994
 11
-161.802
 21
-210.576
  0
LINE
  8
0
 10
-161.802
 20
-210.576
 11
-161.767
 21
-211.167
  0
LINE
  8
0
 10
-161.767
 20
-211.167
 11
-161.767
 21
-219.367
  0
LINE
  8
0
 10
-161.767
 20
-219.367
 11
-161.802
 21
-219.957
  0
LINE
  8
0
 10
-161.802
 20
-219.957
 11
-161.909
 21
-220.539
  0
LINE
  8
0
 10
-161.909
 20
-220.539
 11
-162.085
 21
-221.104
  0
LINE
  8
0
 10
-162.085
 20
-221.104
 11
-162.328
 21
-221.644
  0
LINE
  8
0
 10
-162.328
 20
-221.644
 11
-162.634
 21
-222.15
  0
LINE
  8
0
 10
-162.634
 20
-222.15
 11
-162.999
 21
-222.616
  0
LINE
  8
0
 10
-162.999
 20
-222.616
 11
-163.417
 21
-223.034
  0
LINE
  8
0
 10
-163.417
 20
-223.034
 11
-163.883
 21
-223.399
  0
LINE
  8
0
 10
-163.883
 20
-223.399
 11
-164.39
 21
-223.705
  0
LINE
  8
0
 10
-164.39
 20
-223.705
 11
-164.929
 21
-223.948
  0
LINE
  8
0
 10
-164.929
 20
-223.948
 11
-165.494
 21
-224.124
  0
LINE
  8
0
 10
-165.494
 20
-224.124
 11
-166.076
 21
-224.231
  0
LINE
  8
0
 10
-166.076
 20
-224.231
 11
-166.667
 21
-224.267
  0
LINE
  8
0
 10
-166.667
 20
-224.267
 11
-181.267
 21
-224.267
  0
LINE
  8
0
 10
-181.267
 20
-224.267
 11
-181.267
 21
-238.867
  0
LINE
  8
0
 10
-181.267
 20
-238.867
 11
-181.302
 21
-239.457
  0
LINE
  8
0
 10
-181.302
 20
-239.457
 11
-181.409
 21
-240.039
  0
LINE
  8
0
 10
-181.409
 20
-240.039
 11
-181.585
 21
-240.604
  0
LINE
  8
0
 10
-181.585
 20
-240.604
 11
-181.828
 21
-241.144
  0
LINE
  8
0
 10
-181.828
 20
-241.144
 11
-182.134
 21
-241.65
  0
LINE
  8
0
 10
-182.134
 20
-241.65
 11
-182.499
 21
-242.116
  0
LINE
  8
0
 10
-182.499
 20
-242.116
 11
-182.917
 21
-242.534
  0
LINE
  8
0
 10
-182.917
 20
-242.534
 11
-183.383
 21
-242.899
  0
LINE
  8
0
 10
-183.383
 20
-242.899
 11
-183.89
 21
-243.205
  0
LINE
  8
0
 10
-183.89
 20
-243.205
 11
-184.429
 21
-243.448
  0
LINE
  8
0
 10
-184.429
 20
-243.448
 11
-184.994
 21
-243.624
  0
LINE
  8
0
 10
-184.994
 20
-243.624
 11
-185.576
 21
-243.731
  0
LINE
  8
0
 10
-185.576
 20
-243.731
 11
-186.167
 21
-243.767
  0
LINE
  8
0
 10
-186.167
 20
-243.767
 11
-194.367
 21
-243.767
  0
LINE
  8
0
 10
-188.944
 20
-195.587
 11
-188.318
 21
-194.892
  0
LINE
  8
0
 10
-188.318
 20
-194.892
 11
-188.029
 21
-194.002
  0
LINE
  8
0
 10
-188.029
 20
-194.002
 11
-188.127
 21
-193.071
  0
LINE
  8
0
 10
-188.127
 20
-193.071
 11
-188.595
 21
-192.261
  0
LINE
  8
0
 10
-188.595
 20
-192.261
 11
-189.352
 21
-191.711
  0
LINE
  8
0
 10
-189.352
 20
-191.711
 11
-190.267
 21
-191.517
  0
LINE
  8
0
 10
-190.267
 20
-191.517
 11
-191.182
 21
-191.711
  0
LINE
  8
0
 10
-191.182
 20
-191.711
 11
-191.939
 21
-192.261
  0
LINE
  8
0
 10
-191.939
 20
-192.261
 11
-192.407
 21
-193.071
  0
LINE
  8
0
 10
-192.407
 20
-193.071
 11
-192.504
 21
-194.002
  0
LINE
  8
0
 10
-192.504
 20
-194.002
 11
-192.215
 21
-194.892
  0
LINE
  8
0
 10
-192.215
 20
-194.892
 11
-191.589
 21
-195.587
  0
LINE
  8
0
 10
-191.589
 20
-195.587
 11
-190.734
 21
-195.967
  0
LINE
  8
0
 10
-190.734
 20
-195.967
 11
-189.799
 21
-195.967
  0
LINE
  8
0
 10
-189.799
 20
-195.967
 11
-188.944
 21
-195.587
  0
LINE
  8
0
 10
-188.57
 20
-216.964
 11
-187.867
 21
-215.267
  0
LINE
  8
0
 10
-187.867
 20
-215.267
 11
-188.57
 21
-213.57
  0
LINE
  8
0
 10
-188.57
 20
-213.57
 11
-190.267
 21
-212.867
  0
LINE
  8
0
 10
-190.267
 20
-212.867
 11
-191.964
 21
-213.57
  0
LINE
  8
0
 10
-191.964
 20
-213.57
 11
-192.667
 21
-215.267
  0
LINE
  8
0
 10
-192.667
 20
-215.267
 11
-191.964
 21
-216.964
  0
LINE
  8
0
 10
-191.964
 20
-216.964
 11
-190.267
 21
-217.667
  0
LINE
  8
0
 10
-190.267
 20
-217.667
 11
-188.57
 21
-216.964
  0
LINE
  8
0
 10
-168.071
 20
-217.407
 11
-167.261
 21
-216.939
  0
LINE
  8
0
 10
-167.261
 20
-216.939
 11
-166.711
 21
-216.182
  0
LINE
  8
0
 10
-166.711
 20
-216.182
 11
-166.517
 21
-215.267
  0
LINE
  8
0
 10
-166.517
 20
-215.267
 11
-166.711
 21
-214.352
  0
LINE
  8
0
 10
-166.711
 20
-214.352
 11
-167.261
 21
-213.595
  0
LINE
  8
0
 10
-167.261
 20
-213.595
 11
-168.071
 21
-213.127
  0
LINE
  8
0
 10
-168.071
 20
-213.127
 11
-169.002
 21
-213.029
  0
LINE
  8
0
 10
-169.002
 20
-213.029
 11
-169.892
 21
-213.318
  0
LINE
  8
0
 10
-169.892
 20
-213.318
 11
-170.587
 21
-213.944
  0
LINE
  8
0
 10
-170.587
 20
-213.944
 11
-170.967
 21
-214.799
  0
LINE
  8
0
 10
-170.967
 20
-214.799
 11
-170.967
 21
-215.734
  0
LINE
  8
0
 10
-170.967
 20
-215.734
 11
-170.587
 21
-216.589
  0
LINE
  8
0
 10
-170.587
 20
-216.589
 11
-169.892
 21
-217.215
  0
LINE
  8
0
 10
-169.892
 20
-217.215
 11
-169.002
 21
-217.504
  0
LINE
  8
0
 10
-169.002
 20
-217.504
 11
-168.071
 21
-217.407
  0
LINE
  8
0
 10
-211.071
 20
-217.407
 11
-210.261
 21
-216.939
  0
LINE
  8
0
 10
-210.261
 20
-216.939
 11
-209.711
 21
-216.182
  0
LINE
  8
0
 10
-209.711
 20
-216.182
 11
-209.517
 21
-215.267
  0
LINE
  8
0
 10
-209.517
 20
-215.267
 11
-209.711
 21
-214.352
  0
LINE
  8
0
 10
-209.711
 20
-214.352
 11
-210.261
 21
-213.595
  0
LINE
  8
0
 10
-210.261
 20
-213.595
 11
-211.071
 21
-213.127
  0
LINE
  8
0
 10
-211.071
 20
-213.127
 11
-212.002
 21
-213.029
  0
LINE
  8
0
 10
-212.002
 20
-213.029
 11
-212.892
 21
-213.318
  0
LINE
  8
0
 10
-212.892
 20
-213.318
 11
-213.587
 21
-213.944
  0
LINE
  8
0
 10
-213.587
 20
-213.944
 11
-213.967
 21
-214.799
  0
LINE
  8
0
 10
-213.967
 20
-214.799
 11
-213.967
 21
-215.734
  0
LINE
  8
0
 10
-213.967
 20
-215.734
 11
-213.587
 21
-216.589
  0
LINE
  8
0
 10
-213.587
 20
-216.589
 11
-212.892
 21
-217.215
  0
LINE
  8
0
 10
-212.892
 20
-217.215
 11
-212.002
 21
-217.504
  0
LINE
  8
0
 10
-212.002
 20
-217.504
 11
-211.071
 21
-217.407
  0
LINE
  8
0
 10
-188.944
 20
-238.587
 11
-188.318
 21
-237.892
  0
LINE
  8
0
 10
-188.318
 20
-237.892
 11
-188.029
 21
-237.002
  0
LINE
  8
0
 10
-188.029
 20
-237.002
 11
-188.127
 21
-236.071
  0
LINE
  8
0
 10
-188.127
 20
-236.071
 11
-188.595
 21
-235.261
  0
LINE
  8
0
 10
-188.595
 20
-235.261
 11
-189.352
 21
-234.711
  0
LINE
  8
0
 10
-189.352
 20
-234.711
 11
-190.267
 21
-234.517
  0
LINE
  8
0
 10
-190.267
 20
-234.517
 11
-191.182
 21
-234.711
  0
LINE
  8
0
 10
-191.182
 20
-234.711
 11
-191.939
 21
-235.261
  0
LINE
  8
0
 10
-191.939
 20
-235.261
 11
-192.407
 21
-236.071
  0
LINE
  8
0
 10
-192.407
 20
-236.071
 11
-192.504
 21
-237.002
  0
LINE
  8
0
 10
-192.504
 20
-237.002
 11
-192.215
 21
-237.892
  0
LINE
  8
0
 10
-192.215
 20
-237.892
 11
-191.589
 21
-238.587
  0
LINE
  8
0
 10
-191.589
 20
-238.587
 11
-190.734
 21
-238.967
  0
LINE
  8
0
 10
-190.734
 20
-238.967
 11
-189.799
 21
-238.967
  0
LINE
  8
0
 10
-189.799
 20
-238.967
 11
-188.944
 21
-238.587
  0
LINE
  8
0
 10
-119.449
 20
-281.93
 11
-118.232
 21
-281.626
  0
LINE
  8
0
 10
-118.232
 20
-281.626
 11
-83.9989
 21
-269.167
  0
LINE
  8
0
 10
-83.9989
 20
-269.167
 11
-82.8716
 21
-268.617
  0
LINE
  8
0
 10
-82.8716
 20
-268.617
 11
-81.8831
 21
-267.844
  0
LINE
  8
0
 10
-81.8831
 20
-267.844
 11
-81.0768
 21
-266.884
  0
LINE
  8
0
 10
-81.0768
 20
-266.884
 11
-80.488
 21
-265.776
  0
LINE
  8
0
 10
-80.488
 20
-265.776
 11
-80.1422
 21
-264.57
  0
LINE
  8
0
 10
-80.1422
 20
-264.57
 11
-80.0547
 21
-263.319
  0
LINE
  8
0
 10
-80.0547
 20
-263.319
 11
-80.2293
 21
-262.077
  0
LINE
  8
0
 10
-80.2293
 20
-262.077
 11
-80.4438
 21
-261.488
  0
LINE
  8
0
 10
-80.4438
 20
-261.488
 11
-80.4129
 21
-261.476
  0
LINE
  8
0
 10
-80.4129
 20
-261.476
 11
-100.397
 21
-206.57
  0
LINE
  8
0
 10
-100.397
 20
-206.57
 11
-100.428
 21
-206.581
  0
LINE
  8
0
 10
-100.428
 20
-206.581
 11
-100.643
 21
-205.992
  0
LINE
  8
0
 10
-100.643
 20
-205.992
 11
-101.307
 21
-204.928
  0
LINE
  8
0
 10
-101.307
 20
-204.928
 11
-102.179
 21
-204.026
  0
LINE
  8
0
 10
-102.179
 20
-204.026
 11
-103.218
 21
-203.325
  0
LINE
  8
0
 10
-103.218
 20
-203.325
 11
-104.381
 21
-202.855
  0
LINE
  8
0
 10
-104.381
 20
-202.855
 11
-105.617
 21
-202.637
  0
LINE
  8
0
 10
-105.617
 20
-202.637
 11
-106.87
 21
-202.681
  0
LINE
  8
0
 10
-106.87
 20
-202.681
 11
-108.087
 21
-202.984
  0
LINE
  8
0
 10
-108.087
 20
-202.984
 11
-113.402
 21
-204.918
  0
LINE
  8
0
 10
-113.402
 20
-204.918
 11
-112.683
 21
-212.81
  0
LINE
  8
0
 10
-112.683
 20
-212.81
 11
-113.015
 21
-222.315
  0
LINE
  8
0
 10
-113.015
 20
-222.315
 11
-114.536
 21
-231.703
  0
LINE
  8
0
 10
-114.536
 20
-231.703
 11
-117.221
 21
-240.827
  0
LINE
  8
0
 10
-117.221
 20
-240.827
 11
-121.029
 21
-249.542
  0
LINE
  8
0
 10
-121.029
 20
-249.542
 11
-125.899
 21
-257.711
  0
LINE
  8
0
 10
-125.899
 20
-257.711
 11
-130.962
 21
-264.193
  0
LINE
  8
0
 10
-130.962
 20
-264.193
 11
-125.922
 21
-278.04
  0
LINE
  8
0
 10
-125.922
 20
-278.04
 11
-125.891
 21
-278.029
  0
LINE
  8
0
 10
-125.891
 20
-278.029
 11
-125.677
 21
-278.618
  0
LINE
  8
0
 10
-125.677
 20
-278.618
 11
-125.012
 21
-279.682
  0
LINE
  8
0
 10
-125.012
 20
-279.682
 11
-124.141
 21
-280.585
  0
LINE
  8
0
 10
-124.141
 20
-280.585
 11
-123.101
 21
-281.286
  0
LINE
  8
0
 10
-123.101
 20
-281.286
 11
-121.938
 21
-281.756
  0
LINE
  8
0
 10
-121.938
 20
-281.756
 11
-120.703
 21
-281.974
  0
LINE
  8
0
 10
-120.703
 20
-281.974
 11
-119.449
 21
-281.93
  0
LINE
  8
0
 10
-108.032
 20
-211.23
 11
-109.324
 21
-209.819
  0
LINE
  8
0
 10
-109.324
 20
-209.819
 11
-109.241
 21
-207.908
  0
LINE
  8
0
 10
-109.241
 20
-207.908
 11
-107.83
 21
-206.615
  0
LINE
  8
0
 10
-107.83
 20
-206.615
 11
-105.918
 21
-206.699
  0
LINE
  8
0
 10
-105.918
 20
-206.699
 11
-104.626
 21
-208.109
  0
LINE
  8
0
 10
-104.626
 20
-208.109
 11
-104.709
 21
-210.021
  0
LINE
  8
0
 10
-104.709
 20
-210.021
 11
-106.12
 21
-211.314
  0
LINE
  8
0
 10
-106.12
 20
-211.314
 11
-108.032
 21
-211.23
  0
LINE
  8
0
 10
-88.0473
 20
-266.136
 11
-89.34
 21
-264.726
  0
LINE
  8
0
 10
-89.34
 20
-264.726
 11
-89.2565
 21
-262.814
  0
LINE
  8
0
 10
-89.2565
 20
-262.814
 11
-87.8458
 21
-261.521
  0
LINE
  8
0
 10
-87.8458
 20
-261.521
 11
-85.9342
 21
-261.605
  0
LINE
  8
0
 10
-85.9342
 20
-261.605
 11
-84.6415
 21
-263.015
  0
LINE
  8
0
 10
-84.6415
 20
-263.015
 11
-84.725
 21
-264.927
  0
LINE
  8
0
 10
-84.725
 20
-264.927
 11
-86.1357
 21
-266.22
  0
LINE
  8
0
 10
-86.1357
 20
-266.22
 11
-88.0473
 21
-266.136
  0
LINE
  8
0
 10
-120.401
 20
-277.912
 11
-121.694
 21
-276.501
  0
LINE
  8
0
 10
-121.694
 20
-276.501
 11
-121.61
 21
-274.59
  0
LINE
  8
0
 10
-121.61
 20
-274.59
 11
-120.199
 21
-273.297
  0
LINE
  8
0
 10
-120.199
 20
-273.297
 11
-118.288
 21
-273.38
  0
LINE
  8
0
 10
-118.288
 20
-273.38
 11
-116.995
 21
-274.791
  0
LINE
  8
0
 10
-116.995
 20
-274.791
 11
-117.079
 21
-276.703
  0
LINE
  8
0
 10
-117.079
 20
-276.703
 11
-118.489
 21
-277.995
  0
LINE
  8
0
 10
-118.489
 20
-277.995
 11
-120.401
 21
-277.912
  0
LINE
  8
0
 10
-8.50212
 20
-280.455
 11
-7.91631
 21
-280.372
  0
LINE
  8
0
 10
-7.91631
 20
-280.372
 11
-7.34474
 21
-280.219
  0
LINE
  8
0
 10
-7.34474
 20
-280.219
 11
-6.79582
 21
-279.998
  0
LINE
  8
0
 10
-6.79582
 20
-279.998
 11
-6.27754
 21
-279.713
  0
LINE
  8
0
 10
-6.27754
 20
-279.713
 11
-5.79744
 21
-279.367
  0
LINE
  8
0
 10
-5.79744
 20
-279.367
 11
-5.36253
 21
-278.966
  0
LINE
  8
0
 10
-5.36253
 20
-278.966
 11
-4.97916
 21
-278.515
  0
LINE
  8
0
 10
-4.97916
 20
-278.515
 11
-4.65289
 21
-278.021
  0
LINE
  8
0
 10
-4.65289
 20
-278.021
 11
-0.60289
 21
-271.007
  0
LINE
  8
0
 10
-0.60289
 20
-271.007
 11
6.41191
 21
-275.057
  0
LINE
  8
0
 10
6.41191
 20
-275.057
 11
6.9413
 21
-275.321
  0
LINE
  8
0
 10
6.9413
 20
-275.321
 11
7.49866
 21
-275.52
  0
LINE
  8
0
 10
7.49866
 20
-275.52
 11
8.07591
 21
-275.65
  0
LINE
  8
0
 10
8.07591
 20
-275.65
 11
8.66463
 21
-275.709
  0
LINE
  8
0
 10
8.66463
 20
-275.709
 11
9.25621
 21
-275.697
  0
LINE
  8
0
 10
9.25621
 20
-275.697
 11
9.84204
 21
-275.614
  0
LINE
  8
0
 10
9.84204
 20
-275.614
 11
10.4136
 21
-275.461
  0
LINE
  8
0
 10
10.4136
 20
-275.461
 11
10.9625
 21
-275.24
  0
LINE
  8
0
 10
10.9625
 20
-275.24
 11
11.4808
 21
-274.954
  0
LINE
  8
0
 10
11.4808
 20
-274.954
 11
11.9609
 21
-274.609
  0
LINE
  8
0
 10
11.9609
 20
-274.609
 11
12.3958
 21
-274.207
  0
LINE
  8
0
 10
12.3958
 20
-274.207
 11
12.7792
 21
-273.757
  0
LINE
  8
0
 10
12.7792
 20
-273.757
 11
13.1054
 21
-273.263
  0
LINE
  8
0
 10
13.1054
 20
-273.263
 11
17.2054
 21
-266.162
  0
LINE
  8
0
 10
17.2054
 20
-266.162
 11
17.4698
 21
-265.632
  0
LINE
  8
0
 10
17.4698
 20
-265.632
 11
17.6685
 21
-265.075
  0
LINE
  8
0
 10
17.6685
 20
-265.075
 11
17.7985
 21
-264.498
  0
LINE
  8
0
 10
17.7985
 20
-264.498
 11
17.8579
 21
-263.909
  0
LINE
  8
0
 10
17.8579
 20
-263.909
 11
17.846
 21
-263.317
  0
LINE
  8
0
 10
17.846
 20
-263.317
 11
17.7629
 21
-262.731
  0
LINE
  8
0
 10
17.7629
 20
-262.731
 11
17.6098
 21
-262.16
  0
LINE
  8
0
 10
17.6098
 20
-262.16
 11
17.3888
 21
-261.611
  0
LINE
  8
0
 10
17.3888
 20
-261.611
 11
17.1033
 21
-261.093
  0
LINE
  8
0
 10
17.1033
 20
-261.093
 11
16.7575
 21
-260.613
  0
LINE
  8
0
 10
16.7575
 20
-260.613
 11
16.3563
 21
-260.178
  0
LINE
  8
0
 10
16.3563
 20
-260.178
 11
15.9056
 21
-259.794
  0
LINE
  8
0
 10
15.9056
 20
-259.794
 11
15.4119
 21
-259.468
  0
LINE
  8
0
 10
15.4119
 20
-259.468
 11
8.39711
 21
-255.418
  0
LINE
  8
0
 10
8.39711
 20
-255.418
 11
12.4471
 21
-248.403
  0
LINE
  8
0
 10
12.4471
 20
-248.403
 11
12.7115
 21
-247.874
  0
LINE
  8
0
 10
12.7115
 20
-247.874
 11
12.9101
 21
-247.317
  0
LINE
  8
0
 10
12.9101
 20
-247.317
 11
13.0401
 21
-246.739
  0
LINE
  8
0
 10
13.0401
 20
-246.739
 11
13.0996
 21
-246.151
  0
LINE
  8
0
 10
13.0996
 20
-246.151
 11
13.0877
 21
-245.559
  0
LINE
  8
0
 10
13.0877
 20
-245.559
 11
13.0045
 21
-244.973
  0
LINE
  8
0
 10
13.0045
 20
-244.973
 11
12.8514
 21
-244.402
  0
LINE
  8
0
 10
12.8514
 20
-244.402
 11
12.6305
 21
-243.853
  0
LINE
  8
0
 10
12.6305
 20
-243.853
 11
12.345
 21
-243.334
  0
LINE
  8
0
 10
12.345
 20
-243.334
 11
11.9991
 21
-242.854
  0
LINE
  8
0
 10
11.9991
 20
-242.854
 11
11.5979
 21
-242.419
  0
LINE
  8
0
 10
11.5979
 20
-242.419
 11
11.1472
 21
-242.036
  0
LINE
  8
0
 10
11.1472
 20
-242.036
 11
10.6536
 21
-241.71
  0
LINE
  8
0
 10
10.6536
 20
-241.71
 11
3.55217
 21
-237.61
  0
LINE
  8
0
 10
3.55217
 20
-237.61
 11
3.0228
 21
-237.345
  0
LINE
  8
0
 10
3.0228
 20
-237.345
 11
2.46544
 21
-237.147
  0
LINE
  8
0
 10
2.46544
 20
-237.147
 11
1.88818
 21
-237.017
  0
LINE
  8
0
 10
1.88818
 20
-237.017
 11
1.29947
 21
-236.957
  0
LINE
  8
0
 10
1.29947
 20
-236.957
 11
0.707886
 21
-236.969
  0
LINE
  8
0
 10
0.707886
 20
-236.969
 11
0.122055
 21
-237.052
  0
LINE
  8
0
 10
0.122055
 20
-237.052
 11
-0.449493
 21
-237.205
  0
LINE
  8
0
 10
-0.449493
 20
-237.205
 11
-0.998413
 21
-237.426
  0
LINE
  8
0
 10
-0.998413
 20
-237.426
 11
-1.51669
 21
-237.712
  0
LINE
  8
0
 10
-1.51669
 20
-237.712
 11
-1.9968
 21
-238.058
  0
LINE
  8
0
 10
-1.9968
 20
-238.058
 11
-2.4317
 21
-238.459
  0
LINE
  8
0
 10
-2.4317
 20
-238.459
 11
-2.81508
 21
-238.91
  0
LINE
  8
0
 10
-2.81508
 20
-238.91
 11
-3.14133
 21
-239.403
  0
LINE
  8
0
 10
-3.14133
 20
-239.403
 11
-7.19133
 21
-246.418
  0
LINE
  8
0
 10
-7.19133
 20
-246.418
 11
-14.2061
 21
-242.368
  0
LINE
  8
0
 10
-14.2061
 20
-242.368
 11
-14.7355
 21
-242.104
  0
LINE
  8
0
 10
-14.7355
 20
-242.104
 11
-15.2929
 21
-241.905
  0
LINE
  8
0
 10
-15.2929
 20
-241.905
 11
-15.8701
 21
-241.775
  0
LINE
  8
0
 10
-15.8701
 20
-241.775
 11
-16.4588
 21
-241.716
  0
LINE
  8
0
 10
-16.4588
 20
-241.716
 11
-17.0504
 21
-241.727
  0
LINE
  8
0
 10
-17.0504
 20
-241.727
 11
-17.6362
 21
-241.811
  0
LINE
  8
0
 10
-17.6362
 20
-241.811
 11
-18.2078
 21
-241.964
  0
LINE
  8
0
 10
-18.2078
 20
-241.964
 11
-18.7567
 21
-242.185
  0
LINE
  8
0
 10
-18.7567
 20
-242.185
 11
-19.275
 21
-242.47
  0
LINE
  8
0
 10
-19.275
 20
-242.47
 11
-19.7551
 21
-242.816
  0
LINE
  8
0
 10
-19.7551
 20
-242.816
 11
-20.19
 21
-243.217
  0
LINE
  8
0
 10
-20.19
 20
-243.217
 11
-20.5734
 21
-243.668
  0
LINE
  8
0
 10
-20.5734
 20
-243.668
 11
-20.8997
 21
-244.162
  0
LINE
  8
0
 10
-20.8997
 20
-244.162
 11
-22.4497
 21
-246.846
  0
LINE
  8
0
 10
-22.4497
 20
-246.846
 11
-26.7798
 21
-244.346
  0
LINE
  8
0
 10
-26.7798
 20
-244.346
 11
-27.7798
 21
-246.078
  0
LINE
  8
0
 10
-27.7798
 20
-246.078
 11
-23.4497
 21
-248.578
  0
LINE
  8
0
 10
-23.4497
 20
-248.578
 11
-24.9997
 21
-251.263
  0
LINE
  8
0
 10
-24.9997
 20
-251.263
 11
-25.264
 21
-251.792
  0
LINE
  8
0
 10
-25.264
 20
-251.792
 11
-25.4627
 21
-252.35
  0
LINE
  8
0
 10
-25.4627
 20
-252.35
 11
-25.5927
 21
-252.927
  0
LINE
  8
0
 10
-25.5927
 20
-252.927
 11
-25.6521
 21
-253.516
  0
LINE
  8
0
 10
-25.6521
 20
-253.516
 11
-25.6402
 21
-254.107
  0
LINE
  8
0
 10
-25.6402
 20
-254.107
 11
-25.5571
 21
-254.693
  0
LINE
  8
0
 10
-25.5571
 20
-254.693
 11
-25.404
 21
-255.265
  0
LINE
  8
0
 10
-25.404
 20
-255.265
 11
-25.183
 21
-255.814
  0
LINE
  8
0
 10
-25.183
 20
-255.814
 11
-24.8976
 21
-256.332
  0
LINE
  8
0
 10
-24.8976
 20
-256.332
 11
-24.5517
 21
-256.812
  0
LINE
  8
0
 10
-24.5517
 20
-256.812
 11
-24.1505
 21
-257.247
  0
LINE
  8
0
 10
-24.1505
 20
-257.247
 11
-23.6998
 21
-257.63
  0
LINE
  8
0
 10
-23.6998
 20
-257.63
 11
-23.2061
 21
-257.957
  0
LINE
  8
0
 10
-23.2061
 20
-257.957
 11
-16.1913
 21
-262.007
  0
LINE
  8
0
 10
-16.1913
 20
-262.007
 11
-20.2413
 21
-269.021
  0
LINE
  8
0
 10
-20.2413
 20
-269.021
 11
-20.5057
 21
-269.551
  0
LINE
  8
0
 10
-20.5057
 20
-269.551
 11
-20.7043
 21
-270.108
  0
LINE
  8
0
 10
-20.7043
 20
-270.108
 11
-20.8344
 21
-270.685
  0
LINE
  8
0
 10
-20.8344
 20
-270.685
 11
-20.8938
 21
-271.274
  0
LINE
  8
0
 10
-20.8938
 20
-271.274
 11
-20.8819
 21
-271.866
  0
LINE
  8
0
 10
-20.8819
 20
-271.866
 11
-20.7988
 21
-272.451
  0
LINE
  8
0
 10
-20.7988
 20
-272.451
 11
-20.6456
 21
-273.023
  0
LINE
  8
0
 10
-20.6456
 20
-273.023
 11
-20.4247
 21
-273.572
  0
LINE
  8
0
 10
-20.4247
 20
-273.572
 11
-20.1392
 21
-274.09
  0
LINE
  8
0
 10
-20.1392
 20
-274.09
 11
-19.7934
 21
-274.57
  0
LINE
  8
0
 10
-19.7934
 20
-274.57
 11
-19.3922
 21
-275.005
  0
LINE
  8
0
 10
-19.3922
 20
-275.005
 11
-18.9415
 21
-275.389
  0
LINE
  8
0
 10
-18.9415
 20
-275.389
 11
-18.4478
 21
-275.715
  0
LINE
  8
0
 10
-18.4478
 20
-275.715
 11
-11.3464
 21
-279.815
  0
LINE
  8
0
 10
-11.3464
 20
-279.815
 11
-10.817
 21
-280.079
  0
LINE
  8
0
 10
-10.817
 20
-280.079
 11
-10.2597
 21
-280.278
  0
LINE
  8
0
 10
-10.2597
 20
-280.278
 11
-9.68242
 21
-280.408
  0
LINE
  8
0
 10
-9.68242
 20
-280.408
 11
-9.0937
 21
-280.467
  0
LINE
  8
0
 10
-9.0937
 20
-280.467
 11
-8.50212
 21
-280.455
  0
LINE
  8
0
 10
2.47787
 20
-247.671
 11
1.78258
 21
-247.044
  0
LINE
  8
0
 10
1.78258
 20
-247.044
 11
1.40202
 21
-246.19
  0
LINE
  8
0
 10
1.40202
 20
-246.19
 11
1.40204
 21
-245.254
  0
LINE
  8
0
 10
1.40204
 20
-245.254
 11
1.78258
 21
-244.399
  0
LINE
  8
0
 10
1.78258
 20
-244.399
 11
2.47787
 21
-243.773
  0
LINE
  8
0
 10
2.47787
 20
-243.773
 11
3.36769
 21
-243.484
  0
LINE
  8
0
 10
3.36769
 20
-243.484
 11
4.29817
 21
-243.582
  0
LINE
  8
0
 10
4.29817
 20
-243.582
 11
5.10841
 21
-244.05
  0
LINE
  8
0
 10
5.10841
 20
-244.05
 11
5.65834
 21
-244.807
  0
LINE
  8
0
 10
5.65834
 20
-244.807
 11
5.85286
 21
-245.722
  0
LINE
  8
0
 10
5.85286
 20
-245.722
 11
5.65836
 21
-246.637
  0
LINE
  8
0
 10
5.65836
 20
-246.637
 11
5.1084
 21
-247.394
  0
LINE
  8
0
 10
5.1084
 20
-247.394
 11
4.29816
 21
-247.862
  0
LINE
  8
0
 10
4.29816
 20
-247.862
 11
3.36768
 21
-247.96
  0
LINE
  8
0
 10
3.36768
 20
-247.96
 11
2.47787
 21
-247.671
  0
LINE
  8
0
 10
-17.8026
 20
-253.268
 11
-18.5596
 21
-252.718
  0
LINE
  8
0
 10
-18.5596
 20
-252.718
 11
-19.0274
 21
-251.908
  0
LINE
  8
0
 10
-19.0274
 20
-251.908
 11
-19.1252
 21
-250.977
  0
LINE
  8
0
 10
-19.1252
 20
-250.977
 11
-18.836
 21
-250.087
  0
LINE
  8
0
 10
-18.836
 20
-250.087
 11
-18.21
 21
-249.392
  0
LINE
  8
0
 10
-18.21
 20
-249.392
 11
-17.3553
 21
-249.011
  0
LINE
  8
0
 10
-17.3553
 20
-249.011
 11
-16.4197
 21
-249.011
  0
LINE
  8
0
 10
-16.4197
 20
-249.011
 11
-15.565
 21
-249.392
  0
LINE
  8
0
 10
-15.565
 20
-249.392
 11
-14.9389
 21
-250.087
  0
LINE
  8
0
 10
-14.9389
 20
-250.087
 11
-14.6498
 21
-250.977
  0
LINE
  8
0
 10
-14.6498
 20
-250.977
 11
-14.7476
 21
-251.908
  0
LINE
  8
0
 10
-14.7476
 20
-251.908
 11
-15.2154
 21
-252.718
  0
LINE
  8
0
 10
-15.2154
 20
-252.718
 11
-15.9723
 21
-253.268
  0
LINE
  8
0
 10
-15.9723
 20
-253.268
 11
-16.8875
 21
-253.462
  0
LINE
  8
0
 10
-16.8875
 20
-253.462
 11
-17.8026
 21
-253.268
  0
LINE
  8
0
 10
8.17812
 20
-268.268
 11
7.4212
 21
-267.718
  0
LINE
  8
0
 10
7.4212
 20
-267.718
 11
6.95338
 21
-266.908
  0
LINE
  8
0
 10
6.95338
 20
-266.908
 11
6.85561
 21
-265.977
  0
LINE
  8
0
 10
6.85561
 20
-265.977
 11
7.1447
 21
-265.087
  0
LINE
  8
0
 10
7.1447
 20
-265.087
 11
7.77075
 21
-264.392
  0
LINE
  8
0
 10
7.77075
 20
-264.392
 11
8.62547
 21
-264.011
  0
LINE
  8
0
 10
8.62547
 20
-264.011
 11
9.56107
 21
-264.011
  0
LINE
  8
0
 10
9.56107
 20
-264.011
 11
10.4158
 21
-264.392
  0
LINE
  8
0
 10
10.4158
 20
-264.392
 11
11.0418
 21
-265.087
  0
LINE
  8
0
 10
11.0418
 20
-265.087
 11
11.3309
 21
-265.977
  0
LINE
  8
0
 10
11.3309
 20
-265.977
 11
11.2331
 21
-266.908
  0
LINE
  8
0
 10
11.2331
 20
-266.908
 11
10.7654
 21
-267.718
  0
LINE
  8
0
 10
10.7654
 20
-267.718
 11
10.0084
 21
-268.268
  0
LINE
  8
0
 10
10.0084
 20
-268.268
 11
9.09326
 21
-268.462
  0
LINE
  8
0
 10
9.09326
 20
-268.462
 11
8.17812
 21
-268.268
  0
LINE
  8
0
 10
-12.5221
 20
-273.651
 11
-13.2174
 21
-273.025
  0
LINE
  8
0
 10
-13.2174
 20
-273.025
 11
-13.5979
 21
-272.17
  0
LINE
  8
0
 10
-13.5979
 20
-272.17
 11
-13.5979
 21
-271.235
  0
LINE
  8
0
 10
-13.5979
 20
-271.235
 11
-13.2174
 21
-270.38
  0
LINE
  8
0
 10
-13.2174
 20
-270.38
 11
-12.5221
 21
-269.754
  0
LINE
  8
0
 10
-12.5221
 20
-269.754
 11
-11.6323
 21
-269.465
  0
LINE
  8
0
 10
-11.6323
 20
-269.465
 11
-10.7018
 21
-269.563
  0
LINE
  8
0
 10
-10.7018
 20
-269.563
 11
-9.89157
 21
-270.031
  0
LINE
  8
0
 10
-9.89157
 20
-270.031
 11
-9.34163
 21
-270.788
  0
LINE
  8
0
 10
-9.34163
 20
-270.788
 11
-9.14711
 21
-271.703
  0
LINE
  8
0
 10
-9.14711
 20
-271.703
 11
-9.34163
 21
-272.618
  0
LINE
  8
0
 10
-9.34163
 20
-272.618
 11
-9.89157
 21
-273.375
  0
LINE
  8
0
 10
-9.89157
 20
-273.375
 11
-10.7018
 21
-273.843
  0
LINE
  8
0
 10
-10.7018
 20
-273.843
 11
-11.6323
 21
-273.94
  0
LINE
  8
0
 10
-11.6323
 20
-273.94
 11
-12.5221
 21
-273.651
  0
LINE
  8
0
 10
95.5212
 20
-292.875
 11
96.1071
 21
-292.791
  0
LINE
  8
0
 10
96.1071
 20
-292.791
 11
96.6786
 21
-292.638
  0
LINE
  8
0
 10
96.6786
 20
-292.638
 11
97.2275
 21
-292.417
  0
LINE
  8
0
 10
97.2275
 20
-292.417
 11
97.7458
 21
-292.132
  0
LINE
  8
0
 10
97.7458
 20
-292.132
 11
98.2259
 21
-291.786
  0
LINE
  8
0
 10
98.2259
 20
-291.786
 11
98.6608
 21
-291.385
  0
LINE
  8
0
 10
98.6608
 20
-291.385
 11
99.0442
 21
-290.934
  0
LINE
  8
0
 10
99.0442
 20
-290.934
 11
99.3705
 21
-290.44
  0
LINE
  8
0
 10
99.3705
 20
-290.44
 11
103.42
 21
-283.426
  0
LINE
  8
0
 10
103.42
 20
-283.426
 11
110.435
 21
-287.476
  0
LINE
  8
0
 10
110.435
 20
-287.476
 11
110.965
 21
-287.74
  0
LINE
  8
0
 10
110.965
 20
-287.74
 11
111.522
 21
-287.939
  0
LINE
  8
0
 10
111.522
 20
-287.939
 11
112.099
 21
-288.069
  0
LINE
  8
0
 10
112.099
 20
-288.069
 11
112.688
 21
-288.128
  0
LINE
  8
0
 10
112.688
 20
-288.128
 11
113.28
 21
-288.116
  0
LINE
  8
0
 10
113.28
 20
-288.116
 11
113.865
 21
-288.033
  0
LINE
  8
0
 10
113.865
 20
-288.033
 11
114.437
 21
-287.88
  0
LINE
  8
0
 10
114.437
 20
-287.88
 11
114.986
 21
-287.659
  0
LINE
  8
0
 10
114.986
 20
-287.659
 11
115.504
 21
-287.374
  0
LINE
  8
0
 10
115.504
 20
-287.374
 11
115.984
 21
-287.028
  0
LINE
  8
0
 10
115.984
 20
-287.028
 11
116.419
 21
-286.626
  0
LINE
  8
0
 10
116.419
 20
-286.626
 11
116.803
 21
-286.176
  0
LINE
  8
0
 10
116.803
 20
-286.176
 11
117.129
 21
-285.682
  0
LINE
  8
0
 10
117.129
 20
-285.682
 11
118.679
 21
-282.997
  0
LINE
  8
0
 10
118.679
 20
-282.997
 11
123.009
 21
-285.497
  0
LINE
  8
0
 10
123.009
 20
-285.497
 11
124.009
 21
-283.765
  0
LINE
  8
0
 10
124.009
 20
-283.765
 11
119.679
 21
-281.265
  0
LINE
  8
0
 10
119.679
 20
-281.265
 11
121.229
 21
-278.581
  0
LINE
  8
0
 10
121.229
 20
-278.581
 11
121.493
 21
-278.051
  0
LINE
  8
0
 10
121.493
 20
-278.051
 11
121.692
 21
-277.494
  0
LINE
  8
0
 10
121.692
 20
-277.494
 11
121.822
 21
-276.917
  0
LINE
  8
0
 10
121.822
 20
-276.917
 11
121.881
 21
-276.328
  0
LINE
  8
0
 10
121.881
 20
-276.328
 11
121.869
 21
-275.736
  0
LINE
  8
0
 10
121.869
 20
-275.736
 11
121.786
 21
-275.151
  0
LINE
  8
0
 10
121.786
 20
-275.151
 11
121.633
 21
-274.579
  0
LINE
  8
0
 10
121.633
 20
-274.579
 11
121.412
 21
-274.03
  0
LINE
  8
0
 10
121.412
 20
-274.03
 11
121.127
 21
-273.512
  0
LINE
  8
0
 10
121.127
 20
-273.512
 11
120.781
 21
-273.032
  0
LINE
  8
0
 10
120.781
 20
-273.032
 11
120.38
 21
-272.597
  0
LINE
  8
0
 10
120.38
 20
-272.597
 11
119.929
 21
-272.213
  0
LINE
  8
0
 10
119.929
 20
-272.213
 11
119.435
 21
-271.887
  0
LINE
  8
0
 10
119.435
 20
-271.887
 11
112.42
 21
-267.837
  0
LINE
  8
0
 10
112.42
 20
-267.837
 11
116.47
 21
-260.822
  0
LINE
  8
0
 10
116.47
 20
-260.822
 11
116.735
 21
-260.293
  0
LINE
  8
0
 10
116.735
 20
-260.293
 11
116.933
 21
-259.736
  0
LINE
  8
0
 10
116.933
 20
-259.736
 11
117.063
 21
-259.158
  0
LINE
  8
0
 10
117.063
 20
-259.158
 11
117.123
 21
-258.57
  0
LINE
  8
0
 10
117.123
 20
-258.57
 11
117.111
 21
-257.978
  0
LINE
  8
0
 10
117.111
 20
-257.978
 11
117.028
 21
-257.392
  0
LINE
  8
0
 10
117.028
 20
-257.392
 11
116.875
 21
-256.821
  0
LINE
  8
0
 10
116.875
 20
-256.821
 11
116.654
 21
-256.272
  0
LINE
  8
0
 10
116.654
 20
-256.272
 11
116.368
 21
-255.753
  0
LINE
  8
0
 10
116.368
 20
-255.753
 11
116.023
 21
-255.273
  0
LINE
  8
0
 10
116.023
 20
-255.273
 11
115.621
 21
-254.838
  0
LINE
  8
0
 10
115.621
 20
-254.838
 11
115.171
 21
-254.455
  0
LINE
  8
0
 10
115.171
 20
-254.455
 11
114.677
 21
-254.129
  0
LINE
  8
0
 10
114.677
 20
-254.129
 11
107.576
 21
-250.029
  0
LINE
  8
0
 10
107.576
 20
-250.029
 11
107.046
 21
-249.764
  0
LINE
  8
0
 10
107.046
 20
-249.764
 11
106.489
 21
-249.566
  0
LINE
  8
0
 10
106.489
 20
-249.566
 11
105.912
 21
-249.436
  0
LINE
  8
0
 10
105.912
 20
-249.436
 11
105.323
 21
-249.376
  0
LINE
  8
0
 10
105.323
 20
-249.376
 11
104.731
 21
-249.388
  0
LINE
  8
0
 10
104.731
 20
-249.388
 11
104.145
 21
-249.471
  0
LINE
  8
0
 10
104.145
 20
-249.471
 11
103.574
 21
-249.625
  0
LINE
  8
0
 10
103.574
 20
-249.625
 11
103.025
 21
-249.845
  0
LINE
  8
0
 10
103.025
 20
-249.845
 11
102.507
 21
-250.131
  0
LINE
  8
0
 10
102.507
 20
-250.131
 11
102.027
 21
-250.477
  0
LINE
  8
0
 10
102.027
 20
-250.477
 11
101.592
 21
-250.878
  0
LINE
  8
0
 10
101.592
 20
-250.878
 11
101.208
 21
-251.329
  0
LINE
  8
0
 10
101.208
 20
-251.329
 11
100.882
 21
-251.822
  0
LINE
  8
0
 10
100.882
 20
-251.822
 11
96.832
 21
-258.837
  0
LINE
  8
0
 10
96.832
 20
-258.837
 11
89.8172
 21
-254.787
  0
LINE
  8
0
 10
89.8172
 20
-254.787
 11
89.2878
 21
-254.523
  0
LINE
  8
0
 10
89.2878
 20
-254.523
 11
88.7305
 21
-254.324
  0
LINE
  8
0
 10
88.7305
 20
-254.324
 11
88.1532
 21
-254.194
  0
LINE
  8
0
 10
88.1532
 20
-254.194
 11
87.5645
 21
-254.135
  0
LINE
  8
0
 10
87.5645
 20
-254.135
 11
86.9729
 21
-254.147
  0
LINE
  8
0
 10
86.9729
 20
-254.147
 11
86.3871
 21
-254.23
  0
LINE
  8
0
 10
86.3871
 20
-254.23
 11
85.8155
 21
-254.383
  0
LINE
  8
0
 10
85.8155
 20
-254.383
 11
85.2666
 21
-254.604
  0
LINE
  8
0
 10
85.2666
 20
-254.604
 11
84.7483
 21
-254.889
  0
LINE
  8
0
 10
84.7483
 20
-254.889
 11
84.2682
 21
-255.235
  0
LINE
  8
0
 10
84.2682
 20
-255.235
 11
83.8333
 21
-255.636
  0
LINE
  8
0
 10
83.8333
 20
-255.636
 11
83.4499
 21
-256.087
  0
LINE
  8
0
 10
83.4499
 20
-256.087
 11
83.1237
 21
-256.581
  0
LINE
  8
0
 10
83.1237
 20
-256.581
 11
81.5737
 21
-259.265
  0
LINE
  8
0
 10
81.5737
 20
-259.265
 11
77.2435
 21
-256.765
  0
LINE
  8
0
 10
77.2435
 20
-256.765
 11
76.2436
 21
-258.497
  0
LINE
  8
0
 10
76.2436
 20
-258.497
 11
80.5737
 21
-260.997
  0
LINE
  8
0
 10
80.5737
 20
-260.997
 11
79.0237
 21
-263.682
  0
LINE
  8
0
 10
79.0237
 20
-263.682
 11
78.7593
 21
-264.211
  0
LINE
  8
0
 10
78.7593
 20
-264.211
 11
78.5607
 21
-264.769
  0
LINE
  8
0
 10
78.5607
 20
-264.769
 11
78.4306
 21
-265.346
  0
LINE
  8
0
 10
78.4306
 20
-265.346
 11
78.3712
 21
-265.935
  0
LINE
  8
0
 10
78.3712
 20
-265.935
 11
78.3831
 21
-266.526
  0
LINE
  8
0
 10
78.3831
 20
-266.526
 11
78.4662
 21
-267.112
  0
LINE
  8
0
 10
78.4662
 20
-267.112
 11
78.6194
 21
-267.684
  0
LINE
  8
0
 10
78.6194
 20
-267.684
 11
78.8403
 21
-268.233
  0
LINE
  8
0
 10
78.8403
 20
-268.233
 11
79.1258
 21
-268.751
  0
LINE
  8
0
 10
79.1258
 20
-268.751
 11
79.4716
 21
-269.231
  0
LINE
  8
0
 10
79.4716
 20
-269.231
 11
79.8728
 21
-269.666
  0
LINE
  8
0
 10
79.8728
 20
-269.666
 11
80.3235
 21
-270.049
  0
LINE
  8
0
 10
80.3235
 20
-270.049
 11
80.8172
 21
-270.376
  0
LINE
  8
0
 10
80.8172
 20
-270.376
 11
87.832
 21
-274.426
  0
LINE
  8
0
 10
87.832
 20
-274.426
 11
83.782
 21
-281.44
  0
LINE
  8
0
 10
83.782
 20
-281.44
 11
83.5176
 21
-281.97
  0
LINE
  8
0
 10
83.5176
 20
-281.97
 11
83.319
 21
-282.527
  0
LINE
  8
0
 10
83.319
 20
-282.527
 11
83.189
 21
-283.104
  0
LINE
  8
0
 10
83.189
 20
-283.104
 11
83.1295
 21
-283.693
  0
LINE
  8
0
 10
83.1295
 20
-283.693
 11
83.1414
 21
-284.285
  0
LINE
  8
0
 10
83.1414
 20
-284.285
 11
83.2246
 21
-284.871
  0
LINE
  8
0
 10
83.2246
 20
-284.871
 11
83.3777
 21
-285.442
  0
LINE
  8
0
 10
83.3777
 20
-285.442
 11
83.5986
 21
-285.991
  0
LINE
  8
0
 10
83.5986
 20
-285.991
 11
83.8841
 21
-286.509
  0
LINE
  8
0
 10
83.8841
 20
-286.509
 11
84.23
 21
-286.989
  0
LINE
  8
0
 10
84.23
 20
-286.989
 11
84.6312
 21
-287.424
  0
LINE
  8
0
 10
84.6312
 20
-287.424
 11
85.0819
 21
-287.808
  0
LINE
  8
0
 10
85.0819
 20
-287.808
 11
85.5755
 21
-288.134
  0
LINE
  8
0
 10
85.5755
 20
-288.134
 11
92.6769
 21
-292.234
  0
LINE
  8
0
 10
92.6769
 20
-292.234
 11
93.2063
 21
-292.498
  0
LINE
  8
0
 10
93.2063
 20
-292.498
 11
93.7637
 21
-292.697
  0
LINE
  8
0
 10
93.7637
 20
-292.697
 11
94.3409
 21
-292.827
  0
LINE
  8
0
 10
94.3409
 20
-292.827
 11
94.9296
 21
-292.886
  0
LINE
  8
0
 10
94.9296
 20
-292.886
 11
95.5212
 21
-292.875
  0
LINE
  8
0
 10
106.931
 20
-260.281
 11
106.121
 21
-259.813
  0
LINE
  8
0
 10
106.121
 20
-259.813
 11
105.571
 21
-259.056
  0
LINE
  8
0
 10
105.571
 20
-259.056
 11
105.376
 21
-258.141
  0
LINE
  8
0
 10
105.376
 20
-258.141
 11
105.571
 21
-257.226
  0
LINE
  8
0
 10
105.571
 20
-257.226
 11
106.121
 21
-256.469
  0
LINE
  8
0
 10
106.121
 20
-256.469
 11
106.931
 21
-256.001
  0
LINE
  8
0
 10
106.931
 20
-256.001
 11
107.861
 21
-255.903
  0
LINE
  8
0
 10
107.861
 20
-255.903
 11
108.751
 21
-256.192
  0
LINE
  8
0
 10
108.751
 20
-256.192
 11
109.447
 21
-256.818
  0
LINE
  8
0
 10
109.447
 20
-256.818
 11
109.827
 21
-257.673
  0
LINE
  8
0
 10
109.827
 20
-257.673
 11
109.827
 21
-258.609
  0
LINE
  8
0
 10
109.827
 20
-258.609
 11
109.447
 21
-259.464
  0
LINE
  8
0
 10
109.447
 20
-259.464
 11
108.751
 21
-260.09
  0
LINE
  8
0
 10
108.751
 20
-260.09
 11
107.861
 21
-260.379
  0
LINE
  8
0
 10
107.861
 20
-260.379
 11
106.931
 21
-260.281
  0
LINE
  8
0
 10
86.668
 20
-265.832
 11
85.8133
 21
-265.452
  0
LINE
  8
0
 10
85.8133
 20
-265.452
 11
85.1873
 21
-264.756
  0
LINE
  8
0
 10
85.1873
 20
-264.756
 11
84.8982
 21
-263.867
  0
LINE
  8
0
 10
84.8982
 20
-263.867
 11
84.996
 21
-262.936
  0
LINE
  8
0
 10
84.996
 20
-262.936
 11
85.4638
 21
-262.126
  0
LINE
  8
0
 10
85.4638
 20
-262.126
 11
86.2207
 21
-261.576
  0
LINE
  8
0
 10
86.2207
 20
-261.576
 11
87.1358
 21
-261.381
  0
LINE
  8
0
 10
87.1358
 20
-261.381
 11
88.051
 21
-261.576
  0
LINE
  8
0
 10
88.051
 20
-261.576
 11
88.8079
 21
-262.126
  0
LINE
  8
0
 10
88.8079
 20
-262.126
 11
89.2757
 21
-262.936
  0
LINE
  8
0
 10
89.2757
 20
-262.936
 11
89.3735
 21
-263.867
  0
LINE
  8
0
 10
89.3735
 20
-263.867
 11
89.0844
 21
-264.756
  0
LINE
  8
0
 10
89.0844
 20
-264.756
 11
88.4584
 21
-265.452
  0
LINE
  8
0
 10
88.4584
 20
-265.452
 11
87.6036
 21
-265.832
  0
LINE
  8
0
 10
87.6036
 20
-265.832
 11
86.668
 21
-265.832
  0
LINE
  8
0
 10
112.649
 20
-280.832
 11
111.794
 21
-280.452
  0
LINE
  8
0
 10
111.794
 20
-280.452
 11
111.168
 21
-279.756
  0
LINE
  8
0
 10
111.168
 20
-279.756
 11
110.879
 21
-278.867
  0
LINE
  8
0
 10
110.879
 20
-278.867
 11
110.977
 21
-277.936
  0
LINE
  8
0
 10
110.977
 20
-277.936
 11
111.445
 21
-277.126
  0
LINE
  8
0
 10
111.445
 20
-277.126
 11
112.201
 21
-276.576
  0
LINE
  8
0
 10
112.201
 20
-276.576
 11
113.117
 21
-276.381
  0
LINE
  8
0
 10
113.117
 20
-276.381
 11
114.032
 21
-276.576
  0
LINE
  8
0
 10
114.032
 20
-276.576
 11
114.789
 21
-277.126
  0
LINE
  8
0
 10
114.789
 20
-277.126
 11
115.256
 21
-277.936
  0
LINE
  8
0
 10
115.256
 20
-277.936
 11
115.354
 21
-278.867
  0
LINE
  8
0
 10
115.354
 20
-278.867
 11
115.065
 21
-279.756
  0
LINE
  8
0
 10
115.065
 20
-279.756
 11
114.439
 21
-280.452
  0
LINE
  8
0
 10
114.439
 20
-280.452
 11
113.584
 21
-280.832
  0
LINE
  8
0
 10
113.584
 20
-280.832
 11
112.649
 21
-280.832
  0
LINE
  8
0
 10
91.931
 20
-286.262
 11
91.1207
 21
-285.794
  0
LINE
  8
0
 10
91.1207
 20
-285.794
 11
90.5708
 21
-285.037
  0
LINE
  8
0
 10
90.5708
 20
-285.037
 11
90.3763
 21
-284.122
  0
LINE
  8
0
 10
90.3763
 20
-284.122
 11
90.5708
 21
-283.207
  0
LINE
  8
0
 10
90.5708
 20
-283.207
 11
91.1207
 21
-282.45
  0
LINE
  8
0
 10
91.1207
 20
-282.45
 11
91.931
 21
-281.982
  0
LINE
  8
0
 10
91.931
 20
-281.982
 11
92.8614
 21
-281.884
  0
LINE
  8
0
 10
92.8614
 20
-281.884
 11
93.7512
 21
-282.173
  0
LINE
  8
0
 10
93.7512
 20
-282.173
 11
94.4465
 21
-282.799
  0
LINE
  8
0
 10
94.4465
 20
-282.799
 11
94.8271
 21
-283.654
  0
LINE
  8
0
 10
94.8271
 20
-283.654
 11
94.8271
 21
-284.59
  0
LINE
  8
0
 10
94.8271
 20
-284.59
 11
94.4465
 21
-285.444
  0
LINE
  8
0
 10
94.4465
 20
-285.444
 11
93.7512
 21
-286.07
  0
LINE
  8
0
 10
93.7512
 20
-286.07
 11
92.8614
 21
-286.359
  0
LINE
  8
0
 10
92.8614
 20
-286.359
 11
91.931
 21
-286.262
  0
ENDSEC
  0
SECTION
  2
OBJECTS
  0
DICTIONARY
  0
ENDSEC
  0
EOF
