  0
SECTION
  2
BLOCKS
  0
ENDSEC
  0
SECTION
  2
ENTITIES
  0
LINE
  8
0
 10
112.535
 20
114.149
 11
113.113
 21
114.279
  0
LINE
  8
0
 10
113.113
 20
114.279
 11
113.67
 21
114.478
  0
LINE
  8
0
 10
113.67
 20
114.478
 11
114.199
 21
114.742
  0
LINE
  8
0
 10
114.199
 20
114.742
 11
121.301
 21
118.842
  0
LINE
  8
0
 10
121.301
 20
118.842
 11
121.794
 21
119.168
  0
LINE
  8
0
 10
121.794
 20
119.168
 11
122.245
 21
119.552
  0
LINE
  8
0
 10
122.245
 20
119.552
 11
122.646
 21
119.987
  0
LINE
  8
0
 10
122.646
 20
119.987
 11
122.992
 21
120.467
  0
LINE
  8
0
 10
122.992
 20
120.467
 11
123.278
 21
120.985
  0
LINE
  8
0
 10
123.278
 20
120.985
 11
123.499
 21
121.534
  0
LINE
  8
0
 10
123.499
 20
121.534
 11
123.652
 21
122.105
  0
LINE
  8
0
 10
123.652
 20
122.105
 11
123.735
 21
122.691
  0
LINE
  8
0
 10
123.735
 20
122.691
 11
123.747
 21
123.283
  0
LINE
  8
0
 10
123.747
 20
123.283
 11
123.687
 21
123.872
  0
LINE
  8
0
 10
123.687
 20
123.872
 11
123.557
 21
124.449
  0
LINE
  8
0
 10
123.557
 20
124.449
 11
123.359
 21
125.006
  0
LINE
  8
0
 10
123.359
 20
125.006
 11
123.094
 21
125.536
  0
LINE
  8
0
 10
123.094
 20
125.536
 11
110.294
 21
147.706
  0
LINE
  8
0
 10
110.294
 20
147.706
 11
132.464
 21
160.506
  0
LINE
  8
0
 10
132.464
 20
160.506
 11
132.958
 21
160.832
  0
LINE
  8
0
 10
132.958
 20
160.832
 11
133.409
 21
161.215
  0
LINE
  8
0
 10
133.409
 20
161.215
 11
133.81
 21
161.65
  0
LINE
  8
0
 10
133.81
 20
161.65
 11
134.156
 21
162.13
  0
LINE
  8
0
 10
134.156
 20
162.13
 11
134.441
 21
162.649
  0
LINE
  8
0
 10
134.441
 20
162.649
 11
134.662
 21
163.198
  0
LINE
  8
0
 10
134.662
 20
163.198
 11
134.815
 21
163.769
  0
LINE
  8
0
 10
134.815
 20
163.769
 11
134.899
 21
164.355
  0
LINE
  8
0
 10
134.899
 20
164.355
 11
134.911
 21
164.947
  0
LINE
  8
0
 10
134.911
 20
164.947
 11
134.851
 21
165.535
  0
LINE
  8
0
 10
134.851
 20
165.535
 11
134.721
 21
166.113
  0
LINE
  8
0
 10
134.721
 20
166.113
 11
134.522
 21
166.67
  0
LINE
  8
0
 10
134.522
 20
166.67
 11
134.258
 21
167.199
  0
LINE
  8
0
 10
134.258
 20
167.199
 11
130.158
 21
174.301
  0
LINE
  8
0
 10
130.158
 20
174.301
 11
129.832
 21
174.794
  0
LINE
  8
0
 10
129.832
 20
174.794
 11
129.448
 21
175.245
  0
LINE
  8
0
 10
129.448
 20
175.245
 11
129.013
 21
175.646
  0
LINE
  8
0
 10
129.013
 20
175.646
 11
128.533
 21
175.992
  0
LINE
  8
0
 10
128.533
 20
175.992
 11
128.015
 21
176.278
  0
LINE
  8
0
 10
128.015
 20
176.278
 11
127.466
 21
176.499
  0
LINE
  8
0
 10
127.466
 20
176.499
 11
126.895
 21
176.652
  0
LINE
  8
0
 10
126.895
 20
176.652
 11
126.309
 21
176.735
  0
LINE
  8
0
 10
126.309
 20
176.735
 11
125.717
 21
176.747
  0
LINE
  8
0
 10
125.717
 20
176.747
 11
125.128
 21
176.687
  0
LINE
  8
0
 10
125.128
 20
176.687
 11
124.551
 21
176.557
  0
LINE
  8
0
 10
124.551
 20
176.557
 11
123.994
 21
176.359
  0
LINE
  8
0
 10
123.994
 20
176.359
 11
123.464
 21
176.094
  0
LINE
  8
0
 10
123.464
 20
176.094
 11
101.294
 21
163.294
  0
LINE
  8
0
 10
101.294
 20
163.294
 11
88.4942
 21
185.464
  0
LINE
  8
0
 10
88.4942
 20
185.464
 11
88.1679
 21
185.958
  0
LINE
  8
0
 10
88.1679
 20
185.958
 11
87.7846
 21
186.409
  0
LINE
  8
0
 10
87.7846
 20
186.409
 11
87.3497
 21
186.81
  0
LINE
  8
0
 10
87.3497
 20
186.81
 11
86.8696
 21
187.156
  0
LINE
  8
0
 10
86.8696
 20
187.156
 11
86.3513
 21
187.441
  0
LINE
  8
0
 10
86.3513
 20
187.441
 11
85.8024
 21
187.662
  0
LINE
  8
0
 10
85.8024
 20
187.662
 11
85.2308
 21
187.815
  0
LINE
  8
0
 10
85.2308
 20
187.815
 11
84.645
 21
187.899
  0
LINE
  8
0
 10
84.645
 20
187.899
 11
84.0534
 21
187.91
  0
LINE
  8
0
 10
84.0534
 20
187.91
 11
83.4647
 21
187.851
  0
LINE
  8
0
 10
83.4647
 20
187.851
 11
82.8874
 21
187.721
  0
LINE
  8
0
 10
82.8874
 20
187.721
 11
82.33
 21
187.522
  0
LINE
  8
0
 10
82.33
 20
187.522
 11
81.8007
 21
187.258
  0
LINE
  8
0
 10
81.8007
 20
187.258
 11
74.6993
 21
183.158
  0
LINE
  8
0
 10
74.6993
 20
183.158
 11
74.2056
 21
182.832
  0
LINE
  8
0
 10
74.2056
 20
182.832
 11
73.7549
 21
182.448
  0
LINE
  8
0
 10
73.7549
 20
182.448
 11
73.3537
 21
182.013
  0
LINE
  8
0
 10
73.3537
 20
182.013
 11
73.0079
 21
181.533
  0
LINE
  8
0
 10
73.0079
 20
181.533
 11
72.7224
 21
181.015
  0
LINE
  8
0
 10
72.7224
 20
181.015
 11
72.5015
 21
180.466
  0
LINE
  8
0
 10
72.5015
 20
180.466
 11
72.3483
 21
179.895
  0
LINE
  8
0
 10
72.3483
 20
179.895
 11
72.2652
 21
179.309
  0
LINE
  8
0
 10
72.2652
 20
179.309
 11
72.2533
 21
178.717
  0
LINE
  8
0
 10
72.2533
 20
178.717
 11
72.3127
 21
178.128
  0
LINE
  8
0
 10
72.3127
 20
178.128
 11
72.4427
 21
177.551
  0
LINE
  8
0
 10
72.4427
 20
177.551
 11
72.6414
 21
176.994
  0
LINE
  8
0
 10
72.6414
 20
176.994
 11
72.9058
 21
176.464
  0
LINE
  8
0
 10
72.9058
 20
176.464
 11
85.7058
 21
154.294
  0
LINE
  8
0
 10
85.7058
 20
154.294
 11
63.5355
 21
141.494
  0
LINE
  8
0
 10
63.5355
 20
141.494
 11
63.0419
 21
141.168
  0
LINE
  8
0
 10
63.0419
 20
141.168
 11
62.5912
 21
140.785
  0
LINE
  8
0
 10
62.5912
 20
140.785
 11
62.19
 21
140.35
  0
LINE
  8
0
 10
62.19
 20
140.35
 11
61.8441
 21
139.87
  0
LINE
  8
0
 10
61.8441
 20
139.87
 11
61.5586
 21
139.351
  0
LINE
  8
0
 10
61.5586
 20
139.351
 11
61.3377
 21
138.802
  0
LINE
  8
0
 10
61.3377
 20
138.802
 11
61.1845
 21
138.231
  0
LINE
  8
0
 10
61.1845
 20
138.231
 11
61.1014
 21
137.645
  0
LINE
  8
0
 10
61.1014
 20
137.645
 11
61.0895
 21
137.053
  0
LINE
  8
0
 10
61.0895
 20
137.053
 11
61.149
 21
136.465
  0
LINE
  8
0
 10
61.149
 20
136.465
 11
61.279
 21
135.887
  0
LINE
  8
0
 10
61.279
 20
135.887
 11
61.4776
 21
135.33
  0
LINE
  8
0
 10
61.4776
 20
135.33
 11
61.742
 21
134.801
  0
LINE
  8
0
 10
61.742
 20
134.801
 11
65.842
 21
127.699
  0
LINE
  8
0
 10
65.842
 20
127.699
 11
66.1683
 21
127.206
  0
LINE
  8
0
 10
66.1683
 20
127.206
 11
66.5516
 21
126.755
  0
LINE
  8
0
 10
66.5516
 20
126.755
 11
66.9865
 21
126.354
  0
LINE
  8
0
 10
66.9865
 20
126.354
 11
67.4666
 21
126.008
  0
LINE
  8
0
 10
67.4666
 20
126.008
 11
67.9849
 21
125.722
  0
LINE
  8
0
 10
67.9849
 20
125.722
 11
68.5338
 21
125.501
  0
LINE
  8
0
 10
68.5338
 20
125.501
 11
69.1054
 21
125.348
  0
LINE
  8
0
 10
69.1054
 20
125.348
 11
69.6912
 21
125.265
  0
LINE
  8
0
 10
69.6912
 20
125.265
 11
70.2828
 21
125.253
  0
LINE
  8
0
 10
70.2828
 20
125.253
 11
70.8715
 21
125.313
  0
LINE
  8
0
 10
70.8715
 20
125.313
 11
71.4488
 21
125.443
  0
LINE
  8
0
 10
71.4488
 20
125.443
 11
72.0061
 21
125.641
  0
LINE
  8
0
 10
72.0061
 20
125.641
 11
72.5355
 21
125.906
  0
LINE
  8
0
 10
72.5355
 20
125.906
 11
94.7058
 21
138.706
  0
LINE
  8
0
 10
94.7058
 20
138.706
 11
107.506
 21
116.536
  0
LINE
  8
0
 10
107.506
 20
116.536
 11
107.832
 21
116.042
  0
LINE
  8
0
 10
107.832
 20
116.042
 11
108.215
 21
115.591
  0
LINE
  8
0
 10
108.215
 20
115.591
 11
108.65
 21
115.19
  0
LINE
  8
0
 10
108.65
 20
115.19
 11
109.13
 21
114.844
  0
LINE
  8
0
 10
109.13
 20
114.844
 11
109.649
 21
114.559
  0
LINE
  8
0
 10
109.649
 20
114.559
 11
110.198
 21
114.338
  0
LINE
  8
0
 10
110.198
 20
114.338
 11
110.769
 21
114.185
  0
LINE
  8
0
 10
110.769
 20
114.185
 11
111.355
 21
114.101
  0
LINE
  8
0
 10
111.355
 20
114.101
 11
111.947
 21
114.089
  0
LINE
  8
0
 10
111.947
 20
114.089
 11
112.535
 21
114.149
  0
LINE
  8
0
 10
80.4851
 20
177.597
 11
79.91
 21
178.362
  0
LINE
  8
0
 10
79.91
 20
178.362
 11
79.7565
 21
179.307
  0
LINE
  8
0
 10
79.7565
 20
179.307
 11
80.0596
 21
180.215
  0
LINE
  8
0
 10
80.0596
 20
180.215
 11
80.75
 21
180.878
  0
LINE
  8
0
 10
80.75
 20
180.878
 11
81.6694
 21
181.144
  0
LINE
  8
0
 10
81.6694
 20
181.144
 11
82.6074
 21
180.953
  0
LINE
  8
0
 10
82.6074
 20
180.953
 11
83.3489
 21
180.347
  0
LINE
  8
0
 10
83.3489
 20
180.347
 11
83.7241
 21
179.467
  0
LINE
  8
0
 10
83.7241
 20
179.467
 11
83.647
 21
178.512
  0
LINE
  8
0
 10
83.647
 20
178.512
 11
83.1354
 21
177.703
  0
LINE
  8
0
 10
83.1354
 20
177.703
 11
82.3064
 21
177.225
  0
LINE
  8
0
 10
82.3064
 20
177.225
 11
81.3499
 21
177.186
  0
LINE
  8
0
 10
81.3499
 20
177.186
 11
80.4851
 21
177.597
  0
LINE
  8
0
 10
125.077
 20
165.56
 11
124.414
 21
166.25
  0
LINE
  8
0
 10
124.414
 20
166.25
 11
124.147
 21
167.169
  0
LINE
  8
0
 10
124.147
 20
167.169
 11
124.339
 21
168.107
  0
LINE
  8
0
 10
124.339
 20
168.107
 11
124.944
 21
168.849
  0
LINE
  8
0
 10
124.944
 20
168.849
 11
125.825
 21
169.224
  0
LINE
  8
0
 10
125.825
 20
169.224
 11
126.779
 21
169.147
  0
LINE
  8
0
 10
126.779
 20
169.147
 11
127.588
 21
168.635
  0
LINE
  8
0
 10
127.588
 20
168.635
 11
128.067
 21
167.806
  0
LINE
  8
0
 10
128.067
 20
167.806
 11
128.105
 21
166.85
  0
LINE
  8
0
 10
128.105
 20
166.85
 11
127.695
 21
165.985
  0
LINE
  8
0
 10
127.695
 20
165.985
 11
126.93
 21
165.41
  0
LINE
  8
0
 10
126.93
 20
165.41
 11
125.985
 21
165.256
  0
LINE
  8
0
 10
125.985
 20
165.256
 11
125.077
 21
165.56
  0
LINE
  8
0
 10
68.7852
 20
133.06
 11
68.1221
 21
133.75
  0
LINE
  8
0
 10
68.1221
 20
133.75
 11
67.8558
 21
134.669
  0
LINE
  8
0
 10
67.8558
 20
134.669
 11
68.0473
 21
135.607
  0
LINE
  8
0
 10
68.0473
 20
135.607
 11
68.6527
 21
136.349
  0
LINE
  8
0
 10
68.6527
 20
136.349
 11
69.5334
 21
136.724
  0
LINE
  8
0
 10
69.5334
 20
136.724
 11
70.4875
 21
136.647
  0
LINE
  8
0
 10
70.4875
 20
136.647
 11
71.2966
 21
136.135
  0
LINE
  8
0
 10
71.2966
 20
136.135
 11
71.7752
 21
135.306
  0
LINE
  8
0
 10
71.7752
 20
135.306
 11
71.8138
 21
134.35
  0
LINE
  8
0
 10
71.8138
 20
134.35
 11
71.4034
 21
133.485
  0
LINE
  8
0
 10
71.4034
 20
133.485
 11
70.6381
 21
132.91
  0
LINE
  8
0
 10
70.6381
 20
132.91
 11
69.6933
 21
132.756
  0
LINE
  8
0
 10
69.6933
 20
132.756
 11
68.7852
 21
133.06
  0
LINE
  8
0
 10
112.985
 20
121.305
 11
112.41
 21
122.07
  0
LINE
  8
0
 10
112.41
 20
122.07
 11
112.256
 21
123.015
  0
LINE
  8
0
 10
112.256
 20
123.015
 11
112.56
 21
123.923
  0
LINE
  8
0
 10
112.56
 20
123.923
 11
113.25
 21
124.586
  0
LINE
  8
0
 10
113.25
 20
124.586
 11
114.169
 21
124.853
  0
LINE
  8
0
 10
114.169
 20
124.853
 11
115.107
 21
124.661
  0
LINE
  8
0
 10
115.107
 20
124.661
 11
115.849
 21
124.056
  0
LINE
  8
0
 10
115.849
 20
124.056
 11
116.224
 21
123.175
  0
LINE
  8
0
 10
116.224
 20
123.175
 11
116.147
 21
122.221
  0
LINE
  8
0
 10
116.147
 20
122.221
 11
115.635
 21
121.412
  0
LINE
  8
0
 10
115.635
 20
121.412
 11
114.806
 21
120.933
  0
LINE
  8
0
 10
114.806
 20
120.933
 11
113.85
 21
120.895
  0
LINE
  8
0
 10
113.85
 20
120.895
 11
112.985
 21
121.305
  0
LINE
  8
0
 10
-185
 20
138
 11
-181.9
 21
138
  0
LINE
  8
0
 10
-181.9
 20
138
 11
-181.309
 21
138.036
  0
LINE
  8
0
 10
-181.309
 20
138.036
 11
-180.727
 21
138.142
  0
LINE
  8
0
 10
-180.727
 20
138.142
 11
-180.162
 21
138.318
  0
LINE
  8
0
 10
-180.162
 20
138.318
 11
-179.623
 21
138.561
  0
LINE
  8
0
 10
-179.623
 20
138.561
 11
-179.116
 21
138.867
  0
LINE
  8
0
 10
-179.116
 20
138.867
 11
-178.651
 21
139.232
  0
LINE
  8
0
 10
-178.651
 20
139.232
 11
-178.232
 21
139.651
  0
LINE
  8
0
 10
-178.232
 20
139.651
 11
-177.867
 21
140.116
  0
LINE
  8
0
 10
-177.867
 20
140.116
 11
-177.561
 21
140.623
  0
LINE
  8
0
 10
-177.561
 20
140.623
 11
-177.318
 21
141.162
  0
LINE
  8
0
 10
-177.318
 20
141.162
 11
-177.142
 21
141.727
  0
LINE
  8
0
 10
-177.142
 20
141.727
 11
-177.036
 21
142.309
  0
LINE
  8
0
 10
-177.036
 20
142.309
 11
-177
 21
142.9
  0
LINE
  8
0
 10
-177
 20
142.9
 11
-177
 21
151
  0
LINE
  8
0
 10
-177
 20
151
 11
-168.9
 21
151
  0
LINE
  8
0
 10
-168.9
 20
151
 11
-168.309
 21
151.036
  0
LINE
  8
0
 10
-168.309
 20
151.036
 11
-167.727
 21
151.142
  0
LINE
  8
0
 10
-167.727
 20
151.142
 11
-167.162
 21
151.318
  0
LINE
  8
0
 10
-167.162
 20
151.318
 11
-166.623
 21
151.561
  0
LINE
  8
0
 10
-166.623
 20
151.561
 11
-166.116
 21
151.867
  0
LINE
  8
0
 10
-166.116
 20
151.867
 11
-165.651
 21
152.232
  0
LINE
  8
0
 10
-165.651
 20
152.232
 11
-165.232
 21
152.651
  0
LINE
  8
0
 10
-165.232
 20
152.651
 11
-164.867
 21
153.116
  0
LINE
  8
0
 10
-164.867
 20
153.116
 11
-164.561
 21
153.623
  0
LINE
  8
0
 10
-164.561
 20
153.623
 11
-164.318
 21
154.162
  0
LINE
  8
0
 10
-164.318
 20
154.162
 11
-164.142
 21
154.727
  0
LINE
  8
0
 10
-164.142
 20
154.727
 11
-164.036
 21
155.309
  0
LINE
  8
0
 10
-164.036
 20
155.309
 11
-164
 21
155.9
  0
LINE
  8
0
 10
-164
 20
155.9
 11
-164
 21
164.1
  0
LINE
  8
0
 10
-164
 20
164.1
 11
-164.036
 21
164.691
  0
LINE
  8
0
 10
-164.036
 20
164.691
 11
-164.142
 21
165.273
  0
LINE
  8
0
 10
-164.142
 20
165.273
 11
-164.318
 21
165.838
  0
LINE
  8
0
 10
-164.318
 20
165.838
 11
-164.561
 21
166.377
  0
LINE
  8
0
 10
-164.561
 20
166.377
 11
-164.867
 21
166.884
  0
LINE
  8
0
 10
-164.867
 20
166.884
 11
-165.232
 21
167.349
  0
LINE
  8
0
 10
-165.232
 20
167.349
 11
-165.651
 21
167.768
  0
LINE
  8
0
 10
-165.651
 20
167.768
 11
-166.116
 21
168.133
  0
LINE
  8
0
 10
-166.116
 20
168.133
 11
-166.623
 21
168.439
  0
LINE
  8
0
 10
-166.623
 20
168.439
 11
-167.162
 21
168.682
  0
LINE
  8
0
 10
-167.162
 20
168.682
 11
-167.727
 21
168.858
  0
LINE
  8
0
 10
-167.727
 20
168.858
 11
-168.309
 21
168.964
  0
LINE
  8
0
 10
-168.309
 20
168.964
 11
-168.9
 21
169
  0
LINE
  8
0
 10
-168.9
 20
169
 11
-177
 21
169
  0
LINE
  8
0
 10
-177
 20
169
 11
-177
 21
177.1
  0
LINE
  8
0
 10
-177
 20
177.1
 11
-177.036
 21
177.691
  0
LINE
  8
0
 10
-177.036
 20
177.691
 11
-177.142
 21
178.273
  0
LINE
  8
0
 10
-177.142
 20
178.273
 11
-177.318
 21
178.838
  0
LINE
  8
0
 10
-177.318
 20
178.838
 11
-177.561
 21
179.377
  0
LINE
  8
0
 10
-177.561
 20
179.377
 11
-177.867
 21
179.884
  0
LINE
  8
0
 10
-177.867
 20
179.884
 11
-178.232
 21
180.349
  0
LINE
  8
0
 10
-178.232
 20
180.349
 11
-178.651
 21
180.768
  0
LINE
  8
0
 10
-178.651
 20
180.768
 11
-179.116
 21
181.133
  0
LINE
  8
0
 10
-179.116
 20
181.133
 11
-179.623
 21
181.439
  0
LINE
  8
0
 10
-179.623
 20
181.439
 11
-180.162
 21
181.682
  0
LINE
  8
0
 10
-180.162
 20
181.682
 11
-180.727
 21
181.858
  0
LINE
  8
0
 10
-180.727
 20
181.858
 11
-181.309
 21
181.964
  0
LINE
  8
0
 10
-181.309
 20
181.964
 11
-181.9
 21
182
  0
LINE
  8
0
 10
-181.9
 20
182
 11
-185
 21
182
  0
LINE
  8
0
 10
-185
 20
182
 11
-185
 21
187
  0
LINE
  8
0
 10
-185
 20
187
 11
-187
 21
187
  0
LINE
  8
0
 10
-187
 20
187
 11
-187
 21
182
  0
LINE
  8
0
 10
-187
 20
182
 11
-190.1
 21
182
  0
LINE
  8
0
 10
-190.1
 20
182
 11
-190.691
 21
181.964
  0
LINE
  8
0
 10
-190.691
 20
181.964
 11
-191.273
 21
181.858
  0
LINE
  8
0
 10
-191.273
 20
181.858
 11
-191.838
 21
181.682
  0
LINE
  8
0
 10
-191.838
 20
181.682
 11
-192.377
 21
181.439
  0
LINE
  8
0
 10
-192.377
 20
181.439
 11
-192.883
 21
181.133
  0
LINE
  8
0
 10
-192.883
 20
181.133
 11
-193.349
 21
180.768
  0
LINE
  8
0
 10
-193.349
 20
180.768
 11
-193.768
 21
180.349
  0
LINE
  8
0
 10
-193.768
 20
180.349
 11
-194.133
 21
179.884
  0
LINE
  8
0
 10
-194.133
 20
179.884
 11
-194.439
 21
179.377
  0
LINE
  8
0
 10
-194.439
 20
179.377
 11
-194.682
 21
178.838
  0
LINE
  8
0
 10
-194.682
 20
178.838
 11
-194.858
 21
178.273
  0
LINE
  8
0
 10
-194.858
 20
178.273
 11
-194.964
 21
177.691
  0
LINE
  8
0
 10
-194.964
 20
177.691
 11
-195
 21
177.1
  0
LINE
  8
0
 10
-195
 20
177.1
 11
-195
 21
169
  0
LINE
  8
0
 10
-195
 20
169
 11
-203.1
 21
169
  0
LINE
  8
0
 10
-203.1
 20
169
 11
-203.691
 21
168.964
  0
LINE
  8
0
 10
-203.691
 20
168.964
 11
-204.273
 21
168.858
  0
LINE
  8
0
 10
-204.273
 20
168.858
 11
-204.838
 21
168.682
  0
LINE
  8
0
 10
-204.838
 20
168.682
 11
-205.377
 21
168.439
  0
LINE
  8
0
 10
-205.377
 20
168.439
 11
-205.883
 21
168.133
  0
LINE
  8
0
 10
-205.883
 20
168.133
 11
-206.349
 21
167.768
  0
LINE
  8
0
 10
-206.349
 20
167.768
 11
-206.768
 21
167.349
  0
LINE
  8
0
 10
-206.768
 20
167.349
 11
-207.133
 21
166.884
  0
LINE
  8
0
 10
-207.133
 20
166.884
 11
-207.439
 21
166.377
  0
LINE
  8
0
 10
-207.439
 20
166.377
 11
-207.682
 21
165.838
  0
LINE
  8
0
 10
-207.682
 20
165.838
 11
-207.858
 21
165.273
  0
LINE
  8
0
 10
-207.858
 20
165.273
 11
-207.964
 21
164.691
  0
LINE
  8
0
 10
-207.964
 20
164.691
 11
-208
 21
164.1
  0
LINE
  8
0
 10
-208
 20
164.1
 11
-208
 21
155.9
  0
LINE
  8
0
 10
-208
 20
155.9
 11
-207.964
 21
155.309
  0
LINE
  8
0
 10
-207.964
 20
155.309
 11
-207.858
 21
154.727
  0
LINE
  8
0
 10
-207.858
 20
154.727
 11
-207.682
 21
154.162
  0
LINE
  8
0
 10
-207.682
 20
154.162
 11
-207.439
 21
153.623
  0
LINE
  8
0
 10
-207.439
 20
153.623
 11
-207.133
 21
153.116
  0
LINE
  8
0
 10
-207.133
 20
153.116
 11
-206.768
 21
152.651
  0
LINE
  8
0
 10
-206.768
 20
152.651
 11
-206.349
 21
152.232
  0
LINE
  8
0
 10
-206.349
 20
152.232
 11
-205.883
 21
151.867
  0
LINE
  8
0
 10
-205.883
 20
151.867
 11
-205.377
 21
151.561
  0
LINE
  8
0
 10
-205.377
 20
151.561
 11
-204.838
 21
151.318
  0
LINE
  8
0
 10
-204.838
 20
151.318
 11
-204.273
 21
151.142
  0
LINE
  8
0
 10
-204.273
 20
151.142
 11
-203.691
 21
151.036
  0
LINE
  8
0
 10
-203.691
 20
151.036
 11
-203.1
 21
151
  0
LINE
  8
0
 10
-203.1
 20
151
 11
-195
 21
151
  0
LINE
  8
0
 10
-195
 20
151
 11
-195
 21
142.9
  0
LINE
  8
0
 10
-195
 20
142.9
 11
-194.964
 21
142.309
  0
LINE
  8
0
 10
-194.964
 20
142.309
 11
-194.858
 21
141.727
  0
LINE
  8
0
 10
-194.858
 20
141.727
 11
-194.682
 21
141.162
  0
LINE
  8
0
 10
-194.682
 20
141.162
 11
-194.439
 21
140.623
  0
LINE
  8
0
 10
-194.439
 20
140.623
 11
-194.133
 21
140.116
  0
LINE
  8
0
 10
-194.133
 20
140.116
 11
-193.768
 21
139.651
  0
LINE
  8
0
 10
-193.768
 20
139.651
 11
-193.349
 21
139.232
  0
LINE
  8
0
 10
-193.349
 20
139.232
 11
-192.883
 21
138.867
  0
LINE
  8
0
 10
-192.883
 20
138.867
 11
-192.377
 21
138.561
  0
LINE
  8
0
 10
-192.377
 20
138.561
 11
-191.838
 21
138.318
  0
LINE
  8
0
 10
-191.838
 20
138.318
 11
-191.273
 21
138.142
  0
LINE
  8
0
 10
-191.273
 20
138.142
 11
-190.691
 21
138.036
  0
LINE
  8
0
 10
-190.691
 20
138.036
 11
-190.1
 21
138
  0
LINE
  8
0
 10
-190.1
 20
138
 11
-187
 21
138
  0
LINE
  8
0
 10
-187
 20
138
 11
-187
 21
133
  0
LINE
  8
0
 10
-187
 20
133
 11
-185
 21
133
  0
LINE
  8
0
 10
-185
 20
133
 11
-185
 21
138
  0
LINE
  8
0
 10
-186.479
 20
173.058
 11
-187.326
 21
173.503
  0
LINE
  8
0
 10
-187.326
 20
173.503
 11
-187.87
 21
174.291
  0
LINE
  8
0
 10
-187.87
 20
174.291
 11
-187.985
 21
175.241
  0
LINE
  8
0
 10
-187.985
 20
175.241
 11
-187.646
 21
176.136
  0
LINE
  8
0
 10
-187.646
 20
176.136
 11
-186.929
 21
176.771
  0
LINE
  8
0
 10
-186.929
 20
176.771
 11
-186
 21
177
  0
LINE
  8
0
 10
-186
 20
177
 11
-185.071
 21
176.771
  0
LINE
  8
0
 10
-185.071
 20
176.771
 11
-184.354
 21
176.136
  0
LINE
  8
0
 10
-184.354
 20
176.136
 11
-184.015
 21
175.241
  0
LINE
  8
0
 10
-184.015
 20
175.241
 11
-184.13
 21
174.291
  0
LINE
  8
0
 10
-184.13
 20
174.291
 11
-184.674
 21
173.503
  0
LINE
  8
0
 10
-184.674
 20
173.503
 11
-185.521
 21
173.058
  0
LINE
  8
0
 10
-185.521
 20
173.058
 11
-186.479
 21
173.058
  0
LINE
  8
0
 10
-172.136
 20
158.354
 11
-172.771
 21
159.071
  0
LINE
  8
0
 10
-172.771
 20
159.071
 11
-173
 21
160
  0
LINE
  8
0
 10
-173
 20
160
 11
-172.771
 21
160.929
  0
LINE
  8
0
 10
-172.771
 20
160.929
 11
-172.136
 21
161.646
  0
LINE
  8
0
 10
-172.136
 20
161.646
 11
-171.241
 21
161.985
  0
LINE
  8
0
 10
-171.241
 20
161.985
 11
-170.291
 21
161.87
  0
LINE
  8
0
 10
-170.291
 20
161.87
 11
-169.503
 21
161.326
  0
LINE
  8
0
 10
-169.503
 20
161.326
 11
-169.058
 21
160.479
  0
LINE
  8
0
 10
-169.058
 20
160.479
 11
-169.058
 21
159.521
  0
LINE
  8
0
 10
-169.058
 20
159.521
 11
-169.503
 21
158.674
  0
LINE
  8
0
 10
-169.503
 20
158.674
 11
-170.291
 21
158.13
  0
LINE
  8
0
 10
-170.291
 20
158.13
 11
-171.241
 21
158.015
  0
LINE
  8
0
 10
-171.241
 20
158.015
 11
-172.136
 21
158.354
  0
LINE
  8
0
 10
-202.136
 20
158.354
 11
-202.771
 21
159.071
  0
LINE
  8
0
 10
-202.771
 20
159.071
 11
-203
 21
160
  0
LINE
  8
0
 10
-203
 20
160
 11
-202.771
 21
160.929
  0
LINE
  8
0
 10
-202.771
 20
160.929
 11
-202.136
 21
161.646
  0
LINE
  8
0
 10
-202.136
 20
161.646
 11
-201.241
 21
161.985
  0
LINE
  8
0
 10
-201.241
 20
161.985
 11
-200.291
 21
161.87
  0
LINE
  8
0
 10
-200.291
 20
161.87
 11
-199.503
 21
161.326
  0
LINE
  8
0
 10
-199.503
 20
161.326
 11
-199.058
 21
160.479
  0
LINE
  8
0
 10
-199.058
 20
160.479
 11
-199.058
 21
159.521
  0
LINE
  8
0
 10
-199.058
 20
159.521
 11
-199.503
 21
158.674
  0
LINE
  8
0
 10
-199.503
 20
158.674
 11
-200.291
 21
158.13
  0
LINE
  8
0
 10
-200.291
 20
158.13
 11
-201.241
 21
158.015
  0
LINE
  8
0
 10
-201.241
 20
158.015
 11
-202.136
 21
158.354
  0
LINE
  8
0
 10
-186.479
 20
143.058
 11
-187.326
 21
143.503
  0
LINE
  8
0
 10
-187.326
 20
143.503
 11
-187.87
 21
144.291
  0
LINE
  8
0
 10
-187.87
 20
144.291
 11
-187.985
 21
145.241
  0
LINE
  8
0
 10
-187.985
 20
145.241
 11
-187.646
 21
146.136
  0
LINE
  8
0
 10
-187.646
 20
146.136
 11
-186.929
 21
146.771
  0
LINE
  8
0
 10
-186.929
 20
146.771
 11
-186
 21
147
  0
LINE
  8
0
 10
-186
 20
147
 11
-185.071
 21
146.771
  0
LINE
  8
0
 10
-185.071
 20
146.771
 11
-184.354
 21
146.136
  0
LINE
  8
0
 10
-184.354
 20
146.136
 11
-184.015
 21
145.241
  0
LINE
  8
0
 10
-184.015
 20
145.241
 11
-184.13
 21
144.291
  0
LINE
  8
0
 10
-184.13
 20
144.291
 11
-184.674
 21
143.503
  0
LINE
  8
0
 10
-184.674
 20
143.503
 11
-185.521
 21
143.058
  0
LINE
  8
0
 10
-185.521
 20
143.058
 11
-186.479
 21
143.058
  0
LINE
  8
0
 10
229.179
 20
106.652
 11
229.761
 21
106.758
  0
LINE
  8
0
 10
229.761
 20
106.758
 11
230.326
 21
106.932
  0
LINE
  8
0
 10
230.326
 20
106.932
 11
230.866
 21
107.174
  0
LINE
  8
0
 10
230.866
 20
107.174
 11
231.373
 21
107.479
  0
LINE
  8
0
 10
231.373
 20
107.479
 11
238.131
 21
112.124
  0
LINE
  8
0
 10
238.131
 20
112.124
 11
238.598
 21
112.488
  0
LINE
  8
0
 10
238.598
 20
112.488
 11
239.017
 21
112.905
  0
LINE
  8
0
 10
239.017
 20
112.905
 11
239.383
 21
113.37
  0
LINE
  8
0
 10
239.383
 20
113.37
 11
239.69
 21
113.876
  0
LINE
  8
0
 10
239.69
 20
113.876
 11
239.934
 21
114.415
  0
LINE
  8
0
 10
239.934
 20
114.415
 11
240.111
 21
114.98
  0
LINE
  8
0
 10
240.111
 20
114.98
 11
240.219
 21
115.562
  0
LINE
  8
0
 10
240.219
 20
115.562
 11
240.256
 21
116.152
  0
LINE
  8
0
 10
240.256
 20
116.152
 11
240.221
 21
116.743
  0
LINE
  8
0
 10
240.221
 20
116.743
 11
240.116
 21
117.325
  0
LINE
  8
0
 10
240.116
 20
117.325
 11
239.941
 21
117.89
  0
LINE
  8
0
 10
239.941
 20
117.89
 11
239.699
 21
118.43
  0
LINE
  8
0
 10
239.699
 20
118.43
 11
239.394
 21
118.937
  0
LINE
  8
0
 10
239.394
 20
118.937
 11
234.806
 21
125.613
  0
LINE
  8
0
 10
234.806
 20
125.613
 11
241.482
 21
130.201
  0
LINE
  8
0
 10
241.482
 20
130.201
 11
241.948
 21
130.565
  0
LINE
  8
0
 10
241.948
 20
130.565
 11
242.367
 21
130.982
  0
LINE
  8
0
 10
242.367
 20
130.982
 11
242.733
 21
131.447
  0
LINE
  8
0
 10
242.733
 20
131.447
 11
243.04
 21
131.953
  0
LINE
  8
0
 10
243.04
 20
131.953
 11
243.284
 21
132.492
  0
LINE
  8
0
 10
243.284
 20
132.492
 11
243.461
 21
133.057
  0
LINE
  8
0
 10
243.461
 20
133.057
 11
243.569
 21
133.639
  0
LINE
  8
0
 10
243.569
 20
133.639
 11
243.606
 21
134.229
  0
LINE
  8
0
 10
243.606
 20
134.229
 11
243.572
 21
134.82
  0
LINE
  8
0
 10
243.572
 20
134.82
 11
243.466
 21
135.402
  0
LINE
  8
0
 10
243.466
 20
135.402
 11
243.291
 21
135.967
  0
LINE
  8
0
 10
243.291
 20
135.967
 11
243.05
 21
136.507
  0
LINE
  8
0
 10
243.05
 20
136.507
 11
242.744
 21
137.014
  0
LINE
  8
0
 10
242.744
 20
137.014
 11
238.1
 21
143.772
  0
LINE
  8
0
 10
238.1
 20
143.772
 11
237.736
 21
144.239
  0
LINE
  8
0
 10
237.736
 20
144.239
 11
237.318
 21
144.658
  0
LINE
  8
0
 10
237.318
 20
144.658
 11
236.853
 21
145.024
  0
LINE
  8
0
 10
236.853
 20
145.024
 11
236.348
 21
145.331
  0
LINE
  8
0
 10
236.348
 20
145.331
 11
235.809
 21
145.575
  0
LINE
  8
0
 10
235.809
 20
145.575
 11
235.244
 21
145.752
  0
LINE
  8
0
 10
235.244
 20
145.752
 11
234.662
 21
145.86
  0
LINE
  8
0
 10
234.662
 20
145.86
 11
234.072
 21
145.897
  0
LINE
  8
0
 10
234.072
 20
145.897
 11
233.481
 21
145.862
  0
LINE
  8
0
 10
233.481
 20
145.862
 11
232.899
 21
145.757
  0
LINE
  8
0
 10
232.899
 20
145.757
 11
232.333
 21
145.582
  0
LINE
  8
0
 10
232.333
 20
145.582
 11
231.793
 21
145.34
  0
LINE
  8
0
 10
231.793
 20
145.34
 11
231.286
 21
145.035
  0
LINE
  8
0
 10
231.286
 20
145.035
 11
224.611
 21
140.447
  0
LINE
  8
0
 10
224.611
 20
140.447
 11
220.023
 21
147.123
  0
LINE
  8
0
 10
220.023
 20
147.123
 11
219.659
 21
147.589
  0
LINE
  8
0
 10
219.659
 20
147.589
 11
219.241
 21
148.008
  0
LINE
  8
0
 10
219.241
 20
148.008
 11
218.776
 21
148.374
  0
LINE
  8
0
 10
218.776
 20
148.374
 11
218.271
 21
148.681
  0
LINE
  8
0
 10
218.271
 20
148.681
 11
217.732
 21
148.925
  0
LINE
  8
0
 10
217.732
 20
148.925
 11
217.167
 21
149.102
  0
LINE
  8
0
 10
217.167
 20
149.102
 11
216.585
 21
149.21
  0
LINE
  8
0
 10
216.585
 20
149.21
 11
215.995
 21
149.247
  0
LINE
  8
0
 10
215.995
 20
149.247
 11
215.404
 21
149.213
  0
LINE
  8
0
 10
215.404
 20
149.213
 11
214.822
 21
149.107
  0
LINE
  8
0
 10
214.822
 20
149.107
 11
214.256
 21
148.932
  0
LINE
  8
0
 10
214.256
 20
148.932
 11
213.716
 21
148.69
  0
LINE
  8
0
 10
213.716
 20
148.69
 11
213.209
 21
148.385
  0
LINE
  8
0
 10
213.209
 20
148.385
 11
206.452
 21
143.741
  0
LINE
  8
0
 10
206.452
 20
143.741
 11
205.985
 21
143.377
  0
LINE
  8
0
 10
205.985
 20
143.377
 11
205.566
 21
142.959
  0
LINE
  8
0
 10
205.566
 20
142.959
 11
205.2
 21
142.494
  0
LINE
  8
0
 10
205.2
 20
142.494
 11
204.893
 21
141.988
  0
LINE
  8
0
 10
204.893
 20
141.988
 11
204.649
 21
141.449
  0
LINE
  8
0
 10
204.649
 20
141.449
 11
204.472
 21
140.885
  0
LINE
  8
0
 10
204.472
 20
140.885
 11
204.364
 21
140.303
  0
LINE
  8
0
 10
204.364
 20
140.303
 11
204.327
 21
139.712
  0
LINE
  8
0
 10
204.327
 20
139.712
 11
204.361
 21
139.122
  0
LINE
  8
0
 10
204.361
 20
139.122
 11
204.467
 21
138.54
  0
LINE
  8
0
 10
204.467
 20
138.54
 11
204.642
 21
137.974
  0
LINE
  8
0
 10
204.642
 20
137.974
 11
204.884
 21
137.434
  0
LINE
  8
0
 10
204.884
 20
137.434
 11
205.189
 21
136.927
  0
LINE
  8
0
 10
205.189
 20
136.927
 11
209.777
 21
130.252
  0
LINE
  8
0
 10
209.777
 20
130.252
 11
203.101
 21
125.664
  0
LINE
  8
0
 10
203.101
 20
125.664
 11
202.635
 21
125.3
  0
LINE
  8
0
 10
202.635
 20
125.3
 11
202.215
 21
124.882
  0
LINE
  8
0
 10
202.215
 20
124.882
 11
201.85
 21
124.417
  0
LINE
  8
0
 10
201.85
 20
124.417
 11
201.542
 21
123.912
  0
LINE
  8
0
 10
201.542
 20
123.912
 11
201.299
 21
123.372
  0
LINE
  8
0
 10
201.299
 20
123.372
 11
201.121
 21
122.808
  0
LINE
  8
0
 10
201.121
 20
122.808
 11
201.014
 21
122.226
  0
LINE
  8
0
 10
201.014
 20
122.226
 11
200.977
 21
121.636
  0
LINE
  8
0
 10
200.977
 20
121.636
 11
201.011
 21
121.045
  0
LINE
  8
0
 10
201.011
 20
121.045
 11
201.117
 21
120.463
  0
LINE
  8
0
 10
201.117
 20
120.463
 11
201.292
 21
119.897
  0
LINE
  8
0
 10
201.292
 20
119.897
 11
201.533
 21
119.357
  0
LINE
  8
0
 10
201.533
 20
119.357
 11
201.838
 21
118.85
  0
LINE
  8
0
 10
201.838
 20
118.85
 11
203.594
 21
116.296
  0
LINE
  8
0
 10
203.594
 20
116.296
 11
199.474
 21
113.463
  0
LINE
  8
0
 10
199.474
 20
113.463
 11
200.606
 21
111.815
  0
LINE
  8
0
 10
200.606
 20
111.815
 11
204.727
 21
114.647
  0
LINE
  8
0
 10
204.727
 20
114.647
 11
206.483
 21
112.092
  0
LINE
  8
0
 10
206.483
 20
112.092
 11
206.847
 21
111.626
  0
LINE
  8
0
 10
206.847
 20
111.626
 11
207.264
 21
111.207
  0
LINE
  8
0
 10
207.264
 20
111.207
 11
207.73
 21
110.841
  0
LINE
  8
0
 10
207.73
 20
110.841
 11
208.235
 21
110.534
  0
LINE
  8
0
 10
208.235
 20
110.534
 11
208.774
 21
110.29
  0
LINE
  8
0
 10
208.774
 20
110.29
 11
209.339
 21
110.113
  0
LINE
  8
0
 10
209.339
 20
110.113
 11
209.921
 21
110.005
  0
LINE
  8
0
 10
209.921
 20
110.005
 11
210.511
 21
109.968
  0
LINE
  8
0
 10
210.511
 20
109.968
 11
211.102
 21
110.002
  0
LINE
  8
0
 10
211.102
 20
110.002
 11
211.684
 21
110.108
  0
LINE
  8
0
 10
211.684
 20
110.108
 11
212.249
 21
110.283
  0
LINE
  8
0
 10
212.249
 20
110.283
 11
212.79
 21
110.525
  0
LINE
  8
0
 10
212.79
 20
110.525
 11
213.297
 21
110.83
  0
LINE
  8
0
 10
213.297
 20
110.83
 11
219.972
 21
115.418
  0
LINE
  8
0
 10
219.972
 20
115.418
 11
224.56
 21
108.742
  0
LINE
  8
0
 10
224.56
 20
108.742
 11
224.924
 21
108.276
  0
LINE
  8
0
 10
224.924
 20
108.276
 11
225.341
 21
107.856
  0
LINE
  8
0
 10
225.341
 20
107.856
 11
225.806
 21
107.491
  0
LINE
  8
0
 10
225.806
 20
107.491
 11
226.312
 21
107.183
  0
LINE
  8
0
 10
226.312
 20
107.183
 11
226.851
 21
106.939
  0
LINE
  8
0
 10
226.851
 20
106.939
 11
227.416
 21
106.762
  0
LINE
  8
0
 10
227.416
 20
106.762
 11
227.998
 21
106.654
  0
LINE
  8
0
 10
227.998
 20
106.654
 11
228.588
 21
106.618
  0
LINE
  8
0
 10
228.588
 20
106.618
 11
229.179
 21
106.652
  0
LINE
  8
0
 10
213.082
 20
138.426
 11
212.296
 21
138.971
  0
LINE
  8
0
 10
212.296
 20
138.971
 11
211.852
 21
139.819
  0
LINE
  8
0
 10
211.852
 20
139.819
 11
211.854
 21
140.777
  0
LINE
  8
0
 10
211.854
 20
140.777
 11
212.301
 21
141.623
  0
LINE
  8
0
 10
212.301
 20
141.623
 11
213.09
 21
142.166
  0
LINE
  8
0
 10
213.09
 20
142.166
 11
214.04
 21
142.279
  0
LINE
  8
0
 10
214.04
 20
142.279
 11
214.935
 21
141.938
  0
LINE
  8
0
 10
214.935
 20
141.938
 11
215.568
 21
141.22
  0
LINE
  8
0
 10
215.568
 20
141.22
 11
215.795
 21
140.29
  0
LINE
  8
0
 10
215.795
 20
140.29
 11
215.564
 21
139.361
  0
LINE
  8
0
 10
215.564
 20
139.361
 11
214.928
 21
138.646
  0
LINE
  8
0
 10
214.928
 20
138.646
 11
214.032
 21
138.308
  0
LINE
  8
0
 10
214.032
 20
138.308
 11
213.082
 21
138.426
  0
LINE
  8
0
 10
233.72
 20
134.659
 11
233.005
 21
135.296
  0
LINE
  8
0
 10
233.005
 20
135.296
 11
232.667
 21
136.191
  0
LINE
  8
0
 10
232.667
 20
136.191
 11
232.785
 21
137.141
  0
LINE
  8
0
 10
232.785
 20
137.141
 11
233.33
 21
137.928
  0
LINE
  8
0
 10
233.33
 20
137.928
 11
234.179
 21
138.371
  0
LINE
  8
0
 10
234.179
 20
138.371
 11
235.136
 21
138.369
  0
LINE
  8
0
 10
235.136
 20
138.369
 11
235.983
 21
137.923
  0
LINE
  8
0
 10
235.983
 20
137.923
 11
236.525
 21
137.134
  0
LINE
  8
0
 10
236.525
 20
137.134
 11
236.638
 21
136.183
  0
LINE
  8
0
 10
236.638
 20
136.183
 11
236.297
 21
135.289
  0
LINE
  8
0
 10
236.297
 20
135.289
 11
235.579
 21
134.656
  0
LINE
  8
0
 10
235.579
 20
134.656
 11
234.649
 21
134.428
  0
LINE
  8
0
 10
234.649
 20
134.428
 11
233.72
 21
134.659
  0
LINE
  8
0
 10
208.997
 20
117.667
 11
208.281
 21
118.303
  0
LINE
  8
0
 10
208.281
 20
118.303
 11
207.944
 21
119.199
  0
LINE
  8
0
 10
207.944
 20
119.199
 11
208.061
 21
120.149
  0
LINE
  8
0
 10
208.061
 20
120.149
 11
208.606
 21
120.936
  0
LINE
  8
0
 10
208.606
 20
120.936
 11
209.455
 21
121.379
  0
LINE
  8
0
 10
209.455
 20
121.379
 11
210.412
 21
121.377
  0
LINE
  8
0
 10
210.412
 20
121.377
 11
211.259
 21
120.931
  0
LINE
  8
0
 10
211.259
 20
120.931
 11
211.801
 21
120.142
  0
LINE
  8
0
 10
211.801
 20
120.142
 11
211.914
 21
119.191
  0
LINE
  8
0
 10
211.914
 20
119.191
 11
211.573
 21
118.297
  0
LINE
  8
0
 10
211.573
 20
118.297
 11
210.855
 21
117.663
  0
LINE
  8
0
 10
210.855
 20
117.663
 11
209.926
 21
117.436
  0
LINE
  8
0
 10
209.926
 20
117.436
 11
208.997
 21
117.667
  0
LINE
  8
0
 10
230.075
 20
113.702
 11
229.288
 21
114.247
  0
LINE
  8
0
 10
229.288
 20
114.247
 11
228.845
 21
115.096
  0
LINE
  8
0
 10
228.845
 20
115.096
 11
228.847
 21
116.053
  0
LINE
  8
0
 10
228.847
 20
116.053
 11
229.293
 21
116.9
  0
LINE
  8
0
 10
229.293
 20
116.9
 11
230.082
 21
117.442
  0
LINE
  8
0
 10
230.082
 20
117.442
 11
231.033
 21
117.555
  0
LINE
  8
0
 10
231.033
 20
117.555
 11
231.927
 21
117.214
  0
LINE
  8
0
 10
231.927
 20
117.214
 11
232.56
 21
116.496
  0
LINE
  8
0
 10
232.56
 20
116.496
 11
232.788
 21
115.566
  0
LINE
  8
0
 10
232.788
 20
115.566
 11
232.557
 21
114.637
  0
LINE
  8
0
 10
232.557
 20
114.637
 11
231.92
 21
113.922
  0
LINE
  8
0
 10
231.92
 20
113.922
 11
231.025
 21
113.585
  0
LINE
  8
0
 10
231.025
 20
113.585
 11
230.075
 21
113.702
  0
LINE
  8
0
 10
-226.064
 20
103.962
 11
-222.967
 21
103.838
  0
LINE
  8
0
 10
-222.967
 20
103.838
 11
-222.375
 21
103.85
  0
LINE
  8
0
 10
-222.375
 20
103.85
 11
-221.789
 21
103.933
  0
LINE
  8
0
 10
-221.789
 20
103.933
 11
-221.218
 21
104.086
  0
LINE
  8
0
 10
-221.218
 20
104.086
 11
-220.669
 21
104.307
  0
LINE
  8
0
 10
-220.669
 20
104.307
 11
-220.151
 21
104.593
  0
LINE
  8
0
 10
-220.151
 20
104.593
 11
-219.671
 21
104.939
  0
LINE
  8
0
 10
-219.671
 20
104.939
 11
-219.236
 21
105.34
  0
LINE
  8
0
 10
-219.236
 20
105.34
 11
-218.852
 21
105.791
  0
LINE
  8
0
 10
-218.852
 20
105.791
 11
-218.526
 21
106.285
  0
LINE
  8
0
 10
-218.526
 20
106.285
 11
-218.262
 21
106.814
  0
LINE
  8
0
 10
-218.262
 20
106.814
 11
-218.063
 21
107.371
  0
LINE
  8
0
 10
-218.063
 20
107.371
 11
-217.934
 21
107.949
  0
LINE
  8
0
 10
-217.934
 20
107.949
 11
-217.874
 21
108.537
  0
LINE
  8
0
 10
-217.874
 20
108.537
 11
-217.549
 21
116.631
  0
LINE
  8
0
 10
-217.549
 20
116.631
 11
-209.456
 21
116.306
  0
LINE
  8
0
 10
-209.456
 20
116.306
 11
-208.864
 21
116.318
  0
LINE
  8
0
 10
-208.864
 20
116.318
 11
-208.278
 21
116.401
  0
LINE
  8
0
 10
-208.278
 20
116.401
 11
-207.707
 21
116.554
  0
LINE
  8
0
 10
-207.707
 20
116.554
 11
-207.158
 21
116.775
  0
LINE
  8
0
 10
-207.158
 20
116.775
 11
-206.639
 21
117.061
  0
LINE
  8
0
 10
-206.639
 20
117.061
 11
-206.159
 21
117.407
  0
LINE
  8
0
 10
-206.159
 20
117.407
 11
-205.725
 21
117.808
  0
LINE
  8
0
 10
-205.725
 20
117.808
 11
-205.341
 21
118.259
  0
LINE
  8
0
 10
-205.341
 20
118.259
 11
-205.015
 21
118.752
  0
LINE
  8
0
 10
-205.015
 20
118.752
 11
-204.751
 21
119.282
  0
LINE
  8
0
 10
-204.751
 20
119.282
 11
-204.552
 21
119.839
  0
LINE
  8
0
 10
-204.552
 20
119.839
 11
-204.422
 21
120.416
  0
LINE
  8
0
 10
-204.422
 20
120.416
 11
-204.363
 21
121.005
  0
LINE
  8
0
 10
-204.363
 20
121.005
 11
-204.034
 21
129.199
  0
LINE
  8
0
 10
-204.034
 20
129.199
 11
-204.046
 21
129.79
  0
LINE
  8
0
 10
-204.046
 20
129.79
 11
-204.129
 21
130.376
  0
LINE
  8
0
 10
-204.129
 20
130.376
 11
-204.282
 21
130.948
  0
LINE
  8
0
 10
-204.282
 20
130.948
 11
-204.503
 21
131.496
  0
LINE
  8
0
 10
-204.503
 20
131.496
 11
-204.789
 21
132.015
  0
LINE
  8
0
 10
-204.789
 20
132.015
 11
-205.135
 21
132.495
  0
LINE
  8
0
 10
-205.135
 20
132.495
 11
-205.536
 21
132.93
  0
LINE
  8
0
 10
-205.536
 20
132.93
 11
-205.987
 21
133.313
  0
LINE
  8
0
 10
-205.987
 20
133.313
 11
-206.48
 21
133.639
  0
LINE
  8
0
 10
-206.48
 20
133.639
 11
-207.01
 21
133.903
  0
LINE
  8
0
 10
-207.01
 20
133.903
 11
-207.567
 21
134.102
  0
LINE
  8
0
 10
-207.567
 20
134.102
 11
-208.144
 21
134.232
  0
LINE
  8
0
 10
-208.144
 20
134.232
 11
-208.733
 21
134.291
  0
LINE
  8
0
 10
-208.733
 20
134.291
 11
-216.827
 21
134.616
  0
LINE
  8
0
 10
-216.827
 20
134.616
 11
-216.502
 21
142.71
  0
LINE
  8
0
 10
-216.502
 20
142.71
 11
-216.514
 21
143.301
  0
LINE
  8
0
 10
-216.514
 20
143.301
 11
-216.597
 21
143.887
  0
LINE
  8
0
 10
-216.597
 20
143.887
 11
-216.75
 21
144.459
  0
LINE
  8
0
 10
-216.75
 20
144.459
 11
-216.971
 21
145.008
  0
LINE
  8
0
 10
-216.971
 20
145.008
 11
-217.257
 21
145.526
  0
LINE
  8
0
 10
-217.257
 20
145.526
 11
-217.602
 21
146.006
  0
LINE
  8
0
 10
-217.602
 20
146.006
 11
-218.004
 21
146.441
  0
LINE
  8
0
 10
-218.004
 20
146.441
 11
-218.455
 21
146.824
  0
LINE
  8
0
 10
-218.455
 20
146.824
 11
-218.948
 21
147.15
  0
LINE
  8
0
 10
-218.948
 20
147.15
 11
-219.478
 21
147.415
  0
LINE
  8
0
 10
-219.478
 20
147.415
 11
-220.035
 21
147.613
  0
LINE
  8
0
 10
-220.035
 20
147.613
 11
-220.612
 21
147.743
  0
LINE
  8
0
 10
-220.612
 20
147.743
 11
-221.201
 21
147.803
  0
LINE
  8
0
 10
-221.201
 20
147.803
 11
-229.394
 21
148.132
  0
LINE
  8
0
 10
-229.394
 20
148.132
 11
-229.986
 21
148.12
  0
LINE
  8
0
 10
-229.986
 20
148.12
 11
-230.572
 21
148.036
  0
LINE
  8
0
 10
-230.572
 20
148.036
 11
-231.143
 21
147.883
  0
LINE
  8
0
 10
-231.143
 20
147.883
 11
-231.692
 21
147.662
  0
LINE
  8
0
 10
-231.692
 20
147.662
 11
-232.21
 21
147.377
  0
LINE
  8
0
 10
-232.21
 20
147.377
 11
-232.691
 21
147.031
  0
LINE
  8
0
 10
-232.691
 20
147.031
 11
-233.125
 21
146.629
  0
LINE
  8
0
 10
-233.125
 20
146.629
 11
-233.509
 21
146.179
  0
LINE
  8
0
 10
-233.509
 20
146.179
 11
-233.835
 21
145.685
  0
LINE
  8
0
 10
-233.835
 20
145.685
 11
-234.099
 21
145.156
  0
LINE
  8
0
 10
-234.099
 20
145.156
 11
-234.298
 21
144.598
  0
LINE
  8
0
 10
-234.298
 20
144.598
 11
-234.428
 21
144.021
  0
LINE
  8
0
 10
-234.428
 20
144.021
 11
-234.487
 21
143.432
  0
LINE
  8
0
 10
-234.487
 20
143.432
 11
-234.812
 21
135.339
  0
LINE
  8
0
 10
-234.812
 20
135.339
 11
-242.906
 21
135.664
  0
LINE
  8
0
 10
-242.906
 20
135.664
 11
-243.497
 21
135.652
  0
LINE
  8
0
 10
-243.497
 20
135.652
 11
-244.083
 21
135.569
  0
LINE
  8
0
 10
-244.083
 20
135.569
 11
-244.655
 21
135.415
  0
LINE
  8
0
 10
-244.655
 20
135.415
 11
-245.203
 21
135.194
  0
LINE
  8
0
 10
-245.203
 20
135.194
 11
-245.722
 21
134.909
  0
LINE
  8
0
 10
-245.722
 20
134.909
 11
-246.202
 21
134.563
  0
LINE
  8
0
 10
-246.202
 20
134.563
 11
-246.637
 21
134.162
  0
LINE
  8
0
 10
-246.637
 20
134.162
 11
-247.02
 21
133.711
  0
LINE
  8
0
 10
-247.02
 20
133.711
 11
-247.346
 21
133.217
  0
LINE
  8
0
 10
-247.346
 20
133.217
 11
-247.61
 21
132.688
  0
LINE
  8
0
 10
-247.61
 20
132.688
 11
-247.809
 21
132.13
  0
LINE
  8
0
 10
-247.809
 20
132.13
 11
-247.939
 21
131.553
  0
LINE
  8
0
 10
-247.939
 20
131.553
 11
-247.998
 21
130.964
  0
LINE
  8
0
 10
-247.998
 20
130.964
 11
-248.327
 21
122.771
  0
LINE
  8
0
 10
-248.327
 20
122.771
 11
-248.315
 21
122.179
  0
LINE
  8
0
 10
-248.315
 20
122.179
 11
-248.232
 21
121.594
  0
LINE
  8
0
 10
-248.232
 20
121.594
 11
-248.079
 21
121.022
  0
LINE
  8
0
 10
-248.079
 20
121.022
 11
-247.858
 21
120.473
  0
LINE
  8
0
 10
-247.858
 20
120.473
 11
-247.572
 21
119.955
  0
LINE
  8
0
 10
-247.572
 20
119.955
 11
-247.227
 21
119.475
  0
LINE
  8
0
 10
-247.227
 20
119.475
 11
-246.825
 21
119.04
  0
LINE
  8
0
 10
-246.825
 20
119.04
 11
-246.374
 21
118.657
  0
LINE
  8
0
 10
-246.374
 20
118.657
 11
-245.881
 21
118.33
  0
LINE
  8
0
 10
-245.881
 20
118.33
 11
-245.351
 21
118.066
  0
LINE
  8
0
 10
-245.351
 20
118.066
 11
-244.794
 21
117.868
  0
LINE
  8
0
 10
-244.794
 20
117.868
 11
-244.217
 21
117.738
  0
LINE
  8
0
 10
-244.217
 20
117.738
 11
-243.628
 21
117.678
  0
LINE
  8
0
 10
-243.628
 20
117.678
 11
-235.535
 21
117.353
  0
LINE
  8
0
 10
-235.535
 20
117.353
 11
-235.86
 21
109.26
  0
LINE
  8
0
 10
-235.86
 20
109.26
 11
-235.848
 21
108.668
  0
LINE
  8
0
 10
-235.848
 20
108.668
 11
-235.764
 21
108.082
  0
LINE
  8
0
 10
-235.764
 20
108.082
 11
-235.611
 21
107.511
  0
LINE
  8
0
 10
-235.611
 20
107.511
 11
-235.39
 21
106.962
  0
LINE
  8
0
 10
-235.39
 20
106.962
 11
-235.105
 21
106.444
  0
LINE
  8
0
 10
-235.105
 20
106.444
 11
-234.759
 21
105.964
  0
LINE
  8
0
 10
-234.759
 20
105.964
 11
-234.357
 21
105.529
  0
LINE
  8
0
 10
-234.357
 20
105.529
 11
-233.907
 21
105.145
  0
LINE
  8
0
 10
-233.907
 20
105.145
 11
-233.413
 21
104.819
  0
LINE
  8
0
 10
-233.413
 20
104.819
 11
-232.884
 21
104.555
  0
LINE
  8
0
 10
-232.884
 20
104.555
 11
-232.326
 21
104.356
  0
LINE
  8
0
 10
-232.326
 20
104.356
 11
-231.749
 21
104.226
  0
LINE
  8
0
 10
-231.749
 20
104.226
 11
-231.16
 21
104.167
  0
LINE
  8
0
 10
-231.16
 20
104.167
 11
-228.063
 21
104.043
  0
LINE
  8
0
 10
-228.063
 20
104.043
 11
-228.263
 21
99.0467
  0
LINE
  8
0
 10
-228.263
 20
99.0467
 11
-226.265
 21
98.9664
  0
LINE
  8
0
 10
-226.265
 20
98.9664
 11
-226.064
 21
103.962
  0
LINE
  8
0
 10
-226.578
 20
139.241
 11
-227.269
 21
139.904
  0
LINE
  8
0
 10
-227.269
 20
139.904
 11
-227.572
 21
140.812
  0
LINE
  8
0
 10
-227.572
 20
140.812
 11
-227.419
 21
141.756
  0
LINE
  8
0
 10
-227.419
 20
141.756
 11
-226.844
 21
142.522
  0
LINE
  8
0
 10
-226.844
 20
142.522
 11
-225.979
 21
142.932
  0
LINE
  8
0
 10
-225.979
 20
142.932
 11
-225.022
 21
142.894
  0
LINE
  8
0
 10
-225.022
 20
142.894
 11
-224.193
 21
142.415
  0
LINE
  8
0
 10
-224.193
 20
142.415
 11
-223.682
 21
141.606
  0
LINE
  8
0
 10
-223.682
 20
141.606
 11
-223.604
 21
140.652
  0
LINE
  8
0
 10
-223.604
 20
140.652
 11
-223.98
 21
139.771
  0
LINE
  8
0
 10
-223.98
 20
139.771
 11
-224.721
 21
139.166
  0
LINE
  8
0
 10
-224.721
 20
139.166
 11
-225.659
 21
138.974
  0
LINE
  8
0
 10
-225.659
 20
138.974
 11
-226.578
 21
139.241
  0
LINE
  8
0
 10
-241.952
 20
124.747
 11
-242.718
 21
125.322
  0
LINE
  8
0
 10
-242.718
 20
125.322
 11
-243.128
 21
126.186
  0
LINE
  8
0
 10
-243.128
 20
126.186
 11
-243.09
 21
127.143
  0
LINE
  8
0
 10
-243.09
 20
127.143
 11
-242.611
 21
127.972
  0
LINE
  8
0
 10
-242.611
 20
127.972
 11
-241.802
 21
128.484
  0
LINE
  8
0
 10
-241.802
 20
128.484
 11
-240.848
 21
128.561
  0
LINE
  8
0
 10
-240.848
 20
128.561
 11
-239.967
 21
128.186
  0
LINE
  8
0
 10
-239.967
 20
128.186
 11
-239.362
 21
127.444
  0
LINE
  8
0
 10
-239.362
 20
127.444
 11
-239.17
 21
126.506
  0
LINE
  8
0
 10
-239.17
 20
126.506
 11
-239.436
 21
125.587
  0
LINE
  8
0
 10
-239.436
 20
125.587
 11
-240.099
 21
124.896
  0
LINE
  8
0
 10
-240.099
 20
124.896
 11
-241.007
 21
124.593
  0
LINE
  8
0
 10
-241.007
 20
124.593
 11
-241.952
 21
124.747
  0
LINE
  8
0
 10
-211.976
 20
123.543
 11
-212.742
 21
124.118
  0
LINE
  8
0
 10
-212.742
 20
124.118
 11
-213.152
 21
124.982
  0
LINE
  8
0
 10
-213.152
 20
124.982
 11
-213.114
 21
125.939
  0
LINE
  8
0
 10
-213.114
 20
125.939
 11
-212.635
 21
126.768
  0
LINE
  8
0
 10
-212.635
 20
126.768
 11
-211.826
 21
127.28
  0
LINE
  8
0
 10
-211.826
 20
127.28
 11
-210.872
 21
127.357
  0
LINE
  8
0
 10
-210.872
 20
127.357
 11
-209.991
 21
126.982
  0
LINE
  8
0
 10
-209.991
 20
126.982
 11
-209.386
 21
126.24
  0
LINE
  8
0
 10
-209.386
 20
126.24
 11
-209.194
 21
125.303
  0
LINE
  8
0
 10
-209.194
 20
125.303
 11
-209.46
 21
124.383
  0
LINE
  8
0
 10
-209.46
 20
124.383
 11
-210.124
 21
123.693
  0
LINE
  8
0
 10
-210.124
 20
123.693
 11
-211.031
 21
123.389
  0
LINE
  8
0
 10
-211.031
 20
123.389
 11
-211.976
 21
123.543
  0
LINE
  8
0
 10
-227.782
 20
109.265
 11
-228.473
 21
109.928
  0
LINE
  8
0
 10
-228.473
 20
109.928
 11
-228.776
 21
110.836
  0
LINE
  8
0
 10
-228.776
 20
110.836
 11
-228.623
 21
111.781
  0
LINE
  8
0
 10
-228.623
 20
111.781
 11
-228.048
 21
112.546
  0
LINE
  8
0
 10
-228.048
 20
112.546
 11
-227.183
 21
112.956
  0
LINE
  8
0
 10
-227.183
 20
112.956
 11
-226.226
 21
112.918
  0
LINE
  8
0
 10
-226.226
 20
112.918
 11
-225.397
 21
112.439
  0
LINE
  8
0
 10
-225.397
 20
112.439
 11
-224.886
 21
111.63
  0
LINE
  8
0
 10
-224.886
 20
111.63
 11
-224.808
 21
110.676
  0
LINE
  8
0
 10
-224.808
 20
110.676
 11
-225.184
 21
109.796
  0
LINE
  8
0
 10
-225.184
 20
109.796
 11
-225.925
 21
109.19
  0
LINE
  8
0
 10
-225.925
 20
109.19
 11
-226.863
 21
108.998
  0
LINE
  8
0
 10
-226.863
 20
108.998
 11
-227.782
 21
109.265
  0
LINE
  8
0
 10
54.6324
 20
65.2012
 11
55.8319
 21
65.5679
  0
LINE
  8
0
 10
55.8319
 20
65.5679
 11
56.929
 21
66.1761
  0
LINE
  8
0
 10
56.929
 20
66.1761
 11
57.8756
 21
66.999
  0
LINE
  8
0
 10
57.8756
 20
66.999
 11
58.6305
 21
68.0008
  0
LINE
  8
0
 10
58.6305
 20
68.0008
 11
59.1606
 21
69.1376
  0
LINE
  8
0
 10
59.1606
 20
69.1376
 11
59.4428
 21
70.3598
  0
LINE
  8
0
 10
59.4428
 20
70.3598
 11
59.4537
 21
70.9868
  0
LINE
  8
0
 10
59.4537
 20
70.9868
 11
59.4866
 21
70.9863
  0
LINE
  8
0
 10
59.4866
 20
70.9863
 11
59.7438
 21
85.7204
  0
LINE
  8
0
 10
59.7438
 20
85.7204
 11
52.8459
 21
90.2
  0
LINE
  8
0
 10
52.8459
 20
90.2
 11
45.5817
 21
96.3387
  0
LINE
  8
0
 10
45.5817
 20
96.3387
 11
39.1441
 21
103.339
  0
LINE
  8
0
 10
39.1441
 20
103.339
 11
33.6348
 21
111.092
  0
LINE
  8
0
 10
33.6348
 20
111.092
 11
29.1405
 21
119.474
  0
LINE
  8
0
 10
29.1405
 20
119.474
 11
25.7322
 21
128.353
  0
LINE
  8
0
 10
25.7322
 20
128.353
 11
23.842
 21
136.048
  0
LINE
  8
0
 10
23.842
 20
136.048
 11
18.1875
 21
136.147
  0
LINE
  8
0
 10
18.1875
 20
136.147
 11
16.938
 21
136.038
  0
LINE
  8
0
 10
16.938
 20
136.038
 11
15.7384
 21
135.671
  0
LINE
  8
0
 10
15.7384
 20
135.671
 11
14.6414
 21
135.063
  0
LINE
  8
0
 10
14.6414
 20
135.063
 11
13.6947
 21
134.24
  0
LINE
  8
0
 10
13.6947
 20
134.24
 11
12.9398
 21
133.238
  0
LINE
  8
0
 10
12.9398
 20
133.238
 11
12.4097
 21
132.101
  0
LINE
  8
0
 10
12.4097
 20
132.101
 11
12.1275
 21
130.879
  0
LINE
  8
0
 10
12.1275
 20
130.879
 11
12.1166
 21
130.252
  0
LINE
  8
0
 10
12.1166
 20
130.252
 11
12.0837
 21
130.253
  0
LINE
  8
0
 10
12.0837
 20
130.253
 11
11.064
 21
71.8315
  0
LINE
  8
0
 10
11.064
 20
71.8315
 11
11.0968
 21
71.8309
  0
LINE
  8
0
 10
11.0968
 20
71.8309
 11
11.0859
 21
71.2038
  0
LINE
  8
0
 10
11.0859
 20
71.2038
 11
11.3252
 21
69.9725
  0
LINE
  8
0
 10
11.3252
 20
69.9725
 11
11.8154
 21
68.8179
  0
LINE
  8
0
 10
11.8154
 20
68.8179
 11
12.5348
 21
67.7904
  0
LINE
  8
0
 10
12.5348
 20
67.7904
 11
13.4522
 21
66.935
  0
LINE
  8
0
 10
13.4522
 20
66.935
 11
14.5274
 21
66.2889
  0
LINE
  8
0
 10
14.5274
 20
66.2889
 11
15.7134
 21
65.8806
  0
LINE
  8
0
 10
15.7134
 20
65.8806
 11
16.9584
 21
65.7277
  0
LINE
  8
0
 10
16.9584
 20
65.7277
 11
53.3828
 21
65.0919
  0
LINE
  8
0
 10
53.3828
 20
65.0919
 11
54.6324
 21
65.2012
  0
LINE
  8
0
 10
17.2843
 20
128.394
 11
16.583
 21
130.174
  0
LINE
  8
0
 10
16.583
 20
130.174
 11
17.346
 21
131.929
  0
LINE
  8
0
 10
17.346
 20
131.929
 11
19.1263
 21
132.63
  0
LINE
  8
0
 10
19.1263
 20
132.63
 11
20.881
 21
131.867
  0
LINE
  8
0
 10
20.881
 20
131.867
 11
21.5823
 21
130.087
  0
LINE
  8
0
 10
21.5823
 20
130.087
 11
20.8193
 21
128.332
  0
LINE
  8
0
 10
20.8193
 20
128.332
 11
19.039
 21
127.631
  0
LINE
  8
0
 10
19.039
 20
127.631
 11
17.2843
 21
128.394
  0
LINE
  8
0
 10
16.2646
 20
69.9727
 11
15.5633
 21
71.7529
  0
LINE
  8
0
 10
15.5633
 20
71.7529
 11
16.3263
 21
73.5077
  0
LINE
  8
0
 10
16.3263
 20
73.5077
 11
18.1065
 21
74.2089
  0
LINE
  8
0
 10
18.1065
 20
74.2089
 11
19.8613
 21
73.446
  0
LINE
  8
0
 10
19.8613
 20
73.446
 11
20.5625
 21
71.6657
  0
LINE
  8
0
 10
20.5625
 20
71.6657
 11
19.7995
 21
69.911
  0
LINE
  8
0
 10
19.7995
 20
69.911
 11
18.0193
 21
69.2097
  0
LINE
  8
0
 10
18.0193
 20
69.2097
 11
16.2646
 21
69.9727
  0
LINE
  8
0
 10
50.6893
 20
69.3718
 11
49.988
 21
71.1521
  0
LINE
  8
0
 10
49.988
 20
71.1521
 11
50.751
 21
72.9068
  0
LINE
  8
0
 10
50.751
 20
72.9068
 11
52.5313
 21
73.608
  0
LINE
  8
0
 10
52.5313
 20
73.608
 11
54.286
 21
72.8451
  0
LINE
  8
0
 10
54.286
 20
72.8451
 11
54.9873
 21
71.0648
  0
LINE
  8
0
 10
54.9873
 20
71.0648
 11
54.2243
 21
69.3101
  0
LINE
  8
0
 10
54.2243
 20
69.3101
 11
52.444
 21
68.6088
  0
LINE
  8
0
 10
52.444
 20
68.6088
 11
50.6893
 21
69.3718
  0
LINE
  8
0
 10
-65.8409
 20
89.1057
 11
-65.2637
 21
89.2357
  0
LINE
  8
0
 10
-65.2637
 20
89.2357
 11
-64.7063
 21
89.4343
  0
LINE
  8
0
 10
-64.7063
 20
89.4343
 11
-64.1769
 21
89.6987
  0
LINE
  8
0
 10
-64.1769
 20
89.6987
 11
-57.0755
 21
93.7987
  0
LINE
  8
0
 10
-57.0755
 20
93.7987
 11
-56.5819
 21
94.125
  0
LINE
  8
0
 10
-56.5819
 20
94.125
 11
-56.1312
 21
94.5083
  0
LINE
  8
0
 10
-56.1312
 20
94.5083
 11
-55.73
 21
94.9433
  0
LINE
  8
0
 10
-55.73
 20
94.9433
 11
-55.3841
 21
95.4234
  0
LINE
  8
0
 10
-55.3841
 20
95.4234
 11
-55.0986
 21
95.9416
  0
LINE
  8
0
 10
-55.0986
 20
95.9416
 11
-54.8777
 21
96.4906
  0
LINE
  8
0
 10
-54.8777
 20
96.4906
 11
-54.7246
 21
97.0621
  0
LINE
  8
0
 10
-54.7246
 20
97.0621
 11
-54.6414
 21
97.6479
  0
LINE
  8
0
 10
-54.6414
 20
97.6479
 11
-54.6295
 21
98.2395
  0
LINE
  8
0
 10
-54.6295
 20
98.2395
 11
-54.689
 21
98.8282
  0
LINE
  8
0
 10
-54.689
 20
98.8282
 11
-54.819
 21
99.4055
  0
LINE
  8
0
 10
-54.819
 20
99.4055
 11
-55.0176
 21
99.9629
  0
LINE
  8
0
 10
-55.0176
 20
99.9629
 11
-55.282
 21
100.492
  0
LINE
  8
0
 10
-55.282
 20
100.492
 11
-59.332
 21
107.507
  0
LINE
  8
0
 10
-59.332
 20
107.507
 11
-52.3172
 21
111.557
  0
LINE
  8
0
 10
-52.3172
 20
111.557
 11
-51.8235
 21
111.883
  0
LINE
  8
0
 10
-51.8235
 20
111.883
 11
-51.3728
 21
112.267
  0
LINE
  8
0
 10
-51.3728
 20
112.267
 11
-50.9716
 21
112.702
  0
LINE
  8
0
 10
-50.9716
 20
112.702
 11
-50.6258
 21
113.182
  0
LINE
  8
0
 10
-50.6258
 20
113.182
 11
-50.3403
 21
113.7
  0
LINE
  8
0
 10
-50.3403
 20
113.7
 11
-50.1194
 21
114.249
  0
LINE
  8
0
 10
-50.1194
 20
114.249
 11
-49.9662
 21
114.82
  0
LINE
  8
0
 10
-49.9662
 20
114.82
 11
-49.8831
 21
115.406
  0
LINE
  8
0
 10
-49.8831
 20
115.406
 11
-49.8712
 21
115.998
  0
LINE
  8
0
 10
-49.8712
 20
115.998
 11
-49.9306
 21
116.587
  0
LINE
  8
0
 10
-49.9306
 20
116.587
 11
-50.0607
 21
117.164
  0
LINE
  8
0
 10
-50.0607
 20
117.164
 11
-50.2593
 21
117.721
  0
LINE
  8
0
 10
-50.2593
 20
117.721
 11
-50.5237
 21
118.251
  0
LINE
  8
0
 10
-50.5237
 20
118.251
 11
-52.0737
 21
120.935
  0
LINE
  8
0
 10
-52.0737
 20
120.935
 11
-47.7436
 21
123.435
  0
LINE
  8
0
 10
-47.7436
 20
123.435
 11
-48.7435
 21
125.167
  0
LINE
  8
0
 10
-48.7435
 20
125.167
 11
-53.0737
 21
122.667
  0
LINE
  8
0
 10
-53.0737
 20
122.667
 11
-54.6237
 21
125.352
  0
LINE
  8
0
 10
-54.6237
 20
125.352
 11
-54.9499
 21
125.846
  0
LINE
  8
0
 10
-54.9499
 20
125.846
 11
-55.3333
 21
126.296
  0
LINE
  8
0
 10
-55.3333
 20
126.296
 11
-55.7682
 21
126.698
  0
LINE
  8
0
 10
-55.7682
 20
126.698
 11
-56.2483
 21
127.043
  0
LINE
  8
0
 10
-56.2483
 20
127.043
 11
-56.7666
 21
127.329
  0
LINE
  8
0
 10
-56.7666
 20
127.329
 11
-57.3155
 21
127.55
  0
LINE
  8
0
 10
-57.3155
 20
127.55
 11
-57.8871
 21
127.703
  0
LINE
  8
0
 10
-57.8871
 20
127.703
 11
-58.4729
 21
127.786
  0
LINE
  8
0
 10
-58.4729
 20
127.786
 11
-59.0645
 21
127.798
  0
LINE
  8
0
 10
-59.0645
 20
127.798
 11
-59.6532
 21
127.739
  0
LINE
  8
0
 10
-59.6532
 20
127.739
 11
-60.2305
 21
127.609
  0
LINE
  8
0
 10
-60.2305
 20
127.609
 11
-60.7878
 21
127.41
  0
LINE
  8
0
 10
-60.7878
 20
127.41
 11
-61.3172
 21
127.145
  0
LINE
  8
0
 10
-61.3172
 20
127.145
 11
-68.332
 21
123.095
  0
LINE
  8
0
 10
-68.332
 20
123.095
 11
-72.382
 21
130.11
  0
LINE
  8
0
 10
-72.382
 20
130.11
 11
-72.7083
 21
130.604
  0
LINE
  8
0
 10
-72.7083
 20
130.604
 11
-73.0917
 21
131.055
  0
LINE
  8
0
 10
-73.0917
 20
131.055
 11
-73.5266
 21
131.456
  0
LINE
  8
0
 10
-73.5266
 20
131.456
 11
-74.0067
 21
131.802
  0
LINE
  8
0
 10
-74.0067
 20
131.802
 11
-74.5249
 21
132.087
  0
LINE
  8
0
 10
-74.5249
 20
132.087
 11
-75.0739
 21
132.308
  0
LINE
  8
0
 10
-75.0739
 20
132.308
 11
-75.6454
 21
132.461
  0
LINE
  8
0
 10
-75.6454
 20
132.461
 11
-76.2312
 21
132.544
  0
LINE
  8
0
 10
-76.2312
 20
132.544
 11
-76.8228
 21
132.556
  0
LINE
  8
0
 10
-76.8228
 20
132.556
 11
-77.4115
 21
132.497
  0
LINE
  8
0
 10
-77.4115
 20
132.497
 11
-77.9888
 21
132.367
  0
LINE
  8
0
 10
-77.9888
 20
132.367
 11
-78.5462
 21
132.168
  0
LINE
  8
0
 10
-78.5462
 20
132.168
 11
-79.0755
 21
131.904
  0
LINE
  8
0
 10
-79.0755
 20
131.904
 11
-86.1769
 21
127.804
  0
LINE
  8
0
 10
-86.1769
 20
127.804
 11
-86.6706
 21
127.478
  0
LINE
  8
0
 10
-86.6706
 20
127.478
 11
-87.1213
 21
127.094
  0
LINE
  8
0
 10
-87.1213
 20
127.094
 11
-87.5225
 21
126.659
  0
LINE
  8
0
 10
-87.5225
 20
126.659
 11
-87.8684
 21
126.179
  0
LINE
  8
0
 10
-87.8684
 20
126.179
 11
-88.1539
 21
125.661
  0
LINE
  8
0
 10
-88.1539
 20
125.661
 11
-88.3748
 21
125.112
  0
LINE
  8
0
 10
-88.3748
 20
125.112
 11
-88.5279
 21
124.54
  0
LINE
  8
0
 10
-88.5279
 20
124.54
 11
-88.6111
 21
123.955
  0
LINE
  8
0
 10
-88.6111
 20
123.955
 11
-88.623
 21
123.363
  0
LINE
  8
0
 10
-88.623
 20
123.363
 11
-88.5635
 21
122.774
  0
LINE
  8
0
 10
-88.5635
 20
122.774
 11
-88.4335
 21
122.197
  0
LINE
  8
0
 10
-88.4335
 20
122.197
 11
-88.2348
 21
121.64
  0
LINE
  8
0
 10
-88.2348
 20
121.64
 11
-87.9705
 21
121.11
  0
LINE
  8
0
 10
-87.9705
 20
121.11
 11
-83.9205
 21
114.095
  0
LINE
  8
0
 10
-83.9205
 20
114.095
 11
-90.9353
 21
110.046
  0
LINE
  8
0
 10
-90.9353
 20
110.046
 11
-91.4289
 21
109.719
  0
LINE
  8
0
 10
-91.4289
 20
109.719
 11
-91.8796
 21
109.336
  0
LINE
  8
0
 10
-91.8796
 20
109.336
 11
-92.2808
 21
108.901
  0
LINE
  8
0
 10
-92.2808
 20
108.901
 11
-92.6267
 21
108.421
  0
LINE
  8
0
 10
-92.6267
 20
108.421
 11
-92.9122
 21
107.903
  0
LINE
  8
0
 10
-92.9122
 20
107.903
 11
-93.1331
 21
107.354
  0
LINE
  8
0
 10
-93.1331
 20
107.354
 11
-93.2862
 21
106.782
  0
LINE
  8
0
 10
-93.2862
 20
106.782
 11
-93.3694
 21
106.196
  0
LINE
  8
0
 10
-93.3694
 20
106.196
 11
-93.3813
 21
105.605
  0
LINE
  8
0
 10
-93.3813
 20
105.605
 11
-93.3218
 21
105.016
  0
LINE
  8
0
 10
-93.3218
 20
105.016
 11
-93.1918
 21
104.439
  0
LINE
  8
0
 10
-93.1918
 20
104.439
 11
-92.9932
 21
103.881
  0
LINE
  8
0
 10
-92.9932
 20
103.881
 11
-92.7288
 21
103.352
  0
LINE
  8
0
 10
-92.7288
 20
103.352
 11
-91.1788
 21
100.667
  0
LINE
  8
0
 10
-91.1788
 20
100.667
 11
-95.5089
 21
98.1673
  0
LINE
  8
0
 10
-95.5089
 20
98.1673
 11
-94.5089
 21
96.4352
  0
LINE
  8
0
 10
-94.5089
 20
96.4352
 11
-90.1788
 21
98.9352
  0
LINE
  8
0
 10
-90.1788
 20
98.9352
 11
-88.6288
 21
96.2505
  0
LINE
  8
0
 10
-88.6288
 20
96.2505
 11
-88.3025
 21
95.7569
  0
LINE
  8
0
 10
-88.3025
 20
95.7569
 11
-87.9191
 21
95.3062
  0
LINE
  8
0
 10
-87.9191
 20
95.3062
 11
-87.4842
 21
94.905
  0
LINE
  8
0
 10
-87.4842
 20
94.905
 11
-87.0041
 21
94.5591
  0
LINE
  8
0
 10
-87.0041
 20
94.5591
 11
-86.4859
 21
94.2737
  0
LINE
  8
0
 10
-86.4859
 20
94.2737
 11
-85.9369
 21
94.0527
  0
LINE
  8
0
 10
-85.9369
 20
94.0527
 11
-85.3654
 21
93.8996
  0
LINE
  8
0
 10
-85.3654
 20
93.8996
 11
-84.7796
 21
93.8164
  0
LINE
  8
0
 10
-84.7796
 20
93.8164
 11
-84.188
 21
93.8045
  0
LINE
  8
0
 10
-84.188
 20
93.8045
 11
-83.5992
 21
93.864
  0
LINE
  8
0
 10
-83.5992
 20
93.864
 11
-83.022
 21
93.994
  0
LINE
  8
0
 10
-83.022
 20
93.994
 11
-82.4646
 21
94.1927
  0
LINE
  8
0
 10
-82.4646
 20
94.1927
 11
-81.9353
 21
94.457
  0
LINE
  8
0
 10
-81.9353
 20
94.457
 11
-74.9205
 21
98.507
  0
LINE
  8
0
 10
-74.9205
 20
98.507
 11
-70.8705
 21
91.4922
  0
LINE
  8
0
 10
-70.8705
 20
91.4922
 11
-70.5442
 21
90.9986
  0
LINE
  8
0
 10
-70.5442
 20
90.9986
 11
-70.1608
 21
90.5479
  0
LINE
  8
0
 10
-70.1608
 20
90.5479
 11
-69.7259
 21
90.1467
  0
LINE
  8
0
 10
-69.7259
 20
90.1467
 11
-69.2458
 21
89.8008
  0
LINE
  8
0
 10
-69.2458
 20
89.8008
 11
-68.7275
 21
89.5153
  0
LINE
  8
0
 10
-68.7275
 20
89.5153
 11
-68.1786
 21
89.2944
  0
LINE
  8
0
 10
-68.1786
 20
89.2944
 11
-67.6071
 21
89.1412
  0
LINE
  8
0
 10
-67.6071
 20
89.1412
 11
-67.0212
 21
89.0581
  0
LINE
  8
0
 10
-67.0212
 20
89.0581
 11
-66.4296
 21
89.0462
  0
LINE
  8
0
 10
-66.4296
 20
89.0462
 11
-65.8409
 21
89.1057
  0
LINE
  8
0
 10
-80.3911
 20
122.242
 11
-80.9662
 21
123.008
  0
LINE
  8
0
 10
-80.9662
 20
123.008
 11
-81.1198
 21
123.953
  0
LINE
  8
0
 10
-81.1198
 20
123.953
 11
-80.8166
 21
124.861
  0
LINE
  8
0
 10
-80.8166
 20
124.861
 11
-80.1262
 21
125.524
  0
LINE
  8
0
 10
-80.1262
 20
125.524
 11
-79.2068
 21
125.79
  0
LINE
  8
0
 10
-79.2068
 20
125.79
 11
-78.2688
 21
125.599
  0
LINE
  8
0
 10
-78.2688
 20
125.599
 11
-77.5273
 21
124.993
  0
LINE
  8
0
 10
-77.5273
 20
124.993
 11
-77.1521
 21
124.112
  0
LINE
  8
0
 10
-77.1521
 20
124.112
 11
-77.2292
 21
123.158
  0
LINE
  8
0
 10
-77.2292
 20
123.158
 11
-77.7408
 21
122.349
  0
LINE
  8
0
 10
-77.7408
 20
122.349
 11
-78.5698
 21
121.871
  0
LINE
  8
0
 10
-78.5698
 20
121.871
 11
-79.5263
 21
121.832
  0
LINE
  8
0
 10
-79.5263
 20
121.832
 11
-80.3911
 21
122.242
  0
LINE
  8
0
 10
-59.7048
 20
116.611
 11
-60.3679
 21
117.301
  0
LINE
  8
0
 10
-60.3679
 20
117.301
 11
-60.6342
 21
118.221
  0
LINE
  8
0
 10
-60.6342
 20
118.221
 11
-60.4427
 21
119.159
  0
LINE
  8
0
 10
-60.4427
 20
119.159
 11
-59.8373
 21
119.9
  0
LINE
  8
0
 10
-59.8373
 20
119.9
 11
-58.9567
 21
120.275
  0
LINE
  8
0
 10
-58.9567
 20
120.275
 11
-58.0025
 21
120.198
  0
LINE
  8
0
 10
-58.0025
 20
120.198
 11
-57.1934
 21
119.687
  0
LINE
  8
0
 10
-57.1934
 20
119.687
 11
-56.7148
 21
118.858
  0
LINE
  8
0
 10
-56.7148
 20
118.858
 11
-56.6763
 21
117.901
  0
LINE
  8
0
 10
-56.6763
 20
117.901
 11
-57.0866
 21
117.036
  0
LINE
  8
0
 10
-57.0866
 20
117.036
 11
-57.8519
 21
116.461
  0
LINE
  8
0
 10
-57.8519
 20
116.461
 11
-58.7968
 21
116.308
  0
LINE
  8
0
 10
-58.7968
 20
116.308
 11
-59.7048
 21
116.611
  0
LINE
  8
0
 10
-85.6855
 20
101.611
 11
-86.3487
 21
102.301
  0
LINE
  8
0
 10
-86.3487
 20
102.301
 11
-86.615
 21
103.221
  0
LINE
  8
0
 10
-86.615
 20
103.221
 11
-86.4235
 21
104.159
  0
LINE
  8
0
 10
-86.4235
 20
104.159
 11
-85.8181
 21
104.9
  0
LINE
  8
0
 10
-85.8181
 20
104.9
 11
-84.9374
 21
105.275
  0
LINE
  8
0
 10
-84.9374
 20
105.275
 11
-83.9833
 21
105.198
  0
LINE
  8
0
 10
-83.9833
 20
105.198
 11
-83.1742
 21
104.687
  0
LINE
  8
0
 10
-83.1742
 20
104.687
 11
-82.6956
 21
103.858
  0
LINE
  8
0
 10
-82.6956
 20
103.858
 11
-82.657
 21
102.901
  0
LINE
  8
0
 10
-82.657
 20
102.901
 11
-83.0674
 21
102.036
  0
LINE
  8
0
 10
-83.0674
 20
102.036
 11
-83.8327
 21
101.461
  0
LINE
  8
0
 10
-83.8327
 20
101.461
 11
-84.7775
 21
101.308
  0
LINE
  8
0
 10
-84.7775
 20
101.308
 11
-85.6855
 21
101.611
  0
LINE
  8
0
 10
-65.3911
 20
96.2617
 11
-65.9662
 21
97.0269
  0
LINE
  8
0
 10
-65.9662
 20
97.0269
 11
-66.1198
 21
97.9718
  0
LINE
  8
0
 10
-66.1198
 20
97.9718
 11
-65.8166
 21
98.8798
  0
LINE
  8
0
 10
-65.8166
 20
98.8798
 11
-65.1262
 21
99.5429
  0
LINE
  8
0
 10
-65.1262
 20
99.5429
 11
-64.2068
 21
99.8093
  0
LINE
  8
0
 10
-64.2068
 20
99.8093
 11
-63.2689
 21
99.6178
  0
LINE
  8
0
 10
-63.2689
 20
99.6178
 11
-62.5274
 21
99.0124
  0
LINE
  8
0
 10
-62.5274
 20
99.0124
 11
-62.1521
 21
98.1317
  0
LINE
  8
0
 10
-62.1521
 20
98.1317
 11
-62.2292
 21
97.1776
  0
LINE
  8
0
 10
-62.2292
 20
97.1776
 11
-62.7408
 21
96.3685
  0
LINE
  8
0
 10
-62.7408
 20
96.3685
 11
-63.5698
 21
95.8898
  0
LINE
  8
0
 10
-63.5698
 20
95.8898
 11
-64.5263
 21
95.8513
  0
LINE
  8
0
 10
-64.5263
 20
95.8513
 11
-65.3911
 21
96.2617
  0
LINE
  8
0
 10
-43.5004
 20
-17.4864
 11
-42.3009
 21
-17.1196
  0
LINE
  8
0
 10
-42.3009
 20
-17.1196
 11
-41.2038
 21
-16.5115
  0
LINE
  8
0
 10
-41.2038
 20
-16.5115
 11
-40.2572
 21
-15.6886
  0
LINE
  8
0
 10
-40.2572
 20
-15.6886
 11
-39.5023
 21
-14.6868
  0
LINE
  8
0
 10
-39.5023
 20
-14.6868
 11
-20.7395
 21
16.5397
  0
LINE
  8
0
 10
-20.7395
 20
16.5397
 11
-20.2094
 21
17.6766
  0
LINE
  8
0
 10
-20.2094
 20
17.6766
 11
-19.9272
 21
18.8988
  0
LINE
  8
0
 10
-19.9272
 20
18.8988
 11
-19.9053
 21
20.1529
  0
LINE
  8
0
 10
-19.9053
 20
20.1529
 11
-20.1446
 21
21.3842
  0
LINE
  8
0
 10
-20.1446
 20
21.3842
 11
-20.6347
 21
22.5388
  0
LINE
  8
0
 10
-20.6347
 20
22.5388
 11
-21.3542
 21
23.5663
  0
LINE
  8
0
 10
-21.3542
 20
23.5663
 11
-22.2716
 21
24.4218
  0
LINE
  8
0
 10
-22.2716
 20
24.4218
 11
-22.8092
 21
24.7448
  0
LINE
  8
0
 10
-22.8092
 20
24.7448
 11
-22.7922
 21
24.773
  0
LINE
  8
0
 10
-22.7922
 20
24.773
 11
-72.8765
 21
54.8666
  0
LINE
  8
0
 10
-72.8765
 20
54.8666
 11
-72.8934
 21
54.8385
  0
LINE
  8
0
 10
-72.8934
 20
54.8385
 11
-73.431
 21
55.1615
  0
LINE
  8
0
 10
-73.431
 20
55.1615
 11
-74.617
 21
55.5699
  0
LINE
  8
0
 10
-74.617
 20
55.5699
 11
-75.862
 21
55.7227
  0
LINE
  8
0
 10
-75.862
 20
55.7227
 11
-77.1116
 21
55.6134
  0
LINE
  8
0
 10
-77.1116
 20
55.6134
 11
-78.3111
 21
55.2467
  0
LINE
  8
0
 10
-78.3111
 20
55.2467
 11
-79.4082
 21
54.6385
  0
LINE
  8
0
 10
-79.4082
 20
54.6385
 11
-80.3548
 21
53.8156
  0
LINE
  8
0
 10
-80.3548
 20
53.8156
 11
-81.1097
 21
52.8139
  0
LINE
  8
0
 10
-81.1097
 20
52.8139
 11
-84.0224
 21
47.9663
  0
LINE
  8
0
 10
-84.0224
 20
47.9663
 11
-78.4978
 21
42.2853
  0
LINE
  8
0
 10
-78.4978
 20
42.2853
 11
-72.7742
 21
34.6897
  0
LINE
  8
0
 10
-72.7742
 20
34.6897
 11
-68.0476
 21
26.4367
  0
LINE
  8
0
 10
-68.0476
 20
26.4367
 11
-64.3927
 21
17.6563
  0
LINE
  8
0
 10
-64.3927
 20
17.6563
 11
-61.8671
 21
8.48715
  0
LINE
  8
0
 10
-61.8671
 20
8.48715
 11
-60.5106
 21
-0.926254
  0
LINE
  8
0
 10
-60.5106
 20
-0.926254
 11
-60.3671
 21
-9.14977
  0
LINE
  8
0
 10
-60.3671
 20
-9.14977
 11
-47.7355
 21
-16.7396
  0
LINE
  8
0
 10
-47.7355
 20
-16.7396
 11
-47.7186
 21
-16.7114
  0
LINE
  8
0
 10
-47.7186
 20
-16.7114
 11
-47.181
 21
-17.0344
  0
LINE
  8
0
 10
-47.181
 20
-17.0344
 11
-45.995
 21
-17.4428
  0
LINE
  8
0
 10
-45.995
 20
-17.4428
 11
-44.75
 21
-17.5957
  0
LINE
  8
0
 10
-44.75
 20
-17.5957
 11
-43.5004
 21
-17.4864
  0
LINE
  8
0
 10
-77.7693
 20
46.7236
 11
-78.9075
 21
48.2617
  0
LINE
  8
0
 10
-78.9075
 20
48.2617
 11
-78.6247
 21
50.1541
  0
LINE
  8
0
 10
-78.6247
 20
50.1541
 11
-77.0865
 21
51.2922
  0
LINE
  8
0
 10
-77.0865
 20
51.2922
 11
-75.1941
 21
51.0094
  0
LINE
  8
0
 10
-75.1941
 20
51.0094
 11
-74.056
 21
49.4713
  0
LINE
  8
0
 10
-74.056
 20
49.4713
 11
-74.3388
 21
47.5789
  0
LINE
  8
0
 10
-74.3388
 20
47.5789
 11
-75.8769
 21
46.4407
  0
LINE
  8
0
 10
-75.8769
 20
46.4407
 11
-77.7693
 21
46.7236
  0
LINE
  8
0
 10
-27.6851
 20
16.6299
 11
-28.8232
 21
18.168
  0
LINE
  8
0
 10
-28.8232
 20
18.168
 11
-28.5404
 21
20.0604
  0
LINE
  8
0
 10
-28.5404
 20
20.0604
 11
-27.0023
 21
21.1985
  0
LINE
  8
0
 10
-27.0023
 20
21.1985
 11
-25.1099
 21
20.9157
  0
LINE
  8
0
 10
-25.1099
 20
20.9157
 11
-23.9717
 21
19.3776
  0
LINE
  8
0
 10
-23.9717
 20
19.3776
 11
-24.2546
 21
17.4852
  0
LINE
  8
0
 10
-24.2546
 20
17.4852
 11
-25.7927
 21
16.3471
  0
LINE
  8
0
 10
-25.7927
 20
16.3471
 11
-27.6851
 21
16.6299
  0
LINE
  8
0
 10
-45.4178
 20
-12.8823
 11
-46.556
 21
-11.3442
  0
LINE
  8
0
 10
-46.556
 20
-11.3442
 11
-46.2731
 21
-9.45183
  0
LINE
  8
0
 10
-46.2731
 20
-9.45183
 11
-44.735
 21
-8.31367
  0
LINE
  8
0
 10
-44.735
 20
-8.31367
 11
-42.8426
 21
-8.5965
  0
LINE
  8
0
 10
-42.8426
 20
-8.5965
 11
-41.7045
 21
-10.1346
  0
LINE
  8
0
 10
-41.7045
 20
-10.1346
 11
-41.9873
 21
-12.027
  0
LINE
  8
0
 10
-41.9873
 20
-12.027
 11
-43.5254
 21
-13.1651
  0
LINE
  8
0
 10
-43.5254
 20
-13.1651
 11
-45.4178
 21
-12.8823
  0
LINE
  8
0
 10
-131.309
 20
-46.4643
 11
-130.727
 21
-46.3576
  0
LINE
  8
0
 10
-130.727
 20
-46.3576
 11
-130.162
 21
-46.1816
  0
LINE
  8
0
 10
-130.162
 20
-46.1816
 11
-129.623
 21
-45.9387
  0
LINE
  8
0
 10
-129.623
 20
-45.9387
 11
-129.116
 21
-45.6326
  0
LINE
  8
0
 10
-129.116
 20
-45.6326
 11
-128.651
 21
-45.2677
  0
LINE
  8
0
 10
-128.651
 20
-45.2677
 11
-128.232
 21
-44.8493
  0
LINE
  8
0
 10
-128.232
 20
-44.8493
 11
-127.867
 21
-44.3835
  0
LINE
  8
0
 10
-127.867
 20
-44.3835
 11
-127.561
 21
-43.8772
  0
LINE
  8
0
 10
-127.561
 20
-43.8772
 11
-127.318
 21
-43.3376
  0
LINE
  8
0
 10
-127.318
 20
-43.3376
 11
-127.142
 21
-42.7727
  0
LINE
  8
0
 10
-127.142
 20
-42.7727
 11
-127.036
 21
-42.1906
  0
LINE
  8
0
 10
-127.036
 20
-42.1906
 11
-127
 21
-41.6
  0
LINE
  8
0
 10
-127
 20
-41.6
 11
-127
 21
-16
  0
LINE
  8
0
 10
-127
 20
-16
 11
-101.4
 21
-16
  0
LINE
  8
0
 10
-101.4
 20
-16
 11
-100.809
 21
-15.9643
  0
LINE
  8
0
 10
-100.809
 20
-15.9643
 11
-100.227
 21
-15.8576
  0
LINE
  8
0
 10
-100.227
 20
-15.8576
 11
-99.6624
 21
-15.6816
  0
LINE
  8
0
 10
-99.6624
 20
-15.6816
 11
-99.1228
 21
-15.4387
  0
LINE
  8
0
 10
-99.1228
 20
-15.4387
 11
-98.6165
 21
-15.1326
  0
LINE
  8
0
 10
-98.6165
 20
-15.1326
 11
-98.1507
 21
-14.7677
  0
LINE
  8
0
 10
-98.1507
 20
-14.7677
 11
-97.7323
 21
-14.3493
  0
LINE
  8
0
 10
-97.7323
 20
-14.3493
 11
-97.3674
 21
-13.8835
  0
LINE
  8
0
 10
-97.3674
 20
-13.8835
 11
-97.0613
 21
-13.3771
  0
LINE
  8
0
 10
-97.0613
 20
-13.3771
 11
-96.8184
 21
-12.8376
  0
LINE
  8
0
 10
-96.8184
 20
-12.8376
 11
-96.6424
 21
-12.2726
  0
LINE
  8
0
 10
-96.6424
 20
-12.2726
 11
-96.5357
 21
-11.6906
  0
LINE
  8
0
 10
-96.5357
 20
-11.6906
 11
-96.5
 21
-11.1
  0
LINE
  8
0
 10
-96.5
 20
-11.1
 11
-96.5
 21
-2.89999
  0
LINE
  8
0
 10
-96.5
 20
-2.89999
 11
-96.5357
 21
-2.30936
  0
LINE
  8
0
 10
-96.5357
 20
-2.30936
 11
-96.6424
 21
-1.72734
  0
LINE
  8
0
 10
-96.6424
 20
-1.72734
 11
-96.8184
 21
-1.16243
  0
LINE
  8
0
 10
-96.8184
 20
-1.16243
 11
-97.0613
 21
-0.622849
  0
LINE
  8
0
 10
-97.0613
 20
-0.622849
 11
-97.3674
 21
-0.11647
  0
LINE
  8
0
 10
-97.3674
 20
-0.11647
 11
-97.7323
 21
0.349289
  0
LINE
  8
0
 10
-97.7323
 20
0.349289
 11
-98.1507
 21
0.7677
  0
LINE
  8
0
 10
-98.1507
 20
0.7677
 11
-98.6165
 21
1.13261
  0
LINE
  8
0
 10
-98.6165
 20
1.13261
 11
-99.1228
 21
1.43872
  0
LINE
  8
0
 10
-99.1228
 20
1.43872
 11
-99.6624
 21
1.68156
  0
LINE
  8
0
 10
-99.6624
 20
1.68156
 11
-100.227
 21
1.8576
  0
LINE
  8
0
 10
-100.227
 20
1.8576
 11
-100.809
 21
1.96426
  0
LINE
  8
0
 10
-100.809
 20
1.96426
 11
-101.4
 21
1.99998
  0
LINE
  8
0
 10
-101.4
 20
1.99998
 11
-127
 21
1.99998
  0
LINE
  8
0
 10
-127
 20
1.99998
 11
-127
 21
27.6
  0
LINE
  8
0
 10
-127
 20
27.6
 11
-127.036
 21
28.1906
  0
LINE
  8
0
 10
-127.036
 20
28.1906
 11
-127.142
 21
28.7726
  0
LINE
  8
0
 10
-127.142
 20
28.7726
 11
-127.318
 21
29.3376
  0
LINE
  8
0
 10
-127.318
 20
29.3376
 11
-127.561
 21
29.8771
  0
LINE
  8
0
 10
-127.561
 20
29.8771
 11
-127.867
 21
30.3835
  0
LINE
  8
0
 10
-127.867
 20
30.3835
 11
-128.232
 21
30.8493
  0
LINE
  8
0
 10
-128.232
 20
30.8493
 11
-128.651
 21
31.2677
  0
LINE
  8
0
 10
-128.651
 20
31.2677
 11
-129.116
 21
31.6326
  0
LINE
  8
0
 10
-129.116
 20
31.6326
 11
-129.623
 21
31.9387
  0
LINE
  8
0
 10
-129.623
 20
31.9387
 11
-130.162
 21
32.1816
  0
LINE
  8
0
 10
-130.162
 20
32.1816
 11
-130.727
 21
32.3576
  0
LINE
  8
0
 10
-130.727
 20
32.3576
 11
-131.309
 21
32.4643
  0
LINE
  8
0
 10
-131.309
 20
32.4643
 11
-131.9
 21
32.5
  0
LINE
  8
0
 10
-131.9
 20
32.5
 11
-140.1
 21
32.5
  0
LINE
  8
0
 10
-140.1
 20
32.5
 11
-140.691
 21
32.4643
  0
LINE
  8
0
 10
-140.691
 20
32.4643
 11
-141.273
 21
32.3576
  0
LINE
  8
0
 10
-141.273
 20
32.3576
 11
-141.838
 21
32.1816
  0
LINE
  8
0
 10
-141.838
 20
32.1816
 11
-142.377
 21
31.9387
  0
LINE
  8
0
 10
-142.377
 20
31.9387
 11
-142.884
 21
31.6326
  0
LINE
  8
0
 10
-142.884
 20
31.6326
 11
-143.349
 21
31.2677
  0
LINE
  8
0
 10
-143.349
 20
31.2677
 11
-143.768
 21
30.8493
  0
LINE
  8
0
 10
-143.768
 20
30.8493
 11
-144.133
 21
30.3835
  0
LINE
  8
0
 10
-144.133
 20
30.3835
 11
-144.439
 21
29.8771
  0
LINE
  8
0
 10
-144.439
 20
29.8771
 11
-144.682
 21
29.3376
  0
LINE
  8
0
 10
-144.682
 20
29.3376
 11
-144.858
 21
28.7726
  0
LINE
  8
0
 10
-144.858
 20
28.7726
 11
-144.964
 21
28.1906
  0
LINE
  8
0
 10
-144.964
 20
28.1906
 11
-145
 21
27.6
  0
LINE
  8
0
 10
-145
 20
27.6
 11
-145
 21
2
  0
LINE
  8
0
 10
-145
 20
2
 11
-170.6
 21
2
  0
LINE
  8
0
 10
-170.6
 20
2
 11
-171.191
 21
1.96428
  0
LINE
  8
0
 10
-171.191
 20
1.96428
 11
-171.773
 21
1.85762
  0
LINE
  8
0
 10
-171.773
 20
1.85762
 11
-172.338
 21
1.68158
  0
LINE
  8
0
 10
-172.338
 20
1.68158
 11
-172.877
 21
1.43874
  0
LINE
  8
0
 10
-172.877
 20
1.43874
 11
-173.384
 21
1.13263
  0
LINE
  8
0
 10
-173.384
 20
1.13263
 11
-173.849
 21
0.767715
  0
LINE
  8
0
 10
-173.849
 20
0.767715
 11
-174.268
 21
0.349304
  0
LINE
  8
0
 10
-174.268
 20
0.349304
 11
-174.633
 21
-0.116455
  0
LINE
  8
0
 10
-174.633
 20
-0.116455
 11
-174.939
 21
-0.622833
  0
LINE
  8
0
 10
-174.939
 20
-0.622833
 11
-175.182
 21
-1.16241
  0
LINE
  8
0
 10
-175.182
 20
-1.16241
 11
-175.358
 21
-1.72733
  0
LINE
  8
0
 10
-175.358
 20
-1.72733
 11
-175.464
 21
-2.30934
  0
LINE
  8
0
 10
-175.464
 20
-2.30934
 11
-175.5
 21
-2.89998
  0
LINE
  8
0
 10
-175.5
 20
-2.89998
 11
-175.5
 21
-11.1
  0
LINE
  8
0
 10
-175.5
 20
-11.1
 11
-175.464
 21
-11.6906
  0
LINE
  8
0
 10
-175.464
 20
-11.6906
 11
-175.358
 21
-12.2726
  0
LINE
  8
0
 10
-175.358
 20
-12.2726
 11
-175.182
 21
-12.8375
  0
LINE
  8
0
 10
-175.182
 20
-12.8375
 11
-174.939
 21
-13.3771
  0
LINE
  8
0
 10
-174.939
 20
-13.3771
 11
-174.633
 21
-13.8835
  0
LINE
  8
0
 10
-174.633
 20
-13.8835
 11
-174.268
 21
-14.3493
  0
LINE
  8
0
 10
-174.268
 20
-14.3493
 11
-173.849
 21
-14.7677
  0
LINE
  8
0
 10
-173.849
 20
-14.7677
 11
-173.384
 21
-15.1326
  0
LINE
  8
0
 10
-173.384
 20
-15.1326
 11
-172.877
 21
-15.4387
  0
LINE
  8
0
 10
-172.877
 20
-15.4387
 11
-172.338
 21
-15.6815
  0
LINE
  8
0
 10
-172.338
 20
-15.6815
 11
-171.773
 21
-15.8576
  0
LINE
  8
0
 10
-171.773
 20
-15.8576
 11
-171.191
 21
-15.9642
  0
LINE
  8
0
 10
-171.191
 20
-15.9642
 11
-170.6
 21
-16
  0
LINE
  8
0
 10
-170.6
 20
-16
 11
-145
 21
-16
  0
LINE
  8
0
 10
-145
 20
-16
 11
-145
 21
-41.6
  0
LINE
  8
0
 10
-145
 20
-41.6
 11
-144.964
 21
-42.1906
  0
LINE
  8
0
 10
-144.964
 20
-42.1906
 11
-144.858
 21
-42.7727
  0
LINE
  8
0
 10
-144.858
 20
-42.7727
 11
-144.682
 21
-43.3376
  0
LINE
  8
0
 10
-144.682
 20
-43.3376
 11
-144.439
 21
-43.8772
  0
LINE
  8
0
 10
-144.439
 20
-43.8772
 11
-144.133
 21
-44.3835
  0
LINE
  8
0
 10
-144.133
 20
-44.3835
 11
-143.768
 21
-44.8493
  0
LINE
  8
0
 10
-143.768
 20
-44.8493
 11
-143.349
 21
-45.2677
  0
LINE
  8
0
 10
-143.349
 20
-45.2677
 11
-142.884
 21
-45.6326
  0
LINE
  8
0
 10
-142.884
 20
-45.6326
 11
-142.377
 21
-45.9387
  0
LINE
  8
0
 10
-142.377
 20
-45.9387
 11
-141.838
 21
-46.1816
  0
LINE
  8
0
 10
-141.838
 20
-46.1816
 11
-141.273
 21
-46.3576
  0
LINE
  8
0
 10
-141.273
 20
-46.3576
 11
-140.691
 21
-46.4643
  0
LINE
  8
0
 10
-140.691
 20
-46.4643
 11
-140.1
 21
-46.5
  0
LINE
  8
0
 10
-140.1
 20
-46.5
 11
-131.9
 21
-46.5
  0
LINE
  8
0
 10
-131.9
 20
-46.5
 11
-131.309
 21
-46.4643
  0
LINE
  8
0
 10
-136.479
 20
23.5581
 11
-137.326
 21
24.003
  0
LINE
  8
0
 10
-137.326
 20
24.003
 11
-137.87
 21
24.7908
  0
LINE
  8
0
 10
-137.87
 20
24.7908
 11
-137.985
 21
25.7411
  0
LINE
  8
0
 10
-137.985
 20
25.7411
 11
-137.646
 21
26.6361
  0
LINE
  8
0
 10
-137.646
 20
26.6361
 11
-136.929
 21
27.2709
  0
LINE
  8
0
 10
-136.929
 20
27.2709
 11
-136
 21
27.5
  0
LINE
  8
0
 10
-136
 20
27.5
 11
-135.071
 21
27.2709
  0
LINE
  8
0
 10
-135.071
 20
27.2709
 11
-134.354
 21
26.6361
  0
LINE
  8
0
 10
-134.354
 20
26.6361
 11
-134.015
 21
25.7411
  0
LINE
  8
0
 10
-134.015
 20
25.7411
 11
-134.13
 21
24.7908
  0
LINE
  8
0
 10
-134.13
 20
24.7908
 11
-134.674
 21
24.003
  0
LINE
  8
0
 10
-134.674
 20
24.003
 11
-135.521
 21
23.5581
  0
LINE
  8
0
 10
-135.521
 20
23.5581
 11
-136.479
 21
23.5581
  0
LINE
  8
0
 10
-169.636
 20
-8.64594
 11
-170.271
 21
-7.92941
  0
LINE
  8
0
 10
-170.271
 20
-7.92941
 11
-170.5
 21
-6.99998
  0
LINE
  8
0
 10
-170.5
 20
-6.99998
 11
-170.271
 21
-6.07053
  0
LINE
  8
0
 10
-170.271
 20
-6.07053
 11
-169.636
 21
-5.354
  0
LINE
  8
0
 10
-169.636
 20
-5.354
 11
-168.741
 21
-5.01456
  0
LINE
  8
0
 10
-168.741
 20
-5.01456
 11
-167.791
 21
-5.12994
  0
LINE
  8
0
 10
-167.791
 20
-5.12994
 11
-167.003
 21
-5.67374
  0
LINE
  8
0
 10
-167.003
 20
-5.67374
 11
-166.558
 21
-6.52135
  0
LINE
  8
0
 10
-166.558
 20
-6.52135
 11
-166.558
 21
-7.47859
  0
LINE
  8
0
 10
-166.558
 20
-7.47859
 11
-167.003
 21
-8.3262
  0
LINE
  8
0
 10
-167.003
 20
-8.3262
 11
-167.791
 21
-8.87
  0
LINE
  8
0
 10
-167.791
 20
-8.87
 11
-168.741
 21
-8.98538
  0
LINE
  8
0
 10
-168.741
 20
-8.98538
 11
-169.636
 21
-8.64594
  0
LINE
  8
0
 10
-104.636
 20
-8.64597
 11
-105.271
 21
-7.92944
  0
LINE
  8
0
 10
-105.271
 20
-7.92944
 11
-105.5
 21
-7
  0
LINE
  8
0
 10
-105.5
 20
-7
 11
-105.271
 21
-6.07054
  0
LINE
  8
0
 10
-105.271
 20
-6.07054
 11
-104.636
 21
-5.35402
  0
LINE
  8
0
 10
-104.636
 20
-5.35402
 11
-103.741
 21
-5.01457
  0
LINE
  8
0
 10
-103.741
 20
-5.01457
 11
-102.791
 21
-5.12996
  0
LINE
  8
0
 10
-102.791
 20
-5.12996
 11
-102.003
 21
-5.67375
  0
LINE
  8
0
 10
-102.003
 20
-5.67375
 11
-101.558
 21
-6.52136
  0
LINE
  8
0
 10
-101.558
 20
-6.52136
 11
-101.558
 21
-7.47862
  0
LINE
  8
0
 10
-101.558
 20
-7.47862
 11
-102.003
 21
-8.32623
  0
LINE
  8
0
 10
-102.003
 20
-8.32623
 11
-102.791
 21
-8.87003
  0
LINE
  8
0
 10
-102.791
 20
-8.87003
 11
-103.741
 21
-8.98541
  0
LINE
  8
0
 10
-103.741
 20
-8.98541
 11
-104.636
 21
-8.64597
  0
LINE
  8
0
 10
-136.479
 20
-41.4419
 11
-137.326
 21
-40.997
  0
LINE
  8
0
 10
-137.326
 20
-40.997
 11
-137.87
 21
-40.2092
  0
LINE
  8
0
 10
-137.87
 20
-40.2092
 11
-137.985
 21
-39.2589
  0
LINE
  8
0
 10
-137.985
 20
-39.2589
 11
-137.646
 21
-38.3639
  0
LINE
  8
0
 10
-137.646
 20
-38.3639
 11
-136.929
 21
-37.7291
  0
LINE
  8
0
 10
-136.929
 20
-37.7291
 11
-136
 21
-37.5
  0
LINE
  8
0
 10
-136
 20
-37.5
 11
-135.071
 21
-37.7291
  0
LINE
  8
0
 10
-135.071
 20
-37.7291
 11
-134.354
 21
-38.3639
  0
LINE
  8
0
 10
-134.354
 20
-38.3639
 11
-134.015
 21
-39.2589
  0
LINE
  8
0
 10
-134.015
 20
-39.2589
 11
-134.13
 21
-40.2092
  0
LINE
  8
0
 10
-134.13
 20
-40.2092
 11
-134.674
 21
-40.997
  0
LINE
  8
0
 10
-134.674
 20
-40.997
 11
-135.521
 21
-41.4419
  0
LINE
  8
0
 10
-135.521
 20
-41.4419
 11
-136.479
 21
-41.4419
  0
LINE
  8
0
 10
66.5944
 20
-136.269
 11
67.7654
 21
-135.819
  0
LINE
  8
0
 10
67.7654
 20
-135.819
 11
68.8174
 21
-135.136
  0
LINE
  8
0
 10
68.8174
 20
-135.136
 11
69.7044
 21
-134.249
  0
LINE
  8
0
 10
69.7044
 20
-134.249
 11
70.3875
 21
-133.197
  0
LINE
  8
0
 10
70.3875
 20
-133.197
 11
70.837
 21
-132.026
  0
LINE
  8
0
 10
70.837
 20
-132.026
 11
70.9351
 21
-131.407
  0
LINE
  8
0
 10
70.9351
 20
-131.407
 11
70.9676
 21
-131.412
  0
LINE
  8
0
 10
70.9676
 20
-131.412
 11
80.1081
 21
-73.7011
  0
LINE
  8
0
 10
80.1081
 20
-73.7011
 11
80.0756
 21
-73.696
  0
LINE
  8
0
 10
80.0756
 20
-73.696
 11
80.1737
 21
-73.0765
  0
LINE
  8
0
 10
80.1737
 20
-73.0765
 11
80.1081
 21
-71.8239
  0
LINE
  8
0
 10
80.1081
 20
-71.8239
 11
79.7834
 21
-70.6123
  0
LINE
  8
0
 10
79.7834
 20
-70.6123
 11
79.214
 21
-69.4947
  0
LINE
  8
0
 10
79.214
 20
-69.4947
 11
78.4246
 21
-68.5199
  0
LINE
  8
0
 10
78.4246
 20
-68.5199
 11
77.4498
 21
-67.7305
  0
LINE
  8
0
 10
77.4498
 20
-67.7305
 11
76.3322
 21
-67.161
  0
LINE
  8
0
 10
76.3322
 20
-67.161
 11
75.1206
 21
-66.8364
  0
LINE
  8
0
 10
75.1206
 20
-66.8364
 11
39.1391
 21
-61.1375
  0
LINE
  8
0
 10
39.1391
 20
-61.1375
 11
37.8864
 21
-61.0718
  0
LINE
  8
0
 10
37.8864
 20
-61.0718
 11
36.6476
 21
-61.268
  0
LINE
  8
0
 10
36.6476
 20
-61.268
 11
35.4765
 21
-61.7175
  0
LINE
  8
0
 10
35.4765
 20
-61.7175
 11
34.4245
 21
-62.4007
  0
LINE
  8
0
 10
34.4245
 20
-62.4007
 11
33.5376
 21
-63.2877
  0
LINE
  8
0
 10
33.5376
 20
-63.2877
 11
32.8544
 21
-64.3396
  0
LINE
  8
0
 10
32.8544
 20
-64.3396
 11
32.4049
 21
-65.5107
  0
LINE
  8
0
 10
32.4049
 20
-65.5107
 11
32.3068
 21
-66.1301
  0
LINE
  8
0
 10
32.3068
 20
-66.1301
 11
32.2744
 21
-66.125
  0
LINE
  8
0
 10
32.2744
 20
-66.125
 11
29.9691
 21
-80.68
  0
LINE
  8
0
 10
29.9691
 20
-80.68
 11
36.1764
 21
-86.0759
  0
LINE
  8
0
 10
36.1764
 20
-86.0759
 11
42.5155
 21
-93.1659
  0
LINE
  8
0
 10
42.5155
 20
-93.1659
 11
47.9161
 21
-100.994
  0
LINE
  8
0
 10
47.9161
 20
-100.994
 11
52.2929
 21
-109.438
  0
LINE
  8
0
 10
52.2929
 20
-109.438
 11
55.5769
 21
-118.364
  0
LINE
  8
0
 10
55.5769
 20
-118.364
 11
57.7164
 21
-127.631
  0
LINE
  8
0
 10
57.7164
 20
-127.631
 11
58.5172
 21
-135.515
  0
LINE
  8
0
 10
58.5172
 20
-135.515
 11
64.1029
 21
-136.399
  0
LINE
  8
0
 10
64.1029
 20
-136.399
 11
65.3555
 21
-136.465
  0
LINE
  8
0
 10
65.3555
 20
-136.465
 11
66.5944
 21
-136.269
  0
LINE
  8
0
 10
37.1656
 20
-68.6895
 11
36.7189
 21
-66.8289
  0
LINE
  8
0
 10
36.7189
 20
-66.8289
 11
37.7187
 21
-65.1975
  0
LINE
  8
0
 10
37.7187
 20
-65.1975
 11
39.5793
 21
-64.7508
  0
LINE
  8
0
 10
39.5793
 20
-64.7508
 11
41.2107
 21
-65.7505
  0
LINE
  8
0
 10
41.2107
 20
-65.7505
 11
41.6574
 21
-67.6111
  0
LINE
  8
0
 10
41.6574
 20
-67.6111
 11
40.6576
 21
-69.2426
  0
LINE
  8
0
 10
40.6576
 20
-69.2426
 11
38.7971
 21
-69.6892
  0
LINE
  8
0
 10
38.7971
 20
-69.6892
 11
37.1656
 21
-68.6895
  0
LINE
  8
0
 10
71.1717
 20
-74.0755
 11
70.725
 21
-72.215
  0
LINE
  8
0
 10
70.725
 20
-72.215
 11
71.7248
 21
-70.5835
  0
LINE
  8
0
 10
71.7248
 20
-70.5835
 11
73.5854
 21
-70.1368
  0
LINE
  8
0
 10
73.5854
 20
-70.1368
 11
75.2168
 21
-71.1366
  0
LINE
  8
0
 10
75.2168
 20
-71.1366
 11
75.6635
 21
-72.9971
  0
LINE
  8
0
 10
75.6635
 20
-72.9971
 11
74.6637
 21
-74.6286
  0
LINE
  8
0
 10
74.6637
 20
-74.6286
 11
72.8032
 21
-75.0753
  0
LINE
  8
0
 10
72.8032
 20
-75.0753
 11
71.1717
 21
-74.0755
  0
LINE
  8
0
 10
62.0313
 20
-131.786
 11
61.5846
 21
-129.926
  0
LINE
  8
0
 10
61.5846
 20
-129.926
 11
62.5843
 21
-128.294
  0
LINE
  8
0
 10
62.5843
 20
-128.294
 11
64.4449
 21
-127.847
  0
LINE
  8
0
 10
64.4449
 20
-127.847
 11
66.0763
 21
-128.847
  0
LINE
  8
0
 10
66.0763
 20
-128.847
 11
66.523
 21
-130.708
  0
LINE
  8
0
 10
66.523
 20
-130.708
 11
65.5233
 21
-132.339
  0
LINE
  8
0
 10
65.5233
 20
-132.339
 11
63.6627
 21
-132.786
  0
LINE
  8
0
 10
63.6627
 20
-132.786
 11
62.0313
 21
-131.786
  0
LINE
  8
0
 10
-30.355
 20
-176.899
 11
-29.7692
 21
-176.815
  0
LINE
  8
0
 10
-29.7692
 20
-176.815
 11
-29.1976
 21
-176.662
  0
LINE
  8
0
 10
-29.1976
 20
-176.662
 11
-28.6487
 21
-176.441
  0
LINE
  8
0
 10
-28.6487
 20
-176.441
 11
-28.1304
 21
-176.156
  0
LINE
  8
0
 10
-28.1304
 20
-176.156
 11
-27.6503
 21
-175.81
  0
LINE
  8
0
 10
-27.6503
 20
-175.81
 11
-27.2154
 21
-175.409
  0
LINE
  8
0
 10
-27.2154
 20
-175.409
 11
-26.832
 21
-174.958
  0
LINE
  8
0
 10
-26.832
 20
-174.958
 11
-26.5058
 21
-174.464
  0
LINE
  8
0
 10
-26.5058
 20
-174.464
 11
-13.7058
 21
-152.294
  0
LINE
  8
0
 10
-13.7058
 20
-152.294
 11
8.46446
 21
-165.094
  0
LINE
  8
0
 10
8.46446
 20
-165.094
 11
8.99384
 21
-165.359
  0
LINE
  8
0
 10
8.99384
 20
-165.359
 11
9.55121
 21
-165.557
  0
LINE
  8
0
 10
9.55121
 20
-165.557
 11
10.1284
 21
-165.687
  0
LINE
  8
0
 10
10.1284
 20
-165.687
 11
10.7172
 21
-165.747
  0
LINE
  8
0
 10
10.7172
 20
-165.747
 11
11.3088
 21
-165.735
  0
LINE
  8
0
 10
11.3088
 20
-165.735
 11
11.8946
 21
-165.652
  0
LINE
  8
0
 10
11.8946
 20
-165.652
 11
12.4662
 21
-165.499
  0
LINE
  8
0
 10
12.4662
 20
-165.499
 11
13.0151
 21
-165.278
  0
LINE
  8
0
 10
13.0151
 20
-165.278
 11
13.5333
 21
-164.992
  0
LINE
  8
0
 10
13.5333
 20
-164.992
 11
14.0134
 21
-164.646
  0
LINE
  8
0
 10
14.0134
 20
-164.646
 11
14.4483
 21
-164.245
  0
LINE
  8
0
 10
14.4483
 20
-164.245
 11
14.8317
 21
-163.794
  0
LINE
  8
0
 10
14.8317
 20
-163.794
 11
15.158
 21
-163.301
  0
LINE
  8
0
 10
15.158
 20
-163.301
 11
19.258
 21
-156.199
  0
LINE
  8
0
 10
19.258
 20
-156.199
 11
19.5224
 21
-155.67
  0
LINE
  8
0
 10
19.5224
 20
-155.67
 11
19.721
 21
-155.113
  0
LINE
  8
0
 10
19.721
 20
-155.113
 11
19.851
 21
-154.535
  0
LINE
  8
0
 10
19.851
 20
-154.535
 11
19.9105
 21
-153.947
  0
LINE
  8
0
 10
19.9105
 20
-153.947
 11
19.8986
 21
-153.355
  0
LINE
  8
0
 10
19.8986
 20
-153.355
 11
19.8154
 21
-152.769
  0
LINE
  8
0
 10
19.8154
 20
-152.769
 11
19.6623
 21
-152.198
  0
LINE
  8
0
 10
19.6623
 20
-152.198
 11
19.4414
 21
-151.649
  0
LINE
  8
0
 10
19.4414
 20
-151.649
 11
19.1559
 21
-151.13
  0
LINE
  8
0
 10
19.1559
 20
-151.13
 11
18.81
 21
-150.65
  0
LINE
  8
0
 10
18.81
 20
-150.65
 11
18.4088
 21
-150.215
  0
LINE
  8
0
 10
18.4088
 20
-150.215
 11
17.9581
 21
-149.832
  0
LINE
  8
0
 10
17.9581
 20
-149.832
 11
17.4645
 21
-149.506
  0
LINE
  8
0
 10
17.4645
 20
-149.506
 11
-4.70576
 21
-136.706
  0
LINE
  8
0
 10
-4.70576
 20
-136.706
 11
8.09422
 21
-114.536
  0
LINE
  8
0
 10
8.09422
 20
-114.536
 11
8.35861
 21
-114.006
  0
LINE
  8
0
 10
8.35861
 20
-114.006
 11
8.55725
 21
-113.449
  0
LINE
  8
0
 10
8.55725
 20
-113.449
 11
8.68724
 21
-112.872
  0
LINE
  8
0
 10
8.68724
 20
-112.872
 11
8.74673
 21
-112.283
  0
LINE
  8
0
 10
8.74673
 20
-112.283
 11
8.73482
 21
-111.691
  0
LINE
  8
0
 10
8.73482
 20
-111.691
 11
8.65169
 21
-111.105
  0
LINE
  8
0
 10
8.65169
 20
-111.105
 11
8.49854
 21
-110.534
  0
LINE
  8
0
 10
8.49854
 20
-110.534
 11
8.27762
 21
-109.985
  0
LINE
  8
0
 10
8.27762
 20
-109.985
 11
7.99214
 21
-109.467
  0
LINE
  8
0
 10
7.99214
 20
-109.467
 11
7.64627
 21
-108.987
  0
LINE
  8
0
 10
7.64627
 20
-108.987
 11
7.24506
 21
-108.552
  0
LINE
  8
0
 10
7.24506
 20
-108.552
 11
6.79434
 21
-108.168
  0
LINE
  8
0
 10
6.79434
 20
-108.168
 11
6.3007
 21
-107.842
  0
LINE
  8
0
 10
6.3007
 20
-107.842
 11
-0.80069
 21
-103.742
  0
LINE
  8
0
 10
-0.80069
 20
-103.742
 11
-1.33006
 21
-103.478
  0
LINE
  8
0
 10
-1.33006
 20
-103.478
 11
-1.88742
 21
-103.279
  0
LINE
  8
0
 10
-1.88742
 20
-103.279
 11
-2.46468
 21
-103.149
  0
LINE
  8
0
 10
-2.46468
 20
-103.149
 11
-3.05339
 21
-103.089
  0
LINE
  8
0
 10
-3.05339
 20
-103.089
 11
-3.64497
 21
-103.101
  0
LINE
  8
0
 10
-3.64497
 20
-103.101
 11
-4.2308
 21
-103.185
  0
LINE
  8
0
 10
-4.2308
 20
-103.185
 11
-4.80237
 21
-103.338
  0
LINE
  8
0
 10
-4.80237
 20
-103.338
 11
-5.35127
 21
-103.559
  0
LINE
  8
0
 10
-5.35127
 20
-103.559
 11
-5.86957
 21
-103.844
  0
LINE
  8
0
 10
-5.86957
 20
-103.844
 11
-6.34966
 21
-104.19
  0
LINE
  8
0
 10
-6.34966
 20
-104.19
 11
-6.78458
 21
-104.591
  0
LINE
  8
0
 10
-6.78458
 20
-104.591
 11
-7.16795
 21
-105.042
  0
LINE
  8
0
 10
-7.16795
 20
-105.042
 11
-7.49422
 21
-105.536
  0
LINE
  8
0
 10
-7.49422
 20
-105.536
 11
-20.2942
 21
-127.706
  0
LINE
  8
0
 10
-20.2942
 20
-127.706
 11
-42.4645
 21
-114.906
  0
LINE
  8
0
 10
-42.4645
 20
-114.906
 11
-42.9939
 21
-114.641
  0
LINE
  8
0
 10
-42.9939
 20
-114.641
 11
-43.5512
 21
-114.443
  0
LINE
  8
0
 10
-43.5512
 20
-114.443
 11
-44.1285
 21
-114.313
  0
LINE
  8
0
 10
-44.1285
 20
-114.313
 11
-44.7172
 21
-114.253
  0
LINE
  8
0
 10
-44.7172
 20
-114.253
 11
-45.3088
 21
-114.265
  0
LINE
  8
0
 10
-45.3088
 20
-114.265
 11
-45.8946
 21
-114.348
  0
LINE
  8
0
 10
-45.8946
 20
-114.348
 11
-46.4662
 21
-114.501
  0
LINE
  8
0
 10
-46.4662
 20
-114.501
 11
-47.0151
 21
-114.722
  0
LINE
  8
0
 10
-47.0151
 20
-114.722
 11
-47.5334
 21
-115.008
  0
LINE
  8
0
 10
-47.5334
 20
-115.008
 11
-48.0134
 21
-115.354
  0
LINE
  8
0
 10
-48.0134
 20
-115.354
 11
-48.4484
 21
-115.755
  0
LINE
  8
0
 10
-48.4484
 20
-115.755
 11
-48.8317
 21
-116.206
  0
LINE
  8
0
 10
-48.8317
 20
-116.206
 11
-49.158
 21
-116.699
  0
LINE
  8
0
 10
-49.158
 20
-116.699
 11
-53.258
 21
-123.801
  0
LINE
  8
0
 10
-53.258
 20
-123.801
 11
-53.5224
 21
-124.33
  0
LINE
  8
0
 10
-53.5224
 20
-124.33
 11
-53.721
 21
-124.887
  0
LINE
  8
0
 10
-53.721
 20
-124.887
 11
-53.851
 21
-125.465
  0
LINE
  8
0
 10
-53.851
 20
-125.465
 11
-53.9105
 21
-126.053
  0
LINE
  8
0
 10
-53.9105
 20
-126.053
 11
-53.8986
 21
-126.645
  0
LINE
  8
0
 10
-53.8986
 20
-126.645
 11
-53.8154
 21
-127.231
  0
LINE
  8
0
 10
-53.8154
 20
-127.231
 11
-53.6623
 21
-127.802
  0
LINE
  8
0
 10
-53.6623
 20
-127.802
 11
-53.4414
 21
-128.351
  0
LINE
  8
0
 10
-53.4414
 20
-128.351
 11
-53.1559
 21
-128.87
  0
LINE
  8
0
 10
-53.1559
 20
-128.87
 11
-52.81
 21
-129.35
  0
LINE
  8
0
 10
-52.81
 20
-129.35
 11
-52.4088
 21
-129.785
  0
LINE
  8
0
 10
-52.4088
 20
-129.785
 11
-51.9581
 21
-130.168
  0
LINE
  8
0
 10
-51.9581
 20
-130.168
 11
-51.4645
 21
-130.494
  0
LINE
  8
0
 10
-51.4645
 20
-130.494
 11
-29.2942
 21
-143.294
  0
LINE
  8
0
 10
-29.2942
 20
-143.294
 11
-42.0942
 21
-165.464
  0
LINE
  8
0
 10
-42.0942
 20
-165.464
 11
-42.3586
 21
-165.994
  0
LINE
  8
0
 10
-42.3586
 20
-165.994
 11
-42.5572
 21
-166.551
  0
LINE
  8
0
 10
-42.5572
 20
-166.551
 11
-42.6872
 21
-167.128
  0
LINE
  8
0
 10
-42.6872
 20
-167.128
 11
-42.7467
 21
-167.717
  0
LINE
  8
0
 10
-42.7467
 20
-167.717
 11
-42.7348
 21
-168.309
  0
LINE
  8
0
 10
-42.7348
 20
-168.309
 11
-42.6516
 21
-168.895
  0
LINE
  8
0
 10
-42.6516
 20
-168.895
 11
-42.4985
 21
-169.466
  0
LINE
  8
0
 10
-42.4985
 20
-169.466
 11
-42.2776
 21
-170.015
  0
LINE
  8
0
 10
-42.2776
 20
-170.015
 11
-41.9921
 21
-170.533
  0
LINE
  8
0
 10
-41.9921
 20
-170.533
 11
-41.6462
 21
-171.013
  0
LINE
  8
0
 10
-41.6462
 20
-171.013
 11
-41.245
 21
-171.448
  0
LINE
  8
0
 10
-41.245
 20
-171.448
 11
-40.7943
 21
-171.832
  0
LINE
  8
0
 10
-40.7943
 20
-171.832
 11
-40.3007
 21
-172.158
  0
LINE
  8
0
 10
-40.3007
 20
-172.158
 11
-33.1993
 21
-176.258
  0
LINE
  8
0
 10
-33.1993
 20
-176.258
 11
-32.6699
 21
-176.522
  0
LINE
  8
0
 10
-32.6699
 20
-176.522
 11
-32.1125
 21
-176.721
  0
LINE
  8
0
 10
-32.1125
 20
-176.721
 11
-31.5353
 21
-176.851
  0
LINE
  8
0
 10
-31.5353
 20
-176.851
 11
-30.9466
 21
-176.91
  0
LINE
  8
0
 10
-30.9466
 20
-176.91
 11
-30.355
 21
-176.899
  0
LINE
  8
0
 10
-1.75
 20
-113.586
 11
-2.44037
 21
-112.923
  0
LINE
  8
0
 10
-2.44037
 20
-112.923
 11
-2.7435
 21
-112.015
  0
LINE
  8
0
 10
-2.7435
 20
-112.015
 11
-2.58994
 21
-111.07
  0
LINE
  8
0
 10
-2.58994
 20
-111.07
 11
-2.01488
 21
-110.305
  0
LINE
  8
0
 10
-2.01488
 20
-110.305
 11
-1.15002
 21
-109.895
  0
LINE
  8
0
 10
-1.15002
 20
-109.895
 11
-0.193542
 21
-109.933
  0
LINE
  8
0
 10
-0.193542
 20
-109.933
 11
0.635452
 21
-110.412
  0
LINE
  8
0
 10
0.635452
 20
-110.412
 11
1.14706
 21
-111.221
  0
LINE
  8
0
 10
1.14706
 20
-111.221
 11
1.22411
 21
-112.175
  0
LINE
  8
0
 10
1.22411
 20
-112.175
 11
0.848892
 21
-113.056
  0
LINE
  8
0
 10
0.848892
 20
-113.056
 11
0.107391
 21
-113.661
  0
LINE
  8
0
 10
0.107391
 20
-113.661
 11
-0.830505
 21
-113.853
  0
LINE
  8
0
 10
-0.830505
 20
-113.853
 11
-1.75
 21
-113.586
  0
LINE
  8
0
 10
-45.9298
 20
-125.59
 11
-46.695
 21
-125.015
  0
LINE
  8
0
 10
-46.695
 20
-125.015
 11
-47.1054
 21
-124.15
  0
LINE
  8
0
 10
-47.1054
 20
-124.15
 11
-47.0669
 21
-123.194
  0
LINE
  8
0
 10
-47.0669
 20
-123.194
 11
-46.5882
 21
-122.365
  0
LINE
  8
0
 10
-46.5882
 20
-122.365
 11
-45.7792
 21
-121.853
  0
LINE
  8
0
 10
-45.7792
 20
-121.853
 11
-44.825
 21
-121.776
  0
LINE
  8
0
 10
-44.825
 20
-121.776
 11
-43.9443
 21
-122.151
  0
LINE
  8
0
 10
-43.9443
 20
-122.151
 11
-43.3389
 21
-122.893
  0
LINE
  8
0
 10
-43.3389
 20
-122.893
 11
-43.1474
 21
-123.831
  0
LINE
  8
0
 10
-43.1474
 20
-123.831
 11
-43.4138
 21
-124.75
  0
LINE
  8
0
 10
-43.4138
 20
-124.75
 11
-44.0769
 21
-125.44
  0
LINE
  8
0
 10
-44.0769
 20
-125.44
 11
-44.9849
 21
-125.743
  0
LINE
  8
0
 10
-44.9849
 20
-125.743
 11
-45.9298
 21
-125.59
  0
LINE
  8
0
 10
10.3619
 20
-158.09
 11
9.5966
 21
-157.515
  0
LINE
  8
0
 10
9.5966
 20
-157.515
 11
9.18623
 21
-156.65
  0
LINE
  8
0
 10
9.18623
 20
-156.65
 11
9.22478
 21
-155.694
  0
LINE
  8
0
 10
9.22478
 20
-155.694
 11
9.7034
 21
-154.865
  0
LINE
  8
0
 10
9.7034
 20
-154.865
 11
10.5125
 21
-154.353
  0
LINE
  8
0
 10
10.5125
 20
-154.353
 11
11.4666
 21
-154.276
  0
LINE
  8
0
 10
11.4666
 20
-154.276
 11
12.3473
 21
-154.651
  0
LINE
  8
0
 10
12.3473
 20
-154.651
 11
12.9527
 21
-155.393
  0
LINE
  8
0
 10
12.9527
 20
-155.393
 11
13.1442
 21
-156.331
  0
LINE
  8
0
 10
13.1442
 20
-156.331
 11
12.8779
 21
-157.25
  0
LINE
  8
0
 10
12.8779
 20
-157.25
 11
12.2148
 21
-157.94
  0
LINE
  8
0
 10
12.2148
 20
-157.94
 11
11.3067
 21
-158.243
  0
LINE
  8
0
 10
11.3067
 20
-158.243
 11
10.3619
 21
-158.09
  0
LINE
  8
0
 10
-34.25
 20
-169.878
 11
-34.9404
 21
-169.215
  0
LINE
  8
0
 10
-34.9404
 20
-169.215
 11
-35.2435
 21
-168.307
  0
LINE
  8
0
 10
-35.2435
 20
-168.307
 11
-35.0899
 21
-167.362
  0
LINE
  8
0
 10
-35.0899
 20
-167.362
 11
-34.5149
 21
-166.597
  0
LINE
  8
0
 10
-34.5149
 20
-166.597
 11
-33.65
 21
-166.186
  0
LINE
  8
0
 10
-33.65
 20
-166.186
 11
-32.6935
 21
-166.225
  0
LINE
  8
0
 10
-32.6935
 20
-166.225
 11
-31.8645
 21
-166.703
  0
LINE
  8
0
 10
-31.8645
 20
-166.703
 11
-31.3529
 21
-167.512
  0
LINE
  8
0
 10
-31.3529
 20
-167.512
 11
-31.2759
 21
-168.467
  0
LINE
  8
0
 10
-31.2759
 20
-168.467
 11
-31.6511
 21
-169.347
  0
LINE
  8
0
 10
-31.6511
 20
-169.347
 11
-32.3926
 21
-169.953
  0
LINE
  8
0
 10
-32.3926
 20
-169.953
 11
-33.3305
 21
-170.144
  0
LINE
  8
0
 10
-33.3305
 20
-170.144
 11
-34.25
 21
-169.878
  0
LINE
  8
0
 10
-185.576
 20
-254.731
 11
-184.994
 21
-254.624
  0
LINE
  8
0
 10
-184.994
 20
-254.624
 11
-184.429
 21
-254.448
  0
LINE
  8
0
 10
-184.429
 20
-254.448
 11
-183.89
 21
-254.205
  0
LINE
  8
0
 10
-183.89
 20
-254.205
 11
-183.383
 21
-253.899
  0
LINE
  8
0
 10
-183.383
 20
-253.899
 11
-182.917
 21
-253.534
  0
LINE
  8
0
 10
-182.917
 20
-253.534
 11
-182.499
 21
-253.116
  0
LINE
  8
0
 10
-182.499
 20
-253.116
 11
-182.134
 21
-252.65
  0
LINE
  8
0
 10
-182.134
 20
-252.65
 11
-181.828
 21
-252.144
  0
LINE
  8
0
 10
-181.828
 20
-252.144
 11
-181.585
 21
-251.604
  0
LINE
  8
0
 10
-181.585
 20
-251.604
 11
-181.409
 21
-251.039
  0
LINE
  8
0
 10
-181.409
 20
-251.039
 11
-181.302
 21
-250.457
  0
LINE
  8
0
 10
-181.302
 20
-250.457
 11
-181.267
 21
-249.867
  0
LINE
  8
0
 10
-181.267
 20
-249.867
 11
-181.267
 21
-224.267
  0
LINE
  8
0
 10
-181.267
 20
-224.267
 11
-155.667
 21
-224.267
  0
LINE
  8
0
 10
-155.667
 20
-224.267
 11
-155.076
 21
-224.231
  0
LINE
  8
0
 10
-155.076
 20
-224.231
 11
-154.494
 21
-224.124
  0
LINE
  8
0
 10
-154.494
 20
-224.124
 11
-153.929
 21
-223.948
  0
LINE
  8
0
 10
-153.929
 20
-223.948
 11
-153.39
 21
-223.705
  0
LINE
  8
0
 10
-153.39
 20
-223.705
 11
-152.883
 21
-223.399
  0
LINE
  8
0
 10
-152.883
 20
-223.399
 11
-152.417
 21
-223.034
  0
LINE
  8
0
 10
-152.417
 20
-223.034
 11
-151.999
 21
-222.616
  0
LINE
  8
0
 10
-151.999
 20
-222.616
 11
-151.634
 21
-222.15
  0
LINE
  8
0
 10
-151.634
 20
-222.15
 11
-151.328
 21
-221.644
  0
LINE
  8
0
 10
-151.328
 20
-221.644
 11
-151.085
 21
-221.104
  0
LINE
  8
0
 10
-151.085
 20
-221.104
 11
-150.909
 21
-220.539
  0
LINE
  8
0
 10
-150.909
 20
-220.539
 11
-150.802
 21
-219.957
  0
LINE
  8
0
 10
-150.802
 20
-219.957
 11
-150.767
 21
-219.367
  0
LINE
  8
0
 10
-150.767
 20
-219.367
 11
-150.767
 21
-211.167
  0
LINE
  8
0
 10
-150.767
 20
-211.167
 11
-150.802
 21
-210.576
  0
LINE
  8
0
 10
-150.802
 20
-210.576
 11
-150.909
 21
-209.994
  0
LINE
  8
0
 10
-150.909
 20
-209.994
 11
-151.085
 21
-209.429
  0
LINE
  8
0
 10
-151.085
 20
-209.429
 11
-151.328
 21
-208.89
  0
LINE
  8
0
 10
-151.328
 20
-208.89
 11
-151.634
 21
-208.383
  0
LINE
  8
0
 10
-151.634
 20
-208.383
 11
-151.999
 21
-207.917
  0
LINE
  8
0
 10
-151.999
 20
-207.917
 11
-152.417
 21
-207.499
  0
LINE
  8
0
 10
-152.417
 20
-207.499
 11
-152.883
 21
-207.134
  0
LINE
  8
0
 10
-152.883
 20
-207.134
 11
-153.39
 21
-206.828
  0
LINE
  8
0
 10
-153.39
 20
-206.828
 11
-153.929
 21
-206.585
  0
LINE
  8
0
 10
-153.929
 20
-206.585
 11
-154.494
 21
-206.409
  0
LINE
  8
0
 10
-154.494
 20
-206.409
 11
-155.076
 21
-206.302
  0
LINE
  8
0
 10
-155.076
 20
-206.302
 11
-155.667
 21
-206.267
  0
LINE
  8
0
 10
-155.667
 20
-206.267
 11
-181.267
 21
-206.267
  0
LINE
  8
0
 10
-181.267
 20
-206.267
 11
-181.267
 21
-180.667
  0
LINE
  8
0
 10
-181.267
 20
-180.667
 11
-181.302
 21
-180.076
  0
LINE
  8
0
 10
-181.302
 20
-180.076
 11
-181.409
 21
-179.494
  0
LINE
  8
0
 10
-181.409
 20
-179.494
 11
-181.585
 21
-178.929
  0
LINE
  8
0
 10
-181.585
 20
-178.929
 11
-181.828
 21
-178.39
  0
LINE
  8
0
 10
-181.828
 20
-178.39
 11
-182.134
 21
-177.883
  0
LINE
  8
0
 10
-182.134
 20
-177.883
 11
-182.499
 21
-177.417
  0
LINE
  8
0
 10
-182.499
 20
-177.417
 11
-182.917
 21
-176.999
  0
LINE
  8
0
 10
-182.917
 20
-176.999
 11
-183.383
 21
-176.634
  0
LINE
  8
0
 10
-183.383
 20
-176.634
 11
-183.89
 21
-176.328
  0
LINE
  8
0
 10
-183.89
 20
-176.328
 11
-184.429
 21
-176.085
  0
LINE
  8
0
 10
-184.429
 20
-176.085
 11
-184.994
 21
-175.909
  0
LINE
  8
0
 10
-184.994
 20
-175.909
 11
-185.576
 21
-175.802
  0
LINE
  8
0
 10
-185.576
 20
-175.802
 11
-186.167
 21
-175.767
  0
LINE
  8
0
 10
-186.167
 20
-175.767
 11
-194.367
 21
-175.767
  0
LINE
  8
0
 10
-194.367
 20
-175.767
 11
-194.957
 21
-175.802
  0
LINE
  8
0
 10
-194.957
 20
-175.802
 11
-195.539
 21
-175.909
  0
LINE
  8
0
 10
-195.539
 20
-175.909
 11
-196.104
 21
-176.085
  0
LINE
  8
0
 10
-196.104
 20
-176.085
 11
-196.644
 21
-176.328
  0
LINE
  8
0
 10
-196.644
 20
-176.328
 11
-197.15
 21
-176.634
  0
LINE
  8
0
 10
-197.15
 20
-176.634
 11
-197.616
 21
-176.999
  0
LINE
  8
0
 10
-197.616
 20
-176.999
 11
-198.034
 21
-177.417
  0
LINE
  8
0
 10
-198.034
 20
-177.417
 11
-198.399
 21
-177.883
  0
LINE
  8
0
 10
-198.399
 20
-177.883
 11
-198.705
 21
-178.39
  0
LINE
  8
0
 10
-198.705
 20
-178.39
 11
-198.948
 21
-178.929
  0
LINE
  8
0
 10
-198.948
 20
-178.929
 11
-199.124
 21
-179.494
  0
LINE
  8
0
 10
-199.124
 20
-179.494
 11
-199.231
 21
-180.076
  0
LINE
  8
0
 10
-199.231
 20
-180.076
 11
-199.267
 21
-180.667
  0
LINE
  8
0
 10
-199.267
 20
-180.667
 11
-199.267
 21
-206.267
  0
LINE
  8
0
 10
-199.267
 20
-206.267
 11
-224.867
 21
-206.267
  0
LINE
  8
0
 10
-224.867
 20
-206.267
 11
-225.457
 21
-206.302
  0
LINE
  8
0
 10
-225.457
 20
-206.302
 11
-226.039
 21
-206.409
  0
LINE
  8
0
 10
-226.039
 20
-206.409
 11
-226.604
 21
-206.585
  0
LINE
  8
0
 10
-226.604
 20
-206.585
 11
-227.144
 21
-206.828
  0
LINE
  8
0
 10
-227.144
 20
-206.828
 11
-227.65
 21
-207.134
  0
LINE
  8
0
 10
-227.65
 20
-207.134
 11
-228.116
 21
-207.499
  0
LINE
  8
0
 10
-228.116
 20
-207.499
 11
-228.534
 21
-207.917
  0
LINE
  8
0
 10
-228.534
 20
-207.917
 11
-228.899
 21
-208.383
  0
LINE
  8
0
 10
-228.899
 20
-208.383
 11
-229.205
 21
-208.89
  0
LINE
  8
0
 10
-229.205
 20
-208.89
 11
-229.448
 21
-209.429
  0
LINE
  8
0
 10
-229.448
 20
-209.429
 11
-229.624
 21
-209.994
  0
LINE
  8
0
 10
-229.624
 20
-209.994
 11
-229.731
 21
-210.576
  0
LINE
  8
0
 10
-229.731
 20
-210.576
 11
-229.767
 21
-211.167
  0
LINE
  8
0
 10
-229.767
 20
-211.167
 11
-229.767
 21
-219.367
  0
LINE
  8
0
 10
-229.767
 20
-219.367
 11
-229.731
 21
-219.957
  0
LINE
  8
0
 10
-229.731
 20
-219.957
 11
-229.624
 21
-220.539
  0
LINE
  8
0
 10
-229.624
 20
-220.539
 11
-229.448
 21
-221.104
  0
LINE
  8
0
 10
-229.448
 20
-221.104
 11
-229.205
 21
-221.644
  0
LINE
  8
0
 10
-229.205
 20
-221.644
 11
-228.899
 21
-222.15
  0
LINE
  8
0
 10
-228.899
 20
-222.15
 11
-228.534
 21
-222.616
  0
LINE
  8
0
 10
-228.534
 20
-222.616
 11
-228.116
 21
-223.034
  0
LINE
  8
0
 10
-228.116
 20
-223.034
 11
-227.65
 21
-223.399
  0
LINE
  8
0
 10
-227.65
 20
-223.399
 11
-227.144
 21
-223.705
  0
LINE
  8
0
 10
-227.144
 20
-223.705
 11
-226.604
 21
-223.948
  0
LINE
  8
0
 10
-226.604
 20
-223.948
 11
-226.039
 21
-224.124
  0
LINE
  8
0
 10
-226.039
 20
-224.124
 11
-225.457
 21
-224.231
  0
LINE
  8
0
 10
-225.457
 20
-224.231
 11
-224.867
 21
-224.267
  0
LINE
  8
0
 10
-224.867
 20
-224.267
 11
-199.267
 21
-224.267
  0
LINE
  8
0
 10
-199.267
 20
-224.267
 11
-199.267
 21
-249.867
  0
LINE
  8
0
 10
-199.267
 20
-249.867
 11
-199.231
 21
-250.457
  0
LINE
  8
0
 10
-199.231
 20
-250.457
 11
-199.124
 21
-251.039
  0
LINE
  8
0
 10
-199.124
 20
-251.039
 11
-198.948
 21
-251.604
  0
LINE
  8
0
 10
-198.948
 20
-251.604
 11
-198.705
 21
-252.144
  0
LINE
  8
0
 10
-198.705
 20
-252.144
 11
-198.399
 21
-252.65
  0
LINE
  8
0
 10
-198.399
 20
-252.65
 11
-198.034
 21
-253.116
  0
LINE
  8
0
 10
-198.034
 20
-253.116
 11
-197.616
 21
-253.534
  0
LINE
  8
0
 10
-197.616
 20
-253.534
 11
-197.15
 21
-253.899
  0
LINE
  8
0
 10
-197.15
 20
-253.899
 11
-196.644
 21
-254.205
  0
LINE
  8
0
 10
-196.644
 20
-254.205
 11
-196.104
 21
-254.448
  0
LINE
  8
0
 10
-196.104
 20
-254.448
 11
-195.539
 21
-254.624
  0
LINE
  8
0
 10
-195.539
 20
-254.624
 11
-194.957
 21
-254.731
  0
LINE
  8
0
 10
-194.957
 20
-254.731
 11
-194.367
 21
-254.767
  0
LINE
  8
0
 10
-194.367
 20
-254.767
 11
-186.167
 21
-254.767
  0
LINE
  8
0
 10
-186.167
 20
-254.767
 11
-185.576
 21
-254.731
  0
LINE
  8
0
 10
-190.745
 20
-184.709
 11
-191.593
 21
-184.264
  0
LINE
  8
0
 10
-191.593
 20
-184.264
 11
-192.137
 21
-183.476
  0
LINE
  8
0
 10
-192.137
 20
-183.476
 11
-192.252
 21
-182.526
  0
LINE
  8
0
 10
-192.252
 20
-182.526
 11
-191.913
 21
-181.631
  0
LINE
  8
0
 10
-191.913
 20
-181.631
 11
-191.196
 21
-180.996
  0
LINE
  8
0
 10
-191.196
 20
-180.996
 11
-190.267
 21
-180.767
  0
LINE
  8
0
 10
-190.267
 20
-180.767
 11
-189.337
 21
-180.996
  0
LINE
  8
0
 10
-189.337
 20
-180.996
 11
-188.621
 21
-181.631
  0
LINE
  8
0
 10
-188.621
 20
-181.631
 11
-188.281
 21
-182.526
  0
LINE
  8
0
 10
-188.281
 20
-182.526
 11
-188.397
 21
-183.476
  0
LINE
  8
0
 10
-188.397
 20
-183.476
 11
-188.94
 21
-184.264
  0
LINE
  8
0
 10
-188.94
 20
-184.264
 11
-189.788
 21
-184.709
  0
LINE
  8
0
 10
-189.788
 20
-184.709
 11
-190.745
 21
-184.709
  0
LINE
  8
0
 10
-223.476
 20
-217.137
 11
-224.264
 21
-216.593
  0
LINE
  8
0
 10
-224.264
 20
-216.593
 11
-224.709
 21
-215.745
  0
LINE
  8
0
 10
-224.709
 20
-215.745
 11
-224.709
 21
-214.788
  0
LINE
  8
0
 10
-224.709
 20
-214.788
 11
-224.264
 21
-213.94
  0
LINE
  8
0
 10
-224.264
 20
-213.94
 11
-223.476
 21
-213.397
  0
LINE
  8
0
 10
-223.476
 20
-213.397
 11
-222.526
 21
-213.281
  0
LINE
  8
0
 10
-222.526
 20
-213.281
 11
-221.631
 21
-213.621
  0
LINE
  8
0
 10
-221.631
 20
-213.621
 11
-220.996
 21
-214.337
  0
LINE
  8
0
 10
-220.996
 20
-214.337
 11
-220.767
 21
-215.267
  0
LINE
  8
0
 10
-220.767
 20
-215.267
 11
-220.996
 21
-216.196
  0
LINE
  8
0
 10
-220.996
 20
-216.196
 11
-221.631
 21
-216.913
  0
LINE
  8
0
 10
-221.631
 20
-216.913
 11
-222.526
 21
-217.252
  0
LINE
  8
0
 10
-222.526
 20
-217.252
 11
-223.476
 21
-217.137
  0
LINE
  8
0
 10
-158.476
 20
-217.137
 11
-159.264
 21
-216.593
  0
LINE
  8
0
 10
-159.264
 20
-216.593
 11
-159.709
 21
-215.745
  0
LINE
  8
0
 10
-159.709
 20
-215.745
 11
-159.709
 21
-214.788
  0
LINE
  8
0
 10
-159.709
 20
-214.788
 11
-159.264
 21
-213.94
  0
LINE
  8
0
 10
-159.264
 20
-213.94
 11
-158.476
 21
-213.397
  0
LINE
  8
0
 10
-158.476
 20
-213.397
 11
-157.526
 21
-213.281
  0
LINE
  8
0
 10
-157.526
 20
-213.281
 11
-156.631
 21
-213.621
  0
LINE
  8
0
 10
-156.631
 20
-213.621
 11
-155.996
 21
-214.337
  0
LINE
  8
0
 10
-155.996
 20
-214.337
 11
-155.767
 21
-215.267
  0
LINE
  8
0
 10
-155.767
 20
-215.267
 11
-155.996
 21
-216.196
  0
LINE
  8
0
 10
-155.996
 20
-216.196
 11
-156.631
 21
-216.913
  0
LINE
  8
0
 10
-156.631
 20
-216.913
 11
-157.526
 21
-217.252
  0
LINE
  8
0
 10
-157.526
 20
-217.252
 11
-158.476
 21
-217.137
  0
LINE
  8
0
 10
-190.745
 20
-249.709
 11
-191.593
 21
-249.264
  0
LINE
  8
0
 10
-191.593
 20
-249.264
 11
-192.137
 21
-248.476
  0
LINE
  8
0
 10
-192.137
 20
-248.476
 11
-192.252
 21
-247.526
  0
LINE
  8
0
 10
-192.252
 20
-247.526
 11
-191.913
 21
-246.631
  0
LINE
  8
0
 10
-191.913
 20
-246.631
 11
-191.196
 21
-245.996
  0
LINE
  8
0
 10
-191.196
 20
-245.996
 11
-190.267
 21
-245.767
  0
LINE
  8
0
 10
-190.267
 20
-245.767
 11
-189.337
 21
-245.996
  0
LINE
  8
0
 10
-189.337
 20
-245.996
 11
-188.621
 21
-246.631
  0
LINE
  8
0
 10
-188.621
 20
-246.631
 11
-188.281
 21
-247.526
  0
LINE
  8
0
 10
-188.281
 20
-247.526
 11
-188.397
 21
-248.476
  0
LINE
  8
0
 10
-188.397
 20
-248.476
 11
-188.94
 21
-249.264
  0
LINE
  8
0
 10
-188.94
 20
-249.264
 11
-189.788
 21
-249.709
  0
LINE
  8
0
 10
-189.788
 20
-249.709
 11
-190.745
 21
-249.709
  0
LINE
  8
0
 10
-121.328
 20
-282.272
 11
-120.111
 21
-281.968
  0
LINE
  8
0
 10
-120.111
 20
-281.968
 11
-85.8783
 21
-269.509
  0
LINE
  8
0
 10
-85.8783
 20
-269.509
 11
-84.7509
 21
-268.959
  0
LINE
  8
0
 10
-84.7509
 20
-268.959
 11
-83.7625
 21
-268.187
  0
LINE
  8
0
 10
-83.7625
 20
-268.187
 11
-82.9562
 21
-267.226
  0
LINE
  8
0
 10
-82.9562
 20
-267.226
 11
-82.3674
 21
-266.118
  0
LINE
  8
0
 10
-82.3674
 20
-266.118
 11
-82.0216
 21
-264.912
  0
LINE
  8
0
 10
-82.0216
 20
-264.912
 11
-81.9341
 21
-263.661
  0
LINE
  8
0
 10
-81.9341
 20
-263.661
 11
-82.1087
 21
-262.419
  0
LINE
  8
0
 10
-82.1087
 20
-262.419
 11
-82.3232
 21
-261.83
  0
LINE
  8
0
 10
-82.3232
 20
-261.83
 11
-82.2923
 21
-261.818
  0
LINE
  8
0
 10
-82.2923
 20
-261.818
 11
-102.277
 21
-206.912
  0
LINE
  8
0
 10
-102.277
 20
-206.912
 11
-102.307
 21
-206.923
  0
LINE
  8
0
 10
-102.307
 20
-206.923
 11
-102.522
 21
-206.334
  0
LINE
  8
0
 10
-102.522
 20
-206.334
 11
-103.187
 21
-205.27
  0
LINE
  8
0
 10
-103.187
 20
-205.27
 11
-104.058
 21
-204.368
  0
LINE
  8
0
 10
-104.058
 20
-204.368
 11
-105.098
 21
-203.667
  0
LINE
  8
0
 10
-105.098
 20
-203.667
 11
-106.261
 21
-203.197
  0
LINE
  8
0
 10
-106.261
 20
-203.197
 11
-107.496
 21
-202.979
  0
LINE
  8
0
 10
-107.496
 20
-202.979
 11
-108.75
 21
-203.023
  0
LINE
  8
0
 10
-108.75
 20
-203.023
 11
-109.967
 21
-203.326
  0
LINE
  8
0
 10
-109.967
 20
-203.326
 11
-115.281
 21
-205.26
  0
LINE
  8
0
 10
-115.281
 20
-205.26
 11
-114.563
 21
-213.152
  0
LINE
  8
0
 10
-114.563
 20
-213.152
 11
-114.895
 21
-222.657
  0
LINE
  8
0
 10
-114.895
 20
-222.657
 11
-116.415
 21
-232.045
  0
LINE
  8
0
 10
-116.415
 20
-232.045
 11
-119.101
 21
-241.169
  0
LINE
  8
0
 10
-119.101
 20
-241.169
 11
-122.908
 21
-249.884
  0
LINE
  8
0
 10
-122.908
 20
-249.884
 11
-127.778
 21
-258.053
  0
LINE
  8
0
 10
-127.778
 20
-258.053
 11
-132.842
 21
-264.535
  0
LINE
  8
0
 10
-132.842
 20
-264.535
 11
-127.802
 21
-278.382
  0
LINE
  8
0
 10
-127.802
 20
-278.382
 11
-127.771
 21
-278.371
  0
LINE
  8
0
 10
-127.771
 20
-278.371
 11
-127.556
 21
-278.96
  0
LINE
  8
0
 10
-127.556
 20
-278.96
 11
-126.892
 21
-280.024
  0
LINE
  8
0
 10
-126.892
 20
-280.024
 11
-126.02
 21
-280.927
  0
LINE
  8
0
 10
-126.02
 20
-280.927
 11
-124.98
 21
-281.628
  0
LINE
  8
0
 10
-124.98
 20
-281.628
 11
-123.817
 21
-282.098
  0
LINE
  8
0
 10
-123.817
 20
-282.098
 11
-122.582
 21
-282.316
  0
LINE
  8
0
 10
-122.582
 20
-282.316
 11
-121.328
 21
-282.272
  0
LINE
  8
0
 10
-109.911
 20
-211.572
 11
-111.204
 21
-210.161
  0
LINE
  8
0
 10
-111.204
 20
-210.161
 11
-111.12
 21
-208.25
  0
LINE
  8
0
 10
-111.12
 20
-208.25
 11
-109.709
 21
-206.957
  0
LINE
  8
0
 10
-109.709
 20
-206.957
 11
-107.798
 21
-207.041
  0
LINE
  8
0
 10
-107.798
 20
-207.041
 11
-106.505
 21
-208.451
  0
LINE
  8
0
 10
-106.505
 20
-208.451
 11
-106.589
 21
-210.363
  0
LINE
  8
0
 10
-106.589
 20
-210.363
 11
-107.999
 21
-211.656
  0
LINE
  8
0
 10
-107.999
 20
-211.656
 11
-109.911
 21
-211.572
  0
LINE
  8
0
 10
-89.9267
 20
-266.478
 11
-91.2194
 21
-265.068
  0
LINE
  8
0
 10
-91.2194
 20
-265.068
 11
-91.1359
 21
-263.156
  0
LINE
  8
0
 10
-91.1359
 20
-263.156
 11
-89.7252
 21
-261.863
  0
LINE
  8
0
 10
-89.7252
 20
-261.863
 11
-87.8136
 21
-261.947
  0
LINE
  8
0
 10
-87.8136
 20
-261.947
 11
-86.5209
 21
-263.357
  0
LINE
  8
0
 10
-86.5209
 20
-263.357
 11
-86.6044
 21
-265.269
  0
LINE
  8
0
 10
-86.6044
 20
-265.269
 11
-88.0151
 21
-266.562
  0
LINE
  8
0
 10
-88.0151
 20
-266.562
 11
-89.9267
 21
-266.478
  0
LINE
  8
0
 10
-122.28
 20
-278.254
 11
-123.573
 21
-276.843
  0
LINE
  8
0
 10
-123.573
 20
-276.843
 11
-123.49
 21
-274.932
  0
LINE
  8
0
 10
-123.49
 20
-274.932
 11
-122.079
 21
-273.639
  0
LINE
  8
0
 10
-122.079
 20
-273.639
 11
-120.167
 21
-273.722
  0
LINE
  8
0
 10
-120.167
 20
-273.722
 11
-118.875
 21
-275.133
  0
LINE
  8
0
 10
-118.875
 20
-275.133
 11
-118.958
 21
-277.045
  0
LINE
  8
0
 10
-118.958
 20
-277.045
 11
-120.369
 21
-278.337
  0
LINE
  8
0
 10
-120.369
 20
-278.337
 11
-122.28
 21
-278.254
  0
LINE
  8
0
 10
-7.81664
 20
-280.74
 11
-7.23409
 21
-280.637
  0
LINE
  8
0
 10
-7.23409
 20
-280.637
 11
-6.66821
 21
-280.464
  0
LINE
  8
0
 10
-6.66821
 20
-280.464
 11
-6.12735
 21
-280.224
  0
LINE
  8
0
 10
-6.12735
 20
-280.224
 11
-5.61934
 21
-279.92
  0
LINE
  8
0
 10
-5.61934
 20
-279.92
 11
-5.1516
 21
-279.558
  0
LINE
  8
0
 10
-5.1516
 20
-279.558
 11
-4.73096
 21
-279.142
  0
LINE
  8
0
 10
-4.73096
 20
-279.142
 11
-4.36354
 21
-278.678
  0
LINE
  8
0
 10
-4.36354
 20
-278.678
 11
-4.0547
 21
-278.173
  0
LINE
  8
0
 10
-4.0547
 20
-278.173
 11
-0.251984
 21
-271.021
  0
LINE
  8
0
 10
-0.251984
 20
-271.021
 11
6.89989
 21
-274.824
  0
LINE
  8
0
 10
6.89989
 20
-274.824
 11
7.43817
 21
-275.07
  0
LINE
  8
0
 10
7.43817
 20
-275.07
 11
8.00214
 21
-275.249
  0
LINE
  8
0
 10
8.00214
 20
-275.249
 11
8.58357
 21
-275.359
  0
LINE
  8
0
 10
8.58357
 20
-275.359
 11
9.174
 21
-275.398
  0
LINE
  8
0
 10
9.174
 20
-275.398
 11
9.76482
 21
-275.365
  0
LINE
  8
0
 10
9.76482
 20
-275.365
 11
10.3474
 21
-275.262
  0
LINE
  8
0
 10
10.3474
 20
-275.262
 11
10.9133
 21
-275.089
  0
LINE
  8
0
 10
10.9133
 20
-275.089
 11
11.4541
 21
-274.849
  0
LINE
  8
0
 10
11.4541
 20
-274.849
 11
11.9621
 21
-274.545
  0
LINE
  8
0
 10
11.9621
 20
-274.545
 11
12.4299
 21
-274.183
  0
LINE
  8
0
 10
12.4299
 20
-274.183
 11
12.8505
 21
-273.767
  0
LINE
  8
0
 10
12.8505
 20
-273.767
 11
13.2179
 21
-273.303
  0
LINE
  8
0
 10
13.2179
 20
-273.303
 11
13.5267
 21
-272.798
  0
LINE
  8
0
 10
13.5267
 20
-272.798
 11
17.3764
 21
-265.558
  0
LINE
  8
0
 10
17.3764
 20
-265.558
 11
17.6222
 21
-265.02
  0
LINE
  8
0
 10
17.6222
 20
-265.02
 11
17.8012
 21
-264.456
  0
LINE
  8
0
 10
17.8012
 20
-264.456
 11
17.911
 21
-263.874
  0
LINE
  8
0
 10
17.911
 20
-263.874
 11
17.9499
 21
-263.284
  0
LINE
  8
0
 10
17.9499
 20
-263.284
 11
17.9174
 21
-262.693
  0
LINE
  8
0
 10
17.9174
 20
-262.693
 11
17.8138
 21
-262.11
  0
LINE
  8
0
 10
17.8138
 20
-262.11
 11
17.6408
 21
-261.545
  0
LINE
  8
0
 10
17.6408
 20
-261.545
 11
17.4009
 21
-261.004
  0
LINE
  8
0
 10
17.4009
 20
-261.004
 11
17.0975
 21
-260.496
  0
LINE
  8
0
 10
17.0975
 20
-260.496
 11
16.7351
 21
-260.028
  0
LINE
  8
0
 10
16.7351
 20
-260.028
 11
16.3189
 21
-259.607
  0
LINE
  8
0
 10
16.3189
 20
-259.607
 11
15.8551
 21
-259.24
  0
LINE
  8
0
 10
15.8551
 20
-259.24
 11
15.3504
 21
-258.931
  0
LINE
  8
0
 10
15.3504
 20
-258.931
 11
8.1985
 21
-255.128
  0
LINE
  8
0
 10
8.1985
 20
-255.128
 11
12.0012
 21
-247.977
  0
LINE
  8
0
 10
12.0012
 20
-247.977
 11
12.2469
 21
-247.438
  0
LINE
  8
0
 10
12.2469
 20
-247.438
 11
12.426
 21
-246.874
  0
LINE
  8
0
 10
12.426
 20
-246.874
 11
12.5358
 21
-246.293
  0
LINE
  8
0
 10
12.5358
 20
-246.293
 11
12.5747
 21
-245.702
  0
LINE
  8
0
 10
12.5747
 20
-245.702
 11
12.5421
 21
-245.112
  0
LINE
  8
0
 10
12.5421
 20
-245.112
 11
12.4386
 21
-244.529
  0
LINE
  8
0
 10
12.4386
 20
-244.529
 11
12.2656
 21
-243.963
  0
LINE
  8
0
 10
12.2656
 20
-243.963
 11
12.0257
 21
-243.422
  0
LINE
  8
0
 10
12.0257
 20
-243.422
 11
11.7223
 21
-242.914
  0
LINE
  8
0
 10
11.7223
 20
-242.914
 11
11.3599
 21
-242.447
  0
LINE
  8
0
 10
11.3599
 20
-242.447
 11
10.9437
 21
-242.026
  0
LINE
  8
0
 10
10.9437
 20
-242.026
 11
10.4799
 21
-241.659
  0
LINE
  8
0
 10
10.4799
 20
-241.659
 11
9.97517
 21
-241.35
  0
LINE
  8
0
 10
9.97517
 20
-241.35
 11
2.73502
 21
-237.5
  0
LINE
  8
0
 10
2.73502
 20
-237.5
 11
2.19675
 21
-237.254
  0
LINE
  8
0
 10
2.19675
 20
-237.254
 11
1.63278
 21
-237.075
  0
LINE
  8
0
 10
1.63278
 20
-237.075
 11
1.05135
 21
-236.965
  0
LINE
  8
0
 10
1.05135
 20
-236.965
 11
0.460907
 21
-236.927
  0
LINE
  8
0
 10
0.460907
 20
-236.927
 11
-0.129883
 21
-236.959
  0
LINE
  8
0
 10
-0.129883
 20
-236.959
 11
-0.712448
 21
-237.063
  0
LINE
  8
0
 10
-0.712448
 20
-237.063
 11
-1.27832
 21
-237.236
  0
LINE
  8
0
 10
-1.27832
 20
-237.236
 11
-1.81918
 21
-237.476
  0
LINE
  8
0
 10
-1.81918
 20
-237.476
 11
-2.32719
 21
-237.779
  0
LINE
  8
0
 10
-2.32719
 20
-237.779
 11
-2.79494
 21
-238.141
  0
LINE
  8
0
 10
-2.79494
 20
-238.141
 11
-3.21558
 21
-238.557
  0
LINE
  8
0
 10
-3.21558
 20
-238.557
 11
-3.58299
 21
-239.021
  0
LINE
  8
0
 10
-3.58299
 20
-239.021
 11
-3.89182
 21
-239.526
  0
LINE
  8
0
 10
-3.89182
 20
-239.526
 11
-7.69453
 21
-246.678
  0
LINE
  8
0
 10
-7.69453
 20
-246.678
 11
-14.8464
 21
-242.875
  0
LINE
  8
0
 10
-14.8464
 20
-242.875
 11
-15.3847
 21
-242.629
  0
LINE
  8
0
 10
-15.3847
 20
-242.629
 11
-15.9486
 21
-242.45
  0
LINE
  8
0
 10
-15.9486
 20
-242.45
 11
-16.5301
 21
-242.341
  0
LINE
  8
0
 10
-16.5301
 20
-242.341
 11
-17.1205
 21
-242.302
  0
LINE
  8
0
 10
-17.1205
 20
-242.302
 11
-17.7113
 21
-242.334
  0
LINE
  8
0
 10
-17.7113
 20
-242.334
 11
-18.2939
 21
-242.438
  0
LINE
  8
0
 10
-18.2939
 20
-242.438
 11
-18.8598
 21
-242.611
  0
LINE
  8
0
 10
-18.8598
 20
-242.611
 11
-19.4006
 21
-242.851
  0
LINE
  8
0
 10
-19.4006
 20
-242.851
 11
-19.9086
 21
-243.154
  0
LINE
  8
0
 10
-19.9086
 20
-243.154
 11
-20.3764
 21
-243.517
  0
LINE
  8
0
 10
-20.3764
 20
-243.517
 11
-20.797
 21
-243.933
  0
LINE
  8
0
 10
-20.797
 20
-243.933
 11
-21.1644
 21
-244.396
  0
LINE
  8
0
 10
-21.1644
 20
-244.396
 11
-21.4733
 21
-244.901
  0
LINE
  8
0
 10
-21.4733
 20
-244.901
 11
-22.9286
 21
-247.638
  0
LINE
  8
0
 10
-22.9286
 20
-247.638
 11
-27.3434
 21
-245.291
  0
LINE
  8
0
 10
-27.3434
 20
-245.291
 11
-28.2823
 21
-247.057
  0
LINE
  8
0
 10
-28.2823
 20
-247.057
 11
-23.8676
 21
-249.404
  0
LINE
  8
0
 10
-23.8676
 20
-249.404
 11
-25.3229
 21
-252.141
  0
LINE
  8
0
 10
-25.3229
 20
-252.141
 11
-25.5687
 21
-252.68
  0
LINE
  8
0
 10
-25.5687
 20
-252.68
 11
-25.7477
 21
-253.244
  0
LINE
  8
0
 10
-25.7477
 20
-253.244
 11
-25.8575
 21
-253.825
  0
LINE
  8
0
 10
-25.8575
 20
-253.825
 11
-25.8964
 21
-254.415
  0
LINE
  8
0
 10
-25.8964
 20
-254.415
 11
-25.8639
 21
-255.006
  0
LINE
  8
0
 10
-25.8639
 20
-255.006
 11
-25.7603
 21
-255.589
  0
LINE
  8
0
 10
-25.7603
 20
-255.589
 11
-25.5873
 21
-256.155
  0
LINE
  8
0
 10
-25.5873
 20
-256.155
 11
-25.3474
 21
-256.696
  0
LINE
  8
0
 10
-25.3474
 20
-256.696
 11
-25.044
 21
-257.204
  0
LINE
  8
0
 10
-25.044
 20
-257.204
 11
-24.6816
 21
-257.671
  0
LINE
  8
0
 10
-24.6816
 20
-257.671
 11
-24.2654
 21
-258.092
  0
LINE
  8
0
 10
-24.2654
 20
-258.092
 11
-23.8016
 21
-258.459
  0
LINE
  8
0
 10
-23.8016
 20
-258.459
 11
-23.2969
 21
-258.768
  0
LINE
  8
0
 10
-23.2969
 20
-258.768
 11
-16.145
 21
-262.571
  0
LINE
  8
0
 10
-16.145
 20
-262.571
 11
-19.9477
 21
-269.723
  0
LINE
  8
0
 10
-19.9477
 20
-269.723
 11
-20.1935
 21
-270.261
  0
LINE
  8
0
 10
-20.1935
 20
-270.261
 11
-20.3726
 21
-270.825
  0
LINE
  8
0
 10
-20.3726
 20
-270.825
 11
-20.4823
 21
-271.407
  0
LINE
  8
0
 10
-20.4823
 20
-271.407
 11
-20.5212
 21
-271.997
  0
LINE
  8
0
 10
-20.5212
 20
-271.997
 11
-20.4887
 21
-272.588
  0
LINE
  8
0
 10
-20.4887
 20
-272.588
 11
-20.3851
 21
-273.17
  0
LINE
  8
0
 10
-20.3851
 20
-273.17
 11
-20.2122
 21
-273.736
  0
LINE
  8
0
 10
-20.2122
 20
-273.736
 11
-19.9722
 21
-274.277
  0
LINE
  8
0
 10
-19.9722
 20
-274.277
 11
-19.6688
 21
-274.785
  0
LINE
  8
0
 10
-19.6688
 20
-274.785
 11
-19.3064
 21
-275.253
  0
LINE
  8
0
 10
-19.3064
 20
-275.253
 11
-18.8903
 21
-275.673
  0
LINE
  8
0
 10
-18.8903
 20
-275.673
 11
-18.4265
 21
-276.041
  0
LINE
  8
0
 10
-18.4265
 20
-276.041
 11
-17.9217
 21
-276.35
  0
LINE
  8
0
 10
-17.9217
 20
-276.35
 11
-10.6815
 21
-280.199
  0
LINE
  8
0
 10
-10.6815
 20
-280.199
 11
-10.1433
 21
-280.445
  0
LINE
  8
0
 10
-10.1433
 20
-280.445
 11
-9.57932
 21
-280.624
  0
LINE
  8
0
 10
-9.57932
 20
-280.624
 11
-8.99788
 21
-280.734
  0
LINE
  8
0
 10
-8.99788
 20
-280.734
 11
-8.40746
 21
-280.773
  0
LINE
  8
0
 10
-8.40746
 20
-280.773
 11
-7.81664
 21
-280.74
  0
LINE
  8
0
 10
2.12985
 20
-247.371
 11
1.41675
 21
-246.733
  0
LINE
  8
0
 10
1.41675
 20
-246.733
 11
1.08211
 21
-245.836
  0
LINE
  8
0
 10
1.08211
 20
-245.836
 11
1.20259
 21
-244.886
  0
LINE
  8
0
 10
1.20259
 20
-244.886
 11
1.7506
 21
-244.101
  0
LINE
  8
0
 10
1.7506
 20
-244.101
 11
2.6006
 21
-243.661
  0
LINE
  8
0
 10
2.6006
 20
-243.661
 11
3.55786
 21
-243.666
  0
LINE
  8
0
 10
3.55786
 20
-243.666
 11
4.40306
 21
-244.116
  0
LINE
  8
0
 10
4.40306
 20
-244.116
 11
4.9426
 21
-244.906
  0
LINE
  8
0
 10
4.9426
 20
-244.906
 11
5.05289
 21
-245.857
  0
LINE
  8
0
 10
5.05289
 20
-245.857
 11
4.70863
 21
-246.75
  0
LINE
  8
0
 10
4.70863
 20
-246.75
 11
3.98872
 21
-247.381
  0
LINE
  8
0
 10
3.98872
 20
-247.381
 11
3.05806
 21
-247.605
  0
LINE
  8
0
 10
3.05806
 20
-247.605
 11
2.12985
 21
-247.371
  0
LINE
  8
0
 10
-18.3624
 20
-253.447
 11
-18.9933
 21
-252.728
  0
LINE
  8
0
 10
-18.9933
 20
-252.728
 11
-19.2174
 21
-251.797
  0
LINE
  8
0
 10
-19.2174
 20
-251.797
 11
-18.9834
 21
-250.869
  0
LINE
  8
0
 10
-18.9834
 20
-250.869
 11
-18.3447
 21
-250.156
  0
LINE
  8
0
 10
-18.3447
 20
-250.156
 11
-17.4479
 21
-249.821
  0
LINE
  8
0
 10
-17.4479
 20
-249.821
 11
-16.4982
 21
-249.941
  0
LINE
  8
0
 10
-16.4982
 20
-249.941
 11
-15.7133
 21
-250.489
  0
LINE
  8
0
 10
-15.7133
 20
-250.489
 11
-15.273
 21
-251.339
  0
LINE
  8
0
 10
-15.273
 20
-251.339
 11
-15.2782
 21
-252.297
  0
LINE
  8
0
 10
-15.2782
 20
-252.297
 11
-15.7276
 21
-253.142
  0
LINE
  8
0
 10
-15.7276
 20
-253.142
 11
-16.5183
 21
-253.681
  0
LINE
  8
0
 10
-16.5183
 20
-253.681
 11
-17.4692
 21
-253.792
  0
LINE
  8
0
 10
-17.4692
 20
-253.792
 11
-18.3624
 21
-253.447
  0
LINE
  8
0
 10
8.12601
 20
-267.532
 11
7.49507
 21
-266.812
  0
LINE
  8
0
 10
7.49507
 20
-266.812
 11
7.27098
 21
-265.881
  0
LINE
  8
0
 10
7.27098
 20
-265.881
 11
7.50505
 21
-264.953
  0
LINE
  8
0
 10
7.50505
 20
-264.953
 11
8.14368
 21
-264.24
  0
LINE
  8
0
 10
8.14368
 20
-264.24
 11
9.04054
 21
-263.905
  0
LINE
  8
0
 10
9.04054
 20
-263.905
 11
9.9902
 21
-264.026
  0
LINE
  8
0
 10
9.9902
 20
-264.026
 11
10.7751
 21
-264.574
  0
LINE
  8
0
 10
10.7751
 20
-264.574
 11
11.2154
 21
-265.424
  0
LINE
  8
0
 10
11.2154
 20
-265.424
 11
11.2102
 21
-266.381
  0
LINE
  8
0
 10
11.2102
 20
-266.381
 11
10.7608
 21
-267.226
  0
LINE
  8
0
 10
10.7608
 20
-267.226
 11
9.97011
 21
-267.766
  0
LINE
  8
0
 10
9.97011
 20
-267.766
 11
9.01921
 21
-267.876
  0
LINE
  8
0
 10
9.01921
 20
-267.876
 11
8.12601
 21
-267.532
  0
LINE
  8
0
 10
-11.9543
 20
-273.86
 11
-12.6674
 21
-273.221
  0
LINE
  8
0
 10
-12.6674
 20
-273.221
 11
-13.002
 21
-272.324
  0
LINE
  8
0
 10
-13.002
 20
-272.324
 11
-12.8815
 21
-271.375
  0
LINE
  8
0
 10
-12.8815
 20
-271.375
 11
-12.3335
 21
-270.59
  0
LINE
  8
0
 10
-12.3335
 20
-270.59
 11
-11.4835
 21
-270.149
  0
LINE
  8
0
 10
-11.4835
 20
-270.149
 11
-10.5263
 21
-270.155
  0
LINE
  8
0
 10
-10.5263
 20
-270.155
 11
-9.68106
 21
-270.604
  0
LINE
  8
0
 10
-9.68106
 20
-270.604
 11
-9.14153
 21
-271.395
  0
LINE
  8
0
 10
-9.14153
 20
-271.395
 11
-9.03123
 21
-272.346
  0
LINE
  8
0
 10
-9.03123
 20
-272.346
 11
-9.37549
 21
-273.239
  0
LINE
  8
0
 10
-9.37549
 20
-273.239
 11
-10.0954
 21
-273.87
  0
LINE
  8
0
 10
-10.0954
 20
-273.87
 11
-11.0261
 21
-274.094
  0
LINE
  8
0
 10
-11.0261
 20
-274.094
 11
-11.9543
 21
-273.86
  0
LINE
  8
0
 10
98.0212
 20
-288.544
 11
98.6071
 21
-288.461
  0
LINE
  8
0
 10
98.6071
 20
-288.461
 11
99.1786
 21
-288.308
  0
LINE
  8
0
 10
99.1786
 20
-288.308
 11
99.7275
 21
-288.087
  0
LINE
  8
0
 10
99.7275
 20
-288.087
 11
100.246
 21
-287.802
  0
LINE
  8
0
 10
100.246
 20
-287.802
 11
100.726
 21
-287.456
  0
LINE
  8
0
 10
100.726
 20
-287.456
 11
101.161
 21
-287.055
  0
LINE
  8
0
 10
101.161
 20
-287.055
 11
101.544
 21
-286.604
  0
LINE
  8
0
 10
101.544
 20
-286.604
 11
101.87
 21
-286.11
  0
LINE
  8
0
 10
101.87
 20
-286.11
 11
105.92
 21
-279.095
  0
LINE
  8
0
 10
105.92
 20
-279.095
 11
112.935
 21
-283.145
  0
LINE
  8
0
 10
112.935
 20
-283.145
 11
113.465
 21
-283.41
  0
LINE
  8
0
 10
113.465
 20
-283.41
 11
114.022
 21
-283.608
  0
LINE
  8
0
 10
114.022
 20
-283.608
 11
114.599
 21
-283.738
  0
LINE
  8
0
 10
114.599
 20
-283.738
 11
115.188
 21
-283.798
  0
LINE
  8
0
 10
115.188
 20
-283.798
 11
115.78
 21
-283.786
  0
LINE
  8
0
 10
115.78
 20
-283.786
 11
116.365
 21
-283.703
  0
LINE
  8
0
 10
116.365
 20
-283.703
 11
116.937
 21
-283.55
  0
LINE
  8
0
 10
116.937
 20
-283.55
 11
117.486
 21
-283.329
  0
LINE
  8
0
 10
117.486
 20
-283.329
 11
118.004
 21
-283.043
  0
LINE
  8
0
 10
118.004
 20
-283.043
 11
118.484
 21
-282.698
  0
LINE
  8
0
 10
118.484
 20
-282.698
 11
118.919
 21
-282.296
  0
LINE
  8
0
 10
118.919
 20
-282.296
 11
119.303
 21
-281.846
  0
LINE
  8
0
 10
119.303
 20
-281.846
 11
119.629
 21
-281.352
  0
LINE
  8
0
 10
119.629
 20
-281.352
 11
121.179
 21
-278.667
  0
LINE
  8
0
 10
121.179
 20
-278.667
 11
125.509
 21
-281.167
  0
LINE
  8
0
 10
125.509
 20
-281.167
 11
126.509
 21
-279.435
  0
LINE
  8
0
 10
126.509
 20
-279.435
 11
122.179
 21
-276.935
  0
LINE
  8
0
 10
122.179
 20
-276.935
 11
123.729
 21
-274.251
  0
LINE
  8
0
 10
123.729
 20
-274.251
 11
123.993
 21
-273.721
  0
LINE
  8
0
 10
123.993
 20
-273.721
 11
124.192
 21
-273.164
  0
LINE
  8
0
 10
124.192
 20
-273.164
 11
124.322
 21
-272.587
  0
LINE
  8
0
 10
124.322
 20
-272.587
 11
124.381
 21
-271.998
  0
LINE
  8
0
 10
124.381
 20
-271.998
 11
124.369
 21
-271.406
  0
LINE
  8
0
 10
124.369
 20
-271.406
 11
124.286
 21
-270.82
  0
LINE
  8
0
 10
124.286
 20
-270.82
 11
124.133
 21
-270.249
  0
LINE
  8
0
 10
124.133
 20
-270.249
 11
123.912
 21
-269.7
  0
LINE
  8
0
 10
123.912
 20
-269.7
 11
123.627
 21
-269.182
  0
LINE
  8
0
 10
123.627
 20
-269.182
 11
123.281
 21
-268.702
  0
LINE
  8
0
 10
123.281
 20
-268.702
 11
122.88
 21
-268.267
  0
LINE
  8
0
 10
122.88
 20
-268.267
 11
122.429
 21
-267.883
  0
LINE
  8
0
 10
122.429
 20
-267.883
 11
121.935
 21
-267.557
  0
LINE
  8
0
 10
121.935
 20
-267.557
 11
114.92
 21
-263.507
  0
LINE
  8
0
 10
114.92
 20
-263.507
 11
118.97
 21
-256.492
  0
LINE
  8
0
 10
118.97
 20
-256.492
 11
119.235
 21
-255.963
  0
LINE
  8
0
 10
119.235
 20
-255.963
 11
119.433
 21
-255.405
  0
LINE
  8
0
 10
119.433
 20
-255.405
 11
119.563
 21
-254.828
  0
LINE
  8
0
 10
119.563
 20
-254.828
 11
119.623
 21
-254.24
  0
LINE
  8
0
 10
119.623
 20
-254.24
 11
119.611
 21
-253.648
  0
LINE
  8
0
 10
119.611
 20
-253.648
 11
119.528
 21
-253.062
  0
LINE
  8
0
 10
119.528
 20
-253.062
 11
119.375
 21
-252.491
  0
LINE
  8
0
 10
119.375
 20
-252.491
 11
119.154
 21
-251.942
  0
LINE
  8
0
 10
119.154
 20
-251.942
 11
118.868
 21
-251.423
  0
LINE
  8
0
 10
118.868
 20
-251.423
 11
118.523
 21
-250.943
  0
LINE
  8
0
 10
118.523
 20
-250.943
 11
118.121
 21
-250.508
  0
LINE
  8
0
 10
118.121
 20
-250.508
 11
117.671
 21
-250.125
  0
LINE
  8
0
 10
117.671
 20
-250.125
 11
117.177
 21
-249.799
  0
LINE
  8
0
 10
117.177
 20
-249.799
 11
110.076
 21
-245.699
  0
LINE
  8
0
 10
110.076
 20
-245.699
 11
109.546
 21
-245.434
  0
LINE
  8
0
 10
109.546
 20
-245.434
 11
108.989
 21
-245.236
  0
LINE
  8
0
 10
108.989
 20
-245.236
 11
108.412
 21
-245.106
  0
LINE
  8
0
 10
108.412
 20
-245.106
 11
107.823
 21
-245.046
  0
LINE
  8
0
 10
107.823
 20
-245.046
 11
107.231
 21
-245.058
  0
LINE
  8
0
 10
107.231
 20
-245.058
 11
106.645
 21
-245.141
  0
LINE
  8
0
 10
106.645
 20
-245.141
 11
106.074
 21
-245.294
  0
LINE
  8
0
 10
106.074
 20
-245.294
 11
105.525
 21
-245.515
  0
LINE
  8
0
 10
105.525
 20
-245.515
 11
105.007
 21
-245.801
  0
LINE
  8
0
 10
105.007
 20
-245.801
 11
104.527
 21
-246.147
  0
LINE
  8
0
 10
104.527
 20
-246.147
 11
104.092
 21
-246.548
  0
LINE
  8
0
 10
104.092
 20
-246.548
 11
103.708
 21
-246.999
  0
LINE
  8
0
 10
103.708
 20
-246.999
 11
103.382
 21
-247.492
  0
LINE
  8
0
 10
103.382
 20
-247.492
 11
99.332
 21
-254.507
  0
LINE
  8
0
 10
99.332
 20
-254.507
 11
92.3172
 21
-250.457
  0
LINE
  8
0
 10
92.3172
 20
-250.457
 11
91.7878
 21
-250.193
  0
LINE
  8
0
 10
91.7878
 20
-250.193
 11
91.2305
 21
-249.994
  0
LINE
  8
0
 10
91.2305
 20
-249.994
 11
90.6532
 21
-249.864
  0
LINE
  8
0
 10
90.6532
 20
-249.864
 11
90.0645
 21
-249.805
  0
LINE
  8
0
 10
90.0645
 20
-249.805
 11
89.4729
 21
-249.816
  0
LINE
  8
0
 10
89.4729
 20
-249.816
 11
88.8871
 21
-249.9
  0
LINE
  8
0
 10
88.8871
 20
-249.9
 11
88.3155
 21
-250.053
  0
LINE
  8
0
 10
88.3155
 20
-250.053
 11
87.7666
 21
-250.274
  0
LINE
  8
0
 10
87.7666
 20
-250.274
 11
87.2483
 21
-250.559
  0
LINE
  8
0
 10
87.2483
 20
-250.559
 11
86.7682
 21
-250.905
  0
LINE
  8
0
 10
86.7682
 20
-250.905
 11
86.3333
 21
-251.306
  0
LINE
  8
0
 10
86.3333
 20
-251.306
 11
85.9499
 21
-251.757
  0
LINE
  8
0
 10
85.9499
 20
-251.757
 11
85.6237
 21
-252.251
  0
LINE
  8
0
 10
85.6237
 20
-252.251
 11
84.0737
 21
-254.935
  0
LINE
  8
0
 10
84.0737
 20
-254.935
 11
79.7435
 21
-252.435
  0
LINE
  8
0
 10
79.7435
 20
-252.435
 11
78.7435
 21
-254.167
  0
LINE
  8
0
 10
78.7435
 20
-254.167
 11
83.0737
 21
-256.667
  0
LINE
  8
0
 10
83.0737
 20
-256.667
 11
81.5237
 21
-259.352
  0
LINE
  8
0
 10
81.5237
 20
-259.352
 11
81.2593
 21
-259.881
  0
LINE
  8
0
 10
81.2593
 20
-259.881
 11
81.0607
 21
-260.439
  0
LINE
  8
0
 10
81.0607
 20
-260.439
 11
80.9307
 21
-261.016
  0
LINE
  8
0
 10
80.9307
 20
-261.016
 11
80.8712
 21
-261.605
  0
LINE
  8
0
 10
80.8712
 20
-261.605
 11
80.8831
 21
-262.196
  0
LINE
  8
0
 10
80.8831
 20
-262.196
 11
80.9662
 21
-262.782
  0
LINE
  8
0
 10
80.9662
 20
-262.782
 11
81.1194
 21
-263.354
  0
LINE
  8
0
 10
81.1194
 20
-263.354
 11
81.3403
 21
-263.903
  0
LINE
  8
0
 10
81.3403
 20
-263.903
 11
81.6258
 21
-264.421
  0
LINE
  8
0
 10
81.6258
 20
-264.421
 11
81.9716
 21
-264.901
  0
LINE
  8
0
 10
81.9716
 20
-264.901
 11
82.3728
 21
-265.336
  0
LINE
  8
0
 10
82.3728
 20
-265.336
 11
82.8236
 21
-265.719
  0
LINE
  8
0
 10
82.8236
 20
-265.719
 11
83.3172
 21
-266.045
  0
LINE
  8
0
 10
83.3172
 20
-266.045
 11
90.332
 21
-270.096
  0
LINE
  8
0
 10
90.332
 20
-270.096
 11
86.282
 21
-277.11
  0
LINE
  8
0
 10
86.282
 20
-277.11
 11
86.0177
 21
-277.64
  0
LINE
  8
0
 10
86.0177
 20
-277.64
 11
85.819
 21
-278.197
  0
LINE
  8
0
 10
85.819
 20
-278.197
 11
85.689
 21
-278.774
  0
LINE
  8
0
 10
85.689
 20
-278.774
 11
85.6295
 21
-279.363
  0
LINE
  8
0
 10
85.6295
 20
-279.363
 11
85.6414
 21
-279.955
  0
LINE
  8
0
 10
85.6414
 20
-279.955
 11
85.7246
 21
-280.54
  0
LINE
  8
0
 10
85.7246
 20
-280.54
 11
85.8777
 21
-281.112
  0
LINE
  8
0
 10
85.8777
 20
-281.112
 11
86.0986
 21
-281.661
  0
LINE
  8
0
 10
86.0986
 20
-281.661
 11
86.3841
 21
-282.179
  0
LINE
  8
0
 10
86.3841
 20
-282.179
 11
86.73
 21
-282.659
  0
LINE
  8
0
 10
86.73
 20
-282.659
 11
87.1312
 21
-283.094
  0
LINE
  8
0
 10
87.1312
 20
-283.094
 11
87.5819
 21
-283.478
  0
LINE
  8
0
 10
87.5819
 20
-283.478
 11
88.0755
 21
-283.804
  0
LINE
  8
0
 10
88.0755
 20
-283.804
 11
95.1769
 21
-287.904
  0
LINE
  8
0
 10
95.1769
 20
-287.904
 11
95.7063
 21
-288.168
  0
LINE
  8
0
 10
95.7063
 20
-288.168
 11
96.2637
 21
-288.367
  0
LINE
  8
0
 10
96.2637
 20
-288.367
 11
96.8409
 21
-288.497
  0
LINE
  8
0
 10
96.8409
 20
-288.497
 11
97.4297
 21
-288.556
  0
LINE
  8
0
 10
97.4297
 20
-288.556
 11
98.0212
 21
-288.544
  0
LINE
  8
0
 10
109.126
 20
-255.543
 11
108.436
 21
-254.88
  0
LINE
  8
0
 10
108.436
 20
-254.88
 11
108.133
 21
-253.972
  0
LINE
  8
0
 10
108.133
 20
-253.972
 11
108.286
 21
-253.027
  0
LINE
  8
0
 10
108.286
 20
-253.027
 11
108.861
 21
-252.262
  0
LINE
  8
0
 10
108.861
 20
-252.262
 11
109.726
 21
-251.851
  0
LINE
  8
0
 10
109.726
 20
-251.851
 11
110.683
 21
-251.89
  0
LINE
  8
0
 10
110.683
 20
-251.89
 11
111.512
 21
-252.368
  0
LINE
  8
0
 10
111.512
 20
-252.368
 11
112.023
 21
-253.178
  0
LINE
  8
0
 10
112.023
 20
-253.178
 11
112.1
 21
-254.132
  0
LINE
  8
0
 10
112.1
 20
-254.132
 11
111.725
 21
-255.012
  0
LINE
  8
0
 10
111.725
 20
-255.012
 11
110.984
 21
-255.618
  0
LINE
  8
0
 10
110.984
 20
-255.618
 11
110.046
 21
-255.809
  0
LINE
  8
0
 10
110.046
 20
-255.809
 11
109.126
 21
-255.543
  0
LINE
  8
0
 10
88.8519
 20
-261.141
 11
88.0866
 21
-260.566
  0
LINE
  8
0
 10
88.0866
 20
-260.566
 11
87.6763
 21
-259.701
  0
LINE
  8
0
 10
87.6763
 20
-259.701
 11
87.7148
 21
-258.745
  0
LINE
  8
0
 10
87.7148
 20
-258.745
 11
88.1934
 21
-257.916
  0
LINE
  8
0
 10
88.1934
 20
-257.916
 11
89.0025
 21
-257.404
  0
LINE
  8
0
 10
89.0025
 20
-257.404
 11
89.9567
 21
-257.327
  0
LINE
  8
0
 10
89.9567
 20
-257.327
 11
90.8373
 21
-257.702
  0
LINE
  8
0
 10
90.8373
 20
-257.702
 11
91.4427
 21
-258.444
  0
LINE
  8
0
 10
91.4427
 20
-258.444
 11
91.6342
 21
-259.382
  0
LINE
  8
0
 10
91.6342
 20
-259.382
 11
91.3679
 21
-260.301
  0
LINE
  8
0
 10
91.3679
 20
-260.301
 11
90.7048
 21
-260.992
  0
LINE
  8
0
 10
90.7048
 20
-260.992
 11
89.7968
 21
-261.295
  0
LINE
  8
0
 10
89.7968
 20
-261.295
 11
88.8519
 21
-261.141
  0
LINE
  8
0
 10
114.833
 20
-276.141
 11
114.067
 21
-275.566
  0
LINE
  8
0
 10
114.067
 20
-275.566
 11
113.657
 21
-274.701
  0
LINE
  8
0
 10
113.657
 20
-274.701
 11
113.696
 21
-273.745
  0
LINE
  8
0
 10
113.696
 20
-273.745
 11
114.174
 21
-272.916
  0
LINE
  8
0
 10
114.174
 20
-272.916
 11
114.983
 21
-272.404
  0
LINE
  8
0
 10
114.983
 20
-272.404
 11
115.937
 21
-272.327
  0
LINE
  8
0
 10
115.937
 20
-272.327
 11
116.818
 21
-272.702
  0
LINE
  8
0
 10
116.818
 20
-272.702
 11
117.424
 21
-273.444
  0
LINE
  8
0
 10
117.424
 20
-273.444
 11
117.615
 21
-274.382
  0
LINE
  8
0
 10
117.615
 20
-274.382
 11
117.349
 21
-275.301
  0
LINE
  8
0
 10
117.349
 20
-275.301
 11
116.686
 21
-275.992
  0
LINE
  8
0
 10
116.686
 20
-275.992
 11
115.778
 21
-276.295
  0
LINE
  8
0
 10
115.778
 20
-276.295
 11
114.833
 21
-276.141
  0
LINE
  8
0
 10
94.1262
 20
-281.524
 11
93.4359
 21
-280.861
  0
LINE
  8
0
 10
93.4359
 20
-280.861
 11
93.1327
 21
-279.953
  0
LINE
  8
0
 10
93.1327
 20
-279.953
 11
93.2863
 21
-279.008
  0
LINE
  8
0
 10
93.2863
 20
-279.008
 11
93.8614
 21
-278.242
  0
LINE
  8
0
 10
93.8614
 20
-278.242
 11
94.7262
 21
-277.832
  0
LINE
  8
0
 10
94.7262
 20
-277.832
 11
95.6827
 21
-277.871
  0
LINE
  8
0
 10
95.6827
 20
-277.871
 11
96.5117
 21
-278.349
  0
LINE
  8
0
 10
96.5117
 20
-278.349
 11
97.0233
 21
-279.158
  0
LINE
  8
0
 10
97.0233
 20
-279.158
 11
97.1003
 21
-280.112
  0
LINE
  8
0
 10
97.1003
 20
-280.112
 11
96.7251
 21
-280.993
  0
LINE
  8
0
 10
96.7251
 20
-280.993
 11
95.9836
 21
-281.599
  0
LINE
  8
0
 10
95.9836
 20
-281.599
 11
95.0457
 21
-281.79
  0
LINE
  8
0
 10
95.0457
 20
-281.79
 11
94.1262
 21
-281.524
  0
ENDSEC
  0
SECTION
  2
OBJECTS
  0
DICTIONARY
  0
ENDSEC
  0
EOF
