  0
SECTION
  2
BLOCKS
  0
ENDSEC
  0
SECTION
  2
ENTITIES
  0
LINE
  8
0
 10
-13.3409
 20
-1.82697
 11
-12.7637
 21
-1.69696
  0
LINE
  8
0
 10
-12.7637
 20
-1.69696
 11
-12.2063
 21
-1.49832
  0
LINE
  8
0
 10
-12.2063
 20
-1.49832
 11
-11.6769
 21
-1.23395
  0
LINE
  8
0
 10
-11.6769
 20
-1.23395
 11
-4.57553
 21
2.86603
  0
LINE
  8
0
 10
-4.57553
 20
2.86603
 11
-4.08189
 21
3.19229
  0
LINE
  8
0
 10
-4.08189
 20
3.19229
 11
-3.6312
 21
3.57568
  0
LINE
  8
0
 10
-3.6312
 20
3.57568
 11
-3.22998
 21
4.01059
  0
LINE
  8
0
 10
-3.22998
 20
4.01059
 11
-2.88411
 21
4.49069
  0
LINE
  8
0
 10
-2.88411
 20
4.49069
 11
-2.59863
 21
5.00897
  0
LINE
  8
0
 10
-2.59863
 20
5.00897
 11
-2.37773
 21
5.55788
  0
LINE
  8
0
 10
-2.37773
 20
5.55788
 11
-2.22458
 21
6.12944
  0
LINE
  8
0
 10
-2.22458
 20
6.12944
 11
-2.14143
 21
6.71527
  0
LINE
  8
0
 10
-2.14143
 20
6.71527
 11
-2.12953
 21
7.30685
  0
LINE
  8
0
 10
-2.12953
 20
7.30685
 11
-2.18901
 21
7.89557
  0
LINE
  8
0
 10
-2.18901
 20
7.89557
 11
-2.31902
 21
8.47281
  0
LINE
  8
0
 10
-2.31902
 20
8.47281
 11
-2.51765
 21
9.03018
  0
LINE
  8
0
 10
-2.51765
 20
9.03018
 11
-2.78203
 21
9.55956
  0
LINE
  8
0
 10
-2.78203
 20
9.55956
 11
-6.83202
 21
16.5744
  0
LINE
  8
0
 10
-6.83202
 20
16.5744
 11
0.182785
 21
20.6244
  0
LINE
  8
0
 10
0.182785
 20
20.6244
 11
0.676422
 21
20.9506
  0
LINE
  8
0
 10
0.676422
 20
20.9506
 11
1.12714
 21
21.334
  0
LINE
  8
0
 10
1.12714
 20
21.334
 11
1.52835
 21
21.7689
  0
LINE
  8
0
 10
1.52835
 20
21.7689
 11
1.87422
 21
22.249
  0
LINE
  8
0
 10
1.87422
 20
22.249
 11
2.1597
 21
22.7673
  0
LINE
  8
0
 10
2.1597
 20
22.7673
 11
2.38062
 21
23.3162
  0
LINE
  8
0
 10
2.38062
 20
23.3162
 11
2.53377
 21
23.8878
  0
LINE
  8
0
 10
2.53377
 20
23.8878
 11
2.6169
 21
24.4736
  0
LINE
  8
0
 10
2.6169
 20
24.4736
 11
2.62881
 21
25.0652
  0
LINE
  8
0
 10
2.62881
 20
25.0652
 11
2.56932
 21
25.6539
  0
LINE
  8
0
 10
2.56932
 20
25.6539
 11
2.43933
 21
26.2312
  0
LINE
  8
0
 10
2.43933
 20
26.2312
 11
2.24069
 21
26.7885
  0
LINE
  8
0
 10
2.24069
 20
26.7885
 11
1.9763
 21
27.3179
  0
LINE
  8
0
 10
1.9763
 20
27.3179
 11
0.426315
 21
30.0026
  0
LINE
  8
0
 10
0.426315
 20
30.0026
 11
4.75644
 21
32.5026
  0
LINE
  8
0
 10
4.75644
 20
32.5026
 11
4.50642
 21
32.9356
  0
LINE
  8
0
 10
4.50642
 20
32.9356
 11
83.131
 21
78.3295
  0
LINE
  8
0
 10
83.131
 20
78.3295
 11
98
 21
76.7667
  0
LINE
  8
0
 10
98
 20
76.7667
 11
113.434
 21
78.3889
  0
LINE
  8
0
 10
113.434
 20
78.3889
 11
128.193
 21
83.1845
  0
LINE
  8
0
 10
128.193
 20
83.1845
 11
141.633
 21
90.944
  0
LINE
  8
0
 10
141.633
 20
90.944
 11
153.166
 21
101.328
  0
LINE
  8
0
 10
153.166
 20
101.328
 11
162.288
 21
113.883
  0
LINE
  8
0
 10
162.288
 20
113.883
 11
168.6
 21
128.061
  0
LINE
  8
0
 10
168.6
 20
128.061
 11
171.827
 21
143.24
  0
LINE
  8
0
 10
171.827
 20
143.24
 11
171.827
 21
158.759
  0
LINE
  8
0
 10
171.827
 20
158.759
 11
168.6
 21
173.939
  0
LINE
  8
0
 10
168.6
 20
173.939
 11
162.288
 21
188.117
  0
LINE
  8
0
 10
162.288
 20
188.117
 11
153.166
 21
200.672
  0
LINE
  8
0
 10
153.166
 20
200.672
 11
141.633
 21
211.056
  0
LINE
  8
0
 10
141.633
 20
211.056
 11
128.193
 21
218.816
  0
LINE
  8
0
 10
128.193
 20
218.816
 11
113.434
 21
223.611
  0
LINE
  8
0
 10
113.434
 20
223.611
 11
98
 21
225.233
  0
LINE
  8
0
 10
98
 20
225.233
 11
82.566
 21
223.611
  0
LINE
  8
0
 10
82.566
 20
223.611
 11
67.8066
 21
218.816
  0
LINE
  8
0
 10
67.8066
 20
218.816
 11
54.3667
 21
211.056
  0
LINE
  8
0
 10
54.3667
 20
211.056
 11
42.8339
 21
200.672
  0
LINE
  8
0
 10
42.8339
 20
200.672
 11
33.7121
 21
188.117
  0
LINE
  8
0
 10
33.7121
 20
188.117
 11
27.3999
 21
173.939
  0
LINE
  8
0
 10
27.3999
 20
173.939
 11
24.1733
 21
158.759
  0
LINE
  8
0
 10
24.1733
 20
158.759
 11
24.1733
 21
143.24
  0
LINE
  8
0
 10
24.1733
 20
143.24
 11
27.3999
 21
128.061
  0
LINE
  8
0
 10
27.3999
 20
128.061
 11
33.7121
 21
113.883
  0
LINE
  8
0
 10
33.7121
 20
113.883
 11
42.8339
 21
101.328
  0
LINE
  8
0
 10
42.8339
 20
101.328
 11
54.3667
 21
90.944
  0
LINE
  8
0
 10
54.3667
 20
90.944
 11
67.8066
 21
83.1845
  0
LINE
  8
0
 10
67.8066
 20
83.1845
 11
81.7135
 21
78.6658
  0
LINE
  8
0
 10
81.7135
 20
78.6658
 11
4.00642
 21
33.8016
  0
LINE
  8
0
 10
4.00642
 20
33.8016
 11
3.75644
 21
34.2346
  0
LINE
  8
0
 10
3.75644
 20
34.2346
 11
-0.573669
 21
31.7346
  0
LINE
  8
0
 10
-0.573669
 20
31.7346
 11
-2.12367
 21
34.4193
  0
LINE
  8
0
 10
-2.12367
 20
34.4193
 11
-2.44994
 21
34.9129
  0
LINE
  8
0
 10
-2.44994
 20
34.9129
 11
-2.83331
 21
35.3637
  0
LINE
  8
0
 10
-2.83331
 20
35.3637
 11
-3.26822
 21
35.7649
  0
LINE
  8
0
 10
-3.26822
 20
35.7649
 11
-3.74832
 21
36.1107
  0
LINE
  8
0
 10
-3.74832
 20
36.1107
 11
-4.2666
 21
36.3962
  0
LINE
  8
0
 10
-4.2666
 20
36.3962
 11
-4.81552
 21
36.6171
  0
LINE
  8
0
 10
-4.81552
 20
36.6171
 11
-5.38708
 21
36.7703
  0
LINE
  8
0
 10
-5.38708
 20
36.7703
 11
-5.9729
 21
36.8534
  0
LINE
  8
0
 10
-5.9729
 20
36.8534
 11
-6.5645
 21
36.8653
  0
LINE
  8
0
 10
-6.5645
 20
36.8653
 11
-7.15321
 21
36.8058
  0
LINE
  8
0
 10
-7.15321
 20
36.8058
 11
-7.73045
 21
36.6758
  0
LINE
  8
0
 10
-7.73045
 20
36.6758
 11
-8.28783
 21
36.4772
  0
LINE
  8
0
 10
-8.28783
 20
36.4772
 11
-8.8172
 21
36.2128
  0
LINE
  8
0
 10
-8.8172
 20
36.2128
 11
-15.832
 21
32.1628
  0
LINE
  8
0
 10
-15.832
 20
32.1628
 11
-19.882
 21
39.1776
  0
LINE
  8
0
 10
-19.882
 20
39.1776
 11
-20.2083
 21
39.6713
  0
LINE
  8
0
 10
-20.2083
 20
39.6713
 11
-20.5916
 21
40.122
  0
LINE
  8
0
 10
-20.5916
 20
40.122
 11
-21.0266
 21
40.5232
  0
LINE
  8
0
 10
-21.0266
 20
40.5232
 11
-21.5067
 21
40.869
  0
LINE
  8
0
 10
-21.5067
 20
40.869
 11
-22.0249
 21
41.1545
  0
LINE
  8
0
 10
-22.0249
 20
41.1545
 11
-22.5739
 21
41.3754
  0
LINE
  8
0
 10
-22.5739
 20
41.3754
 11
-23.1454
 21
41.5286
  0
LINE
  8
0
 10
-23.1454
 20
41.5286
 11
-23.7312
 21
41.6117
  0
LINE
  8
0
 10
-23.7312
 20
41.6117
 11
-24.3228
 21
41.6236
  0
LINE
  8
0
 10
-24.3228
 20
41.6236
 11
-24.9115
 21
41.5642
  0
LINE
  8
0
 10
-24.9115
 20
41.5642
 11
-25.4888
 21
41.4342
  0
LINE
  8
0
 10
-25.4888
 20
41.4342
 11
-26.0462
 21
41.2355
  0
LINE
  8
0
 10
-26.0462
 20
41.2355
 11
-26.5755
 21
40.9711
  0
LINE
  8
0
 10
-26.5755
 20
40.9711
 11
-33.6769
 21
36.8712
  0
LINE
  8
0
 10
-33.6769
 20
36.8712
 11
-34.1706
 21
36.5449
  0
LINE
  8
0
 10
-34.1706
 20
36.5449
 11
-34.6213
 21
36.1615
  0
LINE
  8
0
 10
-34.6213
 20
36.1615
 11
-35.0225
 21
35.7266
  0
LINE
  8
0
 10
-35.0225
 20
35.7266
 11
-35.3684
 21
35.2465
  0
LINE
  8
0
 10
-35.3684
 20
35.2465
 11
-35.6539
 21
34.7282
  0
LINE
  8
0
 10
-35.6539
 20
34.7282
 11
-35.8748
 21
34.1793
  0
LINE
  8
0
 10
-35.8748
 20
34.1793
 11
-36.0279
 21
33.6078
  0
LINE
  8
0
 10
-36.0279
 20
33.6078
 11
-36.1111
 21
33.0219
  0
LINE
  8
0
 10
-36.1111
 20
33.0219
 11
-36.123
 21
32.4303
  0
LINE
  8
0
 10
-36.123
 20
32.4303
 11
-36.0635
 21
31.8416
  0
LINE
  8
0
 10
-36.0635
 20
31.8416
 11
-35.9335
 21
31.2644
  0
LINE
  8
0
 10
-35.9335
 20
31.2644
 11
-35.7348
 21
30.707
  0
LINE
  8
0
 10
-35.7348
 20
30.707
 11
-35.4705
 21
30.1776
  0
LINE
  8
0
 10
-35.4705
 20
30.1776
 11
-31.4205
 21
23.1628
  0
LINE
  8
0
 10
-31.4205
 20
23.1628
 11
-38.4353
 21
19.1128
  0
LINE
  8
0
 10
-38.4353
 20
19.1128
 11
-38.9289
 21
18.7866
  0
LINE
  8
0
 10
-38.9289
 20
18.7866
 11
-39.3796
 21
18.4032
  0
LINE
  8
0
 10
-39.3796
 20
18.4032
 11
-39.7808
 21
17.9683
  0
LINE
  8
0
 10
-39.7808
 20
17.9683
 11
-40.1267
 21
17.4882
  0
LINE
  8
0
 10
-40.1267
 20
17.4882
 11
-40.4122
 21
16.9699
  0
LINE
  8
0
 10
-40.4122
 20
16.9699
 11
-40.6331
 21
16.421
  0
LINE
  8
0
 10
-40.6331
 20
16.421
 11
-40.7862
 21
15.8494
  0
LINE
  8
0
 10
-40.7862
 20
15.8494
 11
-40.8694
 21
15.2636
  0
LINE
  8
0
 10
-40.8694
 20
15.2636
 11
-40.8813
 21
14.672
  0
LINE
  8
0
 10
-40.8813
 20
14.672
 11
-40.8218
 21
14.0833
  0
LINE
  8
0
 10
-40.8218
 20
14.0833
 11
-40.6918
 21
13.506
  0
LINE
  8
0
 10
-40.6918
 20
13.506
 11
-40.4932
 21
12.9487
  0
LINE
  8
0
 10
-40.4932
 20
12.9487
 11
-40.2288
 21
12.4193
  0
LINE
  8
0
 10
-40.2288
 20
12.4193
 11
-38.6788
 21
9.73462
  0
LINE
  8
0
 10
-38.6788
 20
9.73462
 11
-43.0089
 21
7.23462
  0
LINE
  8
0
 10
-43.0089
 20
7.23462
 11
-42.0089
 21
5.50256
  0
LINE
  8
0
 10
-42.0089
 20
5.50256
 11
-37.6788
 21
8.00256
  0
LINE
  8
0
 10
-37.6788
 20
8.00256
 11
-36.1288
 21
5.3179
  0
LINE
  8
0
 10
-36.1288
 20
5.3179
 11
-35.8025
 21
4.82426
  0
LINE
  8
0
 10
-35.8025
 20
4.82426
 11
-35.4192
 21
4.37355
  0
LINE
  8
0
 10
-35.4192
 20
4.37355
 11
-34.9842
 21
3.97234
  0
LINE
  8
0
 10
-34.9842
 20
3.97234
 11
-34.5042
 21
3.62648
  0
LINE
  8
0
 10
-34.5042
 20
3.62648
 11
-33.9859
 21
3.34099
  0
LINE
  8
0
 10
-33.9859
 20
3.34099
 11
-33.437
 21
3.12007
  0
LINE
  8
0
 10
-33.437
 20
3.12007
 11
-32.8654
 21
2.96692
  0
LINE
  8
0
 10
-32.8654
 20
2.96692
 11
-32.2796
 21
2.88379
  0
LINE
  8
0
 10
-32.2796
 20
2.88379
 11
-31.688
 21
2.87189
  0
LINE
  8
0
 10
-31.688
 20
2.87189
 11
-31.0993
 21
2.93137
  0
LINE
  8
0
 10
-31.0993
 20
2.93137
 11
-30.522
 21
3.06136
  0
LINE
  8
0
 10
-30.522
 20
3.06136
 11
-29.9646
 21
3.25999
  0
LINE
  8
0
 10
-29.9646
 20
3.25999
 11
-29.4353
 21
3.52437
  0
LINE
  8
0
 10
-29.4353
 20
3.52437
 11
-22.4205
 21
7.57437
  0
LINE
  8
0
 10
-22.4205
 20
7.57437
 11
-18.3705
 21
0.55957
  0
LINE
  8
0
 10
-18.3705
 20
0.55957
 11
-18.0442
 21
0.065918
  0
LINE
  8
0
 10
-18.0442
 20
0.065918
 11
-17.6608
 21
-0.384781
  0
LINE
  8
0
 10
-17.6608
 20
-0.384781
 11
-17.2259
 21
-0.78598
  0
LINE
  8
0
 10
-17.2259
 20
-0.78598
 11
-16.7458
 21
-1.13185
  0
LINE
  8
0
 10
-16.7458
 20
-1.13185
 11
-16.2275
 21
-1.41733
  0
LINE
  8
0
 10
-16.2275
 20
-1.41733
 11
-15.6786
 21
-1.63824
  0
LINE
  8
0
 10
-15.6786
 20
-1.63824
 11
-15.1071
 21
-1.7914
  0
LINE
  8
0
 10
-15.1071
 20
-1.7914
 11
-14.5212
 21
-1.87454
  0
LINE
  8
0
 10
-14.5212
 20
-1.87454
 11
-13.9297
 21
-1.88644
  0
LINE
  8
0
 10
-13.9297
 20
-1.88644
 11
-13.3409
 21
-1.82697
  0
LINE
  8
0
 10
105.855
 20
123.628
 11
105.269
 21
123.711
  0
LINE
  8
0
 10
105.269
 20
123.711
 11
104.698
 21
123.864
  0
LINE
  8
0
 10
104.698
 20
123.864
 11
104.149
 21
124.085
  0
LINE
  8
0
 10
104.149
 20
124.085
 11
103.63
 21
124.37
  0
LINE
  8
0
 10
103.63
 20
124.37
 11
103.15
 21
124.716
  0
LINE
  8
0
 10
103.15
 20
124.716
 11
102.715
 21
125.117
  0
LINE
  8
0
 10
102.715
 20
125.117
 11
102.332
 21
125.568
  0
LINE
  8
0
 10
102.332
 20
125.568
 11
102.006
 21
126.062
  0
LINE
  8
0
 10
102.006
 20
126.062
 11
94.7058
 21
138.706
  0
LINE
  8
0
 10
94.7058
 20
138.706
 11
82.0618
 21
131.406
  0
LINE
  8
0
 10
82.0618
 20
131.406
 11
81.5324
 21
131.141
  0
LINE
  8
0
 10
81.5324
 20
131.141
 11
80.9751
 21
130.943
  0
LINE
  8
0
 10
80.9751
 20
130.943
 11
80.3978
 21
130.813
  0
LINE
  8
0
 10
80.3978
 20
130.813
 11
79.8091
 21
130.753
  0
LINE
  8
0
 10
79.8091
 20
130.753
 11
79.2175
 21
130.765
  0
LINE
  8
0
 10
79.2175
 20
130.765
 11
78.6317
 21
130.848
  0
LINE
  8
0
 10
78.6317
 20
130.848
 11
78.0601
 21
131.001
  0
LINE
  8
0
 10
78.0601
 20
131.001
 11
77.5112
 21
131.222
  0
LINE
  8
0
 10
77.5112
 20
131.222
 11
76.9929
 21
131.508
  0
LINE
  8
0
 10
76.9929
 20
131.508
 11
76.5128
 21
131.854
  0
LINE
  8
0
 10
76.5128
 20
131.854
 11
76.0779
 21
132.255
  0
LINE
  8
0
 10
76.0779
 20
132.255
 11
75.6945
 21
132.706
  0
LINE
  8
0
 10
75.6945
 20
132.706
 11
75.3683
 21
133.199
  0
LINE
  8
0
 10
75.3683
 20
133.199
 11
71.2683
 21
140.301
  0
LINE
  8
0
 10
71.2683
 20
140.301
 11
71.0039
 21
140.83
  0
LINE
  8
0
 10
71.0039
 20
140.83
 11
70.8053
 21
141.387
  0
LINE
  8
0
 10
70.8053
 20
141.387
 11
70.6753
 21
141.965
  0
LINE
  8
0
 10
70.6753
 20
141.965
 11
70.6158
 21
142.553
  0
LINE
  8
0
 10
70.6158
 20
142.553
 11
70.6277
 21
143.145
  0
LINE
  8
0
 10
70.6277
 20
143.145
 11
70.7108
 21
143.731
  0
LINE
  8
0
 10
70.7108
 20
143.731
 11
70.864
 21
144.302
  0
LINE
  8
0
 10
70.864
 20
144.302
 11
71.0849
 21
144.851
  0
LINE
  8
0
 10
71.0849
 20
144.851
 11
71.3704
 21
145.37
  0
LINE
  8
0
 10
71.3704
 20
145.37
 11
71.7162
 21
145.85
  0
LINE
  8
0
 10
71.7162
 20
145.85
 11
72.1174
 21
146.285
  0
LINE
  8
0
 10
72.1174
 20
146.285
 11
72.5682
 21
146.668
  0
LINE
  8
0
 10
72.5682
 20
146.668
 11
73.0618
 21
146.994
  0
LINE
  8
0
 10
73.0618
 20
146.994
 11
85.7058
 21
154.294
  0
LINE
  8
0
 10
85.7058
 20
154.294
 11
78.4058
 21
166.938
  0
LINE
  8
0
 10
78.4058
 20
166.938
 11
78.1414
 21
167.468
  0
LINE
  8
0
 10
78.1414
 20
167.468
 11
77.9427
 21
168.025
  0
LINE
  8
0
 10
77.9427
 20
168.025
 11
77.8127
 21
168.602
  0
LINE
  8
0
 10
77.8127
 20
168.602
 11
77.7533
 21
169.191
  0
LINE
  8
0
 10
77.7533
 20
169.191
 11
77.7652
 21
169.782
  0
LINE
  8
0
 10
77.7652
 20
169.782
 11
77.8483
 21
170.368
  0
LINE
  8
0
 10
77.8483
 20
170.368
 11
78.0014
 21
170.94
  0
LINE
  8
0
 10
78.0014
 20
170.94
 11
78.2224
 21
171.489
  0
LINE
  8
0
 10
78.2224
 20
171.489
 11
78.5078
 21
172.007
  0
LINE
  8
0
 10
78.5078
 20
172.007
 11
78.8537
 21
172.487
  0
LINE
  8
0
 10
78.8537
 20
172.487
 11
79.2549
 21
172.922
  0
LINE
  8
0
 10
79.2549
 20
172.922
 11
79.7056
 21
173.305
  0
LINE
  8
0
 10
79.7056
 20
173.305
 11
80.1993
 21
173.632
  0
LINE
  8
0
 10
80.1993
 20
173.632
 11
87.3007
 21
177.732
  0
LINE
  8
0
 10
87.3007
 20
177.732
 11
87.8301
 21
177.996
  0
LINE
  8
0
 10
87.8301
 20
177.996
 11
88.3874
 21
178.195
  0
LINE
  8
0
 10
88.3874
 20
178.195
 11
88.9647
 21
178.325
  0
LINE
  8
0
 10
88.9647
 20
178.325
 11
89.5534
 21
178.384
  0
LINE
  8
0
 10
89.5534
 20
178.384
 11
90.145
 21
178.372
  0
LINE
  8
0
 10
90.145
 20
178.372
 11
90.7308
 21
178.289
  0
LINE
  8
0
 10
90.7308
 20
178.289
 11
91.3024
 21
178.136
  0
LINE
  8
0
 10
91.3024
 20
178.136
 11
91.8513
 21
177.915
  0
LINE
  8
0
 10
91.8513
 20
177.915
 11
92.3696
 21
177.63
  0
LINE
  8
0
 10
92.3696
 20
177.63
 11
92.8497
 21
177.284
  0
LINE
  8
0
 10
92.8497
 20
177.284
 11
93.2846
 21
176.883
  0
LINE
  8
0
 10
93.2846
 20
176.883
 11
93.668
 21
176.432
  0
LINE
  8
0
 10
93.668
 20
176.432
 11
93.9942
 21
175.938
  0
LINE
  8
0
 10
93.9942
 20
175.938
 11
101.294
 21
163.294
  0
LINE
  8
0
 10
101.294
 20
163.294
 11
113.938
 21
170.594
  0
LINE
  8
0
 10
113.938
 20
170.594
 11
114.468
 21
170.859
  0
LINE
  8
0
 10
114.468
 20
170.859
 11
115.025
 21
171.057
  0
LINE
  8
0
 10
115.025
 20
171.057
 11
115.602
 21
171.187
  0
LINE
  8
0
 10
115.602
 20
171.187
 11
116.191
 21
171.247
  0
LINE
  8
0
 10
116.191
 20
171.247
 11
116.782
 21
171.235
  0
LINE
  8
0
 10
116.782
 20
171.235
 11
117.368
 21
171.152
  0
LINE
  8
0
 10
117.368
 20
171.152
 11
117.94
 21
170.999
  0
LINE
  8
0
 10
117.94
 20
170.999
 11
118.489
 21
170.778
  0
LINE
  8
0
 10
118.489
 20
170.778
 11
119.007
 21
170.492
  0
LINE
  8
0
 10
119.007
 20
170.492
 11
119.487
 21
170.146
  0
LINE
  8
0
 10
119.487
 20
170.146
 11
119.922
 21
169.745
  0
LINE
  8
0
 10
119.922
 20
169.745
 11
120.305
 21
169.294
  0
LINE
  8
0
 10
120.305
 20
169.294
 11
120.632
 21
168.801
  0
LINE
  8
0
 10
120.632
 20
168.801
 11
124.732
 21
161.699
  0
LINE
  8
0
 10
124.732
 20
161.699
 11
124.996
 21
161.17
  0
LINE
  8
0
 10
124.996
 20
161.17
 11
125.195
 21
160.613
  0
LINE
  8
0
 10
125.195
 20
160.613
 11
125.325
 21
160.035
  0
LINE
  8
0
 10
125.325
 20
160.035
 11
125.384
 21
159.447
  0
LINE
  8
0
 10
125.384
 20
159.447
 11
125.372
 21
158.855
  0
LINE
  8
0
 10
125.372
 20
158.855
 11
125.289
 21
158.269
  0
LINE
  8
0
 10
125.289
 20
158.269
 11
125.136
 21
157.698
  0
LINE
  8
0
 10
125.136
 20
157.698
 11
124.915
 21
157.149
  0
LINE
  8
0
 10
124.915
 20
157.149
 11
124.63
 21
156.63
  0
LINE
  8
0
 10
124.63
 20
156.63
 11
124.284
 21
156.15
  0
LINE
  8
0
 10
124.284
 20
156.15
 11
123.883
 21
155.715
  0
LINE
  8
0
 10
123.883
 20
155.715
 11
123.432
 21
155.332
  0
LINE
  8
0
 10
123.432
 20
155.332
 11
122.938
 21
155.006
  0
LINE
  8
0
 10
122.938
 20
155.006
 11
110.294
 21
147.706
  0
LINE
  8
0
 10
110.294
 20
147.706
 11
117.594
 21
135.062
  0
LINE
  8
0
 10
117.594
 20
135.062
 11
117.859
 21
134.532
  0
LINE
  8
0
 10
117.859
 20
134.532
 11
118.057
 21
133.975
  0
LINE
  8
0
 10
118.057
 20
133.975
 11
118.187
 21
133.398
  0
LINE
  8
0
 10
118.187
 20
133.398
 11
118.247
 21
132.809
  0
LINE
  8
0
 10
118.247
 20
132.809
 11
118.235
 21
132.217
  0
LINE
  8
0
 10
118.235
 20
132.217
 11
118.152
 21
131.632
  0
LINE
  8
0
 10
118.152
 20
131.632
 11
117.999
 21
131.06
  0
LINE
  8
0
 10
117.999
 20
131.06
 11
117.778
 21
130.511
  0
LINE
  8
0
 10
117.778
 20
130.511
 11
117.492
 21
129.993
  0
LINE
  8
0
 10
117.492
 20
129.993
 11
117.146
 21
129.513
  0
LINE
  8
0
 10
117.146
 20
129.513
 11
116.745
 21
129.078
  0
LINE
  8
0
 10
116.745
 20
129.078
 11
116.294
 21
128.695
  0
LINE
  8
0
 10
116.294
 20
128.695
 11
115.801
 21
128.368
  0
LINE
  8
0
 10
115.801
 20
128.368
 11
108.699
 21
124.268
  0
LINE
  8
0
 10
108.699
 20
124.268
 11
108.17
 21
124.004
  0
LINE
  8
0
 10
108.17
 20
124.004
 11
107.613
 21
123.805
  0
LINE
  8
0
 10
107.613
 20
123.805
 11
107.035
 21
123.675
  0
LINE
  8
0
 10
107.035
 20
123.675
 11
106.447
 21
123.616
  0
LINE
  8
0
 10
106.447
 20
123.616
 11
105.855
 21
123.628
  0
LINE
  8
0
 10
88.375
 20
167.671
 11
89.0703
 21
168.297
  0
LINE
  8
0
 10
89.0703
 20
168.297
 11
89.4508
 21
169.152
  0
LINE
  8
0
 10
89.4508
 20
169.152
 11
89.4508
 21
170.087
  0
LINE
  8
0
 10
89.4508
 20
170.087
 11
89.0703
 21
170.942
  0
LINE
  8
0
 10
89.0703
 20
170.942
 11
88.375
 21
171.568
  0
LINE
  8
0
 10
88.375
 20
171.568
 11
87.4852
 21
171.857
  0
LINE
  8
0
 10
87.4852
 20
171.857
 11
86.5547
 21
171.759
  0
LINE
  8
0
 10
86.5547
 20
171.759
 11
85.7444
 21
171.292
  0
LINE
  8
0
 10
85.7444
 20
171.292
 11
85.1945
 21
170.535
  0
LINE
  8
0
 10
85.1945
 20
170.535
 11
85
 21
169.62
  0
LINE
  8
0
 10
85
 20
169.62
 11
85.1945
 21
168.704
  0
LINE
  8
0
 10
85.1945
 20
168.704
 11
85.7444
 21
167.947
  0
LINE
  8
0
 10
85.7444
 20
167.947
 11
86.5547
 21
167.48
  0
LINE
  8
0
 10
86.5547
 20
167.48
 11
87.4852
 21
167.382
  0
LINE
  8
0
 10
87.4852
 20
167.382
 11
88.375
 21
167.671
  0
LINE
  8
0
 10
117.087
 20
159.549
 11
117.942
 21
159.93
  0
LINE
  8
0
 10
117.942
 20
159.93
 11
118.568
 21
160.625
  0
LINE
  8
0
 10
118.568
 20
160.625
 11
118.857
 21
161.515
  0
LINE
  8
0
 10
118.857
 20
161.515
 11
118.759
 21
162.445
  0
LINE
  8
0
 10
118.759
 20
162.445
 11
118.292
 21
163.256
  0
LINE
  8
0
 10
118.292
 20
163.256
 11
117.535
 21
163.805
  0
LINE
  8
0
 10
117.535
 20
163.805
 11
116.62
 21
164
  0
LINE
  8
0
 10
116.62
 20
164
 11
115.704
 21
163.805
  0
LINE
  8
0
 10
115.704
 20
163.805
 11
114.947
 21
163.256
  0
LINE
  8
0
 10
114.947
 20
163.256
 11
114.48
 21
162.445
  0
LINE
  8
0
 10
114.48
 20
162.445
 11
114.382
 21
161.515
  0
LINE
  8
0
 10
114.382
 20
161.515
 11
114.671
 21
160.625
  0
LINE
  8
0
 10
114.671
 20
160.625
 11
115.297
 21
159.93
  0
LINE
  8
0
 10
115.297
 20
159.93
 11
116.152
 21
159.549
  0
LINE
  8
0
 10
116.152
 20
159.549
 11
117.087
 21
159.549
  0
LINE
  8
0
 10
99.2
 20
148.922
 11
100.318
 21
150.379
  0
LINE
  8
0
 10
100.318
 20
150.379
 11
100.078
 21
152.2
  0
LINE
  8
0
 10
100.078
 20
152.2
 11
98.6212
 21
153.318
  0
LINE
  8
0
 10
98.6212
 20
153.318
 11
96.8
 21
153.078
  0
LINE
  8
0
 10
96.8
 20
153.078
 11
95.6818
 21
151.621
  0
LINE
  8
0
 10
95.6818
 20
151.621
 11
95.9215
 21
149.8
  0
LINE
  8
0
 10
95.9215
 20
149.8
 11
97.3788
 21
148.682
  0
LINE
  8
0
 10
97.3788
 20
148.682
 11
99.2
 21
148.922
  0
LINE
  8
0
 10
79.8483
 20
138.049
 11
80.703
 21
138.43
  0
LINE
  8
0
 10
80.703
 20
138.43
 11
81.329
 21
139.125
  0
LINE
  8
0
 10
81.329
 20
139.125
 11
81.6181
 21
140.015
  0
LINE
  8
0
 10
81.6181
 20
140.015
 11
81.5203
 21
140.945
  0
LINE
  8
0
 10
81.5203
 20
140.945
 11
81.0525
 21
141.756
  0
LINE
  8
0
 10
81.0525
 20
141.756
 11
80.2956
 21
142.305
  0
LINE
  8
0
 10
80.2956
 20
142.305
 11
79.3804
 21
142.5
  0
LINE
  8
0
 10
79.3804
 20
142.5
 11
78.4653
 21
142.305
  0
LINE
  8
0
 10
78.4653
 20
142.305
 11
77.7084
 21
141.756
  0
LINE
  8
0
 10
77.7084
 20
141.756
 11
77.2406
 21
140.945
  0
LINE
  8
0
 10
77.2406
 20
140.945
 11
77.1428
 21
140.015
  0
LINE
  8
0
 10
77.1428
 20
140.015
 11
77.4319
 21
139.125
  0
LINE
  8
0
 10
77.4319
 20
139.125
 11
78.0579
 21
138.43
  0
LINE
  8
0
 10
78.0579
 20
138.43
 11
78.9126
 21
138.049
  0
LINE
  8
0
 10
78.9126
 20
138.049
 11
79.8483
 21
138.049
  0
LINE
  8
0
 10
109.875
 20
130.432
 11
110.57
 21
131.058
  0
LINE
  8
0
 10
110.57
 20
131.058
 11
110.951
 21
131.913
  0
LINE
  8
0
 10
110.951
 20
131.913
 11
110.951
 21
132.848
  0
LINE
  8
0
 10
110.951
 20
132.848
 11
110.57
 21
133.703
  0
LINE
  8
0
 10
110.57
 20
133.703
 11
109.875
 21
134.329
  0
LINE
  8
0
 10
109.875
 20
134.329
 11
108.985
 21
134.618
  0
LINE
  8
0
 10
108.985
 20
134.618
 11
108.055
 21
134.52
  0
LINE
  8
0
 10
108.055
 20
134.52
 11
107.244
 21
134.053
  0
LINE
  8
0
 10
107.244
 20
134.053
 11
106.695
 21
133.296
  0
LINE
  8
0
 10
106.695
 20
133.296
 11
106.5
 21
132.38
  0
LINE
  8
0
 10
106.5
 20
132.38
 11
106.695
 21
131.465
  0
LINE
  8
0
 10
106.695
 20
131.465
 11
107.244
 21
130.708
  0
LINE
  8
0
 10
107.244
 20
130.708
 11
108.055
 21
130.241
  0
LINE
  8
0
 10
108.055
 20
130.241
 11
108.985
 21
130.143
  0
LINE
  8
0
 10
108.985
 20
130.143
 11
109.875
 21
130.432
  0
LINE
  8
0
 10
62.9965
 20
120.624
 11
62.4396
 21
120.769
  0
LINE
  8
0
 10
62.4396
 20
120.769
 11
61.9058
 21
121.009
  0
LINE
  8
0
 10
61.9058
 20
121.009
 11
61.395
 21
121.344
  0
LINE
  8
0
 10
61.395
 20
121.344
 11
62.2556
 21
122.308
  0
LINE
  8
0
 10
62.2556
 20
122.308
 11
62.6151
 21
122.068
  0
LINE
  8
0
 10
62.6151
 20
122.068
 11
62.994
 21
121.895
  0
LINE
  8
0
 10
62.994
 20
121.895
 11
63.3923
 21
121.789
  0
LINE
  8
0
 10
63.3923
 20
121.789
 11
63.81
 21
121.751
  0
LINE
  8
0
 10
63.81
 20
121.751
 11
64.2387
 21
121.779
  0
LINE
  8
0
 10
64.2387
 20
121.779
 11
64.6699
 21
121.871
  0
LINE
  8
0
 10
64.6699
 20
121.871
 11
65.1035
 21
122.027
  0
LINE
  8
0
 10
65.1035
 20
122.027
 11
65.5396
 21
122.248
  0
LINE
  8
0
 10
65.5396
 20
122.248
 11
66.1566
 21
122.678
  0
LINE
  8
0
 10
66.1566
 20
122.678
 11
66.6334
 21
123.175
  0
LINE
  8
0
 10
66.6334
 20
123.175
 11
66.9698
 21
123.739
  0
LINE
  8
0
 10
66.9698
 20
123.739
 11
67.1658
 21
124.369
  0
LINE
  8
0
 10
67.1658
 20
124.369
 11
67.2202
 21
125.046
  0
LINE
  8
0
 10
67.2202
 20
125.046
 11
67.1317
 21
125.75
  0
LINE
  8
0
 10
67.1317
 20
125.75
 11
66.9004
 21
126.481
  0
LINE
  8
0
 10
66.9004
 20
126.481
 11
66.5263
 21
127.239
  0
LINE
  8
0
 10
66.5263
 20
127.239
 11
66.0576
 21
127.936
  0
LINE
  8
0
 10
66.0576
 20
127.936
 11
65.5327
 21
128.5
  0
LINE
  8
0
 10
65.5327
 20
128.5
 11
64.9515
 21
128.933
  0
LINE
  8
0
 10
64.9515
 20
128.933
 11
64.3139
 21
129.233
  0
LINE
  8
0
 10
64.3139
 20
129.233
 11
63.6467
 21
129.389
  0
LINE
  8
0
 10
63.6467
 20
129.389
 11
62.9763
 21
129.388
  0
LINE
  8
0
 10
62.9763
 20
129.388
 11
62.3029
 21
129.231
  0
LINE
  8
0
 10
62.3029
 20
129.231
 11
61.6263
 21
128.918
  0
LINE
  8
0
 10
61.6263
 20
128.918
 11
60.8736
 21
128.338
  0
LINE
  8
0
 10
60.8736
 20
128.338
 11
60.3543
 21
127.604
  0
LINE
  8
0
 10
60.3543
 20
127.604
 11
60.0685
 21
126.715
  0
LINE
  8
0
 10
60.0685
 20
126.715
 11
60.0162
 21
125.671
  0
LINE
  8
0
 10
60.0162
 20
125.671
 11
58.8339
 21
125.602
  0
LINE
  8
0
 10
58.8339
 20
125.602
 11
58.8231
 21
126.271
  0
LINE
  8
0
 10
58.8231
 20
126.271
 11
58.9011
 21
126.905
  0
LINE
  8
0
 10
58.9011
 20
126.905
 11
59.068
 21
127.505
  0
LINE
  8
0
 10
59.068
 20
127.505
 11
59.3238
 21
128.07
  0
LINE
  8
0
 10
59.3238
 20
128.07
 11
59.6631
 21
128.593
  0
LINE
  8
0
 10
59.6631
 20
128.593
 11
60.08
 21
129.068
  0
LINE
  8
0
 10
60.08
 20
129.068
 11
60.5745
 21
129.493
  0
LINE
  8
0
 10
60.5745
 20
129.493
 11
61.1467
 21
129.871
  0
LINE
  8
0
 10
61.1467
 20
129.871
 11
61.7697
 21
130.187
  0
LINE
  8
0
 10
61.7697
 20
130.187
 11
62.3881
 21
130.414
  0
LINE
  8
0
 10
62.3881
 20
130.414
 11
63.002
 21
130.551
  0
LINE
  8
0
 10
63.002
 20
130.551
 11
63.6114
 21
130.6
  0
LINE
  8
0
 10
63.6114
 20
130.6
 11
64.2077
 21
130.559
  0
LINE
  8
0
 10
64.2077
 20
130.559
 11
64.7818
 21
130.431
  0
LINE
  8
0
 10
64.7818
 20
130.431
 11
65.3339
 21
130.216
  0
LINE
  8
0
 10
65.3339
 20
130.216
 11
65.8639
 21
129.914
  0
LINE
  8
0
 10
65.8639
 20
129.914
 11
66.3655
 21
129.528
  0
LINE
  8
0
 10
66.3655
 20
129.528
 11
66.833
 21
129.064
  0
LINE
  8
0
 10
66.833
 20
129.064
 11
67.2665
 21
128.52
  0
LINE
  8
0
 10
67.2665
 20
128.52
 11
67.666
 21
127.897
  0
LINE
  8
0
 10
67.666
 20
127.897
 11
68.1407
 21
126.92
  0
LINE
  8
0
 10
68.1407
 20
126.92
 11
68.4198
 21
125.974
  0
LINE
  8
0
 10
68.4198
 20
125.974
 11
68.5033
 21
125.058
  0
LINE
  8
0
 10
68.5033
 20
125.058
 11
68.3913
 21
124.172
  0
LINE
  8
0
 10
68.3913
 20
124.172
 11
68.0897
 21
123.342
  0
LINE
  8
0
 10
68.0897
 20
123.342
 11
67.6041
 21
122.593
  0
LINE
  8
0
 10
67.6041
 20
122.593
 11
66.9344
 21
121.925
  0
LINE
  8
0
 10
66.9344
 20
121.925
 11
66.0807
 21
121.338
  0
LINE
  8
0
 10
66.0807
 20
121.338
 11
65.4286
 21
121.005
  0
LINE
  8
0
 10
65.4286
 20
121.005
 11
64.7939
 21
120.766
  0
LINE
  8
0
 10
64.7939
 20
120.766
 11
64.1764
 21
120.624
  0
LINE
  8
0
 10
64.1764
 20
120.624
 11
63.5764
 21
120.576
  0
LINE
  8
0
 10
63.5764
 20
120.576
 11
62.9965
 21
120.624
  0
LINE
  8
0
 10
-27.3215
 20
30.7191
 11
-28.1318
 21
31.1869
  0
LINE
  8
0
 10
-28.1318
 20
31.1869
 11
-28.6817
 21
31.9438
  0
LINE
  8
0
 10
-28.6817
 20
31.9438
 11
-28.8763
 21
32.859
  0
LINE
  8
0
 10
-28.8763
 20
32.859
 11
-28.6817
 21
33.7741
  0
LINE
  8
0
 10
-28.6817
 20
33.7741
 11
-28.1318
 21
34.5311
  0
LINE
  8
0
 10
-28.1318
 20
34.5311
 11
-27.3215
 21
34.9989
  0
LINE
  8
0
 10
-27.3215
 20
34.9989
 11
-26.3911
 21
35.0966
  0
LINE
  8
0
 10
-26.3911
 20
35.0966
 11
-25.5012
 21
34.8075
  0
LINE
  8
0
 10
-25.5012
 20
34.8075
 11
-24.806
 21
34.1815
  0
LINE
  8
0
 10
-24.806
 20
34.1815
 11
-24.4254
 21
33.3268
  0
LINE
  8
0
 10
-24.4254
 20
33.3268
 11
-24.4254
 21
32.3912
  0
LINE
  8
0
 10
-24.4254
 20
32.3912
 11
-24.806
 21
31.5365
  0
LINE
  8
0
 10
-24.806
 20
31.5365
 11
-25.5012
 21
30.9104
  0
LINE
  8
0
 10
-25.5012
 20
30.9104
 11
-26.3911
 21
30.6213
  0
LINE
  8
0
 10
-26.3911
 20
30.6213
 11
-27.3215
 21
30.7191
  0
LINE
  8
0
 10
-8.37352
 20
27.1334
 11
-8.27573
 21
28.0639
  0
LINE
  8
0
 10
-8.27573
 20
28.0639
 11
-7.80792
 21
28.8741
  0
LINE
  8
0
 10
-7.80792
 20
28.8741
 11
-7.05101
 21
29.4241
  0
LINE
  8
0
 10
-7.05101
 20
29.4241
 11
-6.13585
 21
29.6186
  0
LINE
  8
0
 10
-6.13585
 20
29.6186
 11
-5.22069
 21
29.4241
  0
LINE
  8
0
 10
-5.22069
 20
29.4241
 11
-4.49231
 21
28.8949
  0
LINE
  8
0
 10
-4.49231
 20
28.8949
 11
-8.24237
 21
26.7298
  0
LINE
  8
0
 10
-8.24237
 20
26.7298
 11
-8.37352
 21
27.1334
  0
LINE
  8
0
 10
-7.45836
 20
25.5483
 11
-7.74239
 21
25.8637
  0
LINE
  8
0
 10
-7.74239
 20
25.8637
 11
-3.99229
 21
28.0289
  0
LINE
  8
0
 10
-3.99229
 20
28.0289
 11
-3.89818
 21
27.1334
  0
LINE
  8
0
 10
-3.89818
 20
27.1334
 11
-4.1873
 21
26.2436
  0
LINE
  8
0
 10
-4.1873
 20
26.2436
 11
-4.81332
 21
25.5483
  0
LINE
  8
0
 10
-4.81332
 20
25.5483
 11
-5.66806
 21
25.1678
  0
LINE
  8
0
 10
-5.66806
 20
25.1678
 11
-6.60365
 21
25.1678
  0
LINE
  8
0
 10
-6.60365
 20
25.1678
 11
-7.45836
 21
25.5483
  0
LINE
  8
0
 10
-33.4391
 20
10.5483
 11
-34.0652
 21
11.2436
  0
LINE
  8
0
 10
-34.0652
 20
11.2436
 11
-34.3543
 21
12.1334
  0
LINE
  8
0
 10
-34.3543
 20
12.1334
 11
-34.2565
 21
13.0639
  0
LINE
  8
0
 10
-34.2565
 20
13.0639
 11
-33.7887
 21
13.8741
  0
LINE
  8
0
 10
-33.7887
 20
13.8741
 11
-33.0318
 21
14.4241
  0
LINE
  8
0
 10
-33.0318
 20
14.4241
 11
-32.1166
 21
14.6186
  0
LINE
  8
0
 10
-32.1166
 20
14.6186
 11
-31.2015
 21
14.4241
  0
LINE
  8
0
 10
-31.2015
 20
14.4241
 11
-30.4445
 21
13.8741
  0
LINE
  8
0
 10
-30.4445
 20
13.8741
 11
-29.9767
 21
13.0639
  0
LINE
  8
0
 10
-29.9767
 20
13.0639
 11
-29.8789
 21
12.1334
  0
LINE
  8
0
 10
-29.8789
 20
12.1334
 11
-30.1681
 21
11.2436
  0
LINE
  8
0
 10
-30.1681
 20
11.2436
 11
-30.7941
 21
10.5483
  0
LINE
  8
0
 10
-30.7941
 20
10.5483
 11
-31.6488
 21
10.1678
  0
LINE
  8
0
 10
-31.6488
 20
10.1678
 11
-32.5844
 21
10.1678
  0
LINE
  8
0
 10
-32.5844
 20
10.1678
 11
-33.4391
 21
10.5483
  0
LINE
  8
0
 10
-12.3215
 20
4.73834
 11
-13.1318
 21
5.20615
  0
LINE
  8
0
 10
-13.1318
 20
5.20615
 11
-13.6817
 21
5.96306
  0
LINE
  8
0
 10
-13.6817
 20
5.96306
 11
-13.8762
 21
6.8782
  0
LINE
  8
0
 10
-13.8762
 20
6.8782
 11
-13.6817
 21
7.79338
  0
LINE
  8
0
 10
-13.6817
 20
7.79338
 11
-13.1318
 21
8.55029
  0
LINE
  8
0
 10
-13.1318
 20
8.55029
 11
-12.3215
 21
9.01808
  0
LINE
  8
0
 10
-12.3215
 20
9.01808
 11
-11.3911
 21
9.11589
  0
LINE
  8
0
 10
-11.3911
 20
9.11589
 11
-10.5012
 21
8.82677
  0
LINE
  8
0
 10
-10.5012
 20
8.82677
 11
-9.80595
 21
8.20074
  0
LINE
  8
0
 10
-9.80595
 20
8.20074
 11
-9.42542
 21
7.34601
  0
LINE
  8
0
 10
-9.42542
 20
7.34601
 11
-9.4254
 21
6.41042
  0
LINE
  8
0
 10
-9.4254
 20
6.41042
 11
-9.80597
 21
5.55569
  0
LINE
  8
0
 10
-9.80597
 20
5.55569
 11
-10.5012
 21
4.92966
  0
LINE
  8
0
 10
-10.5012
 20
4.92966
 11
-11.3911
 21
4.64055
  0
LINE
  8
0
 10
-11.3911
 20
4.64055
 11
-12.3215
 21
4.73834
  0
LINE
  8
0
 10
-120.566
 20
-79.6111
 11
-105.807
 21
-74.8155
  0
LINE
  8
0
 10
-105.807
 20
-74.8155
 11
-92.3667
 21
-67.056
  0
LINE
  8
0
 10
-92.3667
 20
-67.056
 11
-80.8339
 21
-56.6718
  0
LINE
  8
0
 10
-80.8339
 20
-56.6718
 11
-71.7121
 21
-44.1167
  0
LINE
  8
0
 10
-71.7121
 20
-44.1167
 11
-65.3999
 21
-29.9393
  0
LINE
  8
0
 10
-65.3999
 20
-29.9393
 11
-62.1733
 21
-14.7595
  0
LINE
  8
0
 10
-62.1733
 20
-14.7595
 11
-62.1733
 21
0.759476
  0
LINE
  8
0
 10
-62.1733
 20
0.759476
 11
-65.3999
 21
15.9393
  0
LINE
  8
0
 10
-65.3999
 20
15.9393
 11
-71.712
 21
30.1166
  0
LINE
  8
0
 10
-71.712
 20
30.1166
 11
-80.8339
 21
42.6718
  0
LINE
  8
0
 10
-80.8339
 20
42.6718
 11
-92.3667
 21
53.056
  0
LINE
  8
0
 10
-92.3667
 20
53.056
 11
-105.807
 21
60.8155
  0
LINE
  8
0
 10
-105.807
 20
60.8155
 11
-120.566
 21
65.6111
  0
LINE
  8
0
 10
-120.566
 20
65.6111
 11
-136
 21
67.2333
  0
LINE
  8
0
 10
-136
 20
67.2333
 11
-151.434
 21
65.6111
  0
LINE
  8
0
 10
-151.434
 20
65.6111
 11
-166.193
 21
60.8155
  0
LINE
  8
0
 10
-166.193
 20
60.8155
 11
-179.633
 21
53.056
  0
LINE
  8
0
 10
-179.633
 20
53.056
 11
-190.5
 21
43.2716
  0
LINE
  8
0
 10
-190.5
 20
43.2716
 11
-190.5
 21
133
  0
LINE
  8
0
 10
-190.5
 20
133
 11
-190
 21
133
  0
LINE
  8
0
 10
-190
 20
133
 11
-190
 21
138
  0
LINE
  8
0
 10
-190
 20
138
 11
-186.9
 21
138
  0
LINE
  8
0
 10
-186.9
 20
138
 11
-186.309
 21
138.036
  0
LINE
  8
0
 10
-186.309
 20
138.036
 11
-185.727
 21
138.142
  0
LINE
  8
0
 10
-185.727
 20
138.142
 11
-185.162
 21
138.318
  0
LINE
  8
0
 10
-185.162
 20
138.318
 11
-184.623
 21
138.561
  0
LINE
  8
0
 10
-184.623
 20
138.561
 11
-184.116
 21
138.867
  0
LINE
  8
0
 10
-184.116
 20
138.867
 11
-183.651
 21
139.232
  0
LINE
  8
0
 10
-183.651
 20
139.232
 11
-183.232
 21
139.651
  0
LINE
  8
0
 10
-183.232
 20
139.651
 11
-182.867
 21
140.116
  0
LINE
  8
0
 10
-182.867
 20
140.116
 11
-182.561
 21
140.623
  0
LINE
  8
0
 10
-182.561
 20
140.623
 11
-182.318
 21
141.162
  0
LINE
  8
0
 10
-182.318
 20
141.162
 11
-182.142
 21
141.727
  0
LINE
  8
0
 10
-182.142
 20
141.727
 11
-182.036
 21
142.309
  0
LINE
  8
0
 10
-182.036
 20
142.309
 11
-182
 21
142.9
  0
LINE
  8
0
 10
-182
 20
142.9
 11
-182
 21
151
  0
LINE
  8
0
 10
-182
 20
151
 11
-173.9
 21
151
  0
LINE
  8
0
 10
-173.9
 20
151
 11
-173.309
 21
151.036
  0
LINE
  8
0
 10
-173.309
 20
151.036
 11
-172.727
 21
151.142
  0
LINE
  8
0
 10
-172.727
 20
151.142
 11
-172.162
 21
151.318
  0
LINE
  8
0
 10
-172.162
 20
151.318
 11
-171.623
 21
151.561
  0
LINE
  8
0
 10
-171.623
 20
151.561
 11
-171.116
 21
151.867
  0
LINE
  8
0
 10
-171.116
 20
151.867
 11
-170.651
 21
152.232
  0
LINE
  8
0
 10
-170.651
 20
152.232
 11
-170.232
 21
152.651
  0
LINE
  8
0
 10
-170.232
 20
152.651
 11
-169.867
 21
153.116
  0
LINE
  8
0
 10
-169.867
 20
153.116
 11
-169.561
 21
153.623
  0
LINE
  8
0
 10
-169.561
 20
153.623
 11
-169.318
 21
154.162
  0
LINE
  8
0
 10
-169.318
 20
154.162
 11
-169.142
 21
154.727
  0
LINE
  8
0
 10
-169.142
 20
154.727
 11
-169.036
 21
155.309
  0
LINE
  8
0
 10
-169.036
 20
155.309
 11
-169
 21
155.9
  0
LINE
  8
0
 10
-169
 20
155.9
 11
-169
 21
164.1
  0
LINE
  8
0
 10
-169
 20
164.1
 11
-169.036
 21
164.691
  0
LINE
  8
0
 10
-169.036
 20
164.691
 11
-169.142
 21
165.273
  0
LINE
  8
0
 10
-169.142
 20
165.273
 11
-169.318
 21
165.838
  0
LINE
  8
0
 10
-169.318
 20
165.838
 11
-169.561
 21
166.377
  0
LINE
  8
0
 10
-169.561
 20
166.377
 11
-169.867
 21
166.884
  0
LINE
  8
0
 10
-169.867
 20
166.884
 11
-170.232
 21
167.349
  0
LINE
  8
0
 10
-170.232
 20
167.349
 11
-170.651
 21
167.768
  0
LINE
  8
0
 10
-170.651
 20
167.768
 11
-171.116
 21
168.133
  0
LINE
  8
0
 10
-171.116
 20
168.133
 11
-171.623
 21
168.439
  0
LINE
  8
0
 10
-171.623
 20
168.439
 11
-172.162
 21
168.682
  0
LINE
  8
0
 10
-172.162
 20
168.682
 11
-172.727
 21
168.858
  0
LINE
  8
0
 10
-172.727
 20
168.858
 11
-173.309
 21
168.964
  0
LINE
  8
0
 10
-173.309
 20
168.964
 11
-173.9
 21
169
  0
LINE
  8
0
 10
-173.9
 20
169
 11
-182
 21
169
  0
LINE
  8
0
 10
-182
 20
169
 11
-182
 21
177.1
  0
LINE
  8
0
 10
-182
 20
177.1
 11
-182.036
 21
177.691
  0
LINE
  8
0
 10
-182.036
 20
177.691
 11
-182.142
 21
178.273
  0
LINE
  8
0
 10
-182.142
 20
178.273
 11
-182.318
 21
178.838
  0
LINE
  8
0
 10
-182.318
 20
178.838
 11
-182.561
 21
179.377
  0
LINE
  8
0
 10
-182.561
 20
179.377
 11
-182.867
 21
179.884
  0
LINE
  8
0
 10
-182.867
 20
179.884
 11
-183.232
 21
180.349
  0
LINE
  8
0
 10
-183.232
 20
180.349
 11
-183.651
 21
180.768
  0
LINE
  8
0
 10
-183.651
 20
180.768
 11
-184.116
 21
181.133
  0
LINE
  8
0
 10
-184.116
 20
181.133
 11
-184.623
 21
181.439
  0
LINE
  8
0
 10
-184.623
 20
181.439
 11
-185.162
 21
181.682
  0
LINE
  8
0
 10
-185.162
 20
181.682
 11
-185.727
 21
181.858
  0
LINE
  8
0
 10
-185.727
 20
181.858
 11
-186.309
 21
181.964
  0
LINE
  8
0
 10
-186.309
 20
181.964
 11
-186.9
 21
182
  0
LINE
  8
0
 10
-186.9
 20
182
 11
-190
 21
182
  0
LINE
  8
0
 10
-190
 20
182
 11
-190
 21
187
  0
LINE
  8
0
 10
-190
 20
187
 11
-192
 21
187
  0
LINE
  8
0
 10
-192
 20
187
 11
-192
 21
182
  0
LINE
  8
0
 10
-192
 20
182
 11
-195.1
 21
182
  0
LINE
  8
0
 10
-195.1
 20
182
 11
-195.691
 21
181.964
  0
LINE
  8
0
 10
-195.691
 20
181.964
 11
-196.273
 21
181.858
  0
LINE
  8
0
 10
-196.273
 20
181.858
 11
-196.838
 21
181.682
  0
LINE
  8
0
 10
-196.838
 20
181.682
 11
-197.377
 21
181.439
  0
LINE
  8
0
 10
-197.377
 20
181.439
 11
-197.883
 21
181.133
  0
LINE
  8
0
 10
-197.883
 20
181.133
 11
-198.349
 21
180.768
  0
LINE
  8
0
 10
-198.349
 20
180.768
 11
-198.768
 21
180.349
  0
LINE
  8
0
 10
-198.768
 20
180.349
 11
-199.133
 21
179.884
  0
LINE
  8
0
 10
-199.133
 20
179.884
 11
-199.439
 21
179.377
  0
LINE
  8
0
 10
-199.439
 20
179.377
 11
-199.682
 21
178.838
  0
LINE
  8
0
 10
-199.682
 20
178.838
 11
-199.858
 21
178.273
  0
LINE
  8
0
 10
-199.858
 20
178.273
 11
-199.964
 21
177.691
  0
LINE
  8
0
 10
-199.964
 20
177.691
 11
-200
 21
177.1
  0
LINE
  8
0
 10
-200
 20
177.1
 11
-200
 21
169
  0
LINE
  8
0
 10
-200
 20
169
 11
-208.1
 21
169
  0
LINE
  8
0
 10
-208.1
 20
169
 11
-208.691
 21
168.964
  0
LINE
  8
0
 10
-208.691
 20
168.964
 11
-209.273
 21
168.858
  0
LINE
  8
0
 10
-209.273
 20
168.858
 11
-209.838
 21
168.682
  0
LINE
  8
0
 10
-209.838
 20
168.682
 11
-210.377
 21
168.439
  0
LINE
  8
0
 10
-210.377
 20
168.439
 11
-210.883
 21
168.133
  0
LINE
  8
0
 10
-210.883
 20
168.133
 11
-211.349
 21
167.768
  0
LINE
  8
0
 10
-211.349
 20
167.768
 11
-211.768
 21
167.349
  0
LINE
  8
0
 10
-211.768
 20
167.349
 11
-212.133
 21
166.884
  0
LINE
  8
0
 10
-212.133
 20
166.884
 11
-212.439
 21
166.377
  0
LINE
  8
0
 10
-212.439
 20
166.377
 11
-212.682
 21
165.838
  0
LINE
  8
0
 10
-212.682
 20
165.838
 11
-212.858
 21
165.273
  0
LINE
  8
0
 10
-212.858
 20
165.273
 11
-212.964
 21
164.691
  0
LINE
  8
0
 10
-212.964
 20
164.691
 11
-213
 21
164.1
  0
LINE
  8
0
 10
-213
 20
164.1
 11
-213
 21
155.9
  0
LINE
  8
0
 10
-213
 20
155.9
 11
-212.964
 21
155.309
  0
LINE
  8
0
 10
-212.964
 20
155.309
 11
-212.858
 21
154.727
  0
LINE
  8
0
 10
-212.858
 20
154.727
 11
-212.682
 21
154.162
  0
LINE
  8
0
 10
-212.682
 20
154.162
 11
-212.439
 21
153.623
  0
LINE
  8
0
 10
-212.439
 20
153.623
 11
-212.133
 21
153.116
  0
LINE
  8
0
 10
-212.133
 20
153.116
 11
-211.768
 21
152.651
  0
LINE
  8
0
 10
-211.768
 20
152.651
 11
-211.349
 21
152.232
  0
LINE
  8
0
 10
-211.349
 20
152.232
 11
-210.883
 21
151.867
  0
LINE
  8
0
 10
-210.883
 20
151.867
 11
-210.377
 21
151.561
  0
LINE
  8
0
 10
-210.377
 20
151.561
 11
-209.838
 21
151.318
  0
LINE
  8
0
 10
-209.838
 20
151.318
 11
-209.273
 21
151.142
  0
LINE
  8
0
 10
-209.273
 20
151.142
 11
-208.691
 21
151.036
  0
LINE
  8
0
 10
-208.691
 20
151.036
 11
-208.1
 21
151
  0
LINE
  8
0
 10
-208.1
 20
151
 11
-200
 21
151
  0
LINE
  8
0
 10
-200
 20
151
 11
-200
 21
142.9
  0
LINE
  8
0
 10
-200
 20
142.9
 11
-199.964
 21
142.309
  0
LINE
  8
0
 10
-199.964
 20
142.309
 11
-199.858
 21
141.727
  0
LINE
  8
0
 10
-199.858
 20
141.727
 11
-199.682
 21
141.162
  0
LINE
  8
0
 10
-199.682
 20
141.162
 11
-199.439
 21
140.623
  0
LINE
  8
0
 10
-199.439
 20
140.623
 11
-199.133
 21
140.116
  0
LINE
  8
0
 10
-199.133
 20
140.116
 11
-198.768
 21
139.651
  0
LINE
  8
0
 10
-198.768
 20
139.651
 11
-198.349
 21
139.232
  0
LINE
  8
0
 10
-198.349
 20
139.232
 11
-197.883
 21
138.867
  0
LINE
  8
0
 10
-197.883
 20
138.867
 11
-197.377
 21
138.561
  0
LINE
  8
0
 10
-197.377
 20
138.561
 11
-196.838
 21
138.318
  0
LINE
  8
0
 10
-196.838
 20
138.318
 11
-196.273
 21
138.142
  0
LINE
  8
0
 10
-196.273
 20
138.142
 11
-195.691
 21
138.036
  0
LINE
  8
0
 10
-195.691
 20
138.036
 11
-195.1
 21
138
  0
LINE
  8
0
 10
-195.1
 20
138
 11
-192
 21
138
  0
LINE
  8
0
 10
-192
 20
138
 11
-192
 21
133
  0
LINE
  8
0
 10
-192
 20
133
 11
-191.5
 21
133
  0
LINE
  8
0
 10
-191.5
 20
133
 11
-191.5
 21
42.2122
  0
LINE
  8
0
 10
-191.5
 20
42.2122
 11
-200.288
 21
30.1167
  0
LINE
  8
0
 10
-200.288
 20
30.1167
 11
-206.6
 21
15.9393
  0
LINE
  8
0
 10
-206.6
 20
15.9393
 11
-209.827
 21
0.759491
  0
LINE
  8
0
 10
-209.827
 20
0.759491
 11
-209.827
 21
-14.7595
  0
LINE
  8
0
 10
-209.827
 20
-14.7595
 11
-206.6
 21
-29.9393
  0
LINE
  8
0
 10
-206.6
 20
-29.9393
 11
-200.288
 21
-44.1166
  0
LINE
  8
0
 10
-200.288
 20
-44.1166
 11
-191.166
 21
-56.6718
  0
LINE
  8
0
 10
-191.166
 20
-56.6718
 11
-179.633
 21
-67.056
  0
LINE
  8
0
 10
-179.633
 20
-67.056
 11
-166.193
 21
-74.8155
  0
LINE
  8
0
 10
-166.193
 20
-74.8155
 11
-151.434
 21
-79.6111
  0
LINE
  8
0
 10
-151.434
 20
-79.6111
 11
-136
 21
-81.2333
  0
LINE
  8
0
 10
-136
 20
-81.2333
 11
-120.566
 21
-79.6111
  0
LINE
  8
0
 10
-191.468
 20
172.799
 11
-192.322
 21
173.18
  0
LINE
  8
0
 10
-192.322
 20
173.18
 11
-192.949
 21
173.875
  0
LINE
  8
0
 10
-192.949
 20
173.875
 11
-193.238
 21
174.765
  0
LINE
  8
0
 10
-193.238
 20
174.765
 11
-193.14
 21
175.695
  0
LINE
  8
0
 10
-193.14
 20
175.695
 11
-192.672
 21
176.506
  0
LINE
  8
0
 10
-192.672
 20
176.506
 11
-191.915
 21
177.055
  0
LINE
  8
0
 10
-191.915
 20
177.055
 11
-191
 21
177.25
  0
LINE
  8
0
 10
-191
 20
177.25
 11
-190.085
 21
177.055
  0
LINE
  8
0
 10
-190.085
 20
177.055
 11
-189.328
 21
176.506
  0
LINE
  8
0
 10
-189.328
 20
176.506
 11
-188.86
 21
175.695
  0
LINE
  8
0
 10
-188.86
 20
175.695
 11
-188.762
 21
174.765
  0
LINE
  8
0
 10
-188.762
 20
174.765
 11
-189.051
 21
173.875
  0
LINE
  8
0
 10
-189.051
 20
173.875
 11
-189.677
 21
173.18
  0
LINE
  8
0
 10
-189.677
 20
173.18
 11
-190.532
 21
172.799
  0
LINE
  8
0
 10
-190.532
 20
172.799
 11
-191.468
 21
172.799
  0
LINE
  8
0
 10
-176.695
 20
157.86
 11
-177.506
 21
158.328
  0
LINE
  8
0
 10
-177.506
 20
158.328
 11
-178.055
 21
159.085
  0
LINE
  8
0
 10
-178.055
 20
159.085
 11
-178.25
 21
160
  0
LINE
  8
0
 10
-178.25
 20
160
 11
-178.055
 21
160.915
  0
LINE
  8
0
 10
-178.055
 20
160.915
 11
-177.506
 21
161.672
  0
LINE
  8
0
 10
-177.506
 20
161.672
 11
-176.695
 21
162.14
  0
LINE
  8
0
 10
-176.695
 20
162.14
 11
-175.765
 21
162.238
  0
LINE
  8
0
 10
-175.765
 20
162.238
 11
-174.875
 21
161.949
  0
LINE
  8
0
 10
-174.875
 20
161.949
 11
-174.18
 21
161.323
  0
LINE
  8
0
 10
-174.18
 20
161.323
 11
-173.799
 21
160.468
  0
LINE
  8
0
 10
-173.799
 20
160.468
 11
-173.799
 21
159.532
  0
LINE
  8
0
 10
-173.799
 20
159.532
 11
-174.18
 21
158.677
  0
LINE
  8
0
 10
-174.18
 20
158.677
 11
-174.875
 21
158.051
  0
LINE
  8
0
 10
-174.875
 20
158.051
 11
-175.765
 21
157.762
  0
LINE
  8
0
 10
-175.765
 20
157.762
 11
-176.695
 21
157.86
  0
LINE
  8
0
 10
-206.695
 20
157.86
 11
-207.506
 21
158.328
  0
LINE
  8
0
 10
-207.506
 20
158.328
 11
-208.055
 21
159.085
  0
LINE
  8
0
 10
-208.055
 20
159.085
 11
-208.25
 21
160
  0
LINE
  8
0
 10
-208.25
 20
160
 11
-208.055
 21
160.915
  0
LINE
  8
0
 10
-208.055
 20
160.915
 11
-207.506
 21
161.672
  0
LINE
  8
0
 10
-207.506
 20
161.672
 11
-206.695
 21
162.14
  0
LINE
  8
0
 10
-206.695
 20
162.14
 11
-205.765
 21
162.238
  0
LINE
  8
0
 10
-205.765
 20
162.238
 11
-204.875
 21
161.949
  0
LINE
  8
0
 10
-204.875
 20
161.949
 11
-204.18
 21
161.323
  0
LINE
  8
0
 10
-204.18
 20
161.323
 11
-203.799
 21
160.468
  0
LINE
  8
0
 10
-203.799
 20
160.468
 11
-203.799
 21
159.532
  0
LINE
  8
0
 10
-203.799
 20
159.532
 11
-204.18
 21
158.677
  0
LINE
  8
0
 10
-204.18
 20
158.677
 11
-204.875
 21
158.051
  0
LINE
  8
0
 10
-204.875
 20
158.051
 11
-205.765
 21
157.762
  0
LINE
  8
0
 10
-205.765
 20
157.762
 11
-206.695
 21
157.86
  0
LINE
  8
0
 10
-192.322
 20
143.18
 11
-192.949
 21
143.875
  0
LINE
  8
0
 10
-192.949
 20
143.875
 11
-193.238
 21
144.765
  0
LINE
  8
0
 10
-193.238
 20
144.765
 11
-193.14
 21
145.695
  0
LINE
  8
0
 10
-193.14
 20
145.695
 11
-192.672
 21
146.506
  0
LINE
  8
0
 10
-192.672
 20
146.506
 11
-191.915
 21
147.055
  0
LINE
  8
0
 10
-191.915
 20
147.055
 11
-191.5
 21
147.144
  0
LINE
  8
0
 10
-191.5
 20
147.144
 11
-191.5
 21
142.813
  0
LINE
  8
0
 10
-191.5
 20
142.813
 11
-192.322
 21
143.18
  0
LINE
  8
0
 10
-190.5
 20
147.144
 11
-190.085
 21
147.055
  0
LINE
  8
0
 10
-190.085
 20
147.055
 11
-189.328
 21
146.506
  0
LINE
  8
0
 10
-189.328
 20
146.506
 11
-188.86
 21
145.695
  0
LINE
  8
0
 10
-188.86
 20
145.695
 11
-188.762
 21
144.765
  0
LINE
  8
0
 10
-188.762
 20
144.765
 11
-189.051
 21
143.875
  0
LINE
  8
0
 10
-189.051
 20
143.875
 11
-189.677
 21
143.18
  0
LINE
  8
0
 10
-189.677
 20
143.18
 11
-190.5
 21
142.814
  0
LINE
  8
0
 10
-190.5
 20
142.814
 11
-190.5
 21
147.144
  0
LINE
  8
0
 10
-145.536
 20
34.0426
 11
-145.536
 21
35.5146
  0
LINE
  8
0
 10
-145.536
 20
35.5146
 11
-136
 21
39.3526
  0
LINE
  8
0
 10
-136
 20
39.3526
 11
-136
 21
38.0306
  0
LINE
  8
0
 10
-136
 20
38.0306
 11
-138.766
 21
36.9386
  0
LINE
  8
0
 10
-138.766
 20
36.9386
 11
-138.766
 21
32.5846
  0
LINE
  8
0
 10
-138.766
 20
32.5846
 11
-136
 21
31.4866
  0
LINE
  8
0
 10
-136
 20
31.4866
 11
-136
 21
30.1436
  0
LINE
  8
0
 10
-136
 20
30.1436
 11
-145.536
 21
34.0426
  0
LINE
  8
0
 10
-139.776
 20
36.5517
 11
-142.935
 21
35.3246
  0
LINE
  8
0
 10
-142.935
 20
35.3246
 11
-143.177
 21
35.2296
  0
LINE
  8
0
 10
-143.177
 20
35.2296
 11
-143.434
 21
35.1346
  0
LINE
  8
0
 10
-143.434
 20
35.1346
 11
-143.707
 21
35.0396
  0
LINE
  8
0
 10
-143.707
 20
35.0396
 11
-143.995
 21
34.9446
  0
LINE
  8
0
 10
-143.995
 20
34.9446
 11
-144.559
 21
34.7616
  0
LINE
  8
0
 10
-144.559
 20
34.7616
 11
-144.369
 21
34.7007
  0
LINE
  8
0
 10
-144.369
 20
34.7007
 11
-144.067
 21
34.6055
  0
LINE
  8
0
 10
-144.067
 20
34.6055
 11
-143.725
 21
34.4901
  0
LINE
  8
0
 10
-143.725
 20
34.4901
 11
-143.344
 21
34.3545
  0
LINE
  8
0
 10
-143.344
 20
34.3545
 11
-142.922
 21
34.1986
  0
LINE
  8
0
 10
-142.922
 20
34.1986
 11
-139.776
 21
32.9787
  0
LINE
  8
0
 10
-139.776
 20
32.9787
 11
-139.776
 21
36.5517
  0
LINE
  8
0
 10
-140.1
 20
-35.5
 11
-140.691
 21
-35.4643
  0
LINE
  8
0
 10
-140.691
 20
-35.4643
 11
-141.273
 21
-35.3576
  0
LINE
  8
0
 10
-141.273
 20
-35.3576
 11
-141.838
 21
-35.1816
  0
LINE
  8
0
 10
-141.838
 20
-35.1816
 11
-142.377
 21
-34.9387
  0
LINE
  8
0
 10
-142.377
 20
-34.9387
 11
-142.884
 21
-34.6326
  0
LINE
  8
0
 10
-142.884
 20
-34.6326
 11
-143.349
 21
-34.2677
  0
LINE
  8
0
 10
-143.349
 20
-34.2677
 11
-143.768
 21
-33.8493
  0
LINE
  8
0
 10
-143.768
 20
-33.8493
 11
-144.133
 21
-33.3835
  0
LINE
  8
0
 10
-144.133
 20
-33.3835
 11
-144.439
 21
-32.8772
  0
LINE
  8
0
 10
-144.439
 20
-32.8772
 11
-144.682
 21
-32.3376
  0
LINE
  8
0
 10
-144.682
 20
-32.3376
 11
-144.858
 21
-31.7726
  0
LINE
  8
0
 10
-144.858
 20
-31.7726
 11
-144.964
 21
-31.1906
  0
LINE
  8
0
 10
-144.964
 20
-31.1906
 11
-145
 21
-30.6
  0
LINE
  8
0
 10
-145
 20
-30.6
 11
-145
 21
-16
  0
LINE
  8
0
 10
-145
 20
-16
 11
-159.6
 21
-16
  0
LINE
  8
0
 10
-159.6
 20
-16
 11
-160.191
 21
-15.9642
  0
LINE
  8
0
 10
-160.191
 20
-15.9642
 11
-160.773
 21
-15.8576
  0
LINE
  8
0
 10
-160.773
 20
-15.8576
 11
-161.338
 21
-15.6815
  0
LINE
  8
0
 10
-161.338
 20
-15.6815
 11
-161.877
 21
-15.4387
  0
LINE
  8
0
 10
-161.877
 20
-15.4387
 11
-162.384
 21
-15.1326
  0
LINE
  8
0
 10
-162.384
 20
-15.1326
 11
-162.849
 21
-14.7677
  0
LINE
  8
0
 10
-162.849
 20
-14.7677
 11
-163.268
 21
-14.3493
  0
LINE
  8
0
 10
-163.268
 20
-14.3493
 11
-163.633
 21
-13.8835
  0
LINE
  8
0
 10
-163.633
 20
-13.8835
 11
-163.939
 21
-13.3771
  0
LINE
  8
0
 10
-163.939
 20
-13.3771
 11
-164.182
 21
-12.8375
  0
LINE
  8
0
 10
-164.182
 20
-12.8375
 11
-164.358
 21
-12.2726
  0
LINE
  8
0
 10
-164.358
 20
-12.2726
 11
-164.464
 21
-11.6906
  0
LINE
  8
0
 10
-164.464
 20
-11.6906
 11
-164.5
 21
-11.1
  0
LINE
  8
0
 10
-164.5
 20
-11.1
 11
-164.5
 21
-2.89998
  0
LINE
  8
0
 10
-164.5
 20
-2.89998
 11
-164.464
 21
-2.30934
  0
LINE
  8
0
 10
-164.464
 20
-2.30934
 11
-164.358
 21
-1.72733
  0
LINE
  8
0
 10
-164.358
 20
-1.72733
 11
-164.182
 21
-1.16241
  0
LINE
  8
0
 10
-164.182
 20
-1.16241
 11
-163.939
 21
-0.622833
  0
LINE
  8
0
 10
-163.939
 20
-0.622833
 11
-163.633
 21
-0.116455
  0
LINE
  8
0
 10
-163.633
 20
-0.116455
 11
-163.268
 21
0.349304
  0
LINE
  8
0
 10
-163.268
 20
0.349304
 11
-162.849
 21
0.767715
  0
LINE
  8
0
 10
-162.849
 20
0.767715
 11
-162.384
 21
1.13263
  0
LINE
  8
0
 10
-162.384
 20
1.13263
 11
-161.877
 21
1.43874
  0
LINE
  8
0
 10
-161.877
 20
1.43874
 11
-161.338
 21
1.68158
  0
LINE
  8
0
 10
-161.338
 20
1.68158
 11
-160.773
 21
1.85762
  0
LINE
  8
0
 10
-160.773
 20
1.85762
 11
-160.191
 21
1.96428
  0
LINE
  8
0
 10
-160.191
 20
1.96428
 11
-159.6
 21
2
  0
LINE
  8
0
 10
-159.6
 20
2
 11
-145
 21
2
  0
LINE
  8
0
 10
-145
 20
2
 11
-145
 21
16.6
  0
LINE
  8
0
 10
-145
 20
16.6
 11
-144.964
 21
17.1906
  0
LINE
  8
0
 10
-144.964
 20
17.1906
 11
-144.858
 21
17.7726
  0
LINE
  8
0
 10
-144.858
 20
17.7726
 11
-144.682
 21
18.3376
  0
LINE
  8
0
 10
-144.682
 20
18.3376
 11
-144.439
 21
18.8771
  0
LINE
  8
0
 10
-144.439
 20
18.8771
 11
-144.133
 21
19.3835
  0
LINE
  8
0
 10
-144.133
 20
19.3835
 11
-143.768
 21
19.8493
  0
LINE
  8
0
 10
-143.768
 20
19.8493
 11
-143.349
 21
20.2677
  0
LINE
  8
0
 10
-143.349
 20
20.2677
 11
-142.884
 21
20.6326
  0
LINE
  8
0
 10
-142.884
 20
20.6326
 11
-142.377
 21
20.9387
  0
LINE
  8
0
 10
-142.377
 20
20.9387
 11
-141.838
 21
21.1816
  0
LINE
  8
0
 10
-141.838
 20
21.1816
 11
-141.273
 21
21.3576
  0
LINE
  8
0
 10
-141.273
 20
21.3576
 11
-140.691
 21
21.4643
  0
LINE
  8
0
 10
-140.691
 20
21.4643
 11
-140.1
 21
21.5
  0
LINE
  8
0
 10
-140.1
 20
21.5
 11
-131.9
 21
21.5
  0
LINE
  8
0
 10
-131.9
 20
21.5
 11
-131.309
 21
21.4643
  0
LINE
  8
0
 10
-131.309
 20
21.4643
 11
-130.727
 21
21.3576
  0
LINE
  8
0
 10
-130.727
 20
21.3576
 11
-130.162
 21
21.1816
  0
LINE
  8
0
 10
-130.162
 20
21.1816
 11
-129.623
 21
20.9387
  0
LINE
  8
0
 10
-129.623
 20
20.9387
 11
-129.116
 21
20.6326
  0
LINE
  8
0
 10
-129.116
 20
20.6326
 11
-128.651
 21
20.2677
  0
LINE
  8
0
 10
-128.651
 20
20.2677
 11
-128.232
 21
19.8493
  0
LINE
  8
0
 10
-128.232
 20
19.8493
 11
-127.867
 21
19.3835
  0
LINE
  8
0
 10
-127.867
 20
19.3835
 11
-127.561
 21
18.8771
  0
LINE
  8
0
 10
-127.561
 20
18.8771
 11
-127.318
 21
18.3375
  0
LINE
  8
0
 10
-127.318
 20
18.3375
 11
-127.142
 21
17.7726
  0
LINE
  8
0
 10
-127.142
 20
17.7726
 11
-127.036
 21
17.1906
  0
LINE
  8
0
 10
-127.036
 20
17.1906
 11
-127
 21
16.6
  0
LINE
  8
0
 10
-127
 20
16.6
 11
-127
 21
1.99998
  0
LINE
  8
0
 10
-127
 20
1.99998
 11
-112.4
 21
1.99998
  0
LINE
  8
0
 10
-112.4
 20
1.99998
 11
-111.809
 21
1.96426
  0
LINE
  8
0
 10
-111.809
 20
1.96426
 11
-111.227
 21
1.8576
  0
LINE
  8
0
 10
-111.227
 20
1.8576
 11
-110.662
 21
1.68156
  0
LINE
  8
0
 10
-110.662
 20
1.68156
 11
-110.123
 21
1.43872
  0
LINE
  8
0
 10
-110.123
 20
1.43872
 11
-109.616
 21
1.13261
  0
LINE
  8
0
 10
-109.616
 20
1.13261
 11
-109.151
 21
0.7677
  0
LINE
  8
0
 10
-109.151
 20
0.7677
 11
-108.732
 21
0.349289
  0
LINE
  8
0
 10
-108.732
 20
0.349289
 11
-108.367
 21
-0.11647
  0
LINE
  8
0
 10
-108.367
 20
-0.11647
 11
-108.061
 21
-0.622849
  0
LINE
  8
0
 10
-108.061
 20
-0.622849
 11
-107.818
 21
-1.16243
  0
LINE
  8
0
 10
-107.818
 20
-1.16243
 11
-107.642
 21
-1.72734
  0
LINE
  8
0
 10
-107.642
 20
-1.72734
 11
-107.536
 21
-2.30936
  0
LINE
  8
0
 10
-107.536
 20
-2.30936
 11
-107.5
 21
-2.89999
  0
LINE
  8
0
 10
-107.5
 20
-2.89999
 11
-107.5
 21
-11.1
  0
LINE
  8
0
 10
-107.5
 20
-11.1
 11
-107.536
 21
-11.6906
  0
LINE
  8
0
 10
-107.536
 20
-11.6906
 11
-107.642
 21
-12.2726
  0
LINE
  8
0
 10
-107.642
 20
-12.2726
 11
-107.818
 21
-12.8376
  0
LINE
  8
0
 10
-107.818
 20
-12.8376
 11
-108.061
 21
-13.3771
  0
LINE
  8
0
 10
-108.061
 20
-13.3771
 11
-108.367
 21
-13.8835
  0
LINE
  8
0
 10
-108.367
 20
-13.8835
 11
-108.732
 21
-14.3493
  0
LINE
  8
0
 10
-108.732
 20
-14.3493
 11
-109.151
 21
-14.7677
  0
LINE
  8
0
 10
-109.151
 20
-14.7677
 11
-109.616
 21
-15.1326
  0
LINE
  8
0
 10
-109.616
 20
-15.1326
 11
-110.123
 21
-15.4387
  0
LINE
  8
0
 10
-110.123
 20
-15.4387
 11
-110.662
 21
-15.6816
  0
LINE
  8
0
 10
-110.662
 20
-15.6816
 11
-111.227
 21
-15.8576
  0
LINE
  8
0
 10
-111.227
 20
-15.8576
 11
-111.809
 21
-15.9643
  0
LINE
  8
0
 10
-111.809
 20
-15.9643
 11
-112.4
 21
-16
  0
LINE
  8
0
 10
-112.4
 20
-16
 11
-127
 21
-16
  0
LINE
  8
0
 10
-127
 20
-16
 11
-127
 21
-30.6
  0
LINE
  8
0
 10
-127
 20
-30.6
 11
-127.036
 21
-31.1906
  0
LINE
  8
0
 10
-127.036
 20
-31.1906
 11
-127.142
 21
-31.7727
  0
LINE
  8
0
 10
-127.142
 20
-31.7727
 11
-127.318
 21
-32.3376
  0
LINE
  8
0
 10
-127.318
 20
-32.3376
 11
-127.561
 21
-32.8772
  0
LINE
  8
0
 10
-127.561
 20
-32.8772
 11
-127.867
 21
-33.3835
  0
LINE
  8
0
 10
-127.867
 20
-33.3835
 11
-128.232
 21
-33.8493
  0
LINE
  8
0
 10
-128.232
 20
-33.8493
 11
-128.651
 21
-34.2677
  0
LINE
  8
0
 10
-128.651
 20
-34.2677
 11
-129.116
 21
-34.6326
  0
LINE
  8
0
 10
-129.116
 20
-34.6326
 11
-129.623
 21
-34.9387
  0
LINE
  8
0
 10
-129.623
 20
-34.9387
 11
-130.162
 21
-35.1816
  0
LINE
  8
0
 10
-130.162
 20
-35.1816
 11
-130.727
 21
-35.3576
  0
LINE
  8
0
 10
-130.727
 20
-35.3576
 11
-131.309
 21
-35.4643
  0
LINE
  8
0
 10
-131.309
 20
-35.4643
 11
-131.9
 21
-35.5
  0
LINE
  8
0
 10
-131.9
 20
-35.5
 11
-140.1
 21
-35.5
  0
LINE
  8
0
 10
-134.677
 20
12.6797
 11
-134.051
 21
13.375
  0
LINE
  8
0
 10
-134.051
 20
13.375
 11
-133.762
 21
14.2648
  0
LINE
  8
0
 10
-133.762
 20
14.2648
 11
-133.86
 21
15.1953
  0
LINE
  8
0
 10
-133.86
 20
15.1953
 11
-134.328
 21
16.0055
  0
LINE
  8
0
 10
-134.328
 20
16.0055
 11
-135.085
 21
16.5555
  0
LINE
  8
0
 10
-135.085
 20
16.5555
 11
-136
 21
16.75
  0
LINE
  8
0
 10
-136
 20
16.75
 11
-136.915
 21
16.5555
  0
LINE
  8
0
 10
-136.915
 20
16.5555
 11
-137.672
 21
16.0055
  0
LINE
  8
0
 10
-137.672
 20
16.0055
 11
-138.14
 21
15.1953
  0
LINE
  8
0
 10
-138.14
 20
15.1953
 11
-138.238
 21
14.2648
  0
LINE
  8
0
 10
-138.238
 20
14.2648
 11
-137.949
 21
13.375
  0
LINE
  8
0
 10
-137.949
 20
13.375
 11
-137.323
 21
12.6797
  0
LINE
  8
0
 10
-137.323
 20
12.6797
 11
-136.468
 21
12.2992
  0
LINE
  8
0
 10
-136.468
 20
12.2992
 11
-135.532
 21
12.2992
  0
LINE
  8
0
 10
-135.532
 20
12.2992
 11
-134.677
 21
12.6797
  0
LINE
  8
0
 10
-134.303
 20
-8.69705
 11
-133.6
 21
-7
  0
LINE
  8
0
 10
-133.6
 20
-7
 11
-134.303
 21
-5.30295
  0
LINE
  8
0
 10
-134.303
 20
-5.30295
 11
-136
 21
-4.60001
  0
LINE
  8
0
 10
-136
 20
-4.60001
 11
-137.697
 21
-5.30295
  0
LINE
  8
0
 10
-137.697
 20
-5.30295
 11
-138.4
 21
-6.99998
  0
LINE
  8
0
 10
-138.4
 20
-6.99998
 11
-137.697
 21
-8.69705
  0
LINE
  8
0
 10
-137.697
 20
-8.69705
 11
-136
 21
-9.39999
  0
LINE
  8
0
 10
-136
 20
-9.39999
 11
-134.303
 21
-8.69705
  0
LINE
  8
0
 10
-156.375
 20
-8.94852
 11
-155.68
 21
-8.32248
  0
LINE
  8
0
 10
-155.68
 20
-8.32248
 11
-155.299
 21
-7.46776
  0
LINE
  8
0
 10
-155.299
 20
-7.46776
 11
-155.299
 21
-6.53218
  0
LINE
  8
0
 10
-155.299
 20
-6.53218
 11
-155.68
 21
-5.67746
  0
LINE
  8
0
 10
-155.68
 20
-5.67746
 11
-156.375
 21
-5.05142
  0
LINE
  8
0
 10
-156.375
 20
-5.05142
 11
-157.265
 21
-4.7623
  0
LINE
  8
0
 10
-157.265
 20
-4.7623
 11
-158.195
 21
-4.86011
  0
LINE
  8
0
 10
-158.195
 20
-4.86011
 11
-159.006
 21
-5.3279
  0
LINE
  8
0
 10
-159.006
 20
-5.3279
 11
-159.555
 21
-6.08482
  0
LINE
  8
0
 10
-159.555
 20
-6.08482
 11
-159.75
 21
-6.99998
  0
LINE
  8
0
 10
-159.75
 20
-6.99998
 11
-159.555
 21
-7.91512
  0
LINE
  8
0
 10
-159.555
 20
-7.91512
 11
-159.006
 21
-8.67204
  0
LINE
  8
0
 10
-159.006
 20
-8.67204
 11
-158.195
 21
-9.13983
  0
LINE
  8
0
 10
-158.195
 20
-9.13983
 11
-157.265
 21
-9.23764
  0
LINE
  8
0
 10
-157.265
 20
-9.23764
 11
-156.375
 21
-8.94852
  0
LINE
  8
0
 10
-113.375
 20
-8.94855
 11
-112.68
 21
-8.32251
  0
LINE
  8
0
 10
-112.68
 20
-8.32251
 11
-112.299
 21
-7.46779
  0
LINE
  8
0
 10
-112.299
 20
-7.46779
 11
-112.299
 21
-6.5322
  0
LINE
  8
0
 10
-112.299
 20
-6.5322
 11
-112.68
 21
-5.67747
  0
LINE
  8
0
 10
-112.68
 20
-5.67747
 11
-113.375
 21
-5.05144
  0
LINE
  8
0
 10
-113.375
 20
-5.05144
 11
-114.265
 21
-4.76231
  0
LINE
  8
0
 10
-114.265
 20
-4.76231
 11
-115.195
 21
-4.86012
  0
LINE
  8
0
 10
-115.195
 20
-4.86012
 11
-116.006
 21
-5.32791
  0
LINE
  8
0
 10
-116.006
 20
-5.32791
 11
-116.555
 21
-6.08484
  0
LINE
  8
0
 10
-116.555
 20
-6.08484
 11
-116.75
 21
-7
  0
LINE
  8
0
 10
-116.75
 20
-7
 11
-116.555
 21
-7.91515
  0
LINE
  8
0
 10
-116.555
 20
-7.91515
 11
-116.006
 21
-8.67207
  0
LINE
  8
0
 10
-116.006
 20
-8.67207
 11
-115.195
 21
-9.13986
  0
LINE
  8
0
 10
-115.195
 20
-9.13986
 11
-114.265
 21
-9.23767
  0
LINE
  8
0
 10
-114.265
 20
-9.23767
 11
-113.375
 21
-8.94855
  0
LINE
  8
0
 10
-134.677
 20
-30.3203
 11
-134.051
 21
-29.625
  0
LINE
  8
0
 10
-134.051
 20
-29.625
 11
-133.762
 21
-28.7352
  0
LINE
  8
0
 10
-133.762
 20
-28.7352
 11
-133.86
 21
-27.8047
  0
LINE
  8
0
 10
-133.86
 20
-27.8047
 11
-134.328
 21
-26.9945
  0
LINE
  8
0
 10
-134.328
 20
-26.9945
 11
-135.085
 21
-26.4445
  0
LINE
  8
0
 10
-135.085
 20
-26.4445
 11
-136
 21
-26.25
  0
LINE
  8
0
 10
-136
 20
-26.25
 11
-136.915
 21
-26.4445
  0
LINE
  8
0
 10
-136.915
 20
-26.4445
 11
-137.672
 21
-26.9945
  0
LINE
  8
0
 10
-137.672
 20
-26.9945
 11
-138.14
 21
-27.8047
  0
LINE
  8
0
 10
-138.14
 20
-27.8047
 11
-138.238
 21
-28.7352
  0
LINE
  8
0
 10
-138.238
 20
-28.7352
 11
-137.949
 21
-29.625
  0
LINE
  8
0
 10
-137.949
 20
-29.625
 11
-137.323
 21
-30.3203
  0
LINE
  8
0
 10
-137.323
 20
-30.3203
 11
-136.468
 21
-30.7008
  0
LINE
  8
0
 10
-136.468
 20
-30.7008
 11
-135.532
 21
-30.7008
  0
LINE
  8
0
 10
-135.532
 20
-30.7008
 11
-134.677
 21
-30.3203
  0
LINE
  8
0
 10
-168.347
 20
-286.887
 11
-154.17
 21
-280.575
  0
LINE
  8
0
 10
-154.17
 20
-280.575
 11
-141.615
 21
-271.453
  0
LINE
  8
0
 10
-141.615
 20
-271.453
 11
-131.231
 21
-259.92
  0
LINE
  8
0
 10
-131.231
 20
-259.92
 11
-123.471
 21
-246.48
  0
LINE
  8
0
 10
-123.471
 20
-246.48
 11
-118.676
 21
-231.721
  0
LINE
  8
0
 10
-118.676
 20
-231.721
 11
-117.053
 21
-216.287
  0
LINE
  8
0
 10
-117.053
 20
-216.287
 11
-118.676
 21
-200.853
  0
LINE
  8
0
 10
-118.676
 20
-200.853
 11
-120.905
 21
-193.99
  0
LINE
  8
0
 10
-120.905
 20
-193.99
 11
-23.6662
 21
-250.131
  0
LINE
  8
0
 10
-23.6662
 20
-250.131
 11
-24.9997
 21
-252.441
  0
LINE
  8
0
 10
-24.9997
 20
-252.441
 11
-25.264
 21
-252.97
  0
LINE
  8
0
 10
-25.264
 20
-252.97
 11
-25.4627
 21
-253.528
  0
LINE
  8
0
 10
-25.4627
 20
-253.528
 11
-25.5927
 21
-254.105
  0
LINE
  8
0
 10
-25.5927
 20
-254.105
 11
-25.6521
 21
-254.693
  0
LINE
  8
0
 10
-25.6521
 20
-254.693
 11
-25.6402
 21
-255.285
  0
LINE
  8
0
 10
-25.6402
 20
-255.285
 11
-25.5571
 21
-255.871
  0
LINE
  8
0
 10
-25.5571
 20
-255.871
 11
-25.404
 21
-256.442
  0
LINE
  8
0
 10
-25.404
 20
-256.442
 11
-25.183
 21
-256.991
  0
LINE
  8
0
 10
-25.183
 20
-256.991
 11
-24.8976
 21
-257.51
  0
LINE
  8
0
 10
-24.8976
 20
-257.51
 11
-24.5517
 21
-257.99
  0
LINE
  8
0
 10
-24.5517
 20
-257.99
 11
-24.1505
 21
-258.425
  0
LINE
  8
0
 10
-24.1505
 20
-258.425
 11
-23.6998
 21
-258.808
  0
LINE
  8
0
 10
-23.6998
 20
-258.808
 11
-23.2061
 21
-259.134
  0
LINE
  8
0
 10
-23.2061
 20
-259.134
 11
-16.1913
 21
-263.184
  0
LINE
  8
0
 10
-16.1913
 20
-263.184
 11
-20.2413
 21
-270.199
  0
LINE
  8
0
 10
-20.2413
 20
-270.199
 11
-20.5057
 21
-270.729
  0
LINE
  8
0
 10
-20.5057
 20
-270.729
 11
-20.7043
 21
-271.286
  0
LINE
  8
0
 10
-20.7043
 20
-271.286
 11
-20.8344
 21
-271.863
  0
LINE
  8
0
 10
-20.8344
 20
-271.863
 11
-20.8938
 21
-272.452
  0
LINE
  8
0
 10
-20.8938
 20
-272.452
 11
-20.8819
 21
-273.043
  0
LINE
  8
0
 10
-20.8819
 20
-273.043
 11
-20.7988
 21
-273.629
  0
LINE
  8
0
 10
-20.7988
 20
-273.629
 11
-20.6456
 21
-274.201
  0
LINE
  8
0
 10
-20.6456
 20
-274.201
 11
-20.4247
 21
-274.75
  0
LINE
  8
0
 10
-20.4247
 20
-274.75
 11
-20.1392
 21
-275.268
  0
LINE
  8
0
 10
-20.1392
 20
-275.268
 11
-19.7934
 21
-275.748
  0
LINE
  8
0
 10
-19.7934
 20
-275.748
 11
-19.3922
 21
-276.183
  0
LINE
  8
0
 10
-19.3922
 20
-276.183
 11
-18.9415
 21
-276.566
  0
LINE
  8
0
 10
-18.9415
 20
-276.566
 11
-18.4478
 21
-276.893
  0
LINE
  8
0
 10
-18.4478
 20
-276.893
 11
-11.3464
 21
-280.993
  0
LINE
  8
0
 10
-11.3464
 20
-280.993
 11
-10.817
 21
-281.257
  0
LINE
  8
0
 10
-10.817
 20
-281.257
 11
-10.2597
 21
-281.456
  0
LINE
  8
0
 10
-10.2597
 20
-281.456
 11
-9.68242
 21
-281.586
  0
LINE
  8
0
 10
-9.68242
 20
-281.586
 11
-9.0937
 21
-281.645
  0
LINE
  8
0
 10
-9.0937
 20
-281.645
 11
-8.50212
 21
-281.633
  0
LINE
  8
0
 10
-8.50212
 20
-281.633
 11
-7.91631
 21
-281.55
  0
LINE
  8
0
 10
-7.91631
 20
-281.55
 11
-7.34474
 21
-281.397
  0
LINE
  8
0
 10
-7.34474
 20
-281.397
 11
-6.79582
 21
-281.176
  0
LINE
  8
0
 10
-6.79582
 20
-281.176
 11
-6.27754
 21
-280.891
  0
LINE
  8
0
 10
-6.27754
 20
-280.891
 11
-5.79744
 21
-280.545
  0
LINE
  8
0
 10
-5.79744
 20
-280.545
 11
-5.36253
 21
-280.143
  0
LINE
  8
0
 10
-5.36253
 20
-280.143
 11
-4.97916
 21
-279.693
  0
LINE
  8
0
 10
-4.97916
 20
-279.693
 11
-4.65289
 21
-279.199
  0
LINE
  8
0
 10
-4.65289
 20
-279.199
 11
-0.60289
 21
-272.184
  0
LINE
  8
0
 10
-0.60289
 20
-272.184
 11
6.41191
 21
-276.234
  0
LINE
  8
0
 10
6.41191
 20
-276.234
 11
6.9413
 21
-276.499
  0
LINE
  8
0
 10
6.9413
 20
-276.499
 11
7.49866
 21
-276.697
  0
LINE
  8
0
 10
7.49866
 20
-276.697
 11
8.07591
 21
-276.827
  0
LINE
  8
0
 10
8.07591
 20
-276.827
 11
8.66463
 21
-276.887
  0
LINE
  8
0
 10
8.66463
 20
-276.887
 11
9.25621
 21
-276.875
  0
LINE
  8
0
 10
9.25621
 20
-276.875
 11
9.84204
 21
-276.792
  0
LINE
  8
0
 10
9.84204
 20
-276.792
 11
10.4136
 21
-276.639
  0
LINE
  8
0
 10
10.4136
 20
-276.639
 11
10.9625
 21
-276.418
  0
LINE
  8
0
 10
10.9625
 20
-276.418
 11
11.4808
 21
-276.132
  0
LINE
  8
0
 10
11.4808
 20
-276.132
 11
11.9609
 21
-275.786
  0
LINE
  8
0
 10
11.9609
 20
-275.786
 11
12.3958
 21
-275.385
  0
LINE
  8
0
 10
12.3958
 20
-275.385
 11
12.7792
 21
-274.934
  0
LINE
  8
0
 10
12.7792
 20
-274.934
 11
13.1054
 21
-274.441
  0
LINE
  8
0
 10
13.1054
 20
-274.441
 11
17.2054
 21
-267.339
  0
LINE
  8
0
 10
17.2054
 20
-267.339
 11
17.4698
 21
-266.81
  0
LINE
  8
0
 10
17.4698
 20
-266.81
 11
17.6685
 21
-266.253
  0
LINE
  8
0
 10
17.6685
 20
-266.253
 11
17.7985
 21
-265.675
  0
LINE
  8
0
 10
17.7985
 20
-265.675
 11
17.8579
 21
-265.087
  0
LINE
  8
0
 10
17.8579
 20
-265.087
 11
17.846
 21
-264.495
  0
LINE
  8
0
 10
17.846
 20
-264.495
 11
17.7629
 21
-263.909
  0
LINE
  8
0
 10
17.7629
 20
-263.909
 11
17.6098
 21
-263.338
  0
LINE
  8
0
 10
17.6098
 20
-263.338
 11
17.3888
 21
-262.789
  0
LINE
  8
0
 10
17.3888
 20
-262.789
 11
17.1033
 21
-262.271
  0
LINE
  8
0
 10
17.1033
 20
-262.271
 11
16.7575
 21
-261.79
  0
LINE
  8
0
 10
16.7575
 20
-261.79
 11
16.3563
 21
-261.355
  0
LINE
  8
0
 10
16.3563
 20
-261.355
 11
15.9056
 21
-260.972
  0
LINE
  8
0
 10
15.9056
 20
-260.972
 11
15.4119
 21
-260.646
  0
LINE
  8
0
 10
15.4119
 20
-260.646
 11
8.39711
 21
-256.596
  0
LINE
  8
0
 10
8.39711
 20
-256.596
 11
12.4471
 21
-249.581
  0
LINE
  8
0
 10
12.4471
 20
-249.581
 11
12.7115
 21
-249.052
  0
LINE
  8
0
 10
12.7115
 20
-249.052
 11
12.9101
 21
-248.494
  0
LINE
  8
0
 10
12.9101
 20
-248.494
 11
13.0401
 21
-247.917
  0
LINE
  8
0
 10
13.0401
 20
-247.917
 11
13.0996
 21
-247.328
  0
LINE
  8
0
 10
13.0996
 20
-247.328
 11
13.0877
 21
-246.737
  0
LINE
  8
0
 10
13.0877
 20
-246.737
 11
13.0045
 21
-246.151
  0
LINE
  8
0
 10
13.0045
 20
-246.151
 11
12.8514
 21
-245.579
  0
LINE
  8
0
 10
12.8514
 20
-245.579
 11
12.6305
 21
-245.03
  0
LINE
  8
0
 10
12.6305
 20
-245.03
 11
12.345
 21
-244.512
  0
LINE
  8
0
 10
12.345
 20
-244.512
 11
11.9991
 21
-244.032
  0
LINE
  8
0
 10
11.9991
 20
-244.032
 11
11.5979
 21
-243.597
  0
LINE
  8
0
 10
11.5979
 20
-243.597
 11
11.1472
 21
-243.214
  0
LINE
  8
0
 10
11.1472
 20
-243.214
 11
10.6536
 21
-242.888
  0
LINE
  8
0
 10
10.6536
 20
-242.888
 11
3.55217
 21
-238.788
  0
LINE
  8
0
 10
3.55217
 20
-238.788
 11
3.0228
 21
-238.523
  0
LINE
  8
0
 10
3.0228
 20
-238.523
 11
2.46544
 21
-238.325
  0
LINE
  8
0
 10
2.46544
 20
-238.325
 11
1.88818
 21
-238.195
  0
LINE
  8
0
 10
1.88818
 20
-238.195
 11
1.29947
 21
-238.135
  0
LINE
  8
0
 10
1.29947
 20
-238.135
 11
0.707886
 21
-238.147
  0
LINE
  8
0
 10
0.707886
 20
-238.147
 11
0.122055
 21
-238.23
  0
LINE
  8
0
 10
0.122055
 20
-238.23
 11
-0.449493
 21
-238.383
  0
LINE
  8
0
 10
-0.449493
 20
-238.383
 11
-0.998413
 21
-238.604
  0
LINE
  8
0
 10
-0.998413
 20
-238.604
 11
-1.51669
 21
-238.89
  0
LINE
  8
0
 10
-1.51669
 20
-238.89
 11
-1.9968
 21
-239.235
  0
LINE
  8
0
 10
-1.9968
 20
-239.235
 11
-2.4317
 21
-239.637
  0
LINE
  8
0
 10
-2.4317
 20
-239.637
 11
-2.81508
 21
-240.087
  0
LINE
  8
0
 10
-2.81508
 20
-240.087
 11
-3.14133
 21
-240.581
  0
LINE
  8
0
 10
-3.14133
 20
-240.581
 11
-7.19133
 21
-247.596
  0
LINE
  8
0
 10
-7.19133
 20
-247.596
 11
-14.2061
 21
-243.546
  0
LINE
  8
0
 10
-14.2061
 20
-243.546
 11
-14.7355
 21
-243.281
  0
LINE
  8
0
 10
-14.7355
 20
-243.281
 11
-15.2929
 21
-243.083
  0
LINE
  8
0
 10
-15.2929
 20
-243.083
 11
-15.8701
 21
-242.953
  0
LINE
  8
0
 10
-15.8701
 20
-242.953
 11
-16.4588
 21
-242.893
  0
LINE
  8
0
 10
-16.4588
 20
-242.893
 11
-17.0504
 21
-242.905
  0
LINE
  8
0
 10
-17.0504
 20
-242.905
 11
-17.6362
 21
-242.988
  0
LINE
  8
0
 10
-17.6362
 20
-242.988
 11
-18.2078
 21
-243.142
  0
LINE
  8
0
 10
-18.2078
 20
-243.142
 11
-18.7567
 21
-243.362
  0
LINE
  8
0
 10
-18.7567
 20
-243.362
 11
-19.275
 21
-243.648
  0
LINE
  8
0
 10
-19.275
 20
-243.648
 11
-19.7551
 21
-243.994
  0
LINE
  8
0
 10
-19.7551
 20
-243.994
 11
-20.19
 21
-244.395
  0
LINE
  8
0
 10
-20.19
 20
-244.395
 11
-20.5734
 21
-244.846
  0
LINE
  8
0
 10
-20.5734
 20
-244.846
 11
-20.8997
 21
-245.339
  0
LINE
  8
0
 10
-20.8997
 20
-245.339
 11
-22.4497
 21
-248.024
  0
LINE
  8
0
 10
-22.4497
 20
-248.024
 11
-26.7798
 21
-245.524
  0
LINE
  8
0
 10
-26.7798
 20
-245.524
 11
-27.4963
 21
-246.765
  0
LINE
  8
0
 10
-27.4963
 20
-246.765
 11
-121.367
 21
-192.569
  0
LINE
  8
0
 10
-121.367
 20
-192.569
 11
-123.471
 21
-186.093
  0
LINE
  8
0
 10
-123.471
 20
-186.093
 11
-131.231
 21
-172.653
  0
LINE
  8
0
 10
-131.231
 20
-172.653
 11
-141.615
 21
-161.121
  0
LINE
  8
0
 10
-141.615
 20
-161.121
 11
-154.17
 21
-151.999
  0
LINE
  8
0
 10
-154.17
 20
-151.999
 11
-168.347
 21
-145.687
  0
LINE
  8
0
 10
-168.347
 20
-145.687
 11
-180.132
 21
-143.182
  0
LINE
  8
0
 10
-180.132
 20
-143.182
 11
205.549
 21
115.497
  0
LINE
  8
0
 10
205.549
 20
115.497
 11
207.185
 21
113.025
  0
LINE
  8
0
 10
207.185
 20
113.025
 11
207.541
 21
112.552
  0
LINE
  8
0
 10
207.541
 20
112.552
 11
207.951
 21
112.126
  0
LINE
  8
0
 10
207.951
 20
112.126
 11
208.41
 21
111.752
  0
LINE
  8
0
 10
208.41
 20
111.752
 11
208.91
 21
111.436
  0
LINE
  8
0
 10
208.91
 20
111.436
 11
209.445
 21
111.182
  0
LINE
  8
0
 10
209.445
 20
111.182
 11
210.006
 21
110.995
  0
LINE
  8
0
 10
210.006
 20
110.995
 11
210.586
 21
110.877
  0
LINE
  8
0
 10
210.586
 20
110.877
 11
211.176
 21
110.83
  0
LINE
  8
0
 10
211.176
 20
110.83
 11
211.767
 21
110.854
  0
LINE
  8
0
 10
211.767
 20
110.854
 11
212.351
 21
110.95
  0
LINE
  8
0
 10
212.351
 20
110.95
 11
212.919
 21
111.115
  0
LINE
  8
0
 10
212.919
 20
111.115
 11
213.463
 21
111.347
  0
LINE
  8
0
 10
213.463
 20
111.347
 11
213.975
 21
111.643
  0
LINE
  8
0
 10
213.975
 20
111.643
 11
220.73
 21
116.114
  0
LINE
  8
0
 10
220.73
 20
116.114
 11
225.201
 21
109.359
  0
LINE
  8
0
 10
225.201
 20
109.359
 11
225.556
 21
108.887
  0
LINE
  8
0
 10
225.556
 20
108.887
 11
225.967
 21
108.46
  0
LINE
  8
0
 10
225.967
 20
108.46
 11
226.425
 21
108.086
  0
LINE
  8
0
 10
226.425
 20
108.086
 11
226.926
 21
107.77
  0
LINE
  8
0
 10
226.926
 20
107.77
 11
227.46
 21
107.517
  0
LINE
  8
0
 10
227.46
 20
107.517
 11
228.022
 21
107.33
  0
LINE
  8
0
 10
228.022
 20
107.33
 11
228.601
 21
107.212
  0
LINE
  8
0
 10
228.601
 20
107.212
 11
229.191
 21
107.165
  0
LINE
  8
0
 10
229.191
 20
107.165
 11
229.783
 21
107.189
  0
LINE
  8
0
 10
229.783
 20
107.189
 11
230.366
 21
107.284
  0
LINE
  8
0
 10
230.366
 20
107.284
 11
230.935
 21
107.449
  0
LINE
  8
0
 10
230.935
 20
107.449
 11
231.479
 21
107.682
  0
LINE
  8
0
 10
231.479
 20
107.682
 11
231.991
 21
107.978
  0
LINE
  8
0
 10
231.991
 20
107.978
 11
238.829
 21
112.504
  0
LINE
  8
0
 10
238.829
 20
112.504
 11
239.302
 21
112.86
  0
LINE
  8
0
 10
239.302
 20
112.86
 11
239.728
 21
113.27
  0
LINE
  8
0
 10
239.728
 20
113.27
 11
240.102
 21
113.728
  0
LINE
  8
0
 10
240.102
 20
113.728
 11
240.418
 21
114.229
  0
LINE
  8
0
 10
240.418
 20
114.229
 11
240.671
 21
114.763
  0
LINE
  8
0
 10
240.671
 20
114.763
 11
240.858
 21
115.325
  0
LINE
  8
0
 10
240.858
 20
115.325
 11
240.976
 21
115.905
  0
LINE
  8
0
 10
240.976
 20
115.905
 11
241.024
 21
116.494
  0
LINE
  8
0
 10
241.024
 20
116.494
 11
240.999
 21
117.086
  0
LINE
  8
0
 10
240.999
 20
117.086
 11
240.904
 21
117.67
  0
LINE
  8
0
 10
240.904
 20
117.67
 11
240.739
 21
118.238
  0
LINE
  8
0
 10
240.739
 20
118.238
 11
240.507
 21
118.782
  0
LINE
  8
0
 10
240.507
 20
118.782
 11
240.211
 21
119.294
  0
LINE
  8
0
 10
240.211
 20
119.294
 11
235.74
 21
126.049
  0
LINE
  8
0
 10
235.74
 20
126.049
 11
242.494
 21
130.519
  0
LINE
  8
0
 10
242.494
 20
130.519
 11
242.967
 21
130.875
  0
LINE
  8
0
 10
242.967
 20
130.875
 11
243.394
 21
131.285
  0
LINE
  8
0
 10
243.394
 20
131.285
 11
243.768
 21
131.744
  0
LINE
  8
0
 10
243.768
 20
131.744
 11
244.083
 21
132.244
  0
LINE
  8
0
 10
244.083
 20
132.244
 11
244.337
 21
132.779
  0
LINE
  8
0
 10
244.337
 20
132.779
 11
244.524
 21
133.34
  0
LINE
  8
0
 10
244.524
 20
133.34
 11
244.642
 21
133.92
  0
LINE
  8
0
 10
244.642
 20
133.92
 11
244.689
 21
134.51
  0
LINE
  8
0
 10
244.689
 20
134.51
 11
244.665
 21
135.101
  0
LINE
  8
0
 10
244.665
 20
135.101
 11
244.569
 21
135.685
  0
LINE
  8
0
 10
244.569
 20
135.685
 11
244.404
 21
136.254
  0
LINE
  8
0
 10
244.404
 20
136.254
 11
244.172
 21
136.798
  0
LINE
  8
0
 10
244.172
 20
136.798
 11
243.876
 21
137.31
  0
LINE
  8
0
 10
243.876
 20
137.31
 11
239.35
 21
144.148
  0
LINE
  8
0
 10
239.35
 20
144.148
 11
238.994
 21
144.621
  0
LINE
  8
0
 10
238.994
 20
144.621
 11
238.584
 21
145.047
  0
LINE
  8
0
 10
238.584
 20
145.047
 11
238.125
 21
145.421
  0
LINE
  8
0
 10
238.125
 20
145.421
 11
237.625
 21
145.737
  0
LINE
  8
0
 10
237.625
 20
145.737
 11
237.09
 21
145.99
  0
LINE
  8
0
 10
237.09
 20
145.99
 11
236.529
 21
146.177
  0
LINE
  8
0
 10
236.529
 20
146.177
 11
235.949
 21
146.295
  0
LINE
  8
0
 10
235.949
 20
146.295
 11
235.359
 21
146.342
  0
LINE
  8
0
 10
235.359
 20
146.342
 11
234.768
 21
146.318
  0
LINE
  8
0
 10
234.768
 20
146.318
 11
234.184
 21
146.223
  0
LINE
  8
0
 10
234.184
 20
146.223
 11
233.616
 21
146.058
  0
LINE
  8
0
 10
233.616
 20
146.058
 11
233.072
 21
145.826
  0
LINE
  8
0
 10
233.072
 20
145.826
 11
232.56
 21
145.529
  0
LINE
  8
0
 10
232.56
 20
145.529
 11
225.805
 21
141.059
  0
LINE
  8
0
 10
225.805
 20
141.059
 11
221.334
 21
147.813
  0
LINE
  8
0
 10
221.334
 20
147.813
 11
220.979
 21
148.286
  0
LINE
  8
0
 10
220.979
 20
148.286
 11
220.568
 21
148.712
  0
LINE
  8
0
 10
220.568
 20
148.712
 11
220.11
 21
149.086
  0
LINE
  8
0
 10
220.11
 20
149.086
 11
219.609
 21
149.402
  0
LINE
  8
0
 10
219.609
 20
149.402
 11
219.075
 21
149.656
  0
LINE
  8
0
 10
219.075
 20
149.656
 11
218.513
 21
149.843
  0
LINE
  8
0
 10
218.513
 20
149.843
 11
217.934
 21
149.961
  0
LINE
  8
0
 10
217.934
 20
149.961
 11
217.344
 21
150.008
  0
LINE
  8
0
 10
217.344
 20
150.008
 11
216.752
 21
149.984
  0
LINE
  8
0
 10
216.752
 20
149.984
 11
216.169
 21
149.888
  0
LINE
  8
0
 10
216.169
 20
149.888
 11
215.6
 21
149.723
  0
LINE
  8
0
 10
215.6
 20
149.723
 11
215.056
 21
149.491
  0
LINE
  8
0
 10
215.056
 20
149.491
 11
214.544
 21
149.195
  0
LINE
  8
0
 10
214.544
 20
149.195
 11
207.706
 21
144.669
  0
LINE
  8
0
 10
207.706
 20
144.669
 11
207.233
 21
144.313
  0
LINE
  8
0
 10
207.233
 20
144.313
 11
206.807
 21
143.903
  0
LINE
  8
0
 10
206.807
 20
143.903
 11
206.433
 21
143.444
  0
LINE
  8
0
 10
206.433
 20
143.444
 11
206.117
 21
142.944
  0
LINE
  8
0
 10
206.117
 20
142.944
 11
205.864
 21
142.409
  0
LINE
  8
0
 10
205.864
 20
142.409
 11
205.677
 21
141.848
  0
LINE
  8
0
 10
205.677
 20
141.848
 11
205.559
 21
141.268
  0
LINE
  8
0
 10
205.559
 20
141.268
 11
205.511
 21
140.678
  0
LINE
  8
0
 10
205.511
 20
140.678
 11
205.536
 21
140.087
  0
LINE
  8
0
 10
205.536
 20
140.087
 11
205.631
 21
139.503
  0
LINE
  8
0
 10
205.631
 20
139.503
 11
205.796
 21
138.935
  0
LINE
  8
0
 10
205.796
 20
138.935
 11
206.028
 21
138.391
  0
LINE
  8
0
 10
206.028
 20
138.391
 11
206.324
 21
137.878
  0
LINE
  8
0
 10
206.324
 20
137.878
 11
210.795
 21
131.124
  0
LINE
  8
0
 10
210.795
 20
131.124
 11
204.041
 21
126.653
  0
LINE
  8
0
 10
204.041
 20
126.653
 11
203.568
 21
126.297
  0
LINE
  8
0
 10
203.568
 20
126.297
 11
203.141
 21
125.887
  0
LINE
  8
0
 10
203.141
 20
125.887
 11
202.767
 21
125.429
  0
LINE
  8
0
 10
202.767
 20
125.429
 11
202.452
 21
124.928
  0
LINE
  8
0
 10
202.452
 20
124.928
 11
202.198
 21
124.394
  0
LINE
  8
0
 10
202.198
 20
124.394
 11
202.011
 21
123.832
  0
LINE
  8
0
 10
202.011
 20
123.832
 11
201.893
 21
123.252
  0
LINE
  8
0
 10
201.893
 20
123.252
 11
201.846
 21
122.663
  0
LINE
  8
0
 10
201.846
 20
122.663
 11
201.87
 21
122.071
  0
LINE
  8
0
 10
201.87
 20
122.071
 11
201.966
 21
121.487
  0
LINE
  8
0
 10
201.966
 20
121.487
 11
202.131
 21
120.919
  0
LINE
  8
0
 10
202.131
 20
120.919
 11
202.363
 21
120.375
  0
LINE
  8
0
 10
202.363
 20
120.375
 11
202.659
 21
119.863
  0
LINE
  8
0
 10
202.659
 20
119.863
 11
204.37
 21
117.278
  0
LINE
  8
0
 10
204.37
 20
117.278
 11
200.201
 21
114.518
  0
LINE
  8
0
 10
200.201
 20
114.518
 11
200.844
 21
113.545
  0
LINE
  8
0
 10
200.844
 20
113.545
 11
-181.495
 21
-142.892
  0
LINE
  8
0
 10
-181.495
 20
-142.892
 11
-183.527
 21
-142.46
  0
LINE
  8
0
 10
-183.527
 20
-142.46
 11
-199.046
 21
-142.46
  0
LINE
  8
0
 10
-199.046
 20
-142.46
 11
-214.226
 21
-145.687
  0
LINE
  8
0
 10
-214.226
 20
-145.687
 11
-228.403
 21
-151.999
  0
LINE
  8
0
 10
-228.403
 20
-151.999
 11
-240.958
 21
-161.121
  0
LINE
  8
0
 10
-240.958
 20
-161.121
 11
-242.862
 21
-163.235
  0
LINE
  8
0
 10
-242.862
 20
-163.235
 11
-227.939
 21
99.575
  0
LINE
  8
0
 10
-227.939
 20
99.575
 11
-227.67
 21
99.5609
  0
LINE
  8
0
 10
-227.67
 20
99.5609
 11
-227.408
 21
104.554
  0
LINE
  8
0
 10
-227.408
 20
104.554
 11
-224.313
 21
104.392
  0
LINE
  8
0
 10
-224.313
 20
104.392
 11
-223.721
 21
104.397
  0
LINE
  8
0
 10
-223.721
 20
104.397
 11
-223.134
 21
104.473
  0
LINE
  8
0
 10
-223.134
 20
104.473
 11
-222.561
 21
104.619
  0
LINE
  8
0
 10
-222.561
 20
104.619
 11
-222.009
 21
104.833
  0
LINE
  8
0
 10
-222.009
 20
104.833
 11
-221.487
 21
105.112
  0
LINE
  8
0
 10
-221.487
 20
105.112
 11
-221.003
 21
105.452
  0
LINE
  8
0
 10
-221.003
 20
105.452
 11
-220.563
 21
105.848
  0
LINE
  8
0
 10
-220.563
 20
105.848
 11
-220.175
 21
106.294
  0
LINE
  8
0
 10
-220.175
 20
106.294
 11
-219.842
 21
106.784
  0
LINE
  8
0
 10
-219.842
 20
106.784
 11
-219.572
 21
107.31
  0
LINE
  8
0
 10
-219.572
 20
107.31
 11
-219.366
 21
107.865
  0
LINE
  8
0
 10
-219.366
 20
107.865
 11
-219.229
 21
108.441
  0
LINE
  8
0
 10
-219.229
 20
108.441
 11
-219.163
 21
109.029
  0
LINE
  8
0
 10
-219.163
 20
109.029
 11
-218.739
 21
117.118
  0
LINE
  8
0
 10
-218.739
 20
117.118
 11
-210.65
 21
116.694
  0
LINE
  8
0
 10
-210.65
 20
116.694
 11
-210.058
 21
116.698
  0
LINE
  8
0
 10
-210.058
 20
116.698
 11
-209.471
 21
116.774
  0
LINE
  8
0
 10
-209.471
 20
116.774
 11
-208.898
 21
116.921
  0
LINE
  8
0
 10
-208.898
 20
116.921
 11
-208.347
 21
117.135
  0
LINE
  8
0
 10
-208.347
 20
117.135
 11
-207.825
 21
117.414
  0
LINE
  8
0
 10
-207.825
 20
117.414
 11
-207.341
 21
117.754
  0
LINE
  8
0
 10
-207.341
 20
117.754
 11
-206.901
 21
118.15
  0
LINE
  8
0
 10
-206.901
 20
118.15
 11
-206.512
 21
118.596
  0
LINE
  8
0
 10
-206.512
 20
118.596
 11
-206.18
 21
119.086
  0
LINE
  8
0
 10
-206.18
 20
119.086
 11
-205.909
 21
119.612
  0
LINE
  8
0
 10
-205.909
 20
119.612
 11
-205.704
 21
120.167
  0
LINE
  8
0
 10
-205.704
 20
120.167
 11
-205.567
 21
120.742
  0
LINE
  8
0
 10
-205.567
 20
120.742
 11
-205.5
 21
121.33
  0
LINE
  8
0
 10
-205.5
 20
121.33
 11
-205.071
 21
129.519
  0
LINE
  8
0
 10
-205.071
 20
129.519
 11
-205.076
 21
130.111
  0
LINE
  8
0
 10
-205.076
 20
130.111
 11
-205.152
 21
130.698
  0
LINE
  8
0
 10
-205.152
 20
130.698
 11
-205.298
 21
131.271
  0
LINE
  8
0
 10
-205.298
 20
131.271
 11
-205.512
 21
131.823
  0
LINE
  8
0
 10
-205.512
 20
131.823
 11
-205.792
 21
132.344
  0
LINE
  8
0
 10
-205.792
 20
132.344
 11
-206.132
 21
132.829
  0
LINE
  8
0
 10
-206.132
 20
132.829
 11
-206.528
 21
133.268
  0
LINE
  8
0
 10
-206.528
 20
133.268
 11
-206.974
 21
133.657
  0
LINE
  8
0
 10
-206.974
 20
133.657
 11
-207.463
 21
133.989
  0
LINE
  8
0
 10
-207.463
 20
133.989
 11
-207.989
 21
134.26
  0
LINE
  8
0
 10
-207.989
 20
134.26
 11
-208.544
 21
134.465
  0
LINE
  8
0
 10
-208.544
 20
134.465
 11
-209.12
 21
134.602
  0
LINE
  8
0
 10
-209.12
 20
134.602
 11
-209.708
 21
134.669
  0
LINE
  8
0
 10
-209.708
 20
134.669
 11
-217.797
 21
135.093
  0
LINE
  8
0
 10
-217.797
 20
135.093
 11
-217.373
 21
143.182
  0
LINE
  8
0
 10
-217.373
 20
143.182
 11
-217.378
 21
143.773
  0
LINE
  8
0
 10
-217.378
 20
143.773
 11
-217.454
 21
144.36
  0
LINE
  8
0
 10
-217.454
 20
144.36
 11
-217.6
 21
144.934
  0
LINE
  8
0
 10
-217.6
 20
144.934
 11
-217.814
 21
145.485
  0
LINE
  8
0
 10
-217.814
 20
145.485
 11
-218.093
 21
146.007
  0
LINE
  8
0
 10
-218.093
 20
146.007
 11
-218.433
 21
146.491
  0
LINE
  8
0
 10
-218.433
 20
146.491
 11
-218.829
 21
146.931
  0
LINE
  8
0
 10
-218.829
 20
146.931
 11
-219.275
 21
147.32
  0
LINE
  8
0
 10
-219.275
 20
147.32
 11
-219.765
 21
147.652
  0
LINE
  8
0
 10
-219.765
 20
147.652
 11
-220.291
 21
147.923
  0
LINE
  8
0
 10
-220.291
 20
147.923
 11
-220.846
 21
148.128
  0
LINE
  8
0
 10
-220.846
 20
148.128
 11
-221.422
 21
148.265
  0
LINE
  8
0
 10
-221.422
 20
148.265
 11
-222.01
 21
148.331
  0
LINE
  8
0
 10
-222.01
 20
148.331
 11
-230.198
 21
148.761
  0
LINE
  8
0
 10
-230.198
 20
148.761
 11
-230.79
 21
148.756
  0
LINE
  8
0
 10
-230.79
 20
148.756
 11
-231.377
 21
148.68
  0
LINE
  8
0
 10
-231.377
 20
148.68
 11
-231.95
 21
148.534
  0
LINE
  8
0
 10
-231.95
 20
148.534
 11
-232.502
 21
148.319
  0
LINE
  8
0
 10
-232.502
 20
148.319
 11
-233.024
 21
148.04
  0
LINE
  8
0
 10
-233.024
 20
148.04
 11
-233.508
 21
147.7
  0
LINE
  8
0
 10
-233.508
 20
147.7
 11
-233.948
 21
147.304
  0
LINE
  8
0
 10
-233.948
 20
147.304
 11
-234.336
 21
146.858
  0
LINE
  8
0
 10
-234.336
 20
146.858
 11
-234.669
 21
146.368
  0
LINE
  8
0
 10
-234.669
 20
146.368
 11
-234.939
 21
145.842
  0
LINE
  8
0
 10
-234.939
 20
145.842
 11
-235.145
 21
145.287
  0
LINE
  8
0
 10
-235.145
 20
145.287
 11
-235.282
 21
144.712
  0
LINE
  8
0
 10
-235.282
 20
144.712
 11
-235.348
 21
144.124
  0
LINE
  8
0
 10
-235.348
 20
144.124
 11
-235.772
 21
136.035
  0
LINE
  8
0
 10
-235.772
 20
136.035
 11
-243.861
 21
136.459
  0
LINE
  8
0
 10
-243.861
 20
136.459
 11
-244.453
 21
136.454
  0
LINE
  8
0
 10
-244.453
 20
136.454
 11
-245.04
 21
136.378
  0
LINE
  8
0
 10
-245.04
 20
136.378
 11
-245.613
 21
136.232
  0
LINE
  8
0
 10
-245.613
 20
136.232
 11
-246.164
 21
136.017
  0
LINE
  8
0
 10
-246.164
 20
136.017
 11
-246.686
 21
135.738
  0
LINE
  8
0
 10
-246.686
 20
135.738
 11
-247.17
 21
135.398
  0
LINE
  8
0
 10
-247.17
 20
135.398
 11
-247.61
 21
135.002
  0
LINE
  8
0
 10
-247.61
 20
135.002
 11
-247.999
 21
134.556
  0
LINE
  8
0
 10
-247.999
 20
134.556
 11
-248.331
 21
134.067
  0
LINE
  8
0
 10
-248.331
 20
134.067
 11
-248.602
 21
133.54
  0
LINE
  8
0
 10
-248.602
 20
133.54
 11
-248.807
 21
132.986
  0
LINE
  8
0
 10
-248.807
 20
132.986
 11
-248.944
 21
132.41
  0
LINE
  8
0
 10
-248.944
 20
132.41
 11
-249.011
 21
131.822
  0
LINE
  8
0
 10
-249.011
 20
131.822
 11
-249.44
 21
123.633
  0
LINE
  8
0
 10
-249.44
 20
123.633
 11
-249.435
 21
123.042
  0
LINE
  8
0
 10
-249.435
 20
123.042
 11
-249.359
 21
122.455
  0
LINE
  8
0
 10
-249.359
 20
122.455
 11
-249.213
 21
121.881
  0
LINE
  8
0
 10
-249.213
 20
121.881
 11
-248.999
 21
121.33
  0
LINE
  8
0
 10
-248.999
 20
121.33
 11
-248.719
 21
120.808
  0
LINE
  8
0
 10
-248.719
 20
120.808
 11
-248.379
 21
120.324
  0
LINE
  8
0
 10
-248.379
 20
120.324
 11
-247.983
 21
119.884
  0
LINE
  8
0
 10
-247.983
 20
119.884
 11
-247.537
 21
119.495
  0
LINE
  8
0
 10
-247.537
 20
119.495
 11
-247.048
 21
119.163
  0
LINE
  8
0
 10
-247.048
 20
119.163
 11
-246.522
 21
118.892
  0
LINE
  8
0
 10
-246.522
 20
118.892
 11
-245.967
 21
118.687
  0
LINE
  8
0
 10
-245.967
 20
118.687
 11
-245.391
 21
118.55
  0
LINE
  8
0
 10
-245.391
 20
118.55
 11
-244.803
 21
118.483
  0
LINE
  8
0
 10
-244.803
 20
118.483
 11
-236.714
 21
118.06
  0
LINE
  8
0
 10
-236.714
 20
118.06
 11
-237.138
 21
109.971
  0
LINE
  8
0
 10
-237.138
 20
109.971
 11
-237.133
 21
109.379
  0
LINE
  8
0
 10
-237.133
 20
109.379
 11
-237.057
 21
108.792
  0
LINE
  8
0
 10
-237.057
 20
108.792
 11
-236.911
 21
108.219
  0
LINE
  8
0
 10
-236.911
 20
108.219
 11
-236.697
 21
107.667
  0
LINE
  8
0
 10
-236.697
 20
107.667
 11
-236.418
 21
107.146
  0
LINE
  8
0
 10
-236.418
 20
107.146
 11
-236.078
 21
106.661
  0
LINE
  8
0
 10
-236.078
 20
106.661
 11
-235.682
 21
106.222
  0
LINE
  8
0
 10
-235.682
 20
106.222
 11
-235.236
 21
105.833
  0
LINE
  8
0
 10
-235.236
 20
105.833
 11
-234.746
 21
105.501
  0
LINE
  8
0
 10
-234.746
 20
105.501
 11
-234.22
 21
105.23
  0
LINE
  8
0
 10
-234.22
 20
105.23
 11
-233.665
 21
105.025
  0
LINE
  8
0
 10
-233.665
 20
105.025
 11
-233.089
 21
104.888
  0
LINE
  8
0
 10
-233.089
 20
104.888
 11
-232.501
 21
104.821
  0
LINE
  8
0
 10
-232.501
 20
104.821
 11
-229.406
 21
104.659
  0
LINE
  8
0
 10
-229.406
 20
104.659
 11
-229.667
 21
99.6656
  0
LINE
  8
0
 10
-229.667
 20
99.6656
 11
-228.937
 21
99.6273
  0
LINE
  8
0
 10
-228.937
 20
99.6273
 11
-243.931
 21
-164.422
  0
LINE
  8
0
 10
-243.931
 20
-164.422
 11
-251.343
 21
-172.653
  0
LINE
  8
0
 10
-251.343
 20
-172.653
 11
-259.102
 21
-186.093
  0
LINE
  8
0
 10
-259.102
 20
-186.093
 11
-263.898
 21
-200.853
  0
LINE
  8
0
 10
-263.898
 20
-200.853
 11
-265.52
 21
-216.287
  0
LINE
  8
0
 10
-265.52
 20
-216.287
 11
-263.898
 21
-231.721
  0
LINE
  8
0
 10
-263.898
 20
-231.721
 11
-259.102
 21
-246.48
  0
LINE
  8
0
 10
-259.102
 20
-246.48
 11
-251.343
 21
-259.92
  0
LINE
  8
0
 10
-251.343
 20
-259.92
 11
-240.958
 21
-271.453
  0
LINE
  8
0
 10
-240.958
 20
-271.453
 11
-228.403
 21
-280.575
  0
LINE
  8
0
 10
-228.403
 20
-280.575
 11
-214.226
 21
-286.887
  0
LINE
  8
0
 10
-214.226
 20
-286.887
 11
-199.046
 21
-290.113
  0
LINE
  8
0
 10
-199.046
 20
-290.113
 11
-183.527
 21
-290.113
  0
LINE
  8
0
 10
-183.527
 20
-290.113
 11
-168.347
 21
-286.887
  0
LINE
  8
0
 10
-227.492
 20
139.551
 11
-228.219
 21
140.14
  0
LINE
  8
0
 10
-228.219
 20
140.14
 11
-228.644
 21
140.973
  0
LINE
  8
0
 10
-228.644
 20
140.973
 11
-228.693
 21
141.908
  0
LINE
  8
0
 10
-228.693
 20
141.908
 11
-228.357
 21
142.781
  0
LINE
  8
0
 10
-228.357
 20
142.781
 11
-227.696
 21
143.443
  0
LINE
  8
0
 10
-227.696
 20
143.443
 11
-226.822
 21
143.778
  0
LINE
  8
0
 10
-226.822
 20
143.778
 11
-225.888
 21
143.729
  0
LINE
  8
0
 10
-225.888
 20
143.729
 11
-225.054
 21
143.304
  0
LINE
  8
0
 10
-225.054
 20
143.304
 11
-224.466
 21
142.577
  0
LINE
  8
0
 10
-224.466
 20
142.577
 11
-224.224
 21
141.673
  0
LINE
  8
0
 10
-224.224
 20
141.673
 11
-224.37
 21
140.749
  0
LINE
  8
0
 10
-224.37
 20
140.749
 11
-224.879
 21
139.965
  0
LINE
  8
0
 10
-224.879
 20
139.965
 11
-225.664
 21
139.455
  0
LINE
  8
0
 10
-225.664
 20
139.455
 11
-226.588
 21
139.309
  0
LINE
  8
0
 10
-226.588
 20
139.309
 11
-227.492
 21
139.551
  0
LINE
  8
0
 10
214.425
 20
138.916
 11
213.588
 21
139.334
  0
LINE
  8
0
 10
213.588
 20
139.334
 11
212.993
 21
140.056
  0
LINE
  8
0
 10
212.993
 20
140.056
 11
212.743
 21
140.957
  0
LINE
  8
0
 10
212.743
 20
140.957
 11
212.881
 21
141.883
  0
LINE
  8
0
 10
212.881
 20
141.883
 11
213.384
 21
142.672
  0
LINE
  8
0
 10
213.384
 20
142.672
 11
214.164
 21
143.188
  0
LINE
  8
0
 10
214.164
 20
143.188
 11
215.087
 21
143.342
  0
LINE
  8
0
 10
215.087
 20
143.342
 11
215.992
 21
143.108
  0
LINE
  8
0
 10
215.992
 20
143.108
 11
216.725
 21
142.526
  0
LINE
  8
0
 10
216.725
 20
142.526
 11
217.157
 21
141.696
  0
LINE
  8
0
 10
217.157
 20
141.696
 11
217.214
 21
140.762
  0
LINE
  8
0
 10
217.214
 20
140.762
 11
216.886
 21
139.886
  0
LINE
  8
0
 10
216.886
 20
139.886
 11
216.23
 21
139.218
  0
LINE
  8
0
 10
216.23
 20
139.218
 11
215.36
 21
138.875
  0
LINE
  8
0
 10
215.36
 20
138.875
 11
214.425
 21
138.916
  0
LINE
  8
0
 10
234.567
 20
134.968
 11
233.9
 21
135.624
  0
LINE
  8
0
 10
233.9
 20
135.624
 11
233.557
 21
136.494
  0
LINE
  8
0
 10
233.557
 20
136.494
 11
233.597
 21
137.429
  0
LINE
  8
0
 10
233.597
 20
137.429
 11
234.015
 21
138.266
  0
LINE
  8
0
 10
234.015
 20
138.266
 11
234.737
 21
138.861
  0
LINE
  8
0
 10
234.737
 20
138.861
 11
235.638
 21
139.111
  0
LINE
  8
0
 10
235.638
 20
139.111
 11
236.564
 21
138.973
  0
LINE
  8
0
 10
236.564
 20
138.973
 11
237.353
 21
138.47
  0
LINE
  8
0
 10
237.353
 20
138.47
 11
237.869
 21
137.69
  0
LINE
  8
0
 10
237.869
 20
137.69
 11
238.024
 21
136.767
  0
LINE
  8
0
 10
238.024
 20
136.767
 11
237.789
 21
135.861
  0
LINE
  8
0
 10
237.789
 20
135.861
 11
237.207
 21
135.129
  0
LINE
  8
0
 10
237.207
 20
135.129
 11
236.377
 21
134.697
  0
LINE
  8
0
 10
236.377
 20
134.697
 11
235.443
 21
134.64
  0
LINE
  8
0
 10
235.443
 20
134.64
 11
234.567
 21
134.968
  0
LINE
  8
0
 10
-243.46
 20
125.474
 11
-244.122
 21
126.136
  0
LINE
  8
0
 10
-244.122
 20
126.136
 11
-244.457
 21
127.009
  0
LINE
  8
0
 10
-244.457
 20
127.009
 11
-244.408
 21
127.944
  0
LINE
  8
0
 10
-244.408
 20
127.944
 11
-243.984
 21
128.777
  0
LINE
  8
0
 10
-243.984
 20
128.777
 11
-243.256
 21
129.366
  0
LINE
  8
0
 10
-243.256
 20
129.366
 11
-242.353
 21
129.608
  0
LINE
  8
0
 10
-242.353
 20
129.608
 11
-241.429
 21
129.462
  0
LINE
  8
0
 10
-241.429
 20
129.462
 11
-240.644
 21
128.952
  0
LINE
  8
0
 10
-240.644
 20
128.952
 11
-240.134
 21
128.168
  0
LINE
  8
0
 10
-240.134
 20
128.168
 11
-239.988
 21
127.243
  0
LINE
  8
0
 10
-239.988
 20
127.243
 11
-240.23
 21
126.34
  0
LINE
  8
0
 10
-240.23
 20
126.34
 11
-240.819
 21
125.613
  0
LINE
  8
0
 10
-240.819
 20
125.613
 11
-241.653
 21
125.188
  0
LINE
  8
0
 10
-241.653
 20
125.188
 11
-242.587
 21
125.139
  0
LINE
  8
0
 10
-242.587
 20
125.139
 11
-243.46
 21
125.474
  0
LINE
  8
0
 10
-213.501
 20
123.904
 11
-214.163
 21
124.566
  0
LINE
  8
0
 10
-214.163
 20
124.566
 11
-214.498
 21
125.439
  0
LINE
  8
0
 10
-214.498
 20
125.439
 11
-214.449
 21
126.374
  0
LINE
  8
0
 10
-214.449
 20
126.374
 11
-214.025
 21
127.207
  0
LINE
  8
0
 10
-214.025
 20
127.207
 11
-213.298
 21
127.796
  0
LINE
  8
0
 10
-213.298
 20
127.796
 11
-212.394
 21
128.038
  0
LINE
  8
0
 10
-212.394
 20
128.038
 11
-211.47
 21
127.892
  0
LINE
  8
0
 10
-211.47
 20
127.892
 11
-210.685
 21
127.382
  0
LINE
  8
0
 10
-210.685
 20
127.382
 11
-210.176
 21
126.597
  0
LINE
  8
0
 10
-210.176
 20
126.597
 11
-210.029
 21
125.673
  0
LINE
  8
0
 10
-210.029
 20
125.673
 11
-210.271
 21
124.77
  0
LINE
  8
0
 10
-210.271
 20
124.77
 11
-210.86
 21
124.043
  0
LINE
  8
0
 10
-210.86
 20
124.043
 11
-211.694
 21
123.618
  0
LINE
  8
0
 10
-211.694
 20
123.618
 11
-212.628
 21
123.569
  0
LINE
  8
0
 10
-212.628
 20
123.569
 11
-213.501
 21
123.904
  0
LINE
  8
0
 10
208.883
 20
119.065
 11
208.54
 21
119.936
  0
LINE
  8
0
 10
208.54
 20
119.936
 11
208.581
 21
120.871
  0
LINE
  8
0
 10
208.581
 20
120.871
 11
208.998
 21
121.708
  0
LINE
  8
0
 10
208.998
 20
121.708
 11
209.72
 21
122.303
  0
LINE
  8
0
 10
209.72
 20
122.303
 11
210.622
 21
122.553
  0
LINE
  8
0
 10
210.622
 20
122.553
 11
211.547
 21
122.415
  0
LINE
  8
0
 10
211.547
 20
122.415
 11
212.336
 21
121.912
  0
LINE
  8
0
 10
212.336
 20
121.912
 11
212.638
 21
121.456
  0
LINE
  8
0
 10
212.638
 20
121.456
 11
208.961
 21
118.989
  0
LINE
  8
0
 10
208.961
 20
118.989
 11
208.883
 21
119.065
  0
LINE
  8
0
 10
209.77
 20
118.328
 11
212.963
 21
120.47
  0
LINE
  8
0
 10
212.963
 20
120.47
 11
213.007
 21
120.209
  0
LINE
  8
0
 10
213.007
 20
120.209
 11
212.773
 21
119.303
  0
LINE
  8
0
 10
212.773
 20
119.303
 11
212.19
 21
118.571
  0
LINE
  8
0
 10
212.19
 20
118.571
 11
211.36
 21
118.139
  0
LINE
  8
0
 10
211.36
 20
118.139
 11
210.427
 21
118.082
  0
LINE
  8
0
 10
210.427
 20
118.082
 11
209.77
 21
118.328
  0
LINE
  8
0
 10
230.983
 20
113.9
 11
230.146
 21
114.317
  0
LINE
  8
0
 10
230.146
 20
114.317
 11
229.551
 21
115.039
  0
LINE
  8
0
 10
229.551
 20
115.039
 11
229.301
 21
115.941
  0
LINE
  8
0
 10
229.301
 20
115.941
 11
229.439
 21
116.866
  0
LINE
  8
0
 10
229.439
 20
116.866
 11
229.942
 21
117.655
  0
LINE
  8
0
 10
229.942
 20
117.655
 11
230.722
 21
118.171
  0
LINE
  8
0
 10
230.722
 20
118.171
 11
231.645
 21
118.326
  0
LINE
  8
0
 10
231.645
 20
118.326
 11
232.55
 21
118.092
  0
LINE
  8
0
 10
232.55
 20
118.092
 11
233.283
 21
117.509
  0
LINE
  8
0
 10
233.283
 20
117.509
 11
233.715
 21
116.679
  0
LINE
  8
0
 10
233.715
 20
116.679
 11
233.772
 21
115.745
  0
LINE
  8
0
 10
233.772
 20
115.745
 11
233.444
 21
114.869
  0
LINE
  8
0
 10
233.444
 20
114.869
 11
232.788
 21
114.202
  0
LINE
  8
0
 10
232.788
 20
114.202
 11
231.918
 21
113.859
  0
LINE
  8
0
 10
231.918
 20
113.859
 11
230.983
 21
113.9
  0
LINE
  8
0
 10
-229.062
 20
109.592
 11
-229.789
 21
110.181
  0
LINE
  8
0
 10
-229.789
 20
110.181
 11
-230.214
 21
111.014
  0
LINE
  8
0
 10
-230.214
 20
111.014
 11
-230.263
 21
111.949
  0
LINE
  8
0
 10
-230.263
 20
111.949
 11
-229.928
 21
112.822
  0
LINE
  8
0
 10
-229.928
 20
112.822
 11
-229.266
 21
113.484
  0
LINE
  8
0
 10
-229.266
 20
113.484
 11
-228.393
 21
113.819
  0
LINE
  8
0
 10
-228.393
 20
113.819
 11
-228.132
 21
113.805
  0
LINE
  8
0
 10
-228.132
 20
113.805
 11
-228.382
 21
109.41
  0
LINE
  8
0
 10
-228.382
 20
109.41
 11
-229.062
 21
109.592
  0
LINE
  8
0
 10
-227.142
 20
113.609
 11
-226.625
 21
113.345
  0
LINE
  8
0
 10
-226.625
 20
113.345
 11
-226.036
 21
112.618
  0
LINE
  8
0
 10
-226.036
 20
112.618
 11
-225.794
 21
111.715
  0
LINE
  8
0
 10
-225.794
 20
111.715
 11
-225.94
 21
110.79
  0
LINE
  8
0
 10
-225.94
 20
110.79
 11
-226.45
 21
110.006
  0
LINE
  8
0
 10
-226.45
 20
110.006
 11
-227.234
 21
109.496
  0
LINE
  8
0
 10
-227.234
 20
109.496
 11
-227.376
 21
109.474
  0
LINE
  8
0
 10
-227.376
 20
109.474
 11
-227.142
 21
113.609
  0
LINE
  8
0
 10
-195.387
 20
-244.787
 11
-195.977
 21
-244.751
  0
LINE
  8
0
 10
-195.977
 20
-244.751
 11
-196.559
 21
-244.644
  0
LINE
  8
0
 10
-196.559
 20
-244.644
 11
-197.124
 21
-244.468
  0
LINE
  8
0
 10
-197.124
 20
-244.468
 11
-197.664
 21
-244.225
  0
LINE
  8
0
 10
-197.664
 20
-244.225
 11
-198.17
 21
-243.919
  0
LINE
  8
0
 10
-198.17
 20
-243.919
 11
-198.636
 21
-243.554
  0
LINE
  8
0
 10
-198.636
 20
-243.554
 11
-199.054
 21
-243.136
  0
LINE
  8
0
 10
-199.054
 20
-243.136
 11
-199.419
 21
-242.67
  0
LINE
  8
0
 10
-199.419
 20
-242.67
 11
-199.725
 21
-242.164
  0
LINE
  8
0
 10
-199.725
 20
-242.164
 11
-199.968
 21
-241.624
  0
LINE
  8
0
 10
-199.968
 20
-241.624
 11
-200.144
 21
-241.059
  0
LINE
  8
0
 10
-200.144
 20
-241.059
 11
-200.251
 21
-240.477
  0
LINE
  8
0
 10
-200.251
 20
-240.477
 11
-200.287
 21
-239.887
  0
LINE
  8
0
 10
-200.287
 20
-239.887
 11
-200.287
 21
-225.287
  0
LINE
  8
0
 10
-200.287
 20
-225.287
 11
-214.887
 21
-225.287
  0
LINE
  8
0
 10
-214.887
 20
-225.287
 11
-215.477
 21
-225.251
  0
LINE
  8
0
 10
-215.477
 20
-225.251
 11
-216.059
 21
-225.144
  0
LINE
  8
0
 10
-216.059
 20
-225.144
 11
-216.624
 21
-224.968
  0
LINE
  8
0
 10
-216.624
 20
-224.968
 11
-217.164
 21
-224.725
  0
LINE
  8
0
 10
-217.164
 20
-224.725
 11
-217.67
 21
-224.419
  0
LINE
  8
0
 10
-217.67
 20
-224.419
 11
-218.136
 21
-224.054
  0
LINE
  8
0
 10
-218.136
 20
-224.054
 11
-218.554
 21
-223.636
  0
LINE
  8
0
 10
-218.554
 20
-223.636
 11
-218.919
 21
-223.17
  0
LINE
  8
0
 10
-218.919
 20
-223.17
 11
-219.225
 21
-222.664
  0
LINE
  8
0
 10
-219.225
 20
-222.664
 11
-219.468
 21
-222.124
  0
LINE
  8
0
 10
-219.468
 20
-222.124
 11
-219.644
 21
-221.559
  0
LINE
  8
0
 10
-219.644
 20
-221.559
 11
-219.751
 21
-220.977
  0
LINE
  8
0
 10
-219.751
 20
-220.977
 11
-219.787
 21
-220.387
  0
LINE
  8
0
 10
-219.787
 20
-220.387
 11
-219.787
 21
-212.187
  0
LINE
  8
0
 10
-219.787
 20
-212.187
 11
-219.751
 21
-211.596
  0
LINE
  8
0
 10
-219.751
 20
-211.596
 11
-219.644
 21
-211.014
  0
LINE
  8
0
 10
-219.644
 20
-211.014
 11
-219.468
 21
-210.449
  0
LINE
  8
0
 10
-219.468
 20
-210.449
 11
-219.225
 21
-209.91
  0
LINE
  8
0
 10
-219.225
 20
-209.91
 11
-218.919
 21
-209.403
  0
LINE
  8
0
 10
-218.919
 20
-209.403
 11
-218.554
 21
-208.937
  0
LINE
  8
0
 10
-218.554
 20
-208.937
 11
-218.136
 21
-208.519
  0
LINE
  8
0
 10
-218.136
 20
-208.519
 11
-217.67
 21
-208.154
  0
LINE
  8
0
 10
-217.67
 20
-208.154
 11
-217.164
 21
-207.848
  0
LINE
  8
0
 10
-217.164
 20
-207.848
 11
-216.624
 21
-207.605
  0
LINE
  8
0
 10
-216.624
 20
-207.605
 11
-216.059
 21
-207.429
  0
LINE
  8
0
 10
-216.059
 20
-207.429
 11
-215.477
 21
-207.322
  0
LINE
  8
0
 10
-215.477
 20
-207.322
 11
-214.887
 21
-207.287
  0
LINE
  8
0
 10
-214.887
 20
-207.287
 11
-200.287
 21
-207.287
  0
LINE
  8
0
 10
-200.287
 20
-207.287
 11
-200.287
 21
-192.687
  0
LINE
  8
0
 10
-200.287
 20
-192.687
 11
-200.251
 21
-192.096
  0
LINE
  8
0
 10
-200.251
 20
-192.096
 11
-200.144
 21
-191.514
  0
LINE
  8
0
 10
-200.144
 20
-191.514
 11
-199.968
 21
-190.949
  0
LINE
  8
0
 10
-199.968
 20
-190.949
 11
-199.725
 21
-190.41
  0
LINE
  8
0
 10
-199.725
 20
-190.41
 11
-199.419
 21
-189.903
  0
LINE
  8
0
 10
-199.419
 20
-189.903
 11
-199.054
 21
-189.437
  0
LINE
  8
0
 10
-199.054
 20
-189.437
 11
-198.636
 21
-189.019
  0
LINE
  8
0
 10
-198.636
 20
-189.019
 11
-198.17
 21
-188.654
  0
LINE
  8
0
 10
-198.17
 20
-188.654
 11
-197.664
 21
-188.348
  0
LINE
  8
0
 10
-197.664
 20
-188.348
 11
-197.124
 21
-188.105
  0
LINE
  8
0
 10
-197.124
 20
-188.105
 11
-196.559
 21
-187.929
  0
LINE
  8
0
 10
-196.559
 20
-187.929
 11
-195.977
 21
-187.822
  0
LINE
  8
0
 10
-195.977
 20
-187.822
 11
-195.387
 21
-187.787
  0
LINE
  8
0
 10
-195.387
 20
-187.787
 11
-187.187
 21
-187.787
  0
LINE
  8
0
 10
-187.187
 20
-187.787
 11
-186.596
 21
-187.822
  0
LINE
  8
0
 10
-186.596
 20
-187.822
 11
-186.014
 21
-187.929
  0
LINE
  8
0
 10
-186.014
 20
-187.929
 11
-185.449
 21
-188.105
  0
LINE
  8
0
 10
-185.449
 20
-188.105
 11
-184.91
 21
-188.348
  0
LINE
  8
0
 10
-184.91
 20
-188.348
 11
-184.403
 21
-188.654
  0
LINE
  8
0
 10
-184.403
 20
-188.654
 11
-183.937
 21
-189.019
  0
LINE
  8
0
 10
-183.937
 20
-189.019
 11
-183.519
 21
-189.437
  0
LINE
  8
0
 10
-183.519
 20
-189.437
 11
-183.154
 21
-189.903
  0
LINE
  8
0
 10
-183.154
 20
-189.903
 11
-182.848
 21
-190.41
  0
LINE
  8
0
 10
-182.848
 20
-190.41
 11
-182.605
 21
-190.949
  0
LINE
  8
0
 10
-182.605
 20
-190.949
 11
-182.429
 21
-191.514
  0
LINE
  8
0
 10
-182.429
 20
-191.514
 11
-182.322
 21
-192.096
  0
LINE
  8
0
 10
-182.322
 20
-192.096
 11
-182.287
 21
-192.687
  0
LINE
  8
0
 10
-182.287
 20
-192.687
 11
-182.287
 21
-207.287
  0
LINE
  8
0
 10
-182.287
 20
-207.287
 11
-167.687
 21
-207.287
  0
LINE
  8
0
 10
-167.687
 20
-207.287
 11
-167.096
 21
-207.322
  0
LINE
  8
0
 10
-167.096
 20
-207.322
 11
-166.514
 21
-207.429
  0
LINE
  8
0
 10
-166.514
 20
-207.429
 11
-165.949
 21
-207.605
  0
LINE
  8
0
 10
-165.949
 20
-207.605
 11
-165.41
 21
-207.848
  0
LINE
  8
0
 10
-165.41
 20
-207.848
 11
-164.903
 21
-208.154
  0
LINE
  8
0
 10
-164.903
 20
-208.154
 11
-164.437
 21
-208.519
  0
LINE
  8
0
 10
-164.437
 20
-208.519
 11
-164.019
 21
-208.937
  0
LINE
  8
0
 10
-164.019
 20
-208.937
 11
-163.654
 21
-209.403
  0
LINE
  8
0
 10
-163.654
 20
-209.403
 11
-163.348
 21
-209.91
  0
LINE
  8
0
 10
-163.348
 20
-209.91
 11
-163.105
 21
-210.449
  0
LINE
  8
0
 10
-163.105
 20
-210.449
 11
-162.929
 21
-211.014
  0
LINE
  8
0
 10
-162.929
 20
-211.014
 11
-162.822
 21
-211.596
  0
LINE
  8
0
 10
-162.822
 20
-211.596
 11
-162.787
 21
-212.187
  0
LINE
  8
0
 10
-162.787
 20
-212.187
 11
-162.787
 21
-220.387
  0
LINE
  8
0
 10
-162.787
 20
-220.387
 11
-162.822
 21
-220.977
  0
LINE
  8
0
 10
-162.822
 20
-220.977
 11
-162.929
 21
-221.559
  0
LINE
  8
0
 10
-162.929
 20
-221.559
 11
-163.105
 21
-222.124
  0
LINE
  8
0
 10
-163.105
 20
-222.124
 11
-163.348
 21
-222.664
  0
LINE
  8
0
 10
-163.348
 20
-222.664
 11
-163.654
 21
-223.17
  0
LINE
  8
0
 10
-163.654
 20
-223.17
 11
-164.019
 21
-223.636
  0
LINE
  8
0
 10
-164.019
 20
-223.636
 11
-164.437
 21
-224.054
  0
LINE
  8
0
 10
-164.437
 20
-224.054
 11
-164.903
 21
-224.419
  0
LINE
  8
0
 10
-164.903
 20
-224.419
 11
-165.41
 21
-224.725
  0
LINE
  8
0
 10
-165.41
 20
-224.725
 11
-165.949
 21
-224.968
  0
LINE
  8
0
 10
-165.949
 20
-224.968
 11
-166.514
 21
-225.144
  0
LINE
  8
0
 10
-166.514
 20
-225.144
 11
-167.096
 21
-225.251
  0
LINE
  8
0
 10
-167.096
 20
-225.251
 11
-167.687
 21
-225.287
  0
LINE
  8
0
 10
-167.687
 20
-225.287
 11
-182.287
 21
-225.287
  0
LINE
  8
0
 10
-182.287
 20
-225.287
 11
-182.287
 21
-239.887
  0
LINE
  8
0
 10
-182.287
 20
-239.887
 11
-182.322
 21
-240.477
  0
LINE
  8
0
 10
-182.322
 20
-240.477
 11
-182.429
 21
-241.059
  0
LINE
  8
0
 10
-182.429
 20
-241.059
 11
-182.605
 21
-241.624
  0
LINE
  8
0
 10
-182.605
 20
-241.624
 11
-182.848
 21
-242.164
  0
LINE
  8
0
 10
-182.848
 20
-242.164
 11
-183.154
 21
-242.67
  0
LINE
  8
0
 10
-183.154
 20
-242.67
 11
-183.519
 21
-243.136
  0
LINE
  8
0
 10
-183.519
 20
-243.136
 11
-183.937
 21
-243.554
  0
LINE
  8
0
 10
-183.937
 20
-243.554
 11
-184.403
 21
-243.919
  0
LINE
  8
0
 10
-184.403
 20
-243.919
 11
-184.91
 21
-244.225
  0
LINE
  8
0
 10
-184.91
 20
-244.225
 11
-185.449
 21
-244.468
  0
LINE
  8
0
 10
-185.449
 20
-244.468
 11
-186.014
 21
-244.644
  0
LINE
  8
0
 10
-186.014
 20
-244.644
 11
-186.596
 21
-244.751
  0
LINE
  8
0
 10
-186.596
 20
-244.751
 11
-187.187
 21
-244.787
  0
LINE
  8
0
 10
-187.187
 20
-244.787
 11
-195.387
 21
-244.787
  0
LINE
  8
0
 10
-189.964
 20
-196.607
 11
-189.338
 21
-195.912
  0
LINE
  8
0
 10
-189.338
 20
-195.912
 11
-189.049
 21
-195.022
  0
LINE
  8
0
 10
-189.049
 20
-195.022
 11
-189.147
 21
-194.091
  0
LINE
  8
0
 10
-189.147
 20
-194.091
 11
-189.615
 21
-193.281
  0
LINE
  8
0
 10
-189.615
 20
-193.281
 11
-190.371
 21
-192.731
  0
LINE
  8
0
 10
-190.371
 20
-192.731
 11
-191.287
 21
-192.537
  0
LINE
  8
0
 10
-191.287
 20
-192.537
 11
-192.202
 21
-192.731
  0
LINE
  8
0
 10
-192.202
 20
-192.731
 11
-192.959
 21
-193.281
  0
LINE
  8
0
 10
-192.959
 20
-193.281
 11
-193.426
 21
-194.091
  0
LINE
  8
0
 10
-193.426
 20
-194.091
 11
-193.524
 21
-195.022
  0
LINE
  8
0
 10
-193.524
 20
-195.022
 11
-193.235
 21
-195.912
  0
LINE
  8
0
 10
-193.235
 20
-195.912
 11
-192.609
 21
-196.607
  0
LINE
  8
0
 10
-192.609
 20
-196.607
 11
-191.754
 21
-196.987
  0
LINE
  8
0
 10
-191.754
 20
-196.987
 11
-190.819
 21
-196.987
  0
LINE
  8
0
 10
-190.819
 20
-196.987
 11
-189.964
 21
-196.607
  0
LINE
  8
0
 10
-189.59
 20
-217.984
 11
-188.887
 21
-216.287
  0
LINE
  8
0
 10
-188.887
 20
-216.287
 11
-189.59
 21
-214.59
  0
LINE
  8
0
 10
-189.59
 20
-214.59
 11
-191.287
 21
-213.887
  0
LINE
  8
0
 10
-191.287
 20
-213.887
 11
-192.984
 21
-214.59
  0
LINE
  8
0
 10
-192.984
 20
-214.59
 11
-193.687
 21
-216.287
  0
LINE
  8
0
 10
-193.687
 20
-216.287
 11
-192.984
 21
-217.984
  0
LINE
  8
0
 10
-192.984
 20
-217.984
 11
-191.287
 21
-218.687
  0
LINE
  8
0
 10
-191.287
 20
-218.687
 11
-189.59
 21
-217.984
  0
LINE
  8
0
 10
-212.091
 20
-218.427
 11
-211.281
 21
-217.959
  0
LINE
  8
0
 10
-211.281
 20
-217.959
 11
-210.731
 21
-217.202
  0
LINE
  8
0
 10
-210.731
 20
-217.202
 11
-210.537
 21
-216.287
  0
LINE
  8
0
 10
-210.537
 20
-216.287
 11
-210.731
 21
-215.372
  0
LINE
  8
0
 10
-210.731
 20
-215.372
 11
-211.281
 21
-214.615
  0
LINE
  8
0
 10
-211.281
 20
-214.615
 11
-212.091
 21
-214.147
  0
LINE
  8
0
 10
-212.091
 20
-214.147
 11
-213.022
 21
-214.049
  0
LINE
  8
0
 10
-213.022
 20
-214.049
 11
-213.912
 21
-214.338
  0
LINE
  8
0
 10
-213.912
 20
-214.338
 11
-214.607
 21
-214.964
  0
LINE
  8
0
 10
-214.607
 20
-214.964
 11
-214.987
 21
-215.819
  0
LINE
  8
0
 10
-214.987
 20
-215.819
 11
-214.987
 21
-216.754
  0
LINE
  8
0
 10
-214.987
 20
-216.754
 11
-214.607
 21
-217.609
  0
LINE
  8
0
 10
-214.607
 20
-217.609
 11
-213.912
 21
-218.235
  0
LINE
  8
0
 10
-213.912
 20
-218.235
 11
-213.022
 21
-218.524
  0
LINE
  8
0
 10
-213.022
 20
-218.524
 11
-212.091
 21
-218.427
  0
LINE
  8
0
 10
-169.091
 20
-218.427
 11
-168.281
 21
-217.959
  0
LINE
  8
0
 10
-168.281
 20
-217.959
 11
-167.731
 21
-217.202
  0
LINE
  8
0
 10
-167.731
 20
-217.202
 11
-167.537
 21
-216.287
  0
LINE
  8
0
 10
-167.537
 20
-216.287
 11
-167.731
 21
-215.372
  0
LINE
  8
0
 10
-167.731
 20
-215.372
 11
-168.281
 21
-214.615
  0
LINE
  8
0
 10
-168.281
 20
-214.615
 11
-169.091
 21
-214.147
  0
LINE
  8
0
 10
-169.091
 20
-214.147
 11
-170.022
 21
-214.049
  0
LINE
  8
0
 10
-170.022
 20
-214.049
 11
-170.912
 21
-214.338
  0
LINE
  8
0
 10
-170.912
 20
-214.338
 11
-171.607
 21
-214.964
  0
LINE
  8
0
 10
-171.607
 20
-214.964
 11
-171.987
 21
-215.819
  0
LINE
  8
0
 10
-171.987
 20
-215.819
 11
-171.987
 21
-216.754
  0
LINE
  8
0
 10
-171.987
 20
-216.754
 11
-171.607
 21
-217.609
  0
LINE
  8
0
 10
-171.607
 20
-217.609
 11
-170.912
 21
-218.235
  0
LINE
  8
0
 10
-170.912
 20
-218.235
 11
-170.022
 21
-218.524
  0
LINE
  8
0
 10
-170.022
 20
-218.524
 11
-169.091
 21
-218.427
  0
LINE
  8
0
 10
-189.964
 20
-239.607
 11
-189.338
 21
-238.912
  0
LINE
  8
0
 10
-189.338
 20
-238.912
 11
-189.049
 21
-238.022
  0
LINE
  8
0
 10
-189.049
 20
-238.022
 11
-189.147
 21
-237.091
  0
LINE
  8
0
 10
-189.147
 20
-237.091
 11
-189.615
 21
-236.281
  0
LINE
  8
0
 10
-189.615
 20
-236.281
 11
-190.371
 21
-235.731
  0
LINE
  8
0
 10
-190.371
 20
-235.731
 11
-191.287
 21
-235.537
  0
LINE
  8
0
 10
-191.287
 20
-235.537
 11
-192.202
 21
-235.731
  0
LINE
  8
0
 10
-192.202
 20
-235.731
 11
-192.959
 21
-236.281
  0
LINE
  8
0
 10
-192.959
 20
-236.281
 11
-193.427
 21
-237.091
  0
LINE
  8
0
 10
-193.427
 20
-237.091
 11
-193.524
 21
-238.022
  0
LINE
  8
0
 10
-193.524
 20
-238.022
 11
-193.235
 21
-238.912
  0
LINE
  8
0
 10
-193.235
 20
-238.912
 11
-192.609
 21
-239.607
  0
LINE
  8
0
 10
-192.609
 20
-239.607
 11
-191.754
 21
-239.987
  0
LINE
  8
0
 10
-191.754
 20
-239.987
 11
-190.819
 21
-239.987
  0
LINE
  8
0
 10
-190.819
 20
-239.987
 11
-189.964
 21
-239.607
  0
LINE
  8
0
 10
-153.031
 20
-216.287
 11
-153.031
 21
-206.751
  0
LINE
  8
0
 10
-153.031
 20
-206.751
 11
-149.871
 21
-206.751
  0
LINE
  8
0
 10
-149.871
 20
-206.751
 11
-148.726
 21
-206.827
  0
LINE
  8
0
 10
-148.726
 20
-206.827
 11
-147.72
 21
-207.054
  0
LINE
  8
0
 10
-147.72
 20
-207.054
 11
-146.853
 21
-207.434
  0
LINE
  8
0
 10
-146.853
 20
-207.434
 11
-146.124
 21
-207.966
  0
LINE
  8
0
 10
-146.124
 20
-207.966
 11
-145.547
 21
-208.637
  0
LINE
  8
0
 10
-145.547
 20
-208.637
 11
-145.135
 21
-209.437
  0
LINE
  8
0
 10
-145.135
 20
-209.437
 11
-144.887
 21
-210.365
  0
LINE
  8
0
 10
-144.887
 20
-210.365
 11
-144.805
 21
-211.421
  0
LINE
  8
0
 10
-144.805
 20
-211.421
 11
-144.841
 21
-212.135
  0
LINE
  8
0
 10
-144.841
 20
-212.135
 11
-144.949
 21
-212.804
  0
LINE
  8
0
 10
-144.949
 20
-212.804
 11
-145.13
 21
-213.426
  0
LINE
  8
0
 10
-145.13
 20
-213.426
 11
-145.382
 21
-214.003
  0
LINE
  8
0
 10
-145.382
 20
-214.003
 11
-145.7
 21
-214.523
  0
LINE
  8
0
 10
-145.7
 20
-214.523
 11
-146.079
 21
-214.979
  0
LINE
  8
0
 10
-146.079
 20
-214.979
 11
-146.517
 21
-215.371
  0
LINE
  8
0
 10
-146.517
 20
-215.371
 11
-147.016
 21
-215.698
  0
LINE
  8
0
 10
-147.016
 20
-215.698
 11
-147.565
 21
-215.955
  0
LINE
  8
0
 10
-147.565
 20
-215.955
 11
-148.155
 21
-216.139
  0
LINE
  8
0
 10
-148.155
 20
-216.139
 11
-148.786
 21
-216.25
  0
LINE
  8
0
 10
-148.786
 20
-216.25
 11
-149.457
 21
-216.287
  0
LINE
  8
0
 10
-149.457
 20
-216.287
 11
-153.031
 21
-216.287
  0
LINE
  8
0
 10
-149.096
 20
-215.22
 11
-148.619
 21
-215.134
  0
LINE
  8
0
 10
-148.619
 20
-215.134
 11
-148.173
 21
-214.99
  0
LINE
  8
0
 10
-148.173
 20
-214.99
 11
-147.759
 21
-214.789
  0
LINE
  8
0
 10
-147.759
 20
-214.789
 11
-147.384
 21
-214.533
  0
LINE
  8
0
 10
-147.384
 20
-214.533
 11
-147.055
 21
-214.227
  0
LINE
  8
0
 10
-147.055
 20
-214.227
 11
-146.772
 21
-213.871
  0
LINE
  8
0
 10
-146.772
 20
-213.871
 11
-146.535
 21
-213.464
  0
LINE
  8
0
 10
-146.535
 20
-213.464
 11
-146.348
 21
-213.011
  0
LINE
  8
0
 10
-146.348
 20
-213.011
 11
-146.214
 21
-212.52
  0
LINE
  8
0
 10
-146.214
 20
-212.52
 11
-146.134
 21
-211.99
  0
LINE
  8
0
 10
-146.134
 20
-211.99
 11
-146.107
 21
-211.421
  0
LINE
  8
0
 10
-146.107
 20
-211.421
 11
-146.168
 21
-210.587
  0
LINE
  8
0
 10
-146.168
 20
-210.587
 11
-146.35
 21
-209.859
  0
LINE
  8
0
 10
-146.35
 20
-209.859
 11
-146.654
 21
-209.236
  0
LINE
  8
0
 10
-146.654
 20
-209.236
 11
-147.08
 21
-208.719
  0
LINE
  8
0
 10
-147.08
 20
-208.719
 11
-147.621
 21
-208.312
  0
LINE
  8
0
 10
-147.621
 20
-208.312
 11
-148.271
 21
-208.021
  0
LINE
  8
0
 10
-148.271
 20
-208.021
 11
-149.03
 21
-207.847
  0
LINE
  8
0
 10
-149.03
 20
-207.847
 11
-149.898
 21
-207.789
  0
LINE
  8
0
 10
-149.898
 20
-207.789
 11
-151.736
 21
-207.789
  0
LINE
  8
0
 10
-151.736
 20
-207.789
 11
-151.736
 21
-215.249
  0
LINE
  8
0
 10
-151.736
 20
-215.249
 11
-149.606
 21
-215.249
  0
LINE
  8
0
 10
-149.606
 20
-215.249
 11
-149.096
 21
-215.22
  0
LINE
  8
0
 10
2.47787
 20
-248.848
 11
1.78258
 21
-248.222
  0
LINE
  8
0
 10
1.78258
 20
-248.222
 11
1.40202
 21
-247.368
  0
LINE
  8
0
 10
1.40202
 20
-247.368
 11
1.40204
 21
-246.432
  0
LINE
  8
0
 10
1.40204
 20
-246.432
 11
1.78258
 21
-245.577
  0
LINE
  8
0
 10
1.78258
 20
-245.577
 11
2.47787
 21
-244.951
  0
LINE
  8
0
 10
2.47787
 20
-244.951
 11
3.36769
 21
-244.662
  0
LINE
  8
0
 10
3.36769
 20
-244.662
 11
4.29817
 21
-244.76
  0
LINE
  8
0
 10
4.29817
 20
-244.76
 11
5.10841
 21
-245.228
  0
LINE
  8
0
 10
5.10841
 20
-245.228
 11
5.65834
 21
-245.985
  0
LINE
  8
0
 10
5.65834
 20
-245.985
 11
5.85286
 21
-246.9
  0
LINE
  8
0
 10
5.85286
 20
-246.9
 11
5.65836
 21
-247.815
  0
LINE
  8
0
 10
5.65836
 20
-247.815
 11
5.1084
 21
-248.572
  0
LINE
  8
0
 10
5.1084
 20
-248.572
 11
4.29816
 21
-249.04
  0
LINE
  8
0
 10
4.29816
 20
-249.04
 11
3.36768
 21
-249.137
  0
LINE
  8
0
 10
3.36768
 20
-249.137
 11
2.47787
 21
-248.848
  0
LINE
  8
0
 10
-18.9729
 20
-251.686
 11
-18.836
 21
-251.265
  0
LINE
  8
0
 10
-18.836
 20
-251.265
 11
-18.21
 21
-250.57
  0
LINE
  8
0
 10
-18.21
 20
-250.57
 11
-17.3553
 21
-250.189
  0
LINE
  8
0
 10
-17.3553
 20
-250.189
 11
-16.4197
 21
-250.189
  0
LINE
  8
0
 10
-16.4197
 20
-250.189
 11
-15.565
 21
-250.57
  0
LINE
  8
0
 10
-15.565
 20
-250.57
 11
-14.9389
 21
-251.265
  0
LINE
  8
0
 10
-14.9389
 20
-251.265
 11
-14.6498
 21
-252.155
  0
LINE
  8
0
 10
-14.6498
 20
-252.155
 11
-14.7476
 21
-253.085
  0
LINE
  8
0
 10
-14.7476
 20
-253.085
 11
-15.198
 21
-253.866
  0
LINE
  8
0
 10
-15.198
 20
-253.866
 11
-18.9729
 21
-251.686
  0
LINE
  8
0
 10
-17.8026
 20
-254.446
 11
-18.5596
 21
-253.896
  0
LINE
  8
0
 10
-18.5596
 20
-253.896
 11
-19.0274
 21
-253.085
  0
LINE
  8
0
 10
-19.0274
 20
-253.085
 11
-19.0582
 21
-252.792
  0
LINE
  8
0
 10
-19.0582
 20
-252.792
 11
-16.134
 21
-254.48
  0
LINE
  8
0
 10
-16.134
 20
-254.48
 11
-16.8875
 21
-254.64
  0
LINE
  8
0
 10
-16.8875
 20
-254.64
 11
-17.8026
 21
-254.446
  0
LINE
  8
0
 10
8.17812
 20
-269.446
 11
7.4212
 21
-268.896
  0
LINE
  8
0
 10
7.4212
 20
-268.896
 11
6.95338
 21
-268.085
  0
LINE
  8
0
 10
6.95338
 20
-268.085
 11
6.85561
 21
-267.155
  0
LINE
  8
0
 10
6.85561
 20
-267.155
 11
7.1447
 21
-266.265
  0
LINE
  8
0
 10
7.1447
 20
-266.265
 11
7.77075
 21
-265.57
  0
LINE
  8
0
 10
7.77075
 20
-265.57
 11
8.62547
 21
-265.189
  0
LINE
  8
0
 10
8.62547
 20
-265.189
 11
9.56107
 21
-265.189
  0
LINE
  8
0
 10
9.56107
 20
-265.189
 11
10.4158
 21
-265.57
  0
LINE
  8
0
 10
10.4158
 20
-265.57
 11
11.0418
 21
-266.265
  0
LINE
  8
0
 10
11.0418
 20
-266.265
 11
11.3309
 21
-267.155
  0
LINE
  8
0
 10
11.3309
 20
-267.155
 11
11.2331
 21
-268.085
  0
LINE
  8
0
 10
11.2331
 20
-268.085
 11
10.7654
 21
-268.896
  0
LINE
  8
0
 10
10.7654
 20
-268.896
 11
10.0084
 21
-269.446
  0
LINE
  8
0
 10
10.0084
 20
-269.446
 11
9.09326
 21
-269.64
  0
LINE
  8
0
 10
9.09326
 20
-269.64
 11
8.17812
 21
-269.446
  0
LINE
  8
0
 10
-12.5221
 20
-274.829
 11
-13.2174
 21
-274.203
  0
LINE
  8
0
 10
-13.2174
 20
-274.203
 11
-13.5979
 21
-273.348
  0
LINE
  8
0
 10
-13.5979
 20
-273.348
 11
-13.5979
 21
-272.413
  0
LINE
  8
0
 10
-13.5979
 20
-272.413
 11
-13.2174
 21
-271.558
  0
LINE
  8
0
 10
-13.2174
 20
-271.558
 11
-12.5221
 21
-270.932
  0
LINE
  8
0
 10
-12.5221
 20
-270.932
 11
-11.6323
 21
-270.643
  0
LINE
  8
0
 10
-11.6323
 20
-270.643
 11
-10.7018
 21
-270.741
  0
LINE
  8
0
 10
-10.7018
 20
-270.741
 11
-9.89157
 21
-271.208
  0
LINE
  8
0
 10
-9.89157
 20
-271.208
 11
-9.34163
 21
-271.965
  0
LINE
  8
0
 10
-9.34163
 20
-271.965
 11
-9.14711
 21
-272.88
  0
LINE
  8
0
 10
-9.14711
 20
-272.88
 11
-9.34163
 21
-273.796
  0
LINE
  8
0
 10
-9.34163
 20
-273.796
 11
-9.89157
 21
-274.553
  0
LINE
  8
0
 10
-9.89157
 20
-274.553
 11
-10.7018
 21
-275.02
  0
LINE
  8
0
 10
-10.7018
 20
-275.02
 11
-11.6323
 21
-275.118
  0
LINE
  8
0
 10
-11.6323
 20
-275.118
 11
-12.5221
 21
-274.829
  0
LINE
  8
0
 10
62.4736
 20
68.7897
 11
63.6907
 21
69.0931
  0
LINE
  8
0
 10
63.6907
 20
69.0931
 11
64.8181
 21
69.643
  0
LINE
  8
0
 10
64.8181
 20
69.643
 11
65.8065
 21
70.4152
  0
LINE
  8
0
 10
65.8065
 20
70.4152
 11
66.6128
 21
71.3761
  0
LINE
  8
0
 10
66.6128
 20
71.3761
 11
67.2017
 21
72.4837
  0
LINE
  8
0
 10
67.2017
 20
72.4837
 11
67.5474
 21
73.6894
  0
LINE
  8
0
 10
67.5474
 20
73.6894
 11
68.5294
 21
79.2588
  0
LINE
  8
0
 10
68.5294
 20
79.2588
 11
61.3359
 21
82.5827
  0
LINE
  8
0
 10
61.3359
 20
82.5827
 11
53.2704
 21
87.6226
  0
LINE
  8
0
 10
53.2704
 20
87.6226
 11
45.9001
 21
93.6336
  0
LINE
  8
0
 10
45.9001
 20
93.6336
 11
39.3414
 21
100.521
  0
LINE
  8
0
 10
39.3414
 20
100.521
 11
33.6976
 21
108.176
  0
LINE
  8
0
 10
33.6976
 20
108.176
 11
29.0577
 21
116.478
  0
LINE
  8
0
 10
29.0577
 20
116.478
 11
25.9767
 21
124.104
  0
LINE
  8
0
 10
25.9767
 20
124.104
 11
11.4642
 21
126.663
  0
LINE
  8
0
 10
11.4642
 20
126.663
 11
11.4584
 21
126.631
  0
LINE
  8
0
 10
11.4584
 20
126.631
 11
10.8408
 21
126.739
  0
LINE
  8
0
 10
10.8408
 20
126.739
 11
9.58722
 21
126.696
  0
LINE
  8
0
 10
9.58722
 20
126.696
 11
8.37013
 21
126.392
  0
LINE
  8
0
 10
8.37013
 20
126.392
 11
7.24275
 21
125.842
  0
LINE
  8
0
 10
7.24275
 20
125.842
 11
6.2543
 21
125.07
  0
LINE
  8
0
 10
6.2543
 20
125.07
 11
5.44803
 21
124.109
  0
LINE
  8
0
 10
5.44803
 20
124.109
 11
4.85916
 21
123.002
  0
LINE
  8
0
 10
4.85916
 20
123.002
 11
4.51341
 21
121.796
  0
LINE
  8
0
 10
4.51341
 20
121.796
 11
-1.81259
 21
85.9194
  0
LINE
  8
0
 10
-1.81259
 20
85.9194
 11
-1.90009
 21
84.6682
  0
LINE
  8
0
 10
-1.90009
 20
84.6682
 11
-1.72552
 21
83.426
  0
LINE
  8
0
 10
-1.72552
 20
83.426
 11
-1.29649
 21
82.2473
  0
LINE
  8
0
 10
-1.29649
 20
82.2473
 11
-0.63179
 21
81.1836
  0
LINE
  8
0
 10
-0.63179
 20
81.1836
 11
0.239532
 21
80.2813
  0
LINE
  8
0
 10
0.239532
 20
80.2813
 11
1.27942
 21
79.5799
  0
LINE
  8
0
 10
1.27942
 20
79.5799
 11
2.44243
 21
79.11
  0
LINE
  8
0
 10
2.44243
 20
79.11
 11
3.06007
 21
79.0011
  0
LINE
  8
0
 10
3.06007
 20
79.0011
 11
3.05437
 21
78.9687
  0
LINE
  8
0
 10
3.05437
 20
78.9687
 11
60.5966
 21
68.8224
  0
LINE
  8
0
 10
60.5966
 20
68.8224
 11
60.6024
 21
68.8548
  0
LINE
  8
0
 10
60.6024
 20
68.8548
 11
61.22
 21
68.7459
  0
LINE
  8
0
 10
61.22
 20
68.7459
 11
62.4736
 21
68.7897
  0
LINE
  8
0
 10
8.20071
 20
118.335
 11
7.78658
 21
120.203
  0
LINE
  8
0
 10
7.78658
 20
120.203
 11
8.81465
 21
121.817
  0
LINE
  8
0
 10
8.81465
 20
121.817
 11
10.6827
 21
122.231
  0
LINE
  8
0
 10
10.6827
 20
122.231
 11
12.2965
 21
121.203
  0
LINE
  8
0
 10
12.2965
 20
121.203
 11
12.7106
 21
119.335
  0
LINE
  8
0
 10
12.7106
 20
119.335
 11
11.6825
 21
117.721
  0
LINE
  8
0
 10
11.6825
 20
117.721
 11
9.81447
 21
117.307
  0
LINE
  8
0
 10
9.81447
 20
117.307
 11
8.20071
 21
118.335
  0
LINE
  8
0
 10
2.222
 20
84.4284
 11
1.80786
 21
86.2965
  0
LINE
  8
0
 10
1.80786
 20
86.2965
 11
2.83594
 21
87.9102
  0
LINE
  8
0
 10
2.83594
 20
87.9102
 11
4.70401
 21
88.3244
  0
LINE
  8
0
 10
4.70401
 20
88.3244
 11
6.31778
 21
87.2963
  0
LINE
  8
0
 10
6.31778
 20
87.2963
 11
6.7319
 21
85.4282
  0
LINE
  8
0
 10
6.7319
 20
85.4282
 11
5.70384
 21
83.8145
  0
LINE
  8
0
 10
5.70384
 20
83.8145
 11
3.83575
 21
83.4003
  0
LINE
  8
0
 10
3.83575
 20
83.4003
 11
2.222
 21
84.4284
  0
LINE
  8
0
 10
59.7643
 20
74.2822
 11
59.3502
 21
76.1502
  0
LINE
  8
0
 10
59.3502
 20
76.1502
 11
60.3782
 21
77.764
  0
LINE
  8
0
 10
60.3782
 20
77.764
 11
62.2463
 21
78.1781
  0
LINE
  8
0
 10
62.2463
 20
78.1781
 11
63.8601
 21
77.15
  0
LINE
  8
0
 10
63.8601
 20
77.15
 11
64.2742
 21
75.282
  0
LINE
  8
0
 10
64.2742
 20
75.282
 11
63.2461
 21
73.6682
  0
LINE
  8
0
 10
63.2461
 20
73.6682
 11
61.3781
 21
73.2541
  0
LINE
  8
0
 10
61.3781
 20
73.2541
 11
59.7643
 21
74.2822
  0
LINE
  8
0
 10
-176.919
 20
58.9607
 11
-168.522
 21
63.4257
  0
LINE
  8
0
 10
-168.522
 20
63.4257
 11
-159.631
 21
66.803
  0
LINE
  8
0
 10
-159.631
 20
66.803
 11
-150.387
 21
69.0394
  0
LINE
  8
0
 10
-150.387
 20
69.0394
 11
-140.935
 21
70.0995
  0
LINE
  8
0
 10
-140.935
 20
70.0995
 11
-131.426
 21
69.9667
  0
LINE
  8
0
 10
-131.426
 20
69.9667
 11
-123.281
 21
68.822
  0
LINE
  8
0
 10
-123.281
 20
68.822
 11
-113.809
 21
80.1108
  0
LINE
  8
0
 10
-113.809
 20
80.1108
 11
-113.834
 21
80.1319
  0
LINE
  8
0
 10
-113.834
 20
80.1319
 11
-113.431
 21
80.6124
  0
LINE
  8
0
 10
-113.431
 20
80.6124
 11
-112.842
 21
81.7199
  0
LINE
  8
0
 10
-112.842
 20
81.7199
 11
-112.496
 21
82.9256
  0
LINE
  8
0
 10
-112.496
 20
82.9256
 11
-112.409
 21
84.1769
  0
LINE
  8
0
 10
-112.409
 20
84.1769
 11
-112.583
 21
85.419
  0
LINE
  8
0
 10
-112.583
 20
85.419
 11
-113.012
 21
86.5977
  0
LINE
  8
0
 10
-113.012
 20
86.5977
 11
-113.677
 21
87.6615
  0
LINE
  8
0
 10
-113.677
 20
87.6615
 11
-114.548
 21
88.5638
  0
LINE
  8
0
 10
-114.548
 20
88.5638
 11
-142.455
 21
111.981
  0
LINE
  8
0
 10
-142.455
 20
111.981
 11
-143.495
 21
112.682
  0
LINE
  8
0
 10
-143.495
 20
112.682
 11
-144.658
 21
113.152
  0
LINE
  8
0
 10
-144.658
 20
113.152
 11
-145.893
 21
113.37
  0
LINE
  8
0
 10
-145.893
 20
113.37
 11
-147.147
 21
113.326
  0
LINE
  8
0
 10
-147.147
 20
113.326
 11
-148.364
 21
113.022
  0
LINE
  8
0
 10
-148.364
 20
113.022
 11
-149.491
 21
112.473
  0
LINE
  8
0
 10
-149.491
 20
112.473
 11
-150.48
 21
111.7
  0
LINE
  8
0
 10
-150.48
 20
111.7
 11
-150.883
 21
111.22
  0
LINE
  8
0
 10
-150.883
 20
111.22
 11
-150.908
 21
111.241
  0
LINE
  8
0
 10
-150.908
 20
111.241
 11
-188.466
 21
66.481
  0
LINE
  8
0
 10
-188.466
 20
66.481
 11
-188.441
 21
66.4599
  0
LINE
  8
0
 10
-188.441
 20
66.4599
 11
-188.844
 21
65.9794
  0
LINE
  8
0
 10
-188.844
 20
65.9794
 11
-189.433
 21
64.8719
  0
LINE
  8
0
 10
-189.433
 20
64.8719
 11
-189.779
 21
63.6662
  0
LINE
  8
0
 10
-189.779
 20
63.6662
 11
-189.866
 21
62.4149
  0
LINE
  8
0
 10
-189.866
 20
62.4149
 11
-189.692
 21
61.1728
  0
LINE
  8
0
 10
-189.692
 20
61.1728
 11
-189.263
 21
59.994
  0
LINE
  8
0
 10
-189.263
 20
59.994
 11
-188.598
 21
58.9303
  0
LINE
  8
0
 10
-188.598
 20
58.9303
 11
-187.727
 21
58.028
  0
LINE
  8
0
 10
-187.727
 20
58.028
 11
-183.394
 21
54.3929
  0
LINE
  8
0
 10
-183.394
 20
54.3929
 11
-176.919
 21
58.9607
  0
LINE
  8
0
 10
-147.153
 20
104.826
 11
-148.036
 21
106.524
  0
LINE
  8
0
 10
-148.036
 20
106.524
 11
-147.461
 21
108.348
  0
LINE
  8
0
 10
-147.461
 20
108.348
 11
-145.764
 21
109.232
  0
LINE
  8
0
 10
-145.764
 20
109.232
 11
-143.939
 21
108.657
  0
LINE
  8
0
 10
-143.939
 20
108.657
 11
-143.055
 21
106.959
  0
LINE
  8
0
 10
-143.055
 20
106.959
 11
-143.631
 21
105.135
  0
LINE
  8
0
 10
-143.631
 20
105.135
 11
-145.328
 21
104.251
  0
LINE
  8
0
 10
-145.328
 20
104.251
 11
-147.153
 21
104.826
  0
LINE
  8
0
 10
-120.778
 20
82.6952
 11
-121.661
 21
84.3924
  0
LINE
  8
0
 10
-121.661
 20
84.3924
 11
-121.086
 21
86.2173
  0
LINE
  8
0
 10
-121.086
 20
86.2173
 11
-119.389
 21
87.1008
  0
LINE
  8
0
 10
-119.389
 20
87.1008
 11
-117.564
 21
86.5254
  0
LINE
  8
0
 10
-117.564
 20
86.5254
 11
-116.68
 21
84.8282
  0
LINE
  8
0
 10
-116.68
 20
84.8282
 11
-117.256
 21
83.0033
  0
LINE
  8
0
 10
-117.256
 20
83.0033
 11
-118.953
 21
82.1198
  0
LINE
  8
0
 10
-118.953
 20
82.1198
 11
-120.778
 21
82.6952
  0
LINE
  8
0
 10
-184.711
 20
60.0664
 11
-185.594
 21
61.7636
  0
LINE
  8
0
 10
-185.594
 20
61.7636
 11
-185.019
 21
63.5885
  0
LINE
  8
0
 10
-185.019
 20
63.5885
 11
-183.322
 21
64.472
  0
LINE
  8
0
 10
-183.322
 20
64.472
 11
-181.497
 21
63.8966
  0
LINE
  8
0
 10
-181.497
 20
63.8966
 11
-180.613
 21
62.1994
  0
LINE
  8
0
 10
-180.613
 20
62.1994
 11
-181.189
 21
60.3745
  0
LINE
  8
0
 10
-181.189
 20
60.3745
 11
-182.886
 21
59.491
  0
LINE
  8
0
 10
-182.886
 20
59.491
 11
-184.711
 21
60.0664
  0
LINE
  8
0
 10
95.5212
 20
-292.875
 11
96.1071
 21
-292.791
  0
LINE
  8
0
 10
96.1071
 20
-292.791
 11
96.6786
 21
-292.638
  0
LINE
  8
0
 10
96.6786
 20
-292.638
 11
97.2275
 21
-292.417
  0
LINE
  8
0
 10
97.2275
 20
-292.417
 11
97.7458
 21
-292.132
  0
LINE
  8
0
 10
97.7458
 20
-292.132
 11
98.2259
 21
-291.786
  0
LINE
  8
0
 10
98.2259
 20
-291.786
 11
98.6608
 21
-291.385
  0
LINE
  8
0
 10
98.6608
 20
-291.385
 11
99.0442
 21
-290.934
  0
LINE
  8
0
 10
99.0442
 20
-290.934
 11
99.3705
 21
-290.44
  0
LINE
  8
0
 10
99.3705
 20
-290.44
 11
103.42
 21
-283.426
  0
LINE
  8
0
 10
103.42
 20
-283.426
 11
110.435
 21
-287.476
  0
LINE
  8
0
 10
110.435
 20
-287.476
 11
110.965
 21
-287.74
  0
LINE
  8
0
 10
110.965
 20
-287.74
 11
111.522
 21
-287.939
  0
LINE
  8
0
 10
111.522
 20
-287.939
 11
112.099
 21
-288.069
  0
LINE
  8
0
 10
112.099
 20
-288.069
 11
112.688
 21
-288.128
  0
LINE
  8
0
 10
112.688
 20
-288.128
 11
113.28
 21
-288.116
  0
LINE
  8
0
 10
113.28
 20
-288.116
 11
113.865
 21
-288.033
  0
LINE
  8
0
 10
113.865
 20
-288.033
 11
114.437
 21
-287.88
  0
LINE
  8
0
 10
114.437
 20
-287.88
 11
114.986
 21
-287.659
  0
LINE
  8
0
 10
114.986
 20
-287.659
 11
115.504
 21
-287.374
  0
LINE
  8
0
 10
115.504
 20
-287.374
 11
115.984
 21
-287.028
  0
LINE
  8
0
 10
115.984
 20
-287.028
 11
116.419
 21
-286.626
  0
LINE
  8
0
 10
116.419
 20
-286.626
 11
116.803
 21
-286.176
  0
LINE
  8
0
 10
116.803
 20
-286.176
 11
117.129
 21
-285.682
  0
LINE
  8
0
 10
117.129
 20
-285.682
 11
118.679
 21
-282.997
  0
LINE
  8
0
 10
118.679
 20
-282.997
 11
123.009
 21
-285.497
  0
LINE
  8
0
 10
123.009
 20
-285.497
 11
124.009
 21
-283.765
  0
LINE
  8
0
 10
124.009
 20
-283.765
 11
119.679
 21
-281.265
  0
LINE
  8
0
 10
119.679
 20
-281.265
 11
121.229
 21
-278.581
  0
LINE
  8
0
 10
121.229
 20
-278.581
 11
121.493
 21
-278.051
  0
LINE
  8
0
 10
121.493
 20
-278.051
 11
121.692
 21
-277.494
  0
LINE
  8
0
 10
121.692
 20
-277.494
 11
121.822
 21
-276.917
  0
LINE
  8
0
 10
121.822
 20
-276.917
 11
121.881
 21
-276.328
  0
LINE
  8
0
 10
121.881
 20
-276.328
 11
121.869
 21
-275.736
  0
LINE
  8
0
 10
121.869
 20
-275.736
 11
121.786
 21
-275.151
  0
LINE
  8
0
 10
121.786
 20
-275.151
 11
121.633
 21
-274.579
  0
LINE
  8
0
 10
121.633
 20
-274.579
 11
121.412
 21
-274.03
  0
LINE
  8
0
 10
121.412
 20
-274.03
 11
121.127
 21
-273.512
  0
LINE
  8
0
 10
121.127
 20
-273.512
 11
120.781
 21
-273.032
  0
LINE
  8
0
 10
120.781
 20
-273.032
 11
120.38
 21
-272.597
  0
LINE
  8
0
 10
120.38
 20
-272.597
 11
119.929
 21
-272.213
  0
LINE
  8
0
 10
119.929
 20
-272.213
 11
119.435
 21
-271.887
  0
LINE
  8
0
 10
119.435
 20
-271.887
 11
112.42
 21
-267.837
  0
LINE
  8
0
 10
112.42
 20
-267.837
 11
116.47
 21
-260.822
  0
LINE
  8
0
 10
116.47
 20
-260.822
 11
116.735
 21
-260.293
  0
LINE
  8
0
 10
116.735
 20
-260.293
 11
116.933
 21
-259.736
  0
LINE
  8
0
 10
116.933
 20
-259.736
 11
117.063
 21
-259.158
  0
LINE
  8
0
 10
117.063
 20
-259.158
 11
117.123
 21
-258.57
  0
LINE
  8
0
 10
117.123
 20
-258.57
 11
117.111
 21
-257.978
  0
LINE
  8
0
 10
117.111
 20
-257.978
 11
117.028
 21
-257.392
  0
LINE
  8
0
 10
117.028
 20
-257.392
 11
116.875
 21
-256.821
  0
LINE
  8
0
 10
116.875
 20
-256.821
 11
116.654
 21
-256.272
  0
LINE
  8
0
 10
116.654
 20
-256.272
 11
116.368
 21
-255.753
  0
LINE
  8
0
 10
116.368
 20
-255.753
 11
116.023
 21
-255.273
  0
LINE
  8
0
 10
116.023
 20
-255.273
 11
115.621
 21
-254.838
  0
LINE
  8
0
 10
115.621
 20
-254.838
 11
115.171
 21
-254.455
  0
LINE
  8
0
 10
115.171
 20
-254.455
 11
114.677
 21
-254.129
  0
LINE
  8
0
 10
114.677
 20
-254.129
 11
107.576
 21
-250.029
  0
LINE
  8
0
 10
107.576
 20
-250.029
 11
107.046
 21
-249.764
  0
LINE
  8
0
 10
107.046
 20
-249.764
 11
106.489
 21
-249.566
  0
LINE
  8
0
 10
106.489
 20
-249.566
 11
105.912
 21
-249.436
  0
LINE
  8
0
 10
105.912
 20
-249.436
 11
105.323
 21
-249.376
  0
LINE
  8
0
 10
105.323
 20
-249.376
 11
104.731
 21
-249.388
  0
LINE
  8
0
 10
104.731
 20
-249.388
 11
104.145
 21
-249.471
  0
LINE
  8
0
 10
104.145
 20
-249.471
 11
103.574
 21
-249.625
  0
LINE
  8
0
 10
103.574
 20
-249.625
 11
103.025
 21
-249.845
  0
LINE
  8
0
 10
103.025
 20
-249.845
 11
102.507
 21
-250.131
  0
LINE
  8
0
 10
102.507
 20
-250.131
 11
102.027
 21
-250.477
  0
LINE
  8
0
 10
102.027
 20
-250.477
 11
101.592
 21
-250.878
  0
LINE
  8
0
 10
101.592
 20
-250.878
 11
101.208
 21
-251.329
  0
LINE
  8
0
 10
101.208
 20
-251.329
 11
100.882
 21
-251.822
  0
LINE
  8
0
 10
100.882
 20
-251.822
 11
96.832
 21
-258.837
  0
LINE
  8
0
 10
96.832
 20
-258.837
 11
89.8172
 21
-254.787
  0
LINE
  8
0
 10
89.8172
 20
-254.787
 11
89.2878
 21
-254.523
  0
LINE
  8
0
 10
89.2878
 20
-254.523
 11
88.7305
 21
-254.324
  0
LINE
  8
0
 10
88.7305
 20
-254.324
 11
88.1532
 21
-254.194
  0
LINE
  8
0
 10
88.1532
 20
-254.194
 11
87.5645
 21
-254.135
  0
LINE
  8
0
 10
87.5645
 20
-254.135
 11
86.9729
 21
-254.147
  0
LINE
  8
0
 10
86.9729
 20
-254.147
 11
86.3871
 21
-254.23
  0
LINE
  8
0
 10
86.3871
 20
-254.23
 11
85.8155
 21
-254.383
  0
LINE
  8
0
 10
85.8155
 20
-254.383
 11
85.2666
 21
-254.604
  0
LINE
  8
0
 10
85.2666
 20
-254.604
 11
84.7483
 21
-254.889
  0
LINE
  8
0
 10
84.7483
 20
-254.889
 11
84.2682
 21
-255.235
  0
LINE
  8
0
 10
84.2682
 20
-255.235
 11
83.8333
 21
-255.636
  0
LINE
  8
0
 10
83.8333
 20
-255.636
 11
83.4499
 21
-256.087
  0
LINE
  8
0
 10
83.4499
 20
-256.087
 11
83.1237
 21
-256.581
  0
LINE
  8
0
 10
83.1237
 20
-256.581
 11
81.5737
 21
-259.265
  0
LINE
  8
0
 10
81.5737
 20
-259.265
 11
77.2435
 21
-256.765
  0
LINE
  8
0
 10
77.2435
 20
-256.765
 11
76.9935
 21
-257.198
  0
LINE
  8
0
 10
76.9935
 20
-257.198
 11
-0.713562
 21
-212.334
  0
LINE
  8
0
 10
-0.713562
 20
-212.334
 11
13.1934
 21
-207.816
  0
LINE
  8
0
 10
13.1934
 20
-207.816
 11
26.6333
 21
-200.056
  0
LINE
  8
0
 10
26.6333
 20
-200.056
 11
38.1661
 21
-189.672
  0
LINE
  8
0
 10
38.1661
 20
-189.672
 11
47.2879
 21
-177.117
  0
LINE
  8
0
 10
47.2879
 20
-177.117
 11
53.6001
 21
-162.939
  0
LINE
  8
0
 10
53.6001
 20
-162.939
 11
56.8267
 21
-147.759
  0
LINE
  8
0
 10
56.8267
 20
-147.759
 11
56.8267
 21
-132.24
  0
LINE
  8
0
 10
56.8267
 20
-132.24
 11
53.6001
 21
-117.061
  0
LINE
  8
0
 10
53.6001
 20
-117.061
 11
47.2879
 21
-102.883
  0
LINE
  8
0
 10
47.2879
 20
-102.883
 11
38.1661
 21
-90.3282
  0
LINE
  8
0
 10
38.1661
 20
-90.3282
 11
26.6332
 21
-79.944
  0
LINE
  8
0
 10
26.6332
 20
-79.944
 11
13.1934
 21
-72.1845
  0
LINE
  8
0
 10
13.1934
 20
-72.1845
 11
-1.56601
 21
-67.3889
  0
LINE
  8
0
 10
-1.56601
 20
-67.3889
 11
-17
 21
-65.7667
  0
LINE
  8
0
 10
-17
 20
-65.7667
 11
-32.434
 21
-67.3889
  0
LINE
  8
0
 10
-32.434
 20
-67.3889
 11
-47.1934
 21
-72.1845
  0
LINE
  8
0
 10
-47.1934
 20
-72.1845
 11
-60.6333
 21
-79.944
  0
LINE
  8
0
 10
-60.6333
 20
-79.944
 11
-72.1661
 21
-90.3282
  0
LINE
  8
0
 10
-72.1661
 20
-90.3282
 11
-81.2879
 21
-102.883
  0
LINE
  8
0
 10
-81.2879
 20
-102.883
 11
-87.6001
 21
-117.061
  0
LINE
  8
0
 10
-87.6001
 20
-117.061
 11
-90.8267
 21
-132.24
  0
LINE
  8
0
 10
-90.8267
 20
-132.24
 11
-90.8267
 21
-147.759
  0
LINE
  8
0
 10
-90.8267
 20
-147.759
 11
-87.6001
 21
-162.939
  0
LINE
  8
0
 10
-87.6001
 20
-162.939
 11
-81.2879
 21
-177.117
  0
LINE
  8
0
 10
-81.2879
 20
-177.117
 11
-72.1661
 21
-189.672
  0
LINE
  8
0
 10
-72.1661
 20
-189.672
 11
-60.6332
 21
-200.056
  0
LINE
  8
0
 10
-60.6332
 20
-200.056
 11
-47.1934
 21
-207.816
  0
LINE
  8
0
 10
-47.1934
 20
-207.816
 11
-32.434
 21
-212.611
  0
LINE
  8
0
 10
-32.434
 20
-212.611
 11
-17
 21
-214.233
  0
LINE
  8
0
 10
-17
 20
-214.233
 11
-2.13097
 21
-212.671
  0
LINE
  8
0
 10
-2.13097
 20
-212.671
 11
76.4935
 21
-258.064
  0
LINE
  8
0
 10
76.4935
 20
-258.064
 11
76.2436
 21
-258.497
  0
LINE
  8
0
 10
76.2436
 20
-258.497
 11
80.5737
 21
-260.997
  0
LINE
  8
0
 10
80.5737
 20
-260.997
 11
79.0237
 21
-263.682
  0
LINE
  8
0
 10
79.0237
 20
-263.682
 11
78.7593
 21
-264.211
  0
LINE
  8
0
 10
78.7593
 20
-264.211
 11
78.5607
 21
-264.769
  0
LINE
  8
0
 10
78.5607
 20
-264.769
 11
78.4306
 21
-265.346
  0
LINE
  8
0
 10
78.4306
 20
-265.346
 11
78.3712
 21
-265.935
  0
LINE
  8
0
 10
78.3712
 20
-265.935
 11
78.3831
 21
-266.526
  0
LINE
  8
0
 10
78.3831
 20
-266.526
 11
78.4662
 21
-267.112
  0
LINE
  8
0
 10
78.4662
 20
-267.112
 11
78.6194
 21
-267.684
  0
LINE
  8
0
 10
78.6194
 20
-267.684
 11
78.8403
 21
-268.233
  0
LINE
  8
0
 10
78.8403
 20
-268.233
 11
79.1258
 21
-268.751
  0
LINE
  8
0
 10
79.1258
 20
-268.751
 11
79.4716
 21
-269.231
  0
LINE
  8
0
 10
79.4716
 20
-269.231
 11
79.8728
 21
-269.666
  0
LINE
  8
0
 10
79.8728
 20
-269.666
 11
80.3235
 21
-270.049
  0
LINE
  8
0
 10
80.3235
 20
-270.049
 11
80.8172
 21
-270.376
  0
LINE
  8
0
 10
80.8172
 20
-270.376
 11
87.832
 21
-274.426
  0
LINE
  8
0
 10
87.832
 20
-274.426
 11
83.782
 21
-281.44
  0
LINE
  8
0
 10
83.782
 20
-281.44
 11
83.5176
 21
-281.97
  0
LINE
  8
0
 10
83.5176
 20
-281.97
 11
83.319
 21
-282.527
  0
LINE
  8
0
 10
83.319
 20
-282.527
 11
83.189
 21
-283.104
  0
LINE
  8
0
 10
83.189
 20
-283.104
 11
83.1295
 21
-283.693
  0
LINE
  8
0
 10
83.1295
 20
-283.693
 11
83.1414
 21
-284.285
  0
LINE
  8
0
 10
83.1414
 20
-284.285
 11
83.2246
 21
-284.871
  0
LINE
  8
0
 10
83.2246
 20
-284.871
 11
83.3777
 21
-285.442
  0
LINE
  8
0
 10
83.3777
 20
-285.442
 11
83.5986
 21
-285.991
  0
LINE
  8
0
 10
83.5986
 20
-285.991
 11
83.8841
 21
-286.509
  0
LINE
  8
0
 10
83.8841
 20
-286.509
 11
84.23
 21
-286.989
  0
LINE
  8
0
 10
84.23
 20
-286.989
 11
84.6312
 21
-287.424
  0
LINE
  8
0
 10
84.6312
 20
-287.424
 11
85.0819
 21
-287.808
  0
LINE
  8
0
 10
85.0819
 20
-287.808
 11
85.5755
 21
-288.134
  0
LINE
  8
0
 10
85.5755
 20
-288.134
 11
92.6769
 21
-292.234
  0
LINE
  8
0
 10
92.6769
 20
-292.234
 11
93.2063
 21
-292.498
  0
LINE
  8
0
 10
93.2063
 20
-292.498
 11
93.7637
 21
-292.697
  0
LINE
  8
0
 10
93.7637
 20
-292.697
 11
94.3409
 21
-292.827
  0
LINE
  8
0
 10
94.3409
 20
-292.827
 11
94.9296
 21
-292.886
  0
LINE
  8
0
 10
94.9296
 20
-292.886
 11
95.5212
 21
-292.875
  0
LINE
  8
0
 10
-26.0353
 20
-167.325
 11
-26.6125
 21
-167.195
  0
LINE
  8
0
 10
-26.6125
 20
-167.195
 11
-27.1699
 21
-166.996
  0
LINE
  8
0
 10
-27.1699
 20
-166.996
 11
-27.6993
 21
-166.732
  0
LINE
  8
0
 10
-27.6993
 20
-166.732
 11
-34.8007
 21
-162.632
  0
LINE
  8
0
 10
-34.8007
 20
-162.632
 11
-35.2943
 21
-162.305
  0
LINE
  8
0
 10
-35.2943
 20
-162.305
 11
-35.745
 21
-161.922
  0
LINE
  8
0
 10
-35.745
 20
-161.922
 11
-36.1462
 21
-161.487
  0
LINE
  8
0
 10
-36.1462
 20
-161.487
 11
-36.4921
 21
-161.007
  0
LINE
  8
0
 10
-36.4921
 20
-161.007
 11
-36.7776
 21
-160.489
  0
LINE
  8
0
 10
-36.7776
 20
-160.489
 11
-36.9985
 21
-159.94
  0
LINE
  8
0
 10
-36.9985
 20
-159.94
 11
-37.1517
 21
-159.368
  0
LINE
  8
0
 10
-37.1517
 20
-159.368
 11
-37.2348
 21
-158.782
  0
LINE
  8
0
 10
-37.2348
 20
-158.782
 11
-37.2467
 21
-158.191
  0
LINE
  8
0
 10
-37.2467
 20
-158.191
 11
-37.1872
 21
-157.602
  0
LINE
  8
0
 10
-37.1872
 20
-157.602
 11
-37.0572
 21
-157.025
  0
LINE
  8
0
 10
-37.0572
 20
-157.025
 11
-36.8586
 21
-156.468
  0
LINE
  8
0
 10
-36.8586
 20
-156.468
 11
-36.5942
 21
-155.938
  0
LINE
  8
0
 10
-36.5942
 20
-155.938
 11
-29.2942
 21
-143.294
  0
LINE
  8
0
 10
-29.2942
 20
-143.294
 11
-41.9382
 21
-135.994
  0
LINE
  8
0
 10
-41.9382
 20
-135.994
 11
-42.4318
 21
-135.668
  0
LINE
  8
0
 10
-42.4318
 20
-135.668
 11
-42.8826
 21
-135.285
  0
LINE
  8
0
 10
-42.8826
 20
-135.285
 11
-43.2838
 21
-134.85
  0
LINE
  8
0
 10
-43.2838
 20
-134.85
 11
-43.6296
 21
-134.37
  0
LINE
  8
0
 10
-43.6296
 20
-134.37
 11
-43.9151
 21
-133.851
  0
LINE
  8
0
 10
-43.9151
 20
-133.851
 11
-44.136
 21
-133.302
  0
LINE
  8
0
 10
-44.136
 20
-133.302
 11
-44.2892
 21
-132.731
  0
LINE
  8
0
 10
-44.2892
 20
-132.731
 11
-44.3723
 21
-132.145
  0
LINE
  8
0
 10
-44.3723
 20
-132.145
 11
-44.3842
 21
-131.553
  0
LINE
  8
0
 10
-44.3842
 20
-131.553
 11
-44.3247
 21
-130.965
  0
LINE
  8
0
 10
-44.3247
 20
-130.965
 11
-44.1947
 21
-130.387
  0
LINE
  8
0
 10
-44.1947
 20
-130.387
 11
-43.9961
 21
-129.83
  0
LINE
  8
0
 10
-43.9961
 20
-129.83
 11
-43.7317
 21
-129.301
  0
LINE
  8
0
 10
-43.7317
 20
-129.301
 11
-39.6317
 21
-122.199
  0
LINE
  8
0
 10
-39.6317
 20
-122.199
 11
-39.3055
 21
-121.706
  0
LINE
  8
0
 10
-39.3055
 20
-121.706
 11
-38.9221
 21
-121.255
  0
LINE
  8
0
 10
-38.9221
 20
-121.255
 11
-38.4872
 21
-120.854
  0
LINE
  8
0
 10
-38.4872
 20
-120.854
 11
-38.0071
 21
-120.508
  0
LINE
  8
0
 10
-38.0071
 20
-120.508
 11
-37.4888
 21
-120.222
  0
LINE
  8
0
 10
-37.4888
 20
-120.222
 11
-36.9399
 21
-120.001
  0
LINE
  8
0
 10
-36.9399
 20
-120.001
 11
-36.3683
 21
-119.848
  0
LINE
  8
0
 10
-36.3683
 20
-119.848
 11
-35.7825
 21
-119.765
  0
LINE
  8
0
 10
-35.7825
 20
-119.765
 11
-35.1909
 21
-119.753
  0
LINE
  8
0
 10
-35.1909
 20
-119.753
 11
-34.6022
 21
-119.813
  0
LINE
  8
0
 10
-34.6022
 20
-119.813
 11
-34.0249
 21
-119.943
  0
LINE
  8
0
 10
-34.0249
 20
-119.943
 11
-33.4676
 21
-120.141
  0
LINE
  8
0
 10
-33.4676
 20
-120.141
 11
-32.9382
 21
-120.406
  0
LINE
  8
0
 10
-32.9382
 20
-120.406
 11
-20.2942
 21
-127.706
  0
LINE
  8
0
 10
-20.2942
 20
-127.706
 11
-12.9942
 21
-115.062
  0
LINE
  8
0
 10
-12.9942
 20
-115.062
 11
-12.6679
 21
-114.568
  0
LINE
  8
0
 10
-12.6679
 20
-114.568
 11
-12.2846
 21
-114.117
  0
LINE
  8
0
 10
-12.2846
 20
-114.117
 11
-11.8497
 21
-113.716
  0
LINE
  8
0
 10
-11.8497
 20
-113.716
 11
-11.3696
 21
-113.37
  0
LINE
  8
0
 10
-11.3696
 20
-113.37
 11
-10.8513
 21
-113.085
  0
LINE
  8
0
 10
-10.8513
 20
-113.085
 11
-10.3024
 21
-112.864
  0
LINE
  8
0
 10
-10.3024
 20
-112.864
 11
-9.7308
 21
-112.711
  0
LINE
  8
0
 10
-9.7308
 20
-112.711
 11
-9.14497
 21
-112.628
  0
LINE
  8
0
 10
-9.14497
 20
-112.628
 11
-8.55338
 21
-112.616
  0
LINE
  8
0
 10
-8.55338
 20
-112.616
 11
-7.96466
 21
-112.675
  0
LINE
  8
0
 10
-7.96466
 20
-112.675
 11
-7.38742
 21
-112.805
  0
LINE
  8
0
 10
-7.38742
 20
-112.805
 11
-6.83005
 21
-113.004
  0
LINE
  8
0
 10
-6.83005
 20
-113.004
 11
-6.30067
 21
-113.268
  0
LINE
  8
0
 10
-6.30067
 20
-113.268
 11
0.800705
 21
-117.368
  0
LINE
  8
0
 10
0.800705
 20
-117.368
 11
1.29434
 21
-117.695
  0
LINE
  8
0
 10
1.29434
 20
-117.695
 11
1.74506
 21
-118.078
  0
LINE
  8
0
 10
1.74506
 20
-118.078
 11
2.14626
 21
-118.513
  0
LINE
  8
0
 10
2.14626
 20
-118.513
 11
2.49213
 21
-118.993
  0
LINE
  8
0
 10
2.49213
 20
-118.993
 11
2.77762
 21
-119.511
  0
LINE
  8
0
 10
2.77762
 20
-119.511
 11
2.99852
 21
-120.06
  0
LINE
  8
0
 10
2.99852
 20
-120.06
 11
3.15167
 21
-120.632
  0
LINE
  8
0
 10
3.15167
 20
-120.632
 11
3.23482
 21
-121.218
  0
LINE
  8
0
 10
3.23482
 20
-121.218
 11
3.24672
 21
-121.809
  0
LINE
  8
0
 10
3.24672
 20
-121.809
 11
3.18724
 21
-122.398
  0
LINE
  8
0
 10
3.18724
 20
-122.398
 11
3.05724
 21
-122.975
  0
LINE
  8
0
 10
3.05724
 20
-122.975
 11
2.8586
 21
-123.532
  0
LINE
  8
0
 10
2.8586
 20
-123.532
 11
2.59422
 21
-124.062
  0
LINE
  8
0
 10
2.59422
 20
-124.062
 11
-4.70576
 21
-136.706
  0
LINE
  8
0
 10
-4.70576
 20
-136.706
 11
7.93819
 21
-144.006
  0
LINE
  8
0
 10
7.93819
 20
-144.006
 11
8.43182
 21
-144.332
  0
LINE
  8
0
 10
8.43182
 20
-144.332
 11
8.88254
 21
-144.715
  0
LINE
  8
0
 10
8.88254
 20
-144.715
 11
9.28374
 21
-145.15
  0
LINE
  8
0
 10
9.28374
 20
-145.15
 11
9.62961
 21
-145.63
  0
LINE
  8
0
 10
9.62961
 20
-145.63
 11
9.9151
 21
-146.149
  0
LINE
  8
0
 10
9.9151
 20
-146.149
 11
10.136
 21
-146.698
  0
LINE
  8
0
 10
10.136
 20
-146.698
 11
10.2892
 21
-147.269
  0
LINE
  8
0
 10
10.2892
 20
-147.269
 11
10.3723
 21
-147.855
  0
LINE
  8
0
 10
10.3723
 20
-147.855
 11
10.3842
 21
-148.447
  0
LINE
  8
0
 10
10.3842
 20
-148.447
 11
10.3247
 21
-149.035
  0
LINE
  8
0
 10
10.3247
 20
-149.035
 11
10.1947
 21
-149.613
  0
LINE
  8
0
 10
10.1947
 20
-149.613
 11
9.99608
 21
-150.17
  0
LINE
  8
0
 10
9.99608
 20
-150.17
 11
9.7317
 21
-150.699
  0
LINE
  8
0
 10
9.7317
 20
-150.699
 11
5.63171
 21
-157.801
  0
LINE
  8
0
 10
5.63171
 20
-157.801
 11
5.30545
 21
-158.294
  0
LINE
  8
0
 10
5.30545
 20
-158.294
 11
4.92207
 21
-158.745
  0
LINE
  8
0
 10
4.92207
 20
-158.745
 11
4.48715
 21
-159.146
  0
LINE
  8
0
 10
4.48715
 20
-159.146
 11
4.00706
 21
-159.492
  0
LINE
  8
0
 10
4.00706
 20
-159.492
 11
3.48877
 21
-159.778
  0
LINE
  8
0
 10
3.48877
 20
-159.778
 11
2.93987
 21
-159.999
  0
LINE
  8
0
 10
2.93987
 20
-159.999
 11
2.3683
 21
-160.152
  0
LINE
  8
0
 10
2.3683
 20
-160.152
 11
1.78247
 21
-160.235
  0
LINE
  8
0
 10
1.78247
 20
-160.235
 11
1.19089
 21
-160.247
  0
LINE
  8
0
 10
1.19089
 20
-160.247
 11
0.602173
 21
-160.187
  0
LINE
  8
0
 10
0.602173
 20
-160.187
 11
0.0249176
 21
-160.057
  0
LINE
  8
0
 10
0.0249176
 20
-160.057
 11
-0.53244
 21
-159.859
  0
LINE
  8
0
 10
-0.53244
 20
-159.859
 11
-1.0618
 21
-159.594
  0
LINE
  8
0
 10
-1.0618
 20
-159.594
 11
-13.7058
 21
-152.294
  0
LINE
  8
0
 10
-13.7058
 20
-152.294
 11
-21.0058
 21
-164.938
  0
LINE
  8
0
 10
-21.0058
 20
-164.938
 11
-21.332
 21
-165.432
  0
LINE
  8
0
 10
-21.332
 20
-165.432
 11
-21.7154
 21
-165.883
  0
LINE
  8
0
 10
-21.7154
 20
-165.883
 11
-22.1503
 21
-166.284
  0
LINE
  8
0
 10
-22.1503
 20
-166.284
 11
-22.6304
 21
-166.63
  0
LINE
  8
0
 10
-22.6304
 20
-166.63
 11
-23.1487
 21
-166.915
  0
LINE
  8
0
 10
-23.1487
 20
-166.915
 11
-23.6976
 21
-167.136
  0
LINE
  8
0
 10
-23.6976
 20
-167.136
 11
-24.2692
 21
-167.289
  0
LINE
  8
0
 10
-24.2692
 20
-167.289
 11
-24.855
 21
-167.372
  0
LINE
  8
0
 10
-24.855
 20
-167.372
 11
-25.4466
 21
-167.384
  0
LINE
  8
0
 10
-25.4466
 20
-167.384
 11
-26.0353
 21
-167.325
  0
LINE
  8
0
 10
-5.12498
 20
-123.329
 11
-4.4297
 21
-122.703
  0
LINE
  8
0
 10
-4.4297
 20
-122.703
 11
-4.04916
 21
-121.848
  0
LINE
  8
0
 10
-4.04916
 20
-121.848
 11
-4.04915
 21
-120.913
  0
LINE
  8
0
 10
-4.04915
 20
-120.913
 11
-4.4297
 21
-120.058
  0
LINE
  8
0
 10
-4.4297
 20
-120.058
 11
-5.125
 21
-119.432
  0
LINE
  8
0
 10
-5.125
 20
-119.432
 11
-6.01479
 21
-119.143
  0
LINE
  8
0
 10
-6.01479
 20
-119.143
 11
-6.94527
 21
-119.241
  0
LINE
  8
0
 10
-6.94527
 20
-119.241
 11
-7.75551
 21
-119.708
  0
LINE
  8
0
 10
-7.75551
 20
-119.708
 11
-8.30547
 21
-120.465
  0
LINE
  8
0
 10
-8.30547
 20
-120.465
 11
-8.49997
 21
-121.38
  0
LINE
  8
0
 10
-8.49997
 20
-121.38
 11
-8.30545
 21
-122.296
  0
LINE
  8
0
 10
-8.30545
 20
-122.296
 11
-7.75551
 21
-123.053
  0
LINE
  8
0
 10
-7.75551
 20
-123.053
 11
-6.94528
 21
-123.52
  0
LINE
  8
0
 10
-6.94528
 20
-123.52
 11
-6.0148
 21
-123.618
  0
LINE
  8
0
 10
-6.0148
 20
-123.618
 11
-5.12498
 21
-123.329
  0
LINE
  8
0
 10
-34.297
 20
-131.07
 11
-33.671
 21
-130.375
  0
LINE
  8
0
 10
-33.671
 20
-130.375
 11
-33.3819
 21
-129.485
  0
LINE
  8
0
 10
-33.3819
 20
-129.485
 11
-33.4797
 21
-128.555
  0
LINE
  8
0
 10
-33.4797
 20
-128.555
 11
-33.9475
 21
-127.744
  0
LINE
  8
0
 10
-33.9475
 20
-127.744
 11
-34.7044
 21
-127.195
  0
LINE
  8
0
 10
-34.7044
 20
-127.195
 11
-35.6195
 21
-127
  0
LINE
  8
0
 10
-35.6195
 20
-127
 11
-36.5347
 21
-127.195
  0
LINE
  8
0
 10
-36.5347
 20
-127.195
 11
-37.2916
 21
-127.744
  0
LINE
  8
0
 10
-37.2916
 20
-127.744
 11
-37.7594
 21
-128.555
  0
LINE
  8
0
 10
-37.7594
 20
-128.555
 11
-37.8572
 21
-129.485
  0
LINE
  8
0
 10
-37.8572
 20
-129.485
 11
-37.5681
 21
-130.375
  0
LINE
  8
0
 10
-37.5681
 20
-130.375
 11
-36.9421
 21
-131.07
  0
LINE
  8
0
 10
-36.9421
 20
-131.07
 11
-36.0873
 21
-131.451
  0
LINE
  8
0
 10
-36.0873
 20
-131.451
 11
-35.1517
 21
-131.451
  0
LINE
  8
0
 10
-35.1517
 20
-131.451
 11
-34.297
 21
-131.07
  0
LINE
  8
0
 10
-14.9215
 20
-141.2
 11
-14.6818
 21
-139.379
  0
LINE
  8
0
 10
-14.6818
 20
-139.379
 11
-15.8
 21
-137.922
  0
LINE
  8
0
 10
-15.8
 20
-137.922
 11
-17.6212
 21
-137.682
  0
LINE
  8
0
 10
-17.6212
 20
-137.682
 11
-19.0784
 21
-138.8
  0
LINE
  8
0
 10
-19.0784
 20
-138.8
 11
-19.3182
 21
-140.621
  0
LINE
  8
0
 10
-19.3182
 20
-140.621
 11
-18.2
 21
-142.078
  0
LINE
  8
0
 10
-18.2
 20
-142.078
 11
-16.3788
 21
-142.318
  0
LINE
  8
0
 10
-16.3788
 20
-142.318
 11
-14.9215
 21
-141.2
  0
LINE
  8
0
 10
2.94205
 20
-152.57
 11
3.5681
 21
-151.875
  0
LINE
  8
0
 10
3.5681
 20
-151.875
 11
3.85719
 21
-150.985
  0
LINE
  8
0
 10
3.85719
 20
-150.985
 11
3.75941
 21
-150.055
  0
LINE
  8
0
 10
3.75941
 20
-150.055
 11
3.2916
 21
-149.244
  0
LINE
  8
0
 10
3.2916
 20
-149.244
 11
2.53468
 21
-148.695
  0
LINE
  8
0
 10
2.53468
 20
-148.695
 11
1.61954
 21
-148.5
  0
LINE
  8
0
 10
1.61954
 20
-148.5
 11
0.704376
 21
-148.695
  0
LINE
  8
0
 10
0.704376
 20
-148.695
 11
-0.052536
 21
-149.244
  0
LINE
  8
0
 10
-0.052536
 20
-149.244
 11
-0.520325
 21
-150.055
  0
LINE
  8
0
 10
-0.520325
 20
-150.055
 11
-0.618134
 21
-150.985
  0
LINE
  8
0
 10
-0.618134
 20
-150.985
 11
-0.32901
 21
-151.875
  0
LINE
  8
0
 10
-0.32901
 20
-151.875
 11
0.297012
 21
-152.57
  0
LINE
  8
0
 10
0.297012
 20
-152.57
 11
1.15173
 21
-152.951
  0
LINE
  8
0
 10
1.15173
 20
-152.951
 11
2.08733
 21
-152.951
  0
LINE
  8
0
 10
2.08733
 20
-152.951
 11
2.94205
 21
-152.57
  0
LINE
  8
0
 10
-26.625
 20
-160.568
 11
-25.9297
 21
-159.942
  0
LINE
  8
0
 10
-25.9297
 20
-159.942
 11
-25.5492
 21
-159.087
  0
LINE
  8
0
 10
-25.5492
 20
-159.087
 11
-25.5491
 21
-158.152
  0
LINE
  8
0
 10
-25.5491
 20
-158.152
 11
-25.9297
 21
-157.297
  0
LINE
  8
0
 10
-25.9297
 20
-157.297
 11
-26.625
 21
-156.671
  0
LINE
  8
0
 10
-26.625
 20
-156.671
 11
-27.5148
 21
-156.382
  0
LINE
  8
0
 10
-27.5148
 20
-156.382
 11
-28.4453
 21
-156.48
  0
LINE
  8
0
 10
-28.4453
 20
-156.48
 11
-29.2555
 21
-156.947
  0
LINE
  8
0
 10
-29.2555
 20
-156.947
 11
-29.8055
 21
-157.704
  0
LINE
  8
0
 10
-29.8055
 20
-157.704
 11
-30
 21
-158.62
  0
LINE
  8
0
 10
-30
 20
-158.62
 11
-29.8055
 21
-159.535
  0
LINE
  8
0
 10
-29.8055
 20
-159.535
 11
-29.2555
 21
-160.292
  0
LINE
  8
0
 10
-29.2555
 20
-160.292
 11
-28.4453
 21
-160.759
  0
LINE
  8
0
 10
-28.4453
 20
-160.759
 11
-27.5148
 21
-160.857
  0
LINE
  8
0
 10
-27.5148
 20
-160.857
 11
-26.625
 21
-160.568
  0
LINE
  8
0
 10
20.8545
 20
-161.65
 11
20.1892
 21
-161.42
  0
LINE
  8
0
 10
20.1892
 20
-161.42
 11
19.4897
 21
-161.067
  0
LINE
  8
0
 10
19.4897
 20
-161.067
 11
16.1304
 21
-159.128
  0
LINE
  8
0
 10
16.1304
 20
-159.128
 11
20.8983
 21
-150.869
  0
LINE
  8
0
 10
20.8983
 20
-150.869
 11
23.9052
 21
-152.605
  0
LINE
  8
0
 10
23.9052
 20
-152.605
 11
25.1078
 21
-153.466
  0
LINE
  8
0
 10
25.1078
 20
-153.466
 11
25.8022
 21
-154.366
  0
LINE
  8
0
 10
25.8022
 20
-154.366
 11
25.9884
 21
-155.305
  0
LINE
  8
0
 10
25.9884
 20
-155.305
 11
25.6665
 21
-156.283
  0
LINE
  8
0
 10
25.6665
 20
-156.283
 11
25.4387
 21
-156.618
  0
LINE
  8
0
 10
25.4387
 20
-156.618
 11
25.1763
 21
-156.894
  0
LINE
  8
0
 10
25.1763
 20
-156.894
 11
24.8793
 21
-157.112
  0
LINE
  8
0
 10
24.8793
 20
-157.112
 11
24.5476
 21
-157.271
  0
LINE
  8
0
 10
24.5476
 20
-157.271
 11
24.1895
 21
-157.367
  0
LINE
  8
0
 10
24.1895
 20
-157.367
 11
23.8123
 21
-157.398
  0
LINE
  8
0
 10
23.8123
 20
-157.398
 11
23.4162
 21
-157.363
  0
LINE
  8
0
 10
23.4162
 20
-157.363
 11
23.0011
 21
-157.263
  0
LINE
  8
0
 10
23.0011
 20
-157.263
 11
23.417
 21
-157.618
  0
LINE
  8
0
 10
23.417
 20
-157.618
 11
23.7455
 21
-157.993
  0
LINE
  8
0
 10
23.7455
 20
-157.993
 11
23.9865
 21
-158.388
  0
LINE
  8
0
 10
23.9865
 20
-158.388
 11
24.1402
 21
-158.804
  0
LINE
  8
0
 10
24.1402
 20
-158.804
 11
24.2066
 21
-159.229
  0
LINE
  8
0
 10
24.2066
 20
-159.229
 11
24.1855
 21
-159.651
  0
LINE
  8
0
 10
24.1855
 20
-159.651
 11
24.077
 21
-160.071
  0
LINE
  8
0
 10
24.077
 20
-160.071
 11
23.881
 21
-160.487
  0
LINE
  8
0
 10
23.881
 20
-160.487
 11
23.5292
 21
-160.981
  0
LINE
  8
0
 10
23.5292
 20
-160.981
 11
23.1121
 21
-161.355
  0
LINE
  8
0
 10
23.1121
 20
-161.355
 11
22.6299
 21
-161.609
  0
LINE
  8
0
 10
22.6299
 20
-161.609
 11
22.0825
 21
-161.744
  0
LINE
  8
0
 10
22.0825
 20
-161.744
 11
21.4856
 21
-161.759
  0
LINE
  8
0
 10
21.4856
 20
-161.759
 11
20.8545
 21
-161.65
  0
LINE
  8
0
 10
23.4245
 20
-156.538
 11
23.7279
 21
-156.46
  0
LINE
  8
0
 10
23.7279
 20
-156.46
 11
24.0017
 21
-156.306
  0
LINE
  8
0
 10
24.0017
 20
-156.306
 11
24.2459
 21
-156.075
  0
LINE
  8
0
 10
24.2459
 20
-156.075
 11
24.4604
 21
-155.768
  0
LINE
  8
0
 10
24.4604
 20
-155.768
 11
24.6094
 21
-155.444
  0
LINE
  8
0
 10
24.6094
 20
-155.444
 11
24.6739
 21
-155.133
  0
LINE
  8
0
 10
24.6739
 20
-155.133
 11
24.6539
 21
-154.838
  0
LINE
  8
0
 10
24.6539
 20
-154.838
 11
24.5493
 21
-154.556
  0
LINE
  8
0
 10
24.5493
 20
-154.556
 11
24.3665
 21
-154.284
  0
LINE
  8
0
 10
24.3665
 20
-154.284
 11
24.1117
 21
-154.018
  0
LINE
  8
0
 10
24.1117
 20
-154.018
 11
23.7849
 21
-153.758
  0
LINE
  8
0
 10
23.7849
 20
-153.758
 11
23.3862
 21
-153.504
  0
LINE
  8
0
 10
23.3862
 20
-153.504
 11
21.5009
 21
-152.416
  0
LINE
  8
0
 10
21.5009
 20
-152.416
 11
20.0039
 21
-155.009
  0
LINE
  8
0
 10
20.0039
 20
-155.009
 11
21.8892
 21
-156.097
  0
LINE
  8
0
 10
21.8892
 20
-156.097
 11
22.3223
 21
-156.319
  0
LINE
  8
0
 10
22.3223
 20
-156.319
 11
22.7225
 21
-156.467
  0
LINE
  8
0
 10
22.7225
 20
-156.467
 11
23.0899
 21
-156.54
  0
LINE
  8
0
 10
23.0899
 20
-156.54
 11
23.4245
 21
-156.538
  0
LINE
  8
0
 10
21.6681
 20
-160.616
 11
21.998
 21
-160.52
  0
LINE
  8
0
 10
21.998
 20
-160.52
 11
22.2963
 21
-160.343
  0
LINE
  8
0
 10
22.2963
 20
-160.343
 11
22.5631
 21
-160.084
  0
LINE
  8
0
 10
22.5631
 20
-160.084
 11
22.7984
 21
-159.744
  0
LINE
  8
0
 10
22.7984
 20
-159.744
 11
23.0405
 21
-159.028
  0
LINE
  8
0
 10
23.0405
 20
-159.028
 11
22.9196
 21
-158.347
  0
LINE
  8
0
 10
22.9196
 20
-158.347
 11
22.436
 21
-157.701
  0
LINE
  8
0
 10
22.436
 20
-157.701
 11
21.5894
 21
-157.09
  0
LINE
  8
0
 10
21.5894
 20
-157.09
 11
19.4989
 21
-155.883
  0
LINE
  8
0
 10
19.4989
 20
-155.883
 11
17.7709
 21
-158.876
  0
LINE
  8
0
 10
17.7709
 20
-158.876
 11
19.9498
 21
-160.134
  0
LINE
  8
0
 10
19.9498
 20
-160.134
 11
20.4427
 21
-160.387
  0
LINE
  8
0
 10
20.4427
 20
-160.387
 11
20.8933
 21
-160.552
  0
LINE
  8
0
 10
20.8933
 20
-160.552
 11
21.3018
 21
-160.628
  0
LINE
  8
0
 10
21.3018
 20
-160.628
 11
21.6681
 21
-160.616
  0
LINE
  8
0
 10
106.931
 20
-260.281
 11
106.121
 21
-259.813
  0
LINE
  8
0
 10
106.121
 20
-259.813
 11
105.571
 21
-259.056
  0
LINE
  8
0
 10
105.571
 20
-259.056
 11
105.376
 21
-258.141
  0
LINE
  8
0
 10
105.376
 20
-258.141
 11
105.571
 21
-257.226
  0
LINE
  8
0
 10
105.571
 20
-257.226
 11
106.121
 21
-256.469
  0
LINE
  8
0
 10
106.121
 20
-256.469
 11
106.931
 21
-256.001
  0
LINE
  8
0
 10
106.931
 20
-256.001
 11
107.861
 21
-255.903
  0
LINE
  8
0
 10
107.861
 20
-255.903
 11
108.751
 21
-256.192
  0
LINE
  8
0
 10
108.751
 20
-256.192
 11
109.447
 21
-256.818
  0
LINE
  8
0
 10
109.447
 20
-256.818
 11
109.827
 21
-257.673
  0
LINE
  8
0
 10
109.827
 20
-257.673
 11
109.827
 21
-258.609
  0
LINE
  8
0
 10
109.827
 20
-258.609
 11
109.447
 21
-259.464
  0
LINE
  8
0
 10
109.447
 20
-259.464
 11
108.751
 21
-260.09
  0
LINE
  8
0
 10
108.751
 20
-260.09
 11
107.861
 21
-260.379
  0
LINE
  8
0
 10
107.861
 20
-260.379
 11
106.931
 21
-260.281
  0
LINE
  8
0
 10
85.4923
 20
-262.105
 11
86.2207
 21
-261.576
  0
LINE
  8
0
 10
86.2207
 20
-261.576
 11
87.1358
 21
-261.381
  0
LINE
  8
0
 10
87.1358
 20
-261.381
 11
88.051
 21
-261.576
  0
LINE
  8
0
 10
88.051
 20
-261.576
 11
88.8079
 21
-262.126
  0
LINE
  8
0
 10
88.8079
 20
-262.126
 11
89.2757
 21
-262.936
  0
LINE
  8
0
 10
89.2757
 20
-262.936
 11
89.3735
 21
-263.867
  0
LINE
  8
0
 10
89.3735
 20
-263.867
 11
89.2424
 21
-264.27
  0
LINE
  8
0
 10
89.2424
 20
-264.27
 11
85.4923
 21
-262.105
  0
LINE
  8
0
 10
86.668
 20
-265.832
 11
85.8133
 21
-265.452
  0
LINE
  8
0
 10
85.8133
 20
-265.452
 11
85.1873
 21
-264.756
  0
LINE
  8
0
 10
85.1873
 20
-264.756
 11
84.8982
 21
-263.867
  0
LINE
  8
0
 10
84.8982
 20
-263.867
 11
84.9923
 21
-262.971
  0
LINE
  8
0
 10
84.9923
 20
-262.971
 11
88.7424
 21
-265.136
  0
LINE
  8
0
 10
88.7424
 20
-265.136
 11
88.4584
 21
-265.452
  0
LINE
  8
0
 10
88.4584
 20
-265.452
 11
87.6036
 21
-265.832
  0
LINE
  8
0
 10
87.6036
 20
-265.832
 11
86.668
 21
-265.832
  0
LINE
  8
0
 10
112.649
 20
-280.832
 11
111.794
 21
-280.452
  0
LINE
  8
0
 10
111.794
 20
-280.452
 11
111.168
 21
-279.756
  0
LINE
  8
0
 10
111.168
 20
-279.756
 11
110.879
 21
-278.867
  0
LINE
  8
0
 10
110.879
 20
-278.867
 11
110.977
 21
-277.936
  0
LINE
  8
0
 10
110.977
 20
-277.936
 11
111.445
 21
-277.126
  0
LINE
  8
0
 10
111.445
 20
-277.126
 11
112.201
 21
-276.576
  0
LINE
  8
0
 10
112.201
 20
-276.576
 11
113.117
 21
-276.381
  0
LINE
  8
0
 10
113.117
 20
-276.381
 11
114.032
 21
-276.576
  0
LINE
  8
0
 10
114.032
 20
-276.576
 11
114.789
 21
-277.126
  0
LINE
  8
0
 10
114.789
 20
-277.126
 11
115.256
 21
-277.936
  0
LINE
  8
0
 10
115.256
 20
-277.936
 11
115.354
 21
-278.867
  0
LINE
  8
0
 10
115.354
 20
-278.867
 11
115.065
 21
-279.756
  0
LINE
  8
0
 10
115.065
 20
-279.756
 11
114.439
 21
-280.452
  0
LINE
  8
0
 10
114.439
 20
-280.452
 11
113.584
 21
-280.832
  0
LINE
  8
0
 10
113.584
 20
-280.832
 11
112.649
 21
-280.832
  0
LINE
  8
0
 10
91.931
 20
-286.262
 11
91.1207
 21
-285.794
  0
LINE
  8
0
 10
91.1207
 20
-285.794
 11
90.5708
 21
-285.037
  0
LINE
  8
0
 10
90.5708
 20
-285.037
 11
90.3763
 21
-284.122
  0
LINE
  8
0
 10
90.3763
 20
-284.122
 11
90.5708
 21
-283.207
  0
LINE
  8
0
 10
90.5708
 20
-283.207
 11
91.1207
 21
-282.45
  0
LINE
  8
0
 10
91.1207
 20
-282.45
 11
91.931
 21
-281.982
  0
LINE
  8
0
 10
91.931
 20
-281.982
 11
92.8614
 21
-281.884
  0
LINE
  8
0
 10
92.8614
 20
-281.884
 11
93.7512
 21
-282.173
  0
LINE
  8
0
 10
93.7512
 20
-282.173
 11
94.4465
 21
-282.799
  0
LINE
  8
0
 10
94.4465
 20
-282.799
 11
94.8271
 21
-283.654
  0
LINE
  8
0
 10
94.8271
 20
-283.654
 11
94.8271
 21
-284.59
  0
LINE
  8
0
 10
94.8271
 20
-284.59
 11
94.4465
 21
-285.444
  0
LINE
  8
0
 10
94.4465
 20
-285.444
 11
93.7512
 21
-286.07
  0
LINE
  8
0
 10
93.7512
 20
-286.07
 11
92.8614
 21
-286.359
  0
LINE
  8
0
 10
92.8614
 20
-286.359
 11
91.931
 21
-286.262
  0
LINE
  8
0
 10
65.93
 20
-225.561
 11
67.175
 21
-225.408
  0
LINE
  8
0
 10
67.175
 20
-225.408
 11
68.361
 21
-225
  0
LINE
  8
0
 10
68.361
 20
-225
 11
69.4362
 21
-224.354
  0
LINE
  8
0
 10
69.4362
 20
-224.354
 11
70.3535
 21
-223.498
  0
LINE
  8
0
 10
70.3535
 20
-223.498
 11
71.073
 21
-222.471
  0
LINE
  8
0
 10
71.073
 20
-222.471
 11
71.5631
 21
-221.316
  0
LINE
  8
0
 10
71.5631
 20
-221.316
 11
71.8024
 21
-220.085
  0
LINE
  8
0
 10
71.8024
 20
-220.085
 11
71.7915
 21
-219.458
  0
LINE
  8
0
 10
71.7915
 20
-219.458
 11
71.8244
 21
-219.457
  0
LINE
  8
0
 10
71.8244
 20
-219.457
 11
70.8046
 21
-161.036
  0
LINE
  8
0
 10
70.8046
 20
-161.036
 11
70.7717
 21
-161.036
  0
LINE
  8
0
 10
70.7717
 20
-161.036
 11
70.7608
 21
-160.409
  0
LINE
  8
0
 10
70.7608
 20
-160.409
 11
70.4786
 21
-159.187
  0
LINE
  8
0
 10
70.4786
 20
-159.187
 11
69.9485
 21
-158.05
  0
LINE
  8
0
 10
69.9485
 20
-158.05
 11
69.1936
 21
-157.049
  0
LINE
  8
0
 10
69.1936
 20
-157.049
 11
68.247
 21
-156.226
  0
LINE
  8
0
 10
68.247
 20
-156.226
 11
67.1499
 21
-155.618
  0
LINE
  8
0
 10
67.1499
 20
-155.618
 11
65.9504
 21
-155.251
  0
LINE
  8
0
 10
65.9504
 20
-155.251
 11
64.7008
 21
-155.142
  0
LINE
  8
0
 10
64.7008
 20
-155.142
 11
59.0463
 21
-155.24
  0
LINE
  8
0
 10
59.0463
 20
-155.24
 11
57.1561
 21
-162.936
  0
LINE
  8
0
 10
57.1561
 20
-162.936
 11
53.7478
 21
-171.815
  0
LINE
  8
0
 10
53.7478
 20
-171.815
 11
49.2535
 21
-180.197
  0
LINE
  8
0
 10
49.2535
 20
-180.197
 11
43.7442
 21
-187.949
  0
LINE
  8
0
 10
43.7442
 20
-187.949
 11
37.3066
 21
-194.95
  0
LINE
  8
0
 10
37.3066
 20
-194.95
 11
30.0424
 21
-201.088
  0
LINE
  8
0
 10
30.0424
 20
-201.088
 11
23.1446
 21
-205.568
  0
LINE
  8
0
 10
23.1446
 20
-205.568
 11
23.4017
 21
-220.302
  0
LINE
  8
0
 10
23.4017
 20
-220.302
 11
23.4346
 21
-220.302
  0
LINE
  8
0
 10
23.4346
 20
-220.302
 11
23.4456
 21
-220.929
  0
LINE
  8
0
 10
23.4456
 20
-220.929
 11
23.7277
 21
-222.151
  0
LINE
  8
0
 10
23.7277
 20
-222.151
 11
24.2578
 21
-223.288
  0
LINE
  8
0
 10
24.2578
 20
-223.288
 11
25.0127
 21
-224.289
  0
LINE
  8
0
 10
25.0127
 20
-224.289
 11
25.9594
 21
-225.112
  0
LINE
  8
0
 10
25.9594
 20
-225.112
 11
27.0564
 21
-225.721
  0
LINE
  8
0
 10
27.0564
 20
-225.721
 11
28.256
 21
-226.087
  0
LINE
  8
0
 10
28.256
 20
-226.087
 11
29.5055
 21
-226.197
  0
LINE
  8
0
 10
29.5055
 20
-226.197
 11
65.93
 21
-225.561
  0
LINE
  8
0
 10
62.069
 20
-162.956
 11
61.3061
 21
-161.202
  0
LINE
  8
0
 10
61.3061
 20
-161.202
 11
62.0073
 21
-159.421
  0
LINE
  8
0
 10
62.0073
 20
-159.421
 11
63.7621
 21
-158.658
  0
LINE
  8
0
 10
63.7621
 20
-158.658
 11
65.5423
 21
-159.36
  0
LINE
  8
0
 10
65.5423
 20
-159.36
 11
66.3053
 21
-161.114
  0
LINE
  8
0
 10
66.3053
 20
-161.114
 11
65.604
 21
-162.895
  0
LINE
  8
0
 10
65.604
 20
-162.895
 11
63.8493
 21
-163.658
  0
LINE
  8
0
 10
63.8493
 20
-163.658
 11
62.069
 21
-162.956
  0
LINE
  8
0
 10
63.0888
 20
-221.378
 11
62.3258
 21
-219.623
  0
LINE
  8
0
 10
62.3258
 20
-219.623
 11
63.0271
 21
-217.843
  0
LINE
  8
0
 10
63.0271
 20
-217.843
 11
64.7818
 21
-217.08
  0
LINE
  8
0
 10
64.7818
 20
-217.08
 11
66.5621
 21
-217.781
  0
LINE
  8
0
 10
66.5621
 20
-217.781
 11
67.325
 21
-219.536
  0
LINE
  8
0
 10
67.325
 20
-219.536
 11
66.6238
 21
-221.316
  0
LINE
  8
0
 10
66.6238
 20
-221.316
 11
64.8691
 21
-222.079
  0
LINE
  8
0
 10
64.8691
 20
-222.079
 11
63.0888
 21
-221.378
  0
LINE
  8
0
 10
28.664
 20
-221.978
 11
27.9011
 21
-220.224
  0
LINE
  8
0
 10
27.9011
 20
-220.224
 11
28.6023
 21
-218.443
  0
LINE
  8
0
 10
28.6023
 20
-218.443
 11
30.3571
 21
-217.68
  0
LINE
  8
0
 10
30.3571
 20
-217.68
 11
32.1373
 21
-218.382
  0
LINE
  8
0
 10
32.1373
 20
-218.382
 11
32.9003
 21
-220.136
  0
LINE
  8
0
 10
32.9003
 20
-220.136
 11
32.1991
 21
-221.917
  0
LINE
  8
0
 10
32.1991
 20
-221.917
 11
30.4443
 21
-222.68
  0
LINE
  8
0
 10
30.4443
 20
-222.68
 11
28.664
 21
-221.978
  0
LINE
  8
0
 10
-120.469
 20
-282.95
 11
-119.252
 21
-282.646
  0
LINE
  8
0
 10
-119.252
 20
-282.646
 11
-85.0189
 21
-270.187
  0
LINE
  8
0
 10
-85.0189
 20
-270.187
 11
-83.8916
 21
-269.637
  0
LINE
  8
0
 10
-83.8916
 20
-269.637
 11
-82.9031
 21
-268.864
  0
LINE
  8
0
 10
-82.9031
 20
-268.864
 11
-82.0968
 21
-267.904
  0
LINE
  8
0
 10
-82.0968
 20
-267.904
 11
-81.508
 21
-266.796
  0
LINE
  8
0
 10
-81.508
 20
-266.796
 11
-81.1622
 21
-265.59
  0
LINE
  8
0
 10
-81.1622
 20
-265.59
 11
-81.0747
 21
-264.339
  0
LINE
  8
0
 10
-81.0747
 20
-264.339
 11
-81.2493
 21
-263.097
  0
LINE
  8
0
 10
-81.2493
 20
-263.097
 11
-81.4638
 21
-262.508
  0
LINE
  8
0
 10
-81.4638
 20
-262.508
 11
-81.4329
 21
-262.496
  0
LINE
  8
0
 10
-81.4329
 20
-262.496
 11
-101.417
 21
-207.59
  0
LINE
  8
0
 10
-101.417
 20
-207.59
 11
-101.448
 21
-207.601
  0
LINE
  8
0
 10
-101.448
 20
-207.601
 11
-101.663
 21
-207.012
  0
LINE
  8
0
 10
-101.663
 20
-207.012
 11
-102.327
 21
-205.948
  0
LINE
  8
0
 10
-102.327
 20
-205.948
 11
-103.199
 21
-205.046
  0
LINE
  8
0
 10
-103.199
 20
-205.046
 11
-104.238
 21
-204.345
  0
LINE
  8
0
 10
-104.238
 20
-204.345
 11
-105.401
 21
-203.875
  0
LINE
  8
0
 10
-105.401
 20
-203.875
 11
-106.637
 21
-203.657
  0
LINE
  8
0
 10
-106.637
 20
-203.657
 11
-107.89
 21
-203.701
  0
LINE
  8
0
 10
-107.89
 20
-203.701
 11
-109.107
 21
-204.004
  0
LINE
  8
0
 10
-109.107
 20
-204.004
 11
-114.422
 21
-205.938
  0
LINE
  8
0
 10
-114.422
 20
-205.938
 11
-113.703
 21
-213.83
  0
LINE
  8
0
 10
-113.703
 20
-213.83
 11
-114.035
 21
-223.335
  0
LINE
  8
0
 10
-114.035
 20
-223.335
 11
-115.556
 21
-232.723
  0
LINE
  8
0
 10
-115.556
 20
-232.723
 11
-118.241
 21
-241.847
  0
LINE
  8
0
 10
-118.241
 20
-241.847
 11
-122.049
 21
-250.562
  0
LINE
  8
0
 10
-122.049
 20
-250.562
 11
-126.919
 21
-258.731
  0
LINE
  8
0
 10
-126.919
 20
-258.731
 11
-131.982
 21
-265.213
  0
LINE
  8
0
 10
-131.982
 20
-265.213
 11
-126.942
 21
-279.06
  0
LINE
  8
0
 10
-126.942
 20
-279.06
 11
-126.911
 21
-279.049
  0
LINE
  8
0
 10
-126.911
 20
-279.049
 11
-126.697
 21
-279.638
  0
LINE
  8
0
 10
-126.697
 20
-279.638
 11
-126.032
 21
-280.702
  0
LINE
  8
0
 10
-126.032
 20
-280.702
 11
-125.161
 21
-281.605
  0
LINE
  8
0
 10
-125.161
 20
-281.605
 11
-124.121
 21
-282.306
  0
LINE
  8
0
 10
-124.121
 20
-282.306
 11
-122.958
 21
-282.776
  0
LINE
  8
0
 10
-122.958
 20
-282.776
 11
-121.723
 21
-282.994
  0
LINE
  8
0
 10
-121.723
 20
-282.994
 11
-120.469
 21
-282.95
  0
LINE
  8
0
 10
-109.052
 20
-212.25
 11
-110.344
 21
-210.839
  0
LINE
  8
0
 10
-110.344
 20
-210.839
 11
-110.261
 21
-208.928
  0
LINE
  8
0
 10
-110.261
 20
-208.928
 11
-108.85
 21
-207.635
  0
LINE
  8
0
 10
-108.85
 20
-207.635
 11
-106.938
 21
-207.718
  0
LINE
  8
0
 10
-106.938
 20
-207.718
 11
-105.646
 21
-209.129
  0
LINE
  8
0
 10
-105.646
 20
-209.129
 11
-105.729
 21
-211.041
  0
LINE
  8
0
 10
-105.729
 20
-211.041
 11
-107.14
 21
-212.333
  0
LINE
  8
0
 10
-107.14
 20
-212.333
 11
-109.052
 21
-212.25
  0
LINE
  8
0
 10
-89.0673
 20
-267.156
 11
-90.36
 21
-265.746
  0
LINE
  8
0
 10
-90.36
 20
-265.746
 11
-90.2765
 21
-263.834
  0
LINE
  8
0
 10
-90.2765
 20
-263.834
 11
-88.8658
 21
-262.541
  0
LINE
  8
0
 10
-88.8658
 20
-262.541
 11
-86.9542
 21
-262.625
  0
LINE
  8
0
 10
-86.9542
 20
-262.625
 11
-85.6615
 21
-264.035
  0
LINE
  8
0
 10
-85.6615
 20
-264.035
 11
-85.745
 21
-265.947
  0
LINE
  8
0
 10
-85.745
 20
-265.947
 11
-87.1557
 21
-267.24
  0
LINE
  8
0
 10
-87.1557
 20
-267.24
 11
-89.0673
 21
-267.156
  0
LINE
  8
0
 10
-121.421
 20
-278.932
 11
-122.714
 21
-277.521
  0
LINE
  8
0
 10
-122.714
 20
-277.521
 11
-122.63
 21
-275.61
  0
LINE
  8
0
 10
-122.63
 20
-275.61
 11
-121.219
 21
-274.317
  0
LINE
  8
0
 10
-121.219
 20
-274.317
 11
-119.308
 21
-274.4
  0
LINE
  8
0
 10
-119.308
 20
-274.4
 11
-118.015
 21
-275.811
  0
LINE
  8
0
 10
-118.015
 20
-275.811
 11
-118.099
 21
-277.723
  0
LINE
  8
0
 10
-118.099
 20
-277.723
 11
-119.509
 21
-279.015
  0
LINE
  8
0
 10
-119.509
 20
-279.015
 11
-121.421
 21
-278.932
  0
ENDSEC
  0
SECTION
  2
OBJECTS
  0
DICTIONARY
  0
ENDSEC
  0
EOF
