<?xml version="1.0" encoding="utf-8"?>
<svg width="30.049999999999997mm" height="14.05mm" viewBox="-1.025 -1.025 30.049999999999997 14.05" style="background-color:white" xmlns="http://www.w3.org/2000/svg" xmlns:xlink="http://www.w3.org/1999/xlink">
  <g stroke-linejoin="round" stroke-linecap="round" id="l-mechanical-outline" transform="translate(0 12.0) scale(1 -1)">
    <path d="M 0.0 12.0 L 28.0 12.0" fill="none" stroke="#777777" stroke-linecap="round" stroke-linejoin="round" stroke-width="0.05"/>
    <path d="M 0.0 0.0 L 0.0 12.0" fill="none" stroke="#777777" stroke-linecap="round" stroke-linejoin="round" stroke-width="0.05"/>
    <path d="M 28.0 12.0 L 28.0 0.0 L 0.0 0.0" fill="none" stroke="#777777" stroke-linecap="round" stroke-linejoin="round" stroke-width="0.05"/>
  </g>
  <g stroke-linejoin="round" stroke-linecap="round" id="l-top-mask" transform="translate(0 12.0) scale(1 -1)">
    <path d="M 15.2105 1.50813 L 15.3348 1.43634 L 15.4363 1.33482 L 15.5081 1.21048 L 15.5453 1.07179 L 15.5453 0.928211 L 15.5081 0.789524 L 15.4363 0.665181 L 15.3348 0.563656 L 15.2105 0.491866 L 15.0718 0.454705 L 14.9282 0.454705 L 14.7895 0.491866 L 14.6652 0.563656 L 14.5637 0.665181 L 14.4919 0.789524 L 14.4547 0.928211 L 14.4547 1.07179 L 14.4919 1.21048 L 14.5637 1.33482 L 14.6652 1.43634 L 14.7895 1.50813 L 14.9282 1.5453 L 15.0718 1.5453 L 15.2105 1.50813" fill="#303030"/>
    <path d="M 27.0187 1.56703 L 27.0274 1.5632 L 27.0349 1.5621 L 27.0822 1.53898 L 27.1195 1.5225 L 27.123 1.51904 L 27.1239 1.51859 L 27.1936 1.44892 L 27.194 1.448 L 27.1975 1.44454 L 27.214 1.40722 L 27.2371 1.35993 L 27.2382 1.35236 L 27.242 1.34369 L 27.25 1.275 L 27.25 0.775 L 27.242 0.706315 L 27.2382 0.697639 L 27.2371 0.690075 L 27.214 0.642798 L 27.1975 0.605459 L 27.194 0.602002 L 27.1936 0.60108 L 27.1239 0.531409 L 27.123 0.530959 L 27.1195 0.527501 L 27.0822 0.511017 L 27.0349 0.487902 L 27.0274 0.4868 L 27.0187 0.482969 L 26.95 0.475 L 24.75 0.475 L 24.6813 0.482969 L 24.6726 0.4868 L 24.6651 0.487902 L 24.6178 0.511019 L 24.5805 0.527501 L 24.577 0.530958 L 24.5761 0.531409 L 24.5064 0.60108 L 24.506 0.602004 L 24.5025 0.605459 L 24.486 0.642772 L 24.4629 0.690074 L 24.4618 0.697643 L 24.458 0.706315 L 24.45 0.775 L 24.45 1.275 L 24.458 1.34369 L 24.4618 1.35236 L 24.4629 1.35993 L 24.486 1.40723 L 24.5025 1.44454 L 24.506 1.448 L 24.5064 1.44892 L 24.5761 1.51859 L 24.577 1.51904 L 24.5805 1.5225 L 24.6178 1.53897 L 24.6651 1.5621 L 24.6726 1.5632 L 24.6813 1.56703 L 24.75 1.575 L 26.95 1.575 L 27.0187 1.56703" fill="#303030"/>
    <path d="M 18.2105 2.50813 L 18.3348 2.43634 L 18.4363 2.33482 L 18.5081 2.21048 L 18.5453 2.07179 L 18.5453 1.92821 L 18.5081 1.78952 L 18.4363 1.66518 L 18.3348 1.56366 L 18.2105 1.49187 L 18.0718 1.4547 L 17.9282 1.4547 L 17.7895 1.49187 L 17.6652 1.56366 L 17.5637 1.66518 L 17.4919 1.78952 L 17.4547 1.92821 L 17.4547 2.07179 L 17.4919 2.21048 L 17.5637 2.33482 L 17.6652 2.43634 L 17.7895 2.50813 L 17.9282 2.54529 L 18.0718 2.54529 L 18.2105 2.50813" fill="#303030"/>
    <path d="M 20.2105 2.50813 L 20.3348 2.43634 L 20.4363 2.33482 L 20.5081 2.21048 L 20.5453 2.07179 L 20.5453 1.92821 L 20.5081 1.78952 L 20.4363 1.66518 L 20.3348 1.56366 L 20.2105 1.49187 L 20.0718 1.4547 L 19.9282 1.4547 L 19.7895 1.49187 L 19.6652 1.56366 L 19.5637 1.66518 L 19.4919 1.78952 L 19.4547 1.92821 L 19.4547 2.07179 L 19.4919 2.21048 L 19.5637 2.33482 L 19.6652 2.43634 L 19.7895 2.50813 L 19.9282 2.54529 L 20.0718 2.54529 L 20.2105 2.50813" fill="#303030"/>
    <path d="M 13.4564 3.32373 L 13.52 3.31536 L 13.5359 3.3079 L 13.5552 3.30407 L 13.5808 3.28699 L 13.6073 3.27464 L 13.6234 3.25851 L 13.6445 3.24445 L 13.6585 3.22341 L 13.6746 3.20729 L 13.687 3.1808 L 13.7041 3.15524 L 13.7079 3.13594 L 13.7154 3.11996 L 13.7237 3.05642 L 13.725 3.05 L 13.725 2.55 L 13.7237 2.54358 L 13.7154 2.48004 L 13.7079 2.46406 L 13.7041 2.44476 L 13.687 2.4192 L 13.6746 2.39271 L 13.6585 2.37659 L 13.6445 2.35555 L 13.6234 2.34148 L 13.6073 2.32537 L 13.5808 2.31301 L 13.5552 2.29593 L 13.5359 2.2921 L 13.52 2.28464 L 13.4564 2.27628 L 13.45 2.275 L 13.0 2.275 L 12.9936 2.27628 L 12.93 2.28464 L 12.9141 2.2921 L 12.8948 2.29593 L 12.8692 2.31301 L 12.8427 2.32537 L 12.8266 2.34149 L 12.8055 2.35555 L 12.7915 2.37659 L 12.7754 2.39271 L 12.763 2.41921 L 12.7459 2.44476 L 12.7421 2.46406 L 12.7346 2.48004 L 12.7263 2.54359 L 12.725 2.55 L 12.725 3.05 L 12.7263 3.05641 L 12.7346 3.11996 L 12.7421 3.13595 L 12.7459 3.15524 L 12.763 3.18079 L 12.7754 3.20729 L 12.7915 3.22342 L 12.8055 3.24445 L 12.8266 3.25851 L 12.8427 3.27464 L 12.8692 3.28699 L 12.8948 3.30407 L 12.9141 3.3079 L 12.93 3.31536 L 12.9936 3.32373 L 13.0 3.325 L 13.45 3.325 L 13.4564 3.32373" fill="#303030"/>
    <path d="M 15.0064 3.32373 L 15.07 3.31536 L 15.0859 3.3079 L 15.1052 3.30407 L 15.1308 3.28699 L 15.1573 3.27464 L 15.1734 3.25851 L 15.1945 3.24445 L 15.2085 3.22341 L 15.2246 3.20729 L 15.237 3.1808 L 15.2541 3.15524 L 15.2579 3.13594 L 15.2654 3.11996 L 15.2737 3.05642 L 15.275 3.05 L 15.275 2.55 L 15.2737 2.54358 L 15.2654 2.48004 L 15.2579 2.46406 L 15.2541 2.44476 L 15.237 2.4192 L 15.2246 2.39271 L 15.2085 2.37659 L 15.1945 2.35555 L 15.1734 2.34148 L 15.1573 2.32537 L 15.1308 2.31301 L 15.1052 2.29593 L 15.0859 2.2921 L 15.07 2.28464 L 15.0064 2.27628 L 15.0 2.275 L 14.55 2.275 L 14.5436 2.27628 L 14.48 2.28464 L 14.4641 2.2921 L 14.4448 2.29593 L 14.4192 2.31301 L 14.3927 2.32537 L 14.3766 2.34149 L 14.3555 2.35555 L 14.3415 2.37659 L 14.3254 2.39271 L 14.313 2.41921 L 14.2959 2.44476 L 14.2921 2.46406 L 14.2846 2.48004 L 14.2763 2.54359 L 14.275 2.55 L 14.275 3.05 L 14.2763 3.05641 L 14.2846 3.11996 L 14.2921 3.13595 L 14.2959 3.15524 L 14.313 3.18079 L 14.3254 3.20729 L 14.3415 3.22342 L 14.3555 3.24445 L 14.3766 3.25851 L 14.3927 3.27464 L 14.4192 3.28699 L 14.4448 3.30407 L 14.4641 3.3079 L 14.48 3.31536 L 14.5436 3.32373 L 14.55 3.325 L 15.0 3.325 L 15.0064 3.32373" fill="#303030"/>
    <path d="M 23.4265 3.20978 L 23.4914 3.16642 L 23.5348 3.10154 L 23.55 3.025 L 23.55 2.725 L 23.5348 2.64846 L 23.4914 2.58358 L 23.4265 2.54022 L 23.35 2.525 L 21.95 2.525 L 21.8735 2.54022 L 21.8086 2.58358 L 21.7652 2.64846 L 21.75 2.725 L 21.75 3.025 L 21.7652 3.10154 L 21.8086 3.16642 L 21.8735 3.20978 L 21.95 3.225 L 23.35 3.225 L 23.4265 3.20978" fill="#303030"/>
    <path d="M 18.2105 4.50813 L 18.3348 4.43634 L 18.4363 4.33482 L 18.5081 4.21048 L 18.5453 4.07179 L 18.5453 3.92821 L 18.5081 3.78952 L 18.4363 3.66518 L 18.3348 3.56366 L 18.2105 3.49187 L 18.0718 3.45471 L 17.9282 3.45471 L 17.7895 3.49187 L 17.6652 3.56366 L 17.5637 3.66518 L 17.4919 3.78952 L 17.4547 3.92821 L 17.4547 4.07179 L 17.4919 4.21048 L 17.5637 4.33482 L 17.6652 4.43634 L 17.7895 4.50813 L 17.9282 4.5453 L 18.0718 4.5453 L 18.2105 4.50813" fill="#303030"/>
    <path d="M 23.4265 4.45978 L 23.4914 4.41642 L 23.5348 4.35154 L 23.55 4.275 L 23.55 3.975 L 23.5348 3.89846 L 23.4914 3.83358 L 23.4265 3.79022 L 23.35 3.775 L 21.95 3.775 L 21.8735 3.79022 L 21.8086 3.83358 L 21.7652 3.89846 L 21.75 3.975 L 21.75 4.275 L 21.7652 4.35154 L 21.8086 4.41642 L 21.8735 4.45978 L 21.95 4.475 L 23.35 4.475 L 23.4265 4.45978" fill="#303030"/>
    <path d="M 3.39413 4.94619 L 3.41036 4.93536 L 3.42119 4.91913 L 3.425 4.9 L 3.425 4.2 L 3.42119 4.18087 L 3.41036 4.16465 L 3.39413 4.15381 L 3.375 4.15 L 3.125 4.15 L 3.10587 4.15381 L 3.08964 4.16465 L 3.07881 4.18087 L 3.075 4.2 L 3.075 4.9 L 3.07881 4.91913 L 3.08964 4.93536 L 3.10587 4.94619 L 3.125 4.95 L 3.375 4.95 L 3.39413 4.94619" fill="#303030"/>
    <path d="M 3.89413 4.94619 L 3.91036 4.93536 L 3.92119 4.91913 L 3.925 4.9 L 3.925 4.2 L 3.92119 4.18087 L 3.91036 4.16465 L 3.89413 4.15381 L 3.875 4.15 L 3.625 4.15 L 3.60587 4.15381 L 3.58964 4.16465 L 3.57881 4.18087 L 3.575 4.2 L 3.575 4.9 L 3.57881 4.91913 L 3.58964 4.93536 L 3.60587 4.94619 L 3.625 4.95 L 3.875 4.95 L 3.89413 4.94619" fill="#303030"/>
    <path d="M 4.39413 4.94619 L 4.41036 4.93536 L 4.42119 4.91913 L 4.425 4.9 L 4.425 4.2 L 4.42119 4.18087 L 4.41036 4.16465 L 4.39413 4.15381 L 4.375 4.15 L 4.125 4.15 L 4.10587 4.15381 L 4.08964 4.16465 L 4.07881 4.18087 L 4.075 4.2 L 4.075 4.9 L 4.07881 4.91913 L 4.08964 4.93536 L 4.10587 4.94619 L 4.125 4.95 L 4.375 4.95 L 4.39413 4.94619" fill="#303030"/>
    <path d="M 4.89413 4.94619 L 4.91036 4.93536 L 4.92119 4.91913 L 4.925 4.9 L 4.925 4.2 L 4.92119 4.18087 L 4.91036 4.16465 L 4.89413 4.15381 L 4.875 4.15 L 4.625 4.15 L 4.60587 4.15381 L 4.58964 4.16465 L 4.57881 4.18087 L 4.575 4.2 L 4.575 4.9 L 4.57881 4.91913 L 4.58964 4.93536 L 4.60587 4.94619 L 4.625 4.95 L 4.875 4.95 L 4.89413 4.94619" fill="#303030"/>
    <path d="M 13.3191 5.39619 L 13.3354 5.38535 L 13.3462 5.36913 L 13.35 5.35 L 13.35 4.75 L 13.3462 4.73087 L 13.3354 4.71464 L 13.3191 4.70381 L 13.3 4.7 L 12.1 4.7 L 12.0809 4.70381 L 12.0646 4.71464 L 12.0538 4.73087 L 12.05 4.75 L 12.05 5.35 L 12.0538 5.36913 L 12.0646 5.38535 L 12.0809 5.39619 L 12.1 5.4 L 13.3 5.4 L 13.3191 5.39619" fill="#303030"/>
    <path d="M 15.9191 5.39619 L 15.9354 5.38535 L 15.9462 5.36913 L 15.95 5.35 L 15.95 4.75 L 15.9462 4.73087 L 15.9354 4.71464 L 15.9191 4.70381 L 15.9 4.7 L 14.7 4.7 L 14.6809 4.70381 L 14.6646 4.71464 L 14.6538 4.73087 L 14.65 4.75 L 14.65 5.35 L 14.6538 5.36913 L 14.6646 5.38535 L 14.6809 5.39619 L 14.7 5.4 L 15.9 5.4 L 15.9191 5.39619" fill="#303030"/>
    <path d="M 23.4265 5.70978 L 23.4914 5.66642 L 23.5348 5.60154 L 23.55 5.525 L 23.55 5.225 L 23.5348 5.14846 L 23.4914 5.08358 L 23.4265 5.04022 L 23.35 5.025 L 21.95 5.025 L 21.8735 5.04022 L 21.8086 5.08358 L 21.7652 5.14846 L 21.75 5.225 L 21.75 5.525 L 21.7652 5.60154 L 21.8086 5.66642 L 21.8735 5.70978 L 21.95 5.725 L 23.35 5.725 L 23.4265 5.70978" fill="#303030"/>
    <path d="M 2.91913 5.42119 L 2.93535 5.41036 L 2.94619 5.39413 L 2.95 5.375 L 2.95 5.125 L 2.94619 5.10587 L 2.93535 5.08964 L 2.91913 5.07881 L 2.9 5.075 L 2.2 5.075 L 2.18087 5.07881 L 2.16465 5.08964 L 2.15381 5.10587 L 2.15 5.125 L 2.15 5.375 L 2.15381 5.39413 L 2.16465 5.41036 L 2.18087 5.42119 L 2.2 5.425 L 2.9 5.425 L 2.91913 5.42119" fill="#303030"/>
    <path d="M 5.81913 5.42119 L 5.83535 5.41036 L 5.84619 5.39413 L 5.85 5.375 L 5.85 5.125 L 5.84619 5.10587 L 5.83535 5.08964 L 5.81913 5.07881 L 5.8 5.075 L 5.1 5.075 L 5.08087 5.07881 L 5.06464 5.08964 L 5.05381 5.10587 L 5.05 5.125 L 5.05 5.375 L 5.05381 5.39413 L 5.06464 5.41036 L 5.08087 5.42119 L 5.1 5.425 L 5.8 5.425 L 5.81913 5.42119" fill="#303030"/>
    <path d="M 4.86913 6.89619 L 4.88535 6.88535 L 4.89619 6.86913 L 4.9 6.85 L 4.9 5.15 L 4.89619 5.13087 L 4.88535 5.11465 L 4.86913 5.10381 L 4.85 5.1 L 3.15 5.1 L 3.13087 5.10381 L 3.11464 5.11465 L 3.10381 5.13087 L 3.1 5.15 L 3.1 6.85 L 3.10381 6.86913 L 3.11464 6.88535 L 3.13087 6.89619 L 3.15 6.9 L 4.85 6.9 L 4.86913 6.89619" fill="#303030"/>
    <path d="M 18.2105 6.50813 L 18.3348 6.43634 L 18.4363 6.33482 L 18.5081 6.21048 L 18.5453 6.07179 L 18.5453 5.92821 L 18.5081 5.78952 L 18.4363 5.66518 L 18.3348 5.56366 L 18.2105 5.49187 L 18.0718 5.4547 L 17.9282 5.4547 L 17.7895 5.49187 L 17.6652 5.56366 L 17.5637 5.66518 L 17.4919 5.78952 L 17.4547 5.92821 L 17.4547 6.07179 L 17.4919 6.21048 L 17.5637 6.33482 L 17.6652 6.43634 L 17.7895 6.50813 L 17.9282 6.5453 L 18.0718 6.5453 L 18.2105 6.50813" fill="#303030"/>
    <path d="M 2.91913 5.92119 L 2.93535 5.91036 L 2.94619 5.89413 L 2.95 5.875 L 2.95 5.625 L 2.94619 5.60587 L 2.93535 5.58964 L 2.91913 5.57881 L 2.9 5.575 L 2.2 5.575 L 2.18087 5.57881 L 2.16465 5.58964 L 2.15381 5.60587 L 2.15 5.625 L 2.15 5.875 L 2.15381 5.89413 L 2.16465 5.91036 L 2.18087 5.92119 L 2.2 5.925 L 2.9 5.925 L 2.91913 5.92119" fill="#303030"/>
    <path d="M 5.81913 5.92119 L 5.83535 5.91036 L 5.84619 5.89413 L 5.85 5.875 L 5.85 5.625 L 5.84619 5.60587 L 5.83535 5.58964 L 5.81913 5.57881 L 5.8 5.575 L 5.1 5.575 L 5.08087 5.57881 L 5.06464 5.58964 L 5.05381 5.60587 L 5.05 5.625 L 5.05 5.875 L 5.05381 5.89413 L 5.06464 5.91036 L 5.08087 5.92119 L 5.1 5.925 L 5.8 5.925 L 5.81913 5.92119" fill="#303030"/>
    <path d="M 13.3191 6.34619 L 13.3354 6.33535 L 13.3462 6.31913 L 13.35 6.3 L 13.35 5.7 L 13.3462 5.68087 L 13.3354 5.66465 L 13.3191 5.65381 L 13.3 5.65 L 12.1 5.65 L 12.0809 5.65381 L 12.0646 5.66465 L 12.0538 5.68087 L 12.05 5.7 L 12.05 6.3 L 12.0538 6.31913 L 12.0646 6.33535 L 12.0809 6.34619 L 12.1 6.35 L 13.3 6.35 L 13.3191 6.34619" fill="#303030"/>
    <path d="M 10.7427 6.33554 L 10.8043 6.29435 L 10.8455 6.23271 L 10.86 6.16 L 10.86 5.88 L 10.8455 5.80729 L 10.8043 5.74565 L 10.7427 5.70446 L 10.67 5.69 L 10.33 5.69 L 10.2573 5.70446 L 10.1957 5.74565 L 10.1545 5.80729 L 10.14 5.88 L 10.14 6.16 L 10.1545 6.23271 L 10.1957 6.29435 L 10.2573 6.33554 L 10.33 6.35 L 10.67 6.35 L 10.7427 6.33554" fill="#303030"/>
    <path d="M 2.91913 6.42119 L 2.93535 6.41036 L 2.94619 6.39413 L 2.95 6.375 L 2.95 6.125 L 2.94619 6.10587 L 2.93535 6.08964 L 2.91913 6.07881 L 2.9 6.075 L 2.2 6.075 L 2.18087 6.07881 L 2.16465 6.08964 L 2.15381 6.10587 L 2.15 6.125 L 2.15 6.375 L 2.15381 6.39413 L 2.16465 6.41036 L 2.18087 6.42119 L 2.2 6.425 L 2.9 6.425 L 2.91913 6.42119" fill="#303030"/>
    <path d="M 5.81913 6.42119 L 5.83535 6.41036 L 5.84619 6.39413 L 5.85 6.375 L 5.85 6.125 L 5.84619 6.10587 L 5.83535 6.08964 L 5.81913 6.07881 L 5.8 6.075 L 5.1 6.075 L 5.08087 6.07881 L 5.06464 6.08964 L 5.05381 6.10587 L 5.05 6.125 L 5.05 6.375 L 5.05381 6.39413 L 5.06464 6.41036 L 5.08087 6.42119 L 5.1 6.425 L 5.8 6.425 L 5.81913 6.42119" fill="#303030"/>
    <path d="M 23.4265 6.95978 L 23.4914 6.91642 L 23.5348 6.85154 L 23.55 6.775 L 23.55 6.475 L 23.5348 6.39846 L 23.4914 6.33358 L 23.4265 6.29022 L 23.35 6.275 L 21.95 6.275 L 21.8735 6.29022 L 21.8086 6.33358 L 21.7652 6.39846 L 21.75 6.475 L 21.75 6.775 L 21.7652 6.85154 L 21.8086 6.91642 L 21.8735 6.95978 L 21.95 6.975 L 23.35 6.975 L 23.4265 6.95978" fill="#303030"/>
    <path d="M 20.2105 7.50813 L 20.3348 7.43634 L 20.4363 7.33482 L 20.5081 7.21048 L 20.5453 7.07179 L 20.5453 6.92821 L 20.5081 6.78952 L 20.4363 6.66518 L 20.3348 6.56366 L 20.2105 6.49187 L 20.0718 6.4547 L 19.9282 6.4547 L 19.7895 6.49187 L 19.6652 6.56366 L 19.5637 6.66518 L 19.4919 6.78952 L 19.4547 6.92821 L 19.4547 7.07179 L 19.4919 7.21048 L 19.5637 7.33482 L 19.6652 7.43634 L 19.7895 7.50813 L 19.9282 7.5453 L 20.0718 7.5453 L 20.2105 7.50813" fill="#303030"/>
    <path d="M 2.91913 6.92119 L 2.93535 6.91036 L 2.94619 6.89413 L 2.95 6.875 L 2.95 6.625 L 2.94619 6.60587 L 2.93535 6.58964 L 2.91913 6.57881 L 2.9 6.575 L 2.2 6.575 L 2.18087 6.57881 L 2.16465 6.58964 L 2.15381 6.60587 L 2.15 6.625 L 2.15 6.875 L 2.15381 6.89413 L 2.16465 6.91036 L 2.18087 6.92119 L 2.2 6.925 L 2.9 6.925 L 2.91913 6.92119" fill="#303030"/>
    <path d="M 5.81913 6.92119 L 5.83535 6.91036 L 5.84619 6.89413 L 5.85 6.875 L 5.85 6.625 L 5.84619 6.60587 L 5.83535 6.58964 L 5.81913 6.57881 L 5.8 6.575 L 5.1 6.575 L 5.08087 6.57881 L 5.06464 6.58964 L 5.05381 6.60587 L 5.05 6.625 L 5.05 6.875 L 5.05381 6.89413 L 5.06464 6.91036 L 5.08087 6.92119 L 5.1 6.925 L 5.8 6.925 L 5.81913 6.92119" fill="#303030"/>
    <path d="M 13.3191 7.29619 L 13.3354 7.28536 L 13.3462 7.26913 L 13.35 7.25 L 13.35 6.65 L 13.3462 6.63087 L 13.3354 6.61465 L 13.3191 6.60381 L 13.3 6.6 L 12.1 6.6 L 12.0809 6.60381 L 12.0646 6.61465 L 12.0538 6.63087 L 12.05 6.65 L 12.05 7.25 L 12.0538 7.26913 L 12.0646 7.28536 L 12.0809 7.29619 L 12.1 7.3 L 13.3 7.3 L 13.3191 7.29619" fill="#303030"/>
    <path d="M 15.9191 7.29619 L 15.9354 7.28536 L 15.9462 7.26913 L 15.95 7.25 L 15.95 6.65 L 15.9462 6.63087 L 15.9354 6.61465 L 15.9191 6.60381 L 15.9 6.6 L 14.7 6.6 L 14.6809 6.60381 L 14.6646 6.61465 L 14.6538 6.63087 L 14.65 6.65 L 14.65 7.25 L 14.6538 7.26913 L 14.6646 7.28536 L 14.6809 7.29619 L 14.7 7.3 L 15.9 7.3 L 15.9191 7.29619" fill="#303030"/>
    <path d="M 10.7427 7.29554 L 10.8043 7.25435 L 10.8455 7.19271 L 10.86 7.12 L 10.86 6.84 L 10.8455 6.76729 L 10.8043 6.70565 L 10.7427 6.66446 L 10.67 6.65 L 10.33 6.65 L 10.2573 6.66446 L 10.1957 6.70565 L 10.1545 6.76729 L 10.14 6.84 L 10.14 7.12 L 10.1545 7.19271 L 10.1957 7.25435 L 10.2573 7.29554 L 10.33 7.31 L 10.67 7.31 L 10.7427 7.29554" fill="#303030"/>
    <path d="M 3.39413 7.84619 L 3.41036 7.83535 L 3.42119 7.81913 L 3.425 7.8 L 3.425 7.1 L 3.42119 7.08087 L 3.41036 7.06464 L 3.39413 7.05381 L 3.375 7.05 L 3.125 7.05 L 3.10587 7.05381 L 3.08964 7.06464 L 3.07881 7.08087 L 3.075 7.1 L 3.075 7.8 L 3.07881 7.81913 L 3.08964 7.83535 L 3.10587 7.84619 L 3.125 7.85 L 3.375 7.85 L 3.39413 7.84619" fill="#303030"/>
    <path d="M 3.89413 7.84619 L 3.91036 7.83535 L 3.92119 7.81913 L 3.925 7.8 L 3.925 7.1 L 3.92119 7.08087 L 3.91036 7.06464 L 3.89413 7.05381 L 3.875 7.05 L 3.625 7.05 L 3.60587 7.05381 L 3.58964 7.06464 L 3.57881 7.08087 L 3.575 7.1 L 3.575 7.8 L 3.57881 7.81913 L 3.58964 7.83535 L 3.60587 7.84619 L 3.625 7.85 L 3.875 7.85 L 3.89413 7.84619" fill="#303030"/>
    <path d="M 4.39413 7.84619 L 4.41036 7.83535 L 4.42119 7.81913 L 4.425 7.8 L 4.425 7.1 L 4.42119 7.08087 L 4.41036 7.06464 L 4.39413 7.05381 L 4.375 7.05 L 4.125 7.05 L 4.10587 7.05381 L 4.08964 7.06464 L 4.07881 7.08087 L 4.075 7.1 L 4.075 7.8 L 4.07881 7.81913 L 4.08964 7.83535 L 4.10587 7.84619 L 4.125 7.85 L 4.375 7.85 L 4.39413 7.84619" fill="#303030"/>
    <path d="M 4.89413 7.84619 L 4.91036 7.83535 L 4.92119 7.81913 L 4.925 7.8 L 4.925 7.1 L 4.92119 7.08087 L 4.91036 7.06464 L 4.89413 7.05381 L 4.875 7.05 L 4.625 7.05 L 4.60587 7.05381 L 4.58964 7.06464 L 4.57881 7.08087 L 4.575 7.1 L 4.575 7.8 L 4.57881 7.81913 L 4.58964 7.83535 L 4.60587 7.84619 L 4.625 7.85 L 4.875 7.85 L 4.89413 7.84619" fill="#303030"/>
    <path d="M 18.2105 8.50813 L 18.3348 8.43634 L 18.4363 8.33482 L 18.5081 8.21048 L 18.5453 8.07179 L 18.5453 7.92821 L 18.5081 7.78952 L 18.4363 7.66518 L 18.3348 7.56366 L 18.2105 7.49187 L 18.0718 7.4547 L 17.9282 7.4547 L 17.7895 7.49187 L 17.6652 7.56366 L 17.5637 7.66518 L 17.4919 7.78952 L 17.4547 7.92821 L 17.4547 8.07179 L 17.4919 8.21048 L 17.5637 8.33482 L 17.6652 8.43634 L 17.7895 8.50813 L 17.9282 8.54529 L 18.0718 8.54529 L 18.2105 8.50813" fill="#303030"/>
    <path d="M 23.4265 8.20978 L 23.4914 8.16642 L 23.5348 8.10154 L 23.55 8.025 L 23.55 7.725 L 23.5348 7.64846 L 23.4914 7.58358 L 23.4265 7.54022 L 23.35 7.525 L 21.95 7.525 L 21.8735 7.54022 L 21.8086 7.58358 L 21.7652 7.64846 L 21.75 7.725 L 21.75 8.025 L 21.7652 8.10154 L 21.8086 8.16642 L 21.8735 8.20978 L 21.95 8.225 L 23.35 8.225 L 23.4265 8.20978" fill="#303030"/>
    <path d="M 10.7427 8.83554 L 10.8043 8.79435 L 10.8455 8.73271 L 10.86 8.66 L 10.86 8.38 L 10.8455 8.30729 L 10.8043 8.24565 L 10.7427 8.20446 L 10.67 8.19 L 10.33 8.19 L 10.2573 8.20446 L 10.1957 8.24565 L 10.1545 8.30729 L 10.14 8.38 L 10.14 8.66 L 10.1545 8.73271 L 10.1957 8.79435 L 10.2573 8.83554 L 10.33 8.85 L 10.67 8.85 L 10.7427 8.83554" fill="#303030"/>
    <path d="M 13.4564 9.82372 L 13.52 9.81536 L 13.5359 9.8079 L 13.5552 9.80407 L 13.5808 9.78699 L 13.6073 9.77464 L 13.6234 9.75851 L 13.6445 9.74445 L 13.6585 9.72341 L 13.6746 9.70729 L 13.687 9.6808 L 13.7041 9.65524 L 13.7079 9.63594 L 13.7154 9.61996 L 13.7237 9.55642 L 13.725 9.55 L 13.725 9.05 L 13.7237 9.04358 L 13.7154 8.98004 L 13.7079 8.96406 L 13.7041 8.94476 L 13.687 8.9192 L 13.6746 8.89271 L 13.6585 8.87659 L 13.6445 8.85555 L 13.6234 8.84148 L 13.6073 8.82536 L 13.5808 8.81301 L 13.5552 8.79593 L 13.5359 8.79209 L 13.52 8.78464 L 13.4564 8.77628 L 13.45 8.775 L 13.0 8.775 L 12.9936 8.77628 L 12.93 8.78464 L 12.9141 8.79209 L 12.8948 8.79593 L 12.8692 8.81301 L 12.8427 8.82536 L 12.8266 8.84149 L 12.8055 8.85555 L 12.7915 8.87659 L 12.7754 8.89271 L 12.763 8.91921 L 12.7459 8.94476 L 12.7421 8.96406 L 12.7346 8.98004 L 12.7263 9.04359 L 12.725 9.05 L 12.725 9.55 L 12.7263 9.55641 L 12.7346 9.61996 L 12.7421 9.63595 L 12.7459 9.65524 L 12.763 9.68079 L 12.7754 9.70729 L 12.7915 9.72342 L 12.8055 9.74445 L 12.8266 9.75851 L 12.8427 9.77464 L 12.8692 9.78699 L 12.8948 9.80407 L 12.9141 9.8079 L 12.93 9.81536 L 12.9936 9.82373 L 13.0 9.825 L 13.45 9.825 L 13.4564 9.82372" fill="#303030"/>
    <path d="M 15.0064 9.82372 L 15.07 9.81536 L 15.0859 9.8079 L 15.1052 9.80407 L 15.1308 9.78699 L 15.1573 9.77464 L 15.1734 9.75851 L 15.1945 9.74445 L 15.2085 9.72341 L 15.2246 9.70729 L 15.237 9.6808 L 15.2541 9.65524 L 15.2579 9.63594 L 15.2654 9.61996 L 15.2737 9.55642 L 15.275 9.55 L 15.275 9.05 L 15.2737 9.04358 L 15.2654 8.98004 L 15.2579 8.96406 L 15.2541 8.94476 L 15.237 8.9192 L 15.2246 8.89271 L 15.2085 8.87659 L 15.1945 8.85555 L 15.1734 8.84148 L 15.1573 8.82536 L 15.1308 8.81301 L 15.1052 8.79593 L 15.0859 8.79209 L 15.07 8.78464 L 15.0064 8.77628 L 15.0 8.775 L 14.55 8.775 L 14.5436 8.77628 L 14.48 8.78464 L 14.4641 8.79209 L 14.4448 8.79593 L 14.4192 8.81301 L 14.3927 8.82536 L 14.3766 8.84149 L 14.3555 8.85555 L 14.3415 8.87659 L 14.3254 8.89271 L 14.313 8.91921 L 14.2959 8.94476 L 14.2921 8.96406 L 14.2846 8.98004 L 14.2763 9.04359 L 14.275 9.05 L 14.275 9.55 L 14.2763 9.55641 L 14.2846 9.61996 L 14.2921 9.63595 L 14.2959 9.65524 L 14.313 9.68079 L 14.3254 9.70729 L 14.3415 9.72342 L 14.3555 9.74445 L 14.3766 9.75851 L 14.3927 9.77464 L 14.4192 9.78699 L 14.4448 9.80407 L 14.4641 9.8079 L 14.48 9.81536 L 14.5436 9.82373 L 14.55 9.825 L 15.0 9.825 L 15.0064 9.82372" fill="#303030"/>
    <path d="M 23.4265 9.45978 L 23.4914 9.41642 L 23.5348 9.35154 L 23.55 9.275 L 23.55 8.975 L 23.5348 8.89846 L 23.4914 8.83358 L 23.4265 8.79022 L 23.35 8.775 L 21.95 8.775 L 21.8735 8.79022 L 21.8086 8.83358 L 21.7652 8.89846 L 21.75 8.975 L 21.75 9.275 L 21.7652 9.35154 L 21.8086 9.41642 L 21.8735 9.45978 L 21.95 9.475 L 23.35 9.475 L 23.4265 9.45978" fill="#303030"/>
    <path d="M 10.7427 9.79554 L 10.8043 9.75435 L 10.8455 9.69271 L 10.86 9.62 L 10.86 9.34 L 10.8455 9.26729 L 10.8043 9.20565 L 10.7427 9.16446 L 10.67 9.15 L 10.33 9.15 L 10.2573 9.16446 L 10.1957 9.20565 L 10.1545 9.26729 L 10.14 9.34 L 10.14 9.62 L 10.1545 9.69271 L 10.1957 9.75435 L 10.2573 9.79554 L 10.33 9.81 L 10.67 9.81 L 10.7427 9.79554" fill="#303030"/>
    <path d="M 18.2105 10.5081 L 18.3348 10.4363 L 18.4363 10.3348 L 18.5081 10.2105 L 18.5453 10.0718 L 18.5453 9.92821 L 18.5081 9.78952 L 18.4363 9.66518 L 18.3348 9.56366 L 18.2105 9.49187 L 18.0718 9.45471 L 17.9282 9.45471 L 17.7895 9.49187 L 17.6652 9.56366 L 17.5637 9.66518 L 17.4919 9.78952 L 17.4547 9.92821 L 17.4547 10.0718 L 17.4919 10.2105 L 17.5637 10.3348 L 17.6652 10.4363 L 17.7895 10.5081 L 17.9282 10.5453 L 18.0718 10.5453 L 18.2105 10.5081" fill="#303030"/>
    <path d="M 20.2105 11.0081 L 20.3348 10.9363 L 20.4363 10.8348 L 20.5081 10.7105 L 20.5453 10.5718 L 20.5453 10.4282 L 20.5081 10.2895 L 20.4363 10.1652 L 20.3348 10.0637 L 20.2105 9.99187 L 20.0718 9.95471 L 19.9282 9.95471 L 19.7895 9.99187 L 19.6652 10.0637 L 19.5637 10.1652 L 19.4919 10.2895 L 19.4547 10.4282 L 19.4547 10.5718 L 19.4919 10.7105 L 19.5637 10.8348 L 19.6652 10.9363 L 19.7895 11.0081 L 19.9282 11.0453 L 20.0718 11.0453 L 20.2105 11.0081" fill="#303030"/>
    <path d="M 27.0187 11.517 L 27.0274 11.5132 L 27.0349 11.5121 L 27.0822 11.489 L 27.1195 11.4725 L 27.123 11.469 L 27.1239 11.4686 L 27.1936 11.3989 L 27.194 11.398 L 27.1975 11.3945 L 27.214 11.3572 L 27.2371 11.3099 L 27.2382 11.3024 L 27.242 11.2937 L 27.25 11.225 L 27.25 10.725 L 27.242 10.6563 L 27.2382 10.6476 L 27.2371 10.6401 L 27.214 10.5928 L 27.1975 10.5555 L 27.194 10.552 L 27.1936 10.5511 L 27.1239 10.4814 L 27.123 10.481 L 27.1195 10.4775 L 27.0822 10.461 L 27.0349 10.4379 L 27.0274 10.4368 L 27.0187 10.433 L 26.95 10.425 L 24.75 10.425 L 24.6813 10.433 L 24.6726 10.4368 L 24.6651 10.4379 L 24.6178 10.461 L 24.5805 10.4775 L 24.577 10.481 L 24.5761 10.4814 L 24.5064 10.5511 L 24.506 10.552 L 24.5025 10.5555 L 24.486 10.5928 L 24.4629 10.6401 L 24.4618 10.6476 L 24.458 10.6563 L 24.45 10.725 L 24.45 11.225 L 24.458 11.2937 L 24.4618 11.3024 L 24.4629 11.3099 L 24.486 11.3572 L 24.5025 11.3945 L 24.506 11.398 L 24.5064 11.3989 L 24.5761 11.4686 L 24.577 11.469 L 24.5805 11.4725 L 24.6178 11.489 L 24.6651 11.5121 L 24.6726 11.5132 L 24.6813 11.517 L 24.75 11.525 L 26.95 11.525 L 27.0187 11.517" fill="#303030"/>
    <path d="M 11.2105 11.5081 L 11.3348 11.4363 L 11.4363 11.3348 L 11.5081 11.2105 L 11.5453 11.0718 L 11.5453 10.9282 L 11.5081 10.7895 L 11.4363 10.6652 L 11.3348 10.5637 L 11.2105 10.4919 L 11.0718 10.4547 L 10.9282 10.4547 L 10.7895 10.4919 L 10.6652 10.5637 L 10.5637 10.6652 L 10.4919 10.7895 L 10.4547 10.9282 L 10.4547 11.0718 L 10.4919 11.2105 L 10.5637 11.3348 L 10.6652 11.4363 L 10.7895 11.5081 L 10.9282 11.5453 L 11.0718 11.5453 L 11.2105 11.5081" fill="#303030"/>
  </g>
</svg>