G04 Layer_Color=128*
%FSLAX25Y25*%
%MOIN*%
G70*
G01*
G75*
%ADD13R,0.03347X0.03150*%
%ADD24R,0.03543X0.02953*%
%ADD43C,0.00800*%
%ADD61R,0.03150X0.03347*%
%ADD62R,0.02953X0.03543*%
G04:AMPARAMS|DCode=63|XSize=23.62mil|YSize=62.99mil|CornerRadius=5.91mil|HoleSize=0mil|Usage=FLASHONLY|Rotation=0.000|XOffset=0mil|YOffset=0mil|HoleType=Round|Shape=RoundedRectangle|*
%AMROUNDEDRECTD63*
21,1,0.02362,0.05118,0,0,0.0*
21,1,0.01181,0.06299,0,0,0.0*
1,1,0.01181,0.00591,-0.02559*
1,1,0.01181,-0.00591,-0.02559*
1,1,0.01181,-0.00591,0.02559*
1,1,0.01181,0.00591,0.02559*
%
%ADD63ROUNDEDRECTD63*%
%ADD64R,0.02362X0.06299*%
%ADD65R,0.01772X0.05512*%
%ADD66O,0.01772X0.05512*%
D13*
X211283Y173244D02*
D03*
X216205D02*
D03*
X207784Y161744D02*
D03*
X212705D02*
D03*
X207784Y156744D02*
D03*
X212705D02*
D03*
X188705Y193244D02*
D03*
X183783D02*
D03*
X213205Y227244D02*
D03*
X208283D02*
D03*
X211205Y237244D02*
D03*
X206283D02*
D03*
X211205Y243244D02*
D03*
X206283D02*
D03*
X203705Y153744D02*
D03*
X198783D02*
D03*
X198283Y159244D02*
D03*
X203205D02*
D03*
X192205Y168244D02*
D03*
X187284D02*
D03*
X391283Y173244D02*
D03*
X396205D02*
D03*
X387784Y161744D02*
D03*
X392705D02*
D03*
X387784Y156744D02*
D03*
X392705D02*
D03*
X368705Y193244D02*
D03*
X363783D02*
D03*
X393205Y227244D02*
D03*
X388283D02*
D03*
X391205Y237244D02*
D03*
X386283D02*
D03*
X391205Y243244D02*
D03*
X386283D02*
D03*
X383705Y153744D02*
D03*
X378783D02*
D03*
X378283Y159244D02*
D03*
X383205D02*
D03*
X372205Y168244D02*
D03*
X367284D02*
D03*
X211283Y353244D02*
D03*
X216205D02*
D03*
X207784Y341744D02*
D03*
X212705D02*
D03*
X207784Y336744D02*
D03*
X212705D02*
D03*
X188705Y373244D02*
D03*
X183783D02*
D03*
X213205Y407244D02*
D03*
X208283D02*
D03*
X211205Y417244D02*
D03*
X206283D02*
D03*
X211205Y423244D02*
D03*
X206283D02*
D03*
X203705Y333744D02*
D03*
X198783D02*
D03*
X198283Y339244D02*
D03*
X203205D02*
D03*
X192205Y348244D02*
D03*
X187284D02*
D03*
X391283Y353244D02*
D03*
X396205D02*
D03*
X387784Y341744D02*
D03*
X392705D02*
D03*
X387784Y336744D02*
D03*
X392705D02*
D03*
X368705Y373244D02*
D03*
X363783D02*
D03*
X393205Y407244D02*
D03*
X388283D02*
D03*
X391205Y417244D02*
D03*
X386283D02*
D03*
X391205Y423244D02*
D03*
X386283D02*
D03*
X383705Y333744D02*
D03*
X378783D02*
D03*
X378283Y339244D02*
D03*
X383205D02*
D03*
X372205Y348244D02*
D03*
X367284D02*
D03*
D24*
X249244Y203587D02*
D03*
Y208902D02*
D03*
X258744Y206087D02*
D03*
Y211402D02*
D03*
X249744Y170087D02*
D03*
Y175402D02*
D03*
X259244Y172587D02*
D03*
Y177902D02*
D03*
X258744Y190087D02*
D03*
Y195402D02*
D03*
X249244Y187087D02*
D03*
Y192402D02*
D03*
X429244Y203587D02*
D03*
Y208902D02*
D03*
X438744Y206087D02*
D03*
Y211402D02*
D03*
X429744Y170087D02*
D03*
Y175402D02*
D03*
X439244Y172587D02*
D03*
Y177902D02*
D03*
X438744Y190087D02*
D03*
Y195402D02*
D03*
X429244Y187087D02*
D03*
Y192402D02*
D03*
X249244Y383587D02*
D03*
Y388902D02*
D03*
X258744Y386087D02*
D03*
Y391402D02*
D03*
X249744Y350087D02*
D03*
Y355402D02*
D03*
X259244Y352587D02*
D03*
Y357902D02*
D03*
X258744Y370087D02*
D03*
Y375402D02*
D03*
X249244Y367087D02*
D03*
Y372402D02*
D03*
X429244Y383587D02*
D03*
Y388902D02*
D03*
X438744Y386087D02*
D03*
Y391402D02*
D03*
X429744Y350087D02*
D03*
Y355402D02*
D03*
X439244Y352587D02*
D03*
Y357902D02*
D03*
X438744Y370087D02*
D03*
Y375402D02*
D03*
X429244Y367087D02*
D03*
Y372402D02*
D03*
D43*
X171120Y328192D02*
Y323194D01*
X173619D01*
X174452Y324027D01*
Y324860D01*
X173619Y325693D01*
X171120D01*
X173619D01*
X174452Y326526D01*
Y327359D01*
X173619Y328192D01*
X171120D01*
X176951Y323194D02*
X178617D01*
X179450Y324027D01*
Y325693D01*
X178617Y326526D01*
X176951D01*
X176118Y325693D01*
Y324027D01*
X176951Y323194D01*
X181949Y327359D02*
Y326526D01*
X181116D01*
X182783D01*
X181949D01*
Y324027D01*
X182783Y323194D01*
X186115Y327359D02*
Y326526D01*
X185282D01*
X186948D01*
X186115D01*
Y324027D01*
X186948Y323194D01*
X190280D02*
X191946D01*
X192779Y324027D01*
Y325693D01*
X191946Y326526D01*
X190280D01*
X189447Y325693D01*
Y324027D01*
X190280Y323194D01*
X194446D02*
Y326526D01*
X195279D01*
X196112Y325693D01*
Y323194D01*
Y325693D01*
X196945Y326526D01*
X197778Y325693D01*
Y323194D01*
X204442D02*
Y328192D01*
X206941D01*
X207774Y327359D01*
Y325693D01*
X206941Y324860D01*
X204442D01*
X210274Y326526D02*
X211940D01*
X212773Y325693D01*
Y323194D01*
X210274D01*
X209441Y324027D01*
X210274Y324860D01*
X212773D01*
X214439Y323194D02*
X216938D01*
X217771Y324027D01*
X216938Y324860D01*
X215272D01*
X214439Y325693D01*
X215272Y326526D01*
X217771D01*
X220270Y327359D02*
Y326526D01*
X219437D01*
X221104D01*
X220270D01*
Y324027D01*
X221104Y323194D01*
X226102D02*
X224436D01*
X223603Y324027D01*
Y325693D01*
X224436Y326526D01*
X226102D01*
X226935Y325693D01*
Y324860D01*
X223603D01*
X351120Y328192D02*
Y323194D01*
X353619D01*
X354452Y324027D01*
Y324860D01*
X353619Y325693D01*
X351120D01*
X353619D01*
X354452Y326526D01*
Y327359D01*
X353619Y328192D01*
X351120D01*
X356951Y323194D02*
X358617D01*
X359450Y324027D01*
Y325693D01*
X358617Y326526D01*
X356951D01*
X356118Y325693D01*
Y324027D01*
X356951Y323194D01*
X361949Y327359D02*
Y326526D01*
X361116D01*
X362783D01*
X361949D01*
Y324027D01*
X362783Y323194D01*
X366115Y327359D02*
Y326526D01*
X365282D01*
X366948D01*
X366115D01*
Y324027D01*
X366948Y323194D01*
X370280D02*
X371946D01*
X372779Y324027D01*
Y325693D01*
X371946Y326526D01*
X370280D01*
X369447Y325693D01*
Y324027D01*
X370280Y323194D01*
X374446D02*
Y326526D01*
X375278D01*
X376112Y325693D01*
Y323194D01*
Y325693D01*
X376945Y326526D01*
X377778Y325693D01*
Y323194D01*
X384442D02*
Y328192D01*
X386941D01*
X387774Y327359D01*
Y325693D01*
X386941Y324860D01*
X384442D01*
X390274Y326526D02*
X391940D01*
X392773Y325693D01*
Y323194D01*
X390274D01*
X389441Y324027D01*
X390274Y324860D01*
X392773D01*
X394439Y323194D02*
X396938D01*
X397771Y324027D01*
X396938Y324860D01*
X395272D01*
X394439Y325693D01*
X395272Y326526D01*
X397771D01*
X400270Y327359D02*
Y326526D01*
X399437D01*
X401103D01*
X400270D01*
Y324027D01*
X401103Y323194D01*
X406102D02*
X404436D01*
X403603Y324027D01*
Y325693D01*
X404436Y326526D01*
X406102D01*
X406935Y325693D01*
Y324860D01*
X403603D01*
X171120Y508192D02*
Y503194D01*
X173619D01*
X174452Y504027D01*
Y504860D01*
X173619Y505693D01*
X171120D01*
X173619D01*
X174452Y506526D01*
Y507359D01*
X173619Y508192D01*
X171120D01*
X176951Y503194D02*
X178617D01*
X179450Y504027D01*
Y505693D01*
X178617Y506526D01*
X176951D01*
X176118Y505693D01*
Y504027D01*
X176951Y503194D01*
X181949Y507359D02*
Y506526D01*
X181116D01*
X182783D01*
X181949D01*
Y504027D01*
X182783Y503194D01*
X186115Y507359D02*
Y506526D01*
X185282D01*
X186948D01*
X186115D01*
Y504027D01*
X186948Y503194D01*
X190280D02*
X191946D01*
X192779Y504027D01*
Y505693D01*
X191946Y506526D01*
X190280D01*
X189447Y505693D01*
Y504027D01*
X190280Y503194D01*
X194446D02*
Y506526D01*
X195279D01*
X196112Y505693D01*
Y503194D01*
Y505693D01*
X196945Y506526D01*
X197778Y505693D01*
Y503194D01*
X204442D02*
Y508192D01*
X206941D01*
X207774Y507359D01*
Y505693D01*
X206941Y504860D01*
X204442D01*
X210274Y506526D02*
X211940D01*
X212773Y505693D01*
Y503194D01*
X210274D01*
X209441Y504027D01*
X210274Y504860D01*
X212773D01*
X214439Y503194D02*
X216938D01*
X217771Y504027D01*
X216938Y504860D01*
X215272D01*
X214439Y505693D01*
X215272Y506526D01*
X217771D01*
X220270Y507359D02*
Y506526D01*
X219437D01*
X221104D01*
X220270D01*
Y504027D01*
X221104Y503194D01*
X226102D02*
X224436D01*
X223603Y504027D01*
Y505693D01*
X224436Y506526D01*
X226102D01*
X226935Y505693D01*
Y504860D01*
X223603D01*
X351120Y508192D02*
Y503194D01*
X353619D01*
X354452Y504027D01*
Y504860D01*
X353619Y505693D01*
X351120D01*
X353619D01*
X354452Y506526D01*
Y507359D01*
X353619Y508192D01*
X351120D01*
X356951Y503194D02*
X358617D01*
X359450Y504027D01*
Y505693D01*
X358617Y506526D01*
X356951D01*
X356118Y505693D01*
Y504027D01*
X356951Y503194D01*
X361949Y507359D02*
Y506526D01*
X361116D01*
X362783D01*
X361949D01*
Y504027D01*
X362783Y503194D01*
X366115Y507359D02*
Y506526D01*
X365282D01*
X366948D01*
X366115D01*
Y504027D01*
X366948Y503194D01*
X370280D02*
X371946D01*
X372779Y504027D01*
Y505693D01*
X371946Y506526D01*
X370280D01*
X369447Y505693D01*
Y504027D01*
X370280Y503194D01*
X374446D02*
Y506526D01*
X375278D01*
X376112Y505693D01*
Y503194D01*
Y505693D01*
X376945Y506526D01*
X377778Y505693D01*
Y503194D01*
X384442D02*
Y508192D01*
X386941D01*
X387774Y507359D01*
Y505693D01*
X386941Y504860D01*
X384442D01*
X390274Y506526D02*
X391940D01*
X392773Y505693D01*
Y503194D01*
X390274D01*
X389441Y504027D01*
X390274Y504860D01*
X392773D01*
X394439Y503194D02*
X396938D01*
X397771Y504027D01*
X396938Y504860D01*
X395272D01*
X394439Y505693D01*
X395272Y506526D01*
X397771D01*
X400270Y507359D02*
Y506526D01*
X399437D01*
X401103D01*
X400270D01*
Y504027D01*
X401103Y503194D01*
X406102D02*
X404436D01*
X403603Y504027D01*
Y505693D01*
X404436Y506526D01*
X406102D01*
X406935Y505693D01*
Y504860D01*
X403603D01*
D61*
X258744Y226783D02*
D03*
Y231705D02*
D03*
X253744Y227283D02*
D03*
Y232205D02*
D03*
X238744Y230205D02*
D03*
Y225283D02*
D03*
X244744Y229705D02*
D03*
Y224783D02*
D03*
X262244Y249205D02*
D03*
Y244283D02*
D03*
X239744Y194205D02*
D03*
Y189283D02*
D03*
X438744Y226783D02*
D03*
Y231705D02*
D03*
X433744Y227283D02*
D03*
Y232205D02*
D03*
X418744Y230205D02*
D03*
Y225283D02*
D03*
X424744Y229705D02*
D03*
Y224783D02*
D03*
X442244Y249205D02*
D03*
Y244283D02*
D03*
X419744Y194205D02*
D03*
Y189283D02*
D03*
X258744Y406783D02*
D03*
Y411705D02*
D03*
X253744Y407283D02*
D03*
Y412205D02*
D03*
X238744Y410205D02*
D03*
Y405283D02*
D03*
X244744Y409705D02*
D03*
Y404783D02*
D03*
X262244Y429205D02*
D03*
Y424283D02*
D03*
X239744Y374205D02*
D03*
Y369283D02*
D03*
X438744Y406783D02*
D03*
Y411705D02*
D03*
X433744Y407283D02*
D03*
Y412205D02*
D03*
X418744Y410205D02*
D03*
Y405283D02*
D03*
X424744Y409705D02*
D03*
Y404783D02*
D03*
X442244Y429205D02*
D03*
Y424283D02*
D03*
X419744Y374205D02*
D03*
Y369283D02*
D03*
D62*
X169587Y157244D02*
D03*
X174901D02*
D03*
X224902Y237244D02*
D03*
X219587D02*
D03*
X224902Y243244D02*
D03*
X219587D02*
D03*
X164902Y181244D02*
D03*
X159587D02*
D03*
X170087Y197244D02*
D03*
X175401D02*
D03*
X159587D02*
D03*
X164901D02*
D03*
X180587Y152744D02*
D03*
X185901D02*
D03*
X349587Y157244D02*
D03*
X354901D02*
D03*
X404902Y237244D02*
D03*
X399587D02*
D03*
X404902Y243244D02*
D03*
X399587D02*
D03*
X344902Y181244D02*
D03*
X339587D02*
D03*
X350087Y197244D02*
D03*
X355401D02*
D03*
X339587D02*
D03*
X344901D02*
D03*
X360587Y152744D02*
D03*
X365901D02*
D03*
X169587Y337244D02*
D03*
X174901D02*
D03*
X224902Y417244D02*
D03*
X219587D02*
D03*
X224902Y423244D02*
D03*
X219587D02*
D03*
X164902Y361244D02*
D03*
X159587D02*
D03*
X170087Y377244D02*
D03*
X175401D02*
D03*
X159587D02*
D03*
X164901D02*
D03*
X180587Y332744D02*
D03*
X185901D02*
D03*
X349587Y337244D02*
D03*
X354901D02*
D03*
X404902Y417244D02*
D03*
X399587D02*
D03*
X404902Y423244D02*
D03*
X399587D02*
D03*
X344902Y361244D02*
D03*
X339587D02*
D03*
X350087Y377244D02*
D03*
X355401D02*
D03*
X339587D02*
D03*
X344901D02*
D03*
X360587Y332744D02*
D03*
X365901D02*
D03*
D63*
X189984Y199701D02*
D03*
X369984D02*
D03*
X189984Y379701D02*
D03*
X369984D02*
D03*
D64*
X182504Y199701D02*
D03*
X186244Y206787D02*
D03*
X362504Y199701D02*
D03*
X366244Y206787D02*
D03*
X182504Y379701D02*
D03*
X186244Y386787D02*
D03*
X362504Y379701D02*
D03*
X366244Y386787D02*
D03*
D65*
X216421Y196177D02*
D03*
X396421D02*
D03*
X216421Y376177D02*
D03*
X396421D02*
D03*
D66*
X213862Y196177D02*
D03*
X211303D02*
D03*
X208744D02*
D03*
X206185D02*
D03*
X203626D02*
D03*
X201067D02*
D03*
X216421Y219406D02*
D03*
X213862D02*
D03*
X211303D02*
D03*
X208744D02*
D03*
X206185D02*
D03*
X203626D02*
D03*
X201067D02*
D03*
X393862Y196177D02*
D03*
X391303D02*
D03*
X388744D02*
D03*
X386185D02*
D03*
X383626D02*
D03*
X381067D02*
D03*
X396421Y219406D02*
D03*
X393862D02*
D03*
X391303D02*
D03*
X388744D02*
D03*
X386185D02*
D03*
X383626D02*
D03*
X381067D02*
D03*
X213862Y376177D02*
D03*
X211303D02*
D03*
X208744D02*
D03*
X206185D02*
D03*
X203626D02*
D03*
X201067D02*
D03*
X216421Y399406D02*
D03*
X213862D02*
D03*
X211303D02*
D03*
X208744D02*
D03*
X206185D02*
D03*
X203626D02*
D03*
X201067D02*
D03*
X393862Y376177D02*
D03*
X391303D02*
D03*
X388744D02*
D03*
X386185D02*
D03*
X383626D02*
D03*
X381067D02*
D03*
X396421Y399406D02*
D03*
X393862D02*
D03*
X391303D02*
D03*
X388744D02*
D03*
X386185D02*
D03*
X383626D02*
D03*
X381067D02*
D03*
M02*
