G04 Layer_Color=12566272*
%FSLAX25Y25*%
%MOIN*%
G70*
G01*
G75*
%ADD40C,0.02000*%
%ADD117C,0.04724*%
D40*
X160800Y531193D02*
Y511200D01*
X170797D01*
X174129Y514532D01*
Y517865D01*
X170797Y521197D01*
X160800D01*
X170797D01*
X174129Y524529D01*
Y527861D01*
X170797Y531193D01*
X160800D01*
X184126Y511200D02*
X190790D01*
X194123Y514532D01*
Y521197D01*
X190790Y524529D01*
X184126D01*
X180793Y521197D01*
Y514532D01*
X184126Y511200D01*
X204119Y524529D02*
X210784D01*
X214116Y521197D01*
Y511200D01*
X204119D01*
X200787Y514532D01*
X204119Y517865D01*
X214116D01*
X220781Y524529D02*
Y511200D01*
Y517865D01*
X224113Y521197D01*
X227445Y524529D01*
X230777D01*
X254103Y531193D02*
Y511200D01*
X244106D01*
X240774Y514532D01*
Y521197D01*
X244106Y524529D01*
X254103D01*
X290758Y531193D02*
X284093D01*
X280761Y527861D01*
Y514532D01*
X284093Y511200D01*
X290758D01*
X294090Y514532D01*
Y527861D01*
X290758Y531193D01*
X300755Y524529D02*
Y514532D01*
X304087Y511200D01*
X314084D01*
Y524529D01*
X324081Y527861D02*
Y524529D01*
X320748D01*
X327413D01*
X324081D01*
Y514532D01*
X327413Y511200D01*
X337410D02*
X344074D01*
X340742D01*
Y531193D01*
X337410D01*
X354071Y511200D02*
X360735D01*
X357403D01*
Y524529D01*
X354071D01*
X370732Y511200D02*
Y524529D01*
X380729D01*
X384061Y521197D01*
Y511200D01*
X400723D02*
X394058D01*
X390726Y514532D01*
Y521197D01*
X394058Y524529D01*
X400723D01*
X404055Y521197D01*
Y517865D01*
X390726D01*
D117*
X357900Y124200D02*
X358000Y113200D01*
X358600Y112600D01*
X418000D01*
Y124200D01*
X357900D02*
X418000D01*
X361600Y290100D02*
X361900Y304300D01*
X361600Y290100D02*
X405600D01*
X405900Y289800D01*
X406000Y289900D01*
Y304500D01*
X362100D02*
X406000D01*
X361900Y304300D02*
X362100Y304500D01*
X182100Y112800D02*
Y124400D01*
Y112800D02*
X182800Y112100D01*
X235400D01*
Y123800D01*
X234800Y124400D02*
X235400Y123800D01*
X182100Y124400D02*
X234800D01*
X114600Y407900D02*
X125400Y407800D01*
X114600Y407900D02*
X114700Y407800D01*
Y357300D02*
Y407800D01*
Y357300D02*
X124600D01*
X125400Y358100D01*
Y407800D01*
X115000Y240000D02*
X125400D01*
X115000Y180000D02*
Y240000D01*
Y180000D02*
X125400D01*
Y240000D01*
X291000Y177000D02*
Y228000D01*
Y177000D02*
X305000D01*
Y228000D01*
X291000D02*
X305000D01*
X177100Y304500D02*
X235100D01*
Y290000D02*
Y304500D01*
X177100Y290000D02*
X235100D01*
X177100D02*
Y304500D01*
X291000Y134000D02*
Y150000D01*
X281500Y124500D02*
X291000Y134000D01*
X263000Y124500D02*
X281500D01*
X262500Y125000D02*
X263000Y124500D01*
X262500Y112500D02*
Y125000D01*
Y112500D02*
X332500D01*
X333000Y113000D01*
Y124000D01*
X315500D02*
X333000D01*
X305500Y134000D02*
X315500Y124000D01*
X305500Y134000D02*
Y150000D01*
X291000D02*
X305500D01*
X125000Y133000D02*
Y152500D01*
Y133000D02*
X125500D01*
X134500Y124000D01*
X135000Y124500D01*
X154500D01*
Y112000D02*
Y124500D01*
X154000Y112500D02*
X154500Y112000D01*
X115000Y112500D02*
X154000D01*
X115000D02*
Y152000D01*
X114500Y152500D02*
X115000Y152000D01*
X114500Y152500D02*
X125000D01*
X114550Y330100D02*
X114987Y265000D01*
X125500Y265000D01*
X125500Y280500D01*
X135000Y290000D01*
X149500D01*
Y304500D01*
X134500D02*
X149500D01*
X125500Y313500D02*
X134500Y304500D01*
X125500Y313500D02*
Y330100D01*
X114550D02*
X125500D01*
X290281Y401131D02*
X290900Y402700D01*
X290281Y401131D02*
X291107Y364800D01*
X305500D01*
Y402700D01*
X290900D02*
X305500D01*
X290500Y314000D02*
Y337500D01*
X281000Y304500D02*
X290500Y314000D01*
X262000Y304500D02*
X281000D01*
X262000Y290000D02*
Y304500D01*
Y290000D02*
X281000D01*
X291000Y280000D01*
Y255500D02*
Y280000D01*
Y255500D02*
X304500D01*
X305000Y255000D01*
Y280500D01*
X315000Y290500D01*
X334500D01*
Y304500D01*
X314500D02*
X334500D01*
X314500D02*
Y305000D01*
X305500Y314000D02*
X314500Y305000D01*
X305500Y314000D02*
Y337500D01*
X290500D02*
X305500D01*
X471000Y134000D02*
Y152500D01*
X461500Y124500D02*
X471000Y134000D01*
X444600Y124500D02*
X461500D01*
X444600Y112500D02*
Y124500D01*
Y112500D02*
X480000D01*
X482500Y115000D01*
Y152500D01*
X471000D02*
X482500D01*
X470500Y177500D02*
Y215000D01*
Y177500D02*
X482500D01*
Y215000D01*
X470500D02*
X482500D01*
X471000Y338100D02*
X482500D01*
Y242300D02*
Y338100D01*
X471000Y242300D02*
X482500D01*
X471000D02*
Y280000D01*
X470000D02*
X471000D01*
X459500Y290500D02*
X470000Y280000D01*
X432500Y290500D02*
X459500D01*
X432500D02*
Y304000D01*
X432000Y304500D02*
X432500Y304000D01*
X432000Y304500D02*
X461000D01*
X471000Y314500D01*
Y338100D01*
X471000Y400400D02*
X471000Y365000D01*
X482500D01*
X480000D02*
X482500D01*
X480000D02*
Y367500D01*
X480000Y400400D02*
X480000Y367500D01*
X471000Y400400D02*
X480000D01*
X435000Y470000D02*
Y480000D01*
X480000D01*
Y428000D02*
Y480000D01*
Y428000D02*
X480500Y427500D01*
X470500D02*
X480500D01*
X470500D02*
Y459500D01*
X471000Y460000D01*
X461000Y470000D02*
X471000Y460000D01*
X435000Y470000D02*
X461000D01*
X366100D02*
Y480000D01*
X409500D01*
Y470000D02*
Y480000D01*
X366100Y470000D02*
X409500D01*
X253900D02*
Y480000D01*
X338700D01*
Y470000D02*
Y480000D01*
X315000Y470000D02*
X338700D01*
X305000Y460000D02*
X315000Y470000D01*
X305000Y460000D02*
X305500Y459500D01*
Y430000D02*
Y459500D01*
X291000Y430000D02*
X305500D01*
X291000D02*
Y460000D01*
X290500D02*
X291000D01*
X280500Y470000D02*
X290500Y460000D01*
X253900Y470000D02*
X280500D01*
X190000D02*
X227500D01*
Y480000D01*
X190000D02*
X227500D01*
X190000Y470000D02*
Y480000D01*
X135500Y470000D02*
X157500D01*
X125500Y460000D02*
X135500Y470000D01*
X125000Y460000D02*
X125500D01*
X125000Y435000D02*
Y460000D01*
X115000Y435000D02*
X125000D01*
X115000D02*
Y480000D01*
X157500D01*
Y470000D02*
Y480000D01*
X100000Y100000D02*
X493700D01*
Y493700D01*
X100000D02*
X493700D01*
X100000Y100000D02*
Y493700D01*
M02*
