G04 Layer_Color=2752767*
%FSLAX25Y25*%
%MOIN*%
G70*
G01*
G75*
%ADD120C,0.00200*%
%ADD121C,0.00267*%
%ADD122C,0.00133*%
D120*
X124200Y259200D02*
Y260800D01*
X125800D01*
Y259200D01*
X124200D01*
Y264200D02*
Y265800D01*
X125800D01*
Y264200D01*
X124200D01*
Y254200D02*
Y255800D01*
X125800D01*
Y254200D01*
X124200D01*
Y249200D02*
Y250800D01*
X125800D01*
Y249200D01*
X124200D01*
Y244200D02*
Y245800D01*
X125800D01*
Y244200D01*
X124200D01*
Y239200D02*
Y240800D01*
X125800D01*
Y239200D01*
X124200D01*
X123800Y151700D02*
Y153300D01*
X125400D01*
Y151700D01*
X123800D01*
Y156700D02*
Y158300D01*
X125400D01*
Y156700D01*
X123800D01*
Y161700D02*
Y163300D01*
X125400D01*
Y161700D01*
X123800D01*
Y166700D02*
Y168300D01*
X125400D01*
Y166700D01*
X123800D01*
Y176700D02*
Y178300D01*
X125400D01*
Y176700D01*
X123800D01*
Y171700D02*
Y173300D01*
X125400D01*
Y171700D01*
X123800D01*
X289800Y149200D02*
Y150800D01*
X291400D01*
Y149200D01*
X289800D01*
Y154200D02*
Y155800D01*
X291400D01*
Y154200D01*
X289800D01*
Y159200D02*
Y160800D01*
X291400D01*
Y159200D01*
X289800D01*
Y164200D02*
Y165800D01*
X291400D01*
Y164200D01*
X289800D01*
Y174200D02*
Y175800D01*
X291400D01*
Y174200D01*
X289800D01*
Y169200D02*
Y170800D01*
X291400D01*
Y169200D01*
X289800D01*
X304300Y149200D02*
Y150800D01*
X305900D01*
Y149200D01*
X304300D01*
Y154200D02*
Y155800D01*
X305900D01*
Y154200D01*
X304300D01*
Y159200D02*
Y160800D01*
X305900D01*
Y159200D01*
X304300D01*
Y164200D02*
Y165800D01*
X305900D01*
Y164200D01*
X304300D01*
Y174200D02*
Y175800D01*
X305900D01*
Y174200D01*
X304300D01*
Y169200D02*
Y170800D01*
X305900D01*
Y169200D01*
X304300D01*
X290600Y229000D02*
Y230600D01*
X292200D01*
Y229000D01*
X290600D01*
Y234000D02*
Y235600D01*
X292200D01*
Y234000D01*
X290600D01*
Y239000D02*
Y240600D01*
X292200D01*
Y239000D01*
X290600D01*
Y244000D02*
Y245600D01*
X292200D01*
Y244000D01*
X290600D01*
Y254000D02*
Y255600D01*
X292200D01*
Y254000D01*
X290600D01*
Y249000D02*
Y250600D01*
X292200D01*
Y249000D01*
X290600D01*
X304000Y228500D02*
Y230100D01*
X305600D01*
Y228500D01*
X304000D01*
Y233500D02*
Y235100D01*
X305600D01*
Y233500D01*
X304000D01*
Y238500D02*
Y240100D01*
X305600D01*
Y238500D01*
X304000D01*
Y243500D02*
Y245100D01*
X305600D01*
Y243500D01*
X304000D01*
Y253500D02*
Y255100D01*
X305600D01*
Y253500D01*
X304000D01*
Y248500D02*
Y250100D01*
X305600D01*
Y248500D01*
X304000D01*
X124400Y408400D02*
Y410000D01*
X126000D01*
Y408400D01*
X124400D01*
Y413400D02*
Y415000D01*
X126000D01*
Y413400D01*
X124400D01*
Y418400D02*
Y420000D01*
X126000D01*
Y418400D01*
X124400D01*
Y423400D02*
Y425000D01*
X126000D01*
Y423400D01*
X124400D01*
Y433400D02*
Y435000D01*
X126000D01*
Y433400D01*
X124400D01*
Y428400D02*
Y430000D01*
X126000D01*
Y428400D01*
X124400D01*
X290400Y337500D02*
Y339100D01*
X292000D01*
Y337500D01*
X290400D01*
Y342500D02*
Y344100D01*
X292000D01*
Y342500D01*
X290400D01*
Y347500D02*
Y349100D01*
X292000D01*
Y347500D01*
X290400D01*
Y352500D02*
Y354100D01*
X292000D01*
Y352500D01*
X290400D01*
Y362500D02*
Y364100D01*
X292000D01*
Y362500D01*
X290400D01*
Y357500D02*
Y359100D01*
X292000D01*
Y357500D01*
X290400D01*
X290200Y403300D02*
Y404900D01*
X291800D01*
Y403300D01*
X290200D01*
Y408300D02*
Y409900D01*
X291800D01*
Y408300D01*
X290200D01*
Y413300D02*
Y414900D01*
X291800D01*
Y413300D01*
X290200D01*
Y418300D02*
Y419900D01*
X291800D01*
Y418300D01*
X290200D01*
Y428300D02*
Y429900D01*
X291800D01*
Y428300D01*
X290200D01*
Y423300D02*
Y424900D01*
X291800D01*
Y423300D01*
X290200D01*
X304100Y403700D02*
Y405300D01*
X305700D01*
Y403700D01*
X304100D01*
Y408700D02*
Y410300D01*
X305700D01*
Y408700D01*
X304100D01*
Y413700D02*
Y415300D01*
X305700D01*
Y413700D01*
X304100D01*
Y418700D02*
Y420300D01*
X305700D01*
Y418700D01*
X304100D01*
Y428700D02*
Y430300D01*
X305700D01*
Y428700D01*
X304100D01*
Y423700D02*
Y425300D01*
X305700D01*
Y423700D01*
X304100D01*
X303900Y337400D02*
Y339000D01*
X305500D01*
Y337400D01*
X303900D01*
Y342400D02*
Y344000D01*
X305500D01*
Y342400D01*
X303900D01*
Y347400D02*
Y349000D01*
X305500D01*
Y347400D01*
X303900D01*
Y352400D02*
Y354000D01*
X305500D01*
Y352400D01*
X303900D01*
Y362400D02*
Y364000D01*
X305500D01*
Y362400D01*
X303900D01*
Y357400D02*
Y359000D01*
X305500D01*
Y357400D01*
X303900D01*
X470400Y400600D02*
Y402200D01*
X472000D01*
Y400600D01*
X470400D01*
Y405600D02*
Y407200D01*
X472000D01*
Y405600D01*
X470400D01*
Y410600D02*
Y412200D01*
X472000D01*
Y410600D01*
X470400D01*
Y415600D02*
Y417200D01*
X472000D01*
Y415600D01*
X470400D01*
Y425600D02*
Y427200D01*
X472000D01*
Y425600D01*
X470400D01*
Y420600D02*
Y422200D01*
X472000D01*
Y420600D01*
X470400D01*
X470800Y338700D02*
Y340300D01*
X472400D01*
Y338700D01*
X470800D01*
Y343700D02*
Y345300D01*
X472400D01*
Y343700D01*
X470800D01*
Y348700D02*
Y350300D01*
X472400D01*
Y348700D01*
X470800D01*
Y353700D02*
Y355300D01*
X472400D01*
Y353700D01*
X470800D01*
Y363700D02*
Y365300D01*
X472400D01*
Y363700D01*
X470800D01*
Y358700D02*
Y360300D01*
X472400D01*
Y358700D01*
X470800D01*
Y215300D02*
Y216900D01*
X472400D01*
Y215300D01*
X470800D01*
Y220300D02*
Y221900D01*
X472400D01*
Y220300D01*
X470800D01*
Y225300D02*
Y226900D01*
X472400D01*
Y225300D01*
X470800D01*
Y230300D02*
Y231900D01*
X472400D01*
Y230300D01*
X470800D01*
Y240300D02*
Y241900D01*
X472400D01*
Y240300D01*
X470800D01*
Y235300D02*
Y236900D01*
X472400D01*
Y235300D01*
X470800D01*
X469800Y151700D02*
Y153300D01*
X471400D01*
Y151700D01*
X469800D01*
Y156700D02*
Y158300D01*
X471400D01*
Y156700D01*
X469800D01*
Y161700D02*
Y163300D01*
X471400D01*
Y161700D01*
X469800D01*
Y166700D02*
Y168300D01*
X471400D01*
Y166700D01*
X469800D01*
Y176700D02*
Y178300D01*
X471400D01*
Y176700D01*
X469800D01*
Y171700D02*
Y173300D01*
X471400D01*
Y171700D01*
X469800D01*
X442900Y123600D02*
Y125200D01*
X444500D01*
Y123600D01*
X442900D01*
X437900D02*
Y125200D01*
X439500D01*
Y123600D01*
X437900D01*
X432900D02*
Y125200D01*
X434500D01*
Y123600D01*
X432900D01*
X427900D02*
Y125200D01*
X429500D01*
Y123600D01*
X427900D01*
X417900D02*
Y125200D01*
X419500D01*
Y123600D01*
X417900D01*
X422900D02*
Y125200D01*
X424500D01*
Y123600D01*
X422900D01*
X356200Y123200D02*
Y124800D01*
X357800D01*
Y123200D01*
X356200D01*
X351200D02*
Y124800D01*
X352800D01*
Y123200D01*
X351200D01*
X346200D02*
Y124800D01*
X347800D01*
Y123200D01*
X346200D01*
X341200D02*
Y124800D01*
X342800D01*
Y123200D01*
X341200D01*
X331200D02*
Y124800D01*
X332800D01*
Y123200D01*
X331200D01*
X336200D02*
Y124800D01*
X337800D01*
Y123200D01*
X336200D01*
X359700Y289100D02*
Y290700D01*
X361300D01*
Y289100D01*
X359700D01*
X354700D02*
Y290700D01*
X356300D01*
Y289100D01*
X354700D01*
X349700D02*
Y290700D01*
X351300D01*
Y289100D01*
X349700D01*
X344700D02*
Y290700D01*
X346300D01*
Y289100D01*
X344700D01*
X334700D02*
Y290700D01*
X336300D01*
Y289100D01*
X334700D01*
X339700D02*
Y290700D01*
X341300D01*
Y289100D01*
X339700D01*
X431700Y289300D02*
Y290900D01*
X433300D01*
Y289300D01*
X431700D01*
X426700D02*
Y290900D01*
X428300D01*
Y289300D01*
X426700D01*
X421700D02*
Y290900D01*
X423300D01*
Y289300D01*
X421700D01*
X416700D02*
Y290900D01*
X418300D01*
Y289300D01*
X416700D01*
X406700D02*
Y290900D01*
X408300D01*
Y289300D01*
X406700D01*
X411700D02*
Y290900D01*
X413300D01*
Y289300D01*
X411700D01*
X430600Y302900D02*
Y304500D01*
X432200D01*
Y302900D01*
X430600D01*
X425600D02*
Y304500D01*
X427200D01*
Y302900D01*
X425600D01*
X420600D02*
Y304500D01*
X422200D01*
Y302900D01*
X420600D01*
X415600D02*
Y304500D01*
X417200D01*
Y302900D01*
X415600D01*
X405600D02*
Y304500D01*
X407200D01*
Y302900D01*
X405600D01*
X410600D02*
Y304500D01*
X412200D01*
Y302900D01*
X410600D01*
X359800Y303700D02*
Y305300D01*
X361400D01*
Y303700D01*
X359800D01*
X354800D02*
Y305300D01*
X356400D01*
Y303700D01*
X354800D01*
X349800D02*
Y305300D01*
X351400D01*
Y303700D01*
X349800D01*
X344800D02*
Y305300D01*
X346400D01*
Y303700D01*
X344800D01*
X334800D02*
Y305300D01*
X336400D01*
Y303700D01*
X334800D01*
X339800D02*
Y305300D01*
X341400D01*
Y303700D01*
X339800D01*
X364200Y468800D02*
Y470400D01*
X365800D01*
Y468800D01*
X364200D01*
X359200D02*
Y470400D01*
X360800D01*
Y468800D01*
X359200D01*
X354200D02*
Y470400D01*
X355800D01*
Y468800D01*
X354200D01*
X349200D02*
Y470400D01*
X350800D01*
Y468800D01*
X349200D01*
X339200D02*
Y470400D01*
X340800D01*
Y468800D01*
X339200D01*
X344200D02*
Y470400D01*
X345800D01*
Y468800D01*
X344200D01*
X434200D02*
Y470400D01*
X435800D01*
Y468800D01*
X434200D01*
X429200D02*
Y470400D01*
X430800D01*
Y468800D01*
X429200D01*
X424200D02*
Y470400D01*
X425800D01*
Y468800D01*
X424200D01*
X419200D02*
Y470400D01*
X420800D01*
Y468800D01*
X419200D01*
X409200D02*
Y470400D01*
X410800D01*
Y468800D01*
X409200D01*
X414200D02*
Y470400D01*
X415800D01*
Y468800D01*
X414200D01*
X251800D02*
Y470400D01*
X253400D01*
Y468800D01*
X251800D01*
X246800D02*
Y470400D01*
X248400D01*
Y468800D01*
X246800D01*
X241800D02*
Y470400D01*
X243400D01*
Y468800D01*
X241800D01*
X236800D02*
Y470400D01*
X238400D01*
Y468800D01*
X236800D01*
X226800D02*
Y470400D01*
X228400D01*
Y468800D01*
X226800D01*
X231800D02*
Y470400D01*
X233400D01*
Y468800D01*
X231800D01*
X182400Y469000D02*
Y470600D01*
X184000D01*
Y469000D01*
X182400D01*
X177400D02*
Y470600D01*
X179000D01*
Y469000D01*
X177400D01*
X172400D02*
Y470600D01*
X174000D01*
Y469000D01*
X172400D01*
X167400D02*
Y470600D01*
X169000D01*
Y469000D01*
X167400D01*
X157400D02*
Y470600D01*
X159000D01*
Y469000D01*
X157400D01*
X162400D02*
Y470600D01*
X164000D01*
Y469000D01*
X162400D01*
X174700Y303100D02*
Y304700D01*
X176300D01*
Y303100D01*
X174700D01*
X169700D02*
Y304700D01*
X171300D01*
Y303100D01*
X169700D01*
X164700D02*
Y304700D01*
X166300D01*
Y303100D01*
X164700D01*
X159700D02*
Y304700D01*
X161300D01*
Y303100D01*
X159700D01*
X149700D02*
Y304700D01*
X151300D01*
Y303100D01*
X149700D01*
X154700D02*
Y304700D01*
X156300D01*
Y303100D01*
X154700D01*
X174900Y289300D02*
Y290900D01*
X176500D01*
Y289300D01*
X174900D01*
X169900D02*
Y290900D01*
X171500D01*
Y289300D01*
X169900D01*
X164900D02*
Y290900D01*
X166500D01*
Y289300D01*
X164900D01*
X159900D02*
Y290900D01*
X161500D01*
Y289300D01*
X159900D01*
X149900D02*
Y290900D01*
X151500D01*
Y289300D01*
X149900D01*
X154900D02*
Y290900D01*
X156500D01*
Y289300D01*
X154900D01*
X260100Y302500D02*
Y304100D01*
X261700D01*
Y302500D01*
X260100D01*
X255100D02*
Y304100D01*
X256700D01*
Y302500D01*
X255100D01*
X250100D02*
Y304100D01*
X251700D01*
Y302500D01*
X250100D01*
X245100D02*
Y304100D01*
X246700D01*
Y302500D01*
X245100D01*
X235100D02*
Y304100D01*
X236700D01*
Y302500D01*
X235100D01*
X240100D02*
Y304100D01*
X241700D01*
Y302500D01*
X240100D01*
X260300Y289300D02*
Y290900D01*
X261900D01*
Y289300D01*
X260300D01*
X255300D02*
Y290900D01*
X256900D01*
Y289300D01*
X255300D01*
X250300D02*
Y290900D01*
X251900D01*
Y289300D01*
X250300D01*
X245300D02*
Y290900D01*
X246900D01*
Y289300D01*
X245300D01*
X235300D02*
Y290900D01*
X236900D01*
Y289300D01*
X235300D01*
X240300D02*
Y290900D01*
X241900D01*
Y289300D01*
X240300D01*
X260500Y123000D02*
Y124600D01*
X262100D01*
Y123000D01*
X260500D01*
X255500D02*
Y124600D01*
X257100D01*
Y123000D01*
X255500D01*
X250500D02*
Y124600D01*
X252100D01*
Y123000D01*
X250500D01*
X245500D02*
Y124600D01*
X247100D01*
Y123000D01*
X245500D01*
X235500D02*
Y124600D01*
X237100D01*
Y123000D01*
X235500D01*
X240500D02*
Y124600D01*
X242100D01*
Y123000D01*
X240500D01*
X179700Y123200D02*
Y124800D01*
X181300D01*
Y123200D01*
X179700D01*
X174700D02*
Y124800D01*
X176300D01*
Y123200D01*
X174700D01*
X169700D02*
Y124800D01*
X171300D01*
Y123200D01*
X169700D01*
X164700D02*
Y124800D01*
X166300D01*
Y123200D01*
X164700D01*
X154700D02*
Y124800D01*
X156300D01*
Y123200D01*
X154700D01*
X159700D02*
Y124800D01*
X161300D01*
Y123200D01*
X159700D01*
X124300Y350900D02*
Y352500D01*
X125900D01*
Y350900D01*
X124300D01*
Y355900D02*
Y357500D01*
X125900D01*
Y355900D01*
X124300D01*
Y345900D02*
Y347500D01*
X125900D01*
Y345900D01*
X124300D01*
Y340900D02*
Y342500D01*
X125900D01*
Y340900D01*
X124300D01*
Y335900D02*
Y337500D01*
X125900D01*
Y335900D01*
X124300D01*
Y330900D02*
Y332500D01*
X125900D01*
Y330900D01*
X124300D01*
X133008Y181164D02*
X132208Y182764D01*
X133808D01*
X133008Y181164D01*
X144031Y185101D02*
X144431Y185501D01*
X144831D01*
X144431Y185901D01*
X144831Y186301D01*
X144431D01*
X144031Y186701D01*
X143631Y186301D01*
X143231D01*
X143631Y185901D01*
X143231Y185501D01*
X143631D01*
X144031Y185101D01*
Y204787D02*
X144431Y205187D01*
X144831D01*
X144431Y205587D01*
X144831Y205987D01*
X144431D01*
X144031Y206387D01*
X143631Y205987D01*
X143231D01*
X143631Y205587D01*
X143231Y205187D01*
X143631D01*
X144031Y204787D01*
X133008Y208724D02*
X132208Y210324D01*
X133808D01*
X133008Y208724D01*
X131244Y221544D02*
X131644Y222344D01*
X131244Y223144D01*
X132044Y222744D01*
X132844Y223144D01*
X132444Y222344D01*
X132844Y221544D01*
X132044Y221944D01*
X131244Y221544D01*
Y231544D02*
X131644Y232344D01*
X131244Y233144D01*
X132044Y232744D01*
X132844Y233144D01*
X132444Y232344D01*
X132844Y231544D01*
X132044Y231944D01*
X131244Y231544D01*
Y241544D02*
X131644Y242344D01*
X131244Y243144D01*
X132044Y242744D01*
X132844Y243144D01*
X132444Y242344D01*
X132844Y241544D01*
X132044Y241944D01*
X131244Y241544D01*
Y251544D02*
X131644Y252344D01*
X131244Y253144D01*
X132044Y252744D01*
X132844Y253144D01*
X132444Y252344D01*
X132844Y251544D01*
X132044Y251944D01*
X131244Y251544D01*
X141344Y166344D02*
Y165944D01*
X142144D01*
Y166344D01*
X142544D01*
Y167144D01*
X142144D01*
Y167544D01*
X141344D01*
Y167144D01*
X140944D01*
Y166344D01*
X141344D01*
Y171344D02*
Y170944D01*
X142144D01*
Y171344D01*
X142544D01*
Y172144D01*
X142144D01*
Y172544D01*
X141344D01*
Y172144D01*
X140944D01*
Y171344D01*
X141344D01*
X146344Y166344D02*
Y165944D01*
X147144D01*
Y166344D01*
X147544D01*
Y167144D01*
X147144D01*
Y167544D01*
X146344D01*
Y167144D01*
X145944D01*
Y166344D01*
X146344D01*
Y171344D02*
Y170944D01*
X147144D01*
Y171344D01*
X147544D01*
Y172144D01*
X147144D01*
Y172544D01*
X146344D01*
Y172144D01*
X145944D01*
Y171344D01*
X146344D01*
X151344Y166344D02*
Y165944D01*
X152144D01*
Y166344D01*
X152544D01*
Y167144D01*
X152144D01*
Y167544D01*
X151344D01*
Y167144D01*
X150944D01*
Y166344D01*
X151344D01*
Y171344D02*
Y170944D01*
X152144D01*
Y171344D01*
X152544D01*
Y172144D01*
X152144D01*
Y172544D01*
X151344D01*
Y172144D01*
X150944D01*
Y171344D01*
X151344D01*
X156344Y166344D02*
Y165944D01*
X157144D01*
Y166344D01*
X157544D01*
Y167144D01*
X157144D01*
Y167544D01*
X156344D01*
Y167144D01*
X155944D01*
Y166344D01*
X156344D01*
Y171344D02*
Y170944D01*
X157144D01*
Y171344D01*
X157544D01*
Y172144D01*
X157144D01*
Y172544D01*
X156344D01*
Y172144D01*
X155944D01*
Y171344D01*
X156344D01*
X161344Y166344D02*
Y165944D01*
X162144D01*
Y166344D01*
X162544D01*
Y167144D01*
X162144D01*
Y167544D01*
X161344D01*
Y167144D01*
X160944D01*
Y166344D01*
X161344D01*
Y171344D02*
Y170944D01*
X162144D01*
Y171344D01*
X162544D01*
Y172144D01*
X162144D01*
Y172544D01*
X161344D01*
Y172144D01*
X160944D01*
Y171344D01*
X161344D01*
X234444Y251944D02*
X234844Y252744D01*
X234444Y253544D01*
X235244Y253144D01*
X236044Y253544D01*
X235644Y252744D01*
X236044Y251944D01*
X235244Y252344D01*
X234444Y251944D01*
X224444D02*
X224844Y252744D01*
X224444Y253544D01*
X225244Y253144D01*
X226044Y253544D01*
X225644Y252744D01*
X226044Y251944D01*
X225244Y252344D01*
X224444Y251944D01*
X214444D02*
X214844Y252744D01*
X214444Y253544D01*
X215244Y253144D01*
X216044Y253544D01*
X215644Y252744D01*
X216044Y251944D01*
X215244Y252344D01*
X214444Y251944D01*
X204444D02*
X204844Y252744D01*
X204444Y253544D01*
X205244Y253144D01*
X206044Y253544D01*
X205644Y252744D01*
X206044Y251944D01*
X205244Y252344D01*
X204444Y251944D01*
X282700Y160400D02*
X283100D01*
X283500Y160800D01*
X283900Y160400D01*
X284300D01*
Y160800D01*
X283900Y161200D01*
X284300Y161600D01*
Y162000D01*
X283900D01*
X283500Y161600D01*
X283100Y162000D01*
X282700D01*
Y161600D01*
X283100Y161200D01*
X282700Y160800D01*
Y160400D01*
Y170400D02*
X283100D01*
X283500Y170800D01*
X283900Y170400D01*
X284300D01*
Y170800D01*
X283900Y171200D01*
X284300Y171600D01*
Y172000D01*
X283900D01*
X283500Y171600D01*
X283100Y172000D01*
X282700D01*
Y171600D01*
X283100Y171200D01*
X282700Y170800D01*
Y170400D01*
Y180400D02*
X283100D01*
X283500Y180800D01*
X283900Y180400D01*
X284300D01*
Y180800D01*
X283900Y181200D01*
X284300Y181600D01*
Y182000D01*
X283900D01*
X283500Y181600D01*
X283100Y182000D01*
X282700D01*
Y181600D01*
X283100Y181200D01*
X282700Y180800D01*
Y180400D01*
Y190400D02*
X283100D01*
X283500Y190800D01*
X283900Y190400D01*
X284300D01*
Y190800D01*
X283900Y191200D01*
X284300Y191600D01*
Y192000D01*
X283900D01*
X283500Y191600D01*
X283100Y192000D01*
X282700D01*
Y191600D01*
X283100Y191200D01*
X282700Y190800D01*
Y190400D01*
Y200400D02*
X283100D01*
X283500Y200800D01*
X283900Y200400D01*
X284300D01*
Y200800D01*
X283900Y201200D01*
X284300Y201600D01*
Y202000D01*
X283900D01*
X283500Y201600D01*
X283100Y202000D01*
X282700D01*
Y201600D01*
X283100Y201200D01*
X282700Y200800D01*
Y200400D01*
Y210400D02*
X283100D01*
X283500Y210800D01*
X283900Y210400D01*
X284300D01*
Y210800D01*
X283900Y211200D01*
X284300Y211600D01*
Y212000D01*
X283900D01*
X283500Y211600D01*
X283100Y212000D01*
X282700D01*
Y211600D01*
X283100Y211200D01*
X282700Y210800D01*
Y210400D01*
Y220400D02*
X283100D01*
X283500Y220800D01*
X283900Y220400D01*
X284300D01*
Y220800D01*
X283900Y221200D01*
X284300Y221600D01*
Y222000D01*
X283900D01*
X283500Y221600D01*
X283100Y222000D01*
X282700D01*
Y221600D01*
X283100Y221200D01*
X282700Y220800D01*
Y220400D01*
Y230400D02*
X283100D01*
X283500Y230800D01*
X283900Y230400D01*
X284300D01*
Y230800D01*
X283900Y231200D01*
X284300Y231600D01*
Y232000D01*
X283900D01*
X283500Y231600D01*
X283100Y232000D01*
X282700D01*
Y231600D01*
X283100Y231200D01*
X282700Y230800D01*
Y230400D01*
Y240400D02*
X283100D01*
X283500Y240800D01*
X283900Y240400D01*
X284300D01*
Y240800D01*
X283900Y241200D01*
X284300Y241600D01*
Y242000D01*
X283900D01*
X283500Y241600D01*
X283100Y242000D01*
X282700D01*
Y241600D01*
X283100Y241200D01*
X282700Y240800D01*
Y240400D01*
Y250400D02*
X283100D01*
X283500Y250800D01*
X283900Y250400D01*
X284300D01*
Y250800D01*
X283900Y251200D01*
X284300Y251600D01*
Y252000D01*
X283900D01*
X283500Y251600D01*
X283100Y252000D01*
X282700D01*
Y251600D01*
X283100Y251200D01*
X282700Y250800D01*
Y250400D01*
X234944Y276244D02*
X235744Y277044D01*
X236544Y276244D01*
X235744Y275444D01*
X234944Y276244D01*
X214944D02*
X215744Y277044D01*
X216544Y276244D01*
X215744Y275444D01*
X214944Y276244D01*
X149444Y206944D02*
Y208544D01*
X151044D01*
Y206944D01*
X149444D01*
X149844Y207344D02*
Y208144D01*
X150644D01*
Y207344D01*
X149844D01*
X248600Y228905D02*
Y230505D01*
X250200D01*
Y228905D01*
X248600D01*
X249000Y229305D02*
Y230105D01*
X249800D01*
Y229305D01*
X249000D01*
X183700Y143095D02*
Y144695D01*
X185300D01*
Y143095D01*
X183700D01*
X184100Y143495D02*
Y144295D01*
X184900D01*
Y143495D01*
X184100D01*
X190000Y216500D02*
Y218100D01*
X191600D01*
Y216500D01*
X190000D01*
X190400Y216900D02*
Y217700D01*
X191200D01*
Y216900D01*
X190400D01*
X183187Y167609D02*
Y169209D01*
X184787D01*
Y167609D01*
X183187D01*
X183587Y168009D02*
Y168809D01*
X184387D01*
Y168009D01*
X183587D01*
X233141Y224483D02*
Y226083D01*
X234741D01*
Y224483D01*
X233141D01*
X233541Y224883D02*
Y225683D01*
X234341D01*
Y224883D01*
X233541D01*
X231800Y164300D02*
Y165900D01*
X233400D01*
Y164300D01*
X231800D01*
X232200Y164700D02*
Y165500D01*
X233000D01*
Y164700D01*
X232200D01*
X194900Y229400D02*
Y231000D01*
X196500D01*
Y229400D01*
X194900D01*
X195300Y229800D02*
Y230600D01*
X196100D01*
Y229800D01*
X195300D01*
X185500Y199800D02*
Y201400D01*
X187100D01*
Y199800D01*
X185500D01*
X185900Y200200D02*
Y201000D01*
X186700D01*
Y200200D01*
X185900D01*
X225618Y162200D02*
Y163800D01*
X227218D01*
Y162200D01*
X225618D01*
X226018Y162600D02*
Y163400D01*
X226818D01*
Y162600D01*
X226018D01*
X172300Y190500D02*
Y192100D01*
X173900D01*
Y190500D01*
X172300D01*
X172700Y190900D02*
Y191700D01*
X173500D01*
Y190900D01*
X172700D01*
X193900Y140600D02*
Y142200D01*
X195500D01*
Y140600D01*
X193900D01*
X194300Y141000D02*
Y141800D01*
X195100D01*
Y141000D01*
X194300D01*
X165200Y164500D02*
Y166100D01*
X166800D01*
Y164500D01*
X165200D01*
X165600Y164900D02*
Y165700D01*
X166400D01*
Y164900D01*
X165600D01*
X191800Y152300D02*
Y153900D01*
X193400D01*
Y152300D01*
X191800D01*
X192200Y152700D02*
Y153500D01*
X193000D01*
Y152700D01*
X192200D01*
X188100Y151600D02*
Y153200D01*
X189700D01*
Y151600D01*
X188100D01*
X188500Y152000D02*
Y152800D01*
X189300D01*
Y152000D01*
X188500D01*
X197100Y145386D02*
Y146986D01*
X198700D01*
Y145386D01*
X197100D01*
X197500Y145786D02*
Y146586D01*
X198300D01*
Y145786D01*
X197500D01*
X191800Y148700D02*
Y150300D01*
X193400D01*
Y148700D01*
X191800D01*
X192200Y149100D02*
Y149900D01*
X193000D01*
Y149100D01*
X192200D01*
X177200Y155800D02*
Y157400D01*
X178800D01*
Y155800D01*
X177200D01*
X177600Y156200D02*
Y157000D01*
X178400D01*
Y156200D01*
X177600D01*
X153800Y180444D02*
Y182044D01*
X155400D01*
Y180444D01*
X153800D01*
X154200Y180844D02*
Y181644D01*
X155000D01*
Y180844D01*
X154200D01*
X140444Y245444D02*
Y247044D01*
X142044D01*
Y245444D01*
X140444D01*
X140844Y245844D02*
Y246644D01*
X141644D01*
Y245844D01*
X140844D01*
X140244Y225744D02*
Y227344D01*
X141844D01*
Y225744D01*
X140244D01*
X140644Y226144D02*
Y226944D01*
X141444D01*
Y226144D01*
X140644D01*
X148444Y245544D02*
Y247144D01*
X150044D01*
Y245544D01*
X148444D01*
X148844Y245944D02*
Y246744D01*
X149644D01*
Y245944D01*
X148844D01*
Y225844D02*
Y227444D01*
X150444D01*
Y225844D01*
X148844D01*
X149244Y226244D02*
Y227044D01*
X150044D01*
Y226244D01*
X149244D01*
X171644Y233244D02*
Y234844D01*
X173244D01*
Y233244D01*
X171644D01*
X172044Y233644D02*
Y234444D01*
X172844D01*
Y233644D01*
X172044D01*
X165844Y233244D02*
Y234844D01*
X167444D01*
Y233244D01*
X165844D01*
X166244Y233644D02*
Y234444D01*
X167044D01*
Y233644D01*
X166244D01*
X165944Y260844D02*
Y262444D01*
X167544D01*
Y260844D01*
X165944D01*
X166344Y261244D02*
Y262044D01*
X167144D01*
Y261244D01*
X166344D01*
X166244Y267644D02*
Y269244D01*
X167844D01*
Y267644D01*
X166244D01*
X166644Y268044D02*
Y268844D01*
X167444D01*
Y268044D01*
X166644D01*
X165844Y264144D02*
Y265744D01*
X167444D01*
Y264144D01*
X165844D01*
X166244Y264544D02*
Y265344D01*
X167044D01*
Y264544D01*
X166244D01*
X168744Y233244D02*
Y234844D01*
X170344D01*
Y233244D01*
X168744D01*
X169144Y233644D02*
Y234444D01*
X169944D01*
Y233644D01*
X169144D01*
X179444Y259944D02*
Y261544D01*
X181044D01*
Y259944D01*
X179444D01*
X179844Y260344D02*
Y261144D01*
X180644D01*
Y260344D01*
X179844D01*
X187444Y259944D02*
Y261544D01*
X189044D01*
Y259944D01*
X187444D01*
X187844Y260344D02*
Y261144D01*
X188644D01*
Y260344D01*
X187844D01*
X195444Y263944D02*
Y265544D01*
X197044D01*
Y263944D01*
X195444D01*
X195844Y264344D02*
Y265144D01*
X196644D01*
Y264344D01*
X195844D01*
X175444Y267944D02*
Y269544D01*
X177044D01*
Y267944D01*
X175444D01*
X175844Y268344D02*
Y269144D01*
X176644D01*
Y268344D01*
X175844D01*
X191444Y267944D02*
Y269544D01*
X193044D01*
Y267944D01*
X191444D01*
X191844Y268344D02*
Y269144D01*
X192644D01*
Y268344D01*
X191844D01*
X195444Y267944D02*
Y269544D01*
X197044D01*
Y267944D01*
X195444D01*
X195844Y268344D02*
Y269144D01*
X196644D01*
Y268344D01*
X195844D01*
X199444Y263944D02*
Y265544D01*
X201044D01*
Y263944D01*
X199444D01*
X199844Y264344D02*
Y265144D01*
X200644D01*
Y264344D01*
X199844D01*
X229700Y167609D02*
Y169209D01*
X231300D01*
Y167609D01*
X229700D01*
X230100Y168009D02*
Y168809D01*
X230900D01*
Y168009D01*
X230100D01*
X251400Y161900D02*
Y163500D01*
X253000D01*
Y161900D01*
X251400D01*
X251800Y162300D02*
Y163100D01*
X252600D01*
Y162300D01*
X251800D01*
X243100Y236400D02*
Y238000D01*
X244700D01*
Y236400D01*
X243100D01*
X243500Y236800D02*
Y237600D01*
X244300D01*
Y236800D01*
X243500D01*
X257944Y201900D02*
Y203500D01*
X259544D01*
Y201900D01*
X257944D01*
X258344Y202300D02*
Y203100D01*
X259144D01*
Y202300D01*
X258344D01*
X254300Y189600D02*
Y191200D01*
X255900D01*
Y189600D01*
X254300D01*
X254700Y190000D02*
Y190800D01*
X255500D01*
Y190000D01*
X254700D01*
X248300Y196100D02*
Y197700D01*
X249900D01*
Y196100D01*
X248300D01*
X248700Y196500D02*
Y197300D01*
X249500D01*
Y196500D01*
X248700D01*
X238100Y219900D02*
Y221500D01*
X239700D01*
Y219900D01*
X238100D01*
X238500Y220300D02*
Y221100D01*
X239300D01*
Y220300D01*
X238500D01*
X238100Y185244D02*
Y186844D01*
X239700D01*
Y185244D01*
X238100D01*
X238500Y185644D02*
Y186444D01*
X239300D01*
Y185644D01*
X238500D01*
X233900Y187300D02*
Y188900D01*
X235500D01*
Y187300D01*
X233900D01*
X234300Y187700D02*
Y188500D01*
X235100D01*
Y187700D01*
X234300D01*
X272100Y204400D02*
Y206000D01*
X273700D01*
Y204400D01*
X272100D01*
X272500Y204800D02*
Y205600D01*
X273300D01*
Y204800D01*
X272500D01*
X245100Y172100D02*
Y173700D01*
X246700D01*
Y172100D01*
X245100D01*
X245500Y172500D02*
Y173300D01*
X246300D01*
Y172500D01*
X245500D01*
X244700Y185800D02*
Y187400D01*
X246300D01*
Y185800D01*
X244700D01*
X245100Y186200D02*
Y187000D01*
X245900D01*
Y186200D01*
X245100D01*
X245300Y199900D02*
Y201500D01*
X246900D01*
Y199900D01*
X245300D01*
X245700Y200300D02*
Y201100D01*
X246500D01*
Y200300D01*
X245700D01*
X228100Y159300D02*
Y160900D01*
X229700D01*
Y159300D01*
X228100D01*
X228500Y159700D02*
Y160500D01*
X229300D01*
Y159700D01*
X228500D01*
X229900Y210400D02*
Y212000D01*
X231500D01*
Y210400D01*
X229900D01*
X230300Y210800D02*
Y211600D01*
X231100D01*
Y210800D01*
X230300D01*
X233900Y191400D02*
Y193000D01*
X235500D01*
Y191400D01*
X233900D01*
X234300Y191800D02*
Y192600D01*
X235100D01*
Y191800D01*
X234300D01*
X265900Y181000D02*
Y182600D01*
X267500D01*
Y181000D01*
X265900D01*
X266300Y181400D02*
Y182200D01*
X267100D01*
Y181400D01*
X266300D01*
X174444Y201444D02*
Y203044D01*
X176044D01*
Y201444D01*
X174444D01*
X174844Y201844D02*
Y202644D01*
X175644D01*
Y201844D01*
X174844D01*
X158287Y201944D02*
Y203544D01*
X159887D01*
Y201944D01*
X158287D01*
X158687Y202344D02*
Y203144D01*
X159487D01*
Y202344D01*
X158687D01*
X211944Y184944D02*
Y186544D01*
X213544D01*
Y184944D01*
X211944D01*
X212344Y185344D02*
Y186144D01*
X213144D01*
Y185344D01*
X212344D01*
X219444Y188944D02*
Y190544D01*
X221044D01*
Y188944D01*
X219444D01*
X219844Y189344D02*
Y190144D01*
X220644D01*
Y189344D01*
X219844D01*
X220944Y184444D02*
Y186044D01*
X222544D01*
Y184444D01*
X220944D01*
X221344Y184844D02*
Y185644D01*
X222144D01*
Y184844D01*
X221344D01*
X216944Y186444D02*
Y188044D01*
X218544D01*
Y186444D01*
X216944D01*
X217344Y186844D02*
Y187644D01*
X218144D01*
Y186844D01*
X217344D01*
X216944Y149444D02*
Y151044D01*
X218544D01*
Y149444D01*
X216944D01*
X217344Y149844D02*
Y150644D01*
X218144D01*
Y149844D01*
X217344D01*
X221500Y151030D02*
Y152630D01*
X223100D01*
Y151030D01*
X221500D01*
X221900Y151430D02*
Y152230D01*
X222700D01*
Y151430D01*
X221900D01*
X219400Y156444D02*
Y158044D01*
X221000D01*
Y156444D01*
X219400D01*
X219800Y156844D02*
Y157644D01*
X220600D01*
Y156844D01*
X219800D01*
X206944Y187944D02*
Y189544D01*
X208544D01*
Y187944D01*
X206944D01*
X207344Y188344D02*
Y189144D01*
X208144D01*
Y188344D01*
X207344D01*
X202944Y177444D02*
Y179044D01*
X204544D01*
Y177444D01*
X202944D01*
X203344Y177844D02*
Y178644D01*
X204144D01*
Y177844D01*
X203344D01*
X223600Y226444D02*
Y228044D01*
X225200D01*
Y226444D01*
X223600D01*
X224000Y226844D02*
Y227644D01*
X224800D01*
Y226844D01*
X224000D01*
X202944Y189444D02*
Y191044D01*
X204544D01*
Y189444D01*
X202944D01*
X203344Y189844D02*
Y190644D01*
X204144D01*
Y189844D01*
X203344D01*
X198944Y187444D02*
Y189044D01*
X200544D01*
Y187444D01*
X198944D01*
X199344Y187844D02*
Y188644D01*
X200144D01*
Y187844D01*
X199344D01*
X182444Y186444D02*
Y188044D01*
X184044D01*
Y186444D01*
X182444D01*
X182844Y186844D02*
Y187644D01*
X183644D01*
Y186844D01*
X182844D01*
X186444Y180444D02*
Y182044D01*
X188044D01*
Y180444D01*
X186444D01*
X186844Y180844D02*
Y181644D01*
X187644D01*
Y180844D01*
X186844D01*
X177944Y199944D02*
Y201544D01*
X179544D01*
Y199944D01*
X177944D01*
X178344Y200344D02*
Y201144D01*
X179144D01*
Y200344D01*
X178344D01*
X201600Y164444D02*
Y166044D01*
X203200D01*
Y164444D01*
X201600D01*
X202000Y164844D02*
Y165644D01*
X202800D01*
Y164844D01*
X202000D01*
X188944Y184444D02*
Y186044D01*
X190544D01*
Y184444D01*
X188944D01*
X189344Y184844D02*
Y185644D01*
X190144D01*
Y184844D01*
X189344D01*
X212444Y147944D02*
Y149544D01*
X214044D01*
Y147944D01*
X212444D01*
X212844Y148344D02*
Y149144D01*
X213644D01*
Y148344D01*
X212844D01*
X213944Y141444D02*
Y143044D01*
X215544D01*
Y141444D01*
X213944D01*
X214344Y141844D02*
Y142644D01*
X215144D01*
Y141844D01*
X214344D01*
X241818Y147944D02*
Y149544D01*
X243418D01*
Y147944D01*
X241818D01*
X242218Y148344D02*
Y149144D01*
X243018D01*
Y148344D01*
X242218D01*
X214444Y242444D02*
Y244044D01*
X216044D01*
Y242444D01*
X214444D01*
X214844Y242844D02*
Y243644D01*
X215644D01*
Y242844D01*
X214844D01*
X200444Y238944D02*
Y240544D01*
X202044D01*
Y238944D01*
X200444D01*
X200844Y239344D02*
Y240144D01*
X201644D01*
Y239344D01*
X200844D01*
X201444Y235444D02*
Y237044D01*
X203044D01*
Y235444D01*
X201444D01*
X201844Y235844D02*
Y236644D01*
X202644D01*
Y235844D01*
X201844D01*
X198944Y242444D02*
Y244044D01*
X200544D01*
Y242444D01*
X198944D01*
X199344Y242844D02*
Y243644D01*
X200144D01*
Y242844D01*
X199344D01*
X200444Y228444D02*
Y230044D01*
X202044D01*
Y228444D01*
X200444D01*
X200844Y228844D02*
Y229644D01*
X201644D01*
Y228844D01*
X200844D01*
X197944Y233444D02*
Y235044D01*
X199544D01*
Y233444D01*
X197944D01*
X198344Y233844D02*
Y234644D01*
X199144D01*
Y233844D01*
X198344D01*
X189444Y225100D02*
Y226700D01*
X191044D01*
Y225100D01*
X189444D01*
X189844Y225500D02*
Y226300D01*
X190644D01*
Y225500D01*
X189844D01*
X231444Y237444D02*
Y239044D01*
X233044D01*
Y237444D01*
X231444D01*
X231844Y237844D02*
Y238644D01*
X232644D01*
Y237844D01*
X231844D01*
X254444Y214444D02*
Y216044D01*
X256044D01*
Y214444D01*
X254444D01*
X254844Y214844D02*
Y215644D01*
X255644D01*
Y214844D01*
X254844D01*
X233944Y201944D02*
Y203544D01*
X235544D01*
Y201944D01*
X233944D01*
X234344Y202344D02*
Y203144D01*
X235144D01*
Y202344D01*
X234344D01*
X197744Y199089D02*
Y200689D01*
X199344D01*
Y199089D01*
X197744D01*
X198144Y199489D02*
Y200289D01*
X198944D01*
Y199489D01*
X198144D01*
X140444Y231444D02*
Y233044D01*
X142044D01*
Y231444D01*
X140444D01*
X140844Y231844D02*
Y232644D01*
X141644D01*
Y231844D01*
X140844D01*
X149444Y231444D02*
Y233044D01*
X151044D01*
Y231444D01*
X149444D01*
X149844Y231844D02*
Y232644D01*
X150644D01*
Y231844D01*
X149844D01*
X140444Y250444D02*
Y252044D01*
X142044D01*
Y250444D01*
X140444D01*
X140844Y250844D02*
Y251644D01*
X141644D01*
Y250844D01*
X140844D01*
X181944Y255944D02*
Y257544D01*
X183544D01*
Y255944D01*
X181944D01*
X182344Y256344D02*
Y257144D01*
X183144D01*
Y256344D01*
X182344D01*
X179444Y267944D02*
Y269544D01*
X181044D01*
Y267944D01*
X179444D01*
X179844Y268344D02*
Y269144D01*
X180644D01*
Y268344D01*
X179844D01*
X183444Y263944D02*
Y265544D01*
X185044D01*
Y263944D01*
X183444D01*
X183844Y264344D02*
Y265144D01*
X184644D01*
Y264344D01*
X183844D01*
X175944Y235944D02*
Y237544D01*
X177544D01*
Y235944D01*
X175944D01*
X176344Y236344D02*
Y237144D01*
X177144D01*
Y236344D01*
X176344D01*
X185444Y235850D02*
Y237450D01*
X187044D01*
Y235850D01*
X185444D01*
X185844Y236250D02*
Y237050D01*
X186644D01*
Y236250D01*
X185844D01*
X187444Y233444D02*
Y235044D01*
X189044D01*
Y233444D01*
X187444D01*
X187844Y233844D02*
Y234644D01*
X188644D01*
Y233844D01*
X187844D01*
X187444Y229944D02*
Y231544D01*
X189044D01*
Y229944D01*
X187444D01*
X187844Y230344D02*
Y231144D01*
X188644D01*
Y230344D01*
X187844D01*
X182944Y229944D02*
Y231544D01*
X184544D01*
Y229944D01*
X182944D01*
X183344Y230344D02*
Y231144D01*
X184144D01*
Y230344D01*
X183344D01*
X182944Y224444D02*
Y226044D01*
X184544D01*
Y224444D01*
X182944D01*
X183344Y224844D02*
Y225644D01*
X184144D01*
Y224844D01*
X183344D01*
X191444Y259944D02*
Y261544D01*
X193044D01*
Y259944D01*
X191444D01*
X191844Y260344D02*
Y261144D01*
X192644D01*
Y260344D01*
X191844D01*
X177944Y233444D02*
Y235044D01*
X179544D01*
Y233444D01*
X177944D01*
X178344Y233844D02*
Y234644D01*
X179144D01*
Y233844D01*
X178344D01*
X182944Y233444D02*
Y235044D01*
X184544D01*
Y233444D01*
X182944D01*
X183344Y233844D02*
Y234644D01*
X184144D01*
Y233844D01*
X183344D01*
X184944Y226944D02*
Y228544D01*
X186544D01*
Y226944D01*
X184944D01*
X185344Y227344D02*
Y228144D01*
X186144D01*
Y227344D01*
X185344D01*
X171944Y224444D02*
Y226044D01*
X173544D01*
Y224444D01*
X171944D01*
X172344Y224844D02*
Y225644D01*
X173144D01*
Y224844D01*
X172344D01*
X167944Y224444D02*
Y226044D01*
X169544D01*
Y224444D01*
X167944D01*
X168344Y224844D02*
Y225644D01*
X169144D01*
Y224844D01*
X168344D01*
X180944Y220444D02*
Y222044D01*
X182544D01*
Y220444D01*
X180944D01*
X181344Y220844D02*
Y221644D01*
X182144D01*
Y220844D01*
X181344D01*
X139944Y216444D02*
Y218044D01*
X141544D01*
Y216444D01*
X139944D01*
X140344Y216844D02*
Y217644D01*
X141144D01*
Y216844D01*
X140344D01*
X135444Y259444D02*
Y261044D01*
X137044D01*
Y259444D01*
X135444D01*
X135844Y259844D02*
Y260644D01*
X136644D01*
Y259844D01*
X135844D01*
X135444Y268444D02*
Y270044D01*
X137044D01*
Y268444D01*
X135444D01*
X135844Y268844D02*
Y269644D01*
X136644D01*
Y268844D01*
X135844D01*
X134944Y276444D02*
Y278044D01*
X136544D01*
Y276444D01*
X134944D01*
X135344Y276844D02*
Y277644D01*
X136144D01*
Y276844D01*
X135344D01*
X142944Y282944D02*
Y284544D01*
X144544D01*
Y282944D01*
X142944D01*
X143344Y283344D02*
Y284144D01*
X144144D01*
Y283344D01*
X143344D01*
X149944Y282944D02*
Y284544D01*
X151544D01*
Y282944D01*
X149944D01*
X150344Y283344D02*
Y284144D01*
X151144D01*
Y283344D01*
X150344D01*
X157944Y282444D02*
Y284044D01*
X159544D01*
Y282444D01*
X157944D01*
X158344Y282844D02*
Y283644D01*
X159144D01*
Y282844D01*
X158344D01*
X158944Y261444D02*
Y263044D01*
X160544D01*
Y261444D01*
X158944D01*
X159344Y261844D02*
Y262644D01*
X160144D01*
Y261844D01*
X159344D01*
X146944Y216444D02*
Y218044D01*
X148544D01*
Y216444D01*
X146944D01*
X147344Y216844D02*
Y217644D01*
X148144D01*
Y216844D01*
X147344D01*
X150944Y127944D02*
Y129544D01*
X152544D01*
Y127944D01*
X150944D01*
X151344Y128344D02*
Y129144D01*
X152144D01*
Y128344D01*
X151344D01*
X205944Y128145D02*
Y129745D01*
X207544D01*
Y128145D01*
X205944D01*
X206344Y128545D02*
Y129345D01*
X207144D01*
Y128545D01*
X206344D01*
X267944Y169544D02*
Y171144D01*
X269544D01*
Y169544D01*
X267944D01*
X268344Y169944D02*
Y170744D01*
X269144D01*
Y169944D01*
X268344D01*
X241944Y128145D02*
Y129745D01*
X243544D01*
Y128145D01*
X241944D01*
X242344Y128545D02*
Y129345D01*
X243144D01*
Y128545D01*
X242344D01*
X220944Y177444D02*
Y179044D01*
X222544D01*
Y177444D01*
X220944D01*
X221344Y177844D02*
Y178644D01*
X222144D01*
Y177844D01*
X221344D01*
X225444Y190444D02*
Y192044D01*
X227044D01*
Y190444D01*
X225444D01*
X225844Y190844D02*
Y191644D01*
X226644D01*
Y190844D01*
X225844D01*
X257944Y133444D02*
Y135044D01*
X259544D01*
Y133444D01*
X257944D01*
X258344Y133844D02*
Y134644D01*
X259144D01*
Y133844D01*
X258344D01*
X258444Y156444D02*
Y158044D01*
X260044D01*
Y156444D01*
X258444D01*
X258844Y156844D02*
Y157644D01*
X259644D01*
Y156844D01*
X258844D01*
X170944Y149944D02*
Y151544D01*
X172544D01*
Y149944D01*
X170944D01*
X171344Y150344D02*
Y151144D01*
X172144D01*
Y150344D01*
X171344D01*
X313008Y181164D02*
X312208Y182764D01*
X313808D01*
X313008Y181164D01*
X324031Y185101D02*
X324431Y185501D01*
X324831D01*
X324431Y185901D01*
X324831Y186301D01*
X324431D01*
X324031Y186701D01*
X323631Y186301D01*
X323231D01*
X323631Y185901D01*
X323231Y185501D01*
X323631D01*
X324031Y185101D01*
Y204787D02*
X324431Y205187D01*
X324831D01*
X324431Y205587D01*
X324831Y205987D01*
X324431D01*
X324031Y206387D01*
X323631Y205987D01*
X323231D01*
X323631Y205587D01*
X323231Y205187D01*
X323631D01*
X324031Y204787D01*
X313008Y208724D02*
X312208Y210324D01*
X313808D01*
X313008Y208724D01*
X311244Y221544D02*
X311644Y222344D01*
X311244Y223144D01*
X312044Y222744D01*
X312844Y223144D01*
X312444Y222344D01*
X312844Y221544D01*
X312044Y221944D01*
X311244Y221544D01*
Y231544D02*
X311644Y232344D01*
X311244Y233144D01*
X312044Y232744D01*
X312844Y233144D01*
X312444Y232344D01*
X312844Y231544D01*
X312044Y231944D01*
X311244Y231544D01*
Y241544D02*
X311644Y242344D01*
X311244Y243144D01*
X312044Y242744D01*
X312844Y243144D01*
X312444Y242344D01*
X312844Y241544D01*
X312044Y241944D01*
X311244Y241544D01*
Y251544D02*
X311644Y252344D01*
X311244Y253144D01*
X312044Y252744D01*
X312844Y253144D01*
X312444Y252344D01*
X312844Y251544D01*
X312044Y251944D01*
X311244Y251544D01*
X321344Y166344D02*
Y165944D01*
X322144D01*
Y166344D01*
X322544D01*
Y167144D01*
X322144D01*
Y167544D01*
X321344D01*
Y167144D01*
X320944D01*
Y166344D01*
X321344D01*
Y171344D02*
Y170944D01*
X322144D01*
Y171344D01*
X322544D01*
Y172144D01*
X322144D01*
Y172544D01*
X321344D01*
Y172144D01*
X320944D01*
Y171344D01*
X321344D01*
X326344Y166344D02*
Y165944D01*
X327144D01*
Y166344D01*
X327544D01*
Y167144D01*
X327144D01*
Y167544D01*
X326344D01*
Y167144D01*
X325944D01*
Y166344D01*
X326344D01*
Y171344D02*
Y170944D01*
X327144D01*
Y171344D01*
X327544D01*
Y172144D01*
X327144D01*
Y172544D01*
X326344D01*
Y172144D01*
X325944D01*
Y171344D01*
X326344D01*
X331344Y166344D02*
Y165944D01*
X332144D01*
Y166344D01*
X332544D01*
Y167144D01*
X332144D01*
Y167544D01*
X331344D01*
Y167144D01*
X330944D01*
Y166344D01*
X331344D01*
Y171344D02*
Y170944D01*
X332144D01*
Y171344D01*
X332544D01*
Y172144D01*
X332144D01*
Y172544D01*
X331344D01*
Y172144D01*
X330944D01*
Y171344D01*
X331344D01*
X336344Y166344D02*
Y165944D01*
X337144D01*
Y166344D01*
X337544D01*
Y167144D01*
X337144D01*
Y167544D01*
X336344D01*
Y167144D01*
X335944D01*
Y166344D01*
X336344D01*
Y171344D02*
Y170944D01*
X337144D01*
Y171344D01*
X337544D01*
Y172144D01*
X337144D01*
Y172544D01*
X336344D01*
Y172144D01*
X335944D01*
Y171344D01*
X336344D01*
X341344Y166344D02*
Y165944D01*
X342144D01*
Y166344D01*
X342544D01*
Y167144D01*
X342144D01*
Y167544D01*
X341344D01*
Y167144D01*
X340944D01*
Y166344D01*
X341344D01*
Y171344D02*
Y170944D01*
X342144D01*
Y171344D01*
X342544D01*
Y172144D01*
X342144D01*
Y172544D01*
X341344D01*
Y172144D01*
X340944D01*
Y171344D01*
X341344D01*
X414444Y251944D02*
X414844Y252744D01*
X414444Y253544D01*
X415244Y253144D01*
X416044Y253544D01*
X415644Y252744D01*
X416044Y251944D01*
X415244Y252344D01*
X414444Y251944D01*
X404444D02*
X404844Y252744D01*
X404444Y253544D01*
X405244Y253144D01*
X406044Y253544D01*
X405644Y252744D01*
X406044Y251944D01*
X405244Y252344D01*
X404444Y251944D01*
X394444D02*
X394844Y252744D01*
X394444Y253544D01*
X395244Y253144D01*
X396044Y253544D01*
X395644Y252744D01*
X396044Y251944D01*
X395244Y252344D01*
X394444Y251944D01*
X384444D02*
X384844Y252744D01*
X384444Y253544D01*
X385244Y253144D01*
X386044Y253544D01*
X385644Y252744D01*
X386044Y251944D01*
X385244Y252344D01*
X384444Y251944D01*
X462700Y160400D02*
X463100D01*
X463500Y160800D01*
X463900Y160400D01*
X464300D01*
Y160800D01*
X463900Y161200D01*
X464300Y161600D01*
Y162000D01*
X463900D01*
X463500Y161600D01*
X463100Y162000D01*
X462700D01*
Y161600D01*
X463100Y161200D01*
X462700Y160800D01*
Y160400D01*
Y170400D02*
X463100D01*
X463500Y170800D01*
X463900Y170400D01*
X464300D01*
Y170800D01*
X463900Y171200D01*
X464300Y171600D01*
Y172000D01*
X463900D01*
X463500Y171600D01*
X463100Y172000D01*
X462700D01*
Y171600D01*
X463100Y171200D01*
X462700Y170800D01*
Y170400D01*
Y180400D02*
X463100D01*
X463500Y180800D01*
X463900Y180400D01*
X464300D01*
Y180800D01*
X463900Y181200D01*
X464300Y181600D01*
Y182000D01*
X463900D01*
X463500Y181600D01*
X463100Y182000D01*
X462700D01*
Y181600D01*
X463100Y181200D01*
X462700Y180800D01*
Y180400D01*
Y190400D02*
X463100D01*
X463500Y190800D01*
X463900Y190400D01*
X464300D01*
Y190800D01*
X463900Y191200D01*
X464300Y191600D01*
Y192000D01*
X463900D01*
X463500Y191600D01*
X463100Y192000D01*
X462700D01*
Y191600D01*
X463100Y191200D01*
X462700Y190800D01*
Y190400D01*
Y200400D02*
X463100D01*
X463500Y200800D01*
X463900Y200400D01*
X464300D01*
Y200800D01*
X463900Y201200D01*
X464300Y201600D01*
Y202000D01*
X463900D01*
X463500Y201600D01*
X463100Y202000D01*
X462700D01*
Y201600D01*
X463100Y201200D01*
X462700Y200800D01*
Y200400D01*
Y210400D02*
X463100D01*
X463500Y210800D01*
X463900Y210400D01*
X464300D01*
Y210800D01*
X463900Y211200D01*
X464300Y211600D01*
Y212000D01*
X463900D01*
X463500Y211600D01*
X463100Y212000D01*
X462700D01*
Y211600D01*
X463100Y211200D01*
X462700Y210800D01*
Y210400D01*
Y220400D02*
X463100D01*
X463500Y220800D01*
X463900Y220400D01*
X464300D01*
Y220800D01*
X463900Y221200D01*
X464300Y221600D01*
Y222000D01*
X463900D01*
X463500Y221600D01*
X463100Y222000D01*
X462700D01*
Y221600D01*
X463100Y221200D01*
X462700Y220800D01*
Y220400D01*
Y230400D02*
X463100D01*
X463500Y230800D01*
X463900Y230400D01*
X464300D01*
Y230800D01*
X463900Y231200D01*
X464300Y231600D01*
Y232000D01*
X463900D01*
X463500Y231600D01*
X463100Y232000D01*
X462700D01*
Y231600D01*
X463100Y231200D01*
X462700Y230800D01*
Y230400D01*
Y240400D02*
X463100D01*
X463500Y240800D01*
X463900Y240400D01*
X464300D01*
Y240800D01*
X463900Y241200D01*
X464300Y241600D01*
Y242000D01*
X463900D01*
X463500Y241600D01*
X463100Y242000D01*
X462700D01*
Y241600D01*
X463100Y241200D01*
X462700Y240800D01*
Y240400D01*
Y250400D02*
X463100D01*
X463500Y250800D01*
X463900Y250400D01*
X464300D01*
Y250800D01*
X463900Y251200D01*
X464300Y251600D01*
Y252000D01*
X463900D01*
X463500Y251600D01*
X463100Y252000D01*
X462700D01*
Y251600D01*
X463100Y251200D01*
X462700Y250800D01*
Y250400D01*
X414944Y276244D02*
X415744Y277044D01*
X416544Y276244D01*
X415744Y275444D01*
X414944Y276244D01*
X394944D02*
X395744Y277044D01*
X396544Y276244D01*
X395744Y275444D01*
X394944Y276244D01*
X329444Y206944D02*
Y208544D01*
X331044D01*
Y206944D01*
X329444D01*
X329844Y207344D02*
Y208144D01*
X330644D01*
Y207344D01*
X329844D01*
X428600Y228905D02*
Y230505D01*
X430200D01*
Y228905D01*
X428600D01*
X429000Y229305D02*
Y230105D01*
X429800D01*
Y229305D01*
X429000D01*
X363700Y143095D02*
Y144695D01*
X365300D01*
Y143095D01*
X363700D01*
X364100Y143495D02*
Y144295D01*
X364900D01*
Y143495D01*
X364100D01*
X370000Y216500D02*
Y218100D01*
X371600D01*
Y216500D01*
X370000D01*
X370400Y216900D02*
Y217700D01*
X371200D01*
Y216900D01*
X370400D01*
X363187Y167609D02*
Y169209D01*
X364787D01*
Y167609D01*
X363187D01*
X363587Y168009D02*
Y168809D01*
X364387D01*
Y168009D01*
X363587D01*
X413141Y224483D02*
Y226083D01*
X414741D01*
Y224483D01*
X413141D01*
X413541Y224883D02*
Y225683D01*
X414341D01*
Y224883D01*
X413541D01*
X411800Y164300D02*
Y165900D01*
X413400D01*
Y164300D01*
X411800D01*
X412200Y164700D02*
Y165500D01*
X413000D01*
Y164700D01*
X412200D01*
X374900Y229400D02*
Y231000D01*
X376500D01*
Y229400D01*
X374900D01*
X375300Y229800D02*
Y230600D01*
X376100D01*
Y229800D01*
X375300D01*
X365500Y199800D02*
Y201400D01*
X367100D01*
Y199800D01*
X365500D01*
X365900Y200200D02*
Y201000D01*
X366700D01*
Y200200D01*
X365900D01*
X405618Y162200D02*
Y163800D01*
X407218D01*
Y162200D01*
X405618D01*
X406018Y162600D02*
Y163400D01*
X406818D01*
Y162600D01*
X406018D01*
X352300Y190500D02*
Y192100D01*
X353900D01*
Y190500D01*
X352300D01*
X352700Y190900D02*
Y191700D01*
X353500D01*
Y190900D01*
X352700D01*
X373900Y140600D02*
Y142200D01*
X375500D01*
Y140600D01*
X373900D01*
X374300Y141000D02*
Y141800D01*
X375100D01*
Y141000D01*
X374300D01*
X345200Y164500D02*
Y166100D01*
X346800D01*
Y164500D01*
X345200D01*
X345600Y164900D02*
Y165700D01*
X346400D01*
Y164900D01*
X345600D01*
X371800Y152300D02*
Y153900D01*
X373400D01*
Y152300D01*
X371800D01*
X372200Y152700D02*
Y153500D01*
X373000D01*
Y152700D01*
X372200D01*
X368100Y151600D02*
Y153200D01*
X369700D01*
Y151600D01*
X368100D01*
X368500Y152000D02*
Y152800D01*
X369300D01*
Y152000D01*
X368500D01*
X377100Y145386D02*
Y146986D01*
X378700D01*
Y145386D01*
X377100D01*
X377500Y145786D02*
Y146586D01*
X378300D01*
Y145786D01*
X377500D01*
X371800Y148700D02*
Y150300D01*
X373400D01*
Y148700D01*
X371800D01*
X372200Y149100D02*
Y149900D01*
X373000D01*
Y149100D01*
X372200D01*
X357200Y155800D02*
Y157400D01*
X358800D01*
Y155800D01*
X357200D01*
X357600Y156200D02*
Y157000D01*
X358400D01*
Y156200D01*
X357600D01*
X333800Y180444D02*
Y182044D01*
X335400D01*
Y180444D01*
X333800D01*
X334200Y180844D02*
Y181644D01*
X335000D01*
Y180844D01*
X334200D01*
X320444Y245444D02*
Y247044D01*
X322044D01*
Y245444D01*
X320444D01*
X320844Y245844D02*
Y246644D01*
X321644D01*
Y245844D01*
X320844D01*
X320244Y225744D02*
Y227344D01*
X321844D01*
Y225744D01*
X320244D01*
X320644Y226144D02*
Y226944D01*
X321444D01*
Y226144D01*
X320644D01*
X328444Y245544D02*
Y247144D01*
X330044D01*
Y245544D01*
X328444D01*
X328844Y245944D02*
Y246744D01*
X329644D01*
Y245944D01*
X328844D01*
Y225844D02*
Y227444D01*
X330444D01*
Y225844D01*
X328844D01*
X329244Y226244D02*
Y227044D01*
X330044D01*
Y226244D01*
X329244D01*
X351644Y233244D02*
Y234844D01*
X353244D01*
Y233244D01*
X351644D01*
X352044Y233644D02*
Y234444D01*
X352844D01*
Y233644D01*
X352044D01*
X345844Y233244D02*
Y234844D01*
X347444D01*
Y233244D01*
X345844D01*
X346244Y233644D02*
Y234444D01*
X347044D01*
Y233644D01*
X346244D01*
X345944Y260844D02*
Y262444D01*
X347544D01*
Y260844D01*
X345944D01*
X346344Y261244D02*
Y262044D01*
X347144D01*
Y261244D01*
X346344D01*
X346244Y267644D02*
Y269244D01*
X347844D01*
Y267644D01*
X346244D01*
X346644Y268044D02*
Y268844D01*
X347444D01*
Y268044D01*
X346644D01*
X345844Y264144D02*
Y265744D01*
X347444D01*
Y264144D01*
X345844D01*
X346244Y264544D02*
Y265344D01*
X347044D01*
Y264544D01*
X346244D01*
X348744Y233244D02*
Y234844D01*
X350344D01*
Y233244D01*
X348744D01*
X349144Y233644D02*
Y234444D01*
X349944D01*
Y233644D01*
X349144D01*
X359444Y259944D02*
Y261544D01*
X361044D01*
Y259944D01*
X359444D01*
X359844Y260344D02*
Y261144D01*
X360644D01*
Y260344D01*
X359844D01*
X367444Y259944D02*
Y261544D01*
X369044D01*
Y259944D01*
X367444D01*
X367844Y260344D02*
Y261144D01*
X368644D01*
Y260344D01*
X367844D01*
X375444Y263944D02*
Y265544D01*
X377044D01*
Y263944D01*
X375444D01*
X375844Y264344D02*
Y265144D01*
X376644D01*
Y264344D01*
X375844D01*
X355444Y267944D02*
Y269544D01*
X357044D01*
Y267944D01*
X355444D01*
X355844Y268344D02*
Y269144D01*
X356644D01*
Y268344D01*
X355844D01*
X371444Y267944D02*
Y269544D01*
X373044D01*
Y267944D01*
X371444D01*
X371844Y268344D02*
Y269144D01*
X372644D01*
Y268344D01*
X371844D01*
X375444Y267944D02*
Y269544D01*
X377044D01*
Y267944D01*
X375444D01*
X375844Y268344D02*
Y269144D01*
X376644D01*
Y268344D01*
X375844D01*
X379444Y263944D02*
Y265544D01*
X381044D01*
Y263944D01*
X379444D01*
X379844Y264344D02*
Y265144D01*
X380644D01*
Y264344D01*
X379844D01*
X409700Y167609D02*
Y169209D01*
X411300D01*
Y167609D01*
X409700D01*
X410100Y168009D02*
Y168809D01*
X410900D01*
Y168009D01*
X410100D01*
X431400Y161900D02*
Y163500D01*
X433000D01*
Y161900D01*
X431400D01*
X431800Y162300D02*
Y163100D01*
X432600D01*
Y162300D01*
X431800D01*
X423100Y236400D02*
Y238000D01*
X424700D01*
Y236400D01*
X423100D01*
X423500Y236800D02*
Y237600D01*
X424300D01*
Y236800D01*
X423500D01*
X437944Y201900D02*
Y203500D01*
X439544D01*
Y201900D01*
X437944D01*
X438344Y202300D02*
Y203100D01*
X439144D01*
Y202300D01*
X438344D01*
X434300Y189600D02*
Y191200D01*
X435900D01*
Y189600D01*
X434300D01*
X434700Y190000D02*
Y190800D01*
X435500D01*
Y190000D01*
X434700D01*
X428300Y196100D02*
Y197700D01*
X429900D01*
Y196100D01*
X428300D01*
X428700Y196500D02*
Y197300D01*
X429500D01*
Y196500D01*
X428700D01*
X418100Y219900D02*
Y221500D01*
X419700D01*
Y219900D01*
X418100D01*
X418500Y220300D02*
Y221100D01*
X419300D01*
Y220300D01*
X418500D01*
X418100Y185244D02*
Y186844D01*
X419700D01*
Y185244D01*
X418100D01*
X418500Y185644D02*
Y186444D01*
X419300D01*
Y185644D01*
X418500D01*
X413900Y187300D02*
Y188900D01*
X415500D01*
Y187300D01*
X413900D01*
X414300Y187700D02*
Y188500D01*
X415100D01*
Y187700D01*
X414300D01*
X452100Y204400D02*
Y206000D01*
X453700D01*
Y204400D01*
X452100D01*
X452500Y204800D02*
Y205600D01*
X453300D01*
Y204800D01*
X452500D01*
X425100Y172100D02*
Y173700D01*
X426700D01*
Y172100D01*
X425100D01*
X425500Y172500D02*
Y173300D01*
X426300D01*
Y172500D01*
X425500D01*
X424700Y185800D02*
Y187400D01*
X426300D01*
Y185800D01*
X424700D01*
X425100Y186200D02*
Y187000D01*
X425900D01*
Y186200D01*
X425100D01*
X425300Y199900D02*
Y201500D01*
X426900D01*
Y199900D01*
X425300D01*
X425700Y200300D02*
Y201100D01*
X426500D01*
Y200300D01*
X425700D01*
X408100Y159300D02*
Y160900D01*
X409700D01*
Y159300D01*
X408100D01*
X408500Y159700D02*
Y160500D01*
X409300D01*
Y159700D01*
X408500D01*
X409900Y210400D02*
Y212000D01*
X411500D01*
Y210400D01*
X409900D01*
X410300Y210800D02*
Y211600D01*
X411100D01*
Y210800D01*
X410300D01*
X413900Y191400D02*
Y193000D01*
X415500D01*
Y191400D01*
X413900D01*
X414300Y191800D02*
Y192600D01*
X415100D01*
Y191800D01*
X414300D01*
X445900Y181000D02*
Y182600D01*
X447500D01*
Y181000D01*
X445900D01*
X446300Y181400D02*
Y182200D01*
X447100D01*
Y181400D01*
X446300D01*
X354444Y201444D02*
Y203044D01*
X356044D01*
Y201444D01*
X354444D01*
X354844Y201844D02*
Y202644D01*
X355644D01*
Y201844D01*
X354844D01*
X338287Y201944D02*
Y203544D01*
X339887D01*
Y201944D01*
X338287D01*
X338687Y202344D02*
Y203144D01*
X339487D01*
Y202344D01*
X338687D01*
X391944Y184944D02*
Y186544D01*
X393544D01*
Y184944D01*
X391944D01*
X392344Y185344D02*
Y186144D01*
X393144D01*
Y185344D01*
X392344D01*
X399444Y188944D02*
Y190544D01*
X401044D01*
Y188944D01*
X399444D01*
X399844Y189344D02*
Y190144D01*
X400644D01*
Y189344D01*
X399844D01*
X400944Y184444D02*
Y186044D01*
X402544D01*
Y184444D01*
X400944D01*
X401344Y184844D02*
Y185644D01*
X402144D01*
Y184844D01*
X401344D01*
X396944Y186444D02*
Y188044D01*
X398544D01*
Y186444D01*
X396944D01*
X397344Y186844D02*
Y187644D01*
X398144D01*
Y186844D01*
X397344D01*
X396944Y149444D02*
Y151044D01*
X398544D01*
Y149444D01*
X396944D01*
X397344Y149844D02*
Y150644D01*
X398144D01*
Y149844D01*
X397344D01*
X401500Y151030D02*
Y152630D01*
X403100D01*
Y151030D01*
X401500D01*
X401900Y151430D02*
Y152230D01*
X402700D01*
Y151430D01*
X401900D01*
X399400Y156444D02*
Y158044D01*
X401000D01*
Y156444D01*
X399400D01*
X399800Y156844D02*
Y157644D01*
X400600D01*
Y156844D01*
X399800D01*
X386944Y187944D02*
Y189544D01*
X388544D01*
Y187944D01*
X386944D01*
X387344Y188344D02*
Y189144D01*
X388144D01*
Y188344D01*
X387344D01*
X382944Y177444D02*
Y179044D01*
X384544D01*
Y177444D01*
X382944D01*
X383344Y177844D02*
Y178644D01*
X384144D01*
Y177844D01*
X383344D01*
X403600Y226444D02*
Y228044D01*
X405200D01*
Y226444D01*
X403600D01*
X404000Y226844D02*
Y227644D01*
X404800D01*
Y226844D01*
X404000D01*
X382944Y189444D02*
Y191044D01*
X384544D01*
Y189444D01*
X382944D01*
X383344Y189844D02*
Y190644D01*
X384144D01*
Y189844D01*
X383344D01*
X378944Y187444D02*
Y189044D01*
X380544D01*
Y187444D01*
X378944D01*
X379344Y187844D02*
Y188644D01*
X380144D01*
Y187844D01*
X379344D01*
X362444Y186444D02*
Y188044D01*
X364044D01*
Y186444D01*
X362444D01*
X362844Y186844D02*
Y187644D01*
X363644D01*
Y186844D01*
X362844D01*
X366444Y180444D02*
Y182044D01*
X368044D01*
Y180444D01*
X366444D01*
X366844Y180844D02*
Y181644D01*
X367644D01*
Y180844D01*
X366844D01*
X357944Y199944D02*
Y201544D01*
X359544D01*
Y199944D01*
X357944D01*
X358344Y200344D02*
Y201144D01*
X359144D01*
Y200344D01*
X358344D01*
X381600Y164444D02*
Y166044D01*
X383200D01*
Y164444D01*
X381600D01*
X382000Y164844D02*
Y165644D01*
X382800D01*
Y164844D01*
X382000D01*
X368944Y184444D02*
Y186044D01*
X370544D01*
Y184444D01*
X368944D01*
X369344Y184844D02*
Y185644D01*
X370144D01*
Y184844D01*
X369344D01*
X392444Y147944D02*
Y149544D01*
X394044D01*
Y147944D01*
X392444D01*
X392844Y148344D02*
Y149144D01*
X393644D01*
Y148344D01*
X392844D01*
X393944Y141444D02*
Y143044D01*
X395544D01*
Y141444D01*
X393944D01*
X394344Y141844D02*
Y142644D01*
X395144D01*
Y141844D01*
X394344D01*
X421818Y147944D02*
Y149544D01*
X423418D01*
Y147944D01*
X421818D01*
X422218Y148344D02*
Y149144D01*
X423018D01*
Y148344D01*
X422218D01*
X394444Y242444D02*
Y244044D01*
X396044D01*
Y242444D01*
X394444D01*
X394844Y242844D02*
Y243644D01*
X395644D01*
Y242844D01*
X394844D01*
X380444Y238944D02*
Y240544D01*
X382044D01*
Y238944D01*
X380444D01*
X380844Y239344D02*
Y240144D01*
X381644D01*
Y239344D01*
X380844D01*
X381444Y235444D02*
Y237044D01*
X383044D01*
Y235444D01*
X381444D01*
X381844Y235844D02*
Y236644D01*
X382644D01*
Y235844D01*
X381844D01*
X378944Y242444D02*
Y244044D01*
X380544D01*
Y242444D01*
X378944D01*
X379344Y242844D02*
Y243644D01*
X380144D01*
Y242844D01*
X379344D01*
X380444Y228444D02*
Y230044D01*
X382044D01*
Y228444D01*
X380444D01*
X380844Y228844D02*
Y229644D01*
X381644D01*
Y228844D01*
X380844D01*
X377944Y233444D02*
Y235044D01*
X379544D01*
Y233444D01*
X377944D01*
X378344Y233844D02*
Y234644D01*
X379144D01*
Y233844D01*
X378344D01*
X369444Y225100D02*
Y226700D01*
X371044D01*
Y225100D01*
X369444D01*
X369844Y225500D02*
Y226300D01*
X370644D01*
Y225500D01*
X369844D01*
X411444Y237444D02*
Y239044D01*
X413044D01*
Y237444D01*
X411444D01*
X411844Y237844D02*
Y238644D01*
X412644D01*
Y237844D01*
X411844D01*
X434444Y214444D02*
Y216044D01*
X436044D01*
Y214444D01*
X434444D01*
X434844Y214844D02*
Y215644D01*
X435644D01*
Y214844D01*
X434844D01*
X413944Y201944D02*
Y203544D01*
X415544D01*
Y201944D01*
X413944D01*
X414344Y202344D02*
Y203144D01*
X415144D01*
Y202344D01*
X414344D01*
X377744Y199089D02*
Y200689D01*
X379344D01*
Y199089D01*
X377744D01*
X378144Y199489D02*
Y200289D01*
X378944D01*
Y199489D01*
X378144D01*
X320444Y231444D02*
Y233044D01*
X322044D01*
Y231444D01*
X320444D01*
X320844Y231844D02*
Y232644D01*
X321644D01*
Y231844D01*
X320844D01*
X329444Y231444D02*
Y233044D01*
X331044D01*
Y231444D01*
X329444D01*
X329844Y231844D02*
Y232644D01*
X330644D01*
Y231844D01*
X329844D01*
X320444Y250444D02*
Y252044D01*
X322044D01*
Y250444D01*
X320444D01*
X320844Y250844D02*
Y251644D01*
X321644D01*
Y250844D01*
X320844D01*
X361944Y255944D02*
Y257544D01*
X363544D01*
Y255944D01*
X361944D01*
X362344Y256344D02*
Y257144D01*
X363144D01*
Y256344D01*
X362344D01*
X359444Y267944D02*
Y269544D01*
X361044D01*
Y267944D01*
X359444D01*
X359844Y268344D02*
Y269144D01*
X360644D01*
Y268344D01*
X359844D01*
X363444Y263944D02*
Y265544D01*
X365044D01*
Y263944D01*
X363444D01*
X363844Y264344D02*
Y265144D01*
X364644D01*
Y264344D01*
X363844D01*
X355944Y235944D02*
Y237544D01*
X357544D01*
Y235944D01*
X355944D01*
X356344Y236344D02*
Y237144D01*
X357144D01*
Y236344D01*
X356344D01*
X365444Y235850D02*
Y237450D01*
X367044D01*
Y235850D01*
X365444D01*
X365844Y236250D02*
Y237050D01*
X366644D01*
Y236250D01*
X365844D01*
X367444Y233444D02*
Y235044D01*
X369044D01*
Y233444D01*
X367444D01*
X367844Y233844D02*
Y234644D01*
X368644D01*
Y233844D01*
X367844D01*
X367444Y229944D02*
Y231544D01*
X369044D01*
Y229944D01*
X367444D01*
X367844Y230344D02*
Y231144D01*
X368644D01*
Y230344D01*
X367844D01*
X362944Y229944D02*
Y231544D01*
X364544D01*
Y229944D01*
X362944D01*
X363344Y230344D02*
Y231144D01*
X364144D01*
Y230344D01*
X363344D01*
X362944Y224444D02*
Y226044D01*
X364544D01*
Y224444D01*
X362944D01*
X363344Y224844D02*
Y225644D01*
X364144D01*
Y224844D01*
X363344D01*
X371444Y259944D02*
Y261544D01*
X373044D01*
Y259944D01*
X371444D01*
X371844Y260344D02*
Y261144D01*
X372644D01*
Y260344D01*
X371844D01*
X357944Y233444D02*
Y235044D01*
X359544D01*
Y233444D01*
X357944D01*
X358344Y233844D02*
Y234644D01*
X359144D01*
Y233844D01*
X358344D01*
X362944Y233444D02*
Y235044D01*
X364544D01*
Y233444D01*
X362944D01*
X363344Y233844D02*
Y234644D01*
X364144D01*
Y233844D01*
X363344D01*
X364944Y226944D02*
Y228544D01*
X366544D01*
Y226944D01*
X364944D01*
X365344Y227344D02*
Y228144D01*
X366144D01*
Y227344D01*
X365344D01*
X351944Y224444D02*
Y226044D01*
X353544D01*
Y224444D01*
X351944D01*
X352344Y224844D02*
Y225644D01*
X353144D01*
Y224844D01*
X352344D01*
X347944Y224444D02*
Y226044D01*
X349544D01*
Y224444D01*
X347944D01*
X348344Y224844D02*
Y225644D01*
X349144D01*
Y224844D01*
X348344D01*
X360944Y220444D02*
Y222044D01*
X362544D01*
Y220444D01*
X360944D01*
X361344Y220844D02*
Y221644D01*
X362144D01*
Y220844D01*
X361344D01*
X319944Y216444D02*
Y218044D01*
X321544D01*
Y216444D01*
X319944D01*
X320344Y216844D02*
Y217644D01*
X321144D01*
Y216844D01*
X320344D01*
X315444Y259444D02*
Y261044D01*
X317044D01*
Y259444D01*
X315444D01*
X315844Y259844D02*
Y260644D01*
X316644D01*
Y259844D01*
X315844D01*
X315444Y268444D02*
Y270044D01*
X317044D01*
Y268444D01*
X315444D01*
X315844Y268844D02*
Y269644D01*
X316644D01*
Y268844D01*
X315844D01*
X314944Y276444D02*
Y278044D01*
X316544D01*
Y276444D01*
X314944D01*
X315344Y276844D02*
Y277644D01*
X316144D01*
Y276844D01*
X315344D01*
X322944Y282944D02*
Y284544D01*
X324544D01*
Y282944D01*
X322944D01*
X323344Y283344D02*
Y284144D01*
X324144D01*
Y283344D01*
X323344D01*
X329944Y282944D02*
Y284544D01*
X331544D01*
Y282944D01*
X329944D01*
X330344Y283344D02*
Y284144D01*
X331144D01*
Y283344D01*
X330344D01*
X337944Y282444D02*
Y284044D01*
X339544D01*
Y282444D01*
X337944D01*
X338344Y282844D02*
Y283644D01*
X339144D01*
Y282844D01*
X338344D01*
X338944Y261444D02*
Y263044D01*
X340544D01*
Y261444D01*
X338944D01*
X339344Y261844D02*
Y262644D01*
X340144D01*
Y261844D01*
X339344D01*
X326944Y216444D02*
Y218044D01*
X328544D01*
Y216444D01*
X326944D01*
X327344Y216844D02*
Y217644D01*
X328144D01*
Y216844D01*
X327344D01*
X330944Y127944D02*
Y129544D01*
X332544D01*
Y127944D01*
X330944D01*
X331344Y128344D02*
Y129144D01*
X332144D01*
Y128344D01*
X331344D01*
X385944Y128145D02*
Y129745D01*
X387544D01*
Y128145D01*
X385944D01*
X386344Y128545D02*
Y129345D01*
X387144D01*
Y128545D01*
X386344D01*
X447944Y169544D02*
Y171144D01*
X449544D01*
Y169544D01*
X447944D01*
X448344Y169944D02*
Y170744D01*
X449144D01*
Y169944D01*
X448344D01*
X421944Y128145D02*
Y129745D01*
X423544D01*
Y128145D01*
X421944D01*
X422344Y128545D02*
Y129345D01*
X423144D01*
Y128545D01*
X422344D01*
X400944Y177444D02*
Y179044D01*
X402544D01*
Y177444D01*
X400944D01*
X401344Y177844D02*
Y178644D01*
X402144D01*
Y177844D01*
X401344D01*
X405444Y190444D02*
Y192044D01*
X407044D01*
Y190444D01*
X405444D01*
X405844Y190844D02*
Y191644D01*
X406644D01*
Y190844D01*
X405844D01*
X437944Y133444D02*
Y135044D01*
X439544D01*
Y133444D01*
X437944D01*
X438344Y133844D02*
Y134644D01*
X439144D01*
Y133844D01*
X438344D01*
X438444Y156444D02*
Y158044D01*
X440044D01*
Y156444D01*
X438444D01*
X438844Y156844D02*
Y157644D01*
X439644D01*
Y156844D01*
X438844D01*
X350944Y149944D02*
Y151544D01*
X352544D01*
Y149944D01*
X350944D01*
X351344Y150344D02*
Y151144D01*
X352144D01*
Y150344D01*
X351344D01*
X133008Y361164D02*
X132208Y362764D01*
X133808D01*
X133008Y361164D01*
X144031Y365101D02*
X144431Y365501D01*
X144831D01*
X144431Y365901D01*
X144831Y366301D01*
X144431D01*
X144031Y366701D01*
X143631Y366301D01*
X143231D01*
X143631Y365901D01*
X143231Y365501D01*
X143631D01*
X144031Y365101D01*
Y384787D02*
X144431Y385187D01*
X144831D01*
X144431Y385587D01*
X144831Y385987D01*
X144431D01*
X144031Y386387D01*
X143631Y385987D01*
X143231D01*
X143631Y385587D01*
X143231Y385187D01*
X143631D01*
X144031Y384787D01*
X133008Y388724D02*
X132208Y390324D01*
X133808D01*
X133008Y388724D01*
X131244Y401544D02*
X131644Y402344D01*
X131244Y403144D01*
X132044Y402744D01*
X132844Y403144D01*
X132444Y402344D01*
X132844Y401544D01*
X132044Y401944D01*
X131244Y401544D01*
Y411544D02*
X131644Y412344D01*
X131244Y413144D01*
X132044Y412744D01*
X132844Y413144D01*
X132444Y412344D01*
X132844Y411544D01*
X132044Y411944D01*
X131244Y411544D01*
Y421544D02*
X131644Y422344D01*
X131244Y423144D01*
X132044Y422744D01*
X132844Y423144D01*
X132444Y422344D01*
X132844Y421544D01*
X132044Y421944D01*
X131244Y421544D01*
Y431544D02*
X131644Y432344D01*
X131244Y433144D01*
X132044Y432744D01*
X132844Y433144D01*
X132444Y432344D01*
X132844Y431544D01*
X132044Y431944D01*
X131244Y431544D01*
X141344Y346344D02*
Y345944D01*
X142144D01*
Y346344D01*
X142544D01*
Y347144D01*
X142144D01*
Y347544D01*
X141344D01*
Y347144D01*
X140944D01*
Y346344D01*
X141344D01*
Y351344D02*
Y350944D01*
X142144D01*
Y351344D01*
X142544D01*
Y352144D01*
X142144D01*
Y352544D01*
X141344D01*
Y352144D01*
X140944D01*
Y351344D01*
X141344D01*
X146344Y346344D02*
Y345944D01*
X147144D01*
Y346344D01*
X147544D01*
Y347144D01*
X147144D01*
Y347544D01*
X146344D01*
Y347144D01*
X145944D01*
Y346344D01*
X146344D01*
Y351344D02*
Y350944D01*
X147144D01*
Y351344D01*
X147544D01*
Y352144D01*
X147144D01*
Y352544D01*
X146344D01*
Y352144D01*
X145944D01*
Y351344D01*
X146344D01*
X151344Y346344D02*
Y345944D01*
X152144D01*
Y346344D01*
X152544D01*
Y347144D01*
X152144D01*
Y347544D01*
X151344D01*
Y347144D01*
X150944D01*
Y346344D01*
X151344D01*
Y351344D02*
Y350944D01*
X152144D01*
Y351344D01*
X152544D01*
Y352144D01*
X152144D01*
Y352544D01*
X151344D01*
Y352144D01*
X150944D01*
Y351344D01*
X151344D01*
X156344Y346344D02*
Y345944D01*
X157144D01*
Y346344D01*
X157544D01*
Y347144D01*
X157144D01*
Y347544D01*
X156344D01*
Y347144D01*
X155944D01*
Y346344D01*
X156344D01*
Y351344D02*
Y350944D01*
X157144D01*
Y351344D01*
X157544D01*
Y352144D01*
X157144D01*
Y352544D01*
X156344D01*
Y352144D01*
X155944D01*
Y351344D01*
X156344D01*
X161344Y346344D02*
Y345944D01*
X162144D01*
Y346344D01*
X162544D01*
Y347144D01*
X162144D01*
Y347544D01*
X161344D01*
Y347144D01*
X160944D01*
Y346344D01*
X161344D01*
Y351344D02*
Y350944D01*
X162144D01*
Y351344D01*
X162544D01*
Y352144D01*
X162144D01*
Y352544D01*
X161344D01*
Y352144D01*
X160944D01*
Y351344D01*
X161344D01*
X234444Y431944D02*
X234844Y432744D01*
X234444Y433544D01*
X235244Y433144D01*
X236044Y433544D01*
X235644Y432744D01*
X236044Y431944D01*
X235244Y432344D01*
X234444Y431944D01*
X224444D02*
X224844Y432744D01*
X224444Y433544D01*
X225244Y433144D01*
X226044Y433544D01*
X225644Y432744D01*
X226044Y431944D01*
X225244Y432344D01*
X224444Y431944D01*
X214444D02*
X214844Y432744D01*
X214444Y433544D01*
X215244Y433144D01*
X216044Y433544D01*
X215644Y432744D01*
X216044Y431944D01*
X215244Y432344D01*
X214444Y431944D01*
X204444D02*
X204844Y432744D01*
X204444Y433544D01*
X205244Y433144D01*
X206044Y433544D01*
X205644Y432744D01*
X206044Y431944D01*
X205244Y432344D01*
X204444Y431944D01*
X282700Y340400D02*
X283100D01*
X283500Y340800D01*
X283900Y340400D01*
X284300D01*
Y340800D01*
X283900Y341200D01*
X284300Y341600D01*
Y342000D01*
X283900D01*
X283500Y341600D01*
X283100Y342000D01*
X282700D01*
Y341600D01*
X283100Y341200D01*
X282700Y340800D01*
Y340400D01*
Y350400D02*
X283100D01*
X283500Y350800D01*
X283900Y350400D01*
X284300D01*
Y350800D01*
X283900Y351200D01*
X284300Y351600D01*
Y352000D01*
X283900D01*
X283500Y351600D01*
X283100Y352000D01*
X282700D01*
Y351600D01*
X283100Y351200D01*
X282700Y350800D01*
Y350400D01*
Y360400D02*
X283100D01*
X283500Y360800D01*
X283900Y360400D01*
X284300D01*
Y360800D01*
X283900Y361200D01*
X284300Y361600D01*
Y362000D01*
X283900D01*
X283500Y361600D01*
X283100Y362000D01*
X282700D01*
Y361600D01*
X283100Y361200D01*
X282700Y360800D01*
Y360400D01*
Y370400D02*
X283100D01*
X283500Y370800D01*
X283900Y370400D01*
X284300D01*
Y370800D01*
X283900Y371200D01*
X284300Y371600D01*
Y372000D01*
X283900D01*
X283500Y371600D01*
X283100Y372000D01*
X282700D01*
Y371600D01*
X283100Y371200D01*
X282700Y370800D01*
Y370400D01*
Y380400D02*
X283100D01*
X283500Y380800D01*
X283900Y380400D01*
X284300D01*
Y380800D01*
X283900Y381200D01*
X284300Y381600D01*
Y382000D01*
X283900D01*
X283500Y381600D01*
X283100Y382000D01*
X282700D01*
Y381600D01*
X283100Y381200D01*
X282700Y380800D01*
Y380400D01*
Y390400D02*
X283100D01*
X283500Y390800D01*
X283900Y390400D01*
X284300D01*
Y390800D01*
X283900Y391200D01*
X284300Y391600D01*
Y392000D01*
X283900D01*
X283500Y391600D01*
X283100Y392000D01*
X282700D01*
Y391600D01*
X283100Y391200D01*
X282700Y390800D01*
Y390400D01*
Y400400D02*
X283100D01*
X283500Y400800D01*
X283900Y400400D01*
X284300D01*
Y400800D01*
X283900Y401200D01*
X284300Y401600D01*
Y402000D01*
X283900D01*
X283500Y401600D01*
X283100Y402000D01*
X282700D01*
Y401600D01*
X283100Y401200D01*
X282700Y400800D01*
Y400400D01*
Y410400D02*
X283100D01*
X283500Y410800D01*
X283900Y410400D01*
X284300D01*
Y410800D01*
X283900Y411200D01*
X284300Y411600D01*
Y412000D01*
X283900D01*
X283500Y411600D01*
X283100Y412000D01*
X282700D01*
Y411600D01*
X283100Y411200D01*
X282700Y410800D01*
Y410400D01*
Y420400D02*
X283100D01*
X283500Y420800D01*
X283900Y420400D01*
X284300D01*
Y420800D01*
X283900Y421200D01*
X284300Y421600D01*
Y422000D01*
X283900D01*
X283500Y421600D01*
X283100Y422000D01*
X282700D01*
Y421600D01*
X283100Y421200D01*
X282700Y420800D01*
Y420400D01*
Y430400D02*
X283100D01*
X283500Y430800D01*
X283900Y430400D01*
X284300D01*
Y430800D01*
X283900Y431200D01*
X284300Y431600D01*
Y432000D01*
X283900D01*
X283500Y431600D01*
X283100Y432000D01*
X282700D01*
Y431600D01*
X283100Y431200D01*
X282700Y430800D01*
Y430400D01*
X234944Y456244D02*
X235744Y457044D01*
X236544Y456244D01*
X235744Y455444D01*
X234944Y456244D01*
X214944D02*
X215744Y457044D01*
X216544Y456244D01*
X215744Y455444D01*
X214944Y456244D01*
X149444Y386944D02*
Y388544D01*
X151044D01*
Y386944D01*
X149444D01*
X149844Y387344D02*
Y388144D01*
X150644D01*
Y387344D01*
X149844D01*
X248600Y408905D02*
Y410505D01*
X250200D01*
Y408905D01*
X248600D01*
X249000Y409305D02*
Y410105D01*
X249800D01*
Y409305D01*
X249000D01*
X183700Y323095D02*
Y324695D01*
X185300D01*
Y323095D01*
X183700D01*
X184100Y323495D02*
Y324295D01*
X184900D01*
Y323495D01*
X184100D01*
X190000Y396500D02*
Y398100D01*
X191600D01*
Y396500D01*
X190000D01*
X190400Y396900D02*
Y397700D01*
X191200D01*
Y396900D01*
X190400D01*
X183187Y347609D02*
Y349209D01*
X184787D01*
Y347609D01*
X183187D01*
X183587Y348009D02*
Y348809D01*
X184387D01*
Y348009D01*
X183587D01*
X233141Y404483D02*
Y406083D01*
X234741D01*
Y404483D01*
X233141D01*
X233541Y404883D02*
Y405683D01*
X234341D01*
Y404883D01*
X233541D01*
X231800Y344300D02*
Y345900D01*
X233400D01*
Y344300D01*
X231800D01*
X232200Y344700D02*
Y345500D01*
X233000D01*
Y344700D01*
X232200D01*
X194900Y409400D02*
Y411000D01*
X196500D01*
Y409400D01*
X194900D01*
X195300Y409800D02*
Y410600D01*
X196100D01*
Y409800D01*
X195300D01*
X185500Y379800D02*
Y381400D01*
X187100D01*
Y379800D01*
X185500D01*
X185900Y380200D02*
Y381000D01*
X186700D01*
Y380200D01*
X185900D01*
X225618Y342200D02*
Y343800D01*
X227218D01*
Y342200D01*
X225618D01*
X226018Y342600D02*
Y343400D01*
X226818D01*
Y342600D01*
X226018D01*
X172300Y370500D02*
Y372100D01*
X173900D01*
Y370500D01*
X172300D01*
X172700Y370900D02*
Y371700D01*
X173500D01*
Y370900D01*
X172700D01*
X193900Y320600D02*
Y322200D01*
X195500D01*
Y320600D01*
X193900D01*
X194300Y321000D02*
Y321800D01*
X195100D01*
Y321000D01*
X194300D01*
X165200Y344500D02*
Y346100D01*
X166800D01*
Y344500D01*
X165200D01*
X165600Y344900D02*
Y345700D01*
X166400D01*
Y344900D01*
X165600D01*
X191800Y332300D02*
Y333900D01*
X193400D01*
Y332300D01*
X191800D01*
X192200Y332700D02*
Y333500D01*
X193000D01*
Y332700D01*
X192200D01*
X188100Y331600D02*
Y333200D01*
X189700D01*
Y331600D01*
X188100D01*
X188500Y332000D02*
Y332800D01*
X189300D01*
Y332000D01*
X188500D01*
X197100Y325386D02*
Y326986D01*
X198700D01*
Y325386D01*
X197100D01*
X197500Y325786D02*
Y326586D01*
X198300D01*
Y325786D01*
X197500D01*
X191800Y328700D02*
Y330300D01*
X193400D01*
Y328700D01*
X191800D01*
X192200Y329100D02*
Y329900D01*
X193000D01*
Y329100D01*
X192200D01*
X177200Y335800D02*
Y337400D01*
X178800D01*
Y335800D01*
X177200D01*
X177600Y336200D02*
Y337000D01*
X178400D01*
Y336200D01*
X177600D01*
X153800Y360444D02*
Y362044D01*
X155400D01*
Y360444D01*
X153800D01*
X154200Y360844D02*
Y361644D01*
X155000D01*
Y360844D01*
X154200D01*
X140444Y425444D02*
Y427044D01*
X142044D01*
Y425444D01*
X140444D01*
X140844Y425844D02*
Y426644D01*
X141644D01*
Y425844D01*
X140844D01*
X140244Y405744D02*
Y407344D01*
X141844D01*
Y405744D01*
X140244D01*
X140644Y406144D02*
Y406944D01*
X141444D01*
Y406144D01*
X140644D01*
X148444Y425544D02*
Y427144D01*
X150044D01*
Y425544D01*
X148444D01*
X148844Y425944D02*
Y426744D01*
X149644D01*
Y425944D01*
X148844D01*
Y405844D02*
Y407444D01*
X150444D01*
Y405844D01*
X148844D01*
X149244Y406244D02*
Y407044D01*
X150044D01*
Y406244D01*
X149244D01*
X171644Y413244D02*
Y414844D01*
X173244D01*
Y413244D01*
X171644D01*
X172044Y413644D02*
Y414444D01*
X172844D01*
Y413644D01*
X172044D01*
X165844Y413244D02*
Y414844D01*
X167444D01*
Y413244D01*
X165844D01*
X166244Y413644D02*
Y414444D01*
X167044D01*
Y413644D01*
X166244D01*
X165944Y440844D02*
Y442444D01*
X167544D01*
Y440844D01*
X165944D01*
X166344Y441244D02*
Y442044D01*
X167144D01*
Y441244D01*
X166344D01*
X166244Y447644D02*
Y449244D01*
X167844D01*
Y447644D01*
X166244D01*
X166644Y448044D02*
Y448844D01*
X167444D01*
Y448044D01*
X166644D01*
X165844Y444144D02*
Y445744D01*
X167444D01*
Y444144D01*
X165844D01*
X166244Y444544D02*
Y445344D01*
X167044D01*
Y444544D01*
X166244D01*
X168744Y413244D02*
Y414844D01*
X170344D01*
Y413244D01*
X168744D01*
X169144Y413644D02*
Y414444D01*
X169944D01*
Y413644D01*
X169144D01*
X179444Y439944D02*
Y441544D01*
X181044D01*
Y439944D01*
X179444D01*
X179844Y440344D02*
Y441144D01*
X180644D01*
Y440344D01*
X179844D01*
X187444Y439944D02*
Y441544D01*
X189044D01*
Y439944D01*
X187444D01*
X187844Y440344D02*
Y441144D01*
X188644D01*
Y440344D01*
X187844D01*
X195444Y443944D02*
Y445544D01*
X197044D01*
Y443944D01*
X195444D01*
X195844Y444344D02*
Y445144D01*
X196644D01*
Y444344D01*
X195844D01*
X175444Y447944D02*
Y449544D01*
X177044D01*
Y447944D01*
X175444D01*
X175844Y448344D02*
Y449144D01*
X176644D01*
Y448344D01*
X175844D01*
X191444Y447944D02*
Y449544D01*
X193044D01*
Y447944D01*
X191444D01*
X191844Y448344D02*
Y449144D01*
X192644D01*
Y448344D01*
X191844D01*
X195444Y447944D02*
Y449544D01*
X197044D01*
Y447944D01*
X195444D01*
X195844Y448344D02*
Y449144D01*
X196644D01*
Y448344D01*
X195844D01*
X199444Y443944D02*
Y445544D01*
X201044D01*
Y443944D01*
X199444D01*
X199844Y444344D02*
Y445144D01*
X200644D01*
Y444344D01*
X199844D01*
X229700Y347609D02*
Y349209D01*
X231300D01*
Y347609D01*
X229700D01*
X230100Y348009D02*
Y348809D01*
X230900D01*
Y348009D01*
X230100D01*
X251400Y341900D02*
Y343500D01*
X253000D01*
Y341900D01*
X251400D01*
X251800Y342300D02*
Y343100D01*
X252600D01*
Y342300D01*
X251800D01*
X243100Y416400D02*
Y418000D01*
X244700D01*
Y416400D01*
X243100D01*
X243500Y416800D02*
Y417600D01*
X244300D01*
Y416800D01*
X243500D01*
X257944Y381900D02*
Y383500D01*
X259544D01*
Y381900D01*
X257944D01*
X258344Y382300D02*
Y383100D01*
X259144D01*
Y382300D01*
X258344D01*
X254300Y369600D02*
Y371200D01*
X255900D01*
Y369600D01*
X254300D01*
X254700Y370000D02*
Y370800D01*
X255500D01*
Y370000D01*
X254700D01*
X248300Y376100D02*
Y377700D01*
X249900D01*
Y376100D01*
X248300D01*
X248700Y376500D02*
Y377300D01*
X249500D01*
Y376500D01*
X248700D01*
X238100Y399900D02*
Y401500D01*
X239700D01*
Y399900D01*
X238100D01*
X238500Y400300D02*
Y401100D01*
X239300D01*
Y400300D01*
X238500D01*
X238100Y365244D02*
Y366844D01*
X239700D01*
Y365244D01*
X238100D01*
X238500Y365644D02*
Y366444D01*
X239300D01*
Y365644D01*
X238500D01*
X233900Y367300D02*
Y368900D01*
X235500D01*
Y367300D01*
X233900D01*
X234300Y367700D02*
Y368500D01*
X235100D01*
Y367700D01*
X234300D01*
X272100Y384400D02*
Y386000D01*
X273700D01*
Y384400D01*
X272100D01*
X272500Y384800D02*
Y385600D01*
X273300D01*
Y384800D01*
X272500D01*
X245100Y352100D02*
Y353700D01*
X246700D01*
Y352100D01*
X245100D01*
X245500Y352500D02*
Y353300D01*
X246300D01*
Y352500D01*
X245500D01*
X244700Y365800D02*
Y367400D01*
X246300D01*
Y365800D01*
X244700D01*
X245100Y366200D02*
Y367000D01*
X245900D01*
Y366200D01*
X245100D01*
X245300Y379900D02*
Y381500D01*
X246900D01*
Y379900D01*
X245300D01*
X245700Y380300D02*
Y381100D01*
X246500D01*
Y380300D01*
X245700D01*
X228100Y339300D02*
Y340900D01*
X229700D01*
Y339300D01*
X228100D01*
X228500Y339700D02*
Y340500D01*
X229300D01*
Y339700D01*
X228500D01*
X229900Y390400D02*
Y392000D01*
X231500D01*
Y390400D01*
X229900D01*
X230300Y390800D02*
Y391600D01*
X231100D01*
Y390800D01*
X230300D01*
X233900Y371400D02*
Y373000D01*
X235500D01*
Y371400D01*
X233900D01*
X234300Y371800D02*
Y372600D01*
X235100D01*
Y371800D01*
X234300D01*
X265900Y361000D02*
Y362600D01*
X267500D01*
Y361000D01*
X265900D01*
X266300Y361400D02*
Y362200D01*
X267100D01*
Y361400D01*
X266300D01*
X174444Y381444D02*
Y383044D01*
X176044D01*
Y381444D01*
X174444D01*
X174844Y381844D02*
Y382644D01*
X175644D01*
Y381844D01*
X174844D01*
X158287Y381944D02*
Y383544D01*
X159887D01*
Y381944D01*
X158287D01*
X158687Y382344D02*
Y383144D01*
X159487D01*
Y382344D01*
X158687D01*
X211944Y364944D02*
Y366544D01*
X213544D01*
Y364944D01*
X211944D01*
X212344Y365344D02*
Y366144D01*
X213144D01*
Y365344D01*
X212344D01*
X219444Y368944D02*
Y370544D01*
X221044D01*
Y368944D01*
X219444D01*
X219844Y369344D02*
Y370144D01*
X220644D01*
Y369344D01*
X219844D01*
X220944Y364444D02*
Y366044D01*
X222544D01*
Y364444D01*
X220944D01*
X221344Y364844D02*
Y365644D01*
X222144D01*
Y364844D01*
X221344D01*
X216944Y366444D02*
Y368044D01*
X218544D01*
Y366444D01*
X216944D01*
X217344Y366844D02*
Y367644D01*
X218144D01*
Y366844D01*
X217344D01*
X216944Y329444D02*
Y331044D01*
X218544D01*
Y329444D01*
X216944D01*
X217344Y329844D02*
Y330644D01*
X218144D01*
Y329844D01*
X217344D01*
X221500Y331030D02*
Y332630D01*
X223100D01*
Y331030D01*
X221500D01*
X221900Y331430D02*
Y332230D01*
X222700D01*
Y331430D01*
X221900D01*
X219400Y336444D02*
Y338044D01*
X221000D01*
Y336444D01*
X219400D01*
X219800Y336844D02*
Y337644D01*
X220600D01*
Y336844D01*
X219800D01*
X206944Y367944D02*
Y369544D01*
X208544D01*
Y367944D01*
X206944D01*
X207344Y368344D02*
Y369144D01*
X208144D01*
Y368344D01*
X207344D01*
X202944Y357444D02*
Y359044D01*
X204544D01*
Y357444D01*
X202944D01*
X203344Y357844D02*
Y358644D01*
X204144D01*
Y357844D01*
X203344D01*
X223600Y406444D02*
Y408044D01*
X225200D01*
Y406444D01*
X223600D01*
X224000Y406844D02*
Y407644D01*
X224800D01*
Y406844D01*
X224000D01*
X202944Y369444D02*
Y371044D01*
X204544D01*
Y369444D01*
X202944D01*
X203344Y369844D02*
Y370644D01*
X204144D01*
Y369844D01*
X203344D01*
X198944Y367444D02*
Y369044D01*
X200544D01*
Y367444D01*
X198944D01*
X199344Y367844D02*
Y368644D01*
X200144D01*
Y367844D01*
X199344D01*
X182444Y366444D02*
Y368044D01*
X184044D01*
Y366444D01*
X182444D01*
X182844Y366844D02*
Y367644D01*
X183644D01*
Y366844D01*
X182844D01*
X186444Y360444D02*
Y362044D01*
X188044D01*
Y360444D01*
X186444D01*
X186844Y360844D02*
Y361644D01*
X187644D01*
Y360844D01*
X186844D01*
X177944Y379944D02*
Y381544D01*
X179544D01*
Y379944D01*
X177944D01*
X178344Y380344D02*
Y381144D01*
X179144D01*
Y380344D01*
X178344D01*
X201600Y344444D02*
Y346044D01*
X203200D01*
Y344444D01*
X201600D01*
X202000Y344844D02*
Y345644D01*
X202800D01*
Y344844D01*
X202000D01*
X188944Y364444D02*
Y366044D01*
X190544D01*
Y364444D01*
X188944D01*
X189344Y364844D02*
Y365644D01*
X190144D01*
Y364844D01*
X189344D01*
X212444Y327944D02*
Y329544D01*
X214044D01*
Y327944D01*
X212444D01*
X212844Y328344D02*
Y329144D01*
X213644D01*
Y328344D01*
X212844D01*
X213944Y321444D02*
Y323044D01*
X215544D01*
Y321444D01*
X213944D01*
X214344Y321844D02*
Y322644D01*
X215144D01*
Y321844D01*
X214344D01*
X241818Y327944D02*
Y329544D01*
X243418D01*
Y327944D01*
X241818D01*
X242218Y328344D02*
Y329144D01*
X243018D01*
Y328344D01*
X242218D01*
X214444Y422444D02*
Y424044D01*
X216044D01*
Y422444D01*
X214444D01*
X214844Y422844D02*
Y423644D01*
X215644D01*
Y422844D01*
X214844D01*
X200444Y418944D02*
Y420544D01*
X202044D01*
Y418944D01*
X200444D01*
X200844Y419344D02*
Y420144D01*
X201644D01*
Y419344D01*
X200844D01*
X201444Y415444D02*
Y417044D01*
X203044D01*
Y415444D01*
X201444D01*
X201844Y415844D02*
Y416644D01*
X202644D01*
Y415844D01*
X201844D01*
X198944Y422444D02*
Y424044D01*
X200544D01*
Y422444D01*
X198944D01*
X199344Y422844D02*
Y423644D01*
X200144D01*
Y422844D01*
X199344D01*
X200444Y408444D02*
Y410044D01*
X202044D01*
Y408444D01*
X200444D01*
X200844Y408844D02*
Y409644D01*
X201644D01*
Y408844D01*
X200844D01*
X197944Y413444D02*
Y415044D01*
X199544D01*
Y413444D01*
X197944D01*
X198344Y413844D02*
Y414644D01*
X199144D01*
Y413844D01*
X198344D01*
X189444Y405100D02*
Y406700D01*
X191044D01*
Y405100D01*
X189444D01*
X189844Y405500D02*
Y406300D01*
X190644D01*
Y405500D01*
X189844D01*
X231444Y417444D02*
Y419044D01*
X233044D01*
Y417444D01*
X231444D01*
X231844Y417844D02*
Y418644D01*
X232644D01*
Y417844D01*
X231844D01*
X254444Y394444D02*
Y396044D01*
X256044D01*
Y394444D01*
X254444D01*
X254844Y394844D02*
Y395644D01*
X255644D01*
Y394844D01*
X254844D01*
X233944Y381944D02*
Y383544D01*
X235544D01*
Y381944D01*
X233944D01*
X234344Y382344D02*
Y383144D01*
X235144D01*
Y382344D01*
X234344D01*
X197744Y379088D02*
Y380689D01*
X199344D01*
Y379088D01*
X197744D01*
X198144Y379488D02*
Y380289D01*
X198944D01*
Y379488D01*
X198144D01*
X140444Y411444D02*
Y413044D01*
X142044D01*
Y411444D01*
X140444D01*
X140844Y411844D02*
Y412644D01*
X141644D01*
Y411844D01*
X140844D01*
X149444Y411444D02*
Y413044D01*
X151044D01*
Y411444D01*
X149444D01*
X149844Y411844D02*
Y412644D01*
X150644D01*
Y411844D01*
X149844D01*
X140444Y430444D02*
Y432044D01*
X142044D01*
Y430444D01*
X140444D01*
X140844Y430844D02*
Y431644D01*
X141644D01*
Y430844D01*
X140844D01*
X181944Y435944D02*
Y437544D01*
X183544D01*
Y435944D01*
X181944D01*
X182344Y436344D02*
Y437144D01*
X183144D01*
Y436344D01*
X182344D01*
X179444Y447944D02*
Y449544D01*
X181044D01*
Y447944D01*
X179444D01*
X179844Y448344D02*
Y449144D01*
X180644D01*
Y448344D01*
X179844D01*
X183444Y443944D02*
Y445544D01*
X185044D01*
Y443944D01*
X183444D01*
X183844Y444344D02*
Y445144D01*
X184644D01*
Y444344D01*
X183844D01*
X175944Y415944D02*
Y417544D01*
X177544D01*
Y415944D01*
X175944D01*
X176344Y416344D02*
Y417144D01*
X177144D01*
Y416344D01*
X176344D01*
X185444Y415850D02*
Y417450D01*
X187044D01*
Y415850D01*
X185444D01*
X185844Y416250D02*
Y417050D01*
X186644D01*
Y416250D01*
X185844D01*
X187444Y413444D02*
Y415044D01*
X189044D01*
Y413444D01*
X187444D01*
X187844Y413844D02*
Y414644D01*
X188644D01*
Y413844D01*
X187844D01*
X187444Y409944D02*
Y411544D01*
X189044D01*
Y409944D01*
X187444D01*
X187844Y410344D02*
Y411144D01*
X188644D01*
Y410344D01*
X187844D01*
X182944Y409944D02*
Y411544D01*
X184544D01*
Y409944D01*
X182944D01*
X183344Y410344D02*
Y411144D01*
X184144D01*
Y410344D01*
X183344D01*
X182944Y404444D02*
Y406044D01*
X184544D01*
Y404444D01*
X182944D01*
X183344Y404844D02*
Y405644D01*
X184144D01*
Y404844D01*
X183344D01*
X191444Y439944D02*
Y441544D01*
X193044D01*
Y439944D01*
X191444D01*
X191844Y440344D02*
Y441144D01*
X192644D01*
Y440344D01*
X191844D01*
X177944Y413444D02*
Y415044D01*
X179544D01*
Y413444D01*
X177944D01*
X178344Y413844D02*
Y414644D01*
X179144D01*
Y413844D01*
X178344D01*
X182944Y413444D02*
Y415044D01*
X184544D01*
Y413444D01*
X182944D01*
X183344Y413844D02*
Y414644D01*
X184144D01*
Y413844D01*
X183344D01*
X184944Y406944D02*
Y408544D01*
X186544D01*
Y406944D01*
X184944D01*
X185344Y407344D02*
Y408144D01*
X186144D01*
Y407344D01*
X185344D01*
X171944Y404444D02*
Y406044D01*
X173544D01*
Y404444D01*
X171944D01*
X172344Y404844D02*
Y405644D01*
X173144D01*
Y404844D01*
X172344D01*
X167944Y404444D02*
Y406044D01*
X169544D01*
Y404444D01*
X167944D01*
X168344Y404844D02*
Y405644D01*
X169144D01*
Y404844D01*
X168344D01*
X180944Y400444D02*
Y402044D01*
X182544D01*
Y400444D01*
X180944D01*
X181344Y400844D02*
Y401644D01*
X182144D01*
Y400844D01*
X181344D01*
X139944Y396444D02*
Y398044D01*
X141544D01*
Y396444D01*
X139944D01*
X140344Y396844D02*
Y397644D01*
X141144D01*
Y396844D01*
X140344D01*
X135444Y439444D02*
Y441044D01*
X137044D01*
Y439444D01*
X135444D01*
X135844Y439844D02*
Y440644D01*
X136644D01*
Y439844D01*
X135844D01*
X135444Y448444D02*
Y450044D01*
X137044D01*
Y448444D01*
X135444D01*
X135844Y448844D02*
Y449644D01*
X136644D01*
Y448844D01*
X135844D01*
X134944Y456444D02*
Y458044D01*
X136544D01*
Y456444D01*
X134944D01*
X135344Y456844D02*
Y457644D01*
X136144D01*
Y456844D01*
X135344D01*
X142944Y462944D02*
Y464544D01*
X144544D01*
Y462944D01*
X142944D01*
X143344Y463344D02*
Y464144D01*
X144144D01*
Y463344D01*
X143344D01*
X149944Y462944D02*
Y464544D01*
X151544D01*
Y462944D01*
X149944D01*
X150344Y463344D02*
Y464144D01*
X151144D01*
Y463344D01*
X150344D01*
X157944Y462444D02*
Y464044D01*
X159544D01*
Y462444D01*
X157944D01*
X158344Y462844D02*
Y463644D01*
X159144D01*
Y462844D01*
X158344D01*
X158944Y441444D02*
Y443044D01*
X160544D01*
Y441444D01*
X158944D01*
X159344Y441844D02*
Y442644D01*
X160144D01*
Y441844D01*
X159344D01*
X146944Y396444D02*
Y398044D01*
X148544D01*
Y396444D01*
X146944D01*
X147344Y396844D02*
Y397644D01*
X148144D01*
Y396844D01*
X147344D01*
X150944Y307944D02*
Y309544D01*
X152544D01*
Y307944D01*
X150944D01*
X151344Y308344D02*
Y309144D01*
X152144D01*
Y308344D01*
X151344D01*
X205944Y308145D02*
Y309745D01*
X207544D01*
Y308145D01*
X205944D01*
X206344Y308545D02*
Y309345D01*
X207144D01*
Y308545D01*
X206344D01*
X267944Y349544D02*
Y351144D01*
X269544D01*
Y349544D01*
X267944D01*
X268344Y349944D02*
Y350744D01*
X269144D01*
Y349944D01*
X268344D01*
X241944Y308145D02*
Y309745D01*
X243544D01*
Y308145D01*
X241944D01*
X242344Y308545D02*
Y309345D01*
X243144D01*
Y308545D01*
X242344D01*
X220944Y357444D02*
Y359044D01*
X222544D01*
Y357444D01*
X220944D01*
X221344Y357844D02*
Y358644D01*
X222144D01*
Y357844D01*
X221344D01*
X225444Y370444D02*
Y372044D01*
X227044D01*
Y370444D01*
X225444D01*
X225844Y370844D02*
Y371644D01*
X226644D01*
Y370844D01*
X225844D01*
X257944Y313444D02*
Y315044D01*
X259544D01*
Y313444D01*
X257944D01*
X258344Y313844D02*
Y314644D01*
X259144D01*
Y313844D01*
X258344D01*
X258444Y336444D02*
Y338044D01*
X260044D01*
Y336444D01*
X258444D01*
X258844Y336844D02*
Y337644D01*
X259644D01*
Y336844D01*
X258844D01*
X170944Y329944D02*
Y331544D01*
X172544D01*
Y329944D01*
X170944D01*
X171344Y330344D02*
Y331144D01*
X172144D01*
Y330344D01*
X171344D01*
X313008Y361164D02*
X312208Y362764D01*
X313808D01*
X313008Y361164D01*
X324031Y365101D02*
X324431Y365501D01*
X324831D01*
X324431Y365901D01*
X324831Y366301D01*
X324431D01*
X324031Y366701D01*
X323631Y366301D01*
X323231D01*
X323631Y365901D01*
X323231Y365501D01*
X323631D01*
X324031Y365101D01*
Y384787D02*
X324431Y385187D01*
X324831D01*
X324431Y385587D01*
X324831Y385987D01*
X324431D01*
X324031Y386387D01*
X323631Y385987D01*
X323231D01*
X323631Y385587D01*
X323231Y385187D01*
X323631D01*
X324031Y384787D01*
X313008Y388724D02*
X312208Y390324D01*
X313808D01*
X313008Y388724D01*
X311244Y401544D02*
X311644Y402344D01*
X311244Y403144D01*
X312044Y402744D01*
X312844Y403144D01*
X312444Y402344D01*
X312844Y401544D01*
X312044Y401944D01*
X311244Y401544D01*
Y411544D02*
X311644Y412344D01*
X311244Y413144D01*
X312044Y412744D01*
X312844Y413144D01*
X312444Y412344D01*
X312844Y411544D01*
X312044Y411944D01*
X311244Y411544D01*
Y421544D02*
X311644Y422344D01*
X311244Y423144D01*
X312044Y422744D01*
X312844Y423144D01*
X312444Y422344D01*
X312844Y421544D01*
X312044Y421944D01*
X311244Y421544D01*
Y431544D02*
X311644Y432344D01*
X311244Y433144D01*
X312044Y432744D01*
X312844Y433144D01*
X312444Y432344D01*
X312844Y431544D01*
X312044Y431944D01*
X311244Y431544D01*
X321344Y346344D02*
Y345944D01*
X322144D01*
Y346344D01*
X322544D01*
Y347144D01*
X322144D01*
Y347544D01*
X321344D01*
Y347144D01*
X320944D01*
Y346344D01*
X321344D01*
Y351344D02*
Y350944D01*
X322144D01*
Y351344D01*
X322544D01*
Y352144D01*
X322144D01*
Y352544D01*
X321344D01*
Y352144D01*
X320944D01*
Y351344D01*
X321344D01*
X326344Y346344D02*
Y345944D01*
X327144D01*
Y346344D01*
X327544D01*
Y347144D01*
X327144D01*
Y347544D01*
X326344D01*
Y347144D01*
X325944D01*
Y346344D01*
X326344D01*
Y351344D02*
Y350944D01*
X327144D01*
Y351344D01*
X327544D01*
Y352144D01*
X327144D01*
Y352544D01*
X326344D01*
Y352144D01*
X325944D01*
Y351344D01*
X326344D01*
X331344Y346344D02*
Y345944D01*
X332144D01*
Y346344D01*
X332544D01*
Y347144D01*
X332144D01*
Y347544D01*
X331344D01*
Y347144D01*
X330944D01*
Y346344D01*
X331344D01*
Y351344D02*
Y350944D01*
X332144D01*
Y351344D01*
X332544D01*
Y352144D01*
X332144D01*
Y352544D01*
X331344D01*
Y352144D01*
X330944D01*
Y351344D01*
X331344D01*
X336344Y346344D02*
Y345944D01*
X337144D01*
Y346344D01*
X337544D01*
Y347144D01*
X337144D01*
Y347544D01*
X336344D01*
Y347144D01*
X335944D01*
Y346344D01*
X336344D01*
Y351344D02*
Y350944D01*
X337144D01*
Y351344D01*
X337544D01*
Y352144D01*
X337144D01*
Y352544D01*
X336344D01*
Y352144D01*
X335944D01*
Y351344D01*
X336344D01*
X341344Y346344D02*
Y345944D01*
X342144D01*
Y346344D01*
X342544D01*
Y347144D01*
X342144D01*
Y347544D01*
X341344D01*
Y347144D01*
X340944D01*
Y346344D01*
X341344D01*
Y351344D02*
Y350944D01*
X342144D01*
Y351344D01*
X342544D01*
Y352144D01*
X342144D01*
Y352544D01*
X341344D01*
Y352144D01*
X340944D01*
Y351344D01*
X341344D01*
X414444Y431944D02*
X414844Y432744D01*
X414444Y433544D01*
X415244Y433144D01*
X416044Y433544D01*
X415644Y432744D01*
X416044Y431944D01*
X415244Y432344D01*
X414444Y431944D01*
X404444D02*
X404844Y432744D01*
X404444Y433544D01*
X405244Y433144D01*
X406044Y433544D01*
X405644Y432744D01*
X406044Y431944D01*
X405244Y432344D01*
X404444Y431944D01*
X394444D02*
X394844Y432744D01*
X394444Y433544D01*
X395244Y433144D01*
X396044Y433544D01*
X395644Y432744D01*
X396044Y431944D01*
X395244Y432344D01*
X394444Y431944D01*
X384444D02*
X384844Y432744D01*
X384444Y433544D01*
X385244Y433144D01*
X386044Y433544D01*
X385644Y432744D01*
X386044Y431944D01*
X385244Y432344D01*
X384444Y431944D01*
X462700Y340400D02*
X463100D01*
X463500Y340800D01*
X463900Y340400D01*
X464300D01*
Y340800D01*
X463900Y341200D01*
X464300Y341600D01*
Y342000D01*
X463900D01*
X463500Y341600D01*
X463100Y342000D01*
X462700D01*
Y341600D01*
X463100Y341200D01*
X462700Y340800D01*
Y340400D01*
Y350400D02*
X463100D01*
X463500Y350800D01*
X463900Y350400D01*
X464300D01*
Y350800D01*
X463900Y351200D01*
X464300Y351600D01*
Y352000D01*
X463900D01*
X463500Y351600D01*
X463100Y352000D01*
X462700D01*
Y351600D01*
X463100Y351200D01*
X462700Y350800D01*
Y350400D01*
Y360400D02*
X463100D01*
X463500Y360800D01*
X463900Y360400D01*
X464300D01*
Y360800D01*
X463900Y361200D01*
X464300Y361600D01*
Y362000D01*
X463900D01*
X463500Y361600D01*
X463100Y362000D01*
X462700D01*
Y361600D01*
X463100Y361200D01*
X462700Y360800D01*
Y360400D01*
Y370400D02*
X463100D01*
X463500Y370800D01*
X463900Y370400D01*
X464300D01*
Y370800D01*
X463900Y371200D01*
X464300Y371600D01*
Y372000D01*
X463900D01*
X463500Y371600D01*
X463100Y372000D01*
X462700D01*
Y371600D01*
X463100Y371200D01*
X462700Y370800D01*
Y370400D01*
Y380400D02*
X463100D01*
X463500Y380800D01*
X463900Y380400D01*
X464300D01*
Y380800D01*
X463900Y381200D01*
X464300Y381600D01*
Y382000D01*
X463900D01*
X463500Y381600D01*
X463100Y382000D01*
X462700D01*
Y381600D01*
X463100Y381200D01*
X462700Y380800D01*
Y380400D01*
Y390400D02*
X463100D01*
X463500Y390800D01*
X463900Y390400D01*
X464300D01*
Y390800D01*
X463900Y391200D01*
X464300Y391600D01*
Y392000D01*
X463900D01*
X463500Y391600D01*
X463100Y392000D01*
X462700D01*
Y391600D01*
X463100Y391200D01*
X462700Y390800D01*
Y390400D01*
Y400400D02*
X463100D01*
X463500Y400800D01*
X463900Y400400D01*
X464300D01*
Y400800D01*
X463900Y401200D01*
X464300Y401600D01*
Y402000D01*
X463900D01*
X463500Y401600D01*
X463100Y402000D01*
X462700D01*
Y401600D01*
X463100Y401200D01*
X462700Y400800D01*
Y400400D01*
Y410400D02*
X463100D01*
X463500Y410800D01*
X463900Y410400D01*
X464300D01*
Y410800D01*
X463900Y411200D01*
X464300Y411600D01*
Y412000D01*
X463900D01*
X463500Y411600D01*
X463100Y412000D01*
X462700D01*
Y411600D01*
X463100Y411200D01*
X462700Y410800D01*
Y410400D01*
Y420400D02*
X463100D01*
X463500Y420800D01*
X463900Y420400D01*
X464300D01*
Y420800D01*
X463900Y421200D01*
X464300Y421600D01*
Y422000D01*
X463900D01*
X463500Y421600D01*
X463100Y422000D01*
X462700D01*
Y421600D01*
X463100Y421200D01*
X462700Y420800D01*
Y420400D01*
Y430400D02*
X463100D01*
X463500Y430800D01*
X463900Y430400D01*
X464300D01*
Y430800D01*
X463900Y431200D01*
X464300Y431600D01*
Y432000D01*
X463900D01*
X463500Y431600D01*
X463100Y432000D01*
X462700D01*
Y431600D01*
X463100Y431200D01*
X462700Y430800D01*
Y430400D01*
X414944Y456244D02*
X415744Y457044D01*
X416544Y456244D01*
X415744Y455444D01*
X414944Y456244D01*
X394944D02*
X395744Y457044D01*
X396544Y456244D01*
X395744Y455444D01*
X394944Y456244D01*
X329444Y386944D02*
Y388544D01*
X331044D01*
Y386944D01*
X329444D01*
X329844Y387344D02*
Y388144D01*
X330644D01*
Y387344D01*
X329844D01*
X428600Y408905D02*
Y410505D01*
X430200D01*
Y408905D01*
X428600D01*
X429000Y409305D02*
Y410105D01*
X429800D01*
Y409305D01*
X429000D01*
X363700Y323095D02*
Y324695D01*
X365300D01*
Y323095D01*
X363700D01*
X364100Y323495D02*
Y324295D01*
X364900D01*
Y323495D01*
X364100D01*
X370000Y396500D02*
Y398100D01*
X371600D01*
Y396500D01*
X370000D01*
X370400Y396900D02*
Y397700D01*
X371200D01*
Y396900D01*
X370400D01*
X363187Y347609D02*
Y349209D01*
X364787D01*
Y347609D01*
X363187D01*
X363587Y348009D02*
Y348809D01*
X364387D01*
Y348009D01*
X363587D01*
X413141Y404483D02*
Y406083D01*
X414741D01*
Y404483D01*
X413141D01*
X413541Y404883D02*
Y405683D01*
X414341D01*
Y404883D01*
X413541D01*
X411800Y344300D02*
Y345900D01*
X413400D01*
Y344300D01*
X411800D01*
X412200Y344700D02*
Y345500D01*
X413000D01*
Y344700D01*
X412200D01*
X374900Y409400D02*
Y411000D01*
X376500D01*
Y409400D01*
X374900D01*
X375300Y409800D02*
Y410600D01*
X376100D01*
Y409800D01*
X375300D01*
X365500Y379800D02*
Y381400D01*
X367100D01*
Y379800D01*
X365500D01*
X365900Y380200D02*
Y381000D01*
X366700D01*
Y380200D01*
X365900D01*
X405618Y342200D02*
Y343800D01*
X407218D01*
Y342200D01*
X405618D01*
X406018Y342600D02*
Y343400D01*
X406818D01*
Y342600D01*
X406018D01*
X352300Y370500D02*
Y372100D01*
X353900D01*
Y370500D01*
X352300D01*
X352700Y370900D02*
Y371700D01*
X353500D01*
Y370900D01*
X352700D01*
X373900Y320600D02*
Y322200D01*
X375500D01*
Y320600D01*
X373900D01*
X374300Y321000D02*
Y321800D01*
X375100D01*
Y321000D01*
X374300D01*
X345200Y344500D02*
Y346100D01*
X346800D01*
Y344500D01*
X345200D01*
X345600Y344900D02*
Y345700D01*
X346400D01*
Y344900D01*
X345600D01*
X371800Y332300D02*
Y333900D01*
X373400D01*
Y332300D01*
X371800D01*
X372200Y332700D02*
Y333500D01*
X373000D01*
Y332700D01*
X372200D01*
X368100Y331600D02*
Y333200D01*
X369700D01*
Y331600D01*
X368100D01*
X368500Y332000D02*
Y332800D01*
X369300D01*
Y332000D01*
X368500D01*
X377100Y325386D02*
Y326986D01*
X378700D01*
Y325386D01*
X377100D01*
X377500Y325786D02*
Y326586D01*
X378300D01*
Y325786D01*
X377500D01*
X371800Y328700D02*
Y330300D01*
X373400D01*
Y328700D01*
X371800D01*
X372200Y329100D02*
Y329900D01*
X373000D01*
Y329100D01*
X372200D01*
X357200Y335800D02*
Y337400D01*
X358800D01*
Y335800D01*
X357200D01*
X357600Y336200D02*
Y337000D01*
X358400D01*
Y336200D01*
X357600D01*
X333800Y360444D02*
Y362044D01*
X335400D01*
Y360444D01*
X333800D01*
X334200Y360844D02*
Y361644D01*
X335000D01*
Y360844D01*
X334200D01*
X320444Y425444D02*
Y427044D01*
X322044D01*
Y425444D01*
X320444D01*
X320844Y425844D02*
Y426644D01*
X321644D01*
Y425844D01*
X320844D01*
X320244Y405744D02*
Y407344D01*
X321844D01*
Y405744D01*
X320244D01*
X320644Y406144D02*
Y406944D01*
X321444D01*
Y406144D01*
X320644D01*
X328444Y425544D02*
Y427144D01*
X330044D01*
Y425544D01*
X328444D01*
X328844Y425944D02*
Y426744D01*
X329644D01*
Y425944D01*
X328844D01*
Y405844D02*
Y407444D01*
X330444D01*
Y405844D01*
X328844D01*
X329244Y406244D02*
Y407044D01*
X330044D01*
Y406244D01*
X329244D01*
X351644Y413244D02*
Y414844D01*
X353244D01*
Y413244D01*
X351644D01*
X352044Y413644D02*
Y414444D01*
X352844D01*
Y413644D01*
X352044D01*
X345844Y413244D02*
Y414844D01*
X347444D01*
Y413244D01*
X345844D01*
X346244Y413644D02*
Y414444D01*
X347044D01*
Y413644D01*
X346244D01*
X345944Y440844D02*
Y442444D01*
X347544D01*
Y440844D01*
X345944D01*
X346344Y441244D02*
Y442044D01*
X347144D01*
Y441244D01*
X346344D01*
X346244Y447644D02*
Y449244D01*
X347844D01*
Y447644D01*
X346244D01*
X346644Y448044D02*
Y448844D01*
X347444D01*
Y448044D01*
X346644D01*
X345844Y444144D02*
Y445744D01*
X347444D01*
Y444144D01*
X345844D01*
X346244Y444544D02*
Y445344D01*
X347044D01*
Y444544D01*
X346244D01*
X348744Y413244D02*
Y414844D01*
X350344D01*
Y413244D01*
X348744D01*
X349144Y413644D02*
Y414444D01*
X349944D01*
Y413644D01*
X349144D01*
X359444Y439944D02*
Y441544D01*
X361044D01*
Y439944D01*
X359444D01*
X359844Y440344D02*
Y441144D01*
X360644D01*
Y440344D01*
X359844D01*
X367444Y439944D02*
Y441544D01*
X369044D01*
Y439944D01*
X367444D01*
X367844Y440344D02*
Y441144D01*
X368644D01*
Y440344D01*
X367844D01*
X375444Y443944D02*
Y445544D01*
X377044D01*
Y443944D01*
X375444D01*
X375844Y444344D02*
Y445144D01*
X376644D01*
Y444344D01*
X375844D01*
X355444Y447944D02*
Y449544D01*
X357044D01*
Y447944D01*
X355444D01*
X355844Y448344D02*
Y449144D01*
X356644D01*
Y448344D01*
X355844D01*
X371444Y447944D02*
Y449544D01*
X373044D01*
Y447944D01*
X371444D01*
X371844Y448344D02*
Y449144D01*
X372644D01*
Y448344D01*
X371844D01*
X375444Y447944D02*
Y449544D01*
X377044D01*
Y447944D01*
X375444D01*
X375844Y448344D02*
Y449144D01*
X376644D01*
Y448344D01*
X375844D01*
X379444Y443944D02*
Y445544D01*
X381044D01*
Y443944D01*
X379444D01*
X379844Y444344D02*
Y445144D01*
X380644D01*
Y444344D01*
X379844D01*
X409700Y347609D02*
Y349209D01*
X411300D01*
Y347609D01*
X409700D01*
X410100Y348009D02*
Y348809D01*
X410900D01*
Y348009D01*
X410100D01*
X431400Y341900D02*
Y343500D01*
X433000D01*
Y341900D01*
X431400D01*
X431800Y342300D02*
Y343100D01*
X432600D01*
Y342300D01*
X431800D01*
X423100Y416400D02*
Y418000D01*
X424700D01*
Y416400D01*
X423100D01*
X423500Y416800D02*
Y417600D01*
X424300D01*
Y416800D01*
X423500D01*
X437944Y381900D02*
Y383500D01*
X439544D01*
Y381900D01*
X437944D01*
X438344Y382300D02*
Y383100D01*
X439144D01*
Y382300D01*
X438344D01*
X434300Y369600D02*
Y371200D01*
X435900D01*
Y369600D01*
X434300D01*
X434700Y370000D02*
Y370800D01*
X435500D01*
Y370000D01*
X434700D01*
X428300Y376100D02*
Y377700D01*
X429900D01*
Y376100D01*
X428300D01*
X428700Y376500D02*
Y377300D01*
X429500D01*
Y376500D01*
X428700D01*
X418100Y399900D02*
Y401500D01*
X419700D01*
Y399900D01*
X418100D01*
X418500Y400300D02*
Y401100D01*
X419300D01*
Y400300D01*
X418500D01*
X418100Y365244D02*
Y366844D01*
X419700D01*
Y365244D01*
X418100D01*
X418500Y365644D02*
Y366444D01*
X419300D01*
Y365644D01*
X418500D01*
X413900Y367300D02*
Y368900D01*
X415500D01*
Y367300D01*
X413900D01*
X414300Y367700D02*
Y368500D01*
X415100D01*
Y367700D01*
X414300D01*
X452100Y384400D02*
Y386000D01*
X453700D01*
Y384400D01*
X452100D01*
X452500Y384800D02*
Y385600D01*
X453300D01*
Y384800D01*
X452500D01*
X425100Y352100D02*
Y353700D01*
X426700D01*
Y352100D01*
X425100D01*
X425500Y352500D02*
Y353300D01*
X426300D01*
Y352500D01*
X425500D01*
X424700Y365800D02*
Y367400D01*
X426300D01*
Y365800D01*
X424700D01*
X425100Y366200D02*
Y367000D01*
X425900D01*
Y366200D01*
X425100D01*
X425300Y379900D02*
Y381500D01*
X426900D01*
Y379900D01*
X425300D01*
X425700Y380300D02*
Y381100D01*
X426500D01*
Y380300D01*
X425700D01*
X408100Y339300D02*
Y340900D01*
X409700D01*
Y339300D01*
X408100D01*
X408500Y339700D02*
Y340500D01*
X409300D01*
Y339700D01*
X408500D01*
X409900Y390400D02*
Y392000D01*
X411500D01*
Y390400D01*
X409900D01*
X410300Y390800D02*
Y391600D01*
X411100D01*
Y390800D01*
X410300D01*
X413900Y371400D02*
Y373000D01*
X415500D01*
Y371400D01*
X413900D01*
X414300Y371800D02*
Y372600D01*
X415100D01*
Y371800D01*
X414300D01*
X445900Y361000D02*
Y362600D01*
X447500D01*
Y361000D01*
X445900D01*
X446300Y361400D02*
Y362200D01*
X447100D01*
Y361400D01*
X446300D01*
X354444Y381444D02*
Y383044D01*
X356044D01*
Y381444D01*
X354444D01*
X354844Y381844D02*
Y382644D01*
X355644D01*
Y381844D01*
X354844D01*
X338287Y381944D02*
Y383544D01*
X339887D01*
Y381944D01*
X338287D01*
X338687Y382344D02*
Y383144D01*
X339487D01*
Y382344D01*
X338687D01*
X391944Y364944D02*
Y366544D01*
X393544D01*
Y364944D01*
X391944D01*
X392344Y365344D02*
Y366144D01*
X393144D01*
Y365344D01*
X392344D01*
X399444Y368944D02*
Y370544D01*
X401044D01*
Y368944D01*
X399444D01*
X399844Y369344D02*
Y370144D01*
X400644D01*
Y369344D01*
X399844D01*
X400944Y364444D02*
Y366044D01*
X402544D01*
Y364444D01*
X400944D01*
X401344Y364844D02*
Y365644D01*
X402144D01*
Y364844D01*
X401344D01*
X396944Y366444D02*
Y368044D01*
X398544D01*
Y366444D01*
X396944D01*
X397344Y366844D02*
Y367644D01*
X398144D01*
Y366844D01*
X397344D01*
X396944Y329444D02*
Y331044D01*
X398544D01*
Y329444D01*
X396944D01*
X397344Y329844D02*
Y330644D01*
X398144D01*
Y329844D01*
X397344D01*
X401500Y331030D02*
Y332630D01*
X403100D01*
Y331030D01*
X401500D01*
X401900Y331430D02*
Y332230D01*
X402700D01*
Y331430D01*
X401900D01*
X399400Y336444D02*
Y338044D01*
X401000D01*
Y336444D01*
X399400D01*
X399800Y336844D02*
Y337644D01*
X400600D01*
Y336844D01*
X399800D01*
X386944Y367944D02*
Y369544D01*
X388544D01*
Y367944D01*
X386944D01*
X387344Y368344D02*
Y369144D01*
X388144D01*
Y368344D01*
X387344D01*
X382944Y357444D02*
Y359044D01*
X384544D01*
Y357444D01*
X382944D01*
X383344Y357844D02*
Y358644D01*
X384144D01*
Y357844D01*
X383344D01*
X403600Y406444D02*
Y408044D01*
X405200D01*
Y406444D01*
X403600D01*
X404000Y406844D02*
Y407644D01*
X404800D01*
Y406844D01*
X404000D01*
X382944Y369444D02*
Y371044D01*
X384544D01*
Y369444D01*
X382944D01*
X383344Y369844D02*
Y370644D01*
X384144D01*
Y369844D01*
X383344D01*
X378944Y367444D02*
Y369044D01*
X380544D01*
Y367444D01*
X378944D01*
X379344Y367844D02*
Y368644D01*
X380144D01*
Y367844D01*
X379344D01*
X362444Y366444D02*
Y368044D01*
X364044D01*
Y366444D01*
X362444D01*
X362844Y366844D02*
Y367644D01*
X363644D01*
Y366844D01*
X362844D01*
X366444Y360444D02*
Y362044D01*
X368044D01*
Y360444D01*
X366444D01*
X366844Y360844D02*
Y361644D01*
X367644D01*
Y360844D01*
X366844D01*
X357944Y379944D02*
Y381544D01*
X359544D01*
Y379944D01*
X357944D01*
X358344Y380344D02*
Y381144D01*
X359144D01*
Y380344D01*
X358344D01*
X381600Y344444D02*
Y346044D01*
X383200D01*
Y344444D01*
X381600D01*
X382000Y344844D02*
Y345644D01*
X382800D01*
Y344844D01*
X382000D01*
X368944Y364444D02*
Y366044D01*
X370544D01*
Y364444D01*
X368944D01*
X369344Y364844D02*
Y365644D01*
X370144D01*
Y364844D01*
X369344D01*
X392444Y327944D02*
Y329544D01*
X394044D01*
Y327944D01*
X392444D01*
X392844Y328344D02*
Y329144D01*
X393644D01*
Y328344D01*
X392844D01*
X393944Y321444D02*
Y323044D01*
X395544D01*
Y321444D01*
X393944D01*
X394344Y321844D02*
Y322644D01*
X395144D01*
Y321844D01*
X394344D01*
X421818Y327944D02*
Y329544D01*
X423418D01*
Y327944D01*
X421818D01*
X422218Y328344D02*
Y329144D01*
X423018D01*
Y328344D01*
X422218D01*
X394444Y422444D02*
Y424044D01*
X396044D01*
Y422444D01*
X394444D01*
X394844Y422844D02*
Y423644D01*
X395644D01*
Y422844D01*
X394844D01*
X380444Y418944D02*
Y420544D01*
X382044D01*
Y418944D01*
X380444D01*
X380844Y419344D02*
Y420144D01*
X381644D01*
Y419344D01*
X380844D01*
X381444Y415444D02*
Y417044D01*
X383044D01*
Y415444D01*
X381444D01*
X381844Y415844D02*
Y416644D01*
X382644D01*
Y415844D01*
X381844D01*
X378944Y422444D02*
Y424044D01*
X380544D01*
Y422444D01*
X378944D01*
X379344Y422844D02*
Y423644D01*
X380144D01*
Y422844D01*
X379344D01*
X380444Y408444D02*
Y410044D01*
X382044D01*
Y408444D01*
X380444D01*
X380844Y408844D02*
Y409644D01*
X381644D01*
Y408844D01*
X380844D01*
X377944Y413444D02*
Y415044D01*
X379544D01*
Y413444D01*
X377944D01*
X378344Y413844D02*
Y414644D01*
X379144D01*
Y413844D01*
X378344D01*
X369444Y405100D02*
Y406700D01*
X371044D01*
Y405100D01*
X369444D01*
X369844Y405500D02*
Y406300D01*
X370644D01*
Y405500D01*
X369844D01*
X411444Y417444D02*
Y419044D01*
X413044D01*
Y417444D01*
X411444D01*
X411844Y417844D02*
Y418644D01*
X412644D01*
Y417844D01*
X411844D01*
X434444Y394444D02*
Y396044D01*
X436044D01*
Y394444D01*
X434444D01*
X434844Y394844D02*
Y395644D01*
X435644D01*
Y394844D01*
X434844D01*
X413944Y381944D02*
Y383544D01*
X415544D01*
Y381944D01*
X413944D01*
X414344Y382344D02*
Y383144D01*
X415144D01*
Y382344D01*
X414344D01*
X377744Y379088D02*
Y380689D01*
X379344D01*
Y379088D01*
X377744D01*
X378144Y379488D02*
Y380289D01*
X378944D01*
Y379488D01*
X378144D01*
X320444Y411444D02*
Y413044D01*
X322044D01*
Y411444D01*
X320444D01*
X320844Y411844D02*
Y412644D01*
X321644D01*
Y411844D01*
X320844D01*
X329444Y411444D02*
Y413044D01*
X331044D01*
Y411444D01*
X329444D01*
X329844Y411844D02*
Y412644D01*
X330644D01*
Y411844D01*
X329844D01*
X320444Y430444D02*
Y432044D01*
X322044D01*
Y430444D01*
X320444D01*
X320844Y430844D02*
Y431644D01*
X321644D01*
Y430844D01*
X320844D01*
X361944Y435944D02*
Y437544D01*
X363544D01*
Y435944D01*
X361944D01*
X362344Y436344D02*
Y437144D01*
X363144D01*
Y436344D01*
X362344D01*
X359444Y447944D02*
Y449544D01*
X361044D01*
Y447944D01*
X359444D01*
X359844Y448344D02*
Y449144D01*
X360644D01*
Y448344D01*
X359844D01*
X363444Y443944D02*
Y445544D01*
X365044D01*
Y443944D01*
X363444D01*
X363844Y444344D02*
Y445144D01*
X364644D01*
Y444344D01*
X363844D01*
X355944Y415944D02*
Y417544D01*
X357544D01*
Y415944D01*
X355944D01*
X356344Y416344D02*
Y417144D01*
X357144D01*
Y416344D01*
X356344D01*
X365444Y415850D02*
Y417450D01*
X367044D01*
Y415850D01*
X365444D01*
X365844Y416250D02*
Y417050D01*
X366644D01*
Y416250D01*
X365844D01*
X367444Y413444D02*
Y415044D01*
X369044D01*
Y413444D01*
X367444D01*
X367844Y413844D02*
Y414644D01*
X368644D01*
Y413844D01*
X367844D01*
X367444Y409944D02*
Y411544D01*
X369044D01*
Y409944D01*
X367444D01*
X367844Y410344D02*
Y411144D01*
X368644D01*
Y410344D01*
X367844D01*
X362944Y409944D02*
Y411544D01*
X364544D01*
Y409944D01*
X362944D01*
X363344Y410344D02*
Y411144D01*
X364144D01*
Y410344D01*
X363344D01*
X362944Y404444D02*
Y406044D01*
X364544D01*
Y404444D01*
X362944D01*
X363344Y404844D02*
Y405644D01*
X364144D01*
Y404844D01*
X363344D01*
X371444Y439944D02*
Y441544D01*
X373044D01*
Y439944D01*
X371444D01*
X371844Y440344D02*
Y441144D01*
X372644D01*
Y440344D01*
X371844D01*
X357944Y413444D02*
Y415044D01*
X359544D01*
Y413444D01*
X357944D01*
X358344Y413844D02*
Y414644D01*
X359144D01*
Y413844D01*
X358344D01*
X362944Y413444D02*
Y415044D01*
X364544D01*
Y413444D01*
X362944D01*
X363344Y413844D02*
Y414644D01*
X364144D01*
Y413844D01*
X363344D01*
X364944Y406944D02*
Y408544D01*
X366544D01*
Y406944D01*
X364944D01*
X365344Y407344D02*
Y408144D01*
X366144D01*
Y407344D01*
X365344D01*
X351944Y404444D02*
Y406044D01*
X353544D01*
Y404444D01*
X351944D01*
X352344Y404844D02*
Y405644D01*
X353144D01*
Y404844D01*
X352344D01*
X347944Y404444D02*
Y406044D01*
X349544D01*
Y404444D01*
X347944D01*
X348344Y404844D02*
Y405644D01*
X349144D01*
Y404844D01*
X348344D01*
X360944Y400444D02*
Y402044D01*
X362544D01*
Y400444D01*
X360944D01*
X361344Y400844D02*
Y401644D01*
X362144D01*
Y400844D01*
X361344D01*
X319944Y396444D02*
Y398044D01*
X321544D01*
Y396444D01*
X319944D01*
X320344Y396844D02*
Y397644D01*
X321144D01*
Y396844D01*
X320344D01*
X315444Y439444D02*
Y441044D01*
X317044D01*
Y439444D01*
X315444D01*
X315844Y439844D02*
Y440644D01*
X316644D01*
Y439844D01*
X315844D01*
X315444Y448444D02*
Y450044D01*
X317044D01*
Y448444D01*
X315444D01*
X315844Y448844D02*
Y449644D01*
X316644D01*
Y448844D01*
X315844D01*
X314944Y456444D02*
Y458044D01*
X316544D01*
Y456444D01*
X314944D01*
X315344Y456844D02*
Y457644D01*
X316144D01*
Y456844D01*
X315344D01*
X322944Y462944D02*
Y464544D01*
X324544D01*
Y462944D01*
X322944D01*
X323344Y463344D02*
Y464144D01*
X324144D01*
Y463344D01*
X323344D01*
X329944Y462944D02*
Y464544D01*
X331544D01*
Y462944D01*
X329944D01*
X330344Y463344D02*
Y464144D01*
X331144D01*
Y463344D01*
X330344D01*
X337944Y462444D02*
Y464044D01*
X339544D01*
Y462444D01*
X337944D01*
X338344Y462844D02*
Y463644D01*
X339144D01*
Y462844D01*
X338344D01*
X338944Y441444D02*
Y443044D01*
X340544D01*
Y441444D01*
X338944D01*
X339344Y441844D02*
Y442644D01*
X340144D01*
Y441844D01*
X339344D01*
X326944Y396444D02*
Y398044D01*
X328544D01*
Y396444D01*
X326944D01*
X327344Y396844D02*
Y397644D01*
X328144D01*
Y396844D01*
X327344D01*
X330944Y307944D02*
Y309544D01*
X332544D01*
Y307944D01*
X330944D01*
X331344Y308344D02*
Y309144D01*
X332144D01*
Y308344D01*
X331344D01*
X385944Y308145D02*
Y309745D01*
X387544D01*
Y308145D01*
X385944D01*
X386344Y308545D02*
Y309345D01*
X387144D01*
Y308545D01*
X386344D01*
X447944Y349544D02*
Y351144D01*
X449544D01*
Y349544D01*
X447944D01*
X448344Y349944D02*
Y350744D01*
X449144D01*
Y349944D01*
X448344D01*
X421944Y308145D02*
Y309745D01*
X423544D01*
Y308145D01*
X421944D01*
X422344Y308545D02*
Y309345D01*
X423144D01*
Y308545D01*
X422344D01*
X400944Y357444D02*
Y359044D01*
X402544D01*
Y357444D01*
X400944D01*
X401344Y357844D02*
Y358644D01*
X402144D01*
Y357844D01*
X401344D01*
X405444Y370444D02*
Y372044D01*
X407044D01*
Y370444D01*
X405444D01*
X405844Y370844D02*
Y371644D01*
X406644D01*
Y370844D01*
X405844D01*
X437944Y313444D02*
Y315044D01*
X439544D01*
Y313444D01*
X437944D01*
X438344Y313844D02*
Y314644D01*
X439144D01*
Y313844D01*
X438344D01*
X438444Y336444D02*
Y338044D01*
X440044D01*
Y336444D01*
X438444D01*
X438844Y336844D02*
Y337644D01*
X439644D01*
Y336844D01*
X438844D01*
X350944Y329944D02*
Y331544D01*
X352544D01*
Y329944D01*
X350944D01*
X351344Y330344D02*
Y331144D01*
X352144D01*
Y330344D01*
X351344D01*
D121*
X148544Y146744D02*
G03*
X148544Y146744I-800J0D01*
G01*
X270591D02*
G03*
X270591Y146744I-800J0D01*
G01*
Y268791D02*
G03*
X270591Y268791I-800J0D01*
G01*
X148544D02*
G03*
X148544Y268791I-800J0D01*
G01*
X177813Y250875D02*
G03*
X177813Y250875I-800J0D01*
G01*
X182144D02*
G03*
X182144Y250875I-800J0D01*
G01*
X186475D02*
G03*
X186475Y250875I-800J0D01*
G01*
X177813Y246544D02*
G03*
X177813Y246544I-800J0D01*
G01*
X182144D02*
G03*
X182144Y246544I-800J0D01*
G01*
X186475D02*
G03*
X186475Y246544I-800J0D01*
G01*
X177813Y242213D02*
G03*
X177813Y242213I-800J0D01*
G01*
X182144D02*
G03*
X182144Y242213I-800J0D01*
G01*
X186475D02*
G03*
X186475Y242213I-800J0D01*
G01*
X328544Y146744D02*
G03*
X328544Y146744I-800J0D01*
G01*
X450591D02*
G03*
X450591Y146744I-800J0D01*
G01*
Y268791D02*
G03*
X450591Y268791I-800J0D01*
G01*
X328544D02*
G03*
X328544Y268791I-800J0D01*
G01*
X357813Y250875D02*
G03*
X357813Y250875I-800J0D01*
G01*
X362144D02*
G03*
X362144Y250875I-800J0D01*
G01*
X366475D02*
G03*
X366475Y250875I-800J0D01*
G01*
X357813Y246544D02*
G03*
X357813Y246544I-800J0D01*
G01*
X362144D02*
G03*
X362144Y246544I-800J0D01*
G01*
X366475D02*
G03*
X366475Y246544I-800J0D01*
G01*
X357813Y242213D02*
G03*
X357813Y242213I-800J0D01*
G01*
X362144D02*
G03*
X362144Y242213I-800J0D01*
G01*
X366475D02*
G03*
X366475Y242213I-800J0D01*
G01*
X148544Y326744D02*
G03*
X148544Y326744I-800J0D01*
G01*
X270591D02*
G03*
X270591Y326744I-800J0D01*
G01*
Y448791D02*
G03*
X270591Y448791I-800J0D01*
G01*
X148544D02*
G03*
X148544Y448791I-800J0D01*
G01*
X177813Y430875D02*
G03*
X177813Y430875I-800J0D01*
G01*
X182144D02*
G03*
X182144Y430875I-800J0D01*
G01*
X186475D02*
G03*
X186475Y430875I-800J0D01*
G01*
X177813Y426544D02*
G03*
X177813Y426544I-800J0D01*
G01*
X182144D02*
G03*
X182144Y426544I-800J0D01*
G01*
X186475D02*
G03*
X186475Y426544I-800J0D01*
G01*
X177813Y422213D02*
G03*
X177813Y422213I-800J0D01*
G01*
X182144D02*
G03*
X182144Y422213I-800J0D01*
G01*
X186475D02*
G03*
X186475Y422213I-800J0D01*
G01*
X328544Y326744D02*
G03*
X328544Y326744I-800J0D01*
G01*
X450591D02*
G03*
X450591Y326744I-800J0D01*
G01*
Y448791D02*
G03*
X450591Y448791I-800J0D01*
G01*
X328544D02*
G03*
X328544Y448791I-800J0D01*
G01*
X357813Y430875D02*
G03*
X357813Y430875I-800J0D01*
G01*
X362144D02*
G03*
X362144Y430875I-800J0D01*
G01*
X366475D02*
G03*
X366475Y430875I-800J0D01*
G01*
X357813Y426544D02*
G03*
X357813Y426544I-800J0D01*
G01*
X362144D02*
G03*
X362144Y426544I-800J0D01*
G01*
X366475D02*
G03*
X366475Y426544I-800J0D01*
G01*
X357813Y422213D02*
G03*
X357813Y422213I-800J0D01*
G01*
X362144D02*
G03*
X362144Y422213I-800J0D01*
G01*
X366475D02*
G03*
X366475Y422213I-800J0D01*
G01*
D122*
X177413Y250875D02*
G03*
X177413Y250875I-400J0D01*
G01*
X181744D02*
G03*
X181744Y250875I-400J0D01*
G01*
X186075D02*
G03*
X186075Y250875I-400J0D01*
G01*
X177413Y246544D02*
G03*
X177413Y246544I-400J0D01*
G01*
X181744D02*
G03*
X181744Y246544I-400J0D01*
G01*
X186075D02*
G03*
X186075Y246544I-400J0D01*
G01*
X177413Y242213D02*
G03*
X177413Y242213I-400J0D01*
G01*
X181744D02*
G03*
X181744Y242213I-400J0D01*
G01*
X186075D02*
G03*
X186075Y242213I-400J0D01*
G01*
X357413Y250875D02*
G03*
X357413Y250875I-400J0D01*
G01*
X361744D02*
G03*
X361744Y250875I-400J0D01*
G01*
X366075D02*
G03*
X366075Y250875I-400J0D01*
G01*
X357413Y246544D02*
G03*
X357413Y246544I-400J0D01*
G01*
X361744D02*
G03*
X361744Y246544I-400J0D01*
G01*
X366075D02*
G03*
X366075Y246544I-400J0D01*
G01*
X357413Y242213D02*
G03*
X357413Y242213I-400J0D01*
G01*
X361744D02*
G03*
X361744Y242213I-400J0D01*
G01*
X366075D02*
G03*
X366075Y242213I-400J0D01*
G01*
X177413Y430875D02*
G03*
X177413Y430875I-400J0D01*
G01*
X181744D02*
G03*
X181744Y430875I-400J0D01*
G01*
X186075D02*
G03*
X186075Y430875I-400J0D01*
G01*
X177413Y426544D02*
G03*
X177413Y426544I-400J0D01*
G01*
X181744D02*
G03*
X181744Y426544I-400J0D01*
G01*
X186075D02*
G03*
X186075Y426544I-400J0D01*
G01*
X177413Y422213D02*
G03*
X177413Y422213I-400J0D01*
G01*
X181744D02*
G03*
X181744Y422213I-400J0D01*
G01*
X186075D02*
G03*
X186075Y422213I-400J0D01*
G01*
X357413Y430875D02*
G03*
X357413Y430875I-400J0D01*
G01*
X361744D02*
G03*
X361744Y430875I-400J0D01*
G01*
X366075D02*
G03*
X366075Y430875I-400J0D01*
G01*
X357413Y426544D02*
G03*
X357413Y426544I-400J0D01*
G01*
X361744D02*
G03*
X361744Y426544I-400J0D01*
G01*
X366075D02*
G03*
X366075Y426544I-400J0D01*
G01*
X357413Y422213D02*
G03*
X357413Y422213I-400J0D01*
G01*
X361744D02*
G03*
X361744Y422213I-400J0D01*
G01*
X366075D02*
G03*
X366075Y422213I-400J0D01*
G01*
M02*
