solid OpenSCAD_Model
  facet normal 0 0 -1
    outer loop
      vertex -6.51 -7.6 -3.7
      vertex -5.17537 -7.44776 -3.7
      vertex -4.41 -7.6 -3.7
    endloop
  endfacet
  facet normal 0 0 -1
    outer loop
      vertex -6.51 -7.6 -3.7
      vertex -5.82421 -7.01421 -3.7
      vertex -5.17537 -7.44776 -3.7
    endloop
  endfacet
  facet normal 0 0 -1
    outer loop
      vertex -6.51 -7.6 -3.7
      vertex -6.25776 -6.36537 -3.7
      vertex -5.82421 -7.01421 -3.7
    endloop
  endfacet
  facet normal 0 0 -1
    outer loop
      vertex -6.51 -5.6 -3.7
      vertex -6.25776 -6.36537 -3.7
      vertex -6.51 -7.6 -3.7
    endloop
  endfacet
  facet normal 0 0 -1
    outer loop
      vertex -6.25776 -6.36537 -3.7
      vertex -6.51 -5.6 -3.7
      vertex -6.41 -5.6 -3.7
    endloop
  endfacet
  facet normal 0 0 1
    outer loop
      vertex -5.17537 -7.44776 -8.2
      vertex -6.41 -7.6 -8.2
      vertex -4.41 -7.6 -8.2
    endloop
  endfacet
  facet normal 0 0 1
    outer loop
      vertex -5.82421 -7.01421 -8.2
      vertex -6.41 -7.6 -8.2
      vertex -5.17537 -7.44776 -8.2
    endloop
  endfacet
  facet normal 0 0 1
    outer loop
      vertex -6.25776 -6.36537 -8.2
      vertex -6.41 -7.6 -8.2
      vertex -5.82421 -7.01421 -8.2
    endloop
  endfacet
  facet normal 0 0 1
    outer loop
      vertex -6.41 -7.6 -8.2
      vertex -6.25776 -6.36537 -8.2
      vertex -6.41 -5.6 -8.2
    endloop
  endfacet
  facet normal -0.195088 -0.980786 0
    outer loop
      vertex -5.17537 -7.44776 -8.2
      vertex -4.41 -7.6 -3.7
      vertex -5.17537 -7.44776 -3.7
    endloop
  endfacet
  facet normal -0.195088 -0.980786 -0
    outer loop
      vertex -4.41 -7.6 -3.7
      vertex -5.17537 -7.44776 -8.2
      vertex -4.41 -7.6 -8.2
    endloop
  endfacet
  facet normal -0.831464 -0.555578 0
    outer loop
      vertex -5.82421 -7.01421 -8.2
      vertex -6.25776 -6.36537 -3.7
      vertex -6.25776 -6.36537 -8.2
    endloop
  endfacet
  facet normal -0.831464 -0.555578 0
    outer loop
      vertex -6.25776 -6.36537 -3.7
      vertex -5.82421 -7.01421 -8.2
      vertex -5.82421 -7.01421 -3.7
    endloop
  endfacet
  facet normal -0.980786 -0.195088 0
    outer loop
      vertex -6.41 -5.6 -8.2
      vertex -6.25776 -6.36537 -8.2
      vertex -6.41 -5.6 -3.7
    endloop
  endfacet
  facet normal -0.980786 -0.195088 -0
    outer loop
      vertex -6.25776 -6.36537 -3.7
      vertex -6.41 -5.6 -3.7
      vertex -6.25776 -6.36537 -8.2
    endloop
  endfacet
  facet normal -0.555578 -0.831464 0
    outer loop
      vertex -5.82421 -7.01421 -8.2
      vertex -5.17537 -7.44776 -3.7
      vertex -5.82421 -7.01421 -3.7
    endloop
  endfacet
  facet normal -0.555578 -0.831464 -0
    outer loop
      vertex -5.17537 -7.44776 -3.7
      vertex -5.82421 -7.01421 -8.2
      vertex -5.17537 -7.44776 -8.2
    endloop
  endfacet
  facet normal 0 0 1
    outer loop
      vertex -5.19289 7.30711 9
      vertex -4.9 6.6 9
      vertex -4.97612 6.98268 9
    endloop
  endfacet
  facet normal 0 0 1
    outer loop
      vertex -4.9 6.6 9
      vertex -7.6 4.9 9
      vertex -4.9 -3.86303 9
    endloop
  endfacet
  facet normal 0 0 1
    outer loop
      vertex -7.6 -4.9 9
      vertex -4.9 -3.86303 9
      vertex -7.6 4.9 9
    endloop
  endfacet
  facet normal 0 0 1
    outer loop
      vertex -4.9 -3.86303 9
      vertex -7.6 -4.9 9
      vertex -5.00676 -3.95916 9
    endloop
  endfacet
  facet normal 0 0 1
    outer loop
      vertex -5.9 7.6 9
      vertex -4.9 6.6 9
      vertex -5.19289 7.30711 9
    endloop
  endfacet
  facet normal 0 0 1
    outer loop
      vertex -6.6 -7.6 9
      vertex -4.775 -5.04952 9
      vertex -5.00676 -4.84084 9
    endloop
  endfacet
  facet normal 0 0 1
    outer loop
      vertex -7.6 -4.9 9
      vertex -5.00676 -4.84084 9
      vertex -5.13361 -4.55593 9
    endloop
  endfacet
  facet normal 0 0 1
    outer loop
      vertex -5.9 7.6 9
      vertex -5.19289 7.30711 9
      vertex -5.51732 7.52388 9
    endloop
  endfacet
  facet normal 0 0 1
    outer loop
      vertex -4.9 6.6 9
      vertex -5.9 7.6 9
      vertex -7.6 6.6 9
    endloop
  endfacet
  facet normal 0 0 1
    outer loop
      vertex -7.6 6.6 9
      vertex -5.9 7.6 9
      vertex -6.6 7.6 9
    endloop
  endfacet
  facet normal 0 0 1
    outer loop
      vertex -5.00676 -3.95916 9
      vertex -7.6 -4.9 9
      vertex -5.13361 -4.24407 9
    endloop
  endfacet
  facet normal 0 0 1
    outer loop
      vertex -5.13361 -4.24407 9
      vertex -7.6 -4.9 9
      vertex -5.13361 -4.55593 9
    endloop
  endfacet
  facet normal 0 0 1
    outer loop
      vertex -7.6 6.6 9
      vertex -6.6 7.6 9
      vertex -6.98268 7.52388 9
    endloop
  endfacet
  facet normal 0 0 1
    outer loop
      vertex -5.00676 -4.84084 9
      vertex -7.6 -4.9 9
      vertex -7.6 -6.6 9
    endloop
  endfacet
  facet normal 0 0 1
    outer loop
      vertex -7.6 6.6 9
      vertex -6.98268 7.52388 9
      vertex -7.30711 7.30711 9
    endloop
  endfacet
  facet normal 0 0 1
    outer loop
      vertex -4.775 -5.04952 9
      vertex -6.6 -7.6 9
      vertex -4.9 -7.6 9
    endloop
  endfacet
  facet normal 0 0 1
    outer loop
      vertex -7.6 6.6 9
      vertex -7.30711 7.30711 9
      vertex -7.52388 6.98268 9
    endloop
  endfacet
  facet normal 0 0 1
    outer loop
      vertex -5.00676 -4.84084 9
      vertex -7.6 -6.6 9
      vertex -6.6 -7.6 9
    endloop
  endfacet
  facet normal 0 0 1
    outer loop
      vertex -4.9 6.6 9
      vertex -7.6 6.6 9
      vertex -7.6 4.9 9
    endloop
  endfacet
  facet normal 0 0 1
    outer loop
      vertex -6.6 -7.6 9
      vertex -7.6 -6.6 9
      vertex -6.98268 -7.52388 9
    endloop
  endfacet
  facet normal 0 0 1
    outer loop
      vertex -6.98268 -7.52388 9
      vertex -7.6 -6.6 9
      vertex -7.30711 -7.30711 9
    endloop
  endfacet
  facet normal 0 0 1
    outer loop
      vertex -7.30711 -7.30711 9
      vertex -7.6 -6.6 9
      vertex -7.52388 -6.98268 9
    endloop
  endfacet
  facet normal 0 0 1
    outer loop
      vertex 6.6 -4.9 9
      vertex 7.6 -5.9 9
      vertex 7.52388 -5.51732 9
    endloop
  endfacet
  facet normal 0 0 1
    outer loop
      vertex 7.6 -5.9 9
      vertex 6.6 -4.9 9
      vertex 7.6 -6.6 9
    endloop
  endfacet
  facet normal 0 0 1
    outer loop
      vertex 6.6 -4.9 9
      vertex 7.52388 -5.51732 9
      vertex 7.30711 -5.19289 9
    endloop
  endfacet
  facet normal 0 0 1
    outer loop
      vertex 6.6 -7.6 9
      vertex 7.6 -6.6 9
      vertex 6.6 -4.9 9
    endloop
  endfacet
  facet normal 0 0 1
    outer loop
      vertex 6.6 -4.9 9
      vertex 7.30711 -5.19289 9
      vertex 6.98268 -4.97612 9
    endloop
  endfacet
  facet normal 0 0 1
    outer loop
      vertex 7.6 -6.6 9
      vertex 6.6 -7.6 9
      vertex 7.52388 -6.98268 9
    endloop
  endfacet
  facet normal 0 0 1
    outer loop
      vertex 7.52388 -6.98268 9
      vertex 6.6 -7.6 9
      vertex 7.30711 -7.30711 9
    endloop
  endfacet
  facet normal 0 0 1
    outer loop
      vertex 7.30711 -7.30711 9
      vertex 6.6 -7.6 9
      vertex 6.98268 -7.52388 9
    endloop
  endfacet
  facet normal 0 0 1
    outer loop
      vertex 6.6 -4.9 9
      vertex 4.9 -7.6 9
      vertex 6.6 -7.6 9
    endloop
  endfacet
  facet normal -0 0 1
    outer loop
      vertex -3.85648 -4.9 9
      vertex 4.9 -7.6 9
      vertex 6.6 -4.9 9
    endloop
  endfacet
  facet normal -0 0 1
    outer loop
      vertex -3.89815 -4.95736 9
      vertex 4.9 -7.6 9
      vertex -3.85648 -4.9 9
    endloop
  endfacet
  facet normal 0 0 1
    outer loop
      vertex 4.9 -7.6 9
      vertex -3.89815 -4.95736 9
      vertex 4.9 -8.39 9
    endloop
  endfacet
  facet normal 0 0 1
    outer loop
      vertex -4.9 -7.6 9
      vertex -3.89815 -4.95736 9
      vertex -4.16824 -5.11329 9
    endloop
  endfacet
  facet normal 0 0 1
    outer loop
      vertex -4.9 -7.6 9
      vertex -4.16824 -5.11329 9
      vertex -4.4784 -5.14589 9
    endloop
  endfacet
  facet normal 0 0 1
    outer loop
      vertex -4.9 -7.6 9
      vertex -4.4784 -5.14589 9
      vertex -4.775 -5.04952 9
    endloop
  endfacet
  facet normal 0 0 1
    outer loop
      vertex -3.89815 -4.95736 9
      vertex -4.9 -7.6 9
      vertex 4.9 -8.39 9
    endloop
  endfacet
  facet normal 0 0 1
    outer loop
      vertex 4.9 -8.39 9
      vertex -4.9 -7.6 9
      vertex -4.9 -8.39 9
    endloop
  endfacet
  facet normal -0 0 1
    outer loop
      vertex -8.39 4.9 9
      vertex -7.6 -4.9 9
      vertex -7.6 4.9 9
    endloop
  endfacet
  facet normal 0 0 1
    outer loop
      vertex -7.6 -4.9 9
      vertex -8.39 4.9 9
      vertex -8.39 -4.9 9
    endloop
  endfacet
  facet normal 0 1 -0
    outer loop
      vertex 6.6 -4.9 -9
      vertex -3.85648 -4.9 9
      vertex 6.6 -4.9 9
    endloop
  endfacet
  facet normal 0 1 0
    outer loop
      vertex -3.85648 -4.9 9
      vertex 6.6 -4.9 -9
      vertex -3.85648 -4.9 -9
    endloop
  endfacet
  facet normal 0 0 -1
    outer loop
      vertex -8.39 -4.9 -9
      vertex -7.6 4.9 -9
      vertex -7.6 -4.9 -9
    endloop
  endfacet
  facet normal -0 0 -1
    outer loop
      vertex -7.6 4.9 -9
      vertex -8.39 -4.9 -9
      vertex -8.39 4.9 -9
    endloop
  endfacet
  facet normal 0 0 -1
    outer loop
      vertex -3.89815 -4.95736 -9
      vertex 4.9 -7.6 -9
      vertex 4.9 -8.39 -9
    endloop
  endfacet
  facet normal 0 0 -1
    outer loop
      vertex 4.9 -7.6 -9
      vertex -3.89815 -4.95736 -9
      vertex -3.85648 -4.9 -9
    endloop
  endfacet
  facet normal 0 0 -1
    outer loop
      vertex -4.9 -7.6 -9
      vertex -3.89815 -4.95736 -9
      vertex 4.9 -8.39 -9
    endloop
  endfacet
  facet normal 0 0 -1
    outer loop
      vertex -3.89815 -4.95736 -9
      vertex -4.9 -7.6 -9
      vertex -4.16824 -5.11329 -9
    endloop
  endfacet
  facet normal 0 0 -1
    outer loop
      vertex -4.16824 -5.11329 -9
      vertex -4.9 -7.6 -9
      vertex -4.4784 -5.14589 -9
    endloop
  endfacet
  facet normal 0 0 -1
    outer loop
      vertex -4.9 -7.6 -9
      vertex 4.9 -8.39 -9
      vertex -4.9 -8.39 -9
    endloop
  endfacet
  facet normal -0 0 -1
    outer loop
      vertex -4.4784 -5.14589 -9
      vertex -4.9 -7.6 -9
      vertex -4.775 -5.04952 -9
    endloop
  endfacet
  facet normal 0 0 -1
    outer loop
      vertex -6.6 -7.6 -9
      vertex -4.775 -5.04952 -9
      vertex -4.9 -7.6 -9
    endloop
  endfacet
  facet normal -0 0 -1
    outer loop
      vertex -4.775 -5.04952 -9
      vertex -6.6 -7.6 -9
      vertex -5.00676 -4.84084 -9
    endloop
  endfacet
  facet normal 0 0 -1
    outer loop
      vertex -7.6 -4.9 -9
      vertex -5.13361 -4.24407 -9
      vertex -5.13361 -4.55593 -9
    endloop
  endfacet
  facet normal 0 0 -1
    outer loop
      vertex -5.13361 -4.24407 -9
      vertex -7.6 4.9 -9
      vertex -5.19289 7.30711 -9
    endloop
  endfacet
  facet normal 0 0 -1
    outer loop
      vertex -7.6 6.6 -9
      vertex -5.19289 7.30711 -9
      vertex -7.6 4.9 -9
    endloop
  endfacet
  facet normal 0 0 -1
    outer loop
      vertex -7.6 -6.6 -9
      vertex -5.00676 -4.84084 -9
      vertex -6.6 -7.6 -9
    endloop
  endfacet
  facet normal 0 0 -1
    outer loop
      vertex -7.6 -4.9 -9
      vertex -5.00676 -4.84084 -9
      vertex -7.6 -6.6 -9
    endloop
  endfacet
  facet normal -0 0 -1
    outer loop
      vertex -5.13361 -4.24407 -9
      vertex -7.6 -4.9 -9
      vertex -7.6 4.9 -9
    endloop
  endfacet
  facet normal 0 0 -1
    outer loop
      vertex -7.6 -6.6 -9
      vertex -6.6 -7.6 -9
      vertex -6.98268 -7.52388 -9
    endloop
  endfacet
  facet normal 0 -0 -1
    outer loop
      vertex -5.9 7.6 -9
      vertex -5.19289 7.30711 -9
      vertex -7.6 6.6 -9
    endloop
  endfacet
  facet normal 0 0 -1
    outer loop
      vertex -7.6 -6.6 -9
      vertex -6.98268 -7.52388 -9
      vertex -7.30711 -7.30711 -9
    endloop
  endfacet
  facet normal 0 0 -1
    outer loop
      vertex -5.19289 7.30711 -9
      vertex -5.9 7.6 -9
      vertex -5.51732 7.52388 -9
    endloop
  endfacet
  facet normal 0 0 -1
    outer loop
      vertex -7.6 -6.6 -9
      vertex -7.30711 -7.30711 -9
      vertex -7.52388 -6.98268 -9
    endloop
  endfacet
  facet normal -0 0 -1
    outer loop
      vertex -5.9 7.6 -9
      vertex -7.6 6.6 -9
      vertex -6.6 7.6 -9
    endloop
  endfacet
  facet normal -0 0 -1
    outer loop
      vertex -5.00676 -4.84084 -9
      vertex -7.6 -4.9 -9
      vertex -5.13361 -4.55593 -9
    endloop
  endfacet
  facet normal 0 0 -1
    outer loop
      vertex -6.6 7.6 -9
      vertex -7.6 6.6 -9
      vertex -6.98268 7.52388 -9
    endloop
  endfacet
  facet normal 0 0 -1
    outer loop
      vertex -6.98268 7.52388 -9
      vertex -7.6 6.6 -9
      vertex -7.30711 7.30711 -9
    endloop
  endfacet
  facet normal 0 0 -1
    outer loop
      vertex -7.30711 7.30711 -9
      vertex -7.6 6.6 -9
      vertex -7.52388 6.98268 -9
    endloop
  endfacet
  facet normal 0 0 -1
    outer loop
      vertex 6.6 -7.6 -9
      vertex 7.6 -6.6 -9
      vertex 7.52388 -6.98268 -9
    endloop
  endfacet
  facet normal -0 0 -1
    outer loop
      vertex 7.6 -6.6 -9
      vertex 6.6 -7.6 -9
      vertex 7.6 -5.9 -9
    endloop
  endfacet
  facet normal 0 0 -1
    outer loop
      vertex 6.6 -7.6 -9
      vertex 7.52388 -6.98268 -9
      vertex 7.30711 -7.30711 -9
    endloop
  endfacet
  facet normal 0 0 -1
    outer loop
      vertex 6.6 -4.9 -9
      vertex 7.6 -5.9 -9
      vertex 6.6 -7.6 -9
    endloop
  endfacet
  facet normal 0 0 -1
    outer loop
      vertex 6.6 -7.6 -9
      vertex 7.30711 -7.30711 -9
      vertex 6.98268 -7.52388 -9
    endloop
  endfacet
  facet normal 0 0 -1
    outer loop
      vertex 7.6 -5.9 -9
      vertex 6.6 -4.9 -9
      vertex 7.52388 -5.51732 -9
    endloop
  endfacet
  facet normal 0 0 -1
    outer loop
      vertex 7.52388 -5.51732 -9
      vertex 6.6 -4.9 -9
      vertex 7.30711 -5.19289 -9
    endloop
  endfacet
  facet normal 0 0 -1
    outer loop
      vertex 7.30711 -5.19289 -9
      vertex 6.6 -4.9 -9
      vertex 6.98268 -4.97612 -9
    endloop
  endfacet
  facet normal 0 0 -1
    outer loop
      vertex 4.9 -7.6 -9
      vertex 6.6 -4.9 -9
      vertex 6.6 -7.6 -9
    endloop
  endfacet
  facet normal -0 0 -1
    outer loop
      vertex 6.6 -4.9 -9
      vertex 4.9 -7.6 -9
      vertex -3.85648 -4.9 -9
    endloop
  endfacet
  facet normal 0 0 -1
    outer loop
      vertex -5.00676 -3.95916 -9
      vertex -4.9 6.6 -9
      vertex -4.9 -3.86303 -9
    endloop
  endfacet
  facet normal 0 0 -1
    outer loop
      vertex -5.13361 -4.24407 -9
      vertex -4.9 6.6 -9
      vertex -5.00676 -3.95916 -9
    endloop
  endfacet
  facet normal -0 0 -1
    outer loop
      vertex -4.9 6.6 -9
      vertex -5.13361 -4.24407 -9
      vertex -5.19289 7.30711 -9
    endloop
  endfacet
  facet normal 0 0 -1
    outer loop
      vertex -4.9 6.6 -9
      vertex -5.19289 7.30711 -9
      vertex -4.97612 6.98268 -9
    endloop
  endfacet
  facet normal 0 -1 0
    outer loop
      vertex -6.6 -7.6 -9
      vertex -6.41 -7.6 -8.2
      vertex -6.6 -7.6 -8.2
    endloop
  endfacet
  facet normal 0 -1 0
    outer loop
      vertex -4.9 -7.6 -9
      vertex -6.41 -7.6 -8.2
      vertex -6.6 -7.6 -9
    endloop
  endfacet
  facet normal 0 -1 0
    outer loop
      vertex -6.41 -7.6 -8.2
      vertex -4.9 -7.6 -9
      vertex -4.9 -7.6 -8.21
    endloop
  endfacet
  facet normal 0 -1 0
    outer loop
      vertex -6.6 -7.6 3.7
      vertex -6.51 -7.6 -3.7
      vertex -6.41 -7.6 3.7
    endloop
  endfacet
  facet normal 0 -1 0
    outer loop
      vertex -6.6 -7.6 -3.7
      vertex -6.51 -7.6 -3.7
      vertex -6.6 -7.6 3.7
    endloop
  endfacet
  facet normal 0 -1 0
    outer loop
      vertex -6.51 -7.6 8.2
      vertex -4.9 -7.6 9
      vertex -6.6 -7.6 9
    endloop
  endfacet
  facet normal 0 -1 -0
    outer loop
      vertex -4.9 -7.6 9
      vertex -6.51 -7.6 8.2
      vertex -4.9 -7.6 8.21
    endloop
  endfacet
  facet normal 0 -1 0
    outer loop
      vertex -6.51 -7.6 8.2
      vertex -6.6 -7.6 9
      vertex -6.6 -7.6 8.2
    endloop
  endfacet
  facet normal 0 -1 0
    outer loop
      vertex 4.9 -7.6 8.21
      vertex 6.6 -7.6 9
      vertex 4.9 -7.6 9
    endloop
  endfacet
  facet normal 0 -1 0
    outer loop
      vertex -4.41 -7.6 8.2
      vertex -4.9 -7.6 8.21
      vertex -6.51 -7.6 8.2
    endloop
  endfacet
  facet normal 0 -1 0
    outer loop
      vertex -4.9 -7.6 8.21
      vertex -4.41 -7.6 8.2
      vertex 4.9 -7.6 8.21
    endloop
  endfacet
  facet normal 0 -1 0
    outer loop
      vertex -4.41 -7.6 3.7
      vertex 4.9 -7.6 8.21
      vertex -4.41 -7.6 8.2
    endloop
  endfacet
  facet normal 0 -1 0
    outer loop
      vertex 4.9 -7.6 -8.21
      vertex 4.9 -7.6 8.21
      vertex -4.41 -7.6 3.7
    endloop
  endfacet
  facet normal 0 -1 0
    outer loop
      vertex -4.41 -7.6 -3.7
      vertex -6.41 -7.6 3.7
      vertex -6.51 -7.6 -3.7
    endloop
  endfacet
  facet normal 0 -1 0
    outer loop
      vertex -6.41 -7.6 3.7
      vertex -4.41 -7.6 -3.7
      vertex -4.41 -7.6 3.7
    endloop
  endfacet
  facet normal 0 -1 0
    outer loop
      vertex 4.9 -7.6 -8.21
      vertex -4.41 -7.6 3.7
      vertex -4.41 -7.6 -3.7
    endloop
  endfacet
  facet normal 0 -1 0
    outer loop
      vertex 4.9 -7.6 -8.21
      vertex -4.41 -7.6 -3.7
      vertex -4.41 -7.6 -8.2
    endloop
  endfacet
  facet normal 0 -1 0
    outer loop
      vertex -6.41 -7.6 -8.2
      vertex -4.9 -7.6 -8.21
      vertex -4.41 -7.6 -8.2
    endloop
  endfacet
  facet normal 0 -1 0
    outer loop
      vertex 4.9 -7.6 -8.21
      vertex -4.41 -7.6 -8.2
      vertex -4.9 -7.6 -8.21
    endloop
  endfacet
  facet normal 0 -1 0
    outer loop
      vertex 4.9 -7.6 8.21
      vertex 4.9 -7.6 -8.21
      vertex 6.6 -7.6 9
    endloop
  endfacet
  facet normal 0 -1 0
    outer loop
      vertex 6.6 -7.6 -9
      vertex 4.9 -7.6 -8.21
      vertex 4.9 -7.6 -9
    endloop
  endfacet
  facet normal 0 -1 0
    outer loop
      vertex 4.9 -7.6 -8.21
      vertex 6.6 -7.6 -9
      vertex 6.6 -7.6 9
    endloop
  endfacet
  facet normal -1 0 0
    outer loop
      vertex -7.6 -4.9 -9
      vertex -7.6 -6.6 -9
      vertex -7.6 -4.9 -8.21
    endloop
  endfacet
  facet normal -1 0 0
    outer loop
      vertex -7.6 4.9 -9
      vertex -7.6 6.6 -8.2
      vertex -7.6 6.6 -9
    endloop
  endfacet
  facet normal -1 0 0
    outer loop
      vertex -7.6 4.9 -8.21
      vertex -7.6 6.6 -8.2
      vertex -7.6 4.9 -9
    endloop
  endfacet
  facet normal -1 0 0
    outer loop
      vertex -7.6 -4.9 -8.21
      vertex -7.6 6.6 -8.2
      vertex -7.6 4.9 -8.21
    endloop
  endfacet
  facet normal -1 0 0
    outer loop
      vertex -7.6 -4.9 -8.21
      vertex -7.6 -6.6 -8.2
      vertex -7.6 6.6 -8.2
    endloop
  endfacet
  facet normal -1 0 0
    outer loop
      vertex -7.6 -6.6 -8.2
      vertex -7.6 -4.9 -8.21
      vertex -7.6 -6.6 -9
    endloop
  endfacet
  facet normal -1 0 0
    outer loop
      vertex -7.6 6.6 8.2
      vertex -7.6 4.9 8.21
      vertex -7.6 6.6 9
    endloop
  endfacet
  facet normal -1 0 0
    outer loop
      vertex -7.6 6.6 8.2
      vertex -7.6 -4.9 8.21
      vertex -7.6 4.9 8.21
    endloop
  endfacet
  facet normal -1 0 0
    outer loop
      vertex -7.6 -6.6 8.2
      vertex -7.6 -4.9 8.21
      vertex -7.6 6.6 8.2
    endloop
  endfacet
  facet normal -1 0 0
    outer loop
      vertex -7.6 -6.6 8.2
      vertex -7.6 -4.9 9
      vertex -7.6 -4.9 8.21
    endloop
  endfacet
  facet normal -1 -0 0
    outer loop
      vertex -7.6 -4.9 9
      vertex -7.6 -6.6 8.2
      vertex -7.6 -6.6 9
    endloop
  endfacet
  facet normal -1 -0 0
    outer loop
      vertex -7.6 6.6 9
      vertex -7.6 4.9 8.21
      vertex -7.6 4.9 9
    endloop
  endfacet
  facet normal -1 0 0
    outer loop
      vertex -7.6 6.6 -3.7
      vertex -7.6 3.24 0
      vertex -7.6 6.6 3.7
    endloop
  endfacet
  facet normal -1 0 0
    outer loop
      vertex -7.6 6.6 -3.7
      vertex -7.6 3.23943 -0.00360549
      vertex -7.6 3.24 0
    endloop
  endfacet
  facet normal -1 0 0
    outer loop
      vertex -7.6 6.6 -3.7
      vertex -7.6 3.08142 -1.00122
      vertex -7.6 3.23943 -0.00360549
    endloop
  endfacet
  facet normal -1 0 0
    outer loop
      vertex -7.6 6.6 -3.7
      vertex -7.6 2.62287 -1.90117
      vertex -7.6 3.08142 -1.00122
    endloop
  endfacet
  facet normal -1 0 0
    outer loop
      vertex -7.6 6.6 -3.7
      vertex -7.6 2.62121 -1.90442
      vertex -7.6 2.62287 -1.90117
    endloop
  endfacet
  facet normal -1 0 0
    outer loop
      vertex -7.6 6.6 -3.7
      vertex -7.6 1.90442 -2.62122
      vertex -7.6 2.62121 -1.90442
    endloop
  endfacet
  facet normal -1 0 0
    outer loop
      vertex -7.6 6.6 -3.7
      vertex -7.6 1.90117 -2.62287
      vertex -7.6 1.90442 -2.62122
    endloop
  endfacet
  facet normal -1 0 0
    outer loop
      vertex -7.6 6.6 -3.7
      vertex -7.6 1.00121 -3.08142
      vertex -7.6 1.90117 -2.62287
    endloop
  endfacet
  facet normal -1 0 0
    outer loop
      vertex -7.6 6.6 -3.7
      vertex -7.6 0.00360548 -3.23943
      vertex -7.6 1.00121 -3.08142
    endloop
  endfacet
  facet normal -1 0 0
    outer loop
      vertex -7.6 6.6 -3.7
      vertex -7.6 0 -3.24
      vertex -7.6 0.00360548 -3.23943
    endloop
  endfacet
  facet normal -1 0 0
    outer loop
      vertex -7.6 -6.6 -3.7
      vertex -7.6 -0.00360548 -3.23943
      vertex -7.6 0 -3.24
    endloop
  endfacet
  facet normal -1 0 0
    outer loop
      vertex -7.6 -6.6 -3.7
      vertex -7.6 -3.23943 -0.00360549
      vertex -7.6 -3.08142 -1.00122
    endloop
  endfacet
  facet normal -1 -0 0
    outer loop
      vertex -7.6 -3.23943 -0.00360549
      vertex -7.6 -6.6 -3.7
      vertex -7.6 -3.24 0
    endloop
  endfacet
  facet normal -1 -0 0
    outer loop
      vertex -7.6 -2.62287 -1.90117
      vertex -7.6 -6.6 -3.7
      vertex -7.6 -3.08142 -1.00122
    endloop
  endfacet
  facet normal -1 -0 0
    outer loop
      vertex -7.6 -2.62121 -1.90442
      vertex -7.6 -6.6 -3.7
      vertex -7.6 -2.62287 -1.90117
    endloop
  endfacet
  facet normal -1 -0 0
    outer loop
      vertex -7.6 -1.90442 -2.62122
      vertex -7.6 -6.6 -3.7
      vertex -7.6 -2.62121 -1.90442
    endloop
  endfacet
  facet normal -1 -0 0
    outer loop
      vertex -7.6 -1.90117 -2.62287
      vertex -7.6 -6.6 -3.7
      vertex -7.6 -1.90442 -2.62122
    endloop
  endfacet
  facet normal -1 -0 0
    outer loop
      vertex -7.6 -1.00121 -3.08142
      vertex -7.6 -6.6 -3.7
      vertex -7.6 -1.90117 -2.62287
    endloop
  endfacet
  facet normal -1 -0 0
    outer loop
      vertex -7.6 -0.00360548 -3.23943
      vertex -7.6 -6.6 -3.7
      vertex -7.6 -1.00121 -3.08142
    endloop
  endfacet
  facet normal -1 0 0
    outer loop
      vertex -7.6 -6.6 -3.7
      vertex -7.6 0 -3.24
      vertex -7.6 6.6 -3.7
    endloop
  endfacet
  facet normal -1 0 0
    outer loop
      vertex -7.6 3.23943 0.00360548
      vertex -7.6 6.6 3.7
      vertex -7.6 3.24 0
    endloop
  endfacet
  facet normal -1 0 0
    outer loop
      vertex -7.6 3.08142 1.00121
      vertex -7.6 6.6 3.7
      vertex -7.6 3.23943 0.00360548
    endloop
  endfacet
  facet normal -1 0 0
    outer loop
      vertex -7.6 2.62287 1.90117
      vertex -7.6 6.6 3.7
      vertex -7.6 3.08142 1.00121
    endloop
  endfacet
  facet normal -1 0 0
    outer loop
      vertex -7.6 2.62121 1.90442
      vertex -7.6 6.6 3.7
      vertex -7.6 2.62287 1.90117
    endloop
  endfacet
  facet normal -1 0 0
    outer loop
      vertex -7.6 1.90442 2.62121
      vertex -7.6 6.6 3.7
      vertex -7.6 2.62121 1.90442
    endloop
  endfacet
  facet normal -1 0 0
    outer loop
      vertex -7.6 1.90117 2.62287
      vertex -7.6 6.6 3.7
      vertex -7.6 1.90442 2.62121
    endloop
  endfacet
  facet normal -1 0 0
    outer loop
      vertex -7.6 1.00121 3.08142
      vertex -7.6 6.6 3.7
      vertex -7.6 1.90117 2.62287
    endloop
  endfacet
  facet normal -1 0 0
    outer loop
      vertex -7.6 0.00360548 3.23943
      vertex -7.6 6.6 3.7
      vertex -7.6 1.00121 3.08142
    endloop
  endfacet
  facet normal -1 0 0
    outer loop
      vertex -7.6 0 3.24
      vertex -7.6 6.6 3.7
      vertex -7.6 0.00360548 3.23943
    endloop
  endfacet
  facet normal -1 0 0
    outer loop
      vertex -7.6 -6.6 3.7
      vertex -7.6 -0.00360548 3.23943
      vertex -7.6 -1.00121 3.08142
    endloop
  endfacet
  facet normal -1 0 0
    outer loop
      vertex -7.6 -6.6 3.7
      vertex -7.6 -3.23943 0.00360548
      vertex -7.6 -3.24 0
    endloop
  endfacet
  facet normal -1 0 0
    outer loop
      vertex -7.6 -6.6 3.7
      vertex -7.6 -3.24 0
      vertex -7.6 -6.6 -3.7
    endloop
  endfacet
  facet normal -1 0 0
    outer loop
      vertex -7.6 -3.23943 0.00360548
      vertex -7.6 -6.6 3.7
      vertex -7.6 -3.08142 1.00121
    endloop
  endfacet
  facet normal -1 0 0
    outer loop
      vertex -7.6 -3.08142 1.00121
      vertex -7.6 -6.6 3.7
      vertex -7.6 -2.62287 1.90117
    endloop
  endfacet
  facet normal -1 0 0
    outer loop
      vertex -7.6 0 3.24
      vertex -7.6 -6.6 3.7
      vertex -7.6 6.6 3.7
    endloop
  endfacet
  facet normal -1 0 0
    outer loop
      vertex -7.6 -0.00360548 3.23943
      vertex -7.6 -6.6 3.7
      vertex -7.6 0 3.24
    endloop
  endfacet
  facet normal -1 0 0
    outer loop
      vertex -7.6 -1.90117 2.62287
      vertex -7.6 -6.6 3.7
      vertex -7.6 -1.00121 3.08142
    endloop
  endfacet
  facet normal -1 0 0
    outer loop
      vertex -7.6 -1.90442 2.62121
      vertex -7.6 -6.6 3.7
      vertex -7.6 -1.90117 2.62287
    endloop
  endfacet
  facet normal -1 0 0
    outer loop
      vertex -7.6 -2.62121 1.90442
      vertex -7.6 -6.6 3.7
      vertex -7.6 -1.90442 2.62121
    endloop
  endfacet
  facet normal -1 0 0
    outer loop
      vertex -7.6 -2.62287 1.90117
      vertex -7.6 -6.6 3.7
      vertex -7.6 -2.62121 1.90442
    endloop
  endfacet
  facet normal 1 -0 0
    outer loop
      vertex 7.6 -6.6 9
      vertex 7.6 -5.9 -9
      vertex 7.6 -5.9 9
    endloop
  endfacet
  facet normal 1 0 0
    outer loop
      vertex 7.6 -5.9 -9
      vertex 7.6 -6.6 9
      vertex 7.6 -6.6 -9
    endloop
  endfacet
  facet normal -0.980785 -0.195091 0
    outer loop
      vertex -7.52388 -6.98268 -9
      vertex -7.6 -6.6 -8.2
      vertex -7.6 -6.6 -9
    endloop
  endfacet
  facet normal -0.980785 -0.195091 0
    outer loop
      vertex -7.6 -6.6 -8.2
      vertex -7.52388 -6.98268 -9
      vertex -7.52388 -6.98268 -8.2
    endloop
  endfacet
  facet normal -0.980785 -0.195091 0
    outer loop
      vertex -7.52388 -6.98268 8.2
      vertex -7.6 -6.6 9
      vertex -7.6 -6.6 8.2
    endloop
  endfacet
  facet normal -0.980785 -0.195091 0
    outer loop
      vertex -7.6 -6.6 9
      vertex -7.52388 -6.98268 8.2
      vertex -7.52388 -6.98268 9
    endloop
  endfacet
  facet normal -0.980785 -0.195091 0
    outer loop
      vertex -7.52388 -6.98268 -3.7
      vertex -7.6 -6.6 3.7
      vertex -7.6 -6.6 -3.7
    endloop
  endfacet
  facet normal -0.980785 -0.195091 0
    outer loop
      vertex -7.6 -6.6 3.7
      vertex -7.52388 -6.98268 -3.7
      vertex -7.52388 -6.98268 3.7
    endloop
  endfacet
  facet normal -0.831478 -0.555557 0
    outer loop
      vertex -7.30711 -7.30711 -9
      vertex -7.52388 -6.98268 -8.2
      vertex -7.52388 -6.98268 -9
    endloop
  endfacet
  facet normal -0.831478 -0.555557 0
    outer loop
      vertex -7.52388 -6.98268 -8.2
      vertex -7.30711 -7.30711 -9
      vertex -7.30711 -7.30711 -8.2
    endloop
  endfacet
  facet normal -0.831478 -0.555557 0
    outer loop
      vertex -7.30711 -7.30711 8.2
      vertex -7.52388 -6.98268 9
      vertex -7.52388 -6.98268 8.2
    endloop
  endfacet
  facet normal -0.831478 -0.555557 0
    outer loop
      vertex -7.52388 -6.98268 9
      vertex -7.30711 -7.30711 8.2
      vertex -7.30711 -7.30711 9
    endloop
  endfacet
  facet normal -0.831478 -0.555557 0
    outer loop
      vertex -7.30711 -7.30711 -3.7
      vertex -7.52388 -6.98268 3.7
      vertex -7.52388 -6.98268 -3.7
    endloop
  endfacet
  facet normal -0.831478 -0.555557 0
    outer loop
      vertex -7.52388 -6.98268 3.7
      vertex -7.30711 -7.30711 -3.7
      vertex -7.30711 -7.30711 3.7
    endloop
  endfacet
  facet normal -0.195091 -0.980785 0
    outer loop
      vertex -6.98268 -7.52388 -9
      vertex -6.6 -7.6 -8.2
      vertex -6.98268 -7.52388 -8.2
    endloop
  endfacet
  facet normal -0.195091 -0.980785 -0
    outer loop
      vertex -6.6 -7.6 -8.2
      vertex -6.98268 -7.52388 -9
      vertex -6.6 -7.6 -9
    endloop
  endfacet
  facet normal -0.195091 -0.980785 0
    outer loop
      vertex -6.98268 -7.52388 8.2
      vertex -6.6 -7.6 9
      vertex -6.98268 -7.52388 9
    endloop
  endfacet
  facet normal -0.195091 -0.980785 -0
    outer loop
      vertex -6.6 -7.6 9
      vertex -6.98268 -7.52388 8.2
      vertex -6.6 -7.6 8.2
    endloop
  endfacet
  facet normal -0.195091 -0.980785 0
    outer loop
      vertex -6.98268 -7.52388 -3.7
      vertex -6.6 -7.6 3.7
      vertex -6.98268 -7.52388 3.7
    endloop
  endfacet
  facet normal -0.195091 -0.980785 -0
    outer loop
      vertex -6.6 -7.6 3.7
      vertex -6.98268 -7.52388 -3.7
      vertex -6.6 -7.6 -3.7
    endloop
  endfacet
  facet normal -0.555557 -0.831478 0
    outer loop
      vertex -7.30711 -7.30711 8.2
      vertex -6.98268 -7.52388 9
      vertex -7.30711 -7.30711 9
    endloop
  endfacet
  facet normal -0.555557 -0.831478 -0
    outer loop
      vertex -6.98268 -7.52388 9
      vertex -7.30711 -7.30711 8.2
      vertex -6.98268 -7.52388 8.2
    endloop
  endfacet
  facet normal -0.555557 -0.831478 0
    outer loop
      vertex -7.30711 -7.30711 -9
      vertex -6.98268 -7.52388 -8.2
      vertex -7.30711 -7.30711 -8.2
    endloop
  endfacet
  facet normal -0.555557 -0.831478 -0
    outer loop
      vertex -6.98268 -7.52388 -8.2
      vertex -7.30711 -7.30711 -9
      vertex -6.98268 -7.52388 -9
    endloop
  endfacet
  facet normal -0.555557 -0.831478 0
    outer loop
      vertex -7.30711 -7.30711 -3.7
      vertex -6.98268 -7.52388 3.7
      vertex -7.30711 -7.30711 3.7
    endloop
  endfacet
  facet normal -0.555557 -0.831478 -0
    outer loop
      vertex -6.98268 -7.52388 3.7
      vertex -7.30711 -7.30711 -3.7
      vertex -6.98268 -7.52388 -3.7
    endloop
  endfacet
  facet normal 0.831478 -0.555557 0
    outer loop
      vertex 7.30711 -7.30711 9
      vertex 7.52388 -6.98268 -9
      vertex 7.52388 -6.98268 9
    endloop
  endfacet
  facet normal 0.831478 -0.555557 0
    outer loop
      vertex 7.52388 -6.98268 -9
      vertex 7.30711 -7.30711 9
      vertex 7.30711 -7.30711 -9
    endloop
  endfacet
  facet normal 0.555557 -0.831478 0
    outer loop
      vertex 6.98268 -7.52388 -9
      vertex 7.30711 -7.30711 9
      vertex 6.98268 -7.52388 9
    endloop
  endfacet
  facet normal 0.555557 -0.831478 0
    outer loop
      vertex 7.30711 -7.30711 9
      vertex 6.98268 -7.52388 -9
      vertex 7.30711 -7.30711 -9
    endloop
  endfacet
  facet normal 0.195091 -0.980785 0
    outer loop
      vertex 6.6 -7.6 -9
      vertex 6.98268 -7.52388 9
      vertex 6.6 -7.6 9
    endloop
  endfacet
  facet normal 0.195091 -0.980785 0
    outer loop
      vertex 6.98268 -7.52388 9
      vertex 6.6 -7.6 -9
      vertex 6.98268 -7.52388 -9
    endloop
  endfacet
  facet normal 0.980785 -0.195091 0
    outer loop
      vertex 7.52388 -6.98268 9
      vertex 7.6 -6.6 -9
      vertex 7.6 -6.6 9
    endloop
  endfacet
  facet normal 0.980785 -0.195091 0
    outer loop
      vertex 7.6 -6.6 -9
      vertex 7.52388 -6.98268 9
      vertex 7.52388 -6.98268 -9
    endloop
  endfacet
  facet normal 0.980785 0.195091 0
    outer loop
      vertex 7.6 -5.9 9
      vertex 7.52388 -5.51732 -9
      vertex 7.52388 -5.51732 9
    endloop
  endfacet
  facet normal 0.980785 0.195091 0
    outer loop
      vertex 7.52388 -5.51732 -9
      vertex 7.6 -5.9 9
      vertex 7.6 -5.9 -9
    endloop
  endfacet
  facet normal 0.195091 0.980785 -0
    outer loop
      vertex 6.98268 -4.97612 -9
      vertex 6.6 -4.9 9
      vertex 6.98268 -4.97612 9
    endloop
  endfacet
  facet normal 0.195091 0.980785 0
    outer loop
      vertex 6.6 -4.9 9
      vertex 6.98268 -4.97612 -9
      vertex 6.6 -4.9 -9
    endloop
  endfacet
  facet normal 0.555557 0.831478 -0
    outer loop
      vertex 7.30711 -5.19289 -9
      vertex 6.98268 -4.97612 9
      vertex 7.30711 -5.19289 9
    endloop
  endfacet
  facet normal 0.555557 0.831478 0
    outer loop
      vertex 6.98268 -4.97612 9
      vertex 7.30711 -5.19289 -9
      vertex 6.98268 -4.97612 -9
    endloop
  endfacet
  facet normal 0.831478 0.555557 0
    outer loop
      vertex 7.52388 -5.51732 9
      vertex 7.30711 -5.19289 -9
      vertex 7.30711 -5.19289 9
    endloop
  endfacet
  facet normal 0.831478 0.555557 0
    outer loop
      vertex 7.30711 -5.19289 -9
      vertex 7.52388 -5.51732 9
      vertex 7.52388 -5.51732 -9
    endloop
  endfacet
  facet normal 0 1 0
    outer loop
      vertex -5.9 7.6 9
      vertex -6.41 7.6 8.2
      vertex -6.6 7.6 9
    endloop
  endfacet
  facet normal 0 1 0
    outer loop
      vertex -5.9 7.6 9
      vertex -6.41 7.6 3.7
      vertex -6.41 7.6 8.2
    endloop
  endfacet
  facet normal 0 1 0
    outer loop
      vertex -6.41 7.6 3.7
      vertex -6.41 7.6 -3.7
      vertex -6.6 7.6 3.7
    endloop
  endfacet
  facet normal 0 1 0
    outer loop
      vertex -5.9 7.6 9
      vertex -6.41 7.6 -3.7
      vertex -6.41 7.6 3.7
    endloop
  endfacet
  facet normal 0 1 -0
    outer loop
      vertex -5.9 7.6 -9
      vertex -6.41 7.6 -3.7
      vertex -5.9 7.6 9
    endloop
  endfacet
  facet normal 0 1 0
    outer loop
      vertex -6.41 7.6 -3.7
      vertex -5.9 7.6 -9
      vertex -6.41 7.6 -8.2
    endloop
  endfacet
  facet normal 0 1 0
    outer loop
      vertex -6.6 7.6 -9
      vertex -6.41 7.6 -8.2
      vertex -5.9 7.6 -9
    endloop
  endfacet
  facet normal 0 1 0
    outer loop
      vertex -6.41 7.6 -8.2
      vertex -6.6 7.6 -9
      vertex -6.6 7.6 -8.2
    endloop
  endfacet
  facet normal 0 1 0
    outer loop
      vertex -6.6 7.6 9
      vertex -6.41 7.6 8.2
      vertex -6.6 7.6 8.2
    endloop
  endfacet
  facet normal 0 1 0
    outer loop
      vertex -6.6 7.6 3.7
      vertex -6.41 7.6 -3.7
      vertex -6.6 7.6 -3.7
    endloop
  endfacet
  facet normal 1 0 0
    outer loop
      vertex -4.9 6.6 9
      vertex -4.9 2.77128 1.6
      vertex -4.9 6.6 -9
    endloop
  endfacet
  facet normal 1 0 0
    outer loop
      vertex -4.9 6.6 9
      vertex -4.9 0 3.2
      vertex -4.9 2.77128 1.6
    endloop
  endfacet
  facet normal 1 -0 0
    outer loop
      vertex -4.9 -3.86303 9
      vertex -4.9 0 3.2
      vertex -4.9 6.6 9
    endloop
  endfacet
  facet normal 1 0 0
    outer loop
      vertex -4.9 -2.77128 1.6
      vertex -4.9 -3.86303 9
      vertex -4.9 -2.77128 -1.6
    endloop
  endfacet
  facet normal 1 0 0
    outer loop
      vertex -4.9 0 3.2
      vertex -4.9 -3.86303 9
      vertex -4.9 -2.77128 1.6
    endloop
  endfacet
  facet normal 1 -0 0
    outer loop
      vertex -4.9 2.77128 -1.6
      vertex -4.9 6.6 -9
      vertex -4.9 2.77128 1.6
    endloop
  endfacet
  facet normal 1 -0 0
    outer loop
      vertex -4.9 0 -3.2
      vertex -4.9 6.6 -9
      vertex -4.9 2.77128 -1.6
    endloop
  endfacet
  facet normal 1 0 0
    outer loop
      vertex -4.9 -3.86303 -9
      vertex -4.9 0 -3.2
      vertex -4.9 -2.77128 -1.6
    endloop
  endfacet
  facet normal 1 0 0
    outer loop
      vertex -4.9 0 -3.2
      vertex -4.9 -3.86303 -9
      vertex -4.9 6.6 -9
    endloop
  endfacet
  facet normal 1 0 0
    outer loop
      vertex -4.9 -3.86303 -9
      vertex -4.9 -2.77128 -1.6
      vertex -4.9 -3.86303 9
    endloop
  endfacet
  facet normal 0.980785 0.195091 0
    outer loop
      vertex -4.9 6.6 9
      vertex -4.97612 6.98268 -9
      vertex -4.97612 6.98268 9
    endloop
  endfacet
  facet normal 0.980785 0.195091 0
    outer loop
      vertex -4.97612 6.98268 -9
      vertex -4.9 6.6 9
      vertex -4.9 6.6 -9
    endloop
  endfacet
  facet normal 0.555557 0.831478 -0
    outer loop
      vertex -5.19289 7.30711 -9
      vertex -5.51732 7.52388 9
      vertex -5.19289 7.30711 9
    endloop
  endfacet
  facet normal 0.555557 0.831478 0
    outer loop
      vertex -5.51732 7.52388 9
      vertex -5.19289 7.30711 -9
      vertex -5.51732 7.52388 -9
    endloop
  endfacet
  facet normal 0.831478 0.555557 0
    outer loop
      vertex -4.97612 6.98268 9
      vertex -5.19289 7.30711 -9
      vertex -5.19289 7.30711 9
    endloop
  endfacet
  facet normal 0.831478 0.555557 0
    outer loop
      vertex -5.19289 7.30711 -9
      vertex -4.97612 6.98268 9
      vertex -4.97612 6.98268 -9
    endloop
  endfacet
  facet normal 0.195091 0.980785 -0
    outer loop
      vertex -5.51732 7.52388 -9
      vertex -5.9 7.6 9
      vertex -5.51732 7.52388 9
    endloop
  endfacet
  facet normal 0.195091 0.980785 0
    outer loop
      vertex -5.9 7.6 9
      vertex -5.51732 7.52388 -9
      vertex -5.9 7.6 -9
    endloop
  endfacet
  facet normal -0.195091 0.980785 0
    outer loop
      vertex -6.6 7.6 -9
      vertex -6.98268 7.52388 -8.2
      vertex -6.6 7.6 -8.2
    endloop
  endfacet
  facet normal -0.195091 0.980785 0
    outer loop
      vertex -6.98268 7.52388 -8.2
      vertex -6.6 7.6 -9
      vertex -6.98268 7.52388 -9
    endloop
  endfacet
  facet normal -0.195091 0.980785 0
    outer loop
      vertex -6.6 7.6 8.2
      vertex -6.98268 7.52388 9
      vertex -6.6 7.6 9
    endloop
  endfacet
  facet normal -0.195091 0.980785 0
    outer loop
      vertex -6.98268 7.52388 9
      vertex -6.6 7.6 8.2
      vertex -6.98268 7.52388 8.2
    endloop
  endfacet
  facet normal -0.195091 0.980785 0
    outer loop
      vertex -6.6 7.6 -3.7
      vertex -6.98268 7.52388 3.7
      vertex -6.6 7.6 3.7
    endloop
  endfacet
  facet normal -0.195091 0.980785 0
    outer loop
      vertex -6.98268 7.52388 3.7
      vertex -6.6 7.6 -3.7
      vertex -6.98268 7.52388 -3.7
    endloop
  endfacet
  facet normal -0.555557 0.831478 0
    outer loop
      vertex -6.98268 7.52388 -9
      vertex -7.30711 7.30711 -8.2
      vertex -6.98268 7.52388 -8.2
    endloop
  endfacet
  facet normal -0.555557 0.831478 0
    outer loop
      vertex -7.30711 7.30711 -8.2
      vertex -6.98268 7.52388 -9
      vertex -7.30711 7.30711 -9
    endloop
  endfacet
  facet normal -0.555557 0.831478 0
    outer loop
      vertex -6.98268 7.52388 8.2
      vertex -7.30711 7.30711 9
      vertex -6.98268 7.52388 9
    endloop
  endfacet
  facet normal -0.555557 0.831478 0
    outer loop
      vertex -7.30711 7.30711 9
      vertex -6.98268 7.52388 8.2
      vertex -7.30711 7.30711 8.2
    endloop
  endfacet
  facet normal -0.555557 0.831478 0
    outer loop
      vertex -6.98268 7.52388 -3.7
      vertex -7.30711 7.30711 3.7
      vertex -6.98268 7.52388 3.7
    endloop
  endfacet
  facet normal -0.555557 0.831478 0
    outer loop
      vertex -7.30711 7.30711 3.7
      vertex -6.98268 7.52388 -3.7
      vertex -7.30711 7.30711 -3.7
    endloop
  endfacet
  facet normal -0.831478 0.555557 0
    outer loop
      vertex -7.52388 6.98268 8.2
      vertex -7.30711 7.30711 9
      vertex -7.30711 7.30711 8.2
    endloop
  endfacet
  facet normal -0.831478 0.555557 0
    outer loop
      vertex -7.30711 7.30711 9
      vertex -7.52388 6.98268 8.2
      vertex -7.52388 6.98268 9
    endloop
  endfacet
  facet normal -0.831478 0.555557 0
    outer loop
      vertex -7.52388 6.98268 -9
      vertex -7.30711 7.30711 -8.2
      vertex -7.30711 7.30711 -9
    endloop
  endfacet
  facet normal -0.831478 0.555557 0
    outer loop
      vertex -7.30711 7.30711 -8.2
      vertex -7.52388 6.98268 -9
      vertex -7.52388 6.98268 -8.2
    endloop
  endfacet
  facet normal -0.831478 0.555557 0
    outer loop
      vertex -7.52388 6.98268 -3.7
      vertex -7.30711 7.30711 3.7
      vertex -7.30711 7.30711 -3.7
    endloop
  endfacet
  facet normal -0.831478 0.555557 0
    outer loop
      vertex -7.30711 7.30711 3.7
      vertex -7.52388 6.98268 -3.7
      vertex -7.52388 6.98268 3.7
    endloop
  endfacet
  facet normal -0.980785 0.195091 0
    outer loop
      vertex -7.6 6.6 -9
      vertex -7.52388 6.98268 -8.2
      vertex -7.52388 6.98268 -9
    endloop
  endfacet
  facet normal -0.980785 0.195091 0
    outer loop
      vertex -7.52388 6.98268 -8.2
      vertex -7.6 6.6 -9
      vertex -7.6 6.6 -8.2
    endloop
  endfacet
  facet normal -0.980785 0.195091 0
    outer loop
      vertex -7.6 6.6 8.2
      vertex -7.52388 6.98268 9
      vertex -7.52388 6.98268 8.2
    endloop
  endfacet
  facet normal -0.980785 0.195091 0
    outer loop
      vertex -7.52388 6.98268 9
      vertex -7.6 6.6 8.2
      vertex -7.6 6.6 9
    endloop
  endfacet
  facet normal -0.980785 0.195091 0
    outer loop
      vertex -7.6 6.6 -3.7
      vertex -7.52388 6.98268 3.7
      vertex -7.52388 6.98268 -3.7
    endloop
  endfacet
  facet normal -0.980785 0.195091 0
    outer loop
      vertex -7.52388 6.98268 3.7
      vertex -7.6 6.6 -3.7
      vertex -7.6 6.6 3.7
    endloop
  endfacet
  facet normal 0 1 -0
    outer loop
      vertex -7.6 4.9 -9
      vertex -8.39 4.9 -9
      vertex -7.6 4.9 -8.21
    endloop
  endfacet
  facet normal 0 -1 -0
    outer loop
      vertex -7.6 -4.9 -8.21
      vertex -8.39 -4.9 -9
      vertex -7.6 -4.9 -9
    endloop
  endfacet
  facet normal -0.707107 0 0.707107
    outer loop
      vertex -8.39 4.9 -9
      vertex -7.6 -4.9 -8.21
      vertex -7.6 4.9 -8.21
    endloop
  endfacet
  facet normal -0.707107 0 0.707107
    outer loop
      vertex -7.6 -4.9 -8.21
      vertex -8.39 4.9 -9
      vertex -8.39 -4.9 -9
    endloop
  endfacet
  facet normal -0 -1 -0
    outer loop
      vertex -7.6 -4.9 9
      vertex -8.39 -4.9 9
      vertex -7.6 -4.9 8.21
    endloop
  endfacet
  facet normal 0 1 -0
    outer loop
      vertex -7.6 4.9 8.21
      vertex -8.39 4.9 9
      vertex -7.6 4.9 9
    endloop
  endfacet
  facet normal -0.707107 0 -0.707107
    outer loop
      vertex -8.39 -4.9 9
      vertex -7.6 4.9 8.21
      vertex -7.6 -4.9 8.21
    endloop
  endfacet
  facet normal -0.707107 0 -0.707107
    outer loop
      vertex -7.6 4.9 8.21
      vertex -8.39 -4.9 9
      vertex -8.39 4.9 9
    endloop
  endfacet
  facet normal -1 0 0
    outer loop
      vertex -4.9 -7.6 -9
      vertex -4.9 -8.39 -9
      vertex -4.9 -7.6 -8.21
    endloop
  endfacet
  facet normal 1 0 0
    outer loop
      vertex 4.9 -7.6 -8.21
      vertex 4.9 -8.39 -9
      vertex 4.9 -7.6 -9
    endloop
  endfacet
  facet normal 0 -0.707107 0.707107
    outer loop
      vertex -4.9 -7.6 -8.21
      vertex 4.9 -8.39 -9
      vertex 4.9 -7.6 -8.21
    endloop
  endfacet
  facet normal 0 -0.707107 0.707107
    outer loop
      vertex 4.9 -8.39 -9
      vertex -4.9 -7.6 -8.21
      vertex -4.9 -8.39 -9
    endloop
  endfacet
  facet normal 1 0 0
    outer loop
      vertex 4.9 -7.6 9
      vertex 4.9 -8.39 9
      vertex 4.9 -7.6 8.21
    endloop
  endfacet
  facet normal -1 0 0
    outer loop
      vertex -4.9 -7.6 8.21
      vertex -4.9 -8.39 9
      vertex -4.9 -7.6 9
    endloop
  endfacet
  facet normal 0 -0.707107 -0.707107
    outer loop
      vertex -4.9 -8.39 9
      vertex 4.9 -7.6 8.21
      vertex 4.9 -8.39 9
    endloop
  endfacet
  facet normal -0 -0.707107 -0.707107
    outer loop
      vertex 4.9 -7.6 8.21
      vertex -4.9 -8.39 9
      vertex -4.9 -7.6 8.21
    endloop
  endfacet
  facet normal -0.702714 0.111298 0.702713
    outer loop
      vertex -9.09 0 1.75
      vertex -7.6 0.00360548 3.23943
      vertex -9.09 0.540779 1.66435
    endloop
  endfacet
  facet normal -0.70273 0.111096 0.70273
    outer loop
      vertex -7.6 0.00360548 3.23943
      vertex -9.09 0 1.75
      vertex -7.6 0 3.24
    endloop
  endfacet
  facet normal -0.702713 0.111302 0.702714
    outer loop
      vertex -7.6 1.00121 3.08142
      vertex -9.09 0.540779 1.66435
      vertex -7.6 0.00360548 3.23943
    endloop
  endfacet
  facet normal -0.702712 -0.323001 -0.633929
    outer loop
      vertex -7.6 -1.90117 -2.62287
      vertex -9.09 -0.540779 -1.66435
      vertex -7.6 -1.00121 -3.08142
    endloop
  endfacet
  facet normal -0.702768 0.323603 0.63356
    outer loop
      vertex -9.09 1.02862 1.41578
      vertex -7.6 1.90117 2.62287
      vertex -7.6 1.90442 2.62121
    endloop
  endfacet
  facet normal -0.702713 0.323005 0.633926
    outer loop
      vertex -7.6 1.90117 2.62287
      vertex -9.09 1.02862 1.41578
      vertex -9.09 0.540779 1.66435
    endloop
  endfacet
  facet normal -0.702713 0.702714 -0.111301
    outer loop
      vertex -7.6 3.08142 -1.00122
      vertex -9.09 1.66435 -0.54078
      vertex -7.6 3.23943 -0.00360549
    endloop
  endfacet
  facet normal -0.702714 -0.702713 0.111298
    outer loop
      vertex -9.09 -1.75 0
      vertex -7.6 -3.23943 0.00360548
      vertex -9.09 -1.66435 0.540779
    endloop
  endfacet
  facet normal -0.70273 -0.70273 0.111096
    outer loop
      vertex -7.6 -3.23943 0.00360548
      vertex -9.09 -1.75 0
      vertex -7.6 -3.24 0
    endloop
  endfacet
  facet normal -0.702713 -0.503088 0.503088
    outer loop
      vertex -9.09 -1.41578 1.02862
      vertex -7.6 -1.90442 2.62121
      vertex -9.09 -1.02862 1.41578
    endloop
  endfacet
  facet normal -0.702713 -0.503088 0.503088
    outer loop
      vertex -7.6 -1.90442 2.62121
      vertex -9.09 -1.41578 1.02862
      vertex -7.6 -2.62121 1.90442
    endloop
  endfacet
  facet normal -0.702712 0.323001 0.633929
    outer loop
      vertex -7.6 1.90117 2.62287
      vertex -9.09 0.540779 1.66435
      vertex -7.6 1.00121 3.08142
    endloop
  endfacet
  facet normal -0.702713 -0.111302 -0.702714
    outer loop
      vertex -7.6 -1.00121 -3.08142
      vertex -9.09 -0.540779 -1.66435
      vertex -7.6 -0.00360548 -3.23943
    endloop
  endfacet
  facet normal -0.702768 0.63356 -0.323603
    outer loop
      vertex -9.09 1.41578 -1.02862
      vertex -7.6 2.62287 -1.90117
      vertex -7.6 2.62121 -1.90442
    endloop
  endfacet
  facet normal -0.702714 0.633925 -0.323005
    outer loop
      vertex -7.6 2.62287 -1.90117
      vertex -9.09 1.41578 -1.02862
      vertex -9.09 1.66435 -0.54078
    endloop
  endfacet
  facet normal -0.702713 -0.323005 -0.633926
    outer loop
      vertex -7.6 -1.90117 -2.62287
      vertex -9.09 -1.02862 -1.41578
      vertex -9.09 -0.540779 -1.66435
    endloop
  endfacet
  facet normal -0.702632 -0.322115 -0.634468
    outer loop
      vertex -9.09 -1.02862 -1.41578
      vertex -7.6 -1.90117 -2.62287
      vertex -7.6 -1.90442 -2.62122
    endloop
  endfacet
  facet normal -0.702714 -0.503087 -0.503087
    outer loop
      vertex -7.6 -1.90442 -2.62122
      vertex -9.09 -1.41578 -1.02862
      vertex -9.09 -1.02862 -1.41578
    endloop
  endfacet
  facet normal -0.702713 -0.503091 -0.503084
    outer loop
      vertex -9.09 -1.41578 -1.02862
      vertex -7.6 -1.90442 -2.62122
      vertex -7.6 -2.62121 -1.90442
    endloop
  endfacet
  facet normal -0.702713 -0.702714 -0.111301
    outer loop
      vertex -7.6 -3.23943 -0.00360549
      vertex -9.09 -1.66435 -0.54078
      vertex -7.6 -3.08142 -1.00122
    endloop
  endfacet
  facet normal -0.702712 -0.633929 0.323001
    outer loop
      vertex -7.6 -2.62287 1.90117
      vertex -9.09 -1.66435 0.540779
      vertex -7.6 -3.08142 1.00121
    endloop
  endfacet
  facet normal -0.702713 -0.702714 0.111302
    outer loop
      vertex -7.6 -3.08142 1.00121
      vertex -9.09 -1.66435 0.540779
      vertex -7.6 -3.23943 0.00360548
    endloop
  endfacet
  facet normal -0.702713 -0.323005 0.633926
    outer loop
      vertex -9.09 -1.02862 1.41578
      vertex -7.6 -1.90117 2.62287
      vertex -9.09 -0.540779 1.66435
    endloop
  endfacet
  facet normal -0.702768 -0.323603 0.63356
    outer loop
      vertex -7.6 -1.90117 2.62287
      vertex -9.09 -1.02862 1.41578
      vertex -7.6 -1.90442 2.62121
    endloop
  endfacet
  facet normal -0.702712 -0.323001 0.633929
    outer loop
      vertex -7.6 -1.00121 3.08142
      vertex -9.09 -0.540779 1.66435
      vertex -7.6 -1.90117 2.62287
    endloop
  endfacet
  facet normal -0.70273 0.111096 -0.70273
    outer loop
      vertex -9.09 0 -1.75
      vertex -7.6 0.00360548 -3.23943
      vertex -7.6 0 -3.24
    endloop
  endfacet
  facet normal -0.702714 0.111298 -0.702713
    outer loop
      vertex -7.6 0.00360548 -3.23943
      vertex -9.09 0 -1.75
      vertex -9.09 0.540779 -1.66435
    endloop
  endfacet
  facet normal -0.702713 0.633927 -0.323004
    outer loop
      vertex -7.6 2.62287 -1.90117
      vertex -9.09 1.66435 -0.54078
      vertex -7.6 3.08142 -1.00122
    endloop
  endfacet
  facet normal -0.702713 0.633926 0.323005
    outer loop
      vertex -9.09 1.41578 1.02862
      vertex -7.6 2.62287 1.90117
      vertex -9.09 1.66435 0.540779
    endloop
  endfacet
  facet normal -0.702768 0.63356 0.323603
    outer loop
      vertex -7.6 2.62287 1.90117
      vertex -9.09 1.41578 1.02862
      vertex -7.6 2.62121 1.90442
    endloop
  endfacet
  facet normal -1 0 0
    outer loop
      vertex -9.09 1.66435 -0.54078
      vertex -9.09 1.7 0
      vertex -9.09 1.75 0
    endloop
  endfacet
  facet normal -1 0 0
    outer loop
      vertex -9.09 1.66435 -0.54078
      vertex -9.09 1.6168 -0.525329
      vertex -9.09 1.7 0
    endloop
  endfacet
  facet normal -1 0 0
    outer loop
      vertex -9.09 1.41578 -1.02862
      vertex -9.09 1.6168 -0.525329
      vertex -9.09 1.66435 -0.54078
    endloop
  endfacet
  facet normal -1 0 0
    outer loop
      vertex -9.09 1.41578 -1.02862
      vertex -9.09 1.37533 -0.999234
      vertex -9.09 1.6168 -0.525329
    endloop
  endfacet
  facet normal -1 0 0
    outer loop
      vertex -9.09 1.02862 -1.41578
      vertex -9.09 1.37533 -0.999234
      vertex -9.09 1.41578 -1.02862
    endloop
  endfacet
  facet normal -1 0 0
    outer loop
      vertex -9.09 1.02862 -1.41578
      vertex -9.09 0.999234 -1.37533
      vertex -9.09 1.37533 -0.999234
    endloop
  endfacet
  facet normal -1 0 0
    outer loop
      vertex -9.09 0.540779 -1.66435
      vertex -9.09 0.999234 -1.37533
      vertex -9.09 1.02862 -1.41578
    endloop
  endfacet
  facet normal -1 0 0
    outer loop
      vertex -9.09 0.540779 -1.66435
      vertex -9.09 0.525329 -1.6168
      vertex -9.09 0.999234 -1.37533
    endloop
  endfacet
  facet normal -1 0 0
    outer loop
      vertex -9.09 0 -1.75
      vertex -9.09 0.525329 -1.6168
      vertex -9.09 0.540779 -1.66435
    endloop
  endfacet
  facet normal -1 0 0
    outer loop
      vertex -9.09 0 -1.75
      vertex -9.09 0 -1.7
      vertex -9.09 0.525329 -1.6168
    endloop
  endfacet
  facet normal -1 0 0
    outer loop
      vertex -9.09 0 -1.75
      vertex -9.09 -0.525329 -1.6168
      vertex -9.09 0 -1.7
    endloop
  endfacet
  facet normal -1 0 0
    outer loop
      vertex -9.09 -0.540779 -1.66435
      vertex -9.09 -0.525329 -1.6168
      vertex -9.09 0 -1.75
    endloop
  endfacet
  facet normal -1 0 0
    outer loop
      vertex -9.09 -0.540779 -1.66435
      vertex -9.09 -0.999234 -1.37533
      vertex -9.09 -0.525329 -1.6168
    endloop
  endfacet
  facet normal -1 0 0
    outer loop
      vertex -9.09 -1.02862 -1.41578
      vertex -9.09 -0.999234 -1.37533
      vertex -9.09 -0.540779 -1.66435
    endloop
  endfacet
  facet normal -1 0 0
    outer loop
      vertex -9.09 -1.02862 -1.41578
      vertex -9.09 -1.37533 -0.999234
      vertex -9.09 -0.999234 -1.37533
    endloop
  endfacet
  facet normal -1 0 0
    outer loop
      vertex -9.09 -1.41578 -1.02862
      vertex -9.09 -1.37533 -0.999234
      vertex -9.09 -1.02862 -1.41578
    endloop
  endfacet
  facet normal -1 0 0
    outer loop
      vertex -9.09 -1.41578 -1.02862
      vertex -9.09 -1.6168 -0.525329
      vertex -9.09 -1.37533 -0.999234
    endloop
  endfacet
  facet normal -1 0 0
    outer loop
      vertex -9.09 -1.66435 -0.54078
      vertex -9.09 -1.6168 -0.525329
      vertex -9.09 -1.41578 -1.02862
    endloop
  endfacet
  facet normal -1 0 0
    outer loop
      vertex -9.09 -1.66435 -0.54078
      vertex -9.09 -1.7 0
      vertex -9.09 -1.6168 -0.525329
    endloop
  endfacet
  facet normal -1 -0 -0
    outer loop
      vertex -9.09 -1.7 0
      vertex -9.09 -1.66435 -0.54078
      vertex -9.09 -1.75 0
    endloop
  endfacet
  facet normal -1 0 0
    outer loop
      vertex -9.09 1.7 0
      vertex -9.09 1.66435 0.540779
      vertex -9.09 1.75 0
    endloop
  endfacet
  facet normal -1 0 0
    outer loop
      vertex -9.09 1.6168 0.525329
      vertex -9.09 1.66435 0.540779
      vertex -9.09 1.7 0
    endloop
  endfacet
  facet normal -1 0 0
    outer loop
      vertex -9.09 1.6168 0.525329
      vertex -9.09 1.41578 1.02862
      vertex -9.09 1.66435 0.540779
    endloop
  endfacet
  facet normal -1 0 0
    outer loop
      vertex -9.09 1.37533 0.999234
      vertex -9.09 1.41578 1.02862
      vertex -9.09 1.6168 0.525329
    endloop
  endfacet
  facet normal -1 0 0
    outer loop
      vertex -9.09 1.37533 0.999234
      vertex -9.09 1.02862 1.41578
      vertex -9.09 1.41578 1.02862
    endloop
  endfacet
  facet normal -1 0 0
    outer loop
      vertex -9.09 0.999234 1.37533
      vertex -9.09 1.02862 1.41578
      vertex -9.09 1.37533 0.999234
    endloop
  endfacet
  facet normal -1 0 0
    outer loop
      vertex -9.09 0.999234 1.37533
      vertex -9.09 0.540779 1.66435
      vertex -9.09 1.02862 1.41578
    endloop
  endfacet
  facet normal -1 0 0
    outer loop
      vertex -9.09 0.525329 1.6168
      vertex -9.09 0.540779 1.66435
      vertex -9.09 0.999234 1.37533
    endloop
  endfacet
  facet normal -1 0 0
    outer loop
      vertex -9.09 0 1.7
      vertex -9.09 0.540779 1.66435
      vertex -9.09 0.525329 1.6168
    endloop
  endfacet
  facet normal -1 0 0
    outer loop
      vertex -9.09 0 1.7
      vertex -9.09 0 1.75
      vertex -9.09 0.540779 1.66435
    endloop
  endfacet
  facet normal -1 0 0
    outer loop
      vertex -9.09 -0.525329 1.6168
      vertex -9.09 0 1.75
      vertex -9.09 0 1.7
    endloop
  endfacet
  facet normal -1 0 0
    outer loop
      vertex -9.09 -0.525329 1.6168
      vertex -9.09 -0.540779 1.66435
      vertex -9.09 0 1.75
    endloop
  endfacet
  facet normal -1 0 0
    outer loop
      vertex -9.09 -0.999234 1.37533
      vertex -9.09 -0.540779 1.66435
      vertex -9.09 -0.525329 1.6168
    endloop
  endfacet
  facet normal -1 0 0
    outer loop
      vertex -9.09 -0.999234 1.37533
      vertex -9.09 -1.02862 1.41578
      vertex -9.09 -0.540779 1.66435
    endloop
  endfacet
  facet normal -1 0 0
    outer loop
      vertex -9.09 -1.37533 0.999234
      vertex -9.09 -1.02862 1.41578
      vertex -9.09 -0.999234 1.37533
    endloop
  endfacet
  facet normal -1 0 0
    outer loop
      vertex -9.09 -1.37533 0.999234
      vertex -9.09 -1.41578 1.02862
      vertex -9.09 -1.02862 1.41578
    endloop
  endfacet
  facet normal -1 0 0
    outer loop
      vertex -9.09 -1.6168 0.525329
      vertex -9.09 -1.41578 1.02862
      vertex -9.09 -1.37533 0.999234
    endloop
  endfacet
  facet normal -1 0 0
    outer loop
      vertex -9.09 -1.6168 0.525329
      vertex -9.09 -1.66435 0.540779
      vertex -9.09 -1.41578 1.02862
    endloop
  endfacet
  facet normal -1 0 0
    outer loop
      vertex -9.09 -1.7 0
      vertex -9.09 -1.66435 0.540779
      vertex -9.09 -1.6168 0.525329
    endloop
  endfacet
  facet normal -1 0 0
    outer loop
      vertex -9.09 -1.66435 0.540779
      vertex -9.09 -1.7 0
      vertex -9.09 -1.75 0
    endloop
  endfacet
  facet normal -0.70273 -0.70273 -0.111096
    outer loop
      vertex -9.09 -1.75 0
      vertex -7.6 -3.23943 -0.00360549
      vertex -7.6 -3.24 0
    endloop
  endfacet
  facet normal -0.702714 -0.702713 -0.111297
    outer loop
      vertex -7.6 -3.23943 -0.00360549
      vertex -9.09 -1.75 0
      vertex -9.09 -1.66435 -0.54078
    endloop
  endfacet
  facet normal -0.702768 -0.63356 -0.323603
    outer loop
      vertex -7.6 -2.62287 -1.90117
      vertex -9.09 -1.41578 -1.02862
      vertex -7.6 -2.62121 -1.90442
    endloop
  endfacet
  facet normal -0.702714 -0.633925 -0.323005
    outer loop
      vertex -9.09 -1.41578 -1.02862
      vertex -7.6 -2.62287 -1.90117
      vertex -9.09 -1.66435 -0.54078
    endloop
  endfacet
  facet normal -0.702713 -0.633927 -0.323004
    outer loop
      vertex -7.6 -3.08142 -1.00122
      vertex -9.09 -1.66435 -0.54078
      vertex -7.6 -2.62287 -1.90117
    endloop
  endfacet
  facet normal -0.702713 -0.633926 0.323005
    outer loop
      vertex -7.6 -2.62287 1.90117
      vertex -9.09 -1.41578 1.02862
      vertex -9.09 -1.66435 0.540779
    endloop
  endfacet
  facet normal -0.702768 -0.63356 0.323603
    outer loop
      vertex -9.09 -1.41578 1.02862
      vertex -7.6 -2.62287 1.90117
      vertex -7.6 -2.62121 1.90442
    endloop
  endfacet
  facet normal -0.702713 -0.111302 0.702714
    outer loop
      vertex -7.6 -0.00360548 3.23943
      vertex -9.09 -0.540779 1.66435
      vertex -7.6 -1.00121 3.08142
    endloop
  endfacet
  facet normal -0.70273 -0.111096 0.70273
    outer loop
      vertex -9.09 0 1.75
      vertex -7.6 -0.00360548 3.23943
      vertex -7.6 0 3.24
    endloop
  endfacet
  facet normal -0.702714 -0.111298 0.702713
    outer loop
      vertex -7.6 -0.00360548 3.23943
      vertex -9.09 0 1.75
      vertex -9.09 -0.540779 1.66435
    endloop
  endfacet
  facet normal -0.70273 -0.111096 -0.70273
    outer loop
      vertex -7.6 -0.00360548 -3.23943
      vertex -9.09 0 -1.75
      vertex -7.6 0 -3.24
    endloop
  endfacet
  facet normal -0.702714 -0.111298 -0.702713
    outer loop
      vertex -9.09 0 -1.75
      vertex -7.6 -0.00360548 -3.23943
      vertex -9.09 -0.540779 -1.66435
    endloop
  endfacet
  facet normal -0.702713 0.503088 0.503088
    outer loop
      vertex -9.09 1.41578 1.02862
      vertex -7.6 1.90442 2.62121
      vertex -7.6 2.62121 1.90442
    endloop
  endfacet
  facet normal -0.702713 0.503088 0.503088
    outer loop
      vertex -7.6 1.90442 2.62121
      vertex -9.09 1.41578 1.02862
      vertex -9.09 1.02862 1.41578
    endloop
  endfacet
  facet normal -0.70273 0.70273 0.111096
    outer loop
      vertex -9.09 1.75 0
      vertex -7.6 3.23943 0.00360548
      vertex -7.6 3.24 0
    endloop
  endfacet
  facet normal -0.702714 0.702713 0.111298
    outer loop
      vertex -7.6 3.23943 0.00360548
      vertex -9.09 1.75 0
      vertex -9.09 1.66435 0.540779
    endloop
  endfacet
  facet normal -0.70273 0.70273 -0.111096
    outer loop
      vertex -7.6 3.23943 -0.00360549
      vertex -9.09 1.75 0
      vertex -7.6 3.24 0
    endloop
  endfacet
  facet normal -0.702714 0.702713 -0.111297
    outer loop
      vertex -9.09 1.75 0
      vertex -7.6 3.23943 -0.00360549
      vertex -9.09 1.66435 -0.54078
    endloop
  endfacet
  facet normal -0.702713 0.702714 0.111302
    outer loop
      vertex -7.6 3.23943 0.00360548
      vertex -9.09 1.66435 0.540779
      vertex -7.6 3.08142 1.00121
    endloop
  endfacet
  facet normal -0.702712 0.633929 0.323001
    outer loop
      vertex -7.6 3.08142 1.00121
      vertex -9.09 1.66435 0.540779
      vertex -7.6 2.62287 1.90117
    endloop
  endfacet
  facet normal -0.702713 0.111302 -0.702714
    outer loop
      vertex -7.6 0.00360548 -3.23943
      vertex -9.09 0.540779 -1.66435
      vertex -7.6 1.00121 -3.08142
    endloop
  endfacet
  facet normal -0.702712 0.323001 -0.633929
    outer loop
      vertex -7.6 1.00121 -3.08142
      vertex -9.09 0.540779 -1.66435
      vertex -7.6 1.90117 -2.62287
    endloop
  endfacet
  facet normal -0.702713 0.503091 -0.503084
    outer loop
      vertex -7.6 1.90442 -2.62122
      vertex -9.09 1.41578 -1.02862
      vertex -7.6 2.62121 -1.90442
    endloop
  endfacet
  facet normal -0.702714 0.503087 -0.503087
    outer loop
      vertex -9.09 1.41578 -1.02862
      vertex -7.6 1.90442 -2.62122
      vertex -9.09 1.02862 -1.41578
    endloop
  endfacet
  facet normal -0.702632 0.322115 -0.634468
    outer loop
      vertex -7.6 1.90117 -2.62287
      vertex -9.09 1.02862 -1.41578
      vertex -7.6 1.90442 -2.62122
    endloop
  endfacet
  facet normal -0.702713 0.323005 -0.633926
    outer loop
      vertex -9.09 1.02862 -1.41578
      vertex -7.6 1.90117 -2.62287
      vertex -9.09 0.540779 -1.66435
    endloop
  endfacet
  facet normal 0 0 -1
    outer loop
      vertex -6.51 -7.6 8.2
      vertex -5.17537 -7.44776 8.2
      vertex -4.41 -7.6 8.2
    endloop
  endfacet
  facet normal 0 0 -1
    outer loop
      vertex -6.51 -7.6 8.2
      vertex -5.82421 -7.01421 8.2
      vertex -5.17537 -7.44776 8.2
    endloop
  endfacet
  facet normal 0 0 -1
    outer loop
      vertex -6.51 -7.6 8.2
      vertex -6.25776 -6.36537 8.2
      vertex -5.82421 -7.01421 8.2
    endloop
  endfacet
  facet normal 0 0 -1
    outer loop
      vertex -6.51 -5.6 8.2
      vertex -6.25776 -6.36537 8.2
      vertex -6.51 -7.6 8.2
    endloop
  endfacet
  facet normal 0 0 -1
    outer loop
      vertex -6.25776 -6.36537 8.2
      vertex -6.51 -5.6 8.2
      vertex -6.41 -5.6 8.2
    endloop
  endfacet
  facet normal 0 0 1
    outer loop
      vertex -5.17537 -7.44776 3.7
      vertex -6.41 -7.6 3.7
      vertex -4.41 -7.6 3.7
    endloop
  endfacet
  facet normal 0 0 1
    outer loop
      vertex -5.82421 -7.01421 3.7
      vertex -6.41 -7.6 3.7
      vertex -5.17537 -7.44776 3.7
    endloop
  endfacet
  facet normal 0 0 1
    outer loop
      vertex -6.25776 -6.36537 3.7
      vertex -6.41 -7.6 3.7
      vertex -5.82421 -7.01421 3.7
    endloop
  endfacet
  facet normal 0 0 1
    outer loop
      vertex -6.41 -7.6 3.7
      vertex -6.25776 -6.36537 3.7
      vertex -6.41 -5.6 3.7
    endloop
  endfacet
  facet normal -0.195088 -0.980786 0
    outer loop
      vertex -5.17537 -7.44776 3.7
      vertex -4.41 -7.6 8.2
      vertex -5.17537 -7.44776 8.2
    endloop
  endfacet
  facet normal -0.195088 -0.980786 -0
    outer loop
      vertex -4.41 -7.6 8.2
      vertex -5.17537 -7.44776 3.7
      vertex -4.41 -7.6 3.7
    endloop
  endfacet
  facet normal -0.831464 -0.555578 0
    outer loop
      vertex -5.82421 -7.01421 3.7
      vertex -6.25776 -6.36537 8.2
      vertex -6.25776 -6.36537 3.7
    endloop
  endfacet
  facet normal -0.831464 -0.555578 0
    outer loop
      vertex -6.25776 -6.36537 8.2
      vertex -5.82421 -7.01421 3.7
      vertex -5.82421 -7.01421 8.2
    endloop
  endfacet
  facet normal -0.980786 -0.195088 0
    outer loop
      vertex -6.25776 -6.36537 3.7
      vertex -6.41 -5.6 8.2
      vertex -6.41 -5.6 3.7
    endloop
  endfacet
  facet normal -0.980786 -0.195088 0
    outer loop
      vertex -6.41 -5.6 8.2
      vertex -6.25776 -6.36537 3.7
      vertex -6.25776 -6.36537 8.2
    endloop
  endfacet
  facet normal -0.555578 -0.831464 0
    outer loop
      vertex -5.82421 -7.01421 3.7
      vertex -5.17537 -7.44776 8.2
      vertex -5.82421 -7.01421 8.2
    endloop
  endfacet
  facet normal -0.555578 -0.831464 -0
    outer loop
      vertex -5.17537 -7.44776 8.2
      vertex -5.82421 -7.01421 3.7
      vertex -5.17537 -7.44776 3.7
    endloop
  endfacet
  facet normal 0 -0.156427 -0.987689
    outer loop
      vertex -9.09 0 1.7
      vertex -7 0.525329 1.6168
      vertex -7 0 1.7
    endloop
  endfacet
  facet normal -0 -0.156427 -0.987689
    outer loop
      vertex -7 0.525329 1.6168
      vertex -9.09 0 1.7
      vertex -9.09 0.525329 1.6168
    endloop
  endfacet
  facet normal 0 -0.156427 0.987689
    outer loop
      vertex -9.09 0.525329 -1.6168
      vertex -7 0 -1.7
      vertex -7 0.525329 -1.6168
    endloop
  endfacet
  facet normal 0 -0.156427 0.987689
    outer loop
      vertex -7 0 -1.7
      vertex -9.09 0.525329 -1.6168
      vertex -9.09 0 -1.7
    endloop
  endfacet
  facet normal 0 -0.987689 -0.156427
    outer loop
      vertex -9.09 1.7 0
      vertex -7 1.6168 0.525329
      vertex -9.09 1.6168 0.525329
    endloop
  endfacet
  facet normal 0 -0.987689 -0.156427
    outer loop
      vertex -7 1.6168 0.525329
      vertex -9.09 1.7 0
      vertex -7 1.7 0
    endloop
  endfacet
  facet normal 0 0.987689 0.156427
    outer loop
      vertex -7 -1.6168 -0.525329
      vertex -9.09 -1.7 0
      vertex -7 -1.7 0
    endloop
  endfacet
  facet normal 0 0.987689 0.156427
    outer loop
      vertex -9.09 -1.7 0
      vertex -7 -1.6168 -0.525329
      vertex -9.09 -1.6168 -0.525329
    endloop
  endfacet
  facet normal 0 0.987689 -0.156427
    outer loop
      vertex -7 -1.7 0
      vertex -9.09 -1.6168 0.525329
      vertex -7 -1.6168 0.525329
    endloop
  endfacet
  facet normal 0 0.987689 -0.156427
    outer loop
      vertex -9.09 -1.6168 0.525329
      vertex -7 -1.7 0
      vertex -9.09 -1.7 0
    endloop
  endfacet
  facet normal 0 -0.707107 -0.707107
    outer loop
      vertex -9.09 1.37533 0.999234
      vertex -7 0.999234 1.37533
      vertex -9.09 0.999234 1.37533
    endloop
  endfacet
  facet normal 0 -0.707107 -0.707107
    outer loop
      vertex -7 0.999234 1.37533
      vertex -9.09 1.37533 0.999234
      vertex -7 1.37533 0.999234
    endloop
  endfacet
  facet normal 0 -0.453995 -0.891004
    outer loop
      vertex -9.09 0.525329 1.6168
      vertex -7 0.999234 1.37533
      vertex -7 0.525329 1.6168
    endloop
  endfacet
  facet normal -0 -0.453995 -0.891004
    outer loop
      vertex -7 0.999234 1.37533
      vertex -9.09 0.525329 1.6168
      vertex -9.09 0.999234 1.37533
    endloop
  endfacet
  facet normal 0 -0.891004 -0.453995
    outer loop
      vertex -9.09 1.6168 0.525329
      vertex -7 1.37533 0.999234
      vertex -9.09 1.37533 0.999234
    endloop
  endfacet
  facet normal 0 -0.891004 -0.453995
    outer loop
      vertex -7 1.37533 0.999234
      vertex -9.09 1.6168 0.525329
      vertex -7 1.6168 0.525329
    endloop
  endfacet
  facet normal 0 -0.891004 0.453995
    outer loop
      vertex -9.09 1.37533 -0.999234
      vertex -7 1.6168 -0.525329
      vertex -9.09 1.6168 -0.525329
    endloop
  endfacet
  facet normal 0 -0.891004 0.453995
    outer loop
      vertex -7 1.6168 -0.525329
      vertex -9.09 1.37533 -0.999234
      vertex -7 1.37533 -0.999234
    endloop
  endfacet
  facet normal 0 -0.987689 0.156427
    outer loop
      vertex -9.09 1.6168 -0.525329
      vertex -7 1.7 0
      vertex -9.09 1.7 0
    endloop
  endfacet
  facet normal 0 -0.987689 0.156427
    outer loop
      vertex -7 1.7 0
      vertex -9.09 1.6168 -0.525329
      vertex -7 1.6168 -0.525329
    endloop
  endfacet
  facet normal -0 0.156427 0.987689
    outer loop
      vertex -9.09 0 -1.7
      vertex -7 -0.525329 -1.6168
      vertex -7 0 -1.7
    endloop
  endfacet
  facet normal 0 0.156427 0.987689
    outer loop
      vertex -7 -0.525329 -1.6168
      vertex -9.09 0 -1.7
      vertex -9.09 -0.525329 -1.6168
    endloop
  endfacet
  facet normal 0 -0.707107 0.707107
    outer loop
      vertex -9.09 0.999234 -1.37533
      vertex -7 1.37533 -0.999234
      vertex -9.09 1.37533 -0.999234
    endloop
  endfacet
  facet normal 0 -0.707107 0.707107
    outer loop
      vertex -7 1.37533 -0.999234
      vertex -9.09 0.999234 -1.37533
      vertex -7 0.999234 -1.37533
    endloop
  endfacet
  facet normal 0 -0.453995 0.891004
    outer loop
      vertex -9.09 0.999234 -1.37533
      vertex -7 0.525329 -1.6168
      vertex -7 0.999234 -1.37533
    endloop
  endfacet
  facet normal 0 -0.453995 0.891004
    outer loop
      vertex -7 0.525329 -1.6168
      vertex -9.09 0.999234 -1.37533
      vertex -9.09 0.525329 -1.6168
    endloop
  endfacet
  facet normal 0 0.156427 -0.987689
    outer loop
      vertex -9.09 -0.525329 1.6168
      vertex -7 0 1.7
      vertex -7 -0.525329 1.6168
    endloop
  endfacet
  facet normal 0 0.156427 -0.987689
    outer loop
      vertex -7 0 1.7
      vertex -9.09 -0.525329 1.6168
      vertex -9.09 0 1.7
    endloop
  endfacet
  facet normal 0 0.453995 -0.891004
    outer loop
      vertex -9.09 -0.999234 1.37533
      vertex -7 -0.525329 1.6168
      vertex -7 -0.999234 1.37533
    endloop
  endfacet
  facet normal 0 0.453995 -0.891004
    outer loop
      vertex -7 -0.525329 1.6168
      vertex -9.09 -0.999234 1.37533
      vertex -9.09 -0.525329 1.6168
    endloop
  endfacet
  facet normal 0 0.707107 0.707107
    outer loop
      vertex -7 -0.999234 -1.37533
      vertex -9.09 -1.37533 -0.999234
      vertex -7 -1.37533 -0.999234
    endloop
  endfacet
  facet normal 0 0.707107 0.707107
    outer loop
      vertex -9.09 -1.37533 -0.999234
      vertex -7 -0.999234 -1.37533
      vertex -9.09 -0.999234 -1.37533
    endloop
  endfacet
  facet normal -0 0.453995 0.891004
    outer loop
      vertex -9.09 -0.525329 -1.6168
      vertex -7 -0.999234 -1.37533
      vertex -7 -0.525329 -1.6168
    endloop
  endfacet
  facet normal 0 0.453995 0.891004
    outer loop
      vertex -7 -0.999234 -1.37533
      vertex -9.09 -0.525329 -1.6168
      vertex -9.09 -0.999234 -1.37533
    endloop
  endfacet
  facet normal 0 0.891004 -0.453995
    outer loop
      vertex -7 -1.6168 0.525329
      vertex -9.09 -1.37533 0.999234
      vertex -7 -1.37533 0.999234
    endloop
  endfacet
  facet normal 0 0.891004 -0.453995
    outer loop
      vertex -9.09 -1.37533 0.999234
      vertex -7 -1.6168 0.525329
      vertex -9.09 -1.6168 0.525329
    endloop
  endfacet
  facet normal 0 0.891004 0.453995
    outer loop
      vertex -7 -1.37533 -0.999234
      vertex -9.09 -1.6168 -0.525329
      vertex -7 -1.6168 -0.525329
    endloop
  endfacet
  facet normal 0 0.891004 0.453995
    outer loop
      vertex -9.09 -1.6168 -0.525329
      vertex -7 -1.37533 -0.999234
      vertex -9.09 -1.37533 -0.999234
    endloop
  endfacet
  facet normal 0 0.707107 -0.707107
    outer loop
      vertex -7 -1.37533 0.999234
      vertex -9.09 -0.999234 1.37533
      vertex -7 -0.999234 1.37533
    endloop
  endfacet
  facet normal 0 0.707107 -0.707107
    outer loop
      vertex -9.09 -0.999234 1.37533
      vertex -7 -1.37533 0.999234
      vertex -9.09 -1.37533 0.999234
    endloop
  endfacet
  facet normal 0 -0.5 -0.866025
    outer loop
      vertex -7 0 3.2
      vertex -4.9 2.77128 1.6
      vertex -4.9 0 3.2
    endloop
  endfacet
  facet normal -0 -0.5 -0.866025
    outer loop
      vertex -4.9 2.77128 1.6
      vertex -7 0 3.2
      vertex -7 2.77128 1.6
    endloop
  endfacet
  facet normal 0 -0.5 0.866025
    outer loop
      vertex -7 2.77128 -1.6
      vertex -4.9 0 -3.2
      vertex -4.9 2.77128 -1.6
    endloop
  endfacet
  facet normal 0 -0.5 0.866025
    outer loop
      vertex -4.9 0 -3.2
      vertex -7 2.77128 -1.6
      vertex -7 0 -3.2
    endloop
  endfacet
  facet normal 0 -1 0
    outer loop
      vertex -7 2.77128 -1.6
      vertex -4.9 2.77128 1.6
      vertex -7 2.77128 1.6
    endloop
  endfacet
  facet normal 0 -1 -0
    outer loop
      vertex -4.9 2.77128 1.6
      vertex -7 2.77128 -1.6
      vertex -4.9 2.77128 -1.6
    endloop
  endfacet
  facet normal -0 0.5 0.866025
    outer loop
      vertex -7 0 -3.2
      vertex -4.9 -2.77128 -1.6
      vertex -4.9 0 -3.2
    endloop
  endfacet
  facet normal 0 0.5 0.866025
    outer loop
      vertex -4.9 -2.77128 -1.6
      vertex -7 0 -3.2
      vertex -7 -2.77128 -1.6
    endloop
  endfacet
  facet normal 1 0 0
    outer loop
      vertex -7 2.77128 1.6
      vertex -7 1.7 0
      vertex -7 2.77128 -1.6
    endloop
  endfacet
  facet normal 1 0 0
    outer loop
      vertex -7 2.77128 1.6
      vertex -7 1.6168 0.525329
      vertex -7 1.7 0
    endloop
  endfacet
  facet normal 1 0 0
    outer loop
      vertex -7 2.77128 1.6
      vertex -7 1.37533 0.999234
      vertex -7 1.6168 0.525329
    endloop
  endfacet
  facet normal 1 0 0
    outer loop
      vertex -7 2.77128 1.6
      vertex -7 0.999234 1.37533
      vertex -7 1.37533 0.999234
    endloop
  endfacet
  facet normal 1 0 0
    outer loop
      vertex -7 0 3.2
      vertex -7 0.999234 1.37533
      vertex -7 2.77128 1.6
    endloop
  endfacet
  facet normal 1 0 0
    outer loop
      vertex -7 0.999234 1.37533
      vertex -7 0 3.2
      vertex -7 0.525329 1.6168
    endloop
  endfacet
  facet normal 1 0 0
    outer loop
      vertex -7 0 3.2
      vertex -7 0 1.7
      vertex -7 0.525329 1.6168
    endloop
  endfacet
  facet normal 1 0 0
    outer loop
      vertex -7 0 3.2
      vertex -7 -0.525329 1.6168
      vertex -7 0 1.7
    endloop
  endfacet
  facet normal 1 0 0
    outer loop
      vertex -7 0 3.2
      vertex -7 -0.999234 1.37533
      vertex -7 -0.525329 1.6168
    endloop
  endfacet
  facet normal 1 -0 0
    outer loop
      vertex -7 -2.77128 1.6
      vertex -7 -0.999234 1.37533
      vertex -7 0 3.2
    endloop
  endfacet
  facet normal 1 0 0
    outer loop
      vertex -7 -1.6168 0.525329
      vertex -7 -2.77128 1.6
      vertex -7 -1.7 0
    endloop
  endfacet
  facet normal 1 0 0
    outer loop
      vertex -7 -1.37533 0.999234
      vertex -7 -2.77128 1.6
      vertex -7 -1.6168 0.525329
    endloop
  endfacet
  facet normal 1 0 0
    outer loop
      vertex -7 -0.999234 1.37533
      vertex -7 -2.77128 1.6
      vertex -7 -1.37533 0.999234
    endloop
  endfacet
  facet normal 1 -0 0
    outer loop
      vertex -7 1.6168 -0.525329
      vertex -7 2.77128 -1.6
      vertex -7 1.7 0
    endloop
  endfacet
  facet normal 1 -0 0
    outer loop
      vertex -7 1.37533 -0.999234
      vertex -7 2.77128 -1.6
      vertex -7 1.6168 -0.525329
    endloop
  endfacet
  facet normal 1 -0 0
    outer loop
      vertex -7 0.999234 -1.37533
      vertex -7 2.77128 -1.6
      vertex -7 1.37533 -0.999234
    endloop
  endfacet
  facet normal 1 0 0
    outer loop
      vertex -7 0 -3.2
      vertex -7 0.999234 -1.37533
      vertex -7 0.525329 -1.6168
    endloop
  endfacet
  facet normal 1 0 0
    outer loop
      vertex -7 0 -3.2
      vertex -7 0.525329 -1.6168
      vertex -7 0 -1.7
    endloop
  endfacet
  facet normal 1 0 0
    outer loop
      vertex -7 0.999234 -1.37533
      vertex -7 0 -3.2
      vertex -7 2.77128 -1.6
    endloop
  endfacet
  facet normal 1 0 0
    outer loop
      vertex -7 -0.525329 -1.6168
      vertex -7 0 -3.2
      vertex -7 0 -1.7
    endloop
  endfacet
  facet normal 1 0 0
    outer loop
      vertex -7 -0.999234 -1.37533
      vertex -7 0 -3.2
      vertex -7 -0.525329 -1.6168
    endloop
  endfacet
  facet normal 1 0 0
    outer loop
      vertex -7 -2.77128 -1.6
      vertex -7 -0.999234 -1.37533
      vertex -7 -1.37533 -0.999234
    endloop
  endfacet
  facet normal 1 0 0
    outer loop
      vertex -7 -2.77128 -1.6
      vertex -7 -1.7 0
      vertex -7 -2.77128 1.6
    endloop
  endfacet
  facet normal 1 0 0
    outer loop
      vertex -7 -1.7 0
      vertex -7 -2.77128 -1.6
      vertex -7 -1.6168 -0.525329
    endloop
  endfacet
  facet normal 1 0 0
    outer loop
      vertex -7 -0.999234 -1.37533
      vertex -7 -2.77128 -1.6
      vertex -7 0 -3.2
    endloop
  endfacet
  facet normal 1 0 0
    outer loop
      vertex -7 -1.6168 -0.525329
      vertex -7 -2.77128 -1.6
      vertex -7 -1.37533 -0.999234
    endloop
  endfacet
  facet normal 0 1 -0
    outer loop
      vertex -4.9 -2.77128 -1.6
      vertex -7 -2.77128 1.6
      vertex -4.9 -2.77128 1.6
    endloop
  endfacet
  facet normal 0 1 0
    outer loop
      vertex -7 -2.77128 1.6
      vertex -4.9 -2.77128 -1.6
      vertex -7 -2.77128 -1.6
    endloop
  endfacet
  facet normal 0 0.5 -0.866025
    outer loop
      vertex -7 -2.77128 1.6
      vertex -4.9 0 3.2
      vertex -4.9 -2.77128 1.6
    endloop
  endfacet
  facet normal 0 0.5 -0.866025
    outer loop
      vertex -4.9 0 3.2
      vertex -7 -2.77128 1.6
      vertex -7 0 3.2
    endloop
  endfacet
  facet normal 0 0 -1
    outer loop
      vertex -6.51 -7.6 -3.7
      vertex -6.6 -7.6 -3.7
      vertex -6.51 -5.6 -3.7
    endloop
  endfacet
  facet normal 0 0 -1
    outer loop
      vertex -7.6 6.6 -3.7
      vertex -6.41 -5.6 -3.7
      vertex -6.51 -5.6 -3.7
    endloop
  endfacet
  facet normal 0 0 -1
    outer loop
      vertex -7.6 -6.6 -3.7
      vertex -6.51 -5.6 -3.7
      vertex -6.6 -7.6 -3.7
    endloop
  endfacet
  facet normal 0 0 -1
    outer loop
      vertex -7.6 6.6 -3.7
      vertex -6.51 -5.6 -3.7
      vertex -7.6 -6.6 -3.7
    endloop
  endfacet
  facet normal 0 0 -1
    outer loop
      vertex -7.6 -6.6 -3.7
      vertex -6.6 -7.6 -3.7
      vertex -6.98268 -7.52388 -3.7
    endloop
  endfacet
  facet normal 0 0 -1
    outer loop
      vertex -6.41 -5.6 -3.7
      vertex -7.6 6.6 -3.7
      vertex -6.41 7.6 -3.7
    endloop
  endfacet
  facet normal 0 0 -1
    outer loop
      vertex -7.6 -6.6 -3.7
      vertex -6.98268 -7.52388 -3.7
      vertex -7.30711 -7.30711 -3.7
    endloop
  endfacet
  facet normal -0 0 -1
    outer loop
      vertex -6.41 7.6 -3.7
      vertex -7.6 6.6 -3.7
      vertex -6.6 7.6 -3.7
    endloop
  endfacet
  facet normal 0 0 -1
    outer loop
      vertex -7.6 -6.6 -3.7
      vertex -7.30711 -7.30711 -3.7
      vertex -7.52388 -6.98268 -3.7
    endloop
  endfacet
  facet normal 0 0 -1
    outer loop
      vertex -6.6 7.6 -3.7
      vertex -7.6 6.6 -3.7
      vertex -6.98268 7.52388 -3.7
    endloop
  endfacet
  facet normal 0 0 -1
    outer loop
      vertex -6.98268 7.52388 -3.7
      vertex -7.6 6.6 -3.7
      vertex -7.30711 7.30711 -3.7
    endloop
  endfacet
  facet normal 0 0 -1
    outer loop
      vertex -7.30711 7.30711 -3.7
      vertex -7.6 6.6 -3.7
      vertex -7.52388 6.98268 -3.7
    endloop
  endfacet
  facet normal -1 0 0
    outer loop
      vertex -6.41 7.6 -8.2
      vertex -6.41 -5.6 -8.2
      vertex -6.41 7.6 -3.7
    endloop
  endfacet
  facet normal 0 0 0
    outer loop
      vertex -6.41 -7.6 -8.2
      vertex -6.41 -5.6 -8.2
      vertex -6.41 7.6 -8.2
    endloop
  endfacet
  facet normal -1 -0 0
    outer loop
      vertex -6.41 7.6 -3.7
      vertex -6.41 -5.6 -8.2
      vertex -6.41 -5.6 -3.7
    endloop
  endfacet
  facet normal 0 0 1
    outer loop
      vertex -7.6 6.6 -8.2
      vertex -6.41 7.6 -8.2
      vertex -6.6 7.6 -8.2
    endloop
  endfacet
  facet normal 0 0 1
    outer loop
      vertex -6.41 7.6 -8.2
      vertex -7.6 6.6 -8.2
      vertex -6.41 -7.6 -8.2
    endloop
  endfacet
  facet normal 0 0 1
    outer loop
      vertex -7.6 6.6 -8.2
      vertex -6.6 7.6 -8.2
      vertex -6.98268 7.52388 -8.2
    endloop
  endfacet
  facet normal -0 0 1
    outer loop
      vertex -7.6 -6.6 -8.2
      vertex -6.41 -7.6 -8.2
      vertex -7.6 6.6 -8.2
    endloop
  endfacet
  facet normal 0 0 1
    outer loop
      vertex -7.6 6.6 -8.2
      vertex -6.98268 7.52388 -8.2
      vertex -7.30711 7.30711 -8.2
    endloop
  endfacet
  facet normal 0 0 1
    outer loop
      vertex -6.41 -7.6 -8.2
      vertex -7.6 -6.6 -8.2
      vertex -6.6 -7.6 -8.2
    endloop
  endfacet
  facet normal 0 0 1
    outer loop
      vertex -7.6 6.6 -8.2
      vertex -7.30711 7.30711 -8.2
      vertex -7.52388 6.98268 -8.2
    endloop
  endfacet
  facet normal 0 0 1
    outer loop
      vertex -6.6 -7.6 -8.2
      vertex -7.6 -6.6 -8.2
      vertex -6.98268 -7.52388 -8.2
    endloop
  endfacet
  facet normal 0 0 1
    outer loop
      vertex -6.98268 -7.52388 -8.2
      vertex -7.6 -6.6 -8.2
      vertex -7.30711 -7.30711 -8.2
    endloop
  endfacet
  facet normal 0 0 1
    outer loop
      vertex -7.30711 -7.30711 -8.2
      vertex -7.6 -6.6 -8.2
      vertex -7.52388 -6.98268 -8.2
    endloop
  endfacet
  facet normal 0 0 -1
    outer loop
      vertex -6.51 -7.6 8.2
      vertex -6.6 -7.6 8.2
      vertex -6.51 -5.6 8.2
    endloop
  endfacet
  facet normal 0 0 -1
    outer loop
      vertex -7.6 6.6 8.2
      vertex -6.41 -5.6 8.2
      vertex -6.51 -5.6 8.2
    endloop
  endfacet
  facet normal 0 0 -1
    outer loop
      vertex -7.6 -6.6 8.2
      vertex -6.51 -5.6 8.2
      vertex -6.6 -7.6 8.2
    endloop
  endfacet
  facet normal 0 0 -1
    outer loop
      vertex -7.6 6.6 8.2
      vertex -6.51 -5.6 8.2
      vertex -7.6 -6.6 8.2
    endloop
  endfacet
  facet normal 0 0 -1
    outer loop
      vertex -7.6 -6.6 8.2
      vertex -6.6 -7.6 8.2
      vertex -6.98268 -7.52388 8.2
    endloop
  endfacet
  facet normal 0 0 -1
    outer loop
      vertex -6.41 -5.6 8.2
      vertex -7.6 6.6 8.2
      vertex -6.41 7.6 8.2
    endloop
  endfacet
  facet normal 0 0 -1
    outer loop
      vertex -7.6 -6.6 8.2
      vertex -6.98268 -7.52388 8.2
      vertex -7.30711 -7.30711 8.2
    endloop
  endfacet
  facet normal -0 0 -1
    outer loop
      vertex -6.41 7.6 8.2
      vertex -7.6 6.6 8.2
      vertex -6.6 7.6 8.2
    endloop
  endfacet
  facet normal 0 0 -1
    outer loop
      vertex -7.6 -6.6 8.2
      vertex -7.30711 -7.30711 8.2
      vertex -7.52388 -6.98268 8.2
    endloop
  endfacet
  facet normal 0 0 -1
    outer loop
      vertex -6.6 7.6 8.2
      vertex -7.6 6.6 8.2
      vertex -6.98268 7.52388 8.2
    endloop
  endfacet
  facet normal 0 0 -1
    outer loop
      vertex -6.98268 7.52388 8.2
      vertex -7.6 6.6 8.2
      vertex -7.30711 7.30711 8.2
    endloop
  endfacet
  facet normal 0 0 -1
    outer loop
      vertex -7.30711 7.30711 8.2
      vertex -7.6 6.6 8.2
      vertex -7.52388 6.98268 8.2
    endloop
  endfacet
  facet normal -1 0 0
    outer loop
      vertex -6.41 7.6 3.7
      vertex -6.41 -5.6 3.7
      vertex -6.41 7.6 8.2
    endloop
  endfacet
  facet normal 0 0 0
    outer loop
      vertex -6.41 -7.6 3.7
      vertex -6.41 -5.6 3.7
      vertex -6.41 7.6 3.7
    endloop
  endfacet
  facet normal -1 -0 0
    outer loop
      vertex -6.41 7.6 8.2
      vertex -6.41 -5.6 3.7
      vertex -6.41 -5.6 8.2
    endloop
  endfacet
  facet normal 0 0 1
    outer loop
      vertex -7.6 6.6 3.7
      vertex -6.41 7.6 3.7
      vertex -6.6 7.6 3.7
    endloop
  endfacet
  facet normal 0 0 1
    outer loop
      vertex -6.41 7.6 3.7
      vertex -7.6 6.6 3.7
      vertex -6.41 -7.6 3.7
    endloop
  endfacet
  facet normal 0 0 1
    outer loop
      vertex -7.6 6.6 3.7
      vertex -6.6 7.6 3.7
      vertex -6.98268 7.52388 3.7
    endloop
  endfacet
  facet normal -0 0 1
    outer loop
      vertex -7.6 -6.6 3.7
      vertex -6.41 -7.6 3.7
      vertex -7.6 6.6 3.7
    endloop
  endfacet
  facet normal 0 0 1
    outer loop
      vertex -7.6 6.6 3.7
      vertex -6.98268 7.52388 3.7
      vertex -7.30711 7.30711 3.7
    endloop
  endfacet
  facet normal 0 0 1
    outer loop
      vertex -6.41 -7.6 3.7
      vertex -7.6 -6.6 3.7
      vertex -6.6 -7.6 3.7
    endloop
  endfacet
  facet normal 0 0 1
    outer loop
      vertex -7.6 6.6 3.7
      vertex -7.30711 7.30711 3.7
      vertex -7.52388 6.98268 3.7
    endloop
  endfacet
  facet normal 0 0 1
    outer loop
      vertex -6.6 -7.6 3.7
      vertex -7.6 -6.6 3.7
      vertex -6.98268 -7.52388 3.7
    endloop
  endfacet
  facet normal 0 0 1
    outer loop
      vertex -6.98268 -7.52388 3.7
      vertex -7.6 -6.6 3.7
      vertex -7.30711 -7.30711 3.7
    endloop
  endfacet
  facet normal 0 0 1
    outer loop
      vertex -7.30711 -7.30711 3.7
      vertex -7.6 -6.6 3.7
      vertex -7.52388 -6.98268 3.7
    endloop
  endfacet
  facet normal 1 -0 0
    outer loop
      vertex -5.13361 -4.55593 9
      vertex -5.13361 -4.24407 -9
      vertex -5.13361 -4.24407 9
    endloop
  endfacet
  facet normal 1 0 0
    outer loop
      vertex -5.13361 -4.24407 -9
      vertex -5.13361 -4.55593 9
      vertex -5.13361 -4.55593 -9
    endloop
  endfacet
  facet normal -0.104531 0.994522 0
    outer loop
      vertex -4.16824 -5.11329 -9
      vertex -4.4784 -5.14589 9
      vertex -4.16824 -5.11329 9
    endloop
  endfacet
  facet normal -0.104531 0.994522 0
    outer loop
      vertex -4.4784 -5.14589 9
      vertex -4.16824 -5.11329 -9
      vertex -4.4784 -5.14589 -9
    endloop
  endfacet
  facet normal -0.499984 0.866034 0
    outer loop
      vertex -3.89815 -4.95736 -9
      vertex -4.16824 -5.11329 9
      vertex -3.89815 -4.95736 9
    endloop
  endfacet
  facet normal -0.499984 0.866034 0
    outer loop
      vertex -4.16824 -5.11329 9
      vertex -3.89815 -4.95736 -9
      vertex -4.16824 -5.11329 -9
    endloop
  endfacet
  facet normal 0.669142 -0.743135 0
    outer loop
      vertex -5.00676 -3.95916 -9
      vertex -4.9 -3.86303 9
      vertex -5.00676 -3.95916 9
    endloop
  endfacet
  facet normal 0.669142 -0.743135 0
    outer loop
      vertex -4.9 -3.86303 9
      vertex -5.00676 -3.95916 -9
      vertex -4.9 -3.86303 -9
    endloop
  endfacet
  facet normal 0.913546 -0.406736 0
    outer loop
      vertex -5.13361 -4.24407 9
      vertex -5.00676 -3.95916 -9
      vertex -5.00676 -3.95916 9
    endloop
  endfacet
  facet normal 0.913546 -0.406736 0
    outer loop
      vertex -5.00676 -3.95916 -9
      vertex -5.13361 -4.24407 9
      vertex -5.13361 -4.24407 -9
    endloop
  endfacet
  facet normal -0.809047 0.587744 0
    outer loop
      vertex -3.89815 -4.95736 -9
      vertex -3.85648 -4.9 9
      vertex -3.85648 -4.9 -9
    endloop
  endfacet
  facet normal -0.809047 0.587744 0
    outer loop
      vertex -3.85648 -4.9 9
      vertex -3.89815 -4.95736 -9
      vertex -3.89815 -4.95736 9
    endloop
  endfacet
  facet normal 0.309014 0.951058 -0
    outer loop
      vertex -4.4784 -5.14589 -9
      vertex -4.775 -5.04952 9
      vertex -4.4784 -5.14589 9
    endloop
  endfacet
  facet normal 0.309014 0.951058 0
    outer loop
      vertex -4.775 -5.04952 9
      vertex -4.4784 -5.14589 -9
      vertex -4.775 -5.04952 -9
    endloop
  endfacet
  facet normal 0.669135 0.743141 -0
    outer loop
      vertex -4.775 -5.04952 -9
      vertex -5.00676 -4.84084 9
      vertex -4.775 -5.04952 9
    endloop
  endfacet
  facet normal 0.669135 0.743141 0
    outer loop
      vertex -5.00676 -4.84084 9
      vertex -4.775 -5.04952 -9
      vertex -5.00676 -4.84084 -9
    endloop
  endfacet
  facet normal 0.913546 0.406736 0
    outer loop
      vertex -5.00676 -4.84084 9
      vertex -5.13361 -4.55593 -9
      vertex -5.13361 -4.55593 9
    endloop
  endfacet
  facet normal 0.913546 0.406736 0
    outer loop
      vertex -5.13361 -4.55593 -9
      vertex -5.00676 -4.84084 9
      vertex -5.00676 -4.84084 -9
    endloop
  endfacet
endsolid OpenSCAD_Model
