solid OpenSCAD_Model
  facet normal 0.987688 0.156435 0
    outer loop
      vertex 6.25 0 2.8
      vertex 5.9441 1.93136 0
      vertex 5.9441 1.93136 2.8
    endloop
  endfacet
  facet normal 0.987688 0.156435 0
    outer loop
      vertex 5.9441 1.93136 0
      vertex 6.25 0 2.8
      vertex 6.25 0 0
    endloop
  endfacet
  facet normal -0.987688 0.156435 0
    outer loop
      vertex -6.25 0 0
      vertex -5.9441 1.93136 2.8
      vertex -5.9441 1.93136 0
    endloop
  endfacet
  facet normal -0.987688 0.156435 0
    outer loop
      vertex -5.9441 1.93136 2.8
      vertex -6.25 0 0
      vertex -6.25 0 2.8
    endloop
  endfacet
  facet normal 0.156435 0.987688 -0
    outer loop
      vertex 1.93136 5.9441 0
      vertex 0 6.25 2.8
      vertex 1.93136 5.9441 2.8
    endloop
  endfacet
  facet normal 0.156435 0.987688 0
    outer loop
      vertex 0 6.25 2.8
      vertex 1.93136 5.9441 0
      vertex 0 6.25 0
    endloop
  endfacet
  facet normal -0.156435 -0.987688 0
    outer loop
      vertex -1.93136 -5.9441 0
      vertex 0 -6.25 2.8
      vertex -1.93136 -5.9441 2.8
    endloop
  endfacet
  facet normal -0.156435 -0.987688 -0
    outer loop
      vertex 0 -6.25 2.8
      vertex -1.93136 -5.9441 0
      vertex 0 -6.25 0
    endloop
  endfacet
  facet normal 0 0 -1
    outer loop
      vertex 4.25 0 0
      vertex 6.25 0 0
      vertex 5.9441 -1.93136 0
    endloop
  endfacet
  facet normal 0 0 -1
    outer loop
      vertex 3.82912 -1.84401 0
      vertex 5.9441 -1.93136 0
      vertex 5.05636 -3.67366 0
    endloop
  endfacet
  facet normal 0 0 -1
    outer loop
      vertex 6.25 0 0
      vertex 4.25 0 0
      vertex 5.9441 1.93136 0
    endloop
  endfacet
  facet normal 0 0 -1
    outer loop
      vertex 3.82912 1.84401 0
      vertex 5.9441 1.93136 0
      vertex 4.25 0 0
    endloop
  endfacet
  facet normal 0 0 -1
    outer loop
      vertex 5.9441 -1.93136 0
      vertex 3.82912 -1.84401 0
      vertex 4.25 0 0
    endloop
  endfacet
  facet normal 0 0 -1
    outer loop
      vertex 2.64983 -3.32278 0
      vertex 5.05636 -3.67366 0
      vertex 3.67366 -5.05636 0
    endloop
  endfacet
  facet normal 0 0 -1
    outer loop
      vertex 5.05636 -3.67366 0
      vertex 2.64983 -3.32278 0
      vertex 3.82912 -1.84401 0
    endloop
  endfacet
  facet normal 0 0 -1
    outer loop
      vertex 1.93136 -5.9441 0
      vertex 2.64983 -3.32278 0
      vertex 3.67366 -5.05636 0
    endloop
  endfacet
  facet normal 0 0 -1
    outer loop
      vertex 1.93136 -5.9441 0
      vertex 0.945713 -4.14344 0
      vertex 2.64983 -3.32278 0
    endloop
  endfacet
  facet normal 0 0 -1
    outer loop
      vertex 0 -6.25 0
      vertex 0.945713 -4.14344 0
      vertex 1.93136 -5.9441 0
    endloop
  endfacet
  facet normal 0 0 -1
    outer loop
      vertex 0 -6.25 0
      vertex -0.945713 -4.14344 0
      vertex 0.945713 -4.14344 0
    endloop
  endfacet
  facet normal 0 0 -1
    outer loop
      vertex -1.93136 -5.9441 0
      vertex -0.945713 -4.14344 0
      vertex 0 -6.25 0
    endloop
  endfacet
  facet normal 0 0 -1
    outer loop
      vertex -1.93136 -5.9441 0
      vertex -2.64983 -3.32278 0
      vertex -0.945713 -4.14344 0
    endloop
  endfacet
  facet normal 0 0 -1
    outer loop
      vertex -3.67366 -5.05636 0
      vertex -2.64983 -3.32278 0
      vertex -1.93136 -5.9441 0
    endloop
  endfacet
  facet normal 0 0 -1
    outer loop
      vertex -5.05636 -3.67366 0
      vertex -2.64983 -3.32278 0
      vertex -3.67366 -5.05636 0
    endloop
  endfacet
  facet normal -0 0 -1
    outer loop
      vertex -2.64983 -3.32278 0
      vertex -5.05636 -3.67366 0
      vertex -3.82912 -1.84401 0
    endloop
  endfacet
  facet normal 0 0 -1
    outer loop
      vertex -5.9441 -1.93136 0
      vertex -3.82912 -1.84401 0
      vertex -5.05636 -3.67366 0
    endloop
  endfacet
  facet normal -0 0 -1
    outer loop
      vertex 5.9441 1.93136 0
      vertex 3.82912 1.84401 0
      vertex 5.05636 3.67366 0
    endloop
  endfacet
  facet normal 0 0 -1
    outer loop
      vertex 2.64983 3.32278 0
      vertex 5.05636 3.67366 0
      vertex 3.82912 1.84401 0
    endloop
  endfacet
  facet normal -0 0 -1
    outer loop
      vertex 5.05636 3.67366 0
      vertex 2.64983 3.32278 0
      vertex 3.67366 5.05636 0
    endloop
  endfacet
  facet normal 0 0 -1
    outer loop
      vertex 2.64983 3.32278 0
      vertex 1.93136 5.9441 0
      vertex 3.67366 5.05636 0
    endloop
  endfacet
  facet normal 0 0 -1
    outer loop
      vertex 0.945713 4.14344 0
      vertex 1.93136 5.9441 0
      vertex 2.64983 3.32278 0
    endloop
  endfacet
  facet normal 0 0 -1
    outer loop
      vertex 0.945713 4.14344 0
      vertex 0 6.25 0
      vertex 1.93136 5.9441 0
    endloop
  endfacet
  facet normal 0 0 -1
    outer loop
      vertex -0.945713 4.14344 0
      vertex 0 6.25 0
      vertex 0.945713 4.14344 0
    endloop
  endfacet
  facet normal 0 0 -1
    outer loop
      vertex -0.945713 4.14344 0
      vertex -1.93136 5.9441 0
      vertex 0 6.25 0
    endloop
  endfacet
  facet normal 0 0 -1
    outer loop
      vertex -2.64983 3.32278 0
      vertex -1.93136 5.9441 0
      vertex -0.945713 4.14344 0
    endloop
  endfacet
  facet normal 0 0 -1
    outer loop
      vertex -2.64983 3.32278 0
      vertex -3.67366 5.05636 0
      vertex -1.93136 5.9441 0
    endloop
  endfacet
  facet normal 0 0 -1
    outer loop
      vertex -5.05636 3.67366 0
      vertex -2.64983 3.32278 0
      vertex -3.82912 1.84401 0
    endloop
  endfacet
  facet normal 0 0 -1
    outer loop
      vertex -5.9441 1.93136 0
      vertex -3.82912 1.84401 0
      vertex -4.25 0 0
    endloop
  endfacet
  facet normal -0 0 -1
    outer loop
      vertex -3.82912 -1.84401 0
      vertex -5.9441 -1.93136 0
      vertex -4.25 0 0
    endloop
  endfacet
  facet normal 0 0 -1
    outer loop
      vertex -2.64983 3.32278 0
      vertex -5.05636 3.67366 0
      vertex -3.67366 5.05636 0
    endloop
  endfacet
  facet normal 0 0 -1
    outer loop
      vertex -6.25 0 0
      vertex -4.25 0 0
      vertex -5.9441 -1.93136 0
    endloop
  endfacet
  facet normal 0 0 -1
    outer loop
      vertex -3.82912 1.84401 0
      vertex -5.9441 1.93136 0
      vertex -5.05636 3.67366 0
    endloop
  endfacet
  facet normal 0 0 -1
    outer loop
      vertex -4.25 0 0
      vertex -6.25 0 0
      vertex -5.9441 1.93136 0
    endloop
  endfacet
  facet normal 0.707107 0.707107 0
    outer loop
      vertex 5.05636 3.67366 2.8
      vertex 3.67366 5.05636 0
      vertex 3.67366 5.05636 2.8
    endloop
  endfacet
  facet normal 0.707107 0.707107 0
    outer loop
      vertex 3.67366 5.05636 0
      vertex 5.05636 3.67366 2.8
      vertex 5.05636 3.67366 0
    endloop
  endfacet
  facet normal 0.891007 0.45399 0
    outer loop
      vertex 5.9441 1.93136 2.8
      vertex 5.05636 3.67366 0
      vertex 5.05636 3.67366 2.8
    endloop
  endfacet
  facet normal 0.891007 0.45399 0
    outer loop
      vertex 5.05636 3.67366 0
      vertex 5.9441 1.93136 2.8
      vertex 5.9441 1.93136 0
    endloop
  endfacet
  facet normal 0.45399 0.891007 -0
    outer loop
      vertex 3.67366 5.05636 0
      vertex 1.93136 5.9441 2.8
      vertex 3.67366 5.05636 2.8
    endloop
  endfacet
  facet normal 0.45399 0.891007 0
    outer loop
      vertex 1.93136 5.9441 2.8
      vertex 3.67366 5.05636 0
      vertex 1.93136 5.9441 0
    endloop
  endfacet
  facet normal -0.45399 0.891007 0
    outer loop
      vertex -1.93136 5.9441 0
      vertex -3.67366 5.05636 2.8
      vertex -1.93136 5.9441 2.8
    endloop
  endfacet
  facet normal -0.45399 0.891007 0
    outer loop
      vertex -3.67366 5.05636 2.8
      vertex -1.93136 5.9441 0
      vertex -3.67366 5.05636 0
    endloop
  endfacet
  facet normal -0.707107 0.707107 0
    outer loop
      vertex -5.05636 3.67366 0
      vertex -3.67366 5.05636 2.8
      vertex -3.67366 5.05636 0
    endloop
  endfacet
  facet normal -0.707107 0.707107 0
    outer loop
      vertex -3.67366 5.05636 2.8
      vertex -5.05636 3.67366 0
      vertex -5.05636 3.67366 2.8
    endloop
  endfacet
  facet normal -0.156435 0.987688 0
    outer loop
      vertex 0 6.25 0
      vertex -1.93136 5.9441 2.8
      vertex 0 6.25 2.8
    endloop
  endfacet
  facet normal -0.156435 0.987688 0
    outer loop
      vertex -1.93136 5.9441 2.8
      vertex 0 6.25 0
      vertex -1.93136 5.9441 0
    endloop
  endfacet
  facet normal 0.891007 -0.45399 0
    outer loop
      vertex 5.05636 -3.67366 2.8
      vertex 5.9441 -1.93136 0
      vertex 5.9441 -1.93136 2.8
    endloop
  endfacet
  facet normal 0.891007 -0.45399 0
    outer loop
      vertex 5.9441 -1.93136 0
      vertex 5.05636 -3.67366 2.8
      vertex 5.05636 -3.67366 0
    endloop
  endfacet
  facet normal -0.707107 -0.707107 0
    outer loop
      vertex -3.67366 -5.05636 0
      vertex -5.05636 -3.67366 2.8
      vertex -5.05636 -3.67366 0
    endloop
  endfacet
  facet normal -0.707107 -0.707107 0
    outer loop
      vertex -5.05636 -3.67366 2.8
      vertex -3.67366 -5.05636 0
      vertex -3.67366 -5.05636 2.8
    endloop
  endfacet
  facet normal -0.987688 -0.156435 0
    outer loop
      vertex -5.9441 -1.93136 0
      vertex -6.25 0 2.8
      vertex -6.25 0 0
    endloop
  endfacet
  facet normal -0.987688 -0.156435 0
    outer loop
      vertex -6.25 0 2.8
      vertex -5.9441 -1.93136 0
      vertex -5.9441 -1.93136 2.8
    endloop
  endfacet
  facet normal -0.891007 0.45399 0
    outer loop
      vertex -5.9441 1.93136 0
      vertex -5.05636 3.67366 2.8
      vertex -5.05636 3.67366 0
    endloop
  endfacet
  facet normal -0.891007 0.45399 0
    outer loop
      vertex -5.05636 3.67366 2.8
      vertex -5.9441 1.93136 0
      vertex -5.9441 1.93136 2.8
    endloop
  endfacet
  facet normal 0 0 1
    outer loop
      vertex 4.25 0 2.8
      vertex 6.25 0 2.8
      vertex 5.9441 1.93136 2.8
    endloop
  endfacet
  facet normal 0 0 1
    outer loop
      vertex 3.82912 1.84401 2.8
      vertex 5.9441 1.93136 2.8
      vertex 5.05636 3.67366 2.8
    endloop
  endfacet
  facet normal 0 0 1
    outer loop
      vertex 6.25 0 2.8
      vertex 4.25 0 2.8
      vertex 5.9441 -1.93136 2.8
    endloop
  endfacet
  facet normal -0 0 1
    outer loop
      vertex 3.82912 -1.84401 2.8
      vertex 5.9441 -1.93136 2.8
      vertex 4.25 0 2.8
    endloop
  endfacet
  facet normal 0 0 1
    outer loop
      vertex 5.9441 1.93136 2.8
      vertex 3.82912 1.84401 2.8
      vertex 4.25 0 2.8
    endloop
  endfacet
  facet normal 0 0 1
    outer loop
      vertex 2.64983 3.32278 2.8
      vertex 5.05636 3.67366 2.8
      vertex 3.67366 5.05636 2.8
    endloop
  endfacet
  facet normal 0 0 1
    outer loop
      vertex 5.05636 3.67366 2.8
      vertex 2.64983 3.32278 2.8
      vertex 3.82912 1.84401 2.8
    endloop
  endfacet
  facet normal 0 0 1
    outer loop
      vertex 1.93136 5.9441 2.8
      vertex 2.64983 3.32278 2.8
      vertex 3.67366 5.05636 2.8
    endloop
  endfacet
  facet normal 0 0 1
    outer loop
      vertex 1.93136 5.9441 2.8
      vertex 0.945713 4.14344 2.8
      vertex 2.64983 3.32278 2.8
    endloop
  endfacet
  facet normal 0 0 1
    outer loop
      vertex 0 6.25 2.8
      vertex 0.945713 4.14344 2.8
      vertex 1.93136 5.9441 2.8
    endloop
  endfacet
  facet normal 0 0 1
    outer loop
      vertex 0 6.25 2.8
      vertex -0.945713 4.14344 2.8
      vertex 0.945713 4.14344 2.8
    endloop
  endfacet
  facet normal -0 0 1
    outer loop
      vertex -1.93136 5.9441 2.8
      vertex -0.945713 4.14344 2.8
      vertex 0 6.25 2.8
    endloop
  endfacet
  facet normal 0 0 1
    outer loop
      vertex -1.93136 5.9441 2.8
      vertex -2.64983 3.32278 2.8
      vertex -0.945713 4.14344 2.8
    endloop
  endfacet
  facet normal -0 0 1
    outer loop
      vertex -3.67366 5.05636 2.8
      vertex -2.64983 3.32278 2.8
      vertex -1.93136 5.9441 2.8
    endloop
  endfacet
  facet normal -0 0 1
    outer loop
      vertex -5.05636 3.67366 2.8
      vertex -2.64983 3.32278 2.8
      vertex -3.67366 5.05636 2.8
    endloop
  endfacet
  facet normal 0 0 1
    outer loop
      vertex -2.64983 3.32278 2.8
      vertex -5.05636 3.67366 2.8
      vertex -3.82912 1.84401 2.8
    endloop
  endfacet
  facet normal -0 0 1
    outer loop
      vertex -5.9441 1.93136 2.8
      vertex -3.82912 1.84401 2.8
      vertex -5.05636 3.67366 2.8
    endloop
  endfacet
  facet normal 0 0 1
    outer loop
      vertex 5.9441 -1.93136 2.8
      vertex 3.82912 -1.84401 2.8
      vertex 5.05636 -3.67366 2.8
    endloop
  endfacet
  facet normal -0 0 1
    outer loop
      vertex 2.64983 -3.32278 2.8
      vertex 5.05636 -3.67366 2.8
      vertex 3.82912 -1.84401 2.8
    endloop
  endfacet
  facet normal 0 0 1
    outer loop
      vertex 5.05636 -3.67366 2.8
      vertex 2.64983 -3.32278 2.8
      vertex 3.67366 -5.05636 2.8
    endloop
  endfacet
  facet normal 0 0 1
    outer loop
      vertex 2.64983 -3.32278 2.8
      vertex 1.93136 -5.9441 2.8
      vertex 3.67366 -5.05636 2.8
    endloop
  endfacet
  facet normal -0 0 1
    outer loop
      vertex 0.945713 -4.14344 2.8
      vertex 1.93136 -5.9441 2.8
      vertex 2.64983 -3.32278 2.8
    endloop
  endfacet
  facet normal 0 0 1
    outer loop
      vertex 0.945713 -4.14344 2.8
      vertex 0 -6.25 2.8
      vertex 1.93136 -5.9441 2.8
    endloop
  endfacet
  facet normal -0 0 1
    outer loop
      vertex -0.945713 -4.14344 2.8
      vertex 0 -6.25 2.8
      vertex 0.945713 -4.14344 2.8
    endloop
  endfacet
  facet normal 0 0 1
    outer loop
      vertex -0.945713 -4.14344 2.8
      vertex -1.93136 -5.9441 2.8
      vertex 0 -6.25 2.8
    endloop
  endfacet
  facet normal 0 0 1
    outer loop
      vertex -2.64983 -3.32278 2.8
      vertex -1.93136 -5.9441 2.8
      vertex -0.945713 -4.14344 2.8
    endloop
  endfacet
  facet normal 0 0 1
    outer loop
      vertex -2.64983 -3.32278 2.8
      vertex -3.67366 -5.05636 2.8
      vertex -1.93136 -5.9441 2.8
    endloop
  endfacet
  facet normal 0 0 1
    outer loop
      vertex -5.05636 -3.67366 2.8
      vertex -2.64983 -3.32278 2.8
      vertex -3.82912 -1.84401 2.8
    endloop
  endfacet
  facet normal 0 0 1
    outer loop
      vertex -5.9441 -1.93136 2.8
      vertex -3.82912 -1.84401 2.8
      vertex -4.25 0 2.8
    endloop
  endfacet
  facet normal 0 0 1
    outer loop
      vertex -3.82912 1.84401 2.8
      vertex -5.9441 1.93136 2.8
      vertex -4.25 0 2.8
    endloop
  endfacet
  facet normal 0 0 1
    outer loop
      vertex -2.64983 -3.32278 2.8
      vertex -5.05636 -3.67366 2.8
      vertex -3.67366 -5.05636 2.8
    endloop
  endfacet
  facet normal 0 0 1
    outer loop
      vertex -6.25 0 2.8
      vertex -4.25 0 2.8
      vertex -5.9441 1.93136 2.8
    endloop
  endfacet
  facet normal 0 0 1
    outer loop
      vertex -3.82912 -1.84401 2.8
      vertex -5.9441 -1.93136 2.8
      vertex -5.05636 -3.67366 2.8
    endloop
  endfacet
  facet normal 0 0 1
    outer loop
      vertex -4.25 0 2.8
      vertex -6.25 0 2.8
      vertex -5.9441 -1.93136 2.8
    endloop
  endfacet
  facet normal 0.987688 -0.156435 0
    outer loop
      vertex 5.9441 -1.93136 2.8
      vertex 6.25 0 0
      vertex 6.25 0 2.8
    endloop
  endfacet
  facet normal 0.987688 -0.156435 0
    outer loop
      vertex 6.25 0 0
      vertex 5.9441 -1.93136 2.8
      vertex 5.9441 -1.93136 0
    endloop
  endfacet
  facet normal 0.156435 -0.987688 0
    outer loop
      vertex 0 -6.25 0
      vertex 1.93136 -5.9441 2.8
      vertex 0 -6.25 2.8
    endloop
  endfacet
  facet normal 0.156435 -0.987688 0
    outer loop
      vertex 1.93136 -5.9441 2.8
      vertex 0 -6.25 0
      vertex 1.93136 -5.9441 0
    endloop
  endfacet
  facet normal 0.707107 -0.707107 0
    outer loop
      vertex 3.67366 -5.05636 2.8
      vertex 5.05636 -3.67366 0
      vertex 5.05636 -3.67366 2.8
    endloop
  endfacet
  facet normal 0.707107 -0.707107 0
    outer loop
      vertex 5.05636 -3.67366 0
      vertex 3.67366 -5.05636 2.8
      vertex 3.67366 -5.05636 0
    endloop
  endfacet
  facet normal -0.45399 -0.891007 0
    outer loop
      vertex -3.67366 -5.05636 0
      vertex -1.93136 -5.9441 2.8
      vertex -3.67366 -5.05636 2.8
    endloop
  endfacet
  facet normal -0.45399 -0.891007 -0
    outer loop
      vertex -1.93136 -5.9441 2.8
      vertex -3.67366 -5.05636 0
      vertex -1.93136 -5.9441 0
    endloop
  endfacet
  facet normal -0.891007 -0.45399 0
    outer loop
      vertex -5.05636 -3.67366 0
      vertex -5.9441 -1.93136 2.8
      vertex -5.9441 -1.93136 0
    endloop
  endfacet
  facet normal -0.891007 -0.45399 0
    outer loop
      vertex -5.9441 -1.93136 2.8
      vertex -5.05636 -3.67366 0
      vertex -5.05636 -3.67366 2.8
    endloop
  endfacet
  facet normal 0.45399 -0.891007 0
    outer loop
      vertex 1.93136 -5.9441 0
      vertex 3.67366 -5.05636 2.8
      vertex 1.93136 -5.9441 2.8
    endloop
  endfacet
  facet normal 0.45399 -0.891007 0
    outer loop
      vertex 3.67366 -5.05636 2.8
      vertex 1.93136 -5.9441 0
      vertex 3.67366 -5.05636 0
    endloop
  endfacet
  facet normal -0.974928 -0.222521 0
    outer loop
      vertex 4.25 0 0
      vertex 3.82912 1.84401 2.8
      vertex 3.82912 1.84401 0
    endloop
  endfacet
  facet normal -0.974928 -0.222521 0
    outer loop
      vertex 3.82912 1.84401 2.8
      vertex 4.25 0 0
      vertex 4.25 0 2.8
    endloop
  endfacet
  facet normal 0.974928 -0.222521 0
    outer loop
      vertex -4.25 0 2.8
      vertex -3.82912 1.84401 0
      vertex -3.82912 1.84401 2.8
    endloop
  endfacet
  facet normal 0.974928 -0.222521 0
    outer loop
      vertex -3.82912 1.84401 0
      vertex -4.25 0 2.8
      vertex -4.25 0 0
    endloop
  endfacet
  facet normal 0.974928 0.222521 0
    outer loop
      vertex -3.82912 -1.84401 2.8
      vertex -4.25 0 0
      vertex -4.25 0 2.8
    endloop
  endfacet
  facet normal 0.974928 0.222521 0
    outer loop
      vertex -4.25 0 0
      vertex -3.82912 -1.84401 2.8
      vertex -3.82912 -1.84401 0
    endloop
  endfacet
  facet normal 0 -1 0
    outer loop
      vertex -0.945713 4.14344 0
      vertex 0.945713 4.14344 2.8
      vertex -0.945713 4.14344 2.8
    endloop
  endfacet
  facet normal 0 -1 -0
    outer loop
      vertex 0.945713 4.14344 2.8
      vertex -0.945713 4.14344 0
      vertex 0.945713 4.14344 0
    endloop
  endfacet
  facet normal -0.781831 -0.62349 0
    outer loop
      vertex 3.82912 1.84401 0
      vertex 2.64983 3.32278 2.8
      vertex 2.64983 3.32278 0
    endloop
  endfacet
  facet normal -0.781831 -0.62349 0
    outer loop
      vertex 2.64983 3.32278 2.8
      vertex 3.82912 1.84401 0
      vertex 3.82912 1.84401 2.8
    endloop
  endfacet
  facet normal 0.433884 -0.900969 0
    outer loop
      vertex -2.64983 3.32278 0
      vertex -0.945713 4.14344 2.8
      vertex -2.64983 3.32278 2.8
    endloop
  endfacet
  facet normal 0.433884 -0.900969 0
    outer loop
      vertex -0.945713 4.14344 2.8
      vertex -2.64983 3.32278 0
      vertex -0.945713 4.14344 0
    endloop
  endfacet
  facet normal -0.433884 -0.900969 0
    outer loop
      vertex 0.945713 4.14344 0
      vertex 2.64983 3.32278 2.8
      vertex 0.945713 4.14344 2.8
    endloop
  endfacet
  facet normal -0.433884 -0.900969 -0
    outer loop
      vertex 2.64983 3.32278 2.8
      vertex 0.945713 4.14344 0
      vertex 2.64983 3.32278 0
    endloop
  endfacet
  facet normal 0.781831 -0.62349 0
    outer loop
      vertex -3.82912 1.84401 2.8
      vertex -2.64983 3.32278 0
      vertex -2.64983 3.32278 2.8
    endloop
  endfacet
  facet normal 0.781831 -0.62349 0
    outer loop
      vertex -2.64983 3.32278 0
      vertex -3.82912 1.84401 2.8
      vertex -3.82912 1.84401 0
    endloop
  endfacet
  facet normal 0.433884 0.900969 -0
    outer loop
      vertex -0.945713 -4.14344 0
      vertex -2.64983 -3.32278 2.8
      vertex -0.945713 -4.14344 2.8
    endloop
  endfacet
  facet normal 0.433884 0.900969 0
    outer loop
      vertex -2.64983 -3.32278 2.8
      vertex -0.945713 -4.14344 0
      vertex -2.64983 -3.32278 0
    endloop
  endfacet
  facet normal 0.781831 0.62349 0
    outer loop
      vertex -2.64983 -3.32278 2.8
      vertex -3.82912 -1.84401 0
      vertex -3.82912 -1.84401 2.8
    endloop
  endfacet
  facet normal 0.781831 0.62349 0
    outer loop
      vertex -3.82912 -1.84401 0
      vertex -2.64983 -3.32278 2.8
      vertex -2.64983 -3.32278 0
    endloop
  endfacet
  facet normal -0.433884 0.900969 0
    outer loop
      vertex 2.64983 -3.32278 0
      vertex 0.945713 -4.14344 2.8
      vertex 2.64983 -3.32278 2.8
    endloop
  endfacet
  facet normal -0.433884 0.900969 0
    outer loop
      vertex 0.945713 -4.14344 2.8
      vertex 2.64983 -3.32278 0
      vertex 0.945713 -4.14344 0
    endloop
  endfacet
  facet normal -0.781831 0.62349 0
    outer loop
      vertex 2.64983 -3.32278 0
      vertex 3.82912 -1.84401 2.8
      vertex 3.82912 -1.84401 0
    endloop
  endfacet
  facet normal -0.781831 0.62349 0
    outer loop
      vertex 3.82912 -1.84401 2.8
      vertex 2.64983 -3.32278 0
      vertex 2.64983 -3.32278 2.8
    endloop
  endfacet
  facet normal -0.974928 0.222521 0
    outer loop
      vertex 3.82912 -1.84401 0
      vertex 4.25 0 2.8
      vertex 4.25 0 0
    endloop
  endfacet
  facet normal -0.974928 0.222521 0
    outer loop
      vertex 4.25 0 2.8
      vertex 3.82912 -1.84401 0
      vertex 3.82912 -1.84401 2.8
    endloop
  endfacet
  facet normal 0 1 -0
    outer loop
      vertex 0.945713 -4.14344 0
      vertex -0.945713 -4.14344 2.8
      vertex 0.945713 -4.14344 2.8
    endloop
  endfacet
  facet normal 0 1 0
    outer loop
      vertex -0.945713 -4.14344 2.8
      vertex 0.945713 -4.14344 0
      vertex -0.945713 -4.14344 0
    endloop
  endfacet
endsolid OpenSCAD_Model
