solid OpenSCAD_Model
  facet normal 0.92388 0.382682 0
    outer loop
      vertex 63.5 -3 14.4
      vertex 62.7678 -1.23223 7.5
      vertex 62.7678 -1.23223 14.4
    endloop
  endfacet
  facet normal 0.92388 0.382682 0
    outer loop
      vertex 62.7678 -1.23223 7.5
      vertex 63.5 -3 14.4
      vertex 63.5 -3 7.5
    endloop
  endfacet
  facet normal -0.92388 0.382683 0
    outer loop
      vertex 58.5 -3 7.5
      vertex 59.2322 -1.23223 14.4
      vertex 59.2322 -1.23223 7.5
    endloop
  endfacet
  facet normal -0.92388 0.382683 0
    outer loop
      vertex 59.2322 -1.23223 14.4
      vertex 58.5 -3 7.5
      vertex 58.5 -3 14.4
    endloop
  endfacet
  facet normal -0.382683 0.92388 0
    outer loop
      vertex 61 -0.5 7.5
      vertex 59.2322 -1.23223 14.4
      vertex 61 -0.5 14.4
    endloop
  endfacet
  facet normal -0.382683 0.92388 0
    outer loop
      vertex 59.2322 -1.23223 14.4
      vertex 61 -0.5 7.5
      vertex 59.2322 -1.23223 7.5
    endloop
  endfacet
  facet normal 0.382683 0.92388 -0
    outer loop
      vertex 62.7678 -1.23223 7.5
      vertex 61 -0.5 14.4
      vertex 62.7678 -1.23223 14.4
    endloop
  endfacet
  facet normal 0.382683 0.92388 0
    outer loop
      vertex 61 -0.5 14.4
      vertex 62.7678 -1.23223 7.5
      vertex 61 -0.5 7.5
    endloop
  endfacet
  facet normal 0.382683 -0.92388 0
    outer loop
      vertex 61 -5.5 7.5
      vertex 62.7678 -4.76777 14.4
      vertex 61 -5.5 14.4
    endloop
  endfacet
  facet normal 0.382683 -0.92388 0
    outer loop
      vertex 62.7678 -4.76777 14.4
      vertex 61 -5.5 7.5
      vertex 62.7678 -4.76777 7.5
    endloop
  endfacet
  facet normal -0.92388 -0.382682 0
    outer loop
      vertex 59.2322 -4.76777 7.5
      vertex 58.5 -3 14.4
      vertex 58.5 -3 7.5
    endloop
  endfacet
  facet normal -0.92388 -0.382682 0
    outer loop
      vertex 58.5 -3 14.4
      vertex 59.2322 -4.76777 7.5
      vertex 59.2322 -4.76777 14.4
    endloop
  endfacet
  facet normal 0.92388 -0.382683 0
    outer loop
      vertex 62.7678 -4.76777 14.4
      vertex 63.5 -3 7.5
      vertex 63.5 -3 14.4
    endloop
  endfacet
  facet normal 0.92388 -0.382683 0
    outer loop
      vertex 63.5 -3 7.5
      vertex 62.7678 -4.76777 14.4
      vertex 62.7678 -4.76777 7.5
    endloop
  endfacet
  facet normal -0.382683 -0.92388 0
    outer loop
      vertex 59.2322 -4.76777 7.5
      vertex 61 -5.5 14.4
      vertex 59.2322 -4.76777 14.4
    endloop
  endfacet
  facet normal -0.382683 -0.92388 -0
    outer loop
      vertex 61 -5.5 14.4
      vertex 59.2322 -4.76777 7.5
      vertex 61 -5.5 7.5
    endloop
  endfacet
  facet normal 0 0 1
    outer loop
      vertex 62.7678 -1.23223 14.4
      vertex 62.7678 -4.76777 14.4
      vertex 63.5 -3 14.4
    endloop
  endfacet
  facet normal 0 0 1
    outer loop
      vertex 61 -0.5 14.4
      vertex 62.7678 -4.76777 14.4
      vertex 62.7678 -1.23223 14.4
    endloop
  endfacet
  facet normal 0 0 1
    outer loop
      vertex 61 -0.5 14.4
      vertex 61 -5.5 14.4
      vertex 62.7678 -4.76777 14.4
    endloop
  endfacet
  facet normal -0 0 1
    outer loop
      vertex 59.2322 -1.23223 14.4
      vertex 61 -5.5 14.4
      vertex 61 -0.5 14.4
    endloop
  endfacet
  facet normal 0 0 1
    outer loop
      vertex 59.2322 -1.23223 14.4
      vertex 59.2322 -4.76777 14.4
      vertex 61 -5.5 14.4
    endloop
  endfacet
  facet normal 0 -0 1
    outer loop
      vertex 59.2322 -4.76777 14.4
      vertex 59.2322 -1.23223 14.4
      vertex 58.5 -3 14.4
    endloop
  endfacet
  facet normal 0.92388 0.382682 0
    outer loop
      vertex 72.5 -3 14.4
      vertex 71.7678 -1.23223 7.5
      vertex 71.7678 -1.23223 14.4
    endloop
  endfacet
  facet normal 0.92388 0.382682 0
    outer loop
      vertex 71.7678 -1.23223 7.5
      vertex 72.5 -3 14.4
      vertex 72.5 -3 7.5
    endloop
  endfacet
  facet normal -0.382683 0.92388 0
    outer loop
      vertex 70 -0.5 7.5
      vertex 68.2322 -1.23223 14.4
      vertex 70 -0.5 14.4
    endloop
  endfacet
  facet normal -0.382683 0.92388 0
    outer loop
      vertex 68.2322 -1.23223 14.4
      vertex 70 -0.5 7.5
      vertex 68.2322 -1.23223 7.5
    endloop
  endfacet
  facet normal 0.382683 0.92388 -0
    outer loop
      vertex 71.7678 -1.23223 7.5
      vertex 70 -0.5 14.4
      vertex 71.7678 -1.23223 14.4
    endloop
  endfacet
  facet normal 0.382683 0.92388 0
    outer loop
      vertex 70 -0.5 14.4
      vertex 71.7678 -1.23223 7.5
      vertex 70 -0.5 7.5
    endloop
  endfacet
  facet normal 0 0 1
    outer loop
      vertex 71.7678 -1.23223 14.4
      vertex 71.7678 -4.76777 14.4
      vertex 72.5 -3 14.4
    endloop
  endfacet
  facet normal 0 0 1
    outer loop
      vertex 70 -0.5 14.4
      vertex 71.7678 -4.76777 14.4
      vertex 71.7678 -1.23223 14.4
    endloop
  endfacet
  facet normal 0 0 1
    outer loop
      vertex 70 -0.5 14.4
      vertex 70 -5.5 14.4
      vertex 71.7678 -4.76777 14.4
    endloop
  endfacet
  facet normal -0 0 1
    outer loop
      vertex 68.2322 -1.23223 14.4
      vertex 70 -5.5 14.4
      vertex 70 -0.5 14.4
    endloop
  endfacet
  facet normal 0 0 1
    outer loop
      vertex 68.2322 -1.23223 14.4
      vertex 68.2322 -4.76777 14.4
      vertex 70 -5.5 14.4
    endloop
  endfacet
  facet normal 0 -0 1
    outer loop
      vertex 68.2322 -4.76777 14.4
      vertex 68.2322 -1.23223 14.4
      vertex 67.5 -3 14.4
    endloop
  endfacet
  facet normal -0.92388 0.382683 0
    outer loop
      vertex 67.5 -3 7.5
      vertex 68.2322 -1.23223 14.4
      vertex 68.2322 -1.23223 7.5
    endloop
  endfacet
  facet normal -0.92388 0.382683 0
    outer loop
      vertex 68.2322 -1.23223 14.4
      vertex 67.5 -3 7.5
      vertex 67.5 -3 14.4
    endloop
  endfacet
  facet normal 0.92388 -0.382683 0
    outer loop
      vertex 71.7678 -4.76777 14.4
      vertex 72.5 -3 7.5
      vertex 72.5 -3 14.4
    endloop
  endfacet
  facet normal 0.92388 -0.382683 0
    outer loop
      vertex 72.5 -3 7.5
      vertex 71.7678 -4.76777 14.4
      vertex 71.7678 -4.76777 7.5
    endloop
  endfacet
  facet normal -0.382683 -0.92388 0
    outer loop
      vertex 68.2322 -4.76777 7.5
      vertex 70 -5.5 14.4
      vertex 68.2322 -4.76777 14.4
    endloop
  endfacet
  facet normal -0.382683 -0.92388 -0
    outer loop
      vertex 70 -5.5 14.4
      vertex 68.2322 -4.76777 7.5
      vertex 70 -5.5 7.5
    endloop
  endfacet
  facet normal -0.92388 -0.382682 0
    outer loop
      vertex 68.2322 -4.76777 7.5
      vertex 67.5 -3 14.4
      vertex 67.5 -3 7.5
    endloop
  endfacet
  facet normal -0.92388 -0.382682 0
    outer loop
      vertex 67.5 -3 14.4
      vertex 68.2322 -4.76777 7.5
      vertex 68.2322 -4.76777 14.4
    endloop
  endfacet
  facet normal 0.382683 -0.92388 0
    outer loop
      vertex 70 -5.5 7.5
      vertex 71.7678 -4.76777 14.4
      vertex 70 -5.5 14.4
    endloop
  endfacet
  facet normal 0.382683 -0.92388 0
    outer loop
      vertex 71.7678 -4.76777 14.4
      vertex 70 -5.5 7.5
      vertex 71.7678 -4.76777 7.5
    endloop
  endfacet
  facet normal 0.92388 0.382682 0
    outer loop
      vertex -67.5 -3 14.4
      vertex -68.2322 -1.23223 7.5
      vertex -68.2322 -1.23223 14.4
    endloop
  endfacet
  facet normal 0.92388 0.382682 0
    outer loop
      vertex -68.2322 -1.23223 7.5
      vertex -67.5 -3 14.4
      vertex -67.5 -3 7.5
    endloop
  endfacet
  facet normal -0.92388 0.382683 0
    outer loop
      vertex -72.5 -3 7.5
      vertex -71.7678 -1.23223 14.4
      vertex -71.7678 -1.23223 7.5
    endloop
  endfacet
  facet normal -0.92388 0.382683 0
    outer loop
      vertex -71.7678 -1.23223 14.4
      vertex -72.5 -3 7.5
      vertex -72.5 -3 14.4
    endloop
  endfacet
  facet normal -0.382683 0.92388 0
    outer loop
      vertex -70 -0.5 7.5
      vertex -71.7678 -1.23223 14.4
      vertex -70 -0.5 14.4
    endloop
  endfacet
  facet normal -0.382683 0.92388 0
    outer loop
      vertex -71.7678 -1.23223 14.4
      vertex -70 -0.5 7.5
      vertex -71.7678 -1.23223 7.5
    endloop
  endfacet
  facet normal 0.382683 0.92388 -0
    outer loop
      vertex -68.2322 -1.23223 7.5
      vertex -70 -0.5 14.4
      vertex -68.2322 -1.23223 14.4
    endloop
  endfacet
  facet normal 0.382683 0.92388 0
    outer loop
      vertex -70 -0.5 14.4
      vertex -68.2322 -1.23223 7.5
      vertex -70 -0.5 7.5
    endloop
  endfacet
  facet normal 0.382683 -0.92388 0
    outer loop
      vertex -70 -5.5 7.5
      vertex -68.2322 -4.76777 14.4
      vertex -70 -5.5 14.4
    endloop
  endfacet
  facet normal 0.382683 -0.92388 0
    outer loop
      vertex -68.2322 -4.76777 14.4
      vertex -70 -5.5 7.5
      vertex -68.2322 -4.76777 7.5
    endloop
  endfacet
  facet normal -0.92388 -0.382682 0
    outer loop
      vertex -71.7678 -4.76777 7.5
      vertex -72.5 -3 14.4
      vertex -72.5 -3 7.5
    endloop
  endfacet
  facet normal -0.92388 -0.382682 0
    outer loop
      vertex -72.5 -3 14.4
      vertex -71.7678 -4.76777 7.5
      vertex -71.7678 -4.76777 14.4
    endloop
  endfacet
  facet normal 0.92388 -0.382683 0
    outer loop
      vertex -68.2322 -4.76777 14.4
      vertex -67.5 -3 7.5
      vertex -67.5 -3 14.4
    endloop
  endfacet
  facet normal 0.92388 -0.382683 0
    outer loop
      vertex -67.5 -3 7.5
      vertex -68.2322 -4.76777 14.4
      vertex -68.2322 -4.76777 7.5
    endloop
  endfacet
  facet normal -0.382683 -0.92388 0
    outer loop
      vertex -71.7678 -4.76777 7.5
      vertex -70 -5.5 14.4
      vertex -71.7678 -4.76777 14.4
    endloop
  endfacet
  facet normal -0.382683 -0.92388 -0
    outer loop
      vertex -70 -5.5 14.4
      vertex -71.7678 -4.76777 7.5
      vertex -70 -5.5 7.5
    endloop
  endfacet
  facet normal 0 0 1
    outer loop
      vertex -68.2322 -1.23223 14.4
      vertex -68.2322 -4.76777 14.4
      vertex -67.5 -3 14.4
    endloop
  endfacet
  facet normal 0 0 1
    outer loop
      vertex -70 -0.5 14.4
      vertex -68.2322 -4.76777 14.4
      vertex -68.2322 -1.23223 14.4
    endloop
  endfacet
  facet normal 0 0 1
    outer loop
      vertex -70 -0.5 14.4
      vertex -70 -5.5 14.4
      vertex -68.2322 -4.76777 14.4
    endloop
  endfacet
  facet normal -0 0 1
    outer loop
      vertex -71.7678 -1.23223 14.4
      vertex -70 -5.5 14.4
      vertex -70 -0.5 14.4
    endloop
  endfacet
  facet normal 0 0 1
    outer loop
      vertex -71.7678 -1.23223 14.4
      vertex -71.7678 -4.76777 14.4
      vertex -70 -5.5 14.4
    endloop
  endfacet
  facet normal 0 -0 1
    outer loop
      vertex -71.7678 -4.76777 14.4
      vertex -71.7678 -1.23223 14.4
      vertex -72.5 -3 14.4
    endloop
  endfacet
  facet normal 0.92388 0.382682 0
    outer loop
      vertex -58.5 -3 14.4
      vertex -59.2322 -1.23223 7.5
      vertex -59.2322 -1.23223 14.4
    endloop
  endfacet
  facet normal 0.92388 0.382682 0
    outer loop
      vertex -59.2322 -1.23223 7.5
      vertex -58.5 -3 14.4
      vertex -58.5 -3 7.5
    endloop
  endfacet
  facet normal -0.382683 0.92388 0
    outer loop
      vertex -61 -0.5 7.5
      vertex -62.7678 -1.23223 14.4
      vertex -61 -0.5 14.4
    endloop
  endfacet
  facet normal -0.382683 0.92388 0
    outer loop
      vertex -62.7678 -1.23223 14.4
      vertex -61 -0.5 7.5
      vertex -62.7678 -1.23223 7.5
    endloop
  endfacet
  facet normal 0.382683 0.92388 -0
    outer loop
      vertex -59.2322 -1.23223 7.5
      vertex -61 -0.5 14.4
      vertex -59.2322 -1.23223 14.4
    endloop
  endfacet
  facet normal 0.382683 0.92388 0
    outer loop
      vertex -61 -0.5 14.4
      vertex -59.2322 -1.23223 7.5
      vertex -61 -0.5 7.5
    endloop
  endfacet
  facet normal 0 0 1
    outer loop
      vertex -59.2322 -1.23223 14.4
      vertex -59.2322 -4.76777 14.4
      vertex -58.5 -3 14.4
    endloop
  endfacet
  facet normal 0 0 1
    outer loop
      vertex -61 -0.5 14.4
      vertex -59.2322 -4.76777 14.4
      vertex -59.2322 -1.23223 14.4
    endloop
  endfacet
  facet normal 0 0 1
    outer loop
      vertex -61 -0.5 14.4
      vertex -61 -5.5 14.4
      vertex -59.2322 -4.76777 14.4
    endloop
  endfacet
  facet normal -0 0 1
    outer loop
      vertex -62.7678 -1.23223 14.4
      vertex -61 -5.5 14.4
      vertex -61 -0.5 14.4
    endloop
  endfacet
  facet normal 0 0 1
    outer loop
      vertex -62.7678 -1.23223 14.4
      vertex -62.7678 -4.76777 14.4
      vertex -61 -5.5 14.4
    endloop
  endfacet
  facet normal 0 -0 1
    outer loop
      vertex -62.7678 -4.76777 14.4
      vertex -62.7678 -1.23223 14.4
      vertex -63.5 -3 14.4
    endloop
  endfacet
  facet normal -0.92388 0.382683 0
    outer loop
      vertex -63.5 -3 7.5
      vertex -62.7678 -1.23223 14.4
      vertex -62.7678 -1.23223 7.5
    endloop
  endfacet
  facet normal -0.92388 0.382683 0
    outer loop
      vertex -62.7678 -1.23223 14.4
      vertex -63.5 -3 7.5
      vertex -63.5 -3 14.4
    endloop
  endfacet
  facet normal 0.92388 -0.382683 0
    outer loop
      vertex -59.2322 -4.76777 14.4
      vertex -58.5 -3 7.5
      vertex -58.5 -3 14.4
    endloop
  endfacet
  facet normal 0.92388 -0.382683 0
    outer loop
      vertex -58.5 -3 7.5
      vertex -59.2322 -4.76777 14.4
      vertex -59.2322 -4.76777 7.5
    endloop
  endfacet
  facet normal -0.382683 -0.92388 0
    outer loop
      vertex -62.7678 -4.76777 7.5
      vertex -61 -5.5 14.4
      vertex -62.7678 -4.76777 14.4
    endloop
  endfacet
  facet normal -0.382683 -0.92388 -0
    outer loop
      vertex -61 -5.5 14.4
      vertex -62.7678 -4.76777 7.5
      vertex -61 -5.5 7.5
    endloop
  endfacet
  facet normal -0.92388 -0.382682 0
    outer loop
      vertex -62.7678 -4.76777 7.5
      vertex -63.5 -3 14.4
      vertex -63.5 -3 7.5
    endloop
  endfacet
  facet normal -0.92388 -0.382682 0
    outer loop
      vertex -63.5 -3 14.4
      vertex -62.7678 -4.76777 7.5
      vertex -62.7678 -4.76777 14.4
    endloop
  endfacet
  facet normal 0.382683 -0.92388 0
    outer loop
      vertex -61 -5.5 7.5
      vertex -59.2322 -4.76777 14.4
      vertex -61 -5.5 14.4
    endloop
  endfacet
  facet normal 0.382683 -0.92388 0
    outer loop
      vertex -59.2322 -4.76777 14.4
      vertex -61 -5.5 7.5
      vertex -59.2322 -4.76777 7.5
    endloop
  endfacet
  facet normal -1 0 0
    outer loop
      vertex -79.5 -7 -7.5
      vertex -79.5 0 7.5
      vertex -79.5 0 -7.5
    endloop
  endfacet
  facet normal -1 -0 0
    outer loop
      vertex -79.5 0 7.5
      vertex -79.5 -7 -7.5
      vertex -79.5 -7 7.5
    endloop
  endfacet
  facet normal 0 0 1
    outer loop
      vertex 66.1491 0 7.5
      vertex 62.7678 -1.23223 7.5
      vertex 63.5 -3 7.5
    endloop
  endfacet
  facet normal 0 0 1
    outer loop
      vertex 66.1491 0 7.5
      vertex 61 -0.5 7.5
      vertex 62.7678 -1.23223 7.5
    endloop
  endfacet
  facet normal -0 0 1
    outer loop
      vertex 55.3531 -1.40583 7.5
      vertex 58.5 -3 7.5
      vertex 58.0662 0 7.5
    endloop
  endfacet
  facet normal 0 0 1
    outer loop
      vertex 59.2322 -1.23223 7.5
      vertex 58.0662 0 7.5
      vertex 58.5 -3 7.5
    endloop
  endfacet
  facet normal 0 0 1
    outer loop
      vertex 61 -0.5 7.5
      vertex 58.0662 0 7.5
      vertex 59.2322 -1.23223 7.5
    endloop
  endfacet
  facet normal 0 0 1
    outer loop
      vertex 66.1491 0 7.5
      vertex 58.0662 0 7.5
      vertex 61 -0.5 7.5
    endloop
  endfacet
  facet normal -0 0 1
    outer loop
      vertex 27.1747 53.5058 7.5
      vertex 66.1491 0 7.5
      vertex 29.7189 63.099 7.5
    endloop
  endfacet
  facet normal 0 0 1
    outer loop
      vertex 66.1491 0 7.5
      vertex 27.1747 53.5058 7.5
      vertex 58.0662 0 7.5
    endloop
  endfacet
  facet normal 0 0 1
    outer loop
      vertex 29.7189 63.099 7.5
      vertex 23.6747 59.5679 7.5
      vertex 27.1747 53.5058 7.5
    endloop
  endfacet
  facet normal 0 -0 1
    outer loop
      vertex 23.6747 59.5679 7.5
      vertex 29.7189 63.099 7.5
      vertex 23.6567 59.599 7.5
    endloop
  endfacet
  facet normal 0 0 1
    outer loop
      vertex 58.5 -3 7.5
      vertex 55.3531 -1.40583 7.5
      vertex 58.3214 -7 7.5
    endloop
  endfacet
  facet normal 0 -0 1
    outer loop
      vertex 55.3531 -1.40583 7.5
      vertex 58.0662 0 7.5
      vertex 54.473 0 7.5
    endloop
  endfacet
  facet normal 0 0 1
    outer loop
      vertex 23.6747 59.5679 7.5
      vertex 14.6712 46.2868 7.5
      vertex 27.1747 53.5058 7.5
    endloop
  endfacet
  facet normal 0 -0 1
    outer loop
      vertex 14.6712 46.2868 7.5
      vertex 23.6747 59.5679 7.5
      vertex 11.1712 52.349 7.5
    endloop
  endfacet
  facet normal 0 0 1
    outer loop
      vertex 74.5 -2 7.5
      vertex 79.5 0 7.5
      vertex 74.5 0 7.5
    endloop
  endfacet
  facet normal 0 0 1
    outer loop
      vertex 79.5 0 7.5
      vertex 74.5 -2 7.5
      vertex 79.5 -7 7.5
    endloop
  endfacet
  facet normal 0 0 1
    outer loop
      vertex 72.5 -3 7.5
      vertex 74.5 -2 7.5
      vertex 72.5 -2 7.5
    endloop
  endfacet
  facet normal 0 0 1
    outer loop
      vertex 71.7678 -4.76777 7.5
      vertex 74.5 -2 7.5
      vertex 72.5 -3 7.5
    endloop
  endfacet
  facet normal 0 0 1
    outer loop
      vertex 74.5 -2 7.5
      vertex 71.7678 -4.76777 7.5
      vertex 79.5 -7 7.5
    endloop
  endfacet
  facet normal -0 0 1
    outer loop
      vertex 70 -5.5 7.5
      vertex 79.5 -7 7.5
      vertex 71.7678 -4.76777 7.5
    endloop
  endfacet
  facet normal 0 0 1
    outer loop
      vertex 63.5 -3 7.5
      vertex 67.5 -3 7.5
      vertex 66.1491 0 7.5
    endloop
  endfacet
  facet normal 0 0 1
    outer loop
      vertex 67.5 -3 7.5
      vertex 63.5 -3 7.5
      vertex 68.2322 -4.76777 7.5
    endloop
  endfacet
  facet normal 0 0 1
    outer loop
      vertex 62.7678 -4.76777 7.5
      vertex 68.2322 -4.76777 7.5
      vertex 63.5 -3 7.5
    endloop
  endfacet
  facet normal 0 0 1
    outer loop
      vertex 68.2322 -4.76777 7.5
      vertex 62.7678 -4.76777 7.5
      vertex 70 -5.5 7.5
    endloop
  endfacet
  facet normal 0 0 1
    outer loop
      vertex 61 -5.5 7.5
      vertex 70 -5.5 7.5
      vertex 62.7678 -4.76777 7.5
    endloop
  endfacet
  facet normal 0 0 1
    outer loop
      vertex 58.3214 -7 7.5
      vertex 70 -5.5 7.5
      vertex 61 -5.5 7.5
    endloop
  endfacet
  facet normal 0 0 1
    outer loop
      vertex 70 -5.5 7.5
      vertex 58.3214 -7 7.5
      vertex 79.5 -7 7.5
    endloop
  endfacet
  facet normal 0 0 1
    outer loop
      vertex 59.2322 -4.76777 7.5
      vertex 58.3214 -7 7.5
      vertex 61 -5.5 7.5
    endloop
  endfacet
  facet normal 0 0 1
    outer loop
      vertex 58.3214 -7 7.5
      vertex 59.2322 -4.76777 7.5
      vertex 58.5 -3 7.5
    endloop
  endfacet
  facet normal -0 0 1
    outer loop
      vertex 71.7678 -1.23223 7.5
      vertex 72.5 -2 7.5
      vertex 72.5 0 7.5
    endloop
  endfacet
  facet normal 0 0 1
    outer loop
      vertex 72.5 -2 7.5
      vertex 71.7678 -1.23223 7.5
      vertex 72.5 -3 7.5
    endloop
  endfacet
  facet normal 0 0 1
    outer loop
      vertex 72.5 0 7.5
      vertex 70 -0.5 7.5
      vertex 71.7678 -1.23223 7.5
    endloop
  endfacet
  facet normal 0 0 1
    outer loop
      vertex 68.2322 -1.23223 7.5
      vertex 66.1491 0 7.5
      vertex 67.5 -3 7.5
    endloop
  endfacet
  facet normal 0 0 1
    outer loop
      vertex 70 -0.5 7.5
      vertex 66.1491 0 7.5
      vertex 68.2322 -1.23223 7.5
    endloop
  endfacet
  facet normal -0 0 1
    outer loop
      vertex 66.1491 0 7.5
      vertex 70 -0.5 7.5
      vertex 72.5 0 7.5
    endloop
  endfacet
  facet normal 0 0 1
    outer loop
      vertex -74.5 0 7.5
      vertex -79.5 0 7.5
      vertex -74.5 -2 7.5
    endloop
  endfacet
  facet normal 0 0 1
    outer loop
      vertex -67.3756 0 7.5
      vertex -68.2322 -1.23223 7.5
      vertex -67.5 -3 7.5
    endloop
  endfacet
  facet normal 0 0 1
    outer loop
      vertex -67.3756 0 7.5
      vertex -70 -0.5 7.5
      vertex -68.2322 -1.23223 7.5
    endloop
  endfacet
  facet normal -0 0 1
    outer loop
      vertex -72.5 0 7.5
      vertex -70 -0.5 7.5
      vertex -67.3756 0 7.5
    endloop
  endfacet
  facet normal 0 0 1
    outer loop
      vertex -72.5 0 7.5
      vertex -71.7678 -1.23223 7.5
      vertex -70 -0.5 7.5
    endloop
  endfacet
  facet normal 0 0 1
    outer loop
      vertex -72.5 -2 7.5
      vertex -71.7678 -1.23223 7.5
      vertex -72.5 0 7.5
    endloop
  endfacet
  facet normal -0 0 1
    outer loop
      vertex -72.5 -2 7.5
      vertex -72.5 -3 7.5
      vertex -71.7678 -1.23223 7.5
    endloop
  endfacet
  facet normal 0 -0 1
    outer loop
      vertex -72.5 -3 7.5
      vertex -72.5 -2 7.5
      vertex -74.5 -2 7.5
    endloop
  endfacet
  facet normal 0 0 1
    outer loop
      vertex -54.3853 14.5 7.5
      vertex -60.3756 2.95855 7.5
      vertex -50.8853 8.43782 7.5
    endloop
  endfacet
  facet normal 0 0 1
    outer loop
      vertex -60.3756 2.95855 7.5
      vertex -61 -0.5 7.5
      vertex -60.3756 0 7.5
    endloop
  endfacet
  facet normal 0 0 1
    outer loop
      vertex -60.3756 2.95855 7.5
      vertex -62.7678 -1.23223 7.5
      vertex -61 -0.5 7.5
    endloop
  endfacet
  facet normal -0 0 1
    outer loop
      vertex -67.3756 7 7.5
      vertex -60.3756 2.95855 7.5
      vertex -54.3853 14.5 7.5
    endloop
  endfacet
  facet normal 0 0 1
    outer loop
      vertex -60.3756 2.95855 7.5
      vertex -67.3756 0 7.5
      vertex -62.7678 -1.23223 7.5
    endloop
  endfacet
  facet normal 0 0 1
    outer loop
      vertex -67.3756 0 7.5
      vertex -60.3756 2.95855 7.5
      vertex -67.3756 7 7.5
    endloop
  endfacet
  facet normal 0 0 1
    outer loop
      vertex 46.6223 0 7.5
      vertex 20.4481 -2.12097 7.5
      vertex 21.45 -3.5 7.5
    endloop
  endfacet
  facet normal 0 0 1
    outer loop
      vertex 18.8269 -2.64771 7.5
      vertex 1 -4.99038 7.5
      vertex 18.8269 -4.35229 7.5
    endloop
  endfacet
  facet normal 0 0 1
    outer loop
      vertex 20.4481 -2.12097 7.5
      vertex 1 -4.99038 7.5
      vertex 18.8269 -2.64771 7.5
    endloop
  endfacet
  facet normal 0 0 1
    outer loop
      vertex 20.4481 -2.12097 7.5
      vertex -1 -4.99038 7.5
      vertex 1 -4.99038 7.5
    endloop
  endfacet
  facet normal -0 0 1
    outer loop
      vertex -18.8269 -4.35229 7.5
      vertex -1 -4.99038 7.5
      vertex -18.8269 -2.64771 7.5
    endloop
  endfacet
  facet normal -0 0 1
    outer loop
      vertex -20.4481 -2.12097 7.5
      vertex -1 -4.99038 7.5
      vertex 20.4481 -2.12097 7.5
    endloop
  endfacet
  facet normal 0 0 1
    outer loop
      vertex -20.4481 -2.12097 7.5
      vertex 20.4481 -2.12097 7.5
      vertex 46.6223 0 7.5
    endloop
  endfacet
  facet normal 0 0 1
    outer loop
      vertex -1 -4.99038 7.5
      vertex -20.4481 -2.12097 7.5
      vertex -18.8269 -2.64771 7.5
    endloop
  endfacet
  facet normal 0 0 1
    outer loop
      vertex -59.2322 -1.23223 7.5
      vertex -21.45 -3.5 7.5
      vertex -20.4481 -2.12097 7.5
    endloop
  endfacet
  facet normal -0 0 1
    outer loop
      vertex -60.3756 0 7.5
      vertex -20.4481 -2.12097 7.5
      vertex 46.6223 0 7.5
    endloop
  endfacet
  facet normal 0 0 1
    outer loop
      vertex -21.45 -3.5 7.5
      vertex -59.2322 -1.23223 7.5
      vertex -58.5 -3 7.5
    endloop
  endfacet
  facet normal 0 0 1
    outer loop
      vertex -20.4481 -2.12097 7.5
      vertex -60.3756 0 7.5
      vertex -59.2322 -1.23223 7.5
    endloop
  endfacet
  facet normal 0 0 1
    outer loop
      vertex -59.2322 -1.23223 7.5
      vertex -60.3756 0 7.5
      vertex -61 -0.5 7.5
    endloop
  endfacet
  facet normal -0 0 1
    outer loop
      vertex 21.45 -3.5 7.5
      vertex 50.6637 -7 7.5
      vertex 46.6223 0 7.5
    endloop
  endfacet
  facet normal -0 0 1
    outer loop
      vertex 20.4481 -4.87903 7.5
      vertex 50.6637 -7 7.5
      vertex 21.45 -3.5 7.5
    endloop
  endfacet
  facet normal 0 0 1
    outer loop
      vertex 1 -7 7.5
      vertex 18.8269 -4.35229 7.5
      vertex 1 -4.99038 7.5
    endloop
  endfacet
  facet normal 0 0 1
    outer loop
      vertex 18.8269 -4.35229 7.5
      vertex 1 -7 7.5
      vertex 20.4481 -4.87903 7.5
    endloop
  endfacet
  facet normal 0 0 1
    outer loop
      vertex 20.4481 -4.87903 7.5
      vertex 1 -7 7.5
      vertex 50.6637 -7 7.5
    endloop
  endfacet
  facet normal 0 0 1
    outer loop
      vertex -1 -4.99038 7.5
      vertex -18.8269 -4.35229 7.5
      vertex -1 -7 7.5
    endloop
  endfacet
  facet normal -0 0 1
    outer loop
      vertex -20.4481 -4.87903 7.5
      vertex -1 -7 7.5
      vertex -18.8269 -4.35229 7.5
    endloop
  endfacet
  facet normal 0 0 1
    outer loop
      vertex -59.2322 -4.76777 7.5
      vertex -21.45 -3.5 7.5
      vertex -58.5 -3 7.5
    endloop
  endfacet
  facet normal 0 0 1
    outer loop
      vertex -21.45 -3.5 7.5
      vertex -59.2322 -4.76777 7.5
      vertex -20.4481 -4.87903 7.5
    endloop
  endfacet
  facet normal 0 0 1
    outer loop
      vertex -61 -5.5 7.5
      vertex -20.4481 -4.87903 7.5
      vertex -59.2322 -4.76777 7.5
    endloop
  endfacet
  facet normal 0 0 1
    outer loop
      vertex -20.4481 -4.87903 7.5
      vertex -61 -5.5 7.5
      vertex -1 -7 7.5
    endloop
  endfacet
  facet normal 0 0 1
    outer loop
      vertex -62.7678 -1.23223 7.5
      vertex -67.3756 0 7.5
      vertex -63.5 -3 7.5
    endloop
  endfacet
  facet normal 0 0 1
    outer loop
      vertex -67.5 -3 7.5
      vertex -63.5 -3 7.5
      vertex -67.3756 0 7.5
    endloop
  endfacet
  facet normal 0 0 1
    outer loop
      vertex -63.5 -3 7.5
      vertex -67.5 -3 7.5
      vertex -62.7678 -4.76777 7.5
    endloop
  endfacet
  facet normal 0 0 1
    outer loop
      vertex -68.2322 -4.76777 7.5
      vertex -62.7678 -4.76777 7.5
      vertex -67.5 -3 7.5
    endloop
  endfacet
  facet normal 0 0 1
    outer loop
      vertex -62.7678 -4.76777 7.5
      vertex -68.2322 -4.76777 7.5
      vertex -61 -5.5 7.5
    endloop
  endfacet
  facet normal 0 0 1
    outer loop
      vertex -70 -5.5 7.5
      vertex -61 -5.5 7.5
      vertex -68.2322 -4.76777 7.5
    endloop
  endfacet
  facet normal 0 0 1
    outer loop
      vertex -79.5 -7 7.5
      vertex -61 -5.5 7.5
      vertex -70 -5.5 7.5
    endloop
  endfacet
  facet normal 0 0 1
    outer loop
      vertex -74.5 -2 7.5
      vertex -71.7678 -4.76777 7.5
      vertex -72.5 -3 7.5
    endloop
  endfacet
  facet normal 0 0 1
    outer loop
      vertex -79.5 -7 7.5
      vertex -74.5 -2 7.5
      vertex -79.5 0 7.5
    endloop
  endfacet
  facet normal 0 0 1
    outer loop
      vertex -61 -5.5 7.5
      vertex -79.5 -7 7.5
      vertex -1 -7 7.5
    endloop
  endfacet
  facet normal 0 0 1
    outer loop
      vertex -71.7678 -4.76777 7.5
      vertex -79.5 -7 7.5
      vertex -70 -5.5 7.5
    endloop
  endfacet
  facet normal 0 0 1
    outer loop
      vertex -74.5 -2 7.5
      vertex -79.5 -7 7.5
      vertex -71.7678 -4.76777 7.5
    endloop
  endfacet
  facet normal 1 -0 0
    outer loop
      vertex 79.5 -7 7.5
      vertex 79.5 0 -7.5
      vertex 79.5 0 7.5
    endloop
  endfacet
  facet normal 1 0 0
    outer loop
      vertex 79.5 0 -7.5
      vertex 79.5 -7 7.5
      vertex 79.5 -7 -7.5
    endloop
  endfacet
  facet normal 0 1 -0
    outer loop
      vertex 79.5 0 -7.5
      vertex 74.5 0 7.5
      vertex 79.5 0 7.5
    endloop
  endfacet
  facet normal 0 1 0
    outer loop
      vertex 74.5 0 7.5
      vertex 79.5 0 -7.5
      vertex 74.5 0 -7.5
    endloop
  endfacet
  facet normal 0 1 -0
    outer loop
      vertex -74.5 0 -7.5
      vertex -79.5 0 7.5
      vertex -74.5 0 7.5
    endloop
  endfacet
  facet normal 0 1 0
    outer loop
      vertex -79.5 0 7.5
      vertex -74.5 0 -7.5
      vertex -79.5 0 -7.5
    endloop
  endfacet
  facet normal 0 1 -0
    outer loop
      vertex -67.3756 0 -7.5
      vertex -72.5 0 7.5
      vertex -67.3756 0 7.5
    endloop
  endfacet
  facet normal 0 1 0
    outer loop
      vertex -72.5 0 7.5
      vertex -67.3756 0 -7.5
      vertex -72.5 0 -7.5
    endloop
  endfacet
  facet normal 0 1 0
    outer loop
      vertex 58.0662 0 7.5
      vertex 54.5415 0 7.30068
      vertex 54.473 0 7.5
    endloop
  endfacet
  facet normal 0 1 0
    outer loop
      vertex 58.0662 0 7.5
      vertex 53.8999 0 5.35484
      vertex 54.5415 0 7.30068
    endloop
  endfacet
  facet normal 0 1 -0
    outer loop
      vertex 58.0662 0 -7.5
      vertex 53.8999 0 5.35484
      vertex 58.0662 0 7.5
    endloop
  endfacet
  facet normal 0 1 0
    outer loop
      vertex 53.8999 0 5.35484
      vertex 58.0662 0 -7.5
      vertex 52.5491 0 4.25065
    endloop
  endfacet
  facet normal 0 1 0
    outer loop
      vertex -60.3756 0 7.5
      vertex -50.8211 0 3.18371
      vertex -53.0752 0 3.46437
    endloop
  endfacet
  facet normal 0 1 0
    outer loop
      vertex 49.4026 0 3.70291
      vertex -49.1001 0 1.89224
      vertex -50.8211 0 3.18371
    endloop
  endfacet
  facet normal 0 1 0
    outer loop
      vertex 49.4026 0 3.70291
      vertex -48.4585 0 0
      vertex -49.1001 0 1.89224
    endloop
  endfacet
  facet normal 0 1 0
    outer loop
      vertex 49.4026 0 3.70291
      vertex -49.1001 0 -1.89224
      vertex -48.4585 0 0
    endloop
  endfacet
  facet normal 0 1 0
    outer loop
      vertex 49.4026 0 3.70291
      vertex 58.0662 0 -7.5
      vertex -49.1001 0 -1.89224
    endloop
  endfacet
  facet normal 0 1 0
    outer loop
      vertex -49.1001 0 -1.89224
      vertex 58.0662 0 -7.5
      vertex -50.8211 0 -3.18371
    endloop
  endfacet
  facet normal 0 1 0
    outer loop
      vertex -60.3756 0 -7.5
      vertex -50.8211 0 -3.18371
      vertex 58.0662 0 -7.5
    endloop
  endfacet
  facet normal 0 1 0
    outer loop
      vertex 51.6691 0 3.85278
      vertex 58.0662 0 -7.5
      vertex 49.9248 0 3.52687
    endloop
  endfacet
  facet normal 0 1 0
    outer loop
      vertex 52.1789 0 3.94802
      vertex 58.0662 0 -7.5
      vertex 51.6691 0 3.85278
    endloop
  endfacet
  facet normal 0 1 0
    outer loop
      vertex 52.5491 0 4.25065
      vertex 58.0662 0 -7.5
      vertex 52.1789 0 3.94802
    endloop
  endfacet
  facet normal 0 1 0
    outer loop
      vertex -50.8211 0 3.18371
      vertex 46.6223 0 7.5
      vertex 46.6223 0 5.82104
    endloop
  endfacet
  facet normal 0 1 0
    outer loop
      vertex -50.8211 0 3.18371
      vertex 46.6223 0 5.82104
      vertex 47.8534 0 4.2251
    endloop
  endfacet
  facet normal 0 1 0
    outer loop
      vertex -50.8211 0 3.18371
      vertex 47.8534 0 4.2251
      vertex 49.4026 0 3.70291
    endloop
  endfacet
  facet normal 0 1 0
    outer loop
      vertex 58.0662 0 -7.5
      vertex 49.4026 0 3.70291
      vertex 49.9248 0 3.52687
    endloop
  endfacet
  facet normal 0 1 -0
    outer loop
      vertex -50.8211 0 3.18371
      vertex -60.3756 0 7.5
      vertex 46.6223 0 7.5
    endloop
  endfacet
  facet normal 0 1 -0
    outer loop
      vertex -55.1466 0 2.64512
      vertex -60.3756 0 7.5
      vertex -53.0752 0 3.46437
    endloop
  endfacet
  facet normal 0 1 -0
    outer loop
      vertex -56.3777 0 0.986063
      vertex -60.3756 0 7.5
      vertex -55.1466 0 2.64512
    endloop
  endfacet
  facet normal 0 1 -0
    outer loop
      vertex -56.3777 0 -0.986063
      vertex -60.3756 0 7.5
      vertex -56.3777 0 0.986063
    endloop
  endfacet
  facet normal 0 1 0
    outer loop
      vertex -56.3777 0 -0.986063
      vertex -60.3756 0 -7.5
      vertex -60.3756 0 7.5
    endloop
  endfacet
  facet normal 0 1 0
    outer loop
      vertex -55.1466 0 -2.64512
      vertex -60.3756 0 -7.5
      vertex -56.3777 0 -0.986063
    endloop
  endfacet
  facet normal 0 1 0
    outer loop
      vertex -53.0752 0 -3.46437
      vertex -60.3756 0 -7.5
      vertex -55.1466 0 -2.64512
    endloop
  endfacet
  facet normal 0 1 0
    outer loop
      vertex -50.8211 0 -3.18371
      vertex -60.3756 0 -7.5
      vertex -53.0752 0 -3.46437
    endloop
  endfacet
  facet normal 0 1 -0
    outer loop
      vertex 72.5 0 -7.5
      vertex 66.1491 0 7.5
      vertex 72.5 0 7.5
    endloop
  endfacet
  facet normal 0 1 0
    outer loop
      vertex 66.1491 0 7.5
      vertex 72.5 0 -7.5
      vertex 66.1491 0 -7.5
    endloop
  endfacet
  facet normal 0 0 -1
    outer loop
      vertex -1 -7 -7.5
      vertex -18.8269 -4.35229 -7.5
      vertex -1 -4.99038 -7.5
    endloop
  endfacet
  facet normal 0 0 -1
    outer loop
      vertex -1 -7 -7.5
      vertex -20.4481 -4.87903 -7.5
      vertex -18.8269 -4.35229 -7.5
    endloop
  endfacet
  facet normal 0 0 -1
    outer loop
      vertex -20.4481 -4.87903 -7.5
      vertex -60.3756 0 -7.5
      vertex -21.45 -3.5 -7.5
    endloop
  endfacet
  facet normal 0 0 -1
    outer loop
      vertex -60.3756 0 -7.5
      vertex -67.3756 0 -7.5
      vertex -60.3756 2.95855 -7.5
    endloop
  endfacet
  facet normal 0 0 -1
    outer loop
      vertex -79.5 -7 -7.5
      vertex -60.3756 0 -7.5
      vertex -20.4481 -4.87903 -7.5
    endloop
  endfacet
  facet normal 0 0 -1
    outer loop
      vertex -79.5 -7 -7.5
      vertex -20.4481 -4.87903 -7.5
      vertex -1 -7 -7.5
    endloop
  endfacet
  facet normal 0 -0 -1
    outer loop
      vertex -72.5 -2 -7.5
      vertex -60.3756 0 -7.5
      vertex -79.5 -7 -7.5
    endloop
  endfacet
  facet normal -0 0 -1
    outer loop
      vertex -60.3756 0 -7.5
      vertex -72.5 -2 -7.5
      vertex -67.3756 0 -7.5
    endloop
  endfacet
  facet normal -0 0 -1
    outer loop
      vertex -72.5 -2 -7.5
      vertex -79.5 -7 -7.5
      vertex -74.5 -2 -7.5
    endloop
  endfacet
  facet normal 0 0 -1
    outer loop
      vertex -79.5 0 -7.5
      vertex -74.5 -2 -7.5
      vertex -79.5 -7 -7.5
    endloop
  endfacet
  facet normal 0 0 -1
    outer loop
      vertex -74.5 -2 -7.5
      vertex -79.5 0 -7.5
      vertex -74.5 0 -7.5
    endloop
  endfacet
  facet normal 0 0 -1
    outer loop
      vertex -60.3756 2.95855 -7.5
      vertex -54.3853 14.5 -7.5
      vertex -50.8853 8.43782 -7.5
    endloop
  endfacet
  facet normal 0 0 -1
    outer loop
      vertex -67.3756 7 -7.5
      vertex -60.3756 2.95855 -7.5
      vertex -67.3756 0 -7.5
    endloop
  endfacet
  facet normal 0 0 -1
    outer loop
      vertex -60.3756 2.95855 -7.5
      vertex -67.3756 7 -7.5
      vertex -54.3853 14.5 -7.5
    endloop
  endfacet
  facet normal -0 0 -1
    outer loop
      vertex -67.3756 0 -7.5
      vertex -72.5 -2 -7.5
      vertex -72.5 0 -7.5
    endloop
  endfacet
  facet normal 0 0 -1
    outer loop
      vertex 14.6712 46.2868 -7.5
      vertex 23.6747 59.5679 -7.5
      vertex 27.1747 53.5058 -7.5
    endloop
  endfacet
  facet normal 0 0 -1
    outer loop
      vertex 23.6747 59.5679 -7.5
      vertex 14.6712 46.2868 -7.5
      vertex 11.1712 52.349 -7.5
    endloop
  endfacet
  facet normal 0 0 -1
    outer loop
      vertex 79.5 -7 -7.5
      vertex 74.5 -2 -7.5
      vertex 79.5 0 -7.5
    endloop
  endfacet
  facet normal 0 0 -1
    outer loop
      vertex 79.5 -7 -7.5
      vertex 72.5 -2 -7.5
      vertex 74.5 -2 -7.5
    endloop
  endfacet
  facet normal 0 0 -1
    outer loop
      vertex 72.5 -2 -7.5
      vertex 66.1491 0 -7.5
      vertex 72.5 0 -7.5
    endloop
  endfacet
  facet normal 0 0 -1
    outer loop
      vertex 79.5 -7 -7.5
      vertex 66.1491 0 -7.5
      vertex 72.5 -2 -7.5
    endloop
  endfacet
  facet normal 0 0 -1
    outer loop
      vertex 79.5 -7 -7.5
      vertex 58.0662 0 -7.5
      vertex 66.1491 0 -7.5
    endloop
  endfacet
  facet normal 0 0 -1
    outer loop
      vertex 20.4481 -4.87903 -7.5
      vertex 58.0662 0 -7.5
      vertex 79.5 -7 -7.5
    endloop
  endfacet
  facet normal 0 0 -1
    outer loop
      vertex 58.0662 0 -7.5
      vertex 20.4481 -4.87903 -7.5
      vertex 21.45 -3.5 -7.5
    endloop
  endfacet
  facet normal 0 0 -1
    outer loop
      vertex 1 -4.99038 -7.5
      vertex 18.8269 -4.35229 -7.5
      vertex 1 -7 -7.5
    endloop
  endfacet
  facet normal -0 0 -1
    outer loop
      vertex 20.4481 -4.87903 -7.5
      vertex 1 -7 -7.5
      vertex 18.8269 -4.35229 -7.5
    endloop
  endfacet
  facet normal 0 0 -1
    outer loop
      vertex 1 -7 -7.5
      vertex 20.4481 -4.87903 -7.5
      vertex 79.5 -7 -7.5
    endloop
  endfacet
  facet normal -0 0 -1
    outer loop
      vertex 79.5 0 -7.5
      vertex 74.5 -2 -7.5
      vertex 74.5 0 -7.5
    endloop
  endfacet
  facet normal 0 0 -1
    outer loop
      vertex 27.1747 53.5058 -7.5
      vertex 66.1491 0 -7.5
      vertex 58.0662 0 -7.5
    endloop
  endfacet
  facet normal 0 0 -1
    outer loop
      vertex 66.1491 0 -7.5
      vertex 27.1747 53.5058 -7.5
      vertex 29.7189 63.099 -7.5
    endloop
  endfacet
  facet normal 0 0 -1
    outer loop
      vertex 23.6747 59.5679 -7.5
      vertex 29.7189 63.099 -7.5
      vertex 27.1747 53.5058 -7.5
    endloop
  endfacet
  facet normal 0 0 -1
    outer loop
      vertex 29.7189 63.099 -7.5
      vertex 23.6747 59.5679 -7.5
      vertex 23.6567 59.599 -7.5
    endloop
  endfacet
  facet normal 0 0 -1
    outer loop
      vertex 20.4481 -2.12097 -7.5
      vertex 58.0662 0 -7.5
      vertex 21.45 -3.5 -7.5
    endloop
  endfacet
  facet normal -0 0 -1
    outer loop
      vertex 18.8269 -4.35229 -7.5
      vertex 1 -4.99038 -7.5
      vertex 18.8269 -2.64771 -7.5
    endloop
  endfacet
  facet normal -0 0 -1
    outer loop
      vertex 18.8269 -2.64771 -7.5
      vertex 1 -4.99038 -7.5
      vertex 20.4481 -2.12097 -7.5
    endloop
  endfacet
  facet normal 0 0 -1
    outer loop
      vertex -1 -4.99038 -7.5
      vertex 20.4481 -2.12097 -7.5
      vertex 1 -4.99038 -7.5
    endloop
  endfacet
  facet normal 0 0 -1
    outer loop
      vertex -18.8269 -2.64771 -7.5
      vertex -1 -4.99038 -7.5
      vertex -18.8269 -4.35229 -7.5
    endloop
  endfacet
  facet normal 0 0 -1
    outer loop
      vertex -20.4481 -2.12097 -7.5
      vertex -1 -4.99038 -7.5
      vertex -18.8269 -2.64771 -7.5
    endloop
  endfacet
  facet normal 0 0 -1
    outer loop
      vertex -1 -4.99038 -7.5
      vertex -20.4481 -2.12097 -7.5
      vertex 20.4481 -2.12097 -7.5
    endloop
  endfacet
  facet normal 0 0 -1
    outer loop
      vertex 20.4481 -2.12097 -7.5
      vertex -20.4481 -2.12097 -7.5
      vertex 58.0662 0 -7.5
    endloop
  endfacet
  facet normal 0 0 -1
    outer loop
      vertex -20.4481 -2.12097 -7.5
      vertex -60.3756 0 -7.5
      vertex 58.0662 0 -7.5
    endloop
  endfacet
  facet normal 0 0 -1
    outer loop
      vertex -60.3756 0 -7.5
      vertex -20.4481 -2.12097 -7.5
      vertex -21.45 -3.5 -7.5
    endloop
  endfacet
  facet normal 0 -1 0
    outer loop
      vertex -79.5 -7 7.5
      vertex -49.0337 -7 3.46437
      vertex -1 -7 7.5
    endloop
  endfacet
  facet normal 0 -1 0
    outer loop
      vertex -79.5 -7 7.5
      vertex -51.1051 -7 2.64512
      vertex -49.0337 -7 3.46437
    endloop
  endfacet
  facet normal 0 -1 0
    outer loop
      vertex -72.8932 -7 0.440839
      vertex -51.1051 -7 2.64512
      vertex -79.5 -7 7.5
    endloop
  endfacet
  facet normal 0 -1 0
    outer loop
      vertex -72.8932 -7 0.440839
      vertex -79.5 -7 7.5
      vertex -73.7318 -7 0.713292
    endloop
  endfacet
  facet normal 0 -1 0
    outer loop
      vertex -79.5 -7 7.5
      vertex -74.25 -7 0
      vertex -73.7318 -7 0.713292
    endloop
  endfacet
  facet normal 0 -1 0
    outer loop
      vertex -72.8932 -7 -0.440839
      vertex -51.1051 -7 -2.64512
      vertex -52.3363 -7 -0.986063
    endloop
  endfacet
  facet normal 0 -1 -0
    outer loop
      vertex -72.8932 -7 -0.440839
      vertex -79.5 -7 -7.5
      vertex -51.1051 -7 -2.64512
    endloop
  endfacet
  facet normal 0 -1 -0
    outer loop
      vertex -51.1051 -7 -2.64512
      vertex -79.5 -7 -7.5
      vertex -49.0337 -7 -3.46437
    endloop
  endfacet
  facet normal 0 -1 -0
    outer loop
      vertex -74.25 -7 0
      vertex -79.5 -7 -7.5
      vertex -73.7318 -7 -0.713292
    endloop
  endfacet
  facet normal 0 -1 0
    outer loop
      vertex -79.5 -7 -7.5
      vertex -74.25 -7 0
      vertex -79.5 -7 7.5
    endloop
  endfacet
  facet normal 0 -1 0
    outer loop
      vertex -46.7797 -7 3.18371
      vertex -1 -7 7.5
      vertex -49.0337 -7 3.46437
    endloop
  endfacet
  facet normal 0 -1 0
    outer loop
      vertex -45.0587 -7 1.89224
      vertex -1 -7 7.5
      vertex -46.7797 -7 3.18371
    endloop
  endfacet
  facet normal 0 -1 0
    outer loop
      vertex -44.4171 -7 0
      vertex -1 -7 7.5
      vertex -45.0587 -7 1.89224
    endloop
  endfacet
  facet normal 0 -1 0
    outer loop
      vertex -44.4171 -7 0
      vertex -1 -7 0
      vertex -1 -7 7.5
    endloop
  endfacet
  facet normal 0 -1 0
    outer loop
      vertex -1 -7 -7.5
      vertex -44.4171 -7 0
      vertex -45.0587 -7 -1.89224
    endloop
  endfacet
  facet normal 0 -1 0
    outer loop
      vertex -1 -7 -7.5
      vertex -45.0587 -7 -1.89224
      vertex -46.7797 -7 -3.18371
    endloop
  endfacet
  facet normal 0 -1 0
    outer loop
      vertex -1 -7 -7.5
      vertex -46.7797 -7 -3.18371
      vertex -49.0337 -7 -3.46437
    endloop
  endfacet
  facet normal 0 -1 0
    outer loop
      vertex -1 -7 -7.5
      vertex -49.0337 -7 -3.46437
      vertex -79.5 -7 -7.5
    endloop
  endfacet
  facet normal 0 -1 0
    outer loop
      vertex -44.4171 -7 0
      vertex -1 -7 -7.5
      vertex -1 -7 0
    endloop
  endfacet
  facet normal 0 -1 0
    outer loop
      vertex -51.1051 -7 2.64512
      vertex -72.8932 -7 0.440839
      vertex -52.3363 -7 0.986063
    endloop
  endfacet
  facet normal 0 -1 0
    outer loop
      vertex -72.8932 -7 -0.440839
      vertex -52.3363 -7 0.986063
      vertex -72.8932 -7 0.440839
    endloop
  endfacet
  facet normal 0 -1 0
    outer loop
      vertex -79.5 -7 -7.5
      vertex -72.8932 -7 -0.440839
      vertex -73.7318 -7 -0.713292
    endloop
  endfacet
  facet normal 0 -1 0
    outer loop
      vertex -72.8932 -7 -0.440839
      vertex -52.3363 -7 -0.986063
      vertex -52.3363 -7 0.986063
    endloop
  endfacet
  facet normal 0 -1 0
    outer loop
      vertex 1 -7 7.5
      vertex 50.6637 -7 6.81349
      vertex 50.6637 -7 7.5
    endloop
  endfacet
  facet normal 0 -1 0
    outer loop
      vertex 1 -7 0
      vertex 50.6637 -7 6.81349
      vertex 1 -7 7.5
    endloop
  endfacet
  facet normal 0 -1 0
    outer loop
      vertex 1 -7 -7.5
      vertex 50.6637 -7 6.81349
      vertex 1 -7 0
    endloop
  endfacet
  facet normal 0 -1 -0
    outer loop
      vertex 50.6637 -7 6.81349
      vertex 1 -7 -7.5
      vertex 51.8949 -7 5.21756
    endloop
  endfacet
  facet normal 0 -1 -0
    outer loop
      vertex 51.8949 -7 5.21756
      vertex 1 -7 -7.5
      vertex 53.8358 -7 4.5633
    endloop
  endfacet
  facet normal 0 -1 0
    outer loop
      vertex 53.9663 -7 4.51932
      vertex 72.8932 -7 0.440839
      vertex 73.7318 -7 0.713292
    endloop
  endfacet
  facet normal 0 -1 -0
    outer loop
      vertex 53.8358 -7 4.5633
      vertex 1 -7 -7.5
      vertex 53.9663 -7 4.51932
    endloop
  endfacet
  facet normal 0 -1 0
    outer loop
      vertex 53.9663 -7 4.51932
      vertex 72.8932 -7 -0.440839
      vertex 72.8932 -7 0.440839
    endloop
  endfacet
  facet normal 0 -1 0
    outer loop
      vertex 79.5 -7 -7.5
      vertex 53.9663 -7 4.51932
      vertex 1 -7 -7.5
    endloop
  endfacet
  facet normal 0 -1 0
    outer loop
      vertex 53.9663 -7 4.51932
      vertex 79.5 -7 -7.5
      vertex 72.8932 -7 -0.440839
    endloop
  endfacet
  facet normal 0 -1 0
    outer loop
      vertex 73.7318 -7 0.713292
      vertex 58.3214 -7 7.5
      vertex 57.9413 -7 6.3473
    endloop
  endfacet
  facet normal 0 -1 0
    outer loop
      vertex 73.7318 -7 0.713292
      vertex 57.9413 -7 6.3473
      vertex 56.2793 -7 4.98866
    endloop
  endfacet
  facet normal 0 -1 0
    outer loop
      vertex 73.7318 -7 0.713292
      vertex 56.2793 -7 4.98866
      vertex 56.2203 -7 4.94047
    endloop
  endfacet
  facet normal 0 -1 0
    outer loop
      vertex 73.7318 -7 0.713292
      vertex 56.2203 -7 4.94047
      vertex 56.1392 -7 4.92531
    endloop
  endfacet
  facet normal 0 -1 0
    outer loop
      vertex 73.7318 -7 0.713292
      vertex 56.1392 -7 4.92531
      vertex 53.9663 -7 4.51932
    endloop
  endfacet
  facet normal 0 -1 0
    outer loop
      vertex 58.3214 -7 7.5
      vertex 73.7318 -7 0.713292
      vertex 79.5 -7 7.5
    endloop
  endfacet
  facet normal 0 -1 0
    outer loop
      vertex 74.25 -7 0
      vertex 79.5 -7 7.5
      vertex 73.7318 -7 0.713292
    endloop
  endfacet
  facet normal 0 -1 0
    outer loop
      vertex 74.25 -7 0
      vertex 79.5 -7 -7.5
      vertex 79.5 -7 7.5
    endloop
  endfacet
  facet normal 0 -1 0
    outer loop
      vertex 73.7318 -7 -0.713292
      vertex 79.5 -7 -7.5
      vertex 74.25 -7 0
    endloop
  endfacet
  facet normal 0 -1 0
    outer loop
      vertex 72.8932 -7 -0.440839
      vertex 79.5 -7 -7.5
      vertex 73.7318 -7 -0.713292
    endloop
  endfacet
  facet normal -1 0 0
    outer loop
      vertex -67.3756 0 -7.5
      vertex -67.3756 7 7.5
      vertex -67.3756 7 -7.5
    endloop
  endfacet
  facet normal -1 -0 0
    outer loop
      vertex -67.3756 7 7.5
      vertex -67.3756 0 -7.5
      vertex -67.3756 0 7.5
    endloop
  endfacet
  facet normal 1 -0 0
    outer loop
      vertex -60.3756 0 7.5
      vertex -60.3756 2.95855 -7.5
      vertex -60.3756 2.95855 7.5
    endloop
  endfacet
  facet normal 1 0 0
    outer loop
      vertex -60.3756 2.95855 -7.5
      vertex -60.3756 0 7.5
      vertex -60.3756 0 -7.5
    endloop
  endfacet
  facet normal 0.866025 0.5 0
    outer loop
      vertex 66.1491 0 7.5
      vertex 29.7189 63.099 -7.5
      vertex 29.7189 63.099 7.5
    endloop
  endfacet
  facet normal 0.866025 0.5 0
    outer loop
      vertex 29.7189 63.099 -7.5
      vertex 66.1491 0 7.5
      vertex 66.1491 0 -7.5
    endloop
  endfacet
  facet normal -0.5 0.866025 0
    outer loop
      vertex 29.7189 63.099 -7.5
      vertex 23.6567 59.599 7.5
      vertex 29.7189 63.099 7.5
    endloop
  endfacet
  facet normal -0.5 0.866025 0
    outer loop
      vertex 23.6567 59.599 7.5
      vertex 29.7189 63.099 -7.5
      vertex 23.6567 59.599 -7.5
    endloop
  endfacet
  facet normal -0.866021 -0.500008 0
    outer loop
      vertex 23.6747 59.5679 -7.5
      vertex 23.6567 59.599 7.5
      vertex 23.6567 59.599 -7.5
    endloop
  endfacet
  facet normal -0.866021 -0.500008 0
    outer loop
      vertex 23.6567 59.599 7.5
      vertex 23.6747 59.5679 -7.5
      vertex 23.6747 59.5679 7.5
    endloop
  endfacet
  facet normal -0.866025 -0.5 0
    outer loop
      vertex 58.0662 0 -7.5
      vertex 27.1747 53.5058 7.5
      vertex 27.1747 53.5058 -7.5
    endloop
  endfacet
  facet normal -0.866025 -0.5 0
    outer loop
      vertex 27.1747 53.5058 7.5
      vertex 58.0662 0 -7.5
      vertex 58.0662 0 7.5
    endloop
  endfacet
  facet normal 0.866025 0.5 0
    outer loop
      vertex -50.8853 8.43782 7.5
      vertex -54.3853 14.5 -7.5
      vertex -54.3853 14.5 7.5
    endloop
  endfacet
  facet normal 0.866025 0.5 0
    outer loop
      vertex -54.3853 14.5 -7.5
      vertex -50.8853 8.43782 7.5
      vertex -50.8853 8.43782 -7.5
    endloop
  endfacet
  facet normal 0.5 -0.866025 2.47737e-07
    outer loop
      vertex -60.3756 2.95855 7.5
      vertex -56.1814 5.38011 3.46437
      vertex -50.8853 8.43782 7.5
    endloop
  endfacet
  facet normal 0.5 -0.866026 -8.16227e-09
    outer loop
      vertex -60.3756 2.95855 7.5
      vertex -57.7349 4.48316 2.64512
      vertex -56.1814 5.38011 3.46437
    endloop
  endfacet
  facet normal 0.5 -0.866025 1.98423e-07
    outer loop
      vertex -60.3756 2.95855 7.5
      vertex -58.6583 3.95005 0.986063
      vertex -57.7349 4.48316 2.64512
    endloop
  endfacet
  facet normal 0.499999 -0.866026 0
    outer loop
      vertex -60.3756 2.95855 7.5
      vertex -58.6583 3.95005 -0.986063
      vertex -58.6583 3.95005 0.986063
    endloop
  endfacet
  facet normal 0.5 -0.866026 8.16227e-09
    outer loop
      vertex -57.7349 4.48316 -2.64512
      vertex -60.3756 2.95855 -7.5
      vertex -56.1814 5.38011 -3.46437
    endloop
  endfacet
  facet normal 0.5 -0.866025 -1.98423e-07
    outer loop
      vertex -58.6583 3.95005 -0.986063
      vertex -60.3756 2.95855 -7.5
      vertex -57.7349 4.48316 -2.64512
    endloop
  endfacet
  facet normal 0.499999 -0.866026 0
    outer loop
      vertex -60.3756 2.95855 -7.5
      vertex -58.6583 3.95005 -0.986063
      vertex -60.3756 2.95855 7.5
    endloop
  endfacet
  facet normal 0.5 -0.866025 -7.12236e-07
    outer loop
      vertex -54.4908 6.35614 3.18371
      vertex -50.8853 8.43782 7.5
      vertex -56.1814 5.38011 3.46437
    endloop
  endfacet
  facet normal 0.5 -0.866026 2.39067e-07
    outer loop
      vertex -53.2001 7.10136 1.89224
      vertex -50.8853 8.43782 7.5
      vertex -54.4908 6.35614 3.18371
    endloop
  endfacet
  facet normal 0.5 -0.866025 -1.46309e-07
    outer loop
      vertex -52.7189 7.37916 0
      vertex -50.8853 8.43782 7.5
      vertex -53.2001 7.10136 1.89224
    endloop
  endfacet
  facet normal 0.5 -0.866025 -2.47737e-07
    outer loop
      vertex -50.8853 8.43782 -7.5
      vertex -56.1814 5.38011 -3.46437
      vertex -60.3756 2.95855 -7.5
    endloop
  endfacet
  facet normal 0.5 -0.866025 0
    outer loop
      vertex -52.7189 7.37916 0
      vertex -50.8853 8.43782 -7.5
      vertex -50.8853 8.43782 7.5
    endloop
  endfacet
  facet normal 0.5 -0.866025 1.46309e-07
    outer loop
      vertex -53.2001 7.10136 -1.89224
      vertex -50.8853 8.43782 -7.5
      vertex -52.7189 7.37916 0
    endloop
  endfacet
  facet normal 0.5 -0.866026 -2.39067e-07
    outer loop
      vertex -54.4908 6.35614 -3.18371
      vertex -50.8853 8.43782 -7.5
      vertex -53.2001 7.10136 -1.89224
    endloop
  endfacet
  facet normal 0.5 -0.866025 7.12236e-07
    outer loop
      vertex -56.1814 5.38011 -3.46437
      vertex -50.8853 8.43782 -7.5
      vertex -54.4908 6.35614 -3.18371
    endloop
  endfacet
  facet normal -0.5 0.866025 1.64502e-07
    outer loop
      vertex -54.3853 14.5 7.5
      vertex -58.8486 11.9231 1.42658
      vertex -67.3756 7 7.5
    endloop
  endfacet
  facet normal -0.5 0.866025 -4.35949e-08
    outer loop
      vertex -54.3853 14.5 7.5
      vertex -57.951 12.4413 0
      vertex -58.8486 11.9231 1.42658
    endloop
  endfacet
  facet normal -0.5 0.866025 4.35949e-08
    outer loop
      vertex -57.951 12.4413 0
      vertex -54.3853 14.5 -7.5
      vertex -58.8486 11.9231 -1.42658
    endloop
  endfacet
  facet normal -0.5 0.866025 0
    outer loop
      vertex -54.3853 14.5 -7.5
      vertex -57.951 12.4413 0
      vertex -54.3853 14.5 7.5
    endloop
  endfacet
  facet normal -0.5 0.866025 -3.73779e-07
    outer loop
      vertex -60.3009 11.0846 0.881678
      vertex -67.3756 7 7.5
      vertex -58.8486 11.9231 1.42658
    endloop
  endfacet
  facet normal -0.5 0.866025 0
    outer loop
      vertex -60.3009 11.0846 -0.881678
      vertex -67.3756 7 7.5
      vertex -60.3009 11.0846 0.881678
    endloop
  endfacet
  facet normal -0.5 0.866025 -1.64502e-07
    outer loop
      vertex -67.3756 7 -7.5
      vertex -58.8486 11.9231 -1.42658
      vertex -54.3853 14.5 -7.5
    endloop
  endfacet
  facet normal -0.5 0.866025 0
    outer loop
      vertex -60.3009 11.0846 -0.881678
      vertex -67.3756 7 -7.5
      vertex -67.3756 7 7.5
    endloop
  endfacet
  facet normal -0.5 0.866025 3.73779e-07
    outer loop
      vertex -58.8486 11.9231 -1.42658
      vertex -67.3756 7 -7.5
      vertex -60.3009 11.0846 -0.881678
    endloop
  endfacet
  facet normal -0.866025 -0.5 0
    outer loop
      vertex 14.6712 46.2868 -7.5
      vertex 11.1712 52.349 7.5
      vertex 11.1712 52.349 -7.5
    endloop
  endfacet
  facet normal -0.866025 -0.5 0
    outer loop
      vertex 11.1712 52.349 7.5
      vertex 14.6712 46.2868 -7.5
      vertex 14.6712 46.2868 7.5
    endloop
  endfacet
  facet normal 0.5 -0.866025 3.70379e-08
    outer loop
      vertex 14.6712 46.2868 7.5
      vertex 21.0686 49.9804 3.46437
      vertex 27.1747 53.5058 7.5
    endloop
  endfacet
  facet normal 0.5 -0.866025 6.83416e-07
    outer loop
      vertex 14.6712 46.2868 7.5
      vertex 19.5151 49.0835 2.64512
      vertex 21.0686 49.9804 3.46437
    endloop
  endfacet
  facet normal 0.499999 -0.866026 -5.40684e-07
    outer loop
      vertex 14.6712 46.2868 7.5
      vertex 18.5917 48.5504 0.986063
      vertex 19.5151 49.0835 2.64512
    endloop
  endfacet
  facet normal 0.5 -0.866025 0
    outer loop
      vertex 14.6712 46.2868 7.5
      vertex 18.5917 48.5504 -0.986063
      vertex 18.5917 48.5504 0.986063
    endloop
  endfacet
  facet normal 0.5 -0.866025 -6.83416e-07
    outer loop
      vertex 19.5151 49.0835 -2.64512
      vertex 14.6712 46.2868 -7.5
      vertex 21.0686 49.9804 -3.46437
    endloop
  endfacet
  facet normal 0.499999 -0.866026 5.40684e-07
    outer loop
      vertex 18.5917 48.5504 -0.986063
      vertex 14.6712 46.2868 -7.5
      vertex 19.5151 49.0835 -2.64512
    endloop
  endfacet
  facet normal 0.5 -0.866025 0
    outer loop
      vertex 14.6712 46.2868 -7.5
      vertex 18.5917 48.5504 -0.986063
      vertex 14.6712 46.2868 7.5
    endloop
  endfacet
  facet normal 0.5 -0.866026 9.197e-07
    outer loop
      vertex 22.7592 50.9564 3.18371
      vertex 27.1747 53.5058 7.5
      vertex 21.0686 49.9804 3.46437
    endloop
  endfacet
  facet normal 0.500001 -0.866025 -8.34993e-07
    outer loop
      vertex 24.0499 51.7017 1.89224
      vertex 27.1747 53.5058 7.5
      vertex 22.7592 50.9564 3.18371
    endloop
  endfacet
  facet normal 0.499999 -0.866026 5.47035e-07
    outer loop
      vertex 24.5311 51.9795 0
      vertex 27.1747 53.5058 7.5
      vertex 24.0499 51.7017 1.89224
    endloop
  endfacet
  facet normal 0.499999 -0.866026 -5.47035e-07
    outer loop
      vertex 27.1747 53.5058 -7.5
      vertex 24.5311 51.9795 0
      vertex 24.0499 51.7017 -1.89224
    endloop
  endfacet
  facet normal 0.5 -0.866025 -3.70379e-08
    outer loop
      vertex 27.1747 53.5058 -7.5
      vertex 21.0686 49.9804 -3.46437
      vertex 14.6712 46.2868 -7.5
    endloop
  endfacet
  facet normal 0.5 -0.866025 0
    outer loop
      vertex 24.5311 51.9795 0
      vertex 27.1747 53.5058 -7.5
      vertex 27.1747 53.5058 7.5
    endloop
  endfacet
  facet normal 0.500001 -0.866025 8.34993e-07
    outer loop
      vertex 22.7592 50.9564 -3.18371
      vertex 27.1747 53.5058 -7.5
      vertex 24.0499 51.7017 -1.89224
    endloop
  endfacet
  facet normal 0.5 -0.866026 -9.197e-07
    outer loop
      vertex 21.0686 49.9804 -3.46437
      vertex 27.1747 53.5058 -7.5
      vertex 22.7592 50.9564 -3.18371
    endloop
  endfacet
  facet normal -0.5 0.866025 4.18046e-07
    outer loop
      vertex 23.6747 59.5679 7.5
      vertex 18.4014 56.5234 1.42658
      vertex 11.1712 52.349 7.5
    endloop
  endfacet
  facet normal -0.5 0.866025 4.31663e-07
    outer loop
      vertex 23.6747 59.5679 7.5
      vertex 19.299 57.0417 0
      vertex 18.4014 56.5234 1.42658
    endloop
  endfacet
  facet normal -0.5 0.866025 -4.31663e-07
    outer loop
      vertex 19.299 57.0417 0
      vertex 23.6747 59.5679 -7.5
      vertex 18.4014 56.5234 -1.42658
    endloop
  endfacet
  facet normal -0.499999 0.866026 0
    outer loop
      vertex 23.6747 59.5679 -7.5
      vertex 19.299 57.0417 0
      vertex 23.6747 59.5679 7.5
    endloop
  endfacet
  facet normal -0.500001 0.866025 -1.11579e-06
    outer loop
      vertex 16.9491 55.6849 0.881678
      vertex 11.1712 52.349 7.5
      vertex 18.4014 56.5234 1.42658
    endloop
  endfacet
  facet normal -0.5 0.866025 0
    outer loop
      vertex 16.9491 55.6849 -0.881678
      vertex 11.1712 52.349 7.5
      vertex 16.9491 55.6849 0.881678
    endloop
  endfacet
  facet normal -0.5 0.866025 -4.18046e-07
    outer loop
      vertex 11.1712 52.349 -7.5
      vertex 18.4014 56.5234 -1.42658
      vertex 23.6747 59.5679 -7.5
    endloop
  endfacet
  facet normal -0.5 0.866025 0
    outer loop
      vertex 16.9491 55.6849 -0.881678
      vertex 11.1712 52.349 -7.5
      vertex 11.1712 52.349 7.5
    endloop
  endfacet
  facet normal -0.500001 0.866025 1.11579e-06
    outer loop
      vertex 18.4014 56.5234 -1.42658
      vertex 11.1712 52.349 -7.5
      vertex 16.9491 55.6849 -0.881678
    endloop
  endfacet
  facet normal 0.809019 -0 0.587783
    outer loop
      vertex -74.25 -7 0
      vertex -73.7318 -2 -0.713292
      vertex -74.25 -2 0
    endloop
  endfacet
  facet normal 0.809019 0 0.587783
    outer loop
      vertex -73.7318 -2 -0.713292
      vertex -74.25 -7 0
      vertex -73.7318 -7 -0.713292
    endloop
  endfacet
  facet normal -0.309015 0 0.951057
    outer loop
      vertex -73.7318 -2 -0.713292
      vertex -72.8932 -7 -0.440839
      vertex -72.8932 -2 -0.440839
    endloop
  endfacet
  facet normal -0.309015 0 0.951057
    outer loop
      vertex -72.8932 -7 -0.440839
      vertex -73.7318 -2 -0.713292
      vertex -73.7318 -7 -0.713292
    endloop
  endfacet
  facet normal -0.309015 0 -0.951057
    outer loop
      vertex -73.7318 -7 0.713292
      vertex -72.8932 -2 0.440839
      vertex -72.8932 -7 0.440839
    endloop
  endfacet
  facet normal -0.309015 0 -0.951057
    outer loop
      vertex -72.8932 -2 0.440839
      vertex -73.7318 -7 0.713292
      vertex -73.7318 -2 0.713292
    endloop
  endfacet
  facet normal -1 0 0
    outer loop
      vertex -72.8932 -7 -0.440839
      vertex -72.8932 -2 0.440839
      vertex -72.8932 -2 -0.440839
    endloop
  endfacet
  facet normal -1 -0 0
    outer loop
      vertex -72.8932 -2 0.440839
      vertex -72.8932 -7 -0.440839
      vertex -72.8932 -7 0.440839
    endloop
  endfacet
  facet normal 0.809019 0 -0.587783
    outer loop
      vertex -73.7318 -7 0.713292
      vertex -74.25 -2 0
      vertex -73.7318 -2 0.713292
    endloop
  endfacet
  facet normal 0.809019 0 -0.587783
    outer loop
      vertex -74.25 -2 0
      vertex -73.7318 -7 0.713292
      vertex -74.25 -7 0
    endloop
  endfacet
  facet normal -1 0 0
    outer loop
      vertex -72.5 -2 -7.5
      vertex -72.5 0 7.5
      vertex -72.5 0 -7.5
    endloop
  endfacet
  facet normal -1 -0 0
    outer loop
      vertex -72.5 0 7.5
      vertex -72.5 -2 -7.5
      vertex -72.5 -2 7.5
    endloop
  endfacet
  facet normal 1 -0 0
    outer loop
      vertex -74.5 -2 7.5
      vertex -74.5 0 -7.5
      vertex -74.5 0 7.5
    endloop
  endfacet
  facet normal 1 0 0
    outer loop
      vertex -74.5 0 -7.5
      vertex -74.5 -2 7.5
      vertex -74.5 -2 -7.5
    endloop
  endfacet
  facet normal 0 1 0
    outer loop
      vertex -72.5 -2 7.5
      vertex -73.7318 -2 0.713292
      vertex -74.5 -2 7.5
    endloop
  endfacet
  facet normal 0 1 0
    outer loop
      vertex -72.5 -2 7.5
      vertex -72.8932 -2 0.440839
      vertex -73.7318 -2 0.713292
    endloop
  endfacet
  facet normal 0 1 0
    outer loop
      vertex -72.5 -2 7.5
      vertex -72.8932 -2 -0.440839
      vertex -72.8932 -2 0.440839
    endloop
  endfacet
  facet normal 0 1 0
    outer loop
      vertex -72.8932 -2 -0.440839
      vertex -72.5 -2 -7.5
      vertex -73.7318 -2 -0.713292
    endloop
  endfacet
  facet normal 0 1 -0
    outer loop
      vertex -72.5 -2 -7.5
      vertex -72.8932 -2 -0.440839
      vertex -72.5 -2 7.5
    endloop
  endfacet
  facet normal 0 1 -0
    outer loop
      vertex -74.25 -2 0
      vertex -74.5 -2 7.5
      vertex -73.7318 -2 0.713292
    endloop
  endfacet
  facet normal 0 1 0
    outer loop
      vertex -74.5 -2 -7.5
      vertex -73.7318 -2 -0.713292
      vertex -72.5 -2 -7.5
    endloop
  endfacet
  facet normal 0 1 0
    outer loop
      vertex -74.25 -2 0
      vertex -74.5 -2 -7.5
      vertex -74.5 -2 7.5
    endloop
  endfacet
  facet normal 0 1 0
    outer loop
      vertex -73.7318 -2 -0.713292
      vertex -74.5 -2 -7.5
      vertex -74.25 -2 0
    endloop
  endfacet
  facet normal 0.809017 -0.587786 0
    outer loop
      vertex -21.45 -3.5 7.5
      vertex -20.4481 -2.12097 -7.5
      vertex -20.4481 -2.12097 7.5
    endloop
  endfacet
  facet normal 0.809017 -0.587786 0
    outer loop
      vertex -20.4481 -2.12097 -7.5
      vertex -21.45 -3.5 7.5
      vertex -21.45 -3.5 -7.5
    endloop
  endfacet
  facet normal -1 0 0
    outer loop
      vertex -18.8269 -4.35229 -7.5
      vertex -18.8269 -2.64771 7.5
      vertex -18.8269 -2.64771 -7.5
    endloop
  endfacet
  facet normal -1 -0 0
    outer loop
      vertex -18.8269 -2.64771 7.5
      vertex -18.8269 -4.35229 -7.5
      vertex -18.8269 -4.35229 7.5
    endloop
  endfacet
  facet normal -0.309017 -0.951057 0
    outer loop
      vertex -20.4481 -2.12097 -7.5
      vertex -18.8269 -2.64771 7.5
      vertex -20.4481 -2.12097 7.5
    endloop
  endfacet
  facet normal -0.309017 -0.951057 -0
    outer loop
      vertex -18.8269 -2.64771 7.5
      vertex -20.4481 -2.12097 -7.5
      vertex -18.8269 -2.64771 -7.5
    endloop
  endfacet
  facet normal -0.309017 0.951057 0
    outer loop
      vertex -18.8269 -4.35229 -7.5
      vertex -20.4481 -4.87903 7.5
      vertex -18.8269 -4.35229 7.5
    endloop
  endfacet
  facet normal -0.309017 0.951057 0
    outer loop
      vertex -20.4481 -4.87903 7.5
      vertex -18.8269 -4.35229 -7.5
      vertex -20.4481 -4.87903 -7.5
    endloop
  endfacet
  facet normal 0.809017 0.587786 0
    outer loop
      vertex -20.4481 -4.87903 7.5
      vertex -21.45 -3.5 -7.5
      vertex -21.45 -3.5 7.5
    endloop
  endfacet
  facet normal 0.809017 0.587786 0
    outer loop
      vertex -21.45 -3.5 -7.5
      vertex -20.4481 -4.87903 7.5
      vertex -20.4481 -4.87903 -7.5
    endloop
  endfacet
  facet normal -0.809019 0 0.587783
    outer loop
      vertex 73.7318 -7 -0.713292
      vertex 74.25 -2 0
      vertex 73.7318 -2 -0.713292
    endloop
  endfacet
  facet normal -0.809019 0 0.587783
    outer loop
      vertex 74.25 -2 0
      vertex 73.7318 -7 -0.713292
      vertex 74.25 -7 0
    endloop
  endfacet
  facet normal 0.309015 0 0.951057
    outer loop
      vertex 72.8932 -2 -0.440839
      vertex 73.7318 -7 -0.713292
      vertex 73.7318 -2 -0.713292
    endloop
  endfacet
  facet normal 0.309015 0 0.951057
    outer loop
      vertex 73.7318 -7 -0.713292
      vertex 72.8932 -2 -0.440839
      vertex 72.8932 -7 -0.440839
    endloop
  endfacet
  facet normal 1 -0 0
    outer loop
      vertex 72.8932 -7 0.440839
      vertex 72.8932 -2 -0.440839
      vertex 72.8932 -2 0.440839
    endloop
  endfacet
  facet normal 1 0 0
    outer loop
      vertex 72.8932 -2 -0.440839
      vertex 72.8932 -7 0.440839
      vertex 72.8932 -7 -0.440839
    endloop
  endfacet
  facet normal -0.809019 0 -0.587783
    outer loop
      vertex 74.25 -7 0
      vertex 73.7318 -2 0.713292
      vertex 74.25 -2 0
    endloop
  endfacet
  facet normal -0.809019 -0 -0.587783
    outer loop
      vertex 73.7318 -2 0.713292
      vertex 74.25 -7 0
      vertex 73.7318 -7 0.713292
    endloop
  endfacet
  facet normal 0.309015 0 -0.951057
    outer loop
      vertex 72.8932 -7 0.440839
      vertex 73.7318 -2 0.713292
      vertex 73.7318 -7 0.713292
    endloop
  endfacet
  facet normal 0.309015 0 -0.951057
    outer loop
      vertex 73.7318 -2 0.713292
      vertex 72.8932 -7 0.440839
      vertex 72.8932 -2 0.440839
    endloop
  endfacet
  facet normal 1 -0 0
    outer loop
      vertex 72.5 -2 7.5
      vertex 72.5 0 -7.5
      vertex 72.5 0 7.5
    endloop
  endfacet
  facet normal 1 0 0
    outer loop
      vertex 72.5 0 -7.5
      vertex 72.5 -2 7.5
      vertex 72.5 -2 -7.5
    endloop
  endfacet
  facet normal -1 0 0
    outer loop
      vertex 74.5 -2 -7.5
      vertex 74.5 0 7.5
      vertex 74.5 0 -7.5
    endloop
  endfacet
  facet normal -1 -0 0
    outer loop
      vertex 74.5 0 7.5
      vertex 74.5 -2 -7.5
      vertex 74.5 -2 7.5
    endloop
  endfacet
  facet normal 0 1 0
    outer loop
      vertex 74.5 -2 7.5
      vertex 73.7318 -2 0.713292
      vertex 72.5 -2 7.5
    endloop
  endfacet
  facet normal 0 1 0
    outer loop
      vertex 74.5 -2 7.5
      vertex 74.25 -2 0
      vertex 73.7318 -2 0.713292
    endloop
  endfacet
  facet normal 0 1 0
    outer loop
      vertex 74.25 -2 0
      vertex 74.5 -2 -7.5
      vertex 73.7318 -2 -0.713292
    endloop
  endfacet
  facet normal 0 1 -0
    outer loop
      vertex 74.5 -2 -7.5
      vertex 74.25 -2 0
      vertex 74.5 -2 7.5
    endloop
  endfacet
  facet normal 0 1 -0
    outer loop
      vertex 72.8932 -2 0.440839
      vertex 72.5 -2 7.5
      vertex 73.7318 -2 0.713292
    endloop
  endfacet
  facet normal 0 1 -0
    outer loop
      vertex 72.8932 -2 -0.440839
      vertex 72.5 -2 7.5
      vertex 72.8932 -2 0.440839
    endloop
  endfacet
  facet normal 0 1 0
    outer loop
      vertex 72.5 -2 -7.5
      vertex 73.7318 -2 -0.713292
      vertex 74.5 -2 -7.5
    endloop
  endfacet
  facet normal 0 1 0
    outer loop
      vertex 72.8932 -2 -0.440839
      vertex 72.5 -2 -7.5
      vertex 72.5 -2 7.5
    endloop
  endfacet
  facet normal 0 1 0
    outer loop
      vertex 73.7318 -2 -0.713292
      vertex 72.5 -2 -7.5
      vertex 72.8932 -2 -0.440839
    endloop
  endfacet
  facet normal -0.809017 -0.587786 0
    outer loop
      vertex 21.45 -3.5 -7.5
      vertex 20.4481 -2.12097 7.5
      vertex 20.4481 -2.12097 -7.5
    endloop
  endfacet
  facet normal -0.809017 -0.587786 0
    outer loop
      vertex 20.4481 -2.12097 7.5
      vertex 21.45 -3.5 -7.5
      vertex 21.45 -3.5 7.5
    endloop
  endfacet
  facet normal 1 -0 0
    outer loop
      vertex 18.8269 -4.35229 7.5
      vertex 18.8269 -2.64771 -7.5
      vertex 18.8269 -2.64771 7.5
    endloop
  endfacet
  facet normal 1 0 0
    outer loop
      vertex 18.8269 -2.64771 -7.5
      vertex 18.8269 -4.35229 7.5
      vertex 18.8269 -4.35229 -7.5
    endloop
  endfacet
  facet normal 0.309017 -0.951057 0
    outer loop
      vertex 18.8269 -2.64771 -7.5
      vertex 20.4481 -2.12097 7.5
      vertex 18.8269 -2.64771 7.5
    endloop
  endfacet
  facet normal 0.309017 -0.951057 0
    outer loop
      vertex 20.4481 -2.12097 7.5
      vertex 18.8269 -2.64771 -7.5
      vertex 20.4481 -2.12097 -7.5
    endloop
  endfacet
  facet normal -0.809017 0.587786 0
    outer loop
      vertex 20.4481 -4.87903 -7.5
      vertex 21.45 -3.5 7.5
      vertex 21.45 -3.5 -7.5
    endloop
  endfacet
  facet normal -0.809017 0.587786 0
    outer loop
      vertex 21.45 -3.5 7.5
      vertex 20.4481 -4.87903 -7.5
      vertex 20.4481 -4.87903 7.5
    endloop
  endfacet
  facet normal 0.309017 0.951057 -0
    outer loop
      vertex 20.4481 -4.87903 -7.5
      vertex 18.8269 -4.35229 7.5
      vertex 20.4481 -4.87903 7.5
    endloop
  endfacet
  facet normal 0.309017 0.951057 0
    outer loop
      vertex 18.8269 -4.35229 7.5
      vertex 20.4481 -4.87903 -7.5
      vertex 18.8269 -4.35229 -7.5
    endloop
  endfacet
  facet normal -0.830945 -0.479746 0.281733
    outer loop
      vertex -54.4501 9.26642 -1.89224
      vertex -52.7189 7.37916 0
      vertex -53.9689 9.54423 0
    endloop
  endfacet
  facet normal -0.830945 -0.479746 0.281733
    outer loop
      vertex -52.7189 7.37916 0
      vertex -54.4501 9.26642 -1.89224
      vertex -53.2001 7.10136 -1.89224
    endloop
  endfacet
  facet normal -0.830945 -0.479747 0.281733
    outer loop
      vertex -45.0587 -7 -1.89224
      vertex -48.4585 0 0
      vertex -49.1001 0 -1.89224
    endloop
  endfacet
  facet normal -0.830945 -0.479747 0.281733
    outer loop
      vertex -48.4585 0 0
      vertex -45.0587 -7 -1.89224
      vertex -44.4171 -7 0
    endloop
  endfacet
  facet normal 0.866025 0.500001 0
    outer loop
      vertex -58.6583 3.95005 0.986063
      vertex -59.9083 6.11512 -0.986063
      vertex -59.9083 6.11512 0.986063
    endloop
  endfacet
  facet normal 0.866025 0.500001 0
    outer loop
      vertex -59.9083 6.11512 -0.986063
      vertex -58.6583 3.95005 0.986063
      vertex -58.6583 3.95005 -0.986063
    endloop
  endfacet
  facet normal 0.866025 0.5 0
    outer loop
      vertex -52.3363 -7 0.986063
      vertex -56.3777 0 -0.986063
      vertex -56.3777 0 0.986063
    endloop
  endfacet
  facet normal 0.866025 0.5 0
    outer loop
      vertex -56.3777 0 -0.986063
      vertex -52.3363 -7 0.986063
      vertex -52.3363 -7 -0.986063
    endloop
  endfacet
  facet normal 0.359759 0.207708 0.909632
    outer loop
      vertex -57.4314 7.54518 -3.46437
      vertex -57.7349 4.48316 -2.64512
      vertex -56.1814 5.38011 -3.46437
    endloop
  endfacet
  facet normal 0.35976 0.207708 0.909632
    outer loop
      vertex -57.7349 4.48316 -2.64512
      vertex -57.4314 7.54518 -3.46437
      vertex -58.9849 6.64822 -2.64512
    endloop
  endfacet
  facet normal 0.35976 0.207707 0.909632
    outer loop
      vertex -53.0752 0 -3.46437
      vertex -51.1051 -7 -2.64512
      vertex -49.0337 -7 -3.46437
    endloop
  endfacet
  facet normal 0.35976 0.207707 0.909632
    outer loop
      vertex -51.1051 -7 -2.64512
      vertex -53.0752 0 -3.46437
      vertex -55.1466 0 -2.64512
    endloop
  endfacet
  facet normal 0.5 -0.866025 4.96614e-07
    outer loop
      vertex -58.0509 7.18747 0.881678
      vertex -57.4314 7.54518 3.46437
      vertex -58.9849 6.64822 2.64512
    endloop
  endfacet
  facet normal 0.5 -0.866025 1.39175e-07
    outer loop
      vertex -57.4314 7.54518 3.46437
      vertex -56.5986 8.02599 1.42658
      vertex -55.7408 8.5212 3.18371
    endloop
  endfacet
  facet normal 0.5 -0.866026 3.01889e-07
    outer loop
      vertex -55.7408 8.5212 3.18371
      vertex -56.5986 8.02599 1.42658
      vertex -54.4501 9.26642 1.89224
    endloop
  endfacet
  facet normal 0.499999 -0.866026 -3.67242e-07
    outer loop
      vertex -58.0509 7.18747 0.881678
      vertex -58.9849 6.64822 2.64512
      vertex -59.9083 6.11512 0.986063
    endloop
  endfacet
  facet normal 0.500001 -0.866025 4.74214e-07
    outer loop
      vertex -57.4314 7.54518 3.46437
      vertex -58.0509 7.18747 0.881678
      vertex -56.5986 8.02599 1.42658
    endloop
  endfacet
  facet normal 0.499999 -0.866026 0
    outer loop
      vertex -59.9083 6.11512 0.986063
      vertex -58.0509 7.18747 -0.881678
      vertex -58.0509 7.18747 0.881678
    endloop
  endfacet
  facet normal 0.499999 -0.866026 0
    outer loop
      vertex -59.9083 6.11512 -0.986063
      vertex -58.0509 7.18747 -0.881678
      vertex -59.9083 6.11512 0.986063
    endloop
  endfacet
  facet normal 0.499999 -0.866026 3.67242e-07
    outer loop
      vertex -58.9849 6.64822 -2.64512
      vertex -58.0509 7.18747 -0.881678
      vertex -59.9083 6.11512 -0.986063
    endloop
  endfacet
  facet normal 0.5 -0.866025 -4.96614e-07
    outer loop
      vertex -57.4314 7.54518 -3.46437
      vertex -58.0509 7.18747 -0.881678
      vertex -58.9849 6.64822 -2.64512
    endloop
  endfacet
  facet normal 0.500001 -0.866025 -4.74214e-07
    outer loop
      vertex -58.0509 7.18747 -0.881678
      vertex -57.4314 7.54518 -3.46437
      vertex -56.5986 8.02599 -1.42658
    endloop
  endfacet
  facet normal 0.5 -0.866026 -3.01889e-07
    outer loop
      vertex -56.5986 8.02599 -1.42658
      vertex -55.7408 8.5212 -3.18371
      vertex -54.4501 9.26642 -1.89224
    endloop
  endfacet
  facet normal 0.5 -0.866025 -1.39175e-07
    outer loop
      vertex -56.5986 8.02599 -1.42658
      vertex -57.4314 7.54518 -3.46437
      vertex -55.7408 8.5212 -3.18371
    endloop
  endfacet
  facet normal 0.5 -0.866026 -5.8263e-08
    outer loop
      vertex -55.701 8.54423 0
      vertex -54.4501 9.26642 1.89224
      vertex -56.5986 8.02599 1.42658
    endloop
  endfacet
  facet normal 0.5 -0.866026 -1.09813e-07
    outer loop
      vertex -55.701 8.54423 0
      vertex -53.9689 9.54423 0
      vertex -54.4501 9.26642 1.89224
    endloop
  endfacet
  facet normal 0.5 -0.866026 5.8263e-08
    outer loop
      vertex -54.4501 9.26642 -1.89224
      vertex -55.701 8.54423 0
      vertex -56.5986 8.02599 -1.42658
    endloop
  endfacet
  facet normal 0.5 -0.866026 1.09813e-07
    outer loop
      vertex -55.701 8.54423 0
      vertex -54.4501 9.26642 -1.89224
      vertex -53.9689 9.54423 0
    endloop
  endfacet
  facet normal 0.728547 0.420626 0.540642
    outer loop
      vertex -59.9083 6.11512 -0.986063
      vertex -57.7349 4.48316 -2.64512
      vertex -58.9849 6.64822 -2.64512
    endloop
  endfacet
  facet normal 0.728547 0.420628 0.54064
    outer loop
      vertex -57.7349 4.48316 -2.64512
      vertex -59.9083 6.11512 -0.986063
      vertex -58.6583 3.95005 -0.986063
    endloop
  endfacet
  facet normal 0.728547 0.420627 0.54064
    outer loop
      vertex -52.3363 -7 -0.986063
      vertex -55.1466 0 -2.64512
      vertex -56.3777 0 -0.986063
    endloop
  endfacet
  facet normal 0.728547 0.420627 0.54064
    outer loop
      vertex -55.1466 0 -2.64512
      vertex -52.3363 -7 -0.986063
      vertex -51.1051 -7 -2.64512
    endloop
  endfacet
  facet normal -0.123249 -0.0711576 -0.989821
    outer loop
      vertex -56.1814 5.38011 3.46437
      vertex -55.7408 8.5212 3.18371
      vertex -54.4908 6.35614 3.18371
    endloop
  endfacet
  facet normal -0.123248 -0.0711577 -0.989821
    outer loop
      vertex -55.7408 8.5212 3.18371
      vertex -56.1814 5.38011 3.46437
      vertex -57.4314 7.54518 3.46437
    endloop
  endfacet
  facet normal -0.123249 -0.0711576 -0.989821
    outer loop
      vertex -49.0337 -7 3.46437
      vertex -50.8211 0 3.18371
      vertex -46.7797 -7 3.18371
    endloop
  endfacet
  facet normal -0.123249 -0.0711576 -0.989821
    outer loop
      vertex -50.8211 0 3.18371
      vertex -49.0337 -7 3.46437
      vertex -53.0752 0 3.46437
    endloop
  endfacet
  facet normal -0.567126 -0.32743 -0.75575
    outer loop
      vertex -54.4908 6.35614 3.18371
      vertex -54.4501 9.26642 1.89224
      vertex -53.2001 7.10136 1.89224
    endloop
  endfacet
  facet normal -0.567126 -0.32743 -0.75575
    outer loop
      vertex -54.4501 9.26642 1.89224
      vertex -54.4908 6.35614 3.18371
      vertex -55.7408 8.5212 3.18371
    endloop
  endfacet
  facet normal -0.567125 -0.32743 -0.75575
    outer loop
      vertex -46.7797 -7 3.18371
      vertex -49.1001 0 1.89224
      vertex -45.0587 -7 1.89224
    endloop
  endfacet
  facet normal -0.567126 -0.32743 -0.755749
    outer loop
      vertex -49.1001 0 1.89224
      vertex -46.7797 -7 3.18371
      vertex -50.8211 0 3.18371
    endloop
  endfacet
  facet normal -0.123249 -0.0711576 0.989821
    outer loop
      vertex -55.7408 8.5212 -3.18371
      vertex -56.1814 5.38011 -3.46437
      vertex -54.4908 6.35614 -3.18371
    endloop
  endfacet
  facet normal -0.123248 -0.0711577 0.989821
    outer loop
      vertex -56.1814 5.38011 -3.46437
      vertex -55.7408 8.5212 -3.18371
      vertex -57.4314 7.54518 -3.46437
    endloop
  endfacet
  facet normal -0.123249 -0.0711576 0.989821
    outer loop
      vertex -50.8211 0 -3.18371
      vertex -49.0337 -7 -3.46437
      vertex -46.7797 -7 -3.18371
    endloop
  endfacet
  facet normal -0.123249 -0.0711576 0.989821
    outer loop
      vertex -49.0337 -7 -3.46437
      vertex -50.8211 0 -3.18371
      vertex -53.0752 0 -3.46437
    endloop
  endfacet
  facet normal -0.567126 -0.32743 0.75575
    outer loop
      vertex -54.4501 9.26642 -1.89224
      vertex -54.4908 6.35614 -3.18371
      vertex -53.2001 7.10136 -1.89224
    endloop
  endfacet
  facet normal -0.567126 -0.32743 0.75575
    outer loop
      vertex -54.4908 6.35614 -3.18371
      vertex -54.4501 9.26642 -1.89224
      vertex -55.7408 8.5212 -3.18371
    endloop
  endfacet
  facet normal -0.567125 -0.32743 0.75575
    outer loop
      vertex -49.1001 0 -1.89224
      vertex -46.7797 -7 -3.18371
      vertex -45.0587 -7 -1.89224
    endloop
  endfacet
  facet normal -0.567126 -0.32743 0.755749
    outer loop
      vertex -46.7797 -7 -3.18371
      vertex -49.1001 0 -1.89224
      vertex -50.8211 0 -3.18371
    endloop
  endfacet
  facet normal -0.830945 -0.479746 -0.281733
    outer loop
      vertex -52.7189 7.37916 0
      vertex -54.4501 9.26642 1.89224
      vertex -53.9689 9.54423 0
    endloop
  endfacet
  facet normal -0.830945 -0.479746 -0.281733
    outer loop
      vertex -54.4501 9.26642 1.89224
      vertex -52.7189 7.37916 0
      vertex -53.2001 7.10136 1.89224
    endloop
  endfacet
  facet normal -0.830945 -0.479747 -0.281733
    outer loop
      vertex -44.4171 -7 0
      vertex -49.1001 0 1.89224
      vertex -48.4585 0 0
    endloop
  endfacet
  facet normal -0.830945 -0.479747 -0.281733
    outer loop
      vertex -49.1001 0 1.89224
      vertex -44.4171 -7 0
      vertex -45.0587 -7 1.89224
    endloop
  endfacet
  facet normal 0.359759 0.207708 -0.909632
    outer loop
      vertex -57.7349 4.48316 2.64512
      vertex -57.4314 7.54518 3.46437
      vertex -56.1814 5.38011 3.46437
    endloop
  endfacet
  facet normal 0.35976 0.207708 -0.909632
    outer loop
      vertex -57.4314 7.54518 3.46437
      vertex -57.7349 4.48316 2.64512
      vertex -58.9849 6.64822 2.64512
    endloop
  endfacet
  facet normal 0.35976 0.207707 -0.909632
    outer loop
      vertex -51.1051 -7 2.64512
      vertex -53.0752 0 3.46437
      vertex -49.0337 -7 3.46437
    endloop
  endfacet
  facet normal 0.35976 0.207707 -0.909632
    outer loop
      vertex -53.0752 0 3.46437
      vertex -51.1051 -7 2.64512
      vertex -55.1466 0 2.64512
    endloop
  endfacet
  facet normal 0.728547 0.420626 -0.540642
    outer loop
      vertex -57.7349 4.48316 2.64512
      vertex -59.9083 6.11512 0.986063
      vertex -58.9849 6.64822 2.64512
    endloop
  endfacet
  facet normal 0.728547 0.420628 -0.54064
    outer loop
      vertex -59.9083 6.11512 0.986063
      vertex -57.7349 4.48316 2.64512
      vertex -58.6583 3.95005 0.986063
    endloop
  endfacet
  facet normal 0.728547 0.420627 -0.54064
    outer loop
      vertex -51.1051 -7 2.64512
      vertex -56.3777 0 0.986063
      vertex -55.1466 0 2.64512
    endloop
  endfacet
  facet normal 0.728547 0.420627 -0.54064
    outer loop
      vertex -56.3777 0 0.986063
      vertex -51.1051 -7 2.64512
      vertex -52.3363 -7 0.986063
    endloop
  endfacet
  facet normal -0.700629 -0.404508 0.587785
    outer loop
      vertex -58.8486 11.9231 -1.42658
      vertex -55.701 8.54423 0
      vertex -57.951 12.4413 0
    endloop
  endfacet
  facet normal -0.700629 -0.404508 0.587785
    outer loop
      vertex -55.701 8.54423 0
      vertex -58.8486 11.9231 -1.42658
      vertex -56.5986 8.02599 -1.42658
    endloop
  endfacet
  facet normal 0.866025 0.5 0
    outer loop
      vertex -58.0509 7.18747 0.881678
      vertex -60.3009 11.0846 -0.881678
      vertex -60.3009 11.0846 0.881678
    endloop
  endfacet
  facet normal 0.866025 0.5 0
    outer loop
      vertex -60.3009 11.0846 -0.881678
      vertex -58.0509 7.18747 0.881678
      vertex -58.0509 7.18747 -0.881678
    endloop
  endfacet
  facet normal 0.267617 0.154509 0.951056
    outer loop
      vertex -58.8486 11.9231 -1.42658
      vertex -58.0509 7.18747 -0.881678
      vertex -56.5986 8.02599 -1.42658
    endloop
  endfacet
  facet normal 0.267617 0.154509 0.951056
    outer loop
      vertex -58.0509 7.18747 -0.881678
      vertex -58.8486 11.9231 -1.42658
      vertex -60.3009 11.0846 -0.881678
    endloop
  endfacet
  facet normal 0.267617 0.154509 -0.951056
    outer loop
      vertex -58.0509 7.18747 0.881678
      vertex -58.8486 11.9231 1.42658
      vertex -56.5986 8.02599 1.42658
    endloop
  endfacet
  facet normal 0.267617 0.154509 -0.951056
    outer loop
      vertex -58.8486 11.9231 1.42658
      vertex -58.0509 7.18747 0.881678
      vertex -60.3009 11.0846 0.881678
    endloop
  endfacet
  facet normal -0.700629 -0.404508 -0.587785
    outer loop
      vertex -55.701 8.54423 0
      vertex -58.8486 11.9231 1.42658
      vertex -57.951 12.4413 0
    endloop
  endfacet
  facet normal -0.700629 -0.404508 -0.587785
    outer loop
      vertex -58.8486 11.9231 1.42658
      vertex -55.701 8.54423 0
      vertex -56.5986 8.02599 1.42658
    endloop
  endfacet
  facet normal -0.700629 -0.404508 0.587786
    outer loop
      vertex 18.4014 56.5234 -1.42658
      vertex 21.799 52.7115 0
      vertex 19.299 57.0417 0
    endloop
  endfacet
  facet normal -0.700629 -0.404508 0.587786
    outer loop
      vertex 21.799 52.7115 0
      vertex 18.4014 56.5234 -1.42658
      vertex 20.9014 52.1933 -1.42658
    endloop
  endfacet
  facet normal 0.866025 0.5 0
    outer loop
      vertex 19.4491 51.3548 0.881678
      vertex 16.9491 55.6849 -0.881678
      vertex 16.9491 55.6849 0.881678
    endloop
  endfacet
  facet normal 0.866025 0.5 0
    outer loop
      vertex 16.9491 55.6849 -0.881678
      vertex 19.4491 51.3548 0.881678
      vertex 19.4491 51.3548 -0.881678
    endloop
  endfacet
  facet normal 0.267617 0.154509 0.951056
    outer loop
      vertex 18.4014 56.5234 -1.42658
      vertex 19.4491 51.3548 -0.881678
      vertex 20.9014 52.1933 -1.42658
    endloop
  endfacet
  facet normal 0.267616 0.154508 0.951057
    outer loop
      vertex 19.4491 51.3548 -0.881678
      vertex 18.4014 56.5234 -1.42658
      vertex 16.9491 55.6849 -0.881678
    endloop
  endfacet
  facet normal 0.267617 0.154509 -0.951056
    outer loop
      vertex 19.4491 51.3548 0.881678
      vertex 18.4014 56.5234 1.42658
      vertex 20.9014 52.1933 1.42658
    endloop
  endfacet
  facet normal 0.267616 0.154508 -0.951057
    outer loop
      vertex 18.4014 56.5234 1.42658
      vertex 19.4491 51.3548 0.881678
      vertex 16.9491 55.6849 0.881678
    endloop
  endfacet
  facet normal -0.700629 -0.404508 -0.587786
    outer loop
      vertex 21.799 52.7115 0
      vertex 18.4014 56.5234 1.42658
      vertex 19.299 57.0417 0
    endloop
  endfacet
  facet normal -0.700629 -0.404508 -0.587786
    outer loop
      vertex 18.4014 56.5234 1.42658
      vertex 21.799 52.7115 0
      vertex 20.9014 52.1933 1.42658
    endloop
  endfacet
  facet normal -0.830945 -0.479746 0.281734
    outer loop
      vertex 23.0499 53.4337 -1.89224
      vertex 24.5311 51.9795 0
      vertex 23.5311 53.7115 0
    endloop
  endfacet
  facet normal -0.830945 -0.479747 0.281733
    outer loop
      vertex 24.5311 51.9795 0
      vertex 23.0499 53.4337 -1.89224
      vertex 24.0499 51.7017 -1.89224
    endloop
  endfacet
  facet normal 0.866026 0.5 0
    outer loop
      vertex 18.5917 48.5504 0.986063
      vertex 17.5917 50.2824 -0.986063
      vertex 17.5917 50.2824 0.986063
    endloop
  endfacet
  facet normal 0.866026 0.5 0
    outer loop
      vertex 17.5917 50.2824 -0.986063
      vertex 18.5917 48.5504 0.986063
      vertex 18.5917 48.5504 -0.986063
    endloop
  endfacet
  facet normal 0.359759 0.207707 0.909632
    outer loop
      vertex 20.0686 51.7125 -3.46437
      vertex 19.5151 49.0835 -2.64512
      vertex 21.0686 49.9804 -3.46437
    endloop
  endfacet
  facet normal 0.359759 0.207707 0.909632
    outer loop
      vertex 19.5151 49.0835 -2.64512
      vertex 20.0686 51.7125 -3.46437
      vertex 18.5151 50.8155 -2.64512
    endloop
  endfacet
  facet normal 0.500001 -0.866025 -3.03679e-07
    outer loop
      vertex 19.4491 51.3548 0.881678
      vertex 20.0686 51.7125 3.46437
      vertex 18.5151 50.8155 2.64512
    endloop
  endfacet
  facet normal 0.499999 -0.866026 1.15969e-09
    outer loop
      vertex 20.0686 51.7125 3.46437
      vertex 20.9014 52.1933 1.42658
      vertex 21.7592 52.6885 3.18371
    endloop
  endfacet
  facet normal 0.499999 -0.866026 -4.63681e-08
    outer loop
      vertex 21.7592 52.6885 3.18371
      vertex 20.9014 52.1933 1.42658
      vertex 23.0499 53.4337 1.89224
    endloop
  endfacet
  facet normal 0.5 -0.866026 -8.93463e-07
    outer loop
      vertex 19.4491 51.3548 0.881678
      vertex 18.5151 50.8155 2.64512
      vertex 17.5917 50.2824 0.986063
    endloop
  endfacet
  facet normal 0.5 -0.866026 6.063e-08
    outer loop
      vertex 20.0686 51.7125 3.46437
      vertex 19.4491 51.3548 0.881678
      vertex 20.9014 52.1933 1.42658
    endloop
  endfacet
  facet normal 0.5 -0.866025 0
    outer loop
      vertex 17.5917 50.2824 0.986063
      vertex 19.4491 51.3548 -0.881678
      vertex 19.4491 51.3548 0.881678
    endloop
  endfacet
  facet normal 0.5 -0.866025 0
    outer loop
      vertex 17.5917 50.2824 -0.986063
      vertex 19.4491 51.3548 -0.881678
      vertex 17.5917 50.2824 0.986063
    endloop
  endfacet
  facet normal 0.5 -0.866026 8.93463e-07
    outer loop
      vertex 18.5151 50.8155 -2.64512
      vertex 19.4491 51.3548 -0.881678
      vertex 17.5917 50.2824 -0.986063
    endloop
  endfacet
  facet normal 0.500001 -0.866025 3.03679e-07
    outer loop
      vertex 20.0686 51.7125 -3.46437
      vertex 19.4491 51.3548 -0.881678
      vertex 18.5151 50.8155 -2.64512
    endloop
  endfacet
  facet normal 0.5 -0.866026 -6.063e-08
    outer loop
      vertex 19.4491 51.3548 -0.881678
      vertex 20.0686 51.7125 -3.46437
      vertex 20.9014 52.1933 -1.42658
    endloop
  endfacet
  facet normal 0.499999 -0.866026 4.63681e-08
    outer loop
      vertex 20.9014 52.1933 -1.42658
      vertex 21.7592 52.6885 -3.18371
      vertex 23.0499 53.4337 -1.89224
    endloop
  endfacet
  facet normal 0.499999 -0.866026 -1.15969e-09
    outer loop
      vertex 20.9014 52.1933 -1.42658
      vertex 20.0686 51.7125 -3.46437
      vertex 21.7592 52.6885 -3.18371
    endloop
  endfacet
  facet normal 0.5 -0.866026 -7.47646e-07
    outer loop
      vertex 21.799 52.7115 0
      vertex 23.0499 53.4337 1.89224
      vertex 20.9014 52.1933 1.42658
    endloop
  endfacet
  facet normal 0.5 -0.866026 -9.1523e-07
    outer loop
      vertex 21.799 52.7115 0
      vertex 23.5311 53.7115 0
      vertex 23.0499 53.4337 1.89224
    endloop
  endfacet
  facet normal 0.5 -0.866026 7.47646e-07
    outer loop
      vertex 23.0499 53.4337 -1.89224
      vertex 21.799 52.7115 0
      vertex 20.9014 52.1933 -1.42658
    endloop
  endfacet
  facet normal 0.5 -0.866026 9.1523e-07
    outer loop
      vertex 21.799 52.7115 0
      vertex 23.0499 53.4337 -1.89224
      vertex 23.5311 53.7115 0
    endloop
  endfacet
  facet normal 0.728548 0.420627 0.54064
    outer loop
      vertex 17.5917 50.2824 -0.986063
      vertex 19.5151 49.0835 -2.64512
      vertex 18.5151 50.8155 -2.64512
    endloop
  endfacet
  facet normal 0.728548 0.420627 0.54064
    outer loop
      vertex 19.5151 49.0835 -2.64512
      vertex 17.5917 50.2824 -0.986063
      vertex 18.5917 48.5504 -0.986063
    endloop
  endfacet
  facet normal -0.123249 -0.0711576 -0.989821
    outer loop
      vertex 21.0686 49.9804 3.46437
      vertex 21.7592 52.6885 3.18371
      vertex 22.7592 50.9564 3.18371
    endloop
  endfacet
  facet normal -0.123249 -0.0711576 -0.989821
    outer loop
      vertex 21.7592 52.6885 3.18371
      vertex 21.0686 49.9804 3.46437
      vertex 20.0686 51.7125 3.46437
    endloop
  endfacet
  facet normal -0.567125 -0.327431 -0.75575
    outer loop
      vertex 22.7592 50.9564 3.18371
      vertex 23.0499 53.4337 1.89224
      vertex 24.0499 51.7017 1.89224
    endloop
  endfacet
  facet normal -0.567126 -0.32743 -0.75575
    outer loop
      vertex 23.0499 53.4337 1.89224
      vertex 22.7592 50.9564 3.18371
      vertex 21.7592 52.6885 3.18371
    endloop
  endfacet
  facet normal -0.123249 -0.0711576 0.989821
    outer loop
      vertex 21.7592 52.6885 -3.18371
      vertex 21.0686 49.9804 -3.46437
      vertex 22.7592 50.9564 -3.18371
    endloop
  endfacet
  facet normal -0.123249 -0.0711576 0.989821
    outer loop
      vertex 21.0686 49.9804 -3.46437
      vertex 21.7592 52.6885 -3.18371
      vertex 20.0686 51.7125 -3.46437
    endloop
  endfacet
  facet normal -0.567125 -0.327431 0.75575
    outer loop
      vertex 23.0499 53.4337 -1.89224
      vertex 22.7592 50.9564 -3.18371
      vertex 24.0499 51.7017 -1.89224
    endloop
  endfacet
  facet normal -0.567126 -0.32743 0.75575
    outer loop
      vertex 22.7592 50.9564 -3.18371
      vertex 23.0499 53.4337 -1.89224
      vertex 21.7592 52.6885 -3.18371
    endloop
  endfacet
  facet normal -0.830945 -0.479746 -0.281734
    outer loop
      vertex 24.5311 51.9795 0
      vertex 23.0499 53.4337 1.89224
      vertex 23.5311 53.7115 0
    endloop
  endfacet
  facet normal -0.830945 -0.479747 -0.281733
    outer loop
      vertex 23.0499 53.4337 1.89224
      vertex 24.5311 51.9795 0
      vertex 24.0499 51.7017 1.89224
    endloop
  endfacet
  facet normal 0.359759 0.207707 -0.909632
    outer loop
      vertex 19.5151 49.0835 2.64512
      vertex 20.0686 51.7125 3.46437
      vertex 21.0686 49.9804 3.46437
    endloop
  endfacet
  facet normal 0.359759 0.207707 -0.909632
    outer loop
      vertex 20.0686 51.7125 3.46437
      vertex 19.5151 49.0835 2.64512
      vertex 18.5151 50.8155 2.64512
    endloop
  endfacet
  facet normal 0.728548 0.420627 -0.54064
    outer loop
      vertex 19.5151 49.0835 2.64512
      vertex 17.5917 50.2824 0.986063
      vertex 18.5151 50.8155 2.64512
    endloop
  endfacet
  facet normal 0.728548 0.420627 -0.54064
    outer loop
      vertex 17.5917 50.2824 0.986063
      vertex 19.5151 49.0835 2.64512
      vertex 18.5917 48.5504 0.986063
    endloop
  endfacet
  facet normal -0.613164 -0.247658 0.75013
    outer loop
      vertex 52.5491 0 4.25065
      vertex 56.2203 -7 4.94047
      vertex 56.2793 -7 4.98866
    endloop
  endfacet
  facet normal -0.613175 -0.247665 0.750119
    outer loop
      vertex 56.2203 -7 4.94047
      vertex 52.5491 0 4.25065
      vertex 52.1789 0 3.94802
    endloop
  endfacet
  facet normal -0.848112 -0.450012 0.279633
    outer loop
      vertex 53.8999 0 5.35484
      vertex 55.3531 -1.40583 7.5
      vertex 54.5415 0 7.30068
    endloop
  endfacet
  facet normal -0.848112 -0.450012 0.279633
    outer loop
      vertex 57.9413 -7 6.3473
      vertex 55.3531 -1.40583 7.5
      vertex 53.8999 0 5.35484
    endloop
  endfacet
  facet normal -0.848113 -0.450012 0.279632
    outer loop
      vertex 55.3531 -1.40583 7.5
      vertex 57.9413 -7 6.3473
      vertex 58.3214 -7 7.5
    endloop
  endfacet
  facet normal 0.695603 0.477687 0.536611
    outer loop
      vertex 51.8949 -7 5.21756
      vertex 46.6223 0 5.82104
      vertex 50.6637 -7 6.81349
    endloop
  endfacet
  facet normal 0.695603 0.477687 0.536611
    outer loop
      vertex 46.6223 0 5.82104
      vertex 51.8949 -7 5.21756
      vertex 47.8534 0 4.2251
    endloop
  endfacet
  facet normal 0.866025 0.5 -0
    outer loop
      vertex 50.6637 -7 6.81349
      vertex 46.6223 0 7.5
      vertex 50.6637 -7 7.5
    endloop
  endfacet
  facet normal 0.866025 0.5 0
    outer loop
      vertex 46.6223 0 7.5
      vertex 50.6637 -7 6.81349
      vertex 46.6223 0 5.82104
    endloop
  endfacet
  facet normal 0.304331 0.303712 0.902852
    outer loop
      vertex 49.4026 0 3.70291
      vertex 51.8949 -7 5.21756
      vertex 53.8358 -7 4.5633
    endloop
  endfacet
  facet normal 0.304331 0.303712 0.902852
    outer loop
      vertex 51.8949 -7 5.21756
      vertex 49.4026 0 3.70291
      vertex 47.8534 0 4.2251
    endloop
  endfacet
  facet normal -0.613177 -0.247667 0.750116
    outer loop
      vertex 53.8999 0 5.35484
      vertex 56.2793 -7 4.98866
      vertex 57.9413 -7 6.3473
    endloop
  endfacet
  facet normal -0.613178 -0.247667 0.750115
    outer loop
      vertex 56.2793 -7 4.98866
      vertex 53.8999 0 5.35484
      vertex 52.5491 0 4.25065
    endloop
  endfacet
  facet normal 0.304335 0.303713 0.90285
    outer loop
      vertex 49.9248 0 3.52687
      vertex 53.8358 -7 4.5633
      vertex 53.9663 -7 4.51932
    endloop
  endfacet
  facet normal 0.304332 0.303712 0.902852
    outer loop
      vertex 53.8358 -7 4.5633
      vertex 49.9248 0 3.52687
      vertex 49.4026 0 3.70291
    endloop
  endfacet
  facet normal -0.183567 0.0333076 0.982443
    outer loop
      vertex 52.1789 0 3.94802
      vertex 56.1392 -7 4.92531
      vertex 56.2203 -7 4.94047
    endloop
  endfacet
  facet normal -0.183563 0.0333101 0.982443
    outer loop
      vertex 56.1392 -7 4.92531
      vertex 52.1789 0 3.94802
      vertex 51.6691 0 3.85278
    endloop
  endfacet
  facet normal -0.183563 0.0333103 0.982443
    outer loop
      vertex 51.6691 0 3.85278
      vertex 53.9663 -7 4.51932
      vertex 56.1392 -7 4.92531
    endloop
  endfacet
  facet normal -0.183563 0.0333102 0.982443
    outer loop
      vertex 53.9663 -7 4.51932
      vertex 51.6691 0 3.85278
      vertex 49.9248 0 3.52687
    endloop
  endfacet
  facet normal -0.813779 -0.509482 -0.279629
    outer loop
      vertex 54.5415 0 7.30068
      vertex 55.3531 -1.40583 7.5
      vertex 54.473 0 7.5
    endloop
  endfacet
  facet normal 1 0 0
    outer loop
      vertex -1 -4.99038 7.5
      vertex -1 -7 7.5
      vertex -1 -7 0
    endloop
  endfacet
  facet normal -1 0 0
    outer loop
      vertex 1 -7 7.5
      vertex 1 -4.99038 7.5
      vertex 1 -7 0
    endloop
  endfacet
  facet normal 0 -0.965926 0.258819
    outer loop
      vertex -1 -7 0
      vertex 1 -4.99038 7.5
      vertex -1 -4.99038 7.5
    endloop
  endfacet
  facet normal 0 -0.965926 0.258819
    outer loop
      vertex 1 -4.99038 7.5
      vertex -1 -7 0
      vertex 1 -7 0
    endloop
  endfacet
  facet normal -1 0 0
    outer loop
      vertex 1 -7 0
      vertex 1 -4.99038 -7.5
      vertex 1 -7 -7.5
    endloop
  endfacet
  facet normal 1 0 0
    outer loop
      vertex -1 -4.99038 -7.5
      vertex -1 -7 0
      vertex -1 -7 -7.5
    endloop
  endfacet
  facet normal 0 -0.965926 -0.258819
    outer loop
      vertex -1 -4.99038 -7.5
      vertex 1 -7 0
      vertex -1 -7 0
    endloop
  endfacet
  facet normal 0 -0.965926 -0.258819
    outer loop
      vertex 1 -7 0
      vertex -1 -4.99038 -7.5
      vertex 1 -4.99038 -7.5
    endloop
  endfacet
endsolid OpenSCAD_Model
