solid OpenSCAD_Model
  facet normal 0.809016 -1.30515e-16 0.587786
    outer loop
      vertex -65 -7 2.22045e-16
      vertex -63.9635 -4.5 -1.42658
      vertex -65 -4.5 7.77156e-16
    endloop
  endfacet
  facet normal 0.809016 0 0.587786
    outer loop
      vertex -63.9635 -4.5 -1.42658
      vertex -65 -7 2.22045e-16
      vertex -63.9635 -7 -1.42658
    endloop
  endfacet
  facet normal -1 0 0
    outer loop
      vertex -62.2865 -7 -0.881678
      vertex -62.2865 -4.5 0.881678
      vertex -62.2865 -4.5 -0.881678
    endloop
  endfacet
  facet normal -1 -0 0
    outer loop
      vertex -62.2865 -4.5 0.881678
      vertex -62.2865 -7 -0.881678
      vertex -62.2865 -7 0.881678
    endloop
  endfacet
  facet normal -0.309017 0 0.951056
    outer loop
      vertex -63.9635 -4.5 -1.42658
      vertex -62.2865 -7 -0.881678
      vertex -62.2865 -4.5 -0.881678
    endloop
  endfacet
  facet normal -0.309017 0 0.951056
    outer loop
      vertex -62.2865 -7 -0.881678
      vertex -63.9635 -4.5 -1.42658
      vertex -63.9635 -7 -1.42658
    endloop
  endfacet
  facet normal 0.809016 0 -0.587786
    outer loop
      vertex -63.9635 -7 1.42658
      vertex -65 -4.5 7.77156e-16
      vertex -63.9635 -4.5 1.42658
    endloop
  endfacet
  facet normal 0.809016 1.30515e-16 -0.587786
    outer loop
      vertex -65 -4.5 7.77156e-16
      vertex -63.9635 -7 1.42658
      vertex -65 -7 2.22045e-16
    endloop
  endfacet
  facet normal -0.309017 0 -0.951056
    outer loop
      vertex -63.9635 -7 1.42658
      vertex -62.2865 -4.5 0.881678
      vertex -62.2865 -7 0.881678
    endloop
  endfacet
  facet normal -0.309017 0 -0.951056
    outer loop
      vertex -62.2865 -4.5 0.881678
      vertex -63.9635 -7 1.42658
      vertex -63.9635 -4.5 1.42658
    endloop
  endfacet
  facet normal 0.951056 -6.8616e-17 0.309019
    outer loop
      vertex -66.65 -4.5 7.77156e-16
      vertex -66.0484 0 -1.85152
      vertex -66.65 0 1.77636e-15
    endloop
  endfacet
  facet normal 0.951056 0 0.309019
    outer loop
      vertex -66.0484 0 -1.85152
      vertex -66.65 -4.5 7.77156e-16
      vertex -66.0484 -4.5 -1.85152
    endloop
  endfacet
  facet normal -0.951056 0 0.309017
    outer loop
      vertex -60.9516 -4.5 -1.85152
      vertex -60.35 0 1.77636e-15
      vertex -60.9516 0 -1.85152
    endloop
  endfacet
  facet normal -0.951056 -6.86156e-17 0.309017
    outer loop
      vertex -60.35 0 1.77636e-15
      vertex -60.9516 -4.5 -1.85152
      vertex -60.35 -4.5 7.77156e-16
    endloop
  endfacet
  facet normal 0 1 -0
    outer loop
      vertex -62.2865 -4.5 0.881678
      vertex -62.5266 -4.5 2.99583
      vertex -60.9516 -4.5 1.85152
    endloop
  endfacet
  facet normal 0 1 0
    outer loop
      vertex -62.5266 -4.5 2.99583
      vertex -63.9635 -4.5 1.42658
      vertex -64.4734 -4.5 2.99583
    endloop
  endfacet
  facet normal 0 1 0
    outer loop
      vertex -64.4734 -4.5 2.99583
      vertex -63.9635 -4.5 1.42658
      vertex -66.0484 -4.5 1.85152
    endloop
  endfacet
  facet normal 0 1 0
    outer loop
      vertex -62.5266 -4.5 2.99583
      vertex -62.2865 -4.5 0.881678
      vertex -63.9635 -4.5 1.42658
    endloop
  endfacet
  facet normal 0 1 0
    outer loop
      vertex -60.35 -4.5 7.77156e-16
      vertex -62.2865 -4.5 0.881678
      vertex -60.9516 -4.5 1.85152
    endloop
  endfacet
  facet normal 0 1 0
    outer loop
      vertex -60.35 -4.5 7.77156e-16
      vertex -62.2865 -4.5 -0.881678
      vertex -62.2865 -4.5 0.881678
    endloop
  endfacet
  facet normal 0 1 0
    outer loop
      vertex -62.5266 -4.5 -2.99583
      vertex -62.2865 -4.5 -0.881678
      vertex -60.9516 -4.5 -1.85152
    endloop
  endfacet
  facet normal 0 1 -0
    outer loop
      vertex -60.9516 -4.5 -1.85152
      vertex -62.2865 -4.5 -0.881678
      vertex -60.35 -4.5 7.77156e-16
    endloop
  endfacet
  facet normal 0 1 -0
    outer loop
      vertex -65 -4.5 7.77156e-16
      vertex -66.0484 -4.5 1.85152
      vertex -63.9635 -4.5 1.42658
    endloop
  endfacet
  facet normal 0 1 0
    outer loop
      vertex -65 -4.5 7.77156e-16
      vertex -66.65 -4.5 7.77156e-16
      vertex -66.0484 -4.5 1.85152
    endloop
  endfacet
  facet normal 0 1 0
    outer loop
      vertex -66.0484 -4.5 -1.85152
      vertex -65 -4.5 7.77156e-16
      vertex -63.9635 -4.5 -1.42658
    endloop
  endfacet
  facet normal 0 1 0
    outer loop
      vertex -65 -4.5 7.77156e-16
      vertex -66.0484 -4.5 -1.85152
      vertex -66.65 -4.5 7.77156e-16
    endloop
  endfacet
  facet normal 0 1 0
    outer loop
      vertex -62.2865 -4.5 -0.881678
      vertex -62.5266 -4.5 -2.99583
      vertex -63.9635 -4.5 -1.42658
    endloop
  endfacet
  facet normal 0 1 0
    outer loop
      vertex -64.4734 -4.5 -2.99583
      vertex -63.9635 -4.5 -1.42658
      vertex -62.5266 -4.5 -2.99583
    endloop
  endfacet
  facet normal 0 1 0
    outer loop
      vertex -63.9635 -4.5 -1.42658
      vertex -64.4734 -4.5 -2.99583
      vertex -66.0484 -4.5 -1.85152
    endloop
  endfacet
  facet normal -0 0 1
    outer loop
      vertex -64.4734 0 -2.99583
      vertex -62.5266 -4.5 -2.99583
      vertex -62.5266 0 -2.99583
    endloop
  endfacet
  facet normal 0 0 1
    outer loop
      vertex -62.5266 -4.5 -2.99583
      vertex -64.4734 0 -2.99583
      vertex -64.4734 -4.5 -2.99583
    endloop
  endfacet
  facet normal 0.587786 0 0.809017
    outer loop
      vertex -66.0484 0 -1.85152
      vertex -64.4734 -4.5 -2.99583
      vertex -64.4734 0 -2.99583
    endloop
  endfacet
  facet normal 0.587786 0 0.809017
    outer loop
      vertex -64.4734 -4.5 -2.99583
      vertex -66.0484 0 -1.85152
      vertex -66.0484 -4.5 -1.85152
    endloop
  endfacet
  facet normal -0.587785 0 0.809017
    outer loop
      vertex -62.5266 0 -2.99583
      vertex -60.9516 -4.5 -1.85152
      vertex -60.9516 0 -1.85152
    endloop
  endfacet
  facet normal -0.587785 0 0.809017
    outer loop
      vertex -60.9516 -4.5 -1.85152
      vertex -62.5266 0 -2.99583
      vertex -62.5266 -4.5 -2.99583
    endloop
  endfacet
  facet normal 0 0 -1
    outer loop
      vertex -64.4734 -4.5 2.99583
      vertex -62.5266 0 2.99583
      vertex -62.5266 -4.5 2.99583
    endloop
  endfacet
  facet normal -0 0 -1
    outer loop
      vertex -62.5266 0 2.99583
      vertex -64.4734 -4.5 2.99583
      vertex -64.4734 0 2.99583
    endloop
  endfacet
  facet normal 0.587786 0 -0.809017
    outer loop
      vertex -66.0484 -4.5 1.85152
      vertex -64.4734 0 2.99583
      vertex -64.4734 -4.5 2.99583
    endloop
  endfacet
  facet normal 0.587786 0 -0.809017
    outer loop
      vertex -64.4734 0 2.99583
      vertex -66.0484 -4.5 1.85152
      vertex -66.0484 0 1.85152
    endloop
  endfacet
  facet normal 0.951056 0 -0.309019
    outer loop
      vertex -66.0484 -4.5 1.85152
      vertex -66.65 0 1.77636e-15
      vertex -66.0484 0 1.85152
    endloop
  endfacet
  facet normal 0.951056 6.8616e-17 -0.309019
    outer loop
      vertex -66.65 0 1.77636e-15
      vertex -66.0484 -4.5 1.85152
      vertex -66.65 -4.5 7.77156e-16
    endloop
  endfacet
  facet normal -0.587785 0 -0.809017
    outer loop
      vertex -62.5266 -4.5 2.99583
      vertex -60.9516 0 1.85152
      vertex -60.9516 -4.5 1.85152
    endloop
  endfacet
  facet normal -0.587785 0 -0.809017
    outer loop
      vertex -60.9516 0 1.85152
      vertex -62.5266 -4.5 2.99583
      vertex -62.5266 0 2.99583
    endloop
  endfacet
  facet normal -0.951056 6.86156e-17 -0.309017
    outer loop
      vertex -60.35 -4.5 7.77156e-16
      vertex -60.9516 0 1.85152
      vertex -60.35 0 1.77636e-15
    endloop
  endfacet
  facet normal -0.951056 -0 -0.309017
    outer loop
      vertex -60.9516 0 1.85152
      vertex -60.35 -4.5 7.77156e-16
      vertex -60.9516 -4.5 1.85152
    endloop
  endfacet
  facet normal -0.809016 0 0.587786
    outer loop
      vertex 63.9635 -7 -1.42658
      vertex 65 -4.5 7.77156e-16
      vertex 63.9635 -4.5 -1.42658
    endloop
  endfacet
  facet normal -0.809016 -1.30515e-16 0.587786
    outer loop
      vertex 65 -4.5 7.77156e-16
      vertex 63.9635 -7 -1.42658
      vertex 65 -7 2.22045e-16
    endloop
  endfacet
  facet normal 1 -0 0
    outer loop
      vertex 62.2865 -7 0.881678
      vertex 62.2865 -4.5 -0.881678
      vertex 62.2865 -4.5 0.881678
    endloop
  endfacet
  facet normal 1 0 0
    outer loop
      vertex 62.2865 -4.5 -0.881678
      vertex 62.2865 -7 0.881678
      vertex 62.2865 -7 -0.881678
    endloop
  endfacet
  facet normal 0.309017 0 0.951056
    outer loop
      vertex 62.2865 -4.5 -0.881678
      vertex 63.9635 -7 -1.42658
      vertex 63.9635 -4.5 -1.42658
    endloop
  endfacet
  facet normal 0.309017 0 0.951056
    outer loop
      vertex 63.9635 -7 -1.42658
      vertex 62.2865 -4.5 -0.881678
      vertex 62.2865 -7 -0.881678
    endloop
  endfacet
  facet normal -0.809016 1.30515e-16 -0.587786
    outer loop
      vertex 65 -7 2.22045e-16
      vertex 63.9635 -4.5 1.42658
      vertex 65 -4.5 7.77156e-16
    endloop
  endfacet
  facet normal -0.809016 -0 -0.587786
    outer loop
      vertex 63.9635 -4.5 1.42658
      vertex 65 -7 2.22045e-16
      vertex 63.9635 -7 1.42658
    endloop
  endfacet
  facet normal 0.309017 0 -0.951056
    outer loop
      vertex 62.2865 -7 0.881678
      vertex 63.9635 -4.5 1.42658
      vertex 63.9635 -7 1.42658
    endloop
  endfacet
  facet normal 0.309017 0 -0.951056
    outer loop
      vertex 63.9635 -4.5 1.42658
      vertex 62.2865 -7 0.881678
      vertex 62.2865 -4.5 0.881678
    endloop
  endfacet
  facet normal -0.951056 0 0.309019
    outer loop
      vertex 66.0484 -4.5 -1.85152
      vertex 66.65 0 1.77636e-15
      vertex 66.0484 0 -1.85152
    endloop
  endfacet
  facet normal -0.951056 -6.8616e-17 0.309019
    outer loop
      vertex 66.65 0 1.77636e-15
      vertex 66.0484 -4.5 -1.85152
      vertex 66.65 -4.5 7.77156e-16
    endloop
  endfacet
  facet normal 0.951056 -6.86156e-17 0.309017
    outer loop
      vertex 60.35 -4.5 7.77156e-16
      vertex 60.9516 0 -1.85152
      vertex 60.35 0 1.77636e-15
    endloop
  endfacet
  facet normal 0.951056 0 0.309017
    outer loop
      vertex 60.9516 0 -1.85152
      vertex 60.35 -4.5 7.77156e-16
      vertex 60.9516 -4.5 -1.85152
    endloop
  endfacet
  facet normal 0 1 0
    outer loop
      vertex 63.9635 -4.5 1.42658
      vertex 64.4734 -4.5 2.99583
      vertex 66.0484 -4.5 1.85152
    endloop
  endfacet
  facet normal 0 1 0
    outer loop
      vertex 64.4734 -4.5 2.99583
      vertex 63.9635 -4.5 1.42658
      vertex 62.5266 -4.5 2.99583
    endloop
  endfacet
  facet normal 0 1 0
    outer loop
      vertex 62.2865 -4.5 0.881678
      vertex 62.5266 -4.5 2.99583
      vertex 63.9635 -4.5 1.42658
    endloop
  endfacet
  facet normal 0 1 0
    outer loop
      vertex 65 -4.5 7.77156e-16
      vertex 66.0484 -4.5 1.85152
      vertex 66.65 -4.5 7.77156e-16
    endloop
  endfacet
  facet normal 0 1 0
    outer loop
      vertex 66.0484 -4.5 1.85152
      vertex 65 -4.5 7.77156e-16
      vertex 63.9635 -4.5 1.42658
    endloop
  endfacet
  facet normal 0 1 -0
    outer loop
      vertex 66.0484 -4.5 -1.85152
      vertex 65 -4.5 7.77156e-16
      vertex 66.65 -4.5 7.77156e-16
    endloop
  endfacet
  facet normal 0 1 0
    outer loop
      vertex 65 -4.5 7.77156e-16
      vertex 66.0484 -4.5 -1.85152
      vertex 63.9635 -4.5 -1.42658
    endloop
  endfacet
  facet normal 0 1 0
    outer loop
      vertex 62.5266 -4.5 2.99583
      vertex 62.2865 -4.5 0.881678
      vertex 60.9516 -4.5 1.85152
    endloop
  endfacet
  facet normal 0 1 0
    outer loop
      vertex 62.2865 -4.5 0.881678
      vertex 60.35 -4.5 7.77156e-16
      vertex 60.9516 -4.5 1.85152
    endloop
  endfacet
  facet normal 0 1 -0
    outer loop
      vertex 62.2865 -4.5 -0.881678
      vertex 60.35 -4.5 7.77156e-16
      vertex 62.2865 -4.5 0.881678
    endloop
  endfacet
  facet normal 0 1 0
    outer loop
      vertex 62.2865 -4.5 -0.881678
      vertex 60.9516 -4.5 -1.85152
      vertex 60.35 -4.5 7.77156e-16
    endloop
  endfacet
  facet normal 0 1 -0
    outer loop
      vertex 62.5266 -4.5 -2.99583
      vertex 62.2865 -4.5 -0.881678
      vertex 63.9635 -4.5 -1.42658
    endloop
  endfacet
  facet normal 0 1 -0
    outer loop
      vertex 64.4734 -4.5 -2.99583
      vertex 63.9635 -4.5 -1.42658
      vertex 66.0484 -4.5 -1.85152
    endloop
  endfacet
  facet normal 0 1 0
    outer loop
      vertex 62.5266 -4.5 -2.99583
      vertex 63.9635 -4.5 -1.42658
      vertex 64.4734 -4.5 -2.99583
    endloop
  endfacet
  facet normal 0 1 0
    outer loop
      vertex 62.2865 -4.5 -0.881678
      vertex 62.5266 -4.5 -2.99583
      vertex 60.9516 -4.5 -1.85152
    endloop
  endfacet
  facet normal -0 0 1
    outer loop
      vertex 62.5266 0 -2.99583
      vertex 64.4734 -4.5 -2.99583
      vertex 64.4734 0 -2.99583
    endloop
  endfacet
  facet normal 0 0 1
    outer loop
      vertex 64.4734 -4.5 -2.99583
      vertex 62.5266 0 -2.99583
      vertex 62.5266 -4.5 -2.99583
    endloop
  endfacet
  facet normal -0.587786 0 0.809017
    outer loop
      vertex 64.4734 0 -2.99583
      vertex 66.0484 -4.5 -1.85152
      vertex 66.0484 0 -1.85152
    endloop
  endfacet
  facet normal -0.587786 0 0.809017
    outer loop
      vertex 66.0484 -4.5 -1.85152
      vertex 64.4734 0 -2.99583
      vertex 64.4734 -4.5 -2.99583
    endloop
  endfacet
  facet normal 0.587785 0 0.809017
    outer loop
      vertex 60.9516 0 -1.85152
      vertex 62.5266 -4.5 -2.99583
      vertex 62.5266 0 -2.99583
    endloop
  endfacet
  facet normal 0.587785 0 0.809017
    outer loop
      vertex 62.5266 -4.5 -2.99583
      vertex 60.9516 0 -1.85152
      vertex 60.9516 -4.5 -1.85152
    endloop
  endfacet
  facet normal 0 0 -1
    outer loop
      vertex 62.5266 -4.5 2.99583
      vertex 64.4734 0 2.99583
      vertex 64.4734 -4.5 2.99583
    endloop
  endfacet
  facet normal -0 0 -1
    outer loop
      vertex 64.4734 0 2.99583
      vertex 62.5266 -4.5 2.99583
      vertex 62.5266 0 2.99583
    endloop
  endfacet
  facet normal -0.587786 0 -0.809017
    outer loop
      vertex 64.4734 -4.5 2.99583
      vertex 66.0484 0 1.85152
      vertex 66.0484 -4.5 1.85152
    endloop
  endfacet
  facet normal -0.587786 0 -0.809017
    outer loop
      vertex 66.0484 0 1.85152
      vertex 64.4734 -4.5 2.99583
      vertex 64.4734 0 2.99583
    endloop
  endfacet
  facet normal -0.951056 6.8616e-17 -0.309019
    outer loop
      vertex 66.65 -4.5 7.77156e-16
      vertex 66.0484 0 1.85152
      vertex 66.65 0 1.77636e-15
    endloop
  endfacet
  facet normal -0.951056 -0 -0.309019
    outer loop
      vertex 66.0484 0 1.85152
      vertex 66.65 -4.5 7.77156e-16
      vertex 66.0484 -4.5 1.85152
    endloop
  endfacet
  facet normal 0.587785 0 -0.809017
    outer loop
      vertex 60.9516 -4.5 1.85152
      vertex 62.5266 0 2.99583
      vertex 62.5266 -4.5 2.99583
    endloop
  endfacet
  facet normal 0.587785 0 -0.809017
    outer loop
      vertex 62.5266 0 2.99583
      vertex 60.9516 -4.5 1.85152
      vertex 60.9516 0 1.85152
    endloop
  endfacet
  facet normal 0.951056 0 -0.309017
    outer loop
      vertex 60.9516 -4.5 1.85152
      vertex 60.35 0 1.77636e-15
      vertex 60.9516 0 1.85152
    endloop
  endfacet
  facet normal 0.951056 6.86156e-17 -0.309017
    outer loop
      vertex 60.35 0 1.77636e-15
      vertex 60.9516 -4.5 1.85152
      vertex 60.35 -4.5 7.77156e-16
    endloop
  endfacet
  facet normal 0.809019 -0 0.587783
    outer loop
      vertex -74.25 -5 0
      vertex -73.7318 0 -0.713292
      vertex -74.25 0 0
    endloop
  endfacet
  facet normal 0.809019 0 0.587783
    outer loop
      vertex -73.7318 0 -0.713292
      vertex -74.25 -5 0
      vertex -73.7318 -5 -0.713292
    endloop
  endfacet
  facet normal -0.309015 0 0.951057
    outer loop
      vertex -73.7318 0 -0.713292
      vertex -72.8932 -5 -0.440839
      vertex -72.8932 0 -0.440839
    endloop
  endfacet
  facet normal -0.309015 0 0.951057
    outer loop
      vertex -72.8932 -5 -0.440839
      vertex -73.7318 0 -0.713292
      vertex -73.7318 -5 -0.713292
    endloop
  endfacet
  facet normal -0.309015 0 -0.951057
    outer loop
      vertex -73.7318 -5 0.713292
      vertex -72.8932 0 0.440839
      vertex -72.8932 -5 0.440839
    endloop
  endfacet
  facet normal -0.309015 0 -0.951057
    outer loop
      vertex -72.8932 0 0.440839
      vertex -73.7318 -5 0.713292
      vertex -73.7318 0 0.713292
    endloop
  endfacet
  facet normal -1 0 0
    outer loop
      vertex -72.8932 -5 -0.440839
      vertex -72.8932 0 0.440839
      vertex -72.8932 0 -0.440839
    endloop
  endfacet
  facet normal -1 -0 0
    outer loop
      vertex -72.8932 0 0.440839
      vertex -72.8932 -5 -0.440839
      vertex -72.8932 -5 0.440839
    endloop
  endfacet
  facet normal 0.809019 0 -0.587783
    outer loop
      vertex -73.7318 -5 0.713292
      vertex -74.25 0 0
      vertex -73.7318 0 0.713292
    endloop
  endfacet
  facet normal 0.809019 0 -0.587783
    outer loop
      vertex -74.25 0 0
      vertex -73.7318 -5 0.713292
      vertex -74.25 -5 0
    endloop
  endfacet
  facet normal -1 0 0
    outer loop
      vertex -72.5 -7 -7.5
      vertex -72.5 -5 7.5
      vertex -72.5 -5 -7.5
    endloop
  endfacet
  facet normal -1 -0 0
    outer loop
      vertex -72.5 -5 7.5
      vertex -72.5 -7 -7.5
      vertex -72.5 -7 7.5
    endloop
  endfacet
  facet normal 1 -0 0
    outer loop
      vertex -74.5 -7 7.5
      vertex -74.5 -5 -7.5
      vertex -74.5 -5 7.5
    endloop
  endfacet
  facet normal 1 0 0
    outer loop
      vertex -74.5 -5 -7.5
      vertex -74.5 -7 7.5
      vertex -74.5 -7 -7.5
    endloop
  endfacet
  facet normal 0 -1 0
    outer loop
      vertex -74.5 -5 7.5
      vertex -73.7318 -5 0.713292
      vertex -72.5 -5 7.5
    endloop
  endfacet
  facet normal 0 -1 0
    outer loop
      vertex -74.5 -5 7.5
      vertex -74.25 -5 0
      vertex -73.7318 -5 0.713292
    endloop
  endfacet
  facet normal 0 -1 -0
    outer loop
      vertex -74.25 -5 0
      vertex -74.5 -5 -7.5
      vertex -73.7318 -5 -0.713292
    endloop
  endfacet
  facet normal 0 -1 0
    outer loop
      vertex -74.5 -5 -7.5
      vertex -74.25 -5 0
      vertex -74.5 -5 7.5
    endloop
  endfacet
  facet normal 0 -1 0
    outer loop
      vertex -72.8932 -5 0.440839
      vertex -72.5 -5 7.5
      vertex -73.7318 -5 0.713292
    endloop
  endfacet
  facet normal 0 -1 0
    outer loop
      vertex -72.8932 -5 -0.440839
      vertex -72.5 -5 7.5
      vertex -72.8932 -5 0.440839
    endloop
  endfacet
  facet normal 0 -1 0
    outer loop
      vertex -72.5 -5 -7.5
      vertex -73.7318 -5 -0.713292
      vertex -74.5 -5 -7.5
    endloop
  endfacet
  facet normal 0 -1 0
    outer loop
      vertex -72.8932 -5 -0.440839
      vertex -72.5 -5 -7.5
      vertex -72.5 -5 7.5
    endloop
  endfacet
  facet normal 0 -1 0
    outer loop
      vertex -73.7318 -5 -0.713292
      vertex -72.5 -5 -7.5
      vertex -72.8932 -5 -0.440839
    endloop
  endfacet
  facet normal 0.809017 -0.587786 0
    outer loop
      vertex -21.45 -3.5 7.5
      vertex -20.4481 -2.12097 -7.5
      vertex -20.4481 -2.12097 7.5
    endloop
  endfacet
  facet normal 0.809017 -0.587786 0
    outer loop
      vertex -20.4481 -2.12097 -7.5
      vertex -21.45 -3.5 7.5
      vertex -21.45 -3.5 -7.5
    endloop
  endfacet
  facet normal -1 0 0
    outer loop
      vertex -18.8269 -4.35229 -7.5
      vertex -18.8269 -2.64771 7.5
      vertex -18.8269 -2.64771 -7.5
    endloop
  endfacet
  facet normal -1 -0 0
    outer loop
      vertex -18.8269 -2.64771 7.5
      vertex -18.8269 -4.35229 -7.5
      vertex -18.8269 -4.35229 7.5
    endloop
  endfacet
  facet normal -0.309017 -0.951057 0
    outer loop
      vertex -20.4481 -2.12097 -7.5
      vertex -18.8269 -2.64771 7.5
      vertex -20.4481 -2.12097 7.5
    endloop
  endfacet
  facet normal -0.309017 -0.951057 -0
    outer loop
      vertex -18.8269 -2.64771 7.5
      vertex -20.4481 -2.12097 -7.5
      vertex -18.8269 -2.64771 -7.5
    endloop
  endfacet
  facet normal -0.309017 0.951057 0
    outer loop
      vertex -18.8269 -4.35229 -7.5
      vertex -20.4481 -4.87903 7.5
      vertex -18.8269 -4.35229 7.5
    endloop
  endfacet
  facet normal -0.309017 0.951057 0
    outer loop
      vertex -20.4481 -4.87903 7.5
      vertex -18.8269 -4.35229 -7.5
      vertex -20.4481 -4.87903 -7.5
    endloop
  endfacet
  facet normal 0.809017 0.587786 0
    outer loop
      vertex -20.4481 -4.87903 7.5
      vertex -21.45 -3.5 -7.5
      vertex -21.45 -3.5 7.5
    endloop
  endfacet
  facet normal 0.809017 0.587786 0
    outer loop
      vertex -21.45 -3.5 -7.5
      vertex -20.4481 -4.87903 7.5
      vertex -20.4481 -4.87903 -7.5
    endloop
  endfacet
  facet normal -0.809019 0 0.587783
    outer loop
      vertex 73.7318 -5 -0.713292
      vertex 74.25 0 0
      vertex 73.7318 0 -0.713292
    endloop
  endfacet
  facet normal -0.809019 0 0.587783
    outer loop
      vertex 74.25 0 0
      vertex 73.7318 -5 -0.713292
      vertex 74.25 -5 0
    endloop
  endfacet
  facet normal 0.309015 0 0.951057
    outer loop
      vertex 72.8932 0 -0.440839
      vertex 73.7318 -5 -0.713292
      vertex 73.7318 0 -0.713292
    endloop
  endfacet
  facet normal 0.309015 0 0.951057
    outer loop
      vertex 73.7318 -5 -0.713292
      vertex 72.8932 0 -0.440839
      vertex 72.8932 -5 -0.440839
    endloop
  endfacet
  facet normal 0.309015 0 -0.951057
    outer loop
      vertex 72.8932 -5 0.440839
      vertex 73.7318 0 0.713292
      vertex 73.7318 -5 0.713292
    endloop
  endfacet
  facet normal 0.309015 0 -0.951057
    outer loop
      vertex 73.7318 0 0.713292
      vertex 72.8932 -5 0.440839
      vertex 72.8932 0 0.440839
    endloop
  endfacet
  facet normal 1 -0 0
    outer loop
      vertex 72.8932 -5 0.440839
      vertex 72.8932 0 -0.440839
      vertex 72.8932 0 0.440839
    endloop
  endfacet
  facet normal 1 0 0
    outer loop
      vertex 72.8932 0 -0.440839
      vertex 72.8932 -5 0.440839
      vertex 72.8932 -5 -0.440839
    endloop
  endfacet
  facet normal -0.809019 0 -0.587783
    outer loop
      vertex 74.25 -5 0
      vertex 73.7318 0 0.713292
      vertex 74.25 0 0
    endloop
  endfacet
  facet normal -0.809019 -0 -0.587783
    outer loop
      vertex 73.7318 0 0.713292
      vertex 74.25 -5 0
      vertex 73.7318 -5 0.713292
    endloop
  endfacet
  facet normal 1 -0 0
    outer loop
      vertex 72.5 -7 7.5
      vertex 72.5 -5 -7.5
      vertex 72.5 -5 7.5
    endloop
  endfacet
  facet normal 1 0 0
    outer loop
      vertex 72.5 -5 -7.5
      vertex 72.5 -7 7.5
      vertex 72.5 -7 -7.5
    endloop
  endfacet
  facet normal -1 0 0
    outer loop
      vertex 74.5 -7 -7.5
      vertex 74.5 -5 7.5
      vertex 74.5 -5 -7.5
    endloop
  endfacet
  facet normal -1 -0 0
    outer loop
      vertex 74.5 -5 7.5
      vertex 74.5 -7 -7.5
      vertex 74.5 -7 7.5
    endloop
  endfacet
  facet normal 0 -1 0
    outer loop
      vertex 72.5 -5 7.5
      vertex 73.7318 -5 0.713292
      vertex 74.5 -5 7.5
    endloop
  endfacet
  facet normal 0 -1 0
    outer loop
      vertex 72.5 -5 7.5
      vertex 72.8932 -5 0.440839
      vertex 73.7318 -5 0.713292
    endloop
  endfacet
  facet normal 0 -1 0
    outer loop
      vertex 72.5 -5 7.5
      vertex 72.8932 -5 -0.440839
      vertex 72.8932 -5 0.440839
    endloop
  endfacet
  facet normal 0 -1 -0
    outer loop
      vertex 72.8932 -5 -0.440839
      vertex 72.5 -5 -7.5
      vertex 73.7318 -5 -0.713292
    endloop
  endfacet
  facet normal 0 -1 0
    outer loop
      vertex 72.5 -5 -7.5
      vertex 72.8932 -5 -0.440839
      vertex 72.5 -5 7.5
    endloop
  endfacet
  facet normal 0 -1 0
    outer loop
      vertex 74.25 -5 0
      vertex 74.5 -5 7.5
      vertex 73.7318 -5 0.713292
    endloop
  endfacet
  facet normal 0 -1 0
    outer loop
      vertex 74.5 -5 -7.5
      vertex 73.7318 -5 -0.713292
      vertex 72.5 -5 -7.5
    endloop
  endfacet
  facet normal 0 -1 0
    outer loop
      vertex 74.25 -5 0
      vertex 74.5 -5 -7.5
      vertex 74.5 -5 7.5
    endloop
  endfacet
  facet normal 0 -1 0
    outer loop
      vertex 73.7318 -5 -0.713292
      vertex 74.5 -5 -7.5
      vertex 74.25 -5 0
    endloop
  endfacet
  facet normal -0.809017 -0.587786 0
    outer loop
      vertex 21.45 -3.5 -7.5
      vertex 20.4481 -2.12097 7.5
      vertex 20.4481 -2.12097 -7.5
    endloop
  endfacet
  facet normal -0.809017 -0.587786 0
    outer loop
      vertex 20.4481 -2.12097 7.5
      vertex 21.45 -3.5 -7.5
      vertex 21.45 -3.5 7.5
    endloop
  endfacet
  facet normal 1 -0 0
    outer loop
      vertex 18.8269 -4.35229 7.5
      vertex 18.8269 -2.64771 -7.5
      vertex 18.8269 -2.64771 7.5
    endloop
  endfacet
  facet normal 1 0 0
    outer loop
      vertex 18.8269 -2.64771 -7.5
      vertex 18.8269 -4.35229 7.5
      vertex 18.8269 -4.35229 -7.5
    endloop
  endfacet
  facet normal 0.309017 -0.951057 0
    outer loop
      vertex 18.8269 -2.64771 -7.5
      vertex 20.4481 -2.12097 7.5
      vertex 18.8269 -2.64771 7.5
    endloop
  endfacet
  facet normal 0.309017 -0.951057 0
    outer loop
      vertex 20.4481 -2.12097 7.5
      vertex 18.8269 -2.64771 -7.5
      vertex 20.4481 -2.12097 -7.5
    endloop
  endfacet
  facet normal -0.809017 0.587786 0
    outer loop
      vertex 20.4481 -4.87903 -7.5
      vertex 21.45 -3.5 7.5
      vertex 21.45 -3.5 -7.5
    endloop
  endfacet
  facet normal -0.809017 0.587786 0
    outer loop
      vertex 21.45 -3.5 7.5
      vertex 20.4481 -4.87903 -7.5
      vertex 20.4481 -4.87903 7.5
    endloop
  endfacet
  facet normal 0.309017 0.951057 -0
    outer loop
      vertex 20.4481 -4.87903 -7.5
      vertex 18.8269 -4.35229 7.5
      vertex 20.4481 -4.87903 7.5
    endloop
  endfacet
  facet normal 0.309017 0.951057 0
    outer loop
      vertex 18.8269 -4.35229 7.5
      vertex 20.4481 -4.87903 -7.5
      vertex 18.8269 -4.35229 -7.5
    endloop
  endfacet
  facet normal -1 0 0
    outer loop
      vertex -79.5 -7 -7.5
      vertex -79.5 0 7.5
      vertex -79.5 0 -7.5
    endloop
  endfacet
  facet normal -1 -0 0
    outer loop
      vertex -79.5 0 7.5
      vertex -79.5 -7 -7.5
      vertex -79.5 -7 7.5
    endloop
  endfacet
  facet normal 0 0 1
    outer loop
      vertex -1 0 7.5
      vertex -18.8269 -2.64771 7.5
      vertex -1 -2.00962 7.5
    endloop
  endfacet
  facet normal 0 0 1
    outer loop
      vertex -1 0 7.5
      vertex -20.4481 -2.12097 7.5
      vertex -18.8269 -2.64771 7.5
    endloop
  endfacet
  facet normal 0 0 1
    outer loop
      vertex -59.2322 -1.23223 7.5
      vertex -21.45 -3.5 7.5
      vertex -20.4481 -2.12097 7.5
    endloop
  endfacet
  facet normal -0 0 1
    outer loop
      vertex -61 -0.5 7.5
      vertex -20.4481 -2.12097 7.5
      vertex -1 0 7.5
    endloop
  endfacet
  facet normal 0 0 1
    outer loop
      vertex -21.45 -3.5 7.5
      vertex -59.2322 -1.23223 7.5
      vertex -58.5 -3 7.5
    endloop
  endfacet
  facet normal 0 0 1
    outer loop
      vertex -20.4481 -2.12097 7.5
      vertex -61 -0.5 7.5
      vertex -59.2322 -1.23223 7.5
    endloop
  endfacet
  facet normal 0 0 1
    outer loop
      vertex -62.7678 -1.23223 7.5
      vertex -67.5 -3 7.5
      vertex -63.5 -3 7.5
    endloop
  endfacet
  facet normal 0 0 1
    outer loop
      vertex -68.2322 -1.23223 7.5
      vertex -62.7678 -1.23223 7.5
      vertex -61 -0.5 7.5
    endloop
  endfacet
  facet normal 0 0 1
    outer loop
      vertex -62.7678 -1.23223 7.5
      vertex -68.2322 -1.23223 7.5
      vertex -67.5 -3 7.5
    endloop
  endfacet
  facet normal 0 0 1
    outer loop
      vertex -61 -0.5 7.5
      vertex -70 -0.5 7.5
      vertex -68.2322 -1.23223 7.5
    endloop
  endfacet
  facet normal -0 0 1
    outer loop
      vertex -79.5 0 7.5
      vertex -61 -0.5 7.5
      vertex -1 0 7.5
    endloop
  endfacet
  facet normal 0 0 1
    outer loop
      vertex -72.5 -3 7.5
      vertex -74.5 -5 7.5
      vertex -72.5 -5 7.5
    endloop
  endfacet
  facet normal 0 0 1
    outer loop
      vertex -79.5 0 7.5
      vertex -72.5 -3 7.5
      vertex -71.7678 -1.23223 7.5
    endloop
  endfacet
  facet normal 0 0 1
    outer loop
      vertex -61 -0.5 7.5
      vertex -79.5 0 7.5
      vertex -70 -0.5 7.5
    endloop
  endfacet
  facet normal 0 0 1
    outer loop
      vertex -79.5 0 7.5
      vertex -71.7678 -1.23223 7.5
      vertex -70 -0.5 7.5
    endloop
  endfacet
  facet normal 0 0 1
    outer loop
      vertex -72.5 -3 7.5
      vertex -79.5 0 7.5
      vertex -74.5 -5 7.5
    endloop
  endfacet
  facet normal 0 0 1
    outer loop
      vertex -79.5 -7 7.5
      vertex -74.5 -5 7.5
      vertex -79.5 0 7.5
    endloop
  endfacet
  facet normal 0 0 1
    outer loop
      vertex -74.5 -5 7.5
      vertex -79.5 -7 7.5
      vertex -74.5 -7 7.5
    endloop
  endfacet
  facet normal 0 0 1
    outer loop
      vertex 79.5 0 7.5
      vertex 74.5 -5 7.5
      vertex 79.5 -7 7.5
    endloop
  endfacet
  facet normal 0 0 1
    outer loop
      vertex 79.5 0 7.5
      vertex 72.5 -3 7.5
      vertex 74.5 -5 7.5
    endloop
  endfacet
  facet normal 0 0 1
    outer loop
      vertex 79.5 0 7.5
      vertex 71.7678 -1.23223 7.5
      vertex 72.5 -3 7.5
    endloop
  endfacet
  facet normal 0 0 1
    outer loop
      vertex 79.5 0 7.5
      vertex 70 -0.5 7.5
      vertex 71.7678 -1.23223 7.5
    endloop
  endfacet
  facet normal 0 0 1
    outer loop
      vertex 68.2322 -1.23223 7.5
      vertex 63.5 -3 7.5
      vertex 67.5 -3 7.5
    endloop
  endfacet
  facet normal 0 0 1
    outer loop
      vertex 62.7678 -1.23223 7.5
      vertex 68.2322 -1.23223 7.5
      vertex 70 -0.5 7.5
    endloop
  endfacet
  facet normal 0 0 1
    outer loop
      vertex 68.2322 -1.23223 7.5
      vertex 62.7678 -1.23223 7.5
      vertex 63.5 -3 7.5
    endloop
  endfacet
  facet normal 0 0 1
    outer loop
      vertex 70 -0.5 7.5
      vertex 61 -0.5 7.5
      vertex 62.7678 -1.23223 7.5
    endloop
  endfacet
  facet normal 0 0 1
    outer loop
      vertex 79.5 0 7.5
      vertex 61 -0.5 7.5
      vertex 70 -0.5 7.5
    endloop
  endfacet
  facet normal 0 0 1
    outer loop
      vertex 59.2322 -1.23223 7.5
      vertex 21.45 -3.5 7.5
      vertex 58.5 -3 7.5
    endloop
  endfacet
  facet normal 0 0 1
    outer loop
      vertex 20.4481 -2.12097 7.5
      vertex 59.2322 -1.23223 7.5
      vertex 61 -0.5 7.5
    endloop
  endfacet
  facet normal 0 0 1
    outer loop
      vertex 59.2322 -1.23223 7.5
      vertex 20.4481 -2.12097 7.5
      vertex 21.45 -3.5 7.5
    endloop
  endfacet
  facet normal -0 0 1
    outer loop
      vertex 1 -2.00962 7.5
      vertex 18.8269 -2.64771 7.5
      vertex 1 0 7.5
    endloop
  endfacet
  facet normal 0 0 1
    outer loop
      vertex 20.4481 -2.12097 7.5
      vertex 1 0 7.5
      vertex 18.8269 -2.64771 7.5
    endloop
  endfacet
  facet normal 0 0 1
    outer loop
      vertex 61 -0.5 7.5
      vertex 1 0 7.5
      vertex 20.4481 -2.12097 7.5
    endloop
  endfacet
  facet normal -0 0 1
    outer loop
      vertex 1 0 7.5
      vertex 61 -0.5 7.5
      vertex 79.5 0 7.5
    endloop
  endfacet
  facet normal 0 0 1
    outer loop
      vertex 79.5 -7 7.5
      vertex 74.5 -5 7.5
      vertex 74.5 -7 7.5
    endloop
  endfacet
  facet normal 0 0 1
    outer loop
      vertex 72.5 -3 7.5
      vertex 72.5 -5 7.5
      vertex 74.5 -5 7.5
    endloop
  endfacet
  facet normal -0 0 1
    outer loop
      vertex 71.7678 -4.76777 7.5
      vertex 72.5 -5 7.5
      vertex 72.5 -3 7.5
    endloop
  endfacet
  facet normal 0 0 1
    outer loop
      vertex 72.5 -5 7.5
      vertex 71.7678 -4.76777 7.5
      vertex 72.5 -7 7.5
    endloop
  endfacet
  facet normal -0 0 1
    outer loop
      vertex 70 -5.5 7.5
      vertex 72.5 -7 7.5
      vertex 71.7678 -4.76777 7.5
    endloop
  endfacet
  facet normal 0 0 1
    outer loop
      vertex 61 -5.5 7.5
      vertex 70 -5.5 7.5
      vertex 68.2322 -4.76777 7.5
    endloop
  endfacet
  facet normal -0 0 1
    outer loop
      vertex 63.5 -3 7.5
      vertex 68.2322 -4.76777 7.5
      vertex 67.5 -3 7.5
    endloop
  endfacet
  facet normal 0 0 1
    outer loop
      vertex 62.7678 -4.76777 7.5
      vertex 68.2322 -4.76777 7.5
      vertex 63.5 -3 7.5
    endloop
  endfacet
  facet normal 0 0 1
    outer loop
      vertex 61 -5.5 7.5
      vertex 68.2322 -4.76777 7.5
      vertex 62.7678 -4.76777 7.5
    endloop
  endfacet
  facet normal 0 0 1
    outer loop
      vertex 70 -5.5 7.5
      vertex 61 -5.5 7.5
      vertex 72.5 -7 7.5
    endloop
  endfacet
  facet normal -0 0 1
    outer loop
      vertex 21.45 -3.5 7.5
      vertex 59.2322 -4.76777 7.5
      vertex 58.5 -3 7.5
    endloop
  endfacet
  facet normal 0 0 1
    outer loop
      vertex 20.4481 -4.87903 7.5
      vertex 59.2322 -4.76777 7.5
      vertex 21.45 -3.5 7.5
    endloop
  endfacet
  facet normal 0 0 1
    outer loop
      vertex 59.2322 -4.76777 7.5
      vertex 20.4481 -4.87903 7.5
      vertex 61 -5.5 7.5
    endloop
  endfacet
  facet normal 0 0 1
    outer loop
      vertex 61 -5.5 7.5
      vertex 20.4481 -4.87903 7.5
      vertex 72.5 -7 7.5
    endloop
  endfacet
  facet normal 0 0 1
    outer loop
      vertex 18.8269 -2.64771 7.5
      vertex 1 -2.00962 7.5
      vertex 18.8269 -4.35229 7.5
    endloop
  endfacet
  facet normal 0 0 1
    outer loop
      vertex 18.8269 -4.35229 7.5
      vertex 1 -2.00962 7.5
      vertex 20.4481 -4.87903 7.5
    endloop
  endfacet
  facet normal -0 0 1
    outer loop
      vertex -1 -2.00962 7.5
      vertex 20.4481 -4.87903 7.5
      vertex 1 -2.00962 7.5
    endloop
  endfacet
  facet normal 0 0 1
    outer loop
      vertex -18.8269 -4.35229 7.5
      vertex -1 -2.00962 7.5
      vertex -18.8269 -2.64771 7.5
    endloop
  endfacet
  facet normal 0 0 1
    outer loop
      vertex -20.4481 -4.87903 7.5
      vertex -1 -2.00962 7.5
      vertex -18.8269 -4.35229 7.5
    endloop
  endfacet
  facet normal 0 0 1
    outer loop
      vertex -1 -2.00962 7.5
      vertex -20.4481 -4.87903 7.5
      vertex 20.4481 -4.87903 7.5
    endloop
  endfacet
  facet normal 0 0 1
    outer loop
      vertex 20.4481 -4.87903 7.5
      vertex -20.4481 -4.87903 7.5
      vertex 72.5 -7 7.5
    endloop
  endfacet
  facet normal 0 0 1
    outer loop
      vertex -59.2322 -4.76777 7.5
      vertex -21.45 -3.5 7.5
      vertex -58.5 -3 7.5
    endloop
  endfacet
  facet normal 0 0 1
    outer loop
      vertex -21.45 -3.5 7.5
      vertex -59.2322 -4.76777 7.5
      vertex -20.4481 -4.87903 7.5
    endloop
  endfacet
  facet normal 0 0 1
    outer loop
      vertex -61 -5.5 7.5
      vertex -20.4481 -4.87903 7.5
      vertex -59.2322 -4.76777 7.5
    endloop
  endfacet
  facet normal 0 0 1
    outer loop
      vertex -72.5 -7 7.5
      vertex -20.4481 -4.87903 7.5
      vertex -61 -5.5 7.5
    endloop
  endfacet
  facet normal -0 0 1
    outer loop
      vertex -67.5 -3 7.5
      vertex -62.7678 -4.76777 7.5
      vertex -63.5 -3 7.5
    endloop
  endfacet
  facet normal 0 0 1
    outer loop
      vertex -68.2322 -4.76777 7.5
      vertex -62.7678 -4.76777 7.5
      vertex -67.5 -3 7.5
    endloop
  endfacet
  facet normal 0 0 1
    outer loop
      vertex -62.7678 -4.76777 7.5
      vertex -68.2322 -4.76777 7.5
      vertex -61 -5.5 7.5
    endloop
  endfacet
  facet normal 0 0 1
    outer loop
      vertex -70 -5.5 7.5
      vertex -61 -5.5 7.5
      vertex -68.2322 -4.76777 7.5
    endloop
  endfacet
  facet normal 0 0 1
    outer loop
      vertex -72.5 -7 7.5
      vertex -61 -5.5 7.5
      vertex -70 -5.5 7.5
    endloop
  endfacet
  facet normal 0 0 1
    outer loop
      vertex -72.5 -5 7.5
      vertex -71.7678 -4.76777 7.5
      vertex -72.5 -3 7.5
    endloop
  endfacet
  facet normal 0 0 1
    outer loop
      vertex -72.5 -7 7.5
      vertex -71.7678 -4.76777 7.5
      vertex -72.5 -5 7.5
    endloop
  endfacet
  facet normal 0 0 1
    outer loop
      vertex -20.4481 -4.87903 7.5
      vertex -72.5 -7 7.5
      vertex 72.5 -7 7.5
    endloop
  endfacet
  facet normal 0 0 1
    outer loop
      vertex -71.7678 -4.76777 7.5
      vertex -72.5 -7 7.5
      vertex -70 -5.5 7.5
    endloop
  endfacet
  facet normal 1 -0 0
    outer loop
      vertex 79.5 -7 7.5
      vertex 79.5 0 -7.5
      vertex 79.5 0 7.5
    endloop
  endfacet
  facet normal 1 0 0
    outer loop
      vertex 79.5 0 -7.5
      vertex 79.5 -7 7.5
      vertex 79.5 -7 -7.5
    endloop
  endfacet
  facet normal 0 1 0
    outer loop
      vertex 62.5266 0 2.99583
      vertex 79.5 0 7.5
      vertex 64.4734 0 2.99583
    endloop
  endfacet
  facet normal 0 1 0
    outer loop
      vertex 79.5 0 7.5
      vertex 66.0484 0 1.85152
      vertex 64.4734 0 2.99583
    endloop
  endfacet
  facet normal 0 1 0
    outer loop
      vertex 79.5 0 7.5
      vertex 73.7318 0 0.713292
      vertex 66.0484 0 1.85152
    endloop
  endfacet
  facet normal 0 1 0
    outer loop
      vertex 79.5 0 7.5
      vertex 74.25 0 0
      vertex 73.7318 0 0.713292
    endloop
  endfacet
  facet normal 0 1 0
    outer loop
      vertex 79.5 0 -7.5
      vertex 66.0484 0 -1.85152
      vertex 73.7318 0 -0.713292
    endloop
  endfacet
  facet normal 0 1 0
    outer loop
      vertex 64.4734 0 -2.99583
      vertex 79.5 0 -7.5
      vertex 62.5266 0 -2.99583
    endloop
  endfacet
  facet normal 0 1 0
    outer loop
      vertex 66.0484 0 -1.85152
      vertex 79.5 0 -7.5
      vertex 64.4734 0 -2.99583
    endloop
  endfacet
  facet normal 0 1 0
    outer loop
      vertex 74.25 0 0
      vertex 79.5 0 -7.5
      vertex 73.7318 0 -0.713292
    endloop
  endfacet
  facet normal 0 1 -0
    outer loop
      vertex 79.5 0 -7.5
      vertex 74.25 0 0
      vertex 79.5 0 7.5
    endloop
  endfacet
  facet normal 0 1 0
    outer loop
      vertex 79.5 0 7.5
      vertex 62.5266 0 2.99583
      vertex 1 0 7.5
    endloop
  endfacet
  facet normal 0 1 -0
    outer loop
      vertex 60.9516 0 1.85152
      vertex 1 0 7.5
      vertex 62.5266 0 2.99583
    endloop
  endfacet
  facet normal 0 1 -0
    outer loop
      vertex 60.35 0 1.77636e-15
      vertex 1 0 7.5
      vertex 60.9516 0 1.85152
    endloop
  endfacet
  facet normal 0 1 0
    outer loop
      vertex 60.35 0 1.77636e-15
      vertex 1 0 0
      vertex 1 0 7.5
    endloop
  endfacet
  facet normal 0 1 0
    outer loop
      vertex 1 0 -7.5
      vertex 60.35 0 1.77636e-15
      vertex 60.9516 0 -1.85152
    endloop
  endfacet
  facet normal 0 1 0
    outer loop
      vertex 1 0 -7.5
      vertex 60.9516 0 -1.85152
      vertex 62.5266 0 -2.99583
    endloop
  endfacet
  facet normal 0 1 0
    outer loop
      vertex 1 0 -7.5
      vertex 62.5266 0 -2.99583
      vertex 79.5 0 -7.5
    endloop
  endfacet
  facet normal 0 1 0
    outer loop
      vertex 60.35 0 1.77636e-15
      vertex 1 0 -7.5
      vertex 1 0 0
    endloop
  endfacet
  facet normal 0 1 -0
    outer loop
      vertex 72.8932 0 0.440839
      vertex 66.0484 0 1.85152
      vertex 73.7318 0 0.713292
    endloop
  endfacet
  facet normal 0 1 0
    outer loop
      vertex 72.8932 0 0.440839
      vertex 66.65 0 1.77636e-15
      vertex 66.0484 0 1.85152
    endloop
  endfacet
  facet normal 0 1 -0
    outer loop
      vertex 72.8932 0 -0.440839
      vertex 66.65 0 1.77636e-15
      vertex 72.8932 0 0.440839
    endloop
  endfacet
  facet normal 0 1 0
    outer loop
      vertex 66.0484 0 -1.85152
      vertex 72.8932 0 -0.440839
      vertex 73.7318 0 -0.713292
    endloop
  endfacet
  facet normal 0 1 0
    outer loop
      vertex 72.8932 0 -0.440839
      vertex 66.0484 0 -1.85152
      vertex 66.65 0 1.77636e-15
    endloop
  endfacet
  facet normal 0 1 0
    outer loop
      vertex -66.0484 0 1.85152
      vertex -72.8932 0 0.440839
      vertex -73.7318 0 0.713292
    endloop
  endfacet
  facet normal 0 1 -0
    outer loop
      vertex -66.65 0 1.77636e-15
      vertex -72.8932 0 0.440839
      vertex -66.0484 0 1.85152
    endloop
  endfacet
  facet normal 0 1 0
    outer loop
      vertex -66.65 0 1.77636e-15
      vertex -72.8932 0 -0.440839
      vertex -72.8932 0 0.440839
    endloop
  endfacet
  facet normal 0 1 0
    outer loop
      vertex -66.0484 0 -1.85152
      vertex -72.8932 0 -0.440839
      vertex -66.65 0 1.77636e-15
    endloop
  endfacet
  facet normal 0 1 0
    outer loop
      vertex -72.8932 0 -0.440839
      vertex -66.0484 0 -1.85152
      vertex -73.7318 0 -0.713292
    endloop
  endfacet
  facet normal 0 1 0
    outer loop
      vertex -1 0 7.5
      vertex -62.5266 0 2.99583
      vertex -79.5 0 7.5
    endloop
  endfacet
  facet normal 0 1 0
    outer loop
      vertex -1 0 7.5
      vertex -60.9516 0 1.85152
      vertex -62.5266 0 2.99583
    endloop
  endfacet
  facet normal 0 1 0
    outer loop
      vertex -1 0 7.5
      vertex -60.35 0 1.77636e-15
      vertex -60.9516 0 1.85152
    endloop
  endfacet
  facet normal 0 1 -0
    outer loop
      vertex -1 0 0
      vertex -60.35 0 1.77636e-15
      vertex -1 0 7.5
    endloop
  endfacet
  facet normal 0 1 -0
    outer loop
      vertex -1 0 -7.5
      vertex -60.35 0 1.77636e-15
      vertex -1 0 0
    endloop
  endfacet
  facet normal 0 1 0
    outer loop
      vertex -60.35 0 1.77636e-15
      vertex -1 0 -7.5
      vertex -60.9516 0 -1.85152
    endloop
  endfacet
  facet normal 0 1 0
    outer loop
      vertex -79.5 0 -7.5
      vertex -62.5266 0 -2.99583
      vertex -1 0 -7.5
    endloop
  endfacet
  facet normal 0 1 0
    outer loop
      vertex -60.9516 0 -1.85152
      vertex -1 0 -7.5
      vertex -62.5266 0 -2.99583
    endloop
  endfacet
  facet normal 0 1 -0
    outer loop
      vertex -64.4734 0 2.99583
      vertex -79.5 0 7.5
      vertex -62.5266 0 2.99583
    endloop
  endfacet
  facet normal 0 1 -0
    outer loop
      vertex -66.0484 0 1.85152
      vertex -79.5 0 7.5
      vertex -64.4734 0 2.99583
    endloop
  endfacet
  facet normal 0 1 -0
    outer loop
      vertex -73.7318 0 0.713292
      vertex -79.5 0 7.5
      vertex -66.0484 0 1.85152
    endloop
  endfacet
  facet normal 0 1 -0
    outer loop
      vertex -74.25 0 0
      vertex -79.5 0 7.5
      vertex -73.7318 0 0.713292
    endloop
  endfacet
  facet normal 0 1 0
    outer loop
      vertex -79.5 0 -7.5
      vertex -66.0484 0 -1.85152
      vertex -64.4734 0 -2.99583
    endloop
  endfacet
  facet normal 0 1 0
    outer loop
      vertex -74.25 0 0
      vertex -79.5 0 -7.5
      vertex -79.5 0 7.5
    endloop
  endfacet
  facet normal 0 1 0
    outer loop
      vertex -73.7318 0 -0.713292
      vertex -79.5 0 -7.5
      vertex -74.25 0 0
    endloop
  endfacet
  facet normal 0 1 0
    outer loop
      vertex -66.0484 0 -1.85152
      vertex -79.5 0 -7.5
      vertex -73.7318 0 -0.713292
    endloop
  endfacet
  facet normal 0 1 0
    outer loop
      vertex -62.5266 0 -2.99583
      vertex -79.5 0 -7.5
      vertex -64.4734 0 -2.99583
    endloop
  endfacet
  facet normal 0 0 -1
    outer loop
      vertex -74.5 -7 -7.5
      vertex -79.5 -7 -7.5
      vertex -74.5 -5 -7.5
    endloop
  endfacet
  facet normal 0 0 -1
    outer loop
      vertex 72.5 -7 -7.5
      vertex 21.45 -3.5 -7.5
      vertex 72.5 -5 -7.5
    endloop
  endfacet
  facet normal 0 0 -1
    outer loop
      vertex 72.5 -7 -7.5
      vertex 20.4481 -4.87903 -7.5
      vertex 21.45 -3.5 -7.5
    endloop
  endfacet
  facet normal 0 0 -1
    outer loop
      vertex 18.8269 -4.35229 -7.5
      vertex 1 -2.00962 -7.5
      vertex 18.8269 -2.64771 -7.5
    endloop
  endfacet
  facet normal 0 0 -1
    outer loop
      vertex 20.4481 -4.87903 -7.5
      vertex 1 -2.00962 -7.5
      vertex 18.8269 -4.35229 -7.5
    endloop
  endfacet
  facet normal 0 0 -1
    outer loop
      vertex 20.4481 -4.87903 -7.5
      vertex -1 -2.00962 -7.5
      vertex 1 -2.00962 -7.5
    endloop
  endfacet
  facet normal 0 0 -1
    outer loop
      vertex -18.8269 -2.64771 -7.5
      vertex -1 -2.00962 -7.5
      vertex -18.8269 -4.35229 -7.5
    endloop
  endfacet
  facet normal 0 0 -1
    outer loop
      vertex -20.4481 -4.87903 -7.5
      vertex -1 -2.00962 -7.5
      vertex 20.4481 -4.87903 -7.5
    endloop
  endfacet
  facet normal 0 0 -1
    outer loop
      vertex -20.4481 -4.87903 -7.5
      vertex 20.4481 -4.87903 -7.5
      vertex 72.5 -7 -7.5
    endloop
  endfacet
  facet normal 0 0 -1
    outer loop
      vertex -1 -2.00962 -7.5
      vertex -20.4481 -4.87903 -7.5
      vertex -18.8269 -4.35229 -7.5
    endloop
  endfacet
  facet normal -0 0 -1
    outer loop
      vertex -20.4481 -4.87903 -7.5
      vertex -72.5 -7 -7.5
      vertex -21.45 -3.5 -7.5
    endloop
  endfacet
  facet normal 0 0 -1
    outer loop
      vertex -72.5 -7 -7.5
      vertex -20.4481 -4.87903 -7.5
      vertex 72.5 -7 -7.5
    endloop
  endfacet
  facet normal 0 0 -1
    outer loop
      vertex 74.5 -5 -7.5
      vertex 79.5 -7 -7.5
      vertex 74.5 -7 -7.5
    endloop
  endfacet
  facet normal 0 0 -1
    outer loop
      vertex 79.5 -7 -7.5
      vertex 74.5 -5 -7.5
      vertex 79.5 0 -7.5
    endloop
  endfacet
  facet normal 0 0 -1
    outer loop
      vertex 72.5 -5 -7.5
      vertex 79.5 0 -7.5
      vertex 74.5 -5 -7.5
    endloop
  endfacet
  facet normal 0 0 -1
    outer loop
      vertex 20.4481 -2.12097 -7.5
      vertex 72.5 -5 -7.5
      vertex 21.45 -3.5 -7.5
    endloop
  endfacet
  facet normal 0 0 -1
    outer loop
      vertex 72.5 -5 -7.5
      vertex 20.4481 -2.12097 -7.5
      vertex 79.5 0 -7.5
    endloop
  endfacet
  facet normal 0 0 -1
    outer loop
      vertex 1 0 -7.5
      vertex 18.8269 -2.64771 -7.5
      vertex 1 -2.00962 -7.5
    endloop
  endfacet
  facet normal 0 0 -1
    outer loop
      vertex 18.8269 -2.64771 -7.5
      vertex 1 0 -7.5
      vertex 20.4481 -2.12097 -7.5
    endloop
  endfacet
  facet normal 0 0 -1
    outer loop
      vertex 20.4481 -2.12097 -7.5
      vertex 1 0 -7.5
      vertex 79.5 0 -7.5
    endloop
  endfacet
  facet normal -0 0 -1
    outer loop
      vertex -1 -2.00962 -7.5
      vertex -18.8269 -2.64771 -7.5
      vertex -1 0 -7.5
    endloop
  endfacet
  facet normal 0 0 -1
    outer loop
      vertex -20.4481 -2.12097 -7.5
      vertex -1 0 -7.5
      vertex -18.8269 -2.64771 -7.5
    endloop
  endfacet
  facet normal 0 0 -1
    outer loop
      vertex -72.5 -5 -7.5
      vertex -21.45 -3.5 -7.5
      vertex -72.5 -7 -7.5
    endloop
  endfacet
  facet normal -0 0 -1
    outer loop
      vertex -21.45 -3.5 -7.5
      vertex -72.5 -5 -7.5
      vertex -20.4481 -2.12097 -7.5
    endloop
  endfacet
  facet normal 0 0 -1
    outer loop
      vertex -79.5 0 -7.5
      vertex -20.4481 -2.12097 -7.5
      vertex -72.5 -5 -7.5
    endloop
  endfacet
  facet normal 0 0 -1
    outer loop
      vertex -79.5 0 -7.5
      vertex -72.5 -5 -7.5
      vertex -74.5 -5 -7.5
    endloop
  endfacet
  facet normal 0 0 -1
    outer loop
      vertex -20.4481 -2.12097 -7.5
      vertex -79.5 0 -7.5
      vertex -1 0 -7.5
    endloop
  endfacet
  facet normal 0 0 -1
    outer loop
      vertex -79.5 0 -7.5
      vertex -74.5 -5 -7.5
      vertex -79.5 -7 -7.5
    endloop
  endfacet
  facet normal 0 -1 0
    outer loop
      vertex -79.5 -7 -7.5
      vertex -74.5 -7 7.5
      vertex -79.5 -7 7.5
    endloop
  endfacet
  facet normal 0 -1 -0
    outer loop
      vertex -74.5 -7 7.5
      vertex -79.5 -7 -7.5
      vertex -74.5 -7 -7.5
    endloop
  endfacet
  facet normal 0 -1 0
    outer loop
      vertex 74.5 -7 -7.5
      vertex 79.5 -7 7.5
      vertex 74.5 -7 7.5
    endloop
  endfacet
  facet normal 0 -1 -0
    outer loop
      vertex 79.5 -7 7.5
      vertex 74.5 -7 -7.5
      vertex 79.5 -7 -7.5
    endloop
  endfacet
  facet normal 0 -1 0
    outer loop
      vertex 62.2865 -7 0.881678
      vertex 72.5 -7 7.5
      vertex -62.2865 -7 0.881678
    endloop
  endfacet
  facet normal 0 -1 0
    outer loop
      vertex 72.5 -7 7.5
      vertex 62.2865 -7 0.881678
      vertex 63.9635 -7 1.42658
    endloop
  endfacet
  facet normal 0 -1 0
    outer loop
      vertex -62.2865 -7 -0.881678
      vertex 62.2865 -7 0.881678
      vertex -62.2865 -7 0.881678
    endloop
  endfacet
  facet normal 0 -1 0
    outer loop
      vertex -62.2865 -7 -0.881678
      vertex 62.2865 -7 -0.881678
      vertex 62.2865 -7 0.881678
    endloop
  endfacet
  facet normal 0 -1 0
    outer loop
      vertex -72.5 -7 -7.5
      vertex -62.2865 -7 -0.881678
      vertex -63.9635 -7 -1.42658
    endloop
  endfacet
  facet normal 0 -1 -0
    outer loop
      vertex -62.2865 -7 -0.881678
      vertex -72.5 -7 -7.5
      vertex 62.2865 -7 -0.881678
    endloop
  endfacet
  facet normal 0 -1 0
    outer loop
      vertex -62.2865 -7 0.881678
      vertex -72.5 -7 7.5
      vertex -63.9635 -7 1.42658
    endloop
  endfacet
  facet normal 0 -1 0
    outer loop
      vertex -72.5 -7 7.5
      vertex -65 -7 2.22045e-16
      vertex -63.9635 -7 1.42658
    endloop
  endfacet
  facet normal 0 -1 0
    outer loop
      vertex -72.5 -7 -7.5
      vertex -65 -7 2.22045e-16
      vertex -72.5 -7 7.5
    endloop
  endfacet
  facet normal 0 -1 0
    outer loop
      vertex 72.5 -7 -7.5
      vertex 62.2865 -7 -0.881678
      vertex -72.5 -7 -7.5
    endloop
  endfacet
  facet normal 0 -1 -0
    outer loop
      vertex -65 -7 2.22045e-16
      vertex -72.5 -7 -7.5
      vertex -63.9635 -7 -1.42658
    endloop
  endfacet
  facet normal 0 -1 0
    outer loop
      vertex -72.5 -7 7.5
      vertex -62.2865 -7 0.881678
      vertex 72.5 -7 7.5
    endloop
  endfacet
  facet normal 0 -1 0
    outer loop
      vertex 65 -7 2.22045e-16
      vertex 72.5 -7 7.5
      vertex 63.9635 -7 1.42658
    endloop
  endfacet
  facet normal 0 -1 0
    outer loop
      vertex 72.5 -7 -7.5
      vertex 65 -7 2.22045e-16
      vertex 63.9635 -7 -1.42658
    endloop
  endfacet
  facet normal 0 -1 0
    outer loop
      vertex 65 -7 2.22045e-16
      vertex 72.5 -7 -7.5
      vertex 72.5 -7 7.5
    endloop
  endfacet
  facet normal 0 -1 0
    outer loop
      vertex 62.2865 -7 -0.881678
      vertex 72.5 -7 -7.5
      vertex 63.9635 -7 -1.42658
    endloop
  endfacet
  facet normal 1 0 -0
    outer loop
      vertex -1 0 0
      vertex -1 0 7.5
      vertex -1 -2.00962 7.5
    endloop
  endfacet
  facet normal -1 -0 -0
    outer loop
      vertex 1 0 7.5
      vertex 1 0 0
      vertex 1 -2.00962 7.5
    endloop
  endfacet
  facet normal 0 0.965926 0.258819
    outer loop
      vertex 1 0 0
      vertex -1 -2.00962 7.5
      vertex 1 -2.00962 7.5
    endloop
  endfacet
  facet normal 0 0.965926 0.258819
    outer loop
      vertex -1 -2.00962 7.5
      vertex 1 0 0
      vertex -1 0 0
    endloop
  endfacet
  facet normal -1 0 -0
    outer loop
      vertex 1 0 0
      vertex 1 0 -7.5
      vertex 1 -2.00962 -7.5
    endloop
  endfacet
  facet normal 0 0.965926 -0.258819
    outer loop
      vertex 1 -2.00962 -7.5
      vertex -1 0 0
      vertex 1 0 0
    endloop
  endfacet
  facet normal 0 0.965926 -0.258819
    outer loop
      vertex -1 0 0
      vertex 1 -2.00962 -7.5
      vertex -1 -2.00962 -7.5
    endloop
  endfacet
  facet normal 1 0 -0
    outer loop
      vertex -1 0 -7.5
      vertex -1 0 0
      vertex -1 -2.00962 -7.5
    endloop
  endfacet
  facet normal 0.92388 0.382682 0
    outer loop
      vertex 63.5 -3 14.4
      vertex 62.7678 -1.23223 7.5
      vertex 62.7678 -1.23223 14.4
    endloop
  endfacet
  facet normal 0.92388 0.382682 0
    outer loop
      vertex 62.7678 -1.23223 7.5
      vertex 63.5 -3 14.4
      vertex 63.5 -3 7.5
    endloop
  endfacet
  facet normal -0.92388 0.382683 0
    outer loop
      vertex 58.5 -3 7.5
      vertex 59.2322 -1.23223 14.4
      vertex 59.2322 -1.23223 7.5
    endloop
  endfacet
  facet normal -0.92388 0.382683 0
    outer loop
      vertex 59.2322 -1.23223 14.4
      vertex 58.5 -3 7.5
      vertex 58.5 -3 14.4
    endloop
  endfacet
  facet normal -0.382683 0.92388 0
    outer loop
      vertex 61 -0.5 7.5
      vertex 59.2322 -1.23223 14.4
      vertex 61 -0.5 14.4
    endloop
  endfacet
  facet normal -0.382683 0.92388 0
    outer loop
      vertex 59.2322 -1.23223 14.4
      vertex 61 -0.5 7.5
      vertex 59.2322 -1.23223 7.5
    endloop
  endfacet
  facet normal 0.382683 0.92388 -0
    outer loop
      vertex 62.7678 -1.23223 7.5
      vertex 61 -0.5 14.4
      vertex 62.7678 -1.23223 14.4
    endloop
  endfacet
  facet normal 0.382683 0.92388 0
    outer loop
      vertex 61 -0.5 14.4
      vertex 62.7678 -1.23223 7.5
      vertex 61 -0.5 7.5
    endloop
  endfacet
  facet normal 0 0 1
    outer loop
      vertex 62.7678 -1.23223 14.4
      vertex 62.7678 -4.76777 14.4
      vertex 63.5 -3 14.4
    endloop
  endfacet
  facet normal 0 0 1
    outer loop
      vertex 61 -0.5 14.4
      vertex 62.7678 -4.76777 14.4
      vertex 62.7678 -1.23223 14.4
    endloop
  endfacet
  facet normal 0 0 1
    outer loop
      vertex 61 -0.5 14.4
      vertex 61 -5.5 14.4
      vertex 62.7678 -4.76777 14.4
    endloop
  endfacet
  facet normal -0 0 1
    outer loop
      vertex 59.2322 -1.23223 14.4
      vertex 61 -5.5 14.4
      vertex 61 -0.5 14.4
    endloop
  endfacet
  facet normal 0 0 1
    outer loop
      vertex 59.2322 -1.23223 14.4
      vertex 59.2322 -4.76777 14.4
      vertex 61 -5.5 14.4
    endloop
  endfacet
  facet normal 0 -0 1
    outer loop
      vertex 59.2322 -4.76777 14.4
      vertex 59.2322 -1.23223 14.4
      vertex 58.5 -3 14.4
    endloop
  endfacet
  facet normal 0.382683 -0.92388 0
    outer loop
      vertex 61 -5.5 7.5
      vertex 62.7678 -4.76777 14.4
      vertex 61 -5.5 14.4
    endloop
  endfacet
  facet normal 0.382683 -0.92388 0
    outer loop
      vertex 62.7678 -4.76777 14.4
      vertex 61 -5.5 7.5
      vertex 62.7678 -4.76777 7.5
    endloop
  endfacet
  facet normal -0.92388 -0.382682 0
    outer loop
      vertex 59.2322 -4.76777 7.5
      vertex 58.5 -3 14.4
      vertex 58.5 -3 7.5
    endloop
  endfacet
  facet normal -0.92388 -0.382682 0
    outer loop
      vertex 58.5 -3 14.4
      vertex 59.2322 -4.76777 7.5
      vertex 59.2322 -4.76777 14.4
    endloop
  endfacet
  facet normal 0.92388 -0.382683 0
    outer loop
      vertex 62.7678 -4.76777 14.4
      vertex 63.5 -3 7.5
      vertex 63.5 -3 14.4
    endloop
  endfacet
  facet normal 0.92388 -0.382683 0
    outer loop
      vertex 63.5 -3 7.5
      vertex 62.7678 -4.76777 14.4
      vertex 62.7678 -4.76777 7.5
    endloop
  endfacet
  facet normal -0.382683 -0.92388 0
    outer loop
      vertex 59.2322 -4.76777 7.5
      vertex 61 -5.5 14.4
      vertex 59.2322 -4.76777 14.4
    endloop
  endfacet
  facet normal -0.382683 -0.92388 -0
    outer loop
      vertex 61 -5.5 14.4
      vertex 59.2322 -4.76777 7.5
      vertex 61 -5.5 7.5
    endloop
  endfacet
  facet normal 0.92388 0.382682 0
    outer loop
      vertex 72.5 -3 14.4
      vertex 71.7678 -1.23223 7.5
      vertex 71.7678 -1.23223 14.4
    endloop
  endfacet
  facet normal 0.92388 0.382682 0
    outer loop
      vertex 71.7678 -1.23223 7.5
      vertex 72.5 -3 14.4
      vertex 72.5 -3 7.5
    endloop
  endfacet
  facet normal -0.382683 0.92388 0
    outer loop
      vertex 70 -0.5 7.5
      vertex 68.2322 -1.23223 14.4
      vertex 70 -0.5 14.4
    endloop
  endfacet
  facet normal -0.382683 0.92388 0
    outer loop
      vertex 68.2322 -1.23223 14.4
      vertex 70 -0.5 7.5
      vertex 68.2322 -1.23223 7.5
    endloop
  endfacet
  facet normal 0.382683 0.92388 -0
    outer loop
      vertex 71.7678 -1.23223 7.5
      vertex 70 -0.5 14.4
      vertex 71.7678 -1.23223 14.4
    endloop
  endfacet
  facet normal 0.382683 0.92388 0
    outer loop
      vertex 70 -0.5 14.4
      vertex 71.7678 -1.23223 7.5
      vertex 70 -0.5 7.5
    endloop
  endfacet
  facet normal 0 0 1
    outer loop
      vertex 71.7678 -1.23223 14.4
      vertex 71.7678 -4.76777 14.4
      vertex 72.5 -3 14.4
    endloop
  endfacet
  facet normal 0 0 1
    outer loop
      vertex 70 -0.5 14.4
      vertex 71.7678 -4.76777 14.4
      vertex 71.7678 -1.23223 14.4
    endloop
  endfacet
  facet normal 0 0 1
    outer loop
      vertex 70 -0.5 14.4
      vertex 70 -5.5 14.4
      vertex 71.7678 -4.76777 14.4
    endloop
  endfacet
  facet normal -0 0 1
    outer loop
      vertex 68.2322 -1.23223 14.4
      vertex 70 -5.5 14.4
      vertex 70 -0.5 14.4
    endloop
  endfacet
  facet normal 0 0 1
    outer loop
      vertex 68.2322 -1.23223 14.4
      vertex 68.2322 -4.76777 14.4
      vertex 70 -5.5 14.4
    endloop
  endfacet
  facet normal 0 -0 1
    outer loop
      vertex 68.2322 -4.76777 14.4
      vertex 68.2322 -1.23223 14.4
      vertex 67.5 -3 14.4
    endloop
  endfacet
  facet normal -0.92388 0.382683 0
    outer loop
      vertex 67.5 -3 7.5
      vertex 68.2322 -1.23223 14.4
      vertex 68.2322 -1.23223 7.5
    endloop
  endfacet
  facet normal -0.92388 0.382683 0
    outer loop
      vertex 68.2322 -1.23223 14.4
      vertex 67.5 -3 7.5
      vertex 67.5 -3 14.4
    endloop
  endfacet
  facet normal 0.92388 -0.382683 0
    outer loop
      vertex 71.7678 -4.76777 14.4
      vertex 72.5 -3 7.5
      vertex 72.5 -3 14.4
    endloop
  endfacet
  facet normal 0.92388 -0.382683 0
    outer loop
      vertex 72.5 -3 7.5
      vertex 71.7678 -4.76777 14.4
      vertex 71.7678 -4.76777 7.5
    endloop
  endfacet
  facet normal -0.382683 -0.92388 0
    outer loop
      vertex 68.2322 -4.76777 7.5
      vertex 70 -5.5 14.4
      vertex 68.2322 -4.76777 14.4
    endloop
  endfacet
  facet normal -0.382683 -0.92388 -0
    outer loop
      vertex 70 -5.5 14.4
      vertex 68.2322 -4.76777 7.5
      vertex 70 -5.5 7.5
    endloop
  endfacet
  facet normal -0.92388 -0.382682 0
    outer loop
      vertex 68.2322 -4.76777 7.5
      vertex 67.5 -3 14.4
      vertex 67.5 -3 7.5
    endloop
  endfacet
  facet normal -0.92388 -0.382682 0
    outer loop
      vertex 67.5 -3 14.4
      vertex 68.2322 -4.76777 7.5
      vertex 68.2322 -4.76777 14.4
    endloop
  endfacet
  facet normal 0.382683 -0.92388 0
    outer loop
      vertex 70 -5.5 7.5
      vertex 71.7678 -4.76777 14.4
      vertex 70 -5.5 14.4
    endloop
  endfacet
  facet normal 0.382683 -0.92388 0
    outer loop
      vertex 71.7678 -4.76777 14.4
      vertex 70 -5.5 7.5
      vertex 71.7678 -4.76777 7.5
    endloop
  endfacet
  facet normal 0.92388 0.382682 0
    outer loop
      vertex -67.5 -3 14.4
      vertex -68.2322 -1.23223 7.5
      vertex -68.2322 -1.23223 14.4
    endloop
  endfacet
  facet normal 0.92388 0.382682 0
    outer loop
      vertex -68.2322 -1.23223 7.5
      vertex -67.5 -3 14.4
      vertex -67.5 -3 7.5
    endloop
  endfacet
  facet normal -0.92388 0.382683 0
    outer loop
      vertex -72.5 -3 7.5
      vertex -71.7678 -1.23223 14.4
      vertex -71.7678 -1.23223 7.5
    endloop
  endfacet
  facet normal -0.92388 0.382683 0
    outer loop
      vertex -71.7678 -1.23223 14.4
      vertex -72.5 -3 7.5
      vertex -72.5 -3 14.4
    endloop
  endfacet
  facet normal -0.382683 0.92388 0
    outer loop
      vertex -70 -0.5 7.5
      vertex -71.7678 -1.23223 14.4
      vertex -70 -0.5 14.4
    endloop
  endfacet
  facet normal -0.382683 0.92388 0
    outer loop
      vertex -71.7678 -1.23223 14.4
      vertex -70 -0.5 7.5
      vertex -71.7678 -1.23223 7.5
    endloop
  endfacet
  facet normal 0.382683 0.92388 -0
    outer loop
      vertex -68.2322 -1.23223 7.5
      vertex -70 -0.5 14.4
      vertex -68.2322 -1.23223 14.4
    endloop
  endfacet
  facet normal 0.382683 0.92388 0
    outer loop
      vertex -70 -0.5 14.4
      vertex -68.2322 -1.23223 7.5
      vertex -70 -0.5 7.5
    endloop
  endfacet
  facet normal 0 0 1
    outer loop
      vertex -68.2322 -1.23223 14.4
      vertex -68.2322 -4.76777 14.4
      vertex -67.5 -3 14.4
    endloop
  endfacet
  facet normal 0 0 1
    outer loop
      vertex -70 -0.5 14.4
      vertex -68.2322 -4.76777 14.4
      vertex -68.2322 -1.23223 14.4
    endloop
  endfacet
  facet normal 0 0 1
    outer loop
      vertex -70 -0.5 14.4
      vertex -70 -5.5 14.4
      vertex -68.2322 -4.76777 14.4
    endloop
  endfacet
  facet normal -0 0 1
    outer loop
      vertex -71.7678 -1.23223 14.4
      vertex -70 -5.5 14.4
      vertex -70 -0.5 14.4
    endloop
  endfacet
  facet normal 0 0 1
    outer loop
      vertex -71.7678 -1.23223 14.4
      vertex -71.7678 -4.76777 14.4
      vertex -70 -5.5 14.4
    endloop
  endfacet
  facet normal 0 -0 1
    outer loop
      vertex -71.7678 -4.76777 14.4
      vertex -71.7678 -1.23223 14.4
      vertex -72.5 -3 14.4
    endloop
  endfacet
  facet normal 0.92388 -0.382683 0
    outer loop
      vertex -68.2322 -4.76777 14.4
      vertex -67.5 -3 7.5
      vertex -67.5 -3 14.4
    endloop
  endfacet
  facet normal 0.92388 -0.382683 0
    outer loop
      vertex -67.5 -3 7.5
      vertex -68.2322 -4.76777 14.4
      vertex -68.2322 -4.76777 7.5
    endloop
  endfacet
  facet normal 0.382683 -0.92388 0
    outer loop
      vertex -70 -5.5 7.5
      vertex -68.2322 -4.76777 14.4
      vertex -70 -5.5 14.4
    endloop
  endfacet
  facet normal 0.382683 -0.92388 0
    outer loop
      vertex -68.2322 -4.76777 14.4
      vertex -70 -5.5 7.5
      vertex -68.2322 -4.76777 7.5
    endloop
  endfacet
  facet normal -0.92388 -0.382682 0
    outer loop
      vertex -71.7678 -4.76777 7.5
      vertex -72.5 -3 14.4
      vertex -72.5 -3 7.5
    endloop
  endfacet
  facet normal -0.92388 -0.382682 0
    outer loop
      vertex -72.5 -3 14.4
      vertex -71.7678 -4.76777 7.5
      vertex -71.7678 -4.76777 14.4
    endloop
  endfacet
  facet normal -0.382683 -0.92388 0
    outer loop
      vertex -71.7678 -4.76777 7.5
      vertex -70 -5.5 14.4
      vertex -71.7678 -4.76777 14.4
    endloop
  endfacet
  facet normal -0.382683 -0.92388 -0
    outer loop
      vertex -70 -5.5 14.4
      vertex -71.7678 -4.76777 7.5
      vertex -70 -5.5 7.5
    endloop
  endfacet
  facet normal 0.92388 0.382682 0
    outer loop
      vertex -58.5 -3 14.4
      vertex -59.2322 -1.23223 7.5
      vertex -59.2322 -1.23223 14.4
    endloop
  endfacet
  facet normal 0.92388 0.382682 0
    outer loop
      vertex -59.2322 -1.23223 7.5
      vertex -58.5 -3 14.4
      vertex -58.5 -3 7.5
    endloop
  endfacet
  facet normal -0.382683 0.92388 0
    outer loop
      vertex -61 -0.5 7.5
      vertex -62.7678 -1.23223 14.4
      vertex -61 -0.5 14.4
    endloop
  endfacet
  facet normal -0.382683 0.92388 0
    outer loop
      vertex -62.7678 -1.23223 14.4
      vertex -61 -0.5 7.5
      vertex -62.7678 -1.23223 7.5
    endloop
  endfacet
  facet normal 0.382683 0.92388 -0
    outer loop
      vertex -59.2322 -1.23223 7.5
      vertex -61 -0.5 14.4
      vertex -59.2322 -1.23223 14.4
    endloop
  endfacet
  facet normal 0.382683 0.92388 0
    outer loop
      vertex -61 -0.5 14.4
      vertex -59.2322 -1.23223 7.5
      vertex -61 -0.5 7.5
    endloop
  endfacet
  facet normal 0 0 1
    outer loop
      vertex -59.2322 -1.23223 14.4
      vertex -59.2322 -4.76777 14.4
      vertex -58.5 -3 14.4
    endloop
  endfacet
  facet normal 0 0 1
    outer loop
      vertex -61 -0.5 14.4
      vertex -59.2322 -4.76777 14.4
      vertex -59.2322 -1.23223 14.4
    endloop
  endfacet
  facet normal 0 0 1
    outer loop
      vertex -61 -0.5 14.4
      vertex -61 -5.5 14.4
      vertex -59.2322 -4.76777 14.4
    endloop
  endfacet
  facet normal -0 0 1
    outer loop
      vertex -62.7678 -1.23223 14.4
      vertex -61 -5.5 14.4
      vertex -61 -0.5 14.4
    endloop
  endfacet
  facet normal 0 0 1
    outer loop
      vertex -62.7678 -1.23223 14.4
      vertex -62.7678 -4.76777 14.4
      vertex -61 -5.5 14.4
    endloop
  endfacet
  facet normal 0 -0 1
    outer loop
      vertex -62.7678 -4.76777 14.4
      vertex -62.7678 -1.23223 14.4
      vertex -63.5 -3 14.4
    endloop
  endfacet
  facet normal -0.92388 0.382683 0
    outer loop
      vertex -63.5 -3 7.5
      vertex -62.7678 -1.23223 14.4
      vertex -62.7678 -1.23223 7.5
    endloop
  endfacet
  facet normal -0.92388 0.382683 0
    outer loop
      vertex -62.7678 -1.23223 14.4
      vertex -63.5 -3 7.5
      vertex -63.5 -3 14.4
    endloop
  endfacet
  facet normal 0.92388 -0.382683 0
    outer loop
      vertex -59.2322 -4.76777 14.4
      vertex -58.5 -3 7.5
      vertex -58.5 -3 14.4
    endloop
  endfacet
  facet normal 0.92388 -0.382683 0
    outer loop
      vertex -58.5 -3 7.5
      vertex -59.2322 -4.76777 14.4
      vertex -59.2322 -4.76777 7.5
    endloop
  endfacet
  facet normal -0.382683 -0.92388 0
    outer loop
      vertex -62.7678 -4.76777 7.5
      vertex -61 -5.5 14.4
      vertex -62.7678 -4.76777 14.4
    endloop
  endfacet
  facet normal -0.382683 -0.92388 -0
    outer loop
      vertex -61 -5.5 14.4
      vertex -62.7678 -4.76777 7.5
      vertex -61 -5.5 7.5
    endloop
  endfacet
  facet normal -0.92388 -0.382682 0
    outer loop
      vertex -62.7678 -4.76777 7.5
      vertex -63.5 -3 14.4
      vertex -63.5 -3 7.5
    endloop
  endfacet
  facet normal -0.92388 -0.382682 0
    outer loop
      vertex -63.5 -3 14.4
      vertex -62.7678 -4.76777 7.5
      vertex -62.7678 -4.76777 14.4
    endloop
  endfacet
  facet normal 0.382683 -0.92388 0
    outer loop
      vertex -61 -5.5 7.5
      vertex -59.2322 -4.76777 14.4
      vertex -61 -5.5 14.4
    endloop
  endfacet
  facet normal 0.382683 -0.92388 0
    outer loop
      vertex -59.2322 -4.76777 14.4
      vertex -61 -5.5 7.5
      vertex -59.2322 -4.76777 7.5
    endloop
  endfacet
endsolid OpenSCAD_Model
