solid OpenSCAD_Model
  facet normal 0 -1 0
    outer loop
      vertex 45.725 4.4 2.20836
      vertex 47 4.4 9
      vertex 40 4.4 9
    endloop
  endfacet
  facet normal -0 -1 0
    outer loop
      vertex 47 4.4 2.55
      vertex 47 4.4 9
      vertex 45.725 4.4 2.20836
    endloop
  endfacet
  facet normal 0 -1 0
    outer loop
      vertex 48.275 4.4 2.20836
      vertex 49.0027 4.4 8.77435
      vertex 47 4.4 2.55
    endloop
  endfacet
  facet normal 0 -1 -0
    outer loop
      vertex 49.0027 4.4 8.77435
      vertex 48.275 4.4 2.20836
      vertex 50.905 4.4 8.10873
    endloop
  endfacet
  facet normal 0 -1 -0
    outer loop
      vertex 50.905 4.4 8.10873
      vertex 48.275 4.4 2.20836
      vertex 52.6114 4.4 7.03648
    endloop
  endfacet
  facet normal 0 -1 -0
    outer loop
      vertex 52.6114 4.4 7.03648
      vertex 48.275 4.4 2.20836
      vertex 54.0365 4.4 5.61142
    endloop
  endfacet
  facet normal 0 -1 0
    outer loop
      vertex 47 4.4 9
      vertex 47 4.4 2.55
      vertex 49.0027 4.4 8.77435
    endloop
  endfacet
  facet normal 0 -1 0
    outer loop
      vertex 40 4.4 9
      vertex 44.7916 4.4 1.275
      vertex 45.725 4.4 2.20836
    endloop
  endfacet
  facet normal 0 -1 0
    outer loop
      vertex 40 4.4 -3.21056
      vertex 44.7916 4.4 1.275
      vertex 40 4.4 9
    endloop
  endfacet
  facet normal 0 -1 0
    outer loop
      vertex 44.7916 4.4 1.275
      vertex 40 4.4 -3.21056
      vertex 44.45 4.4 0
    endloop
  endfacet
  facet normal 0 -1 -0
    outer loop
      vertex 45.725 4.4 -2.20836
      vertex 40 4.4 -3.21056
      vertex 47 4.4 -2.55
    endloop
  endfacet
  facet normal 0 -1 -0
    outer loop
      vertex 44.7916 4.4 -1.275
      vertex 40 4.4 -3.21056
      vertex 45.725 4.4 -2.20836
    endloop
  endfacet
  facet normal 0 -1 -0
    outer loop
      vertex 44.45 4.4 0
      vertex 40 4.4 -3.21056
      vertex 44.7916 4.4 -1.275
    endloop
  endfacet
  facet normal 0 -1 0
    outer loop
      vertex 49.2084 4.4 1.275
      vertex 54.0365 4.4 5.61142
      vertex 48.275 4.4 2.20836
    endloop
  endfacet
  facet normal 0 -1 -0
    outer loop
      vertex 54.0365 4.4 5.61142
      vertex 49.2084 4.4 1.275
      vertex 55.1087 4.4 3.90497
    endloop
  endfacet
  facet normal 0 -1 -0
    outer loop
      vertex 55.1087 4.4 3.90497
      vertex 49.2084 4.4 1.275
      vertex 55.7744 4.4 2.0027
    endloop
  endfacet
  facet normal 0 -1 0
    outer loop
      vertex 49.55 4.4 0
      vertex 55.7744 4.4 2.0027
      vertex 49.2084 4.4 1.275
    endloop
  endfacet
  facet normal 0 -1 0
    outer loop
      vertex 49.55 4.4 0
      vertex 56 4.4 0
      vertex 55.7744 4.4 2.0027
    endloop
  endfacet
  facet normal 0 -1 0
    outer loop
      vertex 49.2084 4.4 -1.275
      vertex 56 4.4 0
      vertex 49.55 4.4 0
    endloop
  endfacet
  facet normal 0 -1 0
    outer loop
      vertex 56 4.4 -3.21056
      vertex 49.2084 4.4 -1.275
      vertex 48.275 4.4 -2.20836
    endloop
  endfacet
  facet normal 0 -1 0
    outer loop
      vertex 49.2084 4.4 -1.275
      vertex 56 4.4 -3.21056
      vertex 56 4.4 0
    endloop
  endfacet
  facet normal 0 -1 0
    outer loop
      vertex 47 4.4 -2.55
      vertex 56 4.4 -3.21056
      vertex 48.275 4.4 -2.20836
    endloop
  endfacet
  facet normal 0 -1 0
    outer loop
      vertex 56 4.4 -3.21056
      vertex 47 4.4 -2.55
      vertex 40 4.4 -3.21056
    endloop
  endfacet
  facet normal 0 1 0
    outer loop
      vertex 49.0027 -4.4 8.77435
      vertex 48.275 -4.4 2.20836
      vertex 47 -4.4 2.55
    endloop
  endfacet
  facet normal 0 1 0
    outer loop
      vertex 49.2084 -4.4 1.275
      vertex 55.1087 -4.4 3.90497
      vertex 55.7744 -4.4 2.0027
    endloop
  endfacet
  facet normal 0 1 0
    outer loop
      vertex 54.0365 -4.4 5.61142
      vertex 49.2084 -4.4 1.275
      vertex 48.275 -4.4 2.20836
    endloop
  endfacet
  facet normal 0 1 0
    outer loop
      vertex 49.55 -4.4 0
      vertex 55.7744 -4.4 2.0027
      vertex 56 -4.4 0
    endloop
  endfacet
  facet normal 0 1 0
    outer loop
      vertex 55.7744 -4.4 2.0027
      vertex 49.55 -4.4 0
      vertex 49.2084 -4.4 1.275
    endloop
  endfacet
  facet normal 0 1 0
    outer loop
      vertex 56 -4.4 0
      vertex 49.2084 -4.4 -1.275
      vertex 49.55 -4.4 0
    endloop
  endfacet
  facet normal 0 1 -0
    outer loop
      vertex 56 -4.4 -3.21056
      vertex 49.2084 -4.4 -1.275
      vertex 56 -4.4 0
    endloop
  endfacet
  facet normal 0 1 0
    outer loop
      vertex 48.275 -4.4 -2.20836
      vertex 56 -4.4 -3.21056
      vertex 47 -4.4 -2.55
    endloop
  endfacet
  facet normal 0 1 0
    outer loop
      vertex 49.2084 -4.4 -1.275
      vertex 56 -4.4 -3.21056
      vertex 48.275 -4.4 -2.20836
    endloop
  endfacet
  facet normal 0 1 0
    outer loop
      vertex 47 -4.4 2.55
      vertex 47 -4.4 9
      vertex 49.0027 -4.4 8.77435
    endloop
  endfacet
  facet normal 0 1 0
    outer loop
      vertex 48.275 -4.4 2.20836
      vertex 49.0027 -4.4 8.77435
      vertex 50.905 -4.4 8.10873
    endloop
  endfacet
  facet normal 0 1 0
    outer loop
      vertex 48.275 -4.4 2.20836
      vertex 50.905 -4.4 8.10873
      vertex 52.6114 -4.4 7.03648
    endloop
  endfacet
  facet normal 0 1 0
    outer loop
      vertex 48.275 -4.4 2.20836
      vertex 52.6114 -4.4 7.03648
      vertex 54.0365 -4.4 5.61142
    endloop
  endfacet
  facet normal 0 1 0
    outer loop
      vertex 49.2084 -4.4 1.275
      vertex 54.0365 -4.4 5.61142
      vertex 55.1087 -4.4 3.90497
    endloop
  endfacet
  facet normal 0 1 0
    outer loop
      vertex 47 -4.4 9
      vertex 47 -4.4 2.55
      vertex 45.725 -4.4 2.20836
    endloop
  endfacet
  facet normal 0 1 0
    outer loop
      vertex 47 -4.4 9
      vertex 45.725 -4.4 2.20836
      vertex 40 -4.4 9
    endloop
  endfacet
  facet normal 0 1 -0
    outer loop
      vertex 44.7916 -4.4 1.275
      vertex 40 -4.4 9
      vertex 45.725 -4.4 2.20836
    endloop
  endfacet
  facet normal 0 1 0
    outer loop
      vertex 40 -4.4 -3.21056
      vertex 44.7916 -4.4 1.275
      vertex 44.45 -4.4 0
    endloop
  endfacet
  facet normal 0 1 0
    outer loop
      vertex 40 -4.4 -3.21056
      vertex 44.45 -4.4 0
      vertex 44.7916 -4.4 -1.275
    endloop
  endfacet
  facet normal 0 1 0
    outer loop
      vertex 44.7916 -4.4 1.275
      vertex 40 -4.4 -3.21056
      vertex 40 -4.4 9
    endloop
  endfacet
  facet normal 0 1 0
    outer loop
      vertex 45.725 -4.4 -2.20836
      vertex 40 -4.4 -3.21056
      vertex 44.7916 -4.4 -1.275
    endloop
  endfacet
  facet normal 0 1 0
    outer loop
      vertex 47 -4.4 -2.55
      vertex 40 -4.4 -3.21056
      vertex 45.725 -4.4 -2.20836
    endloop
  endfacet
  facet normal 0 1 0
    outer loop
      vertex 40 -4.4 -3.21056
      vertex 47 -4.4 -2.55
      vertex 56 -4.4 -3.21056
    endloop
  endfacet
  facet normal 0 0 1
    outer loop
      vertex 47 6.26649 9
      vertex 40 4.4 9
      vertex 47 4.4 9
    endloop
  endfacet
  facet normal 0 0 1
    outer loop
      vertex 40 4.4 9
      vertex 38 6.26649 9
      vertex 40 -4.4 9
    endloop
  endfacet
  facet normal -0 0 1
    outer loop
      vertex 38 6.26649 9
      vertex 40 4.4 9
      vertex 47 6.26649 9
    endloop
  endfacet
  facet normal -0 0 1
    outer loop
      vertex 40 -4.4 9
      vertex 47 -6.26649 9
      vertex 47 -4.4 9
    endloop
  endfacet
  facet normal 0 0 1
    outer loop
      vertex 40 -4.4 9
      vertex 38 -6.26649 9
      vertex 47 -6.26649 9
    endloop
  endfacet
  facet normal 0 0 1
    outer loop
      vertex 38 -6.26649 9
      vertex 40 -4.4 9
      vertex 38 6.26649 9
    endloop
  endfacet
  facet normal 1 0 0
    outer loop
      vertex 56 7.225 -3.87106
      vertex 56 8.65 -3.50924
      vertex 56 8.65 0
    endloop
  endfacet
  facet normal 1 0 0
    outer loop
      vertex 56 8.65 -3.50924
      vertex 56 8.05 -5.3
      vertex 56 8.45061 -7.35061
    endloop
  endfacet
  facet normal 1 -0 0
    outer loop
      vertex 56 7.82894 -6.125
      vertex 56 8.45061 -7.35061
      vertex 56 8.05 -5.3
    endloop
  endfacet
  facet normal 1 0 0
    outer loop
      vertex 56 8.65 -3.50924
      vertex 56 7.82894 -4.475
      vertex 56 8.05 -5.3
    endloop
  endfacet
  facet normal 1 0 0
    outer loop
      vertex 56 8.65 -3.50924
      vertex 56 7.225 -3.87106
      vertex 56 7.82894 -4.475
    endloop
  endfacet
  facet normal 1 0 0
    outer loop
      vertex 56 8.65 0
      vertex 56 6.4 -3.65
      vertex 56 7.225 -3.87106
    endloop
  endfacet
  facet normal 1 -0 0
    outer loop
      vertex 56 4.4 0
      vertex 56 6.4 -3.65
      vertex 56 8.65 0
    endloop
  endfacet
  facet normal 1 -0 0
    outer loop
      vertex 56 4.4 -3.21056
      vertex 56 6.4 -3.65
      vertex 56 4.4 0
    endloop
  endfacet
  facet normal 1 0 0
    outer loop
      vertex 56 6.4 -3.65
      vertex 56 4.4 -3.21056
      vertex 56 5.575 -3.87106
    endloop
  endfacet
  facet normal 1 0 0
    outer loop
      vertex 56 5.575 -3.87106
      vertex 56 4.4 -3.21056
      vertex 56 4.97106 -4.475
    endloop
  endfacet
  facet normal 1 -0 0
    outer loop
      vertex 56 4.34939 -3.24939
      vertex 56 4.97106 -4.475
      vertex 56 4.4 -3.21056
    endloop
  endfacet
  facet normal 1 -0 0
    outer loop
      vertex 56 3.88853 -3.85
      vertex 56 4.97106 -4.475
      vertex 56 4.34939 -3.24939
    endloop
  endfacet
  facet normal 1 0 0
    outer loop
      vertex 56 3.59881 -4.54942
      vertex 56 4.97106 -4.475
      vertex 56 3.88853 -3.85
    endloop
  endfacet
  facet normal 1 0 0
    outer loop
      vertex 56 4.97106 -4.475
      vertex 56 3.59881 -4.54942
      vertex 56 4.75 -5.3
    endloop
  endfacet
  facet normal 1 0 0
    outer loop
      vertex 56 3.5 -5.3
      vertex 56 4.75 -5.3
      vertex 56 3.59881 -4.54942
    endloop
  endfacet
  facet normal 1 0 0
    outer loop
      vertex 56 4.75 -5.3
      vertex 56 4.34939 -7.35061
      vertex 56 4.54408 -7.5
    endloop
  endfacet
  facet normal 1 0 -0
    outer loop
      vertex 56 3.88853 -6.75
      vertex 56 4.75 -5.3
      vertex 56 3.59881 -6.05057
    endloop
  endfacet
  facet normal 1 0 -0
    outer loop
      vertex 56 4.34939 -7.35061
      vertex 56 4.75 -5.3
      vertex 56 3.88853 -6.75
    endloop
  endfacet
  facet normal 1 0 0
    outer loop
      vertex 56 4.75 -5.3
      vertex 56 3.5 -5.3
      vertex 56 3.59881 -6.05057
    endloop
  endfacet
  facet normal 1 0 0
    outer loop
      vertex 56 8.65 -3.50924
      vertex 56 9.3 -5.3
      vertex 56 9.20118 -4.54942
    endloop
  endfacet
  facet normal 1 0 0
    outer loop
      vertex 56 8.65 -3.50924
      vertex 56 9.20118 -4.54942
      vertex 56 8.91147 -3.85
    endloop
  endfacet
  facet normal 1 0 0
    outer loop
      vertex 56 9.3 -5.3
      vertex 56 8.65 -3.50924
      vertex 56 9.20118 -6.05057
    endloop
  endfacet
  facet normal 1 0 0
    outer loop
      vertex 56 9.20118 -6.05057
      vertex 56 8.65 -3.50924
      vertex 56 8.91147 -6.75
    endloop
  endfacet
  facet normal 1 0 0
    outer loop
      vertex 56 8.91147 -6.75
      vertex 56 8.65 -3.50924
      vertex 56 8.45061 -7.35061
    endloop
  endfacet
  facet normal 1 -0 0
    outer loop
      vertex 56 7.225 -6.72894
      vertex 56 8.45061 -7.35061
      vertex 56 7.82894 -6.125
    endloop
  endfacet
  facet normal 1 0 0
    outer loop
      vertex 56 8.45061 -7.35061
      vertex 56 7.225 -6.72894
      vertex 56 8.25592 -7.5
    endloop
  endfacet
  facet normal 1 -0 0
    outer loop
      vertex 56 6.4 -6.95
      vertex 56 8.25592 -7.5
      vertex 56 7.225 -6.72894
    endloop
  endfacet
  facet normal 1 0 0
    outer loop
      vertex 56 4.54408 -7.5
      vertex 56 6.4 -6.95
      vertex 56 5.575 -6.72894
    endloop
  endfacet
  facet normal 1 0 0
    outer loop
      vertex 56 6.4 -6.95
      vertex 56 4.54408 -7.5
      vertex 56 8.25592 -7.5
    endloop
  endfacet
  facet normal 1 0 0
    outer loop
      vertex 56 4.97106 -6.125
      vertex 56 4.54408 -7.5
      vertex 56 5.575 -6.72894
    endloop
  endfacet
  facet normal 1 0 0
    outer loop
      vertex 56 4.54408 -7.5
      vertex 56 4.97106 -6.125
      vertex 56 4.75 -5.3
    endloop
  endfacet
  facet normal -0.258822 0 -0.965925
    outer loop
      vertex 45.725 4 -2.20836
      vertex 47 4.4 -2.55
      vertex 47 4 -2.55
    endloop
  endfacet
  facet normal -0.258822 0 -0.965925
    outer loop
      vertex 47 4.4 -2.55
      vertex 45.725 4 -2.20836
      vertex 45.725 4.4 -2.20836
    endloop
  endfacet
  facet normal -0.258822 0 0.965925
    outer loop
      vertex 45.725 4.4 2.20836
      vertex 47 4 2.55
      vertex 47 4.4 2.55
    endloop
  endfacet
  facet normal -0.258822 0 0.965925
    outer loop
      vertex 47 4 2.55
      vertex 45.725 4.4 2.20836
      vertex 45.725 4 2.20836
    endloop
  endfacet
  facet normal -0.965932 0 0.258794
    outer loop
      vertex 44.45 4 0
      vertex 44.7916 4.4 1.275
      vertex 44.45 4.4 0
    endloop
  endfacet
  facet normal -0.965932 0 0.258794
    outer loop
      vertex 44.7916 4.4 1.275
      vertex 44.45 4 0
      vertex 44.7916 4 1.275
    endloop
  endfacet
  facet normal -0.707092 0 -0.707122
    outer loop
      vertex 45.725 4 -2.20836
      vertex 44.7916 4.4 -1.275
      vertex 45.725 4.4 -2.20836
    endloop
  endfacet
  facet normal -0.707092 -0 -0.707122
    outer loop
      vertex 44.7916 4.4 -1.275
      vertex 45.725 4 -2.20836
      vertex 44.7916 4 -1.275
    endloop
  endfacet
  facet normal -0.707092 0 0.707122
    outer loop
      vertex 44.7916 4 1.275
      vertex 45.725 4.4 2.20836
      vertex 44.7916 4.4 1.275
    endloop
  endfacet
  facet normal -0.707092 0 0.707122
    outer loop
      vertex 45.725 4.4 2.20836
      vertex 44.7916 4 1.275
      vertex 45.725 4 2.20836
    endloop
  endfacet
  facet normal -0.965932 0 -0.258794
    outer loop
      vertex 44.7916 4 -1.275
      vertex 44.45 4.4 0
      vertex 44.7916 4.4 -1.275
    endloop
  endfacet
  facet normal -0.965932 -0 -0.258794
    outer loop
      vertex 44.45 4.4 0
      vertex 44.7916 4 -1.275
      vertex 44.45 4 0
    endloop
  endfacet
  facet normal 0.258822 0 -0.965925
    outer loop
      vertex 47 4 -2.55
      vertex 48.275 4.4 -2.20836
      vertex 48.275 4 -2.20836
    endloop
  endfacet
  facet normal 0.258822 0 -0.965925
    outer loop
      vertex 48.275 4.4 -2.20836
      vertex 47 4 -2.55
      vertex 47 4.4 -2.55
    endloop
  endfacet
  facet normal 0.258822 0 0.965925
    outer loop
      vertex 47 4.4 2.55
      vertex 48.275 4 2.20836
      vertex 48.275 4.4 2.20836
    endloop
  endfacet
  facet normal 0.258822 0 0.965925
    outer loop
      vertex 48.275 4 2.20836
      vertex 47 4.4 2.55
      vertex 47 4 2.55
    endloop
  endfacet
  facet normal 0.707092 0 -0.707122
    outer loop
      vertex 49.2084 4 -1.275
      vertex 48.275 4.4 -2.20836
      vertex 49.2084 4.4 -1.275
    endloop
  endfacet
  facet normal 0.707092 0 -0.707122
    outer loop
      vertex 48.275 4.4 -2.20836
      vertex 49.2084 4 -1.275
      vertex 48.275 4 -2.20836
    endloop
  endfacet
  facet normal 0 -1 0
    outer loop
      vertex 47 4 1.65
      vertex 47 4 2.55
      vertex 45.725 4 2.20836
    endloop
  endfacet
  facet normal 0 -1 0
    outer loop
      vertex 47 4 2.55
      vertex 47 4 1.65
      vertex 48.275 4 2.20836
    endloop
  endfacet
  facet normal 0 -1 0
    outer loop
      vertex 45.725 4 2.20836
      vertex 46.175 4 1.42894
      vertex 47 4 1.65
    endloop
  endfacet
  facet normal 0 -1 0
    outer loop
      vertex 44.7916 4 1.275
      vertex 46.175 4 1.42894
      vertex 45.725 4 2.20836
    endloop
  endfacet
  facet normal 0 -1 0
    outer loop
      vertex 44.7916 4 1.275
      vertex 45.5711 4 0.825
      vertex 46.175 4 1.42894
    endloop
  endfacet
  facet normal 0 -1 0
    outer loop
      vertex 44.45 4 0
      vertex 45.5711 4 0.825
      vertex 44.7916 4 1.275
    endloop
  endfacet
  facet normal 0 -1 0
    outer loop
      vertex 44.45 4 0
      vertex 45.35 4 0
      vertex 45.5711 4 0.825
    endloop
  endfacet
  facet normal 0 -1 0
    outer loop
      vertex 44.45 4 0
      vertex 45.5711 4 -0.825
      vertex 45.35 4 0
    endloop
  endfacet
  facet normal 0 -1 0
    outer loop
      vertex 44.7916 4 -1.275
      vertex 45.5711 4 -0.825
      vertex 44.45 4 0
    endloop
  endfacet
  facet normal 0 -1 0
    outer loop
      vertex 44.7916 4 -1.275
      vertex 46.175 4 -1.42894
      vertex 45.5711 4 -0.825
    endloop
  endfacet
  facet normal 0 -1 0
    outer loop
      vertex 45.725 4 -2.20836
      vertex 46.175 4 -1.42894
      vertex 44.7916 4 -1.275
    endloop
  endfacet
  facet normal 0 -1 -0
    outer loop
      vertex 46.175 4 -1.42894
      vertex 45.725 4 -2.20836
      vertex 47 4 -1.65
    endloop
  endfacet
  facet normal 0 -1 0
    outer loop
      vertex 47.825 4 1.42894
      vertex 48.275 4 2.20836
      vertex 47 4 1.65
    endloop
  endfacet
  facet normal 0 -1 0
    outer loop
      vertex 47.825 4 1.42894
      vertex 49.2084 4 1.275
      vertex 48.275 4 2.20836
    endloop
  endfacet
  facet normal 0 -1 0
    outer loop
      vertex 48.4289 4 0.825
      vertex 49.2084 4 1.275
      vertex 47.825 4 1.42894
    endloop
  endfacet
  facet normal 0 -1 0
    outer loop
      vertex 48.65 4 0
      vertex 49.2084 4 1.275
      vertex 48.4289 4 0.825
    endloop
  endfacet
  facet normal 0 -1 0
    outer loop
      vertex 48.65 4 0
      vertex 49.55 4 0
      vertex 49.2084 4 1.275
    endloop
  endfacet
  facet normal 0 -1 0
    outer loop
      vertex 48.4289 4 -0.825
      vertex 49.55 4 0
      vertex 48.65 4 0
    endloop
  endfacet
  facet normal 0 -1 0
    outer loop
      vertex 48.4289 4 -0.825
      vertex 49.2084 4 -1.275
      vertex 49.55 4 0
    endloop
  endfacet
  facet normal 0 -1 0
    outer loop
      vertex 47.825 4 -1.42894
      vertex 49.2084 4 -1.275
      vertex 48.4289 4 -0.825
    endloop
  endfacet
  facet normal 0 -1 0
    outer loop
      vertex 48.275 4 -2.20836
      vertex 47.825 4 -1.42894
      vertex 47 4 -1.65
    endloop
  endfacet
  facet normal 0 -1 0
    outer loop
      vertex 47 4 -2.55
      vertex 47 4 -1.65
      vertex 45.725 4 -2.20836
    endloop
  endfacet
  facet normal 0 -1 0
    outer loop
      vertex 47.825 4 -1.42894
      vertex 48.275 4 -2.20836
      vertex 49.2084 4 -1.275
    endloop
  endfacet
  facet normal 0 -1 0
    outer loop
      vertex 47 4 -1.65
      vertex 47 4 -2.55
      vertex 48.275 4 -2.20836
    endloop
  endfacet
  facet normal 0.707092 -0 0.707122
    outer loop
      vertex 48.275 4 2.20836
      vertex 49.2084 4.4 1.275
      vertex 48.275 4.4 2.20836
    endloop
  endfacet
  facet normal 0.707092 0 0.707122
    outer loop
      vertex 49.2084 4.4 1.275
      vertex 48.275 4 2.20836
      vertex 49.2084 4 1.275
    endloop
  endfacet
  facet normal 0.965932 0 -0.258794
    outer loop
      vertex 49.55 4 0
      vertex 49.2084 4.4 -1.275
      vertex 49.55 4.4 0
    endloop
  endfacet
  facet normal 0.965932 0 -0.258794
    outer loop
      vertex 49.2084 4.4 -1.275
      vertex 49.55 4 0
      vertex 49.2084 4 -1.275
    endloop
  endfacet
  facet normal 0.965932 -0 0.258794
    outer loop
      vertex 49.2084 4 1.275
      vertex 49.55 4.4 0
      vertex 49.2084 4.4 1.275
    endloop
  endfacet
  facet normal 0.965932 0 0.258794
    outer loop
      vertex 49.55 4.4 0
      vertex 49.2084 4 1.275
      vertex 49.55 4 0
    endloop
  endfacet
  facet normal 0.258821 0 0.965925
    outer loop
      vertex 46.175 8.65 -1.42894
      vertex 47 4 -1.65
      vertex 47 8.65 -1.65
    endloop
  endfacet
  facet normal 0.258821 0 0.965925
    outer loop
      vertex 47 4 -1.65
      vertex 46.175 8.65 -1.42894
      vertex 46.175 4 -1.42894
    endloop
  endfacet
  facet normal 0.258821 0 -0.965925
    outer loop
      vertex 46.175 4 1.42894
      vertex 47 8.65 1.65
      vertex 47 4 1.65
    endloop
  endfacet
  facet normal 0.258821 0 -0.965925
    outer loop
      vertex 47 8.65 1.65
      vertex 46.175 4 1.42894
      vertex 46.175 8.65 1.42894
    endloop
  endfacet
  facet normal 0.965914 0 -0.258865
    outer loop
      vertex 45.5711 4 0.825
      vertex 45.35 8.65 0
      vertex 45.5711 8.65 0.825
    endloop
  endfacet
  facet normal 0.965914 0 -0.258865
    outer loop
      vertex 45.35 8.65 0
      vertex 45.5711 4 0.825
      vertex 45.35 4 0
    endloop
  endfacet
  facet normal 0.70713 -0 0.707083
    outer loop
      vertex 45.5711 4 -0.825
      vertex 46.175 8.65 -1.42894
      vertex 45.5711 8.65 -0.825
    endloop
  endfacet
  facet normal 0.70713 0 0.707083
    outer loop
      vertex 46.175 8.65 -1.42894
      vertex 45.5711 4 -0.825
      vertex 46.175 4 -1.42894
    endloop
  endfacet
  facet normal 0.70713 0 -0.707083
    outer loop
      vertex 46.175 4 1.42894
      vertex 45.5711 8.65 0.825
      vertex 46.175 8.65 1.42894
    endloop
  endfacet
  facet normal 0.70713 0 -0.707083
    outer loop
      vertex 45.5711 8.65 0.825
      vertex 46.175 4 1.42894
      vertex 45.5711 4 0.825
    endloop
  endfacet
  facet normal 0.965914 -0 0.258865
    outer loop
      vertex 45.35 4 0
      vertex 45.5711 8.65 -0.825
      vertex 45.35 8.65 0
    endloop
  endfacet
  facet normal 0.965914 0 0.258865
    outer loop
      vertex 45.5711 8.65 -0.825
      vertex 45.35 4 0
      vertex 45.5711 4 -0.825
    endloop
  endfacet
  facet normal -0.70713 0 0.707083
    outer loop
      vertex 47.825 4 -1.42894
      vertex 48.4289 8.65 -0.825
      vertex 47.825 8.65 -1.42894
    endloop
  endfacet
  facet normal -0.70713 0 0.707083
    outer loop
      vertex 48.4289 8.65 -0.825
      vertex 47.825 4 -1.42894
      vertex 48.4289 4 -0.825
    endloop
  endfacet
  facet normal -0.258821 0 0.965925
    outer loop
      vertex 47 8.65 -1.65
      vertex 47.825 4 -1.42894
      vertex 47.825 8.65 -1.42894
    endloop
  endfacet
  facet normal -0.258821 0 0.965925
    outer loop
      vertex 47.825 4 -1.42894
      vertex 47 8.65 -1.65
      vertex 47 4 -1.65
    endloop
  endfacet
  facet normal -0.258821 0 -0.965925
    outer loop
      vertex 47 4 1.65
      vertex 47.825 8.65 1.42894
      vertex 47.825 4 1.42894
    endloop
  endfacet
  facet normal -0.258821 0 -0.965925
    outer loop
      vertex 47.825 8.65 1.42894
      vertex 47 4 1.65
      vertex 47 8.65 1.65
    endloop
  endfacet
  facet normal -0.70713 0 -0.707083
    outer loop
      vertex 48.4289 4 0.825
      vertex 47.825 8.65 1.42894
      vertex 48.4289 8.65 0.825
    endloop
  endfacet
  facet normal -0.70713 -0 -0.707083
    outer loop
      vertex 47.825 8.65 1.42894
      vertex 48.4289 4 0.825
      vertex 47.825 4 1.42894
    endloop
  endfacet
  facet normal -0.965914 0 0.258865
    outer loop
      vertex 48.4289 4 -0.825
      vertex 48.65 8.65 0
      vertex 48.4289 8.65 -0.825
    endloop
  endfacet
  facet normal -0.965914 0 0.258865
    outer loop
      vertex 48.65 8.65 0
      vertex 48.4289 4 -0.825
      vertex 48.65 4 0
    endloop
  endfacet
  facet normal -0.965914 0 -0.258865
    outer loop
      vertex 48.65 4 0
      vertex 48.4289 8.65 0.825
      vertex 48.65 8.65 0
    endloop
  endfacet
  facet normal -0.965914 -0 -0.258865
    outer loop
      vertex 48.4289 8.65 0.825
      vertex 48.65 4 0
      vertex 48.4289 4 0.825
    endloop
  endfacet
  facet normal 0.993715 -0 0.11194
    outer loop
      vertex 55.7744 4.4 2.0027
      vertex 56 8.65 0
      vertex 55.7744 8.65 2.0027
    endloop
  endfacet
  facet normal 0.993715 0 0.11194
    outer loop
      vertex 56 8.65 0
      vertex 55.7744 4.4 2.0027
      vertex 56 4.4 0
    endloop
  endfacet
  facet normal 0.943873 -0 0.330309
    outer loop
      vertex 55.1087 4.4 3.90497
      vertex 55.7744 8.65 2.0027
      vertex 55.1087 8.65 3.90497
    endloop
  endfacet
  facet normal 0.943873 0 0.330309
    outer loop
      vertex 55.7744 8.65 2.0027
      vertex 55.1087 4.4 3.90497
      vertex 55.7744 4.4 2.0027
    endloop
  endfacet
  facet normal 0.846732 -0 0.53202
    outer loop
      vertex 54.0365 4.4 5.61142
      vertex 55.1087 8.65 3.90497
      vertex 54.0365 8.65 5.61142
    endloop
  endfacet
  facet normal 0.846732 0 0.53202
    outer loop
      vertex 55.1087 8.65 3.90497
      vertex 54.0365 4.4 5.61142
      vertex 55.1087 4.4 3.90497
    endloop
  endfacet
  facet normal 0.707102 -0.000316709 0.707112
    outer loop
      vertex 52.6114 8.60652 7.03648
      vertex 54.0365 8.65 5.61142
      vertex 52.6479 8.65 7
    endloop
  endfacet
  facet normal 0.707097 0 0.707117
    outer loop
      vertex 54.0365 4.4 5.61142
      vertex 52.6114 8.60652 7.03648
      vertex 52.6114 4.4 7.03648
    endloop
  endfacet
  facet normal 0.707097 0 0.707117
    outer loop
      vertex 52.6114 8.60652 7.03648
      vertex 54.0365 4.4 5.61142
      vertex 54.0365 8.65 5.61142
    endloop
  endfacet
  facet normal 0.532049 0 0.846714
    outer loop
      vertex 50.905 7.32866 8.10873
      vertex 52.6114 4.4 7.03648
      vertex 52.6114 8.60652 7.03648
    endloop
  endfacet
  facet normal 0.532049 0 0.846714
    outer loop
      vertex 52.6114 4.4 7.03648
      vertex 50.905 7.32866 8.10873
      vertex 50.905 4.4 8.10873
    endloop
  endfacet
  facet normal 0.330269 0 0.943887
    outer loop
      vertex 49.0027 6.53541 8.77435
      vertex 50.905 4.4 8.10873
      vertex 50.905 7.32866 8.10873
    endloop
  endfacet
  facet normal 0.330269 0 0.943887
    outer loop
      vertex 50.905 4.4 8.10873
      vertex 49.0027 6.53541 8.77435
      vertex 49.0027 4.4 8.77435
    endloop
  endfacet
  facet normal 0.111964 0 0.993712
    outer loop
      vertex 47 6.26649 9
      vertex 49.0027 4.4 8.77435
      vertex 49.0027 6.53541 8.77435
    endloop
  endfacet
  facet normal 0.111964 0 0.993712
    outer loop
      vertex 49.0027 4.4 8.77435
      vertex 47 6.26649 9
      vertex 47 4.4 9
    endloop
  endfacet
  facet normal 1 0 0
    outer loop
      vertex 56 -6.4 -3.65
      vertex 56 -4.4 -3.21056
      vertex 56 -4.4 0
    endloop
  endfacet
  facet normal 1 0 0
    outer loop
      vertex 56 -4.4 -3.21056
      vertex 56 -4.75 -5.3
      vertex 56 -4.54408 -7.5
    endloop
  endfacet
  facet normal 1 0 0
    outer loop
      vertex 56 -4.4 -3.21056
      vertex 56 -4.97106 -4.475
      vertex 56 -4.75 -5.3
    endloop
  endfacet
  facet normal 1 0 0
    outer loop
      vertex 56 -4.4 -3.21056
      vertex 56 -5.575 -3.87106
      vertex 56 -4.97106 -4.475
    endloop
  endfacet
  facet normal 1 0 0
    outer loop
      vertex 56 -4.4 -3.21056
      vertex 56 -6.4 -3.65
      vertex 56 -5.575 -3.87106
    endloop
  endfacet
  facet normal 1 -0 0
    outer loop
      vertex 56 -8.65 0
      vertex 56 -6.4 -3.65
      vertex 56 -4.4 0
    endloop
  endfacet
  facet normal 1 0 0
    outer loop
      vertex 56 -6.4 -3.65
      vertex 56 -8.65 0
      vertex 56 -7.225 -3.87106
    endloop
  endfacet
  facet normal 1 0 0
    outer loop
      vertex 56 -7.225 -6.72894
      vertex 56 -8.45061 -7.35061
      vertex 56 -8.25592 -7.5
    endloop
  endfacet
  facet normal 1 0 0
    outer loop
      vertex 56 -7.225 -3.87106
      vertex 56 -8.65 0
      vertex 56 -8.65 -3.50924
    endloop
  endfacet
  facet normal 1 0 0
    outer loop
      vertex 56 -7.225 -3.87106
      vertex 56 -8.65 -3.50924
      vertex 56 -7.82894 -4.475
    endloop
  endfacet
  facet normal 1 -0 0
    outer loop
      vertex 56 -8.91147 -3.85
      vertex 56 -7.82894 -4.475
      vertex 56 -8.65 -3.50924
    endloop
  endfacet
  facet normal 1 0 0
    outer loop
      vertex 56 -9.20118 -4.54942
      vertex 56 -7.82894 -4.475
      vertex 56 -8.91147 -3.85
    endloop
  endfacet
  facet normal 1 0 0
    outer loop
      vertex 56 -7.82894 -4.475
      vertex 56 -9.20118 -4.54942
      vertex 56 -8.05 -5.3
    endloop
  endfacet
  facet normal 1 0 0
    outer loop
      vertex 56 -7.82894 -6.125
      vertex 56 -8.91147 -6.75
      vertex 56 -8.45061 -7.35061
    endloop
  endfacet
  facet normal 1 0 0
    outer loop
      vertex 56 -8.05 -5.3
      vertex 56 -9.20118 -4.54942
      vertex 56 -9.3 -5.3
    endloop
  endfacet
  facet normal 1 0 0
    outer loop
      vertex 56 -7.82894 -6.125
      vertex 56 -9.20118 -6.05057
      vertex 56 -8.91147 -6.75
    endloop
  endfacet
  facet normal 1 0 0
    outer loop
      vertex 56 -8.05 -5.3
      vertex 56 -9.3 -5.3
      vertex 56 -9.20118 -6.05057
    endloop
  endfacet
  facet normal 1 0 0
    outer loop
      vertex 56 -3.59881 -4.54942
      vertex 56 -3.59881 -6.05057
      vertex 56 -3.5 -5.3
    endloop
  endfacet
  facet normal 1 0 0
    outer loop
      vertex 56 -3.88853 -3.85
      vertex 56 -3.59881 -6.05057
      vertex 56 -3.59881 -4.54942
    endloop
  endfacet
  facet normal 1 0 0
    outer loop
      vertex 56 -4.54408 -7.5
      vertex 56 -3.59881 -6.05057
      vertex 56 -3.88853 -3.85
    endloop
  endfacet
  facet normal 1 0 0
    outer loop
      vertex 56 -4.4 -3.21056
      vertex 56 -3.88853 -3.85
      vertex 56 -4.34939 -3.24939
    endloop
  endfacet
  facet normal 1 0 0
    outer loop
      vertex 56 -4.54408 -7.5
      vertex 56 -3.88853 -3.85
      vertex 56 -4.4 -3.21056
    endloop
  endfacet
  facet normal 1 0 0
    outer loop
      vertex 56 -3.59881 -6.05057
      vertex 56 -4.54408 -7.5
      vertex 56 -3.88853 -6.75
    endloop
  endfacet
  facet normal 1 0 0
    outer loop
      vertex 56 -3.88853 -6.75
      vertex 56 -4.54408 -7.5
      vertex 56 -4.34939 -7.35061
    endloop
  endfacet
  facet normal 1 -0 0
    outer loop
      vertex 56 -4.97106 -6.125
      vertex 56 -4.54408 -7.5
      vertex 56 -4.75 -5.3
    endloop
  endfacet
  facet normal 1 -0 0
    outer loop
      vertex 56 -5.575 -6.72894
      vertex 56 -4.54408 -7.5
      vertex 56 -4.97106 -6.125
    endloop
  endfacet
  facet normal 1 -0 0
    outer loop
      vertex 56 -6.4 -6.95
      vertex 56 -4.54408 -7.5
      vertex 56 -5.575 -6.72894
    endloop
  endfacet
  facet normal 1 0 0
    outer loop
      vertex 56 -8.25592 -7.5
      vertex 56 -6.4 -6.95
      vertex 56 -7.225 -6.72894
    endloop
  endfacet
  facet normal 1 0 0
    outer loop
      vertex 56 -6.4 -6.95
      vertex 56 -8.25592 -7.5
      vertex 56 -4.54408 -7.5
    endloop
  endfacet
  facet normal 1 0 0
    outer loop
      vertex 56 -8.45061 -7.35061
      vertex 56 -7.225 -6.72894
      vertex 56 -7.82894 -6.125
    endloop
  endfacet
  facet normal 1 -0 0
    outer loop
      vertex 56 -9.20118 -6.05057
      vertex 56 -7.82894 -6.125
      vertex 56 -8.05 -5.3
    endloop
  endfacet
  facet normal -0.258822 0 -0.965925
    outer loop
      vertex 45.725 -4.4 -2.20836
      vertex 47 -4 -2.55
      vertex 47 -4.4 -2.55
    endloop
  endfacet
  facet normal -0.258822 0 -0.965925
    outer loop
      vertex 47 -4 -2.55
      vertex 45.725 -4.4 -2.20836
      vertex 45.725 -4 -2.20836
    endloop
  endfacet
  facet normal -0.258822 0 0.965925
    outer loop
      vertex 45.725 -4 2.20836
      vertex 47 -4.4 2.55
      vertex 47 -4 2.55
    endloop
  endfacet
  facet normal -0.258822 0 0.965925
    outer loop
      vertex 47 -4.4 2.55
      vertex 45.725 -4 2.20836
      vertex 45.725 -4.4 2.20836
    endloop
  endfacet
  facet normal -0.965932 0 0.258794
    outer loop
      vertex 44.45 -4.4 0
      vertex 44.7916 -4 1.275
      vertex 44.45 -4 0
    endloop
  endfacet
  facet normal -0.965932 0 0.258794
    outer loop
      vertex 44.7916 -4 1.275
      vertex 44.45 -4.4 0
      vertex 44.7916 -4.4 1.275
    endloop
  endfacet
  facet normal -0.707092 0 -0.707122
    outer loop
      vertex 45.725 -4.4 -2.20836
      vertex 44.7916 -4 -1.275
      vertex 45.725 -4 -2.20836
    endloop
  endfacet
  facet normal -0.707092 -0 -0.707122
    outer loop
      vertex 44.7916 -4 -1.275
      vertex 45.725 -4.4 -2.20836
      vertex 44.7916 -4.4 -1.275
    endloop
  endfacet
  facet normal -0.707092 0 0.707122
    outer loop
      vertex 44.7916 -4.4 1.275
      vertex 45.725 -4 2.20836
      vertex 44.7916 -4 1.275
    endloop
  endfacet
  facet normal -0.707092 0 0.707122
    outer loop
      vertex 45.725 -4 2.20836
      vertex 44.7916 -4.4 1.275
      vertex 45.725 -4.4 2.20836
    endloop
  endfacet
  facet normal -0.965932 0 -0.258794
    outer loop
      vertex 44.7916 -4.4 -1.275
      vertex 44.45 -4 0
      vertex 44.7916 -4 -1.275
    endloop
  endfacet
  facet normal -0.965932 -0 -0.258794
    outer loop
      vertex 44.45 -4 0
      vertex 44.7916 -4.4 -1.275
      vertex 44.45 -4.4 0
    endloop
  endfacet
  facet normal 0.258822 0 -0.965925
    outer loop
      vertex 47 -4.4 -2.55
      vertex 48.275 -4 -2.20836
      vertex 48.275 -4.4 -2.20836
    endloop
  endfacet
  facet normal 0.258822 0 -0.965925
    outer loop
      vertex 48.275 -4 -2.20836
      vertex 47 -4.4 -2.55
      vertex 47 -4 -2.55
    endloop
  endfacet
  facet normal 0.258822 0 0.965925
    outer loop
      vertex 47 -4 2.55
      vertex 48.275 -4.4 2.20836
      vertex 48.275 -4 2.20836
    endloop
  endfacet
  facet normal 0.258822 0 0.965925
    outer loop
      vertex 48.275 -4.4 2.20836
      vertex 47 -4 2.55
      vertex 47 -4.4 2.55
    endloop
  endfacet
  facet normal 0.707092 0 -0.707122
    outer loop
      vertex 49.2084 -4.4 -1.275
      vertex 48.275 -4 -2.20836
      vertex 49.2084 -4 -1.275
    endloop
  endfacet
  facet normal 0.707092 0 -0.707122
    outer loop
      vertex 48.275 -4 -2.20836
      vertex 49.2084 -4.4 -1.275
      vertex 48.275 -4.4 -2.20836
    endloop
  endfacet
  facet normal 0 1 0
    outer loop
      vertex 47 -4 1.65
      vertex 47 -4 2.55
      vertex 48.275 -4 2.20836
    endloop
  endfacet
  facet normal 0 1 0
    outer loop
      vertex 47 -4 2.55
      vertex 47 -4 1.65
      vertex 45.725 -4 2.20836
    endloop
  endfacet
  facet normal 0 1 0
    outer loop
      vertex 48.275 -4 2.20836
      vertex 47.825 -4 1.42894
      vertex 47 -4 1.65
    endloop
  endfacet
  facet normal 0 1 0
    outer loop
      vertex 49.2084 -4 1.275
      vertex 47.825 -4 1.42894
      vertex 48.275 -4 2.20836
    endloop
  endfacet
  facet normal 0 1 0
    outer loop
      vertex 49.2084 -4 1.275
      vertex 48.4289 -4 0.825
      vertex 47.825 -4 1.42894
    endloop
  endfacet
  facet normal 0 1 0
    outer loop
      vertex 49.55 -4 0
      vertex 48.4289 -4 0.825
      vertex 49.2084 -4 1.275
    endloop
  endfacet
  facet normal 0 1 0
    outer loop
      vertex 49.55 -4 0
      vertex 48.65 -4 0
      vertex 48.4289 -4 0.825
    endloop
  endfacet
  facet normal 0 1 0
    outer loop
      vertex 49.55 -4 0
      vertex 48.4289 -4 -0.825
      vertex 48.65 -4 0
    endloop
  endfacet
  facet normal 0 1 -0
    outer loop
      vertex 49.2084 -4 -1.275
      vertex 48.4289 -4 -0.825
      vertex 49.55 -4 0
    endloop
  endfacet
  facet normal 0 1 0
    outer loop
      vertex 49.2084 -4 -1.275
      vertex 47.825 -4 -1.42894
      vertex 48.4289 -4 -0.825
    endloop
  endfacet
  facet normal 0 1 -0
    outer loop
      vertex 48.275 -4 -2.20836
      vertex 47.825 -4 -1.42894
      vertex 49.2084 -4 -1.275
    endloop
  endfacet
  facet normal 0 1 0
    outer loop
      vertex 47.825 -4 -1.42894
      vertex 48.275 -4 -2.20836
      vertex 47 -4 -1.65
    endloop
  endfacet
  facet normal 0 1 -0
    outer loop
      vertex 46.175 -4 1.42894
      vertex 45.725 -4 2.20836
      vertex 47 -4 1.65
    endloop
  endfacet
  facet normal 0 1 0
    outer loop
      vertex 46.175 -4 1.42894
      vertex 44.7916 -4 1.275
      vertex 45.725 -4 2.20836
    endloop
  endfacet
  facet normal 0 1 -0
    outer loop
      vertex 45.5711 -4 0.825
      vertex 44.7916 -4 1.275
      vertex 46.175 -4 1.42894
    endloop
  endfacet
  facet normal 0 1 -0
    outer loop
      vertex 45.35 -4 0
      vertex 44.7916 -4 1.275
      vertex 45.5711 -4 0.825
    endloop
  endfacet
  facet normal 0 1 0
    outer loop
      vertex 45.35 -4 0
      vertex 44.45 -4 0
      vertex 44.7916 -4 1.275
    endloop
  endfacet
  facet normal 0 1 0
    outer loop
      vertex 45.5711 -4 -0.825
      vertex 44.45 -4 0
      vertex 45.35 -4 0
    endloop
  endfacet
  facet normal 0 1 0
    outer loop
      vertex 45.5711 -4 -0.825
      vertex 44.7916 -4 -1.275
      vertex 44.45 -4 0
    endloop
  endfacet
  facet normal 0 1 0
    outer loop
      vertex 46.175 -4 -1.42894
      vertex 44.7916 -4 -1.275
      vertex 45.5711 -4 -0.825
    endloop
  endfacet
  facet normal 0 1 0
    outer loop
      vertex 45.725 -4 -2.20836
      vertex 46.175 -4 -1.42894
      vertex 47 -4 -1.65
    endloop
  endfacet
  facet normal 0 1 0
    outer loop
      vertex 47 -4 -2.55
      vertex 47 -4 -1.65
      vertex 48.275 -4 -2.20836
    endloop
  endfacet
  facet normal 0 1 0
    outer loop
      vertex 46.175 -4 -1.42894
      vertex 45.725 -4 -2.20836
      vertex 44.7916 -4 -1.275
    endloop
  endfacet
  facet normal 0 1 0
    outer loop
      vertex 47 -4 -1.65
      vertex 47 -4 -2.55
      vertex 45.725 -4 -2.20836
    endloop
  endfacet
  facet normal 0.707092 -0 0.707122
    outer loop
      vertex 48.275 -4.4 2.20836
      vertex 49.2084 -4 1.275
      vertex 48.275 -4 2.20836
    endloop
  endfacet
  facet normal 0.707092 0 0.707122
    outer loop
      vertex 49.2084 -4 1.275
      vertex 48.275 -4.4 2.20836
      vertex 49.2084 -4.4 1.275
    endloop
  endfacet
  facet normal 0.965932 0 -0.258794
    outer loop
      vertex 49.55 -4.4 0
      vertex 49.2084 -4 -1.275
      vertex 49.55 -4 0
    endloop
  endfacet
  facet normal 0.965932 0 -0.258794
    outer loop
      vertex 49.2084 -4 -1.275
      vertex 49.55 -4.4 0
      vertex 49.2084 -4.4 -1.275
    endloop
  endfacet
  facet normal 0.965932 -0 0.258794
    outer loop
      vertex 49.2084 -4.4 1.275
      vertex 49.55 -4 0
      vertex 49.2084 -4 1.275
    endloop
  endfacet
  facet normal 0.965932 0 0.258794
    outer loop
      vertex 49.55 -4 0
      vertex 49.2084 -4.4 1.275
      vertex 49.55 -4.4 0
    endloop
  endfacet
  facet normal 0.258821 0 0.965925
    outer loop
      vertex 46.175 -4 -1.42894
      vertex 47 -8.65 -1.65
      vertex 47 -4 -1.65
    endloop
  endfacet
  facet normal 0.258821 0 0.965925
    outer loop
      vertex 47 -8.65 -1.65
      vertex 46.175 -4 -1.42894
      vertex 46.175 -8.65 -1.42894
    endloop
  endfacet
  facet normal 0.258821 0 -0.965925
    outer loop
      vertex 46.175 -8.65 1.42894
      vertex 47 -4 1.65
      vertex 47 -8.65 1.65
    endloop
  endfacet
  facet normal 0.258821 0 -0.965925
    outer loop
      vertex 47 -4 1.65
      vertex 46.175 -8.65 1.42894
      vertex 46.175 -4 1.42894
    endloop
  endfacet
  facet normal 0.965914 0 -0.258865
    outer loop
      vertex 45.5711 -8.65 0.825
      vertex 45.35 -4 0
      vertex 45.5711 -4 0.825
    endloop
  endfacet
  facet normal 0.965914 0 -0.258865
    outer loop
      vertex 45.35 -4 0
      vertex 45.5711 -8.65 0.825
      vertex 45.35 -8.65 0
    endloop
  endfacet
  facet normal 0.70713 -0 0.707083
    outer loop
      vertex 45.5711 -8.65 -0.825
      vertex 46.175 -4 -1.42894
      vertex 45.5711 -4 -0.825
    endloop
  endfacet
  facet normal 0.70713 0 0.707083
    outer loop
      vertex 46.175 -4 -1.42894
      vertex 45.5711 -8.65 -0.825
      vertex 46.175 -8.65 -1.42894
    endloop
  endfacet
  facet normal 0.70713 0 -0.707083
    outer loop
      vertex 46.175 -8.65 1.42894
      vertex 45.5711 -4 0.825
      vertex 46.175 -4 1.42894
    endloop
  endfacet
  facet normal 0.70713 0 -0.707083
    outer loop
      vertex 45.5711 -4 0.825
      vertex 46.175 -8.65 1.42894
      vertex 45.5711 -8.65 0.825
    endloop
  endfacet
  facet normal 0.965914 -0 0.258865
    outer loop
      vertex 45.35 -8.65 0
      vertex 45.5711 -4 -0.825
      vertex 45.35 -4 0
    endloop
  endfacet
  facet normal 0.965914 0 0.258865
    outer loop
      vertex 45.5711 -4 -0.825
      vertex 45.35 -8.65 0
      vertex 45.5711 -8.65 -0.825
    endloop
  endfacet
  facet normal -0.70713 0 0.707083
    outer loop
      vertex 47.825 -8.65 -1.42894
      vertex 48.4289 -4 -0.825
      vertex 47.825 -4 -1.42894
    endloop
  endfacet
  facet normal -0.70713 0 0.707083
    outer loop
      vertex 48.4289 -4 -0.825
      vertex 47.825 -8.65 -1.42894
      vertex 48.4289 -8.65 -0.825
    endloop
  endfacet
  facet normal -0.258821 0 0.965925
    outer loop
      vertex 47 -4 -1.65
      vertex 47.825 -8.65 -1.42894
      vertex 47.825 -4 -1.42894
    endloop
  endfacet
  facet normal -0.258821 0 0.965925
    outer loop
      vertex 47.825 -8.65 -1.42894
      vertex 47 -4 -1.65
      vertex 47 -8.65 -1.65
    endloop
  endfacet
  facet normal -0.258821 0 -0.965925
    outer loop
      vertex 47 -8.65 1.65
      vertex 47.825 -4 1.42894
      vertex 47.825 -8.65 1.42894
    endloop
  endfacet
  facet normal -0.258821 0 -0.965925
    outer loop
      vertex 47.825 -4 1.42894
      vertex 47 -8.65 1.65
      vertex 47 -4 1.65
    endloop
  endfacet
  facet normal -0.70713 0 -0.707083
    outer loop
      vertex 48.4289 -8.65 0.825
      vertex 47.825 -4 1.42894
      vertex 48.4289 -4 0.825
    endloop
  endfacet
  facet normal -0.70713 -0 -0.707083
    outer loop
      vertex 47.825 -4 1.42894
      vertex 48.4289 -8.65 0.825
      vertex 47.825 -8.65 1.42894
    endloop
  endfacet
  facet normal -0.965914 0 0.258865
    outer loop
      vertex 48.4289 -8.65 -0.825
      vertex 48.65 -4 0
      vertex 48.4289 -4 -0.825
    endloop
  endfacet
  facet normal -0.965914 0 0.258865
    outer loop
      vertex 48.65 -4 0
      vertex 48.4289 -8.65 -0.825
      vertex 48.65 -8.65 0
    endloop
  endfacet
  facet normal -0.965914 0 -0.258865
    outer loop
      vertex 48.65 -8.65 0
      vertex 48.4289 -4 0.825
      vertex 48.65 -4 0
    endloop
  endfacet
  facet normal -0.965914 -0 -0.258865
    outer loop
      vertex 48.4289 -4 0.825
      vertex 48.65 -8.65 0
      vertex 48.4289 -8.65 0.825
    endloop
  endfacet
  facet normal 0.993715 -0 0.11194
    outer loop
      vertex 55.7744 -8.65 2.0027
      vertex 56 -4.4 0
      vertex 55.7744 -4.4 2.0027
    endloop
  endfacet
  facet normal 0.993715 0 0.11194
    outer loop
      vertex 56 -4.4 0
      vertex 55.7744 -8.65 2.0027
      vertex 56 -8.65 0
    endloop
  endfacet
  facet normal 0.943873 -0 0.330309
    outer loop
      vertex 55.1087 -8.65 3.90497
      vertex 55.7744 -4.4 2.0027
      vertex 55.1087 -4.4 3.90497
    endloop
  endfacet
  facet normal 0.943873 0 0.330309
    outer loop
      vertex 55.7744 -4.4 2.0027
      vertex 55.1087 -8.65 3.90497
      vertex 55.7744 -8.65 2.0027
    endloop
  endfacet
  facet normal 0.846732 -0 0.53202
    outer loop
      vertex 54.0365 -8.65 5.61142
      vertex 55.1087 -4.4 3.90497
      vertex 54.0365 -4.4 5.61142
    endloop
  endfacet
  facet normal 0.846732 0 0.53202
    outer loop
      vertex 55.1087 -4.4 3.90497
      vertex 54.0365 -8.65 5.61142
      vertex 55.1087 -8.65 3.90497
    endloop
  endfacet
  facet normal 0.707097 -0 0.707117
    outer loop
      vertex 52.6114 -8.60652 7.03648
      vertex 54.0365 -4.4 5.61142
      vertex 52.6114 -4.4 7.03648
    endloop
  endfacet
  facet normal 0.707102 0.000316709 0.707112
    outer loop
      vertex 54.0365 -8.65 5.61142
      vertex 52.6114 -8.60652 7.03648
      vertex 52.6479 -8.65 7
    endloop
  endfacet
  facet normal 0.707097 0 0.707117
    outer loop
      vertex 52.6114 -8.60652 7.03648
      vertex 54.0365 -8.65 5.61142
      vertex 54.0365 -4.4 5.61142
    endloop
  endfacet
  facet normal 0.532049 -0 0.846714
    outer loop
      vertex 50.905 -7.32866 8.10873
      vertex 52.6114 -4.4 7.03648
      vertex 50.905 -4.4 8.10873
    endloop
  endfacet
  facet normal 0.532049 0 0.846714
    outer loop
      vertex 52.6114 -4.4 7.03648
      vertex 50.905 -7.32866 8.10873
      vertex 52.6114 -8.60652 7.03648
    endloop
  endfacet
  facet normal 0.330269 -0 0.943887
    outer loop
      vertex 49.0027 -6.53541 8.77435
      vertex 50.905 -4.4 8.10873
      vertex 49.0027 -4.4 8.77435
    endloop
  endfacet
  facet normal 0.330269 0 0.943887
    outer loop
      vertex 50.905 -4.4 8.10873
      vertex 49.0027 -6.53541 8.77435
      vertex 50.905 -7.32866 8.10873
    endloop
  endfacet
  facet normal 0.111964 -0 0.993712
    outer loop
      vertex 47 -6.26649 9
      vertex 49.0027 -4.4 8.77435
      vertex 47 -4.4 9
    endloop
  endfacet
  facet normal 0.111964 0 0.993712
    outer loop
      vertex 49.0027 -4.4 8.77435
      vertex 47 -6.26649 9
      vertex 49.0027 -6.53541 8.77435
    endloop
  endfacet
  facet normal 0.000141736 -0.642676 0.766138
    outer loop
      vertex 50.905 -7.32866 8.10873
      vertex 52.6479 -8.65 7
      vertex 52.6114 -8.60652 7.03648
    endloop
  endfacet
  facet normal -1.18625e-06 -0.642792 0.766041
    outer loop
      vertex 47 -6.26649 9
      vertex 50.905 -7.32866 8.10873
      vertex 49.0027 -6.53541 8.77435
    endloop
  endfacet
  facet normal 2.53708e-06 -0.642784 0.766048
    outer loop
      vertex 50.905 -7.32866 8.10873
      vertex 47 -6.26649 9
      vertex 52.6479 -8.65 7
    endloop
  endfacet
  facet normal 0 -0.642787 0.766045
    outer loop
      vertex 38 -8.65 7
      vertex 47 -6.26649 9
      vertex 38 -6.26649 9
    endloop
  endfacet
  facet normal 0 -0.642787 0.766045
    outer loop
      vertex 47 -6.26649 9
      vertex 38 -8.65 7
      vertex 52.6479 -8.65 7
    endloop
  endfacet
  facet normal -1 0 0
    outer loop
      vertex 38 -7.82894 -6.125
      vertex 38 -9.20118 -6.05057
      vertex 38 -8.05 -5.3
    endloop
  endfacet
  facet normal -1 0 0
    outer loop
      vertex 38 -9.3 -5.3
      vertex 38 -8.05 -5.3
      vertex 38 -9.20118 -6.05057
    endloop
  endfacet
  facet normal -1 0 -0
    outer loop
      vertex 38 -9.20118 -4.54942
      vertex 38 -8.05 -5.3
      vertex 38 -9.3 -5.3
    endloop
  endfacet
  facet normal -1 0 0
    outer loop
      vertex 38 -8.05 -5.3
      vertex 38 -8.91147 -3.85
      vertex 38 -8.65 -3.50924
    endloop
  endfacet
  facet normal -1 0 -0
    outer loop
      vertex 38 -8.91147 -3.85
      vertex 38 -8.05 -5.3
      vertex 38 -9.20118 -4.54942
    endloop
  endfacet
  facet normal -1 0 0
    outer loop
      vertex 38 -4.08036 -7
      vertex 38 -4.97106 -6.125
      vertex 38 -4.75 -5.3
    endloop
  endfacet
  facet normal -1 0 0
    outer loop
      vertex 38 -4.34939 -7.35061
      vertex 38 -5.575 -6.72894
      vertex 38 -4.97106 -6.125
    endloop
  endfacet
  facet normal -1 0 0
    outer loop
      vertex 38 -4.54408 -7.5
      vertex 38 -6.4 -6.95
      vertex 38 -5.575 -6.72894
    endloop
  endfacet
  facet normal -1 0 0
    outer loop
      vertex 38 -8.25592 -7.5
      vertex 38 -6.4 -6.95
      vertex 38 -4.54408 -7.5
    endloop
  endfacet
  facet normal -1 -0 0
    outer loop
      vertex 38 -7.225 -6.72894
      vertex 38 -8.45061 -7.35061
      vertex 38 -7.82894 -6.125
    endloop
  endfacet
  facet normal -1 0 0
    outer loop
      vertex 38 -8.45061 -7.35061
      vertex 38 -7.225 -6.72894
      vertex 38 -8.25592 -7.5
    endloop
  endfacet
  facet normal -1 -0 0
    outer loop
      vertex 38 -6.4 -6.95
      vertex 38 -8.25592 -7.5
      vertex 38 -7.225 -6.72894
    endloop
  endfacet
  facet normal -1 -0 0
    outer loop
      vertex 38 9.20118 -6.05057
      vertex 38 7.82894 -6.125
      vertex 38 8.05 -5.3
    endloop
  endfacet
  facet normal -1 0 0
    outer loop
      vertex 38 8.45061 -7.35061
      vertex 38 7.225 -6.72894
      vertex 38 7.82894 -6.125
    endloop
  endfacet
  facet normal -1 0 0
    outer loop
      vertex 38 8.25592 -7.5
      vertex 38 6.4 -6.95
      vertex 38 7.225 -6.72894
    endloop
  endfacet
  facet normal -1 0 0
    outer loop
      vertex 38 4.54408 -7.5
      vertex 38 6.4 -6.95
      vertex 38 8.25592 -7.5
    endloop
  endfacet
  facet normal -1 -0 0
    outer loop
      vertex 38 5.575 -6.72894
      vertex 38 4.34939 -7.35061
      vertex 38 4.97106 -6.125
    endloop
  endfacet
  facet normal -1 0 0
    outer loop
      vertex 38 4.34939 -7.35061
      vertex 38 5.575 -6.72894
      vertex 38 4.54408 -7.5
    endloop
  endfacet
  facet normal -1 -0 0
    outer loop
      vertex 38 6.4 -6.95
      vertex 38 4.54408 -7.5
      vertex 38 5.575 -6.72894
    endloop
  endfacet
  facet normal -1 0 0
    outer loop
      vertex 38 8.05 -5.3
      vertex 38 9.3 -5.3
      vertex 38 9.20118 -6.05057
    endloop
  endfacet
  facet normal -1 0 0
    outer loop
      vertex 38 7.82894 -6.125
      vertex 38 9.20118 -6.05057
      vertex 38 8.91147 -6.75
    endloop
  endfacet
  facet normal -1 0 0
    outer loop
      vertex 38 9.3 -5.3
      vertex 38 8.05 -5.3
      vertex 38 9.20118 -4.54942
    endloop
  endfacet
  facet normal -1 0 0
    outer loop
      vertex 38 7.82894 -4.475
      vertex 38 9.20118 -4.54942
      vertex 38 8.05 -5.3
    endloop
  endfacet
  facet normal -1 0 0
    outer loop
      vertex 38 7.82894 -6.125
      vertex 38 8.91147 -6.75
      vertex 38 8.45061 -7.35061
    endloop
  endfacet
  facet normal -1 0 0
    outer loop
      vertex 38 9.20118 -4.54942
      vertex 38 7.82894 -4.475
      vertex 38 8.91147 -3.85
    endloop
  endfacet
  facet normal -1 0 0
    outer loop
      vertex 38 7.225 -6.72894
      vertex 38 8.45061 -7.35061
      vertex 38 8.25592 -7.5
    endloop
  endfacet
  facet normal -1 -0 0
    outer loop
      vertex 38 8.91147 -3.85
      vertex 38 7.82894 -4.475
      vertex 38 8.65 -3.50924
    endloop
  endfacet
  facet normal -1 0 0
    outer loop
      vertex 38 7.225 -3.87106
      vertex 38 8.65 -3.50924
      vertex 38 7.82894 -4.475
    endloop
  endfacet
  facet normal -1 0 0
    outer loop
      vertex 38 6.4 -3.65
      vertex 38 8.65 -3.50924
      vertex 38 7.225 -3.87106
    endloop
  endfacet
  facet normal -1 -0 0
    outer loop
      vertex 38 8.65 -3.50924
      vertex 38 6.4 -3.65
      vertex 38 8.65 7
    endloop
  endfacet
  facet normal -1 0 0
    outer loop
      vertex 38 5.575 -3.87106
      vertex 38 8.65 7
      vertex 38 6.4 -3.65
    endloop
  endfacet
  facet normal -1 -0 0
    outer loop
      vertex 38 8.65 7
      vertex 38 5.575 -3.87106
      vertex 38 6.26649 9
    endloop
  endfacet
  facet normal -1 0 0
    outer loop
      vertex 38 -5.575 -3.87106
      vertex 38 5.575 -3.87106
      vertex 38 4.97106 -4.475
    endloop
  endfacet
  facet normal -1 0 0
    outer loop
      vertex 38 -4.97106 -4.475
      vertex 38 4.97106 -4.475
      vertex 38 4.75 -5.3
    endloop
  endfacet
  facet normal -1 0 0
    outer loop
      vertex 38 4.08036 -7
      vertex 38 4.97106 -6.125
      vertex 38 4.34939 -7.35061
    endloop
  endfacet
  facet normal -1 -0 0
    outer loop
      vertex 38 4.97106 -6.125
      vertex 38 4.08036 -7
      vertex 38 4.75 -5.3
    endloop
  endfacet
  facet normal -1 0 0
    outer loop
      vertex 38 -4.75 -5.3
      vertex 38 4.75 -5.3
      vertex 38 4.08036 -7
    endloop
  endfacet
  facet normal -1 0 0
    outer loop
      vertex 38 -4.75 -5.3
      vertex 38 4.08036 -7
      vertex 38 -4.08036 -7
    endloop
  endfacet
  facet normal -1 0 0
    outer loop
      vertex 38 -4.97106 -6.125
      vertex 38 -4.08036 -7
      vertex 38 -4.34939 -7.35061
    endloop
  endfacet
  facet normal -1 0 0
    outer loop
      vertex 38 -5.575 -6.72894
      vertex 38 -4.34939 -7.35061
      vertex 38 -4.54408 -7.5
    endloop
  endfacet
  facet normal -1 0 0
    outer loop
      vertex 38 4.75 -5.3
      vertex 38 -4.75 -5.3
      vertex 38 -4.97106 -4.475
    endloop
  endfacet
  facet normal -1 0 0
    outer loop
      vertex 38 4.97106 -4.475
      vertex 38 -4.97106 -4.475
      vertex 38 -5.575 -3.87106
    endloop
  endfacet
  facet normal -1 0 0
    outer loop
      vertex 38 5.575 -3.87106
      vertex 38 -5.575 -3.87106
      vertex 38 6.26649 9
    endloop
  endfacet
  facet normal -1 0 0
    outer loop
      vertex 38 -5.575 -3.87106
      vertex 38 -6.26649 9
      vertex 38 6.26649 9
    endloop
  endfacet
  facet normal -1 0 0
    outer loop
      vertex 38 -8.65 7
      vertex 38 -5.575 -3.87106
      vertex 38 -6.4 -3.65
    endloop
  endfacet
  facet normal -1 0 0
    outer loop
      vertex 38 -8.65 -3.50924
      vertex 38 -6.4 -3.65
      vertex 38 -7.225 -3.87106
    endloop
  endfacet
  facet normal -1 0 0
    outer loop
      vertex 38 -8.65 -3.50924
      vertex 38 -7.225 -3.87106
      vertex 38 -7.82894 -4.475
    endloop
  endfacet
  facet normal -1 0 0
    outer loop
      vertex 38 -8.65 -3.50924
      vertex 38 -7.82894 -4.475
      vertex 38 -8.05 -5.3
    endloop
  endfacet
  facet normal -1 0 0
    outer loop
      vertex 38 -8.91147 -6.75
      vertex 38 -7.82894 -6.125
      vertex 38 -8.45061 -7.35061
    endloop
  endfacet
  facet normal -1 0 0
    outer loop
      vertex 38 -9.20118 -6.05057
      vertex 38 -7.82894 -6.125
      vertex 38 -8.91147 -6.75
    endloop
  endfacet
  facet normal -1 0 0
    outer loop
      vertex 38 -6.4 -3.65
      vertex 38 -8.65 -3.50924
      vertex 38 -8.65 7
    endloop
  endfacet
  facet normal -1 0 0
    outer loop
      vertex 38 -5.575 -3.87106
      vertex 38 -8.65 7
      vertex 38 -6.26649 9
    endloop
  endfacet
  facet normal 0.000141736 0.642676 0.766138
    outer loop
      vertex 52.6479 8.65 7
      vertex 50.905 7.32866 8.10873
      vertex 52.6114 8.60652 7.03648
    endloop
  endfacet
  facet normal 2.53708e-06 0.642784 0.766048
    outer loop
      vertex 47 6.26649 9
      vertex 50.905 7.32866 8.10873
      vertex 52.6479 8.65 7
    endloop
  endfacet
  facet normal -1.18625e-06 0.642792 0.766041
    outer loop
      vertex 50.905 7.32866 8.10873
      vertex 47 6.26649 9
      vertex 49.0027 6.53541 8.77435
    endloop
  endfacet
  facet normal -0 0.642787 0.766045
    outer loop
      vertex 38 8.65 7
      vertex 47 6.26649 9
      vertex 52.6479 8.65 7
    endloop
  endfacet
  facet normal 0 0.642787 0.766045
    outer loop
      vertex 47 6.26649 9
      vertex 38 8.65 7
      vertex 38 6.26649 9
    endloop
  endfacet
  facet normal 0 1 0
    outer loop
      vertex 52.6479 8.65 7
      vertex 47.825 8.65 1.42894
      vertex 47 8.65 1.65
    endloop
  endfacet
  facet normal 0 1 0
    outer loop
      vertex 55.1087 8.65 3.90497
      vertex 48.4289 8.65 0.825
      vertex 47.825 8.65 1.42894
    endloop
  endfacet
  facet normal 0 1 0
    outer loop
      vertex 48.65 8.65 0
      vertex 55.7744 8.65 2.0027
      vertex 56 8.65 0
    endloop
  endfacet
  facet normal 0 1 0
    outer loop
      vertex 55.7744 8.65 2.0027
      vertex 48.65 8.65 0
      vertex 48.4289 8.65 0.825
    endloop
  endfacet
  facet normal 0 1 0
    outer loop
      vertex 56 8.65 0
      vertex 48.4289 8.65 -0.825
      vertex 48.65 8.65 0
    endloop
  endfacet
  facet normal 0 1 -0
    outer loop
      vertex 56 8.65 -3.50924
      vertex 48.4289 8.65 -0.825
      vertex 56 8.65 0
    endloop
  endfacet
  facet normal 0 1 0
    outer loop
      vertex 48.4289 8.65 -0.825
      vertex 56 8.65 -3.50924
      vertex 47.825 8.65 -1.42894
    endloop
  endfacet
  facet normal 0 1 0
    outer loop
      vertex 47.825 8.65 -1.42894
      vertex 56 8.65 -3.50924
      vertex 47 8.65 -1.65
    endloop
  endfacet
  facet normal 0 1 0
    outer loop
      vertex 47.825 8.65 1.42894
      vertex 52.6479 8.65 7
      vertex 54.0365 8.65 5.61142
    endloop
  endfacet
  facet normal 0 1 0
    outer loop
      vertex 47.825 8.65 1.42894
      vertex 54.0365 8.65 5.61142
      vertex 55.1087 8.65 3.90497
    endloop
  endfacet
  facet normal 0 1 0
    outer loop
      vertex 48.4289 8.65 0.825
      vertex 55.1087 8.65 3.90497
      vertex 55.7744 8.65 2.0027
    endloop
  endfacet
  facet normal 0 1 0
    outer loop
      vertex 52.6479 8.65 7
      vertex 47 8.65 1.65
      vertex 38 8.65 7
    endloop
  endfacet
  facet normal 0 1 -0
    outer loop
      vertex 46.175 8.65 1.42894
      vertex 38 8.65 7
      vertex 47 8.65 1.65
    endloop
  endfacet
  facet normal 0 1 -0
    outer loop
      vertex 45.5711 8.65 0.825
      vertex 38 8.65 7
      vertex 46.175 8.65 1.42894
    endloop
  endfacet
  facet normal 0 1 -0
    outer loop
      vertex 45.35 8.65 0
      vertex 38 8.65 7
      vertex 45.5711 8.65 0.825
    endloop
  endfacet
  facet normal 0 1 0
    outer loop
      vertex 38 8.65 -3.50924
      vertex 45.35 8.65 0
      vertex 45.5711 8.65 -0.825
    endloop
  endfacet
  facet normal 0 1 0
    outer loop
      vertex 45.35 8.65 0
      vertex 38 8.65 -3.50924
      vertex 38 8.65 7
    endloop
  endfacet
  facet normal 0 1 0
    outer loop
      vertex 46.175 8.65 -1.42894
      vertex 38 8.65 -3.50924
      vertex 45.5711 8.65 -0.825
    endloop
  endfacet
  facet normal 0 1 0
    outer loop
      vertex 47 8.65 -1.65
      vertex 38 8.65 -3.50924
      vertex 46.175 8.65 -1.42894
    endloop
  endfacet
  facet normal 0 1 0
    outer loop
      vertex 38 8.65 -3.50924
      vertex 47 8.65 -1.65
      vertex 56 8.65 -3.50924
    endloop
  endfacet
  facet normal 0 -1 0
    outer loop
      vertex 47 -8.65 1.65
      vertex 52.6479 -8.65 7
      vertex 38 -8.65 7
    endloop
  endfacet
  facet normal 0 -1 0
    outer loop
      vertex 47.825 -8.65 1.42894
      vertex 52.6479 -8.65 7
      vertex 47 -8.65 1.65
    endloop
  endfacet
  facet normal 0 -1 -0
    outer loop
      vertex 52.6479 -8.65 7
      vertex 47.825 -8.65 1.42894
      vertex 54.0365 -8.65 5.61142
    endloop
  endfacet
  facet normal 0 -1 0
    outer loop
      vertex 48.4289 -8.65 0.825
      vertex 54.0365 -8.65 5.61142
      vertex 47.825 -8.65 1.42894
    endloop
  endfacet
  facet normal 0 -1 0
    outer loop
      vertex 38 -8.65 7
      vertex 46.175 -8.65 1.42894
      vertex 47 -8.65 1.65
    endloop
  endfacet
  facet normal 0 -1 0
    outer loop
      vertex 38 -8.65 7
      vertex 45.5711 -8.65 0.825
      vertex 46.175 -8.65 1.42894
    endloop
  endfacet
  facet normal 0 -1 0
    outer loop
      vertex 38 -8.65 7
      vertex 45.35 -8.65 0
      vertex 45.5711 -8.65 0.825
    endloop
  endfacet
  facet normal 0 -1 0
    outer loop
      vertex 38 -8.65 -3.50924
      vertex 45.35 -8.65 0
      vertex 38 -8.65 7
    endloop
  endfacet
  facet normal 0 -1 -0
    outer loop
      vertex 46.175 -8.65 -1.42894
      vertex 38 -8.65 -3.50924
      vertex 47 -8.65 -1.65
    endloop
  endfacet
  facet normal 0 -1 -0
    outer loop
      vertex 45.5711 -8.65 -0.825
      vertex 38 -8.65 -3.50924
      vertex 46.175 -8.65 -1.42894
    endloop
  endfacet
  facet normal 0 -1 -0
    outer loop
      vertex 45.35 -8.65 0
      vertex 38 -8.65 -3.50924
      vertex 45.5711 -8.65 -0.825
    endloop
  endfacet
  facet normal 0 -1 -0
    outer loop
      vertex 54.0365 -8.65 5.61142
      vertex 48.4289 -8.65 0.825
      vertex 55.1087 -8.65 3.90497
    endloop
  endfacet
  facet normal 0 -1 -0
    outer loop
      vertex 55.1087 -8.65 3.90497
      vertex 48.4289 -8.65 0.825
      vertex 55.7744 -8.65 2.0027
    endloop
  endfacet
  facet normal 0 -1 0
    outer loop
      vertex 48.65 -8.65 0
      vertex 55.7744 -8.65 2.0027
      vertex 48.4289 -8.65 0.825
    endloop
  endfacet
  facet normal 0 -1 0
    outer loop
      vertex 48.65 -8.65 0
      vertex 56 -8.65 0
      vertex 55.7744 -8.65 2.0027
    endloop
  endfacet
  facet normal 0 -1 0
    outer loop
      vertex 48.4289 -8.65 -0.825
      vertex 56 -8.65 0
      vertex 48.65 -8.65 0
    endloop
  endfacet
  facet normal 0 -1 0
    outer loop
      vertex 56 -8.65 -3.50924
      vertex 48.4289 -8.65 -0.825
      vertex 47.825 -8.65 -1.42894
    endloop
  endfacet
  facet normal 0 -1 0
    outer loop
      vertex 56 -8.65 -3.50924
      vertex 47.825 -8.65 -1.42894
      vertex 47 -8.65 -1.65
    endloop
  endfacet
  facet normal 0 -1 0
    outer loop
      vertex 56 -8.65 -3.50924
      vertex 47 -8.65 -1.65
      vertex 38 -8.65 -3.50924
    endloop
  endfacet
  facet normal 0 -1 0
    outer loop
      vertex 48.4289 -8.65 -0.825
      vertex 56 -8.65 -3.50924
      vertex 56 -8.65 0
    endloop
  endfacet
  facet normal 0 0.991444 0.130532
    outer loop
      vertex 56 9.3 -5.3
      vertex 38 9.20118 -4.54942
      vertex 56 9.20118 -4.54942
    endloop
  endfacet
  facet normal 0 0.991444 0.130532
    outer loop
      vertex 38 9.20118 -4.54942
      vertex 56 9.3 -5.3
      vertex 38 9.3 -5.3
    endloop
  endfacet
  facet normal 0 -0.991446 -0.13052
    outer loop
      vertex 40 3.59881 -6.05057
      vertex 56 3.5 -5.3
      vertex 40 3.5 -5.3
    endloop
  endfacet
  facet normal 0 -0.991446 -0.13052
    outer loop
      vertex 56 3.5 -5.3
      vertex 40 3.59881 -6.05057
      vertex 56 3.59881 -6.05057
    endloop
  endfacet
  facet normal 0 -0.923876 -0.382691
    outer loop
      vertex 40 3.88853 -6.75
      vertex 56 3.59881 -6.05057
      vertex 40 3.59881 -6.05057
    endloop
  endfacet
  facet normal 0 -0.923876 -0.382691
    outer loop
      vertex 56 3.59881 -6.05057
      vertex 40 3.88853 -6.75
      vertex 56 3.88853 -6.75
    endloop
  endfacet
  facet normal 0 0.793356 -0.608758
    outer loop
      vertex 56 8.45061 -7.35061
      vertex 38 8.91147 -6.75
      vertex 56 8.91147 -6.75
    endloop
  endfacet
  facet normal 0 0.793356 -0.608758
    outer loop
      vertex 38 8.91147 -6.75
      vertex 56 8.45061 -7.35061
      vertex 38 8.45061 -7.35061
    endloop
  endfacet
  facet normal 0 0.923881 -0.38268
    outer loop
      vertex 56 8.91147 -6.75
      vertex 38 9.20118 -6.05057
      vertex 56 9.20118 -6.05057
    endloop
  endfacet
  facet normal 0 0.923881 -0.38268
    outer loop
      vertex 38 9.20118 -6.05057
      vertex 56 8.91147 -6.75
      vertex 38 8.91147 -6.75
    endloop
  endfacet
  facet normal 0 0.793358 0.608755
    outer loop
      vertex 56 8.91147 -3.85
      vertex 38 8.65 -3.50924
      vertex 56 8.65 -3.50924
    endloop
  endfacet
  facet normal 0 0.793358 0.608755
    outer loop
      vertex 38 8.65 -3.50924
      vertex 56 8.91147 -3.85
      vertex 38 8.91147 -3.85
    endloop
  endfacet
  facet normal 0 0.923879 0.382684
    outer loop
      vertex 56 9.20118 -4.54942
      vertex 38 8.91147 -3.85
      vertex 56 8.91147 -3.85
    endloop
  endfacet
  facet normal 0 0.923879 0.382684
    outer loop
      vertex 38 8.91147 -3.85
      vertex 56 9.20118 -4.54942
      vertex 38 9.20118 -4.54942
    endloop
  endfacet
  facet normal 0 0.608759 -0.793355
    outer loop
      vertex 38 8.25592 -7.5
      vertex 56 8.45061 -7.35061
      vertex 56 8.25592 -7.5
    endloop
  endfacet
  facet normal 0 0.608759 -0.793355
    outer loop
      vertex 56 8.45061 -7.35061
      vertex 38 8.25592 -7.5
      vertex 38 8.45061 -7.35061
    endloop
  endfacet
  facet normal 0 0.991444 -0.130533
    outer loop
      vertex 56 9.20118 -6.05057
      vertex 38 9.3 -5.3
      vertex 56 9.3 -5.3
    endloop
  endfacet
  facet normal 0 0.991444 -0.130533
    outer loop
      vertex 38 9.3 -5.3
      vertex 56 9.20118 -6.05057
      vertex 38 9.20118 -6.05057
    endloop
  endfacet
  facet normal 0 -0.793356 0.608758
    outer loop
      vertex 40 3.88853 -3.85
      vertex 56 4.34939 -3.24939
      vertex 40 4.34939 -3.24939
    endloop
  endfacet
  facet normal 0 -0.793356 0.608758
    outer loop
      vertex 56 4.34939 -3.24939
      vertex 40 3.88853 -3.85
      vertex 56 3.88853 -3.85
    endloop
  endfacet
  facet normal 0 -0.608718 0.793387
    outer loop
      vertex 40 4.4 -3.21056
      vertex 56 4.34939 -3.24939
      vertex 56 4.4 -3.21056
    endloop
  endfacet
  facet normal 0 -0.608718 0.793387
    outer loop
      vertex 56 4.34939 -3.24939
      vertex 40 4.4 -3.21056
      vertex 40 4.34939 -3.24939
    endloop
  endfacet
  facet normal 0 -0.793356 -0.608758
    outer loop
      vertex 38 4.08036 -7
      vertex 38 4.34939 -7.35061
      vertex 40 4.08036 -7
    endloop
  endfacet
  facet normal 0 -0.793356 -0.608758
    outer loop
      vertex 40 4.08036 -7
      vertex 56 3.88853 -6.75
      vertex 40 3.88853 -6.75
    endloop
  endfacet
  facet normal -0 -0.793356 -0.608758
    outer loop
      vertex 56 4.34939 -7.35061
      vertex 40 4.08036 -7
      vertex 38 4.34939 -7.35061
    endloop
  endfacet
  facet normal -1.34568e-09 -0.793356 -0.608758
    outer loop
      vertex 40 4.08036 -7
      vertex 56 4.34939 -7.35061
      vertex 56 3.88853 -6.75
    endloop
  endfacet
  facet normal 0 -0.608759 -0.793355
    outer loop
      vertex 38 4.34939 -7.35061
      vertex 56 4.54408 -7.5
      vertex 56 4.34939 -7.35061
    endloop
  endfacet
  facet normal -0 -0.608759 -0.793355
    outer loop
      vertex 56 4.54408 -7.5
      vertex 38 4.34939 -7.35061
      vertex 38 4.54408 -7.5
    endloop
  endfacet
  facet normal 0 -0.923875 0.382696
    outer loop
      vertex 40 3.59881 -4.54942
      vertex 56 3.88853 -3.85
      vertex 40 3.88853 -3.85
    endloop
  endfacet
  facet normal 0 -0.923875 0.382696
    outer loop
      vertex 56 3.88853 -3.85
      vertex 40 3.59881 -4.54942
      vertex 56 3.59881 -4.54942
    endloop
  endfacet
  facet normal 0 -0.991446 0.130519
    outer loop
      vertex 40 3.5 -5.3
      vertex 56 3.59881 -4.54942
      vertex 40 3.59881 -4.54942
    endloop
  endfacet
  facet normal 0 -0.991446 0.130519
    outer loop
      vertex 56 3.59881 -4.54942
      vertex 40 3.5 -5.3
      vertex 56 3.5 -5.3
    endloop
  endfacet
  facet normal 0 0 -1
    outer loop
      vertex 38 4.54408 -7.5
      vertex 56 8.25592 -7.5
      vertex 56 4.54408 -7.5
    endloop
  endfacet
  facet normal -0 0 -1
    outer loop
      vertex 56 8.25592 -7.5
      vertex 38 4.54408 -7.5
      vertex 38 8.25592 -7.5
    endloop
  endfacet
  facet normal 0 -0.991444 0.130532
    outer loop
      vertex 38 -9.3 -5.3
      vertex 56 -9.20118 -4.54942
      vertex 38 -9.20118 -4.54942
    endloop
  endfacet
  facet normal 0 -0.991444 0.130532
    outer loop
      vertex 56 -9.20118 -4.54942
      vertex 38 -9.3 -5.3
      vertex 56 -9.3 -5.3
    endloop
  endfacet
  facet normal 0 0.991446 -0.13052
    outer loop
      vertex 56 -3.59881 -6.05057
      vertex 40 -3.5 -5.3
      vertex 56 -3.5 -5.3
    endloop
  endfacet
  facet normal 0 0.991446 -0.13052
    outer loop
      vertex 40 -3.5 -5.3
      vertex 56 -3.59881 -6.05057
      vertex 40 -3.59881 -6.05057
    endloop
  endfacet
  facet normal 0 0.923876 -0.382691
    outer loop
      vertex 56 -3.88853 -6.75
      vertex 40 -3.59881 -6.05057
      vertex 56 -3.59881 -6.05057
    endloop
  endfacet
  facet normal 0 0.923876 -0.382691
    outer loop
      vertex 40 -3.59881 -6.05057
      vertex 56 -3.88853 -6.75
      vertex 40 -3.88853 -6.75
    endloop
  endfacet
  facet normal 0 -0.793356 -0.608758
    outer loop
      vertex 38 -8.45061 -7.35061
      vertex 56 -8.91147 -6.75
      vertex 38 -8.91147 -6.75
    endloop
  endfacet
  facet normal 0 -0.793356 -0.608758
    outer loop
      vertex 56 -8.91147 -6.75
      vertex 38 -8.45061 -7.35061
      vertex 56 -8.45061 -7.35061
    endloop
  endfacet
  facet normal 0 -0.923881 -0.38268
    outer loop
      vertex 38 -8.91147 -6.75
      vertex 56 -9.20118 -6.05057
      vertex 38 -9.20118 -6.05057
    endloop
  endfacet
  facet normal 0 -0.923881 -0.38268
    outer loop
      vertex 56 -9.20118 -6.05057
      vertex 38 -8.91147 -6.75
      vertex 56 -8.91147 -6.75
    endloop
  endfacet
  facet normal 0 -0.793358 0.608755
    outer loop
      vertex 38 -8.91147 -3.85
      vertex 56 -8.65 -3.50924
      vertex 38 -8.65 -3.50924
    endloop
  endfacet
  facet normal 0 -0.793358 0.608755
    outer loop
      vertex 56 -8.65 -3.50924
      vertex 38 -8.91147 -3.85
      vertex 56 -8.91147 -3.85
    endloop
  endfacet
  facet normal 0 -0.923879 0.382684
    outer loop
      vertex 38 -9.20118 -4.54942
      vertex 56 -8.91147 -3.85
      vertex 38 -8.91147 -3.85
    endloop
  endfacet
  facet normal 0 -0.923879 0.382684
    outer loop
      vertex 56 -8.91147 -3.85
      vertex 38 -9.20118 -4.54942
      vertex 56 -9.20118 -4.54942
    endloop
  endfacet
  facet normal 0 -0.608759 -0.793355
    outer loop
      vertex 38 -8.45061 -7.35061
      vertex 56 -8.25592 -7.5
      vertex 56 -8.45061 -7.35061
    endloop
  endfacet
  facet normal -0 -0.608759 -0.793355
    outer loop
      vertex 56 -8.25592 -7.5
      vertex 38 -8.45061 -7.35061
      vertex 38 -8.25592 -7.5
    endloop
  endfacet
  facet normal 0 -0.991444 -0.130533
    outer loop
      vertex 38 -9.20118 -6.05057
      vertex 56 -9.3 -5.3
      vertex 38 -9.3 -5.3
    endloop
  endfacet
  facet normal 0 -0.991444 -0.130533
    outer loop
      vertex 56 -9.3 -5.3
      vertex 38 -9.20118 -6.05057
      vertex 56 -9.20118 -6.05057
    endloop
  endfacet
  facet normal 0 0.793356 0.608758
    outer loop
      vertex 56 -3.88853 -3.85
      vertex 40 -4.34939 -3.24939
      vertex 56 -4.34939 -3.24939
    endloop
  endfacet
  facet normal 0 0.793356 0.608758
    outer loop
      vertex 40 -4.34939 -3.24939
      vertex 56 -3.88853 -3.85
      vertex 40 -3.88853 -3.85
    endloop
  endfacet
  facet normal -0 0.608718 0.793387
    outer loop
      vertex 40 -4.34939 -3.24939
      vertex 56 -4.4 -3.21056
      vertex 56 -4.34939 -3.24939
    endloop
  endfacet
  facet normal 0 0.608718 0.793387
    outer loop
      vertex 56 -4.4 -3.21056
      vertex 40 -4.34939 -3.24939
      vertex 40 -4.4 -3.21056
    endloop
  endfacet
  facet normal 0 0.793356 -0.608758
    outer loop
      vertex 56 -3.88853 -6.75
      vertex 40 -4.08036 -7
      vertex 40 -3.88853 -6.75
    endloop
  endfacet
  facet normal -1.34568e-09 0.793356 -0.608758
    outer loop
      vertex 56 -4.34939 -7.35061
      vertex 40 -4.08036 -7
      vertex 56 -3.88853 -6.75
    endloop
  endfacet
  facet normal 0 0.793356 -0.608758
    outer loop
      vertex 38 -4.34939 -7.35061
      vertex 40 -4.08036 -7
      vertex 56 -4.34939 -7.35061
    endloop
  endfacet
  facet normal 0 0.793356 -0.608758
    outer loop
      vertex 40 -4.08036 -7
      vertex 38 -4.34939 -7.35061
      vertex 38 -4.08036 -7
    endloop
  endfacet
  facet normal 0 0.608759 -0.793355
    outer loop
      vertex 38 -4.54408 -7.5
      vertex 56 -4.34939 -7.35061
      vertex 56 -4.54408 -7.5
    endloop
  endfacet
  facet normal 0 0.608759 -0.793355
    outer loop
      vertex 56 -4.34939 -7.35061
      vertex 38 -4.54408 -7.5
      vertex 38 -4.34939 -7.35061
    endloop
  endfacet
  facet normal 0 0.923875 0.382696
    outer loop
      vertex 56 -3.59881 -4.54942
      vertex 40 -3.88853 -3.85
      vertex 56 -3.88853 -3.85
    endloop
  endfacet
  facet normal 0 0.923875 0.382696
    outer loop
      vertex 40 -3.88853 -3.85
      vertex 56 -3.59881 -4.54942
      vertex 40 -3.59881 -4.54942
    endloop
  endfacet
  facet normal 0 0.991446 0.130519
    outer loop
      vertex 56 -3.5 -5.3
      vertex 40 -3.59881 -4.54942
      vertex 56 -3.59881 -4.54942
    endloop
  endfacet
  facet normal 0 0.991446 0.130519
    outer loop
      vertex 40 -3.59881 -4.54942
      vertex 56 -3.5 -5.3
      vertex 40 -3.5 -5.3
    endloop
  endfacet
  facet normal 0 0 -1
    outer loop
      vertex 38 -8.25592 -7.5
      vertex 56 -4.54408 -7.5
      vertex 56 -8.25592 -7.5
    endloop
  endfacet
  facet normal -0 0 -1
    outer loop
      vertex 56 -4.54408 -7.5
      vertex 38 -8.25592 -7.5
      vertex 38 -4.54408 -7.5
    endloop
  endfacet
  facet normal 1 0 0
    outer loop
      vertex 40 -4.4 -3.21056
      vertex 40 4.4 -3.21056
      vertex 40 4.4 9
    endloop
  endfacet
  facet normal 1 0 0
    outer loop
      vertex 40 4.4 -3.21056
      vertex 40 -4.4 -3.21056
      vertex 40 4.34939 -3.24939
    endloop
  endfacet
  facet normal 1 0 0
    outer loop
      vertex 40 4.34939 -3.24939
      vertex 40 -4.34939 -3.24939
      vertex 40 3.88853 -3.85
    endloop
  endfacet
  facet normal 1 0 -0
    outer loop
      vertex 40 -3.88853 -3.85
      vertex 40 3.88853 -3.85
      vertex 40 -4.34939 -3.24939
    endloop
  endfacet
  facet normal 1 0 0
    outer loop
      vertex 40 3.88853 -3.85
      vertex 40 -3.88853 -3.85
      vertex 40 3.59881 -4.54942
    endloop
  endfacet
  facet normal 1 0 0
    outer loop
      vertex 40 3.5 -5.3
      vertex 40 -3.59881 -4.54942
      vertex 40 -3.5 -5.3
    endloop
  endfacet
  facet normal 1 0 0
    outer loop
      vertex 40 3.59881 -4.54942
      vertex 40 -3.59881 -4.54942
      vertex 40 3.5 -5.3
    endloop
  endfacet
  facet normal 1 0 -0
    outer loop
      vertex 40 -3.59881 -4.54942
      vertex 40 3.59881 -4.54942
      vertex 40 -3.88853 -3.85
    endloop
  endfacet
  facet normal 1 0 0
    outer loop
      vertex 40 -4.4 -3.21056
      vertex 40 4.4 9
      vertex 40 -4.4 9
    endloop
  endfacet
  facet normal 1 0 0
    outer loop
      vertex 40 4.34939 -3.24939
      vertex 40 -4.4 -3.21056
      vertex 40 -4.34939 -3.24939
    endloop
  endfacet
  facet normal 1 -0 0
    outer loop
      vertex 40 -3.5 -5.3
      vertex 40 3.59881 -6.05057
      vertex 40 3.5 -5.3
    endloop
  endfacet
  facet normal 1 0 0
    outer loop
      vertex 40 -3.59881 -6.05057
      vertex 40 3.59881 -6.05057
      vertex 40 -3.5 -5.3
    endloop
  endfacet
  facet normal 1 0 0
    outer loop
      vertex 40 3.59881 -6.05057
      vertex 40 -3.59881 -6.05057
      vertex 40 3.88853 -6.75
    endloop
  endfacet
  facet normal 1 0 0
    outer loop
      vertex 40 -3.88853 -6.75
      vertex 40 3.88853 -6.75
      vertex 40 -3.59881 -6.05057
    endloop
  endfacet
  facet normal 1 0 0
    outer loop
      vertex 40 3.88853 -6.75
      vertex 40 -3.88853 -6.75
      vertex 40 4.08036 -7
    endloop
  endfacet
  facet normal 1 0 0
    outer loop
      vertex 40 4.08036 -7
      vertex 40 -3.88853 -6.75
      vertex 40 -4.08036 -7
    endloop
  endfacet
  facet normal 0 0 -1
    outer loop
      vertex 38 -4.08036 -7
      vertex 40 4.08036 -7
      vertex 40 -4.08036 -7
    endloop
  endfacet
  facet normal -0 0 -1
    outer loop
      vertex 40 4.08036 -7
      vertex 38 -4.08036 -7
      vertex 38 4.08036 -7
    endloop
  endfacet
  facet normal 0 -0.258821 0.965925
    outer loop
      vertex 38 7.225 -6.72894
      vertex 56 6.4 -6.95
      vertex 56 7.225 -6.72894
    endloop
  endfacet
  facet normal 0 -0.258821 0.965925
    outer loop
      vertex 56 6.4 -6.95
      vertex 38 7.225 -6.72894
      vertex 38 6.4 -6.95
    endloop
  endfacet
  facet normal 0 -0.965925 -0.258821
    outer loop
      vertex 38 8.05 -5.3
      vertex 56 7.82894 -4.475
      vertex 38 7.82894 -4.475
    endloop
  endfacet
  facet normal 0 -0.965925 -0.258821
    outer loop
      vertex 56 7.82894 -4.475
      vertex 38 8.05 -5.3
      vertex 56 8.05 -5.3
    endloop
  endfacet
  facet normal 0 -0.707107 0.707107
    outer loop
      vertex 38 7.82894 -6.125
      vertex 56 7.225 -6.72894
      vertex 56 7.82894 -6.125
    endloop
  endfacet
  facet normal 0 -0.707107 0.707107
    outer loop
      vertex 56 7.225 -6.72894
      vertex 38 7.82894 -6.125
      vertex 38 7.225 -6.72894
    endloop
  endfacet
  facet normal 0 -0.707107 -0.707107
    outer loop
      vertex 38 7.82894 -4.475
      vertex 56 7.225 -3.87106
      vertex 38 7.225 -3.87106
    endloop
  endfacet
  facet normal 0 -0.707107 -0.707107
    outer loop
      vertex 56 7.225 -3.87106
      vertex 38 7.82894 -4.475
      vertex 56 7.82894 -4.475
    endloop
  endfacet
  facet normal 0 0.965925 0.258821
    outer loop
      vertex 56 4.97106 -6.125
      vertex 38 4.75 -5.3
      vertex 56 4.75 -5.3
    endloop
  endfacet
  facet normal 0 0.965925 0.258821
    outer loop
      vertex 38 4.75 -5.3
      vertex 56 4.97106 -6.125
      vertex 38 4.97106 -6.125
    endloop
  endfacet
  facet normal -0 0.707107 0.707107
    outer loop
      vertex 38 5.575 -6.72894
      vertex 56 4.97106 -6.125
      vertex 56 5.575 -6.72894
    endloop
  endfacet
  facet normal 0 0.707107 0.707107
    outer loop
      vertex 56 4.97106 -6.125
      vertex 38 5.575 -6.72894
      vertex 38 4.97106 -6.125
    endloop
  endfacet
  facet normal 0 0.707107 -0.707107
    outer loop
      vertex 56 4.97106 -4.475
      vertex 38 5.575 -3.87106
      vertex 56 5.575 -3.87106
    endloop
  endfacet
  facet normal 0 0.707107 -0.707107
    outer loop
      vertex 38 5.575 -3.87106
      vertex 56 4.97106 -4.475
      vertex 38 4.97106 -4.475
    endloop
  endfacet
  facet normal 0 -0.965925 0.258821
    outer loop
      vertex 38 7.82894 -6.125
      vertex 56 8.05 -5.3
      vertex 38 8.05 -5.3
    endloop
  endfacet
  facet normal 0 -0.965925 0.258821
    outer loop
      vertex 56 8.05 -5.3
      vertex 38 7.82894 -6.125
      vertex 56 7.82894 -6.125
    endloop
  endfacet
  facet normal 0 -0.258821 -0.965925
    outer loop
      vertex 38 6.4 -3.65
      vertex 56 7.225 -3.87106
      vertex 56 6.4 -3.65
    endloop
  endfacet
  facet normal -0 -0.258821 -0.965925
    outer loop
      vertex 56 7.225 -3.87106
      vertex 38 6.4 -3.65
      vertex 38 7.225 -3.87106
    endloop
  endfacet
  facet normal -0 0.258821 0.965925
    outer loop
      vertex 38 6.4 -6.95
      vertex 56 5.575 -6.72894
      vertex 56 6.4 -6.95
    endloop
  endfacet
  facet normal 0 0.258821 0.965925
    outer loop
      vertex 56 5.575 -6.72894
      vertex 38 6.4 -6.95
      vertex 38 5.575 -6.72894
    endloop
  endfacet
  facet normal 0 0.965925 -0.258821
    outer loop
      vertex 56 4.75 -5.3
      vertex 38 4.97106 -4.475
      vertex 56 4.97106 -4.475
    endloop
  endfacet
  facet normal 0 0.965925 -0.258821
    outer loop
      vertex 38 4.97106 -4.475
      vertex 56 4.75 -5.3
      vertex 38 4.75 -5.3
    endloop
  endfacet
  facet normal 0 0.258821 -0.965925
    outer loop
      vertex 38 5.575 -3.87106
      vertex 56 6.4 -3.65
      vertex 56 5.575 -3.87106
    endloop
  endfacet
  facet normal 0 0.258821 -0.965925
    outer loop
      vertex 56 6.4 -3.65
      vertex 38 5.575 -3.87106
      vertex 38 6.4 -3.65
    endloop
  endfacet
  facet normal 0 -0.258821 0.965925
    outer loop
      vertex 38 -5.575 -6.72894
      vertex 56 -6.4 -6.95
      vertex 56 -5.575 -6.72894
    endloop
  endfacet
  facet normal 0 -0.258821 0.965925
    outer loop
      vertex 56 -6.4 -6.95
      vertex 38 -5.575 -6.72894
      vertex 38 -6.4 -6.95
    endloop
  endfacet
  facet normal 0 0.258821 -0.965925
    outer loop
      vertex 38 -7.225 -3.87106
      vertex 56 -6.4 -3.65
      vertex 56 -7.225 -3.87106
    endloop
  endfacet
  facet normal 0 0.258821 -0.965925
    outer loop
      vertex 56 -6.4 -3.65
      vertex 38 -7.225 -3.87106
      vertex 38 -6.4 -3.65
    endloop
  endfacet
  facet normal 0 -0.965925 -0.258821
    outer loop
      vertex 38 -4.75 -5.3
      vertex 56 -4.97106 -4.475
      vertex 38 -4.97106 -4.475
    endloop
  endfacet
  facet normal 0 -0.965925 -0.258821
    outer loop
      vertex 56 -4.97106 -4.475
      vertex 38 -4.75 -5.3
      vertex 56 -4.75 -5.3
    endloop
  endfacet
  facet normal 0 -0.707107 0.707107
    outer loop
      vertex 38 -4.97106 -6.125
      vertex 56 -5.575 -6.72894
      vertex 56 -4.97106 -6.125
    endloop
  endfacet
  facet normal 0 -0.707107 0.707107
    outer loop
      vertex 56 -5.575 -6.72894
      vertex 38 -4.97106 -6.125
      vertex 38 -5.575 -6.72894
    endloop
  endfacet
  facet normal 0 -0.707107 -0.707107
    outer loop
      vertex 38 -4.97106 -4.475
      vertex 56 -5.575 -3.87106
      vertex 38 -5.575 -3.87106
    endloop
  endfacet
  facet normal 0 -0.707107 -0.707107
    outer loop
      vertex 56 -5.575 -3.87106
      vertex 38 -4.97106 -4.475
      vertex 56 -4.97106 -4.475
    endloop
  endfacet
  facet normal -0 0.707107 0.707107
    outer loop
      vertex 38 -7.225 -6.72894
      vertex 56 -7.82894 -6.125
      vertex 56 -7.225 -6.72894
    endloop
  endfacet
  facet normal 0 0.707107 0.707107
    outer loop
      vertex 56 -7.82894 -6.125
      vertex 38 -7.225 -6.72894
      vertex 38 -7.82894 -6.125
    endloop
  endfacet
  facet normal 0 0.707107 -0.707107
    outer loop
      vertex 56 -7.82894 -4.475
      vertex 38 -7.225 -3.87106
      vertex 56 -7.225 -3.87106
    endloop
  endfacet
  facet normal 0 0.707107 -0.707107
    outer loop
      vertex 38 -7.225 -3.87106
      vertex 56 -7.82894 -4.475
      vertex 38 -7.82894 -4.475
    endloop
  endfacet
  facet normal 0 -0.965925 0.258821
    outer loop
      vertex 38 -4.97106 -6.125
      vertex 56 -4.75 -5.3
      vertex 38 -4.75 -5.3
    endloop
  endfacet
  facet normal 0 -0.965925 0.258821
    outer loop
      vertex 56 -4.75 -5.3
      vertex 38 -4.97106 -6.125
      vertex 56 -4.97106 -6.125
    endloop
  endfacet
  facet normal 0 -0.258821 -0.965925
    outer loop
      vertex 38 -6.4 -3.65
      vertex 56 -5.575 -3.87106
      vertex 56 -6.4 -3.65
    endloop
  endfacet
  facet normal -0 -0.258821 -0.965925
    outer loop
      vertex 56 -5.575 -3.87106
      vertex 38 -6.4 -3.65
      vertex 38 -5.575 -3.87106
    endloop
  endfacet
  facet normal -0 0.258821 0.965925
    outer loop
      vertex 38 -6.4 -6.95
      vertex 56 -7.225 -6.72894
      vertex 56 -6.4 -6.95
    endloop
  endfacet
  facet normal 0 0.258821 0.965925
    outer loop
      vertex 56 -7.225 -6.72894
      vertex 38 -6.4 -6.95
      vertex 38 -7.225 -6.72894
    endloop
  endfacet
  facet normal 0 0.965925 -0.258821
    outer loop
      vertex 56 -8.05 -5.3
      vertex 38 -7.82894 -4.475
      vertex 56 -7.82894 -4.475
    endloop
  endfacet
  facet normal 0 0.965925 -0.258821
    outer loop
      vertex 38 -7.82894 -4.475
      vertex 56 -8.05 -5.3
      vertex 38 -8.05 -5.3
    endloop
  endfacet
  facet normal 0 0.965925 0.258821
    outer loop
      vertex 56 -7.82894 -6.125
      vertex 38 -8.05 -5.3
      vertex 56 -8.05 -5.3
    endloop
  endfacet
  facet normal 0 0.965925 0.258821
    outer loop
      vertex 38 -8.05 -5.3
      vertex 56 -7.82894 -6.125
      vertex 38 -7.82894 -6.125
    endloop
  endfacet
endsolid OpenSCAD_Model
