solid OpenSCAD_Model
  facet normal 0 -1 0
    outer loop
      vertex 45.725 4.4 2.20836
      vertex 47 4.4 9
      vertex 40 4.4 9
    endloop
  endfacet
  facet normal -0 -1 0
    outer loop
      vertex 47 4.4 2.55
      vertex 47 4.4 9
      vertex 45.725 4.4 2.20836
    endloop
  endfacet
  facet normal 0 -1 0
    outer loop
      vertex 48.275 4.4 2.20836
      vertex 49.0027 4.4 8.77435
      vertex 47 4.4 2.55
    endloop
  endfacet
  facet normal 0 -1 -0
    outer loop
      vertex 49.0027 4.4 8.77435
      vertex 48.275 4.4 2.20836
      vertex 50.905 4.4 8.10873
    endloop
  endfacet
  facet normal 0 -1 -0
    outer loop
      vertex 50.905 4.4 8.10873
      vertex 48.275 4.4 2.20836
      vertex 52.6114 4.4 7.03648
    endloop
  endfacet
  facet normal 0 -1 -0
    outer loop
      vertex 52.6114 4.4 7.03648
      vertex 48.275 4.4 2.20836
      vertex 54.0365 4.4 5.61142
    endloop
  endfacet
  facet normal 0 -1 0
    outer loop
      vertex 47 4.4 9
      vertex 47 4.4 2.55
      vertex 49.0027 4.4 8.77435
    endloop
  endfacet
  facet normal 0 -1 0
    outer loop
      vertex 40 4.4 9
      vertex 44.7916 4.4 1.275
      vertex 45.725 4.4 2.20836
    endloop
  endfacet
  facet normal 0 -1 0
    outer loop
      vertex 40 4.4 -3.3463
      vertex 44.7916 4.4 1.275
      vertex 40 4.4 9
    endloop
  endfacet
  facet normal 0 -1 0
    outer loop
      vertex 44.7916 4.4 1.275
      vertex 40 4.4 -3.3463
      vertex 44.45 4.4 0
    endloop
  endfacet
  facet normal 0 -1 -0
    outer loop
      vertex 45.725 4.4 -2.20836
      vertex 40 4.4 -3.3463
      vertex 47 4.4 -2.55
    endloop
  endfacet
  facet normal 0 -1 -0
    outer loop
      vertex 44.7916 4.4 -1.275
      vertex 40 4.4 -3.3463
      vertex 45.725 4.4 -2.20836
    endloop
  endfacet
  facet normal 0 -1 -0
    outer loop
      vertex 44.45 4.4 0
      vertex 40 4.4 -3.3463
      vertex 44.7916 4.4 -1.275
    endloop
  endfacet
  facet normal 0 -1 0
    outer loop
      vertex 49.2084 4.4 1.275
      vertex 54.0365 4.4 5.61142
      vertex 48.275 4.4 2.20836
    endloop
  endfacet
  facet normal 0 -1 -0
    outer loop
      vertex 54.0365 4.4 5.61142
      vertex 49.2084 4.4 1.275
      vertex 55.1087 4.4 3.90497
    endloop
  endfacet
  facet normal 0 -1 -0
    outer loop
      vertex 55.1087 4.4 3.90497
      vertex 49.2084 4.4 1.275
      vertex 55.7744 4.4 2.0027
    endloop
  endfacet
  facet normal 0 -1 0
    outer loop
      vertex 49.55 4.4 0
      vertex 55.7744 4.4 2.0027
      vertex 49.2084 4.4 1.275
    endloop
  endfacet
  facet normal 0 -1 0
    outer loop
      vertex 49.55 4.4 0
      vertex 56 4.4 0
      vertex 55.7744 4.4 2.0027
    endloop
  endfacet
  facet normal 0 -1 0
    outer loop
      vertex 49.2084 4.4 -1.275
      vertex 56 4.4 0
      vertex 49.55 4.4 0
    endloop
  endfacet
  facet normal 0 -1 0
    outer loop
      vertex 56 4.4 -3.3463
      vertex 49.2084 4.4 -1.275
      vertex 48.275 4.4 -2.20836
    endloop
  endfacet
  facet normal 0 -1 0
    outer loop
      vertex 49.2084 4.4 -1.275
      vertex 56 4.4 -3.3463
      vertex 56 4.4 0
    endloop
  endfacet
  facet normal 0 -1 0
    outer loop
      vertex 47 4.4 -2.55
      vertex 56 4.4 -3.3463
      vertex 48.275 4.4 -2.20836
    endloop
  endfacet
  facet normal 0 -1 0
    outer loop
      vertex 56 4.4 -3.3463
      vertex 47 4.4 -2.55
      vertex 40 4.4 -3.3463
    endloop
  endfacet
  facet normal 0 1 0
    outer loop
      vertex 49.0027 -4.4 8.77435
      vertex 48.275 -4.4 2.20836
      vertex 47 -4.4 2.55
    endloop
  endfacet
  facet normal 0 1 0
    outer loop
      vertex 49.2084 -4.4 1.275
      vertex 55.1087 -4.4 3.90497
      vertex 55.7744 -4.4 2.0027
    endloop
  endfacet
  facet normal 0 1 0
    outer loop
      vertex 54.0365 -4.4 5.61142
      vertex 49.2084 -4.4 1.275
      vertex 48.275 -4.4 2.20836
    endloop
  endfacet
  facet normal 0 1 0
    outer loop
      vertex 49.55 -4.4 0
      vertex 55.7744 -4.4 2.0027
      vertex 56 -4.4 0
    endloop
  endfacet
  facet normal 0 1 0
    outer loop
      vertex 55.7744 -4.4 2.0027
      vertex 49.55 -4.4 0
      vertex 49.2084 -4.4 1.275
    endloop
  endfacet
  facet normal 0 1 0
    outer loop
      vertex 56 -4.4 0
      vertex 49.2084 -4.4 -1.275
      vertex 49.55 -4.4 0
    endloop
  endfacet
  facet normal 0 1 -0
    outer loop
      vertex 56 -4.4 -3.3463
      vertex 49.2084 -4.4 -1.275
      vertex 56 -4.4 0
    endloop
  endfacet
  facet normal 0 1 0
    outer loop
      vertex 48.275 -4.4 -2.20836
      vertex 56 -4.4 -3.3463
      vertex 47 -4.4 -2.55
    endloop
  endfacet
  facet normal 0 1 0
    outer loop
      vertex 49.2084 -4.4 -1.275
      vertex 56 -4.4 -3.3463
      vertex 48.275 -4.4 -2.20836
    endloop
  endfacet
  facet normal 0 1 0
    outer loop
      vertex 47 -4.4 2.55
      vertex 47 -4.4 9
      vertex 49.0027 -4.4 8.77435
    endloop
  endfacet
  facet normal 0 1 0
    outer loop
      vertex 48.275 -4.4 2.20836
      vertex 49.0027 -4.4 8.77435
      vertex 50.905 -4.4 8.10873
    endloop
  endfacet
  facet normal 0 1 0
    outer loop
      vertex 48.275 -4.4 2.20836
      vertex 50.905 -4.4 8.10873
      vertex 52.6114 -4.4 7.03648
    endloop
  endfacet
  facet normal 0 1 0
    outer loop
      vertex 48.275 -4.4 2.20836
      vertex 52.6114 -4.4 7.03648
      vertex 54.0365 -4.4 5.61142
    endloop
  endfacet
  facet normal 0 1 0
    outer loop
      vertex 49.2084 -4.4 1.275
      vertex 54.0365 -4.4 5.61142
      vertex 55.1087 -4.4 3.90497
    endloop
  endfacet
  facet normal 0 1 0
    outer loop
      vertex 47 -4.4 9
      vertex 47 -4.4 2.55
      vertex 45.725 -4.4 2.20836
    endloop
  endfacet
  facet normal 0 1 0
    outer loop
      vertex 47 -4.4 9
      vertex 45.725 -4.4 2.20836
      vertex 40 -4.4 9
    endloop
  endfacet
  facet normal 0 1 -0
    outer loop
      vertex 44.7916 -4.4 1.275
      vertex 40 -4.4 9
      vertex 45.725 -4.4 2.20836
    endloop
  endfacet
  facet normal 0 1 0
    outer loop
      vertex 40 -4.4 -3.3463
      vertex 44.7916 -4.4 1.275
      vertex 44.45 -4.4 0
    endloop
  endfacet
  facet normal 0 1 0
    outer loop
      vertex 40 -4.4 -3.3463
      vertex 44.45 -4.4 0
      vertex 44.7916 -4.4 -1.275
    endloop
  endfacet
  facet normal 0 1 0
    outer loop
      vertex 44.7916 -4.4 1.275
      vertex 40 -4.4 -3.3463
      vertex 40 -4.4 9
    endloop
  endfacet
  facet normal 0 1 0
    outer loop
      vertex 45.725 -4.4 -2.20836
      vertex 40 -4.4 -3.3463
      vertex 44.7916 -4.4 -1.275
    endloop
  endfacet
  facet normal 0 1 0
    outer loop
      vertex 47 -4.4 -2.55
      vertex 40 -4.4 -3.3463
      vertex 45.725 -4.4 -2.20836
    endloop
  endfacet
  facet normal 0 1 0
    outer loop
      vertex 40 -4.4 -3.3463
      vertex 47 -4.4 -2.55
      vertex 56 -4.4 -3.3463
    endloop
  endfacet
  facet normal 0 0 1
    outer loop
      vertex 47 6.21649 9
      vertex 40 4.4 9
      vertex 47 4.4 9
    endloop
  endfacet
  facet normal 0 0 1
    outer loop
      vertex 40 4.4 9
      vertex 38 6.21649 9
      vertex 40 -4.4 9
    endloop
  endfacet
  facet normal -0 0 1
    outer loop
      vertex 38 6.21649 9
      vertex 40 4.4 9
      vertex 47 6.21649 9
    endloop
  endfacet
  facet normal -0 0 1
    outer loop
      vertex 40 -4.4 9
      vertex 47 -6.21649 9
      vertex 47 -4.4 9
    endloop
  endfacet
  facet normal 0 0 1
    outer loop
      vertex 40 -4.4 9
      vertex 38 -6.21649 9
      vertex 47 -6.21649 9
    endloop
  endfacet
  facet normal 0 0 1
    outer loop
      vertex 38 -6.21649 9
      vertex 40 -4.4 9
      vertex 38 6.21649 9
    endloop
  endfacet
  facet normal 1 0 0
    outer loop
      vertex 56 7.225 -3.87106
      vertex 56 8.6 -3.60694
      vertex 56 8.6 0
    endloop
  endfacet
  facet normal 1 0 0
    outer loop
      vertex 56 8.6 -3.60694
      vertex 56 8.05 -5.3
      vertex 56 8.6 -6.99306
    endloop
  endfacet
  facet normal 1 -0 0
    outer loop
      vertex 56 7.82894 -6.125
      vertex 56 8.6 -6.99306
      vertex 56 8.05 -5.3
    endloop
  endfacet
  facet normal 1 0 -0
    outer loop
      vertex 56 8.59467 -7
      vertex 56 8.6 -6.99306
      vertex 56 7.82894 -6.125
    endloop
  endfacet
  facet normal 1 0 0
    outer loop
      vertex 56 8.6 -6.99306
      vertex 56 8.59467 -7
      vertex 56 8.6 -7
    endloop
  endfacet
  facet normal 1 0 0
    outer loop
      vertex 56 8.59467 -7
      vertex 56 7.82894 -6.125
      vertex 56 8.3799 -7.2799
    endloop
  endfacet
  facet normal 1 0 0
    outer loop
      vertex 56 8.6 -3.60694
      vertex 56 7.82894 -4.475
      vertex 56 8.05 -5.3
    endloop
  endfacet
  facet normal 1 0 0
    outer loop
      vertex 56 8.6 -3.60694
      vertex 56 7.225 -3.87106
      vertex 56 7.82894 -4.475
    endloop
  endfacet
  facet normal 1 0 0
    outer loop
      vertex 56 8.6 0
      vertex 56 6.4 -3.65
      vertex 56 7.225 -3.87106
    endloop
  endfacet
  facet normal 1 -0 0
    outer loop
      vertex 56 4.4 0
      vertex 56 6.4 -3.65
      vertex 56 8.6 0
    endloop
  endfacet
  facet normal 1 -0 0
    outer loop
      vertex 56 4.4 -3.3463
      vertex 56 6.4 -3.65
      vertex 56 4.4 0
    endloop
  endfacet
  facet normal 1 0 0
    outer loop
      vertex 56 5.575 -6.72894
      vertex 56 4.4201 -7.2799
      vertex 56 4.70694 -7.5
    endloop
  endfacet
  facet normal 1 0 0
    outer loop
      vertex 56 6.4 -3.65
      vertex 56 4.4 -3.3463
      vertex 56 5.575 -3.87106
    endloop
  endfacet
  facet normal 1 0 0
    outer loop
      vertex 56 5.575 -3.87106
      vertex 56 4.4 -3.3463
      vertex 56 4.97106 -4.475
    endloop
  endfacet
  facet normal 1 -0 0
    outer loop
      vertex 56 3.97513 -3.9
      vertex 56 4.97106 -4.475
      vertex 56 4.4 -3.3463
    endloop
  endfacet
  facet normal 1 0 0
    outer loop
      vertex 56 3.69541 -4.57531
      vertex 56 4.97106 -4.475
      vertex 56 3.97513 -3.9
    endloop
  endfacet
  facet normal 1 0 0
    outer loop
      vertex 56 4.97106 -4.475
      vertex 56 3.69541 -4.57531
      vertex 56 4.75 -5.3
    endloop
  endfacet
  facet normal 1 0 0
    outer loop
      vertex 56 4.97106 -6.125
      vertex 56 3.97513 -6.7
      vertex 56 4.4201 -7.2799
    endloop
  endfacet
  facet normal 1 0 0
    outer loop
      vertex 56 3.6 -5.3
      vertex 56 4.75 -5.3
      vertex 56 3.69541 -4.57531
    endloop
  endfacet
  facet normal 1 0 0
    outer loop
      vertex 56 4.97106 -6.125
      vertex 56 3.69541 -6.02469
      vertex 56 3.97513 -6.7
    endloop
  endfacet
  facet normal 1 0 0
    outer loop
      vertex 56 4.75 -5.3
      vertex 56 3.6 -5.3
      vertex 56 3.69541 -6.02469
    endloop
  endfacet
  facet normal 1 0 0
    outer loop
      vertex 56 8.6 -3.60694
      vertex 56 9.2 -5.3
      vertex 56 9.10459 -4.57531
    endloop
  endfacet
  facet normal 1 0 0
    outer loop
      vertex 56 8.6 -3.60694
      vertex 56 9.10459 -4.57531
      vertex 56 8.82487 -3.9
    endloop
  endfacet
  facet normal 1 0 0
    outer loop
      vertex 56 9.2 -5.3
      vertex 56 8.6 -3.60694
      vertex 56 9.10459 -6.02469
    endloop
  endfacet
  facet normal 1 0 0
    outer loop
      vertex 56 8.6 -6.99306
      vertex 56 9.10459 -6.02469
      vertex 56 8.6 -3.60694
    endloop
  endfacet
  facet normal 1 0 0
    outer loop
      vertex 56 9.10459 -6.02469
      vertex 56 8.6 -6.99306
      vertex 56 8.82487 -6.7
    endloop
  endfacet
  facet normal 1 -0 0
    outer loop
      vertex 56 7.225 -6.72894
      vertex 56 8.3799 -7.2799
      vertex 56 7.82894 -6.125
    endloop
  endfacet
  facet normal 1 0 0
    outer loop
      vertex 56 8.3799 -7.2799
      vertex 56 7.225 -6.72894
      vertex 56 8.09306 -7.5
    endloop
  endfacet
  facet normal 1 -0 0
    outer loop
      vertex 56 6.4 -6.95
      vertex 56 8.09306 -7.5
      vertex 56 7.225 -6.72894
    endloop
  endfacet
  facet normal 1 0 0
    outer loop
      vertex 56 4.70694 -7.5
      vertex 56 6.4 -6.95
      vertex 56 5.575 -6.72894
    endloop
  endfacet
  facet normal 1 0 0
    outer loop
      vertex 56 6.4 -6.95
      vertex 56 4.70694 -7.5
      vertex 56 8.09306 -7.5
    endloop
  endfacet
  facet normal 1 0 0
    outer loop
      vertex 56 4.4201 -7.2799
      vertex 56 5.575 -6.72894
      vertex 56 4.97106 -6.125
    endloop
  endfacet
  facet normal 1 -0 0
    outer loop
      vertex 56 3.69541 -6.02469
      vertex 56 4.97106 -6.125
      vertex 56 4.75 -5.3
    endloop
  endfacet
  facet normal -0.258822 0 -0.965925
    outer loop
      vertex 45.725 4 -2.20836
      vertex 47 4.4 -2.55
      vertex 47 4 -2.55
    endloop
  endfacet
  facet normal -0.258822 0 -0.965925
    outer loop
      vertex 47 4.4 -2.55
      vertex 45.725 4 -2.20836
      vertex 45.725 4.4 -2.20836
    endloop
  endfacet
  facet normal -0.258822 0 0.965925
    outer loop
      vertex 45.725 4.4 2.20836
      vertex 47 4 2.55
      vertex 47 4.4 2.55
    endloop
  endfacet
  facet normal -0.258822 0 0.965925
    outer loop
      vertex 47 4 2.55
      vertex 45.725 4.4 2.20836
      vertex 45.725 4 2.20836
    endloop
  endfacet
  facet normal -0.965932 0 0.258794
    outer loop
      vertex 44.45 4 0
      vertex 44.7916 4.4 1.275
      vertex 44.45 4.4 0
    endloop
  endfacet
  facet normal -0.965932 0 0.258794
    outer loop
      vertex 44.7916 4.4 1.275
      vertex 44.45 4 0
      vertex 44.7916 4 1.275
    endloop
  endfacet
  facet normal -0.707092 0 -0.707122
    outer loop
      vertex 45.725 4 -2.20836
      vertex 44.7916 4.4 -1.275
      vertex 45.725 4.4 -2.20836
    endloop
  endfacet
  facet normal -0.707092 -0 -0.707122
    outer loop
      vertex 44.7916 4.4 -1.275
      vertex 45.725 4 -2.20836
      vertex 44.7916 4 -1.275
    endloop
  endfacet
  facet normal -0.707092 0 0.707122
    outer loop
      vertex 44.7916 4 1.275
      vertex 45.725 4.4 2.20836
      vertex 44.7916 4.4 1.275
    endloop
  endfacet
  facet normal -0.707092 0 0.707122
    outer loop
      vertex 45.725 4.4 2.20836
      vertex 44.7916 4 1.275
      vertex 45.725 4 2.20836
    endloop
  endfacet
  facet normal 0.965932 0 -0.258794
    outer loop
      vertex 49.55 4 0
      vertex 49.2084 4.4 -1.275
      vertex 49.55 4.4 0
    endloop
  endfacet
  facet normal 0.965932 0 -0.258794
    outer loop
      vertex 49.2084 4.4 -1.275
      vertex 49.55 4 0
      vertex 49.2084 4 -1.275
    endloop
  endfacet
  facet normal 0.707092 0 -0.707122
    outer loop
      vertex 49.2084 4 -1.275
      vertex 48.275 4.4 -2.20836
      vertex 49.2084 4.4 -1.275
    endloop
  endfacet
  facet normal 0.707092 0 -0.707122
    outer loop
      vertex 48.275 4.4 -2.20836
      vertex 49.2084 4 -1.275
      vertex 48.275 4 -2.20836
    endloop
  endfacet
  facet normal -0.965932 0 -0.258794
    outer loop
      vertex 44.7916 4 -1.275
      vertex 44.45 4.4 0
      vertex 44.7916 4.4 -1.275
    endloop
  endfacet
  facet normal -0.965932 -0 -0.258794
    outer loop
      vertex 44.45 4.4 0
      vertex 44.7916 4 -1.275
      vertex 44.45 4 0
    endloop
  endfacet
  facet normal 0.258822 0 -0.965925
    outer loop
      vertex 47 4 -2.55
      vertex 48.275 4.4 -2.20836
      vertex 48.275 4 -2.20836
    endloop
  endfacet
  facet normal 0.258822 0 -0.965925
    outer loop
      vertex 48.275 4.4 -2.20836
      vertex 47 4 -2.55
      vertex 47 4.4 -2.55
    endloop
  endfacet
  facet normal 0 -1 0
    outer loop
      vertex 47 4 1.65
      vertex 47 4 2.55
      vertex 45.725 4 2.20836
    endloop
  endfacet
  facet normal 0 -1 0
    outer loop
      vertex 47 4 2.55
      vertex 47 4 1.65
      vertex 48.275 4 2.20836
    endloop
  endfacet
  facet normal 0 -1 0
    outer loop
      vertex 45.725 4 2.20836
      vertex 46.175 4 1.42894
      vertex 47 4 1.65
    endloop
  endfacet
  facet normal 0 -1 0
    outer loop
      vertex 44.7916 4 1.275
      vertex 46.175 4 1.42894
      vertex 45.725 4 2.20836
    endloop
  endfacet
  facet normal 0 -1 0
    outer loop
      vertex 44.7916 4 1.275
      vertex 45.5711 4 0.825
      vertex 46.175 4 1.42894
    endloop
  endfacet
  facet normal 0 -1 0
    outer loop
      vertex 44.45 4 0
      vertex 45.5711 4 0.825
      vertex 44.7916 4 1.275
    endloop
  endfacet
  facet normal 0 -1 0
    outer loop
      vertex 44.45 4 0
      vertex 45.35 4 0
      vertex 45.5711 4 0.825
    endloop
  endfacet
  facet normal 0 -1 0
    outer loop
      vertex 44.45 4 0
      vertex 45.5711 4 -0.825
      vertex 45.35 4 0
    endloop
  endfacet
  facet normal 0 -1 0
    outer loop
      vertex 44.7916 4 -1.275
      vertex 45.5711 4 -0.825
      vertex 44.45 4 0
    endloop
  endfacet
  facet normal 0 -1 0
    outer loop
      vertex 44.7916 4 -1.275
      vertex 46.175 4 -1.42894
      vertex 45.5711 4 -0.825
    endloop
  endfacet
  facet normal 0 -1 0
    outer loop
      vertex 45.725 4 -2.20836
      vertex 46.175 4 -1.42894
      vertex 44.7916 4 -1.275
    endloop
  endfacet
  facet normal 0 -1 -0
    outer loop
      vertex 46.175 4 -1.42894
      vertex 45.725 4 -2.20836
      vertex 47 4 -1.65
    endloop
  endfacet
  facet normal 0 -1 0
    outer loop
      vertex 47.825 4 1.42894
      vertex 48.275 4 2.20836
      vertex 47 4 1.65
    endloop
  endfacet
  facet normal 0 -1 0
    outer loop
      vertex 47.825 4 1.42894
      vertex 49.2084 4 1.275
      vertex 48.275 4 2.20836
    endloop
  endfacet
  facet normal 0 -1 0
    outer loop
      vertex 48.4289 4 0.825
      vertex 49.2084 4 1.275
      vertex 47.825 4 1.42894
    endloop
  endfacet
  facet normal 0 -1 0
    outer loop
      vertex 48.65 4 0
      vertex 49.2084 4 1.275
      vertex 48.4289 4 0.825
    endloop
  endfacet
  facet normal 0 -1 0
    outer loop
      vertex 48.65 4 0
      vertex 49.55 4 0
      vertex 49.2084 4 1.275
    endloop
  endfacet
  facet normal 0 -1 0
    outer loop
      vertex 48.4289 4 -0.825
      vertex 49.55 4 0
      vertex 48.65 4 0
    endloop
  endfacet
  facet normal 0 -1 0
    outer loop
      vertex 48.4289 4 -0.825
      vertex 49.2084 4 -1.275
      vertex 49.55 4 0
    endloop
  endfacet
  facet normal 0 -1 0
    outer loop
      vertex 47.825 4 -1.42894
      vertex 49.2084 4 -1.275
      vertex 48.4289 4 -0.825
    endloop
  endfacet
  facet normal 0 -1 0
    outer loop
      vertex 48.275 4 -2.20836
      vertex 47.825 4 -1.42894
      vertex 47 4 -1.65
    endloop
  endfacet
  facet normal 0 -1 0
    outer loop
      vertex 47 4 -2.55
      vertex 47 4 -1.65
      vertex 45.725 4 -2.20836
    endloop
  endfacet
  facet normal 0 -1 0
    outer loop
      vertex 47.825 4 -1.42894
      vertex 48.275 4 -2.20836
      vertex 49.2084 4 -1.275
    endloop
  endfacet
  facet normal 0 -1 0
    outer loop
      vertex 47 4 -1.65
      vertex 47 4 -2.55
      vertex 48.275 4 -2.20836
    endloop
  endfacet
  facet normal 0.965932 -0 0.258794
    outer loop
      vertex 49.2084 4 1.275
      vertex 49.55 4.4 0
      vertex 49.2084 4.4 1.275
    endloop
  endfacet
  facet normal 0.965932 0 0.258794
    outer loop
      vertex 49.55 4.4 0
      vertex 49.2084 4 1.275
      vertex 49.55 4 0
    endloop
  endfacet
  facet normal 0.707092 -0 0.707122
    outer loop
      vertex 48.275 4 2.20836
      vertex 49.2084 4.4 1.275
      vertex 48.275 4.4 2.20836
    endloop
  endfacet
  facet normal 0.707092 0 0.707122
    outer loop
      vertex 49.2084 4.4 1.275
      vertex 48.275 4 2.20836
      vertex 49.2084 4 1.275
    endloop
  endfacet
  facet normal 0.258822 0 0.965925
    outer loop
      vertex 47 4.4 2.55
      vertex 48.275 4 2.20836
      vertex 48.275 4.4 2.20836
    endloop
  endfacet
  facet normal 0.258822 0 0.965925
    outer loop
      vertex 48.275 4 2.20836
      vertex 47 4.4 2.55
      vertex 47 4 2.55
    endloop
  endfacet
  facet normal 0.258821 0 0.965925
    outer loop
      vertex 46.175 8.6 -1.42894
      vertex 47 4 -1.65
      vertex 47 8.6 -1.65
    endloop
  endfacet
  facet normal 0.258821 0 0.965925
    outer loop
      vertex 47 4 -1.65
      vertex 46.175 8.6 -1.42894
      vertex 46.175 4 -1.42894
    endloop
  endfacet
  facet normal 0.258821 0 -0.965925
    outer loop
      vertex 46.175 4 1.42894
      vertex 47 8.6 1.65
      vertex 47 4 1.65
    endloop
  endfacet
  facet normal 0.258821 0 -0.965925
    outer loop
      vertex 47 8.6 1.65
      vertex 46.175 4 1.42894
      vertex 46.175 8.6 1.42894
    endloop
  endfacet
  facet normal 0.965914 0 -0.258865
    outer loop
      vertex 45.5711 4 0.825
      vertex 45.35 8.6 0
      vertex 45.5711 8.6 0.825
    endloop
  endfacet
  facet normal 0.965914 0 -0.258865
    outer loop
      vertex 45.35 8.6 0
      vertex 45.5711 4 0.825
      vertex 45.35 4 0
    endloop
  endfacet
  facet normal 0.70713 -0 0.707083
    outer loop
      vertex 45.5711 4 -0.825
      vertex 46.175 8.6 -1.42894
      vertex 45.5711 8.6 -0.825
    endloop
  endfacet
  facet normal 0.70713 0 0.707083
    outer loop
      vertex 46.175 8.6 -1.42894
      vertex 45.5711 4 -0.825
      vertex 46.175 4 -1.42894
    endloop
  endfacet
  facet normal 0.70713 0 -0.707083
    outer loop
      vertex 46.175 4 1.42894
      vertex 45.5711 8.6 0.825
      vertex 46.175 8.6 1.42894
    endloop
  endfacet
  facet normal 0.70713 0 -0.707083
    outer loop
      vertex 45.5711 8.6 0.825
      vertex 46.175 4 1.42894
      vertex 45.5711 4 0.825
    endloop
  endfacet
  facet normal -0.965914 0 0.258865
    outer loop
      vertex 48.4289 4 -0.825
      vertex 48.65 8.6 0
      vertex 48.4289 8.6 -0.825
    endloop
  endfacet
  facet normal -0.965914 0 0.258865
    outer loop
      vertex 48.65 8.6 0
      vertex 48.4289 4 -0.825
      vertex 48.65 4 0
    endloop
  endfacet
  facet normal -0.70713 0 0.707083
    outer loop
      vertex 47.825 4 -1.42894
      vertex 48.4289 8.6 -0.825
      vertex 47.825 8.6 -1.42894
    endloop
  endfacet
  facet normal -0.70713 0 0.707083
    outer loop
      vertex 48.4289 8.6 -0.825
      vertex 47.825 4 -1.42894
      vertex 48.4289 4 -0.825
    endloop
  endfacet
  facet normal 0.965914 -0 0.258865
    outer loop
      vertex 45.35 4 0
      vertex 45.5711 8.6 -0.825
      vertex 45.35 8.6 0
    endloop
  endfacet
  facet normal 0.965914 0 0.258865
    outer loop
      vertex 45.5711 8.6 -0.825
      vertex 45.35 4 0
      vertex 45.5711 4 -0.825
    endloop
  endfacet
  facet normal -0.258821 0 0.965925
    outer loop
      vertex 47 8.6 -1.65
      vertex 47.825 4 -1.42894
      vertex 47.825 8.6 -1.42894
    endloop
  endfacet
  facet normal -0.258821 0 0.965925
    outer loop
      vertex 47.825 4 -1.42894
      vertex 47 8.6 -1.65
      vertex 47 4 -1.65
    endloop
  endfacet
  facet normal -0.258821 0 -0.965925
    outer loop
      vertex 47 4 1.65
      vertex 47.825 8.6 1.42894
      vertex 47.825 4 1.42894
    endloop
  endfacet
  facet normal -0.258821 0 -0.965925
    outer loop
      vertex 47.825 8.6 1.42894
      vertex 47 4 1.65
      vertex 47 8.6 1.65
    endloop
  endfacet
  facet normal -0.965914 0 -0.258865
    outer loop
      vertex 48.65 4 0
      vertex 48.4289 8.6 0.825
      vertex 48.65 8.6 0
    endloop
  endfacet
  facet normal -0.965914 -0 -0.258865
    outer loop
      vertex 48.4289 8.6 0.825
      vertex 48.65 4 0
      vertex 48.4289 4 0.825
    endloop
  endfacet
  facet normal -0.70713 0 -0.707083
    outer loop
      vertex 48.4289 4 0.825
      vertex 47.825 8.6 1.42894
      vertex 48.4289 8.6 0.825
    endloop
  endfacet
  facet normal -0.70713 -0 -0.707083
    outer loop
      vertex 47.825 8.6 1.42894
      vertex 48.4289 4 0.825
      vertex 47.825 4 1.42894
    endloop
  endfacet
  facet normal 0.993715 -0 0.11194
    outer loop
      vertex 55.7744 4.4 2.0027
      vertex 56 8.6 0
      vertex 55.7744 8.6 2.0027
    endloop
  endfacet
  facet normal 0.993715 0 0.11194
    outer loop
      vertex 56 8.6 0
      vertex 55.7744 4.4 2.0027
      vertex 56 4.4 0
    endloop
  endfacet
  facet normal 0.943873 -0 0.330309
    outer loop
      vertex 55.1087 4.4 3.90497
      vertex 55.7744 8.6 2.0027
      vertex 55.1087 8.6 3.90497
    endloop
  endfacet
  facet normal 0.943873 0 0.330309
    outer loop
      vertex 55.7744 8.6 2.0027
      vertex 55.1087 4.4 3.90497
      vertex 55.7744 4.4 2.0027
    endloop
  endfacet
  facet normal 0.846732 -0 0.53202
    outer loop
      vertex 54.0365 4.4 5.61142
      vertex 55.1087 8.6 3.90497
      vertex 54.0365 8.6 5.61142
    endloop
  endfacet
  facet normal 0.846732 0 0.53202
    outer loop
      vertex 55.1087 8.6 3.90497
      vertex 54.0365 4.4 5.61142
      vertex 55.1087 4.4 3.90497
    endloop
  endfacet
  facet normal 0.707102 -0.000316709 0.707112
    outer loop
      vertex 52.6114 8.55652 7.03648
      vertex 54.0365 8.6 5.61142
      vertex 52.6479 8.6 7
    endloop
  endfacet
  facet normal 0.707097 0 0.707117
    outer loop
      vertex 54.0365 4.4 5.61142
      vertex 52.6114 8.55652 7.03648
      vertex 52.6114 4.4 7.03648
    endloop
  endfacet
  facet normal 0.707097 0 0.707117
    outer loop
      vertex 52.6114 8.55652 7.03648
      vertex 54.0365 4.4 5.61142
      vertex 54.0365 8.6 5.61142
    endloop
  endfacet
  facet normal 0.532049 0 0.846714
    outer loop
      vertex 50.905 7.27866 8.10873
      vertex 52.6114 4.4 7.03648
      vertex 52.6114 8.55652 7.03648
    endloop
  endfacet
  facet normal 0.532049 0 0.846714
    outer loop
      vertex 52.6114 4.4 7.03648
      vertex 50.905 7.27866 8.10873
      vertex 50.905 4.4 8.10873
    endloop
  endfacet
  facet normal 0.330269 0 0.943887
    outer loop
      vertex 49.0027 6.48541 8.77435
      vertex 50.905 4.4 8.10873
      vertex 50.905 7.27866 8.10873
    endloop
  endfacet
  facet normal 0.330269 0 0.943887
    outer loop
      vertex 50.905 4.4 8.10873
      vertex 49.0027 6.48541 8.77435
      vertex 49.0027 4.4 8.77435
    endloop
  endfacet
  facet normal 0.111964 0 0.993712
    outer loop
      vertex 47 6.21649 9
      vertex 49.0027 4.4 8.77435
      vertex 49.0027 6.48541 8.77435
    endloop
  endfacet
  facet normal 0.111964 0 0.993712
    outer loop
      vertex 49.0027 4.4 8.77435
      vertex 47 6.21649 9
      vertex 47 4.4 9
    endloop
  endfacet
  facet normal 1 0 0
    outer loop
      vertex 56 -7.82894 -4.475
      vertex 56 -9.10459 -4.57531
      vertex 56 -8.05 -5.3
    endloop
  endfacet
  facet normal 1 0 0
    outer loop
      vertex 56 -9.2 -5.3
      vertex 56 -8.05 -5.3
      vertex 56 -9.10459 -4.57531
    endloop
  endfacet
  facet normal 1 0 -0
    outer loop
      vertex 56 -9.10459 -6.02469
      vertex 56 -8.05 -5.3
      vertex 56 -9.2 -5.3
    endloop
  endfacet
  facet normal 1 0 0
    outer loop
      vertex 56 -8.05 -5.3
      vertex 56 -8.82487 -6.7
      vertex 56 -8.6 -6.99306
    endloop
  endfacet
  facet normal 1 0 -0
    outer loop
      vertex 56 -8.82487 -6.7
      vertex 56 -8.05 -5.3
      vertex 56 -9.10459 -6.02469
    endloop
  endfacet
  facet normal 1 0 0
    outer loop
      vertex 56 -6.4 -3.65
      vertex 56 -4.4 -3.3463
      vertex 56 -4.4 0
    endloop
  endfacet
  facet normal 1 0 0
    outer loop
      vertex 56 -4.4 -3.3463
      vertex 56 -4.75 -5.3
      vertex 56 -4.4201 -7.2799
    endloop
  endfacet
  facet normal 1 -0 0
    outer loop
      vertex 56 -4.97106 -6.125
      vertex 56 -4.4201 -7.2799
      vertex 56 -4.75 -5.3
    endloop
  endfacet
  facet normal 1 0 0
    outer loop
      vertex 56 -4.4 -3.3463
      vertex 56 -4.97106 -4.475
      vertex 56 -4.75 -5.3
    endloop
  endfacet
  facet normal 1 0 0
    outer loop
      vertex 56 -4.4 -3.3463
      vertex 56 -5.575 -3.87106
      vertex 56 -4.97106 -4.475
    endloop
  endfacet
  facet normal 1 0 0
    outer loop
      vertex 56 -4.4 -3.3463
      vertex 56 -6.4 -3.65
      vertex 56 -5.575 -3.87106
    endloop
  endfacet
  facet normal 1 -0 0
    outer loop
      vertex 56 -8.6 0
      vertex 56 -6.4 -3.65
      vertex 56 -4.4 0
    endloop
  endfacet
  facet normal 1 0 0
    outer loop
      vertex 56 -6.4 -3.65
      vertex 56 -8.6 0
      vertex 56 -7.225 -3.87106
    endloop
  endfacet
  facet normal 1 0 0
    outer loop
      vertex 56 -7.225 -6.72894
      vertex 56 -8.3799 -7.2799
      vertex 56 -8.09306 -7.5
    endloop
  endfacet
  facet normal 1 0 0
    outer loop
      vertex 56 -7.82894 -6.125
      vertex 56 -8.59467 -7
      vertex 56 -8.3799 -7.2799
    endloop
  endfacet
  facet normal 1 -0 0
    outer loop
      vertex 56 -8.82487 -3.9
      vertex 56 -7.82894 -4.475
      vertex 56 -8.6 -3.60694
    endloop
  endfacet
  facet normal 1 0 0
    outer loop
      vertex 56 -7.225 -3.87106
      vertex 56 -8.6 0
      vertex 56 -8.6 -3.60694
    endloop
  endfacet
  facet normal 1 0 0
    outer loop
      vertex 56 -7.225 -3.87106
      vertex 56 -8.6 -3.60694
      vertex 56 -7.82894 -4.475
    endloop
  endfacet
  facet normal 1 0 0
    outer loop
      vertex 56 -9.10459 -4.57531
      vertex 56 -7.82894 -4.475
      vertex 56 -8.82487 -3.9
    endloop
  endfacet
  facet normal 1 0 0
    outer loop
      vertex 56 -7.82894 -6.125
      vertex 56 -8.6 -6.99306
      vertex 56 -8.59467 -7
    endloop
  endfacet
  facet normal 1 0 0
    outer loop
      vertex 56 -8.59467 -7
      vertex 56 -8.6 -6.99306
      vertex 56 -8.6 -7
    endloop
  endfacet
  facet normal 1 0 0
    outer loop
      vertex 56 -3.69541 -4.57531
      vertex 56 -3.69541 -6.02469
      vertex 56 -3.6 -5.3
    endloop
  endfacet
  facet normal 1 0 0
    outer loop
      vertex 56 -3.97513 -3.9
      vertex 56 -3.69541 -6.02469
      vertex 56 -3.69541 -4.57531
    endloop
  endfacet
  facet normal 1 0 0
    outer loop
      vertex 56 -3.97513 -3.9
      vertex 56 -3.97513 -6.7
      vertex 56 -3.69541 -6.02469
    endloop
  endfacet
  facet normal 1 0 0
    outer loop
      vertex 56 -4.4 -3.3463
      vertex 56 -3.97513 -6.7
      vertex 56 -3.97513 -3.9
    endloop
  endfacet
  facet normal 1 0 0
    outer loop
      vertex 56 -3.97513 -6.7
      vertex 56 -4.4 -3.3463
      vertex 56 -4.4201 -7.2799
    endloop
  endfacet
  facet normal 1 -0 0
    outer loop
      vertex 56 -5.575 -6.72894
      vertex 56 -4.4201 -7.2799
      vertex 56 -4.97106 -6.125
    endloop
  endfacet
  facet normal 1 0 0
    outer loop
      vertex 56 -4.4201 -7.2799
      vertex 56 -5.575 -6.72894
      vertex 56 -4.70694 -7.5
    endloop
  endfacet
  facet normal 1 -0 0
    outer loop
      vertex 56 -6.4 -6.95
      vertex 56 -4.70694 -7.5
      vertex 56 -5.575 -6.72894
    endloop
  endfacet
  facet normal 1 0 0
    outer loop
      vertex 56 -8.09306 -7.5
      vertex 56 -6.4 -6.95
      vertex 56 -7.225 -6.72894
    endloop
  endfacet
  facet normal 1 0 0
    outer loop
      vertex 56 -6.4 -6.95
      vertex 56 -8.09306 -7.5
      vertex 56 -4.70694 -7.5
    endloop
  endfacet
  facet normal 1 0 0
    outer loop
      vertex 56 -8.3799 -7.2799
      vertex 56 -7.225 -6.72894
      vertex 56 -7.82894 -6.125
    endloop
  endfacet
  facet normal 1 0 0
    outer loop
      vertex 56 -8.6 -6.99306
      vertex 56 -7.82894 -6.125
      vertex 56 -8.05 -5.3
    endloop
  endfacet
  facet normal -0.258822 0 -0.965925
    outer loop
      vertex 45.725 -4.4 -2.20836
      vertex 47 -4 -2.55
      vertex 47 -4.4 -2.55
    endloop
  endfacet
  facet normal -0.258822 0 -0.965925
    outer loop
      vertex 47 -4 -2.55
      vertex 45.725 -4.4 -2.20836
      vertex 45.725 -4 -2.20836
    endloop
  endfacet
  facet normal -0.258822 0 0.965925
    outer loop
      vertex 45.725 -4 2.20836
      vertex 47 -4.4 2.55
      vertex 47 -4 2.55
    endloop
  endfacet
  facet normal -0.258822 0 0.965925
    outer loop
      vertex 47 -4.4 2.55
      vertex 45.725 -4 2.20836
      vertex 45.725 -4.4 2.20836
    endloop
  endfacet
  facet normal -0.965932 0 0.258794
    outer loop
      vertex 44.45 -4.4 0
      vertex 44.7916 -4 1.275
      vertex 44.45 -4 0
    endloop
  endfacet
  facet normal -0.965932 0 0.258794
    outer loop
      vertex 44.7916 -4 1.275
      vertex 44.45 -4.4 0
      vertex 44.7916 -4.4 1.275
    endloop
  endfacet
  facet normal -0.707092 0 -0.707122
    outer loop
      vertex 45.725 -4.4 -2.20836
      vertex 44.7916 -4 -1.275
      vertex 45.725 -4 -2.20836
    endloop
  endfacet
  facet normal -0.707092 -0 -0.707122
    outer loop
      vertex 44.7916 -4 -1.275
      vertex 45.725 -4.4 -2.20836
      vertex 44.7916 -4.4 -1.275
    endloop
  endfacet
  facet normal -0.707092 0 0.707122
    outer loop
      vertex 44.7916 -4.4 1.275
      vertex 45.725 -4 2.20836
      vertex 44.7916 -4 1.275
    endloop
  endfacet
  facet normal -0.707092 0 0.707122
    outer loop
      vertex 45.725 -4 2.20836
      vertex 44.7916 -4.4 1.275
      vertex 45.725 -4.4 2.20836
    endloop
  endfacet
  facet normal 0.965932 0 -0.258794
    outer loop
      vertex 49.55 -4.4 0
      vertex 49.2084 -4 -1.275
      vertex 49.55 -4 0
    endloop
  endfacet
  facet normal 0.965932 0 -0.258794
    outer loop
      vertex 49.2084 -4 -1.275
      vertex 49.55 -4.4 0
      vertex 49.2084 -4.4 -1.275
    endloop
  endfacet
  facet normal 0.707092 0 -0.707122
    outer loop
      vertex 49.2084 -4.4 -1.275
      vertex 48.275 -4 -2.20836
      vertex 49.2084 -4 -1.275
    endloop
  endfacet
  facet normal 0.707092 0 -0.707122
    outer loop
      vertex 48.275 -4 -2.20836
      vertex 49.2084 -4.4 -1.275
      vertex 48.275 -4.4 -2.20836
    endloop
  endfacet
  facet normal -0.965932 0 -0.258794
    outer loop
      vertex 44.7916 -4.4 -1.275
      vertex 44.45 -4 0
      vertex 44.7916 -4 -1.275
    endloop
  endfacet
  facet normal -0.965932 -0 -0.258794
    outer loop
      vertex 44.45 -4 0
      vertex 44.7916 -4.4 -1.275
      vertex 44.45 -4.4 0
    endloop
  endfacet
  facet normal 0.258822 0 -0.965925
    outer loop
      vertex 47 -4.4 -2.55
      vertex 48.275 -4 -2.20836
      vertex 48.275 -4.4 -2.20836
    endloop
  endfacet
  facet normal 0.258822 0 -0.965925
    outer loop
      vertex 48.275 -4 -2.20836
      vertex 47 -4.4 -2.55
      vertex 47 -4 -2.55
    endloop
  endfacet
  facet normal 0 1 0
    outer loop
      vertex 47 -4 1.65
      vertex 47 -4 2.55
      vertex 48.275 -4 2.20836
    endloop
  endfacet
  facet normal 0 1 0
    outer loop
      vertex 47 -4 2.55
      vertex 47 -4 1.65
      vertex 45.725 -4 2.20836
    endloop
  endfacet
  facet normal 0 1 0
    outer loop
      vertex 48.275 -4 2.20836
      vertex 47.825 -4 1.42894
      vertex 47 -4 1.65
    endloop
  endfacet
  facet normal 0 1 0
    outer loop
      vertex 49.2084 -4 1.275
      vertex 47.825 -4 1.42894
      vertex 48.275 -4 2.20836
    endloop
  endfacet
  facet normal 0 1 0
    outer loop
      vertex 49.2084 -4 1.275
      vertex 48.4289 -4 0.825
      vertex 47.825 -4 1.42894
    endloop
  endfacet
  facet normal 0 1 0
    outer loop
      vertex 49.55 -4 0
      vertex 48.4289 -4 0.825
      vertex 49.2084 -4 1.275
    endloop
  endfacet
  facet normal 0 1 0
    outer loop
      vertex 49.55 -4 0
      vertex 48.65 -4 0
      vertex 48.4289 -4 0.825
    endloop
  endfacet
  facet normal 0 1 0
    outer loop
      vertex 49.55 -4 0
      vertex 48.4289 -4 -0.825
      vertex 48.65 -4 0
    endloop
  endfacet
  facet normal 0 1 -0
    outer loop
      vertex 49.2084 -4 -1.275
      vertex 48.4289 -4 -0.825
      vertex 49.55 -4 0
    endloop
  endfacet
  facet normal 0 1 0
    outer loop
      vertex 49.2084 -4 -1.275
      vertex 47.825 -4 -1.42894
      vertex 48.4289 -4 -0.825
    endloop
  endfacet
  facet normal 0 1 -0
    outer loop
      vertex 48.275 -4 -2.20836
      vertex 47.825 -4 -1.42894
      vertex 49.2084 -4 -1.275
    endloop
  endfacet
  facet normal 0 1 0
    outer loop
      vertex 47.825 -4 -1.42894
      vertex 48.275 -4 -2.20836
      vertex 47 -4 -1.65
    endloop
  endfacet
  facet normal 0 1 -0
    outer loop
      vertex 46.175 -4 1.42894
      vertex 45.725 -4 2.20836
      vertex 47 -4 1.65
    endloop
  endfacet
  facet normal 0 1 0
    outer loop
      vertex 46.175 -4 1.42894
      vertex 44.7916 -4 1.275
      vertex 45.725 -4 2.20836
    endloop
  endfacet
  facet normal 0 1 -0
    outer loop
      vertex 45.5711 -4 0.825
      vertex 44.7916 -4 1.275
      vertex 46.175 -4 1.42894
    endloop
  endfacet
  facet normal 0 1 -0
    outer loop
      vertex 45.35 -4 0
      vertex 44.7916 -4 1.275
      vertex 45.5711 -4 0.825
    endloop
  endfacet
  facet normal 0 1 0
    outer loop
      vertex 45.35 -4 0
      vertex 44.45 -4 0
      vertex 44.7916 -4 1.275
    endloop
  endfacet
  facet normal 0 1 0
    outer loop
      vertex 45.5711 -4 -0.825
      vertex 44.45 -4 0
      vertex 45.35 -4 0
    endloop
  endfacet
  facet normal 0 1 0
    outer loop
      vertex 45.5711 -4 -0.825
      vertex 44.7916 -4 -1.275
      vertex 44.45 -4 0
    endloop
  endfacet
  facet normal 0 1 0
    outer loop
      vertex 46.175 -4 -1.42894
      vertex 44.7916 -4 -1.275
      vertex 45.5711 -4 -0.825
    endloop
  endfacet
  facet normal 0 1 0
    outer loop
      vertex 45.725 -4 -2.20836
      vertex 46.175 -4 -1.42894
      vertex 47 -4 -1.65
    endloop
  endfacet
  facet normal 0 1 0
    outer loop
      vertex 47 -4 -2.55
      vertex 47 -4 -1.65
      vertex 48.275 -4 -2.20836
    endloop
  endfacet
  facet normal 0 1 0
    outer loop
      vertex 46.175 -4 -1.42894
      vertex 45.725 -4 -2.20836
      vertex 44.7916 -4 -1.275
    endloop
  endfacet
  facet normal 0 1 0
    outer loop
      vertex 47 -4 -1.65
      vertex 47 -4 -2.55
      vertex 45.725 -4 -2.20836
    endloop
  endfacet
  facet normal 0.965932 -0 0.258794
    outer loop
      vertex 49.2084 -4.4 1.275
      vertex 49.55 -4 0
      vertex 49.2084 -4 1.275
    endloop
  endfacet
  facet normal 0.965932 0 0.258794
    outer loop
      vertex 49.55 -4 0
      vertex 49.2084 -4.4 1.275
      vertex 49.55 -4.4 0
    endloop
  endfacet
  facet normal 0.707092 -0 0.707122
    outer loop
      vertex 48.275 -4.4 2.20836
      vertex 49.2084 -4 1.275
      vertex 48.275 -4 2.20836
    endloop
  endfacet
  facet normal 0.707092 0 0.707122
    outer loop
      vertex 49.2084 -4 1.275
      vertex 48.275 -4.4 2.20836
      vertex 49.2084 -4.4 1.275
    endloop
  endfacet
  facet normal 0.258822 0 0.965925
    outer loop
      vertex 47 -4 2.55
      vertex 48.275 -4.4 2.20836
      vertex 48.275 -4 2.20836
    endloop
  endfacet
  facet normal 0.258822 0 0.965925
    outer loop
      vertex 48.275 -4.4 2.20836
      vertex 47 -4 2.55
      vertex 47 -4.4 2.55
    endloop
  endfacet
  facet normal 0.258821 0 0.965925
    outer loop
      vertex 46.175 -4 -1.42894
      vertex 47 -8.6 -1.65
      vertex 47 -4 -1.65
    endloop
  endfacet
  facet normal 0.258821 0 0.965925
    outer loop
      vertex 47 -8.6 -1.65
      vertex 46.175 -4 -1.42894
      vertex 46.175 -8.6 -1.42894
    endloop
  endfacet
  facet normal 0.258821 0 -0.965925
    outer loop
      vertex 46.175 -8.6 1.42894
      vertex 47 -4 1.65
      vertex 47 -8.6 1.65
    endloop
  endfacet
  facet normal 0.258821 0 -0.965925
    outer loop
      vertex 47 -4 1.65
      vertex 46.175 -8.6 1.42894
      vertex 46.175 -4 1.42894
    endloop
  endfacet
  facet normal 0.965914 0 -0.258865
    outer loop
      vertex 45.5711 -8.6 0.825
      vertex 45.35 -4 0
      vertex 45.5711 -4 0.825
    endloop
  endfacet
  facet normal 0.965914 0 -0.258865
    outer loop
      vertex 45.35 -4 0
      vertex 45.5711 -8.6 0.825
      vertex 45.35 -8.6 0
    endloop
  endfacet
  facet normal 0.70713 -0 0.707083
    outer loop
      vertex 45.5711 -8.6 -0.825
      vertex 46.175 -4 -1.42894
      vertex 45.5711 -4 -0.825
    endloop
  endfacet
  facet normal 0.70713 0 0.707083
    outer loop
      vertex 46.175 -4 -1.42894
      vertex 45.5711 -8.6 -0.825
      vertex 46.175 -8.6 -1.42894
    endloop
  endfacet
  facet normal 0.70713 0 -0.707083
    outer loop
      vertex 46.175 -8.6 1.42894
      vertex 45.5711 -4 0.825
      vertex 46.175 -4 1.42894
    endloop
  endfacet
  facet normal 0.70713 0 -0.707083
    outer loop
      vertex 45.5711 -4 0.825
      vertex 46.175 -8.6 1.42894
      vertex 45.5711 -8.6 0.825
    endloop
  endfacet
  facet normal -0.965914 0 0.258865
    outer loop
      vertex 48.4289 -8.6 -0.825
      vertex 48.65 -4 0
      vertex 48.4289 -4 -0.825
    endloop
  endfacet
  facet normal -0.965914 0 0.258865
    outer loop
      vertex 48.65 -4 0
      vertex 48.4289 -8.6 -0.825
      vertex 48.65 -8.6 0
    endloop
  endfacet
  facet normal -0.70713 0 0.707083
    outer loop
      vertex 47.825 -8.6 -1.42894
      vertex 48.4289 -4 -0.825
      vertex 47.825 -4 -1.42894
    endloop
  endfacet
  facet normal -0.70713 0 0.707083
    outer loop
      vertex 48.4289 -4 -0.825
      vertex 47.825 -8.6 -1.42894
      vertex 48.4289 -8.6 -0.825
    endloop
  endfacet
  facet normal 0.965914 -0 0.258865
    outer loop
      vertex 45.35 -8.6 0
      vertex 45.5711 -4 -0.825
      vertex 45.35 -4 0
    endloop
  endfacet
  facet normal 0.965914 0 0.258865
    outer loop
      vertex 45.5711 -4 -0.825
      vertex 45.35 -8.6 0
      vertex 45.5711 -8.6 -0.825
    endloop
  endfacet
  facet normal -0.258821 0 0.965925
    outer loop
      vertex 47 -4 -1.65
      vertex 47.825 -8.6 -1.42894
      vertex 47.825 -4 -1.42894
    endloop
  endfacet
  facet normal -0.258821 0 0.965925
    outer loop
      vertex 47.825 -8.6 -1.42894
      vertex 47 -4 -1.65
      vertex 47 -8.6 -1.65
    endloop
  endfacet
  facet normal -0.258821 0 -0.965925
    outer loop
      vertex 47 -8.6 1.65
      vertex 47.825 -4 1.42894
      vertex 47.825 -8.6 1.42894
    endloop
  endfacet
  facet normal -0.258821 0 -0.965925
    outer loop
      vertex 47.825 -4 1.42894
      vertex 47 -8.6 1.65
      vertex 47 -4 1.65
    endloop
  endfacet
  facet normal -0.965914 0 -0.258865
    outer loop
      vertex 48.65 -8.6 0
      vertex 48.4289 -4 0.825
      vertex 48.65 -4 0
    endloop
  endfacet
  facet normal -0.965914 -0 -0.258865
    outer loop
      vertex 48.4289 -4 0.825
      vertex 48.65 -8.6 0
      vertex 48.4289 -8.6 0.825
    endloop
  endfacet
  facet normal -0.70713 0 -0.707083
    outer loop
      vertex 48.4289 -8.6 0.825
      vertex 47.825 -4 1.42894
      vertex 48.4289 -4 0.825
    endloop
  endfacet
  facet normal -0.70713 -0 -0.707083
    outer loop
      vertex 47.825 -4 1.42894
      vertex 48.4289 -8.6 0.825
      vertex 47.825 -8.6 1.42894
    endloop
  endfacet
  facet normal 0.993715 -0 0.11194
    outer loop
      vertex 55.7744 -8.6 2.0027
      vertex 56 -4.4 0
      vertex 55.7744 -4.4 2.0027
    endloop
  endfacet
  facet normal 0.993715 0 0.11194
    outer loop
      vertex 56 -4.4 0
      vertex 55.7744 -8.6 2.0027
      vertex 56 -8.6 0
    endloop
  endfacet
  facet normal 0.943873 -0 0.330309
    outer loop
      vertex 55.1087 -8.6 3.90497
      vertex 55.7744 -4.4 2.0027
      vertex 55.1087 -4.4 3.90497
    endloop
  endfacet
  facet normal 0.943873 0 0.330309
    outer loop
      vertex 55.7744 -4.4 2.0027
      vertex 55.1087 -8.6 3.90497
      vertex 55.7744 -8.6 2.0027
    endloop
  endfacet
  facet normal 0.846732 -0 0.53202
    outer loop
      vertex 54.0365 -8.6 5.61142
      vertex 55.1087 -4.4 3.90497
      vertex 54.0365 -4.4 5.61142
    endloop
  endfacet
  facet normal 0.846732 0 0.53202
    outer loop
      vertex 55.1087 -4.4 3.90497
      vertex 54.0365 -8.6 5.61142
      vertex 55.1087 -8.6 3.90497
    endloop
  endfacet
  facet normal 0.707097 -0 0.707117
    outer loop
      vertex 52.6114 -8.55652 7.03648
      vertex 54.0365 -4.4 5.61142
      vertex 52.6114 -4.4 7.03648
    endloop
  endfacet
  facet normal 0.707102 0.000316709 0.707112
    outer loop
      vertex 54.0365 -8.6 5.61142
      vertex 52.6114 -8.55652 7.03648
      vertex 52.6479 -8.6 7
    endloop
  endfacet
  facet normal 0.707097 0 0.707117
    outer loop
      vertex 52.6114 -8.55652 7.03648
      vertex 54.0365 -8.6 5.61142
      vertex 54.0365 -4.4 5.61142
    endloop
  endfacet
  facet normal 0.532049 -0 0.846714
    outer loop
      vertex 50.905 -7.27866 8.10873
      vertex 52.6114 -4.4 7.03648
      vertex 50.905 -4.4 8.10873
    endloop
  endfacet
  facet normal 0.532049 0 0.846714
    outer loop
      vertex 52.6114 -4.4 7.03648
      vertex 50.905 -7.27866 8.10873
      vertex 52.6114 -8.55652 7.03648
    endloop
  endfacet
  facet normal 0.330269 -0 0.943887
    outer loop
      vertex 49.0027 -6.48541 8.77435
      vertex 50.905 -4.4 8.10873
      vertex 49.0027 -4.4 8.77435
    endloop
  endfacet
  facet normal 0.330269 0 0.943887
    outer loop
      vertex 50.905 -4.4 8.10873
      vertex 49.0027 -6.48541 8.77435
      vertex 50.905 -7.27866 8.10873
    endloop
  endfacet
  facet normal 0.111964 -0 0.993712
    outer loop
      vertex 47 -6.21649 9
      vertex 49.0027 -4.4 8.77435
      vertex 47 -4.4 9
    endloop
  endfacet
  facet normal 0.111964 0 0.993712
    outer loop
      vertex 49.0027 -4.4 8.77435
      vertex 47 -6.21649 9
      vertex 49.0027 -6.48541 8.77435
    endloop
  endfacet
  facet normal 0.000141736 -0.642676 0.766138
    outer loop
      vertex 50.905 -7.27866 8.10873
      vertex 52.6479 -8.6 7
      vertex 52.6114 -8.55652 7.03648
    endloop
  endfacet
  facet normal -1.18625e-06 -0.642792 0.766041
    outer loop
      vertex 47 -6.21649 9
      vertex 50.905 -7.27866 8.10873
      vertex 49.0027 -6.48541 8.77435
    endloop
  endfacet
  facet normal 2.53708e-06 -0.642784 0.766048
    outer loop
      vertex 50.905 -7.27866 8.10873
      vertex 47 -6.21649 9
      vertex 52.6479 -8.6 7
    endloop
  endfacet
  facet normal 0 -0.642787 0.766045
    outer loop
      vertex 38 -8.6 7
      vertex 47 -6.21649 9
      vertex 38 -6.21649 9
    endloop
  endfacet
  facet normal 0 -0.642787 0.766045
    outer loop
      vertex 47 -6.21649 9
      vertex 38 -8.6 7
      vertex 52.6479 -8.6 7
    endloop
  endfacet
  facet normal -1 0 0
    outer loop
      vertex 38 -7.82894 -6.125
      vertex 38 -9.10459 -6.02469
      vertex 38 -8.05 -5.3
    endloop
  endfacet
  facet normal -1 0 0
    outer loop
      vertex 38 -9.2 -5.3
      vertex 38 -8.05 -5.3
      vertex 38 -9.10459 -6.02469
    endloop
  endfacet
  facet normal -1 0 -0
    outer loop
      vertex 38 -9.10459 -4.57531
      vertex 38 -8.05 -5.3
      vertex 38 -9.2 -5.3
    endloop
  endfacet
  facet normal -1 0 0
    outer loop
      vertex 38 -8.05 -5.3
      vertex 38 -8.82487 -3.9
      vertex 38 -8.6 -3.60694
    endloop
  endfacet
  facet normal -1 0 -0
    outer loop
      vertex 38 -8.82487 -3.9
      vertex 38 -8.05 -5.3
      vertex 38 -9.10459 -4.57531
    endloop
  endfacet
  facet normal -1 0 0
    outer loop
      vertex 38 -3.89229 -6.5
      vertex 38 -4.97106 -6.125
      vertex 38 -4.75 -5.3
    endloop
  endfacet
  facet normal -1 0 0
    outer loop
      vertex 38 -4.4201 -7.2799
      vertex 38 -5.575 -6.72894
      vertex 38 -4.97106 -6.125
    endloop
  endfacet
  facet normal -1 0 0
    outer loop
      vertex 38 -4.70694 -7.5
      vertex 38 -6.4 -6.95
      vertex 38 -5.575 -6.72894
    endloop
  endfacet
  facet normal -1 0 0
    outer loop
      vertex 38 -8.09306 -7.5
      vertex 38 -6.4 -6.95
      vertex 38 -4.70694 -7.5
    endloop
  endfacet
  facet normal -1 -0 0
    outer loop
      vertex 38 -7.225 -6.72894
      vertex 38 -8.3799 -7.2799
      vertex 38 -7.82894 -6.125
    endloop
  endfacet
  facet normal -1 0 0
    outer loop
      vertex 38 -8.3799 -7.2799
      vertex 38 -7.225 -6.72894
      vertex 38 -8.09306 -7.5
    endloop
  endfacet
  facet normal -1 -0 0
    outer loop
      vertex 38 -6.4 -6.95
      vertex 38 -8.09306 -7.5
      vertex 38 -7.225 -6.72894
    endloop
  endfacet
  facet normal -1 0 0
    outer loop
      vertex 38 8.6 -6.99306
      vertex 38 7.82894 -6.125
      vertex 38 8.05 -5.3
    endloop
  endfacet
  facet normal -1 0 0
    outer loop
      vertex 38 8.3799 -7.2799
      vertex 38 7.225 -6.72894
      vertex 38 7.82894 -6.125
    endloop
  endfacet
  facet normal -1 0 0
    outer loop
      vertex 38 8.09306 -7.5
      vertex 38 6.4 -6.95
      vertex 38 7.225 -6.72894
    endloop
  endfacet
  facet normal -1 0 0
    outer loop
      vertex 38 4.70694 -7.5
      vertex 38 6.4 -6.95
      vertex 38 8.09306 -7.5
    endloop
  endfacet
  facet normal -1 -0 0
    outer loop
      vertex 38 5.575 -6.72894
      vertex 38 4.4201 -7.2799
      vertex 38 4.97106 -6.125
    endloop
  endfacet
  facet normal -1 0 0
    outer loop
      vertex 38 4.4201 -7.2799
      vertex 38 5.575 -6.72894
      vertex 38 4.70694 -7.5
    endloop
  endfacet
  facet normal -1 -0 0
    outer loop
      vertex 38 6.4 -6.95
      vertex 38 4.70694 -7.5
      vertex 38 5.575 -6.72894
    endloop
  endfacet
  facet normal -1 0 0
    outer loop
      vertex 38 8.59467 -7
      vertex 38 8.6 -6.99306
      vertex 38 8.6 -7
    endloop
  endfacet
  facet normal -1 0 0
    outer loop
      vertex 38 8.6 -6.99306
      vertex 38 8.05 -5.3
      vertex 38 8.6 -3.60694
    endloop
  endfacet
  facet normal -1 0 0
    outer loop
      vertex 38 7.82894 -6.125
      vertex 38 8.6 -6.99306
      vertex 38 8.59467 -7
    endloop
  endfacet
  facet normal -1 0 0
    outer loop
      vertex 38 7.82894 -6.125
      vertex 38 8.59467 -7
      vertex 38 8.3799 -7.2799
    endloop
  endfacet
  facet normal -1 0 0
    outer loop
      vertex 38 7.225 -6.72894
      vertex 38 8.3799 -7.2799
      vertex 38 8.09306 -7.5
    endloop
  endfacet
  facet normal -1 0 0
    outer loop
      vertex 38 7.82894 -4.475
      vertex 38 8.6 -3.60694
      vertex 38 8.05 -5.3
    endloop
  endfacet
  facet normal -1 0 0
    outer loop
      vertex 38 7.225 -3.87106
      vertex 38 8.6 -3.60694
      vertex 38 7.82894 -4.475
    endloop
  endfacet
  facet normal -1 0 0
    outer loop
      vertex 38 6.4 -3.65
      vertex 38 8.6 -3.60694
      vertex 38 7.225 -3.87106
    endloop
  endfacet
  facet normal -1 -0 0
    outer loop
      vertex 38 8.6 -3.60694
      vertex 38 6.4 -3.65
      vertex 38 8.6 7
    endloop
  endfacet
  facet normal -1 0 0
    outer loop
      vertex 38 5.575 -3.87106
      vertex 38 8.6 7
      vertex 38 6.4 -3.65
    endloop
  endfacet
  facet normal -1 -0 0
    outer loop
      vertex 38 8.6 7
      vertex 38 5.575 -3.87106
      vertex 38 6.21649 9
    endloop
  endfacet
  facet normal -1 0 0
    outer loop
      vertex 38 -5.575 -3.87106
      vertex 38 5.575 -3.87106
      vertex 38 4.97106 -4.475
    endloop
  endfacet
  facet normal -1 0 0
    outer loop
      vertex 38 3.89229 -6.5
      vertex 38 4.97106 -4.475
      vertex 38 4.75 -5.3
    endloop
  endfacet
  facet normal -1 0 0
    outer loop
      vertex 38 3.97513 -6.7
      vertex 38 4.97106 -6.125
      vertex 38 4.4201 -7.2799
    endloop
  endfacet
  facet normal -1 0 0
    outer loop
      vertex 38 3.89229 -6.5
      vertex 38 4.97106 -6.125
      vertex 38 3.97513 -6.7
    endloop
  endfacet
  facet normal -1 -0 0
    outer loop
      vertex 38 4.97106 -6.125
      vertex 38 3.89229 -6.5
      vertex 38 4.75 -5.3
    endloop
  endfacet
  facet normal -1 -0 0
    outer loop
      vertex 38 4.97106 -4.475
      vertex 38 3.89229 -6.5
      vertex 38 -4.97106 -4.475
    endloop
  endfacet
  facet normal -1 0 0
    outer loop
      vertex 38 -4.97106 -4.475
      vertex 38 3.89229 -6.5
      vertex 38 -3.89229 -6.5
    endloop
  endfacet
  facet normal -1 0 0
    outer loop
      vertex 38 -4.97106 -6.125
      vertex 38 -3.97513 -6.7
      vertex 38 -4.4201 -7.2799
    endloop
  endfacet
  facet normal -1 0 0
    outer loop
      vertex 38 -4.97106 -6.125
      vertex 38 -3.89229 -6.5
      vertex 38 -3.97513 -6.7
    endloop
  endfacet
  facet normal -1 0 0
    outer loop
      vertex 38 -5.575 -6.72894
      vertex 38 -4.4201 -7.2799
      vertex 38 -4.70694 -7.5
    endloop
  endfacet
  facet normal -1 0 0
    outer loop
      vertex 38 -4.97106 -4.475
      vertex 38 -3.89229 -6.5
      vertex 38 -4.75 -5.3
    endloop
  endfacet
  facet normal -1 0 0
    outer loop
      vertex 38 4.97106 -4.475
      vertex 38 -4.97106 -4.475
      vertex 38 -5.575 -3.87106
    endloop
  endfacet
  facet normal -1 0 0
    outer loop
      vertex 38 5.575 -3.87106
      vertex 38 -5.575 -3.87106
      vertex 38 6.21649 9
    endloop
  endfacet
  facet normal -1 0 0
    outer loop
      vertex 38 -5.575 -3.87106
      vertex 38 -6.21649 9
      vertex 38 6.21649 9
    endloop
  endfacet
  facet normal -1 0 0
    outer loop
      vertex 38 -8.6 7
      vertex 38 -5.575 -3.87106
      vertex 38 -6.4 -3.65
    endloop
  endfacet
  facet normal -1 0 0
    outer loop
      vertex 38 -8.6 -3.60694
      vertex 38 -6.4 -3.65
      vertex 38 -7.225 -3.87106
    endloop
  endfacet
  facet normal -1 0 0
    outer loop
      vertex 38 -8.6 -3.60694
      vertex 38 -7.225 -3.87106
      vertex 38 -7.82894 -4.475
    endloop
  endfacet
  facet normal -1 0 0
    outer loop
      vertex 38 -8.6 -3.60694
      vertex 38 -7.82894 -4.475
      vertex 38 -8.05 -5.3
    endloop
  endfacet
  facet normal -1 0 0
    outer loop
      vertex 38 -8.59467 -7
      vertex 38 -7.82894 -6.125
      vertex 38 -8.3799 -7.2799
    endloop
  endfacet
  facet normal -1 0 0
    outer loop
      vertex 38 -8.6 -6.99306
      vertex 38 -7.82894 -6.125
      vertex 38 -8.59467 -7
    endloop
  endfacet
  facet normal -1 0 0
    outer loop
      vertex 38 -8.82487 -6.7
      vertex 38 -7.82894 -6.125
      vertex 38 -8.6 -6.99306
    endloop
  endfacet
  facet normal -1 0 0
    outer loop
      vertex 38 -8.6 -6.99306
      vertex 38 -8.59467 -7
      vertex 38 -8.6 -7
    endloop
  endfacet
  facet normal -1 0 0
    outer loop
      vertex 38 -9.10459 -6.02469
      vertex 38 -7.82894 -6.125
      vertex 38 -8.82487 -6.7
    endloop
  endfacet
  facet normal -1 0 0
    outer loop
      vertex 38 -6.4 -3.65
      vertex 38 -8.6 -3.60694
      vertex 38 -8.6 7
    endloop
  endfacet
  facet normal -1 0 0
    outer loop
      vertex 38 -5.575 -3.87106
      vertex 38 -8.6 7
      vertex 38 -6.21649 9
    endloop
  endfacet
  facet normal -1 0 0
    outer loop
      vertex 38 8.6 -6.99306
      vertex 38 9.2 -5.3
      vertex 38 9.10459 -6.02469
    endloop
  endfacet
  facet normal -1 0 0
    outer loop
      vertex 38 8.6 -6.99306
      vertex 38 9.10459 -6.02469
      vertex 38 8.82487 -6.7
    endloop
  endfacet
  facet normal -1 -0 0
    outer loop
      vertex 38 9.2 -5.3
      vertex 38 8.6 -6.99306
      vertex 38 9.10459 -4.57531
    endloop
  endfacet
  facet normal -1 0 0
    outer loop
      vertex 38 8.6 -3.60694
      vertex 38 9.10459 -4.57531
      vertex 38 8.6 -6.99306
    endloop
  endfacet
  facet normal -1 0 0
    outer loop
      vertex 38 9.10459 -4.57531
      vertex 38 8.6 -3.60694
      vertex 38 8.82487 -3.9
    endloop
  endfacet
  facet normal 0.000141736 0.642676 0.766138
    outer loop
      vertex 52.6479 8.6 7
      vertex 50.905 7.27866 8.10873
      vertex 52.6114 8.55652 7.03648
    endloop
  endfacet
  facet normal 2.53708e-06 0.642784 0.766048
    outer loop
      vertex 47 6.21649 9
      vertex 50.905 7.27866 8.10873
      vertex 52.6479 8.6 7
    endloop
  endfacet
  facet normal -1.18625e-06 0.642792 0.766041
    outer loop
      vertex 50.905 7.27866 8.10873
      vertex 47 6.21649 9
      vertex 49.0027 6.48541 8.77435
    endloop
  endfacet
  facet normal -0 0.642787 0.766045
    outer loop
      vertex 38 8.6 7
      vertex 47 6.21649 9
      vertex 52.6479 8.6 7
    endloop
  endfacet
  facet normal 0 0.642787 0.766045
    outer loop
      vertex 47 6.21649 9
      vertex 38 8.6 7
      vertex 38 6.21649 9
    endloop
  endfacet
  facet normal 0 0 -1
    outer loop
      vertex 38 8.59467 -7
      vertex 56 8.6 -7
      vertex 56 8.59467 -7
    endloop
  endfacet
  facet normal -0 0 -1
    outer loop
      vertex 56 8.6 -7
      vertex 38 8.59467 -7
      vertex 38 8.6 -7
    endloop
  endfacet
  facet normal 0 0 -1
    outer loop
      vertex 38 -8.6 -7
      vertex 56 -8.59467 -7
      vertex 56 -8.6 -7
    endloop
  endfacet
  facet normal -0 0 -1
    outer loop
      vertex 56 -8.59467 -7
      vertex 38 -8.6 -7
      vertex 38 -8.59467 -7
    endloop
  endfacet
  facet normal 0 1 -0
    outer loop
      vertex 56 8.6 -7
      vertex 38 8.6 -6.99306
      vertex 56 8.6 -6.99306
    endloop
  endfacet
  facet normal 0 1 0
    outer loop
      vertex 38 8.6 -6.99306
      vertex 56 8.6 -7
      vertex 38 8.6 -7
    endloop
  endfacet
  facet normal 0 1 0
    outer loop
      vertex 52.6479 8.6 7
      vertex 47.825 8.6 1.42894
      vertex 47 8.6 1.65
    endloop
  endfacet
  facet normal 0 1 0
    outer loop
      vertex 55.1087 8.6 3.90497
      vertex 48.4289 8.6 0.825
      vertex 47.825 8.6 1.42894
    endloop
  endfacet
  facet normal 0 1 0
    outer loop
      vertex 48.65 8.6 0
      vertex 55.7744 8.6 2.0027
      vertex 56 8.6 0
    endloop
  endfacet
  facet normal 0 1 0
    outer loop
      vertex 55.7744 8.6 2.0027
      vertex 48.65 8.6 0
      vertex 48.4289 8.6 0.825
    endloop
  endfacet
  facet normal 0 1 0
    outer loop
      vertex 56 8.6 0
      vertex 48.4289 8.6 -0.825
      vertex 48.65 8.6 0
    endloop
  endfacet
  facet normal 0 1 -0
    outer loop
      vertex 56 8.6 -3.60694
      vertex 48.4289 8.6 -0.825
      vertex 56 8.6 0
    endloop
  endfacet
  facet normal 0 1 0
    outer loop
      vertex 48.4289 8.6 -0.825
      vertex 56 8.6 -3.60694
      vertex 47.825 8.6 -1.42894
    endloop
  endfacet
  facet normal 0 1 0
    outer loop
      vertex 47.825 8.6 -1.42894
      vertex 56 8.6 -3.60694
      vertex 47 8.6 -1.65
    endloop
  endfacet
  facet normal 0 1 0
    outer loop
      vertex 47.825 8.6 1.42894
      vertex 52.6479 8.6 7
      vertex 54.0365 8.6 5.61142
    endloop
  endfacet
  facet normal 0 1 0
    outer loop
      vertex 47.825 8.6 1.42894
      vertex 54.0365 8.6 5.61142
      vertex 55.1087 8.6 3.90497
    endloop
  endfacet
  facet normal 0 1 0
    outer loop
      vertex 48.4289 8.6 0.825
      vertex 55.1087 8.6 3.90497
      vertex 55.7744 8.6 2.0027
    endloop
  endfacet
  facet normal 0 1 0
    outer loop
      vertex 52.6479 8.6 7
      vertex 47 8.6 1.65
      vertex 38 8.6 7
    endloop
  endfacet
  facet normal 0 1 -0
    outer loop
      vertex 46.175 8.6 1.42894
      vertex 38 8.6 7
      vertex 47 8.6 1.65
    endloop
  endfacet
  facet normal 0 1 -0
    outer loop
      vertex 45.5711 8.6 0.825
      vertex 38 8.6 7
      vertex 46.175 8.6 1.42894
    endloop
  endfacet
  facet normal 0 1 -0
    outer loop
      vertex 45.35 8.6 0
      vertex 38 8.6 7
      vertex 45.5711 8.6 0.825
    endloop
  endfacet
  facet normal 0 1 0
    outer loop
      vertex 38 8.6 -3.60694
      vertex 45.35 8.6 0
      vertex 45.5711 8.6 -0.825
    endloop
  endfacet
  facet normal 0 1 0
    outer loop
      vertex 45.35 8.6 0
      vertex 38 8.6 -3.60694
      vertex 38 8.6 7
    endloop
  endfacet
  facet normal 0 1 0
    outer loop
      vertex 46.175 8.6 -1.42894
      vertex 38 8.6 -3.60694
      vertex 45.5711 8.6 -0.825
    endloop
  endfacet
  facet normal 0 1 0
    outer loop
      vertex 47 8.6 -1.65
      vertex 38 8.6 -3.60694
      vertex 46.175 8.6 -1.42894
    endloop
  endfacet
  facet normal 0 1 0
    outer loop
      vertex 38 8.6 -3.60694
      vertex 47 8.6 -1.65
      vertex 56 8.6 -3.60694
    endloop
  endfacet
  facet normal 0 -1 0
    outer loop
      vertex 47 -8.6 1.65
      vertex 52.6479 -8.6 7
      vertex 38 -8.6 7
    endloop
  endfacet
  facet normal 0 -1 0
    outer loop
      vertex 47.825 -8.6 1.42894
      vertex 52.6479 -8.6 7
      vertex 47 -8.6 1.65
    endloop
  endfacet
  facet normal 0 -1 -0
    outer loop
      vertex 52.6479 -8.6 7
      vertex 47.825 -8.6 1.42894
      vertex 54.0365 -8.6 5.61142
    endloop
  endfacet
  facet normal 0 -1 0
    outer loop
      vertex 48.4289 -8.6 0.825
      vertex 54.0365 -8.6 5.61142
      vertex 47.825 -8.6 1.42894
    endloop
  endfacet
  facet normal 0 -1 0
    outer loop
      vertex 38 -8.6 7
      vertex 46.175 -8.6 1.42894
      vertex 47 -8.6 1.65
    endloop
  endfacet
  facet normal 0 -1 0
    outer loop
      vertex 38 -8.6 7
      vertex 45.5711 -8.6 0.825
      vertex 46.175 -8.6 1.42894
    endloop
  endfacet
  facet normal 0 -1 0
    outer loop
      vertex 38 -8.6 7
      vertex 45.35 -8.6 0
      vertex 45.5711 -8.6 0.825
    endloop
  endfacet
  facet normal 0 -1 0
    outer loop
      vertex 38 -8.6 -3.60694
      vertex 45.35 -8.6 0
      vertex 38 -8.6 7
    endloop
  endfacet
  facet normal 0 -1 -0
    outer loop
      vertex 46.175 -8.6 -1.42894
      vertex 38 -8.6 -3.60694
      vertex 47 -8.6 -1.65
    endloop
  endfacet
  facet normal 0 -1 -0
    outer loop
      vertex 45.5711 -8.6 -0.825
      vertex 38 -8.6 -3.60694
      vertex 46.175 -8.6 -1.42894
    endloop
  endfacet
  facet normal 0 -1 -0
    outer loop
      vertex 45.35 -8.6 0
      vertex 38 -8.6 -3.60694
      vertex 45.5711 -8.6 -0.825
    endloop
  endfacet
  facet normal 0 -1 -0
    outer loop
      vertex 54.0365 -8.6 5.61142
      vertex 48.4289 -8.6 0.825
      vertex 55.1087 -8.6 3.90497
    endloop
  endfacet
  facet normal 0 -1 -0
    outer loop
      vertex 55.1087 -8.6 3.90497
      vertex 48.4289 -8.6 0.825
      vertex 55.7744 -8.6 2.0027
    endloop
  endfacet
  facet normal 0 -1 0
    outer loop
      vertex 48.65 -8.6 0
      vertex 55.7744 -8.6 2.0027
      vertex 48.4289 -8.6 0.825
    endloop
  endfacet
  facet normal 0 -1 0
    outer loop
      vertex 48.65 -8.6 0
      vertex 56 -8.6 0
      vertex 55.7744 -8.6 2.0027
    endloop
  endfacet
  facet normal 0 -1 0
    outer loop
      vertex 48.4289 -8.6 -0.825
      vertex 56 -8.6 0
      vertex 48.65 -8.6 0
    endloop
  endfacet
  facet normal 0 -1 0
    outer loop
      vertex 56 -8.6 -3.60694
      vertex 48.4289 -8.6 -0.825
      vertex 47.825 -8.6 -1.42894
    endloop
  endfacet
  facet normal 0 -1 0
    outer loop
      vertex 56 -8.6 -3.60694
      vertex 47.825 -8.6 -1.42894
      vertex 47 -8.6 -1.65
    endloop
  endfacet
  facet normal 0 -1 0
    outer loop
      vertex 56 -8.6 -3.60694
      vertex 47 -8.6 -1.65
      vertex 38 -8.6 -3.60694
    endloop
  endfacet
  facet normal 0 -1 0
    outer loop
      vertex 48.4289 -8.6 -0.825
      vertex 56 -8.6 -3.60694
      vertex 56 -8.6 0
    endloop
  endfacet
  facet normal 0 -1 0
    outer loop
      vertex 38 -8.6 -7
      vertex 56 -8.6 -6.99306
      vertex 38 -8.6 -6.99306
    endloop
  endfacet
  facet normal 0 -1 -0
    outer loop
      vertex 56 -8.6 -6.99306
      vertex 38 -8.6 -7
      vertex 56 -8.6 -7
    endloop
  endfacet
  facet normal 0 0.991444 -0.13053
    outer loop
      vertex 56 9.10459 -6.02469
      vertex 38 9.2 -5.3
      vertex 56 9.2 -5.3
    endloop
  endfacet
  facet normal 0 0.991444 -0.13053
    outer loop
      vertex 38 9.2 -5.3
      vertex 56 9.10459 -6.02469
      vertex 38 9.10459 -6.02469
    endloop
  endfacet
  facet normal 0 -0.991444 -0.13053
    outer loop
      vertex 40 3.69541 -6.02469
      vertex 56 3.6 -5.3
      vertex 40 3.6 -5.3
    endloop
  endfacet
  facet normal 0 -0.991444 -0.13053
    outer loop
      vertex 56 3.6 -5.3
      vertex 40 3.69541 -6.02469
      vertex 56 3.69541 -6.02469
    endloop
  endfacet
  facet normal 0 -0.608761 -0.793353
    outer loop
      vertex 38 4.4201 -7.2799
      vertex 56 4.70694 -7.5
      vertex 56 4.4201 -7.2799
    endloop
  endfacet
  facet normal -0 -0.608761 -0.793353
    outer loop
      vertex 56 4.70694 -7.5
      vertex 38 4.4201 -7.2799
      vertex 38 4.70694 -7.5
    endloop
  endfacet
  facet normal 0 0.793357 -0.608757
    outer loop
      vertex 56 8.6 -6.99306
      vertex 38 8.82487 -6.7
      vertex 56 8.82487 -6.7
    endloop
  endfacet
  facet normal 0 0.793357 -0.608757
    outer loop
      vertex 38 8.82487 -6.7
      vertex 56 8.6 -6.99306
      vertex 38 8.6 -6.99306
    endloop
  endfacet
  facet normal 0 0.79336 -0.608753
    outer loop
      vertex 56 8.3799 -7.2799
      vertex 38 8.59467 -7
      vertex 56 8.59467 -7
    endloop
  endfacet
  facet normal 0 0.79336 -0.608753
    outer loop
      vertex 38 8.59467 -7
      vertex 56 8.3799 -7.2799
      vertex 38 8.3799 -7.2799
    endloop
  endfacet
  facet normal 0 0.923881 -0.38268
    outer loop
      vertex 56 8.82487 -6.7
      vertex 38 9.10459 -6.02469
      vertex 56 9.10459 -6.02469
    endloop
  endfacet
  facet normal 0 0.923881 -0.38268
    outer loop
      vertex 38 9.10459 -6.02469
      vertex 56 8.82487 -6.7
      vertex 38 8.82487 -6.7
    endloop
  endfacet
  facet normal 0 0.793357 0.608757
    outer loop
      vertex 56 8.82487 -3.9
      vertex 38 8.6 -3.60694
      vertex 56 8.6 -3.60694
    endloop
  endfacet
  facet normal 0 0.793357 0.608757
    outer loop
      vertex 38 8.6 -3.60694
      vertex 56 8.82487 -3.9
      vertex 38 8.82487 -3.9
    endloop
  endfacet
  facet normal 0 0.923881 0.38268
    outer loop
      vertex 56 9.10459 -4.57531
      vertex 38 8.82487 -3.9
      vertex 56 8.82487 -3.9
    endloop
  endfacet
  facet normal 0 0.923881 0.38268
    outer loop
      vertex 38 8.82487 -3.9
      vertex 56 9.10459 -4.57531
      vertex 38 9.10459 -4.57531
    endloop
  endfacet
  facet normal 0 0.608761 -0.793353
    outer loop
      vertex 38 8.09306 -7.5
      vertex 56 8.3799 -7.2799
      vertex 56 8.09306 -7.5
    endloop
  endfacet
  facet normal 0 0.608761 -0.793353
    outer loop
      vertex 56 8.3799 -7.2799
      vertex 38 8.09306 -7.5
      vertex 38 8.3799 -7.2799
    endloop
  endfacet
  facet normal 0 0.991444 0.13053
    outer loop
      vertex 56 9.2 -5.3
      vertex 38 9.10459 -4.57531
      vertex 56 9.10459 -4.57531
    endloop
  endfacet
  facet normal 0 0.991444 0.13053
    outer loop
      vertex 38 9.10459 -4.57531
      vertex 56 9.2 -5.3
      vertex 38 9.2 -5.3
    endloop
  endfacet
  facet normal 0 -0.923884 -0.382673
    outer loop
      vertex 38 3.89229 -6.5
      vertex 38 3.97513 -6.7
      vertex 40 3.89229 -6.5
    endloop
  endfacet
  facet normal 0 -0.923879 -0.382684
    outer loop
      vertex 40 3.89229 -6.5
      vertex 56 3.69541 -6.02469
      vertex 40 3.69541 -6.02469
    endloop
  endfacet
  facet normal -0 -0.923884 -0.382673
    outer loop
      vertex 56 3.97513 -6.7
      vertex 40 3.89229 -6.5
      vertex 38 3.97513 -6.7
    endloop
  endfacet
  facet normal -1.12833e-07 -0.923881 -0.38268
    outer loop
      vertex 40 3.89229 -6.5
      vertex 56 3.97513 -6.7
      vertex 56 3.69541 -6.02469
    endloop
  endfacet
  facet normal 0 -0.793355 -0.608759
    outer loop
      vertex 38 4.4201 -7.2799
      vertex 56 3.97513 -6.7
      vertex 38 3.97513 -6.7
    endloop
  endfacet
  facet normal 0 -0.793355 -0.608759
    outer loop
      vertex 56 3.97513 -6.7
      vertex 38 4.4201 -7.2799
      vertex 56 4.4201 -7.2799
    endloop
  endfacet
  facet normal 0 -0.991444 0.13053
    outer loop
      vertex 40 3.6 -5.3
      vertex 56 3.69541 -4.57531
      vertex 40 3.69541 -4.57531
    endloop
  endfacet
  facet normal 0 -0.991444 0.13053
    outer loop
      vertex 56 3.69541 -4.57531
      vertex 40 3.6 -5.3
      vertex 56 3.6 -5.3
    endloop
  endfacet
  facet normal 0 -0.793353 0.608762
    outer loop
      vertex 40 3.97513 -3.9
      vertex 56 4.4 -3.3463
      vertex 40 4.4 -3.3463
    endloop
  endfacet
  facet normal 0 -0.793353 0.608762
    outer loop
      vertex 56 4.4 -3.3463
      vertex 40 3.97513 -3.9
      vertex 56 3.97513 -3.9
    endloop
  endfacet
  facet normal 0 -0.923881 0.38268
    outer loop
      vertex 40 3.69541 -4.57531
      vertex 56 3.97513 -3.9
      vertex 40 3.97513 -3.9
    endloop
  endfacet
  facet normal 0 -0.923881 0.38268
    outer loop
      vertex 56 3.97513 -3.9
      vertex 40 3.69541 -4.57531
      vertex 56 3.69541 -4.57531
    endloop
  endfacet
  facet normal 0 0 -1
    outer loop
      vertex 38 4.70694 -7.5
      vertex 56 8.09306 -7.5
      vertex 56 4.70694 -7.5
    endloop
  endfacet
  facet normal -0 0 -1
    outer loop
      vertex 56 8.09306 -7.5
      vertex 38 4.70694 -7.5
      vertex 38 8.09306 -7.5
    endloop
  endfacet
  facet normal 0 -0.991444 -0.13053
    outer loop
      vertex 38 -9.10459 -6.02469
      vertex 56 -9.2 -5.3
      vertex 38 -9.2 -5.3
    endloop
  endfacet
  facet normal 0 -0.991444 -0.13053
    outer loop
      vertex 56 -9.2 -5.3
      vertex 38 -9.10459 -6.02469
      vertex 56 -9.10459 -6.02469
    endloop
  endfacet
  facet normal 0 0.991444 -0.13053
    outer loop
      vertex 56 -3.69541 -6.02469
      vertex 40 -3.6 -5.3
      vertex 56 -3.6 -5.3
    endloop
  endfacet
  facet normal 0 0.991444 -0.13053
    outer loop
      vertex 40 -3.6 -5.3
      vertex 56 -3.69541 -6.02469
      vertex 40 -3.69541 -6.02469
    endloop
  endfacet
  facet normal 0 0.608761 -0.793353
    outer loop
      vertex 38 -4.70694 -7.5
      vertex 56 -4.4201 -7.2799
      vertex 56 -4.70694 -7.5
    endloop
  endfacet
  facet normal 0 0.608761 -0.793353
    outer loop
      vertex 56 -4.4201 -7.2799
      vertex 38 -4.70694 -7.5
      vertex 38 -4.4201 -7.2799
    endloop
  endfacet
  facet normal 0 -0.793357 -0.608757
    outer loop
      vertex 38 -8.6 -6.99306
      vertex 56 -8.82487 -6.7
      vertex 38 -8.82487 -6.7
    endloop
  endfacet
  facet normal 0 -0.793357 -0.608757
    outer loop
      vertex 56 -8.82487 -6.7
      vertex 38 -8.6 -6.99306
      vertex 56 -8.6 -6.99306
    endloop
  endfacet
  facet normal 0 -0.79336 -0.608753
    outer loop
      vertex 38 -8.3799 -7.2799
      vertex 56 -8.59467 -7
      vertex 38 -8.59467 -7
    endloop
  endfacet
  facet normal 0 -0.79336 -0.608753
    outer loop
      vertex 56 -8.59467 -7
      vertex 38 -8.3799 -7.2799
      vertex 56 -8.3799 -7.2799
    endloop
  endfacet
  facet normal 0 -0.923881 -0.38268
    outer loop
      vertex 38 -8.82487 -6.7
      vertex 56 -9.10459 -6.02469
      vertex 38 -9.10459 -6.02469
    endloop
  endfacet
  facet normal 0 -0.923881 -0.38268
    outer loop
      vertex 56 -9.10459 -6.02469
      vertex 38 -8.82487 -6.7
      vertex 56 -8.82487 -6.7
    endloop
  endfacet
  facet normal 0 -0.793357 0.608757
    outer loop
      vertex 38 -8.82487 -3.9
      vertex 56 -8.6 -3.60694
      vertex 38 -8.6 -3.60694
    endloop
  endfacet
  facet normal 0 -0.793357 0.608757
    outer loop
      vertex 56 -8.6 -3.60694
      vertex 38 -8.82487 -3.9
      vertex 56 -8.82487 -3.9
    endloop
  endfacet
  facet normal 0 -0.923881 0.38268
    outer loop
      vertex 38 -9.10459 -4.57531
      vertex 56 -8.82487 -3.9
      vertex 38 -8.82487 -3.9
    endloop
  endfacet
  facet normal 0 -0.923881 0.38268
    outer loop
      vertex 56 -8.82487 -3.9
      vertex 38 -9.10459 -4.57531
      vertex 56 -9.10459 -4.57531
    endloop
  endfacet
  facet normal 0 -0.608761 -0.793353
    outer loop
      vertex 38 -8.3799 -7.2799
      vertex 56 -8.09306 -7.5
      vertex 56 -8.3799 -7.2799
    endloop
  endfacet
  facet normal -0 -0.608761 -0.793353
    outer loop
      vertex 56 -8.09306 -7.5
      vertex 38 -8.3799 -7.2799
      vertex 38 -8.09306 -7.5
    endloop
  endfacet
  facet normal 0 -0.991444 0.13053
    outer loop
      vertex 38 -9.2 -5.3
      vertex 56 -9.10459 -4.57531
      vertex 38 -9.10459 -4.57531
    endloop
  endfacet
  facet normal 0 -0.991444 0.13053
    outer loop
      vertex 56 -9.10459 -4.57531
      vertex 38 -9.2 -5.3
      vertex 56 -9.2 -5.3
    endloop
  endfacet
  facet normal 0 0.923879 -0.382684
    outer loop
      vertex 56 -3.69541 -6.02469
      vertex 40 -3.89229 -6.5
      vertex 40 -3.69541 -6.02469
    endloop
  endfacet
  facet normal -1.12833e-07 0.923881 -0.38268
    outer loop
      vertex 56 -3.97513 -6.7
      vertex 40 -3.89229 -6.5
      vertex 56 -3.69541 -6.02469
    endloop
  endfacet
  facet normal 0 0.923884 -0.382673
    outer loop
      vertex 38 -3.97513 -6.7
      vertex 40 -3.89229 -6.5
      vertex 56 -3.97513 -6.7
    endloop
  endfacet
  facet normal 0 0.923884 -0.382673
    outer loop
      vertex 40 -3.89229 -6.5
      vertex 38 -3.97513 -6.7
      vertex 38 -3.89229 -6.5
    endloop
  endfacet
  facet normal 0 0.793355 -0.608759
    outer loop
      vertex 56 -4.4201 -7.2799
      vertex 38 -3.97513 -6.7
      vertex 56 -3.97513 -6.7
    endloop
  endfacet
  facet normal 0 0.793355 -0.608759
    outer loop
      vertex 38 -3.97513 -6.7
      vertex 56 -4.4201 -7.2799
      vertex 38 -4.4201 -7.2799
    endloop
  endfacet
  facet normal 0 0.991444 0.13053
    outer loop
      vertex 56 -3.6 -5.3
      vertex 40 -3.69541 -4.57531
      vertex 56 -3.69541 -4.57531
    endloop
  endfacet
  facet normal 0 0.991444 0.13053
    outer loop
      vertex 40 -3.69541 -4.57531
      vertex 56 -3.6 -5.3
      vertex 40 -3.6 -5.3
    endloop
  endfacet
  facet normal 0 0.793353 0.608762
    outer loop
      vertex 56 -3.97513 -3.9
      vertex 40 -4.4 -3.3463
      vertex 56 -4.4 -3.3463
    endloop
  endfacet
  facet normal 0 0.793353 0.608762
    outer loop
      vertex 40 -4.4 -3.3463
      vertex 56 -3.97513 -3.9
      vertex 40 -3.97513 -3.9
    endloop
  endfacet
  facet normal 0 0.923881 0.38268
    outer loop
      vertex 56 -3.69541 -4.57531
      vertex 40 -3.97513 -3.9
      vertex 56 -3.97513 -3.9
    endloop
  endfacet
  facet normal 0 0.923881 0.38268
    outer loop
      vertex 40 -3.97513 -3.9
      vertex 56 -3.69541 -4.57531
      vertex 40 -3.69541 -4.57531
    endloop
  endfacet
  facet normal 0 0 -1
    outer loop
      vertex 38 -8.09306 -7.5
      vertex 56 -4.70694 -7.5
      vertex 56 -8.09306 -7.5
    endloop
  endfacet
  facet normal -0 0 -1
    outer loop
      vertex 56 -4.70694 -7.5
      vertex 38 -8.09306 -7.5
      vertex 38 -4.70694 -7.5
    endloop
  endfacet
  facet normal 1 0 0
    outer loop
      vertex 40 -4.4 -3.3463
      vertex 40 4.4 -3.3463
      vertex 40 4.4 9
    endloop
  endfacet
  facet normal 1 0 0
    outer loop
      vertex 40 4.4 -3.3463
      vertex 40 -4.4 -3.3463
      vertex 40 3.97513 -3.9
    endloop
  endfacet
  facet normal 1 0 -0
    outer loop
      vertex 40 -3.97513 -3.9
      vertex 40 3.97513 -3.9
      vertex 40 -4.4 -3.3463
    endloop
  endfacet
  facet normal 1 0 0
    outer loop
      vertex 40 3.97513 -3.9
      vertex 40 -3.97513 -3.9
      vertex 40 3.69541 -4.57531
    endloop
  endfacet
  facet normal 1 0 0
    outer loop
      vertex 40 3.6 -5.3
      vertex 40 -3.69541 -4.57531
      vertex 40 -3.6 -5.3
    endloop
  endfacet
  facet normal 1 0 0
    outer loop
      vertex 40 3.69541 -4.57531
      vertex 40 -3.69541 -4.57531
      vertex 40 3.6 -5.3
    endloop
  endfacet
  facet normal 1 0 0
    outer loop
      vertex 40 -4.4 -3.3463
      vertex 40 4.4 9
      vertex 40 -4.4 9
    endloop
  endfacet
  facet normal 1 0 -0
    outer loop
      vertex 40 -3.69541 -4.57531
      vertex 40 3.69541 -4.57531
      vertex 40 -3.97513 -3.9
    endloop
  endfacet
  facet normal 1 -0 0
    outer loop
      vertex 40 -3.6 -5.3
      vertex 40 3.69541 -6.02469
      vertex 40 3.6 -5.3
    endloop
  endfacet
  facet normal 1 0 0
    outer loop
      vertex 40 -3.69541 -6.02469
      vertex 40 3.69541 -6.02469
      vertex 40 -3.6 -5.3
    endloop
  endfacet
  facet normal 1 0 0
    outer loop
      vertex 40 3.69541 -6.02469
      vertex 40 -3.69541 -6.02469
      vertex 40 3.89229 -6.5
    endloop
  endfacet
  facet normal 1 0 0
    outer loop
      vertex 40 3.89229 -6.5
      vertex 40 -3.69541 -6.02469
      vertex 40 -3.89229 -6.5
    endloop
  endfacet
  facet normal 0 0 -1
    outer loop
      vertex 38 -3.89229 -6.5
      vertex 40 3.89229 -6.5
      vertex 40 -3.89229 -6.5
    endloop
  endfacet
  facet normal -0 0 -1
    outer loop
      vertex 40 3.89229 -6.5
      vertex 38 -3.89229 -6.5
      vertex 38 3.89229 -6.5
    endloop
  endfacet
  facet normal 0 -0.258821 0.965925
    outer loop
      vertex 38 7.225 -6.72894
      vertex 56 6.4 -6.95
      vertex 56 7.225 -6.72894
    endloop
  endfacet
  facet normal 0 -0.258821 0.965925
    outer loop
      vertex 56 6.4 -6.95
      vertex 38 7.225 -6.72894
      vertex 38 6.4 -6.95
    endloop
  endfacet
  facet normal 0 -0.965925 -0.258821
    outer loop
      vertex 38 8.05 -5.3
      vertex 56 7.82894 -4.475
      vertex 38 7.82894 -4.475
    endloop
  endfacet
  facet normal 0 -0.965925 -0.258821
    outer loop
      vertex 56 7.82894 -4.475
      vertex 38 8.05 -5.3
      vertex 56 8.05 -5.3
    endloop
  endfacet
  facet normal 0 -0.707107 0.707107
    outer loop
      vertex 38 7.82894 -6.125
      vertex 56 7.225 -6.72894
      vertex 56 7.82894 -6.125
    endloop
  endfacet
  facet normal 0 -0.707107 0.707107
    outer loop
      vertex 56 7.225 -6.72894
      vertex 38 7.82894 -6.125
      vertex 38 7.225 -6.72894
    endloop
  endfacet
  facet normal 0 -0.707107 -0.707107
    outer loop
      vertex 38 7.82894 -4.475
      vertex 56 7.225 -3.87106
      vertex 38 7.225 -3.87106
    endloop
  endfacet
  facet normal 0 -0.707107 -0.707107
    outer loop
      vertex 56 7.225 -3.87106
      vertex 38 7.82894 -4.475
      vertex 56 7.82894 -4.475
    endloop
  endfacet
  facet normal -0 0.707107 0.707107
    outer loop
      vertex 38 5.575 -6.72894
      vertex 56 4.97106 -6.125
      vertex 56 5.575 -6.72894
    endloop
  endfacet
  facet normal 0 0.707107 0.707107
    outer loop
      vertex 56 4.97106 -6.125
      vertex 38 5.575 -6.72894
      vertex 38 4.97106 -6.125
    endloop
  endfacet
  facet normal 0 0.707107 -0.707107
    outer loop
      vertex 56 4.97106 -4.475
      vertex 38 5.575 -3.87106
      vertex 56 5.575 -3.87106
    endloop
  endfacet
  facet normal 0 0.707107 -0.707107
    outer loop
      vertex 38 5.575 -3.87106
      vertex 56 4.97106 -4.475
      vertex 38 4.97106 -4.475
    endloop
  endfacet
  facet normal 0 -0.965925 0.258821
    outer loop
      vertex 38 7.82894 -6.125
      vertex 56 8.05 -5.3
      vertex 38 8.05 -5.3
    endloop
  endfacet
  facet normal 0 -0.965925 0.258821
    outer loop
      vertex 56 8.05 -5.3
      vertex 38 7.82894 -6.125
      vertex 56 7.82894 -6.125
    endloop
  endfacet
  facet normal 0 -0.258821 -0.965925
    outer loop
      vertex 38 6.4 -3.65
      vertex 56 7.225 -3.87106
      vertex 56 6.4 -3.65
    endloop
  endfacet
  facet normal -0 -0.258821 -0.965925
    outer loop
      vertex 56 7.225 -3.87106
      vertex 38 6.4 -3.65
      vertex 38 7.225 -3.87106
    endloop
  endfacet
  facet normal 0 0.965925 -0.258821
    outer loop
      vertex 56 4.75 -5.3
      vertex 38 4.97106 -4.475
      vertex 56 4.97106 -4.475
    endloop
  endfacet
  facet normal 0 0.965925 -0.258821
    outer loop
      vertex 38 4.97106 -4.475
      vertex 56 4.75 -5.3
      vertex 38 4.75 -5.3
    endloop
  endfacet
  facet normal 0 0.258821 -0.965925
    outer loop
      vertex 38 5.575 -3.87106
      vertex 56 6.4 -3.65
      vertex 56 5.575 -3.87106
    endloop
  endfacet
  facet normal 0 0.258821 -0.965925
    outer loop
      vertex 56 6.4 -3.65
      vertex 38 5.575 -3.87106
      vertex 38 6.4 -3.65
    endloop
  endfacet
  facet normal -0 0.258821 0.965925
    outer loop
      vertex 38 6.4 -6.95
      vertex 56 5.575 -6.72894
      vertex 56 6.4 -6.95
    endloop
  endfacet
  facet normal 0 0.258821 0.965925
    outer loop
      vertex 56 5.575 -6.72894
      vertex 38 6.4 -6.95
      vertex 38 5.575 -6.72894
    endloop
  endfacet
  facet normal 0 0.965925 0.258821
    outer loop
      vertex 56 4.97106 -6.125
      vertex 38 4.75 -5.3
      vertex 56 4.75 -5.3
    endloop
  endfacet
  facet normal 0 0.965925 0.258821
    outer loop
      vertex 38 4.75 -5.3
      vertex 56 4.97106 -6.125
      vertex 38 4.97106 -6.125
    endloop
  endfacet
  facet normal 0 -0.258821 0.965925
    outer loop
      vertex 38 -5.575 -6.72894
      vertex 56 -6.4 -6.95
      vertex 56 -5.575 -6.72894
    endloop
  endfacet
  facet normal 0 -0.258821 0.965925
    outer loop
      vertex 56 -6.4 -6.95
      vertex 38 -5.575 -6.72894
      vertex 38 -6.4 -6.95
    endloop
  endfacet
  facet normal 0 -0.965925 -0.258821
    outer loop
      vertex 38 -4.75 -5.3
      vertex 56 -4.97106 -4.475
      vertex 38 -4.97106 -4.475
    endloop
  endfacet
  facet normal 0 -0.965925 -0.258821
    outer loop
      vertex 56 -4.97106 -4.475
      vertex 38 -4.75 -5.3
      vertex 56 -4.75 -5.3
    endloop
  endfacet
  facet normal 0 -0.707107 0.707107
    outer loop
      vertex 38 -4.97106 -6.125
      vertex 56 -5.575 -6.72894
      vertex 56 -4.97106 -6.125
    endloop
  endfacet
  facet normal 0 -0.707107 0.707107
    outer loop
      vertex 56 -5.575 -6.72894
      vertex 38 -4.97106 -6.125
      vertex 38 -5.575 -6.72894
    endloop
  endfacet
  facet normal 0 0.258821 -0.965925
    outer loop
      vertex 38 -7.225 -3.87106
      vertex 56 -6.4 -3.65
      vertex 56 -7.225 -3.87106
    endloop
  endfacet
  facet normal 0 0.258821 -0.965925
    outer loop
      vertex 56 -6.4 -3.65
      vertex 38 -7.225 -3.87106
      vertex 38 -6.4 -3.65
    endloop
  endfacet
  facet normal 0 -0.707107 -0.707107
    outer loop
      vertex 38 -4.97106 -4.475
      vertex 56 -5.575 -3.87106
      vertex 38 -5.575 -3.87106
    endloop
  endfacet
  facet normal 0 -0.707107 -0.707107
    outer loop
      vertex 56 -5.575 -3.87106
      vertex 38 -4.97106 -4.475
      vertex 56 -4.97106 -4.475
    endloop
  endfacet
  facet normal -0 0.258821 0.965925
    outer loop
      vertex 38 -6.4 -6.95
      vertex 56 -7.225 -6.72894
      vertex 56 -6.4 -6.95
    endloop
  endfacet
  facet normal 0 0.258821 0.965925
    outer loop
      vertex 56 -7.225 -6.72894
      vertex 38 -6.4 -6.95
      vertex 38 -7.225 -6.72894
    endloop
  endfacet
  facet normal -0 0.707107 0.707107
    outer loop
      vertex 38 -7.225 -6.72894
      vertex 56 -7.82894 -6.125
      vertex 56 -7.225 -6.72894
    endloop
  endfacet
  facet normal 0 0.707107 0.707107
    outer loop
      vertex 56 -7.82894 -6.125
      vertex 38 -7.225 -6.72894
      vertex 38 -7.82894 -6.125
    endloop
  endfacet
  facet normal 0 0.965925 0.258821
    outer loop
      vertex 56 -7.82894 -6.125
      vertex 38 -8.05 -5.3
      vertex 56 -8.05 -5.3
    endloop
  endfacet
  facet normal 0 0.965925 0.258821
    outer loop
      vertex 38 -8.05 -5.3
      vertex 56 -7.82894 -6.125
      vertex 38 -7.82894 -6.125
    endloop
  endfacet
  facet normal 0 0.707107 -0.707107
    outer loop
      vertex 56 -7.82894 -4.475
      vertex 38 -7.225 -3.87106
      vertex 56 -7.225 -3.87106
    endloop
  endfacet
  facet normal 0 0.707107 -0.707107
    outer loop
      vertex 38 -7.225 -3.87106
      vertex 56 -7.82894 -4.475
      vertex 38 -7.82894 -4.475
    endloop
  endfacet
  facet normal 0 -0.965925 0.258821
    outer loop
      vertex 38 -4.97106 -6.125
      vertex 56 -4.75 -5.3
      vertex 38 -4.75 -5.3
    endloop
  endfacet
  facet normal 0 -0.965925 0.258821
    outer loop
      vertex 56 -4.75 -5.3
      vertex 38 -4.97106 -6.125
      vertex 56 -4.97106 -6.125
    endloop
  endfacet
  facet normal 0 -0.258821 -0.965925
    outer loop
      vertex 38 -6.4 -3.65
      vertex 56 -5.575 -3.87106
      vertex 56 -6.4 -3.65
    endloop
  endfacet
  facet normal -0 -0.258821 -0.965925
    outer loop
      vertex 56 -5.575 -3.87106
      vertex 38 -6.4 -3.65
      vertex 38 -5.575 -3.87106
    endloop
  endfacet
  facet normal 0 0.965925 -0.258821
    outer loop
      vertex 56 -8.05 -5.3
      vertex 38 -7.82894 -4.475
      vertex 56 -7.82894 -4.475
    endloop
  endfacet
  facet normal 0 0.965925 -0.258821
    outer loop
      vertex 38 -7.82894 -4.475
      vertex 56 -8.05 -5.3
      vertex 38 -8.05 -5.3
    endloop
  endfacet
endsolid OpenSCAD_Model
