solid OpenSCAD_Model
  facet normal -1 -0 0
    outer loop
      vertex 0 -4.78728 4.78728
      vertex 0 -4.97533 4.59923
      vertex 0 -4.80208 4.80208
    endloop
  endfacet
  facet normal -1 0 0
    outer loop
      vertex 0 -2.22467 4.59923
      vertex 0 -2.41272 4.78728
      vertex 0 -2.39792 4.80208
    endloop
  endfacet
  facet normal -1 0 0
    outer loop
      vertex 0 0 0
      vertex 0 -1.9 3.6
      vertex 0 0 7.2
    endloop
  endfacet
  facet normal -1 0 0
    outer loop
      vertex 0 0 0
      vertex 0 -1.9832 3.07467
      vertex 0 -1.9 3.6
    endloop
  endfacet
  facet normal -1 0 0
    outer loop
      vertex 0 0 0
      vertex 0 -2.22467 2.60077
      vertex 0 -1.9832 3.07467
    endloop
  endfacet
  facet normal -1 0 0
    outer loop
      vertex 0 0 0
      vertex 0 -2.60077 2.22467
      vertex 0 -2.22467 2.60077
    endloop
  endfacet
  facet normal -1 0 0
    outer loop
      vertex 0 0 0
      vertex 0 -3.07467 1.9832
      vertex 0 -2.60077 2.22467
    endloop
  endfacet
  facet normal -1 0 0
    outer loop
      vertex 0 0 0
      vertex 0 -3.6 1.9
      vertex 0 -3.07467 1.9832
    endloop
  endfacet
  facet normal -1 0 0
    outer loop
      vertex 0 -7.2 0
      vertex 0 -3.6 1.9
      vertex 0 0 0
    endloop
  endfacet
  facet normal -1 -0 0
    outer loop
      vertex 0 -5.2168 3.07467
      vertex 0 -7.2 0
      vertex 0 -5.3 3.6
    endloop
  endfacet
  facet normal -1 -0 0
    outer loop
      vertex 0 -4.97533 2.60077
      vertex 0 -7.2 0
      vertex 0 -5.2168 3.07467
    endloop
  endfacet
  facet normal -1 -0 0
    outer loop
      vertex 0 -4.59923 2.22467
      vertex 0 -7.2 0
      vertex 0 -4.97533 2.60077
    endloop
  endfacet
  facet normal -1 -0 0
    outer loop
      vertex 0 -4.12533 1.9832
      vertex 0 -7.2 0
      vertex 0 -4.59923 2.22467
    endloop
  endfacet
  facet normal -1 -0 0
    outer loop
      vertex 0 -3.6 1.9
      vertex 0 -7.2 0
      vertex 0 -4.12533 1.9832
    endloop
  endfacet
  facet normal -1 0 0
    outer loop
      vertex 0 -1.9832 4.12533
      vertex 0 0 7.2
      vertex 0 -1.9 3.6
    endloop
  endfacet
  facet normal -1 0 0
    outer loop
      vertex 0 -2.22467 4.59923
      vertex 0 0 7.2
      vertex 0 -1.9832 4.12533
    endloop
  endfacet
  facet normal -1 0 0
    outer loop
      vertex 0 -2.39792 4.80208
      vertex 0 0 7.2
      vertex 0 -2.22467 4.59923
    endloop
  endfacet
  facet normal -1 0 0
    outer loop
      vertex 0 -3.6 6.00416
      vertex 0 0 7.2
      vertex 0 -2.39792 4.80208
    endloop
  endfacet
  facet normal -1 0 0
    outer loop
      vertex 0 -7.2 7.2
      vertex 0 -5.3 3.6
      vertex 0 -7.2 0
    endloop
  endfacet
  facet normal -1 0 0
    outer loop
      vertex 0 -3.6 6.00416
      vertex 0 -7.2 7.2
      vertex 0 0 7.2
    endloop
  endfacet
  facet normal -1 0 0
    outer loop
      vertex 0 -4.80208 4.80208
      vertex 0 -7.2 7.2
      vertex 0 -3.6 6.00416
    endloop
  endfacet
  facet normal -1 0 0
    outer loop
      vertex 0 -4.97533 4.59923
      vertex 0 -7.2 7.2
      vertex 0 -4.80208 4.80208
    endloop
  endfacet
  facet normal -1 0 0
    outer loop
      vertex 0 -5.2168 4.12533
      vertex 0 -7.2 7.2
      vertex 0 -4.97533 4.59923
    endloop
  endfacet
  facet normal -1 0 0
    outer loop
      vertex 0 -5.3 3.6
      vertex 0 -7.2 7.2
      vertex 0 -5.2168 4.12533
    endloop
  endfacet
  facet normal 0 -1 0
    outer loop
      vertex 0 -7.2 7.2
      vertex 12.9 -7.2 2.86102e-06
      vertex 12.9 -7.2 7.2
    endloop
  endfacet
  facet normal 0 -1 0
    outer loop
      vertex 0 -7.2 0
      vertex 12.9 -7.2 2.86102e-06
      vertex 0 -7.2 7.2
    endloop
  endfacet
  facet normal 0 -1 0
    outer loop
      vertex 16.9 -7.2 0
      vertex 12.9 -7.2 2.86102e-06
      vertex 0 -7.2 0
    endloop
  endfacet
  facet normal 0 -1 0
    outer loop
      vertex 12.9 -7.2 2.86102e-06
      vertex 16.9 -7.2 0
      vertex 16.9 -7.2 2.86102e-06
    endloop
  endfacet
  facet normal 0 0 1
    outer loop
      vertex 23.1 0 7.2
      vertex 23.0843 -10 7.2
      vertex 23.1 -10 7.2
    endloop
  endfacet
  facet normal -0 0 1
    outer loop
      vertex 15.3271 -8.43664 7.2
      vertex 23.0843 -10 7.2
      vertex 23.1 0 7.2
    endloop
  endfacet
  facet normal -0 -0 1
    outer loop
      vertex 15.7532 -9.27295 7.2
      vertex 23.0843 -10 7.2
      vertex 15.573 -8.83803 7.2
    endloop
  endfacet
  facet normal 0 -0 1
    outer loop
      vertex 15.9 -10.2 7.2
      vertex 23.0843 -10 7.2
      vertex 15.8631 -9.7307 7.2
    endloop
  endfacet
  facet normal 0 0 1
    outer loop
      vertex 23.0843 -10 7.2
      vertex 15.9 -10.2 7.2
      vertex 22.9744 -11.7956 7.2
    endloop
  endfacet
  facet normal 0 0 1
    outer loop
      vertex 22.9744 -11.7956 7.2
      vertex 15.8631 -10.6693 7.2
      vertex 22.6008 -13.352 7.2
    endloop
  endfacet
  facet normal 0 0 1
    outer loop
      vertex 22.6008 -13.352 7.2
      vertex 15.7532 -11.1271 7.2
      vertex 21.9883 -14.8307 7.2
    endloop
  endfacet
  facet normal -0 0 1
    outer loop
      vertex 15.573 -11.562 7.2
      vertex 21.9883 -14.8307 7.2
      vertex 15.7532 -11.1271 7.2
    endloop
  endfacet
  facet normal -0 0 1
    outer loop
      vertex 15.3271 -11.9634 7.2
      vertex 21.152 -16.1954 7.2
      vertex 15.573 -11.562 7.2
    endloop
  endfacet
  facet normal 0 0 1
    outer loop
      vertex 21.9883 -14.8307 7.2
      vertex 15.573 -11.562 7.2
      vertex 21.152 -16.1954 7.2
    endloop
  endfacet
  facet normal -0 0 1
    outer loop
      vertex 15.7532 -11.1271 7.2
      vertex 22.6008 -13.352 7.2
      vertex 15.8631 -10.6693 7.2
    endloop
  endfacet
  facet normal -0 0 1
    outer loop
      vertex 15.8631 -10.6693 7.2
      vertex 22.9744 -11.7956 7.2
      vertex 15.9 -10.2 7.2
    endloop
  endfacet
  facet normal -0 -0 1
    outer loop
      vertex 15.8631 -9.7307 7.2
      vertex 23.0843 -10 7.2
      vertex 15.7532 -9.27295 7.2
    endloop
  endfacet
  facet normal 0 0 1
    outer loop
      vertex 23.0843 -10 7.2
      vertex 15.3271 -8.43664 7.2
      vertex 15.573 -8.83803 7.2
    endloop
  endfacet
  facet normal 0 0 1
    outer loop
      vertex 23.1 0 7.2
      vertex 15.0213 -8.07868 7.2
      vertex 15.3271 -8.43664 7.2
    endloop
  endfacet
  facet normal 0 0 1
    outer loop
      vertex 23.1 0 7.2
      vertex 14.6634 -7.77295 7.2
      vertex 15.0213 -8.07868 7.2
    endloop
  endfacet
  facet normal 0 0 1
    outer loop
      vertex 23.1 0 7.2
      vertex 14.262 -7.52698 7.2
      vertex 14.6634 -7.77295 7.2
    endloop
  endfacet
  facet normal 0 0 1
    outer loop
      vertex 23.1 0 7.2
      vertex 13.8271 -7.34683 7.2
      vertex 14.262 -7.52698 7.2
    endloop
  endfacet
  facet normal 0 0 1
    outer loop
      vertex 23.1 0 7.2
      vertex 13.3693 -7.23693 7.2
      vertex 13.8271 -7.34683 7.2
    endloop
  endfacet
  facet normal 0 0 1
    outer loop
      vertex 23.1 0 7.2
      vertex 12.9 -7.2 7.2
      vertex 13.3693 -7.23693 7.2
    endloop
  endfacet
  facet normal -0 0 1
    outer loop
      vertex 0 0 7.2
      vertex 12.9 -7.2 7.2
      vertex 23.1 0 7.2
    endloop
  endfacet
  facet normal 0 0 1
    outer loop
      vertex 12.9 -7.2 7.2
      vertex 0 0 7.2
      vertex 0 -7.2 7.2
    endloop
  endfacet
  facet normal 0 0 1
    outer loop
      vertex 23.1 -10.2 7.2
      vertex 23.0843 -10 7.2
      vertex 22.9744 -11.7956 7.2
    endloop
  endfacet
  facet normal 0 0 1
    outer loop
      vertex 21.152 -16.1954 7.2
      vertex 15.3271 -11.9634 7.2
      vertex 20.1125 -17.4125 7.2
    endloop
  endfacet
  facet normal -0 0 1
    outer loop
      vertex 15.0213 -12.3213 7.2
      vertex 20.1125 -17.4125 7.2
      vertex 15.3271 -11.9634 7.2
    endloop
  endfacet
  facet normal 0 0 1
    outer loop
      vertex 20.1125 -17.4125 7.2
      vertex 15.0213 -12.3213 7.2
      vertex 18.8954 -18.452 7.2
    endloop
  endfacet
  facet normal -0 0 1
    outer loop
      vertex 14.6634 -12.6271 7.2
      vertex 18.8954 -18.452 7.2
      vertex 15.0213 -12.3213 7.2
    endloop
  endfacet
  facet normal 0 0 1
    outer loop
      vertex 18.8954 -18.452 7.2
      vertex 14.6634 -12.6271 7.2
      vertex 17.5307 -19.2883 7.2
    endloop
  endfacet
  facet normal -0 0 1
    outer loop
      vertex 14.262 -12.873 7.2
      vertex 17.5307 -19.2883 7.2
      vertex 14.6634 -12.6271 7.2
    endloop
  endfacet
  facet normal 0 0 1
    outer loop
      vertex 17.5307 -19.2883 7.2
      vertex 14.262 -12.873 7.2
      vertex 16.052 -19.9008 7.2
    endloop
  endfacet
  facet normal -0 0 1
    outer loop
      vertex 13.8271 -13.0532 7.2
      vertex 16.052 -19.9008 7.2
      vertex 14.262 -12.873 7.2
    endloop
  endfacet
  facet normal 0 0 1
    outer loop
      vertex 16.052 -19.9008 7.2
      vertex 13.8271 -13.0532 7.2
      vertex 14.4956 -20.2744 7.2
    endloop
  endfacet
  facet normal -0 0 1
    outer loop
      vertex 13.3693 -13.1631 7.2
      vertex 14.4956 -20.2744 7.2
      vertex 13.8271 -13.0532 7.2
    endloop
  endfacet
  facet normal -0 0 1
    outer loop
      vertex 12.9 -13.2 7.2
      vertex 14.4956 -20.2744 7.2
      vertex 13.3693 -13.1631 7.2
    endloop
  endfacet
  facet normal 0 0 1
    outer loop
      vertex 12.9 -13.2 7.2
      vertex 12.9 -20.4 7.2
      vertex 14.4956 -20.2744 7.2
    endloop
  endfacet
  facet normal 0 0 1
    outer loop
      vertex 12.4307 -13.1631 7.2
      vertex 12.9 -20.4 7.2
      vertex 12.9 -13.2 7.2
    endloop
  endfacet
  facet normal 0 0 1
    outer loop
      vertex 11.3044 -20.2744 7.2
      vertex 12.4307 -13.1631 7.2
      vertex 11.9729 -13.0532 7.2
    endloop
  endfacet
  facet normal 0 0 1
    outer loop
      vertex 9.74803 -19.9008 7.2
      vertex 11.9729 -13.0532 7.2
      vertex 11.538 -12.873 7.2
    endloop
  endfacet
  facet normal 0 0 1
    outer loop
      vertex 12.4307 -13.1631 7.2
      vertex 11.3044 -20.2744 7.2
      vertex 12.9 -20.4 7.2
    endloop
  endfacet
  facet normal 0 0 1
    outer loop
      vertex 8.2693 -19.2883 7.2
      vertex 11.538 -12.873 7.2
      vertex 11.1366 -12.6271 7.2
    endloop
  endfacet
  facet normal 0 0 1
    outer loop
      vertex 6.90459 -18.452 7.2
      vertex 11.1366 -12.6271 7.2
      vertex 10.7787 -12.3213 7.2
    endloop
  endfacet
  facet normal 0 0 1
    outer loop
      vertex 5.68751 -17.4125 7.2
      vertex 10.7787 -12.3213 7.2
      vertex 10.4729 -11.9634 7.2
    endloop
  endfacet
  facet normal 0 0 1
    outer loop
      vertex 4.64803 -16.1954 7.2
      vertex 10.4729 -11.9634 7.2
      vertex 10.227 -11.562 7.2
    endloop
  endfacet
  facet normal 0 0 1
    outer loop
      vertex 3.81174 -14.8307 7.2
      vertex 10.227 -11.562 7.2
      vertex 10.0468 -11.1271 7.2
    endloop
  endfacet
  facet normal 0 0 1
    outer loop
      vertex 3.19923 -13.352 7.2
      vertex 10.0468 -11.1271 7.2
      vertex 9.93693 -10.6693 7.2
    endloop
  endfacet
  facet normal 0 0 1
    outer loop
      vertex 11.9729 -13.0532 7.2
      vertex 9.74803 -19.9008 7.2
      vertex 11.3044 -20.2744 7.2
    endloop
  endfacet
  facet normal 0 0 1
    outer loop
      vertex 2.82558 -11.7956 7.2
      vertex 9.93693 -10.6693 7.2
      vertex 9.9 -10.2 7.2
    endloop
  endfacet
  facet normal 0 0 1
    outer loop
      vertex 11.538 -12.873 7.2
      vertex 8.2693 -19.2883 7.2
      vertex 9.74803 -19.9008 7.2
    endloop
  endfacet
  facet normal 0 0 1
    outer loop
      vertex 11.1366 -12.6271 7.2
      vertex 6.90459 -18.452 7.2
      vertex 8.2693 -19.2883 7.2
    endloop
  endfacet
  facet normal 0 0 1
    outer loop
      vertex 10.7787 -12.3213 7.2
      vertex 5.68751 -17.4125 7.2
      vertex 6.90459 -18.452 7.2
    endloop
  endfacet
  facet normal 0 0 1
    outer loop
      vertex 10.4729 -11.9634 7.2
      vertex 4.64803 -16.1954 7.2
      vertex 5.68751 -17.4125 7.2
    endloop
  endfacet
  facet normal 0 0 1
    outer loop
      vertex 10.227 -11.562 7.2
      vertex 3.81174 -14.8307 7.2
      vertex 4.64803 -16.1954 7.2
    endloop
  endfacet
  facet normal 0 0 1
    outer loop
      vertex 10.0468 -11.1271 7.2
      vertex 3.19923 -13.352 7.2
      vertex 3.81174 -14.8307 7.2
    endloop
  endfacet
  facet normal 0 0 1
    outer loop
      vertex 9.93693 -10.6693 7.2
      vertex 2.82558 -11.7956 7.2
      vertex 3.19923 -13.352 7.2
    endloop
  endfacet
  facet normal 0 -0 1
    outer loop
      vertex 2.82558 -11.7956 7.2
      vertex 9.9 -10.2 7.2
      vertex 2.7 -10.2 7.2
    endloop
  endfacet
  facet normal 0 1 -0
    outer loop
      vertex 23.1 0 0
      vertex 0 0 7.2
      vertex 23.1 0 7.2
    endloop
  endfacet
  facet normal 0 1 0
    outer loop
      vertex 0 0 7.2
      vertex 23.1 0 0
      vertex 0 0 0
    endloop
  endfacet
  facet normal 0 0 -1
    outer loop
      vertex 16.9 -7.2 0
      vertex 23.1 -10 0
      vertex 16.9 -10 0
    endloop
  endfacet
  facet normal 0 0 -1
    outer loop
      vertex 23.1 -10 0
      vertex 16.9 -7.2 0
      vertex 23.1 0 0
    endloop
  endfacet
  facet normal 0 0 -1
    outer loop
      vertex 0 0 0
      vertex 16.9 -7.2 0
      vertex 0 -7.2 0
    endloop
  endfacet
  facet normal 0 0 -1
    outer loop
      vertex 16.9 -7.2 0
      vertex 0 0 0
      vertex 23.1 0 0
    endloop
  endfacet
  facet normal -1 0 0
    outer loop
      vertex 16.9 -10 0
      vertex 16.9 -7.2 2.86102e-06
      vertex 16.9 -7.2 0
    endloop
  endfacet
  facet normal -1 -0 0
    outer loop
      vertex 16.9 -7.2 2.86102e-06
      vertex 16.9 -10 0
      vertex 16.9 -10 2.86102e-06
    endloop
  endfacet
  facet normal 0 -1 0
    outer loop
      vertex 16.9 -10 2.86102e-06
      vertex 16.9 -10 0
      vertex 23.0843 -10 2.86102e-06
    endloop
  endfacet
  facet normal 0 -1 0
    outer loop
      vertex 23.0843 -10 2.86102e-06
      vertex 23.1 -10 7.2
      vertex 23.0843 -10 7.2
    endloop
  endfacet
  facet normal 0 -1 0
    outer loop
      vertex 23.0843 -10 2.86102e-06
      vertex 23.1 -10 0
      vertex 23.1 -10 7.2
    endloop
  endfacet
  facet normal 0 -1 0
    outer loop
      vertex 23.1 -10 0
      vertex 23.0843 -10 2.86102e-06
      vertex 16.9 -10 0
    endloop
  endfacet
  facet normal 1 0 0
    outer loop
      vertex 23.1 0 7.2
      vertex 23.1 -0.799999 5.21658
      vertex 23.1 0 0
    endloop
  endfacet
  facet normal 1 0 0
    outer loop
      vertex 23.1 0 7.2
      vertex 23.1 -3.6 6.83316
      vertex 23.1 -0.799999 5.21658
    endloop
  endfacet
  facet normal 1 0 0
    outer loop
      vertex 23.1 -6.4 5.21658
      vertex 23.1 -10 7.2
      vertex 23.1 -6.4 1.98342
    endloop
  endfacet
  facet normal 1 0 0
    outer loop
      vertex 23.1 -3.6 6.83316
      vertex 23.1 -10 7.2
      vertex 23.1 -6.4 5.21658
    endloop
  endfacet
  facet normal 1 -0 0
    outer loop
      vertex 23.1 -10 7.2
      vertex 23.1 -3.6 6.83316
      vertex 23.1 0 7.2
    endloop
  endfacet
  facet normal 1 -0 0
    outer loop
      vertex 23.1 -0.799999 1.98342
      vertex 23.1 0 0
      vertex 23.1 -0.799999 5.21658
    endloop
  endfacet
  facet normal 1 -0 0
    outer loop
      vertex 23.1 -3.6 0.366838
      vertex 23.1 0 0
      vertex 23.1 -0.799999 1.98342
    endloop
  endfacet
  facet normal 1 0 0
    outer loop
      vertex 23.1 -3.6 0.366838
      vertex 23.1 -10 0
      vertex 23.1 0 0
    endloop
  endfacet
  facet normal 1 0 0
    outer loop
      vertex 23.1 -6.4 1.98342
      vertex 23.1 -10 0
      vertex 23.1 -3.6 0.366838
    endloop
  endfacet
  facet normal 1 0 0
    outer loop
      vertex 23.1 -10 0
      vertex 23.1 -6.4 1.98342
      vertex 23.1 -10 7.2
    endloop
  endfacet
  facet normal 0 1 -0
    outer loop
      vertex 9.9 -10.2 2.86102e-06
      vertex 2.7 -10.2 7.2
      vertex 9.9 -10.2 7.2
    endloop
  endfacet
  facet normal 0 1 0
    outer loop
      vertex 2.7 -10.2 7.2
      vertex 9.9 -10.2 2.86102e-06
      vertex 2.7 -10.2 2.86102e-06
    endloop
  endfacet
  facet normal -0.0784491 -0.996918 0
    outer loop
      vertex 12.9 -7.2 2.86102e-06
      vertex 13.3693 -7.23693 7.2
      vertex 12.9 -7.2 7.2
    endloop
  endfacet
  facet normal -0.0784491 -0.996918 -0
    outer loop
      vertex 13.3693 -7.23693 7.2
      vertex 12.9 -7.2 2.86102e-06
      vertex 13.3693 -7.23693 2.86102e-06
    endloop
  endfacet
  facet normal -0.233429 -0.972374 0
    outer loop
      vertex 13.3693 -7.23693 2.86102e-06
      vertex 13.8271 -7.34683 7.2
      vertex 13.3693 -7.23693 7.2
    endloop
  endfacet
  facet normal -0.233429 -0.972374 -0
    outer loop
      vertex 13.8271 -7.34683 7.2
      vertex 13.3693 -7.23693 2.86102e-06
      vertex 13.8271 -7.34683 2.86102e-06
    endloop
  endfacet
  facet normal -0.382699 -0.923873 0
    outer loop
      vertex 13.8271 -7.34683 2.86102e-06
      vertex 14.262 -7.52698 7.2
      vertex 13.8271 -7.34683 7.2
    endloop
  endfacet
  facet normal -0.382699 -0.923873 -0
    outer loop
      vertex 14.262 -7.52698 7.2
      vertex 13.8271 -7.34683 2.86102e-06
      vertex 14.262 -7.52698 2.86102e-06
    endloop
  endfacet
  facet normal -0.522486 -0.852648 0
    outer loop
      vertex 14.262 -7.52698 2.86102e-06
      vertex 14.6634 -7.77295 7.2
      vertex 14.262 -7.52698 7.2
    endloop
  endfacet
  facet normal -0.522486 -0.852648 -0
    outer loop
      vertex 14.6634 -7.77295 7.2
      vertex 14.262 -7.52698 2.86102e-06
      vertex 14.6634 -7.77295 2.86102e-06
    endloop
  endfacet
  facet normal -0.649515 -0.760349 0
    outer loop
      vertex 14.6634 -7.77295 2.86102e-06
      vertex 15.0213 -8.07868 7.2
      vertex 14.6634 -7.77295 7.2
    endloop
  endfacet
  facet normal -0.649515 -0.760349 -0
    outer loop
      vertex 15.0213 -8.07868 7.2
      vertex 14.6634 -7.77295 2.86102e-06
      vertex 15.0213 -8.07868 2.86102e-06
    endloop
  endfacet
  facet normal -0.760329 -0.649538 0
    outer loop
      vertex 15.3271 -8.43664 2.86102e-06
      vertex 15.0213 -8.07868 7.2
      vertex 15.0213 -8.07868 2.86102e-06
    endloop
  endfacet
  facet normal -0.760329 -0.649538 0
    outer loop
      vertex 15.0213 -8.07868 7.2
      vertex 15.3271 -8.43664 2.86102e-06
      vertex 15.3271 -8.43664 7.2
    endloop
  endfacet
  facet normal -0.852708 -0.522387 0
    outer loop
      vertex 15.573 -8.83803 2.86102e-06
      vertex 15.3271 -8.43664 7.2
      vertex 15.3271 -8.43664 2.86102e-06
    endloop
  endfacet
  facet normal -0.852708 -0.522387 0
    outer loop
      vertex 15.3271 -8.43664 7.2
      vertex 15.573 -8.83803 2.86102e-06
      vertex 15.573 -8.83803 7.2
    endloop
  endfacet
  facet normal -0.923842 -0.382775 0
    outer loop
      vertex 15.7532 -9.27295 2.86102e-06
      vertex 15.573 -8.83803 7.2
      vertex 15.573 -8.83803 2.86102e-06
    endloop
  endfacet
  facet normal -0.923842 -0.382775 0
    outer loop
      vertex 15.573 -8.83803 7.2
      vertex 15.7532 -9.27295 2.86102e-06
      vertex 15.7532 -9.27295 7.2
    endloop
  endfacet
  facet normal -0.972368 -0.233453 0
    outer loop
      vertex 15.8631 -9.7307 2.86102e-06
      vertex 15.7532 -9.27295 7.2
      vertex 15.7532 -9.27295 2.86102e-06
    endloop
  endfacet
  facet normal -0.972368 -0.233453 0
    outer loop
      vertex 15.7532 -9.27295 7.2
      vertex 15.8631 -9.7307 2.86102e-06
      vertex 15.8631 -9.7307 7.2
    endloop
  endfacet
  facet normal -0.996923 -0.0783858 0
    outer loop
      vertex 15.9 -10.2 2.86102e-06
      vertex 15.8631 -9.7307 7.2
      vertex 15.8631 -9.7307 2.86102e-06
    endloop
  endfacet
  facet normal -0.996923 -0.0783858 0
    outer loop
      vertex 15.8631 -9.7307 7.2
      vertex 15.9 -10.2 2.86102e-06
      vertex 15.9 -10.2 7.2
    endloop
  endfacet
  facet normal 0.996933 0.0782592 0
    outer loop
      vertex 23.1 -10.2 7.2
      vertex 23.0843 -10 2.86102e-06
      vertex 23.0843 -10 7.2
    endloop
  endfacet
  facet normal 0.996933 0.0782592 0
    outer loop
      vertex 23.0843 -10 2.86102e-06
      vertex 23.1 -10.2 7.2
      vertex 23.1 -10.2 2.86102e-06
    endloop
  endfacet
  facet normal -0.996923 0.0783858 0
    outer loop
      vertex 15.8631 -10.6693 2.86102e-06
      vertex 15.9 -10.2 7.2
      vertex 15.9 -10.2 2.86102e-06
    endloop
  endfacet
  facet normal -0.996923 0.0783858 0
    outer loop
      vertex 15.9 -10.2 7.2
      vertex 15.8631 -10.6693 2.86102e-06
      vertex 15.8631 -10.6693 7.2
    endloop
  endfacet
  facet normal 0.996916 -0.0784737 0
    outer loop
      vertex 22.9744 -11.7956 7.2
      vertex 23.1 -10.2 2.86102e-06
      vertex 23.1 -10.2 7.2
    endloop
  endfacet
  facet normal 0.996916 -0.0784737 0
    outer loop
      vertex 23.1 -10.2 2.86102e-06
      vertex 22.9744 -11.7956 7.2
      vertex 22.9744 -11.7956 2.86102e-06
    endloop
  endfacet
  facet normal -0.972374 0.233429 0
    outer loop
      vertex 15.7532 -11.1271 2.86102e-06
      vertex 15.8631 -10.6693 7.2
      vertex 15.8631 -10.6693 2.86102e-06
    endloop
  endfacet
  facet normal -0.972374 0.233429 0
    outer loop
      vertex 15.8631 -10.6693 7.2
      vertex 15.7532 -11.1271 2.86102e-06
      vertex 15.7532 -11.1271 7.2
    endloop
  endfacet
  facet normal 0.972378 -0.233411 0
    outer loop
      vertex 22.6008 -13.352 7.2
      vertex 22.9744 -11.7956 2.86102e-06
      vertex 22.9744 -11.7956 7.2
    endloop
  endfacet
  facet normal 0.972378 -0.233411 0
    outer loop
      vertex 22.9744 -11.7956 2.86102e-06
      vertex 22.6008 -13.352 7.2
      vertex 22.6008 -13.352 2.86102e-06
    endloop
  endfacet
  facet normal -0.923836 0.38279 0
    outer loop
      vertex 15.573 -11.562 2.86102e-06
      vertex 15.7532 -11.1271 7.2
      vertex 15.7532 -11.1271 2.86102e-06
    endloop
  endfacet
  facet normal -0.923836 0.38279 0
    outer loop
      vertex 15.7532 -11.1271 7.2
      vertex 15.573 -11.562 2.86102e-06
      vertex 15.573 -11.562 7.2
    endloop
  endfacet
  facet normal 0.923879 -0.382685 0
    outer loop
      vertex 21.9883 -14.8307 7.2
      vertex 22.6008 -13.352 2.86102e-06
      vertex 22.6008 -13.352 7.2
    endloop
  endfacet
  facet normal 0.923879 -0.382685 0
    outer loop
      vertex 22.6008 -13.352 2.86102e-06
      vertex 21.9883 -14.8307 7.2
      vertex 21.9883 -14.8307 2.86102e-06
    endloop
  endfacet
  facet normal -0.852714 0.522378 0
    outer loop
      vertex 15.3271 -11.9634 2.86102e-06
      vertex 15.573 -11.562 7.2
      vertex 15.573 -11.562 2.86102e-06
    endloop
  endfacet
  facet normal -0.852714 0.522378 0
    outer loop
      vertex 15.573 -11.562 7.2
      vertex 15.3271 -11.9634 2.86102e-06
      vertex 15.3271 -11.9634 7.2
    endloop
  endfacet
  facet normal 0.852637 -0.522503 0
    outer loop
      vertex 21.152 -16.1954 7.2
      vertex 21.9883 -14.8307 2.86102e-06
      vertex 21.9883 -14.8307 7.2
    endloop
  endfacet
  facet normal 0.852637 -0.522503 0
    outer loop
      vertex 21.9883 -14.8307 2.86102e-06
      vertex 21.152 -16.1954 7.2
      vertex 21.152 -16.1954 2.86102e-06
    endloop
  endfacet
  facet normal -0.760275 0.649601 0
    outer loop
      vertex 15.0213 -12.3213 2.86102e-06
      vertex 15.3271 -11.9634 7.2
      vertex 15.3271 -11.9634 2.86102e-06
    endloop
  endfacet
  facet normal -0.760275 0.649601 0
    outer loop
      vertex 15.3271 -11.9634 7.2
      vertex 15.0213 -12.3213 2.86102e-06
      vertex 15.0213 -12.3213 7.2
    endloop
  endfacet
  facet normal 0.760406 -0.649447 0
    outer loop
      vertex 20.1125 -17.4125 7.2
      vertex 21.152 -16.1954 2.86102e-06
      vertex 21.152 -16.1954 7.2
    endloop
  endfacet
  facet normal 0.760406 -0.649447 0
    outer loop
      vertex 21.152 -16.1954 2.86102e-06
      vertex 20.1125 -17.4125 7.2
      vertex 20.1125 -17.4125 2.86102e-06
    endloop
  endfacet
  facet normal -0.649601 0.760275 0
    outer loop
      vertex 15.0213 -12.3213 2.86102e-06
      vertex 14.6634 -12.6271 7.2
      vertex 15.0213 -12.3213 7.2
    endloop
  endfacet
  facet normal -0.649601 0.760275 0
    outer loop
      vertex 14.6634 -12.6271 7.2
      vertex 15.0213 -12.3213 2.86102e-06
      vertex 14.6634 -12.6271 2.86102e-06
    endloop
  endfacet
  facet normal 0.649447 -0.760406 0
    outer loop
      vertex 18.8954 -18.452 2.86102e-06
      vertex 20.1125 -17.4125 7.2
      vertex 18.8954 -18.452 7.2
    endloop
  endfacet
  facet normal 0.649447 -0.760406 0
    outer loop
      vertex 20.1125 -17.4125 7.2
      vertex 18.8954 -18.452 2.86102e-06
      vertex 20.1125 -17.4125 2.86102e-06
    endloop
  endfacet
  facet normal -0.522378 0.852714 0
    outer loop
      vertex 14.6634 -12.6271 2.86102e-06
      vertex 14.262 -12.873 7.2
      vertex 14.6634 -12.6271 7.2
    endloop
  endfacet
  facet normal -0.522378 0.852714 0
    outer loop
      vertex 14.262 -12.873 7.2
      vertex 14.6634 -12.6271 2.86102e-06
      vertex 14.262 -12.873 2.86102e-06
    endloop
  endfacet
  facet normal 0.522503 -0.852637 0
    outer loop
      vertex 17.5307 -19.2883 2.86102e-06
      vertex 18.8954 -18.452 7.2
      vertex 17.5307 -19.2883 7.2
    endloop
  endfacet
  facet normal 0.522503 -0.852637 0
    outer loop
      vertex 18.8954 -18.452 7.2
      vertex 17.5307 -19.2883 2.86102e-06
      vertex 18.8954 -18.452 2.86102e-06
    endloop
  endfacet
  facet normal -0.38279 0.923836 0
    outer loop
      vertex 14.262 -12.873 2.86102e-06
      vertex 13.8271 -13.0532 7.2
      vertex 14.262 -12.873 7.2
    endloop
  endfacet
  facet normal -0.38279 0.923836 0
    outer loop
      vertex 13.8271 -13.0532 7.2
      vertex 14.262 -12.873 2.86102e-06
      vertex 13.8271 -13.0532 2.86102e-06
    endloop
  endfacet
  facet normal 0.382685 -0.923879 0
    outer loop
      vertex 16.052 -19.9008 2.86102e-06
      vertex 17.5307 -19.2883 7.2
      vertex 16.052 -19.9008 7.2
    endloop
  endfacet
  facet normal 0.382685 -0.923879 0
    outer loop
      vertex 17.5307 -19.2883 7.2
      vertex 16.052 -19.9008 2.86102e-06
      vertex 17.5307 -19.2883 2.86102e-06
    endloop
  endfacet
  facet normal -0.233429 0.972374 0
    outer loop
      vertex 13.8271 -13.0532 2.86102e-06
      vertex 13.3693 -13.1631 7.2
      vertex 13.8271 -13.0532 7.2
    endloop
  endfacet
  facet normal -0.233429 0.972374 0
    outer loop
      vertex 13.3693 -13.1631 7.2
      vertex 13.8271 -13.0532 2.86102e-06
      vertex 13.3693 -13.1631 2.86102e-06
    endloop
  endfacet
  facet normal 0.233411 -0.972378 0
    outer loop
      vertex 14.4956 -20.2744 2.86102e-06
      vertex 16.052 -19.9008 7.2
      vertex 14.4956 -20.2744 7.2
    endloop
  endfacet
  facet normal 0.233411 -0.972378 0
    outer loop
      vertex 16.052 -19.9008 7.2
      vertex 14.4956 -20.2744 2.86102e-06
      vertex 16.052 -19.9008 2.86102e-06
    endloop
  endfacet
  facet normal -0.0783858 0.996923 0
    outer loop
      vertex 13.3693 -13.1631 2.86102e-06
      vertex 12.9 -13.2 7.2
      vertex 13.3693 -13.1631 7.2
    endloop
  endfacet
  facet normal -0.0783858 0.996923 0
    outer loop
      vertex 12.9 -13.2 7.2
      vertex 13.3693 -13.1631 2.86102e-06
      vertex 12.9 -13.2 2.86102e-06
    endloop
  endfacet
  facet normal 0.0784737 -0.996916 0
    outer loop
      vertex 12.9 -20.4 2.86102e-06
      vertex 14.4956 -20.2744 7.2
      vertex 12.9 -20.4 7.2
    endloop
  endfacet
  facet normal 0.0784737 -0.996916 0
    outer loop
      vertex 14.4956 -20.2744 7.2
      vertex 12.9 -20.4 2.86102e-06
      vertex 14.4956 -20.2744 2.86102e-06
    endloop
  endfacet
  facet normal 0.0783858 0.996923 -0
    outer loop
      vertex 12.9 -13.2 2.86102e-06
      vertex 12.4307 -13.1631 7.2
      vertex 12.9 -13.2 7.2
    endloop
  endfacet
  facet normal 0.0783858 0.996923 0
    outer loop
      vertex 12.4307 -13.1631 7.2
      vertex 12.9 -13.2 2.86102e-06
      vertex 12.4307 -13.1631 2.86102e-06
    endloop
  endfacet
  facet normal -0.0784737 -0.996916 0
    outer loop
      vertex 11.3044 -20.2744 2.86102e-06
      vertex 12.9 -20.4 7.2
      vertex 11.3044 -20.2744 7.2
    endloop
  endfacet
  facet normal -0.0784737 -0.996916 -0
    outer loop
      vertex 12.9 -20.4 7.2
      vertex 11.3044 -20.2744 2.86102e-06
      vertex 12.9 -20.4 2.86102e-06
    endloop
  endfacet
  facet normal 0.233429 0.972374 -0
    outer loop
      vertex 12.4307 -13.1631 2.86102e-06
      vertex 11.9729 -13.0532 7.2
      vertex 12.4307 -13.1631 7.2
    endloop
  endfacet
  facet normal 0.233429 0.972374 0
    outer loop
      vertex 11.9729 -13.0532 7.2
      vertex 12.4307 -13.1631 2.86102e-06
      vertex 11.9729 -13.0532 2.86102e-06
    endloop
  endfacet
  facet normal -0.233415 -0.972377 0
    outer loop
      vertex 9.74803 -19.9008 2.86102e-06
      vertex 11.3044 -20.2744 7.2
      vertex 9.74803 -19.9008 7.2
    endloop
  endfacet
  facet normal -0.233415 -0.972377 -0
    outer loop
      vertex 11.3044 -20.2744 7.2
      vertex 9.74803 -19.9008 2.86102e-06
      vertex 11.3044 -20.2744 2.86102e-06
    endloop
  endfacet
  facet normal 0.38279 0.923836 -0
    outer loop
      vertex 11.9729 -13.0532 2.86102e-06
      vertex 11.538 -12.873 7.2
      vertex 11.9729 -13.0532 7.2
    endloop
  endfacet
  facet normal 0.38279 0.923836 0
    outer loop
      vertex 11.538 -12.873 7.2
      vertex 11.9729 -13.0532 2.86102e-06
      vertex 11.538 -12.873 2.86102e-06
    endloop
  endfacet
  facet normal -0.382678 -0.923882 0
    outer loop
      vertex 8.2693 -19.2883 2.86102e-06
      vertex 9.74803 -19.9008 7.2
      vertex 8.2693 -19.2883 7.2
    endloop
  endfacet
  facet normal -0.382678 -0.923882 -0
    outer loop
      vertex 9.74803 -19.9008 7.2
      vertex 8.2693 -19.2883 2.86102e-06
      vertex 9.74803 -19.9008 2.86102e-06
    endloop
  endfacet
  facet normal 0.522378 0.852714 -0
    outer loop
      vertex 11.538 -12.873 2.86102e-06
      vertex 11.1366 -12.6271 7.2
      vertex 11.538 -12.873 7.2
    endloop
  endfacet
  facet normal 0.522378 0.852714 0
    outer loop
      vertex 11.1366 -12.6271 7.2
      vertex 11.538 -12.873 2.86102e-06
      vertex 11.1366 -12.6271 2.86102e-06
    endloop
  endfacet
  facet normal -0.522501 -0.852639 0
    outer loop
      vertex 6.90459 -18.452 2.86102e-06
      vertex 8.2693 -19.2883 7.2
      vertex 6.90459 -18.452 7.2
    endloop
  endfacet
  facet normal -0.522501 -0.852639 -0
    outer loop
      vertex 8.2693 -19.2883 7.2
      vertex 6.90459 -18.452 2.86102e-06
      vertex 8.2693 -19.2883 2.86102e-06
    endloop
  endfacet
  facet normal 0.649601 0.760275 -0
    outer loop
      vertex 11.1366 -12.6271 2.86102e-06
      vertex 10.7787 -12.3213 7.2
      vertex 11.1366 -12.6271 7.2
    endloop
  endfacet
  facet normal 0.649601 0.760275 0
    outer loop
      vertex 10.7787 -12.3213 7.2
      vertex 11.1366 -12.6271 2.86102e-06
      vertex 10.7787 -12.3213 2.86102e-06
    endloop
  endfacet
  facet normal -0.649454 -0.760401 0
    outer loop
      vertex 5.68751 -17.4125 2.86102e-06
      vertex 6.90459 -18.452 7.2
      vertex 5.68751 -17.4125 7.2
    endloop
  endfacet
  facet normal -0.649454 -0.760401 -0
    outer loop
      vertex 6.90459 -18.452 7.2
      vertex 5.68751 -17.4125 2.86102e-06
      vertex 6.90459 -18.452 2.86102e-06
    endloop
  endfacet
  facet normal 0.760275 0.649601 0
    outer loop
      vertex 10.7787 -12.3213 7.2
      vertex 10.4729 -11.9634 2.86102e-06
      vertex 10.4729 -11.9634 7.2
    endloop
  endfacet
  facet normal 0.760275 0.649601 0
    outer loop
      vertex 10.4729 -11.9634 2.86102e-06
      vertex 10.7787 -12.3213 7.2
      vertex 10.7787 -12.3213 2.86102e-06
    endloop
  endfacet
  facet normal -0.760413 -0.64944 0
    outer loop
      vertex 5.68751 -17.4125 2.86102e-06
      vertex 4.64803 -16.1954 7.2
      vertex 4.64803 -16.1954 2.86102e-06
    endloop
  endfacet
  facet normal -0.760413 -0.64944 0
    outer loop
      vertex 4.64803 -16.1954 7.2
      vertex 5.68751 -17.4125 2.86102e-06
      vertex 5.68751 -17.4125 7.2
    endloop
  endfacet
  facet normal 0.852714 0.522378 0
    outer loop
      vertex 10.4729 -11.9634 7.2
      vertex 10.227 -11.562 2.86102e-06
      vertex 10.227 -11.562 7.2
    endloop
  endfacet
  facet normal 0.852714 0.522378 0
    outer loop
      vertex 10.227 -11.562 2.86102e-06
      vertex 10.4729 -11.9634 7.2
      vertex 10.4729 -11.9634 2.86102e-06
    endloop
  endfacet
  facet normal -0.85264 -0.522499 0
    outer loop
      vertex 4.64803 -16.1954 2.86102e-06
      vertex 3.81174 -14.8307 7.2
      vertex 3.81174 -14.8307 2.86102e-06
    endloop
  endfacet
  facet normal -0.85264 -0.522499 0
    outer loop
      vertex 3.81174 -14.8307 7.2
      vertex 4.64803 -16.1954 2.86102e-06
      vertex 4.64803 -16.1954 7.2
    endloop
  endfacet
  facet normal 0.923836 0.38279 0
    outer loop
      vertex 10.227 -11.562 7.2
      vertex 10.0468 -11.1271 2.86102e-06
      vertex 10.0468 -11.1271 7.2
    endloop
  endfacet
  facet normal 0.923836 0.38279 0
    outer loop
      vertex 10.0468 -11.1271 2.86102e-06
      vertex 10.227 -11.562 7.2
      vertex 10.227 -11.562 2.86102e-06
    endloop
  endfacet
  facet normal -0.923877 -0.38269 0
    outer loop
      vertex 3.81174 -14.8307 2.86102e-06
      vertex 3.19923 -13.352 7.2
      vertex 3.19923 -13.352 2.86102e-06
    endloop
  endfacet
  facet normal -0.923877 -0.38269 0
    outer loop
      vertex 3.19923 -13.352 7.2
      vertex 3.81174 -14.8307 2.86102e-06
      vertex 3.81174 -14.8307 7.2
    endloop
  endfacet
  facet normal 0.972388 0.233369 0
    outer loop
      vertex 10.0468 -11.1271 7.2
      vertex 9.93693 -10.6693 2.86102e-06
      vertex 9.93693 -10.6693 7.2
    endloop
  endfacet
  facet normal 0.972388 0.233369 0
    outer loop
      vertex 9.93693 -10.6693 2.86102e-06
      vertex 10.0468 -11.1271 7.2
      vertex 10.0468 -11.1271 2.86102e-06
    endloop
  endfacet
  facet normal -0.972371 -0.23344 0
    outer loop
      vertex 3.19923 -13.352 2.86102e-06
      vertex 2.82558 -11.7956 7.2
      vertex 2.82558 -11.7956 2.86102e-06
    endloop
  endfacet
  facet normal -0.972371 -0.23344 0
    outer loop
      vertex 2.82558 -11.7956 7.2
      vertex 3.19923 -13.352 2.86102e-06
      vertex 3.19923 -13.352 7.2
    endloop
  endfacet
  facet normal 0.996918 0.0784491 0
    outer loop
      vertex 9.93693 -10.6693 7.2
      vertex 9.9 -10.2 2.86102e-06
      vertex 9.9 -10.2 7.2
    endloop
  endfacet
  facet normal 0.996918 0.0784491 0
    outer loop
      vertex 9.9 -10.2 2.86102e-06
      vertex 9.93693 -10.6693 7.2
      vertex 9.93693 -10.6693 2.86102e-06
    endloop
  endfacet
  facet normal 0 0 -1
    outer loop
      vertex 16.9 -10 2.86102e-06
      vertex 15.8631 -10.6693 2.86102e-06
      vertex 15.9 -10.2 2.86102e-06
    endloop
  endfacet
  facet normal 0 0 -1
    outer loop
      vertex 17.5307 -19.2883 2.86102e-06
      vertex 15.7532 -11.1271 2.86102e-06
      vertex 15.8631 -10.6693 2.86102e-06
    endloop
  endfacet
  facet normal 0 0 -1
    outer loop
      vertex 17.5307 -19.2883 2.86102e-06
      vertex 15.573 -11.562 2.86102e-06
      vertex 15.7532 -11.1271 2.86102e-06
    endloop
  endfacet
  facet normal 0 0 -1
    outer loop
      vertex 17.5307 -19.2883 2.86102e-06
      vertex 15.3271 -11.9634 2.86102e-06
      vertex 15.573 -11.562 2.86102e-06
    endloop
  endfacet
  facet normal 0 0 -1
    outer loop
      vertex 17.5307 -19.2883 2.86102e-06
      vertex 15.0213 -12.3213 2.86102e-06
      vertex 15.3271 -11.9634 2.86102e-06
    endloop
  endfacet
  facet normal 0 0 -1
    outer loop
      vertex 17.5307 -19.2883 2.86102e-06
      vertex 14.6634 -12.6271 2.86102e-06
      vertex 15.0213 -12.3213 2.86102e-06
    endloop
  endfacet
  facet normal 0 0 -1
    outer loop
      vertex 13.8271 -13.0532 2.86102e-06
      vertex 16.052 -19.9008 2.86102e-06
      vertex 14.4956 -20.2744 2.86102e-06
    endloop
  endfacet
  facet normal 0 0 -1
    outer loop
      vertex 17.5307 -19.2883 2.86102e-06
      vertex 14.262 -12.873 2.86102e-06
      vertex 14.6634 -12.6271 2.86102e-06
    endloop
  endfacet
  facet normal 0 0 -1
    outer loop
      vertex 16.052 -19.9008 2.86102e-06
      vertex 13.8271 -13.0532 2.86102e-06
      vertex 14.262 -12.873 2.86102e-06
    endloop
  endfacet
  facet normal 0 0 -1
    outer loop
      vertex 14.4956 -20.2744 2.86102e-06
      vertex 13.3693 -13.1631 2.86102e-06
      vertex 13.8271 -13.0532 2.86102e-06
    endloop
  endfacet
  facet normal 0 0 -1
    outer loop
      vertex 12.9 -20.4 2.86102e-06
      vertex 13.3693 -13.1631 2.86102e-06
      vertex 14.4956 -20.2744 2.86102e-06
    endloop
  endfacet
  facet normal 0 0 -1
    outer loop
      vertex 12.9 -20.4 2.86102e-06
      vertex 12.9 -13.2 2.86102e-06
      vertex 13.3693 -13.1631 2.86102e-06
    endloop
  endfacet
  facet normal 0 0 -1
    outer loop
      vertex 12.9 -20.4 2.86102e-06
      vertex 12.4307 -13.1631 2.86102e-06
      vertex 12.9 -13.2 2.86102e-06
    endloop
  endfacet
  facet normal 0 0 -1
    outer loop
      vertex 11.3044 -20.2744 2.86102e-06
      vertex 12.4307 -13.1631 2.86102e-06
      vertex 12.9 -20.4 2.86102e-06
    endloop
  endfacet
  facet normal -0 0 -1
    outer loop
      vertex 12.4307 -13.1631 2.86102e-06
      vertex 11.3044 -20.2744 2.86102e-06
      vertex 11.9729 -13.0532 2.86102e-06
    endloop
  endfacet
  facet normal 0 0 -1
    outer loop
      vertex 9.74803 -19.9008 2.86102e-06
      vertex 11.9729 -13.0532 2.86102e-06
      vertex 11.3044 -20.2744 2.86102e-06
    endloop
  endfacet
  facet normal -0 0 -1
    outer loop
      vertex 11.9729 -13.0532 2.86102e-06
      vertex 9.74803 -19.9008 2.86102e-06
      vertex 11.538 -12.873 2.86102e-06
    endloop
  endfacet
  facet normal 0 0 -1
    outer loop
      vertex 8.2693 -19.2883 2.86102e-06
      vertex 11.538 -12.873 2.86102e-06
      vertex 9.74803 -19.9008 2.86102e-06
    endloop
  endfacet
  facet normal -0 0 -1
    outer loop
      vertex 11.538 -12.873 2.86102e-06
      vertex 8.2693 -19.2883 2.86102e-06
      vertex 11.1366 -12.6271 2.86102e-06
    endloop
  endfacet
  facet normal 0 0 -1
    outer loop
      vertex 6.90459 -18.452 2.86102e-06
      vertex 11.1366 -12.6271 2.86102e-06
      vertex 8.2693 -19.2883 2.86102e-06
    endloop
  endfacet
  facet normal -0 0 -1
    outer loop
      vertex 11.1366 -12.6271 2.86102e-06
      vertex 6.90459 -18.452 2.86102e-06
      vertex 10.7787 -12.3213 2.86102e-06
    endloop
  endfacet
  facet normal 0 0 -1
    outer loop
      vertex 5.68751 -17.4125 2.86102e-06
      vertex 10.7787 -12.3213 2.86102e-06
      vertex 6.90459 -18.452 2.86102e-06
    endloop
  endfacet
  facet normal -0 0 -1
    outer loop
      vertex 10.7787 -12.3213 2.86102e-06
      vertex 5.68751 -17.4125 2.86102e-06
      vertex 10.4729 -11.9634 2.86102e-06
    endloop
  endfacet
  facet normal 0 0 -1
    outer loop
      vertex 4.64803 -16.1954 2.86102e-06
      vertex 10.4729 -11.9634 2.86102e-06
      vertex 5.68751 -17.4125 2.86102e-06
    endloop
  endfacet
  facet normal -0 0 -1
    outer loop
      vertex 10.4729 -11.9634 2.86102e-06
      vertex 4.64803 -16.1954 2.86102e-06
      vertex 10.227 -11.562 2.86102e-06
    endloop
  endfacet
  facet normal 0 0 -1
    outer loop
      vertex 3.81174 -14.8307 2.86102e-06
      vertex 10.227 -11.562 2.86102e-06
      vertex 4.64803 -16.1954 2.86102e-06
    endloop
  endfacet
  facet normal -0 0 -1
    outer loop
      vertex 10.227 -11.562 2.86102e-06
      vertex 3.81174 -14.8307 2.86102e-06
      vertex 10.0468 -11.1271 2.86102e-06
    endloop
  endfacet
  facet normal 0 0 -1
    outer loop
      vertex 3.19923 -13.352 2.86102e-06
      vertex 10.0468 -11.1271 2.86102e-06
      vertex 3.81174 -14.8307 2.86102e-06
    endloop
  endfacet
  facet normal -0 0 -1
    outer loop
      vertex 10.0468 -11.1271 2.86102e-06
      vertex 3.19923 -13.352 2.86102e-06
      vertex 9.93693 -10.6693 2.86102e-06
    endloop
  endfacet
  facet normal 0 0 -1
    outer loop
      vertex 2.82558 -11.7956 2.86102e-06
      vertex 9.93693 -10.6693 2.86102e-06
      vertex 3.19923 -13.352 2.86102e-06
    endloop
  endfacet
  facet normal -0 0 -1
    outer loop
      vertex 9.93693 -10.6693 2.86102e-06
      vertex 2.82558 -11.7956 2.86102e-06
      vertex 9.9 -10.2 2.86102e-06
    endloop
  endfacet
  facet normal -0 0 -1
    outer loop
      vertex 9.9 -10.2 2.86102e-06
      vertex 2.82558 -11.7956 2.86102e-06
      vertex 2.7 -10.2 2.86102e-06
    endloop
  endfacet
  facet normal 0 0 -1
    outer loop
      vertex 16.9 -10 2.86102e-06
      vertex 23.1 -10.2 2.86102e-06
      vertex 22.9744 -11.7956 2.86102e-06
    endloop
  endfacet
  facet normal 0 0 -1
    outer loop
      vertex 16.9 -10 2.86102e-06
      vertex 22.9744 -11.7956 2.86102e-06
      vertex 22.6008 -13.352 2.86102e-06
    endloop
  endfacet
  facet normal 0 0 -1
    outer loop
      vertex 16.9 -10 2.86102e-06
      vertex 22.6008 -13.352 2.86102e-06
      vertex 21.9883 -14.8307 2.86102e-06
    endloop
  endfacet
  facet normal 0 0 -1
    outer loop
      vertex 15.8631 -10.6693 2.86102e-06
      vertex 21.9883 -14.8307 2.86102e-06
      vertex 21.152 -16.1954 2.86102e-06
    endloop
  endfacet
  facet normal 0 0 -1
    outer loop
      vertex 15.8631 -10.6693 2.86102e-06
      vertex 21.152 -16.1954 2.86102e-06
      vertex 20.1125 -17.4125 2.86102e-06
    endloop
  endfacet
  facet normal 0 0 -1
    outer loop
      vertex 15.8631 -10.6693 2.86102e-06
      vertex 20.1125 -17.4125 2.86102e-06
      vertex 18.8954 -18.452 2.86102e-06
    endloop
  endfacet
  facet normal 0 0 -1
    outer loop
      vertex 15.8631 -10.6693 2.86102e-06
      vertex 18.8954 -18.452 2.86102e-06
      vertex 17.5307 -19.2883 2.86102e-06
    endloop
  endfacet
  facet normal 0 0 -1
    outer loop
      vertex 23.1 -10.2 2.86102e-06
      vertex 16.9 -10 2.86102e-06
      vertex 23.0843 -10 2.86102e-06
    endloop
  endfacet
  facet normal 0 0 -1
    outer loop
      vertex 14.262 -12.873 2.86102e-06
      vertex 17.5307 -19.2883 2.86102e-06
      vertex 16.052 -19.9008 2.86102e-06
    endloop
  endfacet
  facet normal 0 0 -1
    outer loop
      vertex 21.9883 -14.8307 2.86102e-06
      vertex 15.8631 -10.6693 2.86102e-06
      vertex 16.9 -10 2.86102e-06
    endloop
  endfacet
  facet normal 0 0 -1
    outer loop
      vertex 15.8631 -9.7307 2.86102e-06
      vertex 16.9 -10 2.86102e-06
      vertex 15.9 -10.2 2.86102e-06
    endloop
  endfacet
  facet normal 0 0 -1
    outer loop
      vertex 15.7532 -9.27295 2.86102e-06
      vertex 16.9 -10 2.86102e-06
      vertex 15.8631 -9.7307 2.86102e-06
    endloop
  endfacet
  facet normal 0 0 -1
    outer loop
      vertex 16.9 -10 2.86102e-06
      vertex 15.7532 -9.27295 2.86102e-06
      vertex 16.9 -7.2 2.86102e-06
    endloop
  endfacet
  facet normal 0 0 -1
    outer loop
      vertex 15.573 -8.83803 2.86102e-06
      vertex 16.9 -7.2 2.86102e-06
      vertex 15.7532 -9.27295 2.86102e-06
    endloop
  endfacet
  facet normal 0 0 -1
    outer loop
      vertex 15.3271 -8.43664 2.86102e-06
      vertex 16.9 -7.2 2.86102e-06
      vertex 15.573 -8.83803 2.86102e-06
    endloop
  endfacet
  facet normal 0 0 -1
    outer loop
      vertex 15.0213 -8.07868 2.86102e-06
      vertex 16.9 -7.2 2.86102e-06
      vertex 15.3271 -8.43664 2.86102e-06
    endloop
  endfacet
  facet normal 0 0 -1
    outer loop
      vertex 14.6634 -7.77295 2.86102e-06
      vertex 16.9 -7.2 2.86102e-06
      vertex 15.0213 -8.07868 2.86102e-06
    endloop
  endfacet
  facet normal 0 0 -1
    outer loop
      vertex 14.262 -7.52698 2.86102e-06
      vertex 16.9 -7.2 2.86102e-06
      vertex 14.6634 -7.77295 2.86102e-06
    endloop
  endfacet
  facet normal 0 0 -1
    outer loop
      vertex 13.8271 -7.34683 2.86102e-06
      vertex 16.9 -7.2 2.86102e-06
      vertex 14.262 -7.52698 2.86102e-06
    endloop
  endfacet
  facet normal 0 0 -1
    outer loop
      vertex 13.3693 -7.23693 2.86102e-06
      vertex 16.9 -7.2 2.86102e-06
      vertex 13.8271 -7.34683 2.86102e-06
    endloop
  endfacet
  facet normal -0 0 -1
    outer loop
      vertex 16.9 -7.2 2.86102e-06
      vertex 13.3693 -7.23693 2.86102e-06
      vertex 12.9 -7.2 2.86102e-06
    endloop
  endfacet
  facet normal -0.996917 -0.0784613 0
    outer loop
      vertex 2.82558 -11.7956 2.86102e-06
      vertex 2.7 -10.2 7.2
      vertex 2.7 -10.2 2.86102e-06
    endloop
  endfacet
  facet normal -0.996917 -0.0784613 0
    outer loop
      vertex 2.7 -10.2 7.2
      vertex 2.82558 -11.7956 2.86102e-06
      vertex 2.82558 -11.7956 7.2
    endloop
  endfacet
  facet normal 0 -0.98769 -0.156427
    outer loop
      vertex 0 -1.9 3.6
      vertex 20.5 -1.9832 4.12533
      vertex 0 -1.9832 4.12533
    endloop
  endfacet
  facet normal 0 -0.98769 -0.156427
    outer loop
      vertex 20.5 -1.9832 4.12533
      vertex 0 -1.9 3.6
      vertex 20.5 -1.9 3.6
    endloop
  endfacet
  facet normal 0 0.98769 -0.156427
    outer loop
      vertex 20.5 -5.3 3.6
      vertex 0 -5.2168 4.12533
      vertex 20.5 -5.2168 4.12533
    endloop
  endfacet
  facet normal 0 0.98769 -0.156427
    outer loop
      vertex 0 -5.2168 4.12533
      vertex 20.5 -5.3 3.6
      vertex 0 -5.3 3.6
    endloop
  endfacet
  facet normal 0 -0.156427 0.98769
    outer loop
      vertex 0 -3.07467 1.9832
      vertex 20.5 -3.6 1.9
      vertex 20.5 -3.07467 1.9832
    endloop
  endfacet
  facet normal 0 -0.156427 0.98769
    outer loop
      vertex 20.5 -3.6 1.9
      vertex 0 -3.07467 1.9832
      vertex 0 -3.6 1.9
    endloop
  endfacet
  facet normal 0 -0.707107 -0.707107
    outer loop
      vertex 0 -2.22467 4.59923
      vertex 20.5 -2.41272 4.78728
      vertex 0 -2.41272 4.78728
    endloop
  endfacet
  facet normal 0 -0.707107 -0.707107
    outer loop
      vertex 20.5 -2.41272 4.78728
      vertex 0 -2.22467 4.59923
      vertex 20.5 -2.22467 4.59923
    endloop
  endfacet
  facet normal 0 -0.891002 -0.453999
    outer loop
      vertex 0 -1.9832 4.12533
      vertex 20.5 -2.22467 4.59923
      vertex 0 -2.22467 4.59923
    endloop
  endfacet
  facet normal 0 -0.891002 -0.453999
    outer loop
      vertex 20.5 -2.22467 4.59923
      vertex 0 -1.9832 4.12533
      vertex 20.5 -1.9832 4.12533
    endloop
  endfacet
  facet normal 0 0.98769 0.156427
    outer loop
      vertex 20.5 -5.2168 3.07467
      vertex 0 -5.3 3.6
      vertex 20.5 -5.3 3.6
    endloop
  endfacet
  facet normal 0 0.98769 0.156427
    outer loop
      vertex 0 -5.3 3.6
      vertex 20.5 -5.2168 3.07467
      vertex 0 -5.2168 3.07467
    endloop
  endfacet
  facet normal 0 0.707107 -0.707107
    outer loop
      vertex 20.5 -4.97533 4.59923
      vertex 0 -4.78728 4.78728
      vertex 20.5 -4.78728 4.78728
    endloop
  endfacet
  facet normal 0 0.707107 -0.707107
    outer loop
      vertex 0 -4.78728 4.78728
      vertex 20.5 -4.97533 4.59923
      vertex 0 -4.97533 4.59923
    endloop
  endfacet
  facet normal 0 0.891002 -0.453999
    outer loop
      vertex 20.5 -5.2168 4.12533
      vertex 0 -4.97533 4.59923
      vertex 20.5 -4.97533 4.59923
    endloop
  endfacet
  facet normal 0 0.891002 -0.453999
    outer loop
      vertex 0 -4.97533 4.59923
      vertex 20.5 -5.2168 4.12533
      vertex 0 -5.2168 4.12533
    endloop
  endfacet
  facet normal 0 -0.891002 0.453999
    outer loop
      vertex 0 -2.22467 2.60077
      vertex 20.5 -1.9832 3.07467
      vertex 0 -1.9832 3.07467
    endloop
  endfacet
  facet normal 0 -0.891002 0.453999
    outer loop
      vertex 20.5 -1.9832 3.07467
      vertex 0 -2.22467 2.60077
      vertex 20.5 -2.22467 2.60077
    endloop
  endfacet
  facet normal 0 0.707107 0.707107
    outer loop
      vertex 20.5 -4.59923 2.22467
      vertex 0 -4.97533 2.60077
      vertex 20.5 -4.97533 2.60077
    endloop
  endfacet
  facet normal 0 0.707107 0.707107
    outer loop
      vertex 0 -4.97533 2.60077
      vertex 20.5 -4.59923 2.22467
      vertex 0 -4.59923 2.22467
    endloop
  endfacet
  facet normal -0 0.156427 0.98769
    outer loop
      vertex 0 -3.6 1.9
      vertex 20.5 -4.12533 1.9832
      vertex 20.5 -3.6 1.9
    endloop
  endfacet
  facet normal 0 0.156427 0.98769
    outer loop
      vertex 20.5 -4.12533 1.9832
      vertex 0 -3.6 1.9
      vertex 0 -4.12533 1.9832
    endloop
  endfacet
  facet normal 0 0.891002 0.453999
    outer loop
      vertex 20.5 -4.97533 2.60077
      vertex 0 -5.2168 3.07467
      vertex 20.5 -5.2168 3.07467
    endloop
  endfacet
  facet normal 0 0.891002 0.453999
    outer loop
      vertex 0 -5.2168 3.07467
      vertex 20.5 -4.97533 2.60077
      vertex 0 -4.97533 2.60077
    endloop
  endfacet
  facet normal 0 -0.453999 0.891002
    outer loop
      vertex 0 -2.60077 2.22467
      vertex 20.5 -3.07467 1.9832
      vertex 20.5 -2.60077 2.22467
    endloop
  endfacet
  facet normal 0 -0.453999 0.891002
    outer loop
      vertex 20.5 -3.07467 1.9832
      vertex 0 -2.60077 2.22467
      vertex 0 -3.07467 1.9832
    endloop
  endfacet
  facet normal 0 -0.98769 0.156427
    outer loop
      vertex 0 -1.9832 3.07467
      vertex 20.5 -1.9 3.6
      vertex 0 -1.9 3.6
    endloop
  endfacet
  facet normal 0 -0.98769 0.156427
    outer loop
      vertex 20.5 -1.9 3.6
      vertex 0 -1.9832 3.07467
      vertex 20.5 -1.9832 3.07467
    endloop
  endfacet
  facet normal -0 0.453999 0.891002
    outer loop
      vertex 0 -4.12533 1.9832
      vertex 20.5 -4.59923 2.22467
      vertex 20.5 -4.12533 1.9832
    endloop
  endfacet
  facet normal 0 0.453999 0.891002
    outer loop
      vertex 20.5 -4.59923 2.22467
      vertex 0 -4.12533 1.9832
      vertex 0 -4.59923 2.22467
    endloop
  endfacet
  facet normal 0 -0.707107 0.707107
    outer loop
      vertex 0 -2.60077 2.22467
      vertex 20.5 -2.22467 2.60077
      vertex 0 -2.22467 2.60077
    endloop
  endfacet
  facet normal 0 -0.707107 0.707107
    outer loop
      vertex 20.5 -2.22467 2.60077
      vertex 0 -2.60077 2.22467
      vertex 20.5 -2.60077 2.22467
    endloop
  endfacet
  facet normal 0 -0.707107 -0.707107
    outer loop
      vertex 0 -2.39792 4.80208
      vertex 20.5 -3.6 6.00416
      vertex 0 -3.6 6.00416
    endloop
  endfacet
  facet normal 0 -0.707107 -0.707107
    outer loop
      vertex 20.5 -3.6 6.00416
      vertex 0 -2.39792 4.80208
      vertex 20.5 -2.39792 4.80208
    endloop
  endfacet
  facet normal 0 0.707107 0.707107
    outer loop
      vertex 20.5 -4.78728 4.78728
      vertex 0 -4.80208 4.80208
      vertex 20.5 -4.80208 4.80208
    endloop
  endfacet
  facet normal 0 0.707107 0.707107
    outer loop
      vertex 0 -4.80208 4.80208
      vertex 20.5 -4.78728 4.78728
      vertex 0 -4.78728 4.78728
    endloop
  endfacet
  facet normal 0 -0.707107 0.707107
    outer loop
      vertex 0 -2.41272 4.78728
      vertex 20.5 -2.39792 4.80208
      vertex 0 -2.39792 4.80208
    endloop
  endfacet
  facet normal 0 -0.707107 0.707107
    outer loop
      vertex 20.5 -2.39792 4.80208
      vertex 0 -2.41272 4.78728
      vertex 20.5 -2.41272 4.78728
    endloop
  endfacet
  facet normal 0 0.707107 -0.707107
    outer loop
      vertex 20.5 -4.80208 4.80208
      vertex 0 -3.6 6.00416
      vertex 20.5 -3.6 6.00416
    endloop
  endfacet
  facet normal 0 0.707107 -0.707107
    outer loop
      vertex 0 -3.6 6.00416
      vertex 20.5 -4.80208 4.80208
      vertex 0 -4.80208 4.80208
    endloop
  endfacet
  facet normal 0 -0.5 -0.866026
    outer loop
      vertex 20.5 -3.6 6.83316
      vertex 23.1 -0.799999 5.21658
      vertex 23.1 -3.6 6.83316
    endloop
  endfacet
  facet normal -0 -0.5 -0.866026
    outer loop
      vertex 23.1 -0.799999 5.21658
      vertex 20.5 -3.6 6.83316
      vertex 20.5 -0.799999 5.21658
    endloop
  endfacet
  facet normal 0 1 -0
    outer loop
      vertex 23.1 -6.4 1.98342
      vertex 20.5 -6.4 5.21658
      vertex 23.1 -6.4 5.21658
    endloop
  endfacet
  facet normal 0 1 0
    outer loop
      vertex 20.5 -6.4 5.21658
      vertex 23.1 -6.4 1.98342
      vertex 20.5 -6.4 1.98342
    endloop
  endfacet
  facet normal 0 0.5 -0.866026
    outer loop
      vertex 20.5 -6.4 5.21658
      vertex 23.1 -3.6 6.83316
      vertex 23.1 -6.4 5.21658
    endloop
  endfacet
  facet normal 0 0.5 -0.866026
    outer loop
      vertex 23.1 -3.6 6.83316
      vertex 20.5 -6.4 5.21658
      vertex 20.5 -3.6 6.83316
    endloop
  endfacet
  facet normal 1 0 0
    outer loop
      vertex 20.5 -0.799999 5.21658
      vertex 20.5 -1.9 3.6
      vertex 20.5 -0.799999 1.98342
    endloop
  endfacet
  facet normal 1 0 0
    outer loop
      vertex 20.5 -0.799999 5.21658
      vertex 20.5 -1.9832 4.12533
      vertex 20.5 -1.9 3.6
    endloop
  endfacet
  facet normal 1 0 0
    outer loop
      vertex 20.5 -0.799999 5.21658
      vertex 20.5 -2.22467 4.59923
      vertex 20.5 -1.9832 4.12533
    endloop
  endfacet
  facet normal 1 0 0
    outer loop
      vertex 20.5 -0.799999 5.21658
      vertex 20.5 -2.39792 4.80208
      vertex 20.5 -2.22467 4.59923
    endloop
  endfacet
  facet normal 1 0 0
    outer loop
      vertex 20.5 -3.6 6.83316
      vertex 20.5 -2.39792 4.80208
      vertex 20.5 -0.799999 5.21658
    endloop
  endfacet
  facet normal 1 0 0
    outer loop
      vertex 20.5 -3.6 6.83316
      vertex 20.5 -3.6 6.00416
      vertex 20.5 -2.39792 4.80208
    endloop
  endfacet
  facet normal 1 0 0
    outer loop
      vertex 20.5 -3.6 6.83316
      vertex 20.5 -4.80208 4.80208
      vertex 20.5 -3.6 6.00416
    endloop
  endfacet
  facet normal 1 -0 0
    outer loop
      vertex 20.5 -6.4 5.21658
      vertex 20.5 -4.80208 4.80208
      vertex 20.5 -3.6 6.83316
    endloop
  endfacet
  facet normal 1 0 0
    outer loop
      vertex 20.5 -5.2168 4.12533
      vertex 20.5 -6.4 5.21658
      vertex 20.5 -5.3 3.6
    endloop
  endfacet
  facet normal 1 0 0
    outer loop
      vertex 20.5 -4.97533 4.59923
      vertex 20.5 -6.4 5.21658
      vertex 20.5 -5.2168 4.12533
    endloop
  endfacet
  facet normal 1 0 0
    outer loop
      vertex 20.5 -4.80208 4.80208
      vertex 20.5 -6.4 5.21658
      vertex 20.5 -4.97533 4.59923
    endloop
  endfacet
  facet normal 1 -0 0
    outer loop
      vertex 20.5 -1.9832 3.07467
      vertex 20.5 -0.799999 1.98342
      vertex 20.5 -1.9 3.6
    endloop
  endfacet
  facet normal 1 -0 0
    outer loop
      vertex 20.5 -2.22467 2.60077
      vertex 20.5 -0.799999 1.98342
      vertex 20.5 -1.9832 3.07467
    endloop
  endfacet
  facet normal 1 -0 0
    outer loop
      vertex 20.5 -2.60077 2.22467
      vertex 20.5 -0.799999 1.98342
      vertex 20.5 -2.22467 2.60077
    endloop
  endfacet
  facet normal 1 0 0
    outer loop
      vertex 20.5 -3.6 0.366838
      vertex 20.5 -2.60077 2.22467
      vertex 20.5 -3.07467 1.9832
    endloop
  endfacet
  facet normal 1 0 0
    outer loop
      vertex 20.5 -2.60077 2.22467
      vertex 20.5 -3.6 0.366838
      vertex 20.5 -0.799999 1.98342
    endloop
  endfacet
  facet normal 1 -0 0
    outer loop
      vertex 20.5 -3.6 1.9
      vertex 20.5 -3.6 0.366838
      vertex 20.5 -3.07467 1.9832
    endloop
  endfacet
  facet normal 1 0 0
    outer loop
      vertex 20.5 -4.12533 1.9832
      vertex 20.5 -3.6 0.366838
      vertex 20.5 -3.6 1.9
    endloop
  endfacet
  facet normal 1 0 0
    outer loop
      vertex 20.5 -4.59923 2.22467
      vertex 20.5 -3.6 0.366838
      vertex 20.5 -4.12533 1.9832
    endloop
  endfacet
  facet normal 1 0 0
    outer loop
      vertex 20.5 -6.4 1.98342
      vertex 20.5 -4.59923 2.22467
      vertex 20.5 -4.97533 2.60077
    endloop
  endfacet
  facet normal 1 0 0
    outer loop
      vertex 20.5 -6.4 1.98342
      vertex 20.5 -5.3 3.6
      vertex 20.5 -6.4 5.21658
    endloop
  endfacet
  facet normal 1 0 0
    outer loop
      vertex 20.5 -5.3 3.6
      vertex 20.5 -6.4 1.98342
      vertex 20.5 -5.2168 3.07467
    endloop
  endfacet
  facet normal 1 0 0
    outer loop
      vertex 20.5 -4.59923 2.22467
      vertex 20.5 -6.4 1.98342
      vertex 20.5 -3.6 0.366838
    endloop
  endfacet
  facet normal 1 0 0
    outer loop
      vertex 20.5 -5.2168 3.07467
      vertex 20.5 -6.4 1.98342
      vertex 20.5 -4.97533 2.60077
    endloop
  endfacet
  facet normal 1 0 0
    outer loop
      vertex 20.5 -2.22467 4.59923
      vertex 20.5 -2.39792 4.80208
      vertex 20.5 -2.41272 4.78728
    endloop
  endfacet
  facet normal 1 0 0
    outer loop
      vertex 20.5 -4.78728 4.78728
      vertex 20.5 -4.80208 4.80208
      vertex 20.5 -4.97533 4.59923
    endloop
  endfacet
  facet normal 0 -1 0
    outer loop
      vertex 20.5 -0.799999 1.98342
      vertex 23.1 -0.799999 5.21658
      vertex 20.5 -0.799999 5.21658
    endloop
  endfacet
  facet normal 0 -1 -0
    outer loop
      vertex 23.1 -0.799999 5.21658
      vertex 20.5 -0.799999 1.98342
      vertex 23.1 -0.799999 1.98342
    endloop
  endfacet
  facet normal -0 0.5 0.866025
    outer loop
      vertex 20.5 -3.6 0.366838
      vertex 23.1 -6.4 1.98342
      vertex 23.1 -3.6 0.366838
    endloop
  endfacet
  facet normal 0 0.5 0.866025
    outer loop
      vertex 23.1 -6.4 1.98342
      vertex 20.5 -3.6 0.366838
      vertex 20.5 -6.4 1.98342
    endloop
  endfacet
  facet normal 0 -0.5 0.866025
    outer loop
      vertex 20.5 -0.799999 1.98342
      vertex 23.1 -3.6 0.366838
      vertex 23.1 -0.799999 1.98342
    endloop
  endfacet
  facet normal 0 -0.5 0.866025
    outer loop
      vertex 23.1 -3.6 0.366838
      vertex 20.5 -0.799999 1.98342
      vertex 20.5 -3.6 0.366838
    endloop
  endfacet
endsolid OpenSCAD_Model
