solid OpenSCAD_Model
  facet normal -0.382683 0 0.92388
    outer loop
      vertex 1.5 0 11.5981
      vertex 2.22354 -2 11.8978
      vertex 2.22354 0 11.8978
    endloop
  endfacet
  facet normal -0.382683 0 0.92388
    outer loop
      vertex 2.22354 -2 11.8978
      vertex 1.5 0 11.5981
      vertex 1.5 -2 11.5981
    endloop
  endfacet
  facet normal -0.130585 0 0.991437
    outer loop
      vertex 3 0 12
      vertex 2.28481 -2 11.9058
      vertex 3 -2 12
    endloop
  endfacet
  facet normal -0.130497 -3.19949e-05 0.991449
    outer loop
      vertex 2.22354 0 11.8978
      vertex 2.28481 -2 11.9058
      vertex 3 0 12
    endloop
  endfacet
  facet normal -0.129471 0 0.991583
    outer loop
      vertex 2.28481 -2 11.9058
      vertex 2.22354 0 11.8978
      vertex 2.22354 -2 11.8978
    endloop
  endfacet
  facet normal 0 -1 0
    outer loop
      vertex 1.31608 -2 11.202
      vertex 2.22354 -2 11.8978
      vertex 1.5 -2 11.5981
    endloop
  endfacet
  facet normal 0 -1 -0
    outer loop
      vertex 2.22354 -2 11.8978
      vertex 1.31608 -2 11.202
      vertex 2.28481 -2 11.9058
    endloop
  endfacet
  facet normal 0 -1 0
    outer loop
      vertex 0.878677 -2 11.1213
      vertex 1.31608 -2 11.202
      vertex 1.5 -2 11.5981
    endloop
  endfacet
  facet normal 0 -1 0
    outer loop
      vertex 0.401917 -2 10.5
      vertex 1.31608 -2 11.202
      vertex 0.878677 -2 11.1213
    endloop
  endfacet
  facet normal 0 -1 -0
    outer loop
      vertex 0.401917 -2 10.5
      vertex 0.336881 -2 10.1145
      vertex 1.31608 -2 11.202
    endloop
  endfacet
  facet normal 0 -1 0
    outer loop
      vertex 0.102219 -2 9.77644
      vertex 0.336881 -2 10.1145
      vertex 0.401917 -2 10.5
    endloop
  endfacet
  facet normal 0 -1 0
    outer loop
      vertex 0.336881 -2 10.1145
      vertex 0.102219 -2 9.77644
      vertex 0.0905549 -2 9.68785
    endloop
  endfacet
  facet normal 0 -1 0
    outer loop
      vertex 1.31608 -2 11.202
      vertex 3 -2 12
      vertex 2.28481 -2 11.9058
    endloop
  endfacet
  facet normal 0 -1 -0
    outer loop
      vertex 3 -2 12
      vertex 1.31608 -2 11.202
      vertex 4.85399 -2 7.32256
    endloop
  endfacet
  facet normal 0 -1 0
    outer loop
      vertex 3 -2 12
      vertex 5.75095 -2 7.73219
      vertex 9.58558 -2 12
    endloop
  endfacet
  facet normal 0 -1 0
    outer loop
      vertex 4.85399 -2 7.32256
      vertex 1.31608 -2 11.202
      vertex 0.336881 -2 10.1145
    endloop
  endfacet
  facet normal 0 -1 0
    outer loop
      vertex 6.72698 -2 7.59186
      vertex 9.58558 -2 12
      vertex 5.75095 -2 7.73219
    endloop
  endfacet
  facet normal 0 -1 0
    outer loop
      vertex 0 -2 9
      vertex 0.336881 -2 10.1145
      vertex 0.0905549 -2 9.68785
    endloop
  endfacet
  facet normal 0 -1 -0
    outer loop
      vertex 9.58558 -2 12
      vertex 6.72698 -2 7.59186
      vertex 10.6839 -2 11.202
    endloop
  endfacet
  facet normal 0 -1 -0
    outer loop
      vertex 0.336881 -2 10.1145
      vertex 0 -2 9
      vertex 4.85399 -2 7.32256
    endloop
  endfacet
  facet normal 0 -1 0
    outer loop
      vertex 7.47219 -2 6.94612
      vertex 10.6839 -2 11.202
      vertex 6.72698 -2 7.59186
    endloop
  endfacet
  facet normal 0 -1 -0
    outer loop
      vertex 10.6839 -2 11.202
      vertex 7.47219 -2 6.94612
      vertex 11.6631 -2 10.1145
    endloop
  endfacet
  facet normal 0 -1 0
    outer loop
      vertex 3 -2 12
      vertex 4.85399 -2 7.32256
      vertex 5.75095 -2 7.73219
    endloop
  endfacet
  facet normal 0 -1 0
    outer loop
      vertex 0 -2 9
      vertex 4.32089 -2 6.49303
      vertex 4.85399 -2 7.32256
    endloop
  endfacet
  facet normal 0 -1 0
    outer loop
      vertex 0 -2 9
      vertex 4.32089 -2 5.50697
      vertex 4.32089 -2 6.49303
    endloop
  endfacet
  facet normal 0 -1 0
    outer loop
      vertex 0 -2 3
      vertex 4.32089 -2 5.50697
      vertex 0 -2 9
    endloop
  endfacet
  facet normal 0 -1 -0
    outer loop
      vertex 4.32089 -2 5.50697
      vertex 0 -2 3
      vertex 4.85399 -2 4.67744
    endloop
  endfacet
  facet normal 0 -1 0
    outer loop
      vertex 0.336881 -2 1.8855
      vertex 4.85399 -2 4.67744
      vertex 0 -2 3
    endloop
  endfacet
  facet normal 0 -1 0
    outer loop
      vertex 3 -2 0
      vertex 4.85399 -2 4.67744
      vertex 1.31608 -2 0.797986
    endloop
  endfacet
  facet normal 0 -1 0
    outer loop
      vertex 5.75095 -2 4.26781
      vertex 12.1394 -2 2.71045
      vertex 12.3948 -2 3.15284
    endloop
  endfacet
  facet normal 0 -1 0
    outer loop
      vertex 0.336881 -2 1.8855
      vertex 0 -2 3
      vertex 0.0905527 -2 2.31216
    endloop
  endfacet
  facet normal 0 -1 0
    outer loop
      vertex 4.85399 -2 4.67744
      vertex 0.336881 -2 1.8855
      vertex 1.31608 -2 0.797986
    endloop
  endfacet
  facet normal 0 -1 0
    outer loop
      vertex 9.58558 -2 0
      vertex 5.75095 -2 4.26781
      vertex 3 -2 0
    endloop
  endfacet
  facet normal 0 -1 -0
    outer loop
      vertex 4.85399 -2 4.67744
      vertex 3 -2 0
      vertex 5.75095 -2 4.26781
    endloop
  endfacet
  facet normal -0 -1 0
    outer loop
      vertex 11.6631 -2 1.8855
      vertex 5.75095 -2 4.26781
      vertex 10.6839 -2 0.797986
    endloop
  endfacet
  facet normal 0 -1 0
    outer loop
      vertex 3 -2 0
      vertex 1.31608 -2 0.797986
      vertex 2.28483 -2 0.0941497
    endloop
  endfacet
  facet normal 0 -1 0
    outer loop
      vertex 5.75095 -2 4.26781
      vertex 11.6631 -2 1.8855
      vertex 12.1394 -2 2.71045
    endloop
  endfacet
  facet normal 0 -1 0
    outer loop
      vertex 5.75095 -2 4.26781
      vertex 9.58558 -2 0
      vertex 10.6839 -2 0.797986
    endloop
  endfacet
  facet normal 0 -1 -0
    outer loop
      vertex 11.6631 -2 10.1145
      vertex 7.47219 -2 6.94612
      vertex 12.1394 -2 9.28955
    endloop
  endfacet
  facet normal 0 -1 -0
    outer loop
      vertex 12.1394 -2 9.28955
      vertex 7.47219 -2 6.94612
      vertex 12.3948 -2 8.84716
    endloop
  endfacet
  facet normal 0 -1 -0
    outer loop
      vertex 12.3948 -2 8.84716
      vertex 7.47219 -2 6.94612
      vertex 12.847 -2 7.45538
    endloop
  endfacet
  facet normal 0 -1 0
    outer loop
      vertex 7.75 -2 6
      vertex 12.847 -2 7.45538
      vertex 7.47219 -2 6.94612
    endloop
  endfacet
  facet normal 0 -1 0
    outer loop
      vertex 7.75 -2 6
      vertex 13 -2 6
      vertex 12.847 -2 7.45538
    endloop
  endfacet
  facet normal 0 -1 0
    outer loop
      vertex 12.847 -2 4.54462
      vertex 7.75 -2 6
      vertex 7.47219 -2 5.05388
    endloop
  endfacet
  facet normal 0 -1 0
    outer loop
      vertex 7.75 -2 6
      vertex 12.847 -2 4.54462
      vertex 13 -2 6
    endloop
  endfacet
  facet normal 0 -1 0
    outer loop
      vertex 12.3948 -2 3.15284
      vertex 7.47219 -2 5.05388
      vertex 6.72698 -2 4.40814
    endloop
  endfacet
  facet normal 0 -1 0
    outer loop
      vertex 12.3948 -2 3.15284
      vertex 6.72698 -2 4.40814
      vertex 5.75095 -2 4.26781
    endloop
  endfacet
  facet normal 0 -1 0
    outer loop
      vertex 7.47219 -2 5.05388
      vertex 12.3948 -2 3.15284
      vertex 12.847 -2 4.54462
    endloop
  endfacet
  facet normal 0 -1 0
    outer loop
      vertex 0.102219 -2 2.22354
      vertex 0.336881 -2 1.8855
      vertex 0.0905527 -2 2.31216
    endloop
  endfacet
  facet normal 0 -1 0
    outer loop
      vertex 0.401917 -2 1.5
      vertex 0.336881 -2 1.8855
      vertex 0.102219 -2 2.22354
    endloop
  endfacet
  facet normal 0 -1 0
    outer loop
      vertex 1.31608 -2 0.797986
      vertex 0.401917 -2 1.5
      vertex 0.878677 -2 0.878677
    endloop
  endfacet
  facet normal 0 -1 0
    outer loop
      vertex 0.401917 -2 1.5
      vertex 1.31608 -2 0.797986
      vertex 0.336881 -2 1.8855
    endloop
  endfacet
  facet normal 0 -1 0
    outer loop
      vertex 1.5 -2 0.401917
      vertex 1.31608 -2 0.797986
      vertex 0.878677 -2 0.878677
    endloop
  endfacet
  facet normal 0 -1 0
    outer loop
      vertex 2.22354 -2 0.102219
      vertex 1.31608 -2 0.797986
      vertex 1.5 -2 0.401917
    endloop
  endfacet
  facet normal 0 -1 0
    outer loop
      vertex 1.31608 -2 0.797986
      vertex 2.22354 -2 0.102219
      vertex 2.28483 -2 0.0941497
    endloop
  endfacet
  facet normal 0 -1 0
    outer loop
      vertex 10.6839 -2 11.202
      vertex 12.1394 -2 12
      vertex 9.58558 -2 12
    endloop
  endfacet
  facet normal 0 -1 0
    outer loop
      vertex 11.6631 -2 10.1145
      vertex 12.1394 -2 12
      vertex 10.6839 -2 11.202
    endloop
  endfacet
  facet normal 0 -1 -0
    outer loop
      vertex 12.1394 -2 12
      vertex 11.6631 -2 10.1145
      vertex 12.1394 -2 9.28955
    endloop
  endfacet
  facet normal 0 -1 0
    outer loop
      vertex 11.6631 -2 1.8855
      vertex 12.1394 -2 0
      vertex 12.1394 -2 2.71045
    endloop
  endfacet
  facet normal 0 -1 0
    outer loop
      vertex 10.6839 -2 0.797986
      vertex 12.1394 -2 0
      vertex 11.6631 -2 1.8855
    endloop
  endfacet
  facet normal 0 -1 0
    outer loop
      vertex 12.1394 -2 0
      vertex 10.6839 -2 0.797986
      vertex 9.58558 -2 0
    endloop
  endfacet
  facet normal 0 0 1
    outer loop
      vertex 14.7322 -2.76777 12
      vertex 13.233 -4.09465 12
      vertex 13.9747 -4.7246 12
    endloop
  endfacet
  facet normal 0 0 1
    outer loop
      vertex 12.1394 -2 12
      vertex 14 -1 12
      vertex 14.1903 -0.0432911 12
    endloop
  endfacet
  facet normal 0 0 1
    outer loop
      vertex 14.1903 -1.95671 12
      vertex 12.6441 -3.31999 12
      vertex 13.233 -4.09465 12
    endloop
  endfacet
  facet normal 0 0 1
    outer loop
      vertex 14.1903 -1.95671 12
      vertex 12.2356 -2.43686 12
      vertex 12.6441 -3.31999 12
    endloop
  endfacet
  facet normal 0 0 1
    outer loop
      vertex 9.58558 -2 12
      vertex 14.1903 -0.0432911 12
      vertex 14.2192 0 12
    endloop
  endfacet
  facet normal 0 0 1
    outer loop
      vertex 14.1903 -1.95671 12
      vertex 12.1394 -2 12
      vertex 12.2356 -2.43686 12
    endloop
  endfacet
  facet normal 0 0 1
    outer loop
      vertex 14.1903 -0.0432911 12
      vertex 9.58558 -2 12
      vertex 12.1394 -2 12
    endloop
  endfacet
  facet normal -0 0 1
    outer loop
      vertex 3 0 12
      vertex 9.58558 -2 12
      vertex 14.2192 0 12
    endloop
  endfacet
  facet normal 0 0 1
    outer loop
      vertex 9.58558 -2 12
      vertex 3 0 12
      vertex 3 -2 12
    endloop
  endfacet
  facet normal 0 0 1
    outer loop
      vertex 19 -1 12
      vertex 21 -1 12
      vertex 20.8948 -0.0326328 12
    endloop
  endfacet
  facet normal 0 0 1
    outer loop
      vertex 19 -1 12
      vertex 20.8948 -0.0326328 12
      vertex 20.8838 0 12
    endloop
  endfacet
  facet normal 0 0 1
    outer loop
      vertex 21 -1 12
      vertex 19 -1 12
      vertex 20.8948 -1.96737 12
    endloop
  endfacet
  facet normal -0 0 1
    outer loop
      vertex 18.8097 -1.95671 12
      vertex 20.8948 -1.96737 12
      vertex 19 -1 12
    endloop
  endfacet
  facet normal 0 0 1
    outer loop
      vertex 20.5841 -2.8895 12
      vertex 18.8097 -1.95671 12
      vertex 20.0824 -3.72328 12
    endloop
  endfacet
  facet normal 0 0 1
    outer loop
      vertex 20.8948 -1.96737 12
      vertex 18.8097 -1.95671 12
      vertex 20.5841 -2.8895 12
    endloop
  endfacet
  facet normal 0 0 1
    outer loop
      vertex 20.8838 0 12
      vertex 18.8097 -0.0432911 12
      vertex 19 -1 12
    endloop
  endfacet
  facet normal 0 -0 1
    outer loop
      vertex 18.8097 -0.0432911 12
      vertex 20.8838 0 12
      vertex 18.7808 0 12
    endloop
  endfacet
  facet normal -0 0 1
    outer loop
      vertex 18.2678 -2.76777 12
      vertex 20.0824 -3.72328 12
      vertex 18.8097 -1.95671 12
    endloop
  endfacet
  facet normal 0 0 1
    outer loop
      vertex 20.0824 -3.72328 12
      vertex 18.2678 -2.76777 12
      vertex 19.4132 -4.42973 12
    endloop
  endfacet
  facet normal 0 0 1
    outer loop
      vertex 19.4132 -4.42973 12
      vertex 18.2678 -2.76777 12
      vertex 18.6078 -4.9758 12
    endloop
  endfacet
  facet normal -0 0 1
    outer loop
      vertex 17.4567 -3.3097 12
      vertex 18.6078 -4.9758 12
      vertex 18.2678 -2.76777 12
    endloop
  endfacet
  facet normal 0 0 1
    outer loop
      vertex 18.6078 -4.9758 12
      vertex 17.4567 -3.3097 12
      vertex 17.7039 -5.33597 12
    endloop
  endfacet
  facet normal -0 0 1
    outer loop
      vertex 16.5 -3.5 12
      vertex 17.7039 -5.33597 12
      vertex 17.4567 -3.3097 12
    endloop
  endfacet
  facet normal 0 0 1
    outer loop
      vertex 17.7039 -5.33597 12
      vertex 16.5 -3.5 12
      vertex 16.7436 -5.4934 12
    endloop
  endfacet
  facet normal 0 0 1
    outer loop
      vertex 16.5 -3.5 12
      vertex 15.772 -5.44072 12
      vertex 16.7436 -5.4934 12
    endloop
  endfacet
  facet normal 0 0 1
    outer loop
      vertex 15.5433 -3.3097 12
      vertex 15.772 -5.44072 12
      vertex 16.5 -3.5 12
    endloop
  endfacet
  facet normal 0 0 1
    outer loop
      vertex 15.5433 -3.3097 12
      vertex 14.8344 -5.1804 12
      vertex 15.772 -5.44072 12
    endloop
  endfacet
  facet normal 0 0 1
    outer loop
      vertex 13.9747 -4.7246 12
      vertex 15.5433 -3.3097 12
      vertex 14.7322 -2.76777 12
    endloop
  endfacet
  facet normal 0 0 1
    outer loop
      vertex 13.233 -4.09465 12
      vertex 14.7322 -2.76777 12
      vertex 14.1903 -1.95671 12
    endloop
  endfacet
  facet normal 0 0 1
    outer loop
      vertex 15.5433 -3.3097 12
      vertex 13.9747 -4.7246 12
      vertex 14.8344 -5.1804 12
    endloop
  endfacet
  facet normal 0 0 1
    outer loop
      vertex 12.1394 -2 12
      vertex 14.1903 -1.95671 12
      vertex 14 -1 12
    endloop
  endfacet
  facet normal -0.793352 0 -0.608763
    outer loop
      vertex 0.878677 -2 0.878677
      vertex 0.401917 0 1.5
      vertex 0.878677 0 0.878677
    endloop
  endfacet
  facet normal -0.793352 -0 -0.608763
    outer loop
      vertex 0.401917 0 1.5
      vertex 0.878677 -2 0.878677
      vertex 0.401917 -2 1.5
    endloop
  endfacet
  facet normal 0 0 -1
    outer loop
      vertex 20.8948 -1.96737 0
      vertex 18.8097 -1.95671 0
      vertex 19 -1 0
    endloop
  endfacet
  facet normal 0 0 -1
    outer loop
      vertex 18.2678 -2.76777 0
      vertex 19.4132 -4.42973 0
      vertex 18.6078 -4.9758 0
    endloop
  endfacet
  facet normal 0 0 -1
    outer loop
      vertex 20.0824 -3.72328 0
      vertex 18.2678 -2.76777 0
      vertex 18.8097 -1.95671 0
    endloop
  endfacet
  facet normal 0 0 -1
    outer loop
      vertex 17.4567 -3.3097 0
      vertex 18.6078 -4.9758 0
      vertex 17.7039 -5.33597 0
    endloop
  endfacet
  facet normal 0 0 -1
    outer loop
      vertex 18.6078 -4.9758 0
      vertex 17.4567 -3.3097 0
      vertex 18.2678 -2.76777 0
    endloop
  endfacet
  facet normal 0 0 -1
    outer loop
      vertex 16.5 -3.5 0
      vertex 17.7039 -5.33597 0
      vertex 16.7436 -5.4934 0
    endloop
  endfacet
  facet normal 0 0 -1
    outer loop
      vertex 17.7039 -5.33597 0
      vertex 16.5 -3.5 0
      vertex 17.4567 -3.3097 0
    endloop
  endfacet
  facet normal 0 0 -1
    outer loop
      vertex 15.772 -5.44072 0
      vertex 16.5 -3.5 0
      vertex 16.7436 -5.4934 0
    endloop
  endfacet
  facet normal 0 0 -1
    outer loop
      vertex 15.772 -5.44072 0
      vertex 15.5433 -3.3097 0
      vertex 16.5 -3.5 0
    endloop
  endfacet
  facet normal 0 0 -1
    outer loop
      vertex 14.8344 -5.1804 0
      vertex 15.5433 -3.3097 0
      vertex 15.772 -5.44072 0
    endloop
  endfacet
  facet normal 0 0 -1
    outer loop
      vertex 13.9747 -4.7246 0
      vertex 15.5433 -3.3097 0
      vertex 14.8344 -5.1804 0
    endloop
  endfacet
  facet normal -0 0 -1
    outer loop
      vertex 15.5433 -3.3097 0
      vertex 13.9747 -4.7246 0
      vertex 14.7322 -2.76777 0
    endloop
  endfacet
  facet normal 0 0 -1
    outer loop
      vertex 12.6441 -3.31999 0
      vertex 14.7322 -2.76777 0
      vertex 13.233 -4.09465 0
    endloop
  endfacet
  facet normal 0 0 -1
    outer loop
      vertex 13.233 -4.09465 0
      vertex 14.7322 -2.76777 0
      vertex 13.9747 -4.7246 0
    endloop
  endfacet
  facet normal 0 0 -1
    outer loop
      vertex 19 -1 0
      vertex 21 -1 0
      vertex 20.8948 -1.96737 0
    endloop
  endfacet
  facet normal 0 0 -1
    outer loop
      vertex 21 -1 0
      vertex 19 -1 0
      vertex 20.8948 -0.0326328 0
    endloop
  endfacet
  facet normal 0 0 -1
    outer loop
      vertex 18.8097 -1.95671 0
      vertex 20.8948 -1.96737 0
      vertex 20.5841 -2.8895 0
    endloop
  endfacet
  facet normal 0 0 -1
    outer loop
      vertex 18.8097 -1.95671 0
      vertex 20.5841 -2.8895 0
      vertex 20.0824 -3.72328 0
    endloop
  endfacet
  facet normal 0 0 -1
    outer loop
      vertex 18.2678 -2.76777 0
      vertex 20.0824 -3.72328 0
      vertex 19.4132 -4.42973 0
    endloop
  endfacet
  facet normal -0 0 -1
    outer loop
      vertex 20.8948 -0.0326328 0
      vertex 19 -1 0
      vertex 20.8838 0 0
    endloop
  endfacet
  facet normal 0 0 -1
    outer loop
      vertex 18.8097 -0.0432911 0
      vertex 20.8838 0 0
      vertex 19 -1 0
    endloop
  endfacet
  facet normal -0 0 -1
    outer loop
      vertex 20.8838 0 0
      vertex 18.8097 -0.0432911 0
      vertex 18.7808 0 0
    endloop
  endfacet
  facet normal -0 0 -1
    outer loop
      vertex 14.7322 -2.76777 0
      vertex 12.6441 -3.31999 0
      vertex 14.1903 -1.95671 0
    endloop
  endfacet
  facet normal 0 0 -1
    outer loop
      vertex 12.2356 -2.43686 0
      vertex 14.1903 -1.95671 0
      vertex 12.6441 -3.31999 0
    endloop
  endfacet
  facet normal 0 0 -1
    outer loop
      vertex 12.1394 -2 0
      vertex 14.1903 -1.95671 0
      vertex 12.2356 -2.43686 0
    endloop
  endfacet
  facet normal -0 0 -1
    outer loop
      vertex 14.1903 -1.95671 0
      vertex 12.1394 -2 0
      vertex 14 -1 0
    endloop
  endfacet
  facet normal -0 0 -1
    outer loop
      vertex 14 -1 0
      vertex 12.1394 -2 0
      vertex 14.1903 -0.0432911 0
    endloop
  endfacet
  facet normal 0 0 -1
    outer loop
      vertex 9.58558 -2 0
      vertex 14.1903 -0.0432911 0
      vertex 12.1394 -2 0
    endloop
  endfacet
  facet normal -0 0 -1
    outer loop
      vertex 14.1903 -0.0432911 0
      vertex 9.58558 -2 0
      vertex 14.2192 0 0
    endloop
  endfacet
  facet normal 0 0 -1
    outer loop
      vertex 3 0 0
      vertex 9.58558 -2 0
      vertex 3 -2 0
    endloop
  endfacet
  facet normal 0 0 -1
    outer loop
      vertex 9.58558 -2 0
      vertex 3 0 0
      vertex 14.2192 0 0
    endloop
  endfacet
  facet normal -1 0 0
    outer loop
      vertex 0 -2 3
      vertex 0 0 9
      vertex 0 0 3
    endloop
  endfacet
  facet normal -1 -0 0
    outer loop
      vertex 0 0 9
      vertex 0 -2 3
      vertex 0 -2 9
    endloop
  endfacet
  facet normal -0.991445 0 0.130523
    outer loop
      vertex 0.0905549 -2 9.68785
      vertex 0 0 9
      vertex 0 -2 9
    endloop
  endfacet
  facet normal -0.991445 5.69882e-07 0.130525
    outer loop
      vertex 0 0 9
      vertex 0.0905549 -2 9.68785
      vertex 0.102219 0 9.77644
    endloop
  endfacet
  facet normal -0.991443 0 0.130537
    outer loop
      vertex 0.102219 0 9.77644
      vertex 0.0905549 -2 9.68785
      vertex 0.102219 -2 9.77644
    endloop
  endfacet
  facet normal -0.608795 0 0.793327
    outer loop
      vertex 0.878677 0 11.1213
      vertex 1.5 -2 11.5981
      vertex 1.5 0 11.5981
    endloop
  endfacet
  facet normal -0.608795 0 0.793327
    outer loop
      vertex 1.5 -2 11.5981
      vertex 0.878677 0 11.1213
      vertex 0.878677 -2 11.1213
    endloop
  endfacet
  facet normal -0.13052 0 -0.991446
    outer loop
      vertex 2.28483 -2 0.0941497
      vertex 3 0 0
      vertex 3 -2 0
    endloop
  endfacet
  facet normal -0.130531 -0 -0.991444
    outer loop
      vertex 2.22354 0 0.102219
      vertex 2.28483 -2 0.0941497
      vertex 2.22354 -2 0.102219
    endloop
  endfacet
  facet normal -0.130521 3.10389e-07 -0.991446
    outer loop
      vertex 2.28483 -2 0.0941497
      vertex 2.22354 0 0.102219
      vertex 3 0 0
    endloop
  endfacet
  facet normal -0.382681 0 -0.92388
    outer loop
      vertex 1.5 -2 0.401917
      vertex 2.22354 0 0.102219
      vertex 2.22354 -2 0.102219
    endloop
  endfacet
  facet normal -0.382681 0 -0.92388
    outer loop
      vertex 2.22354 0 0.102219
      vertex 1.5 -2 0.401917
      vertex 1.5 0 0.401917
    endloop
  endfacet
  facet normal -0.92388 0 -0.382681
    outer loop
      vertex 0.401917 -2 1.5
      vertex 0.102219 0 2.22354
      vertex 0.401917 0 1.5
    endloop
  endfacet
  facet normal -0.92388 -0 -0.382681
    outer loop
      vertex 0.102219 0 2.22354
      vertex 0.401917 -2 1.5
      vertex 0.102219 -2 2.22354
    endloop
  endfacet
  facet normal 0 1 -0
    outer loop
      vertex 6.72698 0 7.59186
      vertex 3 0 12
      vertex 14.2192 0 12
    endloop
  endfacet
  facet normal -0 1 -0
    outer loop
      vertex 5.75095 0 7.73219
      vertex 3 0 12
      vertex 6.72698 0 7.59186
    endloop
  endfacet
  facet normal 0 1 -0
    outer loop
      vertex 4.85399 0 7.32256
      vertex 3 0 12
      vertex 5.75095 0 7.73219
    endloop
  endfacet
  facet normal 0 1 0
    outer loop
      vertex 2.22354 0 11.8978
      vertex 4.85399 0 7.32256
      vertex 1.5 0 11.5981
    endloop
  endfacet
  facet normal 0 1 0
    outer loop
      vertex 1.5 0 11.5981
      vertex 4.85399 0 7.32256
      vertex 0.878677 0 11.1213
    endloop
  endfacet
  facet normal 0 1 0
    outer loop
      vertex 0.878677 0 11.1213
      vertex 4.85399 0 7.32256
      vertex 0.401917 0 10.5
    endloop
  endfacet
  facet normal 0 1 0
    outer loop
      vertex 0.401917 0 10.5
      vertex 4.85399 0 7.32256
      vertex 0.102219 0 9.77644
    endloop
  endfacet
  facet normal 0 1 0
    outer loop
      vertex 3 0 12
      vertex 4.85399 0 7.32256
      vertex 2.22354 0 11.8978
    endloop
  endfacet
  facet normal 0 1 0
    outer loop
      vertex 14.2192 0 12
      vertex 7.47219 0 6.94612
      vertex 6.72698 0 7.59186
    endloop
  endfacet
  facet normal 0 1 0
    outer loop
      vertex 14.2192 0 12
      vertex 7.75 0 6
      vertex 7.47219 0 6.94612
    endloop
  endfacet
  facet normal 0 1 -0
    outer loop
      vertex 14.2192 0 0
      vertex 7.75 0 6
      vertex 14.2192 0 12
    endloop
  endfacet
  facet normal 0 1 0
    outer loop
      vertex 3 0 0
      vertex 5.75095 0 4.26781
      vertex 6.72698 0 4.40814
    endloop
  endfacet
  facet normal 0 1 0
    outer loop
      vertex 5.75095 0 4.26781
      vertex 3 0 0
      vertex 0 0 3
    endloop
  endfacet
  facet normal 0 1 0
    outer loop
      vertex 0 0 3
      vertex 3 0 0
      vertex 0.102219 0 2.22354
    endloop
  endfacet
  facet normal 0 1 0
    outer loop
      vertex 0.102219 0 2.22354
      vertex 3 0 0
      vertex 0.401917 0 1.5
    endloop
  endfacet
  facet normal 0 1 0
    outer loop
      vertex 0.401917 0 1.5
      vertex 3 0 0
      vertex 0.878677 0 0.878677
    endloop
  endfacet
  facet normal 0 1 0
    outer loop
      vertex 0.878677 0 0.878677
      vertex 3 0 0
      vertex 1.5 0 0.401917
    endloop
  endfacet
  facet normal 0 1 0
    outer loop
      vertex 14.2192 0 0
      vertex 6.72698 0 4.40814
      vertex 7.47219 0 5.05388
    endloop
  endfacet
  facet normal 0 1 0
    outer loop
      vertex 7.75 0 6
      vertex 14.2192 0 0
      vertex 7.47219 0 5.05388
    endloop
  endfacet
  facet normal 0 1 0
    outer loop
      vertex 6.72698 0 4.40814
      vertex 14.2192 0 0
      vertex 3 0 0
    endloop
  endfacet
  facet normal 0 1 0
    outer loop
      vertex 1.5 0 0.401917
      vertex 3 0 0
      vertex 2.22354 0 0.102219
    endloop
  endfacet
  facet normal 0 1 0
    outer loop
      vertex 0.102219 0 9.77644
      vertex 4.85399 0 7.32256
      vertex 0 0 9
    endloop
  endfacet
  facet normal 0 1 -0
    outer loop
      vertex 4.32089 0 6.49303
      vertex 0 0 9
      vertex 4.85399 0 7.32256
    endloop
  endfacet
  facet normal 0 1 -0
    outer loop
      vertex 4.32089 0 5.50697
      vertex 0 0 9
      vertex 4.32089 0 6.49303
    endloop
  endfacet
  facet normal 0 1 0
    outer loop
      vertex 0 0 3
      vertex 4.32089 0 5.50697
      vertex 4.85399 0 4.67744
    endloop
  endfacet
  facet normal 0 1 0
    outer loop
      vertex 4.32089 0 5.50697
      vertex 0 0 3
      vertex 0 0 9
    endloop
  endfacet
  facet normal 0 1 0
    outer loop
      vertex 0 0 3
      vertex 4.85399 0 4.67744
      vertex 5.75095 0 4.26781
    endloop
  endfacet
  facet normal 0 1 -0
    outer loop
      vertex 20.8838 0 0
      vertex 18.7808 0 12
      vertex 20.8838 0 12
    endloop
  endfacet
  facet normal 0 1 0
    outer loop
      vertex 18.7808 0 12
      vertex 20.8838 0 0
      vertex 18.7808 0 0
    endloop
  endfacet
  facet normal -0.991446 0 -0.130518
    outer loop
      vertex 0.0905527 -2 2.31216
      vertex 0.102219 0 2.22354
      vertex 0.102219 -2 2.22354
    endloop
  endfacet
  facet normal -0.991446 -1.48426e-07 -0.130521
    outer loop
      vertex 0.102219 0 2.22354
      vertex 0.0905527 -2 2.31216
      vertex 0 0 3
    endloop
  endfacet
  facet normal -0.991445 -0 -0.130522
    outer loop
      vertex 0 0 3
      vertex 0.0905527 -2 2.31216
      vertex 0 -2 3
    endloop
  endfacet
  facet normal -0.923884 0 0.382672
    outer loop
      vertex 0.102219 -2 9.77644
      vertex 0.401917 0 10.5
      vertex 0.102219 0 9.77644
    endloop
  endfacet
  facet normal -0.923884 0 0.382672
    outer loop
      vertex 0.401917 0 10.5
      vertex 0.102219 -2 9.77644
      vertex 0.401917 -2 10.5
    endloop
  endfacet
  facet normal -0.608763 0 -0.793352
    outer loop
      vertex 0.878677 -2 0.878677
      vertex 1.5 0 0.401917
      vertex 1.5 -2 0.401917
    endloop
  endfacet
  facet normal -0.608763 0 -0.793352
    outer loop
      vertex 1.5 0 0.401917
      vertex 0.878677 -2 0.878677
      vertex 0.878677 0 0.878677
    endloop
  endfacet
  facet normal -0.793341 0 0.608777
    outer loop
      vertex 0.401917 -2 10.5
      vertex 0.878677 0 11.1213
      vertex 0.401917 0 10.5
    endloop
  endfacet
  facet normal -0.793341 0 0.608777
    outer loop
      vertex 0.878677 0 11.1213
      vertex 0.401917 -2 10.5
      vertex 0.878677 -2 11.1213
    endloop
  endfacet
  facet normal 0.994139 0.108111 0
    outer loop
      vertex 21 -1 12
      vertex 20.8948 -0.0326328 0
      vertex 20.8948 -0.0326328 12
    endloop
  endfacet
  facet normal 0.994139 0.108111 0
    outer loop
      vertex 20.8948 -0.0326328 0
      vertex 21 -1 12
      vertex 21 -1 0
    endloop
  endfacet
  facet normal 0.161779 -0.986827 0
    outer loop
      vertex 16.7436 -5.4934 0
      vertex 17.7039 -5.33597 12
      vertex 16.7436 -5.4934 12
    endloop
  endfacet
  facet normal 0.161779 -0.986827 0
    outer loop
      vertex 17.7039 -5.33597 12
      vertex 16.7436 -5.4934 0
      vertex 17.7039 -5.33597 0
    endloop
  endfacet
  facet normal 0.947612 0.319425 0
    outer loop
      vertex 20.8948 -0.0326328 12
      vertex 20.8838 0 0
      vertex 20.8838 0 12
    endloop
  endfacet
  facet normal 0.947612 0.319425 0
    outer loop
      vertex 20.8838 0 0
      vertex 20.8948 -0.0326328 12
      vertex 20.8948 -0.0326328 0
    endloop
  endfacet
  facet normal 0.994139 -0.108111 0
    outer loop
      vertex 20.8948 -1.96737 12
      vertex 21 -1 0
      vertex 21 -1 12
    endloop
  endfacet
  facet normal 0.994139 -0.108111 0
    outer loop
      vertex 21 -1 0
      vertex 20.8948 -1.96737 12
      vertex 20.8948 -1.96737 0
    endloop
  endfacet
  facet normal 0.947654 -0.3193 0
    outer loop
      vertex 20.5841 -2.8895 12
      vertex 20.8948 -1.96737 0
      vertex 20.8948 -1.96737 12
    endloop
  endfacet
  facet normal 0.947654 -0.3193 0
    outer loop
      vertex 20.8948 -1.96737 0
      vertex 20.5841 -2.8895 12
      vertex 20.5841 -2.8895 0
    endloop
  endfacet
  facet normal -0.796084 -0.605186 0
    outer loop
      vertex 13.233 -4.09465 0
      vertex 12.6441 -3.31999 4.70739
      vertex 12.6441 -3.31999 0
    endloop
  endfacet
  facet normal -0.796072 -0.605202 3.93564e-06
    outer loop
      vertex 12.6441 -3.31999 4.70739
      vertex 13.233 -4.09465 0
      vertex 12.7447 -3.45231 5.87419
    endloop
  endfacet
  facet normal -0.795272 -0.606252 0.000185304
    outer loop
      vertex 12.7447 -3.45231 5.87419
      vertex 13.233 -4.09465 0
      vertex 12.7556 -3.46657 6
    endloop
  endfacet
  facet normal -0.796072 -0.605202 -3.93564e-06
    outer loop
      vertex 13.233 -4.09465 12
      vertex 12.6441 -3.31999 7.29261
      vertex 12.7447 -3.45231 6.12581
    endloop
  endfacet
  facet normal -0.795272 -0.606252 -0.000185304
    outer loop
      vertex 13.233 -4.09465 12
      vertex 12.7447 -3.45231 6.12581
      vertex 12.7556 -3.46657 6
    endloop
  endfacet
  facet normal -0.796126 -0.605131 -0
    outer loop
      vertex 13.233 -4.09465 12
      vertex 12.7556 -3.46657 6
      vertex 13.233 -4.09465 0
    endloop
  endfacet
  facet normal -0.796084 -0.605186 0
    outer loop
      vertex 12.6441 -3.31999 7.29261
      vertex 13.233 -4.09465 12
      vertex 12.6441 -3.31999 12
    endloop
  endfacet
  facet normal 0.725988 -0.687708 0
    outer loop
      vertex 19.4132 -4.42973 12
      vertex 20.0824 -3.72328 0
      vertex 20.0824 -3.72328 12
    endloop
  endfacet
  facet normal 0.725988 -0.687708 0
    outer loop
      vertex 20.0824 -3.72328 0
      vertex 19.4132 -4.42973 12
      vertex 19.4132 -4.42973 0
    endloop
  endfacet
  facet normal -0.647353 -0.76219 0
    outer loop
      vertex 13.233 -4.09465 0
      vertex 13.9747 -4.7246 12
      vertex 13.233 -4.09465 12
    endloop
  endfacet
  facet normal -0.647353 -0.76219 -0
    outer loop
      vertex 13.9747 -4.7246 12
      vertex 13.233 -4.09465 0
      vertex 13.9747 -4.7246 0
    endloop
  endfacet
  facet normal -0.907715 -0.419586 8.35067e-05
    outer loop
      vertex 12.6441 -3.31999 12
      vertex 12.2356 -2.43686 8.97818
      vertex 12.3053 -2.58768 8.80732
    endloop
  endfacet
  facet normal -0.907574 -0.419892 -1.58985e-06
    outer loop
      vertex 12.6441 -3.31999 12
      vertex 12.3053 -2.58768 8.80732
      vertex 12.6102 -3.2467 7.51546
    endloop
  endfacet
  facet normal -0.907651 -0.419726 1.70039e-06
    outer loop
      vertex 12.6441 -3.31999 12
      vertex 12.6102 -3.2467 7.51546
      vertex 12.635 -3.30033 7.41032
    endloop
  endfacet
  facet normal -0.907607 -0.419822 0
    outer loop
      vertex 12.2356 -2.43686 8.97818
      vertex 12.6441 -3.31999 12
      vertex 12.2356 -2.43686 12
    endloop
  endfacet
  facet normal -0.907499 -0.420053 -0
    outer loop
      vertex 12.6441 -3.31999 12
      vertex 12.635 -3.30033 7.41032
      vertex 12.6441 -3.31999 7.29261
    endloop
  endfacet
  facet normal -0.907607 -0.419822 0
    outer loop
      vertex 12.6441 -3.31999 0
      vertex 12.2356 -2.43686 3.02182
      vertex 12.2356 -2.43686 0
    endloop
  endfacet
  facet normal -0.907715 -0.419586 -8.35067e-05
    outer loop
      vertex 12.2356 -2.43686 3.02182
      vertex 12.6441 -3.31999 0
      vertex 12.3053 -2.58768 3.19268
    endloop
  endfacet
  facet normal -0.907574 -0.419892 1.58985e-06
    outer loop
      vertex 12.3053 -2.58768 3.19268
      vertex 12.6441 -3.31999 0
      vertex 12.6102 -3.2467 4.48454
    endloop
  endfacet
  facet normal -0.907651 -0.419726 -1.70039e-06
    outer loop
      vertex 12.6102 -3.2467 4.48454
      vertex 12.6441 -3.31999 0
      vertex 12.635 -3.30033 4.58968
    endloop
  endfacet
  facet normal -0.907499 -0.420053 0
    outer loop
      vertex 12.635 -3.30033 4.58968
      vertex 12.6441 -3.31999 0
      vertex 12.6441 -3.31999 4.70739
    endloop
  endfacet
  facet normal -0.976602 -0.215055 0
    outer loop
      vertex 12.2356 -2.43686 0
      vertex 12.1394 -2 2.71045
      vertex 12.1394 -2 0
    endloop
  endfacet
  facet normal -0.976602 -0.215055 0
    outer loop
      vertex 12.1394 -2 2.71045
      vertex 12.2356 -2.43686 0
      vertex 12.2356 -2.43686 3.02182
    endloop
  endfacet
  facet normal -0.976602 -0.215055 -0
    outer loop
      vertex 12.2356 -2.43686 12
      vertex 12.1394 -2 9.28955
      vertex 12.2356 -2.43686 8.97818
    endloop
  endfacet
  facet normal -0.976602 -0.215055 0
    outer loop
      vertex 12.1394 -2 9.28955
      vertex 12.2356 -2.43686 12
      vertex 12.1394 -2 12
    endloop
  endfacet
  facet normal 0.561184 -0.827691 0
    outer loop
      vertex 18.6078 -4.9758 0
      vertex 19.4132 -4.42973 12
      vertex 18.6078 -4.9758 12
    endloop
  endfacet
  facet normal 0.561184 -0.827691 0
    outer loop
      vertex 19.4132 -4.42973 12
      vertex 18.6078 -4.9758 0
      vertex 19.4132 -4.42973 0
    endloop
  endfacet
  facet normal 0.370159 -0.928968 0
    outer loop
      vertex 17.7039 -5.33597 0
      vertex 18.6078 -4.9758 12
      vertex 17.7039 -5.33597 12
    endloop
  endfacet
  facet normal 0.370159 -0.928968 0
    outer loop
      vertex 18.6078 -4.9758 12
      vertex 17.7039 -5.33597 0
      vertex 18.6078 -4.9758 0
    endloop
  endfacet
  facet normal 0.856843 -0.515577 0
    outer loop
      vertex 20.0824 -3.72328 12
      vertex 20.5841 -2.8895 0
      vertex 20.5841 -2.8895 12
    endloop
  endfacet
  facet normal 0.856843 -0.515577 0
    outer loop
      vertex 20.5841 -2.8895 0
      vertex 20.0824 -3.72328 12
      vertex 20.0824 -3.72328 0
    endloop
  endfacet
  facet normal -0.267525 -0.963551 0
    outer loop
      vertex 14.8344 -5.1804 0
      vertex 15.772 -5.44072 12
      vertex 14.8344 -5.1804 12
    endloop
  endfacet
  facet normal -0.267525 -0.963551 -0
    outer loop
      vertex 15.772 -5.44072 12
      vertex 14.8344 -5.1804 0
      vertex 15.772 -5.44072 0
    endloop
  endfacet
  facet normal -0.468421 -0.883505 0
    outer loop
      vertex 13.9747 -4.7246 0
      vertex 14.8344 -5.1804 12
      vertex 13.9747 -4.7246 12
    endloop
  endfacet
  facet normal -0.468421 -0.883505 -0
    outer loop
      vertex 14.8344 -5.1804 12
      vertex 13.9747 -4.7246 0
      vertex 14.8344 -5.1804 0
    endloop
  endfacet
  facet normal -0.0541403 -0.998533 0
    outer loop
      vertex 15.772 -5.44072 0
      vertex 16.7436 -5.4934 12
      vertex 15.772 -5.44072 12
    endloop
  endfacet
  facet normal -0.0541403 -0.998533 -0
    outer loop
      vertex 16.7436 -5.4934 12
      vertex 15.772 -5.44072 0
      vertex 16.7436 -5.4934 0
    endloop
  endfacet
  facet normal -0.959492 0 -0.281736
    outer loop
      vertex 7.75 -2 6
      vertex 7.47219 0 6.94612
      vertex 7.75 0 6
    endloop
  endfacet
  facet normal -0.959492 -0 -0.281736
    outer loop
      vertex 7.47219 0 6.94612
      vertex 7.75 -2 6
      vertex 7.47219 -2 6.94612
    endloop
  endfacet
  facet normal -0.654868 0 -0.755744
    outer loop
      vertex 6.72698 -2 7.59186
      vertex 7.47219 0 6.94612
      vertex 7.47219 -2 6.94612
    endloop
  endfacet
  facet normal -0.654868 0 -0.755744
    outer loop
      vertex 7.47219 0 6.94612
      vertex 6.72698 -2 7.59186
      vertex 6.72698 0 7.59186
    endloop
  endfacet
  facet normal 1 -0 0
    outer loop
      vertex 4.32089 -2 6.49303
      vertex 4.32089 0 5.50697
      vertex 4.32089 0 6.49303
    endloop
  endfacet
  facet normal 1 0 0
    outer loop
      vertex 4.32089 0 5.50697
      vertex 4.32089 -2 6.49303
      vertex 4.32089 -2 5.50697
    endloop
  endfacet
  facet normal -0.142313 0 0.989822
    outer loop
      vertex 5.75095 0 4.26781
      vertex 6.72698 -2 4.40814
      vertex 6.72698 0 4.40814
    endloop
  endfacet
  facet normal -0.142313 0 0.989822
    outer loop
      vertex 6.72698 -2 4.40814
      vertex 5.75095 0 4.26781
      vertex 5.75095 -2 4.26781
    endloop
  endfacet
  facet normal -0.142313 0 -0.989822
    outer loop
      vertex 5.75095 -2 7.73219
      vertex 6.72698 0 7.59186
      vertex 6.72698 -2 7.59186
    endloop
  endfacet
  facet normal -0.142313 0 -0.989822
    outer loop
      vertex 6.72698 0 7.59186
      vertex 5.75095 -2 7.73219
      vertex 5.75095 0 7.73219
    endloop
  endfacet
  facet normal -0.654868 0 0.755744
    outer loop
      vertex 6.72698 0 4.40814
      vertex 7.47219 -2 5.05388
      vertex 7.47219 0 5.05388
    endloop
  endfacet
  facet normal -0.654868 0 0.755744
    outer loop
      vertex 7.47219 -2 5.05388
      vertex 6.72698 0 4.40814
      vertex 6.72698 -2 4.40814
    endloop
  endfacet
  facet normal 0.841257 0 -0.540636
    outer loop
      vertex 4.85399 -2 7.32256
      vertex 4.32089 0 6.49303
      vertex 4.85399 0 7.32256
    endloop
  endfacet
  facet normal 0.841257 0 -0.540636
    outer loop
      vertex 4.32089 0 6.49303
      vertex 4.85399 -2 7.32256
      vertex 4.32089 -2 6.49303
    endloop
  endfacet
  facet normal 0.415417 0 -0.909631
    outer loop
      vertex 4.85399 -2 7.32256
      vertex 5.75095 0 7.73219
      vertex 5.75095 -2 7.73219
    endloop
  endfacet
  facet normal 0.415417 0 -0.909631
    outer loop
      vertex 5.75095 0 7.73219
      vertex 4.85399 -2 7.32256
      vertex 4.85399 0 7.32256
    endloop
  endfacet
  facet normal 0.841257 -0 0.540636
    outer loop
      vertex 4.32089 -2 5.50697
      vertex 4.85399 0 4.67744
      vertex 4.32089 0 5.50697
    endloop
  endfacet
  facet normal 0.841257 0 0.540636
    outer loop
      vertex 4.85399 0 4.67744
      vertex 4.32089 -2 5.50697
      vertex 4.85399 -2 4.67744
    endloop
  endfacet
  facet normal 0.415417 0 0.909631
    outer loop
      vertex 4.85399 0 4.67744
      vertex 5.75095 -2 4.26781
      vertex 5.75095 0 4.26781
    endloop
  endfacet
  facet normal 0.415417 0 0.909631
    outer loop
      vertex 5.75095 -2 4.26781
      vertex 4.85399 0 4.67744
      vertex 4.85399 -2 4.67744
    endloop
  endfacet
  facet normal -0.959492 0 0.281736
    outer loop
      vertex 7.47219 -2 5.05388
      vertex 7.75 0 6
      vertex 7.47219 0 5.05388
    endloop
  endfacet
  facet normal -0.959492 0 0.281736
    outer loop
      vertex 7.75 0 6
      vertex 7.47219 -2 5.05388
      vertex 7.75 -2 6
    endloop
  endfacet
  facet normal -0.981096 0.163497 -0.103532
    outer loop
      vertex 13 -2 6
      vertex 12.7556 -3.46657 6
      vertex 12.7447 -3.45231 6.12581
    endloop
  endfacet
  facet normal -0.981131 0.163532 -0.103144
    outer loop
      vertex 12.6441 -3.31999 7.29261
      vertex 12.847 -2 7.45538
      vertex 13 -2 6
    endloop
  endfacet
  facet normal -0.981129 0.163534 -0.103163
    outer loop
      vertex 12.847 -2 7.45538
      vertex 12.6441 -3.31999 7.29261
      vertex 12.635 -3.30033 7.41032
    endloop
  endfacet
  facet normal -0.981131 0.163537 -0.103138
    outer loop
      vertex 12.6441 -3.31999 7.29261
      vertex 13 -2 6
      vertex 12.7447 -3.45231 6.12581
    endloop
  endfacet
  facet normal -0.938253 0.163556 -0.304846
    outer loop
      vertex 12.847 -2 7.45538
      vertex 12.3053 -2.58768 8.80732
      vertex 12.3948 -2 8.84716
    endloop
  endfacet
  facet normal -0.938254 0.163522 -0.304861
    outer loop
      vertex 12.3053 -2.58768 8.80732
      vertex 12.847 -2 7.45538
      vertex 12.6102 -3.2467 7.51546
    endloop
  endfacet
  facet normal -0.854394 0.163423 -0.493258
    outer loop
      vertex 12.3948 -2 8.84716
      vertex 12.2356 -2.43686 8.97818
      vertex 12.1394 -2 9.28955
    endloop
  endfacet
  facet normal -0.854534 0.16356 -0.492971
    outer loop
      vertex 12.2356 -2.43686 8.97818
      vertex 12.3948 -2 8.84716
      vertex 12.3053 -2.58768 8.80732
    endloop
  endfacet
  facet normal -0.938292 0.163535 0.304737
    outer loop
      vertex 12.635 -3.30033 4.58968
      vertex 12.847 -2 4.54462
      vertex 12.6102 -3.2467 4.48454
    endloop
  endfacet
  facet normal -0.854394 0.163423 0.493258
    outer loop
      vertex 12.2356 -2.43686 3.02182
      vertex 12.3948 -2 3.15284
      vertex 12.1394 -2 2.71045
    endloop
  endfacet
  facet normal -0.854534 0.16356 0.492971
    outer loop
      vertex 12.3948 -2 3.15284
      vertex 12.2356 -2.43686 3.02182
      vertex 12.3053 -2.58768 3.19268
    endloop
  endfacet
  facet normal -0.938253 0.163556 0.304846
    outer loop
      vertex 12.3053 -2.58768 3.19268
      vertex 12.847 -2 4.54462
      vertex 12.3948 -2 3.15284
    endloop
  endfacet
  facet normal -0.938254 0.163522 0.304861
    outer loop
      vertex 12.847 -2 4.54462
      vertex 12.3053 -2.58768 3.19268
      vertex 12.6102 -3.2467 4.48454
    endloop
  endfacet
  facet normal -0.938292 0.163535 -0.304737
    outer loop
      vertex 12.847 -2 7.45538
      vertex 12.635 -3.30033 7.41032
      vertex 12.6102 -3.2467 7.51546
    endloop
  endfacet
  facet normal -0.981129 0.163534 0.103163
    outer loop
      vertex 12.6441 -3.31999 4.70739
      vertex 12.847 -2 4.54462
      vertex 12.635 -3.30033 4.58968
    endloop
  endfacet
  facet normal -0.981131 0.163532 0.103144
    outer loop
      vertex 12.847 -2 4.54462
      vertex 12.6441 -3.31999 4.70739
      vertex 13 -2 6
    endloop
  endfacet
  facet normal -0.981131 0.163537 0.103138
    outer loop
      vertex 13 -2 6
      vertex 12.6441 -3.31999 4.70739
      vertex 12.7447 -3.45231 5.87419
    endloop
  endfacet
  facet normal -0.981096 0.163497 0.103532
    outer loop
      vertex 12.7556 -3.46657 6
      vertex 13 -2 6
      vertex 12.7447 -3.45231 5.87419
    endloop
  endfacet
  facet normal -0.980786 -0.195089 0
    outer loop
      vertex 19 -1 0
      vertex 18.8097 -0.0432911 12
      vertex 18.8097 -0.0432911 0
    endloop
  endfacet
  facet normal -0.980786 -0.195089 0
    outer loop
      vertex 18.8097 -0.0432911 12
      vertex 19 -1 0
      vertex 19 -1 12
    endloop
  endfacet
  facet normal 0.980786 0.195089 0
    outer loop
      vertex 14.1903 -1.95671 12
      vertex 14 -1 0
      vertex 14 -1 12
    endloop
  endfacet
  facet normal 0.980786 0.195089 0
    outer loop
      vertex 14 -1 0
      vertex 14.1903 -1.95671 12
      vertex 14.1903 -1.95671 0
    endloop
  endfacet
  facet normal -0.195091 0.980785 0
    outer loop
      vertex 17.4567 -3.3097 0
      vertex 16.5 -3.5 12
      vertex 17.4567 -3.3097 12
    endloop
  endfacet
  facet normal -0.195091 0.980785 0
    outer loop
      vertex 16.5 -3.5 12
      vertex 17.4567 -3.3097 0
      vertex 16.5 -3.5 0
    endloop
  endfacet
  facet normal -0.555549 0.831484 0
    outer loop
      vertex 18.2678 -2.76777 0
      vertex 17.4567 -3.3097 12
      vertex 18.2678 -2.76777 12
    endloop
  endfacet
  facet normal -0.555549 0.831484 0
    outer loop
      vertex 17.4567 -3.3097 12
      vertex 18.2678 -2.76777 0
      vertex 17.4567 -3.3097 0
    endloop
  endfacet
  facet normal -0.831702 -0.555222 0
    outer loop
      vertex 18.8097 -0.0432911 0
      vertex 18.7808 0 12
      vertex 18.7808 0 0
    endloop
  endfacet
  facet normal -0.831702 -0.555222 0
    outer loop
      vertex 18.7808 0 12
      vertex 18.8097 -0.0432911 0
      vertex 18.8097 -0.0432911 12
    endloop
  endfacet
  facet normal 0.831702 -0.555222 0
    outer loop
      vertex 14.1903 -0.0432911 12
      vertex 14.2192 0 0
      vertex 14.2192 0 12
    endloop
  endfacet
  facet normal 0.831702 -0.555222 0
    outer loop
      vertex 14.2192 0 0
      vertex 14.1903 -0.0432911 12
      vertex 14.1903 -0.0432911 0
    endloop
  endfacet
  facet normal 0.980786 -0.195089 0
    outer loop
      vertex 14 -1 12
      vertex 14.1903 -0.0432911 0
      vertex 14.1903 -0.0432911 12
    endloop
  endfacet
  facet normal 0.980786 -0.195089 0
    outer loop
      vertex 14.1903 -0.0432911 0
      vertex 14 -1 12
      vertex 14 -1 0
    endloop
  endfacet
  facet normal 0.831485 0.555547 0
    outer loop
      vertex 14.7322 -2.76777 12
      vertex 14.1903 -1.95671 0
      vertex 14.1903 -1.95671 12
    endloop
  endfacet
  facet normal 0.831485 0.555547 0
    outer loop
      vertex 14.1903 -1.95671 0
      vertex 14.7322 -2.76777 12
      vertex 14.7322 -2.76777 0
    endloop
  endfacet
  facet normal -0.831485 0.555547 0
    outer loop
      vertex 18.2678 -2.76777 0
      vertex 18.8097 -1.95671 12
      vertex 18.8097 -1.95671 0
    endloop
  endfacet
  facet normal -0.831485 0.555547 0
    outer loop
      vertex 18.8097 -1.95671 12
      vertex 18.2678 -2.76777 0
      vertex 18.2678 -2.76777 12
    endloop
  endfacet
  facet normal -0.980786 0.195089 0
    outer loop
      vertex 18.8097 -1.95671 0
      vertex 19 -1 12
      vertex 19 -1 0
    endloop
  endfacet
  facet normal -0.980786 0.195089 0
    outer loop
      vertex 19 -1 12
      vertex 18.8097 -1.95671 0
      vertex 18.8097 -1.95671 12
    endloop
  endfacet
  facet normal 0.195091 0.980785 -0
    outer loop
      vertex 16.5 -3.5 0
      vertex 15.5433 -3.3097 12
      vertex 16.5 -3.5 12
    endloop
  endfacet
  facet normal 0.195091 0.980785 0
    outer loop
      vertex 15.5433 -3.3097 12
      vertex 16.5 -3.5 0
      vertex 15.5433 -3.3097 0
    endloop
  endfacet
  facet normal 0.555549 0.831484 -0
    outer loop
      vertex 15.5433 -3.3097 0
      vertex 14.7322 -2.76777 12
      vertex 15.5433 -3.3097 12
    endloop
  endfacet
  facet normal 0.555549 0.831484 0
    outer loop
      vertex 14.7322 -2.76777 12
      vertex 15.5433 -3.3097 0
      vertex 14.7322 -2.76777 0
    endloop
  endfacet
endsolid OpenSCAD_Model
