solid OpenSCAD_Model
  facet normal 0 1 0
    outer loop
      vertex 1 0 1
      vertex 0 0 0.850647
      vertex 0 0 1
    endloop
  endfacet
  facet normal 0 1 -0
    outer loop
      vertex 1 0 0
      vertex 0 0 0.850647
      vertex 1 0 1
    endloop
  endfacet
  facet normal 0 1 0
    outer loop
      vertex 1 0 0
      vertex 0 0 -0.850647
      vertex 0 0 0.850647
    endloop
  endfacet
  facet normal -0 1 0
    outer loop
      vertex 0 0 -0.850647
      vertex 1 0 0
      vertex 0.309006 0 -0.95105
    endloop
  endfacet
  facet normal 0 1 0
    outer loop
      vertex 0 0 0.850647
      vertex -0.809006 0 -0.587784
      vertex -0.809006 0 0.587784
    endloop
  endfacet
  facet normal -0 1 0
    outer loop
      vertex -0.809006 0 -0.587784
      vertex 0 0 0.850647
      vertex 0 0 -0.850647
    endloop
  endfacet
  facet normal 0 1 -0
    outer loop
      vertex 17.0798 0 0
      vertex 12.3528 0 12
      vertex 17.0798 0 12
    endloop
  endfacet
  facet normal 0 1 0
    outer loop
      vertex 12.3528 0 12
      vertex 17.0798 0 0
      vertex 12.3528 0 0
    endloop
  endfacet
  facet normal 0 1 -0
    outer loop
      vertex 24.6472 0 0
      vertex 19.9202 0 12
      vertex 24.6472 0 12
    endloop
  endfacet
  facet normal 0 1 0
    outer loop
      vertex 19.9202 0 12
      vertex 24.6472 0 0
      vertex 19.9202 0 0
    endloop
  endfacet
  facet normal 0 -1 0
    outer loop
      vertex 0 -4 0.850647
      vertex 1 -4 1
      vertex 0 -4 1
    endloop
  endfacet
  facet normal 0 -1 0
    outer loop
      vertex -0.809006 -4 -0.587783
      vertex 0 -4 0.850647
      vertex -0.809006 -4 0.587784
    endloop
  endfacet
  facet normal 0 -1 0
    outer loop
      vertex 0 -4 0.850647
      vertex 1 -4 0
      vertex 1 -4 1
    endloop
  endfacet
  facet normal 0 -1 0
    outer loop
      vertex 0.309006 -4 -0.951049
      vertex 0 -4 0.850647
      vertex -0.809006 -4 -0.587783
    endloop
  endfacet
  facet normal 0 -1 0
    outer loop
      vertex 0 -4 0.850647
      vertex 0.309006 -4 -0.951049
      vertex 1 -4 0
    endloop
  endfacet
  facet normal 1 -0 0
    outer loop
      vertex 1 -4 1
      vertex 1 0 0
      vertex 1 0 1
    endloop
  endfacet
  facet normal 1 0 0
    outer loop
      vertex 1 0 0
      vertex 1 -4 1
      vertex 1 -4 0
    endloop
  endfacet
  facet normal -0 0 1
    outer loop
      vertex 0 0 1
      vertex 1 -4 1
      vertex 1 0 1
    endloop
  endfacet
  facet normal 0 0 1
    outer loop
      vertex 1 -4 1
      vertex 0 0 1
      vertex 0 -4 1
    endloop
  endfacet
  facet normal -1 0 0
    outer loop
      vertex 0 -4 0.850647
      vertex 0 0 1
      vertex 0 0 0.850647
    endloop
  endfacet
  facet normal -1 -0 0
    outer loop
      vertex 0 0 1
      vertex 0 -4 0.850647
      vertex 0 -4 1
    endloop
  endfacet
  facet normal -0.309018 0 0.951056
    outer loop
      vertex -0.809006 0 0.587784
      vertex 0 -4 0.850647
      vertex 0 0 0.850647
    endloop
  endfacet
  facet normal -0.309018 0 0.951056
    outer loop
      vertex 0 -4 0.850647
      vertex -0.809006 0 0.587784
      vertex -0.809006 -4 0.587784
    endloop
  endfacet
  facet normal -1 0 0
    outer loop
      vertex -0.809006 -4 -0.587783
      vertex -0.809006 0 0.587784
      vertex -0.809006 0 -0.587784
    endloop
  endfacet
  facet normal -1 -0 0
    outer loop
      vertex -0.809006 0 0.587784
      vertex -0.809006 -4 -0.587783
      vertex -0.809006 -4 0.587784
    endloop
  endfacet
  facet normal -0.309019 -2.37764e-07 -0.951056
    outer loop
      vertex 0.309006 -4 -0.951049
      vertex 0 0 -0.850647
      vertex 0.309006 0 -0.95105
    endloop
  endfacet
  facet normal -0.309018 -1.55836e-07 -0.951056
    outer loop
      vertex -0.809006 -4 -0.587783
      vertex 0 0 -0.850647
      vertex 0.309006 -4 -0.951049
    endloop
  endfacet
  facet normal -0.309018 -2.37764e-07 -0.951056
    outer loop
      vertex 0 0 -0.850647
      vertex -0.809006 -4 -0.587783
      vertex -0.809006 0 -0.587784
    endloop
  endfacet
  facet normal 0.809011 -1.46949e-07 -0.587794
    outer loop
      vertex 0.309006 0 -0.95105
      vertex 1 0 0
      vertex 0.309006 -4 -0.951049
    endloop
  endfacet
  facet normal 0.80901 0 -0.587794
    outer loop
      vertex 1 0 0
      vertex 1 -4 0
      vertex 0.309006 -4 -0.951049
    endloop
  endfacet
  facet normal 0.994525 0.104499 0
    outer loop
      vertex 25 -2 12
      vertex 24.858 -0.648574 0
      vertex 24.858 -0.648574 12
    endloop
  endfacet
  facet normal 0.994525 0.104499 0
    outer loop
      vertex 24.858 -0.648574 0
      vertex 25 -2 12
      vertex 25 -2 0
    endloop
  endfacet
  facet normal -0.587801 -0.809006 0
    outer loop
      vertex 14.1507 -6.83044 0
      vertex 15.25 -7.62916 12
      vertex 14.1507 -6.83044 12
    endloop
  endfacet
  facet normal -0.587801 -0.809006 -0
    outer loop
      vertex 15.25 -7.62916 12
      vertex 14.1507 -6.83044 0
      vertex 15.25 -7.62916 0
    endloop
  endfacet
  facet normal 0.743132 -0.669145 0
    outer loop
      vertex 22.8493 -6.83044 12
      vertex 23.7586 -5.8206 0
      vertex 23.7586 -5.8206 12
    endloop
  endfacet
  facet normal 0.743132 -0.669145 0
    outer loop
      vertex 23.7586 -5.8206 0
      vertex 22.8493 -6.83044 12
      vertex 22.8493 -6.83044 0
    endloop
  endfacet
  facet normal 0.951028 0.309104 0
    outer loop
      vertex 24.858 -0.648574 12
      vertex 24.6472 0 0
      vertex 24.6472 0 12
    endloop
  endfacet
  facet normal 0.951028 0.309104 0
    outer loop
      vertex 24.6472 0 0
      vertex 24.858 -0.648574 12
      vertex 24.858 -0.648574 0
    endloop
  endfacet
  facet normal -0.951028 0.309104 0
    outer loop
      vertex 12.142 -0.648574 0
      vertex 12.3528 0 12
      vertex 12.3528 0 0
    endloop
  endfacet
  facet normal -0.951028 0.309104 0
    outer loop
      vertex 12.3528 0 12
      vertex 12.142 -0.648574 0
      vertex 12.142 -0.648574 12
    endloop
  endfacet
  facet normal 0 0 -1
    outer loop
      vertex 24.858 -3.35143 0
      vertex 20.8097 -2.95671 0
      vertex 21 -2 0
    endloop
  endfacet
  facet normal 0 0 -1
    outer loop
      vertex 19.4567 -4.3097 0
      vertex 21.75 -7.62916 0
      vertex 20.5086 -8.18187 0
    endloop
  endfacet
  facet normal 0 0 -1
    outer loop
      vertex 22.8493 -6.83044 0
      vertex 20.2678 -3.76777 0
      vertex 20.8097 -2.95671 0
    endloop
  endfacet
  facet normal 0 0 -1
    outer loop
      vertex 21.75 -7.62916 0
      vertex 19.4567 -4.3097 0
      vertex 20.2678 -3.76777 0
    endloop
  endfacet
  facet normal 0 0 -1
    outer loop
      vertex 19.1794 -8.46439 0
      vertex 19.4567 -4.3097 0
      vertex 20.5086 -8.18187 0
    endloop
  endfacet
  facet normal 0 0 -1
    outer loop
      vertex 19.1794 -8.46439 0
      vertex 18.5 -4.5 0
      vertex 19.4567 -4.3097 0
    endloop
  endfacet
  facet normal 0 0 -1
    outer loop
      vertex 17.8206 -8.46439 0
      vertex 18.5 -4.5 0
      vertex 19.1794 -8.46439 0
    endloop
  endfacet
  facet normal 0 0 -1
    outer loop
      vertex 17.8206 -8.46439 0
      vertex 17.5433 -4.3097 0
      vertex 18.5 -4.5 0
    endloop
  endfacet
  facet normal 0 0 -1
    outer loop
      vertex 16.4914 -8.18187 0
      vertex 17.5433 -4.3097 0
      vertex 17.8206 -8.46439 0
    endloop
  endfacet
  facet normal 0 0 -1
    outer loop
      vertex 15.25 -7.62916 0
      vertex 17.5433 -4.3097 0
      vertex 16.4914 -8.18187 0
    endloop
  endfacet
  facet normal -0 0 -1
    outer loop
      vertex 17.5433 -4.3097 0
      vertex 15.25 -7.62916 0
      vertex 16.7322 -3.76777 0
    endloop
  endfacet
  facet normal 0 0 -1
    outer loop
      vertex 14.1507 -6.83044 0
      vertex 16.7322 -3.76777 0
      vertex 15.25 -7.62916 0
    endloop
  endfacet
  facet normal 0 0 -1
    outer loop
      vertex 13.2414 -5.8206 0
      vertex 16.7322 -3.76777 0
      vertex 14.1507 -6.83044 0
    endloop
  endfacet
  facet normal 0 0 -1
    outer loop
      vertex 21 -2 0
      vertex 25 -2 0
      vertex 24.858 -3.35143 0
    endloop
  endfacet
  facet normal 0 0 -1
    outer loop
      vertex 25 -2 0
      vertex 21 -2 0
      vertex 24.858 -0.648574 0
    endloop
  endfacet
  facet normal 0 0 -1
    outer loop
      vertex 20.8097 -2.95671 0
      vertex 24.858 -3.35143 0
      vertex 24.438 -4.64379 0
    endloop
  endfacet
  facet normal 0 0 -1
    outer loop
      vertex 20.8097 -2.95671 0
      vertex 24.438 -4.64379 0
      vertex 23.7586 -5.8206 0
    endloop
  endfacet
  facet normal 0 0 -1
    outer loop
      vertex 20.8097 -2.95671 0
      vertex 23.7586 -5.8206 0
      vertex 22.8493 -6.83044 0
    endloop
  endfacet
  facet normal 0 0 -1
    outer loop
      vertex 20.2678 -3.76777 0
      vertex 22.8493 -6.83044 0
      vertex 21.75 -7.62916 0
    endloop
  endfacet
  facet normal 0 0 -1
    outer loop
      vertex 20.8097 -1.04329 0
      vertex 24.858 -0.648574 0
      vertex 21 -2 0
    endloop
  endfacet
  facet normal -0 0 -1
    outer loop
      vertex 24.858 -0.648574 0
      vertex 20.8097 -1.04329 0
      vertex 24.6472 0 0
    endloop
  endfacet
  facet normal 0 0 -1
    outer loop
      vertex 20.2678 -0.232232 0
      vertex 24.6472 0 0
      vertex 20.8097 -1.04329 0
    endloop
  endfacet
  facet normal -0 0 -1
    outer loop
      vertex 24.6472 0 0
      vertex 20.2678 -0.232232 0
      vertex 19.9202 0 0
    endloop
  endfacet
  facet normal -0 0 -1
    outer loop
      vertex 16.7322 -3.76777 0
      vertex 13.2414 -5.8206 0
      vertex 16.1903 -2.95671 0
    endloop
  endfacet
  facet normal 0 0 -1
    outer loop
      vertex 12.562 -4.64379 0
      vertex 16.1903 -2.95671 0
      vertex 13.2414 -5.8206 0
    endloop
  endfacet
  facet normal 0 0 -1
    outer loop
      vertex 12.142 -3.35143 0
      vertex 16.1903 -2.95671 0
      vertex 12.562 -4.64379 0
    endloop
  endfacet
  facet normal -0 0 -1
    outer loop
      vertex 16.1903 -2.95671 0
      vertex 12.142 -3.35143 0
      vertex 16 -2 0
    endloop
  endfacet
  facet normal 0 0 -1
    outer loop
      vertex 12 -2 0
      vertex 16 -2 0
      vertex 12.142 -3.35143 0
    endloop
  endfacet
  facet normal 0 0 -1
    outer loop
      vertex 16.7322 -0.232232 0
      vertex 12.3528 0 0
      vertex 17.0798 0 0
    endloop
  endfacet
  facet normal 0 -0 -1
    outer loop
      vertex 12.142 -0.648574 0
      vertex 16 -2 0
      vertex 12 -2 0
    endloop
  endfacet
  facet normal 0 0 -1
    outer loop
      vertex 16 -2 0
      vertex 12.142 -0.648574 0
      vertex 16.1903 -1.04329 0
    endloop
  endfacet
  facet normal 0 -0 -1
    outer loop
      vertex 12.3528 0 0
      vertex 16.1903 -1.04329 0
      vertex 12.142 -0.648574 0
    endloop
  endfacet
  facet normal 0 0 -1
    outer loop
      vertex 16.1903 -1.04329 0
      vertex 12.3528 0 0
      vertex 16.7322 -0.232232 0
    endloop
  endfacet
  facet normal -0.994525 0.104499 0
    outer loop
      vertex 12 -2 0
      vertex 12.142 -0.648574 12
      vertex 12.142 -0.648574 0
    endloop
  endfacet
  facet normal -0.994525 0.104499 0
    outer loop
      vertex 12.142 -0.648574 12
      vertex 12 -2 0
      vertex 12 -2 12
    endloop
  endfacet
  facet normal 0 0 1
    outer loop
      vertex 16.7322 -3.76777 12
      vertex 14.1507 -6.83044 12
      vertex 15.25 -7.62916 12
    endloop
  endfacet
  facet normal 0 0 1
    outer loop
      vertex 12.142 -0.648574 12
      vertex 16 -2 12
      vertex 16.1903 -1.04329 12
    endloop
  endfacet
  facet normal 0 0 1
    outer loop
      vertex 16.1903 -2.95671 12
      vertex 13.2414 -5.8206 12
      vertex 14.1507 -6.83044 12
    endloop
  endfacet
  facet normal 0 0 1
    outer loop
      vertex 16.1903 -2.95671 12
      vertex 12.562 -4.64379 12
      vertex 13.2414 -5.8206 12
    endloop
  endfacet
  facet normal 0 0 1
    outer loop
      vertex 12.3528 0 12
      vertex 16.1903 -1.04329 12
      vertex 16.7322 -0.232232 12
    endloop
  endfacet
  facet normal -0 0 1
    outer loop
      vertex 12.3528 0 12
      vertex 16.7322 -0.232232 12
      vertex 17.0798 0 12
    endloop
  endfacet
  facet normal 0 0 1
    outer loop
      vertex 16.1903 -1.04329 12
      vertex 12.3528 0 12
      vertex 12.142 -0.648574 12
    endloop
  endfacet
  facet normal 0 0 1
    outer loop
      vertex 16 -2 12
      vertex 12.142 -0.648574 12
      vertex 12 -2 12
    endloop
  endfacet
  facet normal 0 0 1
    outer loop
      vertex 16.1903 -2.95671 12
      vertex 12.142 -3.35143 12
      vertex 12.562 -4.64379 12
    endloop
  endfacet
  facet normal 0 0 1
    outer loop
      vertex 16 -2 12
      vertex 12 -2 12
      vertex 12.142 -3.35143 12
    endloop
  endfacet
  facet normal 0 0 1
    outer loop
      vertex 21 -2 12
      vertex 25 -2 12
      vertex 24.858 -0.648574 12
    endloop
  endfacet
  facet normal 0 0 1
    outer loop
      vertex 20.8097 -1.04329 12
      vertex 24.858 -0.648574 12
      vertex 24.6472 0 12
    endloop
  endfacet
  facet normal 0 0 1
    outer loop
      vertex 25 -2 12
      vertex 21 -2 12
      vertex 24.858 -3.35143 12
    endloop
  endfacet
  facet normal -0 0 1
    outer loop
      vertex 20.8097 -2.95671 12
      vertex 24.858 -3.35143 12
      vertex 21 -2 12
    endloop
  endfacet
  facet normal 0 0 1
    outer loop
      vertex 24.858 -3.35143 12
      vertex 20.8097 -2.95671 12
      vertex 24.438 -4.64379 12
    endloop
  endfacet
  facet normal -0 0 1
    outer loop
      vertex 20.2678 -3.76777 12
      vertex 23.7586 -5.8206 12
      vertex 20.8097 -2.95671 12
    endloop
  endfacet
  facet normal 0 0 1
    outer loop
      vertex 24.438 -4.64379 12
      vertex 20.8097 -2.95671 12
      vertex 23.7586 -5.8206 12
    endloop
  endfacet
  facet normal 0 0 1
    outer loop
      vertex 24.858 -0.648574 12
      vertex 20.8097 -1.04329 12
      vertex 21 -2 12
    endloop
  endfacet
  facet normal 0 0 1
    outer loop
      vertex 24.6472 0 12
      vertex 20.2678 -0.232232 12
      vertex 20.8097 -1.04329 12
    endloop
  endfacet
  facet normal 0 -0 1
    outer loop
      vertex 20.2678 -0.232232 12
      vertex 24.6472 0 12
      vertex 19.9202 0 12
    endloop
  endfacet
  facet normal 0 0 1
    outer loop
      vertex 23.7586 -5.8206 12
      vertex 20.2678 -3.76777 12
      vertex 22.8493 -6.83044 12
    endloop
  endfacet
  facet normal 0 0 1
    outer loop
      vertex 22.8493 -6.83044 12
      vertex 20.2678 -3.76777 12
      vertex 21.75 -7.62916 12
    endloop
  endfacet
  facet normal -0 0 1
    outer loop
      vertex 19.4567 -4.3097 12
      vertex 21.75 -7.62916 12
      vertex 20.2678 -3.76777 12
    endloop
  endfacet
  facet normal 0 0 1
    outer loop
      vertex 21.75 -7.62916 12
      vertex 19.4567 -4.3097 12
      vertex 20.5086 -8.18187 12
    endloop
  endfacet
  facet normal 0 0 1
    outer loop
      vertex 19.4567 -4.3097 12
      vertex 19.1794 -8.46439 12
      vertex 20.5086 -8.18187 12
    endloop
  endfacet
  facet normal -0 0 1
    outer loop
      vertex 18.5 -4.5 12
      vertex 19.1794 -8.46439 12
      vertex 19.4567 -4.3097 12
    endloop
  endfacet
  facet normal 0 0 1
    outer loop
      vertex 18.5 -4.5 12
      vertex 17.8206 -8.46439 12
      vertex 19.1794 -8.46439 12
    endloop
  endfacet
  facet normal 0 0 1
    outer loop
      vertex 17.5433 -4.3097 12
      vertex 17.8206 -8.46439 12
      vertex 18.5 -4.5 12
    endloop
  endfacet
  facet normal 0 0 1
    outer loop
      vertex 15.25 -7.62916 12
      vertex 17.5433 -4.3097 12
      vertex 16.7322 -3.76777 12
    endloop
  endfacet
  facet normal 0 0 1
    outer loop
      vertex 17.5433 -4.3097 12
      vertex 16.4914 -8.18187 12
      vertex 17.8206 -8.46439 12
    endloop
  endfacet
  facet normal 0 0 1
    outer loop
      vertex 14.1507 -6.83044 12
      vertex 16.7322 -3.76777 12
      vertex 16.1903 -2.95671 12
    endloop
  endfacet
  facet normal 0 0 1
    outer loop
      vertex 12.142 -3.35143 12
      vertex 16.1903 -2.95671 12
      vertex 16 -2 12
    endloop
  endfacet
  facet normal 0 0 1
    outer loop
      vertex 17.5433 -4.3097 12
      vertex 15.25 -7.62916 12
      vertex 16.4914 -8.18187 12
    endloop
  endfacet
  facet normal 0.207905 -0.978149 0
    outer loop
      vertex 19.1794 -8.46439 0
      vertex 20.5086 -8.18187 12
      vertex 19.1794 -8.46439 12
    endloop
  endfacet
  facet normal 0.207905 -0.978149 0
    outer loop
      vertex 20.5086 -8.18187 12
      vertex 19.1794 -8.46439 0
      vertex 20.5086 -8.18187 0
    endloop
  endfacet
  facet normal 0.587801 -0.809006 0
    outer loop
      vertex 21.75 -7.62916 0
      vertex 22.8493 -6.83044 12
      vertex 21.75 -7.62916 12
    endloop
  endfacet
  facet normal 0.587801 -0.809006 0
    outer loop
      vertex 22.8493 -6.83044 12
      vertex 21.75 -7.62916 0
      vertex 22.8493 -6.83044 0
    endloop
  endfacet
  facet normal -0.406739 -0.913545 0
    outer loop
      vertex 15.25 -7.62916 0
      vertex 16.4914 -8.18187 12
      vertex 15.25 -7.62916 12
    endloop
  endfacet
  facet normal -0.406739 -0.913545 -0
    outer loop
      vertex 16.4914 -8.18187 12
      vertex 15.25 -7.62916 0
      vertex 16.4914 -8.18187 0
    endloop
  endfacet
  facet normal 0 -1 0
    outer loop
      vertex 17.8206 -8.46439 0
      vertex 19.1794 -8.46439 12
      vertex 17.8206 -8.46439 12
    endloop
  endfacet
  facet normal 0 -1 -0
    outer loop
      vertex 19.1794 -8.46439 12
      vertex 17.8206 -8.46439 0
      vertex 19.1794 -8.46439 0
    endloop
  endfacet
  facet normal -0.743132 -0.669145 0
    outer loop
      vertex 14.1507 -6.83044 0
      vertex 13.2414 -5.8206 12
      vertex 13.2414 -5.8206 0
    endloop
  endfacet
  facet normal -0.743132 -0.669145 0
    outer loop
      vertex 13.2414 -5.8206 12
      vertex 14.1507 -6.83044 0
      vertex 14.1507 -6.83044 12
    endloop
  endfacet
  facet normal -0.951028 -0.309106 0
    outer loop
      vertex 12.3528 -4 6.34526
      vertex 12.142 -3.35143 12
      vertex 12.142 -3.35143 0
    endloop
  endfacet
  facet normal -0.951028 -0.309106 -0
    outer loop
      vertex 12.3528 -4 6.34526
      vertex 12.142 -3.35143 0
      vertex 12.3528 -4 5.93421
    endloop
  endfacet
  facet normal -0.951028 -0.309106 0
    outer loop
      vertex 12.142 -3.35143 0
      vertex 12.3528 -4 5.13008
      vertex 12.3528 -4 5.93421
    endloop
  endfacet
  facet normal -0.951028 -0.309106 0
    outer loop
      vertex 12.142 -3.35143 0
      vertex 12.3528 -4 3.08002
      vertex 12.3528 -4 5.13008
    endloop
  endfacet
  facet normal -0.951038 -0.309075 7.18876e-06
    outer loop
      vertex 12.562 -4.64379 0
      vertex 12.3528 -4 3.08002
      vertex 12.142 -3.35143 0
    endloop
  endfacet
  facet normal -0.951132 -0.308785 -5.96998e-05
    outer loop
      vertex 12.3528 -4 3.08002
      vertex 12.562 -4.64379 0
      vertex 12.3814 -4.08811 3.15882
    endloop
  endfacet
  facet normal -0.951032 -0.309092 0
    outer loop
      vertex 12.3814 -4.08811 3.15882
      vertex 12.562 -4.64379 0
      vertex 12.562 -4.64379 4.01256
    endloop
  endfacet
  facet normal -0.951028 -0.309106 -0
    outer loop
      vertex 12.3528 -4 6.77509
      vertex 12.142 -3.35143 12
      vertex 12.3528 -4 6.5993
    endloop
  endfacet
  facet normal -0.951028 -0.309106 -0
    outer loop
      vertex 12.3528 -4 7.45538
      vertex 12.142 -3.35143 12
      vertex 12.3528 -4 6.77509
    endloop
  endfacet
  facet normal -0.951028 -0.309106 -0
    outer loop
      vertex 12.3528 -4 8.91998
      vertex 12.142 -3.35143 12
      vertex 12.3528 -4 7.45538
    endloop
  endfacet
  facet normal -0.951132 -0.308785 5.96998e-05
    outer loop
      vertex 12.562 -4.64379 12
      vertex 12.3528 -4 8.91998
      vertex 12.3814 -4.08811 8.84118
    endloop
  endfacet
  facet normal -0.951032 -0.309092 -0
    outer loop
      vertex 12.562 -4.64379 12
      vertex 12.3814 -4.08811 8.84118
      vertex 12.562 -4.64379 7.98744
    endloop
  endfacet
  facet normal -0.951038 -0.309075 -7.18876e-06
    outer loop
      vertex 12.3528 -4 8.91998
      vertex 12.562 -4.64379 12
      vertex 12.142 -3.35143 12
    endloop
  endfacet
  facet normal -0.951028 -0.309106 0
    outer loop
      vertex 12.142 -3.35143 12
      vertex 12.3528 -4 6.34526
      vertex 12.3528 -4 6.5993
    endloop
  endfacet
  facet normal -0.994525 -0.104499 0
    outer loop
      vertex 12.142 -3.35143 0
      vertex 12 -2 12
      vertex 12 -2 0
    endloop
  endfacet
  facet normal -0.994525 -0.104499 0
    outer loop
      vertex 12 -2 12
      vertex 12.142 -3.35143 0
      vertex 12.142 -3.35143 12
    endloop
  endfacet
  facet normal 0.406739 -0.913545 0
    outer loop
      vertex 20.5086 -8.18187 0
      vertex 21.75 -7.62916 12
      vertex 20.5086 -8.18187 12
    endloop
  endfacet
  facet normal 0.406739 -0.913545 0
    outer loop
      vertex 21.75 -7.62916 12
      vertex 20.5086 -8.18187 0
      vertex 21.75 -7.62916 0
    endloop
  endfacet
  facet normal 0.951038 -0.309075 0
    outer loop
      vertex 24.438 -4.64379 12
      vertex 24.858 -3.35143 0
      vertex 24.858 -3.35143 12
    endloop
  endfacet
  facet normal 0.951038 -0.309075 0
    outer loop
      vertex 24.858 -3.35143 0
      vertex 24.438 -4.64379 12
      vertex 24.438 -4.64379 0
    endloop
  endfacet
  facet normal 0.866035 -0.499983 0
    outer loop
      vertex 23.7586 -5.8206 12
      vertex 24.438 -4.64379 0
      vertex 24.438 -4.64379 12
    endloop
  endfacet
  facet normal 0.866035 -0.499983 0
    outer loop
      vertex 24.438 -4.64379 0
      vertex 23.7586 -5.8206 12
      vertex 23.7586 -5.8206 0
    endloop
  endfacet
  facet normal 0.994525 -0.104499 0
    outer loop
      vertex 24.858 -3.35143 12
      vertex 25 -2 0
      vertex 25 -2 12
    endloop
  endfacet
  facet normal 0.994525 -0.104499 0
    outer loop
      vertex 25 -2 0
      vertex 24.858 -3.35143 12
      vertex 24.858 -3.35143 0
    endloop
  endfacet
  facet normal -0.207905 -0.978149 0
    outer loop
      vertex 16.4914 -8.18187 0
      vertex 17.8206 -8.46439 12
      vertex 16.4914 -8.18187 12
    endloop
  endfacet
  facet normal -0.207905 -0.978149 -0
    outer loop
      vertex 17.8206 -8.46439 12
      vertex 16.4914 -8.18187 0
      vertex 17.8206 -8.46439 0
    endloop
  endfacet
  facet normal -0.866035 -0.499983 0
    outer loop
      vertex 13.2414 -5.8206 0
      vertex 12.562 -4.64379 4.01256
      vertex 12.562 -4.64379 0
    endloop
  endfacet
  facet normal -0.866026 -0.5 6.62246e-06
    outer loop
      vertex 12.562 -4.64379 4.01256
      vertex 13.2414 -5.8206 0
      vertex 12.6845 -4.85596 4.50337
    endloop
  endfacet
  facet normal -0.866571 -0.499054 -0.000263259
    outer loop
      vertex 12.6845 -4.85596 4.50337
      vertex 13.2414 -5.8206 0
      vertex 12.7024 -4.88708 4.57536
    endloop
  endfacet
  facet normal -0.866013 -0.500022 -9.79819e-08
    outer loop
      vertex 12.7024 -4.88708 4.57536
      vertex 13.2414 -5.8206 0
      vertex 12.811 -5.07517 5.90686
    endloop
  endfacet
  facet normal -0.865988 -0.500065 7.08497e-06
    outer loop
      vertex 12.811 -5.07517 5.90686
      vertex 13.2414 -5.8206 0
      vertex 12.8186 -5.08833 6
    endloop
  endfacet
  facet normal -0.866026 -0.5 -6.62246e-06
    outer loop
      vertex 13.2414 -5.8206 12
      vertex 12.562 -4.64379 7.98744
      vertex 12.6845 -4.85596 7.49663
    endloop
  endfacet
  facet normal -0.866571 -0.499054 0.000263259
    outer loop
      vertex 13.2414 -5.8206 12
      vertex 12.6845 -4.85596 7.49663
      vertex 12.7024 -4.88708 7.42464
    endloop
  endfacet
  facet normal -0.866013 -0.500022 9.79819e-08
    outer loop
      vertex 13.2414 -5.8206 12
      vertex 12.7024 -4.88708 7.42464
      vertex 12.811 -5.07517 6.09314
    endloop
  endfacet
  facet normal -0.865988 -0.500065 -7.08497e-06
    outer loop
      vertex 13.2414 -5.8206 12
      vertex 12.811 -5.07517 6.09314
      vertex 12.8186 -5.08833 6
    endloop
  endfacet
  facet normal -0.866013 -0.500021 -0
    outer loop
      vertex 13.2414 -5.8206 12
      vertex 12.8186 -5.08833 6
      vertex 13.2414 -5.8206 0
    endloop
  endfacet
  facet normal -0.866035 -0.499983 0
    outer loop
      vertex 12.562 -4.64379 7.98744
      vertex 13.2414 -5.8206 12
      vertex 12.562 -4.64379 12
    endloop
  endfacet
  facet normal -0 -1 0
    outer loop
      vertex 13 -4 6
      vertex 12.847 -4 7.45538
      vertex 12.847 -4 4.54462
    endloop
  endfacet
  facet normal -0.981129 0.163532 -0.103164
    outer loop
      vertex 13 -4 6
      vertex 12.8186 -5.08833 6
      vertex 12.811 -5.07517 6.09314
    endloop
  endfacet
  facet normal -0.981136 0.163506 -0.103144
    outer loop
      vertex 13 -4 6
      vertex 12.7024 -4.88708 7.42464
      vertex 12.847 -4 7.45538
    endloop
  endfacet
  facet normal -0.981133 0.163536 -0.103125
    outer loop
      vertex 12.7024 -4.88708 7.42464
      vertex 13 -4 6
      vertex 12.811 -5.07517 6.09314
    endloop
  endfacet
  facet normal -0.938274 0.16342 -0.304853
    outer loop
      vertex 12.562 -4.64379 7.98744
      vertex 12.3948 -4 8.84716
      vertex 12.847 -4 7.45538
    endloop
  endfacet
  facet normal -0.938288 0.163386 -0.304829
    outer loop
      vertex 12.3948 -4 8.84716
      vertex 12.562 -4.64379 7.98744
      vertex 12.3814 -4.08811 8.84118
    endloop
  endfacet
  facet normal -0.938277 0.163437 -0.304834
    outer loop
      vertex 12.562 -4.64379 7.98744
      vertex 12.847 -4 7.45538
      vertex 12.6845 -4.85596 7.49663
    endloop
  endfacet
  facet normal 0 -1 0
    outer loop
      vertex 12.3528 -4 7.45538
      vertex 12.3948 -4 8.84716
      vertex 12.3528 -4 8.91998
    endloop
  endfacet
  facet normal 0 -1 -0
    outer loop
      vertex 12.3948 -4 8.84716
      vertex 12.3528 -4 7.45538
      vertex 12.847 -4 7.45538
    endloop
  endfacet
  facet normal 0 -1 0
    outer loop
      vertex 12.3528 -4 5.93421
      vertex 12.847 -4 7.45538
      vertex 12.3528 -4 6.34526
    endloop
  endfacet
  facet normal 0 -1 0
    outer loop
      vertex 12.3528 -4 5.13008
      vertex 12.3948 -4 3.15284
      vertex 12.847 -4 7.45538
    endloop
  endfacet
  facet normal -0 -1 0
    outer loop
      vertex 12.3948 -4 3.15284
      vertex 12.3528 -4 5.13008
      vertex 12.3528 -4 3.08002
    endloop
  endfacet
  facet normal -0.854599 0.163423 -0.492903
    outer loop
      vertex 12.3948 -4 8.84716
      vertex 12.3814 -4.08811 8.84118
      vertex 12.3528 -4 8.91998
    endloop
  endfacet
  facet normal -0 -1 0
    outer loop
      vertex 12.847 -4 4.54462
      vertex 12.847 -4 7.45538
      vertex 12.3948 -4 3.15284
    endloop
  endfacet
  facet normal -0.938519 0.163521 0.304046
    outer loop
      vertex 12.7024 -4.88708 4.57536
      vertex 12.847 -4 4.54462
      vertex 12.6845 -4.85596 4.50337
    endloop
  endfacet
  facet normal -0.938288 0.163386 0.304829
    outer loop
      vertex 12.562 -4.64379 4.01256
      vertex 12.3948 -4 3.15284
      vertex 12.3814 -4.08811 3.15882
    endloop
  endfacet
  facet normal -0.938274 0.16342 0.304853
    outer loop
      vertex 12.3948 -4 3.15284
      vertex 12.562 -4.64379 4.01256
      vertex 12.847 -4 4.54462
    endloop
  endfacet
  facet normal -0.938277 0.163437 0.304834
    outer loop
      vertex 12.847 -4 4.54462
      vertex 12.562 -4.64379 4.01256
      vertex 12.6845 -4.85596 4.50337
    endloop
  endfacet
  facet normal 0 -1 0
    outer loop
      vertex 12.3528 -4 6.34526
      vertex 12.847 -4 7.45538
      vertex 12.3528 -4 6.5993
    endloop
  endfacet
  facet normal 0 -1 0
    outer loop
      vertex 12.3528 -4 6.77509
      vertex 12.847 -4 7.45538
      vertex 12.3528 -4 7.45538
    endloop
  endfacet
  facet normal -0.981136 0.163506 0.103144
    outer loop
      vertex 12.7024 -4.88708 4.57536
      vertex 13 -4 6
      vertex 12.847 -4 4.54462
    endloop
  endfacet
  facet normal -0.981133 0.163536 0.103125
    outer loop
      vertex 13 -4 6
      vertex 12.7024 -4.88708 4.57536
      vertex 12.811 -5.07517 5.90686
    endloop
  endfacet
  facet normal -0.981129 0.163532 0.103164
    outer loop
      vertex 12.8186 -5.08833 6
      vertex 13 -4 6
      vertex 12.811 -5.07517 5.90686
    endloop
  endfacet
  facet normal 0 -1 0
    outer loop
      vertex 12.3528 -4 5.13008
      vertex 12.847 -4 7.45538
      vertex 12.3528 -4 5.93421
    endloop
  endfacet
  facet normal 0 -1 0
    outer loop
      vertex 12.3528 -4 6.5993
      vertex 12.847 -4 7.45538
      vertex 12.3528 -4 6.77509
    endloop
  endfacet
  facet normal -0.938519 0.163521 -0.304046
    outer loop
      vertex 12.847 -4 7.45538
      vertex 12.7024 -4.88708 7.42464
      vertex 12.6845 -4.85596 7.49663
    endloop
  endfacet
  facet normal -0.854599 0.163423 0.492903
    outer loop
      vertex 12.3814 -4.08811 3.15882
      vertex 12.3948 -4 3.15284
      vertex 12.3528 -4 3.08002
    endloop
  endfacet
  facet normal -0.980786 -0.195089 0
    outer loop
      vertex 21 -2 0
      vertex 20.8097 -1.04329 12
      vertex 20.8097 -1.04329 0
    endloop
  endfacet
  facet normal -0.980786 -0.195089 0
    outer loop
      vertex 20.8097 -1.04329 12
      vertex 21 -2 0
      vertex 21 -2 12
    endloop
  endfacet
  facet normal 0.980786 0.195089 0
    outer loop
      vertex 16.1903 -2.95671 12
      vertex 16 -2 0
      vertex 16 -2 12
    endloop
  endfacet
  facet normal 0.980786 0.195089 0
    outer loop
      vertex 16 -2 0
      vertex 16.1903 -2.95671 12
      vertex 16.1903 -2.95671 0
    endloop
  endfacet
  facet normal -0.555526 -0.831499 0
    outer loop
      vertex 19.9202 0 0
      vertex 20.2678 -0.232232 12
      vertex 19.9202 0 12
    endloop
  endfacet
  facet normal -0.555526 -0.831499 -0
    outer loop
      vertex 20.2678 -0.232232 12
      vertex 19.9202 0 0
      vertex 20.2678 -0.232232 0
    endloop
  endfacet
  facet normal -0.831485 -0.555548 0
    outer loop
      vertex 20.8097 -1.04329 0
      vertex 20.2678 -0.232232 12
      vertex 20.2678 -0.232232 0
    endloop
  endfacet
  facet normal -0.831485 -0.555548 0
    outer loop
      vertex 20.2678 -0.232232 12
      vertex 20.8097 -1.04329 0
      vertex 20.8097 -1.04329 12
    endloop
  endfacet
  facet normal 0.555526 -0.831499 0
    outer loop
      vertex 16.7322 -0.232232 0
      vertex 17.0798 0 12
      vertex 16.7322 -0.232232 12
    endloop
  endfacet
  facet normal 0.555526 -0.831499 0
    outer loop
      vertex 17.0798 0 12
      vertex 16.7322 -0.232232 0
      vertex 17.0798 0 0
    endloop
  endfacet
  facet normal 0.980786 -0.195089 0
    outer loop
      vertex 16 -2 12
      vertex 16.1903 -1.04329 0
      vertex 16.1903 -1.04329 12
    endloop
  endfacet
  facet normal 0.980786 -0.195089 0
    outer loop
      vertex 16.1903 -1.04329 0
      vertex 16 -2 12
      vertex 16 -2 0
    endloop
  endfacet
  facet normal 0.831485 -0.555548 0
    outer loop
      vertex 16.1903 -1.04329 12
      vertex 16.7322 -0.232232 0
      vertex 16.7322 -0.232232 12
    endloop
  endfacet
  facet normal 0.831485 -0.555548 0
    outer loop
      vertex 16.7322 -0.232232 0
      vertex 16.1903 -1.04329 12
      vertex 16.1903 -1.04329 0
    endloop
  endfacet
  facet normal 0.831485 0.555547 0
    outer loop
      vertex 16.7322 -3.76777 12
      vertex 16.1903 -2.95671 0
      vertex 16.1903 -2.95671 12
    endloop
  endfacet
  facet normal 0.831485 0.555547 0
    outer loop
      vertex 16.1903 -2.95671 0
      vertex 16.7322 -3.76777 12
      vertex 16.7322 -3.76777 0
    endloop
  endfacet
  facet normal -0.555549 0.831484 0
    outer loop
      vertex 20.2678 -3.76777 0
      vertex 19.4567 -4.3097 12
      vertex 20.2678 -3.76777 12
    endloop
  endfacet
  facet normal -0.555549 0.831484 0
    outer loop
      vertex 19.4567 -4.3097 12
      vertex 20.2678 -3.76777 0
      vertex 19.4567 -4.3097 0
    endloop
  endfacet
  facet normal -0.831485 0.555547 0
    outer loop
      vertex 20.2678 -3.76777 0
      vertex 20.8097 -2.95671 12
      vertex 20.8097 -2.95671 0
    endloop
  endfacet
  facet normal -0.831485 0.555547 0
    outer loop
      vertex 20.8097 -2.95671 12
      vertex 20.2678 -3.76777 0
      vertex 20.2678 -3.76777 12
    endloop
  endfacet
  facet normal -0.980786 0.195089 0
    outer loop
      vertex 20.8097 -2.95671 0
      vertex 21 -2 12
      vertex 21 -2 0
    endloop
  endfacet
  facet normal -0.980786 0.195089 0
    outer loop
      vertex 21 -2 12
      vertex 20.8097 -2.95671 0
      vertex 20.8097 -2.95671 12
    endloop
  endfacet
  facet normal 0.555549 0.831484 -0
    outer loop
      vertex 17.5433 -4.3097 0
      vertex 16.7322 -3.76777 12
      vertex 17.5433 -4.3097 12
    endloop
  endfacet
  facet normal 0.555549 0.831484 0
    outer loop
      vertex 16.7322 -3.76777 12
      vertex 17.5433 -4.3097 0
      vertex 16.7322 -3.76777 0
    endloop
  endfacet
  facet normal -0.195091 0.980785 0
    outer loop
      vertex 19.4567 -4.3097 0
      vertex 18.5 -4.5 12
      vertex 19.4567 -4.3097 12
    endloop
  endfacet
  facet normal -0.195091 0.980785 0
    outer loop
      vertex 18.5 -4.5 12
      vertex 19.4567 -4.3097 0
      vertex 18.5 -4.5 0
    endloop
  endfacet
  facet normal 0.195091 0.980785 -0
    outer loop
      vertex 18.5 -4.5 0
      vertex 17.5433 -4.3097 12
      vertex 18.5 -4.5 12
    endloop
  endfacet
  facet normal 0.195091 0.980785 0
    outer loop
      vertex 17.5433 -4.3097 12
      vertex 18.5 -4.5 0
      vertex 17.5433 -4.3097 0
    endloop
  endfacet
endsolid OpenSCAD_Model
