solid OpenSCAD_Model
  facet normal 0.987688 0.156436 0
    outer loop
      vertex 3.2 0 5
      vertex 3.04338 0.988853 0
      vertex 3.04338 0.988853 5
    endloop
  endfacet
  facet normal 0.987688 0.156436 0
    outer loop
      vertex 3.04338 0.988853 0
      vertex 3.2 0 5
      vertex 3.2 0 0
    endloop
  endfacet
  facet normal -0.987688 0.156436 0
    outer loop
      vertex -3.2 0 0
      vertex -3.04338 0.988853 5
      vertex -3.04338 0.988853 0
    endloop
  endfacet
  facet normal -0.987688 0.156436 0
    outer loop
      vertex -3.04338 0.988853 5
      vertex -3.2 0 0
      vertex -3.2 0 5
    endloop
  endfacet
  facet normal 0.156436 0.987688 -0
    outer loop
      vertex 0.988853 3.04338 0
      vertex 0 3.2 5
      vertex 0.988853 3.04338 5
    endloop
  endfacet
  facet normal 0.156436 0.987688 0
    outer loop
      vertex 0 3.2 5
      vertex 0.988853 3.04338 0
      vertex 0 3.2 0
    endloop
  endfacet
  facet normal 0 0 -1
    outer loop
      vertex 1.66285 -0.35345 0
      vertex 3.2 0 0
      vertex 3.04338 -0.988853 0
    endloop
  endfacet
  facet normal 0 0 -1
    outer loop
      vertex 1.55303 -0.691452 0
      vertex 3.04338 -0.988853 0
      vertex 2.58885 -1.88091 0
    endloop
  endfacet
  facet normal -0 0 -1
    outer loop
      vertex 3.2 0 0
      vertex 1.66285 -0.35345 0
      vertex 1.7 0 0
    endloop
  endfacet
  facet normal 0 0 -1
    outer loop
      vertex 1.13752 -1.26335 0
      vertex 2.58885 -1.88091 0
      vertex 1.88091 -2.58885 0
    endloop
  endfacet
  facet normal 0 0 -1
    outer loop
      vertex 1.66285 0.35345 0
      vertex 3.2 0 0
      vertex 1.7 0 0
    endloop
  endfacet
  facet normal 0 0 -1
    outer loop
      vertex 1.55303 0.691452 0
      vertex 3.04338 0.988853 0
      vertex 1.66285 0.35345 0
    endloop
  endfacet
  facet normal 0 0 -1
    outer loop
      vertex 3.2 0 0
      vertex 1.66285 0.35345 0
      vertex 3.04338 0.988853 0
    endloop
  endfacet
  facet normal 0 0 -1
    outer loop
      vertex 3.04338 -0.988853 0
      vertex 1.55303 -0.691452 0
      vertex 1.66285 -0.35345 0
    endloop
  endfacet
  facet normal 0 0 -1
    outer loop
      vertex 2.58885 -1.88091 0
      vertex 1.37533 -0.999234 0
      vertex 1.55303 -0.691452 0
    endloop
  endfacet
  facet normal 0 0 -1
    outer loop
      vertex 2.58885 -1.88091 0
      vertex 1.13752 -1.26335 0
      vertex 1.37533 -0.999234 0
    endloop
  endfacet
  facet normal 0 0 -1
    outer loop
      vertex 0.849999 -1.47224 0
      vertex 1.88091 -2.58885 0
      vertex 0.988853 -3.04338 0
    endloop
  endfacet
  facet normal 0 0 -1
    outer loop
      vertex 1.88091 -2.58885 0
      vertex 0.849999 -1.47224 0
      vertex 1.13752 -1.26335 0
    endloop
  endfacet
  facet normal 0 0 -1
    outer loop
      vertex 0.988853 -3.04338 0
      vertex 0.525329 -1.6168 0
      vertex 0.849999 -1.47224 0
    endloop
  endfacet
  facet normal 0 0 -1
    outer loop
      vertex 0.988853 -3.04338 0
      vertex 0.177698 -1.69069 0
      vertex 0.525329 -1.6168 0
    endloop
  endfacet
  facet normal 0 0 -1
    outer loop
      vertex 0 -3.2 0
      vertex 0.177698 -1.69069 0
      vertex 0.988853 -3.04338 0
    endloop
  endfacet
  facet normal 0 0 -1
    outer loop
      vertex 0 -3.2 0
      vertex -0.177698 -1.69069 0
      vertex 0.177698 -1.69069 0
    endloop
  endfacet
  facet normal 0 0 -1
    outer loop
      vertex -0.988853 -3.04338 0
      vertex -0.177698 -1.69069 0
      vertex 0 -3.2 0
    endloop
  endfacet
  facet normal -0 0 -1
    outer loop
      vertex -0.177698 -1.69069 0
      vertex -0.988853 -3.04338 0
      vertex -0.525329 -1.6168 0
    endloop
  endfacet
  facet normal -0 0 -1
    outer loop
      vertex -0.525329 -1.6168 0
      vertex -0.988853 -3.04338 0
      vertex -0.849999 -1.47224 0
    endloop
  endfacet
  facet normal 0 0 -1
    outer loop
      vertex -1.88091 -2.58885 0
      vertex -0.849999 -1.47224 0
      vertex -0.988853 -3.04338 0
    endloop
  endfacet
  facet normal -0 0 -1
    outer loop
      vertex -0.849999 -1.47224 0
      vertex -1.88091 -2.58885 0
      vertex -1.13752 -1.26335 0
    endloop
  endfacet
  facet normal 0 0 -1
    outer loop
      vertex -2.58885 -1.88091 0
      vertex -1.13752 -1.26335 0
      vertex -1.88091 -2.58885 0
    endloop
  endfacet
  facet normal -0 0 -1
    outer loop
      vertex -1.13752 -1.26335 0
      vertex -2.58885 -1.88091 0
      vertex -1.37533 -0.999234 0
    endloop
  endfacet
  facet normal 0 0 -1
    outer loop
      vertex -3.04338 -0.988853 0
      vertex -1.55303 -0.691452 0
      vertex -2.58885 -1.88091 0
    endloop
  endfacet
  facet normal -0 0 -1
    outer loop
      vertex -1.37533 -0.999234 0
      vertex -2.58885 -1.88091 0
      vertex -1.55303 -0.691452 0
    endloop
  endfacet
  facet normal -0 0 -1
    outer loop
      vertex 3.04338 0.988853 0
      vertex 1.55303 0.691452 0
      vertex 2.58885 1.88091 0
    endloop
  endfacet
  facet normal 0 0 -1
    outer loop
      vertex 1.37533 0.999234 0
      vertex 2.58885 1.88091 0
      vertex 1.55303 0.691452 0
    endloop
  endfacet
  facet normal 0 0 -1
    outer loop
      vertex 1.13752 1.26335 0
      vertex 2.58885 1.88091 0
      vertex 1.37533 0.999234 0
    endloop
  endfacet
  facet normal -0 0 -1
    outer loop
      vertex 2.58885 1.88091 0
      vertex 1.13752 1.26335 0
      vertex 1.88091 2.58885 0
    endloop
  endfacet
  facet normal 0 0 -1
    outer loop
      vertex 0.849999 1.47224 0
      vertex 1.88091 2.58885 0
      vertex 1.13752 1.26335 0
    endloop
  endfacet
  facet normal -0 0 -1
    outer loop
      vertex 1.88091 2.58885 0
      vertex 0.849999 1.47224 0
      vertex 0.988853 3.04338 0
    endloop
  endfacet
  facet normal 0 0 -1
    outer loop
      vertex 0.525329 1.6168 0
      vertex 0.988853 3.04338 0
      vertex 0.849999 1.47224 0
    endloop
  endfacet
  facet normal 0 0 -1
    outer loop
      vertex 0.177698 1.69069 0
      vertex 0.988853 3.04338 0
      vertex 0.525329 1.6168 0
    endloop
  endfacet
  facet normal 0 0 -1
    outer loop
      vertex 0.177698 1.69069 0
      vertex 0 3.2 0
      vertex 0.988853 3.04338 0
    endloop
  endfacet
  facet normal 0 0 -1
    outer loop
      vertex -0.177698 1.69069 0
      vertex 0 3.2 0
      vertex 0.177698 1.69069 0
    endloop
  endfacet
  facet normal 0 0 -1
    outer loop
      vertex -0.988853 3.04338 0
      vertex -0.177698 1.69069 0
      vertex -0.525329 1.6168 0
    endloop
  endfacet
  facet normal 0 0 -1
    outer loop
      vertex -0.988853 3.04338 0
      vertex -0.525329 1.6168 0
      vertex -0.849999 1.47224 0
    endloop
  endfacet
  facet normal 0 0 -1
    outer loop
      vertex -0.177698 1.69069 0
      vertex -0.988853 3.04338 0
      vertex 0 3.2 0
    endloop
  endfacet
  facet normal 0 0 -1
    outer loop
      vertex -1.88091 2.58885 0
      vertex -0.849999 1.47224 0
      vertex -1.13752 1.26335 0
    endloop
  endfacet
  facet normal 0 0 -1
    outer loop
      vertex -2.58885 1.88091 0
      vertex -1.13752 1.26335 0
      vertex -1.37533 0.999234 0
    endloop
  endfacet
  facet normal 0 0 -1
    outer loop
      vertex -2.58885 1.88091 0
      vertex -1.37533 0.999234 0
      vertex -1.55303 0.691452 0
    endloop
  endfacet
  facet normal 0 0 -1
    outer loop
      vertex -3.04338 0.988853 0
      vertex -1.55303 0.691452 0
      vertex -1.66285 0.35345 0
    endloop
  endfacet
  facet normal 0 0 -1
    outer loop
      vertex -0.849999 1.47224 0
      vertex -1.88091 2.58885 0
      vertex -0.988853 3.04338 0
    endloop
  endfacet
  facet normal 0 0 -1
    outer loop
      vertex -3.2 0 0
      vertex -1.66285 0.35345 0
      vertex -1.7 0 0
    endloop
  endfacet
  facet normal -0 0 -1
    outer loop
      vertex -1.55303 -0.691452 0
      vertex -3.04338 -0.988853 0
      vertex -1.66285 -0.35345 0
    endloop
  endfacet
  facet normal 0 0 -1
    outer loop
      vertex -3.2 0 0
      vertex -1.66285 -0.35345 0
      vertex -3.04338 -0.988853 0
    endloop
  endfacet
  facet normal 0 0 -1
    outer loop
      vertex -1.13752 1.26335 0
      vertex -2.58885 1.88091 0
      vertex -1.88091 2.58885 0
    endloop
  endfacet
  facet normal 0 0 -1
    outer loop
      vertex -1.66285 -0.35345 0
      vertex -3.2 0 0
      vertex -1.7 0 0
    endloop
  endfacet
  facet normal 0 0 -1
    outer loop
      vertex -1.55303 0.691452 0
      vertex -3.04338 0.988853 0
      vertex -2.58885 1.88091 0
    endloop
  endfacet
  facet normal -0 0 -1
    outer loop
      vertex -1.66285 0.35345 0
      vertex -3.2 0 0
      vertex -3.04338 0.988853 0
    endloop
  endfacet
  facet normal 0.707107 0.707107 0
    outer loop
      vertex 2.58885 1.88091 5
      vertex 1.88091 2.58885 0
      vertex 1.88091 2.58885 5
    endloop
  endfacet
  facet normal 0.707107 0.707107 0
    outer loop
      vertex 1.88091 2.58885 0
      vertex 2.58885 1.88091 5
      vertex 2.58885 1.88091 0
    endloop
  endfacet
  facet normal 0.891005 0.453994 0
    outer loop
      vertex 3.04338 0.988853 5
      vertex 2.58885 1.88091 0
      vertex 2.58885 1.88091 5
    endloop
  endfacet
  facet normal 0.891005 0.453994 0
    outer loop
      vertex 2.58885 1.88091 0
      vertex 3.04338 0.988853 5
      vertex 3.04338 0.988853 0
    endloop
  endfacet
  facet normal 0.453994 0.891005 -0
    outer loop
      vertex 1.88091 2.58885 0
      vertex 0.988853 3.04338 5
      vertex 1.88091 2.58885 5
    endloop
  endfacet
  facet normal 0.453994 0.891005 0
    outer loop
      vertex 0.988853 3.04338 5
      vertex 1.88091 2.58885 0
      vertex 0.988853 3.04338 0
    endloop
  endfacet
  facet normal -0.453994 0.891005 0
    outer loop
      vertex -0.988853 3.04338 0
      vertex -1.88091 2.58885 5
      vertex -0.988853 3.04338 5
    endloop
  endfacet
  facet normal -0.453994 0.891005 0
    outer loop
      vertex -1.88091 2.58885 5
      vertex -0.988853 3.04338 0
      vertex -1.88091 2.58885 0
    endloop
  endfacet
  facet normal -0.707107 0.707107 0
    outer loop
      vertex -2.58885 1.88091 0
      vertex -1.88091 2.58885 5
      vertex -1.88091 2.58885 0
    endloop
  endfacet
  facet normal -0.707107 0.707107 0
    outer loop
      vertex -1.88091 2.58885 5
      vertex -2.58885 1.88091 0
      vertex -2.58885 1.88091 5
    endloop
  endfacet
  facet normal -0.156436 0.987688 0
    outer loop
      vertex 0 3.2 0
      vertex -0.988853 3.04338 5
      vertex 0 3.2 5
    endloop
  endfacet
  facet normal -0.156436 0.987688 0
    outer loop
      vertex -0.988853 3.04338 5
      vertex 0 3.2 0
      vertex -0.988853 3.04338 0
    endloop
  endfacet
  facet normal 0.891005 -0.453994 0
    outer loop
      vertex 2.58885 -1.88091 5
      vertex 3.04338 -0.988853 0
      vertex 3.04338 -0.988853 5
    endloop
  endfacet
  facet normal 0.891005 -0.453994 0
    outer loop
      vertex 3.04338 -0.988853 0
      vertex 2.58885 -1.88091 5
      vertex 2.58885 -1.88091 0
    endloop
  endfacet
  facet normal -0.707107 -0.707107 0
    outer loop
      vertex -1.88091 -2.58885 0
      vertex -2.58885 -1.88091 5
      vertex -2.58885 -1.88091 0
    endloop
  endfacet
  facet normal -0.707107 -0.707107 0
    outer loop
      vertex -2.58885 -1.88091 5
      vertex -1.88091 -2.58885 0
      vertex -1.88091 -2.58885 5
    endloop
  endfacet
  facet normal -0.987688 -0.156436 0
    outer loop
      vertex -3.04338 -0.988853 0
      vertex -3.2 0 5
      vertex -3.2 0 0
    endloop
  endfacet
  facet normal -0.987688 -0.156436 0
    outer loop
      vertex -3.2 0 5
      vertex -3.04338 -0.988853 0
      vertex -3.04338 -0.988853 5
    endloop
  endfacet
  facet normal -0.891005 0.453994 0
    outer loop
      vertex -3.04338 0.988853 0
      vertex -2.58885 1.88091 5
      vertex -2.58885 1.88091 0
    endloop
  endfacet
  facet normal -0.891005 0.453994 0
    outer loop
      vertex -2.58885 1.88091 5
      vertex -3.04338 0.988853 0
      vertex -3.04338 0.988853 5
    endloop
  endfacet
  facet normal -0 0 1
    outer loop
      vertex 1.66285 0.35345 5
      vertex 3.2 0 5
      vertex 3.04338 0.988853 5
    endloop
  endfacet
  facet normal 0 0 1
    outer loop
      vertex 1.55303 0.691452 5
      vertex 3.04338 0.988853 5
      vertex 2.58885 1.88091 5
    endloop
  endfacet
  facet normal 0 0 1
    outer loop
      vertex 3.2 0 5
      vertex 1.66285 0.35345 5
      vertex 1.7 0 5
    endloop
  endfacet
  facet normal 0 0 1
    outer loop
      vertex 1.13752 1.26335 5
      vertex 2.58885 1.88091 5
      vertex 1.88091 2.58885 5
    endloop
  endfacet
  facet normal 0 0 1
    outer loop
      vertex 1.66285 -0.35345 5
      vertex 3.2 0 5
      vertex 1.7 0 5
    endloop
  endfacet
  facet normal -0 0 1
    outer loop
      vertex 1.55303 -0.691452 5
      vertex 3.04338 -0.988853 5
      vertex 1.66285 -0.35345 5
    endloop
  endfacet
  facet normal 0 0 1
    outer loop
      vertex 3.2 0 5
      vertex 1.66285 -0.35345 5
      vertex 3.04338 -0.988853 5
    endloop
  endfacet
  facet normal 0 0 1
    outer loop
      vertex 3.04338 0.988853 5
      vertex 1.55303 0.691452 5
      vertex 1.66285 0.35345 5
    endloop
  endfacet
  facet normal 0 0 1
    outer loop
      vertex 2.58885 1.88091 5
      vertex 1.37533 0.999234 5
      vertex 1.55303 0.691452 5
    endloop
  endfacet
  facet normal 0 0 1
    outer loop
      vertex 2.58885 1.88091 5
      vertex 1.13752 1.26335 5
      vertex 1.37533 0.999234 5
    endloop
  endfacet
  facet normal 0 0 1
    outer loop
      vertex 0.849999 1.47224 5
      vertex 1.88091 2.58885 5
      vertex 0.988853 3.04338 5
    endloop
  endfacet
  facet normal 0 0 1
    outer loop
      vertex 1.88091 2.58885 5
      vertex 0.849999 1.47224 5
      vertex 1.13752 1.26335 5
    endloop
  endfacet
  facet normal 0 0 1
    outer loop
      vertex 0.988853 3.04338 5
      vertex 0.525329 1.6168 5
      vertex 0.849999 1.47224 5
    endloop
  endfacet
  facet normal 0 0 1
    outer loop
      vertex 0.988853 3.04338 5
      vertex 0.177698 1.69069 5
      vertex 0.525329 1.6168 5
    endloop
  endfacet
  facet normal 0 0 1
    outer loop
      vertex 0 3.2 5
      vertex 0.177698 1.69069 5
      vertex 0.988853 3.04338 5
    endloop
  endfacet
  facet normal 0 0 1
    outer loop
      vertex 0 3.2 5
      vertex -0.177698 1.69069 5
      vertex 0.177698 1.69069 5
    endloop
  endfacet
  facet normal -0 0 1
    outer loop
      vertex -0.988853 3.04338 5
      vertex -0.177698 1.69069 5
      vertex 0 3.2 5
    endloop
  endfacet
  facet normal 0 0 1
    outer loop
      vertex -0.177698 1.69069 5
      vertex -0.988853 3.04338 5
      vertex -0.525329 1.6168 5
    endloop
  endfacet
  facet normal 0 0 1
    outer loop
      vertex -0.525329 1.6168 5
      vertex -0.988853 3.04338 5
      vertex -0.849999 1.47224 5
    endloop
  endfacet
  facet normal -0 0 1
    outer loop
      vertex -1.88091 2.58885 5
      vertex -0.849999 1.47224 5
      vertex -0.988853 3.04338 5
    endloop
  endfacet
  facet normal 0 0 1
    outer loop
      vertex -0.849999 1.47224 5
      vertex -1.88091 2.58885 5
      vertex -1.13752 1.26335 5
    endloop
  endfacet
  facet normal -0 0 1
    outer loop
      vertex -2.58885 1.88091 5
      vertex -1.13752 1.26335 5
      vertex -1.88091 2.58885 5
    endloop
  endfacet
  facet normal 0 0 1
    outer loop
      vertex -1.13752 1.26335 5
      vertex -2.58885 1.88091 5
      vertex -1.37533 0.999234 5
    endloop
  endfacet
  facet normal -0 0 1
    outer loop
      vertex -3.04338 0.988853 5
      vertex -1.55303 0.691452 5
      vertex -2.58885 1.88091 5
    endloop
  endfacet
  facet normal 0 0 1
    outer loop
      vertex -1.37533 0.999234 5
      vertex -2.58885 1.88091 5
      vertex -1.55303 0.691452 5
    endloop
  endfacet
  facet normal 0 0 1
    outer loop
      vertex 3.04338 -0.988853 5
      vertex 1.55303 -0.691452 5
      vertex 2.58885 -1.88091 5
    endloop
  endfacet
  facet normal -0 0 1
    outer loop
      vertex 1.37533 -0.999234 5
      vertex 2.58885 -1.88091 5
      vertex 1.55303 -0.691452 5
    endloop
  endfacet
  facet normal -0 0 1
    outer loop
      vertex 1.13752 -1.26335 5
      vertex 2.58885 -1.88091 5
      vertex 1.37533 -0.999234 5
    endloop
  endfacet
  facet normal 0 0 1
    outer loop
      vertex 2.58885 -1.88091 5
      vertex 1.13752 -1.26335 5
      vertex 1.88091 -2.58885 5
    endloop
  endfacet
  facet normal -0 0 1
    outer loop
      vertex 0.849999 -1.47224 5
      vertex 1.88091 -2.58885 5
      vertex 1.13752 -1.26335 5
    endloop
  endfacet
  facet normal 0 0 1
    outer loop
      vertex 1.88091 -2.58885 5
      vertex 0.849999 -1.47224 5
      vertex 0.988853 -3.04338 5
    endloop
  endfacet
  facet normal -0 0 1
    outer loop
      vertex 0.525329 -1.6168 5
      vertex 0.988853 -3.04338 5
      vertex 0.849999 -1.47224 5
    endloop
  endfacet
  facet normal -0 0 1
    outer loop
      vertex 0.177698 -1.69069 5
      vertex 0.988853 -3.04338 5
      vertex 0.525329 -1.6168 5
    endloop
  endfacet
  facet normal 0 0 1
    outer loop
      vertex 0.177698 -1.69069 5
      vertex 0 -3.2 5
      vertex 0.988853 -3.04338 5
    endloop
  endfacet
  facet normal -0 0 1
    outer loop
      vertex -0.177698 -1.69069 5
      vertex 0 -3.2 5
      vertex 0.177698 -1.69069 5
    endloop
  endfacet
  facet normal 0 0 1
    outer loop
      vertex -0.988853 -3.04338 5
      vertex -0.177698 -1.69069 5
      vertex -0.525329 -1.6168 5
    endloop
  endfacet
  facet normal 0 0 1
    outer loop
      vertex -0.988853 -3.04338 5
      vertex -0.525329 -1.6168 5
      vertex -0.849999 -1.47224 5
    endloop
  endfacet
  facet normal 0 0 1
    outer loop
      vertex -0.177698 -1.69069 5
      vertex -0.988853 -3.04338 5
      vertex 0 -3.2 5
    endloop
  endfacet
  facet normal 0 0 1
    outer loop
      vertex -1.88091 -2.58885 5
      vertex -0.849999 -1.47224 5
      vertex -1.13752 -1.26335 5
    endloop
  endfacet
  facet normal 0 0 1
    outer loop
      vertex -2.58885 -1.88091 5
      vertex -1.13752 -1.26335 5
      vertex -1.37533 -0.999234 5
    endloop
  endfacet
  facet normal 0 0 1
    outer loop
      vertex -2.58885 -1.88091 5
      vertex -1.37533 -0.999234 5
      vertex -1.55303 -0.691452 5
    endloop
  endfacet
  facet normal 0 0 1
    outer loop
      vertex -3.04338 -0.988853 5
      vertex -1.55303 -0.691452 5
      vertex -1.66285 -0.35345 5
    endloop
  endfacet
  facet normal 0 0 1
    outer loop
      vertex -0.849999 -1.47224 5
      vertex -1.88091 -2.58885 5
      vertex -0.988853 -3.04338 5
    endloop
  endfacet
  facet normal -0 0 1
    outer loop
      vertex -3.2 0 5
      vertex -1.66285 -0.35345 5
      vertex -1.7 0 5
    endloop
  endfacet
  facet normal 0 0 1
    outer loop
      vertex -1.55303 0.691452 5
      vertex -3.04338 0.988853 5
      vertex -1.66285 0.35345 5
    endloop
  endfacet
  facet normal 0 0 1
    outer loop
      vertex -3.2 0 5
      vertex -1.66285 0.35345 5
      vertex -3.04338 0.988853 5
    endloop
  endfacet
  facet normal 0 0 1
    outer loop
      vertex -1.13752 -1.26335 5
      vertex -2.58885 -1.88091 5
      vertex -1.88091 -2.58885 5
    endloop
  endfacet
  facet normal 0 0 1
    outer loop
      vertex -1.66285 0.35345 5
      vertex -3.2 0 5
      vertex -1.7 0 5
    endloop
  endfacet
  facet normal 0 0 1
    outer loop
      vertex -1.55303 -0.691452 5
      vertex -3.04338 -0.988853 5
      vertex -2.58885 -1.88091 5
    endloop
  endfacet
  facet normal 0 0 1
    outer loop
      vertex -1.66285 -0.35345 5
      vertex -3.2 0 5
      vertex -3.04338 -0.988853 5
    endloop
  endfacet
  facet normal 0.987688 -0.156436 0
    outer loop
      vertex 3.04338 -0.988853 5
      vertex 3.2 0 0
      vertex 3.2 0 5
    endloop
  endfacet
  facet normal 0.987688 -0.156436 0
    outer loop
      vertex 3.2 0 0
      vertex 3.04338 -0.988853 5
      vertex 3.04338 -0.988853 0
    endloop
  endfacet
  facet normal 0.156436 -0.987688 0
    outer loop
      vertex 0 -3.2 0
      vertex 0.988853 -3.04338 5
      vertex 0 -3.2 5
    endloop
  endfacet
  facet normal 0.156436 -0.987688 0
    outer loop
      vertex 0.988853 -3.04338 5
      vertex 0 -3.2 0
      vertex 0.988853 -3.04338 0
    endloop
  endfacet
  facet normal 0.707107 -0.707107 0
    outer loop
      vertex 1.88091 -2.58885 5
      vertex 2.58885 -1.88091 0
      vertex 2.58885 -1.88091 5
    endloop
  endfacet
  facet normal 0.707107 -0.707107 0
    outer loop
      vertex 2.58885 -1.88091 0
      vertex 1.88091 -2.58885 5
      vertex 1.88091 -2.58885 0
    endloop
  endfacet
  facet normal -0.453994 -0.891005 0
    outer loop
      vertex -1.88091 -2.58885 0
      vertex -0.988853 -3.04338 5
      vertex -1.88091 -2.58885 5
    endloop
  endfacet
  facet normal -0.453994 -0.891005 -0
    outer loop
      vertex -0.988853 -3.04338 5
      vertex -1.88091 -2.58885 0
      vertex -0.988853 -3.04338 0
    endloop
  endfacet
  facet normal -0.891005 -0.453994 0
    outer loop
      vertex -2.58885 -1.88091 0
      vertex -3.04338 -0.988853 5
      vertex -3.04338 -0.988853 0
    endloop
  endfacet
  facet normal -0.891005 -0.453994 0
    outer loop
      vertex -3.04338 -0.988853 5
      vertex -2.58885 -1.88091 0
      vertex -2.58885 -1.88091 5
    endloop
  endfacet
  facet normal 0.453994 -0.891005 0
    outer loop
      vertex 0.988853 -3.04338 0
      vertex 1.88091 -2.58885 5
      vertex 0.988853 -3.04338 5
    endloop
  endfacet
  facet normal 0.453994 -0.891005 0
    outer loop
      vertex 1.88091 -2.58885 5
      vertex 0.988853 -3.04338 0
      vertex 1.88091 -2.58885 0
    endloop
  endfacet
  facet normal -0.156436 -0.987688 0
    outer loop
      vertex -0.988853 -3.04338 0
      vertex 0 -3.2 5
      vertex -0.988853 -3.04338 5
    endloop
  endfacet
  facet normal -0.156436 -0.987688 -0
    outer loop
      vertex 0 -3.2 5
      vertex -0.988853 -3.04338 0
      vertex 0 -3.2 0
    endloop
  endfacet
  facet normal -0.994522 -0.104531 0
    outer loop
      vertex 1.7 0 0
      vertex 1.66285 0.35345 5
      vertex 1.66285 0.35345 0
    endloop
  endfacet
  facet normal -0.994522 -0.104531 0
    outer loop
      vertex 1.66285 0.35345 5
      vertex 1.7 0 0
      vertex 1.7 0 5
    endloop
  endfacet
  facet normal 0.994522 -0.104531 0
    outer loop
      vertex -1.7 0 5
      vertex -1.66285 0.35345 0
      vertex -1.66285 0.35345 5
    endloop
  endfacet
  facet normal 0.994522 -0.104531 0
    outer loop
      vertex -1.66285 0.35345 0
      vertex -1.7 0 5
      vertex -1.7 0 0
    endloop
  endfacet
  facet normal 0 -1 0
    outer loop
      vertex -0.177698 1.69069 0
      vertex 0.177698 1.69069 5
      vertex -0.177698 1.69069 5
    endloop
  endfacet
  facet normal 0 -1 -0
    outer loop
      vertex 0.177698 1.69069 5
      vertex -0.177698 1.69069 0
      vertex 0.177698 1.69069 0
    endloop
  endfacet
  facet normal 0 1 -0
    outer loop
      vertex 0.177698 -1.69069 0
      vertex -0.177698 -1.69069 5
      vertex 0.177698 -1.69069 5
    endloop
  endfacet
  facet normal 0 1 0
    outer loop
      vertex -0.177698 -1.69069 5
      vertex 0.177698 -1.69069 0
      vertex -0.177698 -1.69069 0
    endloop
  endfacet
  facet normal -0.743146 -0.669129 0
    outer loop
      vertex 1.37533 0.999234 0
      vertex 1.13752 1.26335 5
      vertex 1.13752 1.26335 0
    endloop
  endfacet
  facet normal -0.743146 -0.669129 0
    outer loop
      vertex 1.13752 1.26335 5
      vertex 1.37533 0.999234 0
      vertex 1.37533 0.999234 5
    endloop
  endfacet
  facet normal -0.951059 -0.309008 0
    outer loop
      vertex 1.66285 0.35345 0
      vertex 1.55303 0.691452 5
      vertex 1.55303 0.691452 0
    endloop
  endfacet
  facet normal -0.951059 -0.309008 0
    outer loop
      vertex 1.55303 0.691452 5
      vertex 1.66285 0.35345 0
      vertex 1.66285 0.35345 5
    endloop
  endfacet
  facet normal 0.587774 -0.809025 0
    outer loop
      vertex -1.13752 1.26335 0
      vertex -0.849999 1.47224 5
      vertex -1.13752 1.26335 5
    endloop
  endfacet
  facet normal 0.587774 -0.809025 0
    outer loop
      vertex -0.849999 1.47224 5
      vertex -1.13752 1.26335 0
      vertex -0.849999 1.47224 0
    endloop
  endfacet
  facet normal 0.207908 -0.978148 0
    outer loop
      vertex -0.525329 1.6168 0
      vertex -0.177698 1.69069 5
      vertex -0.525329 1.6168 5
    endloop
  endfacet
  facet normal 0.207908 -0.978148 0
    outer loop
      vertex -0.177698 1.69069 5
      vertex -0.525329 1.6168 0
      vertex -0.177698 1.69069 0
    endloop
  endfacet
  facet normal -0.866023 0.500004 0
    outer loop
      vertex 1.37533 -0.999234 0
      vertex 1.55303 -0.691452 5
      vertex 1.55303 -0.691452 0
    endloop
  endfacet
  facet normal -0.866023 0.500004 0
    outer loop
      vertex 1.55303 -0.691452 5
      vertex 1.37533 -0.999234 0
      vertex 1.37533 -0.999234 5
    endloop
  endfacet
  facet normal -0.866023 -0.500004 0
    outer loop
      vertex 1.55303 0.691452 0
      vertex 1.37533 0.999234 5
      vertex 1.37533 0.999234 0
    endloop
  endfacet
  facet normal -0.866023 -0.500004 0
    outer loop
      vertex 1.37533 0.999234 5
      vertex 1.55303 0.691452 0
      vertex 1.55303 0.691452 5
    endloop
  endfacet
  facet normal -0.406754 -0.913538 0
    outer loop
      vertex 0.525329 1.6168 0
      vertex 0.849999 1.47224 5
      vertex 0.525329 1.6168 5
    endloop
  endfacet
  facet normal -0.406754 -0.913538 -0
    outer loop
      vertex 0.849999 1.47224 5
      vertex 0.525329 1.6168 0
      vertex 0.849999 1.47224 0
    endloop
  endfacet
  facet normal -0.207908 -0.978148 0
    outer loop
      vertex 0.177698 1.69069 0
      vertex 0.525329 1.6168 5
      vertex 0.177698 1.69069 5
    endloop
  endfacet
  facet normal -0.207908 -0.978148 -0
    outer loop
      vertex 0.525329 1.6168 5
      vertex 0.177698 1.69069 0
      vertex 0.525329 1.6168 0
    endloop
  endfacet
  facet normal -0.587774 -0.809025 0
    outer loop
      vertex 0.849999 1.47224 0
      vertex 1.13752 1.26335 5
      vertex 0.849999 1.47224 5
    endloop
  endfacet
  facet normal -0.587774 -0.809025 -0
    outer loop
      vertex 1.13752 1.26335 5
      vertex 0.849999 1.47224 0
      vertex 1.13752 1.26335 0
    endloop
  endfacet
  facet normal 0.866023 -0.500004 0
    outer loop
      vertex -1.55303 0.691452 5
      vertex -1.37533 0.999234 0
      vertex -1.37533 0.999234 5
    endloop
  endfacet
  facet normal 0.866023 -0.500004 0
    outer loop
      vertex -1.37533 0.999234 0
      vertex -1.55303 0.691452 5
      vertex -1.55303 0.691452 0
    endloop
  endfacet
  facet normal 0.743146 -0.669129 0
    outer loop
      vertex -1.37533 0.999234 5
      vertex -1.13752 1.26335 0
      vertex -1.13752 1.26335 5
    endloop
  endfacet
  facet normal 0.743146 -0.669129 0
    outer loop
      vertex -1.13752 1.26335 0
      vertex -1.37533 0.999234 5
      vertex -1.37533 0.999234 0
    endloop
  endfacet
  facet normal 0.951059 -0.309008 0
    outer loop
      vertex -1.66285 0.35345 5
      vertex -1.55303 0.691452 0
      vertex -1.55303 0.691452 5
    endloop
  endfacet
  facet normal 0.951059 -0.309008 0
    outer loop
      vertex -1.55303 0.691452 0
      vertex -1.66285 0.35345 5
      vertex -1.66285 0.35345 0
    endloop
  endfacet
  facet normal 0.406754 -0.913538 0
    outer loop
      vertex -0.849999 1.47224 0
      vertex -0.525329 1.6168 5
      vertex -0.849999 1.47224 5
    endloop
  endfacet
  facet normal 0.406754 -0.913538 0
    outer loop
      vertex -0.525329 1.6168 5
      vertex -0.849999 1.47224 0
      vertex -0.525329 1.6168 0
    endloop
  endfacet
  facet normal -0.587774 0.809025 0
    outer loop
      vertex 1.13752 -1.26335 0
      vertex 0.849999 -1.47224 5
      vertex 1.13752 -1.26335 5
    endloop
  endfacet
  facet normal -0.587774 0.809025 0
    outer loop
      vertex 0.849999 -1.47224 5
      vertex 1.13752 -1.26335 0
      vertex 0.849999 -1.47224 0
    endloop
  endfacet
  facet normal -0.743146 0.669129 0
    outer loop
      vertex 1.13752 -1.26335 0
      vertex 1.37533 -0.999234 5
      vertex 1.37533 -0.999234 0
    endloop
  endfacet
  facet normal -0.743146 0.669129 0
    outer loop
      vertex 1.37533 -0.999234 5
      vertex 1.13752 -1.26335 0
      vertex 1.13752 -1.26335 5
    endloop
  endfacet
  facet normal -0.951059 0.309008 0
    outer loop
      vertex 1.55303 -0.691452 0
      vertex 1.66285 -0.35345 5
      vertex 1.66285 -0.35345 0
    endloop
  endfacet
  facet normal -0.951059 0.309008 0
    outer loop
      vertex 1.66285 -0.35345 5
      vertex 1.55303 -0.691452 0
      vertex 1.55303 -0.691452 5
    endloop
  endfacet
  facet normal -0.994522 0.104531 0
    outer loop
      vertex 1.66285 -0.35345 0
      vertex 1.7 0 5
      vertex 1.7 0 0
    endloop
  endfacet
  facet normal -0.994522 0.104531 0
    outer loop
      vertex 1.7 0 5
      vertex 1.66285 -0.35345 0
      vertex 1.66285 -0.35345 5
    endloop
  endfacet
  facet normal 0.406754 0.913538 -0
    outer loop
      vertex -0.525329 -1.6168 0
      vertex -0.849999 -1.47224 5
      vertex -0.525329 -1.6168 5
    endloop
  endfacet
  facet normal 0.406754 0.913538 0
    outer loop
      vertex -0.849999 -1.47224 5
      vertex -0.525329 -1.6168 0
      vertex -0.849999 -1.47224 0
    endloop
  endfacet
  facet normal 0.866023 0.500004 0
    outer loop
      vertex -1.37533 -0.999234 5
      vertex -1.55303 -0.691452 0
      vertex -1.55303 -0.691452 5
    endloop
  endfacet
  facet normal 0.866023 0.500004 0
    outer loop
      vertex -1.55303 -0.691452 0
      vertex -1.37533 -0.999234 5
      vertex -1.37533 -0.999234 0
    endloop
  endfacet
  facet normal 0.207908 0.978148 -0
    outer loop
      vertex -0.177698 -1.69069 0
      vertex -0.525329 -1.6168 5
      vertex -0.177698 -1.69069 5
    endloop
  endfacet
  facet normal 0.207908 0.978148 0
    outer loop
      vertex -0.525329 -1.6168 5
      vertex -0.177698 -1.69069 0
      vertex -0.525329 -1.6168 0
    endloop
  endfacet
  facet normal 0.587774 0.809025 -0
    outer loop
      vertex -0.849999 -1.47224 0
      vertex -1.13752 -1.26335 5
      vertex -0.849999 -1.47224 5
    endloop
  endfacet
  facet normal 0.587774 0.809025 0
    outer loop
      vertex -1.13752 -1.26335 5
      vertex -0.849999 -1.47224 0
      vertex -1.13752 -1.26335 0
    endloop
  endfacet
  facet normal 0.743146 0.669129 0
    outer loop
      vertex -1.13752 -1.26335 5
      vertex -1.37533 -0.999234 0
      vertex -1.37533 -0.999234 5
    endloop
  endfacet
  facet normal 0.743146 0.669129 0
    outer loop
      vertex -1.37533 -0.999234 0
      vertex -1.13752 -1.26335 5
      vertex -1.13752 -1.26335 0
    endloop
  endfacet
  facet normal 0.951059 0.309008 0
    outer loop
      vertex -1.55303 -0.691452 5
      vertex -1.66285 -0.35345 0
      vertex -1.66285 -0.35345 5
    endloop
  endfacet
  facet normal 0.951059 0.309008 0
    outer loop
      vertex -1.66285 -0.35345 0
      vertex -1.55303 -0.691452 5
      vertex -1.55303 -0.691452 0
    endloop
  endfacet
  facet normal 0.994522 0.104531 0
    outer loop
      vertex -1.66285 -0.35345 5
      vertex -1.7 0 0
      vertex -1.7 0 5
    endloop
  endfacet
  facet normal 0.994522 0.104531 0
    outer loop
      vertex -1.7 0 0
      vertex -1.66285 -0.35345 5
      vertex -1.66285 -0.35345 0
    endloop
  endfacet
  facet normal -0.406754 0.913538 0
    outer loop
      vertex 0.849999 -1.47224 0
      vertex 0.525329 -1.6168 5
      vertex 0.849999 -1.47224 5
    endloop
  endfacet
  facet normal -0.406754 0.913538 0
    outer loop
      vertex 0.525329 -1.6168 5
      vertex 0.849999 -1.47224 0
      vertex 0.525329 -1.6168 0
    endloop
  endfacet
  facet normal -0.207908 0.978148 0
    outer loop
      vertex 0.525329 -1.6168 0
      vertex 0.177698 -1.69069 5
      vertex 0.525329 -1.6168 5
    endloop
  endfacet
  facet normal -0.207908 0.978148 0
    outer loop
      vertex 0.177698 -1.69069 5
      vertex 0.525329 -1.6168 0
      vertex 0.177698 -1.69069 0
    endloop
  endfacet
endsolid OpenSCAD_Model
