solid OpenSCAD_Model
  facet normal 0.987688 0.156434 0
    outer loop
      vertex 6.3 0 2.8
      vertex 5.99166 1.94681 0
      vertex 5.99166 1.94681 2.8
    endloop
  endfacet
  facet normal 0.987688 0.156434 0
    outer loop
      vertex 5.99166 1.94681 0
      vertex 6.3 0 2.8
      vertex 6.3 0 0
    endloop
  endfacet
  facet normal -0.987688 0.156434 0
    outer loop
      vertex -6.3 0 0
      vertex -5.99166 1.94681 2.8
      vertex -5.99166 1.94681 0
    endloop
  endfacet
  facet normal -0.987688 0.156434 0
    outer loop
      vertex -5.99166 1.94681 2.8
      vertex -6.3 0 0
      vertex -6.3 0 2.8
    endloop
  endfacet
  facet normal -0.156434 0.987688 0
    outer loop
      vertex 0 6.3 0
      vertex -1.94681 5.99166 2.8
      vertex 0 6.3 2.8
    endloop
  endfacet
  facet normal -0.156434 0.987688 0
    outer loop
      vertex -1.94681 5.99166 2.8
      vertex 0 6.3 0
      vertex -1.94681 5.99166 0
    endloop
  endfacet
  facet normal 0.156434 -0.987688 0
    outer loop
      vertex 0 -6.3 0
      vertex 1.94681 -5.99166 2.8
      vertex 0 -6.3 2.8
    endloop
  endfacet
  facet normal 0.156434 -0.987688 0
    outer loop
      vertex 1.94681 -5.99166 2.8
      vertex 0 -6.3 0
      vertex 1.94681 -5.99166 0
    endloop
  endfacet
  facet normal 0.45399 -0.891007 0
    outer loop
      vertex 1.94681 -5.99166 0
      vertex 3.70305 -5.09681 2.8
      vertex 1.94681 -5.99166 2.8
    endloop
  endfacet
  facet normal 0.45399 -0.891007 0
    outer loop
      vertex 3.70305 -5.09681 2.8
      vertex 1.94681 -5.99166 0
      vertex 3.70305 -5.09681 0
    endloop
  endfacet
  facet normal 0.707107 0.707107 0
    outer loop
      vertex 5.09681 3.70305 2.8
      vertex 3.70305 5.09681 0
      vertex 3.70305 5.09681 2.8
    endloop
  endfacet
  facet normal 0.707107 0.707107 0
    outer loop
      vertex 3.70305 5.09681 0
      vertex 5.09681 3.70305 2.8
      vertex 5.09681 3.70305 0
    endloop
  endfacet
  facet normal 0.891007 0.45399 0
    outer loop
      vertex 5.99166 1.94681 2.8
      vertex 5.09681 3.70305 0
      vertex 5.09681 3.70305 2.8
    endloop
  endfacet
  facet normal 0.891007 0.45399 0
    outer loop
      vertex 5.09681 3.70305 0
      vertex 5.99166 1.94681 2.8
      vertex 5.99166 1.94681 0
    endloop
  endfacet
  facet normal 0.45399 0.891007 -0
    outer loop
      vertex 3.70305 5.09681 0
      vertex 1.94681 5.99166 2.8
      vertex 3.70305 5.09681 2.8
    endloop
  endfacet
  facet normal 0.45399 0.891007 0
    outer loop
      vertex 1.94681 5.99166 2.8
      vertex 3.70305 5.09681 0
      vertex 1.94681 5.99166 0
    endloop
  endfacet
  facet normal -0.707107 0.707107 0
    outer loop
      vertex -5.09681 3.70305 0
      vertex -3.70305 5.09681 2.8
      vertex -3.70305 5.09681 0
    endloop
  endfacet
  facet normal -0.707107 0.707107 0
    outer loop
      vertex -3.70305 5.09681 2.8
      vertex -5.09681 3.70305 0
      vertex -5.09681 3.70305 2.8
    endloop
  endfacet
  facet normal -0.891007 0.45399 0
    outer loop
      vertex -5.99166 1.94681 0
      vertex -5.09681 3.70305 2.8
      vertex -5.09681 3.70305 0
    endloop
  endfacet
  facet normal -0.891007 0.45399 0
    outer loop
      vertex -5.09681 3.70305 2.8
      vertex -5.99166 1.94681 0
      vertex -5.99166 1.94681 2.8
    endloop
  endfacet
  facet normal 0 0 1
    outer loop
      vertex 4.3 0 2.8
      vertex 6.3 0 2.8
      vertex 5.99166 1.94681 2.8
    endloop
  endfacet
  facet normal 0 0 1
    outer loop
      vertex 3.87417 1.8657 2.8
      vertex 5.99166 1.94681 2.8
      vertex 5.09681 3.70305 2.8
    endloop
  endfacet
  facet normal 0 0 1
    outer loop
      vertex 6.3 0 2.8
      vertex 4.3 0 2.8
      vertex 5.99166 -1.94681 2.8
    endloop
  endfacet
  facet normal -0 0 1
    outer loop
      vertex 3.87417 -1.8657 2.8
      vertex 5.99166 -1.94681 2.8
      vertex 4.3 0 2.8
    endloop
  endfacet
  facet normal 0 0 1
    outer loop
      vertex 5.99166 1.94681 2.8
      vertex 3.87417 1.8657 2.8
      vertex 4.3 0 2.8
    endloop
  endfacet
  facet normal 0 0 1
    outer loop
      vertex 2.68101 3.36187 2.8
      vertex 5.09681 3.70305 2.8
      vertex 3.70305 5.09681 2.8
    endloop
  endfacet
  facet normal 0 0 1
    outer loop
      vertex 5.09681 3.70305 2.8
      vertex 2.68101 3.36187 2.8
      vertex 3.87417 1.8657 2.8
    endloop
  endfacet
  facet normal 0 0 1
    outer loop
      vertex 1.94681 5.99166 2.8
      vertex 2.68101 3.36187 2.8
      vertex 3.70305 5.09681 2.8
    endloop
  endfacet
  facet normal 0 0 1
    outer loop
      vertex 1.94681 5.99166 2.8
      vertex 0.95684 4.19219 2.8
      vertex 2.68101 3.36187 2.8
    endloop
  endfacet
  facet normal 0 0 1
    outer loop
      vertex 0 6.3 2.8
      vertex 0.95684 4.19219 2.8
      vertex 1.94681 5.99166 2.8
    endloop
  endfacet
  facet normal 0 0 1
    outer loop
      vertex 0 6.3 2.8
      vertex -0.95684 4.19219 2.8
      vertex 0.95684 4.19219 2.8
    endloop
  endfacet
  facet normal -0 0 1
    outer loop
      vertex -1.94681 5.99166 2.8
      vertex -0.95684 4.19219 2.8
      vertex 0 6.3 2.8
    endloop
  endfacet
  facet normal 0 0 1
    outer loop
      vertex -1.94681 5.99166 2.8
      vertex -2.68101 3.36187 2.8
      vertex -0.95684 4.19219 2.8
    endloop
  endfacet
  facet normal -0 0 1
    outer loop
      vertex -3.70305 5.09681 2.8
      vertex -2.68101 3.36187 2.8
      vertex -1.94681 5.99166 2.8
    endloop
  endfacet
  facet normal -0 0 1
    outer loop
      vertex -5.09681 3.70305 2.8
      vertex -2.68101 3.36187 2.8
      vertex -3.70305 5.09681 2.8
    endloop
  endfacet
  facet normal 0 0 1
    outer loop
      vertex -2.68101 3.36187 2.8
      vertex -5.09681 3.70305 2.8
      vertex -3.87417 1.8657 2.8
    endloop
  endfacet
  facet normal -0 0 1
    outer loop
      vertex -5.99166 1.94681 2.8
      vertex -3.87417 1.8657 2.8
      vertex -5.09681 3.70305 2.8
    endloop
  endfacet
  facet normal 0 0 1
    outer loop
      vertex 5.99166 -1.94681 2.8
      vertex 3.87417 -1.8657 2.8
      vertex 5.09681 -3.70305 2.8
    endloop
  endfacet
  facet normal -0 0 1
    outer loop
      vertex 2.68101 -3.36187 2.8
      vertex 5.09681 -3.70305 2.8
      vertex 3.87417 -1.8657 2.8
    endloop
  endfacet
  facet normal 0 0 1
    outer loop
      vertex 5.09681 -3.70305 2.8
      vertex 2.68101 -3.36187 2.8
      vertex 3.70305 -5.09681 2.8
    endloop
  endfacet
  facet normal 0 0 1
    outer loop
      vertex 2.68101 -3.36187 2.8
      vertex 1.94681 -5.99166 2.8
      vertex 3.70305 -5.09681 2.8
    endloop
  endfacet
  facet normal -0 0 1
    outer loop
      vertex 0.95684 -4.19219 2.8
      vertex 1.94681 -5.99166 2.8
      vertex 2.68101 -3.36187 2.8
    endloop
  endfacet
  facet normal 0 0 1
    outer loop
      vertex 0.95684 -4.19219 2.8
      vertex 0 -6.3 2.8
      vertex 1.94681 -5.99166 2.8
    endloop
  endfacet
  facet normal -0 0 1
    outer loop
      vertex -0.95684 -4.19219 2.8
      vertex 0 -6.3 2.8
      vertex 0.95684 -4.19219 2.8
    endloop
  endfacet
  facet normal 0 0 1
    outer loop
      vertex -0.95684 -4.19219 2.8
      vertex -1.94681 -5.99166 2.8
      vertex 0 -6.3 2.8
    endloop
  endfacet
  facet normal 0 0 1
    outer loop
      vertex -2.68101 -3.36187 2.8
      vertex -1.94681 -5.99166 2.8
      vertex -0.95684 -4.19219 2.8
    endloop
  endfacet
  facet normal 0 0 1
    outer loop
      vertex -2.68101 -3.36187 2.8
      vertex -3.70305 -5.09681 2.8
      vertex -1.94681 -5.99166 2.8
    endloop
  endfacet
  facet normal 0 0 1
    outer loop
      vertex -5.09681 -3.70305 2.8
      vertex -2.68101 -3.36187 2.8
      vertex -3.87417 -1.8657 2.8
    endloop
  endfacet
  facet normal 0 0 1
    outer loop
      vertex -5.99166 -1.94681 2.8
      vertex -3.87417 -1.8657 2.8
      vertex -4.3 0 2.8
    endloop
  endfacet
  facet normal 0 0 1
    outer loop
      vertex -3.87417 1.8657 2.8
      vertex -5.99166 1.94681 2.8
      vertex -4.3 0 2.8
    endloop
  endfacet
  facet normal 0 0 1
    outer loop
      vertex -2.68101 -3.36187 2.8
      vertex -5.09681 -3.70305 2.8
      vertex -3.70305 -5.09681 2.8
    endloop
  endfacet
  facet normal 0 0 1
    outer loop
      vertex -6.3 0 2.8
      vertex -4.3 0 2.8
      vertex -5.99166 1.94681 2.8
    endloop
  endfacet
  facet normal 0 0 1
    outer loop
      vertex -3.87417 -1.8657 2.8
      vertex -5.99166 -1.94681 2.8
      vertex -5.09681 -3.70305 2.8
    endloop
  endfacet
  facet normal 0 0 1
    outer loop
      vertex -4.3 0 2.8
      vertex -6.3 0 2.8
      vertex -5.99166 -1.94681 2.8
    endloop
  endfacet
  facet normal -0.45399 0.891007 0
    outer loop
      vertex -1.94681 5.99166 0
      vertex -3.70305 5.09681 2.8
      vertex -1.94681 5.99166 2.8
    endloop
  endfacet
  facet normal -0.45399 0.891007 0
    outer loop
      vertex -3.70305 5.09681 2.8
      vertex -1.94681 5.99166 0
      vertex -3.70305 5.09681 0
    endloop
  endfacet
  facet normal -0.707107 -0.707107 0
    outer loop
      vertex -3.70305 -5.09681 0
      vertex -5.09681 -3.70305 2.8
      vertex -5.09681 -3.70305 0
    endloop
  endfacet
  facet normal -0.707107 -0.707107 0
    outer loop
      vertex -5.09681 -3.70305 2.8
      vertex -3.70305 -5.09681 0
      vertex -3.70305 -5.09681 2.8
    endloop
  endfacet
  facet normal 0.891007 -0.45399 0
    outer loop
      vertex 5.09681 -3.70305 2.8
      vertex 5.99166 -1.94681 0
      vertex 5.99166 -1.94681 2.8
    endloop
  endfacet
  facet normal 0.891007 -0.45399 0
    outer loop
      vertex 5.99166 -1.94681 0
      vertex 5.09681 -3.70305 2.8
      vertex 5.09681 -3.70305 0
    endloop
  endfacet
  facet normal 0.156434 0.987688 -0
    outer loop
      vertex 1.94681 5.99166 0
      vertex 0 6.3 2.8
      vertex 1.94681 5.99166 2.8
    endloop
  endfacet
  facet normal 0.156434 0.987688 0
    outer loop
      vertex 0 6.3 2.8
      vertex 1.94681 5.99166 0
      vertex 0 6.3 0
    endloop
  endfacet
  facet normal 0.987688 -0.156434 0
    outer loop
      vertex 5.99166 -1.94681 2.8
      vertex 6.3 0 0
      vertex 6.3 0 2.8
    endloop
  endfacet
  facet normal 0.987688 -0.156434 0
    outer loop
      vertex 6.3 0 0
      vertex 5.99166 -1.94681 2.8
      vertex 5.99166 -1.94681 0
    endloop
  endfacet
  facet normal 0.707107 -0.707107 0
    outer loop
      vertex 3.70305 -5.09681 2.8
      vertex 5.09681 -3.70305 0
      vertex 5.09681 -3.70305 2.8
    endloop
  endfacet
  facet normal 0.707107 -0.707107 0
    outer loop
      vertex 5.09681 -3.70305 0
      vertex 3.70305 -5.09681 2.8
      vertex 3.70305 -5.09681 0
    endloop
  endfacet
  facet normal -0.45399 -0.891007 0
    outer loop
      vertex -3.70305 -5.09681 0
      vertex -1.94681 -5.99166 2.8
      vertex -3.70305 -5.09681 2.8
    endloop
  endfacet
  facet normal -0.45399 -0.891007 -0
    outer loop
      vertex -1.94681 -5.99166 2.8
      vertex -3.70305 -5.09681 0
      vertex -1.94681 -5.99166 0
    endloop
  endfacet
  facet normal 0 0 -1
    outer loop
      vertex 4.3 0 0
      vertex 6.3 0 0
      vertex 5.99166 -1.94681 0
    endloop
  endfacet
  facet normal 0 0 -1
    outer loop
      vertex 3.87417 -1.8657 0
      vertex 5.99166 -1.94681 0
      vertex 5.09681 -3.70305 0
    endloop
  endfacet
  facet normal 0 0 -1
    outer loop
      vertex 6.3 0 0
      vertex 4.3 0 0
      vertex 5.99166 1.94681 0
    endloop
  endfacet
  facet normal 0 0 -1
    outer loop
      vertex 3.87417 1.8657 0
      vertex 5.99166 1.94681 0
      vertex 4.3 0 0
    endloop
  endfacet
  facet normal 0 0 -1
    outer loop
      vertex 5.99166 -1.94681 0
      vertex 3.87417 -1.8657 0
      vertex 4.3 0 0
    endloop
  endfacet
  facet normal 0 0 -1
    outer loop
      vertex 2.68101 -3.36187 0
      vertex 5.09681 -3.70305 0
      vertex 3.70305 -5.09681 0
    endloop
  endfacet
  facet normal 0 0 -1
    outer loop
      vertex 5.09681 -3.70305 0
      vertex 2.68101 -3.36187 0
      vertex 3.87417 -1.8657 0
    endloop
  endfacet
  facet normal 0 0 -1
    outer loop
      vertex 1.94681 -5.99166 0
      vertex 2.68101 -3.36187 0
      vertex 3.70305 -5.09681 0
    endloop
  endfacet
  facet normal 0 0 -1
    outer loop
      vertex 1.94681 -5.99166 0
      vertex 0.95684 -4.19219 0
      vertex 2.68101 -3.36187 0
    endloop
  endfacet
  facet normal 0 0 -1
    outer loop
      vertex 0 -6.3 0
      vertex 0.95684 -4.19219 0
      vertex 1.94681 -5.99166 0
    endloop
  endfacet
  facet normal 0 0 -1
    outer loop
      vertex 0 -6.3 0
      vertex -0.95684 -4.19219 0
      vertex 0.95684 -4.19219 0
    endloop
  endfacet
  facet normal 0 0 -1
    outer loop
      vertex -1.94681 -5.99166 0
      vertex -0.95684 -4.19219 0
      vertex 0 -6.3 0
    endloop
  endfacet
  facet normal 0 0 -1
    outer loop
      vertex -1.94681 -5.99166 0
      vertex -2.68101 -3.36187 0
      vertex -0.95684 -4.19219 0
    endloop
  endfacet
  facet normal 0 0 -1
    outer loop
      vertex -3.70305 -5.09681 0
      vertex -2.68101 -3.36187 0
      vertex -1.94681 -5.99166 0
    endloop
  endfacet
  facet normal 0 0 -1
    outer loop
      vertex -5.09681 -3.70305 0
      vertex -2.68101 -3.36187 0
      vertex -3.70305 -5.09681 0
    endloop
  endfacet
  facet normal -0 0 -1
    outer loop
      vertex -2.68101 -3.36187 0
      vertex -5.09681 -3.70305 0
      vertex -3.87417 -1.8657 0
    endloop
  endfacet
  facet normal 0 0 -1
    outer loop
      vertex -5.99166 -1.94681 0
      vertex -3.87417 -1.8657 0
      vertex -5.09681 -3.70305 0
    endloop
  endfacet
  facet normal -0 0 -1
    outer loop
      vertex 5.99166 1.94681 0
      vertex 3.87417 1.8657 0
      vertex 5.09681 3.70305 0
    endloop
  endfacet
  facet normal 0 0 -1
    outer loop
      vertex 2.68101 3.36187 0
      vertex 5.09681 3.70305 0
      vertex 3.87417 1.8657 0
    endloop
  endfacet
  facet normal -0 0 -1
    outer loop
      vertex 5.09681 3.70305 0
      vertex 2.68101 3.36187 0
      vertex 3.70305 5.09681 0
    endloop
  endfacet
  facet normal 0 0 -1
    outer loop
      vertex 2.68101 3.36187 0
      vertex 1.94681 5.99166 0
      vertex 3.70305 5.09681 0
    endloop
  endfacet
  facet normal 0 0 -1
    outer loop
      vertex 0.95684 4.19219 0
      vertex 1.94681 5.99166 0
      vertex 2.68101 3.36187 0
    endloop
  endfacet
  facet normal 0 0 -1
    outer loop
      vertex 0.95684 4.19219 0
      vertex 0 6.3 0
      vertex 1.94681 5.99166 0
    endloop
  endfacet
  facet normal 0 0 -1
    outer loop
      vertex -0.95684 4.19219 0
      vertex 0 6.3 0
      vertex 0.95684 4.19219 0
    endloop
  endfacet
  facet normal 0 0 -1
    outer loop
      vertex -0.95684 4.19219 0
      vertex -1.94681 5.99166 0
      vertex 0 6.3 0
    endloop
  endfacet
  facet normal 0 0 -1
    outer loop
      vertex -2.68101 3.36187 0
      vertex -1.94681 5.99166 0
      vertex -0.95684 4.19219 0
    endloop
  endfacet
  facet normal 0 0 -1
    outer loop
      vertex -2.68101 3.36187 0
      vertex -3.70305 5.09681 0
      vertex -1.94681 5.99166 0
    endloop
  endfacet
  facet normal 0 0 -1
    outer loop
      vertex -5.09681 3.70305 0
      vertex -2.68101 3.36187 0
      vertex -3.87417 1.8657 0
    endloop
  endfacet
  facet normal 0 0 -1
    outer loop
      vertex -5.99166 1.94681 0
      vertex -3.87417 1.8657 0
      vertex -4.3 0 0
    endloop
  endfacet
  facet normal -0 0 -1
    outer loop
      vertex -3.87417 -1.8657 0
      vertex -5.99166 -1.94681 0
      vertex -4.3 0 0
    endloop
  endfacet
  facet normal 0 0 -1
    outer loop
      vertex -2.68101 3.36187 0
      vertex -5.09681 3.70305 0
      vertex -3.70305 5.09681 0
    endloop
  endfacet
  facet normal 0 0 -1
    outer loop
      vertex -6.3 0 0
      vertex -4.3 0 0
      vertex -5.99166 -1.94681 0
    endloop
  endfacet
  facet normal 0 0 -1
    outer loop
      vertex -3.87417 1.8657 0
      vertex -5.99166 1.94681 0
      vertex -5.09681 3.70305 0
    endloop
  endfacet
  facet normal 0 0 -1
    outer loop
      vertex -4.3 0 0
      vertex -6.3 0 0
      vertex -5.99166 1.94681 0
    endloop
  endfacet
  facet normal -0.156434 -0.987688 0
    outer loop
      vertex -1.94681 -5.99166 0
      vertex 0 -6.3 2.8
      vertex -1.94681 -5.99166 2.8
    endloop
  endfacet
  facet normal -0.156434 -0.987688 -0
    outer loop
      vertex 0 -6.3 2.8
      vertex -1.94681 -5.99166 0
      vertex 0 -6.3 0
    endloop
  endfacet
  facet normal -0.891007 -0.45399 0
    outer loop
      vertex -5.09681 -3.70305 0
      vertex -5.99166 -1.94681 2.8
      vertex -5.99166 -1.94681 0
    endloop
  endfacet
  facet normal -0.891007 -0.45399 0
    outer loop
      vertex -5.99166 -1.94681 2.8
      vertex -5.09681 -3.70305 0
      vertex -5.09681 -3.70305 2.8
    endloop
  endfacet
  facet normal -0.987688 -0.156434 0
    outer loop
      vertex -5.99166 -1.94681 0
      vertex -6.3 0 2.8
      vertex -6.3 0 0
    endloop
  endfacet
  facet normal -0.987688 -0.156434 0
    outer loop
      vertex -6.3 0 2.8
      vertex -5.99166 -1.94681 0
      vertex -5.99166 -1.94681 2.8
    endloop
  endfacet
  facet normal -0.974928 -0.222521 0
    outer loop
      vertex 4.3 0 0
      vertex 3.87417 1.8657 2.8
      vertex 3.87417 1.8657 0
    endloop
  endfacet
  facet normal -0.974928 -0.222521 0
    outer loop
      vertex 3.87417 1.8657 2.8
      vertex 4.3 0 0
      vertex 4.3 0 2.8
    endloop
  endfacet
  facet normal 0.974928 -0.222521 0
    outer loop
      vertex -4.3 0 2.8
      vertex -3.87417 1.8657 0
      vertex -3.87417 1.8657 2.8
    endloop
  endfacet
  facet normal 0.974928 -0.222521 0
    outer loop
      vertex -3.87417 1.8657 0
      vertex -4.3 0 2.8
      vertex -4.3 0 0
    endloop
  endfacet
  facet normal 0 -1 0
    outer loop
      vertex -0.95684 4.19219 0
      vertex 0.95684 4.19219 2.8
      vertex -0.95684 4.19219 2.8
    endloop
  endfacet
  facet normal 0 -1 -0
    outer loop
      vertex 0.95684 4.19219 2.8
      vertex -0.95684 4.19219 0
      vertex 0.95684 4.19219 0
    endloop
  endfacet
  facet normal 0 1 -0
    outer loop
      vertex 0.95684 -4.19219 0
      vertex -0.95684 -4.19219 2.8
      vertex 0.95684 -4.19219 2.8
    endloop
  endfacet
  facet normal 0 1 0
    outer loop
      vertex -0.95684 -4.19219 2.8
      vertex 0.95684 -4.19219 0
      vertex -0.95684 -4.19219 0
    endloop
  endfacet
  facet normal -0.433884 0.900969 0
    outer loop
      vertex 2.68101 -3.36187 0
      vertex 0.95684 -4.19219 2.8
      vertex 2.68101 -3.36187 2.8
    endloop
  endfacet
  facet normal -0.433884 0.900969 0
    outer loop
      vertex 0.95684 -4.19219 2.8
      vertex 2.68101 -3.36187 0
      vertex 0.95684 -4.19219 0
    endloop
  endfacet
  facet normal -0.433884 -0.900969 0
    outer loop
      vertex 0.95684 4.19219 0
      vertex 2.68101 3.36187 2.8
      vertex 0.95684 4.19219 2.8
    endloop
  endfacet
  facet normal -0.433884 -0.900969 -0
    outer loop
      vertex 2.68101 3.36187 2.8
      vertex 0.95684 4.19219 0
      vertex 2.68101 3.36187 0
    endloop
  endfacet
  facet normal -0.781831 -0.62349 0
    outer loop
      vertex 3.87417 1.8657 0
      vertex 2.68101 3.36187 2.8
      vertex 2.68101 3.36187 0
    endloop
  endfacet
  facet normal -0.781831 -0.62349 0
    outer loop
      vertex 2.68101 3.36187 2.8
      vertex 3.87417 1.8657 0
      vertex 3.87417 1.8657 2.8
    endloop
  endfacet
  facet normal 0.781831 -0.62349 0
    outer loop
      vertex -3.87417 1.8657 2.8
      vertex -2.68101 3.36187 0
      vertex -2.68101 3.36187 2.8
    endloop
  endfacet
  facet normal 0.781831 -0.62349 0
    outer loop
      vertex -2.68101 3.36187 0
      vertex -3.87417 1.8657 2.8
      vertex -3.87417 1.8657 0
    endloop
  endfacet
  facet normal 0.433884 -0.900969 0
    outer loop
      vertex -2.68101 3.36187 0
      vertex -0.95684 4.19219 2.8
      vertex -2.68101 3.36187 2.8
    endloop
  endfacet
  facet normal 0.433884 -0.900969 0
    outer loop
      vertex -0.95684 4.19219 2.8
      vertex -2.68101 3.36187 0
      vertex -0.95684 4.19219 0
    endloop
  endfacet
  facet normal 0.974928 0.222521 0
    outer loop
      vertex -3.87417 -1.8657 2.8
      vertex -4.3 0 0
      vertex -4.3 0 2.8
    endloop
  endfacet
  facet normal 0.974928 0.222521 0
    outer loop
      vertex -4.3 0 0
      vertex -3.87417 -1.8657 2.8
      vertex -3.87417 -1.8657 0
    endloop
  endfacet
  facet normal -0.781831 0.62349 0
    outer loop
      vertex 2.68101 -3.36187 0
      vertex 3.87417 -1.8657 2.8
      vertex 3.87417 -1.8657 0
    endloop
  endfacet
  facet normal -0.781831 0.62349 0
    outer loop
      vertex 3.87417 -1.8657 2.8
      vertex 2.68101 -3.36187 0
      vertex 2.68101 -3.36187 2.8
    endloop
  endfacet
  facet normal -0.974928 0.222521 0
    outer loop
      vertex 3.87417 -1.8657 0
      vertex 4.3 0 2.8
      vertex 4.3 0 0
    endloop
  endfacet
  facet normal -0.974928 0.222521 0
    outer loop
      vertex 4.3 0 2.8
      vertex 3.87417 -1.8657 0
      vertex 3.87417 -1.8657 2.8
    endloop
  endfacet
  facet normal 0.433884 0.900969 -0
    outer loop
      vertex -0.95684 -4.19219 0
      vertex -2.68101 -3.36187 2.8
      vertex -0.95684 -4.19219 2.8
    endloop
  endfacet
  facet normal 0.433884 0.900969 0
    outer loop
      vertex -2.68101 -3.36187 2.8
      vertex -0.95684 -4.19219 0
      vertex -2.68101 -3.36187 0
    endloop
  endfacet
  facet normal 0.781831 0.62349 0
    outer loop
      vertex -2.68101 -3.36187 2.8
      vertex -3.87417 -1.8657 0
      vertex -3.87417 -1.8657 2.8
    endloop
  endfacet
  facet normal 0.781831 0.62349 0
    outer loop
      vertex -3.87417 -1.8657 0
      vertex -2.68101 -3.36187 2.8
      vertex -2.68101 -3.36187 0
    endloop
  endfacet
endsolid OpenSCAD_Model
