solid OpenSCAD_Model
  facet normal 0.809016 -1.30515e-16 0.587786
    outer loop
      vertex -60 -7 2.22045e-16
      vertex -58.9635 -4.5 -1.42658
      vertex -60 -4.5 7.77156e-16
    endloop
  endfacet
  facet normal 0.809016 0 0.587786
    outer loop
      vertex -58.9635 -4.5 -1.42658
      vertex -60 -7 2.22045e-16
      vertex -58.9635 -7 -1.42658
    endloop
  endfacet
  facet normal -1 0 0
    outer loop
      vertex -57.2865 -7 -0.881678
      vertex -57.2865 -4.5 0.881678
      vertex -57.2865 -4.5 -0.881678
    endloop
  endfacet
  facet normal -1 -0 0
    outer loop
      vertex -57.2865 -4.5 0.881678
      vertex -57.2865 -7 -0.881678
      vertex -57.2865 -7 0.881678
    endloop
  endfacet
  facet normal -0.309017 0 0.951056
    outer loop
      vertex -58.9635 -4.5 -1.42658
      vertex -57.2865 -7 -0.881678
      vertex -57.2865 -4.5 -0.881678
    endloop
  endfacet
  facet normal -0.309017 0 0.951056
    outer loop
      vertex -57.2865 -7 -0.881678
      vertex -58.9635 -4.5 -1.42658
      vertex -58.9635 -7 -1.42658
    endloop
  endfacet
  facet normal 0.809016 0 -0.587786
    outer loop
      vertex -58.9635 -7 1.42658
      vertex -60 -4.5 7.77156e-16
      vertex -58.9635 -4.5 1.42658
    endloop
  endfacet
  facet normal 0.809016 1.30515e-16 -0.587786
    outer loop
      vertex -60 -4.5 7.77156e-16
      vertex -58.9635 -7 1.42658
      vertex -60 -7 2.22045e-16
    endloop
  endfacet
  facet normal -0.309017 0 -0.951056
    outer loop
      vertex -58.9635 -7 1.42658
      vertex -57.2865 -4.5 0.881678
      vertex -57.2865 -7 0.881678
    endloop
  endfacet
  facet normal -0.309017 0 -0.951056
    outer loop
      vertex -57.2865 -4.5 0.881678
      vertex -58.9635 -7 1.42658
      vertex -58.9635 -4.5 1.42658
    endloop
  endfacet
  facet normal 0.951056 -6.86156e-17 0.309017
    outer loop
      vertex -61.65 -4.5 7.77156e-16
      vertex -61.0484 0 -1.85152
      vertex -61.65 0 1.77636e-15
    endloop
  endfacet
  facet normal 0.951056 0 0.309017
    outer loop
      vertex -61.0484 0 -1.85152
      vertex -61.65 -4.5 7.77156e-16
      vertex -61.0484 -4.5 -1.85152
    endloop
  endfacet
  facet normal -0.951056 0 0.309017
    outer loop
      vertex -55.9516 -4.5 -1.85152
      vertex -55.35 0 1.77636e-15
      vertex -55.9516 0 -1.85152
    endloop
  endfacet
  facet normal -0.951056 -6.86156e-17 0.309017
    outer loop
      vertex -55.35 0 1.77636e-15
      vertex -55.9516 -4.5 -1.85152
      vertex -55.35 -4.5 7.77156e-16
    endloop
  endfacet
  facet normal -0 0 1
    outer loop
      vertex -59.4734 0 -2.99583
      vertex -57.5266 -4.5 -2.99583
      vertex -57.5266 0 -2.99583
    endloop
  endfacet
  facet normal 0 0 1
    outer loop
      vertex -57.5266 -4.5 -2.99583
      vertex -59.4734 0 -2.99583
      vertex -59.4734 -4.5 -2.99583
    endloop
  endfacet
  facet normal 0.587786 0 0.809017
    outer loop
      vertex -61.0484 0 -1.85152
      vertex -59.4734 -4.5 -2.99583
      vertex -59.4734 0 -2.99583
    endloop
  endfacet
  facet normal 0.587786 0 0.809017
    outer loop
      vertex -59.4734 -4.5 -2.99583
      vertex -61.0484 0 -1.85152
      vertex -61.0484 -4.5 -1.85152
    endloop
  endfacet
  facet normal -0.587785 0 0.809017
    outer loop
      vertex -57.5266 0 -2.99583
      vertex -55.9516 -4.5 -1.85152
      vertex -55.9516 0 -1.85152
    endloop
  endfacet
  facet normal -0.587785 0 0.809017
    outer loop
      vertex -55.9516 -4.5 -1.85152
      vertex -57.5266 0 -2.99583
      vertex -57.5266 -4.5 -2.99583
    endloop
  endfacet
  facet normal 0.951056 0 -0.309017
    outer loop
      vertex -61.0484 -4.5 1.85152
      vertex -61.65 0 1.77636e-15
      vertex -61.0484 0 1.85152
    endloop
  endfacet
  facet normal 0.951056 6.86156e-17 -0.309017
    outer loop
      vertex -61.65 0 1.77636e-15
      vertex -61.0484 -4.5 1.85152
      vertex -61.65 -4.5 7.77156e-16
    endloop
  endfacet
  facet normal 0 1 -0
    outer loop
      vertex -57.2865 -4.5 0.881678
      vertex -57.5266 -4.5 2.99583
      vertex -55.9516 -4.5 1.85152
    endloop
  endfacet
  facet normal 0 1 0
    outer loop
      vertex -57.5266 -4.5 2.99583
      vertex -58.9635 -4.5 1.42658
      vertex -59.4734 -4.5 2.99583
    endloop
  endfacet
  facet normal 0 1 0
    outer loop
      vertex -59.4734 -4.5 2.99583
      vertex -58.9635 -4.5 1.42658
      vertex -61.0484 -4.5 1.85152
    endloop
  endfacet
  facet normal 0 1 0
    outer loop
      vertex -57.5266 -4.5 2.99583
      vertex -57.2865 -4.5 0.881678
      vertex -58.9635 -4.5 1.42658
    endloop
  endfacet
  facet normal 0 1 0
    outer loop
      vertex -55.35 -4.5 7.77156e-16
      vertex -57.2865 -4.5 0.881678
      vertex -55.9516 -4.5 1.85152
    endloop
  endfacet
  facet normal 0 1 0
    outer loop
      vertex -55.35 -4.5 7.77156e-16
      vertex -57.2865 -4.5 -0.881678
      vertex -57.2865 -4.5 0.881678
    endloop
  endfacet
  facet normal 0 1 0
    outer loop
      vertex -57.5266 -4.5 -2.99583
      vertex -57.2865 -4.5 -0.881678
      vertex -55.9516 -4.5 -1.85152
    endloop
  endfacet
  facet normal 0 1 -0
    outer loop
      vertex -55.9516 -4.5 -1.85152
      vertex -57.2865 -4.5 -0.881678
      vertex -55.35 -4.5 7.77156e-16
    endloop
  endfacet
  facet normal 0 1 -0
    outer loop
      vertex -60 -4.5 7.77156e-16
      vertex -61.0484 -4.5 1.85152
      vertex -58.9635 -4.5 1.42658
    endloop
  endfacet
  facet normal 0 1 0
    outer loop
      vertex -60 -4.5 7.77156e-16
      vertex -61.65 -4.5 7.77156e-16
      vertex -61.0484 -4.5 1.85152
    endloop
  endfacet
  facet normal 0 1 0
    outer loop
      vertex -61.0484 -4.5 -1.85152
      vertex -60 -4.5 7.77156e-16
      vertex -58.9635 -4.5 -1.42658
    endloop
  endfacet
  facet normal 0 1 0
    outer loop
      vertex -60 -4.5 7.77156e-16
      vertex -61.0484 -4.5 -1.85152
      vertex -61.65 -4.5 7.77156e-16
    endloop
  endfacet
  facet normal 0 1 0
    outer loop
      vertex -57.2865 -4.5 -0.881678
      vertex -57.5266 -4.5 -2.99583
      vertex -58.9635 -4.5 -1.42658
    endloop
  endfacet
  facet normal 0 1 0
    outer loop
      vertex -59.4734 -4.5 -2.99583
      vertex -58.9635 -4.5 -1.42658
      vertex -57.5266 -4.5 -2.99583
    endloop
  endfacet
  facet normal 0 1 0
    outer loop
      vertex -58.9635 -4.5 -1.42658
      vertex -59.4734 -4.5 -2.99583
      vertex -61.0484 -4.5 -1.85152
    endloop
  endfacet
  facet normal -0.951056 6.86156e-17 -0.309017
    outer loop
      vertex -55.35 -4.5 7.77156e-16
      vertex -55.9516 0 1.85152
      vertex -55.35 0 1.77636e-15
    endloop
  endfacet
  facet normal -0.951056 -0 -0.309017
    outer loop
      vertex -55.9516 0 1.85152
      vertex -55.35 -4.5 7.77156e-16
      vertex -55.9516 -4.5 1.85152
    endloop
  endfacet
  facet normal 0.587786 0 -0.809017
    outer loop
      vertex -61.0484 -4.5 1.85152
      vertex -59.4734 0 2.99583
      vertex -59.4734 -4.5 2.99583
    endloop
  endfacet
  facet normal 0.587786 0 -0.809017
    outer loop
      vertex -59.4734 0 2.99583
      vertex -61.0484 -4.5 1.85152
      vertex -61.0484 0 1.85152
    endloop
  endfacet
  facet normal 0 0 -1
    outer loop
      vertex -59.4734 -4.5 2.99583
      vertex -57.5266 0 2.99583
      vertex -57.5266 -4.5 2.99583
    endloop
  endfacet
  facet normal -0 0 -1
    outer loop
      vertex -57.5266 0 2.99583
      vertex -59.4734 -4.5 2.99583
      vertex -59.4734 0 2.99583
    endloop
  endfacet
  facet normal -0.587785 0 -0.809017
    outer loop
      vertex -57.5266 -4.5 2.99583
      vertex -55.9516 0 1.85152
      vertex -55.9516 -4.5 1.85152
    endloop
  endfacet
  facet normal -0.587785 0 -0.809017
    outer loop
      vertex -55.9516 0 1.85152
      vertex -57.5266 -4.5 2.99583
      vertex -57.5266 0 2.99583
    endloop
  endfacet
  facet normal -0.809016 0 0.587786
    outer loop
      vertex 58.9635 -7 -1.42658
      vertex 60 -4.5 7.77156e-16
      vertex 58.9635 -4.5 -1.42658
    endloop
  endfacet
  facet normal -0.809016 -1.30515e-16 0.587786
    outer loop
      vertex 60 -4.5 7.77156e-16
      vertex 58.9635 -7 -1.42658
      vertex 60 -7 2.22045e-16
    endloop
  endfacet
  facet normal 1 -0 0
    outer loop
      vertex 57.2865 -7 0.881678
      vertex 57.2865 -4.5 -0.881678
      vertex 57.2865 -4.5 0.881678
    endloop
  endfacet
  facet normal 1 0 0
    outer loop
      vertex 57.2865 -4.5 -0.881678
      vertex 57.2865 -7 0.881678
      vertex 57.2865 -7 -0.881678
    endloop
  endfacet
  facet normal 0.309017 0 0.951056
    outer loop
      vertex 57.2865 -4.5 -0.881678
      vertex 58.9635 -7 -1.42658
      vertex 58.9635 -4.5 -1.42658
    endloop
  endfacet
  facet normal 0.309017 0 0.951056
    outer loop
      vertex 58.9635 -7 -1.42658
      vertex 57.2865 -4.5 -0.881678
      vertex 57.2865 -7 -0.881678
    endloop
  endfacet
  facet normal -0.809016 1.30515e-16 -0.587786
    outer loop
      vertex 60 -7 2.22045e-16
      vertex 58.9635 -4.5 1.42658
      vertex 60 -4.5 7.77156e-16
    endloop
  endfacet
  facet normal -0.809016 -0 -0.587786
    outer loop
      vertex 58.9635 -4.5 1.42658
      vertex 60 -7 2.22045e-16
      vertex 58.9635 -7 1.42658
    endloop
  endfacet
  facet normal 0.309017 0 -0.951056
    outer loop
      vertex 57.2865 -7 0.881678
      vertex 58.9635 -4.5 1.42658
      vertex 58.9635 -7 1.42658
    endloop
  endfacet
  facet normal 0.309017 0 -0.951056
    outer loop
      vertex 58.9635 -4.5 1.42658
      vertex 57.2865 -7 0.881678
      vertex 57.2865 -4.5 0.881678
    endloop
  endfacet
  facet normal -0.951056 0 0.309017
    outer loop
      vertex 61.0484 -4.5 -1.85152
      vertex 61.65 0 1.77636e-15
      vertex 61.0484 0 -1.85152
    endloop
  endfacet
  facet normal -0.951056 -6.86156e-17 0.309017
    outer loop
      vertex 61.65 0 1.77636e-15
      vertex 61.0484 -4.5 -1.85152
      vertex 61.65 -4.5 7.77156e-16
    endloop
  endfacet
  facet normal 0.951056 -6.86156e-17 0.309017
    outer loop
      vertex 55.35 -4.5 7.77156e-16
      vertex 55.9516 0 -1.85152
      vertex 55.35 0 1.77636e-15
    endloop
  endfacet
  facet normal 0.951056 0 0.309017
    outer loop
      vertex 55.9516 0 -1.85152
      vertex 55.35 -4.5 7.77156e-16
      vertex 55.9516 -4.5 -1.85152
    endloop
  endfacet
  facet normal -0 0 1
    outer loop
      vertex 57.5266 0 -2.99583
      vertex 59.4734 -4.5 -2.99583
      vertex 59.4734 0 -2.99583
    endloop
  endfacet
  facet normal 0 0 1
    outer loop
      vertex 59.4734 -4.5 -2.99583
      vertex 57.5266 0 -2.99583
      vertex 57.5266 -4.5 -2.99583
    endloop
  endfacet
  facet normal -0.587786 0 0.809017
    outer loop
      vertex 59.4734 0 -2.99583
      vertex 61.0484 -4.5 -1.85152
      vertex 61.0484 0 -1.85152
    endloop
  endfacet
  facet normal -0.587786 0 0.809017
    outer loop
      vertex 61.0484 -4.5 -1.85152
      vertex 59.4734 0 -2.99583
      vertex 59.4734 -4.5 -2.99583
    endloop
  endfacet
  facet normal 0.587785 0 0.809017
    outer loop
      vertex 55.9516 0 -1.85152
      vertex 57.5266 -4.5 -2.99583
      vertex 57.5266 0 -2.99583
    endloop
  endfacet
  facet normal 0.587785 0 0.809017
    outer loop
      vertex 57.5266 -4.5 -2.99583
      vertex 55.9516 0 -1.85152
      vertex 55.9516 -4.5 -1.85152
    endloop
  endfacet
  facet normal -0.951056 6.86156e-17 -0.309017
    outer loop
      vertex 61.65 -4.5 7.77156e-16
      vertex 61.0484 0 1.85152
      vertex 61.65 0 1.77636e-15
    endloop
  endfacet
  facet normal -0.951056 -0 -0.309017
    outer loop
      vertex 61.0484 0 1.85152
      vertex 61.65 -4.5 7.77156e-16
      vertex 61.0484 -4.5 1.85152
    endloop
  endfacet
  facet normal 0 1 0
    outer loop
      vertex 58.9635 -4.5 1.42658
      vertex 59.4734 -4.5 2.99583
      vertex 61.0484 -4.5 1.85152
    endloop
  endfacet
  facet normal 0 1 0
    outer loop
      vertex 59.4734 -4.5 2.99583
      vertex 58.9635 -4.5 1.42658
      vertex 57.5266 -4.5 2.99583
    endloop
  endfacet
  facet normal 0 1 0
    outer loop
      vertex 57.2865 -4.5 0.881678
      vertex 57.5266 -4.5 2.99583
      vertex 58.9635 -4.5 1.42658
    endloop
  endfacet
  facet normal 0 1 0
    outer loop
      vertex 60 -4.5 7.77156e-16
      vertex 61.0484 -4.5 1.85152
      vertex 61.65 -4.5 7.77156e-16
    endloop
  endfacet
  facet normal 0 1 0
    outer loop
      vertex 61.0484 -4.5 1.85152
      vertex 60 -4.5 7.77156e-16
      vertex 58.9635 -4.5 1.42658
    endloop
  endfacet
  facet normal 0 1 -0
    outer loop
      vertex 61.0484 -4.5 -1.85152
      vertex 60 -4.5 7.77156e-16
      vertex 61.65 -4.5 7.77156e-16
    endloop
  endfacet
  facet normal 0 1 0
    outer loop
      vertex 60 -4.5 7.77156e-16
      vertex 61.0484 -4.5 -1.85152
      vertex 58.9635 -4.5 -1.42658
    endloop
  endfacet
  facet normal 0 1 0
    outer loop
      vertex 57.5266 -4.5 2.99583
      vertex 57.2865 -4.5 0.881678
      vertex 55.9516 -4.5 1.85152
    endloop
  endfacet
  facet normal 0 1 0
    outer loop
      vertex 57.2865 -4.5 0.881678
      vertex 55.35 -4.5 7.77156e-16
      vertex 55.9516 -4.5 1.85152
    endloop
  endfacet
  facet normal 0 1 -0
    outer loop
      vertex 57.2865 -4.5 -0.881678
      vertex 55.35 -4.5 7.77156e-16
      vertex 57.2865 -4.5 0.881678
    endloop
  endfacet
  facet normal 0 1 0
    outer loop
      vertex 57.2865 -4.5 -0.881678
      vertex 55.9516 -4.5 -1.85152
      vertex 55.35 -4.5 7.77156e-16
    endloop
  endfacet
  facet normal 0 1 -0
    outer loop
      vertex 57.5266 -4.5 -2.99583
      vertex 57.2865 -4.5 -0.881678
      vertex 58.9635 -4.5 -1.42658
    endloop
  endfacet
  facet normal 0 1 -0
    outer loop
      vertex 59.4734 -4.5 -2.99583
      vertex 58.9635 -4.5 -1.42658
      vertex 61.0484 -4.5 -1.85152
    endloop
  endfacet
  facet normal 0 1 0
    outer loop
      vertex 57.5266 -4.5 -2.99583
      vertex 58.9635 -4.5 -1.42658
      vertex 59.4734 -4.5 -2.99583
    endloop
  endfacet
  facet normal 0 1 0
    outer loop
      vertex 57.2865 -4.5 -0.881678
      vertex 57.5266 -4.5 -2.99583
      vertex 55.9516 -4.5 -1.85152
    endloop
  endfacet
  facet normal 0.951056 0 -0.309017
    outer loop
      vertex 55.9516 -4.5 1.85152
      vertex 55.35 0 1.77636e-15
      vertex 55.9516 0 1.85152
    endloop
  endfacet
  facet normal 0.951056 6.86156e-17 -0.309017
    outer loop
      vertex 55.35 0 1.77636e-15
      vertex 55.9516 -4.5 1.85152
      vertex 55.35 -4.5 7.77156e-16
    endloop
  endfacet
  facet normal -0.587786 0 -0.809017
    outer loop
      vertex 59.4734 -4.5 2.99583
      vertex 61.0484 0 1.85152
      vertex 61.0484 -4.5 1.85152
    endloop
  endfacet
  facet normal -0.587786 0 -0.809017
    outer loop
      vertex 61.0484 0 1.85152
      vertex 59.4734 -4.5 2.99583
      vertex 59.4734 0 2.99583
    endloop
  endfacet
  facet normal 0 0 -1
    outer loop
      vertex 57.5266 -4.5 2.99583
      vertex 59.4734 0 2.99583
      vertex 59.4734 -4.5 2.99583
    endloop
  endfacet
  facet normal -0 0 -1
    outer loop
      vertex 59.4734 0 2.99583
      vertex 57.5266 -4.5 2.99583
      vertex 57.5266 0 2.99583
    endloop
  endfacet
  facet normal 0.587785 0 -0.809017
    outer loop
      vertex 55.9516 -4.5 1.85152
      vertex 57.5266 0 2.99583
      vertex 57.5266 -4.5 2.99583
    endloop
  endfacet
  facet normal 0.587785 0 -0.809017
    outer loop
      vertex 57.5266 0 2.99583
      vertex 55.9516 -4.5 1.85152
      vertex 55.9516 0 1.85152
    endloop
  endfacet
  facet normal 0.92388 0.382682 0
    outer loop
      vertex 58.5 -3 14.4
      vertex 57.7678 -1.23223 7.5
      vertex 57.7678 -1.23223 14.4
    endloop
  endfacet
  facet normal 0.92388 0.382682 0
    outer loop
      vertex 57.7678 -1.23223 7.5
      vertex 58.5 -3 14.4
      vertex 58.5 -3 7.5
    endloop
  endfacet
  facet normal -0.92388 0.382683 0
    outer loop
      vertex 53.5 -3 7.5
      vertex 54.2322 -1.23223 14.4
      vertex 54.2322 -1.23223 7.5
    endloop
  endfacet
  facet normal -0.92388 0.382683 0
    outer loop
      vertex 54.2322 -1.23223 14.4
      vertex 53.5 -3 7.5
      vertex 53.5 -3 14.4
    endloop
  endfacet
  facet normal -0.382683 0.92388 0
    outer loop
      vertex 56 -0.5 7.5
      vertex 54.2322 -1.23223 14.4
      vertex 56 -0.5 14.4
    endloop
  endfacet
  facet normal -0.382683 0.92388 0
    outer loop
      vertex 54.2322 -1.23223 14.4
      vertex 56 -0.5 7.5
      vertex 54.2322 -1.23223 7.5
    endloop
  endfacet
  facet normal 0.382683 0.92388 -0
    outer loop
      vertex 57.7678 -1.23223 7.5
      vertex 56 -0.5 14.4
      vertex 57.7678 -1.23223 14.4
    endloop
  endfacet
  facet normal 0.382683 0.92388 0
    outer loop
      vertex 56 -0.5 14.4
      vertex 57.7678 -1.23223 7.5
      vertex 56 -0.5 7.5
    endloop
  endfacet
  facet normal 0 0 1
    outer loop
      vertex 57.7678 -1.23223 14.4
      vertex 57.7678 -4.76777 14.4
      vertex 58.5 -3 14.4
    endloop
  endfacet
  facet normal 0 0 1
    outer loop
      vertex 56 -0.5 14.4
      vertex 57.7678 -4.76777 14.4
      vertex 57.7678 -1.23223 14.4
    endloop
  endfacet
  facet normal 0 0 1
    outer loop
      vertex 56 -0.5 14.4
      vertex 56 -5.5 14.4
      vertex 57.7678 -4.76777 14.4
    endloop
  endfacet
  facet normal -0 0 1
    outer loop
      vertex 54.2322 -1.23223 14.4
      vertex 56 -5.5 14.4
      vertex 56 -0.5 14.4
    endloop
  endfacet
  facet normal 0 0 1
    outer loop
      vertex 54.2322 -1.23223 14.4
      vertex 54.2322 -4.76777 14.4
      vertex 56 -5.5 14.4
    endloop
  endfacet
  facet normal 0 -0 1
    outer loop
      vertex 54.2322 -4.76777 14.4
      vertex 54.2322 -1.23223 14.4
      vertex 53.5 -3 14.4
    endloop
  endfacet
  facet normal 0.382683 -0.92388 0
    outer loop
      vertex 56 -5.5 7.5
      vertex 57.7678 -4.76777 14.4
      vertex 56 -5.5 14.4
    endloop
  endfacet
  facet normal 0.382683 -0.92388 0
    outer loop
      vertex 57.7678 -4.76777 14.4
      vertex 56 -5.5 7.5
      vertex 57.7678 -4.76777 7.5
    endloop
  endfacet
  facet normal -0.92388 -0.382682 0
    outer loop
      vertex 54.2322 -4.76777 7.5
      vertex 53.5 -3 14.4
      vertex 53.5 -3 7.5
    endloop
  endfacet
  facet normal -0.92388 -0.382682 0
    outer loop
      vertex 53.5 -3 14.4
      vertex 54.2322 -4.76777 7.5
      vertex 54.2322 -4.76777 14.4
    endloop
  endfacet
  facet normal 0.92388 -0.382683 0
    outer loop
      vertex 57.7678 -4.76777 14.4
      vertex 58.5 -3 7.5
      vertex 58.5 -3 14.4
    endloop
  endfacet
  facet normal 0.92388 -0.382683 0
    outer loop
      vertex 58.5 -3 7.5
      vertex 57.7678 -4.76777 14.4
      vertex 57.7678 -4.76777 7.5
    endloop
  endfacet
  facet normal -0.382683 -0.92388 0
    outer loop
      vertex 54.2322 -4.76777 7.5
      vertex 56 -5.5 14.4
      vertex 54.2322 -4.76777 14.4
    endloop
  endfacet
  facet normal -0.382683 -0.92388 -0
    outer loop
      vertex 56 -5.5 14.4
      vertex 54.2322 -4.76777 7.5
      vertex 56 -5.5 7.5
    endloop
  endfacet
  facet normal 0.92388 0.382682 0
    outer loop
      vertex 67.5 -3 14.4
      vertex 66.7678 -1.23223 7.5
      vertex 66.7678 -1.23223 14.4
    endloop
  endfacet
  facet normal 0.92388 0.382682 0
    outer loop
      vertex 66.7678 -1.23223 7.5
      vertex 67.5 -3 14.4
      vertex 67.5 -3 7.5
    endloop
  endfacet
  facet normal -0.382683 0.92388 0
    outer loop
      vertex 65 -0.5 7.5
      vertex 63.2322 -1.23223 14.4
      vertex 65 -0.5 14.4
    endloop
  endfacet
  facet normal -0.382683 0.92388 0
    outer loop
      vertex 63.2322 -1.23223 14.4
      vertex 65 -0.5 7.5
      vertex 63.2322 -1.23223 7.5
    endloop
  endfacet
  facet normal 0.382683 0.92388 -0
    outer loop
      vertex 66.7678 -1.23223 7.5
      vertex 65 -0.5 14.4
      vertex 66.7678 -1.23223 14.4
    endloop
  endfacet
  facet normal 0.382683 0.92388 0
    outer loop
      vertex 65 -0.5 14.4
      vertex 66.7678 -1.23223 7.5
      vertex 65 -0.5 7.5
    endloop
  endfacet
  facet normal 0 0 1
    outer loop
      vertex 66.7678 -1.23223 14.4
      vertex 66.7678 -4.76777 14.4
      vertex 67.5 -3 14.4
    endloop
  endfacet
  facet normal 0 0 1
    outer loop
      vertex 65 -0.5 14.4
      vertex 66.7678 -4.76777 14.4
      vertex 66.7678 -1.23223 14.4
    endloop
  endfacet
  facet normal 0 0 1
    outer loop
      vertex 65 -0.5 14.4
      vertex 65 -5.5 14.4
      vertex 66.7678 -4.76777 14.4
    endloop
  endfacet
  facet normal -0 0 1
    outer loop
      vertex 63.2322 -1.23223 14.4
      vertex 65 -5.5 14.4
      vertex 65 -0.5 14.4
    endloop
  endfacet
  facet normal 0 0 1
    outer loop
      vertex 63.2322 -1.23223 14.4
      vertex 63.2322 -4.76777 14.4
      vertex 65 -5.5 14.4
    endloop
  endfacet
  facet normal 0 -0 1
    outer loop
      vertex 63.2322 -4.76777 14.4
      vertex 63.2322 -1.23223 14.4
      vertex 62.5 -3 14.4
    endloop
  endfacet
  facet normal -0.92388 0.382683 0
    outer loop
      vertex 62.5 -3 7.5
      vertex 63.2322 -1.23223 14.4
      vertex 63.2322 -1.23223 7.5
    endloop
  endfacet
  facet normal -0.92388 0.382683 0
    outer loop
      vertex 63.2322 -1.23223 14.4
      vertex 62.5 -3 7.5
      vertex 62.5 -3 14.4
    endloop
  endfacet
  facet normal 0.92388 -0.382683 0
    outer loop
      vertex 66.7678 -4.76777 14.4
      vertex 67.5 -3 7.5
      vertex 67.5 -3 14.4
    endloop
  endfacet
  facet normal 0.92388 -0.382683 0
    outer loop
      vertex 67.5 -3 7.5
      vertex 66.7678 -4.76777 14.4
      vertex 66.7678 -4.76777 7.5
    endloop
  endfacet
  facet normal -0.382683 -0.92388 0
    outer loop
      vertex 63.2322 -4.76777 7.5
      vertex 65 -5.5 14.4
      vertex 63.2322 -4.76777 14.4
    endloop
  endfacet
  facet normal -0.382683 -0.92388 -0
    outer loop
      vertex 65 -5.5 14.4
      vertex 63.2322 -4.76777 7.5
      vertex 65 -5.5 7.5
    endloop
  endfacet
  facet normal -0.92388 -0.382682 0
    outer loop
      vertex 63.2322 -4.76777 7.5
      vertex 62.5 -3 14.4
      vertex 62.5 -3 7.5
    endloop
  endfacet
  facet normal -0.92388 -0.382682 0
    outer loop
      vertex 62.5 -3 14.4
      vertex 63.2322 -4.76777 7.5
      vertex 63.2322 -4.76777 14.4
    endloop
  endfacet
  facet normal 0.382683 -0.92388 0
    outer loop
      vertex 65 -5.5 7.5
      vertex 66.7678 -4.76777 14.4
      vertex 65 -5.5 14.4
    endloop
  endfacet
  facet normal 0.382683 -0.92388 0
    outer loop
      vertex 66.7678 -4.76777 14.4
      vertex 65 -5.5 7.5
      vertex 66.7678 -4.76777 7.5
    endloop
  endfacet
  facet normal 0.92388 0.382682 0
    outer loop
      vertex -62.5 -3 14.4
      vertex -63.2322 -1.23223 7.5
      vertex -63.2322 -1.23223 14.4
    endloop
  endfacet
  facet normal 0.92388 0.382682 0
    outer loop
      vertex -63.2322 -1.23223 7.5
      vertex -62.5 -3 14.4
      vertex -62.5 -3 7.5
    endloop
  endfacet
  facet normal -0.92388 0.382683 0
    outer loop
      vertex -67.5 -3 7.5
      vertex -66.7678 -1.23223 14.4
      vertex -66.7678 -1.23223 7.5
    endloop
  endfacet
  facet normal -0.92388 0.382683 0
    outer loop
      vertex -66.7678 -1.23223 14.4
      vertex -67.5 -3 7.5
      vertex -67.5 -3 14.4
    endloop
  endfacet
  facet normal -0.382683 0.92388 0
    outer loop
      vertex -65 -0.5 7.5
      vertex -66.7678 -1.23223 14.4
      vertex -65 -0.5 14.4
    endloop
  endfacet
  facet normal -0.382683 0.92388 0
    outer loop
      vertex -66.7678 -1.23223 14.4
      vertex -65 -0.5 7.5
      vertex -66.7678 -1.23223 7.5
    endloop
  endfacet
  facet normal 0.382683 0.92388 -0
    outer loop
      vertex -63.2322 -1.23223 7.5
      vertex -65 -0.5 14.4
      vertex -63.2322 -1.23223 14.4
    endloop
  endfacet
  facet normal 0.382683 0.92388 0
    outer loop
      vertex -65 -0.5 14.4
      vertex -63.2322 -1.23223 7.5
      vertex -65 -0.5 7.5
    endloop
  endfacet
  facet normal 0.382683 -0.92388 0
    outer loop
      vertex -65 -5.5 7.5
      vertex -63.2322 -4.76777 14.4
      vertex -65 -5.5 14.4
    endloop
  endfacet
  facet normal 0.382683 -0.92388 0
    outer loop
      vertex -63.2322 -4.76777 14.4
      vertex -65 -5.5 7.5
      vertex -63.2322 -4.76777 7.5
    endloop
  endfacet
  facet normal -0.92388 -0.382682 0
    outer loop
      vertex -66.7678 -4.76777 7.5
      vertex -67.5 -3 14.4
      vertex -67.5 -3 7.5
    endloop
  endfacet
  facet normal -0.92388 -0.382682 0
    outer loop
      vertex -67.5 -3 14.4
      vertex -66.7678 -4.76777 7.5
      vertex -66.7678 -4.76777 14.4
    endloop
  endfacet
  facet normal 0.92388 -0.382683 0
    outer loop
      vertex -63.2322 -4.76777 14.4
      vertex -62.5 -3 7.5
      vertex -62.5 -3 14.4
    endloop
  endfacet
  facet normal 0.92388 -0.382683 0
    outer loop
      vertex -62.5 -3 7.5
      vertex -63.2322 -4.76777 14.4
      vertex -63.2322 -4.76777 7.5
    endloop
  endfacet
  facet normal -0.382683 -0.92388 0
    outer loop
      vertex -66.7678 -4.76777 7.5
      vertex -65 -5.5 14.4
      vertex -66.7678 -4.76777 14.4
    endloop
  endfacet
  facet normal -0.382683 -0.92388 -0
    outer loop
      vertex -65 -5.5 14.4
      vertex -66.7678 -4.76777 7.5
      vertex -65 -5.5 7.5
    endloop
  endfacet
  facet normal 0 0 1
    outer loop
      vertex -63.2322 -1.23223 14.4
      vertex -63.2322 -4.76777 14.4
      vertex -62.5 -3 14.4
    endloop
  endfacet
  facet normal 0 0 1
    outer loop
      vertex -65 -0.5 14.4
      vertex -63.2322 -4.76777 14.4
      vertex -63.2322 -1.23223 14.4
    endloop
  endfacet
  facet normal 0 0 1
    outer loop
      vertex -65 -0.5 14.4
      vertex -65 -5.5 14.4
      vertex -63.2322 -4.76777 14.4
    endloop
  endfacet
  facet normal -0 0 1
    outer loop
      vertex -66.7678 -1.23223 14.4
      vertex -65 -5.5 14.4
      vertex -65 -0.5 14.4
    endloop
  endfacet
  facet normal 0 0 1
    outer loop
      vertex -66.7678 -1.23223 14.4
      vertex -66.7678 -4.76777 14.4
      vertex -65 -5.5 14.4
    endloop
  endfacet
  facet normal 0 -0 1
    outer loop
      vertex -66.7678 -4.76777 14.4
      vertex -66.7678 -1.23223 14.4
      vertex -67.5 -3 14.4
    endloop
  endfacet
  facet normal 0.92388 0.382682 0
    outer loop
      vertex -53.5 -3 14.4
      vertex -54.2322 -1.23223 7.5
      vertex -54.2322 -1.23223 14.4
    endloop
  endfacet
  facet normal 0.92388 0.382682 0
    outer loop
      vertex -54.2322 -1.23223 7.5
      vertex -53.5 -3 14.4
      vertex -53.5 -3 7.5
    endloop
  endfacet
  facet normal -0.382683 0.92388 0
    outer loop
      vertex -56 -0.5 7.5
      vertex -57.7678 -1.23223 14.4
      vertex -56 -0.5 14.4
    endloop
  endfacet
  facet normal -0.382683 0.92388 0
    outer loop
      vertex -57.7678 -1.23223 14.4
      vertex -56 -0.5 7.5
      vertex -57.7678 -1.23223 7.5
    endloop
  endfacet
  facet normal 0.382683 0.92388 -0
    outer loop
      vertex -54.2322 -1.23223 7.5
      vertex -56 -0.5 14.4
      vertex -54.2322 -1.23223 14.4
    endloop
  endfacet
  facet normal 0.382683 0.92388 0
    outer loop
      vertex -56 -0.5 14.4
      vertex -54.2322 -1.23223 7.5
      vertex -56 -0.5 7.5
    endloop
  endfacet
  facet normal 0 0 1
    outer loop
      vertex -54.2322 -1.23223 14.4
      vertex -54.2322 -4.76777 14.4
      vertex -53.5 -3 14.4
    endloop
  endfacet
  facet normal 0 0 1
    outer loop
      vertex -56 -0.5 14.4
      vertex -54.2322 -4.76777 14.4
      vertex -54.2322 -1.23223 14.4
    endloop
  endfacet
  facet normal 0 0 1
    outer loop
      vertex -56 -0.5 14.4
      vertex -56 -5.5 14.4
      vertex -54.2322 -4.76777 14.4
    endloop
  endfacet
  facet normal -0 0 1
    outer loop
      vertex -57.7678 -1.23223 14.4
      vertex -56 -5.5 14.4
      vertex -56 -0.5 14.4
    endloop
  endfacet
  facet normal 0 0 1
    outer loop
      vertex -57.7678 -1.23223 14.4
      vertex -57.7678 -4.76777 14.4
      vertex -56 -5.5 14.4
    endloop
  endfacet
  facet normal 0 -0 1
    outer loop
      vertex -57.7678 -4.76777 14.4
      vertex -57.7678 -1.23223 14.4
      vertex -58.5 -3 14.4
    endloop
  endfacet
  facet normal -0.92388 0.382683 0
    outer loop
      vertex -58.5 -3 7.5
      vertex -57.7678 -1.23223 14.4
      vertex -57.7678 -1.23223 7.5
    endloop
  endfacet
  facet normal -0.92388 0.382683 0
    outer loop
      vertex -57.7678 -1.23223 14.4
      vertex -58.5 -3 7.5
      vertex -58.5 -3 14.4
    endloop
  endfacet
  facet normal 0.92388 -0.382683 0
    outer loop
      vertex -54.2322 -4.76777 14.4
      vertex -53.5 -3 7.5
      vertex -53.5 -3 14.4
    endloop
  endfacet
  facet normal 0.92388 -0.382683 0
    outer loop
      vertex -53.5 -3 7.5
      vertex -54.2322 -4.76777 14.4
      vertex -54.2322 -4.76777 7.5
    endloop
  endfacet
  facet normal -0.382683 -0.92388 0
    outer loop
      vertex -57.7678 -4.76777 7.5
      vertex -56 -5.5 14.4
      vertex -57.7678 -4.76777 14.4
    endloop
  endfacet
  facet normal -0.382683 -0.92388 -0
    outer loop
      vertex -56 -5.5 14.4
      vertex -57.7678 -4.76777 7.5
      vertex -56 -5.5 7.5
    endloop
  endfacet
  facet normal -0.92388 -0.382682 0
    outer loop
      vertex -57.7678 -4.76777 7.5
      vertex -58.5 -3 14.4
      vertex -58.5 -3 7.5
    endloop
  endfacet
  facet normal -0.92388 -0.382682 0
    outer loop
      vertex -58.5 -3 14.4
      vertex -57.7678 -4.76777 7.5
      vertex -57.7678 -4.76777 14.4
    endloop
  endfacet
  facet normal 0.382683 -0.92388 0
    outer loop
      vertex -56 -5.5 7.5
      vertex -54.2322 -4.76777 14.4
      vertex -56 -5.5 14.4
    endloop
  endfacet
  facet normal 0.382683 -0.92388 0
    outer loop
      vertex -54.2322 -4.76777 14.4
      vertex -56 -5.5 7.5
      vertex -54.2322 -4.76777 7.5
    endloop
  endfacet
  facet normal 1 -0 0
    outer loop
      vertex -22.8 -7 4.5
      vertex -22.8 -1.71658 0.5
      vertex -22.8 -1.71658 4.5
    endloop
  endfacet
  facet normal 1 0 0
    outer loop
      vertex -22.8 -1.71658 0.5
      vertex -22.8 -7 4.5
      vertex -22.8 -7 0.5
    endloop
  endfacet
  facet normal -1 0 0
    outer loop
      vertex -17.2 -7 0.5
      vertex -17.2 -1.71658 4.5
      vertex -17.2 -1.71658 0.5
    endloop
  endfacet
  facet normal -1 -0 0
    outer loop
      vertex -17.2 -1.71658 4.5
      vertex -17.2 -7 0.5
      vertex -17.2 -7 4.5
    endloop
  endfacet
  facet normal 0 0 -1
    outer loop
      vertex -17.2 -7 4.5
      vertex -18.7865 -4.38168 4.5
      vertex -17.2 -1.71658 4.5
    endloop
  endfacet
  facet normal 0 0 -1
    outer loop
      vertex -17.2 -7 4.5
      vertex -20.4635 -4.92658 4.5
      vertex -18.7865 -4.38168 4.5
    endloop
  endfacet
  facet normal -0 0 -1
    outer loop
      vertex -20.4635 -4.92658 4.5
      vertex -22.8 -7 4.5
      vertex -21.5 -3.5 4.5
    endloop
  endfacet
  facet normal 0 0 -1
    outer loop
      vertex -22.8 -7 4.5
      vertex -20.4635 -4.92658 4.5
      vertex -17.2 -7 4.5
    endloop
  endfacet
  facet normal 0 0 -1
    outer loop
      vertex -18.7865 -2.61832 4.5
      vertex -17.2 -1.71658 4.5
      vertex -18.7865 -4.38168 4.5
    endloop
  endfacet
  facet normal 0 0 -1
    outer loop
      vertex -18.7865 -2.61832 4.5
      vertex -20 -0.1 4.5
      vertex -17.2 -1.71658 4.5
    endloop
  endfacet
  facet normal 0 0 -1
    outer loop
      vertex -20.4635 -2.07342 4.5
      vertex -20 -0.1 4.5
      vertex -18.7865 -2.61832 4.5
    endloop
  endfacet
  facet normal 0 0 -1
    outer loop
      vertex -22.8 -1.71658 4.5
      vertex -20.4635 -2.07342 4.5
      vertex -21.5 -3.5 4.5
    endloop
  endfacet
  facet normal 0 0 -1
    outer loop
      vertex -20.4635 -2.07342 4.5
      vertex -22.8 -1.71658 4.5
      vertex -20 -0.1 4.5
    endloop
  endfacet
  facet normal 0 0 -1
    outer loop
      vertex -22.8 -1.71658 4.5
      vertex -21.5 -3.5 4.5
      vertex -22.8 -7 4.5
    endloop
  endfacet
  facet normal 0 0 1
    outer loop
      vertex -18.7865 -4.38168 0.5
      vertex -17.2 -1.71658 0.5
      vertex -18.7865 -2.61832 0.5
    endloop
  endfacet
  facet normal 0 0 1
    outer loop
      vertex -20 -0.1 0.5
      vertex -18.7865 -2.61832 0.5
      vertex -17.2 -1.71658 0.5
    endloop
  endfacet
  facet normal 0 0 1
    outer loop
      vertex -20 -0.1 0.5
      vertex -20.4635 -2.07342 0.5
      vertex -18.7865 -2.61832 0.5
    endloop
  endfacet
  facet normal -0 0 1
    outer loop
      vertex -22.8 -1.71658 0.5
      vertex -20.4635 -2.07342 0.5
      vertex -20 -0.1 0.5
    endloop
  endfacet
  facet normal 0 0 1
    outer loop
      vertex -20.4635 -2.07342 0.5
      vertex -22.8 -1.71658 0.5
      vertex -21.5 -3.5 0.5
    endloop
  endfacet
  facet normal 0 0 1
    outer loop
      vertex -17.2 -1.71658 0.5
      vertex -18.7865 -4.38168 0.5
      vertex -17.2 -7 0.5
    endloop
  endfacet
  facet normal -0 0 1
    outer loop
      vertex -20.4635 -4.92658 0.5
      vertex -17.2 -7 0.5
      vertex -18.7865 -4.38168 0.5
    endloop
  endfacet
  facet normal 0 0 1
    outer loop
      vertex -22.8 -7 0.5
      vertex -21.5 -3.5 0.5
      vertex -22.8 -1.71658 0.5
    endloop
  endfacet
  facet normal 0 0 1
    outer loop
      vertex -20.4635 -4.92658 0.5
      vertex -22.8 -7 0.5
      vertex -17.2 -7 0.5
    endloop
  endfacet
  facet normal 0 0 1
    outer loop
      vertex -21.5 -3.5 0.5
      vertex -22.8 -7 0.5
      vertex -20.4635 -4.92658 0.5
    endloop
  endfacet
  facet normal 0.5 -0.866025 0
    outer loop
      vertex -22.8 -1.71658 0.5
      vertex -20 -0.1 4.5
      vertex -22.8 -1.71658 4.5
    endloop
  endfacet
  facet normal 0.5 -0.866025 0
    outer loop
      vertex -20 -0.1 4.5
      vertex -22.8 -1.71658 0.5
      vertex -20 -0.1 0.5
    endloop
  endfacet
  facet normal -0.5 -0.866025 0
    outer loop
      vertex -20 -0.1 0.5
      vertex -17.2 -1.71658 4.5
      vertex -20 -0.1 4.5
    endloop
  endfacet
  facet normal -0.5 -0.866025 -0
    outer loop
      vertex -17.2 -1.71658 4.5
      vertex -20 -0.1 0.5
      vertex -17.2 -1.71658 0.5
    endloop
  endfacet
  facet normal 0.809016 -0.587786 0
    outer loop
      vertex -21.5 -3.5 0.5
      vertex -20.4635 -2.07342 -7.5
      vertex -20.4635 -2.07342 0.5
    endloop
  endfacet
  facet normal 0.809016 -0.587786 0
    outer loop
      vertex -20.4635 -2.07342 -7.5
      vertex -21.5 -3.5 0.5
      vertex -21.5 -3.5 -7.5
    endloop
  endfacet
  facet normal 0.809016 -0.587786 0
    outer loop
      vertex -21.5 -3.5 7.5
      vertex -20.4635 -2.07342 4.5
      vertex -20.4635 -2.07342 7.5
    endloop
  endfacet
  facet normal 0.809016 -0.587786 0
    outer loop
      vertex -20.4635 -2.07342 4.5
      vertex -21.5 -3.5 7.5
      vertex -21.5 -3.5 4.5
    endloop
  endfacet
  facet normal -1 0 0
    outer loop
      vertex -18.7865 -4.38168 -7.5
      vertex -18.7865 -2.61832 0.5
      vertex -18.7865 -2.61832 -7.5
    endloop
  endfacet
  facet normal -1 -0 0
    outer loop
      vertex -18.7865 -2.61832 0.5
      vertex -18.7865 -4.38168 -7.5
      vertex -18.7865 -4.38168 0.5
    endloop
  endfacet
  facet normal -1 0 0
    outer loop
      vertex -18.7865 -4.38168 4.5
      vertex -18.7865 -2.61832 7.5
      vertex -18.7865 -2.61832 4.5
    endloop
  endfacet
  facet normal -1 -0 0
    outer loop
      vertex -18.7865 -2.61832 7.5
      vertex -18.7865 -4.38168 4.5
      vertex -18.7865 -4.38168 7.5
    endloop
  endfacet
  facet normal -0.309017 -0.951056 0
    outer loop
      vertex -20.4635 -2.07342 -7.5
      vertex -18.7865 -2.61832 0.5
      vertex -20.4635 -2.07342 0.5
    endloop
  endfacet
  facet normal -0.309017 -0.951056 -0
    outer loop
      vertex -18.7865 -2.61832 0.5
      vertex -20.4635 -2.07342 -7.5
      vertex -18.7865 -2.61832 -7.5
    endloop
  endfacet
  facet normal -0.309017 -0.951056 0
    outer loop
      vertex -20.4635 -2.07342 4.5
      vertex -18.7865 -2.61832 7.5
      vertex -20.4635 -2.07342 7.5
    endloop
  endfacet
  facet normal -0.309017 -0.951056 -0
    outer loop
      vertex -18.7865 -2.61832 7.5
      vertex -20.4635 -2.07342 4.5
      vertex -18.7865 -2.61832 4.5
    endloop
  endfacet
  facet normal 0.809016 0.587786 0
    outer loop
      vertex -20.4635 -4.92658 7.5
      vertex -21.5 -3.5 4.5
      vertex -21.5 -3.5 7.5
    endloop
  endfacet
  facet normal 0.809016 0.587786 0
    outer loop
      vertex -21.5 -3.5 4.5
      vertex -20.4635 -4.92658 7.5
      vertex -20.4635 -4.92658 4.5
    endloop
  endfacet
  facet normal 0.809016 0.587786 0
    outer loop
      vertex -20.4635 -4.92658 0.5
      vertex -21.5 -3.5 -7.5
      vertex -21.5 -3.5 0.5
    endloop
  endfacet
  facet normal 0.809016 0.587786 0
    outer loop
      vertex -21.5 -3.5 -7.5
      vertex -20.4635 -4.92658 0.5
      vertex -20.4635 -4.92658 -7.5
    endloop
  endfacet
  facet normal -0.309017 0.951056 0
    outer loop
      vertex -18.7865 -4.38168 -7.5
      vertex -20.4635 -4.92658 0.5
      vertex -18.7865 -4.38168 0.5
    endloop
  endfacet
  facet normal -0.309017 0.951056 0
    outer loop
      vertex -20.4635 -4.92658 0.5
      vertex -18.7865 -4.38168 -7.5
      vertex -20.4635 -4.92658 -7.5
    endloop
  endfacet
  facet normal -0.309017 0.951056 0
    outer loop
      vertex -18.7865 -4.38168 4.5
      vertex -20.4635 -4.92658 7.5
      vertex -18.7865 -4.38168 7.5
    endloop
  endfacet
  facet normal -0.309017 0.951056 0
    outer loop
      vertex -20.4635 -4.92658 7.5
      vertex -18.7865 -4.38168 4.5
      vertex -20.4635 -4.92658 4.5
    endloop
  endfacet
  facet normal 0.809019 -0 0.587783
    outer loop
      vertex -69.25 -5 0
      vertex -68.7318 0 -0.713292
      vertex -69.25 0 0
    endloop
  endfacet
  facet normal 0.809019 0 0.587783
    outer loop
      vertex -68.7318 0 -0.713292
      vertex -69.25 -5 0
      vertex -68.7318 -5 -0.713292
    endloop
  endfacet
  facet normal -0.309015 0 0.951057
    outer loop
      vertex -68.7318 0 -0.713292
      vertex -67.8932 -5 -0.440839
      vertex -67.8932 0 -0.440839
    endloop
  endfacet
  facet normal -0.309015 0 0.951057
    outer loop
      vertex -67.8932 -5 -0.440839
      vertex -68.7318 0 -0.713292
      vertex -68.7318 -5 -0.713292
    endloop
  endfacet
  facet normal -0.309015 0 -0.951057
    outer loop
      vertex -68.7318 -5 0.713292
      vertex -67.8932 0 0.440839
      vertex -67.8932 -5 0.440839
    endloop
  endfacet
  facet normal -0.309015 0 -0.951057
    outer loop
      vertex -67.8932 0 0.440839
      vertex -68.7318 -5 0.713292
      vertex -68.7318 0 0.713292
    endloop
  endfacet
  facet normal -1 0 0
    outer loop
      vertex -67.8932 -5 -0.440839
      vertex -67.8932 0 0.440839
      vertex -67.8932 0 -0.440839
    endloop
  endfacet
  facet normal -1 -0 0
    outer loop
      vertex -67.8932 0 0.440839
      vertex -67.8932 -5 -0.440839
      vertex -67.8932 -5 0.440839
    endloop
  endfacet
  facet normal 0.809019 0 -0.587783
    outer loop
      vertex -68.7318 -5 0.713292
      vertex -69.25 0 0
      vertex -68.7318 0 0.713292
    endloop
  endfacet
  facet normal 0.809019 0 -0.587783
    outer loop
      vertex -69.25 0 0
      vertex -68.7318 -5 0.713292
      vertex -69.25 -5 0
    endloop
  endfacet
  facet normal -1 0 0
    outer loop
      vertex -67.5 -7 -7.5
      vertex -67.5 -5 7.5
      vertex -67.5 -5 -7.5
    endloop
  endfacet
  facet normal -1 -0 0
    outer loop
      vertex -67.5 -5 7.5
      vertex -67.5 -7 -7.5
      vertex -67.5 -7 7.5
    endloop
  endfacet
  facet normal 1 -0 0
    outer loop
      vertex -69.5 -7 7.5
      vertex -69.5 -5 -7.5
      vertex -69.5 -5 7.5
    endloop
  endfacet
  facet normal 1 0 0
    outer loop
      vertex -69.5 -5 -7.5
      vertex -69.5 -7 7.5
      vertex -69.5 -7 -7.5
    endloop
  endfacet
  facet normal 0 -1 0
    outer loop
      vertex -69.5 -5 7.5
      vertex -68.7318 -5 0.713292
      vertex -67.5 -5 7.5
    endloop
  endfacet
  facet normal 0 -1 0
    outer loop
      vertex -69.5 -5 7.5
      vertex -69.25 -5 0
      vertex -68.7318 -5 0.713292
    endloop
  endfacet
  facet normal 0 -1 -0
    outer loop
      vertex -69.25 -5 0
      vertex -69.5 -5 -7.5
      vertex -68.7318 -5 -0.713292
    endloop
  endfacet
  facet normal 0 -1 0
    outer loop
      vertex -69.5 -5 -7.5
      vertex -69.25 -5 0
      vertex -69.5 -5 7.5
    endloop
  endfacet
  facet normal 0 -1 0
    outer loop
      vertex -67.8932 -5 0.440839
      vertex -67.5 -5 7.5
      vertex -68.7318 -5 0.713292
    endloop
  endfacet
  facet normal 0 -1 0
    outer loop
      vertex -67.8932 -5 -0.440839
      vertex -67.5 -5 7.5
      vertex -67.8932 -5 0.440839
    endloop
  endfacet
  facet normal 0 -1 0
    outer loop
      vertex -67.5 -5 -7.5
      vertex -68.7318 -5 -0.713292
      vertex -69.5 -5 -7.5
    endloop
  endfacet
  facet normal 0 -1 0
    outer loop
      vertex -67.8932 -5 -0.440839
      vertex -67.5 -5 -7.5
      vertex -67.5 -5 7.5
    endloop
  endfacet
  facet normal 0 -1 0
    outer loop
      vertex -68.7318 -5 -0.713292
      vertex -67.5 -5 -7.5
      vertex -67.8932 -5 -0.440839
    endloop
  endfacet
  facet normal -1 0 0
    outer loop
      vertex 22.8 -7 0.5
      vertex 22.8 -1.71658 4.5
      vertex 22.8 -1.71658 0.5
    endloop
  endfacet
  facet normal -1 -0 0
    outer loop
      vertex 22.8 -1.71658 4.5
      vertex 22.8 -7 0.5
      vertex 22.8 -7 4.5
    endloop
  endfacet
  facet normal 1 -0 0
    outer loop
      vertex 17.2 -7 4.5
      vertex 17.2 -1.71658 0.5
      vertex 17.2 -1.71658 4.5
    endloop
  endfacet
  facet normal 1 0 0
    outer loop
      vertex 17.2 -1.71658 0.5
      vertex 17.2 -7 4.5
      vertex 17.2 -7 0.5
    endloop
  endfacet
  facet normal 0 0 -1
    outer loop
      vertex 22.8 -7 4.5
      vertex 21.5 -3.5 4.5
      vertex 22.8 -1.71658 4.5
    endloop
  endfacet
  facet normal 0 0 -1
    outer loop
      vertex 22.8 -7 4.5
      vertex 20.4635 -4.92658 4.5
      vertex 21.5 -3.5 4.5
    endloop
  endfacet
  facet normal 0 0 -1
    outer loop
      vertex 17.2 -7 4.5
      vertex 20.4635 -4.92658 4.5
      vertex 22.8 -7 4.5
    endloop
  endfacet
  facet normal 0 0 -1
    outer loop
      vertex 17.2 -1.71658 4.5
      vertex 18.7865 -4.38168 4.5
      vertex 17.2 -7 4.5
    endloop
  endfacet
  facet normal -0 0 -1
    outer loop
      vertex 20.4635 -4.92658 4.5
      vertex 17.2 -7 4.5
      vertex 18.7865 -4.38168 4.5
    endloop
  endfacet
  facet normal 0 0 -1
    outer loop
      vertex 20.4635 -2.07342 4.5
      vertex 22.8 -1.71658 4.5
      vertex 21.5 -3.5 4.5
    endloop
  endfacet
  facet normal 0 0 -1
    outer loop
      vertex 20.4635 -2.07342 4.5
      vertex 20 -0.1 4.5
      vertex 22.8 -1.71658 4.5
    endloop
  endfacet
  facet normal 0 0 -1
    outer loop
      vertex 18.7865 -2.61832 4.5
      vertex 20 -0.1 4.5
      vertex 20.4635 -2.07342 4.5
    endloop
  endfacet
  facet normal 0 0 -1
    outer loop
      vertex 18.7865 -2.61832 4.5
      vertex 17.2 -1.71658 4.5
      vertex 20 -0.1 4.5
    endloop
  endfacet
  facet normal 0 0 -1
    outer loop
      vertex 18.7865 -4.38168 4.5
      vertex 17.2 -1.71658 4.5
      vertex 18.7865 -2.61832 4.5
    endloop
  endfacet
  facet normal 0 0 1
    outer loop
      vertex 22.8 -1.71658 0.5
      vertex 21.5 -3.5 0.5
      vertex 22.8 -7 0.5
    endloop
  endfacet
  facet normal 0 0 1
    outer loop
      vertex 22.8 -1.71658 0.5
      vertex 20.4635 -2.07342 0.5
      vertex 21.5 -3.5 0.5
    endloop
  endfacet
  facet normal 0 0 1
    outer loop
      vertex 20 -0.1 0.5
      vertex 20.4635 -2.07342 0.5
      vertex 22.8 -1.71658 0.5
    endloop
  endfacet
  facet normal 0 0 1
    outer loop
      vertex 20 -0.1 0.5
      vertex 18.7865 -2.61832 0.5
      vertex 20.4635 -2.07342 0.5
    endloop
  endfacet
  facet normal 0 0 1
    outer loop
      vertex 18.7865 -2.61832 0.5
      vertex 17.2 -1.71658 0.5
      vertex 18.7865 -4.38168 0.5
    endloop
  endfacet
  facet normal -0 0 1
    outer loop
      vertex 17.2 -1.71658 0.5
      vertex 18.7865 -2.61832 0.5
      vertex 20 -0.1 0.5
    endloop
  endfacet
  facet normal -0 0 1
    outer loop
      vertex 20.4635 -4.92658 0.5
      vertex 22.8 -7 0.5
      vertex 21.5 -3.5 0.5
    endloop
  endfacet
  facet normal 0 0 1
    outer loop
      vertex 17.2 -7 0.5
      vertex 20.4635 -4.92658 0.5
      vertex 18.7865 -4.38168 0.5
    endloop
  endfacet
  facet normal 0 0 1
    outer loop
      vertex 20.4635 -4.92658 0.5
      vertex 17.2 -7 0.5
      vertex 22.8 -7 0.5
    endloop
  endfacet
  facet normal 0 0 1
    outer loop
      vertex 17.2 -7 0.5
      vertex 18.7865 -4.38168 0.5
      vertex 17.2 -1.71658 0.5
    endloop
  endfacet
  facet normal -0.5 -0.866025 0
    outer loop
      vertex 20 -0.1 0.5
      vertex 22.8 -1.71658 4.5
      vertex 20 -0.1 4.5
    endloop
  endfacet
  facet normal -0.5 -0.866025 -0
    outer loop
      vertex 22.8 -1.71658 4.5
      vertex 20 -0.1 0.5
      vertex 22.8 -1.71658 0.5
    endloop
  endfacet
  facet normal 0.5 -0.866025 0
    outer loop
      vertex 17.2 -1.71658 0.5
      vertex 20 -0.1 4.5
      vertex 17.2 -1.71658 4.5
    endloop
  endfacet
  facet normal 0.5 -0.866025 0
    outer loop
      vertex 20 -0.1 4.5
      vertex 17.2 -1.71658 0.5
      vertex 20 -0.1 0.5
    endloop
  endfacet
  facet normal -0.809016 -0.587786 0
    outer loop
      vertex 21.5 -3.5 -7.5
      vertex 20.4635 -2.07342 0.5
      vertex 20.4635 -2.07342 -7.5
    endloop
  endfacet
  facet normal -0.809016 -0.587786 0
    outer loop
      vertex 20.4635 -2.07342 0.5
      vertex 21.5 -3.5 -7.5
      vertex 21.5 -3.5 0.5
    endloop
  endfacet
  facet normal -0.809016 -0.587786 0
    outer loop
      vertex 21.5 -3.5 4.5
      vertex 20.4635 -2.07342 7.5
      vertex 20.4635 -2.07342 4.5
    endloop
  endfacet
  facet normal -0.809016 -0.587786 0
    outer loop
      vertex 20.4635 -2.07342 7.5
      vertex 21.5 -3.5 4.5
      vertex 21.5 -3.5 7.5
    endloop
  endfacet
  facet normal 1 -0 0
    outer loop
      vertex 18.7865 -4.38168 0.5
      vertex 18.7865 -2.61832 -7.5
      vertex 18.7865 -2.61832 0.5
    endloop
  endfacet
  facet normal 1 0 0
    outer loop
      vertex 18.7865 -2.61832 -7.5
      vertex 18.7865 -4.38168 0.5
      vertex 18.7865 -4.38168 -7.5
    endloop
  endfacet
  facet normal 1 -0 0
    outer loop
      vertex 18.7865 -4.38168 7.5
      vertex 18.7865 -2.61832 4.5
      vertex 18.7865 -2.61832 7.5
    endloop
  endfacet
  facet normal 1 0 0
    outer loop
      vertex 18.7865 -2.61832 4.5
      vertex 18.7865 -4.38168 7.5
      vertex 18.7865 -4.38168 4.5
    endloop
  endfacet
  facet normal 0.309017 -0.951056 0
    outer loop
      vertex 18.7865 -2.61832 -7.5
      vertex 20.4635 -2.07342 0.5
      vertex 18.7865 -2.61832 0.5
    endloop
  endfacet
  facet normal 0.309017 -0.951056 0
    outer loop
      vertex 20.4635 -2.07342 0.5
      vertex 18.7865 -2.61832 -7.5
      vertex 20.4635 -2.07342 -7.5
    endloop
  endfacet
  facet normal 0.309017 -0.951056 0
    outer loop
      vertex 18.7865 -2.61832 4.5
      vertex 20.4635 -2.07342 7.5
      vertex 18.7865 -2.61832 7.5
    endloop
  endfacet
  facet normal 0.309017 -0.951056 0
    outer loop
      vertex 20.4635 -2.07342 7.5
      vertex 18.7865 -2.61832 4.5
      vertex 20.4635 -2.07342 4.5
    endloop
  endfacet
  facet normal -0.809016 0.587786 0
    outer loop
      vertex 20.4635 -4.92658 4.5
      vertex 21.5 -3.5 7.5
      vertex 21.5 -3.5 4.5
    endloop
  endfacet
  facet normal -0.809016 0.587786 0
    outer loop
      vertex 21.5 -3.5 7.5
      vertex 20.4635 -4.92658 4.5
      vertex 20.4635 -4.92658 7.5
    endloop
  endfacet
  facet normal -0.809016 0.587786 0
    outer loop
      vertex 20.4635 -4.92658 -7.5
      vertex 21.5 -3.5 0.5
      vertex 21.5 -3.5 -7.5
    endloop
  endfacet
  facet normal -0.809016 0.587786 0
    outer loop
      vertex 21.5 -3.5 0.5
      vertex 20.4635 -4.92658 -7.5
      vertex 20.4635 -4.92658 0.5
    endloop
  endfacet
  facet normal 0.309017 0.951056 -0
    outer loop
      vertex 20.4635 -4.92658 -7.5
      vertex 18.7865 -4.38168 0.5
      vertex 20.4635 -4.92658 0.5
    endloop
  endfacet
  facet normal 0.309017 0.951056 0
    outer loop
      vertex 18.7865 -4.38168 0.5
      vertex 20.4635 -4.92658 -7.5
      vertex 18.7865 -4.38168 -7.5
    endloop
  endfacet
  facet normal 0.309017 0.951056 -0
    outer loop
      vertex 20.4635 -4.92658 4.5
      vertex 18.7865 -4.38168 7.5
      vertex 20.4635 -4.92658 7.5
    endloop
  endfacet
  facet normal 0.309017 0.951056 0
    outer loop
      vertex 18.7865 -4.38168 7.5
      vertex 20.4635 -4.92658 4.5
      vertex 18.7865 -4.38168 4.5
    endloop
  endfacet
  facet normal -0.809019 0 0.587783
    outer loop
      vertex 68.7318 -5 -0.713292
      vertex 69.25 0 0
      vertex 68.7318 0 -0.713292
    endloop
  endfacet
  facet normal -0.809019 0 0.587783
    outer loop
      vertex 69.25 0 0
      vertex 68.7318 -5 -0.713292
      vertex 69.25 -5 0
    endloop
  endfacet
  facet normal 0.309015 0 0.951057
    outer loop
      vertex 67.8932 0 -0.440839
      vertex 68.7318 -5 -0.713292
      vertex 68.7318 0 -0.713292
    endloop
  endfacet
  facet normal 0.309015 0 0.951057
    outer loop
      vertex 68.7318 -5 -0.713292
      vertex 67.8932 0 -0.440839
      vertex 67.8932 -5 -0.440839
    endloop
  endfacet
  facet normal 1 -0 0
    outer loop
      vertex 67.8932 -5 0.440839
      vertex 67.8932 0 -0.440839
      vertex 67.8932 0 0.440839
    endloop
  endfacet
  facet normal 1 0 0
    outer loop
      vertex 67.8932 0 -0.440839
      vertex 67.8932 -5 0.440839
      vertex 67.8932 -5 -0.440839
    endloop
  endfacet
  facet normal -0.809019 0 -0.587783
    outer loop
      vertex 69.25 -5 0
      vertex 68.7318 0 0.713292
      vertex 69.25 0 0
    endloop
  endfacet
  facet normal -0.809019 -0 -0.587783
    outer loop
      vertex 68.7318 0 0.713292
      vertex 69.25 -5 0
      vertex 68.7318 -5 0.713292
    endloop
  endfacet
  facet normal 0.309015 0 -0.951057
    outer loop
      vertex 67.8932 -5 0.440839
      vertex 68.7318 0 0.713292
      vertex 68.7318 -5 0.713292
    endloop
  endfacet
  facet normal 0.309015 0 -0.951057
    outer loop
      vertex 68.7318 0 0.713292
      vertex 67.8932 -5 0.440839
      vertex 67.8932 0 0.440839
    endloop
  endfacet
  facet normal 1 -0 0
    outer loop
      vertex 67.5 -7 7.5
      vertex 67.5 -5 -7.5
      vertex 67.5 -5 7.5
    endloop
  endfacet
  facet normal 1 0 0
    outer loop
      vertex 67.5 -5 -7.5
      vertex 67.5 -7 7.5
      vertex 67.5 -7 -7.5
    endloop
  endfacet
  facet normal -1 0 0
    outer loop
      vertex 69.5 -7 -7.5
      vertex 69.5 -5 7.5
      vertex 69.5 -5 -7.5
    endloop
  endfacet
  facet normal -1 -0 0
    outer loop
      vertex 69.5 -5 7.5
      vertex 69.5 -7 -7.5
      vertex 69.5 -7 7.5
    endloop
  endfacet
  facet normal 0 -1 0
    outer loop
      vertex 67.5 -5 7.5
      vertex 68.7318 -5 0.713292
      vertex 69.5 -5 7.5
    endloop
  endfacet
  facet normal 0 -1 0
    outer loop
      vertex 67.5 -5 7.5
      vertex 67.8932 -5 0.440839
      vertex 68.7318 -5 0.713292
    endloop
  endfacet
  facet normal 0 -1 0
    outer loop
      vertex 67.5 -5 7.5
      vertex 67.8932 -5 -0.440839
      vertex 67.8932 -5 0.440839
    endloop
  endfacet
  facet normal 0 -1 -0
    outer loop
      vertex 67.8932 -5 -0.440839
      vertex 67.5 -5 -7.5
      vertex 68.7318 -5 -0.713292
    endloop
  endfacet
  facet normal 0 -1 0
    outer loop
      vertex 67.5 -5 -7.5
      vertex 67.8932 -5 -0.440839
      vertex 67.5 -5 7.5
    endloop
  endfacet
  facet normal 0 -1 0
    outer loop
      vertex 69.25 -5 0
      vertex 69.5 -5 7.5
      vertex 68.7318 -5 0.713292
    endloop
  endfacet
  facet normal 0 -1 0
    outer loop
      vertex 69.5 -5 -7.5
      vertex 68.7318 -5 -0.713292
      vertex 67.5 -5 -7.5
    endloop
  endfacet
  facet normal 0 -1 0
    outer loop
      vertex 69.25 -5 0
      vertex 69.5 -5 -7.5
      vertex 69.5 -5 7.5
    endloop
  endfacet
  facet normal 0 -1 0
    outer loop
      vertex 68.7318 -5 -0.713292
      vertex 69.5 -5 -7.5
      vertex 69.25 -5 0
    endloop
  endfacet
  facet normal -1 0 0
    outer loop
      vertex -74.5 -7 -7.5
      vertex -74.5 0 7.5
      vertex -74.5 0 -7.5
    endloop
  endfacet
  facet normal -1 -0 0
    outer loop
      vertex -74.5 0 7.5
      vertex -74.5 -7 -7.5
      vertex -74.5 -7 7.5
    endloop
  endfacet
  facet normal 0 0 1
    outer loop
      vertex -1 0 7.5
      vertex -18.7865 -2.61832 7.5
      vertex -1 -2.00962 7.5
    endloop
  endfacet
  facet normal 0 0 1
    outer loop
      vertex -1 0 7.5
      vertex -20.4635 -2.07342 7.5
      vertex -18.7865 -2.61832 7.5
    endloop
  endfacet
  facet normal 0 0 1
    outer loop
      vertex -54.2322 -1.23223 7.5
      vertex -21.5 -3.5 7.5
      vertex -20.4635 -2.07342 7.5
    endloop
  endfacet
  facet normal -0 0 1
    outer loop
      vertex -56 -0.5 7.5
      vertex -20.4635 -2.07342 7.5
      vertex -1 0 7.5
    endloop
  endfacet
  facet normal 0 0 1
    outer loop
      vertex -21.5 -3.5 7.5
      vertex -54.2322 -1.23223 7.5
      vertex -53.5 -3 7.5
    endloop
  endfacet
  facet normal 0 0 1
    outer loop
      vertex -20.4635 -2.07342 7.5
      vertex -56 -0.5 7.5
      vertex -54.2322 -1.23223 7.5
    endloop
  endfacet
  facet normal 0 0 1
    outer loop
      vertex -57.7678 -1.23223 7.5
      vertex -62.5 -3 7.5
      vertex -58.5 -3 7.5
    endloop
  endfacet
  facet normal 0 0 1
    outer loop
      vertex -63.2322 -1.23223 7.5
      vertex -57.7678 -1.23223 7.5
      vertex -56 -0.5 7.5
    endloop
  endfacet
  facet normal 0 0 1
    outer loop
      vertex -57.7678 -1.23223 7.5
      vertex -63.2322 -1.23223 7.5
      vertex -62.5 -3 7.5
    endloop
  endfacet
  facet normal 0 0 1
    outer loop
      vertex -56 -0.5 7.5
      vertex -65 -0.5 7.5
      vertex -63.2322 -1.23223 7.5
    endloop
  endfacet
  facet normal -0 0 1
    outer loop
      vertex -74.5 0 7.5
      vertex -56 -0.5 7.5
      vertex -1 0 7.5
    endloop
  endfacet
  facet normal 0 0 1
    outer loop
      vertex -67.5 -3 7.5
      vertex -69.5 -5 7.5
      vertex -67.5 -5 7.5
    endloop
  endfacet
  facet normal 0 0 1
    outer loop
      vertex -74.5 0 7.5
      vertex -67.5 -3 7.5
      vertex -66.7678 -1.23223 7.5
    endloop
  endfacet
  facet normal 0 0 1
    outer loop
      vertex -56 -0.5 7.5
      vertex -74.5 0 7.5
      vertex -65 -0.5 7.5
    endloop
  endfacet
  facet normal 0 0 1
    outer loop
      vertex -74.5 0 7.5
      vertex -66.7678 -1.23223 7.5
      vertex -65 -0.5 7.5
    endloop
  endfacet
  facet normal 0 0 1
    outer loop
      vertex -67.5 -3 7.5
      vertex -74.5 0 7.5
      vertex -69.5 -5 7.5
    endloop
  endfacet
  facet normal 0 0 1
    outer loop
      vertex -74.5 -7 7.5
      vertex -69.5 -5 7.5
      vertex -74.5 0 7.5
    endloop
  endfacet
  facet normal 0 0 1
    outer loop
      vertex -69.5 -5 7.5
      vertex -74.5 -7 7.5
      vertex -69.5 -7 7.5
    endloop
  endfacet
  facet normal 0 0 1
    outer loop
      vertex 74.5 0 7.5
      vertex 69.5 -5 7.5
      vertex 74.5 -7 7.5
    endloop
  endfacet
  facet normal 0 0 1
    outer loop
      vertex 74.5 0 7.5
      vertex 67.5 -3 7.5
      vertex 69.5 -5 7.5
    endloop
  endfacet
  facet normal 0 0 1
    outer loop
      vertex 74.5 0 7.5
      vertex 66.7678 -1.23223 7.5
      vertex 67.5 -3 7.5
    endloop
  endfacet
  facet normal 0 0 1
    outer loop
      vertex 74.5 0 7.5
      vertex 65 -0.5 7.5
      vertex 66.7678 -1.23223 7.5
    endloop
  endfacet
  facet normal 0 0 1
    outer loop
      vertex 63.2322 -1.23223 7.5
      vertex 58.5 -3 7.5
      vertex 62.5 -3 7.5
    endloop
  endfacet
  facet normal 0 0 1
    outer loop
      vertex 57.7678 -1.23223 7.5
      vertex 63.2322 -1.23223 7.5
      vertex 65 -0.5 7.5
    endloop
  endfacet
  facet normal 0 0 1
    outer loop
      vertex 63.2322 -1.23223 7.5
      vertex 57.7678 -1.23223 7.5
      vertex 58.5 -3 7.5
    endloop
  endfacet
  facet normal 0 0 1
    outer loop
      vertex 65 -0.5 7.5
      vertex 56 -0.5 7.5
      vertex 57.7678 -1.23223 7.5
    endloop
  endfacet
  facet normal 0 0 1
    outer loop
      vertex 74.5 0 7.5
      vertex 56 -0.5 7.5
      vertex 65 -0.5 7.5
    endloop
  endfacet
  facet normal 0 0 1
    outer loop
      vertex 54.2322 -1.23223 7.5
      vertex 21.5 -3.5 7.5
      vertex 53.5 -3 7.5
    endloop
  endfacet
  facet normal 0 0 1
    outer loop
      vertex 20.4635 -2.07342 7.5
      vertex 54.2322 -1.23223 7.5
      vertex 56 -0.5 7.5
    endloop
  endfacet
  facet normal 0 0 1
    outer loop
      vertex 54.2322 -1.23223 7.5
      vertex 20.4635 -2.07342 7.5
      vertex 21.5 -3.5 7.5
    endloop
  endfacet
  facet normal -0 0 1
    outer loop
      vertex 1 -2.00962 7.5
      vertex 18.7865 -2.61832 7.5
      vertex 1 0 7.5
    endloop
  endfacet
  facet normal 0 0 1
    outer loop
      vertex 20.4635 -2.07342 7.5
      vertex 1 0 7.5
      vertex 18.7865 -2.61832 7.5
    endloop
  endfacet
  facet normal 0 0 1
    outer loop
      vertex 56 -0.5 7.5
      vertex 1 0 7.5
      vertex 20.4635 -2.07342 7.5
    endloop
  endfacet
  facet normal -0 0 1
    outer loop
      vertex 1 0 7.5
      vertex 56 -0.5 7.5
      vertex 74.5 0 7.5
    endloop
  endfacet
  facet normal 0 0 1
    outer loop
      vertex 74.5 -7 7.5
      vertex 69.5 -5 7.5
      vertex 69.5 -7 7.5
    endloop
  endfacet
  facet normal 0 0 1
    outer loop
      vertex 67.5 -3 7.5
      vertex 67.5 -5 7.5
      vertex 69.5 -5 7.5
    endloop
  endfacet
  facet normal -0 0 1
    outer loop
      vertex 66.7678 -4.76777 7.5
      vertex 67.5 -5 7.5
      vertex 67.5 -3 7.5
    endloop
  endfacet
  facet normal 0 0 1
    outer loop
      vertex 67.5 -5 7.5
      vertex 66.7678 -4.76777 7.5
      vertex 67.5 -7 7.5
    endloop
  endfacet
  facet normal -0 0 1
    outer loop
      vertex 65 -5.5 7.5
      vertex 67.5 -7 7.5
      vertex 66.7678 -4.76777 7.5
    endloop
  endfacet
  facet normal 0 0 1
    outer loop
      vertex 56 -5.5 7.5
      vertex 65 -5.5 7.5
      vertex 63.2322 -4.76777 7.5
    endloop
  endfacet
  facet normal -0 0 1
    outer loop
      vertex 58.5 -3 7.5
      vertex 63.2322 -4.76777 7.5
      vertex 62.5 -3 7.5
    endloop
  endfacet
  facet normal 0 0 1
    outer loop
      vertex 57.7678 -4.76777 7.5
      vertex 63.2322 -4.76777 7.5
      vertex 58.5 -3 7.5
    endloop
  endfacet
  facet normal 0 0 1
    outer loop
      vertex 56 -5.5 7.5
      vertex 63.2322 -4.76777 7.5
      vertex 57.7678 -4.76777 7.5
    endloop
  endfacet
  facet normal 0 0 1
    outer loop
      vertex 65 -5.5 7.5
      vertex 56 -5.5 7.5
      vertex 67.5 -7 7.5
    endloop
  endfacet
  facet normal -0 0 1
    outer loop
      vertex 21.5 -3.5 7.5
      vertex 54.2322 -4.76777 7.5
      vertex 53.5 -3 7.5
    endloop
  endfacet
  facet normal 0 0 1
    outer loop
      vertex 20.4635 -4.92658 7.5
      vertex 54.2322 -4.76777 7.5
      vertex 21.5 -3.5 7.5
    endloop
  endfacet
  facet normal 0 0 1
    outer loop
      vertex 54.2322 -4.76777 7.5
      vertex 20.4635 -4.92658 7.5
      vertex 56 -5.5 7.5
    endloop
  endfacet
  facet normal 0 0 1
    outer loop
      vertex 56 -5.5 7.5
      vertex 20.4635 -4.92658 7.5
      vertex 67.5 -7 7.5
    endloop
  endfacet
  facet normal 0 0 1
    outer loop
      vertex 18.7865 -2.61832 7.5
      vertex 1 -2.00962 7.5
      vertex 18.7865 -4.38168 7.5
    endloop
  endfacet
  facet normal 0 0 1
    outer loop
      vertex 18.7865 -4.38168 7.5
      vertex 1 -2.00962 7.5
      vertex 20.4635 -4.92658 7.5
    endloop
  endfacet
  facet normal -0 0 1
    outer loop
      vertex -1 -2.00962 7.5
      vertex 20.4635 -4.92658 7.5
      vertex 1 -2.00962 7.5
    endloop
  endfacet
  facet normal 0 0 1
    outer loop
      vertex -18.7865 -4.38168 7.5
      vertex -1 -2.00962 7.5
      vertex -18.7865 -2.61832 7.5
    endloop
  endfacet
  facet normal 0 0 1
    outer loop
      vertex -20.4635 -4.92658 7.5
      vertex -1 -2.00962 7.5
      vertex -18.7865 -4.38168 7.5
    endloop
  endfacet
  facet normal 0 0 1
    outer loop
      vertex -1 -2.00962 7.5
      vertex -20.4635 -4.92658 7.5
      vertex 20.4635 -4.92658 7.5
    endloop
  endfacet
  facet normal 0 0 1
    outer loop
      vertex 20.4635 -4.92658 7.5
      vertex -20.4635 -4.92658 7.5
      vertex 67.5 -7 7.5
    endloop
  endfacet
  facet normal 0 0 1
    outer loop
      vertex -54.2322 -4.76777 7.5
      vertex -21.5 -3.5 7.5
      vertex -53.5 -3 7.5
    endloop
  endfacet
  facet normal 0 0 1
    outer loop
      vertex -21.5 -3.5 7.5
      vertex -54.2322 -4.76777 7.5
      vertex -20.4635 -4.92658 7.5
    endloop
  endfacet
  facet normal 0 0 1
    outer loop
      vertex -56 -5.5 7.5
      vertex -20.4635 -4.92658 7.5
      vertex -54.2322 -4.76777 7.5
    endloop
  endfacet
  facet normal 0 0 1
    outer loop
      vertex -67.5 -7 7.5
      vertex -20.4635 -4.92658 7.5
      vertex -56 -5.5 7.5
    endloop
  endfacet
  facet normal -0 0 1
    outer loop
      vertex -62.5 -3 7.5
      vertex -57.7678 -4.76777 7.5
      vertex -58.5 -3 7.5
    endloop
  endfacet
  facet normal 0 0 1
    outer loop
      vertex -63.2322 -4.76777 7.5
      vertex -57.7678 -4.76777 7.5
      vertex -62.5 -3 7.5
    endloop
  endfacet
  facet normal 0 0 1
    outer loop
      vertex -57.7678 -4.76777 7.5
      vertex -63.2322 -4.76777 7.5
      vertex -56 -5.5 7.5
    endloop
  endfacet
  facet normal 0 0 1
    outer loop
      vertex -65 -5.5 7.5
      vertex -56 -5.5 7.5
      vertex -63.2322 -4.76777 7.5
    endloop
  endfacet
  facet normal 0 0 1
    outer loop
      vertex -67.5 -7 7.5
      vertex -56 -5.5 7.5
      vertex -65 -5.5 7.5
    endloop
  endfacet
  facet normal 0 0 1
    outer loop
      vertex -67.5 -5 7.5
      vertex -66.7678 -4.76777 7.5
      vertex -67.5 -3 7.5
    endloop
  endfacet
  facet normal 0 0 1
    outer loop
      vertex -67.5 -7 7.5
      vertex -66.7678 -4.76777 7.5
      vertex -67.5 -5 7.5
    endloop
  endfacet
  facet normal 0 0 1
    outer loop
      vertex -20.4635 -4.92658 7.5
      vertex -67.5 -7 7.5
      vertex 67.5 -7 7.5
    endloop
  endfacet
  facet normal 0 0 1
    outer loop
      vertex -66.7678 -4.76777 7.5
      vertex -67.5 -7 7.5
      vertex -65 -5.5 7.5
    endloop
  endfacet
  facet normal 1 -0 0
    outer loop
      vertex 74.5 -7 7.5
      vertex 74.5 0 -7.5
      vertex 74.5 0 7.5
    endloop
  endfacet
  facet normal 1 0 0
    outer loop
      vertex 74.5 0 -7.5
      vertex 74.5 -7 7.5
      vertex 74.5 -7 -7.5
    endloop
  endfacet
  facet normal 0 1 0
    outer loop
      vertex 57.5266 0 2.99583
      vertex 74.5 0 7.5
      vertex 59.4734 0 2.99583
    endloop
  endfacet
  facet normal 0 1 0
    outer loop
      vertex 74.5 0 7.5
      vertex 61.0484 0 1.85152
      vertex 59.4734 0 2.99583
    endloop
  endfacet
  facet normal 0 1 0
    outer loop
      vertex 74.5 0 7.5
      vertex 68.7318 0 0.713292
      vertex 61.0484 0 1.85152
    endloop
  endfacet
  facet normal 0 1 0
    outer loop
      vertex 74.5 0 7.5
      vertex 69.25 0 0
      vertex 68.7318 0 0.713292
    endloop
  endfacet
  facet normal 0 1 0
    outer loop
      vertex 74.5 0 -7.5
      vertex 61.0484 0 -1.85152
      vertex 68.7318 0 -0.713292
    endloop
  endfacet
  facet normal 0 1 0
    outer loop
      vertex 59.4734 0 -2.99583
      vertex 74.5 0 -7.5
      vertex 57.5266 0 -2.99583
    endloop
  endfacet
  facet normal 0 1 0
    outer loop
      vertex 61.0484 0 -1.85152
      vertex 74.5 0 -7.5
      vertex 59.4734 0 -2.99583
    endloop
  endfacet
  facet normal 0 1 0
    outer loop
      vertex 69.25 0 0
      vertex 74.5 0 -7.5
      vertex 68.7318 0 -0.713292
    endloop
  endfacet
  facet normal 0 1 -0
    outer loop
      vertex 74.5 0 -7.5
      vertex 69.25 0 0
      vertex 74.5 0 7.5
    endloop
  endfacet
  facet normal 0 1 0
    outer loop
      vertex 74.5 0 7.5
      vertex 57.5266 0 2.99583
      vertex 1 0 7.5
    endloop
  endfacet
  facet normal 0 1 -0
    outer loop
      vertex 55.9516 0 1.85152
      vertex 1 0 7.5
      vertex 57.5266 0 2.99583
    endloop
  endfacet
  facet normal 0 1 -0
    outer loop
      vertex 55.35 0 1.77636e-15
      vertex 1 0 7.5
      vertex 55.9516 0 1.85152
    endloop
  endfacet
  facet normal 0 1 0
    outer loop
      vertex 55.35 0 1.77636e-15
      vertex 1 0 0
      vertex 1 0 7.5
    endloop
  endfacet
  facet normal 0 1 0
    outer loop
      vertex 1 0 -7.5
      vertex 55.35 0 1.77636e-15
      vertex 55.9516 0 -1.85152
    endloop
  endfacet
  facet normal 0 1 0
    outer loop
      vertex 1 0 -7.5
      vertex 55.9516 0 -1.85152
      vertex 57.5266 0 -2.99583
    endloop
  endfacet
  facet normal 0 1 0
    outer loop
      vertex 1 0 -7.5
      vertex 57.5266 0 -2.99583
      vertex 74.5 0 -7.5
    endloop
  endfacet
  facet normal 0 1 0
    outer loop
      vertex 55.35 0 1.77636e-15
      vertex 1 0 -7.5
      vertex 1 0 0
    endloop
  endfacet
  facet normal 0 1 -0
    outer loop
      vertex 67.8932 0 0.440839
      vertex 61.0484 0 1.85152
      vertex 68.7318 0 0.713292
    endloop
  endfacet
  facet normal 0 1 0
    outer loop
      vertex 67.8932 0 0.440839
      vertex 61.65 0 1.77636e-15
      vertex 61.0484 0 1.85152
    endloop
  endfacet
  facet normal 0 1 -0
    outer loop
      vertex 67.8932 0 -0.440839
      vertex 61.65 0 1.77636e-15
      vertex 67.8932 0 0.440839
    endloop
  endfacet
  facet normal 0 1 0
    outer loop
      vertex 61.0484 0 -1.85152
      vertex 67.8932 0 -0.440839
      vertex 68.7318 0 -0.713292
    endloop
  endfacet
  facet normal 0 1 0
    outer loop
      vertex 67.8932 0 -0.440839
      vertex 61.0484 0 -1.85152
      vertex 61.65 0 1.77636e-15
    endloop
  endfacet
  facet normal 0 1 0
    outer loop
      vertex -61.0484 0 1.85152
      vertex -67.8932 0 0.440839
      vertex -68.7318 0 0.713292
    endloop
  endfacet
  facet normal 0 1 -0
    outer loop
      vertex -61.65 0 1.77636e-15
      vertex -67.8932 0 0.440839
      vertex -61.0484 0 1.85152
    endloop
  endfacet
  facet normal 0 1 0
    outer loop
      vertex -61.65 0 1.77636e-15
      vertex -67.8932 0 -0.440839
      vertex -67.8932 0 0.440839
    endloop
  endfacet
  facet normal 0 1 0
    outer loop
      vertex -61.0484 0 -1.85152
      vertex -67.8932 0 -0.440839
      vertex -61.65 0 1.77636e-15
    endloop
  endfacet
  facet normal 0 1 0
    outer loop
      vertex -67.8932 0 -0.440839
      vertex -61.0484 0 -1.85152
      vertex -68.7318 0 -0.713292
    endloop
  endfacet
  facet normal 0 1 0
    outer loop
      vertex -1 0 7.5
      vertex -57.5266 0 2.99583
      vertex -74.5 0 7.5
    endloop
  endfacet
  facet normal 0 1 0
    outer loop
      vertex -1 0 7.5
      vertex -55.9516 0 1.85152
      vertex -57.5266 0 2.99583
    endloop
  endfacet
  facet normal 0 1 0
    outer loop
      vertex -1 0 7.5
      vertex -55.35 0 1.77636e-15
      vertex -55.9516 0 1.85152
    endloop
  endfacet
  facet normal 0 1 -0
    outer loop
      vertex -1 0 0
      vertex -55.35 0 1.77636e-15
      vertex -1 0 7.5
    endloop
  endfacet
  facet normal 0 1 -0
    outer loop
      vertex -1 0 -7.5
      vertex -55.35 0 1.77636e-15
      vertex -1 0 0
    endloop
  endfacet
  facet normal 0 1 0
    outer loop
      vertex -55.35 0 1.77636e-15
      vertex -1 0 -7.5
      vertex -55.9516 0 -1.85152
    endloop
  endfacet
  facet normal 0 1 0
    outer loop
      vertex -74.5 0 -7.5
      vertex -57.5266 0 -2.99583
      vertex -1 0 -7.5
    endloop
  endfacet
  facet normal 0 1 0
    outer loop
      vertex -55.9516 0 -1.85152
      vertex -1 0 -7.5
      vertex -57.5266 0 -2.99583
    endloop
  endfacet
  facet normal 0 1 -0
    outer loop
      vertex -59.4734 0 2.99583
      vertex -74.5 0 7.5
      vertex -57.5266 0 2.99583
    endloop
  endfacet
  facet normal 0 1 -0
    outer loop
      vertex -61.0484 0 1.85152
      vertex -74.5 0 7.5
      vertex -59.4734 0 2.99583
    endloop
  endfacet
  facet normal 0 1 -0
    outer loop
      vertex -68.7318 0 0.713292
      vertex -74.5 0 7.5
      vertex -61.0484 0 1.85152
    endloop
  endfacet
  facet normal 0 1 -0
    outer loop
      vertex -69.25 0 0
      vertex -74.5 0 7.5
      vertex -68.7318 0 0.713292
    endloop
  endfacet
  facet normal 0 1 0
    outer loop
      vertex -74.5 0 -7.5
      vertex -61.0484 0 -1.85152
      vertex -59.4734 0 -2.99583
    endloop
  endfacet
  facet normal 0 1 0
    outer loop
      vertex -69.25 0 0
      vertex -74.5 0 -7.5
      vertex -74.5 0 7.5
    endloop
  endfacet
  facet normal 0 1 0
    outer loop
      vertex -68.7318 0 -0.713292
      vertex -74.5 0 -7.5
      vertex -69.25 0 0
    endloop
  endfacet
  facet normal 0 1 0
    outer loop
      vertex -61.0484 0 -1.85152
      vertex -74.5 0 -7.5
      vertex -68.7318 0 -0.713292
    endloop
  endfacet
  facet normal 0 1 0
    outer loop
      vertex -57.5266 0 -2.99583
      vertex -74.5 0 -7.5
      vertex -59.4734 0 -2.99583
    endloop
  endfacet
  facet normal 0 0 -1
    outer loop
      vertex -69.5 -7 -7.5
      vertex -74.5 -7 -7.5
      vertex -69.5 -5 -7.5
    endloop
  endfacet
  facet normal 0 0 -1
    outer loop
      vertex 67.5 -7 -7.5
      vertex 21.5 -3.5 -7.5
      vertex 67.5 -5 -7.5
    endloop
  endfacet
  facet normal 0 0 -1
    outer loop
      vertex 67.5 -7 -7.5
      vertex 20.4635 -4.92658 -7.5
      vertex 21.5 -3.5 -7.5
    endloop
  endfacet
  facet normal 0 0 -1
    outer loop
      vertex 18.7865 -4.38168 -7.5
      vertex 1 -2.00962 -7.5
      vertex 18.7865 -2.61832 -7.5
    endloop
  endfacet
  facet normal 0 0 -1
    outer loop
      vertex 20.4635 -4.92658 -7.5
      vertex 1 -2.00962 -7.5
      vertex 18.7865 -4.38168 -7.5
    endloop
  endfacet
  facet normal 0 0 -1
    outer loop
      vertex 20.4635 -4.92658 -7.5
      vertex -1 -2.00962 -7.5
      vertex 1 -2.00962 -7.5
    endloop
  endfacet
  facet normal 0 0 -1
    outer loop
      vertex -18.7865 -2.61832 -7.5
      vertex -1 -2.00962 -7.5
      vertex -18.7865 -4.38168 -7.5
    endloop
  endfacet
  facet normal 0 0 -1
    outer loop
      vertex -20.4635 -4.92658 -7.5
      vertex -1 -2.00962 -7.5
      vertex 20.4635 -4.92658 -7.5
    endloop
  endfacet
  facet normal 0 0 -1
    outer loop
      vertex -20.4635 -4.92658 -7.5
      vertex 20.4635 -4.92658 -7.5
      vertex 67.5 -7 -7.5
    endloop
  endfacet
  facet normal 0 0 -1
    outer loop
      vertex -1 -2.00962 -7.5
      vertex -20.4635 -4.92658 -7.5
      vertex -18.7865 -4.38168 -7.5
    endloop
  endfacet
  facet normal -0 0 -1
    outer loop
      vertex -20.4635 -4.92658 -7.5
      vertex -67.5 -7 -7.5
      vertex -21.5 -3.5 -7.5
    endloop
  endfacet
  facet normal 0 0 -1
    outer loop
      vertex -67.5 -7 -7.5
      vertex -20.4635 -4.92658 -7.5
      vertex 67.5 -7 -7.5
    endloop
  endfacet
  facet normal 0 0 -1
    outer loop
      vertex 69.5 -5 -7.5
      vertex 74.5 -7 -7.5
      vertex 69.5 -7 -7.5
    endloop
  endfacet
  facet normal 0 0 -1
    outer loop
      vertex 74.5 -7 -7.5
      vertex 69.5 -5 -7.5
      vertex 74.5 0 -7.5
    endloop
  endfacet
  facet normal 0 0 -1
    outer loop
      vertex 67.5 -5 -7.5
      vertex 74.5 0 -7.5
      vertex 69.5 -5 -7.5
    endloop
  endfacet
  facet normal 0 0 -1
    outer loop
      vertex 20.4635 -2.07342 -7.5
      vertex 67.5 -5 -7.5
      vertex 21.5 -3.5 -7.5
    endloop
  endfacet
  facet normal 0 0 -1
    outer loop
      vertex 67.5 -5 -7.5
      vertex 20.4635 -2.07342 -7.5
      vertex 74.5 0 -7.5
    endloop
  endfacet
  facet normal 0 0 -1
    outer loop
      vertex 1 0 -7.5
      vertex 18.7865 -2.61832 -7.5
      vertex 1 -2.00962 -7.5
    endloop
  endfacet
  facet normal 0 0 -1
    outer loop
      vertex 18.7865 -2.61832 -7.5
      vertex 1 0 -7.5
      vertex 20.4635 -2.07342 -7.5
    endloop
  endfacet
  facet normal 0 0 -1
    outer loop
      vertex 20.4635 -2.07342 -7.5
      vertex 1 0 -7.5
      vertex 74.5 0 -7.5
    endloop
  endfacet
  facet normal -0 0 -1
    outer loop
      vertex -1 -2.00962 -7.5
      vertex -18.7865 -2.61832 -7.5
      vertex -1 0 -7.5
    endloop
  endfacet
  facet normal 0 0 -1
    outer loop
      vertex -20.4635 -2.07342 -7.5
      vertex -1 0 -7.5
      vertex -18.7865 -2.61832 -7.5
    endloop
  endfacet
  facet normal 0 0 -1
    outer loop
      vertex -67.5 -5 -7.5
      vertex -21.5 -3.5 -7.5
      vertex -67.5 -7 -7.5
    endloop
  endfacet
  facet normal -0 0 -1
    outer loop
      vertex -21.5 -3.5 -7.5
      vertex -67.5 -5 -7.5
      vertex -20.4635 -2.07342 -7.5
    endloop
  endfacet
  facet normal 0 0 -1
    outer loop
      vertex -74.5 0 -7.5
      vertex -20.4635 -2.07342 -7.5
      vertex -67.5 -5 -7.5
    endloop
  endfacet
  facet normal 0 0 -1
    outer loop
      vertex -74.5 0 -7.5
      vertex -67.5 -5 -7.5
      vertex -69.5 -5 -7.5
    endloop
  endfacet
  facet normal 0 0 -1
    outer loop
      vertex -20.4635 -2.07342 -7.5
      vertex -74.5 0 -7.5
      vertex -1 0 -7.5
    endloop
  endfacet
  facet normal 0 0 -1
    outer loop
      vertex -74.5 0 -7.5
      vertex -69.5 -5 -7.5
      vertex -74.5 -7 -7.5
    endloop
  endfacet
  facet normal 0 -1 0
    outer loop
      vertex -74.5 -7 -7.5
      vertex -69.5 -7 7.5
      vertex -74.5 -7 7.5
    endloop
  endfacet
  facet normal 0 -1 -0
    outer loop
      vertex -69.5 -7 7.5
      vertex -74.5 -7 -7.5
      vertex -69.5 -7 -7.5
    endloop
  endfacet
  facet normal 0 -1 0
    outer loop
      vertex 69.5 -7 -7.5
      vertex 74.5 -7 7.5
      vertex 69.5 -7 7.5
    endloop
  endfacet
  facet normal 0 -1 -0
    outer loop
      vertex 74.5 -7 7.5
      vertex 69.5 -7 -7.5
      vertex 74.5 -7 -7.5
    endloop
  endfacet
  facet normal 0 -1 0
    outer loop
      vertex 67.5 -7 7.5
      vertex 57.2865 -7 0.881678
      vertex 58.9635 -7 1.42658
    endloop
  endfacet
  facet normal 0 -1 0
    outer loop
      vertex 22.8 -7 0.5
      vertex 57.2865 -7 0.881678
      vertex 22.8 -7 4.5
    endloop
  endfacet
  facet normal 0 -1 0
    outer loop
      vertex 67.5 -7 -7.5
      vertex 17.2 -7 0.5
      vertex -67.5 -7 -7.5
    endloop
  endfacet
  facet normal 0 -1 0
    outer loop
      vertex 22.8 -7 0.5
      vertex 57.2865 -7 -0.881678
      vertex 57.2865 -7 0.881678
    endloop
  endfacet
  facet normal 0 -1 0
    outer loop
      vertex -67.5 -7 -7.5
      vertex -57.2865 -7 -0.881678
      vertex -58.9635 -7 -1.42658
    endloop
  endfacet
  facet normal 0 -1 0
    outer loop
      vertex 17.2 -7 0.5
      vertex 67.5 -7 -7.5
      vertex 22.8 -7 0.5
    endloop
  endfacet
  facet normal 0 -1 0
    outer loop
      vertex -17.2 -7 0.5
      vertex 17.2 -7 4.5
      vertex -17.2 -7 4.5
    endloop
  endfacet
  facet normal 0 -1 -0
    outer loop
      vertex 17.2 -7 4.5
      vertex -17.2 -7 0.5
      vertex 17.2 -7 0.5
    endloop
  endfacet
  facet normal 0 -1 0
    outer loop
      vertex -17.2 -7 4.5
      vertex -67.5 -7 7.5
      vertex -22.8 -7 4.5
    endloop
  endfacet
  facet normal 0 -1 0
    outer loop
      vertex -57.2865 -7 0.881678
      vertex -67.5 -7 7.5
      vertex -58.9635 -7 1.42658
    endloop
  endfacet
  facet normal 0 -1 0
    outer loop
      vertex -67.5 -7 7.5
      vertex -60 -7 2.22045e-16
      vertex -58.9635 -7 1.42658
    endloop
  endfacet
  facet normal 0 -1 0
    outer loop
      vertex -67.5 -7 -7.5
      vertex -60 -7 2.22045e-16
      vertex -67.5 -7 7.5
    endloop
  endfacet
  facet normal 0 -1 0
    outer loop
      vertex 22.8 -7 0.5
      vertex 67.5 -7 -7.5
      vertex 57.2865 -7 -0.881678
    endloop
  endfacet
  facet normal 0 -1 -0
    outer loop
      vertex -60 -7 2.22045e-16
      vertex -67.5 -7 -7.5
      vertex -58.9635 -7 -1.42658
    endloop
  endfacet
  facet normal 0 -1 0
    outer loop
      vertex -67.5 -7 7.5
      vertex -17.2 -7 4.5
      vertex 67.5 -7 7.5
    endloop
  endfacet
  facet normal 0 -1 0
    outer loop
      vertex 17.2 -7 4.5
      vertex 67.5 -7 7.5
      vertex -17.2 -7 4.5
    endloop
  endfacet
  facet normal 0 -1 0
    outer loop
      vertex 22.8 -7 4.5
      vertex 67.5 -7 7.5
      vertex 17.2 -7 4.5
    endloop
  endfacet
  facet normal 0 -1 0
    outer loop
      vertex 57.2865 -7 0.881678
      vertex 67.5 -7 7.5
      vertex 22.8 -7 4.5
    endloop
  endfacet
  facet normal 0 -1 0
    outer loop
      vertex 60 -7 2.22045e-16
      vertex 67.5 -7 7.5
      vertex 58.9635 -7 1.42658
    endloop
  endfacet
  facet normal 0 -1 0
    outer loop
      vertex 67.5 -7 -7.5
      vertex 60 -7 2.22045e-16
      vertex 58.9635 -7 -1.42658
    endloop
  endfacet
  facet normal 0 -1 0
    outer loop
      vertex 60 -7 2.22045e-16
      vertex 67.5 -7 -7.5
      vertex 67.5 -7 7.5
    endloop
  endfacet
  facet normal 0 -1 0
    outer loop
      vertex 57.2865 -7 -0.881678
      vertex 67.5 -7 -7.5
      vertex 58.9635 -7 -1.42658
    endloop
  endfacet
  facet normal 0 -1 0
    outer loop
      vertex -67.5 -7 7.5
      vertex -57.2865 -7 0.881678
      vertex -22.8 -7 4.5
    endloop
  endfacet
  facet normal 0 -1 0
    outer loop
      vertex -57.2865 -7 0.881678
      vertex -22.8 -7 0.5
      vertex -22.8 -7 4.5
    endloop
  endfacet
  facet normal 0 -1 0
    outer loop
      vertex -67.5 -7 -7.5
      vertex -22.8 -7 0.5
      vertex -57.2865 -7 -0.881678
    endloop
  endfacet
  facet normal 0 -1 -0
    outer loop
      vertex -22.8 -7 0.5
      vertex -67.5 -7 -7.5
      vertex -17.2 -7 0.5
    endloop
  endfacet
  facet normal 0 -1 -0
    outer loop
      vertex -17.2 -7 0.5
      vertex -67.5 -7 -7.5
      vertex 17.2 -7 0.5
    endloop
  endfacet
  facet normal 0 -1 0
    outer loop
      vertex -57.2865 -7 -0.881678
      vertex -22.8 -7 0.5
      vertex -57.2865 -7 0.881678
    endloop
  endfacet
  facet normal 1 0 -0
    outer loop
      vertex -1 0 0
      vertex -1 0 7.5
      vertex -1 -2.00962 7.5
    endloop
  endfacet
  facet normal -1 -0 -0
    outer loop
      vertex 1 0 7.5
      vertex 1 0 0
      vertex 1 -2.00962 7.5
    endloop
  endfacet
  facet normal 0 0.965926 0.258819
    outer loop
      vertex 1 0 0
      vertex -1 -2.00962 7.5
      vertex 1 -2.00962 7.5
    endloop
  endfacet
  facet normal 0 0.965926 0.258819
    outer loop
      vertex -1 -2.00962 7.5
      vertex 1 0 0
      vertex -1 0 0
    endloop
  endfacet
  facet normal -1 0 -0
    outer loop
      vertex 1 0 0
      vertex 1 0 -7.5
      vertex 1 -2.00962 -7.5
    endloop
  endfacet
  facet normal 0 0.965926 -0.258819
    outer loop
      vertex 1 -2.00962 -7.5
      vertex -1 0 0
      vertex 1 0 0
    endloop
  endfacet
  facet normal 0 0.965926 -0.258819
    outer loop
      vertex -1 0 0
      vertex 1 -2.00962 -7.5
      vertex -1 -2.00962 -7.5
    endloop
  endfacet
  facet normal 1 0 -0
    outer loop
      vertex -1 0 -7.5
      vertex -1 0 0
      vertex -1 -2.00962 -7.5
    endloop
  endfacet
endsolid OpenSCAD_Model
