solid OpenSCAD_Model
  facet normal -0.705758 0.0617486 -0.705757
    outer loop
      vertex -5.97778 0 0
      vertex -7.44828 0.591106 1.52222
      vertex -5.88696 1.03803 0
    endloop
  endfacet
  facet normal -0.705757 0.0617516 -0.705757
    outer loop
      vertex -7.44828 0.591106 1.52222
      vertex -5.97778 0 0
      vertex -7.5 0 1.52222
    endloop
  endfacet
  facet normal -0.705757 0.0617391 -0.705759
    outer loop
      vertex -5.88696 1.03803 0
      vertex -7.44828 0.591106 1.52222
      vertex -7.38606 1.30236 1.52222
    endloop
  endfacet
  facet normal -0.684313 0.183362 -0.705758
    outer loop
      vertex -5.88696 1.03803 0
      vertex -7.23248 1.87551 1.52222
      vertex -5.61727 2.04452 0
    endloop
  endfacet
  facet normal -0.684311 0.183366 -0.705759
    outer loop
      vertex -7.23248 1.87551 1.52222
      vertex -5.88696 1.03803 0
      vertex -7.38606 1.30236 1.52222
    endloop
  endfacet
  facet normal -0.684313 0.183363 -0.705758
    outer loop
      vertex -7.23248 1.87551 1.52222
      vertex -7.04769 2.56515 1.52222
      vertex -5.61727 2.04452 0
    endloop
  endfacet
  facet normal -0.642078 0.299401 -0.705758
    outer loop
      vertex -5.61727 2.04452 0
      vertex -6.79693 3.10292 1.52222
      vertex -5.17691 2.98889 0
    endloop
  endfacet
  facet normal -0.642079 0.299399 -0.705758
    outer loop
      vertex -6.79693 3.10292 1.52222
      vertex -5.61727 2.04452 0
      vertex -7.04769 2.56515 1.52222
    endloop
  endfacet
  facet normal -0.642076 0.299407 -0.705757
    outer loop
      vertex -5.17691 2.98889 0
      vertex -6.79693 3.10292 1.52222
      vertex -6.49519 3.75 1.52222
    endloop
  endfacet
  facet normal -0.580328 0.406355 -0.705759
    outer loop
      vertex -5.17691 2.98889 0
      vertex -6.15485 4.23606 1.52222
      vertex -4.57924 3.84244 0
    endloop
  endfacet
  facet normal -0.580333 0.40635 -0.705757
    outer loop
      vertex -6.49519 3.75 1.52222
      vertex -6.15485 4.23606 1.52222
      vertex -5.17691 2.98889 0
    endloop
  endfacet
  facet normal -0.580328 0.406354 -0.705759
    outer loop
      vertex -4.57924 3.84244 0
      vertex -6.15485 4.23606 1.52222
      vertex -5.74533 4.82091 1.52222
    endloop
  endfacet
  facet normal -0.500951 0.500951 -0.705759
    outer loop
      vertex -4.57924 3.84244 0
      vertex -4.82091 5.74533 1.52222
      vertex -3.84244 4.57924 0
    endloop
  endfacet
  facet normal -0.500951 0.500951 -0.705759
    outer loop
      vertex -4.82091 5.74533 1.52222
      vertex -4.57924 3.84244 0
      vertex -5.74533 4.82091 1.52222
    endloop
  endfacet
  facet normal -0.406356 0.580329 -0.705757
    outer loop
      vertex -3.84244 4.57924 0
      vertex -4.33485 6.08567 1.52222
      vertex -2.98889 5.17691 0
    endloop
  endfacet
  facet normal -0.406349 0.580332 -0.705759
    outer loop
      vertex -4.33485 6.08567 1.52222
      vertex -3.84244 4.57924 0
      vertex -4.82091 5.74533 1.52222
    endloop
  endfacet
  facet normal -0.406355 0.58033 -0.705757
    outer loop
      vertex -2.98889 5.17691 0
      vertex -4.33485 6.08567 1.52222
      vertex -3.75 6.49519 1.52222
    endloop
  endfacet
  facet normal -0.299401 0.642078 -0.705759
    outer loop
      vertex -2.98889 5.17691 0
      vertex -3.21223 6.74596 1.52222
      vertex -2.04452 5.61727 0
    endloop
  endfacet
  facet normal -0.299409 0.642075 -0.705757
    outer loop
      vertex -2.98889 5.17691 0
      vertex -3.75 6.49519 1.52222
      vertex -3.21223 6.74596 1.52222
    endloop
  endfacet
  facet normal -0.299398 0.64208 -0.705758
    outer loop
      vertex -2.04452 5.61727 0
      vertex -3.21223 6.74596 1.52222
      vertex -2.56515 7.04769 1.52222
    endloop
  endfacet
  facet normal -0.183362 0.684312 -0.705759
    outer loop
      vertex -2.04452 5.61727 0
      vertex -1.992 7.20127 1.52222
      vertex -1.03803 5.88696 0
    endloop
  endfacet
  facet normal -0.183367 0.684312 -0.705758
    outer loop
      vertex -2.56515 7.04769 1.52222
      vertex -1.992 7.20127 1.52222
      vertex -2.04452 5.61727 0
    endloop
  endfacet
  facet normal -0.183362 0.684312 -0.705759
    outer loop
      vertex -1.03803 5.88696 0
      vertex -1.992 7.20127 1.52222
      vertex -1.30236 7.38606 1.52222
    endloop
  endfacet
  facet normal -0.0617486 0.705758 -0.705757
    outer loop
      vertex -1.03803 5.88696 0
      vertex -0.711254 7.43777 1.52222
      vertex 0 5.97778 0
    endloop
  endfacet
  facet normal -0.0617397 0.705757 -0.705759
    outer loop
      vertex -1.03803 5.88696 0
      vertex -1.30236 7.38606 1.52222
      vertex -0.711254 7.43777 1.52222
    endloop
  endfacet
  facet normal -0.0617491 0.705757 -0.705757
    outer loop
      vertex 0 5.97778 0
      vertex -0.711254 7.43777 1.52222
      vertex 0 7.5 1.52222
    endloop
  endfacet
  facet normal 0.0617486 0.705758 -0.705757
    outer loop
      vertex 0 5.97778 0
      vertex 0.591106 7.44828 1.52222
      vertex 1.03803 5.88696 0
    endloop
  endfacet
  facet normal 0.0617516 0.705757 -0.705757
    outer loop
      vertex 0.591106 7.44828 1.52222
      vertex 0 5.97778 0
      vertex 0 7.5 1.52222
    endloop
  endfacet
  facet normal 0.0617391 0.705757 -0.705759
    outer loop
      vertex 1.30236 7.38606 1.52222
      vertex 1.03803 5.88696 0
      vertex 0.591106 7.44828 1.52222
    endloop
  endfacet
  facet normal 0.183362 0.684313 -0.705758
    outer loop
      vertex 1.03803 5.88696 0
      vertex 1.87551 7.23248 1.52222
      vertex 2.04452 5.61727 0
    endloop
  endfacet
  facet normal 0.183366 0.684311 -0.705759
    outer loop
      vertex 1.87551 7.23248 1.52222
      vertex 1.03803 5.88696 0
      vertex 1.30236 7.38606 1.52222
    endloop
  endfacet
  facet normal 0.183363 0.684313 -0.705758
    outer loop
      vertex 1.87551 7.23248 1.52222
      vertex 2.56515 7.04769 1.52222
      vertex 2.04452 5.61727 0
    endloop
  endfacet
  facet normal 0.299401 0.642078 -0.705758
    outer loop
      vertex 2.04452 5.61727 0
      vertex 3.10292 6.79693 1.52222
      vertex 2.98889 5.17691 0
    endloop
  endfacet
  facet normal 0.299399 0.642079 -0.705758
    outer loop
      vertex 3.10292 6.79693 1.52222
      vertex 2.04452 5.61727 0
      vertex 2.56515 7.04769 1.52222
    endloop
  endfacet
  facet normal 0.299407 0.642076 -0.705757
    outer loop
      vertex 3.75 6.49519 1.52222
      vertex 2.98889 5.17691 0
      vertex 3.10292 6.79693 1.52222
    endloop
  endfacet
  facet normal 0.406355 0.580328 -0.705759
    outer loop
      vertex 2.98889 5.17691 0
      vertex 4.23606 6.15485 1.52222
      vertex 3.84244 4.57924 0
    endloop
  endfacet
  facet normal 0.40635 0.580333 -0.705757
    outer loop
      vertex 3.75 6.49519 1.52222
      vertex 4.23606 6.15485 1.52222
      vertex 2.98889 5.17691 0
    endloop
  endfacet
  facet normal 0.406354 0.580328 -0.705759
    outer loop
      vertex 4.82091 5.74533 1.52222
      vertex 3.84244 4.57924 0
      vertex 4.23606 6.15485 1.52222
    endloop
  endfacet
  facet normal 0.500951 0.500951 -0.705759
    outer loop
      vertex 4.57924 3.84244 0
      vertex 4.82091 5.74533 1.52222
      vertex 5.74533 4.82091 1.52222
    endloop
  endfacet
  facet normal 0.500951 0.500951 -0.705759
    outer loop
      vertex 4.82091 5.74533 1.52222
      vertex 4.57924 3.84244 0
      vertex 3.84244 4.57924 0
    endloop
  endfacet
  facet normal 0.580329 0.406356 -0.705757
    outer loop
      vertex 4.57924 3.84244 0
      vertex 6.08567 4.33485 1.52222
      vertex 5.17691 2.98889 0
    endloop
  endfacet
  facet normal 0.580332 0.406349 -0.705759
    outer loop
      vertex 6.08567 4.33485 1.52222
      vertex 4.57924 3.84244 0
      vertex 5.74533 4.82091 1.52222
    endloop
  endfacet
  facet normal 0.58033 0.406355 -0.705757
    outer loop
      vertex 6.49519 3.75 1.52222
      vertex 5.17691 2.98889 0
      vertex 6.08567 4.33485 1.52222
    endloop
  endfacet
  facet normal 0.642075 0.299409 -0.705757
    outer loop
      vertex 5.17691 2.98889 0
      vertex 6.49519 3.75 1.52222
      vertex 6.74596 3.21223 1.52222
    endloop
  endfacet
  facet normal 0.642078 0.299401 -0.705759
    outer loop
      vertex 5.17691 2.98889 0
      vertex 6.74596 3.21223 1.52222
      vertex 5.61727 2.04452 0
    endloop
  endfacet
  facet normal 0.64208 0.299398 -0.705758
    outer loop
      vertex 7.04769 2.56515 1.52222
      vertex 5.61727 2.04452 0
      vertex 6.74596 3.21223 1.52222
    endloop
  endfacet
  facet normal 0.684312 0.183362 -0.705759
    outer loop
      vertex 5.61727 2.04452 0
      vertex 7.20127 1.992 1.52222
      vertex 5.88696 1.03803 0
    endloop
  endfacet
  facet normal 0.684312 0.183367 -0.705758
    outer loop
      vertex 7.20127 1.992 1.52222
      vertex 5.61727 2.04452 0
      vertex 7.04769 2.56515 1.52222
    endloop
  endfacet
  facet normal 0.684312 0.183362 -0.705759
    outer loop
      vertex 7.38606 1.30236 1.52222
      vertex 5.88696 1.03803 0
      vertex 7.20127 1.992 1.52222
    endloop
  endfacet
  facet normal 0.705758 0.0617486 -0.705757
    outer loop
      vertex 5.88696 1.03803 0
      vertex 7.43777 0.711254 1.52222
      vertex 5.97778 0 0
    endloop
  endfacet
  facet normal 0.705757 0.0617397 -0.705759
    outer loop
      vertex 7.43777 0.711254 1.52222
      vertex 5.88696 1.03803 0
      vertex 7.38606 1.30236 1.52222
    endloop
  endfacet
  facet normal 0.705757 0.0617491 -0.705757
    outer loop
      vertex 7.5 0 1.52222
      vertex 5.97778 0 0
      vertex 7.43777 0.711254 1.52222
    endloop
  endfacet
  facet normal 0.705757 -0.0617516 -0.705757
    outer loop
      vertex 7.44828 -0.591106 1.52222
      vertex 5.97778 0 0
      vertex 7.5 0 1.52222
    endloop
  endfacet
  facet normal 0.705758 -0.0617486 -0.705757
    outer loop
      vertex 5.97778 0 0
      vertex 7.44828 -0.591106 1.52222
      vertex 5.88696 -1.03803 0
    endloop
  endfacet
  facet normal 0.705757 -0.0617391 -0.705759
    outer loop
      vertex 7.44828 -0.591106 1.52222
      vertex 7.38606 -1.30236 1.52222
      vertex 5.88696 -1.03803 0
    endloop
  endfacet
  facet normal 0.684311 -0.183366 -0.705759
    outer loop
      vertex 7.23248 -1.87551 1.52222
      vertex 5.88696 -1.03803 0
      vertex 7.38606 -1.30236 1.52222
    endloop
  endfacet
  facet normal 0.684313 -0.183362 -0.705758
    outer loop
      vertex 5.88696 -1.03803 0
      vertex 7.23248 -1.87551 1.52222
      vertex 5.61727 -2.04452 0
    endloop
  endfacet
  facet normal 0.684313 -0.183363 -0.705758
    outer loop
      vertex 7.23248 -1.87551 1.52222
      vertex 7.04769 -2.56515 1.52222
      vertex 5.61727 -2.04452 0
    endloop
  endfacet
  facet normal 0.642079 -0.299399 -0.705758
    outer loop
      vertex 6.79693 -3.10292 1.52222
      vertex 5.61727 -2.04452 0
      vertex 7.04769 -2.56515 1.52222
    endloop
  endfacet
  facet normal 0.642078 -0.299401 -0.705758
    outer loop
      vertex 5.61727 -2.04452 0
      vertex 6.79693 -3.10292 1.52222
      vertex 5.17691 -2.98889 0
    endloop
  endfacet
  facet normal 0.642076 -0.299407 -0.705757
    outer loop
      vertex 6.49519 -3.75 1.52222
      vertex 5.17691 -2.98889 0
      vertex 6.79693 -3.10292 1.52222
    endloop
  endfacet
  facet normal 0.580333 -0.40635 -0.705757
    outer loop
      vertex 6.15485 -4.23606 1.52222
      vertex 5.17691 -2.98889 0
      vertex 6.49519 -3.75 1.52222
    endloop
  endfacet
  facet normal 0.580328 -0.406355 -0.705759
    outer loop
      vertex 5.17691 -2.98889 0
      vertex 6.15485 -4.23606 1.52222
      vertex 4.57924 -3.84244 0
    endloop
  endfacet
  facet normal 0.580328 -0.406354 -0.705759
    outer loop
      vertex 5.74533 -4.82091 1.52222
      vertex 4.57924 -3.84244 0
      vertex 6.15485 -4.23606 1.52222
    endloop
  endfacet
  facet normal 0.500951 -0.500951 -0.705759
    outer loop
      vertex 4.82091 -5.74533 1.52222
      vertex 4.57924 -3.84244 0
      vertex 5.74533 -4.82091 1.52222
    endloop
  endfacet
  facet normal 0.500951 -0.500951 -0.705759
    outer loop
      vertex 4.57924 -3.84244 0
      vertex 4.82091 -5.74533 1.52222
      vertex 3.84244 -4.57924 0
    endloop
  endfacet
  facet normal 0.406349 -0.580332 -0.705759
    outer loop
      vertex 4.33485 -6.08567 1.52222
      vertex 3.84244 -4.57924 0
      vertex 4.82091 -5.74533 1.52222
    endloop
  endfacet
  facet normal 0.406356 -0.580329 -0.705757
    outer loop
      vertex 3.84244 -4.57924 0
      vertex 4.33485 -6.08567 1.52222
      vertex 2.98889 -5.17691 0
    endloop
  endfacet
  facet normal 0.406355 -0.58033 -0.705757
    outer loop
      vertex 3.75 -6.49519 1.52222
      vertex 2.98889 -5.17691 0
      vertex 4.33485 -6.08567 1.52222
    endloop
  endfacet
  facet normal 0.299409 -0.642075 -0.705757
    outer loop
      vertex 2.98889 -5.17691 0
      vertex 3.75 -6.49519 1.52222
      vertex 3.21223 -6.74596 1.52222
    endloop
  endfacet
  facet normal 0.299401 -0.642078 -0.705759
    outer loop
      vertex 2.98889 -5.17691 0
      vertex 3.21223 -6.74596 1.52222
      vertex 2.04452 -5.61727 0
    endloop
  endfacet
  facet normal 0.299398 -0.64208 -0.705758
    outer loop
      vertex 2.56515 -7.04769 1.52222
      vertex 2.04452 -5.61727 0
      vertex 3.21223 -6.74596 1.52222
    endloop
  endfacet
  facet normal 0.183367 -0.684312 -0.705758
    outer loop
      vertex 2.56515 -7.04769 1.52222
      vertex 1.992 -7.20127 1.52222
      vertex 2.04452 -5.61727 0
    endloop
  endfacet
  facet normal 0.183362 -0.684312 -0.705759
    outer loop
      vertex 2.04452 -5.61727 0
      vertex 1.992 -7.20127 1.52222
      vertex 1.03803 -5.88696 0
    endloop
  endfacet
  facet normal 0.183362 -0.684312 -0.705759
    outer loop
      vertex 1.30236 -7.38606 1.52222
      vertex 1.03803 -5.88696 0
      vertex 1.992 -7.20127 1.52222
    endloop
  endfacet
  facet normal 0.0617397 -0.705757 -0.705759
    outer loop
      vertex 0.711254 -7.43777 1.52222
      vertex 1.03803 -5.88696 0
      vertex 1.30236 -7.38606 1.52222
    endloop
  endfacet
  facet normal 0.0617486 -0.705758 -0.705757
    outer loop
      vertex 1.03803 -5.88696 0
      vertex 0.711254 -7.43777 1.52222
      vertex 0 -5.97778 0
    endloop
  endfacet
  facet normal 0.0617491 -0.705757 -0.705757
    outer loop
      vertex 0.711254 -7.43777 1.52222
      vertex 0 -7.5 1.52222
      vertex 0 -5.97778 0
    endloop
  endfacet
  facet normal -0.0617486 -0.705758 -0.705757
    outer loop
      vertex 0 -5.97778 0
      vertex -0.591106 -7.44828 1.52222
      vertex -1.03803 -5.88696 0
    endloop
  endfacet
  facet normal -0.0617516 -0.705757 -0.705757
    outer loop
      vertex -0.591106 -7.44828 1.52222
      vertex 0 -5.97778 0
      vertex 0 -7.5 1.52222
    endloop
  endfacet
  facet normal -0.0617391 -0.705757 -0.705759
    outer loop
      vertex -1.30236 -7.38606 1.52222
      vertex -1.03803 -5.88696 0
      vertex -0.591106 -7.44828 1.52222
    endloop
  endfacet
  facet normal -0.183366 -0.684311 -0.705759
    outer loop
      vertex -1.87551 -7.23248 1.52222
      vertex -1.03803 -5.88696 0
      vertex -1.30236 -7.38606 1.52222
    endloop
  endfacet
  facet normal -0.183362 -0.684313 -0.705758
    outer loop
      vertex -1.03803 -5.88696 0
      vertex -1.87551 -7.23248 1.52222
      vertex -2.04452 -5.61727 0
    endloop
  endfacet
  facet normal -0.183363 -0.684313 -0.705758
    outer loop
      vertex -1.87551 -7.23248 1.52222
      vertex -2.56515 -7.04769 1.52222
      vertex -2.04452 -5.61727 0
    endloop
  endfacet
  facet normal -0.299399 -0.642079 -0.705758
    outer loop
      vertex -3.10292 -6.79693 1.52222
      vertex -2.04452 -5.61727 0
      vertex -2.56515 -7.04769 1.52222
    endloop
  endfacet
  facet normal -0.299401 -0.642078 -0.705758
    outer loop
      vertex -2.04452 -5.61727 0
      vertex -3.10292 -6.79693 1.52222
      vertex -2.98889 -5.17691 0
    endloop
  endfacet
  facet normal -0.299407 -0.642076 -0.705757
    outer loop
      vertex -3.10292 -6.79693 1.52222
      vertex -3.75 -6.49519 1.52222
      vertex -2.98889 -5.17691 0
    endloop
  endfacet
  facet normal -0.40635 -0.580333 -0.705757
    outer loop
      vertex -3.75 -6.49519 1.52222
      vertex -4.23606 -6.15485 1.52222
      vertex -2.98889 -5.17691 0
    endloop
  endfacet
  facet normal -0.406355 -0.580328 -0.705759
    outer loop
      vertex -2.98889 -5.17691 0
      vertex -4.23606 -6.15485 1.52222
      vertex -3.84244 -4.57924 0
    endloop
  endfacet
  facet normal -0.406354 -0.580328 -0.705759
    outer loop
      vertex -4.82091 -5.74533 1.52222
      vertex -3.84244 -4.57924 0
      vertex -4.23606 -6.15485 1.52222
    endloop
  endfacet
  facet normal -0.500951 -0.500951 -0.705759
    outer loop
      vertex -4.82091 -5.74533 1.52222
      vertex -4.57924 -3.84244 0
      vertex -3.84244 -4.57924 0
    endloop
  endfacet
  facet normal -0.500951 -0.500951 -0.705759
    outer loop
      vertex -4.57924 -3.84244 0
      vertex -4.82091 -5.74533 1.52222
      vertex -5.74533 -4.82091 1.52222
    endloop
  endfacet
  facet normal -0.580332 -0.406349 -0.705759
    outer loop
      vertex -6.08567 -4.33485 1.52222
      vertex -4.57924 -3.84244 0
      vertex -5.74533 -4.82091 1.52222
    endloop
  endfacet
  facet normal -0.580329 -0.406356 -0.705757
    outer loop
      vertex -4.57924 -3.84244 0
      vertex -6.08567 -4.33485 1.52222
      vertex -5.17691 -2.98889 0
    endloop
  endfacet
  facet normal -0.58033 -0.406355 -0.705757
    outer loop
      vertex -6.08567 -4.33485 1.52222
      vertex -6.49519 -3.75 1.52222
      vertex -5.17691 -2.98889 0
    endloop
  endfacet
  facet normal -0.642075 -0.299409 -0.705757
    outer loop
      vertex -6.74596 -3.21223 1.52222
      vertex -5.17691 -2.98889 0
      vertex -6.49519 -3.75 1.52222
    endloop
  endfacet
  facet normal -0.642078 -0.299401 -0.705759
    outer loop
      vertex -5.17691 -2.98889 0
      vertex -6.74596 -3.21223 1.52222
      vertex -5.61727 -2.04452 0
    endloop
  endfacet
  facet normal -0.64208 -0.299398 -0.705758
    outer loop
      vertex -6.74596 -3.21223 1.52222
      vertex -7.04769 -2.56515 1.52222
      vertex -5.61727 -2.04452 0
    endloop
  endfacet
  facet normal -0.684312 -0.183367 -0.705758
    outer loop
      vertex -7.20127 -1.992 1.52222
      vertex -5.61727 -2.04452 0
      vertex -7.04769 -2.56515 1.52222
    endloop
  endfacet
  facet normal -0.684312 -0.183362 -0.705759
    outer loop
      vertex -5.61727 -2.04452 0
      vertex -7.20127 -1.992 1.52222
      vertex -5.88696 -1.03803 0
    endloop
  endfacet
  facet normal -0.684312 -0.183362 -0.705759
    outer loop
      vertex -7.20127 -1.992 1.52222
      vertex -7.38606 -1.30236 1.52222
      vertex -5.88696 -1.03803 0
    endloop
  endfacet
  facet normal -0.705757 -0.0617397 -0.705759
    outer loop
      vertex -7.43777 -0.711254 1.52222
      vertex -5.88696 -1.03803 0
      vertex -7.38606 -1.30236 1.52222
    endloop
  endfacet
  facet normal -0.705758 -0.0617486 -0.705757
    outer loop
      vertex -5.88696 -1.03803 0
      vertex -7.43777 -0.711254 1.52222
      vertex -5.97778 0 0
    endloop
  endfacet
  facet normal -0.705757 -0.0617491 -0.705757
    outer loop
      vertex -7.43777 -0.711254 1.52222
      vertex -7.5 0 1.52222
      vertex -5.97778 0 0
    endloop
  endfacet
  facet normal -0.705753 0.0617438 0.705762
    outer loop
      vertex -7.428 0.822985 10.8778
      vertex -7.5 0 10.8778
      vertex -5.97778 0 12.4
    endloop
  endfacet
  facet normal -0.705752 0.0617454 0.705764
    outer loop
      vertex -7.428 0.822985 10.8778
      vertex -5.88696 1.03803 12.4
      vertex -7.38606 1.30236 10.8778
    endloop
  endfacet
  facet normal -0.705752 0.0617481 0.705763
    outer loop
      vertex -5.88696 1.03803 12.4
      vertex -7.428 0.822985 10.8778
      vertex -5.97778 0 12.4
    endloop
  endfacet
  facet normal -0.684307 0.183361 0.705763
    outer loop
      vertex -7.17224 2.10034 10.8778
      vertex -7.38606 1.30236 10.8778
      vertex -5.88696 1.03803 12.4
    endloop
  endfacet
  facet normal -0.684307 0.183366 0.705763
    outer loop
      vertex -7.17224 2.10034 10.8778
      vertex -5.61727 2.04452 12.4
      vertex -7.04769 2.56515 10.8778
    endloop
  endfacet
  facet normal -0.684308 0.183361 0.705763
    outer loop
      vertex -5.61727 2.04452 12.4
      vertex -7.17224 2.10034 10.8778
      vertex -5.88696 1.03803 12.4
    endloop
  endfacet
  facet normal -0.642075 0.299397 0.705763
    outer loop
      vertex -6.69856 3.31388 10.8778
      vertex -7.04769 2.56515 10.8778
      vertex -5.61727 2.04452 12.4
    endloop
  endfacet
  facet normal -0.64207 0.299408 0.705762
    outer loop
      vertex -6.69856 3.31388 10.8778
      vertex -5.17691 2.98889 12.4
      vertex -6.49519 3.75 10.8778
    endloop
  endfacet
  facet normal -0.642074 0.299399 0.705763
    outer loop
      vertex -5.17691 2.98889 12.4
      vertex -6.69856 3.31388 10.8778
      vertex -5.61727 2.04452 12.4
    endloop
  endfacet
  facet normal -0.580325 0.406353 0.705762
    outer loop
      vertex -6.02134 4.42672 10.8778
      vertex -6.49519 3.75 10.8778
      vertex -5.17691 2.98889 12.4
    endloop
  endfacet
  facet normal -0.58033 0.406344 0.705763
    outer loop
      vertex -6.02134 4.42672 10.8778
      vertex -4.57924 3.84244 12.4
      vertex -5.74533 4.82091 10.8778
    endloop
  endfacet
  facet normal -0.580325 0.406353 0.705762
    outer loop
      vertex -4.57924 3.84244 12.4
      vertex -6.02134 4.42672 10.8778
      vertex -5.17691 2.98889 12.4
    endloop
  endfacet
  facet normal -0.500948 0.500948 0.705763
    outer loop
      vertex -4.82091 5.74533 10.8778
      vertex -4.57924 3.84244 12.4
      vertex -3.84244 4.57924 12.4
    endloop
  endfacet
  facet normal -0.500948 0.500948 0.705763
    outer loop
      vertex -4.82091 5.74533 10.8778
      vertex -5.74533 4.82091 10.8778
      vertex -4.57924 3.84244 12.4
    endloop
  endfacet
  facet normal -0.406348 0.580327 0.705763
    outer loop
      vertex -4.14418 6.21918 10.8778
      vertex -4.82091 5.74533 10.8778
      vertex -3.84244 4.57924 12.4
    endloop
  endfacet
  facet normal -0.406352 0.580326 0.705762
    outer loop
      vertex -4.14418 6.21918 10.8778
      vertex -2.98889 5.17691 12.4
      vertex -3.75 6.49519 10.8778
    endloop
  endfacet
  facet normal -0.406353 0.580325 0.705762
    outer loop
      vertex -2.98889 5.17691 12.4
      vertex -4.14418 6.21918 10.8778
      vertex -3.84244 4.57924 12.4
    endloop
  endfacet
  facet normal -0.299405 0.642072 0.705762
    outer loop
      vertex -3.75 6.49519 10.8778
      vertex -2.98889 5.17691 12.4
      vertex -3.00127 6.84433 10.8778
    endloop
  endfacet
  facet normal -0.299396 0.642076 0.705763
    outer loop
      vertex -3.00127 6.84433 10.8778
      vertex -2.04452 5.61727 12.4
      vertex -2.56515 7.04769 10.8778
    endloop
  endfacet
  facet normal -0.299399 0.642074 0.705763
    outer loop
      vertex -2.04452 5.61727 12.4
      vertex -3.00127 6.84433 10.8778
      vertex -2.98889 5.17691 12.4
    endloop
  endfacet
  facet normal -0.183361 0.684308 0.705763
    outer loop
      vertex -2.56515 7.04769 10.8778
      vertex -2.04452 5.61727 12.4
      vertex -1.76717 7.26151 10.8778
    endloop
  endfacet
  facet normal -0.183366 0.684306 0.705763
    outer loop
      vertex -1.76717 7.26151 10.8778
      vertex -1.03803 5.88696 12.4
      vertex -1.30236 7.38606 10.8778
    endloop
  endfacet
  facet normal -0.183361 0.684308 0.705763
    outer loop
      vertex -1.03803 5.88696 12.4
      vertex -1.76717 7.26151 10.8778
      vertex -2.04452 5.61727 12.4
    endloop
  endfacet
  facet normal -0.0617438 0.705752 0.705764
    outer loop
      vertex -1.30236 7.38606 10.8778
      vertex -1.03803 5.88696 12.4
      vertex -0.479376 7.45806 10.8778
    endloop
  endfacet
  facet normal -0.0617454 0.705753 0.705762
    outer loop
      vertex -0.479376 7.45806 10.8778
      vertex 0 5.97778 12.4
      vertex 0 7.5 10.8778
    endloop
  endfacet
  facet normal -0.0617481 0.705752 0.705763
    outer loop
      vertex 0 5.97778 12.4
      vertex -0.479376 7.45806 10.8778
      vertex -1.03803 5.88696 12.4
    endloop
  endfacet
  facet normal 0.0617438 0.705753 0.705762
    outer loop
      vertex 0 7.5 10.8778
      vertex 0 5.97778 12.4
      vertex 0.822985 7.428 10.8778
    endloop
  endfacet
  facet normal 0.0617454 0.705752 0.705764
    outer loop
      vertex 0.822985 7.428 10.8778
      vertex 1.03803 5.88696 12.4
      vertex 1.30236 7.38606 10.8778
    endloop
  endfacet
  facet normal 0.0617481 0.705752 0.705763
    outer loop
      vertex 1.03803 5.88696 12.4
      vertex 0.822985 7.428 10.8778
      vertex 0 5.97778 12.4
    endloop
  endfacet
  facet normal 0.183361 0.684307 0.705763
    outer loop
      vertex 1.30236 7.38606 10.8778
      vertex 1.03803 5.88696 12.4
      vertex 2.10034 7.17224 10.8778
    endloop
  endfacet
  facet normal 0.183366 0.684307 0.705763
    outer loop
      vertex 2.10034 7.17224 10.8778
      vertex 2.04452 5.61727 12.4
      vertex 2.56515 7.04769 10.8778
    endloop
  endfacet
  facet normal 0.183361 0.684308 0.705763
    outer loop
      vertex 2.04452 5.61727 12.4
      vertex 2.10034 7.17224 10.8778
      vertex 1.03803 5.88696 12.4
    endloop
  endfacet
  facet normal 0.299397 0.642075 0.705763
    outer loop
      vertex 2.56515 7.04769 10.8778
      vertex 2.04452 5.61727 12.4
      vertex 3.31388 6.69856 10.8778
    endloop
  endfacet
  facet normal 0.299408 0.64207 0.705762
    outer loop
      vertex 3.31388 6.69856 10.8778
      vertex 2.98889 5.17691 12.4
      vertex 3.75 6.49519 10.8778
    endloop
  endfacet
  facet normal 0.299399 0.642074 0.705763
    outer loop
      vertex 2.98889 5.17691 12.4
      vertex 3.31388 6.69856 10.8778
      vertex 2.04452 5.61727 12.4
    endloop
  endfacet
  facet normal 0.406353 0.580325 0.705762
    outer loop
      vertex 4.42672 6.02134 10.8778
      vertex 3.75 6.49519 10.8778
      vertex 2.98889 5.17691 12.4
    endloop
  endfacet
  facet normal 0.406344 0.58033 0.705763
    outer loop
      vertex 4.42672 6.02134 10.8778
      vertex 3.84244 4.57924 12.4
      vertex 4.82091 5.74533 10.8778
    endloop
  endfacet
  facet normal 0.406353 0.580325 0.705762
    outer loop
      vertex 3.84244 4.57924 12.4
      vertex 4.42672 6.02134 10.8778
      vertex 2.98889 5.17691 12.4
    endloop
  endfacet
  facet normal 0.500948 0.500948 0.705763
    outer loop
      vertex 4.82091 5.74533 10.8778
      vertex 4.57924 3.84244 12.4
      vertex 5.74533 4.82091 10.8778
    endloop
  endfacet
  facet normal 0.500948 0.500948 0.705763
    outer loop
      vertex 4.57924 3.84244 12.4
      vertex 4.82091 5.74533 10.8778
      vertex 3.84244 4.57924 12.4
    endloop
  endfacet
  facet normal 0.580327 0.406348 0.705763
    outer loop
      vertex 5.74533 4.82091 10.8778
      vertex 4.57924 3.84244 12.4
      vertex 6.21918 4.14418 10.8778
    endloop
  endfacet
  facet normal 0.580326 0.406352 0.705762
    outer loop
      vertex 6.21918 4.14418 10.8778
      vertex 5.17691 2.98889 12.4
      vertex 6.49519 3.75 10.8778
    endloop
  endfacet
  facet normal 0.580325 0.406353 0.705762
    outer loop
      vertex 5.17691 2.98889 12.4
      vertex 6.21918 4.14418 10.8778
      vertex 4.57924 3.84244 12.4
    endloop
  endfacet
  facet normal 0.642072 0.299405 0.705762
    outer loop
      vertex 6.84433 3.00127 10.8778
      vertex 6.49519 3.75 10.8778
      vertex 5.17691 2.98889 12.4
    endloop
  endfacet
  facet normal 0.642076 0.299396 0.705763
    outer loop
      vertex 6.84433 3.00127 10.8778
      vertex 5.61727 2.04452 12.4
      vertex 7.04769 2.56515 10.8778
    endloop
  endfacet
  facet normal 0.642074 0.299399 0.705763
    outer loop
      vertex 5.61727 2.04452 12.4
      vertex 6.84433 3.00127 10.8778
      vertex 5.17691 2.98889 12.4
    endloop
  endfacet
  facet normal 0.684308 0.183361 0.705763
    outer loop
      vertex 7.26151 1.76717 10.8778
      vertex 7.04769 2.56515 10.8778
      vertex 5.61727 2.04452 12.4
    endloop
  endfacet
  facet normal 0.684306 0.183366 0.705763
    outer loop
      vertex 7.26151 1.76717 10.8778
      vertex 5.88696 1.03803 12.4
      vertex 7.38606 1.30236 10.8778
    endloop
  endfacet
  facet normal 0.684308 0.183361 0.705763
    outer loop
      vertex 5.88696 1.03803 12.4
      vertex 7.26151 1.76717 10.8778
      vertex 5.61727 2.04452 12.4
    endloop
  endfacet
  facet normal 0.705752 0.0617438 0.705764
    outer loop
      vertex 7.45806 0.479376 10.8778
      vertex 7.38606 1.30236 10.8778
      vertex 5.88696 1.03803 12.4
    endloop
  endfacet
  facet normal 0.705752 0.0617481 0.705763
    outer loop
      vertex 5.97778 0 12.4
      vertex 7.45806 0.479376 10.8778
      vertex 5.88696 1.03803 12.4
    endloop
  endfacet
  facet normal 0.705753 0.0617454 0.705762
    outer loop
      vertex 7.45806 0.479376 10.8778
      vertex 5.97778 0 12.4
      vertex 7.5 0 10.8778
    endloop
  endfacet
  facet normal 0.705753 -0.0617438 0.705762
    outer loop
      vertex 7.5 0 10.8778
      vertex 5.97778 0 12.4
      vertex 7.428 -0.822985 10.8778
    endloop
  endfacet
  facet normal 0.705752 -0.0617481 0.705763
    outer loop
      vertex 5.88696 -1.03803 12.4
      vertex 7.428 -0.822985 10.8778
      vertex 5.97778 0 12.4
    endloop
  endfacet
  facet normal 0.705752 -0.0617454 0.705764
    outer loop
      vertex 7.428 -0.822985 10.8778
      vertex 5.88696 -1.03803 12.4
      vertex 7.38606 -1.30236 10.8778
    endloop
  endfacet
  facet normal 0.684307 -0.183361 0.705763
    outer loop
      vertex 7.38606 -1.30236 10.8778
      vertex 5.88696 -1.03803 12.4
      vertex 7.17224 -2.10034 10.8778
    endloop
  endfacet
  facet normal 0.684308 -0.183361 0.705763
    outer loop
      vertex 5.61727 -2.04452 12.4
      vertex 7.17224 -2.10034 10.8778
      vertex 5.88696 -1.03803 12.4
    endloop
  endfacet
  facet normal 0.684307 -0.183366 0.705763
    outer loop
      vertex 7.17224 -2.10034 10.8778
      vertex 5.61727 -2.04452 12.4
      vertex 7.04769 -2.56515 10.8778
    endloop
  endfacet
  facet normal 0.642075 -0.299397 0.705763
    outer loop
      vertex 7.04769 -2.56515 10.8778
      vertex 5.61727 -2.04452 12.4
      vertex 6.69856 -3.31388 10.8778
    endloop
  endfacet
  facet normal 0.642074 -0.299399 0.705763
    outer loop
      vertex 5.17691 -2.98889 12.4
      vertex 6.69856 -3.31388 10.8778
      vertex 5.61727 -2.04452 12.4
    endloop
  endfacet
  facet normal 0.64207 -0.299408 0.705762
    outer loop
      vertex 6.69856 -3.31388 10.8778
      vertex 5.17691 -2.98889 12.4
      vertex 6.49519 -3.75 10.8778
    endloop
  endfacet
  facet normal 0.580325 -0.406353 0.705762
    outer loop
      vertex 6.49519 -3.75 10.8778
      vertex 5.17691 -2.98889 12.4
      vertex 6.02134 -4.42672 10.8778
    endloop
  endfacet
  facet normal 0.580325 -0.406353 0.705762
    outer loop
      vertex 4.57924 -3.84244 12.4
      vertex 6.02134 -4.42672 10.8778
      vertex 5.17691 -2.98889 12.4
    endloop
  endfacet
  facet normal 0.58033 -0.406344 0.705763
    outer loop
      vertex 6.02134 -4.42672 10.8778
      vertex 4.57924 -3.84244 12.4
      vertex 5.74533 -4.82091 10.8778
    endloop
  endfacet
  facet normal 0.500948 -0.500948 0.705763
    outer loop
      vertex 4.57924 -3.84244 12.4
      vertex 4.82091 -5.74533 10.8778
      vertex 5.74533 -4.82091 10.8778
    endloop
  endfacet
  facet normal 0.500948 -0.500948 0.705763
    outer loop
      vertex 4.82091 -5.74533 10.8778
      vertex 4.57924 -3.84244 12.4
      vertex 3.84244 -4.57924 12.4
    endloop
  endfacet
  facet normal 0.406348 -0.580327 0.705763
    outer loop
      vertex 4.82091 -5.74533 10.8778
      vertex 3.84244 -4.57924 12.4
      vertex 4.14418 -6.21918 10.8778
    endloop
  endfacet
  facet normal 0.406353 -0.580325 0.705762
    outer loop
      vertex 2.98889 -5.17691 12.4
      vertex 4.14418 -6.21918 10.8778
      vertex 3.84244 -4.57924 12.4
    endloop
  endfacet
  facet normal 0.406352 -0.580326 0.705762
    outer loop
      vertex 4.14418 -6.21918 10.8778
      vertex 2.98889 -5.17691 12.4
      vertex 3.75 -6.49519 10.8778
    endloop
  endfacet
  facet normal 0.299405 -0.642072 0.705762
    outer loop
      vertex 3.75 -6.49519 10.8778
      vertex 2.98889 -5.17691 12.4
      vertex 3.00127 -6.84433 10.8778
    endloop
  endfacet
  facet normal 0.299399 -0.642074 0.705763
    outer loop
      vertex 2.04452 -5.61727 12.4
      vertex 3.00127 -6.84433 10.8778
      vertex 2.98889 -5.17691 12.4
    endloop
  endfacet
  facet normal 0.299396 -0.642076 0.705763
    outer loop
      vertex 3.00127 -6.84433 10.8778
      vertex 2.04452 -5.61727 12.4
      vertex 2.56515 -7.04769 10.8778
    endloop
  endfacet
  facet normal 0.183361 -0.684308 0.705763
    outer loop
      vertex 2.56515 -7.04769 10.8778
      vertex 2.04452 -5.61727 12.4
      vertex 1.76717 -7.26151 10.8778
    endloop
  endfacet
  facet normal 0.183361 -0.684308 0.705763
    outer loop
      vertex 1.03803 -5.88696 12.4
      vertex 1.76717 -7.26151 10.8778
      vertex 2.04452 -5.61727 12.4
    endloop
  endfacet
  facet normal 0.183366 -0.684306 0.705763
    outer loop
      vertex 1.76717 -7.26151 10.8778
      vertex 1.03803 -5.88696 12.4
      vertex 1.30236 -7.38606 10.8778
    endloop
  endfacet
  facet normal 0.0617438 -0.705752 0.705764
    outer loop
      vertex 1.30236 -7.38606 10.8778
      vertex 1.03803 -5.88696 12.4
      vertex 0.479376 -7.45806 10.8778
    endloop
  endfacet
  facet normal 0.0617454 -0.705753 0.705762
    outer loop
      vertex 0.479376 -7.45806 10.8778
      vertex 0 -5.97778 12.4
      vertex 0 -7.5 10.8778
    endloop
  endfacet
  facet normal 0.0617481 -0.705752 0.705763
    outer loop
      vertex 0 -5.97778 12.4
      vertex 0.479376 -7.45806 10.8778
      vertex 1.03803 -5.88696 12.4
    endloop
  endfacet
  facet normal -0.0617438 -0.705753 0.705762
    outer loop
      vertex 0 -5.97778 12.4
      vertex -0.822985 -7.428 10.8778
      vertex 0 -7.5 10.8778
    endloop
  endfacet
  facet normal -0.0617481 -0.705752 0.705763
    outer loop
      vertex -1.03803 -5.88696 12.4
      vertex -0.822985 -7.428 10.8778
      vertex 0 -5.97778 12.4
    endloop
  endfacet
  facet normal -0.0617454 -0.705752 0.705764
    outer loop
      vertex -1.03803 -5.88696 12.4
      vertex -1.30236 -7.38606 10.8778
      vertex -0.822985 -7.428 10.8778
    endloop
  endfacet
  facet normal -0.183361 -0.684307 0.705763
    outer loop
      vertex -1.03803 -5.88696 12.4
      vertex -2.10034 -7.17224 10.8778
      vertex -1.30236 -7.38606 10.8778
    endloop
  endfacet
  facet normal -0.183361 -0.684308 0.705763
    outer loop
      vertex -2.04452 -5.61727 12.4
      vertex -2.10034 -7.17224 10.8778
      vertex -1.03803 -5.88696 12.4
    endloop
  endfacet
  facet normal -0.183366 -0.684307 0.705763
    outer loop
      vertex -2.04452 -5.61727 12.4
      vertex -2.56515 -7.04769 10.8778
      vertex -2.10034 -7.17224 10.8778
    endloop
  endfacet
  facet normal -0.299397 -0.642075 0.705763
    outer loop
      vertex -2.04452 -5.61727 12.4
      vertex -3.31388 -6.69856 10.8778
      vertex -2.56515 -7.04769 10.8778
    endloop
  endfacet
  facet normal -0.299399 -0.642074 0.705763
    outer loop
      vertex -2.98889 -5.17691 12.4
      vertex -3.31388 -6.69856 10.8778
      vertex -2.04452 -5.61727 12.4
    endloop
  endfacet
  facet normal -0.299408 -0.64207 0.705762
    outer loop
      vertex -3.31388 -6.69856 10.8778
      vertex -2.98889 -5.17691 12.4
      vertex -3.75 -6.49519 10.8778
    endloop
  endfacet
  facet normal -0.406353 -0.580325 0.705762
    outer loop
      vertex -4.42672 -6.02134 10.8778
      vertex -3.75 -6.49519 10.8778
      vertex -2.98889 -5.17691 12.4
    endloop
  endfacet
  facet normal -0.406353 -0.580325 0.705762
    outer loop
      vertex -3.84244 -4.57924 12.4
      vertex -4.42672 -6.02134 10.8778
      vertex -2.98889 -5.17691 12.4
    endloop
  endfacet
  facet normal -0.406344 -0.58033 0.705763
    outer loop
      vertex -4.42672 -6.02134 10.8778
      vertex -3.84244 -4.57924 12.4
      vertex -4.82091 -5.74533 10.8778
    endloop
  endfacet
  facet normal -0.500948 -0.500948 0.705763
    outer loop
      vertex -4.57924 -3.84244 12.4
      vertex -4.82091 -5.74533 10.8778
      vertex -3.84244 -4.57924 12.4
    endloop
  endfacet
  facet normal -0.500948 -0.500948 0.705763
    outer loop
      vertex -5.74533 -4.82091 10.8778
      vertex -4.82091 -5.74533 10.8778
      vertex -4.57924 -3.84244 12.4
    endloop
  endfacet
  facet normal -0.580327 -0.406348 0.705763
    outer loop
      vertex -4.57924 -3.84244 12.4
      vertex -6.21918 -4.14418 10.8778
      vertex -5.74533 -4.82091 10.8778
    endloop
  endfacet
  facet normal -0.580325 -0.406353 0.705762
    outer loop
      vertex -5.17691 -2.98889 12.4
      vertex -6.21918 -4.14418 10.8778
      vertex -4.57924 -3.84244 12.4
    endloop
  endfacet
  facet normal -0.580326 -0.406352 0.705762
    outer loop
      vertex -6.49519 -3.75 10.8778
      vertex -6.21918 -4.14418 10.8778
      vertex -5.17691 -2.98889 12.4
    endloop
  endfacet
  facet normal -0.642072 -0.299405 0.705762
    outer loop
      vertex -5.17691 -2.98889 12.4
      vertex -6.84433 -3.00127 10.8778
      vertex -6.49519 -3.75 10.8778
    endloop
  endfacet
  facet normal -0.642074 -0.299399 0.705763
    outer loop
      vertex -5.61727 -2.04452 12.4
      vertex -6.84433 -3.00127 10.8778
      vertex -5.17691 -2.98889 12.4
    endloop
  endfacet
  facet normal -0.642076 -0.299396 0.705763
    outer loop
      vertex -6.84433 -3.00127 10.8778
      vertex -5.61727 -2.04452 12.4
      vertex -7.04769 -2.56515 10.8778
    endloop
  endfacet
  facet normal -0.684308 -0.183361 0.705763
    outer loop
      vertex -5.61727 -2.04452 12.4
      vertex -7.26151 -1.76717 10.8778
      vertex -7.04769 -2.56515 10.8778
    endloop
  endfacet
  facet normal -0.684308 -0.183361 0.705763
    outer loop
      vertex -5.88696 -1.03803 12.4
      vertex -7.26151 -1.76717 10.8778
      vertex -5.61727 -2.04452 12.4
    endloop
  endfacet
  facet normal -0.684306 -0.183366 0.705763
    outer loop
      vertex -7.26151 -1.76717 10.8778
      vertex -5.88696 -1.03803 12.4
      vertex -7.38606 -1.30236 10.8778
    endloop
  endfacet
  facet normal -0.705752 -0.0617438 0.705764
    outer loop
      vertex -5.88696 -1.03803 12.4
      vertex -7.45806 -0.479376 10.8778
      vertex -7.38606 -1.30236 10.8778
    endloop
  endfacet
  facet normal -0.705753 -0.0617454 0.705762
    outer loop
      vertex -7.45806 -0.479376 10.8778
      vertex -5.97778 0 12.4
      vertex -7.5 0 10.8778
    endloop
  endfacet
  facet normal -0.705752 -0.0617481 0.705763
    outer loop
      vertex -5.97778 0 12.4
      vertex -7.45806 -0.479376 10.8778
      vertex -5.88696 -1.03803 12.4
    endloop
  endfacet
  facet normal 0.57357 0.819157 0
    outer loop
      vertex 4.82091 5.74533 10.8778
      vertex 4.82091 5.74533 1.52222
      vertex 4.42672 6.02134 10.8778
    endloop
  endfacet
  facet normal 0.57358 0.81915 6.34811e-07
    outer loop
      vertex 4.42672 6.02134 10.8778
      vertex 4.82091 5.74533 1.52222
      vertex 4.23606 6.15485 1.52222
    endloop
  endfacet
  facet normal 0.573581 0.819149 6.01147e-07
    outer loop
      vertex 4.42672 6.02134 10.8778
      vertex 4.23606 6.15485 1.52222
      vertex 3.75 6.49519 10.8778
    endloop
  endfacet
  facet normal 0.573573 0.819154 0
    outer loop
      vertex 3.75 6.49519 10.8778
      vertex 4.23606 6.15485 1.52222
      vertex 3.75 6.49519 1.52222
    endloop
  endfacet
  facet normal -0.906305 0.422625 0
    outer loop
      vertex -6.49519 3.75 1.52222
      vertex -6.69856 3.31388 10.8778
      vertex -6.49519 3.75 10.8778
    endloop
  endfacet
  facet normal -0.906307 0.42262 -2.71092e-07
    outer loop
      vertex -6.49519 3.75 1.52222
      vertex -6.79693 3.10292 1.52222
      vertex -6.69856 3.31388 10.8778
    endloop
  endfacet
  facet normal -0.906312 0.42261 0
    outer loop
      vertex -7.04769 2.56515 10.8778
      vertex -6.79693 3.10292 1.52222
      vertex -7.04769 2.56515 1.52222
    endloop
  endfacet
  facet normal -0.906312 0.42261 1.36242e-08
    outer loop
      vertex -6.79693 3.10292 1.52222
      vertex -7.04769 2.56515 10.8778
      vertex -6.69856 3.31388 10.8778
    endloop
  endfacet
  facet normal 0.996194 -0.087164 0
    outer loop
      vertex 7.5 0 10.8778
      vertex 7.44828 -0.591106 1.52222
      vertex 7.5 0 1.52222
    endloop
  endfacet
  facet normal 0.996195 -0.0871535 -6.66614e-07
    outer loop
      vertex 7.428 -0.822985 10.8778
      vertex 7.44828 -0.591106 1.52222
      vertex 7.5 0 10.8778
    endloop
  endfacet
  facet normal 0.996195 -0.087156 0
    outer loop
      vertex 7.38606 -1.30236 1.52222
      vertex 7.428 -0.822985 10.8778
      vertex 7.38606 -1.30236 10.8778
    endloop
  endfacet
  facet normal 0.996196 -0.0871465 -4.91086e-07
    outer loop
      vertex 7.428 -0.822985 10.8778
      vertex 7.38606 -1.30236 1.52222
      vertex 7.44828 -0.591106 1.52222
    endloop
  endfacet
  facet normal -0.42261 -0.906312 1.36242e-08
    outer loop
      vertex -3.10292 -6.79693 1.52222
      vertex -2.56515 -7.04769 10.8778
      vertex -3.31388 -6.69856 10.8778
    endloop
  endfacet
  facet normal -0.422625 -0.906305 0
    outer loop
      vertex -3.75 -6.49519 1.52222
      vertex -3.31388 -6.69856 10.8778
      vertex -3.75 -6.49519 10.8778
    endloop
  endfacet
  facet normal -0.42262 -0.906307 -2.71092e-07
    outer loop
      vertex -3.31388 -6.69856 10.8778
      vertex -3.75 -6.49519 1.52222
      vertex -3.10292 -6.79693 1.52222
    endloop
  endfacet
  facet normal -0.42261 -0.906312 0
    outer loop
      vertex -2.56515 -7.04769 1.52222
      vertex -2.56515 -7.04769 10.8778
      vertex -3.10292 -6.79693 1.52222
    endloop
  endfacet
  facet normal -0.258828 0.965923 0
    outer loop
      vertex -1.30236 7.38606 10.8778
      vertex -1.30236 7.38606 1.52222
      vertex -1.76717 7.26151 10.8778
    endloop
  endfacet
  facet normal -0.258821 0.965925 3.62612e-07
    outer loop
      vertex -1.992 7.20127 1.52222
      vertex -1.76717 7.26151 10.8778
      vertex -1.30236 7.38606 1.52222
    endloop
  endfacet
  facet normal -0.258821 0.965925 3.66856e-07
    outer loop
      vertex -1.76717 7.26151 10.8778
      vertex -1.992 7.20127 1.52222
      vertex -2.56515 7.04769 10.8778
    endloop
  endfacet
  facet normal -0.258827 0.965924 0
    outer loop
      vertex -2.56515 7.04769 10.8778
      vertex -1.992 7.20127 1.52222
      vertex -2.56515 7.04769 1.52222
    endloop
  endfacet
  facet normal -0.819157 0.57357 0
    outer loop
      vertex -5.74533 4.82091 1.52222
      vertex -6.02134 4.42672 10.8778
      vertex -5.74533 4.82091 10.8778
    endloop
  endfacet
  facet normal -0.81915 0.57358 6.34811e-07
    outer loop
      vertex -6.15485 4.23606 1.52222
      vertex -6.02134 4.42672 10.8778
      vertex -5.74533 4.82091 1.52222
    endloop
  endfacet
  facet normal -0.819154 0.573573 0
    outer loop
      vertex -6.49519 3.75 10.8778
      vertex -6.15485 4.23606 1.52222
      vertex -6.49519 3.75 1.52222
    endloop
  endfacet
  facet normal -0.819149 0.573581 6.01147e-07
    outer loop
      vertex -6.15485 4.23606 1.52222
      vertex -6.49519 3.75 10.8778
      vertex -6.02134 4.42672 10.8778
    endloop
  endfacet
  facet normal 0.965924 0.258827 0
    outer loop
      vertex 7.04769 2.56515 10.8778
      vertex 7.20127 1.992 1.52222
      vertex 7.04769 2.56515 1.52222
    endloop
  endfacet
  facet normal 0.965925 0.258821 3.66856e-07
    outer loop
      vertex 7.26151 1.76717 10.8778
      vertex 7.20127 1.992 1.52222
      vertex 7.04769 2.56515 10.8778
    endloop
  endfacet
  facet normal 0.965925 0.258821 3.62612e-07
    outer loop
      vertex 7.38606 1.30236 1.52222
      vertex 7.20127 1.992 1.52222
      vertex 7.26151 1.76717 10.8778
    endloop
  endfacet
  facet normal 0.965923 0.258828 -0
    outer loop
      vertex 7.38606 1.30236 1.52222
      vertex 7.26151 1.76717 10.8778
      vertex 7.38606 1.30236 10.8778
    endloop
  endfacet
  facet normal 0.906305 0.422623 0
    outer loop
      vertex 6.49519 3.75 10.8778
      vertex 6.74596 3.21223 1.52222
      vertex 6.49519 3.75 1.52222
    endloop
  endfacet
  facet normal 0.906307 0.42262 2.59324e-07
    outer loop
      vertex 6.84433 3.00127 10.8778
      vertex 6.74596 3.21223 1.52222
      vertex 6.49519 3.75 10.8778
    endloop
  endfacet
  facet normal 0.906313 0.422608 -0
    outer loop
      vertex 7.04769 2.56515 1.52222
      vertex 6.84433 3.00127 10.8778
      vertex 7.04769 2.56515 10.8778
    endloop
  endfacet
  facet normal 0.906312 0.422609 -4.47332e-08
    outer loop
      vertex 6.84433 3.00127 10.8778
      vertex 7.04769 2.56515 1.52222
      vertex 6.74596 3.21223 1.52222
    endloop
  endfacet
  facet normal 0.819154 0.573573 0
    outer loop
      vertex 5.74533 4.82091 10.8778
      vertex 6.08567 4.33485 1.52222
      vertex 5.74533 4.82091 1.52222
    endloop
  endfacet
  facet normal 0.819153 0.573575 -1.60798e-07
    outer loop
      vertex 6.21918 4.14418 10.8778
      vertex 6.08567 4.33485 1.52222
      vertex 5.74533 4.82091 10.8778
    endloop
  endfacet
  facet normal 0.81915 0.57358 -2.17228e-08
    outer loop
      vertex 6.49519 3.75 1.52222
      vertex 6.08567 4.33485 1.52222
      vertex 6.21918 4.14418 10.8778
    endloop
  endfacet
  facet normal 0.81915 0.573579 -0
    outer loop
      vertex 6.49519 3.75 1.52222
      vertex 6.21918 4.14418 10.8778
      vertex 6.49519 3.75 10.8778
    endloop
  endfacet
  facet normal 0.707107 0.707107 0
    outer loop
      vertex 5.74533 4.82091 10.8778
      vertex 4.82091 5.74533 1.52222
      vertex 4.82091 5.74533 10.8778
    endloop
  endfacet
  facet normal 0.707107 0.707107 0
    outer loop
      vertex 4.82091 5.74533 1.52222
      vertex 5.74533 4.82091 10.8778
      vertex 5.74533 4.82091 1.52222
    endloop
  endfacet
  facet normal 0.42261 0.906312 1.36242e-08
    outer loop
      vertex 3.10292 6.79693 1.52222
      vertex 2.56515 7.04769 10.8778
      vertex 3.31388 6.69856 10.8778
    endloop
  endfacet
  facet normal 0.422625 0.906305 -0
    outer loop
      vertex 3.75 6.49519 1.52222
      vertex 3.31388 6.69856 10.8778
      vertex 3.75 6.49519 10.8778
    endloop
  endfacet
  facet normal 0.42262 0.906307 -2.71092e-07
    outer loop
      vertex 3.31388 6.69856 10.8778
      vertex 3.75 6.49519 1.52222
      vertex 3.10292 6.79693 1.52222
    endloop
  endfacet
  facet normal 0.42261 0.906312 -0
    outer loop
      vertex 2.56515 7.04769 1.52222
      vertex 2.56515 7.04769 10.8778
      vertex 3.10292 6.79693 1.52222
    endloop
  endfacet
  facet normal 0.087156 0.996195 -0
    outer loop
      vertex 1.30236 7.38606 1.52222
      vertex 0.822985 7.428 10.8778
      vertex 1.30236 7.38606 10.8778
    endloop
  endfacet
  facet normal 0.0871535 0.996195 -6.66614e-07
    outer loop
      vertex 0.822985 7.428 10.8778
      vertex 0.591106 7.44828 1.52222
      vertex 0 7.5 10.8778
    endloop
  endfacet
  facet normal 0.0871465 0.996196 -4.91086e-07
    outer loop
      vertex 0.822985 7.428 10.8778
      vertex 1.30236 7.38606 1.52222
      vertex 0.591106 7.44828 1.52222
    endloop
  endfacet
  facet normal 0.087164 0.996194 0
    outer loop
      vertex 0 7.5 10.8778
      vertex 0.591106 7.44828 1.52222
      vertex 0 7.5 1.52222
    endloop
  endfacet
  facet normal -0.707107 0.707107 0
    outer loop
      vertex -5.74533 4.82091 1.52222
      vertex -4.82091 5.74533 10.8778
      vertex -4.82091 5.74533 1.52222
    endloop
  endfacet
  facet normal -0.707107 0.707107 0
    outer loop
      vertex -4.82091 5.74533 10.8778
      vertex -5.74533 4.82091 1.52222
      vertex -5.74533 4.82091 10.8778
    endloop
  endfacet
  facet normal -0.422608 0.906313 0
    outer loop
      vertex -2.56515 7.04769 10.8778
      vertex -2.56515 7.04769 1.52222
      vertex -3.00127 6.84433 10.8778
    endloop
  endfacet
  facet normal -0.422609 0.906312 -4.47332e-08
    outer loop
      vertex -3.00127 6.84433 10.8778
      vertex -2.56515 7.04769 1.52222
      vertex -3.21223 6.74596 1.52222
    endloop
  endfacet
  facet normal -0.42262 0.906307 2.59324e-07
    outer loop
      vertex -3.00127 6.84433 10.8778
      vertex -3.21223 6.74596 1.52222
      vertex -3.75 6.49519 10.8778
    endloop
  endfacet
  facet normal -0.422623 0.906305 0
    outer loop
      vertex -3.75 6.49519 10.8778
      vertex -3.21223 6.74596 1.52222
      vertex -3.75 6.49519 1.52222
    endloop
  endfacet
  facet normal -0.0871558 0.996195 0
    outer loop
      vertex 0 7.5 1.52222
      vertex -0.479376 7.45806 10.8778
      vertex 0 7.5 10.8778
    endloop
  endfacet
  facet normal -0.0871604 0.996194 -2.359e-07
    outer loop
      vertex -0.479376 7.45806 10.8778
      vertex 0 7.5 1.52222
      vertex -0.711254 7.43777 1.52222
    endloop
  endfacet
  facet normal -0.0871536 0.996195 -4.04891e-07
    outer loop
      vertex -0.479376 7.45806 10.8778
      vertex -0.711254 7.43777 1.52222
      vertex -1.30236 7.38606 10.8778
    endloop
  endfacet
  facet normal -0.0871473 0.996195 0
    outer loop
      vertex -1.30236 7.38606 10.8778
      vertex -0.711254 7.43777 1.52222
      vertex -1.30236 7.38606 1.52222
    endloop
  endfacet
  facet normal -0.573579 0.81915 0
    outer loop
      vertex -3.75 6.49519 10.8778
      vertex -3.75 6.49519 1.52222
      vertex -4.14418 6.21918 10.8778
    endloop
  endfacet
  facet normal -0.573575 0.819153 -1.60798e-07
    outer loop
      vertex -4.14418 6.21918 10.8778
      vertex -4.33485 6.08567 1.52222
      vertex -4.82091 5.74533 10.8778
    endloop
  endfacet
  facet normal -0.573573 0.819154 0
    outer loop
      vertex -4.82091 5.74533 10.8778
      vertex -4.33485 6.08567 1.52222
      vertex -4.82091 5.74533 1.52222
    endloop
  endfacet
  facet normal -0.57358 0.81915 -2.17228e-08
    outer loop
      vertex -4.14418 6.21918 10.8778
      vertex -3.75 6.49519 1.52222
      vertex -4.33485 6.08567 1.52222
    endloop
  endfacet
  facet normal 0.996195 0.0871473 0
    outer loop
      vertex 7.38606 1.30236 10.8778
      vertex 7.43777 0.711254 1.52222
      vertex 7.38606 1.30236 1.52222
    endloop
  endfacet
  facet normal 0.996195 0.0871536 -4.04891e-07
    outer loop
      vertex 7.45806 0.479376 10.8778
      vertex 7.43777 0.711254 1.52222
      vertex 7.38606 1.30236 10.8778
    endloop
  endfacet
  facet normal 0.996195 0.0871558 -0
    outer loop
      vertex 7.5 0 1.52222
      vertex 7.45806 0.479376 10.8778
      vertex 7.5 0 10.8778
    endloop
  endfacet
  facet normal 0.996194 0.0871604 -2.359e-07
    outer loop
      vertex 7.45806 0.479376 10.8778
      vertex 7.5 0 1.52222
      vertex 7.43777 0.711254 1.52222
    endloop
  endfacet
  facet normal 0.0871558 -0.996195 0
    outer loop
      vertex 0 -7.5 1.52222
      vertex 0.479376 -7.45806 10.8778
      vertex 0 -7.5 10.8778
    endloop
  endfacet
  facet normal 0.0871604 -0.996194 -2.359e-07
    outer loop
      vertex 0.479376 -7.45806 10.8778
      vertex 0 -7.5 1.52222
      vertex 0.711254 -7.43777 1.52222
    endloop
  endfacet
  facet normal 0.0871536 -0.996195 -4.04891e-07
    outer loop
      vertex 0.479376 -7.45806 10.8778
      vertex 0.711254 -7.43777 1.52222
      vertex 1.30236 -7.38606 10.8778
    endloop
  endfacet
  facet normal 0.0871473 -0.996195 0
    outer loop
      vertex 1.30236 -7.38606 10.8778
      vertex 0.711254 -7.43777 1.52222
      vertex 1.30236 -7.38606 1.52222
    endloop
  endfacet
  facet normal 0.819154 -0.573573 0
    outer loop
      vertex 6.15485 -4.23606 1.52222
      vertex 6.49519 -3.75 1.52222
      vertex 6.49519 -3.75 10.8778
    endloop
  endfacet
  facet normal 0.819149 -0.573581 6.01147e-07
    outer loop
      vertex 6.02134 -4.42672 10.8778
      vertex 6.15485 -4.23606 1.52222
      vertex 6.49519 -3.75 10.8778
    endloop
  endfacet
  facet normal 0.819157 -0.57357 0
    outer loop
      vertex 5.74533 -4.82091 1.52222
      vertex 6.02134 -4.42672 10.8778
      vertex 5.74533 -4.82091 10.8778
    endloop
  endfacet
  facet normal 0.81915 -0.57358 6.34811e-07
    outer loop
      vertex 6.02134 -4.42672 10.8778
      vertex 5.74533 -4.82091 1.52222
      vertex 6.15485 -4.23606 1.52222
    endloop
  endfacet
  facet normal 0.965924 -0.258827 0
    outer loop
      vertex 7.23248 -1.87551 1.52222
      vertex 7.38606 -1.30236 1.52222
      vertex 7.38606 -1.30236 10.8778
    endloop
  endfacet
  facet normal 0.965925 -0.258821 -3.66856e-07
    outer loop
      vertex 7.17224 -2.10034 10.8778
      vertex 7.23248 -1.87551 1.52222
      vertex 7.38606 -1.30236 10.8778
    endloop
  endfacet
  facet normal 0.965923 -0.258828 0
    outer loop
      vertex 7.04769 -2.56515 1.52222
      vertex 7.17224 -2.10034 10.8778
      vertex 7.04769 -2.56515 10.8778
    endloop
  endfacet
  facet normal 0.965925 -0.258821 -3.62612e-07
    outer loop
      vertex 7.17224 -2.10034 10.8778
      vertex 7.04769 -2.56515 1.52222
      vertex 7.23248 -1.87551 1.52222
    endloop
  endfacet
  facet normal 0.258828 -0.965923 0
    outer loop
      vertex 1.30236 -7.38606 10.8778
      vertex 1.30236 -7.38606 1.52222
      vertex 1.76717 -7.26151 10.8778
    endloop
  endfacet
  facet normal 0.258821 -0.965925 3.62612e-07
    outer loop
      vertex 1.992 -7.20127 1.52222
      vertex 1.76717 -7.26151 10.8778
      vertex 1.30236 -7.38606 1.52222
    endloop
  endfacet
  facet normal 0.258821 -0.965925 3.66856e-07
    outer loop
      vertex 1.76717 -7.26151 10.8778
      vertex 1.992 -7.20127 1.52222
      vertex 2.56515 -7.04769 10.8778
    endloop
  endfacet
  facet normal 0.258827 -0.965924 0
    outer loop
      vertex 2.56515 -7.04769 10.8778
      vertex 1.992 -7.20127 1.52222
      vertex 2.56515 -7.04769 1.52222
    endloop
  endfacet
  facet normal -0.258821 -0.965925 -3.66856e-07
    outer loop
      vertex -1.87551 -7.23248 1.52222
      vertex -1.30236 -7.38606 10.8778
      vertex -2.10034 -7.17224 10.8778
    endloop
  endfacet
  facet normal -0.258827 -0.965924 0
    outer loop
      vertex -1.30236 -7.38606 1.52222
      vertex -1.30236 -7.38606 10.8778
      vertex -1.87551 -7.23248 1.52222
    endloop
  endfacet
  facet normal -0.258828 -0.965923 0
    outer loop
      vertex -2.56515 -7.04769 1.52222
      vertex -2.10034 -7.17224 10.8778
      vertex -2.56515 -7.04769 10.8778
    endloop
  endfacet
  facet normal -0.258821 -0.965925 -3.62612e-07
    outer loop
      vertex -2.10034 -7.17224 10.8778
      vertex -2.56515 -7.04769 1.52222
      vertex -1.87551 -7.23248 1.52222
    endloop
  endfacet
  facet normal -0.707107 -0.707107 0
    outer loop
      vertex -4.82091 -5.74533 1.52222
      vertex -5.74533 -4.82091 10.8778
      vertex -5.74533 -4.82091 1.52222
    endloop
  endfacet
  facet normal -0.707107 -0.707107 0
    outer loop
      vertex -5.74533 -4.82091 10.8778
      vertex -4.82091 -5.74533 1.52222
      vertex -4.82091 -5.74533 10.8778
    endloop
  endfacet
  facet normal -0.906313 -0.422608 0
    outer loop
      vertex -7.04769 -2.56515 1.52222
      vertex -6.84433 -3.00127 10.8778
      vertex -7.04769 -2.56515 10.8778
    endloop
  endfacet
  facet normal -0.906312 -0.422609 -4.47332e-08
    outer loop
      vertex -7.04769 -2.56515 1.52222
      vertex -6.74596 -3.21223 1.52222
      vertex -6.84433 -3.00127 10.8778
    endloop
  endfacet
  facet normal -0.906307 -0.42262 2.59324e-07
    outer loop
      vertex -6.74596 -3.21223 1.52222
      vertex -6.49519 -3.75 10.8778
      vertex -6.84433 -3.00127 10.8778
    endloop
  endfacet
  facet normal -0.906305 -0.422623 0
    outer loop
      vertex -6.74596 -3.21223 1.52222
      vertex -6.49519 -3.75 1.52222
      vertex -6.49519 -3.75 10.8778
    endloop
  endfacet
  facet normal -0.996195 -0.0871558 0
    outer loop
      vertex -7.5 0 1.52222
      vertex -7.45806 -0.479376 10.8778
      vertex -7.5 0 10.8778
    endloop
  endfacet
  facet normal -0.996194 -0.0871604 -2.359e-07
    outer loop
      vertex -7.43777 -0.711254 1.52222
      vertex -7.45806 -0.479376 10.8778
      vertex -7.5 0 1.52222
    endloop
  endfacet
  facet normal -0.996195 -0.0871473 -0
    outer loop
      vertex -7.38606 -1.30236 10.8778
      vertex -7.43777 -0.711254 1.52222
      vertex -7.38606 -1.30236 1.52222
    endloop
  endfacet
  facet normal -0.996195 -0.0871536 -4.04891e-07
    outer loop
      vertex -7.43777 -0.711254 1.52222
      vertex -7.38606 -1.30236 10.8778
      vertex -7.45806 -0.479376 10.8778
    endloop
  endfacet
  facet normal 0 0 -1
    outer loop
      vertex 4.25 0 0
      vertex 5.97778 0 0
      vertex 5.88696 -1.03803 0
    endloop
  endfacet
  facet normal 0 0 -1
    outer loop
      vertex 4.18543 -0.738005 0
      vertex 5.88696 -1.03803 0
      vertex 5.61727 -2.04452 0
    endloop
  endfacet
  facet normal 0 0 -1
    outer loop
      vertex 5.97778 0 0
      vertex 4.25 0 0
      vertex 5.88696 1.03803 0
    endloop
  endfacet
  facet normal 0 0 -1
    outer loop
      vertex 3.99369 -1.45358 0
      vertex 5.61727 -2.04452 0
      vertex 5.17691 -2.98889 0
    endloop
  endfacet
  facet normal 0 0 -1
    outer loop
      vertex 4.18543 0.738005 0
      vertex 5.88696 1.03803 0
      vertex 4.25 0 0
    endloop
  endfacet
  facet normal 0 0 -1
    outer loop
      vertex 3.68061 -2.125 0
      vertex 5.17691 -2.98889 0
      vertex 4.57924 -3.84244 0
    endloop
  endfacet
  facet normal -0 0 -1
    outer loop
      vertex 5.88696 1.03803 0
      vertex 4.18543 0.738005 0
      vertex 5.61727 2.04452 0
    endloop
  endfacet
  facet normal 0 0 -1
    outer loop
      vertex 3.99369 1.45358 0
      vertex 5.61727 2.04452 0
      vertex 4.18543 0.738005 0
    endloop
  endfacet
  facet normal 0 0 -1
    outer loop
      vertex 5.88696 -1.03803 0
      vertex 4.18543 -0.738005 0
      vertex 4.25 0 0
    endloop
  endfacet
  facet normal 0 0 -1
    outer loop
      vertex 5.61727 -2.04452 0
      vertex 3.99369 -1.45358 0
      vertex 4.18543 -0.738005 0
    endloop
  endfacet
  facet normal 0 0 -1
    outer loop
      vertex 3.25569 -2.73185 0
      vertex 4.57924 -3.84244 0
      vertex 3.84244 -4.57924 0
    endloop
  endfacet
  facet normal 0 0 -1
    outer loop
      vertex 5.17691 -2.98889 0
      vertex 3.68061 -2.125 0
      vertex 3.99369 -1.45358 0
    endloop
  endfacet
  facet normal 0 0 -1
    outer loop
      vertex 4.57924 -3.84244 0
      vertex 3.25569 -2.73185 0
      vertex 3.68061 -2.125 0
    endloop
  endfacet
  facet normal 0 0 -1
    outer loop
      vertex 2.73185 -3.25569 0
      vertex 3.84244 -4.57924 0
      vertex 2.98889 -5.17691 0
    endloop
  endfacet
  facet normal 0 0 -1
    outer loop
      vertex 3.84244 -4.57924 0
      vertex 2.73185 -3.25569 0
      vertex 3.25569 -2.73185 0
    endloop
  endfacet
  facet normal 0 0 -1
    outer loop
      vertex 2.98889 -5.17691 0
      vertex 2.125 -3.68061 0
      vertex 2.73185 -3.25569 0
    endloop
  endfacet
  facet normal 0 0 -1
    outer loop
      vertex 2.04452 -5.61727 0
      vertex 2.125 -3.68061 0
      vertex 2.98889 -5.17691 0
    endloop
  endfacet
  facet normal 0 0 -1
    outer loop
      vertex 2.04452 -5.61727 0
      vertex 1.45358 -3.99369 0
      vertex 2.125 -3.68061 0
    endloop
  endfacet
  facet normal 0 0 -1
    outer loop
      vertex 1.03803 -5.88696 0
      vertex 1.45358 -3.99369 0
      vertex 2.04452 -5.61727 0
    endloop
  endfacet
  facet normal 0 0 -1
    outer loop
      vertex 1.03803 -5.88696 0
      vertex 0.738005 -4.18543 0
      vertex 1.45358 -3.99369 0
    endloop
  endfacet
  facet normal 0 0 -1
    outer loop
      vertex 0 -5.97778 0
      vertex 0.738005 -4.18543 0
      vertex 1.03803 -5.88696 0
    endloop
  endfacet
  facet normal 0 0 -1
    outer loop
      vertex 0 -5.97778 0
      vertex 0 -4.25 0
      vertex 0.738005 -4.18543 0
    endloop
  endfacet
  facet normal 0 0 -1
    outer loop
      vertex 0 -5.97778 0
      vertex -0.738005 -4.18543 0
      vertex 0 -4.25 0
    endloop
  endfacet
  facet normal 0 0 -1
    outer loop
      vertex -1.03803 -5.88696 0
      vertex -0.738005 -4.18543 0
      vertex 0 -5.97778 0
    endloop
  endfacet
  facet normal 0 0 -1
    outer loop
      vertex -1.03803 -5.88696 0
      vertex -1.45358 -3.99369 0
      vertex -0.738005 -4.18543 0
    endloop
  endfacet
  facet normal 0 0 -1
    outer loop
      vertex -2.04452 -5.61727 0
      vertex -1.45358 -3.99369 0
      vertex -1.03803 -5.88696 0
    endloop
  endfacet
  facet normal 0 0 -1
    outer loop
      vertex -2.04452 -5.61727 0
      vertex -2.125 -3.68061 0
      vertex -1.45358 -3.99369 0
    endloop
  endfacet
  facet normal 0 0 -1
    outer loop
      vertex -2.98889 -5.17691 0
      vertex -2.125 -3.68061 0
      vertex -2.04452 -5.61727 0
    endloop
  endfacet
  facet normal -0 0 -1
    outer loop
      vertex -2.125 -3.68061 0
      vertex -2.98889 -5.17691 0
      vertex -2.73185 -3.25569 0
    endloop
  endfacet
  facet normal 0 0 -1
    outer loop
      vertex -3.84244 -4.57924 0
      vertex -2.73185 -3.25569 0
      vertex -2.98889 -5.17691 0
    endloop
  endfacet
  facet normal -0 0 -1
    outer loop
      vertex -2.73185 -3.25569 0
      vertex -3.84244 -4.57924 0
      vertex -3.25569 -2.73185 0
    endloop
  endfacet
  facet normal 0 0 -1
    outer loop
      vertex -4.57924 -3.84244 0
      vertex -3.25569 -2.73185 0
      vertex -3.84244 -4.57924 0
    endloop
  endfacet
  facet normal -0 0 -1
    outer loop
      vertex -3.25569 -2.73185 0
      vertex -4.57924 -3.84244 0
      vertex -3.68061 -2.125 0
    endloop
  endfacet
  facet normal 0 0 -1
    outer loop
      vertex -5.17691 -2.98889 0
      vertex -3.68061 -2.125 0
      vertex -4.57924 -3.84244 0
    endloop
  endfacet
  facet normal 0 0 -1
    outer loop
      vertex -5.61727 -2.04452 0
      vertex -3.99369 -1.45358 0
      vertex -5.17691 -2.98889 0
    endloop
  endfacet
  facet normal -0 0 -1
    outer loop
      vertex -3.68061 -2.125 0
      vertex -5.17691 -2.98889 0
      vertex -3.99369 -1.45358 0
    endloop
  endfacet
  facet normal -0 0 -1
    outer loop
      vertex 5.61727 2.04452 0
      vertex 3.99369 1.45358 0
      vertex 5.17691 2.98889 0
    endloop
  endfacet
  facet normal 0 0 -1
    outer loop
      vertex 3.68061 2.125 0
      vertex 5.17691 2.98889 0
      vertex 3.99369 1.45358 0
    endloop
  endfacet
  facet normal -0 0 -1
    outer loop
      vertex 5.17691 2.98889 0
      vertex 3.68061 2.125 0
      vertex 4.57924 3.84244 0
    endloop
  endfacet
  facet normal 0 0 -1
    outer loop
      vertex 3.25569 2.73185 0
      vertex 4.57924 3.84244 0
      vertex 3.68061 2.125 0
    endloop
  endfacet
  facet normal -0 0 -1
    outer loop
      vertex 4.57924 3.84244 0
      vertex 3.25569 2.73185 0
      vertex 3.84244 4.57924 0
    endloop
  endfacet
  facet normal 0 0 -1
    outer loop
      vertex 2.73185 3.25569 0
      vertex 3.84244 4.57924 0
      vertex 3.25569 2.73185 0
    endloop
  endfacet
  facet normal -0 0 -1
    outer loop
      vertex 3.84244 4.57924 0
      vertex 2.73185 3.25569 0
      vertex 2.98889 5.17691 0
    endloop
  endfacet
  facet normal 0 0 -1
    outer loop
      vertex 2.125 3.68061 0
      vertex 2.98889 5.17691 0
      vertex 2.73185 3.25569 0
    endloop
  endfacet
  facet normal 0 0 -1
    outer loop
      vertex 2.125 3.68061 0
      vertex 2.04452 5.61727 0
      vertex 2.98889 5.17691 0
    endloop
  endfacet
  facet normal 0 0 -1
    outer loop
      vertex 1.45358 3.99369 0
      vertex 2.04452 5.61727 0
      vertex 2.125 3.68061 0
    endloop
  endfacet
  facet normal 0 0 -1
    outer loop
      vertex 1.45358 3.99369 0
      vertex 1.03803 5.88696 0
      vertex 2.04452 5.61727 0
    endloop
  endfacet
  facet normal 0 0 -1
    outer loop
      vertex 0.738005 4.18543 0
      vertex 1.03803 5.88696 0
      vertex 1.45358 3.99369 0
    endloop
  endfacet
  facet normal 0 0 -1
    outer loop
      vertex 0 4.25 0
      vertex 1.03803 5.88696 0
      vertex 0.738005 4.18543 0
    endloop
  endfacet
  facet normal 0 0 -1
    outer loop
      vertex 0 4.25 0
      vertex 0 5.97778 0
      vertex 1.03803 5.88696 0
    endloop
  endfacet
  facet normal 0 0 -1
    outer loop
      vertex -0.738005 4.18543 0
      vertex 0 5.97778 0
      vertex 0 4.25 0
    endloop
  endfacet
  facet normal 0 0 -1
    outer loop
      vertex -0.738005 4.18543 0
      vertex -1.03803 5.88696 0
      vertex 0 5.97778 0
    endloop
  endfacet
  facet normal 0 0 -1
    outer loop
      vertex -1.45358 3.99369 0
      vertex -1.03803 5.88696 0
      vertex -0.738005 4.18543 0
    endloop
  endfacet
  facet normal 0 0 -1
    outer loop
      vertex -1.45358 3.99369 0
      vertex -2.04452 5.61727 0
      vertex -1.03803 5.88696 0
    endloop
  endfacet
  facet normal 0 0 -1
    outer loop
      vertex -2.125 3.68061 0
      vertex -2.04452 5.61727 0
      vertex -1.45358 3.99369 0
    endloop
  endfacet
  facet normal 0 0 -1
    outer loop
      vertex -2.98889 5.17691 0
      vertex -2.125 3.68061 0
      vertex -2.73185 3.25569 0
    endloop
  endfacet
  facet normal 0 0 -1
    outer loop
      vertex -2.125 3.68061 0
      vertex -2.98889 5.17691 0
      vertex -2.04452 5.61727 0
    endloop
  endfacet
  facet normal 0 0 -1
    outer loop
      vertex -3.84244 4.57924 0
      vertex -2.73185 3.25569 0
      vertex -3.25569 2.73185 0
    endloop
  endfacet
  facet normal 0 0 -1
    outer loop
      vertex -4.57924 3.84244 0
      vertex -3.25569 2.73185 0
      vertex -3.68061 2.125 0
    endloop
  endfacet
  facet normal 0 0 -1
    outer loop
      vertex -2.73185 3.25569 0
      vertex -3.84244 4.57924 0
      vertex -2.98889 5.17691 0
    endloop
  endfacet
  facet normal 0 0 -1
    outer loop
      vertex -5.17691 2.98889 0
      vertex -3.68061 2.125 0
      vertex -3.99369 1.45358 0
    endloop
  endfacet
  facet normal 0 0 -1
    outer loop
      vertex -5.61727 2.04452 0
      vertex -3.99369 1.45358 0
      vertex -4.18543 0.738005 0
    endloop
  endfacet
  facet normal 0 0 -1
    outer loop
      vertex -3.25569 2.73185 0
      vertex -4.57924 3.84244 0
      vertex -3.84244 4.57924 0
    endloop
  endfacet
  facet normal 0 0 -1
    outer loop
      vertex -5.88696 1.03803 0
      vertex -4.18543 0.738005 0
      vertex -4.25 0 0
    endloop
  endfacet
  facet normal -0 0 -1
    outer loop
      vertex -3.99369 -1.45358 0
      vertex -5.61727 -2.04452 0
      vertex -4.18543 -0.738005 0
    endloop
  endfacet
  facet normal 0 0 -1
    outer loop
      vertex -5.88696 -1.03803 0
      vertex -4.18543 -0.738005 0
      vertex -5.61727 -2.04452 0
    endloop
  endfacet
  facet normal 0 0 -1
    outer loop
      vertex -3.68061 2.125 0
      vertex -5.17691 2.98889 0
      vertex -4.57924 3.84244 0
    endloop
  endfacet
  facet normal -0 0 -1
    outer loop
      vertex -4.18543 -0.738005 0
      vertex -5.88696 -1.03803 0
      vertex -4.25 0 0
    endloop
  endfacet
  facet normal 0 0 -1
    outer loop
      vertex -3.99369 1.45358 0
      vertex -5.61727 2.04452 0
      vertex -5.17691 2.98889 0
    endloop
  endfacet
  facet normal 0 0 -1
    outer loop
      vertex -5.97778 0 0
      vertex -4.25 0 0
      vertex -5.88696 -1.03803 0
    endloop
  endfacet
  facet normal 0 0 -1
    outer loop
      vertex -4.18543 0.738005 0
      vertex -5.88696 1.03803 0
      vertex -5.61727 2.04452 0
    endloop
  endfacet
  facet normal 0 0 -1
    outer loop
      vertex -4.25 0 0
      vertex -5.97778 0 0
      vertex -5.88696 1.03803 0
    endloop
  endfacet
  facet normal -0.81915 -0.573579 0
    outer loop
      vertex -6.49519 -3.75 1.52222
      vertex -6.21918 -4.14418 10.8778
      vertex -6.49519 -3.75 10.8778
    endloop
  endfacet
  facet normal -0.81915 -0.57358 -2.17228e-08
    outer loop
      vertex -6.08567 -4.33485 1.52222
      vertex -6.21918 -4.14418 10.8778
      vertex -6.49519 -3.75 1.52222
    endloop
  endfacet
  facet normal -0.819153 -0.573575 -1.60798e-07
    outer loop
      vertex -6.08567 -4.33485 1.52222
      vertex -5.74533 -4.82091 10.8778
      vertex -6.21918 -4.14418 10.8778
    endloop
  endfacet
  facet normal -0.819154 -0.573573 0
    outer loop
      vertex -5.74533 -4.82091 1.52222
      vertex -5.74533 -4.82091 10.8778
      vertex -6.08567 -4.33485 1.52222
    endloop
  endfacet
  facet normal 0.258821 0.965925 -3.66856e-07
    outer loop
      vertex 1.87551 7.23248 1.52222
      vertex 1.30236 7.38606 10.8778
      vertex 2.10034 7.17224 10.8778
    endloop
  endfacet
  facet normal 0.258827 0.965924 -0
    outer loop
      vertex 1.30236 7.38606 1.52222
      vertex 1.30236 7.38606 10.8778
      vertex 1.87551 7.23248 1.52222
    endloop
  endfacet
  facet normal 0.258828 0.965923 -0
    outer loop
      vertex 2.56515 7.04769 1.52222
      vertex 2.10034 7.17224 10.8778
      vertex 2.56515 7.04769 10.8778
    endloop
  endfacet
  facet normal 0.258821 0.965925 -3.62612e-07
    outer loop
      vertex 2.10034 7.17224 10.8778
      vertex 2.56515 7.04769 1.52222
      vertex 1.87551 7.23248 1.52222
    endloop
  endfacet
  facet normal -0.996195 0.087156 0
    outer loop
      vertex -7.38606 1.30236 1.52222
      vertex -7.428 0.822985 10.8778
      vertex -7.38606 1.30236 10.8778
    endloop
  endfacet
  facet normal -0.996196 0.0871465 -4.91086e-07
    outer loop
      vertex -7.44828 0.591106 1.52222
      vertex -7.428 0.822985 10.8778
      vertex -7.38606 1.30236 1.52222
    endloop
  endfacet
  facet normal -0.996194 0.087164 0
    outer loop
      vertex -7.5 0 10.8778
      vertex -7.44828 0.591106 1.52222
      vertex -7.5 0 1.52222
    endloop
  endfacet
  facet normal -0.996195 0.0871535 -6.66614e-07
    outer loop
      vertex -7.44828 0.591106 1.52222
      vertex -7.5 0 10.8778
      vertex -7.428 0.822985 10.8778
    endloop
  endfacet
  facet normal 0.707107 -0.707107 0
    outer loop
      vertex 4.82091 -5.74533 10.8778
      vertex 5.74533 -4.82091 1.52222
      vertex 5.74533 -4.82091 10.8778
    endloop
  endfacet
  facet normal 0.707107 -0.707107 0
    outer loop
      vertex 5.74533 -4.82091 1.52222
      vertex 4.82091 -5.74533 10.8778
      vertex 4.82091 -5.74533 1.52222
    endloop
  endfacet
  facet normal 0.422608 -0.906313 0
    outer loop
      vertex 2.56515 -7.04769 10.8778
      vertex 2.56515 -7.04769 1.52222
      vertex 3.00127 -6.84433 10.8778
    endloop
  endfacet
  facet normal 0.422609 -0.906312 -4.47332e-08
    outer loop
      vertex 3.00127 -6.84433 10.8778
      vertex 2.56515 -7.04769 1.52222
      vertex 3.21223 -6.74596 1.52222
    endloop
  endfacet
  facet normal 0.42262 -0.906307 2.59324e-07
    outer loop
      vertex 3.00127 -6.84433 10.8778
      vertex 3.21223 -6.74596 1.52222
      vertex 3.75 -6.49519 10.8778
    endloop
  endfacet
  facet normal 0.422623 -0.906305 0
    outer loop
      vertex 3.75 -6.49519 10.8778
      vertex 3.21223 -6.74596 1.52222
      vertex 3.75 -6.49519 1.52222
    endloop
  endfacet
  facet normal -0.087156 -0.996195 0
    outer loop
      vertex -1.30236 -7.38606 1.52222
      vertex -0.822985 -7.428 10.8778
      vertex -1.30236 -7.38606 10.8778
    endloop
  endfacet
  facet normal -0.0871535 -0.996195 -6.66614e-07
    outer loop
      vertex -0.822985 -7.428 10.8778
      vertex -0.591106 -7.44828 1.52222
      vertex 0 -7.5 10.8778
    endloop
  endfacet
  facet normal -0.0871465 -0.996196 -4.91086e-07
    outer loop
      vertex -0.822985 -7.428 10.8778
      vertex -1.30236 -7.38606 1.52222
      vertex -0.591106 -7.44828 1.52222
    endloop
  endfacet
  facet normal -0.087164 -0.996194 -0
    outer loop
      vertex 0 -7.5 10.8778
      vertex -0.591106 -7.44828 1.52222
      vertex 0 -7.5 1.52222
    endloop
  endfacet
  facet normal -0.57357 -0.819157 -0
    outer loop
      vertex -4.82091 -5.74533 10.8778
      vertex -4.82091 -5.74533 1.52222
      vertex -4.42672 -6.02134 10.8778
    endloop
  endfacet
  facet normal -0.57358 -0.81915 6.34811e-07
    outer loop
      vertex -4.42672 -6.02134 10.8778
      vertex -4.82091 -5.74533 1.52222
      vertex -4.23606 -6.15485 1.52222
    endloop
  endfacet
  facet normal -0.573581 -0.819149 6.01147e-07
    outer loop
      vertex -4.42672 -6.02134 10.8778
      vertex -4.23606 -6.15485 1.52222
      vertex -3.75 -6.49519 10.8778
    endloop
  endfacet
  facet normal -0.573573 -0.819154 -0
    outer loop
      vertex -3.75 -6.49519 10.8778
      vertex -4.23606 -6.15485 1.52222
      vertex -3.75 -6.49519 1.52222
    endloop
  endfacet
  facet normal -0.965923 -0.258828 0
    outer loop
      vertex -7.38606 -1.30236 1.52222
      vertex -7.26151 -1.76717 10.8778
      vertex -7.38606 -1.30236 10.8778
    endloop
  endfacet
  facet normal -0.965925 -0.258821 3.62612e-07
    outer loop
      vertex -7.38606 -1.30236 1.52222
      vertex -7.20127 -1.992 1.52222
      vertex -7.26151 -1.76717 10.8778
    endloop
  endfacet
  facet normal -0.965924 -0.258827 -0
    outer loop
      vertex -7.04769 -2.56515 10.8778
      vertex -7.20127 -1.992 1.52222
      vertex -7.04769 -2.56515 1.52222
    endloop
  endfacet
  facet normal -0.965925 -0.258821 3.66856e-07
    outer loop
      vertex -7.20127 -1.992 1.52222
      vertex -7.04769 -2.56515 10.8778
      vertex -7.26151 -1.76717 10.8778
    endloop
  endfacet
  facet normal 0 0 1
    outer loop
      vertex 4.25 0 12.4
      vertex 5.97778 0 12.4
      vertex 5.88696 1.03803 12.4
    endloop
  endfacet
  facet normal 0 0 1
    outer loop
      vertex 4.18543 0.738005 12.4
      vertex 5.88696 1.03803 12.4
      vertex 5.61727 2.04452 12.4
    endloop
  endfacet
  facet normal 0 0 1
    outer loop
      vertex 5.97778 0 12.4
      vertex 4.25 0 12.4
      vertex 5.88696 -1.03803 12.4
    endloop
  endfacet
  facet normal 0 0 1
    outer loop
      vertex 3.99369 1.45358 12.4
      vertex 5.61727 2.04452 12.4
      vertex 5.17691 2.98889 12.4
    endloop
  endfacet
  facet normal -0 0 1
    outer loop
      vertex 4.18543 -0.738005 12.4
      vertex 5.88696 -1.03803 12.4
      vertex 4.25 0 12.4
    endloop
  endfacet
  facet normal 0 0 1
    outer loop
      vertex 3.68061 2.125 12.4
      vertex 5.17691 2.98889 12.4
      vertex 4.57924 3.84244 12.4
    endloop
  endfacet
  facet normal 0 0 1
    outer loop
      vertex 5.88696 -1.03803 12.4
      vertex 4.18543 -0.738005 12.4
      vertex 5.61727 -2.04452 12.4
    endloop
  endfacet
  facet normal -0 0 1
    outer loop
      vertex 3.99369 -1.45358 12.4
      vertex 5.61727 -2.04452 12.4
      vertex 4.18543 -0.738005 12.4
    endloop
  endfacet
  facet normal 0 0 1
    outer loop
      vertex 5.88696 1.03803 12.4
      vertex 4.18543 0.738005 12.4
      vertex 4.25 0 12.4
    endloop
  endfacet
  facet normal 0 0 1
    outer loop
      vertex 5.61727 2.04452 12.4
      vertex 3.99369 1.45358 12.4
      vertex 4.18543 0.738005 12.4
    endloop
  endfacet
  facet normal 0 0 1
    outer loop
      vertex 3.25569 2.73185 12.4
      vertex 4.57924 3.84244 12.4
      vertex 3.84244 4.57924 12.4
    endloop
  endfacet
  facet normal 0 0 1
    outer loop
      vertex 5.17691 2.98889 12.4
      vertex 3.68061 2.125 12.4
      vertex 3.99369 1.45358 12.4
    endloop
  endfacet
  facet normal 0 0 1
    outer loop
      vertex 4.57924 3.84244 12.4
      vertex 3.25569 2.73185 12.4
      vertex 3.68061 2.125 12.4
    endloop
  endfacet
  facet normal 0 0 1
    outer loop
      vertex 2.73185 3.25569 12.4
      vertex 3.84244 4.57924 12.4
      vertex 2.98889 5.17691 12.4
    endloop
  endfacet
  facet normal 0 0 1
    outer loop
      vertex 3.84244 4.57924 12.4
      vertex 2.73185 3.25569 12.4
      vertex 3.25569 2.73185 12.4
    endloop
  endfacet
  facet normal 0 0 1
    outer loop
      vertex 2.98889 5.17691 12.4
      vertex 2.125 3.68061 12.4
      vertex 2.73185 3.25569 12.4
    endloop
  endfacet
  facet normal 0 0 1
    outer loop
      vertex 2.04452 5.61727 12.4
      vertex 2.125 3.68061 12.4
      vertex 2.98889 5.17691 12.4
    endloop
  endfacet
  facet normal 0 0 1
    outer loop
      vertex 2.04452 5.61727 12.4
      vertex 1.45358 3.99369 12.4
      vertex 2.125 3.68061 12.4
    endloop
  endfacet
  facet normal 0 0 1
    outer loop
      vertex 1.03803 5.88696 12.4
      vertex 1.45358 3.99369 12.4
      vertex 2.04452 5.61727 12.4
    endloop
  endfacet
  facet normal 0 0 1
    outer loop
      vertex 1.03803 5.88696 12.4
      vertex 0.738005 4.18543 12.4
      vertex 1.45358 3.99369 12.4
    endloop
  endfacet
  facet normal 0 0 1
    outer loop
      vertex 0 5.97778 12.4
      vertex 0.738005 4.18543 12.4
      vertex 1.03803 5.88696 12.4
    endloop
  endfacet
  facet normal 0 0 1
    outer loop
      vertex 0 5.97778 12.4
      vertex 0 4.25 12.4
      vertex 0.738005 4.18543 12.4
    endloop
  endfacet
  facet normal 0 0 1
    outer loop
      vertex 0 5.97778 12.4
      vertex -0.738005 4.18543 12.4
      vertex 0 4.25 12.4
    endloop
  endfacet
  facet normal -0 0 1
    outer loop
      vertex -1.03803 5.88696 12.4
      vertex -0.738005 4.18543 12.4
      vertex 0 5.97778 12.4
    endloop
  endfacet
  facet normal 0 0 1
    outer loop
      vertex -1.03803 5.88696 12.4
      vertex -1.45358 3.99369 12.4
      vertex -0.738005 4.18543 12.4
    endloop
  endfacet
  facet normal -0 0 1
    outer loop
      vertex -2.04452 5.61727 12.4
      vertex -1.45358 3.99369 12.4
      vertex -1.03803 5.88696 12.4
    endloop
  endfacet
  facet normal 0 0 1
    outer loop
      vertex -2.04452 5.61727 12.4
      vertex -2.125 3.68061 12.4
      vertex -1.45358 3.99369 12.4
    endloop
  endfacet
  facet normal -0 0 1
    outer loop
      vertex -2.98889 5.17691 12.4
      vertex -2.125 3.68061 12.4
      vertex -2.04452 5.61727 12.4
    endloop
  endfacet
  facet normal 0 0 1
    outer loop
      vertex -2.125 3.68061 12.4
      vertex -2.98889 5.17691 12.4
      vertex -2.73185 3.25569 12.4
    endloop
  endfacet
  facet normal -0 0 1
    outer loop
      vertex -3.84244 4.57924 12.4
      vertex -2.73185 3.25569 12.4
      vertex -2.98889 5.17691 12.4
    endloop
  endfacet
  facet normal 0 0 1
    outer loop
      vertex -2.73185 3.25569 12.4
      vertex -3.84244 4.57924 12.4
      vertex -3.25569 2.73185 12.4
    endloop
  endfacet
  facet normal -0 0 1
    outer loop
      vertex -4.57924 3.84244 12.4
      vertex -3.25569 2.73185 12.4
      vertex -3.84244 4.57924 12.4
    endloop
  endfacet
  facet normal 0 0 1
    outer loop
      vertex -3.25569 2.73185 12.4
      vertex -4.57924 3.84244 12.4
      vertex -3.68061 2.125 12.4
    endloop
  endfacet
  facet normal -0 0 1
    outer loop
      vertex -5.17691 2.98889 12.4
      vertex -3.68061 2.125 12.4
      vertex -4.57924 3.84244 12.4
    endloop
  endfacet
  facet normal -0 0 1
    outer loop
      vertex -5.61727 2.04452 12.4
      vertex -3.99369 1.45358 12.4
      vertex -5.17691 2.98889 12.4
    endloop
  endfacet
  facet normal 0 0 1
    outer loop
      vertex -3.68061 2.125 12.4
      vertex -5.17691 2.98889 12.4
      vertex -3.99369 1.45358 12.4
    endloop
  endfacet
  facet normal 0 0 1
    outer loop
      vertex 5.61727 -2.04452 12.4
      vertex 3.99369 -1.45358 12.4
      vertex 5.17691 -2.98889 12.4
    endloop
  endfacet
  facet normal -0 0 1
    outer loop
      vertex 3.68061 -2.125 12.4
      vertex 5.17691 -2.98889 12.4
      vertex 3.99369 -1.45358 12.4
    endloop
  endfacet
  facet normal 0 0 1
    outer loop
      vertex 5.17691 -2.98889 12.4
      vertex 3.68061 -2.125 12.4
      vertex 4.57924 -3.84244 12.4
    endloop
  endfacet
  facet normal -0 0 1
    outer loop
      vertex 3.25569 -2.73185 12.4
      vertex 4.57924 -3.84244 12.4
      vertex 3.68061 -2.125 12.4
    endloop
  endfacet
  facet normal 0 0 1
    outer loop
      vertex 4.57924 -3.84244 12.4
      vertex 3.25569 -2.73185 12.4
      vertex 3.84244 -4.57924 12.4
    endloop
  endfacet
  facet normal -0 0 1
    outer loop
      vertex 2.73185 -3.25569 12.4
      vertex 3.84244 -4.57924 12.4
      vertex 3.25569 -2.73185 12.4
    endloop
  endfacet
  facet normal 0 0 1
    outer loop
      vertex 3.84244 -4.57924 12.4
      vertex 2.73185 -3.25569 12.4
      vertex 2.98889 -5.17691 12.4
    endloop
  endfacet
  facet normal -0 0 1
    outer loop
      vertex 2.125 -3.68061 12.4
      vertex 2.98889 -5.17691 12.4
      vertex 2.73185 -3.25569 12.4
    endloop
  endfacet
  facet normal 0 0 1
    outer loop
      vertex 2.125 -3.68061 12.4
      vertex 2.04452 -5.61727 12.4
      vertex 2.98889 -5.17691 12.4
    endloop
  endfacet
  facet normal -0 0 1
    outer loop
      vertex 1.45358 -3.99369 12.4
      vertex 2.04452 -5.61727 12.4
      vertex 2.125 -3.68061 12.4
    endloop
  endfacet
  facet normal 0 0 1
    outer loop
      vertex 1.45358 -3.99369 12.4
      vertex 1.03803 -5.88696 12.4
      vertex 2.04452 -5.61727 12.4
    endloop
  endfacet
  facet normal -0 0 1
    outer loop
      vertex 0.738005 -4.18543 12.4
      vertex 1.03803 -5.88696 12.4
      vertex 1.45358 -3.99369 12.4
    endloop
  endfacet
  facet normal -0 0 1
    outer loop
      vertex 0 -4.25 12.4
      vertex 1.03803 -5.88696 12.4
      vertex 0.738005 -4.18543 12.4
    endloop
  endfacet
  facet normal 0 0 1
    outer loop
      vertex 0 -4.25 12.4
      vertex 0 -5.97778 12.4
      vertex 1.03803 -5.88696 12.4
    endloop
  endfacet
  facet normal 0 0 1
    outer loop
      vertex -0.738005 -4.18543 12.4
      vertex 0 -5.97778 12.4
      vertex 0 -4.25 12.4
    endloop
  endfacet
  facet normal 0 0 1
    outer loop
      vertex -0.738005 -4.18543 12.4
      vertex -1.03803 -5.88696 12.4
      vertex 0 -5.97778 12.4
    endloop
  endfacet
  facet normal 0 0 1
    outer loop
      vertex -1.45358 -3.99369 12.4
      vertex -1.03803 -5.88696 12.4
      vertex -0.738005 -4.18543 12.4
    endloop
  endfacet
  facet normal 0 0 1
    outer loop
      vertex -1.45358 -3.99369 12.4
      vertex -2.04452 -5.61727 12.4
      vertex -1.03803 -5.88696 12.4
    endloop
  endfacet
  facet normal 0 0 1
    outer loop
      vertex -2.125 -3.68061 12.4
      vertex -2.04452 -5.61727 12.4
      vertex -1.45358 -3.99369 12.4
    endloop
  endfacet
  facet normal 0 0 1
    outer loop
      vertex -2.98889 -5.17691 12.4
      vertex -2.125 -3.68061 12.4
      vertex -2.73185 -3.25569 12.4
    endloop
  endfacet
  facet normal 0 0 1
    outer loop
      vertex -2.125 -3.68061 12.4
      vertex -2.98889 -5.17691 12.4
      vertex -2.04452 -5.61727 12.4
    endloop
  endfacet
  facet normal 0 0 1
    outer loop
      vertex -3.84244 -4.57924 12.4
      vertex -2.73185 -3.25569 12.4
      vertex -3.25569 -2.73185 12.4
    endloop
  endfacet
  facet normal 0 0 1
    outer loop
      vertex -4.57924 -3.84244 12.4
      vertex -3.25569 -2.73185 12.4
      vertex -3.68061 -2.125 12.4
    endloop
  endfacet
  facet normal 0 0 1
    outer loop
      vertex -2.73185 -3.25569 12.4
      vertex -3.84244 -4.57924 12.4
      vertex -2.98889 -5.17691 12.4
    endloop
  endfacet
  facet normal 0 0 1
    outer loop
      vertex -5.17691 -2.98889 12.4
      vertex -3.68061 -2.125 12.4
      vertex -3.99369 -1.45358 12.4
    endloop
  endfacet
  facet normal 0 0 1
    outer loop
      vertex -5.61727 -2.04452 12.4
      vertex -3.99369 -1.45358 12.4
      vertex -4.18543 -0.738005 12.4
    endloop
  endfacet
  facet normal 0 0 1
    outer loop
      vertex -3.25569 -2.73185 12.4
      vertex -4.57924 -3.84244 12.4
      vertex -3.84244 -4.57924 12.4
    endloop
  endfacet
  facet normal 0 0 1
    outer loop
      vertex -5.88696 -1.03803 12.4
      vertex -4.18543 -0.738005 12.4
      vertex -4.25 0 12.4
    endloop
  endfacet
  facet normal 0 0 1
    outer loop
      vertex -3.99369 1.45358 12.4
      vertex -5.61727 2.04452 12.4
      vertex -4.18543 0.738005 12.4
    endloop
  endfacet
  facet normal -0 0 1
    outer loop
      vertex -5.88696 1.03803 12.4
      vertex -4.18543 0.738005 12.4
      vertex -5.61727 2.04452 12.4
    endloop
  endfacet
  facet normal 0 0 1
    outer loop
      vertex -3.68061 -2.125 12.4
      vertex -5.17691 -2.98889 12.4
      vertex -4.57924 -3.84244 12.4
    endloop
  endfacet
  facet normal 0 0 1
    outer loop
      vertex -4.18543 0.738005 12.4
      vertex -5.88696 1.03803 12.4
      vertex -4.25 0 12.4
    endloop
  endfacet
  facet normal 0 0 1
    outer loop
      vertex -3.99369 -1.45358 12.4
      vertex -5.61727 -2.04452 12.4
      vertex -5.17691 -2.98889 12.4
    endloop
  endfacet
  facet normal 0 0 1
    outer loop
      vertex -5.97778 0 12.4
      vertex -4.25 0 12.4
      vertex -5.88696 1.03803 12.4
    endloop
  endfacet
  facet normal 0 0 1
    outer loop
      vertex -4.18543 -0.738005 12.4
      vertex -5.88696 -1.03803 12.4
      vertex -5.61727 -2.04452 12.4
    endloop
  endfacet
  facet normal 0 0 1
    outer loop
      vertex -4.25 0 12.4
      vertex -5.97778 0 12.4
      vertex -5.88696 -1.03803 12.4
    endloop
  endfacet
  facet normal -0.965923 0.258828 0
    outer loop
      vertex -7.04769 2.56515 1.52222
      vertex -7.17224 2.10034 10.8778
      vertex -7.04769 2.56515 10.8778
    endloop
  endfacet
  facet normal -0.965925 0.258821 -3.62612e-07
    outer loop
      vertex -7.23248 1.87551 1.52222
      vertex -7.17224 2.10034 10.8778
      vertex -7.04769 2.56515 1.52222
    endloop
  endfacet
  facet normal -0.965924 0.258827 0
    outer loop
      vertex -7.38606 1.30236 10.8778
      vertex -7.23248 1.87551 1.52222
      vertex -7.38606 1.30236 1.52222
    endloop
  endfacet
  facet normal -0.965925 0.258821 -3.66856e-07
    outer loop
      vertex -7.23248 1.87551 1.52222
      vertex -7.38606 1.30236 10.8778
      vertex -7.17224 2.10034 10.8778
    endloop
  endfacet
  facet normal 0.906312 -0.42261 0
    outer loop
      vertex 6.79693 -3.10292 1.52222
      vertex 7.04769 -2.56515 1.52222
      vertex 7.04769 -2.56515 10.8778
    endloop
  endfacet
  facet normal 0.906312 -0.42261 1.36242e-08
    outer loop
      vertex 6.69856 -3.31388 10.8778
      vertex 6.79693 -3.10292 1.52222
      vertex 7.04769 -2.56515 10.8778
    endloop
  endfacet
  facet normal 0.906305 -0.422625 0
    outer loop
      vertex 6.49519 -3.75 1.52222
      vertex 6.69856 -3.31388 10.8778
      vertex 6.49519 -3.75 10.8778
    endloop
  endfacet
  facet normal 0.906307 -0.42262 -2.71092e-07
    outer loop
      vertex 6.69856 -3.31388 10.8778
      vertex 6.49519 -3.75 1.52222
      vertex 6.79693 -3.10292 1.52222
    endloop
  endfacet
  facet normal 0.573579 -0.81915 0
    outer loop
      vertex 3.75 -6.49519 10.8778
      vertex 3.75 -6.49519 1.52222
      vertex 4.14418 -6.21918 10.8778
    endloop
  endfacet
  facet normal 0.573575 -0.819153 -1.60798e-07
    outer loop
      vertex 4.14418 -6.21918 10.8778
      vertex 4.33485 -6.08567 1.52222
      vertex 4.82091 -5.74533 10.8778
    endloop
  endfacet
  facet normal 0.573573 -0.819154 0
    outer loop
      vertex 4.82091 -5.74533 10.8778
      vertex 4.33485 -6.08567 1.52222
      vertex 4.82091 -5.74533 1.52222
    endloop
  endfacet
  facet normal 0.57358 -0.81915 -2.17228e-08
    outer loop
      vertex 4.14418 -6.21918 10.8778
      vertex 3.75 -6.49519 1.52222
      vertex 4.33485 -6.08567 1.52222
    endloop
  endfacet
  facet normal -0.573576 -0.819153 0
    outer loop
      vertex 2.125 3.68061 0
      vertex 2.73185 3.25569 12.4
      vertex 2.125 3.68061 12.4
    endloop
  endfacet
  facet normal -0.573576 -0.819153 -0
    outer loop
      vertex 2.73185 3.25569 12.4
      vertex 2.125 3.68061 0
      vertex 2.73185 3.25569 0
    endloop
  endfacet
  facet normal 0.906312 -0.422609 0
    outer loop
      vertex -3.99369 1.45358 12.4
      vertex -3.68061 2.125 0
      vertex -3.68061 2.125 12.4
    endloop
  endfacet
  facet normal 0.906312 -0.422609 0
    outer loop
      vertex -3.68061 2.125 0
      vertex -3.99369 1.45358 12.4
      vertex -3.99369 1.45358 0
    endloop
  endfacet
  facet normal -0.996194 0.0871597 0
    outer loop
      vertex 4.18543 -0.738005 0
      vertex 4.25 0 12.4
      vertex 4.25 0 0
    endloop
  endfacet
  facet normal -0.996194 0.0871597 0
    outer loop
      vertex 4.25 0 12.4
      vertex 4.18543 -0.738005 0
      vertex 4.18543 -0.738005 12.4
    endloop
  endfacet
  facet normal 0.422609 0.906312 -0
    outer loop
      vertex -1.45358 -3.99369 0
      vertex -2.125 -3.68061 12.4
      vertex -1.45358 -3.99369 12.4
    endloop
  endfacet
  facet normal 0.422609 0.906312 0
    outer loop
      vertex -2.125 -3.68061 12.4
      vertex -1.45358 -3.99369 0
      vertex -2.125 -3.68061 0
    endloop
  endfacet
  facet normal 0.258822 -0.965925 0
    outer loop
      vertex -1.45358 3.99369 0
      vertex -0.738005 4.18543 12.4
      vertex -1.45358 3.99369 12.4
    endloop
  endfacet
  facet normal 0.258822 -0.965925 0
    outer loop
      vertex -0.738005 4.18543 12.4
      vertex -1.45358 3.99369 0
      vertex -0.738005 4.18543 0
    endloop
  endfacet
  facet normal 0.819153 -0.573576 0
    outer loop
      vertex -3.68061 2.125 12.4
      vertex -3.25569 2.73185 0
      vertex -3.25569 2.73185 12.4
    endloop
  endfacet
  facet normal 0.819153 -0.573576 0
    outer loop
      vertex -3.25569 2.73185 0
      vertex -3.68061 2.125 12.4
      vertex -3.68061 2.125 0
    endloop
  endfacet
  facet normal 0.906312 0.422609 0
    outer loop
      vertex -3.68061 -2.125 12.4
      vertex -3.99369 -1.45358 0
      vertex -3.99369 -1.45358 12.4
    endloop
  endfacet
  facet normal 0.906312 0.422609 0
    outer loop
      vertex -3.99369 -1.45358 0
      vertex -3.68061 -2.125 12.4
      vertex -3.68061 -2.125 0
    endloop
  endfacet
  facet normal -0.965925 -0.258822 0
    outer loop
      vertex 4.18543 0.738005 0
      vertex 3.99369 1.45358 12.4
      vertex 3.99369 1.45358 0
    endloop
  endfacet
  facet normal -0.965925 -0.258822 0
    outer loop
      vertex 3.99369 1.45358 12.4
      vertex 4.18543 0.738005 0
      vertex 4.18543 0.738005 12.4
    endloop
  endfacet
  facet normal -0.906312 -0.422609 0
    outer loop
      vertex 3.99369 1.45358 0
      vertex 3.68061 2.125 12.4
      vertex 3.68061 2.125 0
    endloop
  endfacet
  facet normal -0.906312 -0.422609 0
    outer loop
      vertex 3.68061 2.125 12.4
      vertex 3.99369 1.45358 0
      vertex 3.99369 1.45358 12.4
    endloop
  endfacet
  facet normal -0.819153 -0.573576 0
    outer loop
      vertex 3.68061 2.125 0
      vertex 3.25569 2.73185 12.4
      vertex 3.25569 2.73185 0
    endloop
  endfacet
  facet normal -0.819153 -0.573576 0
    outer loop
      vertex 3.25569 2.73185 12.4
      vertex 3.68061 2.125 0
      vertex 3.68061 2.125 12.4
    endloop
  endfacet
  facet normal -0.707107 -0.707107 0
    outer loop
      vertex 3.25569 2.73185 0
      vertex 2.73185 3.25569 12.4
      vertex 2.73185 3.25569 0
    endloop
  endfacet
  facet normal -0.707107 -0.707107 0
    outer loop
      vertex 2.73185 3.25569 12.4
      vertex 3.25569 2.73185 0
      vertex 3.25569 2.73185 12.4
    endloop
  endfacet
  facet normal -0.422609 -0.906312 0
    outer loop
      vertex 1.45358 3.99369 0
      vertex 2.125 3.68061 12.4
      vertex 1.45358 3.99369 12.4
    endloop
  endfacet
  facet normal -0.422609 -0.906312 -0
    outer loop
      vertex 2.125 3.68061 12.4
      vertex 1.45358 3.99369 0
      vertex 2.125 3.68061 0
    endloop
  endfacet
  facet normal -0.0871597 -0.996194 0
    outer loop
      vertex 0 4.25 0
      vertex 0.738005 4.18543 12.4
      vertex 0 4.25 12.4
    endloop
  endfacet
  facet normal -0.0871597 -0.996194 -0
    outer loop
      vertex 0.738005 4.18543 12.4
      vertex 0 4.25 0
      vertex 0.738005 4.18543 0
    endloop
  endfacet
  facet normal 0.707107 -0.707107 0
    outer loop
      vertex -3.25569 2.73185 12.4
      vertex -2.73185 3.25569 0
      vertex -2.73185 3.25569 12.4
    endloop
  endfacet
  facet normal 0.707107 -0.707107 0
    outer loop
      vertex -2.73185 3.25569 0
      vertex -3.25569 2.73185 12.4
      vertex -3.25569 2.73185 0
    endloop
  endfacet
  facet normal 0.422609 -0.906312 0
    outer loop
      vertex -2.125 3.68061 0
      vertex -1.45358 3.99369 12.4
      vertex -2.125 3.68061 12.4
    endloop
  endfacet
  facet normal 0.422609 -0.906312 0
    outer loop
      vertex -1.45358 3.99369 12.4
      vertex -2.125 3.68061 0
      vertex -1.45358 3.99369 0
    endloop
  endfacet
  facet normal 0.0871597 -0.996194 0
    outer loop
      vertex -0.738005 4.18543 0
      vertex 0 4.25 12.4
      vertex -0.738005 4.18543 12.4
    endloop
  endfacet
  facet normal 0.0871597 -0.996194 0
    outer loop
      vertex 0 4.25 12.4
      vertex -0.738005 4.18543 0
      vertex 0 4.25 0
    endloop
  endfacet
  facet normal 0.573576 -0.819153 0
    outer loop
      vertex -2.73185 3.25569 0
      vertex -2.125 3.68061 12.4
      vertex -2.73185 3.25569 12.4
    endloop
  endfacet
  facet normal 0.573576 -0.819153 0
    outer loop
      vertex -2.125 3.68061 12.4
      vertex -2.73185 3.25569 0
      vertex -2.125 3.68061 0
    endloop
  endfacet
  facet normal -0.996194 -0.0871597 0
    outer loop
      vertex 4.25 0 0
      vertex 4.18543 0.738005 12.4
      vertex 4.18543 0.738005 0
    endloop
  endfacet
  facet normal -0.996194 -0.0871597 0
    outer loop
      vertex 4.18543 0.738005 12.4
      vertex 4.25 0 0
      vertex 4.25 0 12.4
    endloop
  endfacet
  facet normal -0.422609 0.906312 0
    outer loop
      vertex 2.125 -3.68061 0
      vertex 1.45358 -3.99369 12.4
      vertex 2.125 -3.68061 12.4
    endloop
  endfacet
  facet normal -0.422609 0.906312 0
    outer loop
      vertex 1.45358 -3.99369 12.4
      vertex 2.125 -3.68061 0
      vertex 1.45358 -3.99369 0
    endloop
  endfacet
  facet normal -0.573576 0.819153 0
    outer loop
      vertex 2.73185 -3.25569 0
      vertex 2.125 -3.68061 12.4
      vertex 2.73185 -3.25569 12.4
    endloop
  endfacet
  facet normal -0.573576 0.819153 0
    outer loop
      vertex 2.125 -3.68061 12.4
      vertex 2.73185 -3.25569 0
      vertex 2.125 -3.68061 0
    endloop
  endfacet
  facet normal 0.0871597 0.996194 -0
    outer loop
      vertex 0 -4.25 0
      vertex -0.738005 -4.18543 12.4
      vertex 0 -4.25 12.4
    endloop
  endfacet
  facet normal 0.0871597 0.996194 0
    outer loop
      vertex -0.738005 -4.18543 12.4
      vertex 0 -4.25 0
      vertex -0.738005 -4.18543 0
    endloop
  endfacet
  facet normal 0.573576 0.819153 -0
    outer loop
      vertex -2.125 -3.68061 0
      vertex -2.73185 -3.25569 12.4
      vertex -2.125 -3.68061 12.4
    endloop
  endfacet
  facet normal 0.573576 0.819153 0
    outer loop
      vertex -2.73185 -3.25569 12.4
      vertex -2.125 -3.68061 0
      vertex -2.73185 -3.25569 0
    endloop
  endfacet
  facet normal 0.707107 0.707107 0
    outer loop
      vertex -2.73185 -3.25569 12.4
      vertex -3.25569 -2.73185 0
      vertex -3.25569 -2.73185 12.4
    endloop
  endfacet
  facet normal 0.707107 0.707107 0
    outer loop
      vertex -3.25569 -2.73185 0
      vertex -2.73185 -3.25569 12.4
      vertex -2.73185 -3.25569 0
    endloop
  endfacet
  facet normal 0.996194 0.0871597 0
    outer loop
      vertex -4.18543 -0.738005 12.4
      vertex -4.25 0 0
      vertex -4.25 0 12.4
    endloop
  endfacet
  facet normal 0.996194 0.0871597 0
    outer loop
      vertex -4.25 0 0
      vertex -4.18543 -0.738005 12.4
      vertex -4.18543 -0.738005 0
    endloop
  endfacet
  facet normal -0.258822 -0.965925 0
    outer loop
      vertex 0.738005 4.18543 0
      vertex 1.45358 3.99369 12.4
      vertex 0.738005 4.18543 12.4
    endloop
  endfacet
  facet normal -0.258822 -0.965925 -0
    outer loop
      vertex 1.45358 3.99369 12.4
      vertex 0.738005 4.18543 0
      vertex 1.45358 3.99369 0
    endloop
  endfacet
  facet normal 0.996194 -0.0871597 0
    outer loop
      vertex -4.25 0 12.4
      vertex -4.18543 0.738005 0
      vertex -4.18543 0.738005 12.4
    endloop
  endfacet
  facet normal 0.996194 -0.0871597 0
    outer loop
      vertex -4.18543 0.738005 0
      vertex -4.25 0 12.4
      vertex -4.25 0 0
    endloop
  endfacet
  facet normal 0.965925 -0.258822 0
    outer loop
      vertex -4.18543 0.738005 12.4
      vertex -3.99369 1.45358 0
      vertex -3.99369 1.45358 12.4
    endloop
  endfacet
  facet normal 0.965925 -0.258822 0
    outer loop
      vertex -3.99369 1.45358 0
      vertex -4.18543 0.738005 12.4
      vertex -4.18543 0.738005 0
    endloop
  endfacet
  facet normal -0.0871597 0.996194 0
    outer loop
      vertex 0.738005 -4.18543 0
      vertex 0 -4.25 12.4
      vertex 0.738005 -4.18543 12.4
    endloop
  endfacet
  facet normal -0.0871597 0.996194 0
    outer loop
      vertex 0 -4.25 12.4
      vertex 0.738005 -4.18543 0
      vertex 0 -4.25 0
    endloop
  endfacet
  facet normal -0.819153 0.573576 0
    outer loop
      vertex 3.25569 -2.73185 0
      vertex 3.68061 -2.125 12.4
      vertex 3.68061 -2.125 0
    endloop
  endfacet
  facet normal -0.819153 0.573576 0
    outer loop
      vertex 3.68061 -2.125 12.4
      vertex 3.25569 -2.73185 0
      vertex 3.25569 -2.73185 12.4
    endloop
  endfacet
  facet normal -0.258822 0.965925 0
    outer loop
      vertex 1.45358 -3.99369 0
      vertex 0.738005 -4.18543 12.4
      vertex 1.45358 -3.99369 12.4
    endloop
  endfacet
  facet normal -0.258822 0.965925 0
    outer loop
      vertex 0.738005 -4.18543 12.4
      vertex 1.45358 -3.99369 0
      vertex 0.738005 -4.18543 0
    endloop
  endfacet
  facet normal -0.707107 0.707107 0
    outer loop
      vertex 2.73185 -3.25569 0
      vertex 3.25569 -2.73185 12.4
      vertex 3.25569 -2.73185 0
    endloop
  endfacet
  facet normal -0.707107 0.707107 0
    outer loop
      vertex 3.25569 -2.73185 12.4
      vertex 2.73185 -3.25569 0
      vertex 2.73185 -3.25569 12.4
    endloop
  endfacet
  facet normal 0.258822 0.965925 -0
    outer loop
      vertex -0.738005 -4.18543 0
      vertex -1.45358 -3.99369 12.4
      vertex -0.738005 -4.18543 12.4
    endloop
  endfacet
  facet normal 0.258822 0.965925 0
    outer loop
      vertex -1.45358 -3.99369 12.4
      vertex -0.738005 -4.18543 0
      vertex -1.45358 -3.99369 0
    endloop
  endfacet
  facet normal 0.965925 0.258822 0
    outer loop
      vertex -3.99369 -1.45358 12.4
      vertex -4.18543 -0.738005 0
      vertex -4.18543 -0.738005 12.4
    endloop
  endfacet
  facet normal 0.965925 0.258822 0
    outer loop
      vertex -4.18543 -0.738005 0
      vertex -3.99369 -1.45358 12.4
      vertex -3.99369 -1.45358 0
    endloop
  endfacet
  facet normal 0.819153 0.573576 0
    outer loop
      vertex -3.25569 -2.73185 12.4
      vertex -3.68061 -2.125 0
      vertex -3.68061 -2.125 12.4
    endloop
  endfacet
  facet normal 0.819153 0.573576 0
    outer loop
      vertex -3.68061 -2.125 0
      vertex -3.25569 -2.73185 12.4
      vertex -3.25569 -2.73185 0
    endloop
  endfacet
  facet normal -0.906312 0.422609 0
    outer loop
      vertex 3.68061 -2.125 0
      vertex 3.99369 -1.45358 12.4
      vertex 3.99369 -1.45358 0
    endloop
  endfacet
  facet normal -0.906312 0.422609 0
    outer loop
      vertex 3.99369 -1.45358 12.4
      vertex 3.68061 -2.125 0
      vertex 3.68061 -2.125 12.4
    endloop
  endfacet
  facet normal -0.965925 0.258822 0
    outer loop
      vertex 3.99369 -1.45358 0
      vertex 4.18543 -0.738005 12.4
      vertex 4.18543 -0.738005 0
    endloop
  endfacet
  facet normal -0.965925 0.258822 0
    outer loop
      vertex 4.18543 -0.738005 12.4
      vertex 3.99369 -1.45358 0
      vertex 3.99369 -1.45358 12.4
    endloop
  endfacet
endsolid OpenSCAD_Model
