solid OpenSCAD_Model
  facet normal -0.705162 0.0741162 -0.705162
    outer loop
      vertex -5.97778 0 0
      vertex -7.40595 0.714409 1.50326
      vertex -5.84715 1.24285 0
    endloop
  endfacet
  facet normal -0.705162 0.0741181 -0.705162
    outer loop
      vertex -7.40595 0.714409 1.50326
      vertex -5.97778 0 0
      vertex -7.5 0 1.52222
    endloop
  endfacet
  facet normal -0.705162 0.0741103 -0.705163
    outer loop
      vertex -5.84715 1.24285 0
      vertex -7.40595 0.714409 1.50326
      vertex -7.29584 1.55078 1.48105
    endloop
  endfacet
  facet normal -0.674342 0.219109 -0.705163
    outer loop
      vertex -5.84715 1.24285 0
      vertex -7.12256 2.2354 1.52807
      vertex -5.46097 2.43138 0
    endloop
  endfacet
  facet normal -0.674352 0.21909 -0.705159
    outer loop
      vertex -5.84715 1.24285 0
      vertex -7.24444 1.94114 1.5532
      vertex -7.12256 2.2354 1.52807
    endloop
  endfacet
  facet normal -0.674337 0.219127 -0.705162
    outer loop
      vertex -7.24444 1.94114 1.5532
      vertex -5.84715 1.24285 0
      vertex -7.29584 1.55078 1.48105
    endloop
  endfacet
  facet normal -0.674341 0.219116 -0.705161
    outer loop
      vertex -5.46097 2.43138 0
      vertex -7.12256 2.2354 1.52807
      vertex -6.7953 3.02546 1.46061
    endloop
  endfacet
  facet normal -0.614052 0.354524 -0.705162
    outer loop
      vertex -5.46097 2.43138 0
      vertex -6.5284 3.66983 1.55215
      vertex -4.83612 3.51365 0
    endloop
  endfacet
  facet normal -0.614055 0.35452 -0.705161
    outer loop
      vertex -6.5284 3.66983 1.55215
      vertex -5.46097 2.43138 0
      vertex -6.7953 3.02546 1.46061
    endloop
  endfacet
  facet normal -0.614048 0.354529 -0.705162
    outer loop
      vertex -4.83612 3.51365 0
      vertex -6.49519 3.75 1.56353
      vertex -6.01778 4.37217 1.46061
    endloop
  endfacet
  facet normal -0.614068 0.354473 -0.705174
    outer loop
      vertex -6.49519 3.75 1.56353
      vertex -4.83612 3.51365 0
      vertex -6.5284 3.66983 1.55215
    endloop
  endfacet
  facet normal -0.526922 0.474445 -0.705163
    outer loop
      vertex -4.83612 3.51365 0
      vertex -5.58559 4.93542 1.51662
      vertex -3.99991 4.44235 0
    endloop
  endfacet
  facet normal -0.526928 0.474441 -0.705162
    outer loop
      vertex -5.58559 4.93542 1.51662
      vertex -4.83612 3.51365 0
      vertex -6.01778 4.37217 1.46061
    endloop
  endfacet
  facet normal -0.526926 0.47444 -0.705163
    outer loop
      vertex -3.99991 4.44235 0
      vertex -5.3033 5.3033 1.5532
      vertex -4.99093 5.54299 1.48105
    endloop
  endfacet
  facet normal -0.526921 0.474447 -0.705163
    outer loop
      vertex -5.3033 5.3033 1.5532
      vertex -3.99991 4.44235 0
      vertex -5.58559 4.93542 1.51662
    endloop
  endfacet
  facet normal -0.41677 0.573627 -0.705163
    outer loop
      vertex -3.99991 4.44235 0
      vertex -4.42147 5.97995 1.49994
      vertex -2.98889 5.17691 0
    endloop
  endfacet
  facet normal -0.416767 0.573628 -0.705164
    outer loop
      vertex -4.42147 5.97995 1.49994
      vertex -3.99991 4.44235 0
      vertex -4.99093 5.54299 1.48105
    endloop
  endfacet
  facet normal -0.416767 0.573631 -0.705162
    outer loop
      vertex -2.98889 5.17691 0
      vertex -4.42147 5.97995 1.49994
      vertex -3.75 6.49519 1.52222
    endloop
  endfacet
  facet normal -0.28839 0.647747 -0.705164
    outer loop
      vertex -2.98889 5.17691 0
      vertex -3.08428 6.77094 1.50325
      vertex -1.84723 5.6852 0
    endloop
  endfacet
  facet normal -0.288398 0.647745 -0.705162
    outer loop
      vertex -2.98889 5.17691 0
      vertex -3.75 6.49519 1.52222
      vertex -3.08428 6.77094 1.50325
    endloop
  endfacet
  facet normal -0.288391 0.647746 -0.705164
    outer loop
      vertex -1.84723 5.6852 0
      vertex -3.08428 6.77094 1.50325
      vertex -2.3049 7.09377 1.48105
    endloop
  endfacet
  facet normal -0.147421 0.693549 -0.705164
    outer loop
      vertex -1.84723 5.6852 0
      vertex -1.62537 7.28602 1.52807
      vertex -0.624847 5.94503 0
    endloop
  endfacet
  facet normal -0.147444 0.693548 -0.70516
    outer loop
      vertex -1.84723 5.6852 0
      vertex -1.94114 7.24444 1.5532
      vertex -1.62537 7.28602 1.52807
    endloop
  endfacet
  facet normal -0.147405 0.693554 -0.705163
    outer loop
      vertex -1.94114 7.24444 1.5532
      vertex -1.84723 5.6852 0
      vertex -2.3049 7.09377 1.48105
    endloop
  endfacet
  facet normal -0.147414 0.693552 -0.705163
    outer loop
      vertex -0.624847 5.94503 0
      vertex -1.62537 7.28602 1.52807
      vertex -0.777523 7.39764 1.46061
    endloop
  endfacet
  facet normal -5.60877e-06 0.709046 -0.705162
    outer loop
      vertex 0.624847 5.94503 0
      vertex 0 7.5 1.56354
      vertex 0.777523 7.39764 1.46061
    endloop
  endfacet
  facet normal 0 0.709047 -0.705161
    outer loop
      vertex -0.624847 5.94503 0
      vertex 0 7.5 1.56354
      vertex 0.624847 5.94503 0
    endloop
  endfacet
  facet normal 5.60877e-06 0.709046 -0.705162
    outer loop
      vertex 0 7.5 1.56354
      vertex -0.624847 5.94503 0
      vertex -0.777523 7.39764 1.46061
    endloop
  endfacet
  facet normal 0.147421 0.693551 -0.705162
    outer loop
      vertex 0.624847 5.94503 0
      vertex 1.4814 7.30497 1.51662
      vertex 1.84723 5.6852 0
    endloop
  endfacet
  facet normal 0.147423 0.693551 -0.705162
    outer loop
      vertex 1.4814 7.30497 1.51662
      vertex 0.624847 5.94503 0
      vertex 0.777523 7.39764 1.46061
    endloop
  endfacet
  facet normal 0.147405 0.693554 -0.705163
    outer loop
      vertex 1.84723 5.6852 0
      vertex 1.94114 7.24444 1.5532
      vertex 2.3049 7.09377 1.48105
    endloop
  endfacet
  facet normal 0.147421 0.693551 -0.705162
    outer loop
      vertex 1.94114 7.24444 1.5532
      vertex 1.84723 5.6852 0
      vertex 1.4814 7.30497 1.51662
    endloop
  endfacet
  facet normal 0.28839 0.647748 -0.705163
    outer loop
      vertex 1.84723 5.6852 0
      vertex 2.96805 6.81908 1.49994
      vertex 2.98889 5.17691 0
    endloop
  endfacet
  facet normal 0.288395 0.647744 -0.705164
    outer loop
      vertex 2.96805 6.81908 1.49994
      vertex 1.84723 5.6852 0
      vertex 2.3049 7.09377 1.48105
    endloop
  endfacet
  facet normal 0.288394 0.647747 -0.705162
    outer loop
      vertex 2.98889 5.17691 0
      vertex 2.96805 6.81908 1.49994
      vertex 3.75 6.49519 1.52222
    endloop
  endfacet
  facet normal 0.416772 0.573628 -0.705161
    outer loop
      vertex 2.98889 5.17691 0
      vertex 4.32167 6.05653 1.50326
      vertex 3.99991 4.44235 0
    endloop
  endfacet
  facet normal 0.416774 0.573626 -0.705161
    outer loop
      vertex 3.75 6.49519 1.52222
      vertex 4.32167 6.05653 1.50326
      vertex 2.98889 5.17691 0
    endloop
  endfacet
  facet normal 0.416761 0.573633 -0.705163
    outer loop
      vertex 4.99093 5.54299 1.48105
      vertex 3.99991 4.44235 0
      vertex 4.32167 6.05653 1.50326
    endloop
  endfacet
  facet normal 0.526917 0.474452 -0.705162
    outer loop
      vertex 3.99991 4.44235 0
      vertex 5.3033 5.3033 1.5532
      vertex 5.49719 5.05062 1.52807
    endloop
  endfacet
  facet normal 0.526921 0.474445 -0.705164
    outer loop
      vertex 3.99991 4.44235 0
      vertex 5.49719 5.05062 1.52807
      vertex 4.83612 3.51365 0
    endloop
  endfacet
  facet normal 0.526926 0.47444 -0.705163
    outer loop
      vertex 5.3033 5.3033 1.5532
      vertex 3.99991 4.44235 0
      vertex 4.99093 5.54299 1.48105
    endloop
  endfacet
  facet normal 0.526928 0.47444 -0.705162
    outer loop
      vertex 6.01778 4.37217 1.46061
      vertex 4.83612 3.51365 0
      vertex 5.49719 5.05062 1.52807
    endloop
  endfacet
  facet normal 0.614052 0.354524 -0.705162
    outer loop
      vertex 4.83612 3.51365 0
      vertex 6.44237 3.81884 1.55215
      vertex 5.46097 2.43138 0
    endloop
  endfacet
  facet normal 0.614051 0.354525 -0.705162
    outer loop
      vertex 6.44237 3.81884 1.55215
      vertex 4.83612 3.51365 0
      vertex 6.01778 4.37217 1.46061
    endloop
  endfacet
  facet normal 0.614058 0.354515 -0.705161
    outer loop
      vertex 5.46097 2.43138 0
      vertex 6.49519 3.75 1.56353
      vertex 6.7953 3.02546 1.46061
    endloop
  endfacet
  facet normal 0.614021 0.354557 -0.705172
    outer loop
      vertex 6.49519 3.75 1.56353
      vertex 5.46097 2.43138 0
      vertex 6.44237 3.81884 1.55215
    endloop
  endfacet
  facet normal 0.674343 0.219109 -0.705161
    outer loop
      vertex 5.46097 2.43138 0
      vertex 7.06699 2.36955 1.51662
      vertex 5.84715 1.24285 0
    endloop
  endfacet
  facet normal 0.674343 0.21911 -0.705161
    outer loop
      vertex 7.06699 2.36955 1.51662
      vertex 5.46097 2.43138 0
      vertex 6.7953 3.02546 1.46061
    endloop
  endfacet
  facet normal 0.674337 0.219127 -0.705162
    outer loop
      vertex 5.84715 1.24285 0
      vertex 7.24444 1.94114 1.5532
      vertex 7.29584 1.55078 1.48105
    endloop
  endfacet
  facet normal 0.674345 0.219107 -0.705161
    outer loop
      vertex 7.24444 1.94114 1.5532
      vertex 5.84715 1.24285 0
      vertex 7.06699 2.36955 1.51662
    endloop
  endfacet
  facet normal 0.70516 0.0741181 -0.705163
    outer loop
      vertex 7.38953 0.839133 1.49994
      vertex 5.84715 1.24285 0
      vertex 7.29584 1.55078 1.48105
    endloop
  endfacet
  facet normal 0.70516 0.074116 -0.705164
    outer loop
      vertex 5.84715 1.24285 0
      vertex 7.38953 0.839133 1.49994
      vertex 5.97778 0 0
    endloop
  endfacet
  facet normal 0.705162 0.0741101 -0.705162
    outer loop
      vertex 7.5 0 1.52222
      vertex 5.97778 0 0
      vertex 7.38953 0.839133 1.49994
    endloop
  endfacet
  facet normal 0.705162 -0.0741181 -0.705162
    outer loop
      vertex 7.40595 -0.714409 1.50326
      vertex 5.97778 0 0
      vertex 7.5 0 1.52222
    endloop
  endfacet
  facet normal 0.705162 -0.0741162 -0.705162
    outer loop
      vertex 5.97778 0 0
      vertex 7.40595 -0.714409 1.50326
      vertex 5.84715 -1.24285 0
    endloop
  endfacet
  facet normal 0.705162 -0.0741103 -0.705163
    outer loop
      vertex 7.29584 -1.55078 1.48105
      vertex 5.84715 -1.24285 0
      vertex 7.40595 -0.714409 1.50326
    endloop
  endfacet
  facet normal 0.674352 -0.21909 -0.705159
    outer loop
      vertex 5.84715 -1.24285 0
      vertex 7.24444 -1.94114 1.5532
      vertex 7.12256 -2.2354 1.52807
    endloop
  endfacet
  facet normal 0.674337 -0.219127 -0.705162
    outer loop
      vertex 7.24444 -1.94114 1.5532
      vertex 5.84715 -1.24285 0
      vertex 7.29584 -1.55078 1.48105
    endloop
  endfacet
  facet normal 0.674342 -0.219109 -0.705163
    outer loop
      vertex 5.84715 -1.24285 0
      vertex 7.12256 -2.2354 1.52807
      vertex 5.46097 -2.43138 0
    endloop
  endfacet
  facet normal 0.674341 -0.219116 -0.705161
    outer loop
      vertex 6.7953 -3.02546 1.46061
      vertex 5.46097 -2.43138 0
      vertex 7.12256 -2.2354 1.52807
    endloop
  endfacet
  facet normal 0.614055 -0.35452 -0.705161
    outer loop
      vertex 6.5284 -3.66983 1.55215
      vertex 5.46097 -2.43138 0
      vertex 6.7953 -3.02546 1.46061
    endloop
  endfacet
  facet normal 0.614052 -0.354524 -0.705162
    outer loop
      vertex 5.46097 -2.43138 0
      vertex 6.5284 -3.66983 1.55215
      vertex 4.83612 -3.51365 0
    endloop
  endfacet
  facet normal 0.614048 -0.354529 -0.705162
    outer loop
      vertex 4.83612 -3.51365 0
      vertex 6.49519 -3.75 1.56353
      vertex 6.01778 -4.37217 1.46061
    endloop
  endfacet
  facet normal 0.614068 -0.354473 -0.705174
    outer loop
      vertex 6.49519 -3.75 1.56353
      vertex 4.83612 -3.51365 0
      vertex 6.5284 -3.66983 1.55215
    endloop
  endfacet
  facet normal 0.526928 -0.474441 -0.705162
    outer loop
      vertex 5.58559 -4.93542 1.51662
      vertex 4.83612 -3.51365 0
      vertex 6.01778 -4.37217 1.46061
    endloop
  endfacet
  facet normal 0.526922 -0.474445 -0.705163
    outer loop
      vertex 4.83612 -3.51365 0
      vertex 5.58559 -4.93542 1.51662
      vertex 3.99991 -4.44235 0
    endloop
  endfacet
  facet normal 0.526926 -0.47444 -0.705163
    outer loop
      vertex 3.99991 -4.44235 0
      vertex 5.3033 -5.3033 1.5532
      vertex 4.99093 -5.54299 1.48105
    endloop
  endfacet
  facet normal 0.526921 -0.474447 -0.705163
    outer loop
      vertex 5.3033 -5.3033 1.5532
      vertex 3.99991 -4.44235 0
      vertex 5.58559 -4.93542 1.51662
    endloop
  endfacet
  facet normal 0.416759 -0.573635 -0.705163
    outer loop
      vertex 4.42147 -5.97995 1.49995
      vertex 3.99991 -4.44235 0
      vertex 4.99093 -5.54299 1.48105
    endloop
  endfacet
  facet normal 0.416772 -0.573629 -0.705161
    outer loop
      vertex 3.99991 -4.44235 0
      vertex 4.42147 -5.97995 1.49995
      vertex 2.98889 -5.17691 0
    endloop
  endfacet
  facet normal 0.416774 -0.573626 -0.705161
    outer loop
      vertex 4.42147 -5.97995 1.49995
      vertex 3.75 -6.49519 1.52222
      vertex 2.98889 -5.17691 0
    endloop
  endfacet
  facet normal 0.28839 -0.647749 -0.705161
    outer loop
      vertex 3.08428 -6.77094 1.50326
      vertex 2.98889 -5.17691 0
      vertex 3.75 -6.49519 1.52222
    endloop
  endfacet
  facet normal 0.288391 -0.647749 -0.705161
    outer loop
      vertex 2.98889 -5.17691 0
      vertex 3.08428 -6.77094 1.50326
      vertex 1.84723 -5.6852 0
    endloop
  endfacet
  facet normal 0.288399 -0.647743 -0.705163
    outer loop
      vertex 2.3049 -7.09377 1.48105
      vertex 1.84723 -5.6852 0
      vertex 3.08428 -6.77094 1.50326
    endloop
  endfacet
  facet normal 0.147405 -0.693554 -0.705163
    outer loop
      vertex 1.94114 -7.24444 1.5532
      vertex 1.84723 -5.6852 0
      vertex 2.3049 -7.09377 1.48105
    endloop
  endfacet
  facet normal 0.147444 -0.693548 -0.70516
    outer loop
      vertex 1.62537 -7.28602 1.52807
      vertex 1.84723 -5.6852 0
      vertex 1.94114 -7.24444 1.5532
    endloop
  endfacet
  facet normal 0.147421 -0.693549 -0.705164
    outer loop
      vertex 1.84723 -5.6852 0
      vertex 1.62537 -7.28602 1.52807
      vertex 0.624847 -5.94503 0
    endloop
  endfacet
  facet normal 0.147414 -0.693552 -0.705163
    outer loop
      vertex 0.777523 -7.39764 1.46061
      vertex 0.624847 -5.94503 0
      vertex 1.62537 -7.28602 1.52807
    endloop
  endfacet
  facet normal 5.60877e-06 -0.709046 -0.705162
    outer loop
      vertex -0.624847 -5.94503 0
      vertex 0 -7.5 1.56354
      vertex -0.777523 -7.39764 1.46061
    endloop
  endfacet
  facet normal -0 -0.709047 -0.705161
    outer loop
      vertex 0.624847 -5.94503 0
      vertex 0 -7.5 1.56354
      vertex -0.624847 -5.94503 0
    endloop
  endfacet
  facet normal -5.60877e-06 -0.709046 -0.705162
    outer loop
      vertex 0 -7.5 1.56354
      vertex 0.624847 -5.94503 0
      vertex 0.777523 -7.39764 1.46061
    endloop
  endfacet
  facet normal -0.147423 -0.693551 -0.705162
    outer loop
      vertex -1.4814 -7.30497 1.51662
      vertex -0.624847 -5.94503 0
      vertex -0.777523 -7.39764 1.46061
    endloop
  endfacet
  facet normal -0.147421 -0.693551 -0.705162
    outer loop
      vertex -0.624847 -5.94503 0
      vertex -1.4814 -7.30497 1.51662
      vertex -1.84723 -5.6852 0
    endloop
  endfacet
  facet normal -0.147421 -0.693551 -0.705162
    outer loop
      vertex -1.94114 -7.24444 1.5532
      vertex -1.84723 -5.6852 0
      vertex -1.4814 -7.30497 1.51662
    endloop
  endfacet
  facet normal -0.147405 -0.693554 -0.705163
    outer loop
      vertex -1.84723 -5.6852 0
      vertex -1.94114 -7.24444 1.5532
      vertex -2.3049 -7.09377 1.48105
    endloop
  endfacet
  facet normal -0.288395 -0.647744 -0.705164
    outer loop
      vertex -2.96805 -6.81908 1.49994
      vertex -1.84723 -5.6852 0
      vertex -2.3049 -7.09377 1.48105
    endloop
  endfacet
  facet normal -0.28839 -0.647748 -0.705163
    outer loop
      vertex -1.84723 -5.6852 0
      vertex -2.96805 -6.81908 1.49994
      vertex -2.98889 -5.17691 0
    endloop
  endfacet
  facet normal -0.288394 -0.647747 -0.705162
    outer loop
      vertex -2.96805 -6.81908 1.49994
      vertex -3.75 -6.49519 1.52222
      vertex -2.98889 -5.17691 0
    endloop
  endfacet
  facet normal -0.416774 -0.573626 -0.705161
    outer loop
      vertex -3.75 -6.49519 1.52222
      vertex -4.32167 -6.05653 1.50326
      vertex -2.98889 -5.17691 0
    endloop
  endfacet
  facet normal -0.416772 -0.573628 -0.705161
    outer loop
      vertex -2.98889 -5.17691 0
      vertex -4.32167 -6.05653 1.50326
      vertex -3.99991 -4.44235 0
    endloop
  endfacet
  facet normal -0.416761 -0.573633 -0.705163
    outer loop
      vertex -4.32167 -6.05653 1.50326
      vertex -4.99093 -5.54299 1.48105
      vertex -3.99991 -4.44235 0
    endloop
  endfacet
  facet normal -0.526926 -0.47444 -0.705163
    outer loop
      vertex -5.3033 -5.3033 1.5532
      vertex -3.99991 -4.44235 0
      vertex -4.99093 -5.54299 1.48105
    endloop
  endfacet
  facet normal -0.526917 -0.474452 -0.705162
    outer loop
      vertex -5.49719 -5.05062 1.52807
      vertex -3.99991 -4.44235 0
      vertex -5.3033 -5.3033 1.5532
    endloop
  endfacet
  facet normal -0.526921 -0.474445 -0.705164
    outer loop
      vertex -3.99991 -4.44235 0
      vertex -5.49719 -5.05062 1.52807
      vertex -4.83612 -3.51365 0
    endloop
  endfacet
  facet normal -0.526928 -0.47444 -0.705162
    outer loop
      vertex -5.49719 -5.05062 1.52807
      vertex -6.01778 -4.37217 1.46061
      vertex -4.83612 -3.51365 0
    endloop
  endfacet
  facet normal -0.614051 -0.354525 -0.705162
    outer loop
      vertex -6.44237 -3.81884 1.55215
      vertex -4.83612 -3.51365 0
      vertex -6.01778 -4.37217 1.46061
    endloop
  endfacet
  facet normal -0.614052 -0.354524 -0.705162
    outer loop
      vertex -4.83612 -3.51365 0
      vertex -6.44237 -3.81884 1.55215
      vertex -5.46097 -2.43138 0
    endloop
  endfacet
  facet normal -0.614021 -0.354557 -0.705172
    outer loop
      vertex -6.49519 -3.75 1.56353
      vertex -5.46097 -2.43138 0
      vertex -6.44237 -3.81884 1.55215
    endloop
  endfacet
  facet normal -0.614058 -0.354515 -0.705161
    outer loop
      vertex -5.46097 -2.43138 0
      vertex -6.49519 -3.75 1.56353
      vertex -6.7953 -3.02546 1.46061
    endloop
  endfacet
  facet normal -0.674343 -0.21911 -0.705161
    outer loop
      vertex -7.06699 -2.36955 1.51662
      vertex -5.46097 -2.43138 0
      vertex -6.7953 -3.02546 1.46061
    endloop
  endfacet
  facet normal -0.674343 -0.219109 -0.705161
    outer loop
      vertex -5.46097 -2.43138 0
      vertex -7.06699 -2.36955 1.51662
      vertex -5.84715 -1.24285 0
    endloop
  endfacet
  facet normal -0.674345 -0.219107 -0.705161
    outer loop
      vertex -7.24444 -1.94114 1.5532
      vertex -5.84715 -1.24285 0
      vertex -7.06699 -2.36955 1.51662
    endloop
  endfacet
  facet normal -0.674337 -0.219127 -0.705162
    outer loop
      vertex -5.84715 -1.24285 0
      vertex -7.24444 -1.94114 1.5532
      vertex -7.29584 -1.55078 1.48105
    endloop
  endfacet
  facet normal -0.70516 -0.074116 -0.705164
    outer loop
      vertex -5.84715 -1.24285 0
      vertex -7.38953 -0.839133 1.49994
      vertex -5.97778 0 0
    endloop
  endfacet
  facet normal -0.70516 -0.0741181 -0.705163
    outer loop
      vertex -7.38953 -0.839133 1.49994
      vertex -5.84715 -1.24285 0
      vertex -7.29584 -1.55078 1.48105
    endloop
  endfacet
  facet normal -0.705162 -0.0741101 -0.705162
    outer loop
      vertex -7.38953 -0.839133 1.49994
      vertex -7.5 0 1.52222
      vertex -5.97778 0 0
    endloop
  endfacet
  facet normal -0.705157 0.0741314 0.705166
    outer loop
      vertex -7.37246 0.968725 10.9035
      vertex -7.5 0 10.8778
      vertex -5.97778 0 12.4
    endloop
  endfacet
  facet normal -0.705164 0.0741688 0.705154
    outer loop
      vertex -7.37246 0.968725 10.9035
      vertex -5.84715 1.24285 12.4
      vertex -7.29584 1.55078 10.9189
    endloop
  endfacet
  facet normal -0.705162 0.0741162 0.705161
    outer loop
      vertex -5.84715 1.24285 12.4
      vertex -7.37246 0.968725 10.9035
      vertex -5.97778 0 12.4
    endloop
  endfacet
  facet normal -0.674325 0.219155 0.705164
    outer loop
      vertex -7.24444 1.94114 10.8468
      vertex -5.84715 1.24285 12.4
      vertex -7.01768 2.4886 10.8935
    endloop
  endfacet
  facet normal -0.674372 0.21904 0.705155
    outer loop
      vertex -5.84715 1.24285 12.4
      vertex -7.24444 1.94114 10.8468
      vertex -7.29584 1.55078 10.9189
    endloop
  endfacet
  facet normal -0.674364 0.219048 0.70516
    outer loop
      vertex -7.01768 2.4886 10.8935
      vertex -5.46097 2.43138 12.4
      vertex -6.7953 3.02546 10.9394
    endloop
  endfacet
  facet normal -0.674353 0.219112 0.705151
    outer loop
      vertex -5.46097 2.43138 12.4
      vertex -7.01768 2.4886 10.8935
      vertex -5.84715 1.24285 12.4
    endloop
  endfacet
  facet normal -0.614002 0.354568 0.705183
    outer loop
      vertex -6.49519 3.75 10.8365
      vertex -5.46097 2.43138 12.4
      vertex -6.36383 3.92119 10.8648
    endloop
  endfacet
  facet normal -0.614063 0.354498 0.705165
    outer loop
      vertex -5.46097 2.43138 12.4
      vertex -6.49519 3.75 10.8365
      vertex -6.7953 3.02546 10.9394
    endloop
  endfacet
  facet normal -0.614046 0.354529 0.705165
    outer loop
      vertex -6.36383 3.92119 10.8648
      vertex -4.83612 3.51365 12.4
      vertex -6.01778 4.37217 10.9394
    endloop
  endfacet
  facet normal -0.614049 0.354522 0.705166
    outer loop
      vertex -4.83612 3.51365 12.4
      vertex -6.36383 3.92119 10.8648
      vertex -5.46097 2.43138 12.4
    endloop
  endfacet
  facet normal -0.526938 0.474425 0.705165
    outer loop
      vertex -5.41101 5.16293 10.8608
      vertex -6.01778 4.37217 10.9394
      vertex -4.83612 3.51365 12.4
    endloop
  endfacet
  facet normal -0.526869 0.474514 0.705156
    outer loop
      vertex -5.3033 5.3033 10.8468
      vertex -3.99991 4.44235 12.4
      vertex -4.99093 5.54299 10.9189
    endloop
  endfacet
  facet normal -0.526822 0.474575 0.705151
    outer loop
      vertex -5.41101 5.16293 10.8608
      vertex -3.99991 4.44235 12.4
      vertex -5.3033 5.3033 10.8468
    endloop
  endfacet
  facet normal -0.526915 0.474439 0.705172
    outer loop
      vertex -3.99991 4.44235 12.4
      vertex -5.41101 5.16293 10.8608
      vertex -4.83612 3.51365 12.4
    endloop
  endfacet
  facet normal -0.416805 0.573613 0.705154
    outer loop
      vertex -4.21471 6.13861 10.8932
      vertex -4.99093 5.54299 10.9189
      vertex -3.99991 4.44235 12.4
    endloop
  endfacet
  facet normal -0.416778 0.573618 0.705166
    outer loop
      vertex -4.21471 6.13861 10.8932
      vertex -2.98889 5.17691 12.4
      vertex -3.75 6.49519 10.8778
    endloop
  endfacet
  facet normal -0.41677 0.573626 0.705164
    outer loop
      vertex -2.98889 5.17691 12.4
      vertex -4.21471 6.13861 10.8932
      vertex -3.99991 4.44235 12.4
    endloop
  endfacet
  facet normal -0.288379 0.647749 0.705166
    outer loop
      vertex -3.75 6.49519 10.8778
      vertex -2.98889 5.17691 12.4
      vertex -2.84729 6.8691 10.9035
    endloop
  endfacet
  facet normal -0.288345 0.647776 0.705155
    outer loop
      vertex -2.84729 6.8691 10.9035
      vertex -1.84723 5.6852 12.4
      vertex -2.3049 7.09377 10.9189
    endloop
  endfacet
  facet normal -0.28839 0.647748 0.705163
    outer loop
      vertex -1.84723 5.6852 12.4
      vertex -2.84729 6.8691 10.9035
      vertex -2.98889 5.17691 12.4
    endloop
  endfacet
  facet normal -0.147369 0.693559 0.705166
    outer loop
      vertex -1.94114 7.24444 10.8468
      vertex -1.84723 5.6852 12.4
      vertex -1.35365 7.32179 10.8935
    endloop
  endfacet
  facet normal -0.147499 0.693541 0.705156
    outer loop
      vertex -1.84723 5.6852 12.4
      vertex -1.94114 7.24444 10.8468
      vertex -2.3049 7.09377 10.9189
    endloop
  endfacet
  facet normal -0.147488 0.693538 0.705161
    outer loop
      vertex -1.35365 7.32179 10.8935
      vertex -0.624847 5.94503 12.4
      vertex -0.777523 7.39764 10.9394
    endloop
  endfacet
  facet normal -0.147424 0.693562 0.705151
    outer loop
      vertex -0.624847 5.94503 12.4
      vertex -1.35365 7.32179 10.8935
      vertex -1.84723 5.6852 12.4
    endloop
  endfacet
  facet normal 2.05977e-05 0.709042 0.705166
    outer loop
      vertex 0 7.5 10.8365
      vertex 0.624847 5.94503 12.4
      vertex 0.777523 7.39764 10.9394
    endloop
  endfacet
  facet normal 0 0.709038 0.70517
    outer loop
      vertex 0.624847 5.94503 12.4
      vertex 0 7.5 10.8365
      vertex -0.624847 5.94503 12.4
    endloop
  endfacet
  facet normal -2.05977e-05 0.709042 0.705166
    outer loop
      vertex -0.624847 5.94503 12.4
      vertex 0 7.5 10.8365
      vertex -0.777523 7.39764 10.9394
    endloop
  endfacet
  facet normal 0.147396 0.693553 0.705166
    outer loop
      vertex 0.777523 7.39764 10.9394
      vertex 0.624847 5.94503 12.4
      vertex 1.76573 7.26754 10.8608
    endloop
  endfacet
  facet normal 0.147499 0.693541 0.705156
    outer loop
      vertex 1.94114 7.24444 10.8468
      vertex 1.84723 5.6852 12.4
      vertex 2.3049 7.09377 10.9189
    endloop
  endfacet
  facet normal 0.147611 0.693526 0.705148
    outer loop
      vertex 1.76573 7.26754 10.8608
      vertex 1.84723 5.6852 12.4
      vertex 1.94114 7.24444 10.8468
    endloop
  endfacet
  facet normal 0.147419 0.693541 0.705173
    outer loop
      vertex 1.84723 5.6852 12.4
      vertex 1.76573 7.26754 10.8608
      vertex 0.624847 5.94503 12.4
    endloop
  endfacet
  facet normal 0.28836 0.64777 0.705154
    outer loop
      vertex 2.3049 7.09377 10.9189
      vertex 1.84723 5.6852 12.4
      vertex 3.20884 6.71935 10.8932
    endloop
  endfacet
  facet normal 0.288379 0.647749 0.705166
    outer loop
      vertex 3.20884 6.71935 10.8932
      vertex 2.98889 5.17691 12.4
      vertex 3.75 6.49519 10.8778
    endloop
  endfacet
  facet normal 0.28839 0.647746 0.705164
    outer loop
      vertex 2.98889 5.17691 12.4
      vertex 3.20884 6.71935 10.8932
      vertex 1.84723 5.6852 12.4
    endloop
  endfacet
  facet normal 0.416776 0.57362 0.705166
    outer loop
      vertex 4.52517 5.90038 10.9035
      vertex 3.75 6.49519 10.8778
      vertex 2.98889 5.17691 12.4
    endloop
  endfacet
  facet normal 0.416822 0.573599 0.705155
    outer loop
      vertex 4.52517 5.90038 10.9035
      vertex 3.99991 4.44235 12.4
      vertex 4.99093 5.54299 10.9189
    endloop
  endfacet
  facet normal 0.41677 0.573626 0.705163
    outer loop
      vertex 3.99991 4.44235 12.4
      vertex 4.52517 5.90038 10.9035
      vertex 2.98889 5.17691 12.4
    endloop
  endfacet
  facet normal 0.526869 0.474514 0.705156
    outer loop
      vertex 3.99991 4.44235 12.4
      vertex 5.3033 5.3033 10.8468
      vertex 4.99093 5.54299 10.9189
    endloop
  endfacet
  facet normal 0.526957 0.474401 0.705167
    outer loop
      vertex 5.3033 5.3033 10.8468
      vertex 3.99991 4.44235 12.4
      vertex 5.66403 4.83319 10.8935
    endloop
  endfacet
  facet normal 0.526882 0.474494 0.70516
    outer loop
      vertex 5.66403 4.83319 10.8935
      vertex 4.83612 3.51365 12.4
      vertex 6.01778 4.37217 10.9394
    endloop
  endfacet
  facet normal 0.52693 0.474453 0.705151
    outer loop
      vertex 4.83612 3.51365 12.4
      vertex 5.66403 4.83319 10.8935
      vertex 3.99991 4.44235 12.4
    endloop
  endfacet
  facet normal 0.614037 0.354543 0.705165
    outer loop
      vertex 4.83612 3.51365 12.4
      vertex 6.49519 3.75 10.8365
      vertex 6.01778 4.37217 10.9394
    endloop
  endfacet
  facet normal 0.614063 0.354464 0.705182
    outer loop
      vertex 6.49519 3.75 10.8365
      vertex 4.83612 3.51365 12.4
      vertex 6.57777 3.55064 10.8648
    endloop
  endfacet
  facet normal 0.614058 0.354509 0.705164
    outer loop
      vertex 6.57777 3.55064 10.8648
      vertex 5.46097 2.43138 12.4
      vertex 6.7953 3.02546 10.9394
    endloop
  endfacet
  facet normal 0.614048 0.354522 0.705166
    outer loop
      vertex 5.46097 2.43138 12.4
      vertex 6.57777 3.55064 10.8648
      vertex 4.83612 3.51365 12.4
    endloop
  endfacet
  facet normal 0.674334 0.219127 0.705164
    outer loop
      vertex 6.7953 3.02546 10.9394
      vertex 5.46097 2.43138 12.4
      vertex 7.17673 2.1046 10.8608
    endloop
  endfacet
  facet normal 0.674403 0.218964 0.705149
    outer loop
      vertex 5.84715 1.24285 12.4
      vertex 7.24444 1.94114 10.8468
      vertex 7.17673 2.1046 10.8608
    endloop
  endfacet
  facet normal 0.674372 0.21904 0.705155
    outer loop
      vertex 7.24444 1.94114 10.8468
      vertex 5.84715 1.24285 12.4
      vertex 7.29584 1.55078 10.9189
    endloop
  endfacet
  facet normal 0.674335 0.219107 0.70517
    outer loop
      vertex 5.84715 1.24285 12.4
      vertex 7.17673 2.1046 10.8608
      vertex 5.46097 2.43138 12.4
    endloop
  endfacet
  facet normal 0.705168 0.0741489 0.705153
    outer loop
      vertex 7.29584 1.55078 10.9189
      vertex 5.84715 1.24285 12.4
      vertex 7.42354 0.580739 10.8932
    endloop
  endfacet
  facet normal 0.705162 0.0741162 0.705162
    outer loop
      vertex 5.97778 0 12.4
      vertex 7.42354 0.580739 10.8932
      vertex 5.84715 1.24285 12.4
    endloop
  endfacet
  facet normal 0.705156 0.0741412 0.705165
    outer loop
      vertex 7.42354 0.580739 10.8932
      vertex 5.97778 0 12.4
      vertex 7.5 0 10.8778
    endloop
  endfacet
  facet normal 0.705157 -0.0741314 0.705166
    outer loop
      vertex 7.5 0 10.8778
      vertex 5.97778 0 12.4
      vertex 7.37246 -0.968725 10.9035
    endloop
  endfacet
  facet normal 0.705162 -0.0741162 0.705161
    outer loop
      vertex 5.84715 -1.24285 12.4
      vertex 7.37246 -0.968725 10.9035
      vertex 5.97778 0 12.4
    endloop
  endfacet
  facet normal 0.705164 -0.0741688 0.705154
    outer loop
      vertex 7.37246 -0.968725 10.9035
      vertex 5.84715 -1.24285 12.4
      vertex 7.29584 -1.55078 10.9189
    endloop
  endfacet
  facet normal 0.674372 -0.21904 0.705155
    outer loop
      vertex 5.84715 -1.24285 12.4
      vertex 7.24444 -1.94114 10.8468
      vertex 7.29584 -1.55078 10.9189
    endloop
  endfacet
  facet normal 0.674325 -0.219155 0.705164
    outer loop
      vertex 7.24444 -1.94114 10.8468
      vertex 5.84715 -1.24285 12.4
      vertex 7.01768 -2.4886 10.8935
    endloop
  endfacet
  facet normal 0.674353 -0.219112 0.705151
    outer loop
      vertex 5.46097 -2.43138 12.4
      vertex 7.01768 -2.4886 10.8935
      vertex 5.84715 -1.24285 12.4
    endloop
  endfacet
  facet normal 0.674364 -0.219048 0.70516
    outer loop
      vertex 7.01768 -2.4886 10.8935
      vertex 5.46097 -2.43138 12.4
      vertex 6.7953 -3.02546 10.9394
    endloop
  endfacet
  facet normal 0.614063 -0.354498 0.705165
    outer loop
      vertex 5.46097 -2.43138 12.4
      vertex 6.49519 -3.75 10.8365
      vertex 6.7953 -3.02546 10.9394
    endloop
  endfacet
  facet normal 0.614002 -0.354568 0.705183
    outer loop
      vertex 6.49519 -3.75 10.8365
      vertex 5.46097 -2.43138 12.4
      vertex 6.36383 -3.92119 10.8648
    endloop
  endfacet
  facet normal 0.614049 -0.354522 0.705166
    outer loop
      vertex 4.83612 -3.51365 12.4
      vertex 6.36383 -3.92119 10.8648
      vertex 5.46097 -2.43138 12.4
    endloop
  endfacet
  facet normal 0.614046 -0.354529 0.705165
    outer loop
      vertex 6.36383 -3.92119 10.8648
      vertex 4.83612 -3.51365 12.4
      vertex 6.01778 -4.37217 10.9394
    endloop
  endfacet
  facet normal 0.526938 -0.474425 0.705165
    outer loop
      vertex 6.01778 -4.37217 10.9394
      vertex 4.83612 -3.51365 12.4
      vertex 5.41101 -5.16293 10.8608
    endloop
  endfacet
  facet normal 0.526822 -0.474575 0.705151
    outer loop
      vertex 3.99991 -4.44235 12.4
      vertex 5.3033 -5.3033 10.8468
      vertex 5.41101 -5.16293 10.8608
    endloop
  endfacet
  facet normal 0.526915 -0.474439 0.705172
    outer loop
      vertex 3.99991 -4.44235 12.4
      vertex 5.41101 -5.16293 10.8608
      vertex 4.83612 -3.51365 12.4
    endloop
  endfacet
  facet normal 0.526869 -0.474514 0.705156
    outer loop
      vertex 5.3033 -5.3033 10.8468
      vertex 3.99991 -4.44235 12.4
      vertex 4.99093 -5.54299 10.9189
    endloop
  endfacet
  facet normal 0.416805 -0.573613 0.705154
    outer loop
      vertex 4.99093 -5.54299 10.9189
      vertex 3.99991 -4.44235 12.4
      vertex 4.21471 -6.13861 10.8932
    endloop
  endfacet
  facet normal 0.41677 -0.573626 0.705164
    outer loop
      vertex 2.98889 -5.17691 12.4
      vertex 4.21471 -6.13861 10.8932
      vertex 3.99991 -4.44235 12.4
    endloop
  endfacet
  facet normal 0.416778 -0.573618 0.705166
    outer loop
      vertex 3.75 -6.49519 10.8778
      vertex 4.21471 -6.13861 10.8932
      vertex 2.98889 -5.17691 12.4
    endloop
  endfacet
  facet normal 0.288379 -0.647749 0.705166
    outer loop
      vertex 2.98889 -5.17691 12.4
      vertex 2.84729 -6.8691 10.9035
      vertex 3.75 -6.49519 10.8778
    endloop
  endfacet
  facet normal 0.28839 -0.647748 0.705163
    outer loop
      vertex 1.84723 -5.6852 12.4
      vertex 2.84729 -6.8691 10.9035
      vertex 2.98889 -5.17691 12.4
    endloop
  endfacet
  facet normal 0.288345 -0.647776 0.705155
    outer loop
      vertex 2.84729 -6.8691 10.9035
      vertex 1.84723 -5.6852 12.4
      vertex 2.3049 -7.09377 10.9189
    endloop
  endfacet
  facet normal 0.147499 -0.693541 0.705156
    outer loop
      vertex 1.84723 -5.6852 12.4
      vertex 1.94114 -7.24444 10.8468
      vertex 2.3049 -7.09377 10.9189
    endloop
  endfacet
  facet normal 0.147369 -0.693559 0.705166
    outer loop
      vertex 1.94114 -7.24444 10.8468
      vertex 1.84723 -5.6852 12.4
      vertex 1.35365 -7.32179 10.8935
    endloop
  endfacet
  facet normal 0.147424 -0.693562 0.705151
    outer loop
      vertex 0.624847 -5.94503 12.4
      vertex 1.35365 -7.32179 10.8935
      vertex 1.84723 -5.6852 12.4
    endloop
  endfacet
  facet normal 0.147488 -0.693538 0.705161
    outer loop
      vertex 1.35365 -7.32179 10.8935
      vertex 0.624847 -5.94503 12.4
      vertex 0.777523 -7.39764 10.9394
    endloop
  endfacet
  facet normal -2.05977e-05 -0.709042 0.705166
    outer loop
      vertex 0 -7.5 10.8365
      vertex -0.624847 -5.94503 12.4
      vertex -0.777523 -7.39764 10.9394
    endloop
  endfacet
  facet normal 0 -0.709038 0.70517
    outer loop
      vertex -0.624847 -5.94503 12.4
      vertex 0 -7.5 10.8365
      vertex 0.624847 -5.94503 12.4
    endloop
  endfacet
  facet normal 2.05977e-05 -0.709042 0.705166
    outer loop
      vertex 0.624847 -5.94503 12.4
      vertex 0 -7.5 10.8365
      vertex 0.777523 -7.39764 10.9394
    endloop
  endfacet
  facet normal -0.147396 -0.693553 0.705166
    outer loop
      vertex -0.624847 -5.94503 12.4
      vertex -1.76573 -7.26754 10.8608
      vertex -0.777523 -7.39764 10.9394
    endloop
  endfacet
  facet normal -0.147419 -0.693541 0.705173
    outer loop
      vertex -1.84723 -5.6852 12.4
      vertex -1.76573 -7.26754 10.8608
      vertex -0.624847 -5.94503 12.4
    endloop
  endfacet
  facet normal -0.147611 -0.693526 0.705148
    outer loop
      vertex -1.84723 -5.6852 12.4
      vertex -1.94114 -7.24444 10.8468
      vertex -1.76573 -7.26754 10.8608
    endloop
  endfacet
  facet normal -0.147499 -0.693541 0.705156
    outer loop
      vertex -1.94114 -7.24444 10.8468
      vertex -1.84723 -5.6852 12.4
      vertex -2.3049 -7.09377 10.9189
    endloop
  endfacet
  facet normal -0.28836 -0.64777 0.705154
    outer loop
      vertex -1.84723 -5.6852 12.4
      vertex -3.20884 -6.71935 10.8932
      vertex -2.3049 -7.09377 10.9189
    endloop
  endfacet
  facet normal -0.28839 -0.647746 0.705164
    outer loop
      vertex -2.98889 -5.17691 12.4
      vertex -3.20884 -6.71935 10.8932
      vertex -1.84723 -5.6852 12.4
    endloop
  endfacet
  facet normal -0.288379 -0.647749 0.705166
    outer loop
      vertex -3.20884 -6.71935 10.8932
      vertex -2.98889 -5.17691 12.4
      vertex -3.75 -6.49519 10.8778
    endloop
  endfacet
  facet normal -0.416776 -0.57362 0.705166
    outer loop
      vertex -4.52517 -5.90038 10.9035
      vertex -3.75 -6.49519 10.8778
      vertex -2.98889 -5.17691 12.4
    endloop
  endfacet
  facet normal -0.41677 -0.573626 0.705163
    outer loop
      vertex -3.99991 -4.44235 12.4
      vertex -4.52517 -5.90038 10.9035
      vertex -2.98889 -5.17691 12.4
    endloop
  endfacet
  facet normal -0.416822 -0.573599 0.705155
    outer loop
      vertex -4.52517 -5.90038 10.9035
      vertex -3.99991 -4.44235 12.4
      vertex -4.99093 -5.54299 10.9189
    endloop
  endfacet
  facet normal -0.526869 -0.474514 0.705156
    outer loop
      vertex -3.99991 -4.44235 12.4
      vertex -5.3033 -5.3033 10.8468
      vertex -4.99093 -5.54299 10.9189
    endloop
  endfacet
  facet normal -0.526957 -0.474401 0.705167
    outer loop
      vertex -5.3033 -5.3033 10.8468
      vertex -3.99991 -4.44235 12.4
      vertex -5.66403 -4.83319 10.8935
    endloop
  endfacet
  facet normal -0.52693 -0.474453 0.705151
    outer loop
      vertex -4.83612 -3.51365 12.4
      vertex -5.66403 -4.83319 10.8935
      vertex -3.99991 -4.44235 12.4
    endloop
  endfacet
  facet normal -0.526882 -0.474494 0.70516
    outer loop
      vertex -5.66403 -4.83319 10.8935
      vertex -4.83612 -3.51365 12.4
      vertex -6.01778 -4.37217 10.9394
    endloop
  endfacet
  facet normal -0.614037 -0.354543 0.705165
    outer loop
      vertex -4.83612 -3.51365 12.4
      vertex -6.49519 -3.75 10.8365
      vertex -6.01778 -4.37217 10.9394
    endloop
  endfacet
  facet normal -0.614063 -0.354464 0.705182
    outer loop
      vertex -6.49519 -3.75 10.8365
      vertex -4.83612 -3.51365 12.4
      vertex -6.57777 -3.55064 10.8648
    endloop
  endfacet
  facet normal -0.614048 -0.354522 0.705166
    outer loop
      vertex -5.46097 -2.43138 12.4
      vertex -6.57777 -3.55064 10.8648
      vertex -4.83612 -3.51365 12.4
    endloop
  endfacet
  facet normal -0.614058 -0.354509 0.705164
    outer loop
      vertex -6.57777 -3.55064 10.8648
      vertex -5.46097 -2.43138 12.4
      vertex -6.7953 -3.02546 10.9394
    endloop
  endfacet
  facet normal -0.674334 -0.219127 0.705164
    outer loop
      vertex -5.46097 -2.43138 12.4
      vertex -7.17673 -2.1046 10.8608
      vertex -6.7953 -3.02546 10.9394
    endloop
  endfacet
  facet normal -0.674335 -0.219107 0.70517
    outer loop
      vertex -5.84715 -1.24285 12.4
      vertex -7.17673 -2.1046 10.8608
      vertex -5.46097 -2.43138 12.4
    endloop
  endfacet
  facet normal -0.674403 -0.218964 0.705149
    outer loop
      vertex -5.84715 -1.24285 12.4
      vertex -7.24444 -1.94114 10.8468
      vertex -7.17673 -2.1046 10.8608
    endloop
  endfacet
  facet normal -0.674372 -0.21904 0.705155
    outer loop
      vertex -7.24444 -1.94114 10.8468
      vertex -5.84715 -1.24285 12.4
      vertex -7.29584 -1.55078 10.9189
    endloop
  endfacet
  facet normal -0.705168 -0.0741489 0.705153
    outer loop
      vertex -5.84715 -1.24285 12.4
      vertex -7.42354 -0.580739 10.8932
      vertex -7.29584 -1.55078 10.9189
    endloop
  endfacet
  facet normal -0.705162 -0.0741162 0.705162
    outer loop
      vertex -5.97778 0 12.4
      vertex -7.42354 -0.580739 10.8932
      vertex -5.84715 -1.24285 12.4
    endloop
  endfacet
  facet normal -0.705156 -0.0741412 0.705165
    outer loop
      vertex -7.42354 -0.580739 10.8932
      vertex -5.97778 0 12.4
      vertex -7.5 0 10.8778
    endloop
  endfacet
  facet normal 0.991445 0.130521 -0.00013805
    outer loop
      vertex 7.42354 0.580739 10.8932
      vertex 7.24444 1.94114 10.8468
      vertex 7.29584 1.55078 10.9189
    endloop
  endfacet
  facet normal 0.991444 0.130533 0
    outer loop
      vertex 7.24444 1.94114 10.8468
      vertex 7.38953 0.839133 1.49994
      vertex 7.24444 1.94114 1.5532
    endloop
  endfacet
  facet normal 0.991445 0.130529 9.83927e-05
    outer loop
      vertex 7.24444 1.94114 1.5532
      vertex 7.38953 0.839133 1.49994
      vertex 7.29584 1.55078 1.48105
    endloop
  endfacet
  facet normal 0.991445 0.130526 8.64144e-07
    outer loop
      vertex 7.24444 1.94114 10.8468
      vertex 7.42354 0.580739 10.8932
      vertex 7.38953 0.839133 1.49994
    endloop
  endfacet
  facet normal 0.991444 0.130533 -0
    outer loop
      vertex 7.5 0 1.52222
      vertex 7.42354 0.580739 10.8932
      vertex 7.5 0 10.8778
    endloop
  endfacet
  facet normal 0.991445 0.130522 7.39118e-07
    outer loop
      vertex 7.42354 0.580739 10.8932
      vertex 7.5 0 1.52222
      vertex 7.38953 0.839133 1.49994
    endloop
  endfacet
  facet normal -0.991445 0.130525 0
    outer loop
      vertex -7.37246 0.968725 10.9035
      vertex -7.24444 1.94114 10.8468
      vertex -7.24444 1.94114 1.5532
    endloop
  endfacet
  facet normal -0.991445 0.130528 9.95524e-05
    outer loop
      vertex -7.40595 0.714409 1.50326
      vertex -7.24444 1.94114 1.5532
      vertex -7.29584 1.55078 1.48105
    endloop
  endfacet
  facet normal -0.991446 0.130516 -0.000170356
    outer loop
      vertex -7.24444 1.94114 10.8468
      vertex -7.37246 0.968725 10.9035
      vertex -7.29584 1.55078 10.9189
    endloop
  endfacet
  facet normal -0.991444 0.130532 7.44003e-07
    outer loop
      vertex -7.24444 1.94114 1.5532
      vertex -7.40595 0.714409 1.50326
      vertex -7.37246 0.968725 10.9035
    endloop
  endfacet
  facet normal -0.991446 0.130521 0
    outer loop
      vertex -7.5 0 10.8778
      vertex -7.40595 0.714409 1.50326
      vertex -7.5 0 1.52222
    endloop
  endfacet
  facet normal -0.991444 0.130531 7.77667e-07
    outer loop
      vertex -7.40595 0.714409 1.50326
      vertex -7.5 0 10.8778
      vertex -7.37246 0.968725 10.9035
    endloop
  endfacet
  facet normal 0.130525 0.991445 -1.75012e-05
    outer loop
      vertex 1.76573 7.26754 10.8608
      vertex 0 7.5 10.8365
      vertex 0.777523 7.39764 10.9394
    endloop
  endfacet
  facet normal 0.130564 0.99144 -0
    outer loop
      vertex 1.94114 7.24444 1.5532
      vertex 1.76573 7.26754 10.8608
      vertex 1.94114 7.24444 10.8468
    endloop
  endfacet
  facet normal 0.130525 0.991445 -2.45144e-07
    outer loop
      vertex 1.76573 7.26754 10.8608
      vertex 1.4814 7.30497 1.51662
      vertex 0 7.5 10.8365
    endloop
  endfacet
  facet normal 0.130535 0.991444 -5.61414e-07
    outer loop
      vertex 1.76573 7.26754 10.8608
      vertex 1.94114 7.24444 1.5532
      vertex 1.4814 7.30497 1.51662
    endloop
  endfacet
  facet normal 0.130526 0.991445 0
    outer loop
      vertex 0 7.5 10.8365
      vertex 1.4814 7.30497 1.51662
      vertex 0 7.5 1.56354
    endloop
  endfacet
  facet normal 0.130527 0.991445 3.59546e-05
    outer loop
      vertex 0 7.5 1.56354
      vertex 1.4814 7.30497 1.51662
      vertex 0.777523 7.39764 1.46061
    endloop
  endfacet
  facet normal 0 0 -1
    outer loop
      vertex 4.25 0 0
      vertex 5.97778 0 0
      vertex 5.84715 -1.24285 0
    endloop
  endfacet
  facet normal 0 0 -1
    outer loop
      vertex 3.82912 -1.84401 0
      vertex 5.84715 -1.24285 0
      vertex 5.46097 -2.43138 0
    endloop
  endfacet
  facet normal 0 0 -1
    outer loop
      vertex 5.97778 0 0
      vertex 4.25 0 0
      vertex 5.84715 1.24285 0
    endloop
  endfacet
  facet normal 0 0 -1
    outer loop
      vertex 3.82912 -1.84401 0
      vertex 5.46097 -2.43138 0
      vertex 4.83612 -3.51365 0
    endloop
  endfacet
  facet normal 0 0 -1
    outer loop
      vertex 3.82912 1.84401 0
      vertex 5.84715 1.24285 0
      vertex 4.25 0 0
    endloop
  endfacet
  facet normal 0 0 -1
    outer loop
      vertex 5.84715 1.24285 0
      vertex 3.82912 1.84401 0
      vertex 5.46097 2.43138 0
    endloop
  endfacet
  facet normal 0 0 -1
    outer loop
      vertex 2.64983 -3.32278 0
      vertex 4.83612 -3.51365 0
      vertex 3.99991 -4.44235 0
    endloop
  endfacet
  facet normal -0 0 -1
    outer loop
      vertex 5.84715 -1.24285 0
      vertex 3.82912 -1.84401 0
      vertex 4.25 0 0
    endloop
  endfacet
  facet normal 0 0 -1
    outer loop
      vertex 2.64983 -3.32278 0
      vertex 3.99991 -4.44235 0
      vertex 2.98889 -5.17691 0
    endloop
  endfacet
  facet normal 0 0 -1
    outer loop
      vertex 4.83612 -3.51365 0
      vertex 2.64983 -3.32278 0
      vertex 3.82912 -1.84401 0
    endloop
  endfacet
  facet normal 0 0 -1
    outer loop
      vertex 0.945713 -4.14344 0
      vertex 2.98889 -5.17691 0
      vertex 1.84723 -5.6852 0
    endloop
  endfacet
  facet normal 0 0 -1
    outer loop
      vertex 2.98889 -5.17691 0
      vertex 0.945713 -4.14344 0
      vertex 2.64983 -3.32278 0
    endloop
  endfacet
  facet normal 0 0 -1
    outer loop
      vertex 0.624847 -5.94503 0
      vertex 0.945713 -4.14344 0
      vertex 1.84723 -5.6852 0
    endloop
  endfacet
  facet normal 0 0 -1
    outer loop
      vertex -0.624847 -5.94503 0
      vertex 0.945713 -4.14344 0
      vertex 0.624847 -5.94503 0
    endloop
  endfacet
  facet normal 0 0 -1
    outer loop
      vertex -0.624847 -5.94503 0
      vertex -0.945713 -4.14344 0
      vertex 0.945713 -4.14344 0
    endloop
  endfacet
  facet normal 0 0 -1
    outer loop
      vertex -1.84723 -5.6852 0
      vertex -0.945713 -4.14344 0
      vertex -0.624847 -5.94503 0
    endloop
  endfacet
  facet normal 0 0 -1
    outer loop
      vertex -2.98889 -5.17691 0
      vertex -0.945713 -4.14344 0
      vertex -1.84723 -5.6852 0
    endloop
  endfacet
  facet normal -0 0 -1
    outer loop
      vertex -0.945713 -4.14344 0
      vertex -2.98889 -5.17691 0
      vertex -2.64983 -3.32278 0
    endloop
  endfacet
  facet normal 0 0 -1
    outer loop
      vertex -3.99991 -4.44235 0
      vertex -2.64983 -3.32278 0
      vertex -2.98889 -5.17691 0
    endloop
  endfacet
  facet normal 0 0 -1
    outer loop
      vertex -4.83612 -3.51365 0
      vertex -2.64983 -3.32278 0
      vertex -3.99991 -4.44235 0
    endloop
  endfacet
  facet normal -0 0 -1
    outer loop
      vertex -2.64983 -3.32278 0
      vertex -4.83612 -3.51365 0
      vertex -3.82912 -1.84401 0
    endloop
  endfacet
  facet normal 0 0 -1
    outer loop
      vertex -5.46097 -2.43138 0
      vertex -3.82912 -1.84401 0
      vertex -4.83612 -3.51365 0
    endloop
  endfacet
  facet normal -0 0 -1
    outer loop
      vertex 5.46097 2.43138 0
      vertex 3.82912 1.84401 0
      vertex 4.83612 3.51365 0
    endloop
  endfacet
  facet normal 0 0 -1
    outer loop
      vertex 2.64983 3.32278 0
      vertex 4.83612 3.51365 0
      vertex 3.82912 1.84401 0
    endloop
  endfacet
  facet normal -0 0 -1
    outer loop
      vertex 4.83612 3.51365 0
      vertex 2.64983 3.32278 0
      vertex 3.99991 4.44235 0
    endloop
  endfacet
  facet normal -0 0 -1
    outer loop
      vertex 3.99991 4.44235 0
      vertex 2.64983 3.32278 0
      vertex 2.98889 5.17691 0
    endloop
  endfacet
  facet normal 0 0 -1
    outer loop
      vertex 0.945713 4.14344 0
      vertex 2.98889 5.17691 0
      vertex 2.64983 3.32278 0
    endloop
  endfacet
  facet normal -0 0 -1
    outer loop
      vertex 2.98889 5.17691 0
      vertex 0.945713 4.14344 0
      vertex 1.84723 5.6852 0
    endloop
  endfacet
  facet normal 0 0 -1
    outer loop
      vertex 0.945713 4.14344 0
      vertex 0.624847 5.94503 0
      vertex 1.84723 5.6852 0
    endloop
  endfacet
  facet normal 0 0 -1
    outer loop
      vertex 0.945713 4.14344 0
      vertex -0.624847 5.94503 0
      vertex 0.624847 5.94503 0
    endloop
  endfacet
  facet normal 0 0 -1
    outer loop
      vertex -0.945713 4.14344 0
      vertex -0.624847 5.94503 0
      vertex 0.945713 4.14344 0
    endloop
  endfacet
  facet normal 0 0 -1
    outer loop
      vertex -0.945713 4.14344 0
      vertex -1.84723 5.6852 0
      vertex -0.624847 5.94503 0
    endloop
  endfacet
  facet normal 0 0 -1
    outer loop
      vertex -2.98889 5.17691 0
      vertex -0.945713 4.14344 0
      vertex -2.64983 3.32278 0
    endloop
  endfacet
  facet normal 0 0 -1
    outer loop
      vertex -0.945713 4.14344 0
      vertex -2.98889 5.17691 0
      vertex -1.84723 5.6852 0
    endloop
  endfacet
  facet normal 0 0 -1
    outer loop
      vertex -4.83612 3.51365 0
      vertex -2.64983 3.32278 0
      vertex -3.82912 1.84401 0
    endloop
  endfacet
  facet normal 0 0 -1
    outer loop
      vertex -2.64983 3.32278 0
      vertex -3.99991 4.44235 0
      vertex -2.98889 5.17691 0
    endloop
  endfacet
  facet normal 0 0 -1
    outer loop
      vertex -5.84715 1.24285 0
      vertex -3.82912 1.84401 0
      vertex -4.25 0 0
    endloop
  endfacet
  facet normal 0 0 -1
    outer loop
      vertex -5.84715 -1.24285 0
      vertex -3.82912 -1.84401 0
      vertex -5.46097 -2.43138 0
    endloop
  endfacet
  facet normal 0 0 -1
    outer loop
      vertex -2.64983 3.32278 0
      vertex -4.83612 3.51365 0
      vertex -3.99991 4.44235 0
    endloop
  endfacet
  facet normal 0 0 -1
    outer loop
      vertex -3.82912 -1.84401 0
      vertex -5.84715 -1.24285 0
      vertex -4.25 0 0
    endloop
  endfacet
  facet normal 0 0 -1
    outer loop
      vertex -3.82912 1.84401 0
      vertex -5.46097 2.43138 0
      vertex -4.83612 3.51365 0
    endloop
  endfacet
  facet normal 0 0 -1
    outer loop
      vertex -5.97778 0 0
      vertex -4.25 0 0
      vertex -5.84715 -1.24285 0
    endloop
  endfacet
  facet normal -0 0 -1
    outer loop
      vertex -3.82912 1.84401 0
      vertex -5.84715 1.24285 0
      vertex -5.46097 2.43138 0
    endloop
  endfacet
  facet normal 0 0 -1
    outer loop
      vertex -4.25 0 0
      vertex -5.97778 0 0
      vertex -5.84715 1.24285 0
    endloop
  endfacet
  facet normal 0.793351 0.608765 0
    outer loop
      vertex 5.3033 5.3033 10.8468
      vertex 5.49719 5.05062 1.52807
      vertex 5.3033 5.3033 1.5532
    endloop
  endfacet
  facet normal 0.793352 0.608763 6.70965e-08
    outer loop
      vertex 5.66403 4.83319 10.8935
      vertex 5.49719 5.05062 1.52807
      vertex 5.3033 5.3033 10.8468
    endloop
  endfacet
  facet normal 0.793354 0.60876 3.04902e-05
    outer loop
      vertex 6.49519 3.75 10.8365
      vertex 5.66403 4.83319 10.8935
      vertex 6.01778 4.37217 10.9394
    endloop
  endfacet
  facet normal 0.793354 0.608761 -2.34954e-08
    outer loop
      vertex 5.66403 4.83319 10.8935
      vertex 6.49519 3.75 10.8365
      vertex 5.49719 5.05062 1.52807
    endloop
  endfacet
  facet normal 0.793353 0.608762 -4.00598e-05
    outer loop
      vertex 5.49719 5.05062 1.52807
      vertex 6.44237 3.81884 1.55215
      vertex 6.01778 4.37217 1.46061
    endloop
  endfacet
  facet normal 0.793353 0.608762 2.47803e-07
    outer loop
      vertex 5.49719 5.05062 1.52807
      vertex 6.49519 3.75 10.8365
      vertex 6.44237 3.81884 1.55215
    endloop
  endfacet
  facet normal 0.793369 0.608741 0
    outer loop
      vertex 6.44237 3.81884 1.55215
      vertex 6.49519 3.75 10.8365
      vertex 6.49519 3.75 1.56353
    endloop
  endfacet
  facet normal 0.923876 0.382693 0
    outer loop
      vertex 6.57777 3.55064 10.8648
      vertex 6.49519 3.75 1.56353
      vertex 6.49519 3.75 10.8365
    endloop
  endfacet
  facet normal 0.923882 0.382678 3.97493e-05
    outer loop
      vertex 7.17673 2.1046 10.8608
      vertex 6.57777 3.55064 10.8648
      vertex 6.7953 3.02546 10.9394
    endloop
  endfacet
  facet normal 0.923882 0.382678 4.11747e-07
    outer loop
      vertex 7.06699 2.36955 1.51662
      vertex 6.57777 3.55064 10.8648
      vertex 7.17673 2.1046 10.8608
    endloop
  endfacet
  facet normal 0.923879 0.382684 -4.37845e-05
    outer loop
      vertex 6.49519 3.75 1.56353
      vertex 7.06699 2.36955 1.51662
      vertex 6.7953 3.02546 1.46061
    endloop
  endfacet
  facet normal 0.92388 0.382683 -2.52589e-07
    outer loop
      vertex 6.57777 3.55064 10.8648
      vertex 7.06699 2.36955 1.51662
      vertex 6.49519 3.75 1.56353
    endloop
  endfacet
  facet normal 0.923874 0.382696 -0
    outer loop
      vertex 7.24444 1.94114 1.5532
      vertex 7.17673 2.1046 10.8608
      vertex 7.24444 1.94114 10.8468
    endloop
  endfacet
  facet normal 0.923882 0.382678 3.84989e-07
    outer loop
      vertex 7.17673 2.1046 10.8608
      vertex 7.24444 1.94114 1.5532
      vertex 7.06699 2.36955 1.51662
    endloop
  endfacet
  facet normal 0.608761 0.793353 -2.06853e-06
    outer loop
      vertex 5.3033 5.3033 10.8468
      vertex 4.52517 5.90038 10.9035
      vertex 4.99093 5.54299 10.9189
    endloop
  endfacet
  facet normal 0.608761 0.793353 -8.45209e-08
    outer loop
      vertex 4.32167 6.05653 1.50326
      vertex 4.52517 5.90038 10.9035
      vertex 5.3033 5.3033 10.8468
    endloop
  endfacet
  facet normal 0.608761 0.793354 0
    outer loop
      vertex 4.32167 6.05653 1.50326
      vertex 5.3033 5.3033 10.8468
      vertex 5.3033 5.3033 1.5532
    endloop
  endfacet
  facet normal 0.608762 0.793353 -1.13257e-07
    outer loop
      vertex 4.52517 5.90038 10.9035
      vertex 4.32167 6.05653 1.50326
      vertex 3.75 6.49519 10.8778
    endloop
  endfacet
  facet normal 0.608763 0.793352 0
    outer loop
      vertex 3.75 6.49519 10.8778
      vertex 4.32167 6.05653 1.50326
      vertex 3.75 6.49519 1.52222
    endloop
  endfacet
  facet normal 0.608761 0.793354 6.31524e-06
    outer loop
      vertex 4.32167 6.05653 1.50326
      vertex 5.3033 5.3033 1.5532
      vertex 4.99093 5.54299 1.48105
    endloop
  endfacet
  facet normal -0.608762 0.793353 -2.1346e-07
    outer loop
      vertex -3.75 6.49519 10.8778
      vertex -4.42147 5.97995 1.49994
      vertex -5.3033 5.3033 10.8468
    endloop
  endfacet
  facet normal -0.608764 0.793352 0
    outer loop
      vertex -3.75 6.49519 10.8778
      vertex -3.75 6.49519 1.52222
      vertex -4.42147 5.97995 1.49994
    endloop
  endfacet
  facet normal -0.60876 0.793354 0
    outer loop
      vertex -5.3033 5.3033 10.8468
      vertex -4.42147 5.97995 1.49994
      vertex -5.3033 5.3033 1.5532
    endloop
  endfacet
  facet normal -0.60876 0.793355 1.13497e-05
    outer loop
      vertex -5.3033 5.3033 1.5532
      vertex -4.42147 5.97995 1.49994
      vertex -4.99093 5.54299 1.48105
    endloop
  endfacet
  facet normal -0.608765 0.793351 2.04259e-05
    outer loop
      vertex -4.21471 6.13861 10.8932
      vertex -5.3033 5.3033 10.8468
      vertex -4.99093 5.54299 10.9189
    endloop
  endfacet
  facet normal -0.60876 0.793355 -0.000154997
    outer loop
      vertex -5.3033 5.3033 10.8468
      vertex -4.21471 6.13861 10.8932
      vertex -3.75 6.49519 10.8778
    endloop
  endfacet
  facet normal 0 0 1
    outer loop
      vertex 4.25 0 12.4
      vertex 5.97778 0 12.4
      vertex 5.84715 1.24285 12.4
    endloop
  endfacet
  facet normal -0 0 1
    outer loop
      vertex 3.82912 1.84401 12.4
      vertex 5.84715 1.24285 12.4
      vertex 5.46097 2.43138 12.4
    endloop
  endfacet
  facet normal 0 0 1
    outer loop
      vertex 5.97778 0 12.4
      vertex 4.25 0 12.4
      vertex 5.84715 -1.24285 12.4
    endloop
  endfacet
  facet normal 0 0 1
    outer loop
      vertex 3.82912 1.84401 12.4
      vertex 5.46097 2.43138 12.4
      vertex 4.83612 3.51365 12.4
    endloop
  endfacet
  facet normal 0 0 1
    outer loop
      vertex 3.82912 -1.84401 12.4
      vertex 5.84715 -1.24285 12.4
      vertex 4.25 0 12.4
    endloop
  endfacet
  facet normal 0 0 1
    outer loop
      vertex 5.84715 -1.24285 12.4
      vertex 3.82912 -1.84401 12.4
      vertex 5.46097 -2.43138 12.4
    endloop
  endfacet
  facet normal 0 0 1
    outer loop
      vertex 2.64983 3.32278 12.4
      vertex 4.83612 3.51365 12.4
      vertex 3.99991 4.44235 12.4
    endloop
  endfacet
  facet normal 0 0 1
    outer loop
      vertex 5.84715 1.24285 12.4
      vertex 3.82912 1.84401 12.4
      vertex 4.25 0 12.4
    endloop
  endfacet
  facet normal 0 0 1
    outer loop
      vertex 2.64983 3.32278 12.4
      vertex 3.99991 4.44235 12.4
      vertex 2.98889 5.17691 12.4
    endloop
  endfacet
  facet normal 0 0 1
    outer loop
      vertex 4.83612 3.51365 12.4
      vertex 2.64983 3.32278 12.4
      vertex 3.82912 1.84401 12.4
    endloop
  endfacet
  facet normal 0 0 1
    outer loop
      vertex 0.945713 4.14344 12.4
      vertex 2.98889 5.17691 12.4
      vertex 1.84723 5.6852 12.4
    endloop
  endfacet
  facet normal 0 0 1
    outer loop
      vertex 2.98889 5.17691 12.4
      vertex 0.945713 4.14344 12.4
      vertex 2.64983 3.32278 12.4
    endloop
  endfacet
  facet normal 0 0 1
    outer loop
      vertex 0.624847 5.94503 12.4
      vertex 0.945713 4.14344 12.4
      vertex 1.84723 5.6852 12.4
    endloop
  endfacet
  facet normal -0 0 1
    outer loop
      vertex -0.624847 5.94503 12.4
      vertex 0.945713 4.14344 12.4
      vertex 0.624847 5.94503 12.4
    endloop
  endfacet
  facet normal 0 0 1
    outer loop
      vertex -0.624847 5.94503 12.4
      vertex -0.945713 4.14344 12.4
      vertex 0.945713 4.14344 12.4
    endloop
  endfacet
  facet normal -0 0 1
    outer loop
      vertex -1.84723 5.6852 12.4
      vertex -0.945713 4.14344 12.4
      vertex -0.624847 5.94503 12.4
    endloop
  endfacet
  facet normal -0 0 1
    outer loop
      vertex -2.98889 5.17691 12.4
      vertex -0.945713 4.14344 12.4
      vertex -1.84723 5.6852 12.4
    endloop
  endfacet
  facet normal 0 0 1
    outer loop
      vertex -0.945713 4.14344 12.4
      vertex -2.98889 5.17691 12.4
      vertex -2.64983 3.32278 12.4
    endloop
  endfacet
  facet normal -0 0 1
    outer loop
      vertex -3.99991 4.44235 12.4
      vertex -2.64983 3.32278 12.4
      vertex -2.98889 5.17691 12.4
    endloop
  endfacet
  facet normal -0 0 1
    outer loop
      vertex -4.83612 3.51365 12.4
      vertex -2.64983 3.32278 12.4
      vertex -3.99991 4.44235 12.4
    endloop
  endfacet
  facet normal 0 0 1
    outer loop
      vertex -2.64983 3.32278 12.4
      vertex -4.83612 3.51365 12.4
      vertex -3.82912 1.84401 12.4
    endloop
  endfacet
  facet normal -0 0 1
    outer loop
      vertex -5.46097 2.43138 12.4
      vertex -3.82912 1.84401 12.4
      vertex -4.83612 3.51365 12.4
    endloop
  endfacet
  facet normal 0 0 1
    outer loop
      vertex 5.46097 -2.43138 12.4
      vertex 3.82912 -1.84401 12.4
      vertex 4.83612 -3.51365 12.4
    endloop
  endfacet
  facet normal -0 0 1
    outer loop
      vertex 2.64983 -3.32278 12.4
      vertex 4.83612 -3.51365 12.4
      vertex 3.82912 -1.84401 12.4
    endloop
  endfacet
  facet normal 0 0 1
    outer loop
      vertex 4.83612 -3.51365 12.4
      vertex 2.64983 -3.32278 12.4
      vertex 3.99991 -4.44235 12.4
    endloop
  endfacet
  facet normal 0 0 1
    outer loop
      vertex 3.99991 -4.44235 12.4
      vertex 2.64983 -3.32278 12.4
      vertex 2.98889 -5.17691 12.4
    endloop
  endfacet
  facet normal -0 0 1
    outer loop
      vertex 0.945713 -4.14344 12.4
      vertex 2.98889 -5.17691 12.4
      vertex 2.64983 -3.32278 12.4
    endloop
  endfacet
  facet normal 0 0 1
    outer loop
      vertex 2.98889 -5.17691 12.4
      vertex 0.945713 -4.14344 12.4
      vertex 1.84723 -5.6852 12.4
    endloop
  endfacet
  facet normal 0 0 1
    outer loop
      vertex 0.945713 -4.14344 12.4
      vertex 0.624847 -5.94503 12.4
      vertex 1.84723 -5.6852 12.4
    endloop
  endfacet
  facet normal 0 0 1
    outer loop
      vertex 0.945713 -4.14344 12.4
      vertex -0.624847 -5.94503 12.4
      vertex 0.624847 -5.94503 12.4
    endloop
  endfacet
  facet normal -0 0 1
    outer loop
      vertex -0.945713 -4.14344 12.4
      vertex -0.624847 -5.94503 12.4
      vertex 0.945713 -4.14344 12.4
    endloop
  endfacet
  facet normal 0 0 1
    outer loop
      vertex -0.945713 -4.14344 12.4
      vertex -1.84723 -5.6852 12.4
      vertex -0.624847 -5.94503 12.4
    endloop
  endfacet
  facet normal 0 0 1
    outer loop
      vertex -2.98889 -5.17691 12.4
      vertex -0.945713 -4.14344 12.4
      vertex -2.64983 -3.32278 12.4
    endloop
  endfacet
  facet normal 0 0 1
    outer loop
      vertex -0.945713 -4.14344 12.4
      vertex -2.98889 -5.17691 12.4
      vertex -1.84723 -5.6852 12.4
    endloop
  endfacet
  facet normal 0 0 1
    outer loop
      vertex -4.83612 -3.51365 12.4
      vertex -2.64983 -3.32278 12.4
      vertex -3.82912 -1.84401 12.4
    endloop
  endfacet
  facet normal 0 0 1
    outer loop
      vertex -2.64983 -3.32278 12.4
      vertex -3.99991 -4.44235 12.4
      vertex -2.98889 -5.17691 12.4
    endloop
  endfacet
  facet normal -0 0 1
    outer loop
      vertex -5.84715 -1.24285 12.4
      vertex -3.82912 -1.84401 12.4
      vertex -4.25 0 12.4
    endloop
  endfacet
  facet normal 0 0 1
    outer loop
      vertex -5.84715 1.24285 12.4
      vertex -3.82912 1.84401 12.4
      vertex -5.46097 2.43138 12.4
    endloop
  endfacet
  facet normal 0 0 1
    outer loop
      vertex -2.64983 -3.32278 12.4
      vertex -4.83612 -3.51365 12.4
      vertex -3.99991 -4.44235 12.4
    endloop
  endfacet
  facet normal 0 0 1
    outer loop
      vertex -3.82912 1.84401 12.4
      vertex -5.84715 1.24285 12.4
      vertex -4.25 0 12.4
    endloop
  endfacet
  facet normal 0 0 1
    outer loop
      vertex -3.82912 -1.84401 12.4
      vertex -5.46097 -2.43138 12.4
      vertex -4.83612 -3.51365 12.4
    endloop
  endfacet
  facet normal 0 0 1
    outer loop
      vertex -5.97778 0 12.4
      vertex -4.25 0 12.4
      vertex -5.84715 1.24285 12.4
    endloop
  endfacet
  facet normal 0 0 1
    outer loop
      vertex -3.82912 -1.84401 12.4
      vertex -5.84715 -1.24285 12.4
      vertex -5.46097 -2.43138 12.4
    endloop
  endfacet
  facet normal 0 0 1
    outer loop
      vertex -4.25 0 12.4
      vertex -5.97778 0 12.4
      vertex -5.84715 -1.24285 12.4
    endloop
  endfacet
  facet normal -0.130526 0.991445 -2.88109e-05
    outer loop
      vertex 0 7.5 10.8365
      vertex -1.35365 7.32179 10.8935
      vertex -0.777523 7.39764 10.9394
    endloop
  endfacet
  facet normal -0.130525 0.991445 2.46881e-07
    outer loop
      vertex -1.62537 7.28602 1.52807
      vertex -1.35365 7.32179 10.8935
      vertex 0 7.5 10.8365
    endloop
  endfacet
  facet normal -0.130524 0.991445 0
    outer loop
      vertex -1.62537 7.28602 1.52807
      vertex 0 7.5 10.8365
      vertex 0 7.5 1.56354
    endloop
  endfacet
  facet normal -0.130535 0.991444 5.46292e-07
    outer loop
      vertex -1.35365 7.32179 10.8935
      vertex -1.62537 7.28602 1.52807
      vertex -1.94114 7.24444 10.8468
    endloop
  endfacet
  facet normal -0.130551 0.991442 0
    outer loop
      vertex -1.94114 7.24444 10.8468
      vertex -1.62537 7.28602 1.52807
      vertex -1.94114 7.24444 1.5532
    endloop
  endfacet
  facet normal -0.130524 0.991445 1.06321e-05
    outer loop
      vertex -1.62537 7.28602 1.52807
      vertex 0 7.5 1.56354
      vertex -0.777523 7.39764 1.46061
    endloop
  endfacet
  facet normal 0.793353 -0.608761 3.78806e-05
    outer loop
      vertex 5.41101 -5.16293 10.8608
      vertex 6.49519 -3.75 10.8365
      vertex 6.36383 -3.92119 10.8648
    endloop
  endfacet
  facet normal 0.793354 -0.608761 1.14537e-05
    outer loop
      vertex 5.41101 -5.16293 10.8608
      vertex 6.36383 -3.92119 10.8648
      vertex 6.01778 -4.37217 10.9394
    endloop
  endfacet
  facet normal 0.793353 -0.608762 0
    outer loop
      vertex 6.49519 -3.75 10.8365
      vertex 5.41101 -5.16293 10.8608
      vertex 6.49519 -3.75 1.56353
    endloop
  endfacet
  facet normal 0.793356 -0.608758 -4.72693e-05
    outer loop
      vertex 6.49519 -3.75 1.56353
      vertex 5.58559 -4.93542 1.51662
      vertex 6.01778 -4.37217 1.46061
    endloop
  endfacet
  facet normal 0.793355 -0.608759 5.38632e-07
    outer loop
      vertex 6.49519 -3.75 1.56353
      vertex 5.41101 -5.16293 10.8608
      vertex 5.58559 -4.93542 1.51662
    endloop
  endfacet
  facet normal 0.793352 -0.608763 0
    outer loop
      vertex 5.3033 -5.3033 1.5532
      vertex 5.41101 -5.16293 10.8608
      vertex 5.3033 -5.3033 10.8468
    endloop
  endfacet
  facet normal 0.793347 -0.608769 1.6021e-07
    outer loop
      vertex 5.41101 -5.16293 10.8608
      vertex 5.3033 -5.3033 1.5532
      vertex 5.58559 -4.93542 1.51662
    endloop
  endfacet
  facet normal -0.608761 -0.793353 -2.06853e-06
    outer loop
      vertex -5.3033 -5.3033 10.8468
      vertex -4.52517 -5.90038 10.9035
      vertex -4.99093 -5.54299 10.9189
    endloop
  endfacet
  facet normal -0.608761 -0.793353 -8.45209e-08
    outer loop
      vertex -4.32167 -6.05653 1.50326
      vertex -4.52517 -5.90038 10.9035
      vertex -5.3033 -5.3033 10.8468
    endloop
  endfacet
  facet normal -0.608761 -0.793354 0
    outer loop
      vertex -4.32167 -6.05653 1.50326
      vertex -5.3033 -5.3033 10.8468
      vertex -5.3033 -5.3033 1.5532
    endloop
  endfacet
  facet normal -0.608762 -0.793353 -1.13257e-07
    outer loop
      vertex -4.52517 -5.90038 10.9035
      vertex -4.32167 -6.05653 1.50326
      vertex -3.75 -6.49519 10.8778
    endloop
  endfacet
  facet normal -0.608763 -0.793352 -0
    outer loop
      vertex -3.75 -6.49519 10.8778
      vertex -4.32167 -6.05653 1.50326
      vertex -3.75 -6.49519 1.52222
    endloop
  endfacet
  facet normal -0.608761 -0.793354 6.31524e-06
    outer loop
      vertex -4.32167 -6.05653 1.50326
      vertex -5.3033 -5.3033 1.5532
      vertex -4.99093 -5.54299 1.48105
    endloop
  endfacet
  facet normal -0.991444 -0.130533 0
    outer loop
      vertex -7.5 0 1.52222
      vertex -7.42354 -0.580739 10.8932
      vertex -7.5 0 10.8778
    endloop
  endfacet
  facet normal -0.991445 -0.130522 7.39118e-07
    outer loop
      vertex -7.38953 -0.839133 1.49994
      vertex -7.42354 -0.580739 10.8932
      vertex -7.5 0 1.52222
    endloop
  endfacet
  facet normal -0.991445 -0.130529 9.83927e-05
    outer loop
      vertex -7.24444 -1.94114 1.5532
      vertex -7.38953 -0.839133 1.49994
      vertex -7.29584 -1.55078 1.48105
    endloop
  endfacet
  facet normal -0.991444 -0.130533 -0
    outer loop
      vertex -7.24444 -1.94114 10.8468
      vertex -7.38953 -0.839133 1.49994
      vertex -7.24444 -1.94114 1.5532
    endloop
  endfacet
  facet normal -0.991445 -0.130526 8.64144e-07
    outer loop
      vertex -7.38953 -0.839133 1.49994
      vertex -7.24444 -1.94114 10.8468
      vertex -7.42354 -0.580739 10.8932
    endloop
  endfacet
  facet normal -0.991445 -0.130521 -0.00013805
    outer loop
      vertex -7.42354 -0.580739 10.8932
      vertex -7.24444 -1.94114 10.8468
      vertex -7.29584 -1.55078 10.9189
    endloop
  endfacet
  facet normal 0.38269 0.923877 -0
    outer loop
      vertex 3.75 6.49519 1.52222
      vertex 3.20884 6.71935 10.8932
      vertex 3.75 6.49519 10.8778
    endloop
  endfacet
  facet normal 0.382679 0.923881 -2.94982e-05
    outer loop
      vertex 3.20884 6.71935 10.8932
      vertex 1.94114 7.24444 10.8468
      vertex 2.3049 7.09377 10.9189
    endloop
  endfacet
  facet normal 0.382678 0.923882 -6.7564e-07
    outer loop
      vertex 3.20884 6.71935 10.8932
      vertex 2.96805 6.81908 1.49994
      vertex 1.94114 7.24444 10.8468
    endloop
  endfacet
  facet normal 0.382679 0.923881 -7.04848e-07
    outer loop
      vertex 3.20884 6.71935 10.8932
      vertex 3.75 6.49519 1.52222
      vertex 2.96805 6.81908 1.49994
    endloop
  endfacet
  facet normal 0.382683 0.92388 0
    outer loop
      vertex 1.94114 7.24444 10.8468
      vertex 2.96805 6.81908 1.49994
      vertex 1.94114 7.24444 1.5532
    endloop
  endfacet
  facet normal 0.382687 0.923878 7.46951e-05
    outer loop
      vertex 1.94114 7.24444 1.5532
      vertex 2.96805 6.81908 1.49994
      vertex 2.3049 7.09377 1.48105
    endloop
  endfacet
  facet normal -0.793352 0.608763 0
    outer loop
      vertex -5.3033 5.3033 1.5532
      vertex -5.41101 5.16293 10.8608
      vertex -5.3033 5.3033 10.8468
    endloop
  endfacet
  facet normal -0.793347 0.608769 1.6021e-07
    outer loop
      vertex -5.58559 4.93542 1.51662
      vertex -5.41101 5.16293 10.8608
      vertex -5.3033 5.3033 1.5532
    endloop
  endfacet
  facet normal -0.793353 0.608762 4.52526e-07
    outer loop
      vertex -6.49519 3.75 10.8365
      vertex -5.41101 5.16293 10.8608
      vertex -5.58559 4.93542 1.51662
    endloop
  endfacet
  facet normal -0.793356 0.608758 -4.72693e-05
    outer loop
      vertex -6.49519 3.75 1.56353
      vertex -5.58559 4.93542 1.51662
      vertex -6.01778 4.37217 1.46061
    endloop
  endfacet
  facet normal -0.793354 0.608761 1.14537e-05
    outer loop
      vertex -5.41101 5.16293 10.8608
      vertex -6.36383 3.92119 10.8648
      vertex -6.01778 4.37217 10.9394
    endloop
  endfacet
  facet normal -0.793355 0.608759 0
    outer loop
      vertex -6.49519 3.75 10.8365
      vertex -5.58559 4.93542 1.51662
      vertex -6.49519 3.75 1.56353
    endloop
  endfacet
  facet normal -0.793353 0.608761 3.78806e-05
    outer loop
      vertex -5.41101 5.16293 10.8608
      vertex -6.49519 3.75 10.8365
      vertex -6.36383 3.92119 10.8648
    endloop
  endfacet
  facet normal -0.923869 0.382708 0
    outer loop
      vertex -6.5284 3.66983 1.55215
      vertex -6.49519 3.75 10.8365
      vertex -6.49519 3.75 1.56353
    endloop
  endfacet
  facet normal -0.923879 0.382684 -7.58962e-05
    outer loop
      vertex -7.12256 2.2354 1.52807
      vertex -6.5284 3.66983 1.55215
      vertex -6.7953 3.02546 1.46061
    endloop
  endfacet
  facet normal -0.92388 0.382683 2.50684e-07
    outer loop
      vertex -6.5284 3.66983 1.55215
      vertex -7.12256 2.2354 1.52807
      vertex -6.49519 3.75 10.8365
    endloop
  endfacet
  facet normal -0.923878 0.382687 6.42085e-05
    outer loop
      vertex -6.49519 3.75 10.8365
      vertex -7.01768 2.4886 10.8935
      vertex -6.7953 3.02546 10.9394
    endloop
  endfacet
  facet normal -0.923879 0.382684 9.09196e-08
    outer loop
      vertex -6.49519 3.75 10.8365
      vertex -7.12256 2.2354 1.52807
      vertex -7.01768 2.4886 10.8935
    endloop
  endfacet
  facet normal -0.923887 0.382666 0
    outer loop
      vertex -7.24444 1.94114 10.8468
      vertex -7.12256 2.2354 1.52807
      vertex -7.24444 1.94114 1.5532
    endloop
  endfacet
  facet normal -0.923883 0.382676 3.56306e-07
    outer loop
      vertex -7.12256 2.2354 1.52807
      vertex -7.24444 1.94114 10.8468
      vertex -7.01768 2.4886 10.8935
    endloop
  endfacet
  facet normal -0.382688 0.923878 -8.38549e-05
    outer loop
      vertex -1.94114 7.24444 10.8468
      vertex -2.84729 6.8691 10.9035
      vertex -2.3049 7.09377 10.9189
    endloop
  endfacet
  facet normal -0.382684 0.923879 4.48605e-07
    outer loop
      vertex -3.08428 6.77094 1.50325
      vertex -2.84729 6.8691 10.9035
      vertex -1.94114 7.24444 10.8468
    endloop
  endfacet
  facet normal -0.382681 0.923881 0
    outer loop
      vertex -3.08428 6.77094 1.50325
      vertex -1.94114 7.24444 10.8468
      vertex -1.94114 7.24444 1.5532
    endloop
  endfacet
  facet normal -0.382679 0.923881 3.17849e-07
    outer loop
      vertex -2.84729 6.8691 10.9035
      vertex -3.08428 6.77094 1.50325
      vertex -3.75 6.49519 10.8778
    endloop
  endfacet
  facet normal -0.382683 0.92388 0
    outer loop
      vertex -3.75 6.49519 10.8778
      vertex -3.08428 6.77094 1.50325
      vertex -3.75 6.49519 1.52222
    endloop
  endfacet
  facet normal -0.382682 0.92388 4.96536e-05
    outer loop
      vertex -3.08428 6.77094 1.50325
      vertex -1.94114 7.24444 1.5532
      vertex -2.3049 7.09377 1.48105
    endloop
  endfacet
  facet normal 0.130526 -0.991445 -2.88109e-05
    outer loop
      vertex 0 -7.5 10.8365
      vertex 1.35365 -7.32179 10.8935
      vertex 0.777523 -7.39764 10.9394
    endloop
  endfacet
  facet normal 0.130525 -0.991445 2.46881e-07
    outer loop
      vertex 1.62537 -7.28602 1.52807
      vertex 1.35365 -7.32179 10.8935
      vertex 0 -7.5 10.8365
    endloop
  endfacet
  facet normal 0.130524 -0.991445 0
    outer loop
      vertex 1.62537 -7.28602 1.52807
      vertex 0 -7.5 10.8365
      vertex 0 -7.5 1.56354
    endloop
  endfacet
  facet normal 0.130535 -0.991444 5.46292e-07
    outer loop
      vertex 1.35365 -7.32179 10.8935
      vertex 1.62537 -7.28602 1.52807
      vertex 1.94114 -7.24444 10.8468
    endloop
  endfacet
  facet normal 0.130551 -0.991442 0
    outer loop
      vertex 1.94114 -7.24444 10.8468
      vertex 1.62537 -7.28602 1.52807
      vertex 1.94114 -7.24444 1.5532
    endloop
  endfacet
  facet normal 0.130524 -0.991445 1.06321e-05
    outer loop
      vertex 1.62537 -7.28602 1.52807
      vertex 0 -7.5 1.56354
      vertex 0.777523 -7.39764 1.46061
    endloop
  endfacet
  facet normal 0.608757 -0.793357 0
    outer loop
      vertex 3.75 -6.49519 1.52222
      vertex 4.21471 -6.13861 10.8932
      vertex 3.75 -6.49519 10.8778
    endloop
  endfacet
  facet normal 0.608765 -0.793351 2.04259e-05
    outer loop
      vertex 4.21471 -6.13861 10.8932
      vertex 5.3033 -5.3033 10.8468
      vertex 4.99093 -5.54299 10.9189
    endloop
  endfacet
  facet normal 0.608764 -0.793351 -5.43133e-07
    outer loop
      vertex 4.21471 -6.13861 10.8932
      vertex 4.42147 -5.97995 1.49995
      vertex 5.3033 -5.3033 10.8468
    endloop
  endfacet
  facet normal 0.608764 -0.793352 -5.54833e-07
    outer loop
      vertex 4.21471 -6.13861 10.8932
      vertex 3.75 -6.49519 1.52222
      vertex 4.42147 -5.97995 1.49995
    endloop
  endfacet
  facet normal 0.60876 -0.793354 0
    outer loop
      vertex 5.3033 -5.3033 10.8468
      vertex 4.42147 -5.97995 1.49995
      vertex 5.3033 -5.3033 1.5532
    endloop
  endfacet
  facet normal 0.60876 -0.793355 1.1349e-05
    outer loop
      vertex 5.3033 -5.3033 1.5532
      vertex 4.42147 -5.97995 1.49995
      vertex 4.99093 -5.54299 1.48105
    endloop
  endfacet
  facet normal -0.38269 -0.923877 0
    outer loop
      vertex -3.75 -6.49519 1.52222
      vertex -3.20884 -6.71935 10.8932
      vertex -3.75 -6.49519 10.8778
    endloop
  endfacet
  facet normal -0.382679 -0.923881 -2.94982e-05
    outer loop
      vertex -3.20884 -6.71935 10.8932
      vertex -1.94114 -7.24444 10.8468
      vertex -2.3049 -7.09377 10.9189
    endloop
  endfacet
  facet normal -0.382678 -0.923882 -6.7564e-07
    outer loop
      vertex -3.20884 -6.71935 10.8932
      vertex -2.96805 -6.81908 1.49994
      vertex -1.94114 -7.24444 10.8468
    endloop
  endfacet
  facet normal -0.382679 -0.923881 -7.04848e-07
    outer loop
      vertex -3.20884 -6.71935 10.8932
      vertex -3.75 -6.49519 1.52222
      vertex -2.96805 -6.81908 1.49994
    endloop
  endfacet
  facet normal -0.382683 -0.92388 -0
    outer loop
      vertex -1.94114 -7.24444 10.8468
      vertex -2.96805 -6.81908 1.49994
      vertex -1.94114 -7.24444 1.5532
    endloop
  endfacet
  facet normal -0.382687 -0.923878 7.46951e-05
    outer loop
      vertex -1.94114 -7.24444 1.5532
      vertex -2.96805 -6.81908 1.49994
      vertex -2.3049 -7.09377 1.48105
    endloop
  endfacet
  facet normal -0.923874 -0.382696 0
    outer loop
      vertex -7.24444 -1.94114 1.5532
      vertex -7.17673 -2.1046 10.8608
      vertex -7.24444 -1.94114 10.8468
    endloop
  endfacet
  facet normal -0.923882 -0.382678 3.84989e-07
    outer loop
      vertex -7.06699 -2.36955 1.51662
      vertex -7.17673 -2.1046 10.8608
      vertex -7.24444 -1.94114 1.5532
    endloop
  endfacet
  facet normal -0.923879 -0.382684 -4.37845e-05
    outer loop
      vertex -6.49519 -3.75 1.56353
      vertex -7.06699 -2.36955 1.51662
      vertex -6.7953 -3.02546 1.46061
    endloop
  endfacet
  facet normal -0.92388 -0.382683 -2.52589e-07
    outer loop
      vertex -6.57777 -3.55064 10.8648
      vertex -7.06699 -2.36955 1.51662
      vertex -6.49519 -3.75 1.56353
    endloop
  endfacet
  facet normal -0.923882 -0.382678 3.97493e-05
    outer loop
      vertex -7.17673 -2.1046 10.8608
      vertex -6.57777 -3.55064 10.8648
      vertex -6.7953 -3.02546 10.9394
    endloop
  endfacet
  facet normal -0.923882 -0.382678 4.11747e-07
    outer loop
      vertex -7.06699 -2.36955 1.51662
      vertex -6.57777 -3.55064 10.8648
      vertex -7.17673 -2.1046 10.8608
    endloop
  endfacet
  facet normal -0.923876 -0.382693 0
    outer loop
      vertex -6.57777 -3.55064 10.8648
      vertex -6.49519 -3.75 1.56353
      vertex -6.49519 -3.75 10.8365
    endloop
  endfacet
  facet normal 0.382688 -0.923878 -8.38549e-05
    outer loop
      vertex 1.94114 -7.24444 10.8468
      vertex 2.84729 -6.8691 10.9035
      vertex 2.3049 -7.09377 10.9189
    endloop
  endfacet
  facet normal 0.382684 -0.923879 4.48606e-07
    outer loop
      vertex 3.08428 -6.77094 1.50326
      vertex 2.84729 -6.8691 10.9035
      vertex 1.94114 -7.24444 10.8468
    endloop
  endfacet
  facet normal 0.382681 -0.923881 0
    outer loop
      vertex 3.08428 -6.77094 1.50326
      vertex 1.94114 -7.24444 10.8468
      vertex 1.94114 -7.24444 1.5532
    endloop
  endfacet
  facet normal 0.382679 -0.923881 3.1785e-07
    outer loop
      vertex 2.84729 -6.8691 10.9035
      vertex 3.08428 -6.77094 1.50326
      vertex 3.75 -6.49519 10.8778
    endloop
  endfacet
  facet normal 0.382683 -0.92388 0
    outer loop
      vertex 3.75 -6.49519 10.8778
      vertex 3.08428 -6.77094 1.50326
      vertex 3.75 -6.49519 1.52222
    endloop
  endfacet
  facet normal 0.382682 -0.92388 4.96508e-05
    outer loop
      vertex 3.08428 -6.77094 1.50326
      vertex 1.94114 -7.24444 1.5532
      vertex 2.3049 -7.09377 1.48105
    endloop
  endfacet
  facet normal 0.923887 -0.382666 0
    outer loop
      vertex 7.24444 -1.94114 10.8468
      vertex 7.12256 -2.2354 1.52807
      vertex 7.24444 -1.94114 1.5532
    endloop
  endfacet
  facet normal 0.923883 -0.382676 3.56306e-07
    outer loop
      vertex 7.01768 -2.4886 10.8935
      vertex 7.12256 -2.2354 1.52807
      vertex 7.24444 -1.94114 10.8468
    endloop
  endfacet
  facet normal 0.923878 -0.382687 6.42085e-05
    outer loop
      vertex 6.49519 -3.75 10.8365
      vertex 7.01768 -2.4886 10.8935
      vertex 6.7953 -3.02546 10.9394
    endloop
  endfacet
  facet normal 0.923879 -0.382684 9.09196e-08
    outer loop
      vertex 7.01768 -2.4886 10.8935
      vertex 6.49519 -3.75 10.8365
      vertex 7.12256 -2.2354 1.52807
    endloop
  endfacet
  facet normal 0.923879 -0.382684 -7.58962e-05
    outer loop
      vertex 7.12256 -2.2354 1.52807
      vertex 6.5284 -3.66983 1.55215
      vertex 6.7953 -3.02546 1.46061
    endloop
  endfacet
  facet normal 0.92388 -0.382683 2.50684e-07
    outer loop
      vertex 7.12256 -2.2354 1.52807
      vertex 6.49519 -3.75 10.8365
      vertex 6.5284 -3.66983 1.55215
    endloop
  endfacet
  facet normal 0.923869 -0.382708 0
    outer loop
      vertex 6.5284 -3.66983 1.55215
      vertex 6.49519 -3.75 10.8365
      vertex 6.49519 -3.75 1.56353
    endloop
  endfacet
  facet normal 0.991446 -0.130521 0
    outer loop
      vertex 7.5 0 10.8778
      vertex 7.40595 -0.714409 1.50326
      vertex 7.5 0 1.52222
    endloop
  endfacet
  facet normal 0.991444 -0.130531 7.77667e-07
    outer loop
      vertex 7.37246 -0.968725 10.9035
      vertex 7.40595 -0.714409 1.50326
      vertex 7.5 0 10.8778
    endloop
  endfacet
  facet normal 0.991444 -0.130532 7.44003e-07
    outer loop
      vertex 7.24444 -1.94114 1.5532
      vertex 7.40595 -0.714409 1.50326
      vertex 7.37246 -0.968725 10.9035
    endloop
  endfacet
  facet normal 0.991446 -0.130516 -0.000170356
    outer loop
      vertex 7.24444 -1.94114 10.8468
      vertex 7.37246 -0.968725 10.9035
      vertex 7.29584 -1.55078 10.9189
    endloop
  endfacet
  facet normal 0.991445 -0.130525 0
    outer loop
      vertex 7.24444 -1.94114 1.5532
      vertex 7.37246 -0.968725 10.9035
      vertex 7.24444 -1.94114 10.8468
    endloop
  endfacet
  facet normal 0.991445 -0.130528 9.95524e-05
    outer loop
      vertex 7.40595 -0.714409 1.50326
      vertex 7.24444 -1.94114 1.5532
      vertex 7.29584 -1.55078 1.48105
    endloop
  endfacet
  facet normal -0.130525 -0.991445 -1.75012e-05
    outer loop
      vertex -1.76573 -7.26754 10.8608
      vertex 0 -7.5 10.8365
      vertex -0.777523 -7.39764 10.9394
    endloop
  endfacet
  facet normal -0.130564 -0.99144 0
    outer loop
      vertex -1.94114 -7.24444 1.5532
      vertex -1.76573 -7.26754 10.8608
      vertex -1.94114 -7.24444 10.8468
    endloop
  endfacet
  facet normal -0.130525 -0.991445 -2.45144e-07
    outer loop
      vertex -1.76573 -7.26754 10.8608
      vertex -1.4814 -7.30497 1.51662
      vertex 0 -7.5 10.8365
    endloop
  endfacet
  facet normal -0.130535 -0.991444 -5.61414e-07
    outer loop
      vertex -1.76573 -7.26754 10.8608
      vertex -1.94114 -7.24444 1.5532
      vertex -1.4814 -7.30497 1.51662
    endloop
  endfacet
  facet normal -0.130526 -0.991445 -0
    outer loop
      vertex 0 -7.5 10.8365
      vertex -1.4814 -7.30497 1.51662
      vertex 0 -7.5 1.56354
    endloop
  endfacet
  facet normal -0.130527 -0.991445 3.59546e-05
    outer loop
      vertex 0 -7.5 1.56354
      vertex -1.4814 -7.30497 1.51662
      vertex -0.777523 -7.39764 1.46061
    endloop
  endfacet
  facet normal -0.793369 -0.608741 0
    outer loop
      vertex -6.44237 -3.81884 1.55215
      vertex -6.49519 -3.75 10.8365
      vertex -6.49519 -3.75 1.56353
    endloop
  endfacet
  facet normal -0.793353 -0.608762 -4.00598e-05
    outer loop
      vertex -5.49719 -5.05062 1.52807
      vertex -6.44237 -3.81884 1.55215
      vertex -6.01778 -4.37217 1.46061
    endloop
  endfacet
  facet normal -0.793353 -0.608762 2.47803e-07
    outer loop
      vertex -6.44237 -3.81884 1.55215
      vertex -5.49719 -5.05062 1.52807
      vertex -6.49519 -3.75 10.8365
    endloop
  endfacet
  facet normal -0.793354 -0.60876 3.04902e-05
    outer loop
      vertex -6.49519 -3.75 10.8365
      vertex -5.66403 -4.83319 10.8935
      vertex -6.01778 -4.37217 10.9394
    endloop
  endfacet
  facet normal -0.793354 -0.608761 -2.34954e-08
    outer loop
      vertex -6.49519 -3.75 10.8365
      vertex -5.49719 -5.05062 1.52807
      vertex -5.66403 -4.83319 10.8935
    endloop
  endfacet
  facet normal -0.793351 -0.608765 -0
    outer loop
      vertex -5.3033 -5.3033 10.8468
      vertex -5.49719 -5.05062 1.52807
      vertex -5.3033 -5.3033 1.5532
    endloop
  endfacet
  facet normal -0.793352 -0.608763 6.70965e-08
    outer loop
      vertex -5.49719 -5.05062 1.52807
      vertex -5.3033 -5.3033 10.8468
      vertex -5.66403 -4.83319 10.8935
    endloop
  endfacet
  facet normal -0.974928 -0.222519 0
    outer loop
      vertex 4.25 0 0
      vertex 3.82912 1.84401 12.4
      vertex 3.82912 1.84401 0
    endloop
  endfacet
  facet normal -0.974928 -0.222519 0
    outer loop
      vertex 3.82912 1.84401 12.4
      vertex 4.25 0 0
      vertex 4.25 0 12.4
    endloop
  endfacet
  facet normal 0.974928 -0.222519 0
    outer loop
      vertex -4.25 0 12.4
      vertex -3.82912 1.84401 0
      vertex -3.82912 1.84401 12.4
    endloop
  endfacet
  facet normal 0.974928 -0.222519 0
    outer loop
      vertex -3.82912 1.84401 0
      vertex -4.25 0 12.4
      vertex -4.25 0 0
    endloop
  endfacet
  facet normal 0.974928 0.222519 0
    outer loop
      vertex -3.82912 -1.84401 12.4
      vertex -4.25 0 0
      vertex -4.25 0 12.4
    endloop
  endfacet
  facet normal 0.974928 0.222519 0
    outer loop
      vertex -4.25 0 0
      vertex -3.82912 -1.84401 12.4
      vertex -3.82912 -1.84401 0
    endloop
  endfacet
  facet normal 0 -1 0
    outer loop
      vertex -0.945713 4.14344 0
      vertex 0.945713 4.14344 12.4
      vertex -0.945713 4.14344 12.4
    endloop
  endfacet
  facet normal 0 -1 -0
    outer loop
      vertex 0.945713 4.14344 12.4
      vertex -0.945713 4.14344 0
      vertex 0.945713 4.14344 0
    endloop
  endfacet
  facet normal -0.781829 -0.623493 0
    outer loop
      vertex 3.82912 1.84401 0
      vertex 2.64983 3.32278 12.4
      vertex 2.64983 3.32278 0
    endloop
  endfacet
  facet normal -0.781829 -0.623493 0
    outer loop
      vertex 2.64983 3.32278 12.4
      vertex 3.82912 1.84401 0
      vertex 3.82912 1.84401 12.4
    endloop
  endfacet
  facet normal 0.433884 -0.900969 0
    outer loop
      vertex -2.64983 3.32278 0
      vertex -0.945713 4.14344 12.4
      vertex -2.64983 3.32278 12.4
    endloop
  endfacet
  facet normal 0.433884 -0.900969 0
    outer loop
      vertex -0.945713 4.14344 12.4
      vertex -2.64983 3.32278 0
      vertex -0.945713 4.14344 0
    endloop
  endfacet
  facet normal -0.433884 -0.900969 0
    outer loop
      vertex 0.945713 4.14344 0
      vertex 2.64983 3.32278 12.4
      vertex 0.945713 4.14344 12.4
    endloop
  endfacet
  facet normal -0.433884 -0.900969 -0
    outer loop
      vertex 2.64983 3.32278 12.4
      vertex 0.945713 4.14344 0
      vertex 2.64983 3.32278 0
    endloop
  endfacet
  facet normal 0.781829 -0.623493 0
    outer loop
      vertex -3.82912 1.84401 12.4
      vertex -2.64983 3.32278 0
      vertex -2.64983 3.32278 12.4
    endloop
  endfacet
  facet normal 0.781829 -0.623493 0
    outer loop
      vertex -2.64983 3.32278 0
      vertex -3.82912 1.84401 12.4
      vertex -3.82912 1.84401 0
    endloop
  endfacet
  facet normal 0.433884 0.900969 -0
    outer loop
      vertex -0.945713 -4.14344 0
      vertex -2.64983 -3.32278 12.4
      vertex -0.945713 -4.14344 12.4
    endloop
  endfacet
  facet normal 0.433884 0.900969 0
    outer loop
      vertex -2.64983 -3.32278 12.4
      vertex -0.945713 -4.14344 0
      vertex -2.64983 -3.32278 0
    endloop
  endfacet
  facet normal 0.781829 0.623493 0
    outer loop
      vertex -2.64983 -3.32278 12.4
      vertex -3.82912 -1.84401 0
      vertex -3.82912 -1.84401 12.4
    endloop
  endfacet
  facet normal 0.781829 0.623493 0
    outer loop
      vertex -3.82912 -1.84401 0
      vertex -2.64983 -3.32278 12.4
      vertex -2.64983 -3.32278 0
    endloop
  endfacet
  facet normal -0.433884 0.900969 0
    outer loop
      vertex 2.64983 -3.32278 0
      vertex 0.945713 -4.14344 12.4
      vertex 2.64983 -3.32278 12.4
    endloop
  endfacet
  facet normal -0.433884 0.900969 0
    outer loop
      vertex 0.945713 -4.14344 12.4
      vertex 2.64983 -3.32278 0
      vertex 0.945713 -4.14344 0
    endloop
  endfacet
  facet normal -0.781829 0.623493 0
    outer loop
      vertex 2.64983 -3.32278 0
      vertex 3.82912 -1.84401 12.4
      vertex 3.82912 -1.84401 0
    endloop
  endfacet
  facet normal -0.781829 0.623493 0
    outer loop
      vertex 3.82912 -1.84401 12.4
      vertex 2.64983 -3.32278 0
      vertex 2.64983 -3.32278 12.4
    endloop
  endfacet
  facet normal -0.974928 0.222519 0
    outer loop
      vertex 3.82912 -1.84401 0
      vertex 4.25 0 12.4
      vertex 4.25 0 0
    endloop
  endfacet
  facet normal -0.974928 0.222519 0
    outer loop
      vertex 4.25 0 12.4
      vertex 3.82912 -1.84401 0
      vertex 3.82912 -1.84401 12.4
    endloop
  endfacet
  facet normal 0 1 -0
    outer loop
      vertex 0.945713 -4.14344 0
      vertex -0.945713 -4.14344 12.4
      vertex 0.945713 -4.14344 12.4
    endloop
  endfacet
  facet normal 0 1 0
    outer loop
      vertex -0.945713 -4.14344 12.4
      vertex 0.945713 -4.14344 0
      vertex -0.945713 -4.14344 0
    endloop
  endfacet
endsolid OpenSCAD_Model
