solid OpenSCAD_Model
  facet normal -0.93358 0.358368 -2.3333e-09
    outer loop
      vertex -5.9 2.76665 -16.0388
      vertex -1.46809 14.3122 -14.784
      vertex -3.90888 7.9537 -21.5949
    endloop
  endfacet
  facet normal -0.93358 0.358368 0
    outer loop
      vertex -1.46809 14.3122 -14.784
      vertex -5.9 2.76665 -16.0388
      vertex -5.9 2.76665 -2.41707
    endloop
  endfacet
  facet normal 0.93358 -0.358368 -7.30066e-08
    outer loop
      vertex -2.15628 4.14808 -5.04837
      vertex 0.437327 10.9047 -14.784
      vertex 1.33265 13.2371 -14.784
    endloop
  endfacet
  facet normal 0.93358 -0.358368 0
    outer loop
      vertex 0.437327 10.9047 -14.784
      vertex -2.15628 4.14808 -5.04837
      vertex -2.15628 4.14808 -14.784
    endloop
  endfacet
  facet normal 0.93358 -0.358368 -1.11365e-08
    outer loop
      vertex 1.33265 13.2371 -14.784
      vertex 0.437327 10.9047 -14.784
      vertex 0.437327 10.9047 -17.2823
    endloop
  endfacet
  facet normal 0.253404 0.660141 0.707107
    outer loop
      vertex -1.46809 14.3122 -14.784
      vertex -2.15628 4.14808 -5.04837
      vertex 1.33265 13.2371 -14.784
    endloop
  endfacet
  facet normal 0.253405 0.660141 0.707107
    outer loop
      vertex -1.46809 14.3122 -14.784
      vertex -2.4724 4.07961 -4.87116
      vertex -2.15628 4.14808 -5.04837
    endloop
  endfacet
  facet normal 0.253404 0.660141 0.707107
    outer loop
      vertex -1.46809 14.3122 -14.784
      vertex -3.3 3.81051 -4.32335
      vertex -2.4724 4.07961 -4.87116
    endloop
  endfacet
  facet normal 0.253404 0.660141 0.707107
    outer loop
      vertex -1.46809 14.3122 -14.784
      vertex -4.06336 3.46725 -3.72932
      vertex -3.3 3.81051 -4.32335
    endloop
  endfacet
  facet normal 0.253404 0.660141 0.707107
    outer loop
      vertex -5.9 2.76665 -2.41707
      vertex -4.06336 3.46725 -3.72932
      vertex -1.46809 14.3122 -14.784
    endloop
  endfacet
  facet normal 0.253405 0.660141 0.707107
    outer loop
      vertex -4.06336 3.46725 -3.72932
      vertex -5.9 2.76665 -2.41707
      vertex -4.74764 3.0565 -3.10063
    endloop
  endfacet
  facet normal 0.253404 0.660141 0.707107
    outer loop
      vertex -4.74764 3.0565 -3.10063
      vertex -5.9 2.76665 -2.41707
      vertex -5.33951 2.58626 -2.44951
    endloop
  endfacet
  facet normal 0.253404 0.660141 0.707107
    outer loop
      vertex -5.33951 2.58626 -2.44951
      vertex -5.9 2.76665 -2.41707
      vertex -5.82745 2.06567 -1.78865
    endloop
  endfacet
  facet normal 0.253404 0.660141 0.707107
    outer loop
      vertex -5.9 2.03457 -1.73361
      vertex -5.82745 2.06567 -1.78865
      vertex -5.9 2.76665 -2.41707
    endloop
  endfacet
  facet normal 0.253406 0.660139 0.707108
    outer loop
      vertex -5.82745 2.06567 -1.78865
      vertex -5.9 2.03457 -1.73361
      vertex -5.85879 2.01875 -1.73361
    endloop
  endfacet
  facet normal -0.35837 -0.93358 0
    outer loop
      vertex -5.9 2.03457 -14.784
      vertex -5.85879 2.01875 -1.73361
      vertex -5.9 2.03457 -1.73361
    endloop
  endfacet
  facet normal -0.35837 -0.93358 -0
    outer loop
      vertex -5.85879 2.01875 -1.73361
      vertex -5.9 2.03457 -14.784
      vertex -5.85879 2.01875 -14.784
    endloop
  endfacet
  facet normal -1 0 0
    outer loop
      vertex 3.6 3.68267 -22.4
      vertex 3.6 19.1437 -14.784
      vertex 3.6 19.1437 -22.4
    endloop
  endfacet
  facet normal -1 -0 0
    outer loop
      vertex 3.6 19.1437 -14.784
      vertex 3.6 3.68267 -22.4
      vertex 3.6 3.68267 -14.784
    endloop
  endfacet
  facet normal 0 0 -1
    outer loop
      vertex 6.6 6.10352e-07 -22.4
      vertex 6.53577 0.612361 -22.4
      vertex 6.6 27.515 -22.4
    endloop
  endfacet
  facet normal 0 0 -1
    outer loop
      vertex 6.34433 1.2128 -22.4
      vertex 6.6 27.515 -22.4
      vertex 6.53577 0.612361 -22.4
    endloop
  endfacet
  facet normal 0 0 -1
    outer loop
      vertex 3.6 19.1437 -22.4
      vertex 6.34433 1.2128 -22.4
      vertex 6.0294 1.78964 -22.4
    endloop
  endfacet
  facet normal 0 0 -1
    outer loop
      vertex 3.6 19.1437 -22.4
      vertex 6.0294 1.78964 -22.4
      vertex 5.59712 2.33164 -22.4
    endloop
  endfacet
  facet normal 0 0 -1
    outer loop
      vertex 3.6 19.1437 -22.4
      vertex 5.59712 2.33164 -22.4
      vertex 5.05589 2.82827 -22.4
    endloop
  endfacet
  facet normal 0 0 -1
    outer loop
      vertex 3.6 19.1437 -22.4
      vertex 5.05589 2.82827 -22.4
      vertex 4.41626 3.26984 -22.4
    endloop
  endfacet
  facet normal 0 0 -1
    outer loop
      vertex 3.6 19.1437 -22.4
      vertex 4.41626 3.26984 -22.4
      vertex 3.69067 3.64777 -22.4
    endloop
  endfacet
  facet normal 0 0 -1
    outer loop
      vertex 3.6 19.1437 -22.4
      vertex 3.69067 3.64777 -22.4
      vertex 3.6 3.68267 -22.4
    endloop
  endfacet
  facet normal 0 0 -1
    outer loop
      vertex 6.34433 1.2128 -22.4
      vertex 3.6 19.1437 -22.4
      vertex 6.6 27.515 -22.4
    endloop
  endfacet
  facet normal 0 0 -1
    outer loop
      vertex 3.6 19.1437 -22.4
      vertex 3.6 27.515 -22.4
      vertex 6.6 27.515 -22.4
    endloop
  endfacet
  facet normal 0 0 -1
    outer loop
      vertex -2.4724 4.07961 -22.4
      vertex 3.6 19.1437 -22.4
      vertex -2.15628 4.14808 -22.4
    endloop
  endfacet
  facet normal 0 0 -1
    outer loop
      vertex -3.3 3.81051 -22.4
      vertex 3.6 19.1437 -22.4
      vertex -2.4724 4.07961 -22.4
    endloop
  endfacet
  facet normal 0 0 -1
    outer loop
      vertex -4.06336 3.46725 -22.4
      vertex 3.6 19.1437 -22.4
      vertex -3.3 3.81051 -22.4
    endloop
  endfacet
  facet normal 0 0 -1
    outer loop
      vertex -5.9 2.76665 -22.4
      vertex 3.6 19.1437 -22.4
      vertex -4.06336 3.46725 -22.4
    endloop
  endfacet
  facet normal 0 0 -1
    outer loop
      vertex -5.9 2.76665 -22.4
      vertex -4.06336 3.46725 -22.4
      vertex -4.74764 3.0565 -22.4
    endloop
  endfacet
  facet normal 0 0 -1
    outer loop
      vertex -5.9 2.76665 -22.4
      vertex -4.74764 3.0565 -22.4
      vertex -5.33951 2.58626 -22.4
    endloop
  endfacet
  facet normal 0 0 -1
    outer loop
      vertex -5.9 2.76665 -22.4
      vertex -5.33951 2.58626 -22.4
      vertex -5.82745 2.06567 -22.4
    endloop
  endfacet
  facet normal 0 0 -1
    outer loop
      vertex -5.9 2.76665 -22.4
      vertex -5.82745 2.06567 -22.4
      vertex -5.9 1.95705 -22.4
    endloop
  endfacet
  facet normal -0 0 -1
    outer loop
      vertex 3.6 19.1437 -22.4
      vertex -5.9 2.76665 -22.4
      vertex 3.6 27.515 -22.4
    endloop
  endfacet
  facet normal 1 0 0
    outer loop
      vertex 6.6 6.10352e-07 -22.4
      vertex 6.6 19.899 -14.784
      vertex 6.6 6.10352e-07 -14.784
    endloop
  endfacet
  facet normal 1 0 0
    outer loop
      vertex 6.6 19.899 -14.784
      vertex 6.6 6.10352e-07 -22.4
      vertex 6.6 27.515 -22.4
    endloop
  endfacet
  facet normal 0 0 1
    outer loop
      vertex -5.85879 2.01875 -14.784
      vertex -5.9 2.03457 -14.784
      vertex -5.9 1.95705 -14.784
    endloop
  endfacet
  facet normal -0 0 1
    outer loop
      vertex 6.53577 0.612361 -14.784
      vertex 6.6 6.10352e-07 -14.784
      vertex 6.6 19.899 -14.784
    endloop
  endfacet
  facet normal 0 0 1
    outer loop
      vertex 6.6 19.899 -14.784
      vertex 6.34433 1.2128 -14.784
      vertex 6.53577 0.612361 -14.784
    endloop
  endfacet
  facet normal 0 0 1
    outer loop
      vertex 6.6 19.899 -14.784
      vertex 6.0294 1.78964 -14.784
      vertex 6.34433 1.2128 -14.784
    endloop
  endfacet
  facet normal 0 0 1
    outer loop
      vertex 6.6 19.899 -14.784
      vertex 5.59712 2.33164 -14.784
      vertex 6.0294 1.78964 -14.784
    endloop
  endfacet
  facet normal 0 0 1
    outer loop
      vertex 6.6 19.899 -14.784
      vertex 5.05589 2.82827 -14.784
      vertex 5.59712 2.33164 -14.784
    endloop
  endfacet
  facet normal 0 0 1
    outer loop
      vertex 6.6 19.899 -14.784
      vertex 4.41626 3.26984 -14.784
      vertex 5.05589 2.82827 -14.784
    endloop
  endfacet
  facet normal 0 0 1
    outer loop
      vertex 6.6 19.899 -14.784
      vertex 3.69067 3.64777 -14.784
      vertex 4.41626 3.26984 -14.784
    endloop
  endfacet
  facet normal 0 0 1
    outer loop
      vertex 6.6 19.899 -14.784
      vertex 3.6 19.1437 -14.784
      vertex 3.69067 3.64777 -14.784
    endloop
  endfacet
  facet normal -0 0 1
    outer loop
      vertex 0.676491 19.899 -14.784
      vertex 3.6 19.1437 -14.784
      vertex 6.6 19.899 -14.784
    endloop
  endfacet
  facet normal 0 0 1
    outer loop
      vertex 0.676491 19.899 -14.784
      vertex 1.33265 13.2371 -14.784
      vertex 3.6 19.1437 -14.784
    endloop
  endfacet
  facet normal 0 0 1
    outer loop
      vertex 1.33265 13.2371 -14.784
      vertex 0.676491 19.899 -14.784
      vertex -1.46809 14.3122 -14.784
    endloop
  endfacet
  facet normal 0 0 1
    outer loop
      vertex 3.69067 3.64777 -14.784
      vertex 3.6 19.1437 -14.784
      vertex 3.6 3.68267 -14.784
    endloop
  endfacet
  facet normal 0.93358 -0.358368 -1.11365e-08
    outer loop
      vertex 0.437327 10.9047 -14.784
      vertex -2.15628 4.14808 -14.784
      vertex 0.437327 10.9047 -17.2823
    endloop
  endfacet
  facet normal 0.93358 -0.358368 0
    outer loop
      vertex 1.33265 13.2371 -14.784
      vertex 3.6 19.1437 -22.4
      vertex 3.6 19.1437 -14.784
    endloop
  endfacet
  facet normal 0.93358 -0.358368 -4.06318e-08
    outer loop
      vertex 0.437327 10.9047 -17.2823
      vertex 3.6 19.1437 -22.4
      vertex 1.33265 13.2371 -14.784
    endloop
  endfacet
  facet normal 0.93358 -0.358368 0
    outer loop
      vertex -2.15628 4.14808 -22.4
      vertex 0.437327 10.9047 -17.2823
      vertex -2.15628 4.14808 -14.784
    endloop
  endfacet
  facet normal 0.93358 -0.358368 3.80695e-08
    outer loop
      vertex 0.437327 10.9047 -17.2823
      vertex -2.15628 4.14808 -22.4
      vertex 3.6 19.1437 -22.4
    endloop
  endfacet
  facet normal -0.93358 0.358368 -4.77404e-09
    outer loop
      vertex -3.90888 7.9537 -21.5949
      vertex 0.676491 19.899 -14.784
      vertex 3.6 27.515 -22.4
    endloop
  endfacet
  facet normal -0.93358 0.358368 7.99225e-08
    outer loop
      vertex 0.676491 19.899 -14.784
      vertex -3.90888 7.9537 -21.5949
      vertex -1.46809 14.3122 -14.784
    endloop
  endfacet
  facet normal -0.93358 0.358368 -4.24058e-08
    outer loop
      vertex -5.9 2.76665 -22.4
      vertex -3.90888 7.9537 -21.5949
      vertex 3.6 27.515 -22.4
    endloop
  endfacet
  facet normal -0.93358 0.358368 0
    outer loop
      vertex -3.90888 7.9537 -21.5949
      vertex -5.9 2.76665 -22.4
      vertex -5.9 2.76665 -16.0388
    endloop
  endfacet
  facet normal -0 0.707107 0.707107
    outer loop
      vertex 3.6 27.515 -22.4
      vertex 6.6 19.899 -14.784
      vertex 6.6 27.515 -22.4
    endloop
  endfacet
  facet normal 0 0.707107 0.707107
    outer loop
      vertex 6.6 19.899 -14.784
      vertex 3.6 27.515 -22.4
      vertex 0.676491 19.899 -14.784
    endloop
  endfacet
  facet normal 0.994544 -0.104318 1.30807e-17
    outer loop
      vertex 6.53577 -0.612361 7.49926e-17
      vertex 6.6 -2.74321e-15 -22.4
      vertex 6.6 0 0
    endloop
  endfacet
  facet normal 0.994544 -0.104318 0
    outer loop
      vertex 6.6 -2.74321e-15 -22.4
      vertex 6.53577 -0.612361 7.49926e-17
      vertex 6.53577 -0.612361 -22.4
    endloop
  endfacet
  facet normal -0.0232743 -0.999729 0
    outer loop
      vertex -0.689887 -4.3759 -22.4
      vertex 0.230336 -4.39732 5.38516e-16
      vertex -0.689887 -4.3759 5.35893e-16
    endloop
  endfacet
  facet normal -0.0232743 -0.999729 -0
    outer loop
      vertex 0.230336 -4.39732 5.38516e-16
      vertex -0.689887 -4.3759 -22.4
      vertex 0.230336 -4.39732 -22.4
    endloop
  endfacet
  facet normal 0.0698977 0.997554 -0
    outer loop
      vertex 1.14608 4.33315 -22.4
      vertex 0.230336 4.39732 -5.38516e-16
      vertex 1.14608 4.33315 -5.30658e-16
    endloop
  endfacet
  facet normal 0.0698977 0.997554 0
    outer loop
      vertex 0.230336 4.39732 -5.38516e-16
      vertex 1.14608 4.33315 -22.4
      vertex 0.230336 4.39732 -22.4
    endloop
  endfacet
  facet normal 0.461952 -0.886905 0
    outer loop
      vertex 3.69067 -3.64777 -22.4
      vertex 4.41626 -3.26984 4.00439e-16
      vertex 3.69067 -3.64777 4.46722e-16
    endloop
  endfacet
  facet normal 0.461952 -0.886905 0
    outer loop
      vertex 4.41626 -3.26984 4.00439e-16
      vertex 3.69067 -3.64777 -22.4
      vertex 4.41626 -3.26984 -22.4
    endloop
  endfacet
  facet normal -0.514665 -0.857391 0
    outer loop
      vertex -4.74764 -3.0565 -22.4
      vertex -4.06336 -3.46725 4.24615e-16
      vertex -4.74764 -3.0565 3.74313e-16
    endloop
  endfacet
  facet normal -0.514665 -0.857391 -0
    outer loop
      vertex -4.06336 -3.46725 4.24615e-16
      vertex -4.74764 -3.0565 -22.4
      vertex -4.06336 -3.46725 -22.4
    endloop
  endfacet
  facet normal -0.211703 -0.977334 0
    outer loop
      vertex -2.4724 -4.07961 -22.4
      vertex -1.59668 -4.2693 5.22838e-16
      vertex -2.4724 -4.07961 4.99608e-16
    endloop
  endfacet
  facet normal -0.211703 -0.977334 -0
    outer loop
      vertex -1.59668 -4.2693 5.22838e-16
      vertex -2.4724 -4.07961 -22.4
      vertex -1.59668 -4.2693 -22.4
    endloop
  endfacet
  facet normal 0.676093 0.736816 -0
    outer loop
      vertex 5.59712 2.33164 -14.784
      vertex 5.05589 2.82827 -3.46363e-16
      vertex 5.59712 2.33164 -2.85544e-16
    endloop
  endfacet
  facet normal 0.676093 0.736816 0
    outer loop
      vertex 5.05589 2.82827 -3.46363e-16
      vertex 5.59712 2.33164 -14.784
      vertex 5.05589 2.82827 -14.784
    endloop
  endfacet
  facet normal 0.781797 -0.623533 0
    outer loop
      vertex 5.59712 -2.33164 2.85544e-16
      vertex 6.0294 -1.78964 -22.4
      vertex 6.0294 -1.78964 2.19168e-16
    endloop
  endfacet
  facet normal 0.781797 -0.623533 0
    outer loop
      vertex 6.0294 -1.78964 -22.4
      vertex 5.59712 -2.33164 2.85544e-16
      vertex 5.59712 -2.33164 -22.4
    endloop
  endfacet
  facet normal 0.952746 -0.303768 0
    outer loop
      vertex 6.34433 -1.2128 1.48526e-16
      vertex 6.53577 -0.612361 -22.4
      vertex 6.53577 -0.612361 7.49926e-17
    endloop
  endfacet
  facet normal 0.952746 -0.303768 0
    outer loop
      vertex 6.53577 -0.612361 -22.4
      vertex 6.34433 -1.2128 1.48526e-16
      vertex 6.34433 -1.2128 -22.4
    endloop
  endfacet
  facet normal 0.676093 -0.736816 0
    outer loop
      vertex 5.05589 -2.82827 -22.4
      vertex 5.59712 -2.33164 2.85544e-16
      vertex 5.05589 -2.82827 3.46363e-16
    endloop
  endfacet
  facet normal 0.676093 -0.736816 0
    outer loop
      vertex 5.59712 -2.33164 2.85544e-16
      vertex 5.05589 -2.82827 -22.4
      vertex 5.59712 -2.33164 -22.4
    endloop
  endfacet
  facet normal 0.260081 -0.965587 0
    outer loop
      vertex 2.03951 -4.18465 -22.4
      vertex 2.89325 -3.95469 4.8431e-16
      vertex 2.03951 -4.18465 5.12472e-16
    endloop
  endfacet
  facet normal 0.260081 -0.965587 0
    outer loop
      vertex 2.89325 -3.95469 4.8431e-16
      vertex 2.03951 -4.18465 -22.4
      vertex 2.89325 -3.95469 -22.4
    endloop
  endfacet
  facet normal 0.163969 -0.986466 0
    outer loop
      vertex 1.14608 -4.33315 -22.4
      vertex 2.03951 -4.18465 5.12472e-16
      vertex 1.14608 -4.33315 5.30658e-16
    endloop
  endfacet
  facet normal 0.163969 -0.986466 0
    outer loop
      vertex 2.03951 -4.18465 5.12472e-16
      vertex 1.14608 -4.33315 -22.4
      vertex 2.03951 -4.18465 -22.4
    endloop
  endfacet
  facet normal 0.359211 -0.933256 0
    outer loop
      vertex 2.89325 -3.95469 -22.4
      vertex 3.69067 -3.64777 4.46722e-16
      vertex 2.89325 -3.95469 4.8431e-16
    endloop
  endfacet
  facet normal 0.359211 -0.933256 0
    outer loop
      vertex 3.69067 -3.64777 4.46722e-16
      vertex 2.89325 -3.95469 -22.4
      vertex 3.69067 -3.64777 -22.4
    endloop
  endfacet
  facet normal -0.831598 -0.555378 0
    outer loop
      vertex -5.82745 -2.06567 -22.4
      vertex -5.9 -1.95705 2.39669e-16
      vertex -5.9 -1.95705 -22.4
    endloop
  endfacet
  facet normal -0.831598 -0.555378 0
    outer loop
      vertex -5.9 -1.95705 2.39669e-16
      vertex -5.82745 -2.06567 -22.4
      vertex -5.82745 -2.06567 2.52972e-16
    endloop
  endfacet
  facet normal -0.622067 -0.782964 0
    outer loop
      vertex -5.33951 -2.58626 -22.4
      vertex -4.74764 -3.0565 3.74313e-16
      vertex -5.33951 -2.58626 3.16725e-16
    endloop
  endfacet
  facet normal -0.622067 -0.782964 -0
    outer loop
      vertex -4.74764 -3.0565 3.74313e-16
      vertex -5.33951 -2.58626 -22.4
      vertex -4.74764 -3.0565 -22.4
    endloop
  endfacet
  facet normal 0 0 -1
    outer loop
      vertex 4.3 -2.74321e-15 -22.4
      vertex 6.6 -2.74321e-15 -22.4
      vertex 6.53577 -0.612361 -22.4
    endloop
  endfacet
  facet normal 0 0 -1
    outer loop
      vertex 4.3 -2.74321e-15 -22.4
      vertex 6.53577 -0.612361 -22.4
      vertex 6.34433 -1.2128 -22.4
    endloop
  endfacet
  facet normal 0 0 -1
    outer loop
      vertex 6.6 -2.74321e-15 -22.4
      vertex 4.3 -2.74321e-15 -22.4
      vertex 6.53577 0.612361 -22.4
    endloop
  endfacet
  facet normal 0 0 -1
    outer loop
      vertex 4.14338 -0.988853 -22.4
      vertex 6.34433 -1.2128 -22.4
      vertex 6.0294 -1.78964 -22.4
    endloop
  endfacet
  facet normal -0 0 -1
    outer loop
      vertex 6.53577 0.612361 -22.4
      vertex 4.3 -2.74321e-15 -22.4
      vertex 6.34433 1.2128 -22.4
    endloop
  endfacet
  facet normal 0 0 -1
    outer loop
      vertex 4.14338 -0.988853 -22.4
      vertex 6.0294 -1.78964 -22.4
      vertex 5.59712 -2.33164 -22.4
    endloop
  endfacet
  facet normal 0 0 -1
    outer loop
      vertex 4.14338 0.988853 -22.4
      vertex 6.34433 1.2128 -22.4
      vertex 4.3 -2.74321e-15 -22.4
    endloop
  endfacet
  facet normal 0 0 -1
    outer loop
      vertex 3.68885 -1.88091 -22.4
      vertex 5.59712 -2.33164 -22.4
      vertex 5.05589 -2.82827 -22.4
    endloop
  endfacet
  facet normal -0 0 -1
    outer loop
      vertex 6.34433 1.2128 -22.4
      vertex 4.14338 0.988853 -22.4
      vertex 6.0294 1.78964 -22.4
    endloop
  endfacet
  facet normal 0 0 -1
    outer loop
      vertex 3.68885 -1.88091 -22.4
      vertex 5.05589 -2.82827 -22.4
      vertex 4.41626 -3.26984 -22.4
    endloop
  endfacet
  facet normal -0 0 -1
    outer loop
      vertex 6.0294 1.78964 -22.4
      vertex 4.14338 0.988853 -22.4
      vertex 5.59712 2.33164 -22.4
    endloop
  endfacet
  facet normal 0 0 -1
    outer loop
      vertex 3.68885 1.88091 -22.4
      vertex 5.59712 2.33164 -22.4
      vertex 4.14338 0.988853 -22.4
    endloop
  endfacet
  facet normal 0 0 -1
    outer loop
      vertex 6.34433 -1.2128 -22.4
      vertex 4.14338 -0.988853 -22.4
      vertex 4.3 -2.74321e-15 -22.4
    endloop
  endfacet
  facet normal 0 0 -1
    outer loop
      vertex 2.98091 -2.58885 -22.4
      vertex 4.41626 -3.26984 -22.4
      vertex 3.69067 -3.64777 -22.4
    endloop
  endfacet
  facet normal 0 0 -1
    outer loop
      vertex 5.59712 -2.33164 -22.4
      vertex 3.68885 -1.88091 -22.4
      vertex 4.14338 -0.988853 -22.4
    endloop
  endfacet
  facet normal 0 0 -1
    outer loop
      vertex 4.41626 -3.26984 -22.4
      vertex 2.98091 -2.58885 -22.4
      vertex 3.68885 -1.88091 -22.4
    endloop
  endfacet
  facet normal 0 0 -1
    outer loop
      vertex 2.89325 -3.95469 -22.4
      vertex 2.98091 -2.58885 -22.4
      vertex 3.69067 -3.64777 -22.4
    endloop
  endfacet
  facet normal 0 0 -1
    outer loop
      vertex 2.89325 -3.95469 -22.4
      vertex 2.08885 -3.04338 -22.4
      vertex 2.98091 -2.58885 -22.4
    endloop
  endfacet
  facet normal 0 0 -1
    outer loop
      vertex 2.03951 -4.18465 -22.4
      vertex 2.08885 -3.04338 -22.4
      vertex 2.89325 -3.95469 -22.4
    endloop
  endfacet
  facet normal 0 0 -1
    outer loop
      vertex 1.1 -3.2 -22.4
      vertex 2.03951 -4.18465 -22.4
      vertex 1.14608 -4.33315 -22.4
    endloop
  endfacet
  facet normal 0 0 -1
    outer loop
      vertex 2.03951 -4.18465 -22.4
      vertex 1.1 -3.2 -22.4
      vertex 2.08885 -3.04338 -22.4
    endloop
  endfacet
  facet normal 0 0 -1
    outer loop
      vertex 0.230336 -4.39732 -22.4
      vertex 1.1 -3.2 -22.4
      vertex 1.14608 -4.33315 -22.4
    endloop
  endfacet
  facet normal 0 0 -1
    outer loop
      vertex 0.230336 -4.39732 -22.4
      vertex 0.111145 -3.04338 -22.4
      vertex 1.1 -3.2 -22.4
    endloop
  endfacet
  facet normal 0 0 -1
    outer loop
      vertex -0.689887 -4.3759 -22.4
      vertex 0.111145 -3.04338 -22.4
      vertex 0.230336 -4.39732 -22.4
    endloop
  endfacet
  facet normal 0 0 -1
    outer loop
      vertex -0.689887 -4.3759 -22.4
      vertex -0.780912 -2.58885 -22.4
      vertex 0.111145 -3.04338 -22.4
    endloop
  endfacet
  facet normal 0 0 -1
    outer loop
      vertex -1.59668 -4.2693 -22.4
      vertex -0.780912 -2.58885 -22.4
      vertex -0.689887 -4.3759 -22.4
    endloop
  endfacet
  facet normal 0 0 -1
    outer loop
      vertex -2.4724 -4.07961 -22.4
      vertex -0.780912 -2.58885 -22.4
      vertex -1.59668 -4.2693 -22.4
    endloop
  endfacet
  facet normal -0 0 -1
    outer loop
      vertex -0.780912 -2.58885 -22.4
      vertex -2.4724 -4.07961 -22.4
      vertex -1.48885 -1.88091 -22.4
    endloop
  endfacet
  facet normal 0 0 -1
    outer loop
      vertex -3.3 -3.81051 -22.4
      vertex -1.48885 -1.88091 -22.4
      vertex -2.4724 -4.07961 -22.4
    endloop
  endfacet
  facet normal 0 0 -1
    outer loop
      vertex -4.06336 -3.46725 -22.4
      vertex -1.48885 -1.88091 -22.4
      vertex -3.3 -3.81051 -22.4
    endloop
  endfacet
  facet normal -0 0 -1
    outer loop
      vertex 5.59712 2.33164 -22.4
      vertex 3.68885 1.88091 -22.4
      vertex 5.05589 2.82827 -22.4
    endloop
  endfacet
  facet normal -0 0 -1
    outer loop
      vertex 5.05589 2.82827 -22.4
      vertex 3.68885 1.88091 -22.4
      vertex 4.41626 3.26984 -22.4
    endloop
  endfacet
  facet normal 0 0 -1
    outer loop
      vertex 2.98091 2.58885 -22.4
      vertex 4.41626 3.26984 -22.4
      vertex 3.68885 1.88091 -22.4
    endloop
  endfacet
  facet normal -0 0 -1
    outer loop
      vertex 4.41626 3.26984 -22.4
      vertex 2.98091 2.58885 -22.4
      vertex 3.69067 3.64777 -22.4
    endloop
  endfacet
  facet normal 0 0 -1
    outer loop
      vertex 2.98091 2.58885 -22.4
      vertex 2.89325 3.95469 -22.4
      vertex 3.69067 3.64777 -22.4
    endloop
  endfacet
  facet normal 0 0 -1
    outer loop
      vertex 2.08885 3.04338 -22.4
      vertex 2.89325 3.95469 -22.4
      vertex 2.98091 2.58885 -22.4
    endloop
  endfacet
  facet normal 0 0 -1
    outer loop
      vertex 2.08885 3.04338 -22.4
      vertex 2.03951 4.18465 -22.4
      vertex 2.89325 3.95469 -22.4
    endloop
  endfacet
  facet normal 0 0 -1
    outer loop
      vertex 1.1 3.2 -22.4
      vertex 2.03951 4.18465 -22.4
      vertex 2.08885 3.04338 -22.4
    endloop
  endfacet
  facet normal -0 0 -1
    outer loop
      vertex 2.03951 4.18465 -22.4
      vertex 1.1 3.2 -22.4
      vertex 1.14608 4.33315 -22.4
    endloop
  endfacet
  facet normal 0 0 -1
    outer loop
      vertex 1.1 3.2 -22.4
      vertex 0.230336 4.39732 -22.4
      vertex 1.14608 4.33315 -22.4
    endloop
  endfacet
  facet normal 0 0 -1
    outer loop
      vertex 0.111145 3.04338 -22.4
      vertex 0.230336 4.39732 -22.4
      vertex 1.1 3.2 -22.4
    endloop
  endfacet
  facet normal 0 0 -1
    outer loop
      vertex 0.111145 3.04338 -22.4
      vertex -0.689887 4.3759 -22.4
      vertex 0.230336 4.39732 -22.4
    endloop
  endfacet
  facet normal 0 0 -1
    outer loop
      vertex -0.780912 2.58885 -22.4
      vertex -0.689887 4.3759 -22.4
      vertex 0.111145 3.04338 -22.4
    endloop
  endfacet
  facet normal 0 0 -1
    outer loop
      vertex -2.4724 4.07961 -22.4
      vertex -0.780912 2.58885 -22.4
      vertex -1.48885 1.88091 -22.4
    endloop
  endfacet
  facet normal 0 0 -1
    outer loop
      vertex -0.780912 2.58885 -22.4
      vertex -1.59668 4.2693 -22.4
      vertex -0.689887 4.3759 -22.4
    endloop
  endfacet
  facet normal 0 0 -1
    outer loop
      vertex -4.06336 3.46725 -22.4
      vertex -1.48885 1.88091 -22.4
      vertex -1.94338 0.988853 -22.4
    endloop
  endfacet
  facet normal 0 0 -1
    outer loop
      vertex -5.82745 2.06567 -22.4
      vertex -1.94338 0.988853 -22.4
      vertex -2.1 -2.74321e-15 -22.4
    endloop
  endfacet
  facet normal 0 0 -1
    outer loop
      vertex -0.780912 2.58885 -22.4
      vertex -2.4724 4.07961 -22.4
      vertex -1.59668 4.2693 -22.4
    endloop
  endfacet
  facet normal -0 0 -1
    outer loop
      vertex -1.48885 -1.88091 -22.4
      vertex -4.06336 -3.46725 -22.4
      vertex -1.94338 -0.988853 -22.4
    endloop
  endfacet
  facet normal 0 0 -1
    outer loop
      vertex -4.74764 -3.0565 -22.4
      vertex -1.94338 -0.988853 -22.4
      vertex -4.06336 -3.46725 -22.4
    endloop
  endfacet
  facet normal 0 0 -1
    outer loop
      vertex -1.48885 1.88091 -22.4
      vertex -3.3 3.81051 -22.4
      vertex -2.4724 4.07961 -22.4
    endloop
  endfacet
  facet normal 0 0 -1
    outer loop
      vertex -5.33951 -2.58626 -22.4
      vertex -1.94338 -0.988853 -22.4
      vertex -4.74764 -3.0565 -22.4
    endloop
  endfacet
  facet normal 0 0 -1
    outer loop
      vertex -1.48885 1.88091 -22.4
      vertex -4.06336 3.46725 -22.4
      vertex -3.3 3.81051 -22.4
    endloop
  endfacet
  facet normal 0 0 -1
    outer loop
      vertex -5.82745 -2.06567 -22.4
      vertex -1.94338 -0.988853 -22.4
      vertex -5.33951 -2.58626 -22.4
    endloop
  endfacet
  facet normal 0 0 -1
    outer loop
      vertex -1.94338 0.988853 -22.4
      vertex -4.74764 3.0565 -22.4
      vertex -4.06336 3.46725 -22.4
    endloop
  endfacet
  facet normal -0 0 -1
    outer loop
      vertex -1.94338 -0.988853 -22.4
      vertex -5.82745 -2.06567 -22.4
      vertex -2.1 -2.74321e-15 -22.4
    endloop
  endfacet
  facet normal 0 0 -1
    outer loop
      vertex -1.94338 0.988853 -22.4
      vertex -5.33951 2.58626 -22.4
      vertex -4.74764 3.0565 -22.4
    endloop
  endfacet
  facet normal 0 0 -1
    outer loop
      vertex -2.1 -2.74321e-15 -22.4
      vertex -5.82745 -2.06567 -22.4
      vertex -5.9 -1.95705 -22.4
    endloop
  endfacet
  facet normal 0 0 -1
    outer loop
      vertex -5.9 1.95705 -22.4
      vertex -2.1 -2.74321e-15 -22.4
      vertex -5.9 -1.95705 -22.4
    endloop
  endfacet
  facet normal 0 -0 -1
    outer loop
      vertex -5.82745 2.06567 -22.4
      vertex -2.1 -2.74321e-15 -22.4
      vertex -5.9 1.95705 -22.4
    endloop
  endfacet
  facet normal 0 0 -1
    outer loop
      vertex -1.94338 0.988853 -22.4
      vertex -5.82745 2.06567 -22.4
      vertex -5.33951 2.58626 -22.4
    endloop
  endfacet
  facet normal -0.30922 -0.950991 0
    outer loop
      vertex -3.3 -3.81051 -22.4
      vertex -2.4724 -4.07961 4.99608e-16
      vertex -3.3 -3.81051 4.66653e-16
    endloop
  endfacet
  facet normal -0.30922 -0.950991 -0
    outer loop
      vertex -2.4724 -4.07961 4.99608e-16
      vertex -3.3 -3.81051 -22.4
      vertex -2.4724 -4.07961 -22.4
    endloop
  endfacet
  facet normal -0.116747 -0.993162 0
    outer loop
      vertex -1.59668 -4.2693 -22.4
      vertex -0.689887 -4.3759 5.35893e-16
      vertex -1.59668 -4.2693 5.22838e-16
    endloop
  endfacet
  facet normal -0.116747 -0.993162 -0
    outer loop
      vertex -0.689887 -4.3759 5.35893e-16
      vertex -1.59668 -4.2693 -22.4
      vertex -0.689887 -4.3759 -22.4
    endloop
  endfacet
  facet normal -0.831597 0.55538 0
    outer loop
      vertex -5.85879 2.01875 -14.784
      vertex -5.9 1.95705 -14.784
      vertex -5.85879 2.01875 -1.73361
    endloop
  endfacet
  facet normal -0.8316 0.555375 0
    outer loop
      vertex -5.85879 2.01875 -1.73361
      vertex -5.82745 2.06567 -2.52972e-16
      vertex -5.82745 2.06567 -1.78865
    endloop
  endfacet
  facet normal -0.831598 0.555378 -1.16929e-07
    outer loop
      vertex -5.85879 2.01875 -1.73361
      vertex -5.9 1.95705 -2.39669e-16
      vertex -5.82745 2.06567 -2.52972e-16
    endloop
  endfacet
  facet normal -0.831597 0.55538 0
    outer loop
      vertex -5.9 1.95705 -2.39669e-16
      vertex -5.85879 2.01875 -1.73361
      vertex -5.9 1.95705 -14.784
    endloop
  endfacet
  facet normal 0.877711 -0.479191 0
    outer loop
      vertex 6.0294 -1.78964 2.19168e-16
      vertex 6.34433 -1.2128 -22.4
      vertex 6.34433 -1.2128 1.48526e-16
    endloop
  endfacet
  facet normal 0.877711 -0.479191 0
    outer loop
      vertex 6.34433 -1.2128 -22.4
      vertex 6.0294 -1.78964 2.19168e-16
      vertex 6.0294 -1.78964 -22.4
    endloop
  endfacet
  facet normal 0.568122 -0.822944 0
    outer loop
      vertex 4.41626 -3.26984 -22.4
      vertex 5.05589 -2.82827 3.46363e-16
      vertex 4.41626 -3.26984 4.00439e-16
    endloop
  endfacet
  facet normal 0.568122 -0.822944 0
    outer loop
      vertex 5.05589 -2.82827 3.46363e-16
      vertex 4.41626 -3.26984 -22.4
      vertex 5.05589 -2.82827 -22.4
    endloop
  endfacet
  facet normal 0.0698977 -0.997554 0
    outer loop
      vertex 0.230336 -4.39732 -22.4
      vertex 1.14608 -4.33315 5.30658e-16
      vertex 0.230336 -4.39732 5.38516e-16
    endloop
  endfacet
  facet normal 0.0698977 -0.997554 0
    outer loop
      vertex 1.14608 -4.33315 5.30658e-16
      vertex 0.230336 -4.39732 -22.4
      vertex 1.14608 -4.33315 -22.4
    endloop
  endfacet
  facet normal -0.729609 -0.683865 0
    outer loop
      vertex -5.33951 -2.58626 -22.4
      vertex -5.82745 -2.06567 2.52972e-16
      vertex -5.82745 -2.06567 -22.4
    endloop
  endfacet
  facet normal -0.729609 -0.683865 0
    outer loop
      vertex -5.82745 -2.06567 2.52972e-16
      vertex -5.33951 -2.58626 -22.4
      vertex -5.33951 -2.58626 3.16725e-16
    endloop
  endfacet
  facet normal -0.410116 -0.912033 0
    outer loop
      vertex -4.06336 -3.46725 -22.4
      vertex -3.3 -3.81051 4.66653e-16
      vertex -4.06336 -3.46725 4.24615e-16
    endloop
  endfacet
  facet normal -0.410116 -0.912033 -0
    outer loop
      vertex -3.3 -3.81051 4.66653e-16
      vertex -4.06336 -3.46725 -22.4
      vertex -3.3 -3.81051 -22.4
    endloop
  endfacet
  facet normal 0.994544 0.104318 0
    outer loop
      vertex 6.53577 0.612361 -7.49926e-17
      vertex 6.6 6.10352e-07 -14.784
      vertex 6.53577 0.612361 -14.784
    endloop
  endfacet
  facet normal 0.994544 0.104318 4.30674e-09
    outer loop
      vertex 6.6 0 0
      vertex 6.6 6.10352e-07 -14.784
      vertex 6.53577 0.612361 -7.49926e-17
    endloop
  endfacet
  facet normal 1 0 0
    outer loop
      vertex 6.6 -2.74321e-15 -22.4
      vertex 6.6 6.10352e-07 -14.784
      vertex 6.6 0 0
    endloop
  endfacet
  facet normal 1 0 0
    outer loop
      vertex 6.6 6.10352e-07 -14.784
      vertex 6.6 -2.74321e-15 -22.4
      vertex 6.6 6.10352e-07 -22.4
    endloop
  endfacet
  facet normal -0 -0 -1
    outer loop
      vertex 6.6 6.10352e-07 -22.4
      vertex 6.6 -2.74321e-15 -22.4
      vertex 6.53577 0.612361 -22.4
    endloop
  endfacet
  facet normal 0.568122 0.822944 -0
    outer loop
      vertex 5.05589 2.82827 -14.784
      vertex 4.41626 3.26984 -4.00439e-16
      vertex 5.05589 2.82827 -3.46363e-16
    endloop
  endfacet
  facet normal 0.568122 0.822944 0
    outer loop
      vertex 4.41626 3.26984 -4.00439e-16
      vertex 5.05589 2.82827 -14.784
      vertex 4.41626 3.26984 -14.784
    endloop
  endfacet
  facet normal 0.952746 0.303768 0
    outer loop
      vertex 6.53577 0.612361 -7.49926e-17
      vertex 6.34433 1.2128 -14.784
      vertex 6.34433 1.2128 -1.48526e-16
    endloop
  endfacet
  facet normal 0.952746 0.303768 0
    outer loop
      vertex 6.34433 1.2128 -14.784
      vertex 6.53577 0.612361 -7.49926e-17
      vertex 6.53577 0.612361 -14.784
    endloop
  endfacet
  facet normal 0.163969 0.986466 -0
    outer loop
      vertex 2.03951 4.18465 -22.4
      vertex 1.14608 4.33315 -5.30658e-16
      vertex 2.03951 4.18465 -5.12472e-16
    endloop
  endfacet
  facet normal 0.163969 0.986466 0
    outer loop
      vertex 1.14608 4.33315 -5.30658e-16
      vertex 2.03951 4.18465 -22.4
      vertex 1.14608 4.33315 -22.4
    endloop
  endfacet
  facet normal 0.35921 0.933257 0
    outer loop
      vertex 3.6 3.68267 -14.784
      vertex 3.69067 3.64777 -4.46722e-16
      vertex 3.69067 3.64777 -14.784
    endloop
  endfacet
  facet normal 0.359211 0.933256 -7.54541e-09
    outer loop
      vertex 3.69067 3.64777 -4.46722e-16
      vertex 3.6 3.68267 -14.784
      vertex 2.89325 3.95469 -4.8431e-16
    endloop
  endfacet
  facet normal 0.359211 0.933256 0
    outer loop
      vertex 2.89325 3.95469 -22.4
      vertex 3.6 3.68267 -14.784
      vertex 3.6 3.68267 -22.4
    endloop
  endfacet
  facet normal 0.359211 0.933256 0
    outer loop
      vertex 3.6 3.68267 -14.784
      vertex 2.89325 3.95469 -22.4
      vertex 2.89325 3.95469 -4.8431e-16
    endloop
  endfacet
  facet normal 0 0 1
    outer loop
      vertex 2.89325 3.95469 -22.4
      vertex 3.6 3.68267 -22.4
      vertex 3.69067 3.64777 -22.4
    endloop
  endfacet
  facet normal 0.461952 0.886905 -0
    outer loop
      vertex 4.41626 3.26984 -14.784
      vertex 3.69067 3.64777 -4.46722e-16
      vertex 4.41626 3.26984 -4.00439e-16
    endloop
  endfacet
  facet normal 0.461952 0.886905 0
    outer loop
      vertex 3.69067 3.64777 -4.46722e-16
      vertex 4.41626 3.26984 -14.784
      vertex 3.69067 3.64777 -14.784
    endloop
  endfacet
  facet normal 0.781797 0.623533 0
    outer loop
      vertex 6.0294 1.78964 -2.19168e-16
      vertex 5.59712 2.33164 -14.784
      vertex 5.59712 2.33164 -2.85544e-16
    endloop
  endfacet
  facet normal 0.781797 0.623533 0
    outer loop
      vertex 5.59712 2.33164 -14.784
      vertex 6.0294 1.78964 -2.19168e-16
      vertex 6.0294 1.78964 -14.784
    endloop
  endfacet
  facet normal -0.514665 0.857391 0
    outer loop
      vertex -4.06336 3.46725 -4.24615e-16
      vertex -4.74764 3.0565 -3.10063
      vertex -4.74764 3.0565 -3.74313e-16
    endloop
  endfacet
  facet normal -0.514665 0.857391 0
    outer loop
      vertex -4.74764 3.0565 -3.10063
      vertex -4.06336 3.46725 -4.24615e-16
      vertex -4.06336 3.46725 -3.72932
    endloop
  endfacet
  facet normal -0 1.22465e-16 1
    outer loop
      vertex 4.3 0 0
      vertex 6.6 0 0
      vertex 6.53577 0.612361 -7.49926e-17
    endloop
  endfacet
  facet normal 5.08439e-25 1.22465e-16 1
    outer loop
      vertex 4.3 0 0
      vertex 6.53577 0.612361 -7.49926e-17
      vertex 6.34433 1.2128 -1.48526e-16
    endloop
  endfacet
  facet normal 0 1.22465e-16 1
    outer loop
      vertex 6.6 0 0
      vertex 4.3 0 0
      vertex 6.53577 -0.612361 7.49926e-17
    endloop
  endfacet
  facet normal 2.23116e-24 1.22465e-16 1
    outer loop
      vertex 4.14338 0.988853 -1.211e-16
      vertex 6.34433 1.2128 -1.48526e-16
      vertex 6.0294 1.78964 -2.19168e-16
    endloop
  endfacet
  facet normal -5.08439e-25 1.22465e-16 1
    outer loop
      vertex 6.53577 -0.612361 7.49926e-17
      vertex 4.3 0 0
      vertex 6.34433 -1.2128 1.48526e-16
    endloop
  endfacet
  facet normal -7.15422e-24 1.22465e-16 1
    outer loop
      vertex 4.14338 0.988853 -1.211e-16
      vertex 6.0294 1.78964 -2.19168e-16
      vertex 5.59712 2.33164 -2.85544e-16
    endloop
  endfacet
  facet normal -1.98885e-25 1.22465e-16 1
    outer loop
      vertex 4.14338 -0.988853 1.211e-16
      vertex 6.34433 -1.2128 1.48526e-16
      vertex 4.3 0 0
    endloop
  endfacet
  facet normal 3.56644e-24 1.22465e-16 1
    outer loop
      vertex 3.68885 1.88091 -2.30345e-16
      vertex 5.59712 2.33164 -2.85544e-16
      vertex 5.05589 2.82827 -3.46363e-16
    endloop
  endfacet
  facet normal -2.23116e-24 1.22465e-16 1
    outer loop
      vertex 6.34433 -1.2128 1.48526e-16
      vertex 4.14338 -0.988853 1.211e-16
      vertex 6.0294 -1.78964 2.19168e-16
    endloop
  endfacet
  facet normal 2.30765e-23 1.22465e-16 1
    outer loop
      vertex 3.68885 1.88091 -2.30345e-16
      vertex 5.05589 2.82827 -3.46363e-16
      vertex 4.41626 3.26984 -4.00439e-16
    endloop
  endfacet
  facet normal 7.15422e-24 1.22465e-16 1
    outer loop
      vertex 6.0294 -1.78964 2.19168e-16
      vertex 4.14338 -0.988853 1.211e-16
      vertex 5.59712 -2.33164 2.85544e-16
    endloop
  endfacet
  facet normal -1.03461e-23 1.22465e-16 1
    outer loop
      vertex 3.68885 -1.88091 2.30345e-16
      vertex 5.59712 -2.33164 2.85544e-16
      vertex 4.14338 -0.988853 1.211e-16
    endloop
  endfacet
  facet normal 1.98885e-25 1.22465e-16 1
    outer loop
      vertex 6.34433 1.2128 -1.48526e-16
      vertex 4.14338 0.988853 -1.211e-16
      vertex 4.3 0 0
    endloop
  endfacet
  facet normal -9.10238e-25 1.22465e-16 1
    outer loop
      vertex 2.98091 2.58885 -3.17043e-16
      vertex 4.41626 3.26984 -4.00439e-16
      vertex 3.69067 3.64777 -4.46722e-16
    endloop
  endfacet
  facet normal 1.03461e-23 1.22465e-16 1
    outer loop
      vertex 5.59712 2.33164 -2.85544e-16
      vertex 3.68885 1.88091 -2.30345e-16
      vertex 4.14338 0.988853 -1.211e-16
    endloop
  endfacet
  facet normal -1.68507e-23 1.22465e-16 1
    outer loop
      vertex 4.41626 3.26984 -4.00439e-16
      vertex 2.98091 2.58885 -3.17043e-16
      vertex 3.68885 1.88091 -2.30345e-16
    endloop
  endfacet
  facet normal -2.49091e-23 1.22465e-16 1
    outer loop
      vertex 2.89325 3.95469 -4.8431e-16
      vertex 2.98091 2.58885 -3.17043e-16
      vertex 3.69067 3.64777 -4.46722e-16
    endloop
  endfacet
  facet normal 3.76619e-24 1.22465e-16 1
    outer loop
      vertex 2.89325 3.95469 -4.8431e-16
      vertex 2.08885 3.04338 -3.72707e-16
      vertex 2.98091 2.58885 -3.17043e-16
    endloop
  endfacet
  facet normal -2.56633e-23 1.22465e-16 1
    outer loop
      vertex 2.03951 4.18465 -5.12472e-16
      vertex 2.08885 3.04338 -3.72707e-16
      vertex 2.89325 3.95469 -4.8431e-16
    endloop
  endfacet
  facet normal 3.65536e-24 1.22465e-16 1
    outer loop
      vertex 1.1 3.2 -3.91887e-16
      vertex 2.03951 4.18465 -5.12472e-16
      vertex 1.14608 4.33315 -5.30658e-16
    endloop
  endfacet
  facet normal 1.44122e-23 1.22465e-16 1
    outer loop
      vertex 2.03951 4.18465 -5.12472e-16
      vertex 1.1 3.2 -3.91887e-16
      vertex 2.08885 3.04338 -3.72707e-16
    endloop
  endfacet
  facet normal 4.0989e-23 1.22465e-16 1
    outer loop
      vertex 0.230336 4.39732 -5.38516e-16
      vertex 1.1 3.2 -3.91887e-16
      vertex 1.14608 4.33315 -5.30658e-16
    endloop
  endfacet
  facet normal -9.9386e-24 1.22465e-16 1
    outer loop
      vertex 0.230336 4.39732 -5.38516e-16
      vertex 0.111145 3.04338 -3.72707e-16
      vertex 1.1 3.2 -3.91887e-16
    endloop
  endfacet
  facet normal -2.56941e-23 1.22465e-16 1
    outer loop
      vertex -0.689887 4.3759 -5.35893e-16
      vertex 0.111145 3.04338 -3.72707e-16
      vertex 0.230336 4.39732 -5.38516e-16
    endloop
  endfacet
  facet normal -9.23984e-24 1.22465e-16 1
    outer loop
      vertex -0.689887 4.3759 -5.35893e-16
      vertex -0.780912 2.58885 -3.17043e-16
      vertex 0.111145 3.04338 -3.72707e-16
    endloop
  endfacet
  facet normal 2.93424e-23 1.22465e-16 1
    outer loop
      vertex -1.59668 4.2693 -5.22838e-16
      vertex -0.780912 2.58885 -3.17043e-16
      vertex -0.689887 4.3759 -5.35893e-16
    endloop
  endfacet
  facet normal 2.1708e-24 1.22465e-16 1
    outer loop
      vertex -2.4724 4.07961 -4.99608e-16
      vertex -0.780912 2.58885 -3.17043e-16
      vertex -1.59668 4.2693 -5.22838e-16
    endloop
  endfacet
  facet normal 1.8457e-23 1.22465e-16 1
    outer loop
      vertex -0.780912 2.58885 -3.17043e-16
      vertex -2.4724 4.07961 -4.99608e-16
      vertex -1.48885 1.88091 -2.30345e-16
    endloop
  endfacet
  facet normal 1.13637e-23 1.22465e-16 1
    outer loop
      vertex -3.3 3.81051 -4.66653e-16
      vertex -1.48885 1.88091 -2.30345e-16
      vertex -2.4724 4.07961 -4.99608e-16
    endloop
  endfacet
  facet normal -1.45148e-23 1.22465e-16 1
    outer loop
      vertex -4.06336 3.46725 -4.24615e-16
      vertex -1.48885 1.88091 -2.30345e-16
      vertex -3.3 3.81051 -4.66653e-16
    endloop
  endfacet
  facet normal -3.56644e-24 1.22465e-16 1
    outer loop
      vertex 5.59712 -2.33164 2.85544e-16
      vertex 3.68885 -1.88091 2.30345e-16
      vertex 5.05589 -2.82827 3.46363e-16
    endloop
  endfacet
  facet normal -2.30765e-23 1.22465e-16 1
    outer loop
      vertex 5.05589 -2.82827 3.46363e-16
      vertex 3.68885 -1.88091 2.30345e-16
      vertex 4.41626 -3.26984 4.00439e-16
    endloop
  endfacet
  facet normal 1.68507e-23 1.22465e-16 1
    outer loop
      vertex 2.98091 -2.58885 3.17043e-16
      vertex 4.41626 -3.26984 4.00439e-16
      vertex 3.68885 -1.88091 2.30345e-16
    endloop
  endfacet
  facet normal 9.10238e-25 1.22465e-16 1
    outer loop
      vertex 4.41626 -3.26984 4.00439e-16
      vertex 2.98091 -2.58885 3.17043e-16
      vertex 3.69067 -3.64777 4.46722e-16
    endloop
  endfacet
  facet normal 2.49091e-23 1.22465e-16 1
    outer loop
      vertex 2.98091 -2.58885 3.17043e-16
      vertex 2.89325 -3.95469 4.8431e-16
      vertex 3.69067 -3.64777 4.46722e-16
    endloop
  endfacet
  facet normal -3.76619e-24 1.22465e-16 1
    outer loop
      vertex 2.08885 -3.04338 3.72707e-16
      vertex 2.89325 -3.95469 4.8431e-16
      vertex 2.98091 -2.58885 3.17043e-16
    endloop
  endfacet
  facet normal 2.56633e-23 1.22465e-16 1
    outer loop
      vertex 2.08885 -3.04338 3.72707e-16
      vertex 2.03951 -4.18465 5.12472e-16
      vertex 2.89325 -3.95469 4.8431e-16
    endloop
  endfacet
  facet normal -1.44122e-23 1.22465e-16 1
    outer loop
      vertex 1.1 -3.2 3.91887e-16
      vertex 2.03951 -4.18465 5.12472e-16
      vertex 2.08885 -3.04338 3.72707e-16
    endloop
  endfacet
  facet normal -3.65536e-24 1.22465e-16 1
    outer loop
      vertex 2.03951 -4.18465 5.12472e-16
      vertex 1.1 -3.2 3.91887e-16
      vertex 1.14608 -4.33315 5.30658e-16
    endloop
  endfacet
  facet normal -4.0989e-23 1.22465e-16 1
    outer loop
      vertex 1.1 -3.2 3.91887e-16
      vertex 0.230336 -4.39732 5.38516e-16
      vertex 1.14608 -4.33315 5.30658e-16
    endloop
  endfacet
  facet normal 9.9386e-24 1.22465e-16 1
    outer loop
      vertex 0.111145 -3.04338 3.72707e-16
      vertex 0.230336 -4.39732 5.38516e-16
      vertex 1.1 -3.2 3.91887e-16
    endloop
  endfacet
  facet normal 2.56941e-23 1.22465e-16 1
    outer loop
      vertex 0.111145 -3.04338 3.72707e-16
      vertex -0.689887 -4.3759 5.35893e-16
      vertex 0.230336 -4.39732 5.38516e-16
    endloop
  endfacet
  facet normal 9.23984e-24 1.22465e-16 1
    outer loop
      vertex -0.780912 -2.58885 3.17043e-16
      vertex -0.689887 -4.3759 5.35893e-16
      vertex 0.111145 -3.04338 3.72707e-16
    endloop
  endfacet
  facet normal -1.8457e-23 1.22465e-16 1
    outer loop
      vertex -2.4724 -4.07961 4.99608e-16
      vertex -0.780912 -2.58885 3.17043e-16
      vertex -1.48885 -1.88091 2.30345e-16
    endloop
  endfacet
  facet normal -2.93424e-23 1.22465e-16 1
    outer loop
      vertex -0.780912 -2.58885 3.17043e-16
      vertex -1.59668 -4.2693 5.22838e-16
      vertex -0.689887 -4.3759 5.35893e-16
    endloop
  endfacet
  facet normal 9.9507e-24 1.22465e-16 1
    outer loop
      vertex -4.06336 -3.46725 4.24615e-16
      vertex -1.48885 -1.88091 2.30345e-16
      vertex -1.94338 -0.988853 1.211e-16
    endloop
  endfacet
  facet normal 1.07986e-24 1.22465e-16 1
    outer loop
      vertex -5.82745 -2.06567 2.52972e-16
      vertex -1.94338 -0.988853 1.211e-16
      vertex -2.1 0 0
    endloop
  endfacet
  facet normal -2.1708e-24 1.22465e-16 1
    outer loop
      vertex -0.780912 -2.58885 3.17043e-16
      vertex -2.4724 -4.07961 4.99608e-16
      vertex -1.59668 -4.2693 5.22838e-16
    endloop
  endfacet
  facet normal -9.9507e-24 1.22465e-16 1
    outer loop
      vertex -1.48885 1.88091 -2.30345e-16
      vertex -4.06336 3.46725 -4.24615e-16
      vertex -1.94338 0.988853 -1.211e-16
    endloop
  endfacet
  facet normal -1.10534e-23 1.22465e-16 1
    outer loop
      vertex -4.74764 3.0565 -3.74313e-16
      vertex -1.94338 0.988853 -1.211e-16
      vertex -4.06336 3.46725 -4.24615e-16
    endloop
  endfacet
  facet normal -1.13637e-23 1.22465e-16 1
    outer loop
      vertex -1.48885 -1.88091 2.30345e-16
      vertex -3.3 -3.81051 4.66653e-16
      vertex -2.4724 -4.07961 4.99608e-16
    endloop
  endfacet
  facet normal 1.28035e-23 1.22465e-16 1
    outer loop
      vertex -5.33951 2.58626 -3.16725e-16
      vertex -1.94338 0.988853 -1.211e-16
      vertex -4.74764 3.0565 -3.74313e-16
    endloop
  endfacet
  facet normal 1.45148e-23 1.22465e-16 1
    outer loop
      vertex -1.48885 -1.88091 2.30345e-16
      vertex -4.06336 -3.46725 4.24615e-16
      vertex -3.3 -3.81051 4.66653e-16
    endloop
  endfacet
  facet normal -1.13835e-23 1.22465e-16 1
    outer loop
      vertex -5.82745 2.06567 -2.52972e-16
      vertex -1.94338 0.988853 -1.211e-16
      vertex -5.33951 2.58626 -3.16725e-16
    endloop
  endfacet
  facet normal 1.10534e-23 1.22465e-16 1
    outer loop
      vertex -1.94338 -0.988853 1.211e-16
      vertex -4.74764 -3.0565 3.74313e-16
      vertex -4.06336 -3.46725 4.24615e-16
    endloop
  endfacet
  facet normal -1.07986e-24 1.22465e-16 1
    outer loop
      vertex -1.94338 0.988853 -1.211e-16
      vertex -5.82745 2.06567 -2.52972e-16
      vertex -2.1 0 0
    endloop
  endfacet
  facet normal -1.28035e-23 1.22465e-16 1
    outer loop
      vertex -1.94338 -0.988853 1.211e-16
      vertex -5.33951 -2.58626 3.16725e-16
      vertex -4.74764 -3.0565 3.74313e-16
    endloop
  endfacet
  facet normal 1.0085e-22 1.22465e-16 1
    outer loop
      vertex -2.1 0 0
      vertex -5.82745 2.06567 -2.52972e-16
      vertex -5.9 1.95705 -2.39669e-16
    endloop
  endfacet
  facet normal 0 1.22465e-16 1
    outer loop
      vertex -5.9 -1.95705 2.39669e-16
      vertex -2.1 0 0
      vertex -5.9 1.95705 -2.39669e-16
    endloop
  endfacet
  facet normal -1.0085e-22 1.22465e-16 1
    outer loop
      vertex -5.82745 -2.06567 2.52972e-16
      vertex -2.1 0 0
      vertex -5.9 -1.95705 2.39669e-16
    endloop
  endfacet
  facet normal 1.13835e-23 1.22465e-16 1
    outer loop
      vertex -1.94338 -0.988853 1.211e-16
      vertex -5.82745 -2.06567 2.52972e-16
      vertex -5.33951 -2.58626 3.16725e-16
    endloop
  endfacet
  facet normal 0.260081 0.965587 -0
    outer loop
      vertex 2.89325 3.95469 -22.4
      vertex 2.03951 4.18465 -5.12472e-16
      vertex 2.89325 3.95469 -4.8431e-16
    endloop
  endfacet
  facet normal 0.260081 0.965587 0
    outer loop
      vertex 2.03951 4.18465 -5.12472e-16
      vertex 2.89325 3.95469 -22.4
      vertex 2.03951 4.18465 -22.4
    endloop
  endfacet
  facet normal 0.877711 0.479191 0
    outer loop
      vertex 6.34433 1.2128 -1.48526e-16
      vertex 6.0294 1.78964 -14.784
      vertex 6.0294 1.78964 -2.19168e-16
    endloop
  endfacet
  facet normal 0.877711 0.479191 0
    outer loop
      vertex 6.0294 1.78964 -14.784
      vertex 6.34433 1.2128 -1.48526e-16
      vertex 6.34433 1.2128 -14.784
    endloop
  endfacet
  facet normal -0.211703 0.977334 0
    outer loop
      vertex -1.59668 4.2693 -5.22838e-16
      vertex -2.4724 4.07961 -4.87116
      vertex -2.4724 4.07961 -4.99608e-16
    endloop
  endfacet
  facet normal -0.211703 0.977334 -4.54326e-08
    outer loop
      vertex -1.59668 4.2693 -5.22838e-16
      vertex -2.15628 4.14808 -5.04837
      vertex -2.4724 4.07961 -4.87116
    endloop
  endfacet
  facet normal -0.211703 0.977334 0
    outer loop
      vertex -1.59668 4.2693 -5.22838e-16
      vertex -2.15628 4.14808 -14.784
      vertex -2.15628 4.14808 -5.04837
    endloop
  endfacet
  facet normal -0.211703 0.977334 0
    outer loop
      vertex -1.59668 4.2693 -22.4
      vertex -2.15628 4.14808 -14.784
      vertex -1.59668 4.2693 -5.22838e-16
    endloop
  endfacet
  facet normal -0.211703 0.977334 0
    outer loop
      vertex -2.15628 4.14808 -14.784
      vertex -1.59668 4.2693 -22.4
      vertex -2.15628 4.14808 -22.4
    endloop
  endfacet
  facet normal 0 -0 1
    outer loop
      vertex -2.15628 4.14808 -22.4
      vertex -1.59668 4.2693 -22.4
      vertex -2.4724 4.07961 -22.4
    endloop
  endfacet
  facet normal -0.116747 0.993162 0
    outer loop
      vertex -0.689887 4.3759 -22.4
      vertex -1.59668 4.2693 -5.22838e-16
      vertex -0.689887 4.3759 -5.35893e-16
    endloop
  endfacet
  facet normal -0.116747 0.993162 0
    outer loop
      vertex -1.59668 4.2693 -5.22838e-16
      vertex -0.689887 4.3759 -22.4
      vertex -1.59668 4.2693 -22.4
    endloop
  endfacet
  facet normal -0.622067 0.782964 0
    outer loop
      vertex -4.74764 3.0565 -3.74313e-16
      vertex -5.33951 2.58626 -2.44951
      vertex -5.33951 2.58626 -3.16725e-16
    endloop
  endfacet
  facet normal -0.622067 0.782964 0
    outer loop
      vertex -5.33951 2.58626 -2.44951
      vertex -4.74764 3.0565 -3.74313e-16
      vertex -4.74764 3.0565 -3.10063
    endloop
  endfacet
  facet normal -0.729609 0.683865 0
    outer loop
      vertex -5.82745 2.06567 -1.78865
      vertex -5.33951 2.58626 -3.16725e-16
      vertex -5.33951 2.58626 -2.44951
    endloop
  endfacet
  facet normal -0.729609 0.683865 0
    outer loop
      vertex -5.33951 2.58626 -3.16725e-16
      vertex -5.82745 2.06567 -1.78865
      vertex -5.82745 2.06567 -2.52972e-16
    endloop
  endfacet
  facet normal -0.410116 0.912033 0
    outer loop
      vertex -3.3 3.81051 -4.66653e-16
      vertex -4.06336 3.46725 -3.72932
      vertex -4.06336 3.46725 -4.24615e-16
    endloop
  endfacet
  facet normal -0.410116 0.912033 0
    outer loop
      vertex -4.06336 3.46725 -3.72932
      vertex -3.3 3.81051 -4.66653e-16
      vertex -3.3 3.81051 -4.32335
    endloop
  endfacet
  facet normal -0.30922 0.950991 0
    outer loop
      vertex -2.4724 4.07961 -4.99608e-16
      vertex -3.3 3.81051 -4.32335
      vertex -3.3 3.81051 -4.66653e-16
    endloop
  endfacet
  facet normal -0.30922 0.950991 0
    outer loop
      vertex -3.3 3.81051 -4.32335
      vertex -2.4724 4.07961 -4.99608e-16
      vertex -2.4724 4.07961 -4.87116
    endloop
  endfacet
  facet normal -0.0232743 0.999729 0
    outer loop
      vertex 0.230336 4.39732 -22.4
      vertex -0.689887 4.3759 -5.35893e-16
      vertex 0.230336 4.39732 -5.38516e-16
    endloop
  endfacet
  facet normal -0.0232743 0.999729 0
    outer loop
      vertex -0.689887 4.3759 -5.35893e-16
      vertex 0.230336 4.39732 -22.4
      vertex -0.689887 4.3759 -22.4
    endloop
  endfacet
  facet normal -0.987688 0.156435 -1.98021e-17
    outer loop
      vertex 4.14338 -0.988853 -22.4
      vertex 4.3 0 0
      vertex 4.3 -2.74321e-15 -22.4
    endloop
  endfacet
  facet normal -0.987688 0.156435 0
    outer loop
      vertex 4.3 0 0
      vertex 4.14338 -0.988853 -22.4
      vertex 4.14338 -0.988853 1.211e-16
    endloop
  endfacet
  facet normal 0.987688 0.156435 -1.98021e-17
    outer loop
      vertex -1.94338 -0.988853 1.211e-16
      vertex -2.1 -2.74321e-15 -22.4
      vertex -2.1 0 0
    endloop
  endfacet
  facet normal 0.987688 0.156435 0
    outer loop
      vertex -2.1 -2.74321e-15 -22.4
      vertex -1.94338 -0.988853 1.211e-16
      vertex -1.94338 -0.988853 -22.4
    endloop
  endfacet
  facet normal -0.156434 0.987688 0
    outer loop
      vertex 2.08885 -3.04338 -22.4
      vertex 1.1 -3.2 3.91887e-16
      vertex 2.08885 -3.04338 3.72707e-16
    endloop
  endfacet
  facet normal -0.156434 0.987688 0
    outer loop
      vertex 1.1 -3.2 3.91887e-16
      vertex 2.08885 -3.04338 -22.4
      vertex 1.1 -3.2 -22.4
    endloop
  endfacet
  facet normal -0.707106 0.707107 0
    outer loop
      vertex 3.68885 -1.88091 -22.4
      vertex 2.98091 -2.58885 3.17043e-16
      vertex 3.68885 -1.88091 2.30345e-16
    endloop
  endfacet
  facet normal -0.707106 0.707107 0
    outer loop
      vertex 2.98091 -2.58885 3.17043e-16
      vertex 3.68885 -1.88091 -22.4
      vertex 2.98091 -2.58885 -22.4
    endloop
  endfacet
  facet normal -0.891007 0.45399 0
    outer loop
      vertex 3.68885 -1.88091 -22.4
      vertex 4.14338 -0.988853 1.211e-16
      vertex 4.14338 -0.988853 -22.4
    endloop
  endfacet
  facet normal -0.891007 0.45399 0
    outer loop
      vertex 4.14338 -0.988853 1.211e-16
      vertex 3.68885 -1.88091 -22.4
      vertex 3.68885 -1.88091 2.30345e-16
    endloop
  endfacet
  facet normal -0.453991 0.891006 0
    outer loop
      vertex 2.98091 -2.58885 -22.4
      vertex 2.08885 -3.04338 3.72707e-16
      vertex 2.98091 -2.58885 3.17043e-16
    endloop
  endfacet
  facet normal -0.453991 0.891006 0
    outer loop
      vertex 2.08885 -3.04338 3.72707e-16
      vertex 2.98091 -2.58885 -22.4
      vertex 2.08885 -3.04338 -22.4
    endloop
  endfacet
  facet normal 0.707107 0.707107 0
    outer loop
      vertex -0.780912 -2.58885 3.17043e-16
      vertex -1.48885 -1.88091 -22.4
      vertex -1.48885 -1.88091 2.30345e-16
    endloop
  endfacet
  facet normal 0.707107 0.707107 0
    outer loop
      vertex -1.48885 -1.88091 -22.4
      vertex -0.780912 -2.58885 3.17043e-16
      vertex -0.780912 -2.58885 -22.4
    endloop
  endfacet
  facet normal 0.891007 0.45399 0
    outer loop
      vertex -1.48885 -1.88091 2.30345e-16
      vertex -1.94338 -0.988853 -22.4
      vertex -1.94338 -0.988853 1.211e-16
    endloop
  endfacet
  facet normal 0.891007 0.45399 0
    outer loop
      vertex -1.94338 -0.988853 -22.4
      vertex -1.48885 -1.88091 2.30345e-16
      vertex -1.48885 -1.88091 -22.4
    endloop
  endfacet
  facet normal 0.156434 0.987688 -0
    outer loop
      vertex 1.1 -3.2 -22.4
      vertex 0.111145 -3.04338 3.72707e-16
      vertex 1.1 -3.2 3.91887e-16
    endloop
  endfacet
  facet normal 0.156434 0.987688 0
    outer loop
      vertex 0.111145 -3.04338 3.72707e-16
      vertex 1.1 -3.2 -22.4
      vertex 0.111145 -3.04338 -22.4
    endloop
  endfacet
  facet normal -0.156434 -0.987688 0
    outer loop
      vertex 1.1 3.2 -22.4
      vertex 2.08885 3.04338 -3.72707e-16
      vertex 1.1 3.2 -3.91887e-16
    endloop
  endfacet
  facet normal -0.156434 -0.987688 -0
    outer loop
      vertex 2.08885 3.04338 -3.72707e-16
      vertex 1.1 3.2 -22.4
      vertex 2.08885 3.04338 -22.4
    endloop
  endfacet
  facet normal -0.891007 -0.45399 0
    outer loop
      vertex 4.14338 0.988853 -22.4
      vertex 3.68885 1.88091 -2.30345e-16
      vertex 3.68885 1.88091 -22.4
    endloop
  endfacet
  facet normal -0.891007 -0.45399 0
    outer loop
      vertex 3.68885 1.88091 -2.30345e-16
      vertex 4.14338 0.988853 -22.4
      vertex 4.14338 0.988853 -1.211e-16
    endloop
  endfacet
  facet normal 0.987688 -0.156435 0
    outer loop
      vertex -2.1 0 0
      vertex -1.94338 0.988853 -22.4
      vertex -1.94338 0.988853 -1.211e-16
    endloop
  endfacet
  facet normal 0.987688 -0.156435 1.98021e-17
    outer loop
      vertex -1.94338 0.988853 -22.4
      vertex -2.1 0 0
      vertex -2.1 -2.74321e-15 -22.4
    endloop
  endfacet
  facet normal 0.453991 0.891006 -0
    outer loop
      vertex 0.111145 -3.04338 -22.4
      vertex -0.780912 -2.58885 3.17043e-16
      vertex 0.111145 -3.04338 3.72707e-16
    endloop
  endfacet
  facet normal 0.453991 0.891006 0
    outer loop
      vertex -0.780912 -2.58885 3.17043e-16
      vertex 0.111145 -3.04338 -22.4
      vertex -0.780912 -2.58885 -22.4
    endloop
  endfacet
  facet normal -0.987688 -0.156435 0
    outer loop
      vertex 4.14338 0.988853 -22.4
      vertex 4.3 0 0
      vertex 4.14338 0.988853 -1.211e-16
    endloop
  endfacet
  facet normal -0.987688 -0.156435 1.91577e-17
    outer loop
      vertex 4.3 0 0
      vertex 4.14338 0.988853 -22.4
      vertex 4.3 -2.74321e-15 -22.4
    endloop
  endfacet
  facet normal -0.453991 -0.891006 0
    outer loop
      vertex 2.08885 3.04338 -22.4
      vertex 2.98091 2.58885 -3.17043e-16
      vertex 2.08885 3.04338 -3.72707e-16
    endloop
  endfacet
  facet normal -0.453991 -0.891006 -0
    outer loop
      vertex 2.98091 2.58885 -3.17043e-16
      vertex 2.08885 3.04338 -22.4
      vertex 2.98091 2.58885 -22.4
    endloop
  endfacet
  facet normal 0.707107 -0.707107 0
    outer loop
      vertex -1.48885 1.88091 -2.30345e-16
      vertex -0.780912 2.58885 -22.4
      vertex -0.780912 2.58885 -3.17043e-16
    endloop
  endfacet
  facet normal 0.707107 -0.707107 0
    outer loop
      vertex -0.780912 2.58885 -22.4
      vertex -1.48885 1.88091 -2.30345e-16
      vertex -1.48885 1.88091 -22.4
    endloop
  endfacet
  facet normal 0.156434 -0.987688 0
    outer loop
      vertex 0.111145 3.04338 -22.4
      vertex 1.1 3.2 -3.91887e-16
      vertex 0.111145 3.04338 -3.72707e-16
    endloop
  endfacet
  facet normal 0.156434 -0.987688 0
    outer loop
      vertex 1.1 3.2 -3.91887e-16
      vertex 0.111145 3.04338 -22.4
      vertex 1.1 3.2 -22.4
    endloop
  endfacet
  facet normal 0.891007 -0.45399 0
    outer loop
      vertex -1.94338 0.988853 -1.211e-16
      vertex -1.48885 1.88091 -22.4
      vertex -1.48885 1.88091 -2.30345e-16
    endloop
  endfacet
  facet normal 0.891007 -0.45399 0
    outer loop
      vertex -1.48885 1.88091 -22.4
      vertex -1.94338 0.988853 -1.211e-16
      vertex -1.94338 0.988853 -22.4
    endloop
  endfacet
  facet normal -0.707106 -0.707107 0
    outer loop
      vertex 2.98091 2.58885 -22.4
      vertex 3.68885 1.88091 -2.30345e-16
      vertex 2.98091 2.58885 -3.17043e-16
    endloop
  endfacet
  facet normal -0.707106 -0.707107 -0
    outer loop
      vertex 3.68885 1.88091 -2.30345e-16
      vertex 2.98091 2.58885 -22.4
      vertex 3.68885 1.88091 -22.4
    endloop
  endfacet
  facet normal 0.453991 -0.891006 0
    outer loop
      vertex -0.780912 2.58885 -22.4
      vertex 0.111145 3.04338 -3.72707e-16
      vertex -0.780912 2.58885 -3.17043e-16
    endloop
  endfacet
  facet normal 0.453991 -0.891006 0
    outer loop
      vertex 0.111145 3.04338 -3.72707e-16
      vertex -0.780912 2.58885 -22.4
      vertex 0.111145 3.04338 -22.4
    endloop
  endfacet
  facet normal -1 0 0
    outer loop
      vertex -5.9 1.95705 -22.4
      vertex -5.9 2.76665 -16.0388
      vertex -5.9 2.76665 -22.4
    endloop
  endfacet
  facet normal -1 0 0
    outer loop
      vertex -5.9 -1.95705 -22.4
      vertex -5.9 2.76665 -16.0388
      vertex -5.9 1.95705 -22.4
    endloop
  endfacet
  facet normal -1 0 0
    outer loop
      vertex -5.9 2.76665 -16.0388
      vertex -5.9 1.95705 -14.784
      vertex -5.9 2.03457 -14.784
    endloop
  endfacet
  facet normal -1 -0 0
    outer loop
      vertex -5.9 2.76665 -16.0388
      vertex -5.9 -1.95705 -22.4
      vertex -5.9 1.95705 -14.784
    endloop
  endfacet
  facet normal -1 0 0
    outer loop
      vertex -5.9 -1.95705 2.39669e-16
      vertex -5.9 1.95705 -14.784
      vertex -5.9 -1.95705 -22.4
    endloop
  endfacet
  facet normal -1 0 0
    outer loop
      vertex -5.9 1.95705 -14.784
      vertex -5.9 -1.95705 2.39669e-16
      vertex -5.9 1.95705 -2.39669e-16
    endloop
  endfacet
  facet normal -1 0 0
    outer loop
      vertex -5.9 2.76665 -16.0388
      vertex -5.9 2.03457 -14.784
      vertex -5.9 2.76665 -2.41707
    endloop
  endfacet
  facet normal -1 -0 0
    outer loop
      vertex -5.9 2.76665 -2.41707
      vertex -5.9 2.03457 -14.784
      vertex -5.9 2.03457 -1.73361
    endloop
  endfacet
endsolid OpenSCAD_Model
