999
Inkscape export via OpenSCAD DXF Export
  0
SECTION
  2
HEADER
  9
$ACADVER
  1
AC1014
  9
$HANDSEED
  5
FFFF
  9
$MEASUREMENT
 70
     1
  0
ENDSEC
  0
SECTION
  2
TABLES
  0
TABLE
  2
VPORT
  5
8
330
0
100
AcDbSymbolTable
 70
     4
  0
VPORT
  5
2E
330
8
100
AcDbSymbolTableRecord
100
AcDbViewportTableRecord
  2
*ACTIVE
 70
     0
 10
0.0
 20
0.0
 11
1.0
 21
1.0
 12
210.0
 22
148.5
 13
0.0
 23
0.0
 14
10.0
 24
10.0
 15
10.0
 25
10.0
 16
0.0
 26
0.0
 36
1.0
 17
0.0
 27
0.0
 37
0.0
 40
341.0
 41
1.24
 42
50.0
 43
0.0
 44
0.0
 50
0.0
 51
0.0
 71
     0
 72
   100
 73
     1
 74
     3
 75
     0
 76
     0
 77
     0
 78
     0
  0
ENDTAB
  0
TABLE
  2
LTYPE
  5
5
330
0
100
AcDbSymbolTable
 70
     1
  0
LTYPE
  5
14
330
5
100
AcDbSymbolTableRecord
100
AcDbLinetypeTableRecord
  2
BYBLOCK
 70
     0
  3

 72
    65
 73
     0
 40
0.0
  0
LTYPE
  5
15
330
5
100
AcDbSymbolTableRecord
100
AcDbLinetypeTableRecord
  2
BYLAYER
 70
     0
  3

 72
    65
 73
     0
 40
0.0
  0
LTYPE
  5
16
330
5
100
AcDbSymbolTableRecord
100
AcDbLinetypeTableRecord
  2
CONTINUOUS
 70
     0
  3
Solid line
 72
    65
 73
     0
 40
0.0
  0
ENDTAB
  0
TABLE
0
TABLE
2
LAYER
5
2
330
0
100
AcDbSymbolTable
70
2
0
LAYER
5
10
330
2
100
AcDbSymbolTableRecord
100
AcDbLayerTableRecord
2
lines
70
0
62
7
6
CONTINUOUS
0
LAYER
5
10
330
2
100
AcDbSymbolTableRecord
100
AcDbLayerTableRecord
2
lines_2
70
0
62
7
6
CONTINUOUS
0
ENDTAB
0
ENDSEC
  0
ENDTAB
  0
TABLE
  2
STYLE
  5
3
330
0
100
AcDbSymbolTable
 70
     1
  0
STYLE
  5
11
330
3
100
AcDbSymbolTableRecord
100
AcDbTextStyleTableRecord
  2
STANDARD
 70
     0
 40
0.0
 41
1.0
 50
0.0
 71
     0
 42
2.5
  3
txt
  4

  0
ENDTAB
  0
TABLE
  2
VIEW
  5
6
330
0
100
AcDbSymbolTable
 70
     0
  0
ENDTAB
  0
TABLE
  2
UCS
  5
7
330
0
100
AcDbSymbolTable
 70
     0
  0
ENDTAB
  0
TABLE
  2
APPID
  5
9
330
0
100
AcDbSymbolTable
 70
     2
  0
APPID
  5
12
330
9
100
AcDbSymbolTableRecord
100
AcDbRegAppTableRecord
  2
ACAD
 70
     0
  0
ENDTAB
  0
TABLE
  2
DIMSTYLE
  5
A
330
0
100
AcDbSymbolTable
 70
     1
  0
DIMSTYLE
105
27
330
A
100
AcDbSymbolTableRecord
100
AcDbDimStyleTableRecord
  2
ISO-25
 70
     0
  3

  4

  5

  6

  7

 40
1.0
 41
2.5
 42
0.625
 43
3.75
 44
1.25
 45
0.0
 46
0.0
 47
0.0
 48
0.0
140
2.5
141
2.5
142
0.0
143
0.03937007874016
144
1.0
145
0.0
146
1.0
147
0.625
 71
     0
 72
     0
 73
     0
 74
     0
 75
     0
 76
     0
 77
     1
 78
     8
170
     0
171
     3
172
     1
173
     0
174
     0
175
     0
176
     0
177
     0
178
     0
270
     2
271
     2
272
     2
273
     2
274
     3
340
11
275
     0
280
     0
281
     0
282
     0
283
     0
284
     8
285
     0
286
     0
287
     3
288
     0
  0
ENDTAB
  0
TABLE
  2
BLOCK_RECORD
  5
1
330
0
100
AcDbSymbolTable
 70
     1
  0
BLOCK_RECORD
  5
1F
330
1
100
AcDbSymbolTableRecord
100
AcDbBlockTableRecord
  2
*MODEL_SPACE
  0
BLOCK_RECORD
  5
1B
330
1
100
AcDbSymbolTableRecord
100
AcDbBlockTableRecord
  2
*PAPER_SPACE
  0
ENDTAB
  0
ENDSEC
  0
SECTION
  2
BLOCKS
  0
BLOCK
  5
20
330
1F
100
AcDbEntity
  8
0
100
AcDbBlockBegin
  2
*MODEL_SPACE
 70
     0
 10
0.0
 20
0.0
 30
0.0
  3
*MODEL_SPACE
  1

  0
ENDBLK
  5
21
330
1F
100
AcDbEntity
  8
0
100
AcDbBlockEnd
  0
BLOCK
  5
1C
330
1B
100
AcDbEntity
 67
     1
  8
0
100
AcDbBlockBegin
  2
*PAPER_SPACE
  1

  0
ENDBLK
  5
1D
330
1B
100
AcDbEntity
 67
     1
  8
0
100
AcDbBlockEnd
  0
ENDSEC
  0
SECTION
  2
ENTITIES
0
DIMENSION
5
83
100
AcDbEntity
62
256
370
-1
6
ByLayer
1
total_width
3
Standard
70
0
71
5
72
1
41
1.0
100
AcDbAlignedDimension
13
0.000000
23
0.000000
33
0.0
14
292.012342
24
0.000000
34
0.0
50
0.000000
100
AcDbRotatedDimension
0
DIMENSION
5
83
100
AcDbEntity
62
256
370
-1
6
ByLayer
1
total_height
3
Standard
70
0
71
5
72
1
41
1.0
100
AcDbAlignedDimension
13
0.000000
23
0.000000
33
0.0
14
0.000000
24
291.817778
34
0.0
50
90.000000
100
AcDbRotatedDimension
0
DIMENSION
8
lines
5
83
100
AcDbEntity
62
256
370
-1
6
ByLayer
1
lines_width
3
Standard
70
0
71
5
72
1
41
1.0
100
AcDbAlignedDimension
13
0.000000
23
0.000000
33
0.0
14
292.012342
24
0.000000
34
0.0
50
0.000000
100
AcDbRotatedDimension
0
DIMENSION
8
lines
5
83
100
AcDbEntity
62
256
370
-1
6
ByLayer
1
lines_height
3
Standard
70
0
71
5
72
1
41
1.0
100
AcDbAlignedDimension
13
0.000000
23
0.000000
33
0.0
14
0.000000
24
291.817778
34
0.0
50
90.000000
100
AcDbRotatedDimension
0
DIMENSION
8
lines_2
5
83
100
AcDbEntity
62
256
370
-1
6
ByLayer
1
lines_2_width
3
Standard
70
0
71
5
72
1
41
1.0
100
AcDbAlignedDimension
13
27.877875
23
0.000000
33
0.0
14
268.909341
24
0.000000
34
0.0
50
0.000000
100
AcDbRotatedDimension
0
DIMENSION
8
lines_2
5
83
100
AcDbEntity
62
256
370
-1
6
ByLayer
1
lines_2_height
3
Standard
70
0
71
5
72
1
41
1.0
100
AcDbAlignedDimension
13
0.000000
23
7.303665
33
0.0
14
0.000000
24
285.281285
34
0.0
50
90.000000
100
AcDbRotatedDimension
0
LWPOLYLINE
100
AcDbPolyline
8
lines
90
2
70
0
10
0.000000
20
135.272204
30
0.0
10
0.120189
20
163.155946
30
0.0
0
LWPOLYLINE
100
AcDbPolyline
8
lines
90
2
70
0
10
220.425786
20
0.060085
30
0.0
10
251.219008
20
0.000000
30
0.0
0
LWPOLYLINE
100
AcDbPolyline
8
lines
90
2
70
0
10
291.842388
20
185.609713
30
0.0
10
292.012342
20
213.995082
30
0.0
0
LWPOLYLINE
100
AcDbPolyline
8
lines
90
2
70
0
10
135.332298
20
291.817778
30
0.0
10
162.875922
20
291.757393
30
0.0
0
LWPOLYLINE
100
AcDbPolyline
8
lines_2
90
432
70
0
10
127.719729
20
179.904548
30
0.0
10
126.625203
20
176.887623
30
0.0
10
125.692854
20
173.329635
30
0.0
10
123.940577
20
164.660409
30
0.0
10
121.714673
20
154.036754
30
0.0
10
120.190290
20
148.035730
30
0.0
10
118.266916
20
141.598554
30
0.0
10
116.221272
20
135.715767
30
0.0
10
115.234074
20
133.309455
30
0.0
10
114.230021
20
131.224402
30
0.0
10
113.178659
20
129.434009
30
0.0
10
112.049534
20
127.911680
30
0.0
10
110.812194
20
126.630817
30
0.0
10
109.436184
20
125.564824
30
0.0
10
107.891052
20
124.687102
30
0.0
10
106.146344
20
123.971055
30
0.0
10
104.171606
20
123.390086
30
0.0
10
101.936386
20
122.917597
30
0.0
10
96.562683
20
122.191670
30
0.0
10
89.781609
20
121.580498
30
0.0
10
85.006502
20
121.336875
30
0.0
10
80.781617
20
121.391068
30
0.0
10
77.073961
20
121.666958
30
0.0
10
73.850539
20
122.088430
30
0.0
10
68.724429
20
123.063646
30
0.0
10
65.139341
20
123.707780
30
0.0
10
63.842199
20
123.715397
30
0.0
10
62.831332
20
123.411892
30
0.0
10
62.073749
20
122.721146
30
0.0
10
61.536456
20
121.567044
30
0.0
10
61.186460
20
119.873467
30
0.0
10
60.990769
20
117.564299
30
0.0
10
60.930324
20
110.794718
30
0.0
10
61.228677
20
104.025833
30
0.0
10
61.557478
20
101.727058
30
0.0
10
62.029589
20
100.059039
30
0.0
10
62.662682
20
98.952008
30
0.0
10
63.474428
20
98.336199
30
0.0
10
64.482498
20
98.141845
30
0.0
10
65.704562
20
98.299178
30
0.0
10
68.861360
20
99.389837
30
0.0
10
73.086190
20
101.050041
30
0.0
10
75.643294
20
101.919304
30
0.0
10
78.520420
20
102.721652
30
0.0
10
81.735237
20
103.387318
30
0.0
10
85.305417
20
103.846534
30
0.0
10
97.410773
20
104.777597
30
0.0
10
101.480367
20
104.858017
30
0.0
10
104.404930
20
104.605958
30
0.0
10
105.479315
20
104.337497
30
0.0
10
106.317231
20
103.964614
30
0.0
10
106.935274
20
103.480209
30
0.0
10
107.350039
20
102.877181
30
0.0
10
107.578124
20
102.148429
30
0.0
10
107.636124
20
101.286854
30
0.0
10
107.308255
20
99.136829
30
0.0
10
105.760466
20
93.780127
30
0.0
10
103.999520
20
88.980781
30
0.0
10
100.785207
20
80.895621
30
0.0
10
99.805361
20
77.530538
30
0.0
10
99.575849
20
76.000031
30
0.0
10
99.559404
20
74.564275
30
0.0
10
99.785622
20
73.218315
30
0.0
10
100.284097
20
71.957196
30
0.0
10
101.084425
20
70.775966
30
0.0
10
102.216201
20
69.669668
30
0.0
10
104.828530
20
67.636983
30
0.0
10
107.441479
20
66.038094
30
0.0
10
108.740443
20
65.511579
30
0.0
10
110.030270
20
65.225818
30
0.0
10
111.307865
20
65.224915
30
0.0
10
112.570129
20
65.552972
30
0.0
10
113.813965
20
66.254089
30
0.0
10
115.036277
20
67.372370
30
0.0
10
116.233968
20
68.951916
30
0.0
10
117.403940
20
71.036829
30
0.0
10
118.543096
20
73.671212
30
0.0
10
119.648340
20
76.899166
30
0.0
10
120.716574
20
80.764794
30
0.0
10
121.744700
20
85.312196
30
0.0
10
123.409162
20
92.767247
30
0.0
10
124.229652
20
95.782550
30
0.0
10
125.082572
20
98.369257
30
0.0
10
125.998118
20
100.562032
30
0.0
10
127.006481
20
102.395540
30
0.0
10
128.137856
20
103.904444
30
0.0
10
129.422437
20
105.123409
30
0.0
10
130.890417
20
106.087100
30
0.0
10
132.571989
20
106.830180
30
0.0
10
134.497348
20
107.387314
30
0.0
10
136.696687
20
107.793166
30
0.0
10
142.038079
20
108.289681
30
0.0
10
148.837715
20
108.597040
30
0.0
10
152.308597
20
108.628256
30
0.0
10
155.140916
20
108.402237
30
0.0
10
157.378099
20
107.897306
30
0.0
10
159.063574
20
107.091784
30
0.0
10
160.240767
20
105.963994
30
0.0
10
160.953106
20
104.492256
30
0.0
10
161.244016
20
102.654894
30
0.0
10
161.156926
20
100.430229
30
0.0
10
160.735261
20
97.796583
30
0.0
10
160.022449
20
94.732278
30
0.0
10
157.897092
20
87.224979
30
0.0
10
155.128269
20
77.734907
30
0.0
10
152.063396
20
66.088638
30
0.0
10
148.919193
20
53.868708
30
0.0
10
145.979588
20
42.841781
30
0.0
10
144.726580
20
37.807810
30
0.0
10
143.692807
20
33.110630
30
0.0
10
142.934296
20
28.763087
30
0.0
10
142.507076
20
24.778028
30
0.0
10
142.467174
20
21.168300
30
0.0
10
142.870618
20
17.946749
30
0.0
10
143.256105
20
16.485554
30
0.0
10
143.773438
20
15.126221
30
0.0
10
144.429622
20
13.870356
30
0.0
10
145.231660
20
12.719564
30
0.0
10
146.186556
20
11.675451
30
0.0
10
147.301314
20
10.739623
30
0.0
10
148.582936
20
9.913686
30
0.0
10
150.038427
20
9.199246
30
0.0
10
151.674789
20
8.597908
30
0.0
10
153.499027
20
8.111279
30
0.0
10
157.739142
20
7.488569
30
0.0
10
162.539843
20
7.303665
30
0.0
10
167.614758
20
7.512707
30
0.0
10
172.918760
20
8.103927
30
0.0
10
178.406720
20
9.065557
30
0.0
10
184.033508
20
10.385831
30
0.0
10
189.753995
20
12.052980
30
0.0
10
195.523052
20
14.055237
30
0.0
10
201.295551
20
16.380833
30
0.0
10
207.026362
20
19.018002
30
0.0
10
212.670356
20
21.954977
30
0.0
10
218.182404
20
25.179988
30
0.0
10
223.517378
20
28.681269
30
0.0
10
228.630148
20
32.447052
30
0.0
10
233.475585
20
36.465569
30
0.0
10
238.008561
20
40.725053
30
0.0
10
242.183945
20
45.213736
30
0.0
10
245.378153
20
49.002293
30
0.0
10
248.396503
20
52.805372
30
0.0
10
251.233011
20
56.646439
30
0.0
10
253.881695
20
60.548960
30
0.0
10
256.336568
20
64.536400
30
0.0
10
258.591649
20
68.632224
30
0.0
10
260.640953
20
72.859899
30
0.0
10
262.478496
20
77.242890
30
0.0
10
264.098294
20
81.804664
30
0.0
10
265.494363
20
86.568685
30
0.0
10
266.660719
20
91.558419
30
0.0
10
267.591379
20
96.797332
30
0.0
10
268.280359
20
102.308889
30
0.0
10
268.721674
20
108.116557
30
0.0
10
268.909341
20
114.243801
30
0.0
10
268.837376
20
120.714087
30
0.0
10
268.632972
20
124.067253
30
0.0
10
268.227628
20
127.475477
30
0.0
10
267.627483
20
130.936287
30
0.0
10
266.838675
20
134.447212
30
0.0
10
265.867343
20
138.005783
30
0.0
10
264.719625
20
141.609528
30
0.0
10
261.919587
20
148.942660
30
0.0
10
258.487671
20
156.426842
30
0.0
10
254.472985
20
164.042310
30
0.0
10
249.924639
20
171.769298
30
0.0
10
244.891741
20
179.588041
30
0.0
10
239.423400
20
187.478775
30
0.0
10
233.568726
20
195.421733
30
0.0
10
227.376828
20
203.397152
30
0.0
10
220.896814
20
211.385265
30
0.0
10
214.177793
20
219.366308
30
0.0
10
207.268876
20
227.320517
30
0.0
10
193.077784
20
243.069367
30
0.0
10
171.049002
20
267.218296
30
0.0
10
159.874129
20
279.778274
30
0.0
10
155.870112
20
284.536779
30
0.0
10
155.353896
20
285.281285
30
0.0
10
154.185487
20
284.253216
30
0.0
10
148.596438
20
278.851776
30
0.0
10
135.461013
20
265.601116
30
0.0
10
111.653478
20
241.025386
30
0.0
10
96.656333
20
225.432121
30
0.0
10
82.129427
20
209.984178
30
0.0
10
75.173111
20
202.284222
30
0.0
10
68.491312
20
194.584017
30
0.0
10
62.136348
20
186.871373
30
0.0
10
56.160538
20
179.134095
30
0.0
10
50.616202
20
171.359991
30
0.0
10
45.555658
20
163.536869
30
0.0
10
41.031224
20
155.652536
30
0.0
10
37.095221
20
147.694798
30
0.0
10
35.364230
20
143.684592
30
0.0
10
33.799966
20
139.651463
30
0.0
10
32.408969
20
135.593887
30
0.0
10
31.197779
20
131.510339
30
0.0
10
30.172936
20
127.399295
30
0.0
10
29.340979
20
123.259232
30
0.0
10
28.708448
20
119.088625
30
0.0
10
28.281884
20
114.885950
30
0.0
10
27.877875
20
106.726362
30
0.0
10
27.931238
20
99.106795
30
0.0
10
28.411656
20
92.000743
30
0.0
10
29.288811
20
85.381701
30
0.0
10
30.532386
20
79.223165
30
0.0
10
32.112063
20
73.498630
30
0.0
10
33.997525
20
68.181590
30
0.0
10
36.158454
20
63.245540
30
0.0
10
38.564533
20
58.663976
30
0.0
10
41.185445
20
54.410392
30
0.0
10
43.990871
20
50.458284
30
0.0
10
46.950495
20
46.781146
30
0.0
10
50.033998
20
43.352473
30
0.0
10
53.211063
20
40.145761
30
0.0
10
56.451374
20
37.134505
30
0.0
10
59.724612
20
34.292199
30
0.0
10
63.244274
20
31.491038
30
0.0
10
67.187301
20
28.659473
30
0.0
10
71.468545
20
25.855386
30
0.0
10
76.002858
20
23.136655
30
0.0
10
80.705090
20
20.561162
30
0.0
10
85.490092
20
18.186788
30
0.0
10
90.272717
20
16.071412
30
0.0
10
94.967814
20
14.272915
30
0.0
10
99.490236
20
12.849178
30
0.0
10
103.754834
20
11.858081
30
0.0
10
107.676458
20
11.357505
30
0.0
10
111.169961
20
11.405330
30
0.0
10
112.729558
20
11.652981
30
0.0
10
114.150193
20
12.059437
30
0.0
10
115.421224
20
12.631934
30
0.0
10
116.532006
20
13.377706
30
0.0
10
117.471896
20
14.303989
30
0.0
10
118.230251
20
15.418018
30
0.0
10
118.796427
20
16.727027
30
0.0
10
119.159779
20
18.238253
30
0.0
10
119.265592
20
20.645042
30
0.0
10
118.809970
20
22.847864
30
0.0
10
117.841720
20
24.871850
30
0.0
10
116.409647
20
26.742131
30
0.0
10
114.562556
20
28.483839
30
0.0
10
112.349254
20
30.122105
30
0.0
10
109.818546
20
31.682060
30
0.0
10
107.019237
20
33.188835
30
0.0
10
100.810041
20
36.143369
30
0.0
10
94.112111
20
39.186757
30
0.0
10
87.315890
20
42.520048
30
0.0
10
84.002935
20
44.358236
30
0.0
10
80.811824
20
46.344292
30
0.0
10
74.600537
20
50.701611
30
0.0
10
71.548876
20
53.087692
30
0.0
10
68.570152
20
55.649375
30
0.0
10
65.692080
20
58.414650
30
0.0
10
62.942369
20
61.411508
30
0.0
10
60.348733
20
64.667939
30
0.0
10
57.938884
20
68.211934
30
0.0
10
55.740535
20
72.071483
30
0.0
10
53.781397
20
76.274577
30
0.0
10
52.089182
20
80.849205
30
0.0
10
50.691603
20
85.823359
30
0.0
10
49.616373
20
91.225029
30
0.0
10
48.891203
20
97.082206
30
0.0
10
48.543805
20
103.422879
30
0.0
10
48.601892
20
110.275040
30
0.0
10
48.878293
20
113.887353
30
0.0
10
49.428147
20
117.600519
30
0.0
10
50.237539
20
121.404729
30
0.0
10
51.292550
20
125.290173
30
0.0
10
52.579264
20
129.247044
30
0.0
10
54.083762
20
133.265531
30
0.0
10
55.792128
20
137.335827
30
0.0
10
57.690444
20
141.448121
30
0.0
10
62.001257
20
149.759472
30
0.0
10
66.904861
20
158.121111
30
0.0
10
72.289917
20
166.454568
30
0.0
10
78.045087
20
174.681370
30
0.0
10
84.059031
20
182.723047
30
0.0
10
90.220409
20
190.501126
30
0.0
10
96.417883
20
197.937137
30
0.0
10
102.540114
20
204.952607
30
0.0
10
108.475762
20
211.469065
30
0.0
10
114.113488
20
217.408040
30
0.0
10
119.341953
20
222.691059
30
0.0
10
124.049818
20
227.239652
30
0.0
10
147.996668
20
250.072297
30
0.0
10
154.301712
20
256.284050
30
0.0
10
158.499010
20
251.910076
30
0.0
10
182.909439
20
226.027321
30
0.0
10
193.306061
20
214.668690
30
0.0
10
203.974179
20
202.328215
30
0.0
10
209.265383
20
195.896026
30
0.0
10
214.450862
20
189.345864
30
0.0
10
219.472749
20
182.720224
30
0.0
10
224.273179
20
176.061601
30
0.0
10
228.794285
20
169.412493
30
0.0
10
232.978200
20
162.815393
30
0.0
10
236.767059
20
156.312799
30
0.0
10
240.102994
20
149.947206
30
0.0
10
242.928140
20
143.761108
30
0.0
10
245.184631
20
137.797004
30
0.0
10
246.814599
20
132.097387
30
0.0
10
247.376555
20
129.360041
30
0.0
10
247.760180
20
126.704753
30
0.0
10
248.225346
20
121.586848
30
0.0
10
248.454875
20
116.673846
30
0.0
10
248.452116
20
111.951891
30
0.0
10
248.220416
20
107.407131
30
0.0
10
247.763122
20
103.025711
30
0.0
10
247.083582
20
98.793776
30
0.0
10
246.185143
20
94.697473
30
0.0
10
245.071154
20
90.722948
30
0.0
10
243.744961
20
86.856345
30
0.0
10
242.209912
20
83.083812
30
0.0
10
240.469355
20
79.391494
30
0.0
10
238.526637
20
75.765536
30
0.0
10
236.385107
20
72.192085
30
0.0
10
234.048110
20
68.657287
30
0.0
10
231.518996
20
65.147286
30
0.0
10
228.801112
20
61.648230
30
0.0
10
225.893212
20
58.218575
30
0.0
10
222.814619
20
54.933546
30
0.0
10
219.599525
20
51.804438
30
0.0
10
216.282120
20
48.842548
30
0.0
10
212.896597
20
46.059171
30
0.0
10
209.477149
20
43.465604
30
0.0
10
206.057966
20
41.073140
30
0.0
10
202.673241
20
38.893078
30
0.0
10
199.357165
20
36.936711
30
0.0
10
196.143932
20
35.215336
30
0.0
10
193.067732
20
33.740249
30
0.0
10
190.162757
20
32.522745
30
0.0
10
187.463200
20
31.574121
30
0.0
10
185.003252
20
30.905671
30
0.0
10
182.817105
20
30.528692
30
0.0
10
180.938952
20
30.454479
30
0.0
10
179.298971
20
30.696427
30
0.0
10
177.801477
20
31.237761
30
0.0
10
176.441861
20
32.044521
30
0.0
10
175.215516
20
33.082748
30
0.0
10
174.117835
20
34.318483
30
0.0
10
173.144209
20
35.717764
30
0.0
10
172.290031
20
37.246633
30
0.0
10
171.550694
20
38.871130
30
0.0
10
170.398110
20
42.271169
30
0.0
10
169.649597
20
45.646203
30
0.0
10
169.268293
20
48.724555
30
0.0
10
169.217337
20
51.234546
30
0.0
10
169.632045
20
56.885710
30
0.0
10
170.202924
20
61.314848
30
0.0
10
171.198725
20
67.317969
30
0.0
10
172.756376
20
75.273780
30
0.0
10
175.012805
20
85.560992
30
0.0
10
178.104940
20
98.558312
30
0.0
10
182.169709
20
114.644449
30
0.0
10
186.721161
20
131.262183
30
0.0
10
190.838155
20
145.530349
30
0.0
10
194.004839
20
157.341745
30
0.0
10
195.070612
20
162.292655
30
0.0
10
195.705364
20
166.589171
30
0.0
10
195.844614
20
170.217895
30
0.0
10
195.708274
20
171.777647
30
0.0
10
195.423879
20
173.165426
30
0.0
10
194.983368
20
174.379557
30
0.0
10
194.378680
20
175.418364
30
0.0
10
193.601755
20
176.280173
30
0.0
10
192.644534
20
176.963309
30
0.0
10
191.498956
20
177.466096
30
0.0
10
190.156961
20
177.786860
30
0.0
10
188.610489
20
177.923925
30
0.0
10
186.851479
20
177.875618
30
0.0
10
184.871872
20
177.640262
30
0.0
10
182.663607
20
177.216182
30
0.0
10
177.528863
20
175.795153
30
0.0
10
174.487482
20
174.604321
30
0.0
10
172.239954
20
173.256743
30
0.0
10
170.690322
20
171.749449
30
0.0
10
169.742627
20
170.079465
30
0.0
10
169.300909
20
168.243820
30
0.0
10
169.269209
20
166.239540
30
0.0
10
169.551569
20
164.063654
30
0.0
10
170.052028
20
161.713189
30
0.0
10
171.323411
20
156.476636
30
0.0
10
171.902416
20
153.584602
30
0.0
10
172.315685
20
150.506101
30
0.0
10
172.467258
20
147.238161
30
0.0
10
172.261177
20
143.777808
30
0.0
10
171.601482
20
140.122071
30
0.0
10
170.392214
20
136.267977
30
0.0
10
169.478089
20
134.275949
30
0.0
10
168.405374
20
132.625658
30
0.0
10
167.177871
20
131.283293
30
0.0
10
165.799381
20
130.215040
30
0.0
10
164.273705
20
129.387087
30
0.0
10
162.604646
20
128.765621
30
0.0
10
160.796004
20
128.316829
30
0.0
10
158.851581
20
128.006899
30
0.0
10
154.570597
20
127.668371
30
0.0
10
149.792107
20
127.479536
30
0.0
10
144.546523
20
127.169891
30
0.0
10
138.864255
20
126.468934
30
0.0
10
136.977698
20
126.229844
30
0.0
10
135.414792
20
126.203263
30
0.0
10
134.156150
20
126.392533
30
0.0
10
133.182385
20
126.800995
30
0.0
10
132.474107
20
127.431988
30
0.0
10
132.011931
20
128.288855
30
0.0
10
131.776468
20
129.374936
30
0.0
10
131.748330
20
130.693571
30
0.0
10
132.236481
20
134.041870
30
0.0
10
133.321282
20
138.360478
30
0.0
10
136.660427
20
150.015530
30
0.0
10
139.894259
20
161.814922
30
0.0
10
141.054890
20
166.401319
30
0.0
10
141.888947
20
170.225474
30
0.0
10
142.379641
20
173.372356
30
0.0
10
142.510186
20
175.926934
30
0.0
10
142.263793
20
177.974177
30
0.0
10
141.623675
20
179.599054
30
0.0
10
140.513134
20
181.015973
30
0.0
10
138.955830
20
182.296766
30
0.0
10
137.085508
20
183.312533
30
0.0
10
135.035913
20
183.934378
30
0.0
10
133.985685
20
184.057298
30
0.0
10
132.940792
20
184.033400
30
0.0
10
131.917955
20
183.846572
30
0.0
10
130.933891
20
183.480701
30
0.0
10
130.005318
20
182.919676
30
0.0
10
129.148954
20
182.147384
30
0.0
10
128.381518
20
181.147712
30
0.0
10
127.719729
20
179.904548
30
0.0
10
127.719729
20
179.904548
30
0.0
  0
ENDSEC
  0
SECTION
  2
OBJECTS
  0
DICTIONARY
  5
C
330
0
100
AcDbDictionary
  3
ACAD_GROUP
350
D
  3
ACAD_MLINESTYLE
350
17
  0
DICTIONARY
  5
D
330
C
100
AcDbDictionary
  0
DICTIONARY
  5
1A
330
C
100
AcDbDictionary
  0
DICTIONARY
  5
17
330
C
100
AcDbDictionary
  3
STANDARD
350
18
  0
DICTIONARY
  5
19
330
C
100
AcDbDictionary
  0
ENDSEC
  0
EOF
