solid OpenSCAD_Model
  facet normal -0.989821 -3.16003e-17 0.142315
    outer loop
      vertex -7 0 0
      vertex -6.71645 3.5 1.97213
      vertex -7 3.5 7.77156e-16
    endloop
  endfacet
  facet normal -0.989821 0 0.142315
    outer loop
      vertex -6.71645 3.5 1.97213
      vertex -7 0 0
      vertex -6.71645 -4.379e-16 1.97213
    endloop
  endfacet
  facet normal 0.989821 -3.18415e-17 0.142315
    outer loop
      vertex 6.71645 3.5 1.97213
      vertex 7 -1.90348e-31 8.57253e-16
      vertex 7 3.5 1.63441e-15
    endloop
  endfacet
  facet normal 0.989821 0 0.142315
    outer loop
      vertex 7 -1.90348e-31 8.57253e-16
      vertex 6.71645 3.5 1.97213
      vertex 6.71645 -4.379e-16 1.97213
    endloop
  endfacet
  facet normal -0.75575 0 0.654861
    outer loop
      vertex -5.88877 -8.40324e-16 3.78448
      vertex -4.91188 3.5 4.91188
      vertex -5.88877 3.5 3.78448
    endloop
  endfacet
  facet normal -0.75575 0 0.654861
    outer loop
      vertex -4.91188 3.5 4.91188
      vertex -5.88877 -8.40324e-16 3.78448
      vertex -4.91188 -1.09066e-15 4.91188
    endloop
  endfacet
  facet normal -0.909632 0 0.415415
    outer loop
      vertex -6.71645 -4.379e-16 1.97213
      vertex -5.88877 3.5 3.78448
      vertex -6.71645 3.5 1.97213
    endloop
  endfacet
  facet normal -0.909632 0 0.415415
    outer loop
      vertex -5.88877 3.5 3.78448
      vertex -6.71645 -4.379e-16 1.97213
      vertex -5.88877 -8.40324e-16 3.78448
    endloop
  endfacet
  facet normal 0 1 -0
    outer loop
      vertex 4.91188 3.5 4.91188
      vertex 4.89949 3.5 5
      vertex 4.94975 3.5 4.94975
    endloop
  endfacet
  facet normal 0 1 0
    outer loop
      vertex 3.53553 3.5 3.53553
      vertex 4.89949 3.5 5
      vertex 4.91188 3.5 4.91188
    endloop
  endfacet
  facet normal 0 1 0
    outer loop
      vertex 3.53553 3.5 3.53553
      vertex 4.91188 3.5 4.91188
      vertex 5.88877 3.5 3.78448
    endloop
  endfacet
  facet normal 0 1 0
    outer loop
      vertex 4.89949 3.5 5
      vertex 3.53553 3.5 3.53553
      vertex 2.07107 3.5 5
    endloop
  endfacet
  facet normal 0 1 0
    outer loop
      vertex 4.6194 3.5 1.91342
      vertex 5.88877 3.5 3.78448
      vertex 6.71645 3.5 1.97213
    endloop
  endfacet
  facet normal 0 1 0
    outer loop
      vertex 5.88877 3.5 3.78448
      vertex 4.6194 3.5 1.91342
      vertex 3.53553 3.5 3.53553
    endloop
  endfacet
  facet normal 0 1 0
    outer loop
      vertex 5 3.5 1.38948e-15
      vertex 6.71645 3.5 1.97213
      vertex 7 3.5 1.63441e-15
    endloop
  endfacet
  facet normal 0 1 0
    outer loop
      vertex 6.71645 3.5 1.97213
      vertex 5 3.5 1.38948e-15
      vertex 4.6194 3.5 1.91342
    endloop
  endfacet
  facet normal 0 1 -0
    outer loop
      vertex 7 3.5 7.77156e-16
      vertex 5 3.5 1.38948e-15
      vertex 7 3.5 1.63441e-15
    endloop
  endfacet
  facet normal 0 1 0
    outer loop
      vertex 7 3.5 7.77156e-16
      vertex 4.6194 3.5 -1.91342
      vertex 5 3.5 1.38948e-15
    endloop
  endfacet
  facet normal 0 1 -0
    outer loop
      vertex 7 3.5 -10.3
      vertex 4.6194 3.5 -1.91342
      vertex 7 3.5 7.77156e-16
    endloop
  endfacet
  facet normal 0 1 0
    outer loop
      vertex 1.91342 3.5 -4.6194
      vertex 7 3.5 -10.3
      vertex 6.12323e-16 3.5 -5
    endloop
  endfacet
  facet normal 0 1 0
    outer loop
      vertex 3.53553 3.5 -3.53553
      vertex 7 3.5 -10.3
      vertex 1.91342 3.5 -4.6194
    endloop
  endfacet
  facet normal 0 1 0
    outer loop
      vertex 4.6194 3.5 -1.91342
      vertex 7 3.5 -10.3
      vertex 3.53553 3.5 -3.53553
    endloop
  endfacet
  facet normal 0 1 -0
    outer loop
      vertex -3.53553 3.5 3.53553
      vertex -4.89949 3.5 5
      vertex -2.07107 3.5 5
    endloop
  endfacet
  facet normal 0 1 0
    outer loop
      vertex -4.89949 3.5 5
      vertex -4.91188 3.5 4.91188
      vertex -4.94975 3.5 4.94975
    endloop
  endfacet
  facet normal 0 1 0
    outer loop
      vertex -4.89949 3.5 5
      vertex -3.53553 3.5 3.53553
      vertex -4.91188 3.5 4.91188
    endloop
  endfacet
  facet normal 0 1 0
    outer loop
      vertex -4.91188 3.5 4.91188
      vertex -3.53553 3.5 3.53553
      vertex -5.88877 3.5 3.78448
    endloop
  endfacet
  facet normal 0 1 -0
    outer loop
      vertex -4.6194 3.5 1.91342
      vertex -5.88877 3.5 3.78448
      vertex -3.53553 3.5 3.53553
    endloop
  endfacet
  facet normal 0 1 0
    outer loop
      vertex -5.88877 3.5 3.78448
      vertex -4.6194 3.5 1.91342
      vertex -6.71645 3.5 1.97213
    endloop
  endfacet
  facet normal 0 1 -0
    outer loop
      vertex -5 3.5 1.64833e-16
      vertex -6.71645 3.5 1.97213
      vertex -4.6194 3.5 1.91342
    endloop
  endfacet
  facet normal 0 1 0
    outer loop
      vertex -6.71645 3.5 1.97213
      vertex -5 3.5 1.64833e-16
      vertex -7 3.5 7.77156e-16
    endloop
  endfacet
  facet normal 0 1 0
    outer loop
      vertex -4.6194 3.5 -1.91342
      vertex -7 3.5 7.77156e-16
      vertex -5 3.5 1.64833e-16
    endloop
  endfacet
  facet normal 0 1 0
    outer loop
      vertex -7 3.5 -10.3
      vertex -4.6194 3.5 -1.91342
      vertex -3.53553 3.5 -3.53553
    endloop
  endfacet
  facet normal 0 1 0
    outer loop
      vertex -7 3.5 -10.3
      vertex 6.12323e-16 3.5 -5
      vertex 7 3.5 -10.3
    endloop
  endfacet
  facet normal 0 1 0
    outer loop
      vertex -4.6194 3.5 -1.91342
      vertex -7 3.5 -10.3
      vertex -7 3.5 7.77156e-16
    endloop
  endfacet
  facet normal 0 1 0
    outer loop
      vertex -1.91342 3.5 -4.6194
      vertex -7 3.5 -10.3
      vertex -3.53553 3.5 -3.53553
    endloop
  endfacet
  facet normal 0 1 0
    outer loop
      vertex 6.12323e-16 3.5 -5
      vertex -7 3.5 -10.3
      vertex -1.91342 3.5 -4.6194
    endloop
  endfacet
  facet normal 0 -1 -2.22045e-16
    outer loop
      vertex -4.91188 -1.09066e-15 4.91188
      vertex -4.89949 -1.11022e-15 5
      vertex -4.94975 -1.09906e-15 4.94975
    endloop
  endfacet
  facet normal 0 -1 -2.22045e-16
    outer loop
      vertex -3.53553 -7.85046e-16 3.53553
      vertex -4.89949 -1.11022e-15 5
      vertex -4.91188 -1.09066e-15 4.91188
    endloop
  endfacet
  facet normal 0 -1 -2.22045e-16
    outer loop
      vertex -3.53553 -7.85046e-16 3.53553
      vertex -4.91188 -1.09066e-15 4.91188
      vertex -5.88877 -8.40324e-16 3.78448
    endloop
  endfacet
  facet normal 0 -1 -2.22045e-16
    outer loop
      vertex -4.89949 -1.11022e-15 5
      vertex -3.53553 -7.85046e-16 3.53553
      vertex -2.07107 -1.11022e-15 5
    endloop
  endfacet
  facet normal 0 -1 -2.22045e-16
    outer loop
      vertex -4.6194 -4.24864e-16 1.91342
      vertex -5.88877 -8.40324e-16 3.78448
      vertex -6.71645 -4.379e-16 1.97213
    endloop
  endfacet
  facet normal 0 -1 -2.22045e-16
    outer loop
      vertex -5.88877 -8.40324e-16 3.78448
      vertex -4.6194 -4.24864e-16 1.91342
      vertex -3.53553 -7.85046e-16 3.53553
    endloop
  endfacet
  facet normal 0 -1 -2.22045e-16
    outer loop
      vertex -5 1.35963e-31 -6.12323e-16
      vertex -6.71645 -4.379e-16 1.97213
      vertex -7 0 0
    endloop
  endfacet
  facet normal 0 -1 -2.22045e-16
    outer loop
      vertex -6.71645 -4.379e-16 1.97213
      vertex -5 1.35963e-31 -6.12323e-16
      vertex -4.6194 -4.24864e-16 1.91342
    endloop
  endfacet
  facet normal 0 -1 -2.22045e-16
    outer loop
      vertex -7 0 0
      vertex -4.6194 4.24864e-16 -1.91342
      vertex -5 1.35963e-31 -6.12323e-16
    endloop
  endfacet
  facet normal 0 -1 -2.22045e-16
    outer loop
      vertex -7 3.06422e-15 -13.8
      vertex -4.6194 4.24864e-16 -1.91342
      vertex -7 0 0
    endloop
  endfacet
  facet normal 0 -1 -2.22045e-16
    outer loop
      vertex -7 3.06422e-15 -13.8
      vertex 6.12323e-16 1.11022e-15 -5
      vertex -1.91342 1.02571e-15 -4.6194
    endloop
  endfacet
  facet normal 0 -1 -2.22045e-16
    outer loop
      vertex 26.69 2.60435e-15 -11.7289
      vertex 24.015 2.28706e-15 -10.3
      vertex 7 2.28706e-15 -10.3
    endloop
  endfacet
  facet normal 0 -1 -2.22045e-16
    outer loop
      vertex 24.015 2.28706e-15 -10.3
      vertex 26.69 2.60435e-15 -11.7289
      vertex 25.865 2.28706e-15 -10.3
    endloop
  endfacet
  facet normal 0 -1 -2.22045e-16
    outer loop
      vertex 29.515 3.06422e-15 -13.8
      vertex 28.34 2.60435e-15 -11.7289
      vertex 26.69 2.60435e-15 -11.7289
    endloop
  endfacet
  facet normal 0 -1 -2.22045e-16
    outer loop
      vertex 29.515 3.06422e-15 -13.8
      vertex 26.69 2.60435e-15 -11.7289
      vertex 7 2.28706e-15 -10.3
    endloop
  endfacet
  facet normal 0 -1 -2.22045e-16
    outer loop
      vertex 28.34 2.60435e-15 -11.7289
      vertex 29.515 2.91977e-15 -13.1495
      vertex 29.857 2.8646e-15 -12.901
    endloop
  endfacet
  facet normal 0 -1 -2.22045e-16
    outer loop
      vertex 28.34 2.60435e-15 -11.7289
      vertex 29.857 2.8646e-15 -12.901
      vertex 30.3466 2.74386e-15 -12.3572
    endloop
  endfacet
  facet normal 0 -1 -2.22045e-16
    outer loop
      vertex -4.6194 4.24864e-16 -1.91342
      vertex -7 3.06422e-15 -13.8
      vertex -3.53553 7.85046e-16 -3.53553
    endloop
  endfacet
  facet normal 0 -1 -2.22045e-16
    outer loop
      vertex -7 3.06422e-15 -13.8
      vertex -1.91342 1.02571e-15 -4.6194
      vertex -3.53553 7.85046e-16 -3.53553
    endloop
  endfacet
  facet normal 0 -1 -2.22045e-16
    outer loop
      vertex 6.12323e-16 1.11022e-15 -5
      vertex -7 3.06422e-15 -13.8
      vertex 7 2.28706e-15 -10.3
    endloop
  endfacet
  facet normal -0 -1 -2.22045e-16
    outer loop
      vertex 29.515 3.06422e-15 -13.8
      vertex 7 2.28706e-15 -10.3
      vertex -7 3.06422e-15 -13.8
    endloop
  endfacet
  facet normal 0 -1 -2.22045e-16
    outer loop
      vertex 28.34 2.60435e-15 -11.7289
      vertex 29.515 3.06422e-15 -13.8
      vertex 29.515 2.91977e-15 -13.1495
    endloop
  endfacet
  facet normal 0 -1 -2.22045e-16
    outer loop
      vertex 3.53553 -7.85046e-16 3.53553
      vertex 4.89949 -1.11022e-15 5
      vertex 2.07107 -1.11022e-15 5
    endloop
  endfacet
  facet normal 0 -1 -2.22045e-16
    outer loop
      vertex 4.89949 -1.11022e-15 5
      vertex 4.91188 -1.09066e-15 4.91188
      vertex 4.94975 -1.09906e-15 4.94975
    endloop
  endfacet
  facet normal 0 -1 -2.22045e-16
    outer loop
      vertex 4.89949 -1.11022e-15 5
      vertex 3.53553 -7.85046e-16 3.53553
      vertex 4.91188 -1.09066e-15 4.91188
    endloop
  endfacet
  facet normal 0 -1 -2.22045e-16
    outer loop
      vertex 4.91188 -1.09066e-15 4.91188
      vertex 3.53553 -7.85046e-16 3.53553
      vertex 5.88877 -8.40324e-16 3.78448
    endloop
  endfacet
  facet normal 0 -1 -2.22045e-16
    outer loop
      vertex 4.6194 -4.24864e-16 1.91342
      vertex 5.88877 -8.40324e-16 3.78448
      vertex 3.53553 -7.85046e-16 3.53553
    endloop
  endfacet
  facet normal 0 -1 -2.22045e-16
    outer loop
      vertex 5.88877 -8.40324e-16 3.78448
      vertex 4.6194 -4.24864e-16 1.91342
      vertex 6.71645 -4.379e-16 1.97213
    endloop
  endfacet
  facet normal 0 -1 -2.22045e-16
    outer loop
      vertex 5 -1.35963e-31 6.12323e-16
      vertex 6.71645 -4.379e-16 1.97213
      vertex 4.6194 -4.24864e-16 1.91342
    endloop
  endfacet
  facet normal 0 -1 -2.22045e-16
    outer loop
      vertex 6.71645 -4.379e-16 1.97213
      vertex 5 -1.35963e-31 6.12323e-16
      vertex 7 -1.90348e-31 8.57253e-16
    endloop
  endfacet
  facet normal 0 -1 -2.22045e-16
    outer loop
      vertex 5 -1.35963e-31 6.12323e-16
      vertex 7 0 0
      vertex 7 -1.90348e-31 8.57253e-16
    endloop
  endfacet
  facet normal 0 -1 -2.22045e-16
    outer loop
      vertex 4.6194 4.24864e-16 -1.91342
      vertex 7 0 0
      vertex 5 -1.35963e-31 6.12323e-16
    endloop
  endfacet
  facet normal 0 -1 -2.22045e-16
    outer loop
      vertex 7 2.28706e-15 -10.3
      vertex 4.6194 4.24864e-16 -1.91342
      vertex 3.53553 7.85046e-16 -3.53553
    endloop
  endfacet
  facet normal 0 -1 -2.22045e-16
    outer loop
      vertex 4.6194 4.24864e-16 -1.91342
      vertex 7 2.28706e-15 -10.3
      vertex 7 0 0
    endloop
  endfacet
  facet normal 0 -1 -2.22045e-16
    outer loop
      vertex 1.91342 1.02571e-15 -4.6194
      vertex 7 2.28706e-15 -10.3
      vertex 3.53553 7.85046e-16 -3.53553
    endloop
  endfacet
  facet normal 0 -1 -2.22045e-16
    outer loop
      vertex 7 2.28706e-15 -10.3
      vertex 1.91342 1.02571e-15 -4.6194
      vertex 6.12323e-16 1.11022e-15 -5
    endloop
  endfacet
  facet normal 0 -1 -2.22045e-16
    outer loop
      vertex 26.69 1.96977e-15 -8.87106
      vertex 27.1492 1.51416e-15 -6.81917
      vertex 26.4334 1.54794e-15 -6.9713
    endloop
  endfacet
  facet normal 0 -1 -2.22045e-16
    outer loop
      vertex 27.1492 1.51416e-15 -6.81917
      vertex 26.69 1.96977e-15 -8.87106
      vertex 27.8808 1.51416e-15 -6.81917
    endloop
  endfacet
  facet normal 0 -1 -2.22045e-16
    outer loop
      vertex 26.69 1.96977e-15 -8.87106
      vertex 26.4334 1.54794e-15 -6.9713
      vertex 25.765 1.61402e-15 -7.26891
    endloop
  endfacet
  facet normal -0 -1 -2.22045e-16
    outer loop
      vertex 28.34 1.96977e-15 -8.87106
      vertex 27.8808 1.51416e-15 -6.81917
      vertex 26.69 1.96977e-15 -8.87106
    endloop
  endfacet
  facet normal 0 -1 -2.22045e-16
    outer loop
      vertex 26.69 1.96977e-15 -8.87106
      vertex 25.765 1.61402e-15 -7.26891
      vertex 25.173 1.70952e-15 -7.69899
    endloop
  endfacet
  facet normal 0 -1 -2.22045e-16
    outer loop
      vertex 27.8808 1.51416e-15 -6.81917
      vertex 28.34 1.96977e-15 -8.87106
      vertex 28.5966 1.54794e-15 -6.9713
    endloop
  endfacet
  facet normal 0 -1 -2.22045e-16
    outer loop
      vertex 26.69 1.96977e-15 -8.87106
      vertex 25.173 1.70952e-15 -7.69899
      vertex 24.6834 1.83026e-15 -8.24275
    endloop
  endfacet
  facet normal 0 -1 -2.22045e-16
    outer loop
      vertex 28.5966 1.54794e-15 -6.9713
      vertex 28.34 1.96977e-15 -8.87106
      vertex 29.265 1.61402e-15 -7.26891
    endloop
  endfacet
  facet normal 0 -1 -2.22045e-16
    outer loop
      vertex 29.265 1.61402e-15 -7.26891
      vertex 28.34 1.96977e-15 -8.87106
      vertex 29.857 1.70952e-15 -7.69899
    endloop
  endfacet
  facet normal 0 -1 -2.22045e-16
    outer loop
      vertex 24.3176 1.97096e-15 -8.87642
      vertex 26.69 1.96977e-15 -8.87106
      vertex 24.6834 1.83026e-15 -8.24275
    endloop
  endfacet
  facet normal 0 -1 -2.22045e-16
    outer loop
      vertex 25.865 2.28706e-15 -10.3
      vertex 24.3176 1.97096e-15 -8.87642
      vertex 24.0915 2.12548e-15 -9.57231
    endloop
  endfacet
  facet normal -0 -1 -2.22045e-16
    outer loop
      vertex 25.865 2.28706e-15 -10.3
      vertex 24.0915 2.12548e-15 -9.57231
      vertex 24.015 2.28706e-15 -10.3
    endloop
  endfacet
  facet normal 0 -1 -2.22045e-16
    outer loop
      vertex 24.3176 1.97096e-15 -8.87642
      vertex 25.865 2.28706e-15 -10.3
      vertex 26.69 1.96977e-15 -8.87106
    endloop
  endfacet
  facet normal 0 -1 -2.22045e-16
    outer loop
      vertex 29.857 1.70952e-15 -7.69899
      vertex 28.34 1.96977e-15 -8.87106
      vertex 30.3466 1.83026e-15 -8.24275
    endloop
  endfacet
  facet normal 0 -1 -2.22045e-16
    outer loop
      vertex 28.34 1.96977e-15 -8.87106
      vertex 30.7124 1.97096e-15 -8.87642
      vertex 30.3466 1.83026e-15 -8.24275
    endloop
  endfacet
  facet normal 0 -1 -2.22045e-16
    outer loop
      vertex 29.165 2.28706e-15 -10.3
      vertex 30.7124 1.97096e-15 -8.87642
      vertex 28.34 1.96977e-15 -8.87106
    endloop
  endfacet
  facet normal 0 -1 -2.22045e-16
    outer loop
      vertex 30.7124 1.97096e-15 -8.87642
      vertex 29.165 2.28706e-15 -10.3
      vertex 30.9385 2.12548e-15 -9.57231
    endloop
  endfacet
  facet normal 0 -1 -2.22045e-16
    outer loop
      vertex 29.165 2.28706e-15 -10.3
      vertex 31.015 2.28706e-15 -10.3
      vertex 30.9385 2.12548e-15 -9.57231
    endloop
  endfacet
  facet normal 0 -1 -2.22045e-16
    outer loop
      vertex 29.165 2.28706e-15 -10.3
      vertex 30.9385 2.44864e-15 -11.0277
      vertex 31.015 2.28706e-15 -10.3
    endloop
  endfacet
  facet normal 0 -1 -2.22045e-16
    outer loop
      vertex 29.165 2.28706e-15 -10.3
      vertex 30.7124 2.60316e-15 -11.7236
      vertex 30.9385 2.44864e-15 -11.0277
    endloop
  endfacet
  facet normal 0 -1 -2.22045e-16
    outer loop
      vertex 28.34 2.60435e-15 -11.7289
      vertex 30.7124 2.60316e-15 -11.7236
      vertex 29.165 2.28706e-15 -10.3
    endloop
  endfacet
  facet normal 0 -1 -2.22045e-16
    outer loop
      vertex 30.7124 2.60316e-15 -11.7236
      vertex 28.34 2.60435e-15 -11.7289
      vertex 30.3466 2.74386e-15 -12.3572
    endloop
  endfacet
  facet normal 0.75575 0 0.654861
    outer loop
      vertex 4.91188 3.5 4.91188
      vertex 5.88877 -8.40324e-16 3.78448
      vertex 5.88877 3.5 3.78448
    endloop
  endfacet
  facet normal 0.75575 0 0.654861
    outer loop
      vertex 5.88877 -8.40324e-16 3.78448
      vertex 4.91188 3.5 4.91188
      vertex 4.91188 -1.09066e-15 4.91188
    endloop
  endfacet
  facet normal 0.909632 0 0.415415
    outer loop
      vertex 5.88877 3.5 3.78448
      vertex 6.71645 -4.379e-16 1.97213
      vertex 6.71645 3.5 1.97213
    endloop
  endfacet
  facet normal 0.909632 0 0.415415
    outer loop
      vertex 6.71645 -4.379e-16 1.97213
      vertex 5.88877 3.5 3.78448
      vertex 5.88877 -8.40324e-16 3.78448
    endloop
  endfacet
  facet normal 1 0 0
    outer loop
      vertex 7 3.5 1.63441e-15
      vertex 7 0 0
      vertex 7 3.5 7.77156e-16
    endloop
  endfacet
  facet normal 1 0 -0
    outer loop
      vertex 7 0 0
      vertex 7 3.5 1.63441e-15
      vertex 7 -1.90348e-31 8.57253e-16
    endloop
  endfacet
  facet normal -0.707107 0 0.707107
    outer loop
      vertex -4.94975 -1.09906e-15 4.94975
      vertex -4.89949 3.5 5
      vertex -4.94975 3.5 4.94975
    endloop
  endfacet
  facet normal -0.707107 0 0.707107
    outer loop
      vertex -4.89949 3.5 5
      vertex -4.94975 -1.09906e-15 4.94975
      vertex -4.89949 -1.11022e-15 5
    endloop
  endfacet
  facet normal 0.707107 0 0.707107
    outer loop
      vertex 4.89949 3.5 5
      vertex 4.94975 -1.09906e-15 4.94975
      vertex 4.94975 3.5 4.94975
    endloop
  endfacet
  facet normal 0.707107 0 0.707107
    outer loop
      vertex 4.94975 -1.09906e-15 4.94975
      vertex 4.89949 3.5 5
      vertex 4.89949 -1.11022e-15 5
    endloop
  endfacet
  facet normal 0.707107 0 -0.707107
    outer loop
      vertex 4.94975 3.5 4.94975
      vertex 4.91188 -1.09066e-15 4.91188
      vertex 4.91188 3.5 4.91188
    endloop
  endfacet
  facet normal 0.707107 0 -0.707107
    outer loop
      vertex 4.91188 -1.09066e-15 4.91188
      vertex 4.94975 3.5 4.94975
      vertex 4.94975 -1.09906e-15 4.94975
    endloop
  endfacet
  facet normal -0.707107 0 -0.707107
    outer loop
      vertex -4.91188 -1.09066e-15 4.91188
      vertex -4.94975 3.5 4.94975
      vertex -4.91188 3.5 4.91188
    endloop
  endfacet
  facet normal -0.707107 -0 -0.707107
    outer loop
      vertex -4.94975 3.5 4.94975
      vertex -4.91188 -1.09066e-15 4.91188
      vertex -4.94975 -1.09906e-15 4.94975
    endloop
  endfacet
  facet normal -1 0 0
    outer loop
      vertex -7 23.4 -13.8
      vertex -7 18.9 -10.3
      vertex -7 23.4 5.19584e-15
    endloop
  endfacet
  facet normal -1 0 0
    outer loop
      vertex -7 3.06422e-15 -13.8
      vertex -7 18.9 -10.3
      vertex -7 23.4 -13.8
    endloop
  endfacet
  facet normal -1 -0 0
    outer loop
      vertex -7 18.9 -10.3
      vertex -7 3.06422e-15 -13.8
      vertex -7 3.5 -10.3
    endloop
  endfacet
  facet normal -1 0 0
    outer loop
      vertex -7 0 0
      vertex -7 3.5 -10.3
      vertex -7 3.06422e-15 -13.8
    endloop
  endfacet
  facet normal -1 0 0
    outer loop
      vertex -7 3.5 -10.3
      vertex -7 0 0
      vertex -7 3.5 7.77156e-16
    endloop
  endfacet
  facet normal -1 0 0
    outer loop
      vertex -7 23.4 5.19584e-15
      vertex -7 18.9 -10.3
      vertex -7 18.9 4.19664e-15
    endloop
  endfacet
  facet normal 1 0 0
    outer loop
      vertex 7 3.5 7.77156e-16
      vertex 7 2.28706e-15 -10.3
      vertex 7 3.5 -10.3
    endloop
  endfacet
  facet normal 1 0 -0
    outer loop
      vertex 7 2.28706e-15 -10.3
      vertex 7 3.5 7.77156e-16
      vertex 7 0 0
    endloop
  endfacet
  facet normal 0 0 -1
    outer loop
      vertex 29.515 3.06422e-15 -13.8
      vertex 7 22.4 -13.8
      vertex 29.515 22.4 -13.8
    endloop
  endfacet
  facet normal 0 0 -1
    outer loop
      vertex -7 3.06422e-15 -13.8
      vertex 7 22.4 -13.8
      vertex 29.515 3.06422e-15 -13.8
    endloop
  endfacet
  facet normal 0 0 -1
    outer loop
      vertex -7 23.4 -13.8
      vertex 7 22.4 -13.8
      vertex -7 3.06422e-15 -13.8
    endloop
  endfacet
  facet normal 0 0 -1
    outer loop
      vertex 7 22.4 -13.8
      vertex -7 23.4 -13.8
      vertex 7 23.4 -13.8
    endloop
  endfacet
  facet normal 0.980785 4.87784e-17 -0.195091
    outer loop
      vertex -4.6194 3.5 1.91342
      vertex -5 1.35963e-31 -6.12323e-16
      vertex -5 3.5 1.64833e-16
    endloop
  endfacet
  facet normal 0.980785 0 -0.195091
    outer loop
      vertex -5 1.35963e-31 -6.12323e-16
      vertex -4.6194 3.5 1.91342
      vertex -4.6194 -4.24864e-16 1.91342
    endloop
  endfacet
  facet normal -0.980785 4.33188e-17 -0.195091
    outer loop
      vertex 5 -1.35963e-31 6.12323e-16
      vertex 4.6194 3.5 1.91342
      vertex 5 3.5 1.38948e-15
    endloop
  endfacet
  facet normal -0.980785 -0 -0.195091
    outer loop
      vertex 4.6194 3.5 1.91342
      vertex 5 -1.35963e-31 6.12323e-16
      vertex 4.6194 -4.24864e-16 1.91342
    endloop
  endfacet
  facet normal 0.83147 0 -0.55557
    outer loop
      vertex -3.53553 3.5 3.53553
      vertex -4.6194 -4.24864e-16 1.91342
      vertex -4.6194 3.5 1.91342
    endloop
  endfacet
  facet normal 0.83147 0 -0.55557
    outer loop
      vertex -4.6194 -4.24864e-16 1.91342
      vertex -3.53553 3.5 3.53553
      vertex -3.53553 -7.85046e-16 3.53553
    endloop
  endfacet
  facet normal -0.195091 0 0.980785
    outer loop
      vertex 6.12323e-16 3.5 -5
      vertex 1.91342 1.02571e-15 -4.6194
      vertex 1.91342 3.5 -4.6194
    endloop
  endfacet
  facet normal -0.195091 0 0.980785
    outer loop
      vertex 1.91342 1.02571e-15 -4.6194
      vertex 6.12323e-16 3.5 -5
      vertex 6.12323e-16 1.11022e-15 -5
    endloop
  endfacet
  facet normal 0.195091 0 0.980785
    outer loop
      vertex -1.91342 3.5 -4.6194
      vertex 6.12323e-16 1.11022e-15 -5
      vertex 6.12323e-16 3.5 -5
    endloop
  endfacet
  facet normal 0.195091 0 0.980785
    outer loop
      vertex 6.12323e-16 1.11022e-15 -5
      vertex -1.91342 3.5 -4.6194
      vertex -1.91342 1.02571e-15 -4.6194
    endloop
  endfacet
  facet normal -0.83147 0 -0.55557
    outer loop
      vertex 4.6194 -4.24864e-16 1.91342
      vertex 3.53553 3.5 3.53553
      vertex 4.6194 3.5 1.91342
    endloop
  endfacet
  facet normal -0.83147 -0 -0.55557
    outer loop
      vertex 3.53553 3.5 3.53553
      vertex 4.6194 -4.24864e-16 1.91342
      vertex 3.53553 -7.85046e-16 3.53553
    endloop
  endfacet
  facet normal -0.55557 0 0.83147
    outer loop
      vertex 1.91342 3.5 -4.6194
      vertex 3.53553 7.85046e-16 -3.53553
      vertex 3.53553 3.5 -3.53553
    endloop
  endfacet
  facet normal -0.55557 0 0.83147
    outer loop
      vertex 3.53553 7.85046e-16 -3.53553
      vertex 1.91342 3.5 -4.6194
      vertex 1.91342 1.02571e-15 -4.6194
    endloop
  endfacet
  facet normal -0.980785 0 0.195091
    outer loop
      vertex 4.6194 4.24864e-16 -1.91342
      vertex 5 3.5 1.38948e-15
      vertex 4.6194 3.5 -1.91342
    endloop
  endfacet
  facet normal -0.980785 -4.33188e-17 0.195091
    outer loop
      vertex 5 3.5 1.38948e-15
      vertex 4.6194 4.24864e-16 -1.91342
      vertex 5 -1.35963e-31 6.12323e-16
    endloop
  endfacet
  facet normal 0.55557 0 0.83147
    outer loop
      vertex -3.53553 3.5 -3.53553
      vertex -1.91342 1.02571e-15 -4.6194
      vertex -1.91342 3.5 -4.6194
    endloop
  endfacet
  facet normal 0.55557 0 0.83147
    outer loop
      vertex -1.91342 1.02571e-15 -4.6194
      vertex -3.53553 3.5 -3.53553
      vertex -3.53553 7.85046e-16 -3.53553
    endloop
  endfacet
  facet normal 0.83147 0 0.55557
    outer loop
      vertex -4.6194 3.5 -1.91342
      vertex -3.53553 7.85046e-16 -3.53553
      vertex -3.53553 3.5 -3.53553
    endloop
  endfacet
  facet normal 0.83147 0 0.55557
    outer loop
      vertex -3.53553 7.85046e-16 -3.53553
      vertex -4.6194 3.5 -1.91342
      vertex -4.6194 4.24864e-16 -1.91342
    endloop
  endfacet
  facet normal -0.83147 0 0.55557
    outer loop
      vertex 3.53553 7.85046e-16 -3.53553
      vertex 4.6194 3.5 -1.91342
      vertex 3.53553 3.5 -3.53553
    endloop
  endfacet
  facet normal -0.83147 0 0.55557
    outer loop
      vertex 4.6194 3.5 -1.91342
      vertex 3.53553 7.85046e-16 -3.53553
      vertex 4.6194 4.24864e-16 -1.91342
    endloop
  endfacet
  facet normal 0.980785 0 0.195091
    outer loop
      vertex -5 3.5 1.64833e-16
      vertex -4.6194 4.24864e-16 -1.91342
      vertex -4.6194 3.5 -1.91342
    endloop
  endfacet
  facet normal 0.980785 -4.87784e-17 0.195091
    outer loop
      vertex -4.6194 4.24864e-16 -1.91342
      vertex -5 3.5 1.64833e-16
      vertex -5 1.35963e-31 -6.12323e-16
    endloop
  endfacet
  facet normal 0.707107 0 -0.707107
    outer loop
      vertex -2.07107 3.5 5
      vertex -3.53553 -7.85046e-16 3.53553
      vertex -3.53553 3.5 3.53553
    endloop
  endfacet
  facet normal 0.707107 0 -0.707107
    outer loop
      vertex -3.53553 -7.85046e-16 3.53553
      vertex -2.07107 3.5 5
      vertex -2.07107 -1.11022e-15 5
    endloop
  endfacet
  facet normal -0.707107 0 -0.707107
    outer loop
      vertex 3.53553 -7.85046e-16 3.53553
      vertex 2.07107 3.5 5
      vertex 3.53553 3.5 3.53553
    endloop
  endfacet
  facet normal -0.707107 -0 -0.707107
    outer loop
      vertex 2.07107 3.5 5
      vertex 3.53553 -7.85046e-16 3.53553
      vertex 2.07107 -1.11022e-15 5
    endloop
  endfacet
  facet normal 0 1 -0
    outer loop
      vertex 28.34 22.4 -8.87106
      vertex 27.8808 22.4 -6.81917
      vertex 28.5966 22.4 -6.9713
    endloop
  endfacet
  facet normal 0 1 0
    outer loop
      vertex 27.8808 22.4 -6.81917
      vertex 28.34 22.4 -8.87106
      vertex 27.1492 22.4 -6.81917
    endloop
  endfacet
  facet normal 0 1 0
    outer loop
      vertex 28.34 22.4 -8.87106
      vertex 28.5966 22.4 -6.9713
      vertex 29.265 22.4 -7.26891
    endloop
  endfacet
  facet normal 0 1 0
    outer loop
      vertex 26.69 22.4 -8.87106
      vertex 27.1492 22.4 -6.81917
      vertex 28.34 22.4 -8.87106
    endloop
  endfacet
  facet normal 0 1 0
    outer loop
      vertex 28.34 22.4 -8.87106
      vertex 29.265 22.4 -7.26891
      vertex 29.857 22.4 -7.69899
    endloop
  endfacet
  facet normal 0 1 0
    outer loop
      vertex 27.1492 22.4 -6.81917
      vertex 26.69 22.4 -8.87106
      vertex 26.4334 22.4 -6.9713
    endloop
  endfacet
  facet normal 0 1 0
    outer loop
      vertex 28.34 22.4 -8.87106
      vertex 29.857 22.4 -7.69899
      vertex 30.3466 22.4 -8.24275
    endloop
  endfacet
  facet normal 0 1 0
    outer loop
      vertex 26.4334 22.4 -6.9713
      vertex 26.69 22.4 -8.87106
      vertex 25.765 22.4 -7.26891
    endloop
  endfacet
  facet normal 0 1 0
    outer loop
      vertex 25.765 22.4 -7.26891
      vertex 26.69 22.4 -8.87106
      vertex 25.173 22.4 -7.69899
    endloop
  endfacet
  facet normal 0 1 0
    outer loop
      vertex 30.7124 22.4 -8.87642
      vertex 28.34 22.4 -8.87106
      vertex 30.3466 22.4 -8.24275
    endloop
  endfacet
  facet normal 0 1 0
    outer loop
      vertex 29.165 22.4 -10.3
      vertex 30.7124 22.4 -8.87642
      vertex 30.9385 22.4 -9.57231
    endloop
  endfacet
  facet normal 0 1 0
    outer loop
      vertex 29.165 22.4 -10.3
      vertex 30.9385 22.4 -9.57231
      vertex 31.015 22.4 -10.3
    endloop
  endfacet
  facet normal 0 1 0
    outer loop
      vertex 30.7124 22.4 -8.87642
      vertex 29.165 22.4 -10.3
      vertex 28.34 22.4 -8.87106
    endloop
  endfacet
  facet normal 0 1 -0
    outer loop
      vertex 30.9385 22.4 -11.0277
      vertex 29.165 22.4 -10.3
      vertex 31.015 22.4 -10.3
    endloop
  endfacet
  facet normal 0 1 -0
    outer loop
      vertex 30.7124 22.4 -11.7236
      vertex 29.165 22.4 -10.3
      vertex 30.9385 22.4 -11.0277
    endloop
  endfacet
  facet normal 0 1 0
    outer loop
      vertex 30.7124 22.4 -11.7236
      vertex 28.34 22.4 -11.7289
      vertex 29.165 22.4 -10.3
    endloop
  endfacet
  facet normal 0 1 -0
    outer loop
      vertex 29.857 22.4 -12.901
      vertex 28.34 22.4 -11.7289
      vertex 30.3466 22.4 -12.3572
    endloop
  endfacet
  facet normal 0 1 -0
    outer loop
      vertex 30.3466 22.4 -12.3572
      vertex 28.34 22.4 -11.7289
      vertex 30.7124 22.4 -11.7236
    endloop
  endfacet
  facet normal 0 1 0
    outer loop
      vertex 25.173 22.4 -7.69899
      vertex 26.69 22.4 -8.87106
      vertex 24.6834 22.4 -8.24275
    endloop
  endfacet
  facet normal 0 1 0
    outer loop
      vertex 26.69 22.4 -8.87106
      vertex 24.3176 22.4 -8.87642
      vertex 24.6834 22.4 -8.24275
    endloop
  endfacet
  facet normal 0 1 -0
    outer loop
      vertex 25.865 22.4 -10.3
      vertex 24.3176 22.4 -8.87642
      vertex 26.69 22.4 -8.87106
    endloop
  endfacet
  facet normal 0 1 0
    outer loop
      vertex 24.3176 22.4 -8.87642
      vertex 25.865 22.4 -10.3
      vertex 24.0915 22.4 -9.57231
    endloop
  endfacet
  facet normal 0 1 0
    outer loop
      vertex 25.865 22.4 -10.3
      vertex 24.015 22.4 -10.3
      vertex 24.0915 22.4 -9.57231
    endloop
  endfacet
  facet normal 0 1 0
    outer loop
      vertex 26.69 22.4 -11.7289
      vertex 24.015 22.4 -10.3
      vertex 25.865 22.4 -10.3
    endloop
  endfacet
  facet normal 0 1 0
    outer loop
      vertex 24.015 22.4 -10.3
      vertex 26.69 22.4 -11.7289
      vertex 7 22.4 -13.8
    endloop
  endfacet
  facet normal 0 1 -0
    outer loop
      vertex 29.515 22.4 -13.1495
      vertex 28.34 22.4 -11.7289
      vertex 29.857 22.4 -12.901
    endloop
  endfacet
  facet normal 0 1 -0
    outer loop
      vertex 29.515 22.4 -13.8
      vertex 28.34 22.4 -11.7289
      vertex 29.515 22.4 -13.1495
    endloop
  endfacet
  facet normal 0 1 0
    outer loop
      vertex 28.34 22.4 -11.7289
      vertex 29.515 22.4 -13.8
      vertex 26.69 22.4 -11.7289
    endloop
  endfacet
  facet normal 0 1 0
    outer loop
      vertex 26.69 22.4 -11.7289
      vertex 29.515 22.4 -13.8
      vertex 7 22.4 -13.8
    endloop
  endfacet
  facet normal 0 1 0
    outer loop
      vertex 24.015 22.4 -10.3
      vertex 7 22.4 -13.8
      vertex 7 22.4 -10.3
    endloop
  endfacet
  facet normal 1 0 0
    outer loop
      vertex 29.515 22.4 -13.1495
      vertex 29.515 3.06422e-15 -13.8
      vertex 29.515 22.4 -13.8
    endloop
  endfacet
  facet normal 1 0 -0
    outer loop
      vertex 29.515 3.06422e-15 -13.8
      vertex 29.515 22.4 -13.1495
      vertex 29.515 2.91977e-15 -13.1495
    endloop
  endfacet
  facet normal -0 0 1
    outer loop
      vertex -7 18.9 -10.3
      vertex 7 3.5 -10.3
      vertex 7 18.9 -10.3
    endloop
  endfacet
  facet normal 0 0 1
    outer loop
      vertex 7 3.5 -10.3
      vertex -7 18.9 -10.3
      vertex -7 3.5 -10.3
    endloop
  endfacet
  facet normal 0 0 1
    outer loop
      vertex 7 18.9 -10.3
      vertex 24.015 22.4 -10.3
      vertex 7 22.4 -10.3
    endloop
  endfacet
  facet normal 0 0 1
    outer loop
      vertex 24.015 22.4 -10.3
      vertex 7 18.9 -10.3
      vertex 24.015 2.28706e-15 -10.3
    endloop
  endfacet
  facet normal -0 0 1
    outer loop
      vertex 7 3.5 -10.3
      vertex 24.015 2.28706e-15 -10.3
      vertex 7 18.9 -10.3
    endloop
  endfacet
  facet normal 0 0 1
    outer loop
      vertex 24.015 2.28706e-15 -10.3
      vertex 7 3.5 -10.3
      vertex 7 2.28706e-15 -10.3
    endloop
  endfacet
  facet normal 0.866024 0 -0.500002
    outer loop
      vertex 30.7124 22.4 -11.7236
      vertex 30.3466 2.74386e-15 -12.3572
      vertex 30.3466 22.4 -12.3572
    endloop
  endfacet
  facet normal 0.866024 0 -0.500002
    outer loop
      vertex 30.3466 2.74386e-15 -12.3572
      vertex 30.7124 22.4 -11.7236
      vertex 30.7124 2.60316e-15 -11.7236
    endloop
  endfacet
  facet normal 0.951058 0 -0.309014
    outer loop
      vertex 30.9385 22.4 -11.0277
      vertex 30.7124 2.60316e-15 -11.7236
      vertex 30.7124 22.4 -11.7236
    endloop
  endfacet
  facet normal 0.951058 0 -0.309014
    outer loop
      vertex 30.7124 2.60316e-15 -11.7236
      vertex 30.9385 22.4 -11.0277
      vertex 30.9385 2.44864e-15 -11.0277
    endloop
  endfacet
  facet normal 0.994522 0 0.10453
    outer loop
      vertex 30.9385 22.4 -9.57231
      vertex 31.015 2.28706e-15 -10.3
      vertex 31.015 22.4 -10.3
    endloop
  endfacet
  facet normal 0.994522 0 0.10453
    outer loop
      vertex 31.015 2.28706e-15 -10.3
      vertex 30.9385 22.4 -9.57231
      vertex 30.9385 2.12548e-15 -9.57231
    endloop
  endfacet
  facet normal 0.207912 0 0.978147
    outer loop
      vertex 27.8808 22.4 -6.81917
      vertex 28.5966 1.54794e-15 -6.9713
      vertex 28.5966 22.4 -6.9713
    endloop
  endfacet
  facet normal 0.207912 0 0.978147
    outer loop
      vertex 28.5966 1.54794e-15 -6.9713
      vertex 27.8808 22.4 -6.81917
      vertex 27.8808 1.51416e-15 -6.81917
    endloop
  endfacet
  facet normal 0.743146 0 -0.66913
    outer loop
      vertex 30.3466 22.4 -12.3572
      vertex 29.857 2.8646e-15 -12.901
      vertex 29.857 22.4 -12.901
    endloop
  endfacet
  facet normal 0.743146 0 -0.66913
    outer loop
      vertex 29.857 2.8646e-15 -12.901
      vertex 30.3466 22.4 -12.3572
      vertex 30.3466 2.74386e-15 -12.3572
    endloop
  endfacet
  facet normal 0.587785 0 -0.809017
    outer loop
      vertex 29.515 2.91977e-15 -13.1495
      vertex 29.857 22.4 -12.901
      vertex 29.857 2.8646e-15 -12.901
    endloop
  endfacet
  facet normal 0.587785 0 -0.809017
    outer loop
      vertex 29.857 22.4 -12.901
      vertex 29.515 2.91977e-15 -13.1495
      vertex 29.515 22.4 -13.1495
    endloop
  endfacet
  facet normal 0.994522 0 -0.10453
    outer loop
      vertex 31.015 22.4 -10.3
      vertex 30.9385 2.44864e-15 -11.0277
      vertex 30.9385 22.4 -11.0277
    endloop
  endfacet
  facet normal 0.994522 0 -0.10453
    outer loop
      vertex 30.9385 2.44864e-15 -11.0277
      vertex 31.015 22.4 -10.3
      vertex 31.015 2.28706e-15 -10.3
    endloop
  endfacet
  facet normal 0.587786 0 0.809017
    outer loop
      vertex 29.265 22.4 -7.26891
      vertex 29.857 1.70952e-15 -7.69899
      vertex 29.857 22.4 -7.69899
    endloop
  endfacet
  facet normal 0.587786 0 0.809017
    outer loop
      vertex 29.857 1.70952e-15 -7.69899
      vertex 29.265 22.4 -7.26891
      vertex 29.265 1.61402e-15 -7.26891
    endloop
  endfacet
  facet normal 0.951058 0 0.309013
    outer loop
      vertex 30.7124 22.4 -8.87642
      vertex 30.9385 2.12548e-15 -9.57231
      vertex 30.9385 22.4 -9.57231
    endloop
  endfacet
  facet normal 0.951058 0 0.309013
    outer loop
      vertex 30.9385 2.12548e-15 -9.57231
      vertex 30.7124 22.4 -8.87642
      vertex 30.7124 1.97096e-15 -8.87642
    endloop
  endfacet
  facet normal -0.207912 0 0.978147
    outer loop
      vertex 26.4334 22.4 -6.9713
      vertex 27.1492 1.51416e-15 -6.81917
      vertex 27.1492 22.4 -6.81917
    endloop
  endfacet
  facet normal -0.207912 0 0.978147
    outer loop
      vertex 27.1492 1.51416e-15 -6.81917
      vertex 26.4334 22.4 -6.9713
      vertex 26.4334 1.54794e-15 -6.9713
    endloop
  endfacet
  facet normal -0.994522 0 0.10453
    outer loop
      vertex 24.015 2.28706e-15 -10.3
      vertex 24.0915 22.4 -9.57231
      vertex 24.015 22.4 -10.3
    endloop
  endfacet
  facet normal -0.994522 0 0.10453
    outer loop
      vertex 24.0915 22.4 -9.57231
      vertex 24.015 2.28706e-15 -10.3
      vertex 24.0915 2.12548e-15 -9.57231
    endloop
  endfacet
  facet normal -0.866025 0 0.500001
    outer loop
      vertex 24.3176 1.97096e-15 -8.87642
      vertex 24.6834 22.4 -8.24275
      vertex 24.3176 22.4 -8.87642
    endloop
  endfacet
  facet normal -0.866025 0 0.500001
    outer loop
      vertex 24.6834 22.4 -8.24275
      vertex 24.3176 1.97096e-15 -8.87642
      vertex 24.6834 1.83026e-15 -8.24275
    endloop
  endfacet
  facet normal 0.743146 0 0.66913
    outer loop
      vertex 29.857 22.4 -7.69899
      vertex 30.3466 1.83026e-15 -8.24275
      vertex 30.3466 22.4 -8.24275
    endloop
  endfacet
  facet normal 0.743146 0 0.66913
    outer loop
      vertex 30.3466 1.83026e-15 -8.24275
      vertex 29.857 22.4 -7.69899
      vertex 29.857 1.70952e-15 -7.69899
    endloop
  endfacet
  facet normal 0.866024 0 0.500003
    outer loop
      vertex 30.3466 22.4 -8.24275
      vertex 30.7124 1.97096e-15 -8.87642
      vertex 30.7124 22.4 -8.87642
    endloop
  endfacet
  facet normal 0.866024 0 0.500003
    outer loop
      vertex 30.7124 1.97096e-15 -8.87642
      vertex 30.3466 22.4 -8.24275
      vertex 30.3466 1.83026e-15 -8.24275
    endloop
  endfacet
  facet normal -0.587786 0 0.809017
    outer loop
      vertex 25.173 22.4 -7.69899
      vertex 25.765 1.61402e-15 -7.26891
      vertex 25.765 22.4 -7.26891
    endloop
  endfacet
  facet normal -0.587786 0 0.809017
    outer loop
      vertex 25.765 1.61402e-15 -7.26891
      vertex 25.173 22.4 -7.69899
      vertex 25.173 1.70952e-15 -7.69899
    endloop
  endfacet
  facet normal -0 0 1
    outer loop
      vertex 27.1492 22.4 -6.81917
      vertex 27.8808 1.51416e-15 -6.81917
      vertex 27.8808 22.4 -6.81917
    endloop
  endfacet
  facet normal 0 0 1
    outer loop
      vertex 27.8808 1.51416e-15 -6.81917
      vertex 27.1492 22.4 -6.81917
      vertex 27.1492 1.51416e-15 -6.81917
    endloop
  endfacet
  facet normal -0.951057 0 0.309016
    outer loop
      vertex 24.0915 2.12548e-15 -9.57231
      vertex 24.3176 22.4 -8.87642
      vertex 24.0915 22.4 -9.57231
    endloop
  endfacet
  facet normal -0.951057 0 0.309016
    outer loop
      vertex 24.3176 22.4 -8.87642
      vertex 24.0915 2.12548e-15 -9.57231
      vertex 24.3176 1.97096e-15 -8.87642
    endloop
  endfacet
  facet normal -0.743146 0 0.66913
    outer loop
      vertex 24.6834 1.83026e-15 -8.24275
      vertex 25.173 22.4 -7.69899
      vertex 24.6834 22.4 -8.24275
    endloop
  endfacet
  facet normal -0.743146 0 0.66913
    outer loop
      vertex 25.173 22.4 -7.69899
      vertex 24.6834 1.83026e-15 -8.24275
      vertex 25.173 1.70952e-15 -7.69899
    endloop
  endfacet
  facet normal 0.406735 0 0.913546
    outer loop
      vertex 28.5966 22.4 -6.9713
      vertex 29.265 1.61402e-15 -7.26891
      vertex 29.265 22.4 -7.26891
    endloop
  endfacet
  facet normal 0.406735 0 0.913546
    outer loop
      vertex 29.265 1.61402e-15 -7.26891
      vertex 28.5966 22.4 -6.9713
      vertex 28.5966 1.54794e-15 -6.9713
    endloop
  endfacet
  facet normal -0.406735 0 0.913546
    outer loop
      vertex 25.765 22.4 -7.26891
      vertex 26.4334 1.54794e-15 -6.9713
      vertex 26.4334 22.4 -6.9713
    endloop
  endfacet
  facet normal -0.406735 0 0.913546
    outer loop
      vertex 26.4334 1.54794e-15 -6.9713
      vertex 25.765 22.4 -7.26891
      vertex 25.765 1.61402e-15 -7.26891
    endloop
  endfacet
  facet normal -0.866025 0 0.5
    outer loop
      vertex 28.34 2.60435e-15 -11.7289
      vertex 29.165 22.4 -10.3
      vertex 28.34 22.4 -11.7289
    endloop
  endfacet
  facet normal -0.866025 0 0.5
    outer loop
      vertex 29.165 22.4 -10.3
      vertex 28.34 2.60435e-15 -11.7289
      vertex 29.165 2.28706e-15 -10.3
    endloop
  endfacet
  facet normal -0 0 1
    outer loop
      vertex 26.69 22.4 -11.7289
      vertex 28.34 2.60435e-15 -11.7289
      vertex 28.34 22.4 -11.7289
    endloop
  endfacet
  facet normal 0 0 1
    outer loop
      vertex 28.34 2.60435e-15 -11.7289
      vertex 26.69 22.4 -11.7289
      vertex 26.69 2.60435e-15 -11.7289
    endloop
  endfacet
  facet normal 0.866026 0 0.5
    outer loop
      vertex 25.865 22.4 -10.3
      vertex 26.69 2.60435e-15 -11.7289
      vertex 26.69 22.4 -11.7289
    endloop
  endfacet
  facet normal 0.866026 0 0.5
    outer loop
      vertex 26.69 2.60435e-15 -11.7289
      vertex 25.865 22.4 -10.3
      vertex 25.865 2.28706e-15 -10.3
    endloop
  endfacet
  facet normal 0.866026 0 -0.5
    outer loop
      vertex 26.69 22.4 -8.87106
      vertex 25.865 2.28706e-15 -10.3
      vertex 25.865 22.4 -10.3
    endloop
  endfacet
  facet normal 0.866026 0 -0.5
    outer loop
      vertex 25.865 2.28706e-15 -10.3
      vertex 26.69 22.4 -8.87106
      vertex 26.69 1.96977e-15 -8.87106
    endloop
  endfacet
  facet normal -0.866025 0 -0.5
    outer loop
      vertex 29.165 2.28706e-15 -10.3
      vertex 28.34 22.4 -8.87106
      vertex 29.165 22.4 -10.3
    endloop
  endfacet
  facet normal -0.866025 -0 -0.5
    outer loop
      vertex 28.34 22.4 -8.87106
      vertex 29.165 2.28706e-15 -10.3
      vertex 28.34 1.96977e-15 -8.87106
    endloop
  endfacet
  facet normal 0 0 -1
    outer loop
      vertex 26.69 1.96977e-15 -8.87106
      vertex 28.34 22.4 -8.87106
      vertex 28.34 1.96977e-15 -8.87106
    endloop
  endfacet
  facet normal -0 0 -1
    outer loop
      vertex 28.34 22.4 -8.87106
      vertex 26.69 1.96977e-15 -8.87106
      vertex 26.69 22.4 -8.87106
    endloop
  endfacet
  facet normal -0 0 1
    outer loop
      vertex -4.89949 3.5 5
      vertex -2.07107 -1.11022e-15 5
      vertex -2.07107 3.5 5
    endloop
  endfacet
  facet normal 0 0 1
    outer loop
      vertex -2.07107 -1.11022e-15 5
      vertex -4.89949 3.5 5
      vertex -4.89949 -1.11022e-15 5
    endloop
  endfacet
  facet normal -0 0 1
    outer loop
      vertex 2.07107 3.5 5
      vertex 4.89949 -1.11022e-15 5
      vertex 4.89949 3.5 5
    endloop
  endfacet
  facet normal 0 0 1
    outer loop
      vertex 4.89949 -1.11022e-15 5
      vertex 2.07107 3.5 5
      vertex 2.07107 -1.11022e-15 5
    endloop
  endfacet
  facet normal 0.989821 -0 0.142315
    outer loop
      vertex 6.71645 18.9 1.97213
      vertex 7 23.4 6.0531e-15
      vertex 6.71645 23.4 1.97213
    endloop
  endfacet
  facet normal 0.989821 -3.16003e-17 0.142315
    outer loop
      vertex 7 23.4 6.0531e-15
      vertex 6.71645 18.9 1.97213
      vertex 7 18.9 5.0539e-15
    endloop
  endfacet
  facet normal 1 0 0
    outer loop
      vertex 7 18.9 5.0539e-15
      vertex 7 23.4 5.19584e-15
      vertex 7 23.4 6.0531e-15
    endloop
  endfacet
  facet normal 1 0 0
    outer loop
      vertex 7 23.4 5.19584e-15
      vertex 7 18.9 5.0539e-15
      vertex 7 18.9 4.19664e-15
    endloop
  endfacet
  facet normal -0.75575 0 0.654861
    outer loop
      vertex -5.88877 18.9 3.78448
      vertex -4.91188 23.4 4.91188
      vertex -5.88877 23.4 3.78448
    endloop
  endfacet
  facet normal -0.75575 0 0.654861
    outer loop
      vertex -4.91188 23.4 4.91188
      vertex -5.88877 18.9 3.78448
      vertex -4.91188 18.9 4.91188
    endloop
  endfacet
  facet normal -0.909632 0 0.415415
    outer loop
      vertex -6.71645 18.9 1.97213
      vertex -5.88877 23.4 3.78448
      vertex -6.71645 23.4 1.97213
    endloop
  endfacet
  facet normal -0.909632 0 0.415415
    outer loop
      vertex -5.88877 23.4 3.78448
      vertex -6.71645 18.9 1.97213
      vertex -5.88877 18.9 3.78448
    endloop
  endfacet
  facet normal 0.909632 -0 0.415415
    outer loop
      vertex 5.88877 18.9 3.78448
      vertex 6.71645 23.4 1.97213
      vertex 5.88877 23.4 3.78448
    endloop
  endfacet
  facet normal 0.909632 0 0.415415
    outer loop
      vertex 6.71645 23.4 1.97213
      vertex 5.88877 18.9 3.78448
      vertex 6.71645 18.9 1.97213
    endloop
  endfacet
  facet normal 0 1 -0
    outer loop
      vertex 4.91188 23.4 4.91188
      vertex 4.89949 23.4 5
      vertex 4.94975 23.4 4.94975
    endloop
  endfacet
  facet normal 0 1 0
    outer loop
      vertex 2.82843 23.4 2.82843
      vertex 4.89949 23.4 5
      vertex 4.91188 23.4 4.91188
    endloop
  endfacet
  facet normal 0 1 0
    outer loop
      vertex 2.99404 23.4 2.65249
      vertex 4.91188 23.4 4.91188
      vertex 5.88877 23.4 3.78448
    endloop
  endfacet
  facet normal 0 1 0
    outer loop
      vertex 4.89949 23.4 5
      vertex 2.82843 23.4 2.82843
      vertex 0.656853 23.4 5
    endloop
  endfacet
  facet normal 0 1 0
    outer loop
      vertex 4.91188 23.4 4.91188
      vertex 2.99404 23.4 2.65249
      vertex 2.82843 23.4 2.82843
    endloop
  endfacet
  facet normal 0 1 0
    outer loop
      vertex 2.82843 23.4 2.82843
      vertex 2.99404 23.4 2.65249
      vertex 2.79197 23.4 2.79197
    endloop
  endfacet
  facet normal 0 1 0
    outer loop
      vertex 3.88377 23.4 0.957262
      vertex 5.88877 23.4 3.78448
      vertex 6.71645 23.4 1.97213
    endloop
  endfacet
  facet normal 0 1 0
    outer loop
      vertex 5.88877 23.4 3.78448
      vertex 3.88377 23.4 0.957262
      vertex 2.99404 23.4 2.65249
    endloop
  endfacet
  facet normal 0 1 0
    outer loop
      vertex 7 23.4 6.0531e-15
      vertex 3.88377 23.4 0.957262
      vertex 6.71645 23.4 1.97213
    endloop
  endfacet
  facet normal 0 1 -0
    outer loop
      vertex 7 23.4 5.19584e-15
      vertex 3.88377 23.4 0.957262
      vertex 7 23.4 6.0531e-15
    endloop
  endfacet
  facet normal 0 1 0
    outer loop
      vertex 7 23.4 5.19584e-15
      vertex 3.88377 23.4 -0.957262
      vertex 3.88377 23.4 0.957262
    endloop
  endfacet
  facet normal 0 1 0
    outer loop
      vertex 7 23.4 5.19584e-15
      vertex 2.99404 23.4 -2.65249
      vertex 3.88377 23.4 -0.957262
    endloop
  endfacet
  facet normal 0 1 -0
    outer loop
      vertex 7 23.4 -13.8
      vertex 2.99404 23.4 -2.65249
      vertex 7 23.4 5.19584e-15
    endloop
  endfacet
  facet normal 0 1 0
    outer loop
      vertex 1.41842 23.4 -3.74006
      vertex 7 23.4 -13.8
      vertex -0.482146 23.4 -3.97083
    endloop
  endfacet
  facet normal 0 1 0
    outer loop
      vertex 2.99404 23.4 -2.65249
      vertex 7 23.4 -13.8
      vertex 1.41842 23.4 -3.74006
    endloop
  endfacet
  facet normal 0 1 -0
    outer loop
      vertex -2.82843 23.4 2.82843
      vertex -4.89949 23.4 5
      vertex -0.656853 23.4 5
    endloop
  endfacet
  facet normal 0 1 0
    outer loop
      vertex -4.89949 23.4 5
      vertex -4.91188 23.4 4.91188
      vertex -4.94975 23.4 4.94975
    endloop
  endfacet
  facet normal 0 1 0
    outer loop
      vertex -4.89949 23.4 5
      vertex -2.82843 23.4 2.82843
      vertex -4.91188 23.4 4.91188
    endloop
  endfacet
  facet normal 0 1 0
    outer loop
      vertex -4.91188 23.4 4.91188
      vertex -2.82843 23.4 2.82843
      vertex -5.88877 23.4 3.78448
    endloop
  endfacet
  facet normal 0 1 0
    outer loop
      vertex -3.54182 23.4 1.85889
      vertex -2.82843 23.4 2.82843
      vertex -2.75126 23.4 2.75126
    endloop
  endfacet
  facet normal 0 1 0
    outer loop
      vertex -2.82843 23.4 2.82843
      vertex -3.54182 23.4 1.85889
      vertex -5.88877 23.4 3.78448
    endloop
  endfacet
  facet normal 0 1 0
    outer loop
      vertex -5.88877 23.4 3.78448
      vertex -3.54182 23.4 1.85889
      vertex -6.71645 23.4 1.97213
    endloop
  endfacet
  facet normal 0 1 -0
    outer loop
      vertex -4 23.4 4.70599e-15
      vertex -6.71645 23.4 1.97213
      vertex -3.54182 23.4 1.85889
    endloop
  endfacet
  facet normal 0 1 0
    outer loop
      vertex -6.71645 23.4 1.97213
      vertex -4 23.4 4.70599e-15
      vertex -7 23.4 5.19584e-15
    endloop
  endfacet
  facet normal 0 1 0
    outer loop
      vertex -3.54182 23.4 -1.85889
      vertex -7 23.4 5.19584e-15
      vertex -4 23.4 4.70599e-15
    endloop
  endfacet
  facet normal 0 1 0
    outer loop
      vertex -7 23.4 -13.8
      vertex -3.54182 23.4 -1.85889
      vertex -2.27226 23.4 -3.29193
    endloop
  endfacet
  facet normal 0 1 0
    outer loop
      vertex -7 23.4 -13.8
      vertex -0.482146 23.4 -3.97083
      vertex 7 23.4 -13.8
    endloop
  endfacet
  facet normal 0 1 0
    outer loop
      vertex -0.482146 23.4 -3.97083
      vertex -7 23.4 -13.8
      vertex -2.27226 23.4 -3.29193
    endloop
  endfacet
  facet normal 0 1 0
    outer loop
      vertex -3.54182 23.4 -1.85889
      vertex -7 23.4 -13.8
      vertex -7 23.4 5.19584e-15
    endloop
  endfacet
  facet normal 0.75575 -0 0.654861
    outer loop
      vertex 4.91188 18.9 4.91188
      vertex 5.88877 23.4 3.78448
      vertex 4.91188 23.4 4.91188
    endloop
  endfacet
  facet normal 0.75575 0 0.654861
    outer loop
      vertex 5.88877 23.4 3.78448
      vertex 4.91188 18.9 4.91188
      vertex 5.88877 18.9 3.78448
    endloop
  endfacet
  facet normal -0.989821 -3.16003e-17 0.142315
    outer loop
      vertex -7 18.9 4.19664e-15
      vertex -6.71645 23.4 1.97213
      vertex -7 23.4 5.19584e-15
    endloop
  endfacet
  facet normal -0.989821 0 0.142315
    outer loop
      vertex -6.71645 23.4 1.97213
      vertex -7 18.9 4.19664e-15
      vertex -6.71645 18.9 1.97213
    endloop
  endfacet
  facet normal 0 -1 0
    outer loop
      vertex -4.91188 18.9 4.91188
      vertex -4.89949 18.9 5
      vertex -4.94975 18.9 4.94975
    endloop
  endfacet
  facet normal 0 -1 0
    outer loop
      vertex -3.53553 18.9 3.53553
      vertex -4.89949 18.9 5
      vertex -4.91188 18.9 4.91188
    endloop
  endfacet
  facet normal 0 -1 0
    outer loop
      vertex -3.53553 18.9 3.53553
      vertex -4.91188 18.9 4.91188
      vertex -5.88877 18.9 3.78448
    endloop
  endfacet
  facet normal 0 -1 0
    outer loop
      vertex -4.89949 18.9 5
      vertex -3.53553 18.9 3.53553
      vertex -2.07107 18.9 5
    endloop
  endfacet
  facet normal 0 -1 0
    outer loop
      vertex -4.6194 18.9 1.91342
      vertex -5.88877 18.9 3.78448
      vertex -6.71645 18.9 1.97213
    endloop
  endfacet
  facet normal 0 -1 0
    outer loop
      vertex -5.88877 18.9 3.78448
      vertex -4.6194 18.9 1.91342
      vertex -3.53553 18.9 3.53553
    endloop
  endfacet
  facet normal 0 -1 0
    outer loop
      vertex -5 18.9 3.58432e-15
      vertex -6.71645 18.9 1.97213
      vertex -7 18.9 4.19664e-15
    endloop
  endfacet
  facet normal 0 -1 0
    outer loop
      vertex -6.71645 18.9 1.97213
      vertex -5 18.9 3.58432e-15
      vertex -4.6194 18.9 1.91342
    endloop
  endfacet
  facet normal 0 -1 0
    outer loop
      vertex -7 18.9 4.19664e-15
      vertex -4.6194 18.9 -1.91342
      vertex -5 18.9 3.58432e-15
    endloop
  endfacet
  facet normal 0 -1 0
    outer loop
      vertex -7 18.9 -10.3
      vertex -4.6194 18.9 -1.91342
      vertex -7 18.9 4.19664e-15
    endloop
  endfacet
  facet normal 0 -1 -0
    outer loop
      vertex -1.91342 18.9 -4.6194
      vertex -7 18.9 -10.3
      vertex 6.12323e-16 18.9 -5
    endloop
  endfacet
  facet normal 0 -1 -0
    outer loop
      vertex -3.53553 18.9 -3.53553
      vertex -7 18.9 -10.3
      vertex -1.91342 18.9 -4.6194
    endloop
  endfacet
  facet normal 0 -1 -0
    outer loop
      vertex -4.6194 18.9 -1.91342
      vertex -7 18.9 -10.3
      vertex -3.53553 18.9 -3.53553
    endloop
  endfacet
  facet normal 0 -1 0
    outer loop
      vertex 3.53553 18.9 3.53553
      vertex 4.89949 18.9 5
      vertex 2.07107 18.9 5
    endloop
  endfacet
  facet normal 0 -1 0
    outer loop
      vertex 4.89949 18.9 5
      vertex 4.91188 18.9 4.91188
      vertex 4.94975 18.9 4.94975
    endloop
  endfacet
  facet normal 0 -1 -0
    outer loop
      vertex 4.89949 18.9 5
      vertex 3.53553 18.9 3.53553
      vertex 4.91188 18.9 4.91188
    endloop
  endfacet
  facet normal 0 -1 -0
    outer loop
      vertex 4.91188 18.9 4.91188
      vertex 3.53553 18.9 3.53553
      vertex 5.88877 18.9 3.78448
    endloop
  endfacet
  facet normal 0 -1 0
    outer loop
      vertex 4.6194 18.9 1.91342
      vertex 5.88877 18.9 3.78448
      vertex 3.53553 18.9 3.53553
    endloop
  endfacet
  facet normal 0 -1 -0
    outer loop
      vertex 5.88877 18.9 3.78448
      vertex 4.6194 18.9 1.91342
      vertex 6.71645 18.9 1.97213
    endloop
  endfacet
  facet normal 0 -1 0
    outer loop
      vertex 5 18.9 4.80897e-15
      vertex 6.71645 18.9 1.97213
      vertex 4.6194 18.9 1.91342
    endloop
  endfacet
  facet normal 0 -1 -0
    outer loop
      vertex 6.71645 18.9 1.97213
      vertex 5 18.9 4.80897e-15
      vertex 7 18.9 5.0539e-15
    endloop
  endfacet
  facet normal 0 -1 0
    outer loop
      vertex 5 18.9 4.80897e-15
      vertex 7 18.9 4.19664e-15
      vertex 7 18.9 5.0539e-15
    endloop
  endfacet
  facet normal 0 -1 0
    outer loop
      vertex 4.6194 18.9 -1.91342
      vertex 7 18.9 4.19664e-15
      vertex 5 18.9 4.80897e-15
    endloop
  endfacet
  facet normal 0 -1 0
    outer loop
      vertex 7 18.9 -10.3
      vertex 4.6194 18.9 -1.91342
      vertex 3.53553 18.9 -3.53553
    endloop
  endfacet
  facet normal 0 -1 0
    outer loop
      vertex 7 18.9 -10.3
      vertex 6.12323e-16 18.9 -5
      vertex -7 18.9 -10.3
    endloop
  endfacet
  facet normal 0 -1 0
    outer loop
      vertex 4.6194 18.9 -1.91342
      vertex 7 18.9 -10.3
      vertex 7 18.9 4.19664e-15
    endloop
  endfacet
  facet normal 0 -1 0
    outer loop
      vertex 1.91342 18.9 -4.6194
      vertex 7 18.9 -10.3
      vertex 3.53553 18.9 -3.53553
    endloop
  endfacet
  facet normal 0 -1 0
    outer loop
      vertex 6.12323e-16 18.9 -5
      vertex 7 18.9 -10.3
      vertex 1.91342 18.9 -4.6194
    endloop
  endfacet
  facet normal -0.707107 0 0.707107
    outer loop
      vertex -4.94975 18.9 4.94975
      vertex -4.89949 23.4 5
      vertex -4.94975 23.4 4.94975
    endloop
  endfacet
  facet normal -0.707107 0 0.707107
    outer loop
      vertex -4.89949 23.4 5
      vertex -4.94975 18.9 4.94975
      vertex -4.89949 18.9 5
    endloop
  endfacet
  facet normal 0.707107 -0 0.707107
    outer loop
      vertex 4.89949 18.9 5
      vertex 4.94975 23.4 4.94975
      vertex 4.89949 23.4 5
    endloop
  endfacet
  facet normal 0.707107 0 0.707107
    outer loop
      vertex 4.94975 23.4 4.94975
      vertex 4.89949 18.9 5
      vertex 4.94975 18.9 4.94975
    endloop
  endfacet
  facet normal 0.707107 0 -0.707107
    outer loop
      vertex 4.94975 18.9 4.94975
      vertex 4.91188 23.4 4.91188
      vertex 4.94975 23.4 4.94975
    endloop
  endfacet
  facet normal 0.707107 0 -0.707107
    outer loop
      vertex 4.91188 23.4 4.91188
      vertex 4.94975 18.9 4.94975
      vertex 4.91188 18.9 4.91188
    endloop
  endfacet
  facet normal -0.707107 0 -0.707107
    outer loop
      vertex -4.91188 18.9 4.91188
      vertex -4.94975 23.4 4.94975
      vertex -4.91188 23.4 4.91188
    endloop
  endfacet
  facet normal -0.707107 -0 -0.707107
    outer loop
      vertex -4.94975 23.4 4.94975
      vertex -4.91188 18.9 4.91188
      vertex -4.94975 18.9 4.94975
    endloop
  endfacet
  facet normal 1 0 0
    outer loop
      vertex 7 23.4 5.19584e-15
      vertex 7 22.4 -10.3
      vertex 7 23.4 -13.8
    endloop
  endfacet
  facet normal 1 -0 0
    outer loop
      vertex 7 18.9 4.19664e-15
      vertex 7 22.4 -10.3
      vertex 7 23.4 5.19584e-15
    endloop
  endfacet
  facet normal 1 0 0
    outer loop
      vertex 7 22.4 -10.3
      vertex 7 18.9 4.19664e-15
      vertex 7 18.9 -10.3
    endloop
  endfacet
  facet normal 1 0 0
    outer loop
      vertex 7 23.4 -13.8
      vertex 7 22.4 -10.3
      vertex 7 22.4 -13.8
    endloop
  endfacet
  facet normal 0.980785 0 -0.195091
    outer loop
      vertex -4.6194 18.9 1.91342
      vertex -5 22.4 4.36148e-15
      vertex -4.6194 22.4 1.91342
    endloop
  endfacet
  facet normal 0.980785 4.33188e-17 -0.195091
    outer loop
      vertex -5 22.4 4.36148e-15
      vertex -4.6194 18.9 1.91342
      vertex -5 18.9 3.58432e-15
    endloop
  endfacet
  facet normal -0.980785 4.33188e-17 -0.195091
    outer loop
      vertex 5 18.9 4.80897e-15
      vertex 4.6194 22.4 1.91342
      vertex 5 22.4 5.58612e-15
    endloop
  endfacet
  facet normal -0.980785 -0 -0.195091
    outer loop
      vertex 4.6194 22.4 1.91342
      vertex 5 18.9 4.80897e-15
      vertex 4.6194 18.9 1.91342
    endloop
  endfacet
  facet normal 0.83147 0 -0.55557
    outer loop
      vertex -3.53553 18.9 3.53553
      vertex -4.6194 22.4 1.91342
      vertex -3.53553 22.4 3.53553
    endloop
  endfacet
  facet normal 0.83147 0 -0.55557
    outer loop
      vertex -4.6194 22.4 1.91342
      vertex -3.53553 18.9 3.53553
      vertex -4.6194 18.9 1.91342
    endloop
  endfacet
  facet normal -0.195091 0 0.980785
    outer loop
      vertex 6.12323e-16 22.4 -5
      vertex 1.91342 18.9 -4.6194
      vertex 1.91342 22.4 -4.6194
    endloop
  endfacet
  facet normal -0.195091 0 0.980785
    outer loop
      vertex 1.91342 18.9 -4.6194
      vertex 6.12323e-16 22.4 -5
      vertex 6.12323e-16 18.9 -5
    endloop
  endfacet
  facet normal 0.195091 0 0.980785
    outer loop
      vertex -1.91342 22.4 -4.6194
      vertex 6.12323e-16 18.9 -5
      vertex 6.12323e-16 22.4 -5
    endloop
  endfacet
  facet normal 0.195091 0 0.980785
    outer loop
      vertex 6.12323e-16 18.9 -5
      vertex -1.91342 22.4 -4.6194
      vertex -1.91342 18.9 -4.6194
    endloop
  endfacet
  facet normal -0.83147 0 -0.55557
    outer loop
      vertex 4.6194 18.9 1.91342
      vertex 3.53553 22.4 3.53553
      vertex 4.6194 22.4 1.91342
    endloop
  endfacet
  facet normal -0.83147 -0 -0.55557
    outer loop
      vertex 3.53553 22.4 3.53553
      vertex 4.6194 18.9 1.91342
      vertex 3.53553 18.9 3.53553
    endloop
  endfacet
  facet normal 0 -1 0
    outer loop
      vertex -2.82843 22.4 2.82843
      vertex -2.07107 22.4 5
      vertex -3.53553 22.4 3.53553
    endloop
  endfacet
  facet normal 0 -1 -0
    outer loop
      vertex -2.07107 22.4 5
      vertex -2.82843 22.4 2.82843
      vertex -0.656853 22.4 5
    endloop
  endfacet
  facet normal 0 -1 0
    outer loop
      vertex -3.54182 22.4 1.85889
      vertex -2.82843 22.4 2.82843
      vertex -3.53553 22.4 3.53553
    endloop
  endfacet
  facet normal 0 -1 0
    outer loop
      vertex -3.54182 22.4 1.85889
      vertex -3.53553 22.4 3.53553
      vertex -4.6194 22.4 1.91342
    endloop
  endfacet
  facet normal 0 -1 -0
    outer loop
      vertex -2.82843 22.4 2.82843
      vertex -3.54182 22.4 1.85889
      vertex -2.75126 22.4 2.75126
    endloop
  endfacet
  facet normal 0 -1 0
    outer loop
      vertex -4.6194 22.4 1.91342
      vertex -4 22.4 4.48394e-15
      vertex -3.54182 22.4 1.85889
    endloop
  endfacet
  facet normal 0 -1 0
    outer loop
      vertex -5 22.4 4.36148e-15
      vertex -4 22.4 4.48394e-15
      vertex -4.6194 22.4 1.91342
    endloop
  endfacet
  facet normal 0 -1 0
    outer loop
      vertex -4.6194 22.4 -1.91342
      vertex -4 22.4 4.48394e-15
      vertex -5 22.4 4.36148e-15
    endloop
  endfacet
  facet normal 0 -1 -0
    outer loop
      vertex -4 22.4 4.48394e-15
      vertex -4.6194 22.4 -1.91342
      vertex -3.54182 22.4 -1.85889
    endloop
  endfacet
  facet normal 0 -1 0
    outer loop
      vertex -3.53553 22.4 -3.53553
      vertex -3.54182 22.4 -1.85889
      vertex -4.6194 22.4 -1.91342
    endloop
  endfacet
  facet normal 0 -1 0
    outer loop
      vertex -3.54182 22.4 -1.85889
      vertex -3.53553 22.4 -3.53553
      vertex -2.27226 22.4 -3.29193
    endloop
  endfacet
  facet normal 0 -1 0
    outer loop
      vertex -1.91342 22.4 -4.6194
      vertex -2.27226 22.4 -3.29193
      vertex -3.53553 22.4 -3.53553
    endloop
  endfacet
  facet normal 0 -1 0
    outer loop
      vertex -2.27226 22.4 -3.29193
      vertex -1.91342 22.4 -4.6194
      vertex -0.482146 22.4 -3.97083
    endloop
  endfacet
  facet normal 0 -1 0
    outer loop
      vertex 2.82843 22.4 2.82843
      vertex 2.07107 22.4 5
      vertex 0.656853 22.4 5
    endloop
  endfacet
  facet normal 0 -1 0
    outer loop
      vertex 2.07107 22.4 5
      vertex 2.82843 22.4 2.82843
      vertex 3.53553 22.4 3.53553
    endloop
  endfacet
  facet normal 0 -1 0
    outer loop
      vertex 2.99404 22.4 2.65249
      vertex 2.82843 22.4 2.82843
      vertex 2.79197 22.4 2.79197
    endloop
  endfacet
  facet normal 0 -1 0
    outer loop
      vertex 2.82843 22.4 2.82843
      vertex 2.99404 22.4 2.65249
      vertex 3.53553 22.4 3.53553
    endloop
  endfacet
  facet normal 0 -1 0
    outer loop
      vertex 2.99404 22.4 2.65249
      vertex 4.6194 22.4 1.91342
      vertex 3.53553 22.4 3.53553
    endloop
  endfacet
  facet normal 0 -1 0
    outer loop
      vertex 3.88377 22.4 0.957262
      vertex 4.6194 22.4 1.91342
      vertex 2.99404 22.4 2.65249
    endloop
  endfacet
  facet normal 0 -1 0
    outer loop
      vertex 3.88377 22.4 0.957262
      vertex 5 22.4 5.58612e-15
      vertex 4.6194 22.4 1.91342
    endloop
  endfacet
  facet normal 0 -1 0
    outer loop
      vertex 3.88377 22.4 -0.957262
      vertex 5 22.4 5.58612e-15
      vertex 3.88377 22.4 0.957262
    endloop
  endfacet
  facet normal 0 -1 0
    outer loop
      vertex 3.88377 22.4 -0.957262
      vertex 4.6194 22.4 -1.91342
      vertex 5 22.4 5.58612e-15
    endloop
  endfacet
  facet normal 0 -1 0
    outer loop
      vertex 2.99404 22.4 -2.65249
      vertex 4.6194 22.4 -1.91342
      vertex 3.88377 22.4 -0.957262
    endloop
  endfacet
  facet normal 0 -1 0
    outer loop
      vertex 2.99404 22.4 -2.65249
      vertex 3.53553 22.4 -3.53553
      vertex 4.6194 22.4 -1.91342
    endloop
  endfacet
  facet normal 0 -1 0
    outer loop
      vertex 1.41842 22.4 -3.74006
      vertex 3.53553 22.4 -3.53553
      vertex 2.99404 22.4 -2.65249
    endloop
  endfacet
  facet normal 0 -1 0
    outer loop
      vertex 6.12323e-16 22.4 -5
      vertex 1.41842 22.4 -3.74006
      vertex -0.482146 22.4 -3.97083
    endloop
  endfacet
  facet normal 0 -1 0
    outer loop
      vertex 6.12323e-16 22.4 -5
      vertex -0.482146 22.4 -3.97083
      vertex -1.91342 22.4 -4.6194
    endloop
  endfacet
  facet normal 0 -1 0
    outer loop
      vertex 1.41842 22.4 -3.74006
      vertex 1.91342 22.4 -4.6194
      vertex 3.53553 22.4 -3.53553
    endloop
  endfacet
  facet normal 0 -1 -0
    outer loop
      vertex 1.41842 22.4 -3.74006
      vertex 6.12323e-16 22.4 -5
      vertex 1.91342 22.4 -4.6194
    endloop
  endfacet
  facet normal -0.55557 0 0.83147
    outer loop
      vertex 1.91342 22.4 -4.6194
      vertex 3.53553 18.9 -3.53553
      vertex 3.53553 22.4 -3.53553
    endloop
  endfacet
  facet normal -0.55557 0 0.83147
    outer loop
      vertex 3.53553 18.9 -3.53553
      vertex 1.91342 22.4 -4.6194
      vertex 1.91342 18.9 -4.6194
    endloop
  endfacet
  facet normal -0.980785 0 0.195091
    outer loop
      vertex 4.6194 18.9 -1.91342
      vertex 5 22.4 5.58612e-15
      vertex 4.6194 22.4 -1.91342
    endloop
  endfacet
  facet normal -0.980785 -4.33188e-17 0.195091
    outer loop
      vertex 5 22.4 5.58612e-15
      vertex 4.6194 18.9 -1.91342
      vertex 5 18.9 4.80897e-15
    endloop
  endfacet
  facet normal 0.55557 0 0.83147
    outer loop
      vertex -3.53553 22.4 -3.53553
      vertex -1.91342 18.9 -4.6194
      vertex -1.91342 22.4 -4.6194
    endloop
  endfacet
  facet normal 0.55557 0 0.83147
    outer loop
      vertex -1.91342 18.9 -4.6194
      vertex -3.53553 22.4 -3.53553
      vertex -3.53553 18.9 -3.53553
    endloop
  endfacet
  facet normal 0.83147 -0 0.55557
    outer loop
      vertex -4.6194 18.9 -1.91342
      vertex -3.53553 22.4 -3.53553
      vertex -4.6194 22.4 -1.91342
    endloop
  endfacet
  facet normal 0.83147 0 0.55557
    outer loop
      vertex -3.53553 22.4 -3.53553
      vertex -4.6194 18.9 -1.91342
      vertex -3.53553 18.9 -3.53553
    endloop
  endfacet
  facet normal -0.83147 0 0.55557
    outer loop
      vertex 3.53553 18.9 -3.53553
      vertex 4.6194 22.4 -1.91342
      vertex 3.53553 22.4 -3.53553
    endloop
  endfacet
  facet normal -0.83147 0 0.55557
    outer loop
      vertex 4.6194 22.4 -1.91342
      vertex 3.53553 18.9 -3.53553
      vertex 4.6194 18.9 -1.91342
    endloop
  endfacet
  facet normal 0.980785 -4.33188e-17 0.195091
    outer loop
      vertex -5 18.9 3.58432e-15
      vertex -4.6194 22.4 -1.91342
      vertex -5 22.4 4.36148e-15
    endloop
  endfacet
  facet normal 0.980785 0 0.195091
    outer loop
      vertex -4.6194 22.4 -1.91342
      vertex -5 18.9 3.58432e-15
      vertex -4.6194 18.9 -1.91342
    endloop
  endfacet
  facet normal 0.707107 0 -0.707107
    outer loop
      vertex -2.07107 18.9 5
      vertex -3.53553 22.4 3.53553
      vertex -2.07107 22.4 5
    endloop
  endfacet
  facet normal 0.707107 0 -0.707107
    outer loop
      vertex -3.53553 22.4 3.53553
      vertex -2.07107 18.9 5
      vertex -3.53553 18.9 3.53553
    endloop
  endfacet
  facet normal -0.707107 0 -0.707107
    outer loop
      vertex 3.53553 18.9 3.53553
      vertex 2.07107 22.4 5
      vertex 3.53553 22.4 3.53553
    endloop
  endfacet
  facet normal -0.707107 -0 -0.707107
    outer loop
      vertex 2.07107 22.4 5
      vertex 3.53553 18.9 3.53553
      vertex 2.07107 18.9 5
    endloop
  endfacet
  facet normal 0.970942 0 -0.239316
    outer loop
      vertex -3.54182 22.4 1.85889
      vertex -4 23.4 4.70599e-15
      vertex -3.54182 23.4 1.85889
    endloop
  endfacet
  facet normal 0.970942 5.31388e-17 -0.239316
    outer loop
      vertex -4 23.4 4.70599e-15
      vertex -3.54182 22.4 1.85889
      vertex -4 22.4 4.48394e-15
    endloop
  endfacet
  facet normal -1 0 0
    outer loop
      vertex 3.88377 22.4 -0.957262
      vertex 3.88377 23.4 0.957262
      vertex 3.88377 23.4 -0.957262
    endloop
  endfacet
  facet normal -1 -0 0
    outer loop
      vertex 3.88377 23.4 0.957262
      vertex 3.88377 22.4 -0.957262
      vertex 3.88377 22.4 0.957262
    endloop
  endfacet
  facet normal 0.748511 0 -0.663123
    outer loop
      vertex -2.75126 22.4 2.75126
      vertex -3.54182 23.4 1.85889
      vertex -2.75126 23.4 2.75126
    endloop
  endfacet
  facet normal 0.748511 0 -0.663123
    outer loop
      vertex -3.54182 23.4 1.85889
      vertex -2.75126 22.4 2.75126
      vertex -3.54182 22.4 1.85889
    endloop
  endfacet
  facet normal -0.568065 0 -0.822984
    outer loop
      vertex 2.79197 22.4 2.79197
      vertex 2.99404 23.4 2.65249
      vertex 2.99404 22.4 2.65249
    endloop
  endfacet
  facet normal -0.568065 0 -0.822984
    outer loop
      vertex 2.99404 23.4 2.65249
      vertex 2.79197 22.4 2.79197
      vertex 2.79197 23.4 2.79197
    endloop
  endfacet
  facet normal 0.354605 0 0.935016
    outer loop
      vertex -2.27226 23.4 -3.29193
      vertex -0.482146 22.4 -3.97083
      vertex -0.482146 23.4 -3.97083
    endloop
  endfacet
  facet normal 0.354605 0 0.935016
    outer loop
      vertex -0.482146 22.4 -3.97083
      vertex -2.27226 23.4 -3.29193
      vertex -2.27226 22.4 -3.29193
    endloop
  endfacet
  facet normal -0.885456 0 -0.464723
    outer loop
      vertex 3.88377 22.4 0.957262
      vertex 2.99404 23.4 2.65249
      vertex 3.88377 23.4 0.957262
    endloop
  endfacet
  facet normal -0.885456 -0 -0.464723
    outer loop
      vertex 2.99404 23.4 2.65249
      vertex 3.88377 22.4 0.957262
      vertex 2.99404 22.4 2.65249
    endloop
  endfacet
  facet normal 0.970942 -5.31388e-17 0.239316
    outer loop
      vertex -4 22.4 4.48394e-15
      vertex -3.54182 23.4 -1.85889
      vertex -4 23.4 4.70599e-15
    endloop
  endfacet
  facet normal 0.970942 0 0.239316
    outer loop
      vertex -3.54182 23.4 -1.85889
      vertex -4 22.4 4.48394e-15
      vertex -3.54182 22.4 -1.85889
    endloop
  endfacet
  facet normal 0.748511 -0 0.663123
    outer loop
      vertex -3.54182 22.4 -1.85889
      vertex -2.27226 23.4 -3.29193
      vertex -3.54182 23.4 -1.85889
    endloop
  endfacet
  facet normal 0.748511 0 0.663123
    outer loop
      vertex -2.27226 23.4 -3.29193
      vertex -3.54182 22.4 -1.85889
      vertex -2.27226 22.4 -3.29193
    endloop
  endfacet
  facet normal -0.120537 0 0.992709
    outer loop
      vertex -0.482146 23.4 -3.97083
      vertex 1.41842 22.4 -3.74006
      vertex 1.41842 23.4 -3.74006
    endloop
  endfacet
  facet normal -0.120537 0 0.992709
    outer loop
      vertex 1.41842 22.4 -3.74006
      vertex -0.482146 23.4 -3.97083
      vertex -0.482146 22.4 -3.97083
    endloop
  endfacet
  facet normal -0.568065 0 0.822984
    outer loop
      vertex 1.41842 23.4 -3.74006
      vertex 2.99404 22.4 -2.65249
      vertex 2.99404 23.4 -2.65249
    endloop
  endfacet
  facet normal -0.568065 0 0.822984
    outer loop
      vertex 2.99404 22.4 -2.65249
      vertex 1.41842 23.4 -3.74006
      vertex 1.41842 22.4 -3.74006
    endloop
  endfacet
  facet normal -0.885456 0 0.464723
    outer loop
      vertex 2.99404 22.4 -2.65249
      vertex 3.88377 23.4 -0.957262
      vertex 2.99404 23.4 -2.65249
    endloop
  endfacet
  facet normal -0.885456 0 0.464723
    outer loop
      vertex 3.88377 23.4 -0.957262
      vertex 2.99404 22.4 -2.65249
      vertex 3.88377 22.4 -0.957262
    endloop
  endfacet
  facet normal 0.707107 0 -0.707107
    outer loop
      vertex -0.656853 22.4 5
      vertex -2.82843 23.4 2.82843
      vertex -0.656853 23.4 5
    endloop
  endfacet
  facet normal 0.707107 0 -0.707107
    outer loop
      vertex -2.82843 23.4 2.82843
      vertex -0.656853 22.4 5
      vertex -2.82843 22.4 2.82843
    endloop
  endfacet
  facet normal -0.707107 0 0.707107
    outer loop
      vertex 2.79197 22.4 2.79197
      vertex 2.82843 23.4 2.82843
      vertex 2.79197 23.4 2.79197
    endloop
  endfacet
  facet normal -0.707107 0 0.707107
    outer loop
      vertex 2.82843 23.4 2.82843
      vertex 2.79197 22.4 2.79197
      vertex 2.82843 22.4 2.82843
    endloop
  endfacet
  facet normal 0.707107 -0 0.707107
    outer loop
      vertex -2.82843 22.4 2.82843
      vertex -2.75126 23.4 2.75126
      vertex -2.82843 23.4 2.82843
    endloop
  endfacet
  facet normal 0.707107 0 0.707107
    outer loop
      vertex -2.75126 23.4 2.75126
      vertex -2.82843 22.4 2.82843
      vertex -2.75126 22.4 2.75126
    endloop
  endfacet
  facet normal -0.707107 0 -0.707107
    outer loop
      vertex 2.82843 22.4 2.82843
      vertex 0.656853 23.4 5
      vertex 2.82843 23.4 2.82843
    endloop
  endfacet
  facet normal -0.707107 -0 -0.707107
    outer loop
      vertex 0.656853 23.4 5
      vertex 2.82843 22.4 2.82843
      vertex 0.656853 22.4 5
    endloop
  endfacet
  facet normal 0 0 1
    outer loop
      vertex -0.656853 23.4 5
      vertex -2.07107 22.4 5
      vertex -0.656853 22.4 5
    endloop
  endfacet
  facet normal -0 0 1
    outer loop
      vertex -4.89949 23.4 5
      vertex -2.07107 22.4 5
      vertex -0.656853 23.4 5
    endloop
  endfacet
  facet normal 0 0 1
    outer loop
      vertex -4.89949 18.9 5
      vertex -2.07107 22.4 5
      vertex -4.89949 23.4 5
    endloop
  endfacet
  facet normal 0 0 1
    outer loop
      vertex -2.07107 22.4 5
      vertex -4.89949 18.9 5
      vertex -2.07107 18.9 5
    endloop
  endfacet
  facet normal 0 0 1
    outer loop
      vertex 4.89949 23.4 5
      vertex 2.07107 22.4 5
      vertex 4.89949 18.9 5
    endloop
  endfacet
  facet normal -0 0 1
    outer loop
      vertex 0.656853 23.4 5
      vertex 2.07107 22.4 5
      vertex 4.89949 23.4 5
    endloop
  endfacet
  facet normal 0 0 1
    outer loop
      vertex 2.07107 22.4 5
      vertex 0.656853 23.4 5
      vertex 0.656853 22.4 5
    endloop
  endfacet
  facet normal 0 0 1
    outer loop
      vertex 4.89949 18.9 5
      vertex 2.07107 22.4 5
      vertex 2.07107 18.9 5
    endloop
  endfacet
endsolid OpenSCAD_Model
