solid OpenSCAD_Model
  facet normal -0.809017 -0.587786 0
    outer loop
      vertex 2 0 0
      vertex 0.963525 1.42658 26.4
      vertex 0.963525 1.42658 0
    endloop
  endfacet
  facet normal -0.809017 -0.587786 0
    outer loop
      vertex 0.963525 1.42658 26.4
      vertex 2 0 0
      vertex 2 0 26.4
    endloop
  endfacet
  facet normal 1 -0 0
    outer loop
      vertex -0.713525 -0.881678 26.4
      vertex -0.713525 0.881678 0
      vertex -0.713525 0.881678 26.4
    endloop
  endfacet
  facet normal 1 0 0
    outer loop
      vertex -0.713525 0.881678 0
      vertex -0.713525 -0.881678 26.4
      vertex -0.713525 -0.881678 0
    endloop
  endfacet
  facet normal 0.309017 -0.951056 0
    outer loop
      vertex -0.713525 0.881678 0
      vertex 0.963525 1.42658 26.4
      vertex -0.713525 0.881678 26.4
    endloop
  endfacet
  facet normal 0.309017 -0.951056 0
    outer loop
      vertex 0.963525 1.42658 26.4
      vertex -0.713525 0.881678 0
      vertex 0.963525 1.42658 0
    endloop
  endfacet
  facet normal -0.809017 0.587786 0
    outer loop
      vertex 0.963525 -1.42658 0
      vertex 2 0 26.4
      vertex 2 0 0
    endloop
  endfacet
  facet normal -0.809017 0.587786 0
    outer loop
      vertex 2 0 26.4
      vertex 0.963525 -1.42658 0
      vertex 0.963525 -1.42658 26.4
    endloop
  endfacet
  facet normal 0.309017 0.951056 -0
    outer loop
      vertex 0.963525 -1.42658 0
      vertex -0.713525 -0.881678 26.4
      vertex 0.963525 -1.42658 26.4
    endloop
  endfacet
  facet normal 0.309017 0.951056 0
    outer loop
      vertex -0.713525 -0.881678 26.4
      vertex 0.963525 -1.42658 0
      vertex -0.713525 -0.881678 0
    endloop
  endfacet
  facet normal 0.996917 0.078459 0
    outer loop
      vertex 3.1 0 26.4
      vertex 3.06183 0.484946 0
      vertex 3.06183 0.484946 26.4
    endloop
  endfacet
  facet normal 0.996917 0.078459 0
    outer loop
      vertex 3.06183 0.484946 0
      vertex 3.1 0 26.4
      vertex 3.1 0 0
    endloop
  endfacet
  facet normal -0.996917 0.078459 0
    outer loop
      vertex -3.1 0 0
      vertex -3.06183 0.484946 26.4
      vertex -3.06183 0.484946 0
    endloop
  endfacet
  facet normal -0.996917 0.078459 0
    outer loop
      vertex -3.06183 0.484946 26.4
      vertex -3.1 0 0
      vertex -3.1 0 26.4
    endloop
  endfacet
  facet normal -0.078459 0.996917 0
    outer loop
      vertex 0 3.1 0
      vertex -0.484946 3.06183 26.4
      vertex 0 3.1 26.4
    endloop
  endfacet
  facet normal -0.078459 0.996917 0
    outer loop
      vertex -0.484946 3.06183 26.4
      vertex 0 3.1 0
      vertex -0.484946 3.06183 0
    endloop
  endfacet
  facet normal 0.760407 -0.649447 0
    outer loop
      vertex 2.19203 -2.19203 26.4
      vertex 2.50795 -1.82213 0
      vertex 2.50795 -1.82213 26.4
    endloop
  endfacet
  facet normal 0.760407 -0.649447 0
    outer loop
      vertex 2.50795 -1.82213 0
      vertex 2.19203 -2.19203 26.4
      vertex 2.19203 -2.19203 0
    endloop
  endfacet
  facet normal 0.649447 0.760407 -0
    outer loop
      vertex 2.19203 2.19203 0
      vertex 1.82213 2.50795 26.4
      vertex 2.19203 2.19203 26.4
    endloop
  endfacet
  facet normal 0.649447 0.760407 0
    outer loop
      vertex 1.82213 2.50795 26.4
      vertex 2.19203 2.19203 0
      vertex 1.82213 2.50795 0
    endloop
  endfacet
  facet normal -0.649447 0.760407 0
    outer loop
      vertex -1.82213 2.50795 0
      vertex -2.19203 2.19203 26.4
      vertex -1.82213 2.50795 26.4
    endloop
  endfacet
  facet normal -0.649447 0.760407 0
    outer loop
      vertex -2.19203 2.19203 26.4
      vertex -1.82213 2.50795 0
      vertex -2.19203 2.19203 0
    endloop
  endfacet
  facet normal -0.382685 0.923879 0
    outer loop
      vertex -0.957952 2.94827 0
      vertex -1.40737 2.76212 26.4
      vertex -0.957952 2.94827 26.4
    endloop
  endfacet
  facet normal -0.382685 0.923879 0
    outer loop
      vertex -1.40737 2.76212 26.4
      vertex -0.957952 2.94827 0
      vertex -1.40737 2.76212 0
    endloop
  endfacet
  facet normal 0.852641 0.522498 0
    outer loop
      vertex 2.76212 1.40737 26.4
      vertex 2.50795 1.82213 0
      vertex 2.50795 1.82213 26.4
    endloop
  endfacet
  facet normal 0.852641 0.522498 0
    outer loop
      vertex 2.50795 1.82213 0
      vertex 2.76212 1.40737 26.4
      vertex 2.76212 1.40737 0
    endloop
  endfacet
  facet normal 0.97237 0.233445 0
    outer loop
      vertex 3.06183 0.484946 26.4
      vertex 2.94827 0.957952 0
      vertex 2.94827 0.957952 26.4
    endloop
  endfacet
  facet normal 0.97237 0.233445 0
    outer loop
      vertex 2.94827 0.957952 0
      vertex 3.06183 0.484946 26.4
      vertex 3.06183 0.484946 0
    endloop
  endfacet
  facet normal 0.760407 0.649447 0
    outer loop
      vertex 2.50795 1.82213 26.4
      vertex 2.19203 2.19203 0
      vertex 2.19203 2.19203 26.4
    endloop
  endfacet
  facet normal 0.760407 0.649447 0
    outer loop
      vertex 2.19203 2.19203 0
      vertex 2.50795 1.82213 26.4
      vertex 2.50795 1.82213 0
    endloop
  endfacet
  facet normal 0.382685 0.923879 -0
    outer loop
      vertex 1.40737 2.76212 0
      vertex 0.957952 2.94827 26.4
      vertex 1.40737 2.76212 26.4
    endloop
  endfacet
  facet normal 0.382685 0.923879 0
    outer loop
      vertex 0.957952 2.94827 26.4
      vertex 1.40737 2.76212 0
      vertex 0.957952 2.94827 0
    endloop
  endfacet
  facet normal 0.233445 0.97237 -0
    outer loop
      vertex 0.957952 2.94827 0
      vertex 0.484946 3.06183 26.4
      vertex 0.957952 2.94827 26.4
    endloop
  endfacet
  facet normal 0.233445 0.97237 0
    outer loop
      vertex 0.484946 3.06183 26.4
      vertex 0.957952 2.94827 0
      vertex 0.484946 3.06183 0
    endloop
  endfacet
  facet normal 0.522498 0.852641 -0
    outer loop
      vertex 1.82213 2.50795 0
      vertex 1.40737 2.76212 26.4
      vertex 1.82213 2.50795 26.4
    endloop
  endfacet
  facet normal 0.522498 0.852641 0
    outer loop
      vertex 1.40737 2.76212 26.4
      vertex 1.82213 2.50795 0
      vertex 1.40737 2.76212 0
    endloop
  endfacet
  facet normal -0.852641 0.522498 0
    outer loop
      vertex -2.76212 1.40737 0
      vertex -2.50795 1.82213 26.4
      vertex -2.50795 1.82213 0
    endloop
  endfacet
  facet normal -0.852641 0.522498 0
    outer loop
      vertex -2.50795 1.82213 26.4
      vertex -2.76212 1.40737 0
      vertex -2.76212 1.40737 26.4
    endloop
  endfacet
  facet normal -0.760407 0.649447 0
    outer loop
      vertex -2.50795 1.82213 0
      vertex -2.19203 2.19203 26.4
      vertex -2.19203 2.19203 0
    endloop
  endfacet
  facet normal -0.760407 0.649447 0
    outer loop
      vertex -2.19203 2.19203 26.4
      vertex -2.50795 1.82213 0
      vertex -2.50795 1.82213 26.4
    endloop
  endfacet
  facet normal -0.97237 0.233445 0
    outer loop
      vertex -3.06183 0.484946 0
      vertex -2.94827 0.957952 26.4
      vertex -2.94827 0.957952 0
    endloop
  endfacet
  facet normal -0.97237 0.233445 0
    outer loop
      vertex -2.94827 0.957952 26.4
      vertex -3.06183 0.484946 0
      vertex -3.06183 0.484946 26.4
    endloop
  endfacet
  facet normal 0 0 1
    outer loop
      vertex 2 0 26.4
      vertex 3.1 0 26.4
      vertex 3.06183 0.484946 26.4
    endloop
  endfacet
  facet normal 0 0 1
    outer loop
      vertex 2 0 26.4
      vertex 3.06183 0.484946 26.4
      vertex 2.94827 0.957952 26.4
    endloop
  endfacet
  facet normal 0 0 1
    outer loop
      vertex 3.1 0 26.4
      vertex 2 0 26.4
      vertex 3.06183 -0.484946 26.4
    endloop
  endfacet
  facet normal 0 0 1
    outer loop
      vertex 2 0 26.4
      vertex 2.94827 0.957952 26.4
      vertex 2.76212 1.40737 26.4
    endloop
  endfacet
  facet normal 0 0 1
    outer loop
      vertex 3.06183 -0.484946 26.4
      vertex 2 0 26.4
      vertex 2.94827 -0.957952 26.4
    endloop
  endfacet
  facet normal -0 0 1
    outer loop
      vertex 0.963525 1.42658 26.4
      vertex 2.76212 1.40737 26.4
      vertex 2.50795 1.82213 26.4
    endloop
  endfacet
  facet normal 0 0 1
    outer loop
      vertex 2.94827 -0.957952 26.4
      vertex 2 0 26.4
      vertex 2.76212 -1.40737 26.4
    endloop
  endfacet
  facet normal 0 0 1
    outer loop
      vertex 0.963525 1.42658 26.4
      vertex 2.50795 1.82213 26.4
      vertex 2.19203 2.19203 26.4
    endloop
  endfacet
  facet normal 0 0 1
    outer loop
      vertex 0.963525 -1.42658 26.4
      vertex 2.76212 -1.40737 26.4
      vertex 2 0 26.4
    endloop
  endfacet
  facet normal 0 0 1
    outer loop
      vertex 2.76212 -1.40737 26.4
      vertex 0.963525 -1.42658 26.4
      vertex 2.50795 -1.82213 26.4
    endloop
  endfacet
  facet normal 0 0 1
    outer loop
      vertex 0.963525 1.42658 26.4
      vertex 2.19203 2.19203 26.4
      vertex 1.82213 2.50795 26.4
    endloop
  endfacet
  facet normal 0 0 1
    outer loop
      vertex 0.963525 1.42658 26.4
      vertex 1.82213 2.50795 26.4
      vertex 1.40737 2.76212 26.4
    endloop
  endfacet
  facet normal 0 0 1
    outer loop
      vertex 2.76212 1.40737 26.4
      vertex 0.963525 1.42658 26.4
      vertex 2 0 26.4
    endloop
  endfacet
  facet normal 0 0 1
    outer loop
      vertex 0.957952 2.94827 26.4
      vertex 0.963525 1.42658 26.4
      vertex 1.40737 2.76212 26.4
    endloop
  endfacet
  facet normal 0 0 1
    outer loop
      vertex 0.484946 3.06183 26.4
      vertex 0.963525 1.42658 26.4
      vertex 0.957952 2.94827 26.4
    endloop
  endfacet
  facet normal 0 0 1
    outer loop
      vertex 0 3.1 26.4
      vertex 0.963525 1.42658 26.4
      vertex 0.484946 3.06183 26.4
    endloop
  endfacet
  facet normal 0 0 1
    outer loop
      vertex -0.713525 0.881678 26.4
      vertex 0 3.1 26.4
      vertex -0.484946 3.06183 26.4
    endloop
  endfacet
  facet normal 0 0 1
    outer loop
      vertex 0 3.1 26.4
      vertex -0.713525 0.881678 26.4
      vertex 0.963525 1.42658 26.4
    endloop
  endfacet
  facet normal -0 0 1
    outer loop
      vertex -1.40737 2.76212 26.4
      vertex -0.713525 0.881678 26.4
      vertex -0.957952 2.94827 26.4
    endloop
  endfacet
  facet normal -0 0 1
    outer loop
      vertex -0.957952 2.94827 26.4
      vertex -0.713525 0.881678 26.4
      vertex -0.484946 3.06183 26.4
    endloop
  endfacet
  facet normal 0 0 1
    outer loop
      vertex 2.50795 -1.82213 26.4
      vertex 0.963525 -1.42658 26.4
      vertex 2.19203 -2.19203 26.4
    endloop
  endfacet
  facet normal 0 0 1
    outer loop
      vertex 2.19203 -2.19203 26.4
      vertex 0.963525 -1.42658 26.4
      vertex 1.82213 -2.50795 26.4
    endloop
  endfacet
  facet normal 0 0 1
    outer loop
      vertex 1.82213 -2.50795 26.4
      vertex 0.963525 -1.42658 26.4
      vertex 1.40737 -2.76212 26.4
    endloop
  endfacet
  facet normal 0 0 1
    outer loop
      vertex 0.963525 -1.42658 26.4
      vertex 0.957952 -2.94827 26.4
      vertex 1.40737 -2.76212 26.4
    endloop
  endfacet
  facet normal 0 0 1
    outer loop
      vertex 0.963525 -1.42658 26.4
      vertex 0.484946 -3.06183 26.4
      vertex 0.957952 -2.94827 26.4
    endloop
  endfacet
  facet normal 0 0 1
    outer loop
      vertex 0.963525 -1.42658 26.4
      vertex 0 -3.1 26.4
      vertex 0.484946 -3.06183 26.4
    endloop
  endfacet
  facet normal 0 0 1
    outer loop
      vertex -0.713525 -0.881678 26.4
      vertex 0 -3.1 26.4
      vertex 0.963525 -1.42658 26.4
    endloop
  endfacet
  facet normal 0 0 1
    outer loop
      vertex 0 -3.1 26.4
      vertex -0.713525 -0.881678 26.4
      vertex -0.484946 -3.06183 26.4
    endloop
  endfacet
  facet normal 0 0 1
    outer loop
      vertex -0.713525 -0.881678 26.4
      vertex -0.957952 -2.94827 26.4
      vertex -0.484946 -3.06183 26.4
    endloop
  endfacet
  facet normal -0 0 1
    outer loop
      vertex -1.82213 2.50795 26.4
      vertex -0.713525 0.881678 26.4
      vertex -1.40737 2.76212 26.4
    endloop
  endfacet
  facet normal -0 0 1
    outer loop
      vertex -2.19203 2.19203 26.4
      vertex -0.713525 0.881678 26.4
      vertex -1.82213 2.50795 26.4
    endloop
  endfacet
  facet normal 0 0 1
    outer loop
      vertex -0.713525 -0.881678 26.4
      vertex -1.40737 -2.76212 26.4
      vertex -0.957952 -2.94827 26.4
    endloop
  endfacet
  facet normal -0 0 1
    outer loop
      vertex -2.50795 1.82213 26.4
      vertex -0.713525 0.881678 26.4
      vertex -2.19203 2.19203 26.4
    endloop
  endfacet
  facet normal 0 0 1
    outer loop
      vertex -0.713525 -0.881678 26.4
      vertex -1.82213 -2.50795 26.4
      vertex -1.40737 -2.76212 26.4
    endloop
  endfacet
  facet normal -0 0 1
    outer loop
      vertex -2.76212 1.40737 26.4
      vertex -0.713525 0.881678 26.4
      vertex -2.50795 1.82213 26.4
    endloop
  endfacet
  facet normal 0 0 1
    outer loop
      vertex -0.713525 -0.881678 26.4
      vertex -2.19203 -2.19203 26.4
      vertex -1.82213 -2.50795 26.4
    endloop
  endfacet
  facet normal -0 0 1
    outer loop
      vertex -2.94827 0.957952 26.4
      vertex -0.713525 0.881678 26.4
      vertex -2.76212 1.40737 26.4
    endloop
  endfacet
  facet normal 0 0 1
    outer loop
      vertex -0.713525 -0.881678 26.4
      vertex -2.50795 -1.82213 26.4
      vertex -2.19203 -2.19203 26.4
    endloop
  endfacet
  facet normal 0 0 1
    outer loop
      vertex -3.06183 0.484946 26.4
      vertex -0.713525 0.881678 26.4
      vertex -2.94827 0.957952 26.4
    endloop
  endfacet
  facet normal 0 0 1
    outer loop
      vertex -0.713525 -0.881678 26.4
      vertex -2.76212 -1.40737 26.4
      vertex -2.50795 -1.82213 26.4
    endloop
  endfacet
  facet normal 0 0 1
    outer loop
      vertex -3.1 0 26.4
      vertex -0.713525 0.881678 26.4
      vertex -3.06183 0.484946 26.4
    endloop
  endfacet
  facet normal 0 0 1
    outer loop
      vertex -0.713525 -0.881678 26.4
      vertex -2.94827 -0.957952 26.4
      vertex -2.76212 -1.40737 26.4
    endloop
  endfacet
  facet normal 0 0 1
    outer loop
      vertex -0.713525 0.881678 26.4
      vertex -3.1 0 26.4
      vertex -0.713525 -0.881678 26.4
    endloop
  endfacet
  facet normal 0 0 1
    outer loop
      vertex -0.713525 -0.881678 26.4
      vertex -3.06183 -0.484946 26.4
      vertex -2.94827 -0.957952 26.4
    endloop
  endfacet
  facet normal 0 0 1
    outer loop
      vertex -0.713525 -0.881678 26.4
      vertex -3.1 0 26.4
      vertex -3.06183 -0.484946 26.4
    endloop
  endfacet
  facet normal -0.522498 0.852641 0
    outer loop
      vertex -1.40737 2.76212 0
      vertex -1.82213 2.50795 26.4
      vertex -1.40737 2.76212 26.4
    endloop
  endfacet
  facet normal -0.522498 0.852641 0
    outer loop
      vertex -1.82213 2.50795 26.4
      vertex -1.40737 2.76212 0
      vertex -1.82213 2.50795 0
    endloop
  endfacet
  facet normal -0.233445 0.97237 0
    outer loop
      vertex -0.484946 3.06183 0
      vertex -0.957952 2.94827 26.4
      vertex -0.484946 3.06183 26.4
    endloop
  endfacet
  facet normal -0.233445 0.97237 0
    outer loop
      vertex -0.957952 2.94827 26.4
      vertex -0.484946 3.06183 0
      vertex -0.957952 2.94827 0
    endloop
  endfacet
  facet normal -0.233445 -0.97237 0
    outer loop
      vertex -0.957952 -2.94827 0
      vertex -0.484946 -3.06183 26.4
      vertex -0.957952 -2.94827 26.4
    endloop
  endfacet
  facet normal -0.233445 -0.97237 -0
    outer loop
      vertex -0.484946 -3.06183 26.4
      vertex -0.957952 -2.94827 0
      vertex -0.484946 -3.06183 0
    endloop
  endfacet
  facet normal 0.233445 -0.97237 0
    outer loop
      vertex 0.484946 -3.06183 0
      vertex 0.957952 -2.94827 26.4
      vertex 0.484946 -3.06183 26.4
    endloop
  endfacet
  facet normal 0.233445 -0.97237 0
    outer loop
      vertex 0.957952 -2.94827 26.4
      vertex 0.484946 -3.06183 0
      vertex 0.957952 -2.94827 0
    endloop
  endfacet
  facet normal 0.923879 0.382685 0
    outer loop
      vertex 2.94827 0.957952 26.4
      vertex 2.76212 1.40737 0
      vertex 2.76212 1.40737 26.4
    endloop
  endfacet
  facet normal 0.923879 0.382685 0
    outer loop
      vertex 2.76212 1.40737 0
      vertex 2.94827 0.957952 26.4
      vertex 2.94827 0.957952 0
    endloop
  endfacet
  facet normal 0.078459 0.996917 -0
    outer loop
      vertex 0.484946 3.06183 0
      vertex 0 3.1 26.4
      vertex 0.484946 3.06183 26.4
    endloop
  endfacet
  facet normal 0.078459 0.996917 0
    outer loop
      vertex 0 3.1 26.4
      vertex 0.484946 3.06183 0
      vertex 0 3.1 0
    endloop
  endfacet
  facet normal -0.923879 0.382685 0
    outer loop
      vertex -2.94827 0.957952 0
      vertex -2.76212 1.40737 26.4
      vertex -2.76212 1.40737 0
    endloop
  endfacet
  facet normal -0.923879 0.382685 0
    outer loop
      vertex -2.76212 1.40737 26.4
      vertex -2.94827 0.957952 0
      vertex -2.94827 0.957952 26.4
    endloop
  endfacet
  facet normal 0.996917 -0.078459 0
    outer loop
      vertex 3.06183 -0.484946 26.4
      vertex 3.1 0 0
      vertex 3.1 0 26.4
    endloop
  endfacet
  facet normal 0.996917 -0.078459 0
    outer loop
      vertex 3.1 0 0
      vertex 3.06183 -0.484946 26.4
      vertex 3.06183 -0.484946 0
    endloop
  endfacet
  facet normal -0.382685 -0.923879 0
    outer loop
      vertex -1.40737 -2.76212 0
      vertex -0.957952 -2.94827 26.4
      vertex -1.40737 -2.76212 26.4
    endloop
  endfacet
  facet normal -0.382685 -0.923879 -0
    outer loop
      vertex -0.957952 -2.94827 26.4
      vertex -1.40737 -2.76212 0
      vertex -0.957952 -2.94827 0
    endloop
  endfacet
  facet normal -0.996917 -0.078459 0
    outer loop
      vertex -3.06183 -0.484946 0
      vertex -3.1 0 26.4
      vertex -3.1 0 0
    endloop
  endfacet
  facet normal -0.996917 -0.078459 0
    outer loop
      vertex -3.1 0 26.4
      vertex -3.06183 -0.484946 0
      vertex -3.06183 -0.484946 26.4
    endloop
  endfacet
  facet normal -0.97237 -0.233445 0
    outer loop
      vertex -2.94827 -0.957952 0
      vertex -3.06183 -0.484946 26.4
      vertex -3.06183 -0.484946 0
    endloop
  endfacet
  facet normal -0.97237 -0.233445 0
    outer loop
      vertex -3.06183 -0.484946 26.4
      vertex -2.94827 -0.957952 0
      vertex -2.94827 -0.957952 26.4
    endloop
  endfacet
  facet normal 0.649447 -0.760407 0
    outer loop
      vertex 1.82213 -2.50795 0
      vertex 2.19203 -2.19203 26.4
      vertex 1.82213 -2.50795 26.4
    endloop
  endfacet
  facet normal 0.649447 -0.760407 0
    outer loop
      vertex 2.19203 -2.19203 26.4
      vertex 1.82213 -2.50795 0
      vertex 2.19203 -2.19203 0
    endloop
  endfacet
  facet normal 0.522498 -0.852641 0
    outer loop
      vertex 1.40737 -2.76212 0
      vertex 1.82213 -2.50795 26.4
      vertex 1.40737 -2.76212 26.4
    endloop
  endfacet
  facet normal 0.522498 -0.852641 0
    outer loop
      vertex 1.82213 -2.50795 26.4
      vertex 1.40737 -2.76212 0
      vertex 1.82213 -2.50795 0
    endloop
  endfacet
  facet normal 0.382685 -0.923879 0
    outer loop
      vertex 0.957952 -2.94827 0
      vertex 1.40737 -2.76212 26.4
      vertex 0.957952 -2.94827 26.4
    endloop
  endfacet
  facet normal 0.382685 -0.923879 0
    outer loop
      vertex 1.40737 -2.76212 26.4
      vertex 0.957952 -2.94827 0
      vertex 1.40737 -2.76212 0
    endloop
  endfacet
  facet normal 0.923879 -0.382685 0
    outer loop
      vertex 2.76212 -1.40737 26.4
      vertex 2.94827 -0.957952 0
      vertex 2.94827 -0.957952 26.4
    endloop
  endfacet
  facet normal 0.923879 -0.382685 0
    outer loop
      vertex 2.94827 -0.957952 0
      vertex 2.76212 -1.40737 26.4
      vertex 2.76212 -1.40737 0
    endloop
  endfacet
  facet normal 0.97237 -0.233445 0
    outer loop
      vertex 2.94827 -0.957952 26.4
      vertex 3.06183 -0.484946 0
      vertex 3.06183 -0.484946 26.4
    endloop
  endfacet
  facet normal 0.97237 -0.233445 0
    outer loop
      vertex 3.06183 -0.484946 0
      vertex 2.94827 -0.957952 26.4
      vertex 2.94827 -0.957952 0
    endloop
  endfacet
  facet normal -0.078459 -0.996917 0
    outer loop
      vertex -0.484946 -3.06183 0
      vertex 0 -3.1 26.4
      vertex -0.484946 -3.06183 26.4
    endloop
  endfacet
  facet normal -0.078459 -0.996917 -0
    outer loop
      vertex 0 -3.1 26.4
      vertex -0.484946 -3.06183 0
      vertex 0 -3.1 0
    endloop
  endfacet
  facet normal -0.649447 -0.760407 0
    outer loop
      vertex -2.19203 -2.19203 0
      vertex -1.82213 -2.50795 26.4
      vertex -2.19203 -2.19203 26.4
    endloop
  endfacet
  facet normal -0.649447 -0.760407 -0
    outer loop
      vertex -1.82213 -2.50795 26.4
      vertex -2.19203 -2.19203 0
      vertex -1.82213 -2.50795 0
    endloop
  endfacet
  facet normal -0.760407 -0.649447 0
    outer loop
      vertex -2.19203 -2.19203 0
      vertex -2.50795 -1.82213 26.4
      vertex -2.50795 -1.82213 0
    endloop
  endfacet
  facet normal -0.760407 -0.649447 0
    outer loop
      vertex -2.50795 -1.82213 26.4
      vertex -2.19203 -2.19203 0
      vertex -2.19203 -2.19203 26.4
    endloop
  endfacet
  facet normal 0 0 -1
    outer loop
      vertex 2 0 0
      vertex 3.1 0 0
      vertex 3.06183 -0.484946 0
    endloop
  endfacet
  facet normal 0 0 -1
    outer loop
      vertex 2 0 0
      vertex 3.06183 -0.484946 0
      vertex 2.94827 -0.957952 0
    endloop
  endfacet
  facet normal 0 0 -1
    outer loop
      vertex 3.1 0 0
      vertex 2 0 0
      vertex 3.06183 0.484946 0
    endloop
  endfacet
  facet normal 0 0 -1
    outer loop
      vertex 2 0 0
      vertex 2.94827 -0.957952 0
      vertex 2.76212 -1.40737 0
    endloop
  endfacet
  facet normal -0 0 -1
    outer loop
      vertex 3.06183 0.484946 0
      vertex 2 0 0
      vertex 2.94827 0.957952 0
    endloop
  endfacet
  facet normal 0 0 -1
    outer loop
      vertex 0.963525 -1.42658 0
      vertex 2.76212 -1.40737 0
      vertex 2.50795 -1.82213 0
    endloop
  endfacet
  facet normal -0 0 -1
    outer loop
      vertex 2.94827 0.957952 0
      vertex 2 0 0
      vertex 2.76212 1.40737 0
    endloop
  endfacet
  facet normal 0 0 -1
    outer loop
      vertex 0.963525 -1.42658 0
      vertex 2.50795 -1.82213 0
      vertex 2.19203 -2.19203 0
    endloop
  endfacet
  facet normal 0 0 -1
    outer loop
      vertex 0.963525 1.42658 0
      vertex 2.76212 1.40737 0
      vertex 2 0 0
    endloop
  endfacet
  facet normal 0 0 -1
    outer loop
      vertex 2.76212 1.40737 0
      vertex 0.963525 1.42658 0
      vertex 2.50795 1.82213 0
    endloop
  endfacet
  facet normal 0 0 -1
    outer loop
      vertex 0.963525 -1.42658 0
      vertex 2.19203 -2.19203 0
      vertex 1.82213 -2.50795 0
    endloop
  endfacet
  facet normal 0 0 -1
    outer loop
      vertex 0.963525 -1.42658 0
      vertex 1.82213 -2.50795 0
      vertex 1.40737 -2.76212 0
    endloop
  endfacet
  facet normal -0 0 -1
    outer loop
      vertex 2.76212 -1.40737 0
      vertex 0.963525 -1.42658 0
      vertex 2 0 0
    endloop
  endfacet
  facet normal 0 0 -1
    outer loop
      vertex 0.957952 -2.94827 0
      vertex 0.963525 -1.42658 0
      vertex 1.40737 -2.76212 0
    endloop
  endfacet
  facet normal 0 0 -1
    outer loop
      vertex 0.484946 -3.06183 0
      vertex 0.963525 -1.42658 0
      vertex 0.957952 -2.94827 0
    endloop
  endfacet
  facet normal 0 0 -1
    outer loop
      vertex 0 -3.1 0
      vertex 0.963525 -1.42658 0
      vertex 0.484946 -3.06183 0
    endloop
  endfacet
  facet normal 0 0 -1
    outer loop
      vertex -0.713525 -0.881678 0
      vertex 0 -3.1 0
      vertex -0.484946 -3.06183 0
    endloop
  endfacet
  facet normal 0 0 -1
    outer loop
      vertex 0 -3.1 0
      vertex -0.713525 -0.881678 0
      vertex 0.963525 -1.42658 0
    endloop
  endfacet
  facet normal 0 0 -1
    outer loop
      vertex -1.40737 -2.76212 0
      vertex -0.713525 -0.881678 0
      vertex -0.957952 -2.94827 0
    endloop
  endfacet
  facet normal 0 0 -1
    outer loop
      vertex -0.957952 -2.94827 0
      vertex -0.713525 -0.881678 0
      vertex -0.484946 -3.06183 0
    endloop
  endfacet
  facet normal -0 0 -1
    outer loop
      vertex 2.50795 1.82213 0
      vertex 0.963525 1.42658 0
      vertex 2.19203 2.19203 0
    endloop
  endfacet
  facet normal -0 0 -1
    outer loop
      vertex 2.19203 2.19203 0
      vertex 0.963525 1.42658 0
      vertex 1.82213 2.50795 0
    endloop
  endfacet
  facet normal -0 0 -1
    outer loop
      vertex 1.82213 2.50795 0
      vertex 0.963525 1.42658 0
      vertex 1.40737 2.76212 0
    endloop
  endfacet
  facet normal 0 0 -1
    outer loop
      vertex 0.963525 1.42658 0
      vertex 0.957952 2.94827 0
      vertex 1.40737 2.76212 0
    endloop
  endfacet
  facet normal 0 0 -1
    outer loop
      vertex 0.963525 1.42658 0
      vertex 0.484946 3.06183 0
      vertex 0.957952 2.94827 0
    endloop
  endfacet
  facet normal 0 0 -1
    outer loop
      vertex 0.963525 1.42658 0
      vertex 0 3.1 0
      vertex 0.484946 3.06183 0
    endloop
  endfacet
  facet normal 0 0 -1
    outer loop
      vertex -0.713525 0.881678 0
      vertex 0 3.1 0
      vertex 0.963525 1.42658 0
    endloop
  endfacet
  facet normal 0 0 -1
    outer loop
      vertex 0 3.1 0
      vertex -0.713525 0.881678 0
      vertex -0.484946 3.06183 0
    endloop
  endfacet
  facet normal 0 0 -1
    outer loop
      vertex -0.713525 0.881678 0
      vertex -0.957952 2.94827 0
      vertex -0.484946 3.06183 0
    endloop
  endfacet
  facet normal 0 0 -1
    outer loop
      vertex -1.82213 -2.50795 0
      vertex -0.713525 -0.881678 0
      vertex -1.40737 -2.76212 0
    endloop
  endfacet
  facet normal 0 0 -1
    outer loop
      vertex -2.19203 -2.19203 0
      vertex -0.713525 -0.881678 0
      vertex -1.82213 -2.50795 0
    endloop
  endfacet
  facet normal 0 0 -1
    outer loop
      vertex -0.713525 0.881678 0
      vertex -1.40737 2.76212 0
      vertex -0.957952 2.94827 0
    endloop
  endfacet
  facet normal 0 0 -1
    outer loop
      vertex -2.50795 -1.82213 0
      vertex -0.713525 -0.881678 0
      vertex -2.19203 -2.19203 0
    endloop
  endfacet
  facet normal 0 0 -1
    outer loop
      vertex -0.713525 0.881678 0
      vertex -1.82213 2.50795 0
      vertex -1.40737 2.76212 0
    endloop
  endfacet
  facet normal 0 0 -1
    outer loop
      vertex -2.76212 -1.40737 0
      vertex -0.713525 -0.881678 0
      vertex -2.50795 -1.82213 0
    endloop
  endfacet
  facet normal 0 0 -1
    outer loop
      vertex -0.713525 0.881678 0
      vertex -2.19203 2.19203 0
      vertex -1.82213 2.50795 0
    endloop
  endfacet
  facet normal 0 0 -1
    outer loop
      vertex -2.94827 -0.957952 0
      vertex -0.713525 -0.881678 0
      vertex -2.76212 -1.40737 0
    endloop
  endfacet
  facet normal 0 0 -1
    outer loop
      vertex -0.713525 0.881678 0
      vertex -2.50795 1.82213 0
      vertex -2.19203 2.19203 0
    endloop
  endfacet
  facet normal 0 0 -1
    outer loop
      vertex -3.06183 -0.484946 0
      vertex -0.713525 -0.881678 0
      vertex -2.94827 -0.957952 0
    endloop
  endfacet
  facet normal 0 0 -1
    outer loop
      vertex -0.713525 0.881678 0
      vertex -2.76212 1.40737 0
      vertex -2.50795 1.82213 0
    endloop
  endfacet
  facet normal 0 0 -1
    outer loop
      vertex -3.1 0 0
      vertex -0.713525 -0.881678 0
      vertex -3.06183 -0.484946 0
    endloop
  endfacet
  facet normal 0 0 -1
    outer loop
      vertex -0.713525 0.881678 0
      vertex -2.94827 0.957952 0
      vertex -2.76212 1.40737 0
    endloop
  endfacet
  facet normal 0 0 -1
    outer loop
      vertex -0.713525 -0.881678 0
      vertex -3.1 0 0
      vertex -0.713525 0.881678 0
    endloop
  endfacet
  facet normal -0 0 -1
    outer loop
      vertex -0.713525 0.881678 0
      vertex -3.06183 0.484946 0
      vertex -2.94827 0.957952 0
    endloop
  endfacet
  facet normal 0 0 -1
    outer loop
      vertex -0.713525 0.881678 0
      vertex -3.1 0 0
      vertex -3.06183 0.484946 0
    endloop
  endfacet
  facet normal 0.078459 -0.996917 0
    outer loop
      vertex 0 -3.1 0
      vertex 0.484946 -3.06183 26.4
      vertex 0 -3.1 26.4
    endloop
  endfacet
  facet normal 0.078459 -0.996917 0
    outer loop
      vertex 0.484946 -3.06183 26.4
      vertex 0 -3.1 0
      vertex 0.484946 -3.06183 0
    endloop
  endfacet
  facet normal -0.522498 -0.852641 0
    outer loop
      vertex -1.82213 -2.50795 0
      vertex -1.40737 -2.76212 26.4
      vertex -1.82213 -2.50795 26.4
    endloop
  endfacet
  facet normal -0.522498 -0.852641 -0
    outer loop
      vertex -1.40737 -2.76212 26.4
      vertex -1.82213 -2.50795 0
      vertex -1.40737 -2.76212 0
    endloop
  endfacet
  facet normal -0.852641 -0.522498 0
    outer loop
      vertex -2.50795 -1.82213 0
      vertex -2.76212 -1.40737 26.4
      vertex -2.76212 -1.40737 0
    endloop
  endfacet
  facet normal -0.852641 -0.522498 0
    outer loop
      vertex -2.76212 -1.40737 26.4
      vertex -2.50795 -1.82213 0
      vertex -2.50795 -1.82213 26.4
    endloop
  endfacet
  facet normal -0.923879 -0.382685 0
    outer loop
      vertex -2.76212 -1.40737 0
      vertex -2.94827 -0.957952 26.4
      vertex -2.94827 -0.957952 0
    endloop
  endfacet
  facet normal -0.923879 -0.382685 0
    outer loop
      vertex -2.94827 -0.957952 26.4
      vertex -2.76212 -1.40737 0
      vertex -2.76212 -1.40737 26.4
    endloop
  endfacet
  facet normal 0.852641 -0.522498 0
    outer loop
      vertex 2.50795 -1.82213 26.4
      vertex 2.76212 -1.40737 0
      vertex 2.76212 -1.40737 26.4
    endloop
  endfacet
  facet normal 0.852641 -0.522498 0
    outer loop
      vertex 2.76212 -1.40737 0
      vertex 2.50795 -1.82213 26.4
      vertex 2.50795 -1.82213 0
    endloop
  endfacet
endsolid OpenSCAD_Model
