G04 Layer_Color=16711935*
%FSLAX25Y25*%
%MOIN*%
G70*
G01*
G75*
%ADD43C,0.00800*%
%ADD74R,0.04147X0.03950*%
%ADD85R,0.04343X0.03753*%
%ADD99C,0.01800*%
%ADD100O,0.05524X0.10249*%
%ADD101O,0.06902X0.04343*%
%ADD102O,0.04540X0.05721*%
%ADD103C,0.07800*%
%ADD104R,0.07800X0.07800*%
%ADD105C,0.04800*%
%ADD106R,0.04800X0.04800*%
%ADD107R,0.07800X0.07800*%
%ADD108C,0.08674*%
%ADD109R,0.13000X0.25000*%
%ADD110R,0.03950X0.04147*%
%ADD111R,0.03753X0.04343*%
G04:AMPARAMS|DCode=112|XSize=31.62mil|YSize=70.99mil|CornerRadius=9.91mil|HoleSize=0mil|Usage=FLASHONLY|Rotation=0.000|XOffset=0mil|YOffset=0mil|HoleType=Round|Shape=RoundedRectangle|*
%AMROUNDEDRECTD112*
21,1,0.03162,0.05118,0,0,0.0*
21,1,0.01181,0.07099,0,0,0.0*
1,1,0.01981,0.00591,-0.02559*
1,1,0.01981,-0.00591,-0.02559*
1,1,0.01981,-0.00591,0.02559*
1,1,0.01981,0.00591,0.02559*
%
%ADD112ROUNDEDRECTD112*%
%ADD113R,0.03162X0.07099*%
%ADD114R,0.02572X0.06312*%
%ADD115O,0.02572X0.06312*%
D43*
X169520Y330492D02*
Y325494D01*
X172019D01*
X172852Y326327D01*
Y327160D01*
X172019Y327993D01*
X169520D01*
X172019D01*
X172852Y328826D01*
Y329659D01*
X172019Y330492D01*
X169520D01*
X175351Y325494D02*
X177017D01*
X177850Y326327D01*
Y327993D01*
X177017Y328826D01*
X175351D01*
X174518Y327993D01*
Y326327D01*
X175351Y325494D01*
X180350Y328826D02*
X182016D01*
X182849Y327993D01*
Y325494D01*
X180350D01*
X179516Y326327D01*
X180350Y327160D01*
X182849D01*
X184515Y328826D02*
Y325494D01*
Y327160D01*
X185348Y327993D01*
X186181Y328826D01*
X187014D01*
X192845Y330492D02*
Y325494D01*
X190346D01*
X189513Y326327D01*
Y327993D01*
X190346Y328826D01*
X192845D01*
X202009Y330492D02*
X200343D01*
X199510Y329659D01*
Y326327D01*
X200343Y325494D01*
X202009D01*
X202842Y326327D01*
Y329659D01*
X202009Y330492D01*
X204508Y328826D02*
Y326327D01*
X205341Y325494D01*
X207841D01*
Y328826D01*
X210340Y329659D02*
Y328826D01*
X209507D01*
X211173D01*
X210340D01*
Y326327D01*
X211173Y325494D01*
X213672D02*
X215338D01*
X214505D01*
Y330492D01*
X213672D01*
X217837Y325494D02*
X219503D01*
X218670D01*
Y328826D01*
X217837D01*
X222003Y325494D02*
Y328826D01*
X224502D01*
X225335Y327993D01*
Y325494D01*
X229500D02*
X227834D01*
X227001Y326327D01*
Y327993D01*
X227834Y328826D01*
X229500D01*
X230333Y327993D01*
Y327160D01*
X227001D01*
X172620Y332792D02*
Y327794D01*
X175119D01*
X175952Y328627D01*
Y329460D01*
X175119Y330293D01*
X172620D01*
X175119D01*
X175952Y331126D01*
Y331959D01*
X175119Y332792D01*
X172620D01*
X178451Y327794D02*
X180117D01*
X180950Y328627D01*
Y330293D01*
X180117Y331126D01*
X178451D01*
X177618Y330293D01*
Y328627D01*
X178451Y327794D01*
X183449Y331959D02*
Y331126D01*
X182616D01*
X184283D01*
X183449D01*
Y328627D01*
X184283Y327794D01*
X187615Y331959D02*
Y331126D01*
X186782D01*
X188448D01*
X187615D01*
Y328627D01*
X188448Y327794D01*
X191780D02*
X193446D01*
X194279Y328627D01*
Y330293D01*
X193446Y331126D01*
X191780D01*
X190947Y330293D01*
Y328627D01*
X191780Y327794D01*
X195946D02*
Y331126D01*
X196779D01*
X197612Y330293D01*
Y327794D01*
Y330293D01*
X198445Y331126D01*
X199278Y330293D01*
Y327794D01*
X209275Y331959D02*
X208441Y332792D01*
X206775D01*
X205942Y331959D01*
Y331126D01*
X206775Y330293D01*
X208441D01*
X209275Y329460D01*
Y328627D01*
X208441Y327794D01*
X206775D01*
X205942Y328627D01*
X211774Y327794D02*
X213440D01*
X214273Y328627D01*
Y330293D01*
X213440Y331126D01*
X211774D01*
X210941Y330293D01*
Y328627D01*
X211774Y327794D01*
X215939D02*
X217605D01*
X216772D01*
Y332792D01*
X215939D01*
X223437D02*
Y327794D01*
X220937D01*
X220104Y328627D01*
Y330293D01*
X220937Y331126D01*
X223437D01*
X227602Y327794D02*
X225936D01*
X225103Y328627D01*
Y330293D01*
X225936Y331126D01*
X227602D01*
X228435Y330293D01*
Y329460D01*
X225103D01*
X230101Y331126D02*
Y327794D01*
Y329460D01*
X230934Y330293D01*
X231767Y331126D01*
X232600D01*
X349520Y330492D02*
Y325494D01*
X352019D01*
X352852Y326327D01*
Y327160D01*
X352019Y327993D01*
X349520D01*
X352019D01*
X352852Y328826D01*
Y329659D01*
X352019Y330492D01*
X349520D01*
X355351Y325494D02*
X357017D01*
X357850Y326327D01*
Y327993D01*
X357017Y328826D01*
X355351D01*
X354518Y327993D01*
Y326327D01*
X355351Y325494D01*
X360349Y328826D02*
X362016D01*
X362849Y327993D01*
Y325494D01*
X360349D01*
X359516Y326327D01*
X360349Y327160D01*
X362849D01*
X364515Y328826D02*
Y325494D01*
Y327160D01*
X365348Y327993D01*
X366181Y328826D01*
X367014D01*
X372846Y330492D02*
Y325494D01*
X370346D01*
X369513Y326327D01*
Y327993D01*
X370346Y328826D01*
X372846D01*
X382009Y330492D02*
X380343D01*
X379510Y329659D01*
Y326327D01*
X380343Y325494D01*
X382009D01*
X382842Y326327D01*
Y329659D01*
X382009Y330492D01*
X384508Y328826D02*
Y326327D01*
X385341Y325494D01*
X387841D01*
Y328826D01*
X390340Y329659D02*
Y328826D01*
X389507D01*
X391173D01*
X390340D01*
Y326327D01*
X391173Y325494D01*
X393672D02*
X395338D01*
X394505D01*
Y330492D01*
X393672D01*
X397837Y325494D02*
X399503D01*
X398670D01*
Y328826D01*
X397837D01*
X402003Y325494D02*
Y328826D01*
X404502D01*
X405335Y327993D01*
Y325494D01*
X409500D02*
X407834D01*
X407001Y326327D01*
Y327993D01*
X407834Y328826D01*
X409500D01*
X410333Y327993D01*
Y327160D01*
X407001D01*
X352620Y332792D02*
Y327794D01*
X355119D01*
X355952Y328627D01*
Y329460D01*
X355119Y330293D01*
X352620D01*
X355119D01*
X355952Y331126D01*
Y331959D01*
X355119Y332792D01*
X352620D01*
X358451Y327794D02*
X360117D01*
X360950Y328627D01*
Y330293D01*
X360117Y331126D01*
X358451D01*
X357618Y330293D01*
Y328627D01*
X358451Y327794D01*
X363450Y331959D02*
Y331126D01*
X362616D01*
X364283D01*
X363450D01*
Y328627D01*
X364283Y327794D01*
X367615Y331959D02*
Y331126D01*
X366782D01*
X368448D01*
X367615D01*
Y328627D01*
X368448Y327794D01*
X371780D02*
X373446D01*
X374279Y328627D01*
Y330293D01*
X373446Y331126D01*
X371780D01*
X370947Y330293D01*
Y328627D01*
X371780Y327794D01*
X375945D02*
Y331126D01*
X376779D01*
X377612Y330293D01*
Y327794D01*
Y330293D01*
X378445Y331126D01*
X379278Y330293D01*
Y327794D01*
X389275Y331959D02*
X388441Y332792D01*
X386775D01*
X385942Y331959D01*
Y331126D01*
X386775Y330293D01*
X388441D01*
X389275Y329460D01*
Y328627D01*
X388441Y327794D01*
X386775D01*
X385942Y328627D01*
X391774Y327794D02*
X393440D01*
X394273Y328627D01*
Y330293D01*
X393440Y331126D01*
X391774D01*
X390941Y330293D01*
Y328627D01*
X391774Y327794D01*
X395939D02*
X397605D01*
X396772D01*
Y332792D01*
X395939D01*
X403437D02*
Y327794D01*
X400937D01*
X400104Y328627D01*
Y330293D01*
X400937Y331126D01*
X403437D01*
X407602Y327794D02*
X405936D01*
X405103Y328627D01*
Y330293D01*
X405936Y331126D01*
X407602D01*
X408435Y330293D01*
Y329460D01*
X405103D01*
X410101Y331126D02*
Y327794D01*
Y329460D01*
X410934Y330293D01*
X411767Y331126D01*
X412600D01*
X169520Y510492D02*
Y505494D01*
X172019D01*
X172852Y506327D01*
Y507160D01*
X172019Y507993D01*
X169520D01*
X172019D01*
X172852Y508826D01*
Y509659D01*
X172019Y510492D01*
X169520D01*
X175351Y505494D02*
X177017D01*
X177850Y506327D01*
Y507993D01*
X177017Y508826D01*
X175351D01*
X174518Y507993D01*
Y506327D01*
X175351Y505494D01*
X180350Y508826D02*
X182016D01*
X182849Y507993D01*
Y505494D01*
X180350D01*
X179516Y506327D01*
X180350Y507160D01*
X182849D01*
X184515Y508826D02*
Y505494D01*
Y507160D01*
X185348Y507993D01*
X186181Y508826D01*
X187014D01*
X192845Y510492D02*
Y505494D01*
X190346D01*
X189513Y506327D01*
Y507993D01*
X190346Y508826D01*
X192845D01*
X202009Y510492D02*
X200343D01*
X199510Y509659D01*
Y506327D01*
X200343Y505494D01*
X202009D01*
X202842Y506327D01*
Y509659D01*
X202009Y510492D01*
X204508Y508826D02*
Y506327D01*
X205341Y505494D01*
X207841D01*
Y508826D01*
X210340Y509659D02*
Y508826D01*
X209507D01*
X211173D01*
X210340D01*
Y506327D01*
X211173Y505494D01*
X213672D02*
X215338D01*
X214505D01*
Y510492D01*
X213672D01*
X217837Y505494D02*
X219503D01*
X218670D01*
Y508826D01*
X217837D01*
X222003Y505494D02*
Y508826D01*
X224502D01*
X225335Y507993D01*
Y505494D01*
X229500D02*
X227834D01*
X227001Y506327D01*
Y507993D01*
X227834Y508826D01*
X229500D01*
X230333Y507993D01*
Y507160D01*
X227001D01*
X172620Y512792D02*
Y507794D01*
X175119D01*
X175952Y508627D01*
Y509460D01*
X175119Y510293D01*
X172620D01*
X175119D01*
X175952Y511126D01*
Y511959D01*
X175119Y512792D01*
X172620D01*
X178451Y507794D02*
X180117D01*
X180950Y508627D01*
Y510293D01*
X180117Y511126D01*
X178451D01*
X177618Y510293D01*
Y508627D01*
X178451Y507794D01*
X183449Y511959D02*
Y511126D01*
X182616D01*
X184283D01*
X183449D01*
Y508627D01*
X184283Y507794D01*
X187615Y511959D02*
Y511126D01*
X186782D01*
X188448D01*
X187615D01*
Y508627D01*
X188448Y507794D01*
X191780D02*
X193446D01*
X194279Y508627D01*
Y510293D01*
X193446Y511126D01*
X191780D01*
X190947Y510293D01*
Y508627D01*
X191780Y507794D01*
X195946D02*
Y511126D01*
X196779D01*
X197612Y510293D01*
Y507794D01*
Y510293D01*
X198445Y511126D01*
X199278Y510293D01*
Y507794D01*
X209275Y511959D02*
X208441Y512792D01*
X206775D01*
X205942Y511959D01*
Y511126D01*
X206775Y510293D01*
X208441D01*
X209275Y509460D01*
Y508627D01*
X208441Y507794D01*
X206775D01*
X205942Y508627D01*
X211774Y507794D02*
X213440D01*
X214273Y508627D01*
Y510293D01*
X213440Y511126D01*
X211774D01*
X210941Y510293D01*
Y508627D01*
X211774Y507794D01*
X215939D02*
X217605D01*
X216772D01*
Y512792D01*
X215939D01*
X223437D02*
Y507794D01*
X220937D01*
X220104Y508627D01*
Y510293D01*
X220937Y511126D01*
X223437D01*
X227602Y507794D02*
X225936D01*
X225103Y508627D01*
Y510293D01*
X225936Y511126D01*
X227602D01*
X228435Y510293D01*
Y509460D01*
X225103D01*
X230101Y511126D02*
Y507794D01*
Y509460D01*
X230934Y510293D01*
X231767Y511126D01*
X232600D01*
X349520Y510492D02*
Y505494D01*
X352019D01*
X352852Y506327D01*
Y507160D01*
X352019Y507993D01*
X349520D01*
X352019D01*
X352852Y508826D01*
Y509659D01*
X352019Y510492D01*
X349520D01*
X355351Y505494D02*
X357017D01*
X357850Y506327D01*
Y507993D01*
X357017Y508826D01*
X355351D01*
X354518Y507993D01*
Y506327D01*
X355351Y505494D01*
X360349Y508826D02*
X362016D01*
X362849Y507993D01*
Y505494D01*
X360349D01*
X359516Y506327D01*
X360349Y507160D01*
X362849D01*
X364515Y508826D02*
Y505494D01*
Y507160D01*
X365348Y507993D01*
X366181Y508826D01*
X367014D01*
X372846Y510492D02*
Y505494D01*
X370346D01*
X369513Y506327D01*
Y507993D01*
X370346Y508826D01*
X372846D01*
X382009Y510492D02*
X380343D01*
X379510Y509659D01*
Y506327D01*
X380343Y505494D01*
X382009D01*
X382842Y506327D01*
Y509659D01*
X382009Y510492D01*
X384508Y508826D02*
Y506327D01*
X385341Y505494D01*
X387841D01*
Y508826D01*
X390340Y509659D02*
Y508826D01*
X389507D01*
X391173D01*
X390340D01*
Y506327D01*
X391173Y505494D01*
X393672D02*
X395338D01*
X394505D01*
Y510492D01*
X393672D01*
X397837Y505494D02*
X399503D01*
X398670D01*
Y508826D01*
X397837D01*
X402003Y505494D02*
Y508826D01*
X404502D01*
X405335Y507993D01*
Y505494D01*
X409500D02*
X407834D01*
X407001Y506327D01*
Y507993D01*
X407834Y508826D01*
X409500D01*
X410333Y507993D01*
Y507160D01*
X407001D01*
X352620Y512792D02*
Y507794D01*
X355119D01*
X355952Y508627D01*
Y509460D01*
X355119Y510293D01*
X352620D01*
X355119D01*
X355952Y511126D01*
Y511959D01*
X355119Y512792D01*
X352620D01*
X358451Y507794D02*
X360117D01*
X360950Y508627D01*
Y510293D01*
X360117Y511126D01*
X358451D01*
X357618Y510293D01*
Y508627D01*
X358451Y507794D01*
X363450Y511959D02*
Y511126D01*
X362616D01*
X364283D01*
X363450D01*
Y508627D01*
X364283Y507794D01*
X367615Y511959D02*
Y511126D01*
X366782D01*
X368448D01*
X367615D01*
Y508627D01*
X368448Y507794D01*
X371780D02*
X373446D01*
X374279Y508627D01*
Y510293D01*
X373446Y511126D01*
X371780D01*
X370947Y510293D01*
Y508627D01*
X371780Y507794D01*
X375945D02*
Y511126D01*
X376779D01*
X377612Y510293D01*
Y507794D01*
Y510293D01*
X378445Y511126D01*
X379278Y510293D01*
Y507794D01*
X389275Y511959D02*
X388441Y512792D01*
X386775D01*
X385942Y511959D01*
Y511126D01*
X386775Y510293D01*
X388441D01*
X389275Y509460D01*
Y508627D01*
X388441Y507794D01*
X386775D01*
X385942Y508627D01*
X391774Y507794D02*
X393440D01*
X394273Y508627D01*
Y510293D01*
X393440Y511126D01*
X391774D01*
X390941Y510293D01*
Y508627D01*
X391774Y507794D01*
X395939D02*
X397605D01*
X396772D01*
Y512792D01*
X395939D01*
X403437D02*
Y507794D01*
X400937D01*
X400104Y508627D01*
Y510293D01*
X400937Y511126D01*
X403437D01*
X407602Y507794D02*
X405936D01*
X405103Y508627D01*
Y510293D01*
X405936Y511126D01*
X407602D01*
X408435Y510293D01*
Y509460D01*
X405103D01*
X410101Y511126D02*
Y507794D01*
Y509460D01*
X410934Y510293D01*
X411767Y511126D01*
X412600D01*
D74*
X211283Y173244D02*
D03*
X216205D02*
D03*
X207784Y161744D02*
D03*
X212705D02*
D03*
X207784Y156744D02*
D03*
X212705D02*
D03*
X188705Y193244D02*
D03*
X183783D02*
D03*
X213205Y227244D02*
D03*
X208283D02*
D03*
X211205Y237244D02*
D03*
X206283D02*
D03*
X211205Y243244D02*
D03*
X206283D02*
D03*
X203705Y153744D02*
D03*
X198783D02*
D03*
X198283Y159244D02*
D03*
X203205D02*
D03*
X192205Y168244D02*
D03*
X187284D02*
D03*
X391283Y173244D02*
D03*
X396205D02*
D03*
X387784Y161744D02*
D03*
X392705D02*
D03*
X387784Y156744D02*
D03*
X392705D02*
D03*
X368705Y193244D02*
D03*
X363783D02*
D03*
X393205Y227244D02*
D03*
X388283D02*
D03*
X391205Y237244D02*
D03*
X386283D02*
D03*
X391205Y243244D02*
D03*
X386283D02*
D03*
X383705Y153744D02*
D03*
X378783D02*
D03*
X378283Y159244D02*
D03*
X383205D02*
D03*
X372205Y168244D02*
D03*
X367284D02*
D03*
X211283Y353244D02*
D03*
X216205D02*
D03*
X207784Y341744D02*
D03*
X212705D02*
D03*
X207784Y336744D02*
D03*
X212705D02*
D03*
X188705Y373244D02*
D03*
X183783D02*
D03*
X213205Y407244D02*
D03*
X208283D02*
D03*
X211205Y417244D02*
D03*
X206283D02*
D03*
X211205Y423244D02*
D03*
X206283D02*
D03*
X203705Y333744D02*
D03*
X198783D02*
D03*
X198283Y339244D02*
D03*
X203205D02*
D03*
X192205Y348244D02*
D03*
X187284D02*
D03*
X391283Y353244D02*
D03*
X396205D02*
D03*
X387784Y341744D02*
D03*
X392705D02*
D03*
X387784Y336744D02*
D03*
X392705D02*
D03*
X368705Y373244D02*
D03*
X363783D02*
D03*
X393205Y407244D02*
D03*
X388283D02*
D03*
X391205Y417244D02*
D03*
X386283D02*
D03*
X391205Y423244D02*
D03*
X386283D02*
D03*
X383705Y333744D02*
D03*
X378783D02*
D03*
X378283Y339244D02*
D03*
X383205D02*
D03*
X372205Y348244D02*
D03*
X367284D02*
D03*
D85*
X249244Y203587D02*
D03*
Y208902D02*
D03*
X258744Y206087D02*
D03*
Y211402D02*
D03*
X249744Y170087D02*
D03*
Y175402D02*
D03*
X259244Y172587D02*
D03*
Y177902D02*
D03*
X258744Y190087D02*
D03*
Y195402D02*
D03*
X249244Y187087D02*
D03*
Y192402D02*
D03*
X429244Y203587D02*
D03*
Y208902D02*
D03*
X438744Y206087D02*
D03*
Y211402D02*
D03*
X429744Y170087D02*
D03*
Y175402D02*
D03*
X439244Y172587D02*
D03*
Y177902D02*
D03*
X438744Y190087D02*
D03*
Y195402D02*
D03*
X429244Y187087D02*
D03*
Y192402D02*
D03*
X249244Y383587D02*
D03*
Y388902D02*
D03*
X258744Y386087D02*
D03*
Y391402D02*
D03*
X249744Y350087D02*
D03*
Y355402D02*
D03*
X259244Y352587D02*
D03*
Y357902D02*
D03*
X258744Y370087D02*
D03*
Y375402D02*
D03*
X249244Y367087D02*
D03*
Y372402D02*
D03*
X429244Y383587D02*
D03*
Y388902D02*
D03*
X438744Y386087D02*
D03*
Y391402D02*
D03*
X429744Y350087D02*
D03*
Y355402D02*
D03*
X439244Y352587D02*
D03*
Y357902D02*
D03*
X438744Y370087D02*
D03*
Y375402D02*
D03*
X429244Y367087D02*
D03*
Y372402D02*
D03*
D99*
X125000Y260000D02*
D03*
Y265000D02*
D03*
Y255000D02*
D03*
Y250000D02*
D03*
Y245000D02*
D03*
Y240000D02*
D03*
X124600Y152500D02*
D03*
Y157500D02*
D03*
Y162500D02*
D03*
Y167500D02*
D03*
Y177500D02*
D03*
Y172500D02*
D03*
X290600Y150000D02*
D03*
Y155000D02*
D03*
Y160000D02*
D03*
Y165000D02*
D03*
Y175000D02*
D03*
Y170000D02*
D03*
X305100Y150000D02*
D03*
Y155000D02*
D03*
Y160000D02*
D03*
Y165000D02*
D03*
Y175000D02*
D03*
Y170000D02*
D03*
X291400Y229800D02*
D03*
Y234800D02*
D03*
Y239800D02*
D03*
Y244800D02*
D03*
Y254800D02*
D03*
Y249800D02*
D03*
X304800Y229300D02*
D03*
Y234300D02*
D03*
Y239300D02*
D03*
Y244300D02*
D03*
Y254300D02*
D03*
Y249300D02*
D03*
X125200Y409200D02*
D03*
Y414200D02*
D03*
Y419200D02*
D03*
Y424200D02*
D03*
Y434200D02*
D03*
Y429200D02*
D03*
X291200Y338300D02*
D03*
Y343300D02*
D03*
Y348300D02*
D03*
Y353300D02*
D03*
Y363300D02*
D03*
Y358300D02*
D03*
X291000Y404100D02*
D03*
Y409100D02*
D03*
Y414100D02*
D03*
Y419100D02*
D03*
Y429100D02*
D03*
Y424100D02*
D03*
X304900Y404500D02*
D03*
Y409500D02*
D03*
Y414500D02*
D03*
Y419500D02*
D03*
Y429500D02*
D03*
Y424500D02*
D03*
X304700Y338200D02*
D03*
Y343200D02*
D03*
Y348200D02*
D03*
Y353200D02*
D03*
Y363200D02*
D03*
Y358200D02*
D03*
X471200Y401400D02*
D03*
Y406400D02*
D03*
Y411400D02*
D03*
Y416400D02*
D03*
Y426400D02*
D03*
Y421400D02*
D03*
X471600Y339500D02*
D03*
Y344500D02*
D03*
Y349500D02*
D03*
Y354500D02*
D03*
Y364500D02*
D03*
Y359500D02*
D03*
Y216100D02*
D03*
Y221100D02*
D03*
Y226100D02*
D03*
Y231100D02*
D03*
Y241100D02*
D03*
Y236100D02*
D03*
X470600Y152500D02*
D03*
Y157500D02*
D03*
Y162500D02*
D03*
Y167500D02*
D03*
Y177500D02*
D03*
Y172500D02*
D03*
X443700Y124400D02*
D03*
X438700D02*
D03*
X433700D02*
D03*
X428700D02*
D03*
X418700D02*
D03*
X423700D02*
D03*
X357000Y124000D02*
D03*
X352000D02*
D03*
X347000D02*
D03*
X342000D02*
D03*
X332000D02*
D03*
X337000D02*
D03*
X360500Y289900D02*
D03*
X355500D02*
D03*
X350500D02*
D03*
X345500D02*
D03*
X335500D02*
D03*
X340500D02*
D03*
X432500Y290100D02*
D03*
X427500D02*
D03*
X422500D02*
D03*
X417500D02*
D03*
X407500D02*
D03*
X412500D02*
D03*
X431400Y303700D02*
D03*
X426400D02*
D03*
X421400D02*
D03*
X416400D02*
D03*
X406400D02*
D03*
X411400D02*
D03*
X360600Y304500D02*
D03*
X355600D02*
D03*
X350600D02*
D03*
X345600D02*
D03*
X335600D02*
D03*
X340600D02*
D03*
X365000Y469600D02*
D03*
X360000D02*
D03*
X355000D02*
D03*
X350000D02*
D03*
X340000D02*
D03*
X345000D02*
D03*
X435000D02*
D03*
X430000D02*
D03*
X425000D02*
D03*
X420000D02*
D03*
X410000D02*
D03*
X415000D02*
D03*
X252600D02*
D03*
X247600D02*
D03*
X242600D02*
D03*
X237600D02*
D03*
X227600D02*
D03*
X232600D02*
D03*
X183200Y469800D02*
D03*
X178200D02*
D03*
X173200D02*
D03*
X168200D02*
D03*
X158200D02*
D03*
X163200D02*
D03*
X175500Y303900D02*
D03*
X170500D02*
D03*
X165500D02*
D03*
X160500D02*
D03*
X150500D02*
D03*
X155500D02*
D03*
X175700Y290100D02*
D03*
X170700D02*
D03*
X165700D02*
D03*
X160700D02*
D03*
X150700D02*
D03*
X155700D02*
D03*
X260900Y303300D02*
D03*
X255900D02*
D03*
X250900D02*
D03*
X245900D02*
D03*
X235900D02*
D03*
X240900D02*
D03*
X261100Y290100D02*
D03*
X256100D02*
D03*
X251100D02*
D03*
X246100D02*
D03*
X236100D02*
D03*
X241100D02*
D03*
X261300Y123800D02*
D03*
X256300D02*
D03*
X251300D02*
D03*
X246300D02*
D03*
X236300D02*
D03*
X241300D02*
D03*
X180500Y124000D02*
D03*
X175500D02*
D03*
X170500D02*
D03*
X165500D02*
D03*
X155500D02*
D03*
X160500D02*
D03*
X125100Y351700D02*
D03*
Y356700D02*
D03*
Y346700D02*
D03*
Y341700D02*
D03*
Y336700D02*
D03*
Y331700D02*
D03*
D100*
X147744Y146744D02*
D03*
X269791D02*
D03*
Y268791D02*
D03*
X147744D02*
D03*
X327744Y146744D02*
D03*
X449791D02*
D03*
Y268791D02*
D03*
X327744D02*
D03*
X147744Y326744D02*
D03*
X269791D02*
D03*
Y448791D02*
D03*
X147744D02*
D03*
X327744Y326744D02*
D03*
X449791D02*
D03*
Y448791D02*
D03*
X327744D02*
D03*
D101*
X133008Y181964D02*
D03*
Y209524D02*
D03*
X313008Y181964D02*
D03*
Y209524D02*
D03*
X133008Y361964D02*
D03*
Y389524D02*
D03*
X313008Y361964D02*
D03*
Y389524D02*
D03*
D102*
X144031Y185901D02*
D03*
Y205587D02*
D03*
X324031Y185901D02*
D03*
Y205587D02*
D03*
X144031Y365901D02*
D03*
Y385587D02*
D03*
X324031Y365901D02*
D03*
Y385587D02*
D03*
D103*
X132044Y222344D02*
D03*
Y232344D02*
D03*
Y242344D02*
D03*
X235244Y252744D02*
D03*
X225244D02*
D03*
X215244D02*
D03*
X283500Y171200D02*
D03*
Y181200D02*
D03*
Y191200D02*
D03*
Y201200D02*
D03*
Y211200D02*
D03*
Y221200D02*
D03*
Y231200D02*
D03*
Y241200D02*
D03*
Y251200D02*
D03*
X312044Y222344D02*
D03*
Y232344D02*
D03*
Y242344D02*
D03*
X415244Y252744D02*
D03*
X405244D02*
D03*
X395244D02*
D03*
X463500Y171200D02*
D03*
Y181200D02*
D03*
Y191200D02*
D03*
Y201200D02*
D03*
Y211200D02*
D03*
Y221200D02*
D03*
Y231200D02*
D03*
Y241200D02*
D03*
Y251200D02*
D03*
X132044Y402344D02*
D03*
Y412344D02*
D03*
Y422344D02*
D03*
X235244Y432744D02*
D03*
X225244D02*
D03*
X215244D02*
D03*
X283500Y351200D02*
D03*
Y361200D02*
D03*
Y371200D02*
D03*
Y381200D02*
D03*
Y391200D02*
D03*
Y401200D02*
D03*
Y411200D02*
D03*
Y421200D02*
D03*
Y431200D02*
D03*
X312044Y402344D02*
D03*
Y412344D02*
D03*
Y422344D02*
D03*
X415244Y432744D02*
D03*
X405244D02*
D03*
X395244D02*
D03*
X463500Y351200D02*
D03*
Y361200D02*
D03*
Y371200D02*
D03*
Y381200D02*
D03*
Y391200D02*
D03*
Y401200D02*
D03*
Y411200D02*
D03*
Y421200D02*
D03*
Y431200D02*
D03*
D104*
X132044Y252344D02*
D03*
X312044D02*
D03*
X132044Y432344D02*
D03*
X312044D02*
D03*
D105*
X141744Y166744D02*
D03*
Y171744D02*
D03*
X146744Y166744D02*
D03*
Y171744D02*
D03*
X151744Y166744D02*
D03*
Y171744D02*
D03*
X156744Y166744D02*
D03*
Y171744D02*
D03*
X161744Y166744D02*
D03*
X321744D02*
D03*
Y171744D02*
D03*
X326744Y166744D02*
D03*
Y171744D02*
D03*
X331744Y166744D02*
D03*
Y171744D02*
D03*
X336744Y166744D02*
D03*
Y171744D02*
D03*
X341744Y166744D02*
D03*
X141744Y346744D02*
D03*
Y351744D02*
D03*
X146744Y346744D02*
D03*
Y351744D02*
D03*
X151744Y346744D02*
D03*
Y351744D02*
D03*
X156744Y346744D02*
D03*
Y351744D02*
D03*
X161744Y346744D02*
D03*
X321744D02*
D03*
Y351744D02*
D03*
X326744Y346744D02*
D03*
Y351744D02*
D03*
X331744Y346744D02*
D03*
Y351744D02*
D03*
X336744Y346744D02*
D03*
Y351744D02*
D03*
X341744Y346744D02*
D03*
D106*
X161744Y171744D02*
D03*
X341744D02*
D03*
X161744Y351744D02*
D03*
X341744D02*
D03*
D107*
X205244Y252744D02*
D03*
X283500Y161200D02*
D03*
X385244Y252744D02*
D03*
X463500Y161200D02*
D03*
X205244Y432744D02*
D03*
X283500Y341200D02*
D03*
X385244Y432744D02*
D03*
X463500Y341200D02*
D03*
D108*
X235744Y276244D02*
D03*
X215744D02*
D03*
X415744D02*
D03*
X395744D02*
D03*
X235744Y456244D02*
D03*
X215744D02*
D03*
X415744D02*
D03*
X395744D02*
D03*
D109*
X181744Y249744D02*
D03*
X361744D02*
D03*
X181744Y429744D02*
D03*
X361744D02*
D03*
D110*
X258744Y226783D02*
D03*
Y231705D02*
D03*
X253744Y227283D02*
D03*
Y232205D02*
D03*
X238744Y230205D02*
D03*
Y225283D02*
D03*
X244744Y229705D02*
D03*
Y224783D02*
D03*
X262244Y249205D02*
D03*
Y244283D02*
D03*
X239744Y194205D02*
D03*
Y189283D02*
D03*
X438744Y226783D02*
D03*
Y231705D02*
D03*
X433744Y227283D02*
D03*
Y232205D02*
D03*
X418744Y230205D02*
D03*
Y225283D02*
D03*
X424744Y229705D02*
D03*
Y224783D02*
D03*
X442244Y249205D02*
D03*
Y244283D02*
D03*
X419744Y194205D02*
D03*
Y189283D02*
D03*
X258744Y406783D02*
D03*
Y411705D02*
D03*
X253744Y407283D02*
D03*
Y412205D02*
D03*
X238744Y410205D02*
D03*
Y405283D02*
D03*
X244744Y409705D02*
D03*
Y404783D02*
D03*
X262244Y429205D02*
D03*
Y424283D02*
D03*
X239744Y374205D02*
D03*
Y369283D02*
D03*
X438744Y406783D02*
D03*
Y411705D02*
D03*
X433744Y407283D02*
D03*
Y412205D02*
D03*
X418744Y410205D02*
D03*
Y405283D02*
D03*
X424744Y409705D02*
D03*
Y404783D02*
D03*
X442244Y429205D02*
D03*
Y424283D02*
D03*
X419744Y374205D02*
D03*
Y369283D02*
D03*
D111*
X169587Y157244D02*
D03*
X174901D02*
D03*
X224902Y237244D02*
D03*
X219587D02*
D03*
X224902Y243244D02*
D03*
X219587D02*
D03*
X164902Y181244D02*
D03*
X159587D02*
D03*
X170087Y197244D02*
D03*
X175401D02*
D03*
X159587D02*
D03*
X164901D02*
D03*
X180587Y152744D02*
D03*
X185901D02*
D03*
X349587Y157244D02*
D03*
X354901D02*
D03*
X404902Y237244D02*
D03*
X399587D02*
D03*
X404902Y243244D02*
D03*
X399587D02*
D03*
X344902Y181244D02*
D03*
X339587D02*
D03*
X350087Y197244D02*
D03*
X355401D02*
D03*
X339587D02*
D03*
X344901D02*
D03*
X360587Y152744D02*
D03*
X365901D02*
D03*
X169587Y337244D02*
D03*
X174901D02*
D03*
X224902Y417244D02*
D03*
X219587D02*
D03*
X224902Y423244D02*
D03*
X219587D02*
D03*
X164902Y361244D02*
D03*
X159587D02*
D03*
X170087Y377244D02*
D03*
X175401D02*
D03*
X159587D02*
D03*
X164901D02*
D03*
X180587Y332744D02*
D03*
X185901D02*
D03*
X349587Y337244D02*
D03*
X354901D02*
D03*
X404902Y417244D02*
D03*
X399587D02*
D03*
X404902Y423244D02*
D03*
X399587D02*
D03*
X344902Y361244D02*
D03*
X339587D02*
D03*
X350087Y377244D02*
D03*
X355401D02*
D03*
X339587D02*
D03*
X344901D02*
D03*
X360587Y332744D02*
D03*
X365901D02*
D03*
D112*
X189984Y199701D02*
D03*
X369984D02*
D03*
X189984Y379701D02*
D03*
X369984D02*
D03*
D113*
X182504Y199701D02*
D03*
X186244Y206787D02*
D03*
X362504Y199701D02*
D03*
X366244Y206787D02*
D03*
X182504Y379701D02*
D03*
X186244Y386787D02*
D03*
X362504Y379701D02*
D03*
X366244Y386787D02*
D03*
D114*
X216421Y196177D02*
D03*
X396421D02*
D03*
X216421Y376177D02*
D03*
X396421D02*
D03*
D115*
X213862Y196177D02*
D03*
X211303D02*
D03*
X208744D02*
D03*
X206185D02*
D03*
X203626D02*
D03*
X201067D02*
D03*
X216421Y219406D02*
D03*
X213862D02*
D03*
X211303D02*
D03*
X208744D02*
D03*
X206185D02*
D03*
X203626D02*
D03*
X201067D02*
D03*
X393862Y196177D02*
D03*
X391303D02*
D03*
X388744D02*
D03*
X386185D02*
D03*
X383626D02*
D03*
X381067D02*
D03*
X396421Y219406D02*
D03*
X393862D02*
D03*
X391303D02*
D03*
X388744D02*
D03*
X386185D02*
D03*
X383626D02*
D03*
X381067D02*
D03*
X213862Y376177D02*
D03*
X211303D02*
D03*
X208744D02*
D03*
X206185D02*
D03*
X203626D02*
D03*
X201067D02*
D03*
X216421Y399406D02*
D03*
X213862D02*
D03*
X211303D02*
D03*
X208744D02*
D03*
X206185D02*
D03*
X203626D02*
D03*
X201067D02*
D03*
X393862Y376177D02*
D03*
X391303D02*
D03*
X388744D02*
D03*
X386185D02*
D03*
X383626D02*
D03*
X381067D02*
D03*
X396421Y399406D02*
D03*
X393862D02*
D03*
X391303D02*
D03*
X388744D02*
D03*
X386185D02*
D03*
X383626D02*
D03*
X381067D02*
D03*
M02*
