M48
;Layer_Color=9474304
;FILE_FORMAT=2:5
INCH,LZ
;TYPE=PLATED
T3F00S00C0.01968
T4F00S00C0.02165
;TYPE=NON_PLATED
%
G90
G05
T03
G00X0311728Y0181964
M15
G01X0314287
M16
G00X0311728Y0209524
M15
G01X0314287
M16
G00X0131728Y0209524
M15
G01X0134287
M16
G00X0131728Y0181964
M15
G01X0134287
M16
G00X0131728Y0361964
M15
G01X0134287
M16
G00X0131728Y0389524
M15
G01X0134287
M16
G00X0311728Y0389524
M15
G01X0314287
M16
G00X0311728Y0361964
M15
G01X0314287
M16
T04
G00X0324031Y0186492
M15
G01Y0185311
M16
G00X0324031Y0206177
M15
G01Y0204996
M16
G00X0144031Y0206177
M15
G01Y0204996
M16
G00X0144031Y0186492
M15
G01Y0185311
M16
G00X0144031Y0366492
M15
G01Y0365311
M16
G00X0144031Y0386177
M15
G01Y0384996
M16
G00X0324031Y0386177
M15
G01Y0384996
M16
G00X0324031Y0366492
M15
G01Y0365311
M16
M17
M30
