G04 Layer_Color=8388736*
%FSLAX25Y25*%
%MOIN*%
G70*
G01*
G75*
%ADD68C,0.00500*%
D68*
X134044Y222344D02*
G03*
X134044Y222344I-2000J0D01*
G01*
Y232344D02*
G03*
X134044Y232344I-2000J0D01*
G01*
Y242344D02*
G03*
X134044Y242344I-2000J0D01*
G01*
Y252344D02*
G03*
X134044Y252344I-2000J0D01*
G01*
X237244Y252744D02*
G03*
X237244Y252744I-2000J0D01*
G01*
X227244D02*
G03*
X227244Y252744I-2000J0D01*
G01*
X217244D02*
G03*
X217244Y252744I-2000J0D01*
G01*
X207244D02*
G03*
X207244Y252744I-2000J0D01*
G01*
X314044Y222344D02*
G03*
X314044Y222344I-2000J0D01*
G01*
Y232344D02*
G03*
X314044Y232344I-2000J0D01*
G01*
Y242344D02*
G03*
X314044Y242344I-2000J0D01*
G01*
Y252344D02*
G03*
X314044Y252344I-2000J0D01*
G01*
X417244Y252744D02*
G03*
X417244Y252744I-2000J0D01*
G01*
X407244D02*
G03*
X407244Y252744I-2000J0D01*
G01*
X397244D02*
G03*
X397244Y252744I-2000J0D01*
G01*
X387244D02*
G03*
X387244Y252744I-2000J0D01*
G01*
X134044Y402344D02*
G03*
X134044Y402344I-2000J0D01*
G01*
Y412344D02*
G03*
X134044Y412344I-2000J0D01*
G01*
Y422344D02*
G03*
X134044Y422344I-2000J0D01*
G01*
Y432344D02*
G03*
X134044Y432344I-2000J0D01*
G01*
X237244Y432744D02*
G03*
X237244Y432744I-2000J0D01*
G01*
X227244D02*
G03*
X227244Y432744I-2000J0D01*
G01*
X217244D02*
G03*
X217244Y432744I-2000J0D01*
G01*
X207244D02*
G03*
X207244Y432744I-2000J0D01*
G01*
X314044Y402344D02*
G03*
X314044Y402344I-2000J0D01*
G01*
Y412344D02*
G03*
X314044Y412344I-2000J0D01*
G01*
Y422344D02*
G03*
X314044Y422344I-2000J0D01*
G01*
Y432344D02*
G03*
X314044Y432344I-2000J0D01*
G01*
X417244Y432744D02*
G03*
X417244Y432744I-2000J0D01*
G01*
X407244D02*
G03*
X407244Y432744I-2000J0D01*
G01*
X397244D02*
G03*
X397244Y432744I-2000J0D01*
G01*
X387244D02*
G03*
X387244Y432744I-2000J0D01*
G01*
M02*
