G04 Layer_Physical_Order=1*
G04 Layer_Color=255*
%FSLAX25Y25*%
%MOIN*%
G70*
G01*
G75*
%ADD10R,0.03543X0.03150*%
G04:AMPARAMS|DCode=11|XSize=31.5mil|YSize=35.43mil|CornerRadius=7.87mil|HoleSize=0mil|Usage=FLASHONLY|Rotation=270.000|XOffset=0mil|YOffset=0mil|HoleType=Round|Shape=RoundedRectangle|*
%AMROUNDEDRECTD11*
21,1,0.03150,0.01969,0,0,270.0*
21,1,0.01575,0.03543,0,0,270.0*
1,1,0.01575,-0.00984,-0.00787*
1,1,0.01575,-0.00984,0.00787*
1,1,0.01575,0.00984,0.00787*
1,1,0.01575,0.00984,-0.00787*
%
%ADD11ROUNDEDRECTD11*%
%ADD12R,0.07087X0.03937*%
%ADD13R,0.03347X0.03150*%
%ADD14R,0.06890X0.01575*%
%ADD15R,0.09449X0.04724*%
%ADD16R,0.12205X0.04724*%
%ADD17R,0.04724X0.07087*%
G04:AMPARAMS|DCode=18|XSize=31.5mil|YSize=31.5mil|CornerRadius=7.87mil|HoleSize=0mil|Usage=FLASHONLY|Rotation=90.000|XOffset=0mil|YOffset=0mil|HoleType=Round|Shape=RoundedRectangle|*
%AMROUNDEDRECTD18*
21,1,0.03150,0.01575,0,0,90.0*
21,1,0.01575,0.03150,0,0,90.0*
1,1,0.01575,0.00787,0.00787*
1,1,0.01575,0.00787,-0.00787*
1,1,0.01575,-0.00787,-0.00787*
1,1,0.01575,-0.00787,0.00787*
%
%ADD18ROUNDEDRECTD18*%
%ADD19R,0.03150X0.03150*%
G04:AMPARAMS|DCode=20|XSize=27.56mil|YSize=51.18mil|CornerRadius=6.89mil|HoleSize=0mil|Usage=FLASHONLY|Rotation=90.000|XOffset=0mil|YOffset=0mil|HoleType=Round|Shape=RoundedRectangle|*
%AMROUNDEDRECTD20*
21,1,0.02756,0.03740,0,0,90.0*
21,1,0.01378,0.05118,0,0,90.0*
1,1,0.01378,0.01870,0.00689*
1,1,0.01378,0.01870,-0.00689*
1,1,0.01378,-0.01870,-0.00689*
1,1,0.01378,-0.01870,0.00689*
%
%ADD20ROUNDEDRECTD20*%
%ADD21R,0.05118X0.02756*%
G04:AMPARAMS|DCode=22|XSize=23.62mil|YSize=35.43mil|CornerRadius=5.91mil|HoleSize=0mil|Usage=FLASHONLY|Rotation=270.000|XOffset=0mil|YOffset=0mil|HoleType=Round|Shape=RoundedRectangle|*
%AMROUNDEDRECTD22*
21,1,0.02362,0.02362,0,0,270.0*
21,1,0.01181,0.03543,0,0,270.0*
1,1,0.01181,-0.01181,-0.00591*
1,1,0.01181,-0.01181,0.00591*
1,1,0.01181,0.01181,0.00591*
1,1,0.01181,0.01181,-0.00591*
%
%ADD22ROUNDEDRECTD22*%
%ADD23R,0.03543X0.02362*%
%ADD24R,0.03543X0.02953*%
G04:AMPARAMS|DCode=25|XSize=78.74mil|YSize=39.37mil|CornerRadius=9.84mil|HoleSize=0mil|Usage=FLASHONLY|Rotation=0.000|XOffset=0mil|YOffset=0mil|HoleType=Round|Shape=RoundedRectangle|*
%AMROUNDEDRECTD25*
21,1,0.07874,0.01969,0,0,0.0*
21,1,0.05906,0.03937,0,0,0.0*
1,1,0.01969,0.02953,-0.00984*
1,1,0.01969,-0.02953,-0.00984*
1,1,0.01969,-0.02953,0.00984*
1,1,0.01969,0.02953,0.00984*
%
%ADD25ROUNDEDRECTD25*%
%ADD26P,0.28674X4X180.0*%
G04:AMPARAMS|DCode=27|XSize=9.84mil|YSize=33.47mil|CornerRadius=0mil|HoleSize=0mil|Usage=FLASHONLY|Rotation=135.000|XOffset=0mil|YOffset=0mil|HoleType=Round|Shape=Round|*
%AMOVALD27*
21,1,0.02362,0.00984,0.00000,0.00000,225.0*
1,1,0.00984,0.00835,0.00835*
1,1,0.00984,-0.00835,-0.00835*
%
%ADD27OVALD27*%

G04:AMPARAMS|DCode=28|XSize=9.84mil|YSize=35.43mil|CornerRadius=0mil|HoleSize=0mil|Usage=FLASHONLY|Rotation=135.000|XOffset=0mil|YOffset=0mil|HoleType=Round|Shape=Round|*
%AMOVALD28*
21,1,0.02559,0.00984,0.00000,0.00000,225.0*
1,1,0.00984,0.00905,0.00905*
1,1,0.00984,-0.00905,-0.00905*
%
%ADD28OVALD28*%

G04:AMPARAMS|DCode=29|XSize=9.84mil|YSize=33.47mil|CornerRadius=0mil|HoleSize=0mil|Usage=FLASHONLY|Rotation=225.000|XOffset=0mil|YOffset=0mil|HoleType=Round|Shape=Round|*
%AMOVALD29*
21,1,0.02362,0.00984,0.00000,0.00000,315.0*
1,1,0.00984,-0.00835,0.00835*
1,1,0.00984,0.00835,-0.00835*
%
%ADD29OVALD29*%

G04:AMPARAMS|DCode=30|XSize=9.84mil|YSize=35.43mil|CornerRadius=0mil|HoleSize=0mil|Usage=FLASHONLY|Rotation=225.000|XOffset=0mil|YOffset=0mil|HoleType=Round|Shape=Round|*
%AMOVALD30*
21,1,0.02559,0.00984,0.00000,0.00000,315.0*
1,1,0.00984,-0.00905,0.00905*
1,1,0.00984,0.00905,-0.00905*
%
%ADD30OVALD30*%

G04:AMPARAMS|DCode=31|XSize=9.84mil|YSize=33.47mil|CornerRadius=2.46mil|HoleSize=0mil|Usage=FLASHONLY|Rotation=225.000|XOffset=0mil|YOffset=0mil|HoleType=Round|Shape=RoundedRectangle|*
%AMROUNDEDRECTD31*
21,1,0.00984,0.02854,0,0,225.0*
21,1,0.00492,0.03347,0,0,225.0*
1,1,0.00492,-0.01183,0.00835*
1,1,0.00492,-0.00835,0.01183*
1,1,0.00492,0.01183,-0.00835*
1,1,0.00492,0.00835,-0.01183*
%
%ADD31ROUNDEDRECTD31*%
%ADD32R,0.03937X0.06693*%
%ADD33R,0.11811X0.11811*%
%ADD34O,0.05512X0.01772*%
%ADD35R,0.05512X0.01772*%
%ADD36R,0.03740X0.02756*%
%ADD37R,0.12500X0.04500*%
%ADD38C,0.00600*%
%ADD39C,0.03000*%
%ADD40C,0.02000*%
%ADD41C,0.04000*%
%ADD42C,0.01600*%
%ADD43C,0.00800*%
%ADD44C,0.02500*%
%ADD45C,0.01000*%
%ADD46C,0.05000*%
%ADD47C,0.01500*%
%ADD48C,0.06000*%
%ADD49C,0.01000*%
%ADD50O,0.04724X0.09449*%
%ADD51O,0.06102X0.03543*%
%ADD52O,0.03740X0.04921*%
%ADD53C,0.07000*%
%ADD54R,0.07000X0.07000*%
%ADD55C,0.04000*%
%ADD56R,0.04000X0.04000*%
%ADD57R,0.07000X0.07000*%
%ADD58C,0.07874*%
%ADD59C,0.02400*%
%ADD60C,0.01969*%
G36*
X345359Y467825D02*
X344887Y467209D01*
X344705Y466770D01*
X344600D01*
X344093Y466669D01*
X343663Y466381D01*
X343375Y465951D01*
X343274Y465444D01*
Y456994D01*
X341394D01*
Y450494D01*
X343109D01*
Y442544D01*
X343247Y441500D01*
X343650Y440527D01*
X344291Y439691D01*
X345127Y439050D01*
X346100Y438647D01*
X347144Y438510D01*
X347315Y438532D01*
X347691Y438202D01*
Y437390D01*
X347124Y437277D01*
X346550Y436894D01*
X346376Y436838D01*
X345986D01*
X345846Y437046D01*
X345020Y437599D01*
X344044Y437793D01*
X313644D01*
X312669Y437599D01*
X311842Y437046D01*
X311706Y436844D01*
X307544D01*
Y427844D01*
X316544D01*
Y432695D01*
X333588D01*
Y429496D01*
X333407Y429227D01*
X333272Y428544D01*
X333407Y427861D01*
X333588Y427592D01*
Y424238D01*
X316130D01*
X315975Y424614D01*
X315253Y425554D01*
X314313Y426275D01*
X313219Y426728D01*
X312044Y426883D01*
X310869Y426728D01*
X309775Y426275D01*
X308835Y425554D01*
X308113Y424614D01*
X307660Y423519D01*
X307529Y422528D01*
X307029Y422561D01*
Y459566D01*
X315788Y468325D01*
X345190D01*
X345359Y467825D01*
D02*
G37*
G36*
X165359D02*
X164887Y467209D01*
X164705Y466770D01*
X164600D01*
X164093Y466669D01*
X163663Y466381D01*
X163375Y465951D01*
X163275Y465444D01*
Y456994D01*
X161394D01*
Y450494D01*
X163110D01*
Y442544D01*
X163247Y441500D01*
X163650Y440527D01*
X164291Y439691D01*
X165127Y439050D01*
X166100Y438647D01*
X167144Y438510D01*
X167315Y438532D01*
X167691Y438202D01*
Y437390D01*
X167124Y437277D01*
X166550Y436894D01*
X166376Y436838D01*
X165986D01*
X165846Y437046D01*
X165020Y437599D01*
X164044Y437793D01*
X133644D01*
X132669Y437599D01*
X131842Y437046D01*
X131706Y436844D01*
X127544D01*
Y427844D01*
X136544D01*
Y432695D01*
X153587D01*
Y429496D01*
X153408Y429227D01*
X153272Y428544D01*
X153408Y427861D01*
X153587Y427592D01*
Y424238D01*
X136130D01*
X135975Y424614D01*
X135253Y425554D01*
X134313Y426275D01*
X133219Y426728D01*
X132044Y426883D01*
X130869Y426728D01*
X129775Y426275D01*
X128835Y425554D01*
X128113Y424614D01*
X127660Y423519D01*
X127529Y422528D01*
X127029Y422561D01*
Y459566D01*
X135788Y468325D01*
X165190D01*
X165359Y467825D01*
D02*
G37*
G36*
X410857Y455538D02*
X410934Y454955D01*
X411432Y453754D01*
X412223Y452723D01*
X413254Y451931D01*
X414455Y451434D01*
X415557Y451289D01*
X415931Y451134D01*
X416844Y451014D01*
X417758Y451134D01*
X418609Y451487D01*
X419340Y452048D01*
X419901Y452779D01*
X420254Y453631D01*
X420309Y454050D01*
X420375Y454097D01*
X420870Y453834D01*
X420544Y437944D01*
Y424644D01*
X407719D01*
X406569Y425793D01*
Y428422D01*
X407513Y428813D01*
X408453Y429535D01*
X409175Y430475D01*
X409628Y431569D01*
X409783Y432744D01*
X409628Y433919D01*
X409175Y435013D01*
X408453Y435953D01*
X407513Y436675D01*
X406419Y437128D01*
X405244Y437283D01*
X404069Y437128D01*
X402975Y436675D01*
X402035Y435953D01*
X401313Y435013D01*
X400860Y433919D01*
X400705Y432744D01*
X400860Y431569D01*
X401313Y430475D01*
X402035Y429535D01*
X402975Y428813D01*
X403919Y428422D01*
Y425244D01*
X403938Y425144D01*
X403528Y424644D01*
X398688D01*
X397439Y425893D01*
Y428783D01*
X397513Y428813D01*
X398453Y429535D01*
X399175Y430475D01*
X399628Y431569D01*
X399783Y432744D01*
X399628Y433919D01*
X399175Y435013D01*
X398453Y435953D01*
X397513Y436675D01*
X396419Y437128D01*
X395244Y437283D01*
X394069Y437128D01*
X392975Y436675D01*
X392035Y435953D01*
X391313Y435013D01*
X390860Y433919D01*
X390705Y432744D01*
X390860Y431569D01*
X391313Y430475D01*
X392035Y429535D01*
X392975Y428813D01*
X394069Y428360D01*
X394789Y428265D01*
Y425397D01*
X394386Y425316D01*
X393658Y424830D01*
X393534Y424644D01*
X386671D01*
X383834Y427482D01*
X384025Y427944D01*
X388544D01*
X389244Y427244D01*
X389744Y427744D01*
Y437244D01*
X381244D01*
X381497Y436991D01*
Y431073D01*
X380997Y430866D01*
X377984Y433879D01*
X377554Y434166D01*
X377046Y434267D01*
X376211D01*
X376188Y434301D01*
X375564Y434718D01*
X374828Y434865D01*
X371088D01*
X370352Y434718D01*
X369728Y434301D01*
X369312Y433678D01*
X369165Y432942D01*
X369312Y432206D01*
X369675Y431662D01*
X369312Y431118D01*
X369165Y430383D01*
X369312Y429647D01*
X369675Y429103D01*
X369312Y428559D01*
X369165Y427824D01*
X369312Y427088D01*
X369675Y426544D01*
X369312Y426000D01*
X369165Y425265D01*
X369312Y424529D01*
X369675Y423985D01*
X369312Y423441D01*
X369165Y422706D01*
X369312Y421970D01*
X369675Y421426D01*
X369312Y420882D01*
X369165Y420146D01*
X369312Y419411D01*
X369728Y418787D01*
X370352Y418370D01*
X371088Y418224D01*
X374828D01*
X375564Y418370D01*
X375862Y418569D01*
X376181Y418181D01*
X374444Y416444D01*
Y413788D01*
X371407Y410751D01*
X371119Y410321D01*
X371019Y409814D01*
Y408383D01*
X370632Y408066D01*
X370244Y408143D01*
X369386Y407972D01*
X368658Y407486D01*
X368172Y406758D01*
X368001Y405900D01*
X368172Y405042D01*
X368410Y404685D01*
X365363Y401637D01*
X365075Y401207D01*
X364974Y400700D01*
Y389144D01*
X359779D01*
X359708Y389503D01*
X359269Y390159D01*
X358613Y390597D01*
X357839Y390751D01*
X351933D01*
X351159Y390597D01*
X350502Y390159D01*
X350064Y389503D01*
X349993Y389144D01*
X343637D01*
X343566Y389503D01*
X343127Y390159D01*
X342471Y390597D01*
X341697Y390751D01*
X335791D01*
X335017Y390597D01*
X334361Y390159D01*
X333922Y389503D01*
X333851Y389144D01*
X331954D01*
X331830Y389330D01*
X331102Y389816D01*
X330244Y389987D01*
X329386Y389816D01*
X328658Y389330D01*
X328534Y389144D01*
X308944D01*
X307405Y388948D01*
X307029Y389279D01*
Y402127D01*
X307529Y402160D01*
X307660Y401169D01*
X308113Y400075D01*
X308835Y399135D01*
X309775Y398413D01*
X310869Y397960D01*
X312044Y397805D01*
X313219Y397960D01*
X314313Y398413D01*
X315253Y399135D01*
X315956Y400050D01*
X339344D01*
X340222Y400224D01*
X340966Y400722D01*
X344966Y404722D01*
X345463Y405466D01*
X345638Y406344D01*
Y411424D01*
X351110D01*
Y407669D01*
X356457D01*
Y412819D01*
X355109D01*
Y412961D01*
X355008Y413468D01*
X354764Y413833D01*
Y416644D01*
X354686Y417034D01*
X354465Y417365D01*
X353465Y418365D01*
X353279Y418489D01*
X353053Y418927D01*
X353377Y419411D01*
X353523Y420146D01*
X353377Y420882D01*
X353013Y421426D01*
X353377Y421970D01*
X353523Y422706D01*
X353377Y423441D01*
X353013Y423985D01*
X353377Y424529D01*
X353523Y425265D01*
X353377Y426000D01*
X353013Y426544D01*
X353377Y427088D01*
X353523Y427824D01*
X353377Y428559D01*
X353013Y429103D01*
X353377Y429647D01*
X353523Y430383D01*
X353377Y431118D01*
X353013Y431662D01*
X353377Y432206D01*
X353523Y432942D01*
X353377Y433678D01*
X353013Y434221D01*
X353377Y434765D01*
X353523Y435501D01*
X353377Y436237D01*
X352960Y436860D01*
X352336Y437277D01*
X351769Y437390D01*
Y439958D01*
X351614Y440739D01*
X351172Y441400D01*
X351037Y441490D01*
X351041Y441500D01*
X351179Y442544D01*
Y450494D01*
X355894D01*
Y456994D01*
X353822D01*
X353630Y457456D01*
X358488Y462314D01*
X404082D01*
X410857Y455538D01*
D02*
G37*
G36*
X230857D02*
X230934Y454955D01*
X231432Y453754D01*
X232223Y452723D01*
X233254Y451931D01*
X234455Y451434D01*
X235557Y451289D01*
X235931Y451134D01*
X236844Y451014D01*
X237758Y451134D01*
X238609Y451487D01*
X239340Y452048D01*
X239901Y452779D01*
X240254Y453631D01*
X240309Y454050D01*
X240375Y454097D01*
X240870Y453834D01*
X240544Y437944D01*
Y424644D01*
X227719D01*
X226570Y425793D01*
Y428422D01*
X227513Y428813D01*
X228453Y429535D01*
X229175Y430475D01*
X229628Y431569D01*
X229783Y432744D01*
X229628Y433919D01*
X229175Y435013D01*
X228453Y435953D01*
X227513Y436675D01*
X226419Y437128D01*
X225244Y437283D01*
X224069Y437128D01*
X222975Y436675D01*
X222035Y435953D01*
X221313Y435013D01*
X220860Y433919D01*
X220705Y432744D01*
X220860Y431569D01*
X221313Y430475D01*
X222035Y429535D01*
X222975Y428813D01*
X223919Y428422D01*
Y425244D01*
X223938Y425144D01*
X223528Y424644D01*
X218688D01*
X217439Y425893D01*
Y428783D01*
X217513Y428813D01*
X218453Y429535D01*
X219175Y430475D01*
X219628Y431569D01*
X219783Y432744D01*
X219628Y433919D01*
X219175Y435013D01*
X218453Y435953D01*
X217513Y436675D01*
X216419Y437128D01*
X215244Y437283D01*
X214069Y437128D01*
X212975Y436675D01*
X212035Y435953D01*
X211313Y435013D01*
X210860Y433919D01*
X210705Y432744D01*
X210860Y431569D01*
X211313Y430475D01*
X212035Y429535D01*
X212975Y428813D01*
X214069Y428360D01*
X214789Y428265D01*
Y425397D01*
X214386Y425316D01*
X213658Y424830D01*
X213534Y424644D01*
X206672D01*
X203834Y427482D01*
X204025Y427944D01*
X208544D01*
X209244Y427244D01*
X209744Y427744D01*
Y437244D01*
X201244D01*
X201497Y436991D01*
Y431073D01*
X200997Y430866D01*
X197984Y433879D01*
X197554Y434166D01*
X197046Y434267D01*
X196211D01*
X196188Y434301D01*
X195564Y434718D01*
X194828Y434865D01*
X191088D01*
X190352Y434718D01*
X189728Y434301D01*
X189312Y433678D01*
X189165Y432942D01*
X189312Y432206D01*
X189675Y431662D01*
X189312Y431118D01*
X189165Y430383D01*
X189312Y429647D01*
X189675Y429103D01*
X189312Y428559D01*
X189165Y427824D01*
X189312Y427088D01*
X189675Y426544D01*
X189312Y426000D01*
X189165Y425265D01*
X189312Y424529D01*
X189675Y423985D01*
X189312Y423441D01*
X189165Y422706D01*
X189312Y421970D01*
X189675Y421426D01*
X189312Y420882D01*
X189165Y420146D01*
X189312Y419411D01*
X189728Y418787D01*
X190352Y418370D01*
X191088Y418224D01*
X194828D01*
X195564Y418370D01*
X195862Y418569D01*
X196181Y418181D01*
X194444Y416444D01*
Y413788D01*
X191407Y410751D01*
X191120Y410321D01*
X191019Y409814D01*
Y408383D01*
X190632Y408066D01*
X190244Y408143D01*
X189386Y407972D01*
X188658Y407486D01*
X188172Y406758D01*
X188001Y405900D01*
X188172Y405042D01*
X188410Y404685D01*
X185363Y401637D01*
X185075Y401207D01*
X184975Y400700D01*
Y389144D01*
X179779D01*
X179708Y389503D01*
X179269Y390159D01*
X178613Y390597D01*
X177839Y390751D01*
X171933D01*
X171159Y390597D01*
X170502Y390159D01*
X170064Y389503D01*
X169993Y389144D01*
X163637D01*
X163566Y389503D01*
X163127Y390159D01*
X162471Y390597D01*
X161697Y390751D01*
X155791D01*
X155017Y390597D01*
X154361Y390159D01*
X153922Y389503D01*
X153851Y389144D01*
X151954D01*
X151830Y389330D01*
X151102Y389816D01*
X150244Y389987D01*
X149386Y389816D01*
X148658Y389330D01*
X148534Y389144D01*
X128944D01*
X127405Y388948D01*
X127029Y389279D01*
Y402127D01*
X127529Y402160D01*
X127660Y401169D01*
X128113Y400075D01*
X128835Y399135D01*
X129775Y398413D01*
X130869Y397960D01*
X132044Y397805D01*
X133219Y397960D01*
X134313Y398413D01*
X135253Y399135D01*
X135956Y400050D01*
X159344D01*
X160222Y400224D01*
X160966Y400722D01*
X164966Y404722D01*
X165463Y405466D01*
X165638Y406344D01*
Y411424D01*
X171110D01*
Y407669D01*
X176457D01*
Y412819D01*
X175109D01*
Y412961D01*
X175008Y413468D01*
X174764Y413833D01*
Y416644D01*
X174686Y417034D01*
X174465Y417365D01*
X173465Y418365D01*
X173279Y418489D01*
X173053Y418927D01*
X173377Y419411D01*
X173523Y420146D01*
X173377Y420882D01*
X173013Y421426D01*
X173377Y421970D01*
X173523Y422706D01*
X173377Y423441D01*
X173013Y423985D01*
X173377Y424529D01*
X173523Y425265D01*
X173377Y426000D01*
X173013Y426544D01*
X173377Y427088D01*
X173523Y427824D01*
X173377Y428559D01*
X173013Y429103D01*
X173377Y429647D01*
X173523Y430383D01*
X173377Y431118D01*
X173013Y431662D01*
X173377Y432206D01*
X173523Y432942D01*
X173377Y433678D01*
X173013Y434221D01*
X173377Y434765D01*
X173523Y435501D01*
X173377Y436237D01*
X172960Y436860D01*
X172336Y437277D01*
X171769Y437390D01*
Y439958D01*
X171614Y440739D01*
X171172Y441400D01*
X171037Y441490D01*
X171041Y441500D01*
X171178Y442544D01*
Y450494D01*
X175894D01*
Y456994D01*
X173822D01*
X173630Y457456D01*
X178488Y462314D01*
X224082D01*
X230857Y455538D01*
D02*
G37*
G36*
X353244Y417144D02*
X353744Y416644D01*
Y412444D01*
X345638D01*
Y415244D01*
X346746Y416352D01*
X347244Y417096D01*
X347273Y417246D01*
X352644Y417644D01*
X352744D01*
X353244Y417144D01*
D02*
G37*
G36*
X173244D02*
X173744Y416644D01*
Y412444D01*
X165638D01*
Y415244D01*
X166746Y416352D01*
X167244Y417096D01*
X167273Y417246D01*
X172644Y417644D01*
X172744D01*
X173244Y417144D01*
D02*
G37*
G36*
X338859Y414982D02*
Y413642D01*
X338407Y413190D01*
X333687D01*
Y404638D01*
X315956D01*
X315253Y405553D01*
X314313Y406275D01*
X313219Y406728D01*
X312044Y406883D01*
X310869Y406728D01*
X309775Y406275D01*
X308835Y405553D01*
X308113Y404613D01*
X307660Y403519D01*
X307529Y402528D01*
X307029Y402561D01*
Y412127D01*
X307529Y412160D01*
X307660Y411169D01*
X308113Y410075D01*
X308835Y409135D01*
X309775Y408413D01*
X310869Y407960D01*
X312044Y407805D01*
X313219Y407960D01*
X314313Y408413D01*
X315253Y409135D01*
X315975Y410075D01*
X316428Y411169D01*
X316583Y412344D01*
X316428Y413519D01*
X316163Y414158D01*
X316700Y414695D01*
X336844D01*
X337820Y414889D01*
X338359Y415249D01*
X338859Y414982D01*
D02*
G37*
G36*
X158859D02*
Y413642D01*
X158407Y413190D01*
X153688D01*
Y404638D01*
X135956D01*
X135253Y405553D01*
X134313Y406275D01*
X133219Y406728D01*
X132044Y406883D01*
X130869Y406728D01*
X129775Y406275D01*
X128835Y405553D01*
X128113Y404613D01*
X127660Y403519D01*
X127529Y402528D01*
X127029Y402561D01*
Y412127D01*
X127529Y412160D01*
X127660Y411169D01*
X128113Y410075D01*
X128835Y409135D01*
X129775Y408413D01*
X130869Y407960D01*
X132044Y407805D01*
X133219Y407960D01*
X134313Y408413D01*
X135253Y409135D01*
X135975Y410075D01*
X136428Y411169D01*
X136583Y412344D01*
X136428Y413519D01*
X136163Y414158D01*
X136700Y414695D01*
X156844D01*
X157819Y414889D01*
X158359Y415249D01*
X158859Y414982D01*
D02*
G37*
G36*
X320488Y360390D02*
X318520D01*
Y361965D01*
X320488D01*
Y360390D01*
D02*
G37*
G36*
X140488D02*
X138520D01*
Y361965D01*
X140488D01*
Y360390D01*
D02*
G37*
G36*
X345359Y287825D02*
X344887Y287209D01*
X344705Y286770D01*
X344600D01*
X344093Y286669D01*
X343663Y286381D01*
X343375Y285951D01*
X343274Y285444D01*
Y276994D01*
X341394D01*
Y270494D01*
X343109D01*
Y262544D01*
X343247Y261500D01*
X343650Y260527D01*
X344291Y259691D01*
X345127Y259050D01*
X346100Y258647D01*
X347144Y258509D01*
X347315Y258532D01*
X347691Y258202D01*
Y257390D01*
X347124Y257277D01*
X346550Y256893D01*
X346376Y256838D01*
X345986D01*
X345846Y257046D01*
X345020Y257599D01*
X344044Y257793D01*
X313644D01*
X312669Y257599D01*
X311842Y257046D01*
X311706Y256844D01*
X307544D01*
Y247844D01*
X316544D01*
Y252695D01*
X333588D01*
Y249496D01*
X333407Y249227D01*
X333272Y248544D01*
X333407Y247861D01*
X333588Y247592D01*
Y244238D01*
X316130D01*
X315975Y244614D01*
X315253Y245554D01*
X314313Y246275D01*
X313219Y246728D01*
X312044Y246883D01*
X310869Y246728D01*
X309775Y246275D01*
X308835Y245554D01*
X308113Y244614D01*
X307660Y243519D01*
X307529Y242528D01*
X307029Y242561D01*
Y279567D01*
X315788Y288325D01*
X345190D01*
X345359Y287825D01*
D02*
G37*
G36*
X165359D02*
X164887Y287209D01*
X164705Y286770D01*
X164600D01*
X164093Y286669D01*
X163663Y286381D01*
X163375Y285951D01*
X163275Y285444D01*
Y276994D01*
X161394D01*
Y270494D01*
X163110D01*
Y262544D01*
X163247Y261500D01*
X163650Y260527D01*
X164291Y259691D01*
X165127Y259050D01*
X166100Y258647D01*
X167144Y258509D01*
X167315Y258532D01*
X167691Y258202D01*
Y257390D01*
X167124Y257277D01*
X166550Y256893D01*
X166376Y256838D01*
X165986D01*
X165846Y257046D01*
X165020Y257599D01*
X164044Y257793D01*
X133644D01*
X132669Y257599D01*
X131842Y257046D01*
X131706Y256844D01*
X127544D01*
Y247844D01*
X136544D01*
Y252695D01*
X153587D01*
Y249496D01*
X153408Y249227D01*
X153272Y248544D01*
X153408Y247861D01*
X153587Y247592D01*
Y244238D01*
X136130D01*
X135975Y244614D01*
X135253Y245554D01*
X134313Y246275D01*
X133219Y246728D01*
X132044Y246883D01*
X130869Y246728D01*
X129775Y246275D01*
X128835Y245554D01*
X128113Y244614D01*
X127660Y243519D01*
X127529Y242528D01*
X127029Y242561D01*
Y279567D01*
X135788Y288325D01*
X165190D01*
X165359Y287825D01*
D02*
G37*
G36*
X410857Y275538D02*
X410934Y274955D01*
X411432Y273754D01*
X412223Y272723D01*
X413254Y271932D01*
X414455Y271434D01*
X415557Y271289D01*
X415931Y271134D01*
X416844Y271014D01*
X417758Y271134D01*
X418609Y271487D01*
X419340Y272048D01*
X419901Y272779D01*
X420254Y273631D01*
X420309Y274050D01*
X420375Y274096D01*
X420870Y273834D01*
X420544Y257944D01*
Y244644D01*
X407719D01*
X406569Y245793D01*
Y248422D01*
X407513Y248813D01*
X408453Y249535D01*
X409175Y250475D01*
X409628Y251569D01*
X409783Y252744D01*
X409628Y253919D01*
X409175Y255013D01*
X408453Y255953D01*
X407513Y256675D01*
X406419Y257128D01*
X405244Y257283D01*
X404069Y257128D01*
X402975Y256675D01*
X402035Y255953D01*
X401313Y255013D01*
X400860Y253919D01*
X400705Y252744D01*
X400860Y251569D01*
X401313Y250475D01*
X402035Y249535D01*
X402975Y248813D01*
X403919Y248422D01*
Y245244D01*
X403938Y245144D01*
X403528Y244644D01*
X398688D01*
X397439Y245893D01*
Y248783D01*
X397513Y248813D01*
X398453Y249535D01*
X399175Y250475D01*
X399628Y251569D01*
X399783Y252744D01*
X399628Y253919D01*
X399175Y255013D01*
X398453Y255953D01*
X397513Y256675D01*
X396419Y257128D01*
X395244Y257283D01*
X394069Y257128D01*
X392975Y256675D01*
X392035Y255953D01*
X391313Y255013D01*
X390860Y253919D01*
X390705Y252744D01*
X390860Y251569D01*
X391313Y250475D01*
X392035Y249535D01*
X392975Y248813D01*
X394069Y248360D01*
X394789Y248265D01*
Y245397D01*
X394386Y245316D01*
X393658Y244830D01*
X393534Y244644D01*
X386671D01*
X383834Y247482D01*
X384025Y247944D01*
X388544D01*
X389244Y247244D01*
X389744Y247744D01*
Y257244D01*
X381244D01*
X381497Y256991D01*
Y251073D01*
X380997Y250866D01*
X377984Y253879D01*
X377554Y254166D01*
X377046Y254267D01*
X376211D01*
X376188Y254301D01*
X375564Y254718D01*
X374828Y254865D01*
X371088D01*
X370352Y254718D01*
X369728Y254301D01*
X369312Y253678D01*
X369165Y252942D01*
X369312Y252206D01*
X369675Y251662D01*
X369312Y251118D01*
X369165Y250383D01*
X369312Y249647D01*
X369675Y249103D01*
X369312Y248559D01*
X369165Y247824D01*
X369312Y247088D01*
X369675Y246544D01*
X369312Y246000D01*
X369165Y245265D01*
X369312Y244529D01*
X369675Y243985D01*
X369312Y243441D01*
X369165Y242706D01*
X369312Y241970D01*
X369675Y241426D01*
X369312Y240882D01*
X369165Y240146D01*
X369312Y239411D01*
X369728Y238787D01*
X370352Y238370D01*
X371088Y238224D01*
X374828D01*
X375564Y238370D01*
X375862Y238569D01*
X376181Y238181D01*
X374444Y236444D01*
Y233788D01*
X371407Y230751D01*
X371119Y230321D01*
X371019Y229814D01*
Y228383D01*
X370632Y228066D01*
X370244Y228143D01*
X369386Y227972D01*
X368658Y227486D01*
X368172Y226758D01*
X368001Y225900D01*
X368172Y225042D01*
X368410Y224685D01*
X365363Y221637D01*
X365075Y221207D01*
X364974Y220700D01*
Y209144D01*
X359779D01*
X359708Y209503D01*
X359269Y210159D01*
X358613Y210597D01*
X357839Y210751D01*
X351933D01*
X351159Y210597D01*
X350502Y210159D01*
X350064Y209503D01*
X349993Y209144D01*
X343637D01*
X343566Y209503D01*
X343127Y210159D01*
X342471Y210597D01*
X341697Y210751D01*
X335791D01*
X335017Y210597D01*
X334361Y210159D01*
X333922Y209503D01*
X333851Y209144D01*
X331954D01*
X331830Y209330D01*
X331102Y209816D01*
X330244Y209987D01*
X329386Y209816D01*
X328658Y209330D01*
X328534Y209144D01*
X308944D01*
X307405Y208948D01*
X307029Y209279D01*
Y222127D01*
X307529Y222160D01*
X307660Y221169D01*
X308113Y220075D01*
X308835Y219135D01*
X309775Y218413D01*
X310869Y217960D01*
X312044Y217805D01*
X313219Y217960D01*
X314313Y218413D01*
X315253Y219135D01*
X315956Y220050D01*
X339344D01*
X340222Y220224D01*
X340966Y220722D01*
X344966Y224722D01*
X345463Y225466D01*
X345638Y226344D01*
Y231424D01*
X351110D01*
Y227669D01*
X356457D01*
Y232819D01*
X355109D01*
Y232961D01*
X355008Y233468D01*
X354764Y233833D01*
Y236644D01*
X354686Y237034D01*
X354465Y237365D01*
X353465Y238365D01*
X353279Y238489D01*
X353053Y238927D01*
X353377Y239411D01*
X353523Y240146D01*
X353377Y240882D01*
X353013Y241426D01*
X353377Y241970D01*
X353523Y242706D01*
X353377Y243441D01*
X353013Y243985D01*
X353377Y244529D01*
X353523Y245265D01*
X353377Y246000D01*
X353013Y246544D01*
X353377Y247088D01*
X353523Y247824D01*
X353377Y248559D01*
X353013Y249103D01*
X353377Y249647D01*
X353523Y250383D01*
X353377Y251118D01*
X353013Y251662D01*
X353377Y252206D01*
X353523Y252942D01*
X353377Y253678D01*
X353013Y254221D01*
X353377Y254765D01*
X353523Y255501D01*
X353377Y256237D01*
X352960Y256860D01*
X352336Y257277D01*
X351769Y257390D01*
Y259958D01*
X351614Y260739D01*
X351172Y261400D01*
X351037Y261490D01*
X351041Y261500D01*
X351179Y262544D01*
Y270494D01*
X355894D01*
Y276994D01*
X353822D01*
X353630Y277456D01*
X358488Y282314D01*
X404082D01*
X410857Y275538D01*
D02*
G37*
G36*
X230857D02*
X230934Y274955D01*
X231432Y273754D01*
X232223Y272723D01*
X233254Y271932D01*
X234455Y271434D01*
X235557Y271289D01*
X235931Y271134D01*
X236844Y271014D01*
X237758Y271134D01*
X238609Y271487D01*
X239340Y272048D01*
X239901Y272779D01*
X240254Y273631D01*
X240309Y274050D01*
X240375Y274096D01*
X240870Y273834D01*
X240544Y257944D01*
Y244644D01*
X227719D01*
X226570Y245793D01*
Y248422D01*
X227513Y248813D01*
X228453Y249535D01*
X229175Y250475D01*
X229628Y251569D01*
X229783Y252744D01*
X229628Y253919D01*
X229175Y255013D01*
X228453Y255953D01*
X227513Y256675D01*
X226419Y257128D01*
X225244Y257283D01*
X224069Y257128D01*
X222975Y256675D01*
X222035Y255953D01*
X221313Y255013D01*
X220860Y253919D01*
X220705Y252744D01*
X220860Y251569D01*
X221313Y250475D01*
X222035Y249535D01*
X222975Y248813D01*
X223919Y248422D01*
Y245244D01*
X223938Y245144D01*
X223528Y244644D01*
X218688D01*
X217439Y245893D01*
Y248783D01*
X217513Y248813D01*
X218453Y249535D01*
X219175Y250475D01*
X219628Y251569D01*
X219783Y252744D01*
X219628Y253919D01*
X219175Y255013D01*
X218453Y255953D01*
X217513Y256675D01*
X216419Y257128D01*
X215244Y257283D01*
X214069Y257128D01*
X212975Y256675D01*
X212035Y255953D01*
X211313Y255013D01*
X210860Y253919D01*
X210705Y252744D01*
X210860Y251569D01*
X211313Y250475D01*
X212035Y249535D01*
X212975Y248813D01*
X214069Y248360D01*
X214789Y248265D01*
Y245397D01*
X214386Y245316D01*
X213658Y244830D01*
X213534Y244644D01*
X206672D01*
X203834Y247482D01*
X204025Y247944D01*
X208544D01*
X209244Y247244D01*
X209744Y247744D01*
Y257244D01*
X201244D01*
X201497Y256991D01*
Y251073D01*
X200997Y250866D01*
X197984Y253879D01*
X197554Y254166D01*
X197046Y254267D01*
X196211D01*
X196188Y254301D01*
X195564Y254718D01*
X194828Y254865D01*
X191088D01*
X190352Y254718D01*
X189728Y254301D01*
X189312Y253678D01*
X189165Y252942D01*
X189312Y252206D01*
X189675Y251662D01*
X189312Y251118D01*
X189165Y250383D01*
X189312Y249647D01*
X189675Y249103D01*
X189312Y248559D01*
X189165Y247824D01*
X189312Y247088D01*
X189675Y246544D01*
X189312Y246000D01*
X189165Y245265D01*
X189312Y244529D01*
X189675Y243985D01*
X189312Y243441D01*
X189165Y242706D01*
X189312Y241970D01*
X189675Y241426D01*
X189312Y240882D01*
X189165Y240146D01*
X189312Y239411D01*
X189728Y238787D01*
X190352Y238370D01*
X191088Y238224D01*
X194828D01*
X195564Y238370D01*
X195862Y238569D01*
X196181Y238181D01*
X194444Y236444D01*
Y233788D01*
X191407Y230751D01*
X191120Y230321D01*
X191019Y229814D01*
Y228383D01*
X190632Y228066D01*
X190244Y228143D01*
X189386Y227972D01*
X188658Y227486D01*
X188172Y226758D01*
X188001Y225900D01*
X188172Y225042D01*
X188410Y224685D01*
X185363Y221637D01*
X185075Y221207D01*
X184975Y220700D01*
Y209144D01*
X179779D01*
X179708Y209503D01*
X179269Y210159D01*
X178613Y210597D01*
X177839Y210751D01*
X171933D01*
X171159Y210597D01*
X170502Y210159D01*
X170064Y209503D01*
X169993Y209144D01*
X163637D01*
X163566Y209503D01*
X163127Y210159D01*
X162471Y210597D01*
X161697Y210751D01*
X155791D01*
X155017Y210597D01*
X154361Y210159D01*
X153922Y209503D01*
X153851Y209144D01*
X151954D01*
X151830Y209330D01*
X151102Y209816D01*
X150244Y209987D01*
X149386Y209816D01*
X148658Y209330D01*
X148534Y209144D01*
X128944D01*
X127405Y208948D01*
X127029Y209279D01*
Y222127D01*
X127529Y222160D01*
X127660Y221169D01*
X128113Y220075D01*
X128835Y219135D01*
X129775Y218413D01*
X130869Y217960D01*
X132044Y217805D01*
X133219Y217960D01*
X134313Y218413D01*
X135253Y219135D01*
X135956Y220050D01*
X159344D01*
X160222Y220224D01*
X160966Y220722D01*
X164966Y224722D01*
X165463Y225466D01*
X165638Y226344D01*
Y231424D01*
X171110D01*
Y227669D01*
X176457D01*
Y232819D01*
X175109D01*
Y232961D01*
X175008Y233468D01*
X174764Y233833D01*
Y236644D01*
X174686Y237034D01*
X174465Y237365D01*
X173465Y238365D01*
X173279Y238489D01*
X173053Y238927D01*
X173377Y239411D01*
X173523Y240146D01*
X173377Y240882D01*
X173013Y241426D01*
X173377Y241970D01*
X173523Y242706D01*
X173377Y243441D01*
X173013Y243985D01*
X173377Y244529D01*
X173523Y245265D01*
X173377Y246000D01*
X173013Y246544D01*
X173377Y247088D01*
X173523Y247824D01*
X173377Y248559D01*
X173013Y249103D01*
X173377Y249647D01*
X173523Y250383D01*
X173377Y251118D01*
X173013Y251662D01*
X173377Y252206D01*
X173523Y252942D01*
X173377Y253678D01*
X173013Y254221D01*
X173377Y254765D01*
X173523Y255501D01*
X173377Y256237D01*
X172960Y256860D01*
X172336Y257277D01*
X171769Y257390D01*
Y259958D01*
X171614Y260739D01*
X171172Y261400D01*
X171037Y261490D01*
X171041Y261500D01*
X171178Y262544D01*
Y270494D01*
X175894D01*
Y276994D01*
X173822D01*
X173630Y277456D01*
X178488Y282314D01*
X224082D01*
X230857Y275538D01*
D02*
G37*
G36*
X353244Y237144D02*
X353744Y236644D01*
Y232444D01*
X345638D01*
Y235244D01*
X346746Y236352D01*
X347244Y237096D01*
X347273Y237246D01*
X352644Y237644D01*
X352744D01*
X353244Y237144D01*
D02*
G37*
G36*
X173244D02*
X173744Y236644D01*
Y232444D01*
X165638D01*
Y235244D01*
X166746Y236352D01*
X167244Y237096D01*
X167273Y237246D01*
X172644Y237644D01*
X172744D01*
X173244Y237144D01*
D02*
G37*
G36*
X338859Y234982D02*
Y233642D01*
X338407Y233190D01*
X333687D01*
Y224638D01*
X315956D01*
X315253Y225553D01*
X314313Y226275D01*
X313219Y226728D01*
X312044Y226883D01*
X310869Y226728D01*
X309775Y226275D01*
X308835Y225553D01*
X308113Y224613D01*
X307660Y223519D01*
X307529Y222528D01*
X307029Y222561D01*
Y232127D01*
X307529Y232160D01*
X307660Y231169D01*
X308113Y230075D01*
X308835Y229135D01*
X309775Y228413D01*
X310869Y227960D01*
X312044Y227805D01*
X313219Y227960D01*
X314313Y228413D01*
X315253Y229135D01*
X315975Y230075D01*
X316428Y231169D01*
X316583Y232344D01*
X316428Y233519D01*
X316163Y234158D01*
X316700Y234695D01*
X336844D01*
X337820Y234889D01*
X338359Y235249D01*
X338859Y234982D01*
D02*
G37*
G36*
X158859D02*
Y233642D01*
X158407Y233190D01*
X153688D01*
Y224638D01*
X135956D01*
X135253Y225553D01*
X134313Y226275D01*
X133219Y226728D01*
X132044Y226883D01*
X130869Y226728D01*
X129775Y226275D01*
X128835Y225553D01*
X128113Y224613D01*
X127660Y223519D01*
X127529Y222528D01*
X127029Y222561D01*
Y232127D01*
X127529Y232160D01*
X127660Y231169D01*
X128113Y230075D01*
X128835Y229135D01*
X129775Y228413D01*
X130869Y227960D01*
X132044Y227805D01*
X133219Y227960D01*
X134313Y228413D01*
X135253Y229135D01*
X135975Y230075D01*
X136428Y231169D01*
X136583Y232344D01*
X136428Y233519D01*
X136163Y234158D01*
X136700Y234695D01*
X156844D01*
X157819Y234889D01*
X158359Y235249D01*
X158859Y234982D01*
D02*
G37*
G36*
X320488Y180390D02*
X318520D01*
Y181965D01*
X320488D01*
Y180390D01*
D02*
G37*
G36*
X140488D02*
X138520D01*
Y181965D01*
X140488D01*
Y180390D01*
D02*
G37*
%LPC*%
G36*
X327744Y456719D02*
X326197Y456567D01*
X324710Y456116D01*
X323340Y455383D01*
X322138Y454397D01*
X321152Y453196D01*
X320420Y451825D01*
X319968Y450338D01*
X319816Y448791D01*
X319968Y447245D01*
X320420Y445757D01*
X321152Y444387D01*
X322138Y443186D01*
X323340Y442200D01*
X324710Y441467D01*
X326197Y441016D01*
X327744Y440864D01*
X329291Y441016D01*
X330778Y441467D01*
X332149Y442200D01*
X333350Y443186D01*
X334336Y444387D01*
X335068Y445757D01*
X335520Y447245D01*
X335672Y448791D01*
X335520Y450338D01*
X335068Y451825D01*
X334336Y453196D01*
X333350Y454397D01*
X332149Y455383D01*
X330778Y456116D01*
X329291Y456567D01*
X327744Y456719D01*
D02*
G37*
G36*
X147744D02*
X146197Y456567D01*
X144710Y456116D01*
X143340Y455383D01*
X142138Y454397D01*
X141152Y453196D01*
X140419Y451825D01*
X139968Y450338D01*
X139816Y448791D01*
X139968Y447245D01*
X140419Y445757D01*
X141152Y444387D01*
X142138Y443186D01*
X143340Y442200D01*
X144710Y441467D01*
X146197Y441016D01*
X147744Y440864D01*
X149291Y441016D01*
X150778Y441467D01*
X152148Y442200D01*
X153350Y443186D01*
X154336Y444387D01*
X155069Y445757D01*
X155520Y447245D01*
X155672Y448791D01*
X155520Y450338D01*
X155069Y451825D01*
X154336Y453196D01*
X153350Y454397D01*
X152148Y455383D01*
X150778Y456116D01*
X149291Y456567D01*
X147744Y456719D01*
D02*
G37*
G36*
X400244Y461744D02*
X390744D01*
Y451244D01*
X400244D01*
Y461744D01*
D02*
G37*
G36*
X380244Y456744D02*
X365744D01*
X366244Y450744D01*
X380244D01*
Y456744D01*
D02*
G37*
G36*
X415244Y437283D02*
X414069Y437128D01*
X412975Y436675D01*
X412035Y435953D01*
X411313Y435013D01*
X410860Y433919D01*
X410705Y432744D01*
X410860Y431569D01*
X411313Y430475D01*
X412035Y429535D01*
X412975Y428813D01*
X414069Y428360D01*
X415244Y428205D01*
X416419Y428360D01*
X417513Y428813D01*
X418453Y429535D01*
X419175Y430475D01*
X419628Y431569D01*
X419783Y432744D01*
X419628Y433919D01*
X419175Y435013D01*
X418453Y435953D01*
X417513Y436675D01*
X416419Y437128D01*
X415244Y437283D01*
D02*
G37*
G36*
X220244Y461744D02*
X210744D01*
Y451244D01*
X220244D01*
Y461744D01*
D02*
G37*
G36*
X200244Y456744D02*
X185744D01*
X186244Y450744D01*
X200244D01*
Y456744D01*
D02*
G37*
G36*
X235244Y437283D02*
X234069Y437128D01*
X232975Y436675D01*
X232035Y435953D01*
X231313Y435013D01*
X230860Y433919D01*
X230705Y432744D01*
X230860Y431569D01*
X231313Y430475D01*
X232035Y429535D01*
X232975Y428813D01*
X234069Y428360D01*
X235244Y428205D01*
X236419Y428360D01*
X237513Y428813D01*
X238453Y429535D01*
X239175Y430475D01*
X239628Y431569D01*
X239783Y432744D01*
X239628Y433919D01*
X239175Y435013D01*
X238453Y435953D01*
X237513Y436675D01*
X236419Y437128D01*
X235244Y437283D01*
D02*
G37*
G36*
X327744Y276719D02*
X326197Y276567D01*
X324710Y276116D01*
X323340Y275383D01*
X322138Y274397D01*
X321152Y273196D01*
X320420Y271825D01*
X319968Y270338D01*
X319816Y268791D01*
X319968Y267245D01*
X320420Y265757D01*
X321152Y264387D01*
X322138Y263186D01*
X323340Y262200D01*
X324710Y261467D01*
X326197Y261016D01*
X327744Y260863D01*
X329291Y261016D01*
X330778Y261467D01*
X332149Y262200D01*
X333350Y263186D01*
X334336Y264387D01*
X335068Y265757D01*
X335520Y267245D01*
X335672Y268791D01*
X335520Y270338D01*
X335068Y271825D01*
X334336Y273196D01*
X333350Y274397D01*
X332149Y275383D01*
X330778Y276116D01*
X329291Y276567D01*
X327744Y276719D01*
D02*
G37*
G36*
X147744D02*
X146197Y276567D01*
X144710Y276116D01*
X143340Y275383D01*
X142138Y274397D01*
X141152Y273196D01*
X140419Y271825D01*
X139968Y270338D01*
X139816Y268791D01*
X139968Y267245D01*
X140419Y265757D01*
X141152Y264387D01*
X142138Y263186D01*
X143340Y262200D01*
X144710Y261467D01*
X146197Y261016D01*
X147744Y260863D01*
X149291Y261016D01*
X150778Y261467D01*
X152148Y262200D01*
X153350Y263186D01*
X154336Y264387D01*
X155069Y265757D01*
X155520Y267245D01*
X155672Y268791D01*
X155520Y270338D01*
X155069Y271825D01*
X154336Y273196D01*
X153350Y274397D01*
X152148Y275383D01*
X150778Y276116D01*
X149291Y276567D01*
X147744Y276719D01*
D02*
G37*
G36*
X400244Y281744D02*
X390744D01*
Y271244D01*
X400244D01*
Y281744D01*
D02*
G37*
G36*
X380244Y276744D02*
X365744D01*
X366244Y270744D01*
X380244D01*
Y276744D01*
D02*
G37*
G36*
X415244Y257283D02*
X414069Y257128D01*
X412975Y256675D01*
X412035Y255953D01*
X411313Y255013D01*
X410860Y253919D01*
X410705Y252744D01*
X410860Y251569D01*
X411313Y250475D01*
X412035Y249535D01*
X412975Y248813D01*
X414069Y248360D01*
X415244Y248205D01*
X416419Y248360D01*
X417513Y248813D01*
X418453Y249535D01*
X419175Y250475D01*
X419628Y251569D01*
X419783Y252744D01*
X419628Y253919D01*
X419175Y255013D01*
X418453Y255953D01*
X417513Y256675D01*
X416419Y257128D01*
X415244Y257283D01*
D02*
G37*
G36*
X220244Y281744D02*
X210744D01*
Y271244D01*
X220244D01*
Y281744D01*
D02*
G37*
G36*
X200244Y276744D02*
X185744D01*
X186244Y270744D01*
X200244D01*
Y276744D01*
D02*
G37*
G36*
X235244Y257283D02*
X234069Y257128D01*
X232975Y256675D01*
X232035Y255953D01*
X231313Y255013D01*
X230860Y253919D01*
X230705Y252744D01*
X230860Y251569D01*
X231313Y250475D01*
X232035Y249535D01*
X232975Y248813D01*
X234069Y248360D01*
X235244Y248205D01*
X236419Y248360D01*
X237513Y248813D01*
X238453Y249535D01*
X239175Y250475D01*
X239628Y251569D01*
X239783Y252744D01*
X239628Y253919D01*
X239175Y255013D01*
X238453Y255953D01*
X237513Y256675D01*
X236419Y257128D01*
X235244Y257283D01*
D02*
G37*
%LPD*%
D10*
X246583Y246681D02*
D03*
X255244Y250618D02*
D03*
X426583Y246681D02*
D03*
X435244Y250618D02*
D03*
X246583Y426681D02*
D03*
X255244Y430618D02*
D03*
X426583Y426681D02*
D03*
X435244Y430618D02*
D03*
D11*
X255244Y242744D02*
D03*
X435244D02*
D03*
X255244Y422744D02*
D03*
X435244D02*
D03*
D12*
X230157Y154000D02*
D03*
Y144157D02*
D03*
X410157Y154000D02*
D03*
Y144157D02*
D03*
X230157Y334000D02*
D03*
Y324157D02*
D03*
X410157Y334000D02*
D03*
Y324157D02*
D03*
D13*
X178705Y230244D02*
D03*
X173783D02*
D03*
X242618Y144000D02*
D03*
X237697D02*
D03*
X242618Y154000D02*
D03*
X237697D02*
D03*
X358705Y230244D02*
D03*
X353783D02*
D03*
X422618Y144000D02*
D03*
X417697D02*
D03*
X422618Y154000D02*
D03*
X417697D02*
D03*
X178705Y410244D02*
D03*
X173783D02*
D03*
X242618Y324000D02*
D03*
X237697D02*
D03*
X242618Y334000D02*
D03*
X237697D02*
D03*
X358705Y410244D02*
D03*
X353783D02*
D03*
X422618Y324000D02*
D03*
X417697D02*
D03*
X422618Y334000D02*
D03*
X417697D02*
D03*
D14*
X143244Y200862D02*
D03*
Y198303D02*
D03*
Y195744D02*
D03*
Y190626D02*
D03*
Y193185D02*
D03*
X323244Y200862D02*
D03*
Y198303D02*
D03*
Y195744D02*
D03*
Y190626D02*
D03*
Y193185D02*
D03*
X143244Y380862D02*
D03*
Y378303D02*
D03*
Y375744D02*
D03*
Y370626D02*
D03*
Y373185D02*
D03*
X323244Y380862D02*
D03*
Y378303D02*
D03*
Y375744D02*
D03*
Y370626D02*
D03*
Y373185D02*
D03*
D15*
X131433Y200075D02*
D03*
Y192201D02*
D03*
X311433Y200075D02*
D03*
Y192201D02*
D03*
X131433Y380075D02*
D03*
Y372201D02*
D03*
X311433Y380075D02*
D03*
Y372201D02*
D03*
D16*
X134344Y183944D02*
D03*
Y207244D02*
D03*
X314344Y183944D02*
D03*
Y207244D02*
D03*
X134344Y363944D02*
D03*
Y387244D02*
D03*
X314344Y363944D02*
D03*
Y387244D02*
D03*
D17*
X143944Y184344D02*
D03*
X144057Y207187D02*
D03*
X323944Y184344D02*
D03*
X324057Y207187D02*
D03*
X143944Y364344D02*
D03*
X144057Y387187D02*
D03*
X323944Y364344D02*
D03*
X324057Y387187D02*
D03*
D18*
X159744Y181244D02*
D03*
X169000Y157000D02*
D03*
X339744Y181244D02*
D03*
X349000Y157000D02*
D03*
X159744Y361244D02*
D03*
X169000Y337000D02*
D03*
X339744Y361244D02*
D03*
X349000Y337000D02*
D03*
D19*
X165650Y181244D02*
D03*
X174906Y157000D02*
D03*
X345650Y181244D02*
D03*
X354906Y157000D02*
D03*
X165650Y361244D02*
D03*
X174906Y337000D02*
D03*
X345650Y361244D02*
D03*
X354906Y337000D02*
D03*
D20*
X157920Y196084D02*
D03*
X337920D02*
D03*
X157920Y376084D02*
D03*
X337920D02*
D03*
D21*
X157920Y192344D02*
D03*
Y188604D02*
D03*
X167368D02*
D03*
Y192344D02*
D03*
Y196084D02*
D03*
X337920Y192344D02*
D03*
Y188604D02*
D03*
X347368D02*
D03*
Y192344D02*
D03*
Y196084D02*
D03*
X157920Y372344D02*
D03*
Y368604D02*
D03*
X167368D02*
D03*
Y372344D02*
D03*
Y376084D02*
D03*
X337920Y372344D02*
D03*
Y368604D02*
D03*
X347368D02*
D03*
Y372344D02*
D03*
Y376084D02*
D03*
D22*
X253824Y223760D02*
D03*
X433824D02*
D03*
X253824Y403760D02*
D03*
X433824D02*
D03*
D23*
X253824Y227500D02*
D03*
Y231240D02*
D03*
X244376D02*
D03*
Y223760D02*
D03*
X433824Y227500D02*
D03*
Y231240D02*
D03*
X424376D02*
D03*
Y223760D02*
D03*
X253824Y407500D02*
D03*
Y411240D02*
D03*
X244376D02*
D03*
Y403760D02*
D03*
X433824Y407500D02*
D03*
Y411240D02*
D03*
X424376D02*
D03*
Y403760D02*
D03*
D24*
X237600Y224843D02*
D03*
Y230157D02*
D03*
Y241157D02*
D03*
Y235843D02*
D03*
X417600Y224843D02*
D03*
Y230157D02*
D03*
Y241157D02*
D03*
Y235843D02*
D03*
X237600Y404843D02*
D03*
Y410157D02*
D03*
Y421157D02*
D03*
Y415843D02*
D03*
X417600Y404843D02*
D03*
Y410157D02*
D03*
Y421157D02*
D03*
Y415843D02*
D03*
D25*
X158744Y207744D02*
D03*
X174886D02*
D03*
X158744Y214043D02*
D03*
X174744D02*
D03*
X199244Y128945D02*
D03*
X215244D02*
D03*
X199102Y135244D02*
D03*
X215244D02*
D03*
X164744Y128945D02*
D03*
X180744D02*
D03*
X164602Y135244D02*
D03*
X180744D02*
D03*
X250744D02*
D03*
X234602D02*
D03*
X250744Y128945D02*
D03*
X234744D02*
D03*
X338744Y207744D02*
D03*
X354886D02*
D03*
X338744Y214043D02*
D03*
X354744D02*
D03*
X379244Y128945D02*
D03*
X395244D02*
D03*
X379102Y135244D02*
D03*
X395244D02*
D03*
X344744Y128945D02*
D03*
X360744D02*
D03*
X344602Y135244D02*
D03*
X360744D02*
D03*
X430744D02*
D03*
X414602D02*
D03*
X430744Y128945D02*
D03*
X414744D02*
D03*
X158744Y387744D02*
D03*
X174886D02*
D03*
X158744Y394043D02*
D03*
X174744D02*
D03*
X199244Y308945D02*
D03*
X215244D02*
D03*
X199102Y315244D02*
D03*
X215244D02*
D03*
X164744Y308945D02*
D03*
X180744D02*
D03*
X164602Y315244D02*
D03*
X180744D02*
D03*
X250744D02*
D03*
X234602D02*
D03*
X250744Y308945D02*
D03*
X234744D02*
D03*
X338744Y387744D02*
D03*
X354886D02*
D03*
X338744Y394043D02*
D03*
X354744D02*
D03*
X379244Y308945D02*
D03*
X395244D02*
D03*
X379102Y315244D02*
D03*
X395244D02*
D03*
X344744Y308945D02*
D03*
X360744D02*
D03*
X344602Y315244D02*
D03*
X360744D02*
D03*
X430744D02*
D03*
X414602D02*
D03*
X430744Y308945D02*
D03*
X414744D02*
D03*
D26*
X204900Y166600D02*
D03*
X384900D02*
D03*
X204900Y346600D02*
D03*
X384900D02*
D03*
D27*
X203091Y149479D02*
D03*
X187779Y164791D02*
D03*
X206709Y183721D02*
D03*
X222021Y168409D02*
D03*
X383091Y149479D02*
D03*
X367779Y164791D02*
D03*
X386709Y183721D02*
D03*
X402021Y168409D02*
D03*
X203091Y329479D02*
D03*
X187779Y344791D02*
D03*
X206709Y363721D02*
D03*
X222021Y348409D02*
D03*
X383091Y329479D02*
D03*
X367779Y344791D02*
D03*
X386709Y363721D02*
D03*
X402021Y348409D02*
D03*
D28*
X201768Y150941D02*
D03*
X200376Y152333D02*
D03*
X198984Y153725D02*
D03*
X197592Y155116D02*
D03*
X196200Y156508D02*
D03*
X194808Y157900D02*
D03*
X193416Y159292D02*
D03*
X192025Y160684D02*
D03*
X190633Y162076D02*
D03*
X189241Y163468D02*
D03*
X208032Y182259D02*
D03*
X209424Y180867D02*
D03*
X210816Y179475D02*
D03*
X212208Y178084D02*
D03*
X213600Y176692D02*
D03*
X214992Y175300D02*
D03*
X216384Y173908D02*
D03*
X217775Y172516D02*
D03*
X219167Y171124D02*
D03*
X220559Y169732D02*
D03*
X381768Y150941D02*
D03*
X380376Y152333D02*
D03*
X378984Y153725D02*
D03*
X377592Y155116D02*
D03*
X376200Y156508D02*
D03*
X374808Y157900D02*
D03*
X373416Y159292D02*
D03*
X372025Y160684D02*
D03*
X370633Y162076D02*
D03*
X369241Y163468D02*
D03*
X388032Y182259D02*
D03*
X389424Y180867D02*
D03*
X390816Y179475D02*
D03*
X392208Y178084D02*
D03*
X393600Y176692D02*
D03*
X394992Y175300D02*
D03*
X396384Y173908D02*
D03*
X397775Y172516D02*
D03*
X399167Y171124D02*
D03*
X400559Y169732D02*
D03*
X201768Y330941D02*
D03*
X200376Y332333D02*
D03*
X198984Y333725D02*
D03*
X197592Y335116D02*
D03*
X196200Y336508D02*
D03*
X194808Y337900D02*
D03*
X193416Y339292D02*
D03*
X192025Y340684D02*
D03*
X190633Y342076D02*
D03*
X189241Y343468D02*
D03*
X208032Y362259D02*
D03*
X209424Y360867D02*
D03*
X210816Y359475D02*
D03*
X212208Y358084D02*
D03*
X213600Y356692D02*
D03*
X214992Y355300D02*
D03*
X216384Y353908D02*
D03*
X217775Y352516D02*
D03*
X219167Y351124D02*
D03*
X220559Y349732D02*
D03*
X381768Y330941D02*
D03*
X380376Y332333D02*
D03*
X378984Y333725D02*
D03*
X377592Y335116D02*
D03*
X376200Y336508D02*
D03*
X374808Y337900D02*
D03*
X373416Y339292D02*
D03*
X372025Y340684D02*
D03*
X370633Y342076D02*
D03*
X369241Y343468D02*
D03*
X388032Y362259D02*
D03*
X389424Y360867D02*
D03*
X390816Y359475D02*
D03*
X392208Y358084D02*
D03*
X393600Y356692D02*
D03*
X394992Y355300D02*
D03*
X396384Y353908D02*
D03*
X397775Y352516D02*
D03*
X399167Y351124D02*
D03*
X400559Y349732D02*
D03*
D29*
X187779Y168409D02*
D03*
X203091Y183721D02*
D03*
X222021Y164791D02*
D03*
X367779Y168409D02*
D03*
X383091Y183721D02*
D03*
X402021Y164791D02*
D03*
X187779Y348409D02*
D03*
X203091Y363721D02*
D03*
X222021Y344791D02*
D03*
X367779Y348409D02*
D03*
X383091Y363721D02*
D03*
X402021Y344791D02*
D03*
D30*
X189241Y169732D02*
D03*
X190633Y171124D02*
D03*
X192025Y172516D02*
D03*
X193416Y173908D02*
D03*
X194808Y175300D02*
D03*
X196200Y176692D02*
D03*
X197592Y178084D02*
D03*
X198984Y179475D02*
D03*
X200376Y180867D02*
D03*
X201768Y182259D02*
D03*
X220559Y163468D02*
D03*
X219167Y162076D02*
D03*
X217775Y160684D02*
D03*
X216384Y159292D02*
D03*
X214992Y157900D02*
D03*
X213600Y156508D02*
D03*
X212208Y155116D02*
D03*
X210816Y153725D02*
D03*
X209424Y152333D02*
D03*
X208032Y150941D02*
D03*
X369241Y169732D02*
D03*
X370633Y171124D02*
D03*
X372025Y172516D02*
D03*
X373416Y173908D02*
D03*
X374808Y175300D02*
D03*
X376200Y176692D02*
D03*
X377592Y178084D02*
D03*
X378984Y179475D02*
D03*
X380376Y180867D02*
D03*
X381768Y182259D02*
D03*
X400559Y163468D02*
D03*
X399167Y162076D02*
D03*
X397775Y160684D02*
D03*
X396384Y159292D02*
D03*
X394992Y157900D02*
D03*
X393600Y156508D02*
D03*
X392208Y155116D02*
D03*
X390816Y153725D02*
D03*
X389424Y152333D02*
D03*
X388032Y150941D02*
D03*
X189241Y349732D02*
D03*
X190633Y351124D02*
D03*
X192025Y352516D02*
D03*
X193416Y353908D02*
D03*
X194808Y355300D02*
D03*
X196200Y356692D02*
D03*
X197592Y358084D02*
D03*
X198984Y359475D02*
D03*
X200376Y360867D02*
D03*
X201768Y362259D02*
D03*
X220559Y343468D02*
D03*
X219167Y342076D02*
D03*
X217775Y340684D02*
D03*
X216384Y339292D02*
D03*
X214992Y337900D02*
D03*
X213600Y336508D02*
D03*
X212208Y335116D02*
D03*
X210816Y333725D02*
D03*
X209424Y332333D02*
D03*
X208032Y330941D02*
D03*
X369241Y349732D02*
D03*
X370633Y351124D02*
D03*
X372025Y352516D02*
D03*
X373416Y353908D02*
D03*
X374808Y355300D02*
D03*
X376200Y356692D02*
D03*
X377592Y358084D02*
D03*
X378984Y359475D02*
D03*
X380376Y360867D02*
D03*
X381768Y362259D02*
D03*
X400559Y343468D02*
D03*
X399167Y342076D02*
D03*
X397775Y340684D02*
D03*
X396384Y339292D02*
D03*
X394992Y337900D02*
D03*
X393600Y336508D02*
D03*
X392208Y335116D02*
D03*
X390816Y333725D02*
D03*
X389424Y332333D02*
D03*
X388032Y330941D02*
D03*
D31*
X206709Y149479D02*
D03*
X386709D02*
D03*
X206709Y329479D02*
D03*
X386709D02*
D03*
D32*
X145632Y228844D02*
D03*
X156656D02*
D03*
X145532Y248544D02*
D03*
X156556D02*
D03*
X325632Y228844D02*
D03*
X336656D02*
D03*
X325532Y248544D02*
D03*
X336556D02*
D03*
X145632Y408844D02*
D03*
X156656D02*
D03*
X145532Y428544D02*
D03*
X156556D02*
D03*
X325632Y408844D02*
D03*
X336656D02*
D03*
X325532Y428544D02*
D03*
X336556D02*
D03*
D33*
X181344Y246544D02*
D03*
X361344D02*
D03*
X181344Y426544D02*
D03*
X361344D02*
D03*
D34*
X169730Y255501D02*
D03*
Y252942D02*
D03*
Y250383D02*
D03*
Y247824D02*
D03*
Y245265D02*
D03*
Y242706D02*
D03*
Y240146D02*
D03*
Y237587D02*
D03*
X192958Y255501D02*
D03*
Y252942D02*
D03*
Y250383D02*
D03*
Y247824D02*
D03*
Y245265D02*
D03*
Y242706D02*
D03*
Y240146D02*
D03*
X349730Y255501D02*
D03*
Y252942D02*
D03*
Y250383D02*
D03*
Y247824D02*
D03*
Y245265D02*
D03*
Y242706D02*
D03*
Y240146D02*
D03*
Y237587D02*
D03*
X372958Y255501D02*
D03*
Y252942D02*
D03*
Y250383D02*
D03*
Y247824D02*
D03*
Y245265D02*
D03*
Y242706D02*
D03*
Y240146D02*
D03*
X169730Y435501D02*
D03*
Y432942D02*
D03*
Y430383D02*
D03*
Y427824D02*
D03*
Y425265D02*
D03*
Y422706D02*
D03*
Y420146D02*
D03*
Y417587D02*
D03*
X192958Y435501D02*
D03*
Y432942D02*
D03*
Y430383D02*
D03*
Y427824D02*
D03*
Y425265D02*
D03*
Y422706D02*
D03*
Y420146D02*
D03*
X349730Y435501D02*
D03*
Y432942D02*
D03*
Y430383D02*
D03*
Y427824D02*
D03*
Y425265D02*
D03*
Y422706D02*
D03*
Y420146D02*
D03*
Y417587D02*
D03*
X372958Y435501D02*
D03*
Y432942D02*
D03*
Y430383D02*
D03*
Y427824D02*
D03*
Y425265D02*
D03*
Y422706D02*
D03*
Y420146D02*
D03*
D35*
X192958Y237587D02*
D03*
X372958D02*
D03*
X192958Y417587D02*
D03*
X372958D02*
D03*
D36*
X259067Y172744D02*
D03*
X249421Y169004D02*
D03*
Y176484D02*
D03*
X258567Y190244D02*
D03*
X248921Y186504D02*
D03*
Y193984D02*
D03*
X259067Y206244D02*
D03*
X249421Y202504D02*
D03*
Y209984D02*
D03*
X439067Y172744D02*
D03*
X429421Y169004D02*
D03*
Y176484D02*
D03*
X438567Y190244D02*
D03*
X428921Y186504D02*
D03*
Y193984D02*
D03*
X439067Y206244D02*
D03*
X429421Y202504D02*
D03*
Y209984D02*
D03*
X259067Y352744D02*
D03*
X249421Y349004D02*
D03*
Y356484D02*
D03*
X258567Y370244D02*
D03*
X248921Y366504D02*
D03*
Y373984D02*
D03*
X259067Y386244D02*
D03*
X249421Y382504D02*
D03*
Y389984D02*
D03*
X439067Y352744D02*
D03*
X429421Y349004D02*
D03*
Y356484D02*
D03*
X438567Y370244D02*
D03*
X428921Y366504D02*
D03*
Y373984D02*
D03*
X439067Y386244D02*
D03*
X429421Y382504D02*
D03*
Y389984D02*
D03*
D37*
X168644Y273744D02*
D03*
X193044Y273687D02*
D03*
X348644Y273744D02*
D03*
X373044Y273687D02*
D03*
X168644Y453744D02*
D03*
X193044Y453687D02*
D03*
X348644Y453744D02*
D03*
X373044Y453687D02*
D03*
D38*
X191744Y269244D02*
X196187Y273687D01*
X197044Y274544D02*
X206744D01*
X196187Y273687D02*
X197044Y274544D01*
X205244Y259744D02*
X205244Y259744D01*
X205244Y252744D02*
Y259744D01*
X188000Y253800D02*
X200800Y266600D01*
X205244Y252744D02*
X212744Y260244D01*
X214832D01*
X220044Y255032D01*
Y243141D02*
Y255032D01*
Y243141D02*
X227343Y235843D01*
X216114Y245344D02*
X234382Y227076D01*
Y224843D02*
Y227076D01*
X201000Y246744D02*
X230700Y217044D01*
X200709Y246744D02*
X201000D01*
X230700Y211200D02*
Y217044D01*
X225244Y245244D02*
X232244Y238244D01*
X225244Y245244D02*
Y252744D01*
X216114Y245344D02*
Y251874D01*
X242618Y142900D02*
Y144000D01*
X240218Y140500D02*
X242618Y142900D01*
X232600Y140500D02*
X240218D01*
X233455Y128945D02*
X234744D01*
X229700Y132700D02*
X233455Y128945D01*
X215244D02*
X221045D01*
X211300Y155800D02*
X211524D01*
X212208Y155116D01*
X204900Y162424D02*
X211524Y155800D01*
X180244Y260744D02*
Y267744D01*
X149344Y246444D02*
Y250100D01*
X160644Y192344D02*
X161500D01*
X145632Y227500D02*
Y228844D01*
Y224900D02*
Y227500D01*
X144055Y207082D02*
X144056D01*
X144031Y207083D02*
X144055Y207082D01*
X142992Y207100D02*
X144031Y207083D01*
Y207100D01*
X143944Y180244D02*
Y184344D01*
Y179544D02*
Y180244D01*
X131100Y207100D02*
X131400D01*
X131756Y183944D02*
X132900D01*
X249400Y232205D02*
X250364Y231240D01*
X246583Y235022D02*
X249400Y232205D01*
X251900Y231240D02*
X253824D01*
X250364D02*
X251900D01*
X167144Y273744D02*
X168644D01*
X169544Y234044D02*
X172444D01*
X168956D02*
X169544D01*
X167000Y273744D02*
X167144D01*
X164600D02*
X167000D01*
X172444Y234044D02*
X172700D01*
X166644D02*
X168956D01*
X150244Y207744D02*
X158744D01*
X200246Y149418D02*
X201768Y150941D01*
X200246Y143076D02*
Y149418D01*
X192414Y135244D02*
X200246Y143076D01*
X180744Y135244D02*
X192414D01*
X163900Y181244D02*
X165650D01*
X176244Y242983D02*
Y268744D01*
X144031Y205587D02*
X144056Y207082D01*
X246583Y235022D02*
Y246681D01*
X249400Y229705D02*
Y232205D01*
X184500Y143895D02*
Y158727D01*
X189241Y163468D01*
X283500Y181200D02*
X288300Y176400D01*
X183987Y168409D02*
X187779D01*
X234382Y224843D02*
X237600D01*
X233941Y225283D02*
X234382Y224843D01*
X151744Y166744D02*
X155385Y163103D01*
X184812D01*
X186500Y164791D01*
X187779D01*
X143244Y189356D02*
Y190626D01*
Y189356D02*
X144031Y188569D01*
Y185901D02*
Y188569D01*
X188700Y186400D02*
Y218700D01*
X185500Y141665D02*
X187425Y143590D01*
Y147875D01*
X185700Y149600D02*
X187425Y147875D01*
X185700Y149600D02*
Y154360D01*
X192025Y160684D01*
X167300Y235700D02*
X168956Y234044D01*
X167300Y237587D02*
X169730D01*
X224628Y165100D02*
X232600D01*
X224318Y164791D02*
X224628Y165100D01*
X222021Y164791D02*
X224318D01*
X148788Y227500D02*
X149644Y226644D01*
X250744Y135244D02*
Y151189D01*
X244533Y157400D02*
X250744Y151189D01*
X227090Y157400D02*
X244533D01*
X194906Y230200D02*
X195700D01*
X193600Y228894D02*
X194906Y230200D01*
X193400Y176708D02*
X194808Y175300D01*
X194800Y178092D02*
X196200Y176692D01*
X131400Y200075D02*
X131433D01*
X229700Y132700D02*
Y137300D01*
X224818Y161400D02*
X226418Y163000D01*
X172056Y192344D02*
X173100Y191300D01*
X167368Y192344D02*
X172056D01*
X174744Y214043D02*
X179800D01*
Y205300D02*
Y214043D01*
X162400Y194100D02*
Y199400D01*
X160644Y192344D02*
X162400Y194100D01*
X157920Y192344D02*
X160644D01*
X194700Y141400D02*
Y149440D01*
X198984Y153725D01*
X162500Y176921D02*
X163177Y176244D01*
X162500Y176921D02*
Y191344D01*
X161500Y192344D02*
X162500Y191344D01*
X165044Y166256D02*
X166000Y165300D01*
X165044Y166256D02*
Y175044D01*
X156700D02*
X165044D01*
X151300Y180444D02*
X156700Y175044D01*
X151300Y180444D02*
Y191185D01*
X149300Y193185D02*
X151300Y191185D01*
X143244Y193185D02*
X149300D01*
X192600Y153100D02*
X192792D01*
X196200Y156508D01*
X188900Y152400D02*
X190500Y154000D01*
Y156376D01*
X193416Y159292D01*
X197900Y146186D02*
Y149856D01*
X200376Y152333D01*
X204900Y166600D02*
X206292D01*
X214992Y175300D01*
X190000Y168800D02*
X202700D01*
X204900Y166600D01*
X207900Y159200D02*
X211300Y155800D01*
X194808Y157900D02*
X196108Y159200D01*
X204900Y162424D02*
Y166600D01*
X251900Y223760D02*
X253824D01*
X251100Y224560D02*
X251900Y223760D01*
X251100Y224560D02*
Y230440D01*
X251900Y231240D01*
X221045Y128945D02*
X232600Y140500D01*
X226188Y285800D02*
X235744Y276244D01*
X174906Y157000D02*
X177600D01*
X178000Y156600D01*
X154600Y181244D02*
X159744D01*
X174700Y214043D02*
X174744D01*
X143944Y179544D02*
X151744Y171744D01*
X168430Y259958D02*
X169730D01*
X166744Y261644D02*
X168430Y259958D01*
X172700Y234044D02*
X173783Y232961D01*
Y230244D02*
Y232961D01*
X145532Y248544D02*
Y250100D01*
X146400Y214043D02*
X158744D01*
X144057Y207187D02*
Y211700D01*
X131433Y192201D02*
X132900D01*
X136200Y209524D02*
X137775Y211098D01*
X166844Y274044D02*
X167000D01*
X132244Y252544D02*
Y253844D01*
X132044Y252344D02*
X132244Y252544D01*
X132044Y232344D02*
X132244D01*
X144057Y207100D02*
Y207187D01*
X127200Y211000D02*
X131100Y207100D01*
X127200Y211000D02*
Y224900D01*
X129500Y227200D01*
X134000D01*
X136300Y224900D01*
X145632D01*
X141244Y246244D02*
Y250244D01*
X164600Y285444D02*
X167944D01*
X149244Y246344D02*
X149344Y246444D01*
X137600Y247200D02*
X140944Y250544D01*
X129100Y247200D02*
X137600D01*
X127200Y245300D02*
X129100Y247200D01*
X127200Y229300D02*
Y245300D01*
Y229300D02*
X129000Y227500D01*
X137700D01*
X141044Y230844D01*
Y226544D02*
Y230844D01*
X196244Y264744D02*
Y268744D01*
X156556Y248544D02*
Y248600D01*
X158744Y207744D02*
X174886D01*
X199102Y135244D02*
X215244D01*
X234602D02*
X250744D01*
X164602D02*
X180744D01*
X234744Y128945D02*
X250744D01*
X199244D02*
X215244D01*
X180744D02*
X199244D01*
X164744D02*
X180744D01*
X144031Y185087D02*
Y185901D01*
X143944Y185000D02*
X144031Y185087D01*
X143944Y184344D02*
Y185000D01*
X131433Y192201D02*
Y200075D01*
X185675Y251700D02*
X189476Y255501D01*
X167368Y196084D02*
X173404D01*
X175244Y194244D01*
Y189296D02*
Y194244D01*
Y189296D02*
X192025Y172516D01*
X230157Y154000D02*
X237697D01*
X230157Y144157D02*
X233800D01*
X233957Y144000D01*
X237697D01*
X240400Y230157D02*
X241483Y231240D01*
X244376D01*
X237600Y230157D02*
X238630D01*
X241300Y232827D01*
Y239400D01*
X239543Y241157D02*
X241300Y239400D01*
X237600Y241157D02*
X239543D01*
X238630Y230157D02*
X240400D01*
X185675Y250875D02*
Y251700D01*
X155056Y248600D02*
X155112D01*
X167000Y273888D02*
Y274044D01*
X180100Y285800D02*
X225588D01*
X226188D01*
X237600Y224843D02*
X240400D01*
X241483Y223760D01*
X244376D01*
X246300Y210784D02*
X247100Y209984D01*
X244376Y223760D02*
X246300D01*
X236800Y174900D02*
X242696Y169004D01*
X199300Y181944D02*
X200376Y180867D01*
X222021Y168409D02*
X230500D01*
X252200Y162700D02*
Y218500D01*
X247500Y223200D02*
X252200Y218500D01*
X247500Y223200D02*
Y226500D01*
X247300Y226700D02*
X247500Y226500D01*
X247300Y226700D02*
Y232607D01*
X243900Y236007D02*
X247300Y232607D01*
X243900Y236007D02*
Y237200D01*
X258744Y216444D02*
X283500Y241200D01*
X255100Y190400D02*
X255256Y190244D01*
X258567D01*
X269100Y251200D02*
X283500D01*
X268518Y250618D02*
X269100Y251200D01*
X255244Y250618D02*
X268518D01*
X248921Y196721D02*
X249100Y196900D01*
X248921Y193984D02*
Y196721D01*
X238900Y186044D02*
Y220700D01*
X272900Y174500D02*
Y205200D01*
X258567Y190244D02*
X263444D01*
X267300Y194100D01*
Y207700D01*
X268065Y208465D01*
Y211097D01*
X276000Y219032D01*
Y223700D01*
X283500Y231200D01*
X220559Y169732D02*
X223323Y172496D01*
X234404D01*
X246500Y160400D01*
X255100D01*
X270733Y176033D01*
Y206900D01*
X272418Y208585D01*
X274047D01*
X281461Y216000D01*
X286300D01*
X288300Y214000D01*
Y202100D02*
Y214000D01*
X287400Y201200D02*
X288300Y202100D01*
X283500Y201200D02*
X287400D01*
X253824Y227500D02*
X256500D01*
Y235800D01*
X250900Y241400D02*
X256500Y235800D01*
X250900Y241400D02*
Y256300D01*
X240600Y266600D02*
X250900Y256300D01*
X200800Y266600D02*
X240600D01*
X245900Y172900D02*
X246900Y171900D01*
Y169004D02*
Y171900D01*
X245500Y186600D02*
X245596Y186504D01*
X248921D01*
X246216Y193984D02*
X248921D01*
X243400Y179988D02*
Y191168D01*
Y179988D02*
X246904Y176484D01*
X249421D01*
X247100Y202504D02*
X249421D01*
X246100Y201504D02*
X247100Y202504D01*
X246100Y200700D02*
Y201504D01*
X219167Y162076D02*
X219439D01*
X221415Y160100D01*
X228900D01*
X197361Y250383D02*
X199244Y248500D01*
X192958Y250383D02*
X197361D01*
X227100Y184600D02*
X234700Y192200D01*
X275500Y177100D02*
Y203200D01*
X283500Y211200D01*
X245941Y193710D02*
X248921Y193984D01*
X243951Y195700D02*
X245941Y193710D01*
X243951Y195700D02*
Y207635D01*
X247100Y209984D01*
X249421D01*
X266700Y181800D02*
X269533Y184633D01*
Y209785D02*
X275032Y215285D01*
X259067Y172744D02*
X261400D01*
X269533Y180877D01*
X275032Y215285D02*
X277585D01*
X283500Y221200D01*
X258744Y206244D02*
X259067D01*
X155056Y248544D02*
Y248600D01*
X155112D02*
X156556D01*
X132244Y232344D02*
Y233844D01*
X242696Y169004D02*
X246900D01*
X249421D01*
X131756Y181188D02*
Y183944D01*
Y181188D02*
X132700Y180244D01*
X143944D01*
X132900Y183944D02*
Y192201D01*
X131400Y200075D02*
Y207100D01*
X134344Y207244D02*
X142992Y207100D01*
X133008Y209524D02*
X136200D01*
X144031Y207100D02*
X144057D01*
X137775Y211098D02*
X140488D01*
X250744Y128900D02*
X252700D01*
X144057Y211700D02*
X146400Y214043D01*
X158744D02*
X174700D01*
Y223100D01*
X180244Y228644D01*
X180200Y222600D02*
Y250900D01*
X145632Y227500D02*
X148788D01*
X145532Y250100D02*
X149344D01*
X180244Y235700D02*
Y250875D01*
X180200Y250900D02*
X193800Y264500D01*
X196108Y159200D02*
X207900D01*
X272900Y174500D02*
X275500Y177100D01*
X189476Y255501D02*
X192900D01*
X200244Y264744D02*
Y268744D01*
X243400Y191168D02*
X245941Y193710D01*
X246216Y193984D01*
X246300Y210784D02*
Y223760D01*
X167000Y273744D02*
Y273888D01*
X164600Y273744D02*
Y285444D01*
X167300Y235700D02*
Y237587D01*
X168344Y274044D02*
X180100Y285800D01*
X269533Y180877D02*
Y184633D01*
Y209785D01*
X258744Y202700D02*
Y206244D01*
Y216444D01*
X162400Y199400D02*
X165244Y202244D01*
X176744D01*
X179800Y205300D01*
X209424Y180867D02*
Y180924D01*
X212744Y184244D01*
Y185744D01*
X221744Y184836D02*
Y185244D01*
X213600Y176692D02*
X221744Y184836D01*
X217744Y186404D02*
Y187244D01*
X210816Y179475D02*
X217744Y186404D01*
X219844Y189344D02*
X220244Y189744D01*
X216384Y159292D02*
X218432Y157244D01*
X220200D01*
X213600Y156508D02*
X216864Y153244D01*
X220886D01*
X222300Y151830D01*
X214992Y157900D02*
X218148Y154744D01*
X223244D01*
X225900Y157400D01*
X227090D01*
X206709Y183721D02*
Y185509D01*
X207744Y186544D01*
Y188744D01*
X190800Y217300D02*
X191600D01*
X194800Y178092D02*
Y226100D01*
X236800Y174900D02*
Y193070D01*
X201330Y194300D02*
X235570D01*
X236800Y193070D01*
X203091Y183721D02*
Y190091D01*
X203244Y190244D01*
X203744D01*
X196444Y179232D02*
X197592Y178084D01*
X197644Y183599D02*
X200376Y180867D01*
X197644Y183599D02*
Y190614D01*
X201330Y194300D01*
X183244Y187244D02*
Y187941D01*
X172823Y198362D02*
X183244Y187941D01*
X163900Y181244D02*
Y197826D01*
X164437Y198362D01*
X172823D01*
X178744Y200744D02*
X187244Y192244D01*
X216384Y173908D02*
X216408D01*
X190744Y176580D02*
X193416Y173908D01*
X190744Y176580D02*
Y180944D01*
X189744Y185244D02*
Y185356D01*
X188700Y186400D02*
X189744Y185356D01*
X187244Y181244D02*
Y192244D01*
X190744Y180944D02*
X192244Y182444D01*
Y216656D01*
X191600Y217300D02*
X192244Y216656D01*
X193600Y179944D02*
Y228894D01*
X193400Y179744D02*
X193600Y179944D01*
X193400Y176708D02*
Y179744D01*
X199744Y184283D02*
X201768Y182259D01*
X199744Y184283D02*
Y188244D01*
X229571Y144744D02*
X230157Y144157D01*
X208032Y150941D02*
X213229Y145744D01*
X206709Y149479D02*
X211645Y144544D01*
X221901Y145744D02*
X230157Y154000D01*
X211645Y144544D02*
X222398D01*
X213229Y145744D02*
X221901D01*
X222398Y144544D02*
X222599Y144744D01*
X229571D01*
X209424Y152333D02*
X213012Y148744D01*
X213244D01*
Y148244D02*
Y148744D01*
X214744Y142244D02*
X215244Y142744D01*
X214744Y142244D02*
Y142244D01*
X215244Y135244D02*
Y142744D01*
X242618Y144000D02*
Y154000D01*
X192600Y149500D02*
Y150124D01*
X197592Y155116D01*
X143244Y200862D02*
X150362D01*
X152244Y202744D01*
X159087D01*
X210816Y153725D02*
X213696Y150844D01*
X217144D01*
X217744Y150244D01*
X220559Y163468D02*
X222627Y161400D01*
X224818D01*
X212208Y178084D02*
X219644Y185520D01*
Y186114D01*
X219844Y186314D01*
Y189344D01*
X163177Y176244D02*
X182729D01*
X189241Y169732D01*
X192958Y252942D02*
X197046D01*
X200444Y249544D01*
X227343Y235843D02*
X237600D01*
X200444Y248706D02*
Y249544D01*
Y248706D02*
X201205Y247944D01*
X199244Y248208D02*
Y248500D01*
Y248208D02*
X200709Y246744D01*
X198224Y245049D02*
Y245265D01*
X192958D02*
X198224D01*
X186300Y200600D02*
Y220700D01*
X192958Y240146D02*
X197842D01*
X201744Y236244D02*
X202244D01*
X197842Y240146D02*
X201744Y236244D01*
X201205Y247944D02*
X201497D01*
X214244Y243244D02*
X215244D01*
X212744Y241744D02*
X214244Y243244D01*
X201497Y247944D02*
X207697Y241744D01*
X212744D01*
X192958Y247824D02*
X197932D01*
X198224Y245049D02*
X199744Y243529D01*
Y243244D02*
Y243529D01*
X200274Y239744D02*
X201244D01*
X192958Y242706D02*
X197313D01*
X200274Y239744D01*
X197932Y247824D02*
X200411Y245344D01*
X200614D01*
X204744Y241214D01*
Y235774D02*
Y241214D01*
X195070Y226100D02*
X204744Y235774D01*
X194800Y226100D02*
X195070D01*
X196444Y179232D02*
Y224444D01*
X201244Y229244D01*
X196774Y234244D02*
X198744D01*
X190244Y224644D02*
Y225900D01*
X186300Y220700D02*
X190244Y224644D01*
X192344Y229814D02*
X196774Y234244D01*
X188700Y218700D02*
X192344Y222344D01*
Y229814D01*
X255244Y238753D02*
Y242744D01*
Y238753D02*
X257700Y236297D01*
Y221679D02*
Y236297D01*
X255244Y219223D02*
X257700Y221679D01*
X255244Y215244D02*
Y219223D01*
X232244Y202744D02*
X234744D01*
X226744Y197244D02*
X232244Y202744D01*
X201188Y197244D02*
X226744D01*
X198544Y199889D02*
X201188Y197244D01*
X187087Y237587D02*
X192958D01*
X183744Y234244D02*
X187087Y237587D01*
X220744Y178244D02*
X221744D01*
X217775Y172516D02*
X221404Y176144D01*
X222614D01*
X216408Y173908D02*
X220744Y178244D01*
X219167Y171124D02*
X219291D01*
X234700Y186533D01*
Y188100D01*
X222614Y176144D02*
X227100Y180630D01*
Y184600D01*
X214992Y175300D02*
X226244Y186552D01*
Y191244D01*
X174065Y141665D02*
X185500D01*
X141744Y164632D02*
Y166744D01*
Y164632D02*
X144132Y162244D01*
X153486D01*
X174065Y141665D01*
X128244Y199944D02*
X142300Y214000D01*
X128244Y138744D02*
Y199944D01*
Y138744D02*
X138043Y128945D01*
X164744D01*
X256244Y157844D02*
X268744Y170344D01*
X272900Y174500D01*
X252700Y128900D02*
X256244Y132444D01*
Y157844D01*
X288300Y138500D02*
Y176400D01*
X259244Y157244D02*
X269744Y167744D01*
X280044D01*
X283500Y171200D01*
X258744Y134244D02*
X264244Y128744D01*
X278544D01*
X288300Y138500D01*
X169000Y157000D02*
X171744Y154256D01*
Y150744D02*
Y154256D01*
X371744Y269244D02*
X376187Y273687D01*
X377044Y274544D02*
X386744D01*
X376187Y273687D02*
X377044Y274544D01*
X385244Y259744D02*
X385244Y259744D01*
X385244Y252744D02*
Y259744D01*
X368000Y253800D02*
X380800Y266600D01*
X385244Y252744D02*
X392744Y260244D01*
X394832D01*
X400044Y255032D01*
Y243141D02*
Y255032D01*
Y243141D02*
X407343Y235843D01*
X396114Y245344D02*
X414382Y227076D01*
Y224843D02*
Y227076D01*
X381000Y246744D02*
X410700Y217044D01*
X380709Y246744D02*
X381000D01*
X410700Y211200D02*
Y217044D01*
X405244Y245244D02*
X412244Y238244D01*
X405244Y245244D02*
Y252744D01*
X396114Y245344D02*
Y251874D01*
X422618Y142900D02*
Y144000D01*
X420218Y140500D02*
X422618Y142900D01*
X412600Y140500D02*
X420218D01*
X413455Y128945D02*
X414744D01*
X409700Y132700D02*
X413455Y128945D01*
X395244D02*
X401045D01*
X391300Y155800D02*
X391524D01*
X392208Y155116D01*
X384900Y162424D02*
X391524Y155800D01*
X360244Y260744D02*
Y267744D01*
X329344Y246444D02*
Y250100D01*
X340644Y192344D02*
X341500D01*
X325632Y227500D02*
Y228844D01*
Y224900D02*
Y227500D01*
X324055Y207082D02*
X324056D01*
X324031Y207083D02*
X324055Y207082D01*
X322992Y207100D02*
X324031Y207083D01*
Y207100D01*
X323944Y180244D02*
Y184344D01*
Y179544D02*
Y180244D01*
X311100Y207100D02*
X311400D01*
X311756Y183944D02*
X312900D01*
X429400Y232205D02*
X430364Y231240D01*
X426583Y235022D02*
X429400Y232205D01*
X431900Y231240D02*
X433824D01*
X430364D02*
X431900D01*
X347144Y273744D02*
X348644D01*
X349544Y234044D02*
X352444D01*
X348956D02*
X349544D01*
X347000Y273744D02*
X347144D01*
X344600D02*
X347000D01*
X352444Y234044D02*
X352700D01*
X346644D02*
X348956D01*
X330244Y207744D02*
X338744D01*
X380246Y149418D02*
X381768Y150941D01*
X380246Y143076D02*
Y149418D01*
X372414Y135244D02*
X380246Y143076D01*
X360744Y135244D02*
X372414D01*
X343900Y181244D02*
X345650D01*
X356244Y242983D02*
Y268744D01*
X324031Y205587D02*
X324056Y207082D01*
X426583Y235022D02*
Y246681D01*
X429400Y229705D02*
Y232205D01*
X364500Y143895D02*
Y158727D01*
X369241Y163468D01*
X463500Y181200D02*
X468300Y176400D01*
X363987Y168409D02*
X367779D01*
X414382Y224843D02*
X417600D01*
X413941Y225283D02*
X414382Y224843D01*
X331744Y166744D02*
X335385Y163103D01*
X364812D01*
X366500Y164791D01*
X367779D01*
X323244Y189356D02*
Y190626D01*
Y189356D02*
X324031Y188569D01*
Y185901D02*
Y188569D01*
X368700Y186400D02*
Y218700D01*
X365500Y141665D02*
X367425Y143590D01*
Y147875D01*
X365700Y149600D02*
X367425Y147875D01*
X365700Y149600D02*
Y154360D01*
X372025Y160684D01*
X347300Y235700D02*
X348956Y234044D01*
X347300Y237587D02*
X349730D01*
X404628Y165100D02*
X412600D01*
X404318Y164791D02*
X404628Y165100D01*
X402021Y164791D02*
X404318D01*
X328788Y227500D02*
X329644Y226644D01*
X430744Y135244D02*
Y151189D01*
X424533Y157400D02*
X430744Y151189D01*
X407090Y157400D02*
X424533D01*
X374906Y230200D02*
X375700D01*
X373600Y228894D02*
X374906Y230200D01*
X373400Y176708D02*
X374808Y175300D01*
X374800Y178092D02*
X376200Y176692D01*
X311400Y200075D02*
X311433D01*
X409700Y132700D02*
Y137300D01*
X404818Y161400D02*
X406418Y163000D01*
X352056Y192344D02*
X353100Y191300D01*
X347368Y192344D02*
X352056D01*
X354744Y214043D02*
X359800D01*
Y205300D02*
Y214043D01*
X342400Y194100D02*
Y199400D01*
X340644Y192344D02*
X342400Y194100D01*
X337920Y192344D02*
X340644D01*
X374700Y141400D02*
Y149440D01*
X378984Y153725D01*
X342500Y176921D02*
X343177Y176244D01*
X342500Y176921D02*
Y191344D01*
X341500Y192344D02*
X342500Y191344D01*
X345044Y166256D02*
X346000Y165300D01*
X345044Y166256D02*
Y175044D01*
X336700D02*
X345044D01*
X331300Y180444D02*
X336700Y175044D01*
X331300Y180444D02*
Y191185D01*
X329300Y193185D02*
X331300Y191185D01*
X323244Y193185D02*
X329300D01*
X372600Y153100D02*
X372792D01*
X376200Y156508D01*
X368900Y152400D02*
X370500Y154000D01*
Y156376D01*
X373416Y159292D01*
X377900Y146186D02*
Y149856D01*
X380376Y152333D01*
X384900Y166600D02*
X386292D01*
X394992Y175300D01*
X370000Y168800D02*
X382700D01*
X384900Y166600D01*
X387900Y159200D02*
X391300Y155800D01*
X374808Y157900D02*
X376108Y159200D01*
X384900Y162424D02*
Y166600D01*
X431900Y223760D02*
X433824D01*
X431100Y224560D02*
X431900Y223760D01*
X431100Y224560D02*
Y230440D01*
X431900Y231240D01*
X401045Y128945D02*
X412600Y140500D01*
X406188Y285800D02*
X415744Y276244D01*
X354906Y157000D02*
X357600D01*
X358000Y156600D01*
X334600Y181244D02*
X339744D01*
X354700Y214043D02*
X354744D01*
X323944Y179544D02*
X331744Y171744D01*
X348430Y259958D02*
X349730D01*
X346744Y261644D02*
X348430Y259958D01*
X352700Y234044D02*
X353783Y232961D01*
Y230244D02*
Y232961D01*
X325532Y248544D02*
Y250100D01*
X326400Y214043D02*
X338744D01*
X324057Y207187D02*
Y211700D01*
X311433Y192201D02*
X312900D01*
X316200Y209524D02*
X317775Y211098D01*
X346844Y274044D02*
X347000D01*
X312244Y252544D02*
Y253844D01*
X312044Y252344D02*
X312244Y252544D01*
X312044Y232344D02*
X312244D01*
X324057Y207100D02*
Y207187D01*
X307200Y211000D02*
X311100Y207100D01*
X307200Y211000D02*
Y224900D01*
X309500Y227200D01*
X314000D01*
X316300Y224900D01*
X325632D01*
X321244Y246244D02*
Y250244D01*
X344600Y285444D02*
X347944D01*
X329244Y246344D02*
X329344Y246444D01*
X317600Y247200D02*
X320944Y250544D01*
X309100Y247200D02*
X317600D01*
X307200Y245300D02*
X309100Y247200D01*
X307200Y229300D02*
Y245300D01*
Y229300D02*
X309000Y227500D01*
X317700D01*
X321044Y230844D01*
Y226544D02*
Y230844D01*
X376244Y264744D02*
Y268744D01*
X336556Y248544D02*
Y248600D01*
X338744Y207744D02*
X354886D01*
X379102Y135244D02*
X395244D01*
X414602D02*
X430744D01*
X344602D02*
X360744D01*
X414744Y128945D02*
X430744D01*
X379244D02*
X395244D01*
X360744D02*
X379244D01*
X344744D02*
X360744D01*
X324031Y185087D02*
Y185901D01*
X323944Y185000D02*
X324031Y185087D01*
X323944Y184344D02*
Y185000D01*
X311433Y192201D02*
Y200075D01*
X365675Y251700D02*
X369476Y255501D01*
X347368Y196084D02*
X353404D01*
X355244Y194244D01*
Y189296D02*
Y194244D01*
Y189296D02*
X372025Y172516D01*
X410157Y154000D02*
X417697D01*
X410157Y144157D02*
X413800D01*
X413957Y144000D01*
X417697D01*
X420400Y230157D02*
X421483Y231240D01*
X424376D01*
X417600Y230157D02*
X418630D01*
X421300Y232827D01*
Y239400D01*
X419543Y241157D02*
X421300Y239400D01*
X417600Y241157D02*
X419543D01*
X418630Y230157D02*
X420400D01*
X365675Y250875D02*
Y251700D01*
X335056Y248600D02*
X335112D01*
X347000Y273888D02*
Y274044D01*
X360100Y285800D02*
X405588D01*
X406188D01*
X417600Y224843D02*
X420400D01*
X421483Y223760D01*
X424376D01*
X426300Y210784D02*
X427100Y209984D01*
X424376Y223760D02*
X426300D01*
X416800Y174900D02*
X422696Y169004D01*
X379300Y181944D02*
X380376Y180867D01*
X402021Y168409D02*
X410500D01*
X432200Y162700D02*
Y218500D01*
X427500Y223200D02*
X432200Y218500D01*
X427500Y223200D02*
Y226500D01*
X427300Y226700D02*
X427500Y226500D01*
X427300Y226700D02*
Y232607D01*
X423900Y236007D02*
X427300Y232607D01*
X423900Y236007D02*
Y237200D01*
X438744Y216444D02*
X463500Y241200D01*
X435100Y190400D02*
X435256Y190244D01*
X438567D01*
X449100Y251200D02*
X463500D01*
X448518Y250618D02*
X449100Y251200D01*
X435244Y250618D02*
X448518D01*
X428921Y196721D02*
X429100Y196900D01*
X428921Y193984D02*
Y196721D01*
X418900Y186044D02*
Y220700D01*
X452900Y174500D02*
Y205200D01*
X438567Y190244D02*
X443444D01*
X447300Y194100D01*
Y207700D01*
X448065Y208465D01*
Y211097D01*
X456000Y219032D01*
Y223700D01*
X463500Y231200D01*
X400559Y169732D02*
X403323Y172496D01*
X414404D01*
X426500Y160400D01*
X435100D01*
X450733Y176033D01*
Y206900D01*
X452418Y208585D01*
X454047D01*
X461461Y216000D01*
X466300D01*
X468300Y214000D01*
Y202100D02*
Y214000D01*
X467400Y201200D02*
X468300Y202100D01*
X463500Y201200D02*
X467400D01*
X433824Y227500D02*
X436500D01*
Y235800D01*
X430900Y241400D02*
X436500Y235800D01*
X430900Y241400D02*
Y256300D01*
X420600Y266600D02*
X430900Y256300D01*
X380800Y266600D02*
X420600D01*
X425900Y172900D02*
X426900Y171900D01*
Y169004D02*
Y171900D01*
X425500Y186600D02*
X425596Y186504D01*
X428921D01*
X426216Y193984D02*
X428921D01*
X423400Y179988D02*
Y191168D01*
Y179988D02*
X426904Y176484D01*
X429421D01*
X427100Y202504D02*
X429421D01*
X426100Y201504D02*
X427100Y202504D01*
X426100Y200700D02*
Y201504D01*
X399167Y162076D02*
X399439D01*
X401415Y160100D01*
X408900D01*
X377361Y250383D02*
X379244Y248500D01*
X372958Y250383D02*
X377361D01*
X407100Y184600D02*
X414700Y192200D01*
X455500Y177100D02*
Y203200D01*
X463500Y211200D01*
X425941Y193710D02*
X428921Y193984D01*
X423951Y195700D02*
X425941Y193710D01*
X423951Y195700D02*
Y207635D01*
X427100Y209984D01*
X429421D01*
X446700Y181800D02*
X449533Y184633D01*
Y209785D02*
X455032Y215285D01*
X439067Y172744D02*
X441400D01*
X449533Y180877D01*
X455032Y215285D02*
X457585D01*
X463500Y221200D01*
X438744Y206244D02*
X439067D01*
X335056Y248544D02*
Y248600D01*
X335112D02*
X336556D01*
X312244Y232344D02*
Y233844D01*
X422696Y169004D02*
X426900D01*
X429421D01*
X311756Y181188D02*
Y183944D01*
Y181188D02*
X312700Y180244D01*
X323944D01*
X312900Y183944D02*
Y192201D01*
X311400Y200075D02*
Y207100D01*
X314344Y207244D02*
X322992Y207100D01*
X313008Y209524D02*
X316200D01*
X324031Y207100D02*
X324057D01*
X317775Y211098D02*
X320488D01*
X430744Y128900D02*
X432700D01*
X324057Y211700D02*
X326400Y214043D01*
X338744D02*
X354700D01*
Y223100D01*
X360244Y228644D01*
X360200Y222600D02*
Y250900D01*
X325632Y227500D02*
X328788D01*
X325532Y250100D02*
X329344D01*
X360244Y235700D02*
Y250875D01*
X360200Y250900D02*
X373800Y264500D01*
X376108Y159200D02*
X387900D01*
X452900Y174500D02*
X455500Y177100D01*
X369476Y255501D02*
X372900D01*
X380244Y264744D02*
Y268744D01*
X423400Y191168D02*
X425941Y193710D01*
X426216Y193984D01*
X426300Y210784D02*
Y223760D01*
X347000Y273744D02*
Y273888D01*
X344600Y273744D02*
Y285444D01*
X347300Y235700D02*
Y237587D01*
X348344Y274044D02*
X360100Y285800D01*
X449533Y180877D02*
Y184633D01*
Y209785D01*
X438744Y202700D02*
Y206244D01*
Y216444D01*
X342400Y199400D02*
X345244Y202244D01*
X356744D01*
X359800Y205300D01*
X389424Y180867D02*
Y180924D01*
X392744Y184244D01*
Y185744D01*
X401744Y184836D02*
Y185244D01*
X393600Y176692D02*
X401744Y184836D01*
X397744Y186404D02*
Y187244D01*
X390816Y179475D02*
X397744Y186404D01*
X399844Y189344D02*
X400244Y189744D01*
X396384Y159292D02*
X398432Y157244D01*
X400200D01*
X393600Y156508D02*
X396864Y153244D01*
X400886D01*
X402300Y151830D01*
X394992Y157900D02*
X398148Y154744D01*
X403244D01*
X405900Y157400D01*
X407090D01*
X386709Y183721D02*
Y185509D01*
X387744Y186544D01*
Y188744D01*
X370800Y217300D02*
X371600D01*
X374800Y178092D02*
Y226100D01*
X416800Y174900D02*
Y193070D01*
X381330Y194300D02*
X415570D01*
X416800Y193070D01*
X383091Y183721D02*
Y190091D01*
X383244Y190244D01*
X383744D01*
X376444Y179232D02*
X377592Y178084D01*
X377644Y183599D02*
X380376Y180867D01*
X377644Y183599D02*
Y190614D01*
X381330Y194300D01*
X363244Y187244D02*
Y187941D01*
X352823Y198362D02*
X363244Y187941D01*
X343900Y181244D02*
Y197826D01*
X344437Y198362D01*
X352823D01*
X358744Y200744D02*
X367244Y192244D01*
X396384Y173908D02*
X396408D01*
X370744Y176580D02*
X373416Y173908D01*
X370744Y176580D02*
Y180944D01*
X369744Y185244D02*
Y185356D01*
X368700Y186400D02*
X369744Y185356D01*
X367244Y181244D02*
Y192244D01*
X370744Y180944D02*
X372244Y182444D01*
Y216656D01*
X371600Y217300D02*
X372244Y216656D01*
X373600Y179944D02*
Y228894D01*
X373400Y179744D02*
X373600Y179944D01*
X373400Y176708D02*
Y179744D01*
X379744Y184283D02*
X381768Y182259D01*
X379744Y184283D02*
Y188244D01*
X409571Y144744D02*
X410157Y144157D01*
X388032Y150941D02*
X393229Y145744D01*
X386709Y149479D02*
X391645Y144544D01*
X401901Y145744D02*
X410157Y154000D01*
X391645Y144544D02*
X402398D01*
X393229Y145744D02*
X401901D01*
X402398Y144544D02*
X402598Y144744D01*
X409571D01*
X389424Y152333D02*
X393012Y148744D01*
X393244D01*
Y148244D02*
Y148744D01*
X394744Y142244D02*
X395244Y142744D01*
X394744Y142244D02*
Y142244D01*
X395244Y135244D02*
Y142744D01*
X422618Y144000D02*
Y154000D01*
X372600Y149500D02*
Y150124D01*
X377592Y155116D01*
X323244Y200862D02*
X330362D01*
X332244Y202744D01*
X339087D01*
X390816Y153725D02*
X393696Y150844D01*
X397144D01*
X397744Y150244D01*
X400559Y163468D02*
X402627Y161400D01*
X404818D01*
X392208Y178084D02*
X399644Y185520D01*
Y186114D01*
X399844Y186314D01*
Y189344D01*
X343177Y176244D02*
X362729D01*
X369241Y169732D01*
X372958Y252942D02*
X377046D01*
X380444Y249544D01*
X407343Y235843D02*
X417600D01*
X380444Y248706D02*
Y249544D01*
Y248706D02*
X381206Y247944D01*
X379244Y248208D02*
Y248500D01*
Y248208D02*
X380709Y246744D01*
X378224Y245049D02*
Y245265D01*
X372958D02*
X378224D01*
X366300Y200600D02*
Y220700D01*
X372958Y240146D02*
X377842D01*
X381744Y236244D02*
X382244D01*
X377842Y240146D02*
X381744Y236244D01*
X381206Y247944D02*
X381497D01*
X394244Y243244D02*
X395244D01*
X392744Y241744D02*
X394244Y243244D01*
X381497Y247944D02*
X387697Y241744D01*
X392744D01*
X372958Y247824D02*
X377932D01*
X378224Y245049D02*
X379744Y243529D01*
Y243244D02*
Y243529D01*
X380274Y239744D02*
X381244D01*
X372958Y242706D02*
X377313D01*
X380274Y239744D01*
X377932Y247824D02*
X380411Y245344D01*
X380614D01*
X384744Y241214D01*
Y235774D02*
Y241214D01*
X375070Y226100D02*
X384744Y235774D01*
X374800Y226100D02*
X375070D01*
X376444Y179232D02*
Y224444D01*
X381244Y229244D01*
X376774Y234244D02*
X378744D01*
X370244Y224644D02*
Y225900D01*
X366300Y220700D02*
X370244Y224644D01*
X372344Y229814D02*
X376774Y234244D01*
X368700Y218700D02*
X372344Y222344D01*
Y229814D01*
X435244Y238753D02*
Y242744D01*
Y238753D02*
X437700Y236297D01*
Y221679D02*
Y236297D01*
X435244Y219223D02*
X437700Y221679D01*
X435244Y215244D02*
Y219223D01*
X412244Y202744D02*
X414744D01*
X406744Y197244D02*
X412244Y202744D01*
X381189Y197244D02*
X406744D01*
X378544Y199889D02*
X381189Y197244D01*
X367087Y237587D02*
X372958D01*
X363744Y234244D02*
X367087Y237587D01*
X400744Y178244D02*
X401744D01*
X397775Y172516D02*
X401404Y176144D01*
X402614D01*
X396408Y173908D02*
X400744Y178244D01*
X399167Y171124D02*
X399291D01*
X414700Y186533D01*
Y188100D01*
X402614Y176144D02*
X407100Y180630D01*
Y184600D01*
X394992Y175300D02*
X406244Y186552D01*
Y191244D01*
X354065Y141665D02*
X365500D01*
X321744Y164632D02*
Y166744D01*
Y164632D02*
X324132Y162244D01*
X333486D01*
X354065Y141665D01*
X308244Y199944D02*
X322300Y214000D01*
X308244Y138744D02*
Y199944D01*
Y138744D02*
X318043Y128945D01*
X344744D01*
X436244Y157844D02*
X448744Y170344D01*
X452900Y174500D01*
X432700Y128900D02*
X436244Y132444D01*
Y157844D01*
X468300Y138500D02*
Y176400D01*
X439244Y157244D02*
X449744Y167744D01*
X460044D01*
X463500Y171200D01*
X438744Y134244D02*
X444244Y128744D01*
X458544D01*
X468300Y138500D01*
X349000Y157000D02*
X351744Y154256D01*
Y150744D02*
Y154256D01*
X191744Y449244D02*
X196187Y453687D01*
X197044Y454544D02*
X206744D01*
X196187Y453687D02*
X197044Y454544D01*
X205244Y439744D02*
X205244Y439744D01*
X205244Y432744D02*
Y439744D01*
X188000Y433800D02*
X200800Y446600D01*
X205244Y432744D02*
X212744Y440244D01*
X214832D01*
X220044Y435032D01*
Y423141D02*
Y435032D01*
Y423141D02*
X227343Y415843D01*
X216114Y425344D02*
X234382Y407076D01*
Y404843D02*
Y407076D01*
X201000Y426744D02*
X230700Y397044D01*
X200709Y426744D02*
X201000D01*
X230700Y391200D02*
Y397044D01*
X225244Y425244D02*
X232244Y418244D01*
X225244Y425244D02*
Y432744D01*
X216114Y425344D02*
Y431874D01*
X242618Y322900D02*
Y324000D01*
X240218Y320500D02*
X242618Y322900D01*
X232600Y320500D02*
X240218D01*
X233455Y308945D02*
X234744D01*
X229700Y312700D02*
X233455Y308945D01*
X215244D02*
X221045D01*
X211300Y335800D02*
X211524D01*
X212208Y335116D01*
X204900Y342424D02*
X211524Y335800D01*
X180244Y440744D02*
Y447744D01*
X149344Y426444D02*
Y430100D01*
X160644Y372344D02*
X161500D01*
X145632Y407500D02*
Y408844D01*
Y404900D02*
Y407500D01*
X144055Y387082D02*
X144056D01*
X144031Y387083D02*
X144055Y387082D01*
X142992Y387100D02*
X144031Y387083D01*
Y387100D01*
X143944Y360244D02*
Y364344D01*
Y359544D02*
Y360244D01*
X131100Y387100D02*
X131400D01*
X131756Y363944D02*
X132900D01*
X249400Y412205D02*
X250364Y411240D01*
X246583Y415022D02*
X249400Y412205D01*
X251900Y411240D02*
X253824D01*
X250364D02*
X251900D01*
X167144Y453744D02*
X168644D01*
X169544Y414044D02*
X172444D01*
X168956D02*
X169544D01*
X167000Y453744D02*
X167144D01*
X164600D02*
X167000D01*
X172444Y414044D02*
X172700D01*
X166644D02*
X168956D01*
X150244Y387744D02*
X158744D01*
X200246Y329418D02*
X201768Y330941D01*
X200246Y323076D02*
Y329418D01*
X192414Y315244D02*
X200246Y323076D01*
X180744Y315244D02*
X192414D01*
X163900Y361244D02*
X165650D01*
X176244Y422983D02*
Y448744D01*
X144031Y385587D02*
X144056Y387082D01*
X246583Y415022D02*
Y426681D01*
X249400Y409705D02*
Y412205D01*
X184500Y323895D02*
Y338727D01*
X189241Y343468D01*
X283500Y361200D02*
X288300Y356400D01*
X183987Y348409D02*
X187779D01*
X234382Y404843D02*
X237600D01*
X233941Y405283D02*
X234382Y404843D01*
X151744Y346744D02*
X155385Y343103D01*
X184812D01*
X186500Y344791D01*
X187779D01*
X143244Y369356D02*
Y370626D01*
Y369356D02*
X144031Y368569D01*
Y365901D02*
Y368569D01*
X188700Y366400D02*
Y398700D01*
X185500Y321665D02*
X187425Y323590D01*
Y327875D01*
X185700Y329600D02*
X187425Y327875D01*
X185700Y329600D02*
Y334360D01*
X192025Y340684D01*
X167300Y415700D02*
X168956Y414044D01*
X167300Y417587D02*
X169730D01*
X224628Y345100D02*
X232600D01*
X224318Y344791D02*
X224628Y345100D01*
X222021Y344791D02*
X224318D01*
X148788Y407500D02*
X149644Y406644D01*
X250744Y315244D02*
Y331189D01*
X244533Y337400D02*
X250744Y331189D01*
X227090Y337400D02*
X244533D01*
X194906Y410200D02*
X195700D01*
X193600Y408894D02*
X194906Y410200D01*
X193400Y356708D02*
X194808Y355300D01*
X194800Y358092D02*
X196200Y356692D01*
X131400Y380075D02*
X131433D01*
X229700Y312700D02*
Y317300D01*
X224818Y341400D02*
X226418Y343000D01*
X172056Y372344D02*
X173100Y371300D01*
X167368Y372344D02*
X172056D01*
X174744Y394043D02*
X179800D01*
Y385300D02*
Y394043D01*
X162400Y374100D02*
Y379400D01*
X160644Y372344D02*
X162400Y374100D01*
X157920Y372344D02*
X160644D01*
X194700Y321400D02*
Y329440D01*
X198984Y333725D01*
X162500Y356921D02*
X163177Y356244D01*
X162500Y356921D02*
Y371344D01*
X161500Y372344D02*
X162500Y371344D01*
X165044Y346256D02*
X166000Y345300D01*
X165044Y346256D02*
Y355044D01*
X156700D02*
X165044D01*
X151300Y360444D02*
X156700Y355044D01*
X151300Y360444D02*
Y371185D01*
X149300Y373185D02*
X151300Y371185D01*
X143244Y373185D02*
X149300D01*
X192600Y333100D02*
X192792D01*
X196200Y336508D01*
X188900Y332400D02*
X190500Y334000D01*
Y336376D01*
X193416Y339292D01*
X197900Y326186D02*
Y329856D01*
X200376Y332333D01*
X204900Y346600D02*
X206292D01*
X214992Y355300D01*
X190000Y348800D02*
X202700D01*
X204900Y346600D01*
X207900Y339200D02*
X211300Y335800D01*
X194808Y337900D02*
X196108Y339200D01*
X204900Y342424D02*
Y346600D01*
X251900Y403760D02*
X253824D01*
X251100Y404560D02*
X251900Y403760D01*
X251100Y404560D02*
Y410440D01*
X251900Y411240D01*
X221045Y308945D02*
X232600Y320500D01*
X226188Y465800D02*
X235744Y456244D01*
X174906Y337000D02*
X177600D01*
X178000Y336600D01*
X154600Y361244D02*
X159744D01*
X174700Y394043D02*
X174744D01*
X143944Y359544D02*
X151744Y351744D01*
X168430Y439958D02*
X169730D01*
X166744Y441644D02*
X168430Y439958D01*
X172700Y414044D02*
X173783Y412961D01*
Y410244D02*
Y412961D01*
X145532Y428544D02*
Y430100D01*
X146400Y394043D02*
X158744D01*
X144057Y387187D02*
Y391700D01*
X131433Y372201D02*
X132900D01*
X136200Y389524D02*
X137775Y391098D01*
X166844Y454044D02*
X167000D01*
X132244Y432544D02*
Y433844D01*
X132044Y432344D02*
X132244Y432544D01*
X132044Y412344D02*
X132244D01*
X144057Y387100D02*
Y387187D01*
X127200Y391000D02*
X131100Y387100D01*
X127200Y391000D02*
Y404900D01*
X129500Y407200D01*
X134000D01*
X136300Y404900D01*
X145632D01*
X141244Y426244D02*
Y430244D01*
X164600Y465444D02*
X167944D01*
X149244Y426344D02*
X149344Y426444D01*
X137600Y427200D02*
X140944Y430544D01*
X129100Y427200D02*
X137600D01*
X127200Y425300D02*
X129100Y427200D01*
X127200Y409300D02*
Y425300D01*
Y409300D02*
X129000Y407500D01*
X137700D01*
X141044Y410844D01*
Y406544D02*
Y410844D01*
X196244Y444744D02*
Y448744D01*
X156556Y428544D02*
Y428600D01*
X158744Y387744D02*
X174886D01*
X199102Y315244D02*
X215244D01*
X234602D02*
X250744D01*
X164602D02*
X180744D01*
X234744Y308945D02*
X250744D01*
X199244D02*
X215244D01*
X180744D02*
X199244D01*
X164744D02*
X180744D01*
X144031Y365087D02*
Y365901D01*
X143944Y365000D02*
X144031Y365087D01*
X143944Y364344D02*
Y365000D01*
X131433Y372201D02*
Y380075D01*
X185675Y431700D02*
X189476Y435501D01*
X167368Y376084D02*
X173404D01*
X175244Y374244D01*
Y369296D02*
Y374244D01*
Y369296D02*
X192025Y352516D01*
X230157Y334000D02*
X237697D01*
X230157Y324157D02*
X233800D01*
X233957Y324000D01*
X237697D01*
X240400Y410157D02*
X241483Y411240D01*
X244376D01*
X237600Y410157D02*
X238630D01*
X241300Y412827D01*
Y419400D01*
X239543Y421157D02*
X241300Y419400D01*
X237600Y421157D02*
X239543D01*
X238630Y410157D02*
X240400D01*
X185675Y430875D02*
Y431700D01*
X155056Y428600D02*
X155112D01*
X167000Y453888D02*
Y454044D01*
X180100Y465800D02*
X225588D01*
X226188D01*
X237600Y404843D02*
X240400D01*
X241483Y403760D01*
X244376D01*
X246300Y390784D02*
X247100Y389984D01*
X244376Y403760D02*
X246300D01*
X236800Y354900D02*
X242696Y349004D01*
X199300Y361944D02*
X200376Y360867D01*
X222021Y348409D02*
X230500D01*
X252200Y342700D02*
Y398500D01*
X247500Y403200D02*
X252200Y398500D01*
X247500Y403200D02*
Y406500D01*
X247300Y406700D02*
X247500Y406500D01*
X247300Y406700D02*
Y412607D01*
X243900Y416007D02*
X247300Y412607D01*
X243900Y416007D02*
Y417200D01*
X258744Y396444D02*
X283500Y421200D01*
X255100Y370400D02*
X255256Y370244D01*
X258567D01*
X269100Y431200D02*
X283500D01*
X268518Y430618D02*
X269100Y431200D01*
X255244Y430618D02*
X268518D01*
X248921Y376721D02*
X249100Y376900D01*
X248921Y373984D02*
Y376721D01*
X238900Y366044D02*
Y400700D01*
X272900Y354500D02*
Y385200D01*
X258567Y370244D02*
X263444D01*
X267300Y374100D01*
Y387700D01*
X268065Y388465D01*
Y391097D01*
X276000Y399032D01*
Y403700D01*
X283500Y411200D01*
X220559Y349732D02*
X223323Y352496D01*
X234404D01*
X246500Y340400D01*
X255100D01*
X270733Y356033D01*
Y386900D01*
X272418Y388585D01*
X274047D01*
X281461Y396000D01*
X286300D01*
X288300Y394000D01*
Y382100D02*
Y394000D01*
X287400Y381200D02*
X288300Y382100D01*
X283500Y381200D02*
X287400D01*
X253824Y407500D02*
X256500D01*
Y415800D01*
X250900Y421400D02*
X256500Y415800D01*
X250900Y421400D02*
Y436300D01*
X240600Y446600D02*
X250900Y436300D01*
X200800Y446600D02*
X240600D01*
X245900Y352900D02*
X246900Y351900D01*
Y349004D02*
Y351900D01*
X245500Y366600D02*
X245596Y366504D01*
X248921D01*
X246216Y373984D02*
X248921D01*
X243400Y359988D02*
Y371168D01*
Y359988D02*
X246904Y356484D01*
X249421D01*
X247100Y382504D02*
X249421D01*
X246100Y381504D02*
X247100Y382504D01*
X246100Y380700D02*
Y381504D01*
X219167Y342076D02*
X219439D01*
X221415Y340100D01*
X228900D01*
X197361Y430383D02*
X199244Y428500D01*
X192958Y430383D02*
X197361D01*
X227100Y364600D02*
X234700Y372200D01*
X275500Y357100D02*
Y383200D01*
X283500Y391200D01*
X245941Y373710D02*
X248921Y373984D01*
X243951Y375700D02*
X245941Y373710D01*
X243951Y375700D02*
Y387635D01*
X247100Y389984D01*
X249421D01*
X266700Y361800D02*
X269533Y364633D01*
Y389785D02*
X275032Y395285D01*
X259067Y352744D02*
X261400D01*
X269533Y360877D01*
X275032Y395285D02*
X277585D01*
X283500Y401200D01*
X258744Y386244D02*
X259067D01*
X155056Y428544D02*
Y428600D01*
X155112D02*
X156556D01*
X132244Y412344D02*
Y413844D01*
X242696Y349004D02*
X246900D01*
X249421D01*
X131756Y361188D02*
Y363944D01*
Y361188D02*
X132700Y360244D01*
X143944D01*
X132900Y363944D02*
Y372201D01*
X131400Y380075D02*
Y387100D01*
X134344Y387244D02*
X142992Y387100D01*
X133008Y389524D02*
X136200D01*
X144031Y387100D02*
X144057D01*
X137775Y391098D02*
X140488D01*
X250744Y308900D02*
X252700D01*
X144057Y391700D02*
X146400Y394043D01*
X158744D02*
X174700D01*
Y403100D01*
X180244Y408644D01*
X180200Y402600D02*
Y430900D01*
X145632Y407500D02*
X148788D01*
X145532Y430100D02*
X149344D01*
X180244Y415700D02*
Y430875D01*
X180200Y430900D02*
X193800Y444500D01*
X196108Y339200D02*
X207900D01*
X272900Y354500D02*
X275500Y357100D01*
X189476Y435501D02*
X192900D01*
X200244Y444744D02*
Y448744D01*
X243400Y371168D02*
X245941Y373710D01*
X246216Y373984D01*
X246300Y390784D02*
Y403760D01*
X167000Y453744D02*
Y453888D01*
X164600Y453744D02*
Y465444D01*
X167300Y415700D02*
Y417587D01*
X168344Y454044D02*
X180100Y465800D01*
X269533Y360877D02*
Y364633D01*
Y389785D01*
X258744Y382700D02*
Y386244D01*
Y396444D01*
X162400Y379400D02*
X165244Y382244D01*
X176744D01*
X179800Y385300D01*
X209424Y360867D02*
Y360924D01*
X212744Y364244D01*
Y365744D01*
X221744Y364836D02*
Y365244D01*
X213600Y356692D02*
X221744Y364836D01*
X217744Y366404D02*
Y367244D01*
X210816Y359475D02*
X217744Y366404D01*
X219844Y369344D02*
X220244Y369744D01*
X216384Y339292D02*
X218432Y337244D01*
X220200D01*
X213600Y336508D02*
X216864Y333244D01*
X220886D01*
X222300Y331830D01*
X214992Y337900D02*
X218148Y334744D01*
X223244D01*
X225900Y337400D01*
X227090D01*
X206709Y363721D02*
Y365509D01*
X207744Y366544D01*
Y368744D01*
X190800Y397300D02*
X191600D01*
X194800Y358092D02*
Y406100D01*
X236800Y354900D02*
Y373070D01*
X201330Y374300D02*
X235570D01*
X236800Y373070D01*
X203091Y363721D02*
Y370091D01*
X203244Y370244D01*
X203744D01*
X196444Y359232D02*
X197592Y358084D01*
X197644Y363599D02*
X200376Y360867D01*
X197644Y363599D02*
Y370614D01*
X201330Y374300D01*
X183244Y367244D02*
Y367941D01*
X172823Y378362D02*
X183244Y367941D01*
X163900Y361244D02*
Y377826D01*
X164437Y378362D01*
X172823D01*
X178744Y380744D02*
X187244Y372244D01*
X216384Y353908D02*
X216408D01*
X190744Y356580D02*
X193416Y353908D01*
X190744Y356580D02*
Y360944D01*
X189744Y365244D02*
Y365356D01*
X188700Y366400D02*
X189744Y365356D01*
X187244Y361244D02*
Y372244D01*
X190744Y360944D02*
X192244Y362444D01*
Y396656D01*
X191600Y397300D02*
X192244Y396656D01*
X193600Y359944D02*
Y408894D01*
X193400Y359744D02*
X193600Y359944D01*
X193400Y356708D02*
Y359744D01*
X199744Y364283D02*
X201768Y362259D01*
X199744Y364283D02*
Y368244D01*
X229571Y324744D02*
X230157Y324157D01*
X208032Y330941D02*
X213229Y325744D01*
X206709Y329479D02*
X211645Y324544D01*
X221901Y325744D02*
X230157Y334000D01*
X211645Y324544D02*
X222398D01*
X213229Y325744D02*
X221901D01*
X222398Y324544D02*
X222599Y324744D01*
X229571D01*
X209424Y332333D02*
X213012Y328744D01*
X213244D01*
Y328244D02*
Y328744D01*
X214744Y322244D02*
X215244Y322744D01*
X214744Y322244D02*
Y322244D01*
X215244Y315244D02*
Y322744D01*
X242618Y324000D02*
Y334000D01*
X192600Y329500D02*
Y330124D01*
X197592Y335116D01*
X143244Y380862D02*
X150362D01*
X152244Y382744D01*
X159087D01*
X210816Y333725D02*
X213696Y330844D01*
X217144D01*
X217744Y330244D01*
X220559Y343468D02*
X222627Y341400D01*
X224818D01*
X212208Y358084D02*
X219644Y365520D01*
Y366114D01*
X219844Y366314D01*
Y369344D01*
X163177Y356244D02*
X182729D01*
X189241Y349732D01*
X192958Y432942D02*
X197046D01*
X200444Y429544D01*
X227343Y415843D02*
X237600D01*
X200444Y428706D02*
Y429544D01*
Y428706D02*
X201205Y427944D01*
X199244Y428208D02*
Y428500D01*
Y428208D02*
X200709Y426744D01*
X198224Y425049D02*
Y425265D01*
X192958D02*
X198224D01*
X186300Y380600D02*
Y400700D01*
X192958Y420146D02*
X197842D01*
X201744Y416244D02*
X202244D01*
X197842Y420146D02*
X201744Y416244D01*
X201205Y427944D02*
X201497D01*
X214244Y423244D02*
X215244D01*
X212744Y421744D02*
X214244Y423244D01*
X201497Y427944D02*
X207697Y421744D01*
X212744D01*
X192958Y427824D02*
X197932D01*
X198224Y425049D02*
X199744Y423529D01*
Y423244D02*
Y423529D01*
X200274Y419744D02*
X201244D01*
X192958Y422706D02*
X197313D01*
X200274Y419744D01*
X197932Y427824D02*
X200411Y425344D01*
X200614D01*
X204744Y421214D01*
Y415774D02*
Y421214D01*
X195070Y406100D02*
X204744Y415774D01*
X194800Y406100D02*
X195070D01*
X196444Y359232D02*
Y404444D01*
X201244Y409244D01*
X196774Y414244D02*
X198744D01*
X190244Y404644D02*
Y405900D01*
X186300Y400700D02*
X190244Y404644D01*
X192344Y409814D02*
X196774Y414244D01*
X188700Y398700D02*
X192344Y402344D01*
Y409814D01*
X255244Y418753D02*
Y422744D01*
Y418753D02*
X257700Y416297D01*
Y401679D02*
Y416297D01*
X255244Y399223D02*
X257700Y401679D01*
X255244Y395244D02*
Y399223D01*
X232244Y382744D02*
X234744D01*
X226744Y377244D02*
X232244Y382744D01*
X201188Y377244D02*
X226744D01*
X198544Y379889D02*
X201188Y377244D01*
X187087Y417587D02*
X192958D01*
X183744Y414244D02*
X187087Y417587D01*
X220744Y358244D02*
X221744D01*
X217775Y352516D02*
X221404Y356144D01*
X222614D01*
X216408Y353908D02*
X220744Y358244D01*
X219167Y351124D02*
X219291D01*
X234700Y366533D01*
Y368100D01*
X222614Y356144D02*
X227100Y360630D01*
Y364600D01*
X214992Y355300D02*
X226244Y366552D01*
Y371244D01*
X174065Y321665D02*
X185500D01*
X141744Y344632D02*
Y346744D01*
Y344632D02*
X144132Y342244D01*
X153486D01*
X174065Y321665D01*
X128244Y379944D02*
X142300Y394000D01*
X128244Y318744D02*
Y379944D01*
Y318744D02*
X138043Y308945D01*
X164744D01*
X256244Y337844D02*
X268744Y350344D01*
X272900Y354500D01*
X252700Y308900D02*
X256244Y312444D01*
Y337844D01*
X288300Y318500D02*
Y356400D01*
X259244Y337244D02*
X269744Y347744D01*
X280044D01*
X283500Y351200D01*
X258744Y314244D02*
X264244Y308744D01*
X278544D01*
X288300Y318500D01*
X169000Y337000D02*
X171744Y334256D01*
Y330744D02*
Y334256D01*
X371744Y449244D02*
X376187Y453687D01*
X377044Y454544D02*
X386744D01*
X376187Y453687D02*
X377044Y454544D01*
X385244Y439744D02*
X385244Y439744D01*
X385244Y432744D02*
Y439744D01*
X368000Y433800D02*
X380800Y446600D01*
X385244Y432744D02*
X392744Y440244D01*
X394832D01*
X400044Y435032D01*
Y423141D02*
Y435032D01*
Y423141D02*
X407343Y415843D01*
X396114Y425344D02*
X414382Y407076D01*
Y404843D02*
Y407076D01*
X381000Y426744D02*
X410700Y397044D01*
X380709Y426744D02*
X381000D01*
X410700Y391200D02*
Y397044D01*
X405244Y425244D02*
X412244Y418244D01*
X405244Y425244D02*
Y432744D01*
X396114Y425344D02*
Y431874D01*
X422618Y322900D02*
Y324000D01*
X420218Y320500D02*
X422618Y322900D01*
X412600Y320500D02*
X420218D01*
X413455Y308945D02*
X414744D01*
X409700Y312700D02*
X413455Y308945D01*
X395244D02*
X401045D01*
X391300Y335800D02*
X391524D01*
X392208Y335116D01*
X384900Y342424D02*
X391524Y335800D01*
X360244Y440744D02*
Y447744D01*
X329344Y426444D02*
Y430100D01*
X340644Y372344D02*
X341500D01*
X325632Y407500D02*
Y408844D01*
Y404900D02*
Y407500D01*
X324055Y387082D02*
X324056D01*
X324031Y387083D02*
X324055Y387082D01*
X322992Y387100D02*
X324031Y387083D01*
Y387100D01*
X323944Y360244D02*
Y364344D01*
Y359544D02*
Y360244D01*
X311100Y387100D02*
X311400D01*
X311756Y363944D02*
X312900D01*
X429400Y412205D02*
X430364Y411240D01*
X426583Y415022D02*
X429400Y412205D01*
X431900Y411240D02*
X433824D01*
X430364D02*
X431900D01*
X347144Y453744D02*
X348644D01*
X349544Y414044D02*
X352444D01*
X348956D02*
X349544D01*
X347000Y453744D02*
X347144D01*
X344600D02*
X347000D01*
X352444Y414044D02*
X352700D01*
X346644D02*
X348956D01*
X330244Y387744D02*
X338744D01*
X380246Y329418D02*
X381768Y330941D01*
X380246Y323076D02*
Y329418D01*
X372414Y315244D02*
X380246Y323076D01*
X360744Y315244D02*
X372414D01*
X343900Y361244D02*
X345650D01*
X356244Y422983D02*
Y448744D01*
X324031Y385587D02*
X324056Y387082D01*
X426583Y415022D02*
Y426681D01*
X429400Y409705D02*
Y412205D01*
X364500Y323895D02*
Y338727D01*
X369241Y343468D01*
X463500Y361200D02*
X468300Y356400D01*
X363987Y348409D02*
X367779D01*
X414382Y404843D02*
X417600D01*
X413941Y405283D02*
X414382Y404843D01*
X331744Y346744D02*
X335385Y343103D01*
X364812D01*
X366500Y344791D01*
X367779D01*
X323244Y369356D02*
Y370626D01*
Y369356D02*
X324031Y368569D01*
Y365901D02*
Y368569D01*
X368700Y366400D02*
Y398700D01*
X365500Y321665D02*
X367425Y323590D01*
Y327875D01*
X365700Y329600D02*
X367425Y327875D01*
X365700Y329600D02*
Y334360D01*
X372025Y340684D01*
X347300Y415700D02*
X348956Y414044D01*
X347300Y417587D02*
X349730D01*
X404628Y345100D02*
X412600D01*
X404318Y344791D02*
X404628Y345100D01*
X402021Y344791D02*
X404318D01*
X328788Y407500D02*
X329644Y406644D01*
X430744Y315244D02*
Y331189D01*
X424533Y337400D02*
X430744Y331189D01*
X407090Y337400D02*
X424533D01*
X374906Y410200D02*
X375700D01*
X373600Y408894D02*
X374906Y410200D01*
X373400Y356708D02*
X374808Y355300D01*
X374800Y358092D02*
X376200Y356692D01*
X311400Y380075D02*
X311433D01*
X409700Y312700D02*
Y317300D01*
X404818Y341400D02*
X406418Y343000D01*
X352056Y372344D02*
X353100Y371300D01*
X347368Y372344D02*
X352056D01*
X354744Y394043D02*
X359800D01*
Y385300D02*
Y394043D01*
X342400Y374100D02*
Y379400D01*
X340644Y372344D02*
X342400Y374100D01*
X337920Y372344D02*
X340644D01*
X374700Y321400D02*
Y329440D01*
X378984Y333725D01*
X342500Y356921D02*
X343177Y356244D01*
X342500Y356921D02*
Y371344D01*
X341500Y372344D02*
X342500Y371344D01*
X345044Y346256D02*
X346000Y345300D01*
X345044Y346256D02*
Y355044D01*
X336700D02*
X345044D01*
X331300Y360444D02*
X336700Y355044D01*
X331300Y360444D02*
Y371185D01*
X329300Y373185D02*
X331300Y371185D01*
X323244Y373185D02*
X329300D01*
X372600Y333100D02*
X372792D01*
X376200Y336508D01*
X368900Y332400D02*
X370500Y334000D01*
Y336376D01*
X373416Y339292D01*
X377900Y326186D02*
Y329856D01*
X380376Y332333D01*
X384900Y346600D02*
X386292D01*
X394992Y355300D01*
X370000Y348800D02*
X382700D01*
X384900Y346600D01*
X387900Y339200D02*
X391300Y335800D01*
X374808Y337900D02*
X376108Y339200D01*
X384900Y342424D02*
Y346600D01*
X431900Y403760D02*
X433824D01*
X431100Y404560D02*
X431900Y403760D01*
X431100Y404560D02*
Y410440D01*
X431900Y411240D01*
X401045Y308945D02*
X412600Y320500D01*
X406188Y465800D02*
X415744Y456244D01*
X354906Y337000D02*
X357600D01*
X358000Y336600D01*
X334600Y361244D02*
X339744D01*
X354700Y394043D02*
X354744D01*
X323944Y359544D02*
X331744Y351744D01*
X348430Y439958D02*
X349730D01*
X346744Y441644D02*
X348430Y439958D01*
X352700Y414044D02*
X353783Y412961D01*
Y410244D02*
Y412961D01*
X325532Y428544D02*
Y430100D01*
X326400Y394043D02*
X338744D01*
X324057Y387187D02*
Y391700D01*
X311433Y372201D02*
X312900D01*
X316200Y389524D02*
X317775Y391098D01*
X346844Y454044D02*
X347000D01*
X312244Y432544D02*
Y433844D01*
X312044Y432344D02*
X312244Y432544D01*
X312044Y412344D02*
X312244D01*
X324057Y387100D02*
Y387187D01*
X307200Y391000D02*
X311100Y387100D01*
X307200Y391000D02*
Y404900D01*
X309500Y407200D01*
X314000D01*
X316300Y404900D01*
X325632D01*
X321244Y426244D02*
Y430244D01*
X344600Y465444D02*
X347944D01*
X329244Y426344D02*
X329344Y426444D01*
X317600Y427200D02*
X320944Y430544D01*
X309100Y427200D02*
X317600D01*
X307200Y425300D02*
X309100Y427200D01*
X307200Y409300D02*
Y425300D01*
Y409300D02*
X309000Y407500D01*
X317700D01*
X321044Y410844D01*
Y406544D02*
Y410844D01*
X376244Y444744D02*
Y448744D01*
X336556Y428544D02*
Y428600D01*
X338744Y387744D02*
X354886D01*
X379102Y315244D02*
X395244D01*
X414602D02*
X430744D01*
X344602D02*
X360744D01*
X414744Y308945D02*
X430744D01*
X379244D02*
X395244D01*
X360744D02*
X379244D01*
X344744D02*
X360744D01*
X324031Y365087D02*
Y365901D01*
X323944Y365000D02*
X324031Y365087D01*
X323944Y364344D02*
Y365000D01*
X311433Y372201D02*
Y380075D01*
X365675Y431700D02*
X369476Y435501D01*
X347368Y376084D02*
X353404D01*
X355244Y374244D01*
Y369296D02*
Y374244D01*
Y369296D02*
X372025Y352516D01*
X410157Y334000D02*
X417697D01*
X410157Y324157D02*
X413800D01*
X413957Y324000D01*
X417697D01*
X420400Y410157D02*
X421483Y411240D01*
X424376D01*
X417600Y410157D02*
X418630D01*
X421300Y412827D01*
Y419400D01*
X419543Y421157D02*
X421300Y419400D01*
X417600Y421157D02*
X419543D01*
X418630Y410157D02*
X420400D01*
X365675Y430875D02*
Y431700D01*
X335056Y428600D02*
X335112D01*
X347000Y453888D02*
Y454044D01*
X360100Y465800D02*
X405588D01*
X406188D01*
X417600Y404843D02*
X420400D01*
X421483Y403760D01*
X424376D01*
X426300Y390784D02*
X427100Y389984D01*
X424376Y403760D02*
X426300D01*
X416800Y354900D02*
X422696Y349004D01*
X379300Y361944D02*
X380376Y360867D01*
X402021Y348409D02*
X410500D01*
X432200Y342700D02*
Y398500D01*
X427500Y403200D02*
X432200Y398500D01*
X427500Y403200D02*
Y406500D01*
X427300Y406700D02*
X427500Y406500D01*
X427300Y406700D02*
Y412607D01*
X423900Y416007D02*
X427300Y412607D01*
X423900Y416007D02*
Y417200D01*
X438744Y396444D02*
X463500Y421200D01*
X435100Y370400D02*
X435256Y370244D01*
X438567D01*
X449100Y431200D02*
X463500D01*
X448518Y430618D02*
X449100Y431200D01*
X435244Y430618D02*
X448518D01*
X428921Y376721D02*
X429100Y376900D01*
X428921Y373984D02*
Y376721D01*
X418900Y366044D02*
Y400700D01*
X452900Y354500D02*
Y385200D01*
X438567Y370244D02*
X443444D01*
X447300Y374100D01*
Y387700D01*
X448065Y388465D01*
Y391097D01*
X456000Y399032D01*
Y403700D01*
X463500Y411200D01*
X400559Y349732D02*
X403323Y352496D01*
X414404D01*
X426500Y340400D01*
X435100D01*
X450733Y356033D01*
Y386900D01*
X452418Y388585D01*
X454047D01*
X461461Y396000D01*
X466300D01*
X468300Y394000D01*
Y382100D02*
Y394000D01*
X467400Y381200D02*
X468300Y382100D01*
X463500Y381200D02*
X467400D01*
X433824Y407500D02*
X436500D01*
Y415800D01*
X430900Y421400D02*
X436500Y415800D01*
X430900Y421400D02*
Y436300D01*
X420600Y446600D02*
X430900Y436300D01*
X380800Y446600D02*
X420600D01*
X425900Y352900D02*
X426900Y351900D01*
Y349004D02*
Y351900D01*
X425500Y366600D02*
X425596Y366504D01*
X428921D01*
X426216Y373984D02*
X428921D01*
X423400Y359988D02*
Y371168D01*
Y359988D02*
X426904Y356484D01*
X429421D01*
X427100Y382504D02*
X429421D01*
X426100Y381504D02*
X427100Y382504D01*
X426100Y380700D02*
Y381504D01*
X399167Y342076D02*
X399439D01*
X401415Y340100D01*
X408900D01*
X377361Y430383D02*
X379244Y428500D01*
X372958Y430383D02*
X377361D01*
X407100Y364600D02*
X414700Y372200D01*
X455500Y357100D02*
Y383200D01*
X463500Y391200D01*
X425941Y373710D02*
X428921Y373984D01*
X423951Y375700D02*
X425941Y373710D01*
X423951Y375700D02*
Y387635D01*
X427100Y389984D01*
X429421D01*
X446700Y361800D02*
X449533Y364633D01*
Y389785D02*
X455032Y395285D01*
X439067Y352744D02*
X441400D01*
X449533Y360877D01*
X455032Y395285D02*
X457585D01*
X463500Y401200D01*
X438744Y386244D02*
X439067D01*
X335056Y428544D02*
Y428600D01*
X335112D02*
X336556D01*
X312244Y412344D02*
Y413844D01*
X422696Y349004D02*
X426900D01*
X429421D01*
X311756Y361188D02*
Y363944D01*
Y361188D02*
X312700Y360244D01*
X323944D01*
X312900Y363944D02*
Y372201D01*
X311400Y380075D02*
Y387100D01*
X314344Y387244D02*
X322992Y387100D01*
X313008Y389524D02*
X316200D01*
X324031Y387100D02*
X324057D01*
X317775Y391098D02*
X320488D01*
X430744Y308900D02*
X432700D01*
X324057Y391700D02*
X326400Y394043D01*
X338744D02*
X354700D01*
Y403100D01*
X360244Y408644D01*
X360200Y402600D02*
Y430900D01*
X325632Y407500D02*
X328788D01*
X325532Y430100D02*
X329344D01*
X360244Y415700D02*
Y430875D01*
X360200Y430900D02*
X373800Y444500D01*
X376108Y339200D02*
X387900D01*
X452900Y354500D02*
X455500Y357100D01*
X369476Y435501D02*
X372900D01*
X380244Y444744D02*
Y448744D01*
X423400Y371168D02*
X425941Y373710D01*
X426216Y373984D01*
X426300Y390784D02*
Y403760D01*
X347000Y453744D02*
Y453888D01*
X344600Y453744D02*
Y465444D01*
X347300Y415700D02*
Y417587D01*
X348344Y454044D02*
X360100Y465800D01*
X449533Y360877D02*
Y364633D01*
Y389785D01*
X438744Y382700D02*
Y386244D01*
Y396444D01*
X342400Y379400D02*
X345244Y382244D01*
X356744D01*
X359800Y385300D01*
X389424Y360867D02*
Y360924D01*
X392744Y364244D01*
Y365744D01*
X401744Y364836D02*
Y365244D01*
X393600Y356692D02*
X401744Y364836D01*
X397744Y366404D02*
Y367244D01*
X390816Y359475D02*
X397744Y366404D01*
X399844Y369344D02*
X400244Y369744D01*
X396384Y339292D02*
X398432Y337244D01*
X400200D01*
X393600Y336508D02*
X396864Y333244D01*
X400886D01*
X402300Y331830D01*
X394992Y337900D02*
X398148Y334744D01*
X403244D01*
X405900Y337400D01*
X407090D01*
X386709Y363721D02*
Y365509D01*
X387744Y366544D01*
Y368744D01*
X370800Y397300D02*
X371600D01*
X374800Y358092D02*
Y406100D01*
X416800Y354900D02*
Y373070D01*
X381330Y374300D02*
X415570D01*
X416800Y373070D01*
X383091Y363721D02*
Y370091D01*
X383244Y370244D01*
X383744D01*
X376444Y359232D02*
X377592Y358084D01*
X377644Y363599D02*
X380376Y360867D01*
X377644Y363599D02*
Y370614D01*
X381330Y374300D01*
X363244Y367244D02*
Y367941D01*
X352823Y378362D02*
X363244Y367941D01*
X343900Y361244D02*
Y377826D01*
X344437Y378362D01*
X352823D01*
X358744Y380744D02*
X367244Y372244D01*
X396384Y353908D02*
X396408D01*
X370744Y356580D02*
X373416Y353908D01*
X370744Y356580D02*
Y360944D01*
X369744Y365244D02*
Y365356D01*
X368700Y366400D02*
X369744Y365356D01*
X367244Y361244D02*
Y372244D01*
X370744Y360944D02*
X372244Y362444D01*
Y396656D01*
X371600Y397300D02*
X372244Y396656D01*
X373600Y359944D02*
Y408894D01*
X373400Y359744D02*
X373600Y359944D01*
X373400Y356708D02*
Y359744D01*
X379744Y364283D02*
X381768Y362259D01*
X379744Y364283D02*
Y368244D01*
X409571Y324744D02*
X410157Y324157D01*
X388032Y330941D02*
X393229Y325744D01*
X386709Y329479D02*
X391645Y324544D01*
X401901Y325744D02*
X410157Y334000D01*
X391645Y324544D02*
X402398D01*
X393229Y325744D02*
X401901D01*
X402398Y324544D02*
X402598Y324744D01*
X409571D01*
X389424Y332333D02*
X393012Y328744D01*
X393244D01*
Y328244D02*
Y328744D01*
X394744Y322244D02*
X395244Y322744D01*
X394744Y322244D02*
Y322244D01*
X395244Y315244D02*
Y322744D01*
X422618Y324000D02*
Y334000D01*
X372600Y329500D02*
Y330124D01*
X377592Y335116D01*
X323244Y380862D02*
X330362D01*
X332244Y382744D01*
X339087D01*
X390816Y333725D02*
X393696Y330844D01*
X397144D01*
X397744Y330244D01*
X400559Y343468D02*
X402627Y341400D01*
X404818D01*
X392208Y358084D02*
X399644Y365520D01*
Y366114D01*
X399844Y366314D01*
Y369344D01*
X343177Y356244D02*
X362729D01*
X369241Y349732D01*
X372958Y432942D02*
X377046D01*
X380444Y429544D01*
X407343Y415843D02*
X417600D01*
X380444Y428706D02*
Y429544D01*
Y428706D02*
X381206Y427944D01*
X379244Y428208D02*
Y428500D01*
Y428208D02*
X380709Y426744D01*
X378224Y425049D02*
Y425265D01*
X372958D02*
X378224D01*
X366300Y380600D02*
Y400700D01*
X372958Y420146D02*
X377842D01*
X381744Y416244D02*
X382244D01*
X377842Y420146D02*
X381744Y416244D01*
X381206Y427944D02*
X381497D01*
X394244Y423244D02*
X395244D01*
X392744Y421744D02*
X394244Y423244D01*
X381497Y427944D02*
X387697Y421744D01*
X392744D01*
X372958Y427824D02*
X377932D01*
X378224Y425049D02*
X379744Y423529D01*
Y423244D02*
Y423529D01*
X380274Y419744D02*
X381244D01*
X372958Y422706D02*
X377313D01*
X380274Y419744D01*
X377932Y427824D02*
X380411Y425344D01*
X380614D01*
X384744Y421214D01*
Y415774D02*
Y421214D01*
X375070Y406100D02*
X384744Y415774D01*
X374800Y406100D02*
X375070D01*
X376444Y359232D02*
Y404444D01*
X381244Y409244D01*
X376774Y414244D02*
X378744D01*
X370244Y404644D02*
Y405900D01*
X366300Y400700D02*
X370244Y404644D01*
X372344Y409814D02*
X376774Y414244D01*
X368700Y398700D02*
X372344Y402344D01*
Y409814D01*
X435244Y418753D02*
Y422744D01*
Y418753D02*
X437700Y416297D01*
Y401679D02*
Y416297D01*
X435244Y399223D02*
X437700Y401679D01*
X435244Y395244D02*
Y399223D01*
X412244Y382744D02*
X414744D01*
X406744Y377244D02*
X412244Y382744D01*
X381189Y377244D02*
X406744D01*
X378544Y379889D02*
X381189Y377244D01*
X367087Y417587D02*
X372958D01*
X363744Y414244D02*
X367087Y417587D01*
X400744Y358244D02*
X401744D01*
X397775Y352516D02*
X401404Y356144D01*
X402614D01*
X396408Y353908D02*
X400744Y358244D01*
X399167Y351124D02*
X399291D01*
X414700Y366533D01*
Y368100D01*
X402614Y356144D02*
X407100Y360630D01*
Y364600D01*
X394992Y355300D02*
X406244Y366552D01*
Y371244D01*
X354065Y321665D02*
X365500D01*
X321744Y344632D02*
Y346744D01*
Y344632D02*
X324132Y342244D01*
X333486D01*
X354065Y321665D01*
X308244Y379944D02*
X322300Y394000D01*
X308244Y318744D02*
Y379944D01*
Y318744D02*
X318043Y308945D01*
X344744D01*
X436244Y337844D02*
X448744Y350344D01*
X452900Y354500D01*
X432700Y308900D02*
X436244Y312444D01*
Y337844D01*
X468300Y318500D02*
Y356400D01*
X439244Y337244D02*
X449744Y347744D01*
X460044D01*
X463500Y351200D01*
X438744Y314244D02*
X444244Y308744D01*
X458544D01*
X468300Y318500D01*
X349000Y337000D02*
X351744Y334256D01*
Y330744D02*
Y334256D01*
D39*
X184244Y273744D02*
X184301Y273687D01*
X193044D02*
X196187D01*
X205187D02*
X205244Y273744D01*
X132244Y233844D02*
X135644Y237244D01*
X156844D01*
X133644Y255244D02*
X164044D01*
X364244Y273744D02*
X364301Y273687D01*
X373044D02*
X376187D01*
X385187D02*
X385244Y273744D01*
X312244Y233844D02*
X315644Y237244D01*
X336844D01*
X313644Y255244D02*
X344044D01*
X184244Y453744D02*
X184301Y453687D01*
X193044D02*
X196187D01*
X205187D02*
X205244Y453744D01*
X132244Y413844D02*
X135644Y417244D01*
X156844D01*
X133644Y435244D02*
X164044D01*
X364244Y453744D02*
X364301Y453687D01*
X373044D02*
X376187D01*
X385187D02*
X385244Y453744D01*
X312244Y413844D02*
X315644Y417244D01*
X336844D01*
X313644Y435244D02*
X344044D01*
D40*
X184301Y273687D02*
X193044D01*
X196187D02*
X205187D01*
X207744Y276244D02*
X215744D01*
X221244D01*
X169730Y255501D02*
Y259958D01*
X156895Y250383D02*
X169730D01*
X364301Y273687D02*
X373044D01*
X376187D02*
X385187D01*
X387744Y276244D02*
X395744D01*
X401244D01*
X349730Y255501D02*
Y259958D01*
X336895Y250383D02*
X349730D01*
X184301Y453687D02*
X193044D01*
X196187D02*
X205187D01*
X207744Y456244D02*
X215744D01*
X221244D01*
X169730Y435501D02*
Y439958D01*
X156895Y430383D02*
X169730D01*
X364301Y453687D02*
X373044D01*
X376187D02*
X385187D01*
X387744Y456244D02*
X395744D01*
X401244D01*
X349730Y435501D02*
Y439958D01*
X336895Y430383D02*
X349730D01*
D41*
X207244Y276744D02*
X207744Y276244D01*
X387244Y276744D02*
X387744Y276244D01*
X207244Y456744D02*
X207744Y456244D01*
X387244Y456744D02*
X387744Y456244D01*
D42*
X165124Y237974D02*
X165574D01*
X162858Y243617D02*
X164506Y245265D01*
X169730D01*
X165694Y242706D02*
X169730D01*
X160694Y237705D02*
X165694Y242706D01*
X166246Y240146D02*
X169730D01*
X165574Y239474D02*
X166246Y240146D01*
X156656Y228844D02*
X160694Y232882D01*
Y237705D01*
X156844Y237244D02*
X162858Y243258D01*
Y243617D01*
X157344Y241944D02*
X161165Y245765D01*
Y247265D01*
X161724Y247824D01*
X165574Y237974D02*
Y239474D01*
X132044Y242344D02*
X132444Y241944D01*
X161724Y247824D02*
X169730D01*
X164044Y255244D02*
X166346Y252942D01*
X169730D01*
X345124Y237974D02*
X345574D01*
X342858Y243617D02*
X344506Y245265D01*
X349730D01*
X345694Y242706D02*
X349730D01*
X340694Y237705D02*
X345694Y242706D01*
X346246Y240146D02*
X349730D01*
X345574Y239474D02*
X346246Y240146D01*
X336656Y228844D02*
X340694Y232882D01*
Y237705D01*
X336844Y237244D02*
X342858Y243258D01*
Y243617D01*
X337344Y241944D02*
X341165Y245765D01*
Y247265D01*
X341724Y247824D01*
X345574Y237974D02*
Y239474D01*
X312044Y242344D02*
X312444Y241944D01*
X341724Y247824D02*
X349730D01*
X344044Y255244D02*
X346346Y252942D01*
X349730D01*
X165124Y417974D02*
X165574D01*
X162858Y423617D02*
X164506Y425265D01*
X169730D01*
X165694Y422706D02*
X169730D01*
X160694Y417705D02*
X165694Y422706D01*
X166246Y420146D02*
X169730D01*
X165574Y419474D02*
X166246Y420146D01*
X156656Y408844D02*
X160694Y412882D01*
Y417705D01*
X156844Y417244D02*
X162858Y423258D01*
Y423617D01*
X157344Y421944D02*
X161165Y425765D01*
Y427265D01*
X161724Y427824D01*
X165574Y417974D02*
Y419474D01*
X132044Y422344D02*
X132444Y421944D01*
X161724Y427824D02*
X169730D01*
X164044Y435244D02*
X166346Y432942D01*
X169730D01*
X345124Y417974D02*
X345574D01*
X342858Y423617D02*
X344506Y425265D01*
X349730D01*
X345694Y422706D02*
X349730D01*
X340694Y417705D02*
X345694Y422706D01*
X346246Y420146D02*
X349730D01*
X345574Y419474D02*
X346246Y420146D01*
X336656Y408844D02*
X340694Y412882D01*
Y417705D01*
X336844Y417244D02*
X342858Y423258D01*
Y423617D01*
X337344Y421944D02*
X341165Y425765D01*
Y427265D01*
X341724Y427824D01*
X345574Y417974D02*
Y419474D01*
X312044Y422344D02*
X312444Y421944D01*
X341724Y427824D02*
X349730D01*
X344044Y435244D02*
X346346Y432942D01*
X349730D01*
D43*
X167368Y188604D02*
X173153D01*
X190633Y171124D01*
X155701Y198303D02*
X157920Y196084D01*
X143244Y198303D02*
X155701D01*
X143244Y195744D02*
X148744D01*
X155884Y188604D01*
X157920D01*
X167320Y328992D02*
X170652D01*
X168986D01*
Y323994D01*
X173151D02*
X174817D01*
X175650Y324827D01*
Y326493D01*
X174817Y327326D01*
X173151D01*
X172318Y326493D01*
Y324827D01*
X173151Y323994D01*
X177316Y322328D02*
Y327326D01*
X179816D01*
X180649Y326493D01*
Y324827D01*
X179816Y323994D01*
X177316D01*
X190646Y328159D02*
X189812Y328992D01*
X188146D01*
X187313Y328159D01*
Y324827D01*
X188146Y323994D01*
X189812D01*
X190646Y324827D01*
X193145Y323994D02*
X194811D01*
X195644Y324827D01*
Y326493D01*
X194811Y327326D01*
X193145D01*
X192312Y326493D01*
Y324827D01*
X193145Y323994D01*
X197310Y322328D02*
Y327326D01*
X199809D01*
X200642Y326493D01*
Y324827D01*
X199809Y323994D01*
X197310D01*
X202308Y322328D02*
Y327326D01*
X204807D01*
X205641Y326493D01*
Y324827D01*
X204807Y323994D01*
X202308D01*
X209806D02*
X208140D01*
X207307Y324827D01*
Y326493D01*
X208140Y327326D01*
X209806D01*
X210639Y326493D01*
Y325660D01*
X207307D01*
X212305Y327326D02*
Y323994D01*
Y325660D01*
X213138Y326493D01*
X213971Y327326D01*
X214804D01*
X347368Y188604D02*
X353153D01*
X370633Y171124D01*
X335701Y198303D02*
X337920Y196084D01*
X323244Y198303D02*
X335701D01*
X323244Y195744D02*
X328744D01*
X335884Y188604D01*
X337920D01*
X347320Y328992D02*
X350652D01*
X348986D01*
Y323994D01*
X353151D02*
X354817D01*
X355650Y324827D01*
Y326493D01*
X354817Y327326D01*
X353151D01*
X352318Y326493D01*
Y324827D01*
X353151Y323994D01*
X357316Y322328D02*
Y327326D01*
X359816D01*
X360649Y326493D01*
Y324827D01*
X359816Y323994D01*
X357316D01*
X370645Y328159D02*
X369812Y328992D01*
X368146D01*
X367313Y328159D01*
Y324827D01*
X368146Y323994D01*
X369812D01*
X370645Y324827D01*
X373145Y323994D02*
X374811D01*
X375644Y324827D01*
Y326493D01*
X374811Y327326D01*
X373145D01*
X372312Y326493D01*
Y324827D01*
X373145Y323994D01*
X377310Y322328D02*
Y327326D01*
X379809D01*
X380642Y326493D01*
Y324827D01*
X379809Y323994D01*
X377310D01*
X382308Y322328D02*
Y327326D01*
X384807D01*
X385641Y326493D01*
Y324827D01*
X384807Y323994D01*
X382308D01*
X389806D02*
X388140D01*
X387307Y324827D01*
Y326493D01*
X388140Y327326D01*
X389806D01*
X390639Y326493D01*
Y325660D01*
X387307D01*
X392305Y327326D02*
Y323994D01*
Y325660D01*
X393138Y326493D01*
X393971Y327326D01*
X394804D01*
X167368Y368604D02*
X173153D01*
X190633Y351124D01*
X155701Y378303D02*
X157920Y376084D01*
X143244Y378303D02*
X155701D01*
X143244Y375744D02*
X148744D01*
X155884Y368604D01*
X157920D01*
X167320Y508992D02*
X170652D01*
X168986D01*
Y503994D01*
X173151D02*
X174817D01*
X175650Y504827D01*
Y506493D01*
X174817Y507326D01*
X173151D01*
X172318Y506493D01*
Y504827D01*
X173151Y503994D01*
X177316Y502328D02*
Y507326D01*
X179816D01*
X180649Y506493D01*
Y504827D01*
X179816Y503994D01*
X177316D01*
X190646Y508159D02*
X189812Y508992D01*
X188146D01*
X187313Y508159D01*
Y504827D01*
X188146Y503994D01*
X189812D01*
X190646Y504827D01*
X193145Y503994D02*
X194811D01*
X195644Y504827D01*
Y506493D01*
X194811Y507326D01*
X193145D01*
X192312Y506493D01*
Y504827D01*
X193145Y503994D01*
X197310Y502328D02*
Y507326D01*
X199809D01*
X200642Y506493D01*
Y504827D01*
X199809Y503994D01*
X197310D01*
X202308Y502328D02*
Y507326D01*
X204807D01*
X205641Y506493D01*
Y504827D01*
X204807Y503994D01*
X202308D01*
X209806D02*
X208140D01*
X207307Y504827D01*
Y506493D01*
X208140Y507326D01*
X209806D01*
X210639Y506493D01*
Y505660D01*
X207307D01*
X212305Y507326D02*
Y503994D01*
Y505660D01*
X213138Y506493D01*
X213971Y507326D01*
X214804D01*
X347368Y368604D02*
X353153D01*
X370633Y351124D01*
X335701Y378303D02*
X337920Y376084D01*
X323244Y378303D02*
X335701D01*
X323244Y375744D02*
X328744D01*
X335884Y368604D01*
X337920D01*
X347320Y508992D02*
X350652D01*
X348986D01*
Y503994D01*
X353151D02*
X354817D01*
X355650Y504827D01*
Y506493D01*
X354817Y507326D01*
X353151D01*
X352318Y506493D01*
Y504827D01*
X353151Y503994D01*
X357316Y502328D02*
Y507326D01*
X359816D01*
X360649Y506493D01*
Y504827D01*
X359816Y503994D01*
X357316D01*
X370645Y508159D02*
X369812Y508992D01*
X368146D01*
X367313Y508159D01*
Y504827D01*
X368146Y503994D01*
X369812D01*
X370645Y504827D01*
X373145Y503994D02*
X374811D01*
X375644Y504827D01*
Y506493D01*
X374811Y507326D01*
X373145D01*
X372312Y506493D01*
Y504827D01*
X373145Y503994D01*
X377310Y502328D02*
Y507326D01*
X379809D01*
X380642Y506493D01*
Y504827D01*
X379809Y503994D01*
X377310D01*
X382308Y502328D02*
Y507326D01*
X384807D01*
X385641Y506493D01*
Y504827D01*
X384807Y503994D01*
X382308D01*
X389806D02*
X388140D01*
X387307Y504827D01*
Y506493D01*
X388140Y507326D01*
X389806D01*
X390639Y506493D01*
Y505660D01*
X387307D01*
X392305Y507326D02*
Y503994D01*
Y505660D01*
X393138Y506493D01*
X393971Y507326D01*
X394804D01*
D44*
X163344Y236194D02*
X165124Y237974D01*
X163344Y226344D02*
Y236194D01*
X132444Y241944D02*
X157344D01*
X132044Y222344D02*
X159344D01*
X163344Y226344D01*
X343344Y236194D02*
X345124Y237974D01*
X343344Y226344D02*
Y236194D01*
X312444Y241944D02*
X337344D01*
X312044Y222344D02*
X339344D01*
X343344Y226344D01*
X163344Y416194D02*
X165124Y417974D01*
X163344Y406344D02*
Y416194D01*
X132444Y421944D02*
X157344D01*
X132044Y402344D02*
X159344D01*
X163344Y406344D01*
X343344Y416194D02*
X345124Y417974D01*
X343344Y406344D02*
Y416194D01*
X312444Y421944D02*
X337344D01*
X312044Y402344D02*
X339344D01*
X343344Y406344D01*
D45*
X169271Y239687D02*
X169730Y240146D01*
X167151Y239687D02*
X169271D01*
X132244Y253844D02*
X133644Y255244D01*
X349271Y239687D02*
X349730Y240146D01*
X347151Y239687D02*
X349271D01*
X312244Y253844D02*
X313644Y255244D01*
X169271Y419687D02*
X169730Y420146D01*
X167151Y419687D02*
X169271D01*
X132244Y433844D02*
X133644Y435244D01*
X349271Y419687D02*
X349730Y420146D01*
X347151Y419687D02*
X349271D01*
X312244Y433844D02*
X313644Y435244D01*
D46*
X168344Y285844D02*
X225544D01*
X168344Y274044D02*
Y285844D01*
X167944Y285444D02*
X168344Y285844D01*
X166844Y274044D02*
X167000Y273888D01*
X167144Y273744D01*
X225544Y285844D02*
X225588Y285800D01*
X235444Y275944D02*
X236844Y274544D01*
X235444Y275944D02*
X235444Y275944D01*
X225588Y285800D02*
X235444Y275944D01*
X348344Y285844D02*
X405544D01*
X348344Y274044D02*
Y285844D01*
X347944Y285444D02*
X348344Y285844D01*
X346844Y274044D02*
X347000Y273888D01*
X347144Y273744D01*
X405544Y285844D02*
X405588Y285800D01*
X415444Y275944D02*
X416844Y274544D01*
X415444Y275944D02*
X415444Y275944D01*
X405588Y285800D02*
X415444Y275944D01*
X168344Y465844D02*
X225544D01*
X168344Y454044D02*
Y465844D01*
X167944Y465444D02*
X168344Y465844D01*
X166844Y454044D02*
X167000Y453888D01*
X167144Y453744D01*
X225544Y465844D02*
X225588Y465800D01*
X235444Y455944D02*
X236844Y454544D01*
X235444Y455944D02*
X235444Y455944D01*
X225588Y465800D02*
X235444Y455944D01*
X348344Y465844D02*
X405544D01*
X348344Y454044D02*
Y465844D01*
X347944Y465444D02*
X348344Y465844D01*
X346844Y454044D02*
X347000Y453888D01*
X347144Y453744D01*
X405544Y465844D02*
X405588Y465800D01*
X415444Y455944D02*
X416844Y454544D01*
X415444Y455944D02*
X415444Y455944D01*
X405588Y465800D02*
X415444Y455944D01*
D47*
X155056Y248544D02*
X155112Y248600D01*
X156895Y250383D01*
X335056Y248544D02*
X335112Y248600D01*
X336895Y250383D01*
X155056Y428544D02*
X155112Y428600D01*
X156895Y430383D01*
X335056Y428544D02*
X335112Y428600D01*
X336895Y430383D01*
D48*
X167144Y262544D02*
Y273744D01*
X347144Y262544D02*
Y273744D01*
X167144Y442544D02*
Y453744D01*
X347144Y442544D02*
Y453744D01*
D49*
X125000Y260000D02*
D03*
Y265000D02*
D03*
Y255000D02*
D03*
Y250000D02*
D03*
Y245000D02*
D03*
Y240000D02*
D03*
X124600Y152500D02*
D03*
Y157500D02*
D03*
Y162500D02*
D03*
Y167500D02*
D03*
Y177500D02*
D03*
Y172500D02*
D03*
X290600Y150000D02*
D03*
Y155000D02*
D03*
Y160000D02*
D03*
Y165000D02*
D03*
Y175000D02*
D03*
Y170000D02*
D03*
X305100Y150000D02*
D03*
Y155000D02*
D03*
Y160000D02*
D03*
Y165000D02*
D03*
Y175000D02*
D03*
Y170000D02*
D03*
X291400Y229800D02*
D03*
Y234800D02*
D03*
Y239800D02*
D03*
Y244800D02*
D03*
Y254800D02*
D03*
Y249800D02*
D03*
X304800Y229300D02*
D03*
Y234300D02*
D03*
Y239300D02*
D03*
Y244300D02*
D03*
Y254300D02*
D03*
Y249300D02*
D03*
X125200Y409200D02*
D03*
Y414200D02*
D03*
Y419200D02*
D03*
Y424200D02*
D03*
Y434200D02*
D03*
Y429200D02*
D03*
X291200Y338300D02*
D03*
Y343300D02*
D03*
Y348300D02*
D03*
Y353300D02*
D03*
Y363300D02*
D03*
Y358300D02*
D03*
X291000Y404100D02*
D03*
Y409100D02*
D03*
Y414100D02*
D03*
Y419100D02*
D03*
Y429100D02*
D03*
Y424100D02*
D03*
X304900Y404500D02*
D03*
Y409500D02*
D03*
Y414500D02*
D03*
Y419500D02*
D03*
Y429500D02*
D03*
Y424500D02*
D03*
X304700Y338200D02*
D03*
Y343200D02*
D03*
Y348200D02*
D03*
Y353200D02*
D03*
Y363200D02*
D03*
Y358200D02*
D03*
X471200Y401400D02*
D03*
Y406400D02*
D03*
Y411400D02*
D03*
Y416400D02*
D03*
Y426400D02*
D03*
Y421400D02*
D03*
X471600Y339500D02*
D03*
Y344500D02*
D03*
Y349500D02*
D03*
Y354500D02*
D03*
Y364500D02*
D03*
Y359500D02*
D03*
Y216100D02*
D03*
Y221100D02*
D03*
Y226100D02*
D03*
Y231100D02*
D03*
Y241100D02*
D03*
Y236100D02*
D03*
X470600Y152500D02*
D03*
Y157500D02*
D03*
Y162500D02*
D03*
Y167500D02*
D03*
Y177500D02*
D03*
Y172500D02*
D03*
X443700Y124400D02*
D03*
X438700D02*
D03*
X433700D02*
D03*
X428700D02*
D03*
X418700D02*
D03*
X423700D02*
D03*
X357000Y124000D02*
D03*
X352000D02*
D03*
X347000D02*
D03*
X342000D02*
D03*
X332000D02*
D03*
X337000D02*
D03*
X360500Y289900D02*
D03*
X355500D02*
D03*
X350500D02*
D03*
X345500D02*
D03*
X335500D02*
D03*
X340500D02*
D03*
X432500Y290100D02*
D03*
X427500D02*
D03*
X422500D02*
D03*
X417500D02*
D03*
X407500D02*
D03*
X412500D02*
D03*
X431400Y303700D02*
D03*
X426400D02*
D03*
X421400D02*
D03*
X416400D02*
D03*
X406400D02*
D03*
X411400D02*
D03*
X360600Y304500D02*
D03*
X355600D02*
D03*
X350600D02*
D03*
X345600D02*
D03*
X335600D02*
D03*
X340600D02*
D03*
X365000Y469600D02*
D03*
X360000D02*
D03*
X355000D02*
D03*
X350000D02*
D03*
X340000D02*
D03*
X345000D02*
D03*
X435000D02*
D03*
X430000D02*
D03*
X425000D02*
D03*
X420000D02*
D03*
X410000D02*
D03*
X415000D02*
D03*
X252600D02*
D03*
X247600D02*
D03*
X242600D02*
D03*
X237600D02*
D03*
X227600D02*
D03*
X232600D02*
D03*
X183200Y469800D02*
D03*
X178200D02*
D03*
X173200D02*
D03*
X168200D02*
D03*
X158200D02*
D03*
X163200D02*
D03*
X175500Y303900D02*
D03*
X170500D02*
D03*
X165500D02*
D03*
X160500D02*
D03*
X150500D02*
D03*
X155500D02*
D03*
X175700Y290100D02*
D03*
X170700D02*
D03*
X165700D02*
D03*
X160700D02*
D03*
X150700D02*
D03*
X155700D02*
D03*
X260900Y303300D02*
D03*
X255900D02*
D03*
X250900D02*
D03*
X245900D02*
D03*
X235900D02*
D03*
X240900D02*
D03*
X261100Y290100D02*
D03*
X256100D02*
D03*
X251100D02*
D03*
X246100D02*
D03*
X236100D02*
D03*
X241100D02*
D03*
X261300Y123800D02*
D03*
X256300D02*
D03*
X251300D02*
D03*
X246300D02*
D03*
X236300D02*
D03*
X241300D02*
D03*
X180500Y124000D02*
D03*
X175500D02*
D03*
X170500D02*
D03*
X165500D02*
D03*
X155500D02*
D03*
X160500D02*
D03*
X125100Y351700D02*
D03*
Y356700D02*
D03*
Y346700D02*
D03*
Y341700D02*
D03*
Y336700D02*
D03*
Y331700D02*
D03*
D50*
X147744Y146744D02*
D03*
X269791D02*
D03*
Y268791D02*
D03*
X147744D02*
D03*
X327744Y146744D02*
D03*
X449791D02*
D03*
Y268791D02*
D03*
X327744D02*
D03*
X147744Y326744D02*
D03*
X269791D02*
D03*
Y448791D02*
D03*
X147744D02*
D03*
X327744Y326744D02*
D03*
X449791D02*
D03*
Y448791D02*
D03*
X327744D02*
D03*
D51*
X133008Y181964D02*
D03*
Y209524D02*
D03*
X313008Y181964D02*
D03*
Y209524D02*
D03*
X133008Y361964D02*
D03*
Y389524D02*
D03*
X313008Y361964D02*
D03*
Y389524D02*
D03*
D52*
X144031Y185901D02*
D03*
Y205587D02*
D03*
X324031Y185901D02*
D03*
Y205587D02*
D03*
X144031Y365901D02*
D03*
Y385587D02*
D03*
X324031Y365901D02*
D03*
Y385587D02*
D03*
D53*
X132044Y222344D02*
D03*
Y232344D02*
D03*
Y242344D02*
D03*
X235244Y252744D02*
D03*
X225244D02*
D03*
X215244D02*
D03*
X283500Y171200D02*
D03*
Y181200D02*
D03*
Y191200D02*
D03*
Y201200D02*
D03*
Y211200D02*
D03*
Y221200D02*
D03*
Y231200D02*
D03*
Y241200D02*
D03*
Y251200D02*
D03*
X312044Y222344D02*
D03*
Y232344D02*
D03*
Y242344D02*
D03*
X415244Y252744D02*
D03*
X405244D02*
D03*
X395244D02*
D03*
X463500Y171200D02*
D03*
Y181200D02*
D03*
Y191200D02*
D03*
Y201200D02*
D03*
Y211200D02*
D03*
Y221200D02*
D03*
Y231200D02*
D03*
Y241200D02*
D03*
Y251200D02*
D03*
X132044Y402344D02*
D03*
Y412344D02*
D03*
Y422344D02*
D03*
X235244Y432744D02*
D03*
X225244D02*
D03*
X215244D02*
D03*
X283500Y351200D02*
D03*
Y361200D02*
D03*
Y371200D02*
D03*
Y381200D02*
D03*
Y391200D02*
D03*
Y401200D02*
D03*
Y411200D02*
D03*
Y421200D02*
D03*
Y431200D02*
D03*
X312044Y402344D02*
D03*
Y412344D02*
D03*
Y422344D02*
D03*
X415244Y432744D02*
D03*
X405244D02*
D03*
X395244D02*
D03*
X463500Y351200D02*
D03*
Y361200D02*
D03*
Y371200D02*
D03*
Y381200D02*
D03*
Y391200D02*
D03*
Y401200D02*
D03*
Y411200D02*
D03*
Y421200D02*
D03*
Y431200D02*
D03*
D54*
X132044Y252344D02*
D03*
X312044D02*
D03*
X132044Y432344D02*
D03*
X312044D02*
D03*
D55*
X141744Y166744D02*
D03*
Y171744D02*
D03*
X146744Y166744D02*
D03*
Y171744D02*
D03*
X151744Y166744D02*
D03*
Y171744D02*
D03*
X156744Y166744D02*
D03*
Y171744D02*
D03*
X161744Y166744D02*
D03*
X321744D02*
D03*
Y171744D02*
D03*
X326744Y166744D02*
D03*
Y171744D02*
D03*
X331744Y166744D02*
D03*
Y171744D02*
D03*
X336744Y166744D02*
D03*
Y171744D02*
D03*
X341744Y166744D02*
D03*
X141744Y346744D02*
D03*
Y351744D02*
D03*
X146744Y346744D02*
D03*
Y351744D02*
D03*
X151744Y346744D02*
D03*
Y351744D02*
D03*
X156744Y346744D02*
D03*
Y351744D02*
D03*
X161744Y346744D02*
D03*
X321744D02*
D03*
Y351744D02*
D03*
X326744Y346744D02*
D03*
Y351744D02*
D03*
X331744Y346744D02*
D03*
Y351744D02*
D03*
X336744Y346744D02*
D03*
Y351744D02*
D03*
X341744Y346744D02*
D03*
D56*
X161744Y171744D02*
D03*
X341744D02*
D03*
X161744Y351744D02*
D03*
X341744D02*
D03*
D57*
X205244Y252744D02*
D03*
X283500Y161200D02*
D03*
X385244Y252744D02*
D03*
X463500Y161200D02*
D03*
X205244Y432744D02*
D03*
X283500Y341200D02*
D03*
X385244Y432744D02*
D03*
X463500Y341200D02*
D03*
D58*
X235744Y276244D02*
D03*
X215744D02*
D03*
X415744D02*
D03*
X395744D02*
D03*
X235744Y456244D02*
D03*
X215744D02*
D03*
X415744D02*
D03*
X395744D02*
D03*
D59*
X150244Y207744D02*
D03*
X249400Y229705D02*
D03*
X184500Y143895D02*
D03*
X190800Y217300D02*
D03*
X183987Y168409D02*
D03*
X233941Y225283D02*
D03*
X232600Y165100D02*
D03*
X195700Y230200D02*
D03*
X186300Y200600D02*
D03*
X226418Y163000D02*
D03*
X173100Y191300D02*
D03*
X194700Y141400D02*
D03*
X166000Y165300D02*
D03*
X192600Y153100D02*
D03*
X188900Y152400D02*
D03*
X197900Y146186D02*
D03*
X192600Y149500D02*
D03*
X178000Y156600D02*
D03*
X154600Y181244D02*
D03*
X141244Y246244D02*
D03*
X141044Y226544D02*
D03*
X149244Y246344D02*
D03*
X149644Y226644D02*
D03*
X172444Y234044D02*
D03*
X166644D02*
D03*
X166744Y261644D02*
D03*
X167044Y268444D02*
D03*
X166644Y264944D02*
D03*
X169544Y234044D02*
D03*
X180244Y260744D02*
D03*
X188244D02*
D03*
X196244Y264744D02*
D03*
X176244Y268744D02*
D03*
X192244D02*
D03*
X196244D02*
D03*
X200244Y264744D02*
D03*
X230500Y168409D02*
D03*
X252200Y162700D02*
D03*
X243900Y237200D02*
D03*
X258744Y202700D02*
D03*
X255100Y190400D02*
D03*
X249100Y196900D02*
D03*
X238900Y220700D02*
D03*
Y186044D02*
D03*
X234700Y188100D02*
D03*
X272900Y205200D02*
D03*
X245900Y172900D02*
D03*
X245500Y186600D02*
D03*
X246100Y200700D02*
D03*
X228900Y160100D02*
D03*
X230700Y211200D02*
D03*
X234700Y192200D02*
D03*
X266700Y181800D02*
D03*
X175244Y202244D02*
D03*
X159087Y202744D02*
D03*
X212744Y185744D02*
D03*
X220244Y189744D02*
D03*
X221744Y185244D02*
D03*
X217744Y187244D02*
D03*
Y150244D02*
D03*
X222300Y151830D02*
D03*
X220200Y157244D02*
D03*
X207744Y188744D02*
D03*
X203744Y178244D02*
D03*
X224400Y227244D02*
D03*
X203744Y190244D02*
D03*
X199744Y188244D02*
D03*
X183244Y187244D02*
D03*
X187244Y181244D02*
D03*
X178744Y200744D02*
D03*
X202400Y165244D02*
D03*
X189744Y185244D02*
D03*
X213244Y148744D02*
D03*
X214744Y142244D02*
D03*
X242618Y148744D02*
D03*
X215244Y243244D02*
D03*
X201244Y239744D02*
D03*
X202244Y236244D02*
D03*
X199744Y243244D02*
D03*
X201244Y229244D02*
D03*
X198744Y234244D02*
D03*
X190244Y225900D02*
D03*
X232244Y238244D02*
D03*
X255244Y215244D02*
D03*
X234744Y202744D02*
D03*
X198544Y199889D02*
D03*
X141244Y232244D02*
D03*
X150244D02*
D03*
X141244Y251244D02*
D03*
X182744Y256744D02*
D03*
X180244Y268744D02*
D03*
X184244Y264744D02*
D03*
X176744Y236744D02*
D03*
X186244Y236650D02*
D03*
X188244Y234244D02*
D03*
Y230744D02*
D03*
X183744D02*
D03*
Y225244D02*
D03*
X192244Y260744D02*
D03*
X178744Y234244D02*
D03*
X183744D02*
D03*
X185744Y227744D02*
D03*
X172744Y225244D02*
D03*
X168744D02*
D03*
X181744Y221244D02*
D03*
X140744Y217244D02*
D03*
X136244Y260244D02*
D03*
Y269244D02*
D03*
X135744Y277244D02*
D03*
X143744Y283744D02*
D03*
X150744D02*
D03*
X158744Y283244D02*
D03*
X159744Y262244D02*
D03*
X147744Y217244D02*
D03*
X151744Y128744D02*
D03*
X206744Y128945D02*
D03*
X268744Y170344D02*
D03*
X242744Y128945D02*
D03*
X221744Y178244D02*
D03*
X226244Y191244D02*
D03*
X258744Y134244D02*
D03*
X259244Y157244D02*
D03*
X171744Y150744D02*
D03*
X330244Y207744D02*
D03*
X429400Y229705D02*
D03*
X364500Y143895D02*
D03*
X370800Y217300D02*
D03*
X363987Y168409D02*
D03*
X413941Y225283D02*
D03*
X412600Y165100D02*
D03*
X375700Y230200D02*
D03*
X366300Y200600D02*
D03*
X406418Y163000D02*
D03*
X353100Y191300D02*
D03*
X374700Y141400D02*
D03*
X346000Y165300D02*
D03*
X372600Y153100D02*
D03*
X368900Y152400D02*
D03*
X377900Y146186D02*
D03*
X372600Y149500D02*
D03*
X358000Y156600D02*
D03*
X334600Y181244D02*
D03*
X321244Y246244D02*
D03*
X321044Y226544D02*
D03*
X329244Y246344D02*
D03*
X329644Y226644D02*
D03*
X352444Y234044D02*
D03*
X346644D02*
D03*
X346744Y261644D02*
D03*
X347044Y268444D02*
D03*
X346644Y264944D02*
D03*
X349544Y234044D02*
D03*
X360244Y260744D02*
D03*
X368244D02*
D03*
X376244Y264744D02*
D03*
X356244Y268744D02*
D03*
X372244D02*
D03*
X376244D02*
D03*
X380244Y264744D02*
D03*
X410500Y168409D02*
D03*
X432200Y162700D02*
D03*
X423900Y237200D02*
D03*
X438744Y202700D02*
D03*
X435100Y190400D02*
D03*
X429100Y196900D02*
D03*
X418900Y220700D02*
D03*
Y186044D02*
D03*
X414700Y188100D02*
D03*
X452900Y205200D02*
D03*
X425900Y172900D02*
D03*
X425500Y186600D02*
D03*
X426100Y200700D02*
D03*
X408900Y160100D02*
D03*
X410700Y211200D02*
D03*
X414700Y192200D02*
D03*
X446700Y181800D02*
D03*
X355244Y202244D02*
D03*
X339087Y202744D02*
D03*
X392744Y185744D02*
D03*
X400244Y189744D02*
D03*
X401744Y185244D02*
D03*
X397744Y187244D02*
D03*
Y150244D02*
D03*
X402300Y151830D02*
D03*
X400200Y157244D02*
D03*
X387744Y188744D02*
D03*
X383744Y178244D02*
D03*
X404400Y227244D02*
D03*
X383744Y190244D02*
D03*
X379744Y188244D02*
D03*
X363244Y187244D02*
D03*
X367244Y181244D02*
D03*
X358744Y200744D02*
D03*
X382400Y165244D02*
D03*
X369744Y185244D02*
D03*
X393244Y148744D02*
D03*
X394744Y142244D02*
D03*
X422618Y148744D02*
D03*
X395244Y243244D02*
D03*
X381244Y239744D02*
D03*
X382244Y236244D02*
D03*
X379744Y243244D02*
D03*
X381244Y229244D02*
D03*
X378744Y234244D02*
D03*
X370244Y225900D02*
D03*
X412244Y238244D02*
D03*
X435244Y215244D02*
D03*
X414744Y202744D02*
D03*
X378544Y199889D02*
D03*
X321244Y232244D02*
D03*
X330244D02*
D03*
X321244Y251244D02*
D03*
X362744Y256744D02*
D03*
X360244Y268744D02*
D03*
X364244Y264744D02*
D03*
X356744Y236744D02*
D03*
X366244Y236650D02*
D03*
X368244Y234244D02*
D03*
Y230744D02*
D03*
X363744D02*
D03*
Y225244D02*
D03*
X372244Y260744D02*
D03*
X358744Y234244D02*
D03*
X363744D02*
D03*
X365744Y227744D02*
D03*
X352744Y225244D02*
D03*
X348744D02*
D03*
X361744Y221244D02*
D03*
X320744Y217244D02*
D03*
X316244Y260244D02*
D03*
Y269244D02*
D03*
X315744Y277244D02*
D03*
X323744Y283744D02*
D03*
X330744D02*
D03*
X338744Y283244D02*
D03*
X339744Y262244D02*
D03*
X327744Y217244D02*
D03*
X331744Y128744D02*
D03*
X386744Y128945D02*
D03*
X448744Y170344D02*
D03*
X422744Y128945D02*
D03*
X401744Y178244D02*
D03*
X406244Y191244D02*
D03*
X438744Y134244D02*
D03*
X439244Y157244D02*
D03*
X351744Y150744D02*
D03*
X150244Y387744D02*
D03*
X249400Y409705D02*
D03*
X184500Y323895D02*
D03*
X190800Y397300D02*
D03*
X183987Y348409D02*
D03*
X233941Y405283D02*
D03*
X232600Y345100D02*
D03*
X195700Y410200D02*
D03*
X186300Y380600D02*
D03*
X226418Y343000D02*
D03*
X173100Y371300D02*
D03*
X194700Y321400D02*
D03*
X166000Y345300D02*
D03*
X192600Y333100D02*
D03*
X188900Y332400D02*
D03*
X197900Y326186D02*
D03*
X192600Y329500D02*
D03*
X178000Y336600D02*
D03*
X154600Y361244D02*
D03*
X141244Y426244D02*
D03*
X141044Y406544D02*
D03*
X149244Y426344D02*
D03*
X149644Y406644D02*
D03*
X172444Y414044D02*
D03*
X166644D02*
D03*
X166744Y441644D02*
D03*
X167044Y448444D02*
D03*
X166644Y444944D02*
D03*
X169544Y414044D02*
D03*
X180244Y440744D02*
D03*
X188244D02*
D03*
X196244Y444744D02*
D03*
X176244Y448744D02*
D03*
X192244D02*
D03*
X196244D02*
D03*
X200244Y444744D02*
D03*
X230500Y348409D02*
D03*
X252200Y342700D02*
D03*
X243900Y417200D02*
D03*
X258744Y382700D02*
D03*
X255100Y370400D02*
D03*
X249100Y376900D02*
D03*
X238900Y400700D02*
D03*
Y366044D02*
D03*
X234700Y368100D02*
D03*
X272900Y385200D02*
D03*
X245900Y352900D02*
D03*
X245500Y366600D02*
D03*
X246100Y380700D02*
D03*
X228900Y340100D02*
D03*
X230700Y391200D02*
D03*
X234700Y372200D02*
D03*
X266700Y361800D02*
D03*
X175244Y382244D02*
D03*
X159087Y382744D02*
D03*
X212744Y365744D02*
D03*
X220244Y369744D02*
D03*
X221744Y365244D02*
D03*
X217744Y367244D02*
D03*
Y330244D02*
D03*
X222300Y331830D02*
D03*
X220200Y337244D02*
D03*
X207744Y368744D02*
D03*
X203744Y358244D02*
D03*
X224400Y407244D02*
D03*
X203744Y370244D02*
D03*
X199744Y368244D02*
D03*
X183244Y367244D02*
D03*
X187244Y361244D02*
D03*
X178744Y380744D02*
D03*
X202400Y345244D02*
D03*
X189744Y365244D02*
D03*
X213244Y328744D02*
D03*
X214744Y322244D02*
D03*
X242618Y328744D02*
D03*
X215244Y423244D02*
D03*
X201244Y419744D02*
D03*
X202244Y416244D02*
D03*
X199744Y423244D02*
D03*
X201244Y409244D02*
D03*
X198744Y414244D02*
D03*
X190244Y405900D02*
D03*
X232244Y418244D02*
D03*
X255244Y395244D02*
D03*
X234744Y382744D02*
D03*
X198544Y379889D02*
D03*
X141244Y412244D02*
D03*
X150244D02*
D03*
X141244Y431244D02*
D03*
X182744Y436744D02*
D03*
X180244Y448744D02*
D03*
X184244Y444744D02*
D03*
X176744Y416744D02*
D03*
X186244Y416650D02*
D03*
X188244Y414244D02*
D03*
Y410744D02*
D03*
X183744D02*
D03*
Y405244D02*
D03*
X192244Y440744D02*
D03*
X178744Y414244D02*
D03*
X183744D02*
D03*
X185744Y407744D02*
D03*
X172744Y405244D02*
D03*
X168744D02*
D03*
X181744Y401244D02*
D03*
X140744Y397244D02*
D03*
X136244Y440244D02*
D03*
Y449244D02*
D03*
X135744Y457244D02*
D03*
X143744Y463744D02*
D03*
X150744D02*
D03*
X158744Y463244D02*
D03*
X159744Y442244D02*
D03*
X147744Y397244D02*
D03*
X151744Y308744D02*
D03*
X206744Y308945D02*
D03*
X268744Y350344D02*
D03*
X242744Y308945D02*
D03*
X221744Y358244D02*
D03*
X226244Y371244D02*
D03*
X258744Y314244D02*
D03*
X259244Y337244D02*
D03*
X171744Y330744D02*
D03*
X330244Y387744D02*
D03*
X429400Y409705D02*
D03*
X364500Y323895D02*
D03*
X370800Y397300D02*
D03*
X363987Y348409D02*
D03*
X413941Y405283D02*
D03*
X412600Y345100D02*
D03*
X375700Y410200D02*
D03*
X366300Y380600D02*
D03*
X406418Y343000D02*
D03*
X353100Y371300D02*
D03*
X374700Y321400D02*
D03*
X346000Y345300D02*
D03*
X372600Y333100D02*
D03*
X368900Y332400D02*
D03*
X377900Y326186D02*
D03*
X372600Y329500D02*
D03*
X358000Y336600D02*
D03*
X334600Y361244D02*
D03*
X321244Y426244D02*
D03*
X321044Y406544D02*
D03*
X329244Y426344D02*
D03*
X329644Y406644D02*
D03*
X352444Y414044D02*
D03*
X346644D02*
D03*
X346744Y441644D02*
D03*
X347044Y448444D02*
D03*
X346644Y444944D02*
D03*
X349544Y414044D02*
D03*
X360244Y440744D02*
D03*
X368244D02*
D03*
X376244Y444744D02*
D03*
X356244Y448744D02*
D03*
X372244D02*
D03*
X376244D02*
D03*
X380244Y444744D02*
D03*
X410500Y348409D02*
D03*
X432200Y342700D02*
D03*
X423900Y417200D02*
D03*
X438744Y382700D02*
D03*
X435100Y370400D02*
D03*
X429100Y376900D02*
D03*
X418900Y400700D02*
D03*
Y366044D02*
D03*
X414700Y368100D02*
D03*
X452900Y385200D02*
D03*
X425900Y352900D02*
D03*
X425500Y366600D02*
D03*
X426100Y380700D02*
D03*
X408900Y340100D02*
D03*
X410700Y391200D02*
D03*
X414700Y372200D02*
D03*
X446700Y361800D02*
D03*
X355244Y382244D02*
D03*
X339087Y382744D02*
D03*
X392744Y365744D02*
D03*
X400244Y369744D02*
D03*
X401744Y365244D02*
D03*
X397744Y367244D02*
D03*
Y330244D02*
D03*
X402300Y331830D02*
D03*
X400200Y337244D02*
D03*
X387744Y368744D02*
D03*
X383744Y358244D02*
D03*
X404400Y407244D02*
D03*
X383744Y370244D02*
D03*
X379744Y368244D02*
D03*
X363244Y367244D02*
D03*
X367244Y361244D02*
D03*
X358744Y380744D02*
D03*
X382400Y345244D02*
D03*
X369744Y365244D02*
D03*
X393244Y328744D02*
D03*
X394744Y322244D02*
D03*
X422618Y328744D02*
D03*
X395244Y423244D02*
D03*
X381244Y419744D02*
D03*
X382244Y416244D02*
D03*
X379744Y423244D02*
D03*
X381244Y409244D02*
D03*
X378744Y414244D02*
D03*
X370244Y405900D02*
D03*
X412244Y418244D02*
D03*
X435244Y395244D02*
D03*
X414744Y382744D02*
D03*
X378544Y379889D02*
D03*
X321244Y412244D02*
D03*
X330244D02*
D03*
X321244Y431244D02*
D03*
X362744Y436744D02*
D03*
X360244Y448744D02*
D03*
X364244Y444744D02*
D03*
X356744Y416744D02*
D03*
X366244Y416650D02*
D03*
X368244Y414244D02*
D03*
Y410744D02*
D03*
X363744D02*
D03*
Y405244D02*
D03*
X372244Y440744D02*
D03*
X358744Y414244D02*
D03*
X363744D02*
D03*
X365744Y407744D02*
D03*
X352744Y405244D02*
D03*
X348744D02*
D03*
X361744Y401244D02*
D03*
X320744Y397244D02*
D03*
X316244Y440244D02*
D03*
Y449244D02*
D03*
X315744Y457244D02*
D03*
X323744Y463744D02*
D03*
X330744D02*
D03*
X338744Y463244D02*
D03*
X339744Y442244D02*
D03*
X327744Y397244D02*
D03*
X331744Y308744D02*
D03*
X386744Y308945D02*
D03*
X448744Y350344D02*
D03*
X422744Y308945D02*
D03*
X401744Y358244D02*
D03*
X406244Y371244D02*
D03*
X438744Y314244D02*
D03*
X439244Y337244D02*
D03*
X351744Y330744D02*
D03*
D60*
X177013Y250875D02*
D03*
X181344D02*
D03*
X185675D02*
D03*
X177013Y246544D02*
D03*
X181344D02*
D03*
X185675D02*
D03*
X177013Y242213D02*
D03*
X181344D02*
D03*
X185675D02*
D03*
X357013Y250875D02*
D03*
X361344D02*
D03*
X365675D02*
D03*
X357013Y246544D02*
D03*
X361344D02*
D03*
X365675D02*
D03*
X357013Y242213D02*
D03*
X361344D02*
D03*
X365675D02*
D03*
X177013Y430875D02*
D03*
X181344D02*
D03*
X185675D02*
D03*
X177013Y426544D02*
D03*
X181344D02*
D03*
X185675D02*
D03*
X177013Y422213D02*
D03*
X181344D02*
D03*
X185675D02*
D03*
X357013Y430875D02*
D03*
X361344D02*
D03*
X365675D02*
D03*
X357013Y426544D02*
D03*
X361344D02*
D03*
X365675D02*
D03*
X357013Y422213D02*
D03*
X361344D02*
D03*
X365675D02*
D03*
M02*
