G04 Layer_Color=255*
%FSLAX25Y25*%
%MOIN*%
G70*
G01*
G75*
%ADD13R,0.03347X0.03150*%
%ADD24R,0.03543X0.02953*%
%ADD49C,0.01000*%
%ADD50O,0.04724X0.09449*%
%ADD51O,0.06102X0.03543*%
%ADD52O,0.03740X0.04921*%
%ADD53C,0.07000*%
%ADD54R,0.07000X0.07000*%
%ADD55C,0.04000*%
%ADD56R,0.04000X0.04000*%
%ADD57R,0.07000X0.07000*%
%ADD58C,0.07874*%
%ADD61R,0.03150X0.03347*%
%ADD62R,0.02953X0.03543*%
G04:AMPARAMS|DCode=63|XSize=23.62mil|YSize=62.99mil|CornerRadius=5.91mil|HoleSize=0mil|Usage=FLASHONLY|Rotation=0.000|XOffset=0mil|YOffset=0mil|HoleType=Round|Shape=RoundedRectangle|*
%AMROUNDEDRECTD63*
21,1,0.02362,0.05118,0,0,0.0*
21,1,0.01181,0.06299,0,0,0.0*
1,1,0.01181,0.00591,-0.02559*
1,1,0.01181,-0.00591,-0.02559*
1,1,0.01181,-0.00591,0.02559*
1,1,0.01181,0.00591,0.02559*
%
%ADD63ROUNDEDRECTD63*%
%ADD64R,0.02362X0.06299*%
%ADD65R,0.01772X0.05512*%
%ADD66O,0.01772X0.05512*%
D13*
X211283Y173244D02*
D03*
X216205D02*
D03*
X207784Y161744D02*
D03*
X212705D02*
D03*
X207784Y156744D02*
D03*
X212705D02*
D03*
X188705Y193244D02*
D03*
X183783D02*
D03*
X213205Y227244D02*
D03*
X208283D02*
D03*
X211205Y237244D02*
D03*
X206283D02*
D03*
X211205Y243244D02*
D03*
X206283D02*
D03*
X203705Y153744D02*
D03*
X198783D02*
D03*
X198283Y159244D02*
D03*
X203205D02*
D03*
X192205Y168244D02*
D03*
X187284D02*
D03*
X391283Y173244D02*
D03*
X396205D02*
D03*
X387784Y161744D02*
D03*
X392705D02*
D03*
X387784Y156744D02*
D03*
X392705D02*
D03*
X368705Y193244D02*
D03*
X363783D02*
D03*
X393205Y227244D02*
D03*
X388283D02*
D03*
X391205Y237244D02*
D03*
X386283D02*
D03*
X391205Y243244D02*
D03*
X386283D02*
D03*
X383705Y153744D02*
D03*
X378783D02*
D03*
X378283Y159244D02*
D03*
X383205D02*
D03*
X372205Y168244D02*
D03*
X367284D02*
D03*
X211283Y353244D02*
D03*
X216205D02*
D03*
X207784Y341744D02*
D03*
X212705D02*
D03*
X207784Y336744D02*
D03*
X212705D02*
D03*
X188705Y373244D02*
D03*
X183783D02*
D03*
X213205Y407244D02*
D03*
X208283D02*
D03*
X211205Y417244D02*
D03*
X206283D02*
D03*
X211205Y423244D02*
D03*
X206283D02*
D03*
X203705Y333744D02*
D03*
X198783D02*
D03*
X198283Y339244D02*
D03*
X203205D02*
D03*
X192205Y348244D02*
D03*
X187284D02*
D03*
X391283Y353244D02*
D03*
X396205D02*
D03*
X387784Y341744D02*
D03*
X392705D02*
D03*
X387784Y336744D02*
D03*
X392705D02*
D03*
X368705Y373244D02*
D03*
X363783D02*
D03*
X393205Y407244D02*
D03*
X388283D02*
D03*
X391205Y417244D02*
D03*
X386283D02*
D03*
X391205Y423244D02*
D03*
X386283D02*
D03*
X383705Y333744D02*
D03*
X378783D02*
D03*
X378283Y339244D02*
D03*
X383205D02*
D03*
X372205Y348244D02*
D03*
X367284D02*
D03*
D24*
X249244Y203587D02*
D03*
Y208902D02*
D03*
X258744Y206087D02*
D03*
Y211402D02*
D03*
X249744Y170087D02*
D03*
Y175402D02*
D03*
X259244Y172587D02*
D03*
Y177902D02*
D03*
X258744Y190087D02*
D03*
Y195402D02*
D03*
X249244Y187087D02*
D03*
Y192402D02*
D03*
X429244Y203587D02*
D03*
Y208902D02*
D03*
X438744Y206087D02*
D03*
Y211402D02*
D03*
X429744Y170087D02*
D03*
Y175402D02*
D03*
X439244Y172587D02*
D03*
Y177902D02*
D03*
X438744Y190087D02*
D03*
Y195402D02*
D03*
X429244Y187087D02*
D03*
Y192402D02*
D03*
X249244Y383587D02*
D03*
Y388902D02*
D03*
X258744Y386087D02*
D03*
Y391402D02*
D03*
X249744Y350087D02*
D03*
Y355402D02*
D03*
X259244Y352587D02*
D03*
Y357902D02*
D03*
X258744Y370087D02*
D03*
Y375402D02*
D03*
X249244Y367087D02*
D03*
Y372402D02*
D03*
X429244Y383587D02*
D03*
Y388902D02*
D03*
X438744Y386087D02*
D03*
Y391402D02*
D03*
X429744Y350087D02*
D03*
Y355402D02*
D03*
X439244Y352587D02*
D03*
Y357902D02*
D03*
X438744Y370087D02*
D03*
Y375402D02*
D03*
X429244Y367087D02*
D03*
Y372402D02*
D03*
D49*
X125000Y260000D02*
D03*
Y265000D02*
D03*
Y255000D02*
D03*
Y250000D02*
D03*
Y245000D02*
D03*
Y240000D02*
D03*
X124600Y152500D02*
D03*
Y157500D02*
D03*
Y162500D02*
D03*
Y167500D02*
D03*
Y177500D02*
D03*
Y172500D02*
D03*
X290600Y150000D02*
D03*
Y155000D02*
D03*
Y160000D02*
D03*
Y165000D02*
D03*
Y175000D02*
D03*
Y170000D02*
D03*
X305100Y150000D02*
D03*
Y155000D02*
D03*
Y160000D02*
D03*
Y165000D02*
D03*
Y175000D02*
D03*
Y170000D02*
D03*
X291400Y229800D02*
D03*
Y234800D02*
D03*
Y239800D02*
D03*
Y244800D02*
D03*
Y254800D02*
D03*
Y249800D02*
D03*
X304800Y229300D02*
D03*
Y234300D02*
D03*
Y239300D02*
D03*
Y244300D02*
D03*
Y254300D02*
D03*
Y249300D02*
D03*
X125200Y409200D02*
D03*
Y414200D02*
D03*
Y419200D02*
D03*
Y424200D02*
D03*
Y434200D02*
D03*
Y429200D02*
D03*
X291200Y338300D02*
D03*
Y343300D02*
D03*
Y348300D02*
D03*
Y353300D02*
D03*
Y363300D02*
D03*
Y358300D02*
D03*
X291000Y404100D02*
D03*
Y409100D02*
D03*
Y414100D02*
D03*
Y419100D02*
D03*
Y429100D02*
D03*
Y424100D02*
D03*
X304900Y404500D02*
D03*
Y409500D02*
D03*
Y414500D02*
D03*
Y419500D02*
D03*
Y429500D02*
D03*
Y424500D02*
D03*
X304700Y338200D02*
D03*
Y343200D02*
D03*
Y348200D02*
D03*
Y353200D02*
D03*
Y363200D02*
D03*
Y358200D02*
D03*
X471200Y401400D02*
D03*
Y406400D02*
D03*
Y411400D02*
D03*
Y416400D02*
D03*
Y426400D02*
D03*
Y421400D02*
D03*
X471600Y339500D02*
D03*
Y344500D02*
D03*
Y349500D02*
D03*
Y354500D02*
D03*
Y364500D02*
D03*
Y359500D02*
D03*
Y216100D02*
D03*
Y221100D02*
D03*
Y226100D02*
D03*
Y231100D02*
D03*
Y241100D02*
D03*
Y236100D02*
D03*
X470600Y152500D02*
D03*
Y157500D02*
D03*
Y162500D02*
D03*
Y167500D02*
D03*
Y177500D02*
D03*
Y172500D02*
D03*
X443700Y124400D02*
D03*
X438700D02*
D03*
X433700D02*
D03*
X428700D02*
D03*
X418700D02*
D03*
X423700D02*
D03*
X357000Y124000D02*
D03*
X352000D02*
D03*
X347000D02*
D03*
X342000D02*
D03*
X332000D02*
D03*
X337000D02*
D03*
X360500Y289900D02*
D03*
X355500D02*
D03*
X350500D02*
D03*
X345500D02*
D03*
X335500D02*
D03*
X340500D02*
D03*
X432500Y290100D02*
D03*
X427500D02*
D03*
X422500D02*
D03*
X417500D02*
D03*
X407500D02*
D03*
X412500D02*
D03*
X431400Y303700D02*
D03*
X426400D02*
D03*
X421400D02*
D03*
X416400D02*
D03*
X406400D02*
D03*
X411400D02*
D03*
X360600Y304500D02*
D03*
X355600D02*
D03*
X350600D02*
D03*
X345600D02*
D03*
X335600D02*
D03*
X340600D02*
D03*
X365000Y469600D02*
D03*
X360000D02*
D03*
X355000D02*
D03*
X350000D02*
D03*
X340000D02*
D03*
X345000D02*
D03*
X435000D02*
D03*
X430000D02*
D03*
X425000D02*
D03*
X420000D02*
D03*
X410000D02*
D03*
X415000D02*
D03*
X252600D02*
D03*
X247600D02*
D03*
X242600D02*
D03*
X237600D02*
D03*
X227600D02*
D03*
X232600D02*
D03*
X183200Y469800D02*
D03*
X178200D02*
D03*
X173200D02*
D03*
X168200D02*
D03*
X158200D02*
D03*
X163200D02*
D03*
X175500Y303900D02*
D03*
X170500D02*
D03*
X165500D02*
D03*
X160500D02*
D03*
X150500D02*
D03*
X155500D02*
D03*
X175700Y290100D02*
D03*
X170700D02*
D03*
X165700D02*
D03*
X160700D02*
D03*
X150700D02*
D03*
X155700D02*
D03*
X260900Y303300D02*
D03*
X255900D02*
D03*
X250900D02*
D03*
X245900D02*
D03*
X235900D02*
D03*
X240900D02*
D03*
X261100Y290100D02*
D03*
X256100D02*
D03*
X251100D02*
D03*
X246100D02*
D03*
X236100D02*
D03*
X241100D02*
D03*
X261300Y123800D02*
D03*
X256300D02*
D03*
X251300D02*
D03*
X246300D02*
D03*
X236300D02*
D03*
X241300D02*
D03*
X180500Y124000D02*
D03*
X175500D02*
D03*
X170500D02*
D03*
X165500D02*
D03*
X155500D02*
D03*
X160500D02*
D03*
X125100Y351700D02*
D03*
Y356700D02*
D03*
Y346700D02*
D03*
Y341700D02*
D03*
Y336700D02*
D03*
Y331700D02*
D03*
D50*
X147744Y146744D02*
D03*
X269791D02*
D03*
Y268791D02*
D03*
X147744D02*
D03*
X327744Y146744D02*
D03*
X449791D02*
D03*
Y268791D02*
D03*
X327744D02*
D03*
X147744Y326744D02*
D03*
X269791D02*
D03*
Y448791D02*
D03*
X147744D02*
D03*
X327744Y326744D02*
D03*
X449791D02*
D03*
Y448791D02*
D03*
X327744D02*
D03*
D51*
X133008Y181964D02*
D03*
Y209524D02*
D03*
X313008Y181964D02*
D03*
Y209524D02*
D03*
X133008Y361964D02*
D03*
Y389524D02*
D03*
X313008Y361964D02*
D03*
Y389524D02*
D03*
D52*
X144031Y185901D02*
D03*
Y205587D02*
D03*
X324031Y185901D02*
D03*
Y205587D02*
D03*
X144031Y365901D02*
D03*
Y385587D02*
D03*
X324031Y365901D02*
D03*
Y385587D02*
D03*
D53*
X132044Y222344D02*
D03*
Y232344D02*
D03*
Y242344D02*
D03*
X235244Y252744D02*
D03*
X225244D02*
D03*
X215244D02*
D03*
X283500Y171200D02*
D03*
Y181200D02*
D03*
Y191200D02*
D03*
Y201200D02*
D03*
Y211200D02*
D03*
Y221200D02*
D03*
Y231200D02*
D03*
Y241200D02*
D03*
Y251200D02*
D03*
X312044Y222344D02*
D03*
Y232344D02*
D03*
Y242344D02*
D03*
X415244Y252744D02*
D03*
X405244D02*
D03*
X395244D02*
D03*
X463500Y171200D02*
D03*
Y181200D02*
D03*
Y191200D02*
D03*
Y201200D02*
D03*
Y211200D02*
D03*
Y221200D02*
D03*
Y231200D02*
D03*
Y241200D02*
D03*
Y251200D02*
D03*
X132044Y402344D02*
D03*
Y412344D02*
D03*
Y422344D02*
D03*
X235244Y432744D02*
D03*
X225244D02*
D03*
X215244D02*
D03*
X283500Y351200D02*
D03*
Y361200D02*
D03*
Y371200D02*
D03*
Y381200D02*
D03*
Y391200D02*
D03*
Y401200D02*
D03*
Y411200D02*
D03*
Y421200D02*
D03*
Y431200D02*
D03*
X312044Y402344D02*
D03*
Y412344D02*
D03*
Y422344D02*
D03*
X415244Y432744D02*
D03*
X405244D02*
D03*
X395244D02*
D03*
X463500Y351200D02*
D03*
Y361200D02*
D03*
Y371200D02*
D03*
Y381200D02*
D03*
Y391200D02*
D03*
Y401200D02*
D03*
Y411200D02*
D03*
Y421200D02*
D03*
Y431200D02*
D03*
D54*
X132044Y252344D02*
D03*
X312044D02*
D03*
X132044Y432344D02*
D03*
X312044D02*
D03*
D55*
X141744Y166744D02*
D03*
Y171744D02*
D03*
X146744Y166744D02*
D03*
Y171744D02*
D03*
X151744Y166744D02*
D03*
Y171744D02*
D03*
X156744Y166744D02*
D03*
Y171744D02*
D03*
X161744Y166744D02*
D03*
X321744D02*
D03*
Y171744D02*
D03*
X326744Y166744D02*
D03*
Y171744D02*
D03*
X331744Y166744D02*
D03*
Y171744D02*
D03*
X336744Y166744D02*
D03*
Y171744D02*
D03*
X341744Y166744D02*
D03*
X141744Y346744D02*
D03*
Y351744D02*
D03*
X146744Y346744D02*
D03*
Y351744D02*
D03*
X151744Y346744D02*
D03*
Y351744D02*
D03*
X156744Y346744D02*
D03*
Y351744D02*
D03*
X161744Y346744D02*
D03*
X321744D02*
D03*
Y351744D02*
D03*
X326744Y346744D02*
D03*
Y351744D02*
D03*
X331744Y346744D02*
D03*
Y351744D02*
D03*
X336744Y346744D02*
D03*
Y351744D02*
D03*
X341744Y346744D02*
D03*
D56*
X161744Y171744D02*
D03*
X341744D02*
D03*
X161744Y351744D02*
D03*
X341744D02*
D03*
D57*
X205244Y252744D02*
D03*
X283500Y161200D02*
D03*
X385244Y252744D02*
D03*
X463500Y161200D02*
D03*
X205244Y432744D02*
D03*
X283500Y341200D02*
D03*
X385244Y432744D02*
D03*
X463500Y341200D02*
D03*
D58*
X235744Y276244D02*
D03*
X215744D02*
D03*
X415744D02*
D03*
X395744D02*
D03*
X235744Y456244D02*
D03*
X215744D02*
D03*
X415744D02*
D03*
X395744D02*
D03*
D61*
X258744Y226783D02*
D03*
Y231705D02*
D03*
X253744Y227283D02*
D03*
Y232205D02*
D03*
X238744Y230205D02*
D03*
Y225283D02*
D03*
X244744Y229705D02*
D03*
Y224783D02*
D03*
X262244Y249205D02*
D03*
Y244283D02*
D03*
X239744Y194205D02*
D03*
Y189283D02*
D03*
X438744Y226783D02*
D03*
Y231705D02*
D03*
X433744Y227283D02*
D03*
Y232205D02*
D03*
X418744Y230205D02*
D03*
Y225283D02*
D03*
X424744Y229705D02*
D03*
Y224783D02*
D03*
X442244Y249205D02*
D03*
Y244283D02*
D03*
X419744Y194205D02*
D03*
Y189283D02*
D03*
X258744Y406783D02*
D03*
Y411705D02*
D03*
X253744Y407283D02*
D03*
Y412205D02*
D03*
X238744Y410205D02*
D03*
Y405283D02*
D03*
X244744Y409705D02*
D03*
Y404783D02*
D03*
X262244Y429205D02*
D03*
Y424283D02*
D03*
X239744Y374205D02*
D03*
Y369283D02*
D03*
X438744Y406783D02*
D03*
Y411705D02*
D03*
X433744Y407283D02*
D03*
Y412205D02*
D03*
X418744Y410205D02*
D03*
Y405283D02*
D03*
X424744Y409705D02*
D03*
Y404783D02*
D03*
X442244Y429205D02*
D03*
Y424283D02*
D03*
X419744Y374205D02*
D03*
Y369283D02*
D03*
D62*
X169587Y157244D02*
D03*
X174901D02*
D03*
X224902Y237244D02*
D03*
X219587D02*
D03*
X224902Y243244D02*
D03*
X219587D02*
D03*
X164902Y181244D02*
D03*
X159587D02*
D03*
X170087Y197244D02*
D03*
X175401D02*
D03*
X159587D02*
D03*
X164901D02*
D03*
X180587Y152744D02*
D03*
X185901D02*
D03*
X349587Y157244D02*
D03*
X354901D02*
D03*
X404902Y237244D02*
D03*
X399587D02*
D03*
X404902Y243244D02*
D03*
X399587D02*
D03*
X344902Y181244D02*
D03*
X339587D02*
D03*
X350087Y197244D02*
D03*
X355401D02*
D03*
X339587D02*
D03*
X344901D02*
D03*
X360587Y152744D02*
D03*
X365901D02*
D03*
X169587Y337244D02*
D03*
X174901D02*
D03*
X224902Y417244D02*
D03*
X219587D02*
D03*
X224902Y423244D02*
D03*
X219587D02*
D03*
X164902Y361244D02*
D03*
X159587D02*
D03*
X170087Y377244D02*
D03*
X175401D02*
D03*
X159587D02*
D03*
X164901D02*
D03*
X180587Y332744D02*
D03*
X185901D02*
D03*
X349587Y337244D02*
D03*
X354901D02*
D03*
X404902Y417244D02*
D03*
X399587D02*
D03*
X404902Y423244D02*
D03*
X399587D02*
D03*
X344902Y361244D02*
D03*
X339587D02*
D03*
X350087Y377244D02*
D03*
X355401D02*
D03*
X339587D02*
D03*
X344901D02*
D03*
X360587Y332744D02*
D03*
X365901D02*
D03*
D63*
X189984Y199701D02*
D03*
X369984D02*
D03*
X189984Y379701D02*
D03*
X369984D02*
D03*
D64*
X182504Y199701D02*
D03*
X186244Y206787D02*
D03*
X362504Y199701D02*
D03*
X366244Y206787D02*
D03*
X182504Y379701D02*
D03*
X186244Y386787D02*
D03*
X362504Y379701D02*
D03*
X366244Y386787D02*
D03*
D65*
X216421Y196177D02*
D03*
X396421D02*
D03*
X216421Y376177D02*
D03*
X396421D02*
D03*
D66*
X213862Y196177D02*
D03*
X211303D02*
D03*
X208744D02*
D03*
X206185D02*
D03*
X203626D02*
D03*
X201067D02*
D03*
X216421Y219406D02*
D03*
X213862D02*
D03*
X211303D02*
D03*
X208744D02*
D03*
X206185D02*
D03*
X203626D02*
D03*
X201067D02*
D03*
X393862Y196177D02*
D03*
X391303D02*
D03*
X388744D02*
D03*
X386185D02*
D03*
X383626D02*
D03*
X381067D02*
D03*
X396421Y219406D02*
D03*
X393862D02*
D03*
X391303D02*
D03*
X388744D02*
D03*
X386185D02*
D03*
X383626D02*
D03*
X381067D02*
D03*
X213862Y376177D02*
D03*
X211303D02*
D03*
X208744D02*
D03*
X206185D02*
D03*
X203626D02*
D03*
X201067D02*
D03*
X216421Y399406D02*
D03*
X213862D02*
D03*
X211303D02*
D03*
X208744D02*
D03*
X206185D02*
D03*
X203626D02*
D03*
X201067D02*
D03*
X393862Y376177D02*
D03*
X391303D02*
D03*
X388744D02*
D03*
X386185D02*
D03*
X383626D02*
D03*
X381067D02*
D03*
X396421Y399406D02*
D03*
X393862D02*
D03*
X391303D02*
D03*
X388744D02*
D03*
X386185D02*
D03*
X383626D02*
D03*
X381067D02*
D03*
M02*
