G04 Layer_Color=65535*
%FSLAX25Y25*%
%MOIN*%
G70*
G01*
G75*
%ADD43C,0.00800*%
%ADD45C,0.01000*%
%ADD67C,0.00984*%
%ADD68C,0.00500*%
%ADD69C,0.00787*%
%ADD70C,0.01400*%
D43*
X193044Y273687D02*
G03*
X193044Y273687I-12400J0D01*
G01*
X249243Y142743D02*
X248744Y143243D01*
X247744D01*
X247244Y142743D01*
Y142243D01*
X247744Y141744D01*
X248744D01*
X249243Y141244D01*
Y140744D01*
X248744Y140244D01*
X247744D01*
X247244Y140744D01*
X250243Y143243D02*
Y140244D01*
X251243Y141244D01*
X252242Y140244D01*
Y143243D01*
X254742Y140244D02*
Y143243D01*
X253242Y141744D01*
X255241D01*
X251743Y263743D02*
X250744D01*
X251244D01*
Y261244D01*
X250744Y260744D01*
X250244D01*
X249744Y261244D01*
X252743Y263243D02*
X253243Y263743D01*
X254243D01*
X254743Y263243D01*
Y262743D01*
X254243Y262244D01*
X253743D01*
X254243D01*
X254743Y261744D01*
Y261244D01*
X254243Y260744D01*
X253243D01*
X252743Y261244D01*
X151199Y182299D02*
X150200D01*
X150699D01*
Y179800D01*
X150200Y179300D01*
X149700D01*
X149200Y179800D01*
X154198Y182299D02*
X152199D01*
Y180799D01*
X153199Y181299D01*
X153699D01*
X154198Y180799D01*
Y179800D01*
X153699Y179300D01*
X152699D01*
X152199Y179800D01*
X156743Y279743D02*
X156244Y280243D01*
X155244D01*
X154744Y279743D01*
Y277744D01*
X155244Y277244D01*
X156244D01*
X156743Y277744D01*
X159742Y277244D02*
X157743D01*
X159742Y279243D01*
Y279743D01*
X159243Y280243D01*
X158243D01*
X157743Y279743D01*
X160742Y277244D02*
X161742D01*
X161242D01*
Y280243D01*
X160742Y279743D01*
X228200Y162199D02*
Y161699D01*
X229200Y160699D01*
X230199Y161699D01*
Y162199D01*
X229200Y160699D02*
Y159200D01*
X231199D02*
X232199D01*
X231699D01*
Y162199D01*
X231199Y161699D01*
X149345Y190844D02*
X151844D01*
X152344Y191344D01*
Y192344D01*
X151844Y192843D01*
X149345D01*
X149845Y195843D02*
X149345Y195343D01*
Y194343D01*
X149845Y193843D01*
X150345D01*
X150845Y194343D01*
Y195343D01*
X151344Y195843D01*
X151844D01*
X152344Y195343D01*
Y194343D01*
X151844Y193843D01*
X149345Y196842D02*
X152344D01*
Y198342D01*
X151844Y198842D01*
X151344D01*
X150845Y198342D01*
Y196842D01*
Y198342D01*
X150345Y198842D01*
X149845D01*
X149345Y198342D01*
Y196842D01*
X152344Y199841D02*
Y200841D01*
Y200341D01*
X149345D01*
X149845Y199841D01*
X187000Y181699D02*
Y179200D01*
X187500Y178700D01*
X188499D01*
X188999Y179200D01*
Y181699D01*
X189999Y181199D02*
X190499Y181699D01*
X191499D01*
X191998Y181199D01*
Y180699D01*
X191499Y180200D01*
X191998Y179700D01*
Y179200D01*
X191499Y178700D01*
X190499D01*
X189999Y179200D01*
Y179700D01*
X190499Y180200D01*
X189999Y180699D01*
Y181199D01*
X190499Y180200D02*
X191499D01*
X172544Y189143D02*
Y186644D01*
X173044Y186144D01*
X174044D01*
X174543Y186644D01*
Y189143D01*
X175543D02*
X177542D01*
Y188643D01*
X175543Y186644D01*
Y186144D01*
X248244Y238243D02*
Y235744D01*
X248744Y235244D01*
X249744D01*
X250243Y235744D01*
Y238243D01*
X253242Y235244D02*
X251243D01*
X253242Y237243D01*
Y237743D01*
X252743Y238243D01*
X251743D01*
X251243Y237743D01*
X146743Y218243D02*
X146244Y218743D01*
X145244D01*
X144744Y218243D01*
Y217743D01*
X145244Y217244D01*
X146244D01*
X146743Y216744D01*
Y216244D01*
X146244Y215744D01*
X145244D01*
X144744Y216244D01*
X147743Y218743D02*
Y215744D01*
X148743Y216744D01*
X149742Y215744D01*
Y218743D01*
X152742D02*
X150742D01*
Y217244D01*
X151742Y217743D01*
X152242D01*
X152742Y217244D01*
Y216244D01*
X152242Y215744D01*
X151242D01*
X150742Y216244D01*
X244100Y236500D02*
X241101D01*
Y238000D01*
X241601Y238499D01*
X242600D01*
X243100Y238000D01*
Y236500D01*
Y237500D02*
X244100Y238499D01*
Y241498D02*
Y239499D01*
X242101Y241498D01*
X241601D01*
X241101Y240999D01*
Y239999D01*
X241601Y239499D01*
X234244Y227744D02*
X231245D01*
Y229244D01*
X231745Y229743D01*
X232745D01*
X233244Y229244D01*
Y227744D01*
Y228744D02*
X234244Y229743D01*
Y230743D02*
Y231743D01*
Y231243D01*
X231245D01*
X231745Y230743D01*
X153600Y159899D02*
Y156900D01*
X155599D01*
X158598Y159899D02*
X156599D01*
Y156900D01*
X158598D01*
X156599Y158399D02*
X157599D01*
X159598Y159899D02*
Y156900D01*
X161098D01*
X161597Y157400D01*
Y159399D01*
X161098Y159899D01*
X159598D01*
X164596Y156900D02*
X162597D01*
X164596Y158899D01*
Y159399D01*
X164097Y159899D01*
X163097D01*
X162597Y159399D01*
X169644Y182943D02*
Y179944D01*
X171643D01*
X174643Y182943D02*
X172643D01*
Y179944D01*
X174643D01*
X172643Y181444D02*
X173643D01*
X175642Y182943D02*
Y179944D01*
X177142D01*
X177641Y180444D01*
Y182443D01*
X177142Y182943D01*
X175642D01*
X178641Y179944D02*
X179641D01*
X179141D01*
Y182943D01*
X178641Y182443D01*
X242444Y253243D02*
Y250244D01*
X243944D01*
X244443Y250744D01*
Y252743D01*
X243944Y253243D01*
X242444D01*
X245443Y250244D02*
X246443D01*
X245943D01*
Y253243D01*
X245443Y252743D01*
X247099Y156699D02*
X246600Y157199D01*
X245600D01*
X245100Y156699D01*
Y154700D01*
X245600Y154200D01*
X246600D01*
X247099Y154700D01*
X248099Y154200D02*
X249099D01*
X248599D01*
Y157199D01*
X248099Y156699D01*
X250598D02*
X251098Y157199D01*
X252098D01*
X252598Y156699D01*
Y156199D01*
X252098Y155700D01*
X252598Y155200D01*
Y154700D01*
X252098Y154200D01*
X251098D01*
X250598Y154700D01*
Y155200D01*
X251098Y155700D01*
X250598Y156199D01*
Y156699D01*
X251098Y155700D02*
X252098D01*
X238999Y149399D02*
X238499Y149899D01*
X237500D01*
X237000Y149399D01*
Y147400D01*
X237500Y146900D01*
X238499D01*
X238999Y147400D01*
X239999Y146900D02*
X240999D01*
X240499D01*
Y149899D01*
X239999Y149399D01*
X242498Y149899D02*
X244498D01*
Y149399D01*
X242498Y147400D01*
Y146900D01*
X164743Y230243D02*
X164244Y230743D01*
X163244D01*
X162744Y230243D01*
Y228244D01*
X163244Y227744D01*
X164244D01*
X164743Y228244D01*
X165743Y227744D02*
X166743D01*
X166243D01*
Y230743D01*
X165743Y230243D01*
X168242D02*
X168742Y230743D01*
X169742D01*
X170242Y230243D01*
Y229743D01*
X169742Y229244D01*
X169242D01*
X169742D01*
X170242Y228744D01*
Y228244D01*
X169742Y227744D01*
X168742D01*
X168242Y228244D01*
X197244Y259244D02*
X197744D01*
X198244Y259744D01*
Y262243D01*
X200243Y260244D02*
X201243D01*
X200743D01*
Y263243D01*
X200243Y262743D01*
X129500Y260400D02*
X130000D01*
X130500Y260900D01*
Y263399D01*
X134498Y264399D02*
X133499Y263899D01*
X132499Y262899D01*
Y261900D01*
X132999Y261400D01*
X133999D01*
X134498Y261900D01*
Y262400D01*
X133999Y262899D01*
X132499D01*
X147400Y235600D02*
Y238599D01*
X148899D01*
X149399Y238099D01*
Y237100D01*
X148899Y236600D01*
X147400D01*
X148400D02*
X149399Y235600D01*
X150399D02*
X151399D01*
X150899D01*
Y238599D01*
X150399Y238099D01*
X152898D02*
X153398Y238599D01*
X154398D01*
X154898Y238099D01*
Y236100D01*
X154398Y235600D01*
X153398D01*
X152898Y236100D01*
Y238099D01*
X147800Y255300D02*
Y258299D01*
X149300D01*
X149799Y257799D01*
Y256800D01*
X149300Y256300D01*
X147800D01*
X148800D02*
X149799Y255300D01*
X150799D02*
X151799D01*
X151299D01*
Y258299D01*
X150799Y257799D01*
X153298Y255300D02*
X154298D01*
X153798D01*
Y258299D01*
X153298Y257799D01*
X170543Y141243D02*
X170044Y141743D01*
X169044D01*
X168544Y141243D01*
Y140743D01*
X169044Y140244D01*
X170044D01*
X170543Y139744D01*
Y139244D01*
X170044Y138744D01*
X169044D01*
X168544Y139244D01*
X171543Y141743D02*
Y138744D01*
X172543Y139744D01*
X173542Y138744D01*
Y141743D01*
X174542Y138744D02*
X175542D01*
X175042D01*
Y141743D01*
X174542Y141243D01*
X161244Y258743D02*
Y256244D01*
X161744Y255744D01*
X162744D01*
X163243Y256244D01*
Y258743D01*
X164243Y255744D02*
X165243D01*
X164743D01*
Y258743D01*
X164243Y258243D01*
X204743Y141743D02*
X204244Y142243D01*
X203244D01*
X202744Y141743D01*
Y141243D01*
X203244Y140744D01*
X204244D01*
X204743Y140244D01*
Y139744D01*
X204244Y139244D01*
X203244D01*
X202744Y139744D01*
X205743Y142243D02*
Y139244D01*
X206743Y140244D01*
X207743Y139244D01*
Y142243D01*
X208742Y141743D02*
X209242Y142243D01*
X210242D01*
X210741Y141743D01*
Y141243D01*
X210242Y140744D01*
X209742D01*
X210242D01*
X210741Y140244D01*
Y139744D01*
X210242Y139244D01*
X209242D01*
X208742Y139744D01*
X244743Y205244D02*
Y207243D01*
X244244Y207743D01*
X243244D01*
X242744Y207243D01*
Y205244D01*
X243244Y204744D01*
X244244D01*
X243744Y205744D02*
X244743Y204744D01*
X244244D02*
X244743Y205244D01*
X245743Y204744D02*
X246743D01*
X246243D01*
Y207743D01*
X245743Y207243D01*
X242743Y188744D02*
Y190743D01*
X242244Y191243D01*
X241244D01*
X240744Y190743D01*
Y188744D01*
X241244Y188244D01*
X242244D01*
X241744Y189244D02*
X242743Y188244D01*
X242244D02*
X242743Y188744D01*
X243743Y190743D02*
X244243Y191243D01*
X245243D01*
X245743Y190743D01*
Y190243D01*
X245243Y189744D01*
X244743D01*
X245243D01*
X245743Y189244D01*
Y188744D01*
X245243Y188244D01*
X244243D01*
X243743Y188744D01*
X241743Y172244D02*
Y174243D01*
X241244Y174743D01*
X240244D01*
X239744Y174243D01*
Y172244D01*
X240244Y171744D01*
X241244D01*
X240744Y172744D02*
X241743Y171744D01*
X241244D02*
X241743Y172244D01*
X244243Y171744D02*
Y174743D01*
X242743Y173244D01*
X244742D01*
X284243Y262743D02*
X283244D01*
X283744D01*
Y260244D01*
X283244Y259744D01*
X282744D01*
X282244Y260244D01*
X287243Y259744D02*
X285243D01*
X287243Y261743D01*
Y262243D01*
X286743Y262743D01*
X285743D01*
X285243Y262243D01*
X165720Y330492D02*
X169052D01*
X167386D01*
Y325494D01*
X171551D02*
X173217D01*
X174050Y326327D01*
Y327993D01*
X173217Y328826D01*
X171551D01*
X170718Y327993D01*
Y326327D01*
X171551Y325494D01*
X175716Y323828D02*
Y328826D01*
X178216D01*
X179049Y327993D01*
Y326327D01*
X178216Y325494D01*
X175716D01*
X189046Y329659D02*
X188212Y330492D01*
X186546D01*
X185713Y329659D01*
Y328826D01*
X186546Y327993D01*
X188212D01*
X189046Y327160D01*
Y326327D01*
X188212Y325494D01*
X186546D01*
X185713Y326327D01*
X190712Y325494D02*
X192378D01*
X191545D01*
Y328826D01*
X190712D01*
X194877Y325494D02*
X196543D01*
X195710D01*
Y330492D01*
X194877D01*
X199042Y325494D02*
Y330492D01*
Y327160D02*
X201541Y328826D01*
X199042Y327160D02*
X201541Y325494D01*
X204041D02*
X206540D01*
X207373Y326327D01*
X206540Y327160D01*
X204874D01*
X204041Y327993D01*
X204874Y328826D01*
X207373D01*
X212371D02*
X209872D01*
X209039Y327993D01*
Y326327D01*
X209872Y325494D01*
X212371D01*
X214037Y328826D02*
Y325494D01*
Y327160D01*
X214870Y327993D01*
X215704Y328826D01*
X216537D01*
X221535Y325494D02*
X219869D01*
X219036Y326327D01*
Y327993D01*
X219869Y328826D01*
X221535D01*
X222368Y327993D01*
Y327160D01*
X219036D01*
X226533Y325494D02*
X224867D01*
X224034Y326327D01*
Y327993D01*
X224867Y328826D01*
X226533D01*
X227366Y327993D01*
Y327160D01*
X224034D01*
X229032Y325494D02*
Y328826D01*
X231532D01*
X232365Y327993D01*
Y325494D01*
X261744Y253617D02*
Y251618D01*
X262744Y250618D01*
X263743Y251618D01*
Y253617D01*
X264743D02*
X265743D01*
X265243D01*
Y250618D01*
X264743D01*
X265743D01*
X267242D02*
Y253617D01*
X269242Y250618D01*
Y253617D01*
X263243Y243243D02*
X262744Y243743D01*
X261744D01*
X261244Y243243D01*
Y242743D01*
X261744Y242244D01*
X262744D01*
X263243Y241744D01*
Y241244D01*
X262744Y240744D01*
X261744D01*
X261244Y241244D01*
X264243Y243743D02*
X266243D01*
X265243D01*
Y240744D01*
X267242D02*
Y243743D01*
X268742D01*
X269241Y243243D01*
Y242244D01*
X268742Y241744D01*
X267242D01*
X261244Y232243D02*
Y229244D01*
X262744D01*
X263243Y229744D01*
Y231743D01*
X262744Y232243D01*
X261244D01*
X264243D02*
X265243D01*
X264743D01*
Y229244D01*
X264243D01*
X265243D01*
X266742D02*
Y232243D01*
X268242D01*
X268742Y231743D01*
Y230744D01*
X268242Y230244D01*
X266742D01*
X267742D02*
X268742Y229244D01*
X263744Y202243D02*
Y199244D01*
X265244D01*
X265743Y199744D01*
Y201743D01*
X265244Y202243D01*
X263744D01*
X266743Y201743D02*
X267243Y202243D01*
X268243D01*
X268742Y201743D01*
Y201243D01*
X268243Y200744D01*
X267743D01*
X268243D01*
X268742Y200244D01*
Y199744D01*
X268243Y199244D01*
X267243D01*
X266743Y199744D01*
X260123Y185865D02*
X261537Y184451D01*
X262951D01*
X262951Y185865D01*
X261537Y187278D01*
X262597Y187632D02*
Y188339D01*
X263304Y189046D01*
X264011Y189046D01*
X264365Y188692D01*
Y187985D01*
X264011Y187632D01*
X264365Y187985D01*
X265072Y187985D01*
X265425Y187632D01*
X265425Y186925D01*
X264718Y186218D01*
X264011D01*
X266485Y187985D02*
X266132Y188339D01*
X266485Y188692D01*
X266839Y188339D01*
X266485Y187985D01*
Y191520D02*
Y192227D01*
X267192Y192933D01*
X267899Y192933D01*
X268253Y192580D01*
Y191873D01*
X267899Y191520D01*
X268253Y191873D01*
X268959D01*
X269313Y191520D01*
Y190813D01*
X268606Y190106D01*
X267899D01*
X263744Y181243D02*
X265743D01*
X264744D01*
Y178244D01*
X266743Y181243D02*
X268742Y178244D01*
Y181243D02*
X266743Y178244D01*
X263744Y169044D02*
Y172043D01*
X265244D01*
X265743Y171543D01*
Y170544D01*
X265244Y170044D01*
X263744D01*
X264744D02*
X265743Y169044D01*
X266743Y172043D02*
X268742Y169044D01*
Y172043D02*
X266743Y169044D01*
X263743Y212243D02*
X263244Y212743D01*
X262244D01*
X261744Y212243D01*
Y210244D01*
X262244Y209744D01*
X263244D01*
X263743Y210244D01*
Y211244D01*
X262744D01*
X264743Y209744D02*
Y212743D01*
X266742Y209744D01*
Y212743D01*
X267742D02*
Y209744D01*
X269242D01*
X269742Y210244D01*
Y212243D01*
X269242Y212743D01*
X267742D01*
X258243Y221743D02*
X256244D01*
Y218744D01*
X258243D01*
X256244Y220244D02*
X257244D01*
X259243Y218744D02*
Y221743D01*
X260743D01*
X261243Y221243D01*
Y220244D01*
X260743Y219744D01*
X259243D01*
X260243D02*
X261243Y218744D01*
X262242D02*
Y221743D01*
X263742D01*
X264242Y221243D01*
Y220244D01*
X263742Y219744D01*
X262242D01*
X263242D02*
X264242Y218744D01*
X266741Y221743D02*
X265741D01*
X265241Y221243D01*
Y219244D01*
X265741Y218744D01*
X266741D01*
X267241Y219244D01*
Y221243D01*
X266741Y221743D01*
X268240Y218744D02*
Y221743D01*
X269740D01*
X270240Y221243D01*
Y220244D01*
X269740Y219744D01*
X268240D01*
X269240D02*
X270240Y218744D01*
X262743Y162243D02*
X262244Y162743D01*
X261244D01*
X260744Y162243D01*
Y160244D01*
X261244Y159744D01*
X262244D01*
X262743Y160244D01*
Y161244D01*
X261744D01*
X263743Y159744D02*
Y162743D01*
X265742Y159744D01*
Y162743D01*
X266742D02*
Y159744D01*
X268242D01*
X268741Y160244D01*
Y162243D01*
X268242Y162743D01*
X266742D01*
X373044Y273687D02*
G03*
X373044Y273687I-12400J0D01*
G01*
X429243Y142743D02*
X428744Y143243D01*
X427744D01*
X427244Y142743D01*
Y142243D01*
X427744Y141744D01*
X428744D01*
X429243Y141244D01*
Y140744D01*
X428744Y140244D01*
X427744D01*
X427244Y140744D01*
X430243Y143243D02*
Y140244D01*
X431243Y141244D01*
X432242Y140244D01*
Y143243D01*
X434742Y140244D02*
Y143243D01*
X433242Y141744D01*
X435242D01*
X431743Y263743D02*
X430744D01*
X431244D01*
Y261244D01*
X430744Y260744D01*
X430244D01*
X429744Y261244D01*
X432743Y263243D02*
X433243Y263743D01*
X434243D01*
X434742Y263243D01*
Y262743D01*
X434243Y262244D01*
X433743D01*
X434243D01*
X434742Y261744D01*
Y261244D01*
X434243Y260744D01*
X433243D01*
X432743Y261244D01*
X331199Y182299D02*
X330200D01*
X330699D01*
Y179800D01*
X330200Y179300D01*
X329700D01*
X329200Y179800D01*
X334198Y182299D02*
X332199D01*
Y180799D01*
X333199Y181299D01*
X333699D01*
X334198Y180799D01*
Y179800D01*
X333699Y179300D01*
X332699D01*
X332199Y179800D01*
X336743Y279743D02*
X336244Y280243D01*
X335244D01*
X334744Y279743D01*
Y277744D01*
X335244Y277244D01*
X336244D01*
X336743Y277744D01*
X339742Y277244D02*
X337743D01*
X339742Y279243D01*
Y279743D01*
X339243Y280243D01*
X338243D01*
X337743Y279743D01*
X340742Y277244D02*
X341742D01*
X341242D01*
Y280243D01*
X340742Y279743D01*
X408200Y162199D02*
Y161699D01*
X409200Y160699D01*
X410199Y161699D01*
Y162199D01*
X409200Y160699D02*
Y159200D01*
X411199D02*
X412199D01*
X411699D01*
Y162199D01*
X411199Y161699D01*
X329345Y190844D02*
X331844D01*
X332344Y191344D01*
Y192344D01*
X331844Y192843D01*
X329345D01*
X329845Y195843D02*
X329345Y195343D01*
Y194343D01*
X329845Y193843D01*
X330345D01*
X330845Y194343D01*
Y195343D01*
X331344Y195843D01*
X331844D01*
X332344Y195343D01*
Y194343D01*
X331844Y193843D01*
X329345Y196842D02*
X332344D01*
Y198342D01*
X331844Y198842D01*
X331344D01*
X330845Y198342D01*
Y196842D01*
Y198342D01*
X330345Y198842D01*
X329845D01*
X329345Y198342D01*
Y196842D01*
X332344Y199841D02*
Y200841D01*
Y200341D01*
X329345D01*
X329845Y199841D01*
X367000Y181699D02*
Y179200D01*
X367500Y178700D01*
X368499D01*
X368999Y179200D01*
Y181699D01*
X369999Y181199D02*
X370499Y181699D01*
X371498D01*
X371998Y181199D01*
Y180699D01*
X371498Y180200D01*
X371998Y179700D01*
Y179200D01*
X371498Y178700D01*
X370499D01*
X369999Y179200D01*
Y179700D01*
X370499Y180200D01*
X369999Y180699D01*
Y181199D01*
X370499Y180200D02*
X371498D01*
X352544Y189143D02*
Y186644D01*
X353044Y186144D01*
X354044D01*
X354543Y186644D01*
Y189143D01*
X355543D02*
X357542D01*
Y188643D01*
X355543Y186644D01*
Y186144D01*
X428244Y238243D02*
Y235744D01*
X428744Y235244D01*
X429744D01*
X430243Y235744D01*
Y238243D01*
X433243Y235244D02*
X431243D01*
X433243Y237243D01*
Y237743D01*
X432743Y238243D01*
X431743D01*
X431243Y237743D01*
X326743Y218243D02*
X326244Y218743D01*
X325244D01*
X324744Y218243D01*
Y217743D01*
X325244Y217244D01*
X326244D01*
X326743Y216744D01*
Y216244D01*
X326244Y215744D01*
X325244D01*
X324744Y216244D01*
X327743Y218743D02*
Y215744D01*
X328743Y216744D01*
X329743Y215744D01*
Y218743D01*
X332741D02*
X330742D01*
Y217244D01*
X331742Y217743D01*
X332242D01*
X332741Y217244D01*
Y216244D01*
X332242Y215744D01*
X331242D01*
X330742Y216244D01*
X424100Y236500D02*
X421101D01*
Y238000D01*
X421601Y238499D01*
X422601D01*
X423100Y238000D01*
Y236500D01*
Y237500D02*
X424100Y238499D01*
Y241498D02*
Y239499D01*
X422101Y241498D01*
X421601D01*
X421101Y240999D01*
Y239999D01*
X421601Y239499D01*
X414244Y227744D02*
X411245D01*
Y229244D01*
X411745Y229743D01*
X412745D01*
X413244Y229244D01*
Y227744D01*
Y228744D02*
X414244Y229743D01*
Y230743D02*
Y231743D01*
Y231243D01*
X411245D01*
X411745Y230743D01*
X333600Y159899D02*
Y156900D01*
X335599D01*
X338598Y159899D02*
X336599D01*
Y156900D01*
X338598D01*
X336599Y158399D02*
X337599D01*
X339598Y159899D02*
Y156900D01*
X341098D01*
X341597Y157400D01*
Y159399D01*
X341098Y159899D01*
X339598D01*
X344596Y156900D02*
X342597D01*
X344596Y158899D01*
Y159399D01*
X344097Y159899D01*
X343097D01*
X342597Y159399D01*
X349644Y182943D02*
Y179944D01*
X351643D01*
X354643Y182943D02*
X352643D01*
Y179944D01*
X354643D01*
X352643Y181444D02*
X353643D01*
X355642Y182943D02*
Y179944D01*
X357142D01*
X357642Y180444D01*
Y182443D01*
X357142Y182943D01*
X355642D01*
X358641Y179944D02*
X359641D01*
X359141D01*
Y182943D01*
X358641Y182443D01*
X422444Y253243D02*
Y250244D01*
X423944D01*
X424443Y250744D01*
Y252743D01*
X423944Y253243D01*
X422444D01*
X425443Y250244D02*
X426443D01*
X425943D01*
Y253243D01*
X425443Y252743D01*
X427099Y156699D02*
X426600Y157199D01*
X425600D01*
X425100Y156699D01*
Y154700D01*
X425600Y154200D01*
X426600D01*
X427099Y154700D01*
X428099Y154200D02*
X429099D01*
X428599D01*
Y157199D01*
X428099Y156699D01*
X430598D02*
X431098Y157199D01*
X432098D01*
X432598Y156699D01*
Y156199D01*
X432098Y155700D01*
X432598Y155200D01*
Y154700D01*
X432098Y154200D01*
X431098D01*
X430598Y154700D01*
Y155200D01*
X431098Y155700D01*
X430598Y156199D01*
Y156699D01*
X431098Y155700D02*
X432098D01*
X418999Y149399D02*
X418500Y149899D01*
X417500D01*
X417000Y149399D01*
Y147400D01*
X417500Y146900D01*
X418500D01*
X418999Y147400D01*
X419999Y146900D02*
X420999D01*
X420499D01*
Y149899D01*
X419999Y149399D01*
X422498Y149899D02*
X424498D01*
Y149399D01*
X422498Y147400D01*
Y146900D01*
X344743Y230243D02*
X344244Y230743D01*
X343244D01*
X342744Y230243D01*
Y228244D01*
X343244Y227744D01*
X344244D01*
X344743Y228244D01*
X345743Y227744D02*
X346743D01*
X346243D01*
Y230743D01*
X345743Y230243D01*
X348242D02*
X348742Y230743D01*
X349742D01*
X350242Y230243D01*
Y229743D01*
X349742Y229244D01*
X349242D01*
X349742D01*
X350242Y228744D01*
Y228244D01*
X349742Y227744D01*
X348742D01*
X348242Y228244D01*
X377244Y259244D02*
X377744D01*
X378244Y259744D01*
Y262243D01*
X380243Y260244D02*
X381243D01*
X380743D01*
Y263243D01*
X380243Y262743D01*
X309500Y260400D02*
X310000D01*
X310500Y260900D01*
Y263399D01*
X314498Y264399D02*
X313499Y263899D01*
X312499Y262899D01*
Y261900D01*
X312999Y261400D01*
X313999D01*
X314498Y261900D01*
Y262400D01*
X313999Y262899D01*
X312499D01*
X327400Y235600D02*
Y238599D01*
X328900D01*
X329399Y238099D01*
Y237100D01*
X328900Y236600D01*
X327400D01*
X328400D02*
X329399Y235600D01*
X330399D02*
X331399D01*
X330899D01*
Y238599D01*
X330399Y238099D01*
X332898D02*
X333398Y238599D01*
X334398D01*
X334898Y238099D01*
Y236100D01*
X334398Y235600D01*
X333398D01*
X332898Y236100D01*
Y238099D01*
X327800Y255300D02*
Y258299D01*
X329299D01*
X329799Y257799D01*
Y256800D01*
X329299Y256300D01*
X327800D01*
X328800D02*
X329799Y255300D01*
X330799D02*
X331799D01*
X331299D01*
Y258299D01*
X330799Y257799D01*
X333298Y255300D02*
X334298D01*
X333798D01*
Y258299D01*
X333298Y257799D01*
X350543Y141243D02*
X350044Y141743D01*
X349044D01*
X348544Y141243D01*
Y140743D01*
X349044Y140244D01*
X350044D01*
X350543Y139744D01*
Y139244D01*
X350044Y138744D01*
X349044D01*
X348544Y139244D01*
X351543Y141743D02*
Y138744D01*
X352543Y139744D01*
X353542Y138744D01*
Y141743D01*
X354542Y138744D02*
X355542D01*
X355042D01*
Y141743D01*
X354542Y141243D01*
X341244Y258743D02*
Y256244D01*
X341744Y255744D01*
X342744D01*
X343243Y256244D01*
Y258743D01*
X344243Y255744D02*
X345243D01*
X344743D01*
Y258743D01*
X344243Y258243D01*
X384743Y141743D02*
X384244Y142243D01*
X383244D01*
X382744Y141743D01*
Y141243D01*
X383244Y140744D01*
X384244D01*
X384743Y140244D01*
Y139744D01*
X384244Y139244D01*
X383244D01*
X382744Y139744D01*
X385743Y142243D02*
Y139244D01*
X386743Y140244D01*
X387742Y139244D01*
Y142243D01*
X388742Y141743D02*
X389242Y142243D01*
X390242D01*
X390741Y141743D01*
Y141243D01*
X390242Y140744D01*
X389742D01*
X390242D01*
X390741Y140244D01*
Y139744D01*
X390242Y139244D01*
X389242D01*
X388742Y139744D01*
X424743Y205244D02*
Y207243D01*
X424244Y207743D01*
X423244D01*
X422744Y207243D01*
Y205244D01*
X423244Y204744D01*
X424244D01*
X423744Y205744D02*
X424743Y204744D01*
X424244D02*
X424743Y205244D01*
X425743Y204744D02*
X426743D01*
X426243D01*
Y207743D01*
X425743Y207243D01*
X422743Y188744D02*
Y190743D01*
X422244Y191243D01*
X421244D01*
X420744Y190743D01*
Y188744D01*
X421244Y188244D01*
X422244D01*
X421744Y189244D02*
X422743Y188244D01*
X422244D02*
X422743Y188744D01*
X423743Y190743D02*
X424243Y191243D01*
X425243D01*
X425742Y190743D01*
Y190243D01*
X425243Y189744D01*
X424743D01*
X425243D01*
X425742Y189244D01*
Y188744D01*
X425243Y188244D01*
X424243D01*
X423743Y188744D01*
X421743Y172244D02*
Y174243D01*
X421244Y174743D01*
X420244D01*
X419744Y174243D01*
Y172244D01*
X420244Y171744D01*
X421244D01*
X420744Y172744D02*
X421743Y171744D01*
X421244D02*
X421743Y172244D01*
X424243Y171744D02*
Y174743D01*
X422743Y173244D01*
X424743D01*
X464243Y262743D02*
X463244D01*
X463744D01*
Y260244D01*
X463244Y259744D01*
X462744D01*
X462244Y260244D01*
X467242Y259744D02*
X465243D01*
X467242Y261743D01*
Y262243D01*
X466743Y262743D01*
X465743D01*
X465243Y262243D01*
X345720Y330492D02*
X349052D01*
X347386D01*
Y325494D01*
X351551D02*
X353217D01*
X354050Y326327D01*
Y327993D01*
X353217Y328826D01*
X351551D01*
X350718Y327993D01*
Y326327D01*
X351551Y325494D01*
X355716Y323828D02*
Y328826D01*
X358216D01*
X359049Y327993D01*
Y326327D01*
X358216Y325494D01*
X355716D01*
X369045Y329659D02*
X368212Y330492D01*
X366546D01*
X365713Y329659D01*
Y328826D01*
X366546Y327993D01*
X368212D01*
X369045Y327160D01*
Y326327D01*
X368212Y325494D01*
X366546D01*
X365713Y326327D01*
X370712Y325494D02*
X372378D01*
X371545D01*
Y328826D01*
X370712D01*
X374877Y325494D02*
X376543D01*
X375710D01*
Y330492D01*
X374877D01*
X379042Y325494D02*
Y330492D01*
Y327160D02*
X381541Y328826D01*
X379042Y327160D02*
X381541Y325494D01*
X384041D02*
X386540D01*
X387373Y326327D01*
X386540Y327160D01*
X384874D01*
X384041Y327993D01*
X384874Y328826D01*
X387373D01*
X392371D02*
X389872D01*
X389039Y327993D01*
Y326327D01*
X389872Y325494D01*
X392371D01*
X394037Y328826D02*
Y325494D01*
Y327160D01*
X394870Y327993D01*
X395704Y328826D01*
X396537D01*
X401535Y325494D02*
X399869D01*
X399036Y326327D01*
Y327993D01*
X399869Y328826D01*
X401535D01*
X402368Y327993D01*
Y327160D01*
X399036D01*
X406533Y325494D02*
X404867D01*
X404034Y326327D01*
Y327993D01*
X404867Y328826D01*
X406533D01*
X407366Y327993D01*
Y327160D01*
X404034D01*
X409032Y325494D02*
Y328826D01*
X411532D01*
X412365Y327993D01*
Y325494D01*
X441744Y253617D02*
Y251618D01*
X442744Y250618D01*
X443743Y251618D01*
Y253617D01*
X444743D02*
X445743D01*
X445243D01*
Y250618D01*
X444743D01*
X445743D01*
X447242D02*
Y253617D01*
X449242Y250618D01*
Y253617D01*
X443243Y243243D02*
X442744Y243743D01*
X441744D01*
X441244Y243243D01*
Y242743D01*
X441744Y242244D01*
X442744D01*
X443243Y241744D01*
Y241244D01*
X442744Y240744D01*
X441744D01*
X441244Y241244D01*
X444243Y243743D02*
X446243D01*
X445243D01*
Y240744D01*
X447242D02*
Y243743D01*
X448742D01*
X449241Y243243D01*
Y242244D01*
X448742Y241744D01*
X447242D01*
X441244Y232243D02*
Y229244D01*
X442744D01*
X443243Y229744D01*
Y231743D01*
X442744Y232243D01*
X441244D01*
X444243D02*
X445243D01*
X444743D01*
Y229244D01*
X444243D01*
X445243D01*
X446742D02*
Y232243D01*
X448242D01*
X448742Y231743D01*
Y230744D01*
X448242Y230244D01*
X446742D01*
X447742D02*
X448742Y229244D01*
X443744Y202243D02*
Y199244D01*
X445244D01*
X445743Y199744D01*
Y201743D01*
X445244Y202243D01*
X443744D01*
X446743Y201743D02*
X447243Y202243D01*
X448243D01*
X448742Y201743D01*
Y201243D01*
X448243Y200744D01*
X447743D01*
X448243D01*
X448742Y200244D01*
Y199744D01*
X448243Y199244D01*
X447243D01*
X446743Y199744D01*
X440124Y185865D02*
X441537Y184451D01*
X442951D01*
X442951Y185865D01*
X441537Y187278D01*
X442597Y187632D02*
Y188339D01*
X443304Y189046D01*
X444011Y189046D01*
X444365Y188692D01*
Y187985D01*
X444011Y187632D01*
X444365Y187985D01*
X445072Y187985D01*
X445425Y187632D01*
X445425Y186925D01*
X444718Y186218D01*
X444011D01*
X446485Y187985D02*
X446132Y188339D01*
X446485Y188692D01*
X446839Y188339D01*
X446485Y187985D01*
Y191520D02*
Y192227D01*
X447192Y192933D01*
X447899Y192933D01*
X448252Y192580D01*
Y191873D01*
X447899Y191520D01*
X448252Y191873D01*
X448959D01*
X449313Y191520D01*
Y190813D01*
X448606Y190106D01*
X447899D01*
X443744Y181243D02*
X445743D01*
X444744D01*
Y178244D01*
X446743Y181243D02*
X448742Y178244D01*
Y181243D02*
X446743Y178244D01*
X443744Y169044D02*
Y172043D01*
X445244D01*
X445743Y171543D01*
Y170544D01*
X445244Y170044D01*
X443744D01*
X444744D02*
X445743Y169044D01*
X446743Y172043D02*
X448742Y169044D01*
Y172043D02*
X446743Y169044D01*
X443743Y212243D02*
X443244Y212743D01*
X442244D01*
X441744Y212243D01*
Y210244D01*
X442244Y209744D01*
X443244D01*
X443743Y210244D01*
Y211244D01*
X442744D01*
X444743Y209744D02*
Y212743D01*
X446742Y209744D01*
Y212743D01*
X447742D02*
Y209744D01*
X449242D01*
X449742Y210244D01*
Y212243D01*
X449242Y212743D01*
X447742D01*
X438243Y221743D02*
X436244D01*
Y218744D01*
X438243D01*
X436244Y220244D02*
X437244D01*
X439243Y218744D02*
Y221743D01*
X440743D01*
X441243Y221243D01*
Y220244D01*
X440743Y219744D01*
X439243D01*
X440243D02*
X441243Y218744D01*
X442242D02*
Y221743D01*
X443742D01*
X444242Y221243D01*
Y220244D01*
X443742Y219744D01*
X442242D01*
X443242D02*
X444242Y218744D01*
X446741Y221743D02*
X445741D01*
X445241Y221243D01*
Y219244D01*
X445741Y218744D01*
X446741D01*
X447240Y219244D01*
Y221243D01*
X446741Y221743D01*
X448240Y218744D02*
Y221743D01*
X449740D01*
X450240Y221243D01*
Y220244D01*
X449740Y219744D01*
X448240D01*
X449240D02*
X450240Y218744D01*
X442743Y162243D02*
X442244Y162743D01*
X441244D01*
X440744Y162243D01*
Y160244D01*
X441244Y159744D01*
X442244D01*
X442743Y160244D01*
Y161244D01*
X441744D01*
X443743Y159744D02*
Y162743D01*
X445743Y159744D01*
Y162743D01*
X446742D02*
Y159744D01*
X448242D01*
X448741Y160244D01*
Y162243D01*
X448242Y162743D01*
X446742D01*
X193044Y453687D02*
G03*
X193044Y453687I-12400J0D01*
G01*
X249243Y322743D02*
X248744Y323243D01*
X247744D01*
X247244Y322743D01*
Y322243D01*
X247744Y321744D01*
X248744D01*
X249243Y321244D01*
Y320744D01*
X248744Y320244D01*
X247744D01*
X247244Y320744D01*
X250243Y323243D02*
Y320244D01*
X251243Y321244D01*
X252242Y320244D01*
Y323243D01*
X254742Y320244D02*
Y323243D01*
X253242Y321744D01*
X255241D01*
X251743Y443743D02*
X250744D01*
X251244D01*
Y441244D01*
X250744Y440744D01*
X250244D01*
X249744Y441244D01*
X252743Y443243D02*
X253243Y443743D01*
X254243D01*
X254743Y443243D01*
Y442743D01*
X254243Y442244D01*
X253743D01*
X254243D01*
X254743Y441744D01*
Y441244D01*
X254243Y440744D01*
X253243D01*
X252743Y441244D01*
X151199Y362299D02*
X150200D01*
X150699D01*
Y359800D01*
X150200Y359300D01*
X149700D01*
X149200Y359800D01*
X154198Y362299D02*
X152199D01*
Y360800D01*
X153199Y361299D01*
X153699D01*
X154198Y360800D01*
Y359800D01*
X153699Y359300D01*
X152699D01*
X152199Y359800D01*
X156743Y459743D02*
X156244Y460243D01*
X155244D01*
X154744Y459743D01*
Y457744D01*
X155244Y457244D01*
X156244D01*
X156743Y457744D01*
X159742Y457244D02*
X157743D01*
X159742Y459243D01*
Y459743D01*
X159243Y460243D01*
X158243D01*
X157743Y459743D01*
X160742Y457244D02*
X161742D01*
X161242D01*
Y460243D01*
X160742Y459743D01*
X228200Y342199D02*
Y341699D01*
X229200Y340700D01*
X230199Y341699D01*
Y342199D01*
X229200Y340700D02*
Y339200D01*
X231199D02*
X232199D01*
X231699D01*
Y342199D01*
X231199Y341699D01*
X149345Y370844D02*
X151844D01*
X152344Y371344D01*
Y372344D01*
X151844Y372843D01*
X149345D01*
X149845Y375842D02*
X149345Y375343D01*
Y374343D01*
X149845Y373843D01*
X150345D01*
X150845Y374343D01*
Y375343D01*
X151344Y375842D01*
X151844D01*
X152344Y375343D01*
Y374343D01*
X151844Y373843D01*
X149345Y376842D02*
X152344D01*
Y378342D01*
X151844Y378841D01*
X151344D01*
X150845Y378342D01*
Y376842D01*
Y378342D01*
X150345Y378841D01*
X149845D01*
X149345Y378342D01*
Y376842D01*
X152344Y379841D02*
Y380841D01*
Y380341D01*
X149345D01*
X149845Y379841D01*
X187000Y361699D02*
Y359200D01*
X187500Y358700D01*
X188499D01*
X188999Y359200D01*
Y361699D01*
X189999Y361199D02*
X190499Y361699D01*
X191499D01*
X191998Y361199D01*
Y360699D01*
X191499Y360199D01*
X191998Y359700D01*
Y359200D01*
X191499Y358700D01*
X190499D01*
X189999Y359200D01*
Y359700D01*
X190499Y360199D01*
X189999Y360699D01*
Y361199D01*
X190499Y360199D02*
X191499D01*
X172544Y369143D02*
Y366644D01*
X173044Y366144D01*
X174044D01*
X174543Y366644D01*
Y369143D01*
X175543D02*
X177542D01*
Y368643D01*
X175543Y366644D01*
Y366144D01*
X248244Y418243D02*
Y415744D01*
X248744Y415244D01*
X249744D01*
X250243Y415744D01*
Y418243D01*
X253242Y415244D02*
X251243D01*
X253242Y417243D01*
Y417743D01*
X252743Y418243D01*
X251743D01*
X251243Y417743D01*
X146743Y398243D02*
X146244Y398743D01*
X145244D01*
X144744Y398243D01*
Y397743D01*
X145244Y397244D01*
X146244D01*
X146743Y396744D01*
Y396244D01*
X146244Y395744D01*
X145244D01*
X144744Y396244D01*
X147743Y398743D02*
Y395744D01*
X148743Y396744D01*
X149742Y395744D01*
Y398743D01*
X152742D02*
X150742D01*
Y397244D01*
X151742Y397743D01*
X152242D01*
X152742Y397244D01*
Y396244D01*
X152242Y395744D01*
X151242D01*
X150742Y396244D01*
X244100Y416500D02*
X241101D01*
Y418000D01*
X241601Y418499D01*
X242600D01*
X243100Y418000D01*
Y416500D01*
Y417500D02*
X244100Y418499D01*
Y421498D02*
Y419499D01*
X242101Y421498D01*
X241601D01*
X241101Y420998D01*
Y419999D01*
X241601Y419499D01*
X234244Y407744D02*
X231245D01*
Y409244D01*
X231745Y409743D01*
X232745D01*
X233244Y409244D01*
Y407744D01*
Y408744D02*
X234244Y409743D01*
Y410743D02*
Y411743D01*
Y411243D01*
X231245D01*
X231745Y410743D01*
X153600Y339899D02*
Y336900D01*
X155599D01*
X158598Y339899D02*
X156599D01*
Y336900D01*
X158598D01*
X156599Y338400D02*
X157599D01*
X159598Y339899D02*
Y336900D01*
X161098D01*
X161597Y337400D01*
Y339399D01*
X161098Y339899D01*
X159598D01*
X164596Y336900D02*
X162597D01*
X164596Y338899D01*
Y339399D01*
X164097Y339899D01*
X163097D01*
X162597Y339399D01*
X169644Y362943D02*
Y359944D01*
X171643D01*
X174643Y362943D02*
X172643D01*
Y359944D01*
X174643D01*
X172643Y361444D02*
X173643D01*
X175642Y362943D02*
Y359944D01*
X177142D01*
X177641Y360444D01*
Y362443D01*
X177142Y362943D01*
X175642D01*
X178641Y359944D02*
X179641D01*
X179141D01*
Y362943D01*
X178641Y362443D01*
X242444Y433243D02*
Y430244D01*
X243944D01*
X244443Y430744D01*
Y432743D01*
X243944Y433243D01*
X242444D01*
X245443Y430244D02*
X246443D01*
X245943D01*
Y433243D01*
X245443Y432743D01*
X247099Y336699D02*
X246600Y337199D01*
X245600D01*
X245100Y336699D01*
Y334700D01*
X245600Y334200D01*
X246600D01*
X247099Y334700D01*
X248099Y334200D02*
X249099D01*
X248599D01*
Y337199D01*
X248099Y336699D01*
X250598D02*
X251098Y337199D01*
X252098D01*
X252598Y336699D01*
Y336199D01*
X252098Y335700D01*
X252598Y335200D01*
Y334700D01*
X252098Y334200D01*
X251098D01*
X250598Y334700D01*
Y335200D01*
X251098Y335700D01*
X250598Y336199D01*
Y336699D01*
X251098Y335700D02*
X252098D01*
X238999Y329399D02*
X238499Y329899D01*
X237500D01*
X237000Y329399D01*
Y327400D01*
X237500Y326900D01*
X238499D01*
X238999Y327400D01*
X239999Y326900D02*
X240999D01*
X240499D01*
Y329899D01*
X239999Y329399D01*
X242498Y329899D02*
X244498D01*
Y329399D01*
X242498Y327400D01*
Y326900D01*
X164743Y410243D02*
X164244Y410743D01*
X163244D01*
X162744Y410243D01*
Y408244D01*
X163244Y407744D01*
X164244D01*
X164743Y408244D01*
X165743Y407744D02*
X166743D01*
X166243D01*
Y410743D01*
X165743Y410243D01*
X168242D02*
X168742Y410743D01*
X169742D01*
X170242Y410243D01*
Y409743D01*
X169742Y409244D01*
X169242D01*
X169742D01*
X170242Y408744D01*
Y408244D01*
X169742Y407744D01*
X168742D01*
X168242Y408244D01*
X197244Y439244D02*
X197744D01*
X198244Y439744D01*
Y442243D01*
X200243Y440244D02*
X201243D01*
X200743D01*
Y443243D01*
X200243Y442743D01*
X129500Y440400D02*
X130000D01*
X130500Y440900D01*
Y443399D01*
X134498Y444399D02*
X133499Y443899D01*
X132499Y442900D01*
Y441900D01*
X132999Y441400D01*
X133999D01*
X134498Y441900D01*
Y442400D01*
X133999Y442900D01*
X132499D01*
X147400Y415600D02*
Y418599D01*
X148899D01*
X149399Y418099D01*
Y417100D01*
X148899Y416600D01*
X147400D01*
X148400D02*
X149399Y415600D01*
X150399D02*
X151399D01*
X150899D01*
Y418599D01*
X150399Y418099D01*
X152898D02*
X153398Y418599D01*
X154398D01*
X154898Y418099D01*
Y416100D01*
X154398Y415600D01*
X153398D01*
X152898Y416100D01*
Y418099D01*
X147800Y435300D02*
Y438299D01*
X149300D01*
X149799Y437799D01*
Y436799D01*
X149300Y436300D01*
X147800D01*
X148800D02*
X149799Y435300D01*
X150799D02*
X151799D01*
X151299D01*
Y438299D01*
X150799Y437799D01*
X153298Y435300D02*
X154298D01*
X153798D01*
Y438299D01*
X153298Y437799D01*
X170543Y321243D02*
X170044Y321743D01*
X169044D01*
X168544Y321243D01*
Y320743D01*
X169044Y320244D01*
X170044D01*
X170543Y319744D01*
Y319244D01*
X170044Y318744D01*
X169044D01*
X168544Y319244D01*
X171543Y321743D02*
Y318744D01*
X172543Y319744D01*
X173542Y318744D01*
Y321743D01*
X174542Y318744D02*
X175542D01*
X175042D01*
Y321743D01*
X174542Y321243D01*
X161244Y438743D02*
Y436244D01*
X161744Y435744D01*
X162744D01*
X163243Y436244D01*
Y438743D01*
X164243Y435744D02*
X165243D01*
X164743D01*
Y438743D01*
X164243Y438243D01*
X204743Y321743D02*
X204244Y322243D01*
X203244D01*
X202744Y321743D01*
Y321243D01*
X203244Y320744D01*
X204244D01*
X204743Y320244D01*
Y319744D01*
X204244Y319244D01*
X203244D01*
X202744Y319744D01*
X205743Y322243D02*
Y319244D01*
X206743Y320244D01*
X207743Y319244D01*
Y322243D01*
X208742Y321743D02*
X209242Y322243D01*
X210242D01*
X210741Y321743D01*
Y321243D01*
X210242Y320744D01*
X209742D01*
X210242D01*
X210741Y320244D01*
Y319744D01*
X210242Y319244D01*
X209242D01*
X208742Y319744D01*
X244743Y385244D02*
Y387243D01*
X244244Y387743D01*
X243244D01*
X242744Y387243D01*
Y385244D01*
X243244Y384744D01*
X244244D01*
X243744Y385744D02*
X244743Y384744D01*
X244244D02*
X244743Y385244D01*
X245743Y384744D02*
X246743D01*
X246243D01*
Y387743D01*
X245743Y387243D01*
X242743Y368744D02*
Y370743D01*
X242244Y371243D01*
X241244D01*
X240744Y370743D01*
Y368744D01*
X241244Y368244D01*
X242244D01*
X241744Y369244D02*
X242743Y368244D01*
X242244D02*
X242743Y368744D01*
X243743Y370743D02*
X244243Y371243D01*
X245243D01*
X245743Y370743D01*
Y370243D01*
X245243Y369744D01*
X244743D01*
X245243D01*
X245743Y369244D01*
Y368744D01*
X245243Y368244D01*
X244243D01*
X243743Y368744D01*
X241743Y352244D02*
Y354243D01*
X241244Y354743D01*
X240244D01*
X239744Y354243D01*
Y352244D01*
X240244Y351744D01*
X241244D01*
X240744Y352744D02*
X241743Y351744D01*
X241244D02*
X241743Y352244D01*
X244243Y351744D02*
Y354743D01*
X242743Y353244D01*
X244742D01*
X284243Y442743D02*
X283244D01*
X283744D01*
Y440244D01*
X283244Y439744D01*
X282744D01*
X282244Y440244D01*
X287243Y439744D02*
X285243D01*
X287243Y441743D01*
Y442243D01*
X286743Y442743D01*
X285743D01*
X285243Y442243D01*
X165720Y510492D02*
X169052D01*
X167386D01*
Y505494D01*
X171551D02*
X173217D01*
X174050Y506327D01*
Y507993D01*
X173217Y508826D01*
X171551D01*
X170718Y507993D01*
Y506327D01*
X171551Y505494D01*
X175716Y503828D02*
Y508826D01*
X178216D01*
X179049Y507993D01*
Y506327D01*
X178216Y505494D01*
X175716D01*
X189046Y509659D02*
X188212Y510492D01*
X186546D01*
X185713Y509659D01*
Y508826D01*
X186546Y507993D01*
X188212D01*
X189046Y507160D01*
Y506327D01*
X188212Y505494D01*
X186546D01*
X185713Y506327D01*
X190712Y505494D02*
X192378D01*
X191545D01*
Y508826D01*
X190712D01*
X194877Y505494D02*
X196543D01*
X195710D01*
Y510492D01*
X194877D01*
X199042Y505494D02*
Y510492D01*
Y507160D02*
X201541Y508826D01*
X199042Y507160D02*
X201541Y505494D01*
X204041D02*
X206540D01*
X207373Y506327D01*
X206540Y507160D01*
X204874D01*
X204041Y507993D01*
X204874Y508826D01*
X207373D01*
X212371D02*
X209872D01*
X209039Y507993D01*
Y506327D01*
X209872Y505494D01*
X212371D01*
X214037Y508826D02*
Y505494D01*
Y507160D01*
X214870Y507993D01*
X215704Y508826D01*
X216537D01*
X221535Y505494D02*
X219869D01*
X219036Y506327D01*
Y507993D01*
X219869Y508826D01*
X221535D01*
X222368Y507993D01*
Y507160D01*
X219036D01*
X226533Y505494D02*
X224867D01*
X224034Y506327D01*
Y507993D01*
X224867Y508826D01*
X226533D01*
X227366Y507993D01*
Y507160D01*
X224034D01*
X229032Y505494D02*
Y508826D01*
X231532D01*
X232365Y507993D01*
Y505494D01*
X261744Y433617D02*
Y431618D01*
X262744Y430618D01*
X263743Y431618D01*
Y433617D01*
X264743D02*
X265743D01*
X265243D01*
Y430618D01*
X264743D01*
X265743D01*
X267242D02*
Y433617D01*
X269242Y430618D01*
Y433617D01*
X263243Y423243D02*
X262744Y423743D01*
X261744D01*
X261244Y423243D01*
Y422743D01*
X261744Y422244D01*
X262744D01*
X263243Y421744D01*
Y421244D01*
X262744Y420744D01*
X261744D01*
X261244Y421244D01*
X264243Y423743D02*
X266243D01*
X265243D01*
Y420744D01*
X267242D02*
Y423743D01*
X268742D01*
X269241Y423243D01*
Y422244D01*
X268742Y421744D01*
X267242D01*
X261244Y412243D02*
Y409244D01*
X262744D01*
X263243Y409744D01*
Y411743D01*
X262744Y412243D01*
X261244D01*
X264243D02*
X265243D01*
X264743D01*
Y409244D01*
X264243D01*
X265243D01*
X266742D02*
Y412243D01*
X268242D01*
X268742Y411743D01*
Y410744D01*
X268242Y410244D01*
X266742D01*
X267742D02*
X268742Y409244D01*
X263744Y382243D02*
Y379244D01*
X265244D01*
X265743Y379744D01*
Y381743D01*
X265244Y382243D01*
X263744D01*
X266743Y381743D02*
X267243Y382243D01*
X268243D01*
X268742Y381743D01*
Y381243D01*
X268243Y380744D01*
X267743D01*
X268243D01*
X268742Y380244D01*
Y379744D01*
X268243Y379244D01*
X267243D01*
X266743Y379744D01*
X260123Y365865D02*
X261537Y364451D01*
X262951D01*
X262951Y365865D01*
X261537Y367279D01*
X262597Y367632D02*
Y368339D01*
X263304Y369046D01*
X264011Y369046D01*
X264365Y368692D01*
Y367985D01*
X264011Y367632D01*
X264365Y367985D01*
X265072Y367985D01*
X265425Y367632D01*
X265425Y366925D01*
X264718Y366218D01*
X264011D01*
X266485Y367985D02*
X266132Y368339D01*
X266485Y368692D01*
X266839Y368339D01*
X266485Y367985D01*
Y371520D02*
Y372227D01*
X267192Y372934D01*
X267899Y372934D01*
X268253Y372580D01*
Y371873D01*
X267899Y371520D01*
X268253Y371873D01*
X268959D01*
X269313Y371520D01*
Y370813D01*
X268606Y370106D01*
X267899D01*
X263744Y361243D02*
X265743D01*
X264744D01*
Y358244D01*
X266743Y361243D02*
X268742Y358244D01*
Y361243D02*
X266743Y358244D01*
X263744Y349044D02*
Y352043D01*
X265244D01*
X265743Y351543D01*
Y350544D01*
X265244Y350044D01*
X263744D01*
X264744D02*
X265743Y349044D01*
X266743Y352043D02*
X268742Y349044D01*
Y352043D02*
X266743Y349044D01*
X263743Y392243D02*
X263244Y392743D01*
X262244D01*
X261744Y392243D01*
Y390244D01*
X262244Y389744D01*
X263244D01*
X263743Y390244D01*
Y391244D01*
X262744D01*
X264743Y389744D02*
Y392743D01*
X266742Y389744D01*
Y392743D01*
X267742D02*
Y389744D01*
X269242D01*
X269742Y390244D01*
Y392243D01*
X269242Y392743D01*
X267742D01*
X258243Y401743D02*
X256244D01*
Y398744D01*
X258243D01*
X256244Y400244D02*
X257244D01*
X259243Y398744D02*
Y401743D01*
X260743D01*
X261243Y401243D01*
Y400244D01*
X260743Y399744D01*
X259243D01*
X260243D02*
X261243Y398744D01*
X262242D02*
Y401743D01*
X263742D01*
X264242Y401243D01*
Y400244D01*
X263742Y399744D01*
X262242D01*
X263242D02*
X264242Y398744D01*
X266741Y401743D02*
X265741D01*
X265241Y401243D01*
Y399244D01*
X265741Y398744D01*
X266741D01*
X267241Y399244D01*
Y401243D01*
X266741Y401743D01*
X268240Y398744D02*
Y401743D01*
X269740D01*
X270240Y401243D01*
Y400244D01*
X269740Y399744D01*
X268240D01*
X269240D02*
X270240Y398744D01*
X262743Y342243D02*
X262244Y342743D01*
X261244D01*
X260744Y342243D01*
Y340244D01*
X261244Y339744D01*
X262244D01*
X262743Y340244D01*
Y341244D01*
X261744D01*
X263743Y339744D02*
Y342743D01*
X265742Y339744D01*
Y342743D01*
X266742D02*
Y339744D01*
X268242D01*
X268741Y340244D01*
Y342243D01*
X268242Y342743D01*
X266742D01*
X373044Y453687D02*
G03*
X373044Y453687I-12400J0D01*
G01*
X429243Y322743D02*
X428744Y323243D01*
X427744D01*
X427244Y322743D01*
Y322243D01*
X427744Y321744D01*
X428744D01*
X429243Y321244D01*
Y320744D01*
X428744Y320244D01*
X427744D01*
X427244Y320744D01*
X430243Y323243D02*
Y320244D01*
X431243Y321244D01*
X432242Y320244D01*
Y323243D01*
X434742Y320244D02*
Y323243D01*
X433242Y321744D01*
X435242D01*
X431743Y443743D02*
X430744D01*
X431244D01*
Y441244D01*
X430744Y440744D01*
X430244D01*
X429744Y441244D01*
X432743Y443243D02*
X433243Y443743D01*
X434243D01*
X434742Y443243D01*
Y442743D01*
X434243Y442244D01*
X433743D01*
X434243D01*
X434742Y441744D01*
Y441244D01*
X434243Y440744D01*
X433243D01*
X432743Y441244D01*
X331199Y362299D02*
X330200D01*
X330699D01*
Y359800D01*
X330200Y359300D01*
X329700D01*
X329200Y359800D01*
X334198Y362299D02*
X332199D01*
Y360800D01*
X333199Y361299D01*
X333699D01*
X334198Y360800D01*
Y359800D01*
X333699Y359300D01*
X332699D01*
X332199Y359800D01*
X336743Y459743D02*
X336244Y460243D01*
X335244D01*
X334744Y459743D01*
Y457744D01*
X335244Y457244D01*
X336244D01*
X336743Y457744D01*
X339742Y457244D02*
X337743D01*
X339742Y459243D01*
Y459743D01*
X339243Y460243D01*
X338243D01*
X337743Y459743D01*
X340742Y457244D02*
X341742D01*
X341242D01*
Y460243D01*
X340742Y459743D01*
X408200Y342199D02*
Y341699D01*
X409200Y340700D01*
X410199Y341699D01*
Y342199D01*
X409200Y340700D02*
Y339200D01*
X411199D02*
X412199D01*
X411699D01*
Y342199D01*
X411199Y341699D01*
X329345Y370844D02*
X331844D01*
X332344Y371344D01*
Y372344D01*
X331844Y372843D01*
X329345D01*
X329845Y375842D02*
X329345Y375343D01*
Y374343D01*
X329845Y373843D01*
X330345D01*
X330845Y374343D01*
Y375343D01*
X331344Y375842D01*
X331844D01*
X332344Y375343D01*
Y374343D01*
X331844Y373843D01*
X329345Y376842D02*
X332344D01*
Y378342D01*
X331844Y378841D01*
X331344D01*
X330845Y378342D01*
Y376842D01*
Y378342D01*
X330345Y378841D01*
X329845D01*
X329345Y378342D01*
Y376842D01*
X332344Y379841D02*
Y380841D01*
Y380341D01*
X329345D01*
X329845Y379841D01*
X367000Y361699D02*
Y359200D01*
X367500Y358700D01*
X368499D01*
X368999Y359200D01*
Y361699D01*
X369999Y361199D02*
X370499Y361699D01*
X371498D01*
X371998Y361199D01*
Y360699D01*
X371498Y360199D01*
X371998Y359700D01*
Y359200D01*
X371498Y358700D01*
X370499D01*
X369999Y359200D01*
Y359700D01*
X370499Y360199D01*
X369999Y360699D01*
Y361199D01*
X370499Y360199D02*
X371498D01*
X352544Y369143D02*
Y366644D01*
X353044Y366144D01*
X354044D01*
X354543Y366644D01*
Y369143D01*
X355543D02*
X357542D01*
Y368643D01*
X355543Y366644D01*
Y366144D01*
X428244Y418243D02*
Y415744D01*
X428744Y415244D01*
X429744D01*
X430243Y415744D01*
Y418243D01*
X433243Y415244D02*
X431243D01*
X433243Y417243D01*
Y417743D01*
X432743Y418243D01*
X431743D01*
X431243Y417743D01*
X326743Y398243D02*
X326244Y398743D01*
X325244D01*
X324744Y398243D01*
Y397743D01*
X325244Y397244D01*
X326244D01*
X326743Y396744D01*
Y396244D01*
X326244Y395744D01*
X325244D01*
X324744Y396244D01*
X327743Y398743D02*
Y395744D01*
X328743Y396744D01*
X329743Y395744D01*
Y398743D01*
X332741D02*
X330742D01*
Y397244D01*
X331742Y397743D01*
X332242D01*
X332741Y397244D01*
Y396244D01*
X332242Y395744D01*
X331242D01*
X330742Y396244D01*
X424100Y416500D02*
X421101D01*
Y418000D01*
X421601Y418499D01*
X422601D01*
X423100Y418000D01*
Y416500D01*
Y417500D02*
X424100Y418499D01*
Y421498D02*
Y419499D01*
X422101Y421498D01*
X421601D01*
X421101Y420998D01*
Y419999D01*
X421601Y419499D01*
X414244Y407744D02*
X411245D01*
Y409244D01*
X411745Y409743D01*
X412745D01*
X413244Y409244D01*
Y407744D01*
Y408744D02*
X414244Y409743D01*
Y410743D02*
Y411743D01*
Y411243D01*
X411245D01*
X411745Y410743D01*
X333600Y339899D02*
Y336900D01*
X335599D01*
X338598Y339899D02*
X336599D01*
Y336900D01*
X338598D01*
X336599Y338400D02*
X337599D01*
X339598Y339899D02*
Y336900D01*
X341098D01*
X341597Y337400D01*
Y339399D01*
X341098Y339899D01*
X339598D01*
X344596Y336900D02*
X342597D01*
X344596Y338899D01*
Y339399D01*
X344097Y339899D01*
X343097D01*
X342597Y339399D01*
X349644Y362943D02*
Y359944D01*
X351643D01*
X354643Y362943D02*
X352643D01*
Y359944D01*
X354643D01*
X352643Y361444D02*
X353643D01*
X355642Y362943D02*
Y359944D01*
X357142D01*
X357642Y360444D01*
Y362443D01*
X357142Y362943D01*
X355642D01*
X358641Y359944D02*
X359641D01*
X359141D01*
Y362943D01*
X358641Y362443D01*
X422444Y433243D02*
Y430244D01*
X423944D01*
X424443Y430744D01*
Y432743D01*
X423944Y433243D01*
X422444D01*
X425443Y430244D02*
X426443D01*
X425943D01*
Y433243D01*
X425443Y432743D01*
X427099Y336699D02*
X426600Y337199D01*
X425600D01*
X425100Y336699D01*
Y334700D01*
X425600Y334200D01*
X426600D01*
X427099Y334700D01*
X428099Y334200D02*
X429099D01*
X428599D01*
Y337199D01*
X428099Y336699D01*
X430598D02*
X431098Y337199D01*
X432098D01*
X432598Y336699D01*
Y336199D01*
X432098Y335700D01*
X432598Y335200D01*
Y334700D01*
X432098Y334200D01*
X431098D01*
X430598Y334700D01*
Y335200D01*
X431098Y335700D01*
X430598Y336199D01*
Y336699D01*
X431098Y335700D02*
X432098D01*
X418999Y329399D02*
X418500Y329899D01*
X417500D01*
X417000Y329399D01*
Y327400D01*
X417500Y326900D01*
X418500D01*
X418999Y327400D01*
X419999Y326900D02*
X420999D01*
X420499D01*
Y329899D01*
X419999Y329399D01*
X422498Y329899D02*
X424498D01*
Y329399D01*
X422498Y327400D01*
Y326900D01*
X344743Y410243D02*
X344244Y410743D01*
X343244D01*
X342744Y410243D01*
Y408244D01*
X343244Y407744D01*
X344244D01*
X344743Y408244D01*
X345743Y407744D02*
X346743D01*
X346243D01*
Y410743D01*
X345743Y410243D01*
X348242D02*
X348742Y410743D01*
X349742D01*
X350242Y410243D01*
Y409743D01*
X349742Y409244D01*
X349242D01*
X349742D01*
X350242Y408744D01*
Y408244D01*
X349742Y407744D01*
X348742D01*
X348242Y408244D01*
X377244Y439244D02*
X377744D01*
X378244Y439744D01*
Y442243D01*
X380243Y440244D02*
X381243D01*
X380743D01*
Y443243D01*
X380243Y442743D01*
X309500Y440400D02*
X310000D01*
X310500Y440900D01*
Y443399D01*
X314498Y444399D02*
X313499Y443899D01*
X312499Y442900D01*
Y441900D01*
X312999Y441400D01*
X313999D01*
X314498Y441900D01*
Y442400D01*
X313999Y442900D01*
X312499D01*
X327400Y415600D02*
Y418599D01*
X328900D01*
X329399Y418099D01*
Y417100D01*
X328900Y416600D01*
X327400D01*
X328400D02*
X329399Y415600D01*
X330399D02*
X331399D01*
X330899D01*
Y418599D01*
X330399Y418099D01*
X332898D02*
X333398Y418599D01*
X334398D01*
X334898Y418099D01*
Y416100D01*
X334398Y415600D01*
X333398D01*
X332898Y416100D01*
Y418099D01*
X327800Y435300D02*
Y438299D01*
X329299D01*
X329799Y437799D01*
Y436799D01*
X329299Y436300D01*
X327800D01*
X328800D02*
X329799Y435300D01*
X330799D02*
X331799D01*
X331299D01*
Y438299D01*
X330799Y437799D01*
X333298Y435300D02*
X334298D01*
X333798D01*
Y438299D01*
X333298Y437799D01*
X350543Y321243D02*
X350044Y321743D01*
X349044D01*
X348544Y321243D01*
Y320743D01*
X349044Y320244D01*
X350044D01*
X350543Y319744D01*
Y319244D01*
X350044Y318744D01*
X349044D01*
X348544Y319244D01*
X351543Y321743D02*
Y318744D01*
X352543Y319744D01*
X353542Y318744D01*
Y321743D01*
X354542Y318744D02*
X355542D01*
X355042D01*
Y321743D01*
X354542Y321243D01*
X341244Y438743D02*
Y436244D01*
X341744Y435744D01*
X342744D01*
X343243Y436244D01*
Y438743D01*
X344243Y435744D02*
X345243D01*
X344743D01*
Y438743D01*
X344243Y438243D01*
X384743Y321743D02*
X384244Y322243D01*
X383244D01*
X382744Y321743D01*
Y321243D01*
X383244Y320744D01*
X384244D01*
X384743Y320244D01*
Y319744D01*
X384244Y319244D01*
X383244D01*
X382744Y319744D01*
X385743Y322243D02*
Y319244D01*
X386743Y320244D01*
X387742Y319244D01*
Y322243D01*
X388742Y321743D02*
X389242Y322243D01*
X390242D01*
X390741Y321743D01*
Y321243D01*
X390242Y320744D01*
X389742D01*
X390242D01*
X390741Y320244D01*
Y319744D01*
X390242Y319244D01*
X389242D01*
X388742Y319744D01*
X424743Y385244D02*
Y387243D01*
X424244Y387743D01*
X423244D01*
X422744Y387243D01*
Y385244D01*
X423244Y384744D01*
X424244D01*
X423744Y385744D02*
X424743Y384744D01*
X424244D02*
X424743Y385244D01*
X425743Y384744D02*
X426743D01*
X426243D01*
Y387743D01*
X425743Y387243D01*
X422743Y368744D02*
Y370743D01*
X422244Y371243D01*
X421244D01*
X420744Y370743D01*
Y368744D01*
X421244Y368244D01*
X422244D01*
X421744Y369244D02*
X422743Y368244D01*
X422244D02*
X422743Y368744D01*
X423743Y370743D02*
X424243Y371243D01*
X425243D01*
X425742Y370743D01*
Y370243D01*
X425243Y369744D01*
X424743D01*
X425243D01*
X425742Y369244D01*
Y368744D01*
X425243Y368244D01*
X424243D01*
X423743Y368744D01*
X421743Y352244D02*
Y354243D01*
X421244Y354743D01*
X420244D01*
X419744Y354243D01*
Y352244D01*
X420244Y351744D01*
X421244D01*
X420744Y352744D02*
X421743Y351744D01*
X421244D02*
X421743Y352244D01*
X424243Y351744D02*
Y354743D01*
X422743Y353244D01*
X424743D01*
X464243Y442743D02*
X463244D01*
X463744D01*
Y440244D01*
X463244Y439744D01*
X462744D01*
X462244Y440244D01*
X467242Y439744D02*
X465243D01*
X467242Y441743D01*
Y442243D01*
X466743Y442743D01*
X465743D01*
X465243Y442243D01*
X345720Y510492D02*
X349052D01*
X347386D01*
Y505494D01*
X351551D02*
X353217D01*
X354050Y506327D01*
Y507993D01*
X353217Y508826D01*
X351551D01*
X350718Y507993D01*
Y506327D01*
X351551Y505494D01*
X355716Y503828D02*
Y508826D01*
X358216D01*
X359049Y507993D01*
Y506327D01*
X358216Y505494D01*
X355716D01*
X369045Y509659D02*
X368212Y510492D01*
X366546D01*
X365713Y509659D01*
Y508826D01*
X366546Y507993D01*
X368212D01*
X369045Y507160D01*
Y506327D01*
X368212Y505494D01*
X366546D01*
X365713Y506327D01*
X370712Y505494D02*
X372378D01*
X371545D01*
Y508826D01*
X370712D01*
X374877Y505494D02*
X376543D01*
X375710D01*
Y510492D01*
X374877D01*
X379042Y505494D02*
Y510492D01*
Y507160D02*
X381541Y508826D01*
X379042Y507160D02*
X381541Y505494D01*
X384041D02*
X386540D01*
X387373Y506327D01*
X386540Y507160D01*
X384874D01*
X384041Y507993D01*
X384874Y508826D01*
X387373D01*
X392371D02*
X389872D01*
X389039Y507993D01*
Y506327D01*
X389872Y505494D01*
X392371D01*
X394037Y508826D02*
Y505494D01*
Y507160D01*
X394870Y507993D01*
X395704Y508826D01*
X396537D01*
X401535Y505494D02*
X399869D01*
X399036Y506327D01*
Y507993D01*
X399869Y508826D01*
X401535D01*
X402368Y507993D01*
Y507160D01*
X399036D01*
X406533Y505494D02*
X404867D01*
X404034Y506327D01*
Y507993D01*
X404867Y508826D01*
X406533D01*
X407366Y507993D01*
Y507160D01*
X404034D01*
X409032Y505494D02*
Y508826D01*
X411532D01*
X412365Y507993D01*
Y505494D01*
X441744Y433617D02*
Y431618D01*
X442744Y430618D01*
X443743Y431618D01*
Y433617D01*
X444743D02*
X445743D01*
X445243D01*
Y430618D01*
X444743D01*
X445743D01*
X447242D02*
Y433617D01*
X449242Y430618D01*
Y433617D01*
X443243Y423243D02*
X442744Y423743D01*
X441744D01*
X441244Y423243D01*
Y422743D01*
X441744Y422244D01*
X442744D01*
X443243Y421744D01*
Y421244D01*
X442744Y420744D01*
X441744D01*
X441244Y421244D01*
X444243Y423743D02*
X446243D01*
X445243D01*
Y420744D01*
X447242D02*
Y423743D01*
X448742D01*
X449241Y423243D01*
Y422244D01*
X448742Y421744D01*
X447242D01*
X441244Y412243D02*
Y409244D01*
X442744D01*
X443243Y409744D01*
Y411743D01*
X442744Y412243D01*
X441244D01*
X444243D02*
X445243D01*
X444743D01*
Y409244D01*
X444243D01*
X445243D01*
X446742D02*
Y412243D01*
X448242D01*
X448742Y411743D01*
Y410744D01*
X448242Y410244D01*
X446742D01*
X447742D02*
X448742Y409244D01*
X443744Y382243D02*
Y379244D01*
X445244D01*
X445743Y379744D01*
Y381743D01*
X445244Y382243D01*
X443744D01*
X446743Y381743D02*
X447243Y382243D01*
X448243D01*
X448742Y381743D01*
Y381243D01*
X448243Y380744D01*
X447743D01*
X448243D01*
X448742Y380244D01*
Y379744D01*
X448243Y379244D01*
X447243D01*
X446743Y379744D01*
X440124Y365865D02*
X441537Y364451D01*
X442951D01*
X442951Y365865D01*
X441537Y367279D01*
X442597Y367632D02*
Y368339D01*
X443304Y369046D01*
X444011Y369046D01*
X444365Y368692D01*
Y367985D01*
X444011Y367632D01*
X444365Y367985D01*
X445072Y367985D01*
X445425Y367632D01*
X445425Y366925D01*
X444718Y366218D01*
X444011D01*
X446485Y367985D02*
X446132Y368339D01*
X446485Y368692D01*
X446839Y368339D01*
X446485Y367985D01*
Y371520D02*
Y372227D01*
X447192Y372934D01*
X447899Y372934D01*
X448252Y372580D01*
Y371873D01*
X447899Y371520D01*
X448252Y371873D01*
X448959D01*
X449313Y371520D01*
Y370813D01*
X448606Y370106D01*
X447899D01*
X443744Y361243D02*
X445743D01*
X444744D01*
Y358244D01*
X446743Y361243D02*
X448742Y358244D01*
Y361243D02*
X446743Y358244D01*
X443744Y349044D02*
Y352043D01*
X445244D01*
X445743Y351543D01*
Y350544D01*
X445244Y350044D01*
X443744D01*
X444744D02*
X445743Y349044D01*
X446743Y352043D02*
X448742Y349044D01*
Y352043D02*
X446743Y349044D01*
X443743Y392243D02*
X443244Y392743D01*
X442244D01*
X441744Y392243D01*
Y390244D01*
X442244Y389744D01*
X443244D01*
X443743Y390244D01*
Y391244D01*
X442744D01*
X444743Y389744D02*
Y392743D01*
X446742Y389744D01*
Y392743D01*
X447742D02*
Y389744D01*
X449242D01*
X449742Y390244D01*
Y392243D01*
X449242Y392743D01*
X447742D01*
X438243Y401743D02*
X436244D01*
Y398744D01*
X438243D01*
X436244Y400244D02*
X437244D01*
X439243Y398744D02*
Y401743D01*
X440743D01*
X441243Y401243D01*
Y400244D01*
X440743Y399744D01*
X439243D01*
X440243D02*
X441243Y398744D01*
X442242D02*
Y401743D01*
X443742D01*
X444242Y401243D01*
Y400244D01*
X443742Y399744D01*
X442242D01*
X443242D02*
X444242Y398744D01*
X446741Y401743D02*
X445741D01*
X445241Y401243D01*
Y399244D01*
X445741Y398744D01*
X446741D01*
X447240Y399244D01*
Y401243D01*
X446741Y401743D01*
X448240Y398744D02*
Y401743D01*
X449740D01*
X450240Y401243D01*
Y400244D01*
X449740Y399744D01*
X448240D01*
X449240D02*
X450240Y398744D01*
X442743Y342243D02*
X442244Y342743D01*
X441244D01*
X440744Y342243D01*
Y340244D01*
X441244Y339744D01*
X442244D01*
X442743Y340244D01*
Y341244D01*
X441744D01*
X443743Y339744D02*
Y342743D01*
X445743Y339744D01*
Y342743D01*
X446742D02*
Y339744D01*
X448242D01*
X448741Y340244D01*
Y342243D01*
X448242Y342743D01*
X446742D01*
D45*
X125527Y195744D02*
Y212279D01*
X147968D01*
X125527Y179209D02*
X147968D01*
Y180390D01*
Y188657D01*
X125527Y179209D02*
Y195744D01*
X147968Y202831D02*
Y212279D01*
X176823Y162494D02*
Y175994D01*
X126665Y162494D02*
X176823D01*
X126665D02*
Y175844D01*
X156744Y175949D02*
X176823Y175994D01*
X126665Y175844D02*
X146844D01*
X207244Y206244D02*
X210244Y209244D01*
X207244D02*
X210244Y206244D01*
X271295Y155295D02*
Y257105D01*
Y155295D02*
X295705D01*
Y256995D01*
X291500Y161200D02*
X295500D01*
X291500D02*
X293500Y163200D01*
X291500Y161200D02*
X293500Y159200D01*
X291705Y171200D02*
X293705Y169200D01*
X291705Y171200D02*
X293705Y173200D01*
X291705Y171200D02*
X295705D01*
X291705Y181200D02*
X293705Y179200D01*
X291705Y181200D02*
X293705Y183200D01*
X291705Y181200D02*
X295705D01*
X291705Y191200D02*
X293705Y189200D01*
X291705Y191200D02*
X293705Y193200D01*
X291705Y191200D02*
X295705D01*
X291705Y201200D02*
X293705Y199200D01*
X291705Y201200D02*
X293705Y203200D01*
X291705Y201200D02*
X295705D01*
X291705Y211200D02*
X293705Y209200D01*
X291705Y211200D02*
X293705Y213200D01*
X291705Y211200D02*
X295705D01*
X291705Y221200D02*
X293705Y219200D01*
X291705Y221200D02*
X293705Y223200D01*
X291705Y221200D02*
X295705D01*
X291705Y231200D02*
X293705Y229200D01*
X291705Y231200D02*
X293705Y233200D01*
X291705Y231200D02*
X295705D01*
X271295Y257105D02*
X295595D01*
X291500Y241400D02*
X295500D01*
X291500D02*
X293500Y243400D01*
X291500Y241400D02*
X293500Y239400D01*
X291600Y251900D02*
X295600D01*
X291600D02*
X293600Y253900D01*
X291600Y251900D02*
X293600Y249900D01*
X203776Y259709D02*
X247713D01*
Y289630D01*
X203776Y259709D02*
Y288055D01*
X204134Y289630D02*
X247713D01*
X203776Y289272D02*
X204134Y289630D01*
X203776Y288055D02*
Y289272D01*
X241213Y282209D02*
Y289630D01*
X230713Y282209D02*
X241213D01*
X230713D02*
Y289630D01*
X220713Y282209D02*
Y289709D01*
X211713Y282209D02*
X220713D01*
X211713D02*
Y289630D01*
X195644Y277744D02*
Y287244D01*
X169644D02*
X195644D01*
X165644Y283244D02*
X169644Y287244D01*
X165644Y277744D02*
Y283244D01*
Y265744D02*
Y269744D01*
Y265744D02*
X169644Y261744D01*
X195644D01*
Y268744D01*
Y269744D01*
X157244Y218744D02*
Y222680D01*
X159212D01*
X159868Y222024D01*
Y220712D01*
X159212Y220056D01*
X157244D01*
X158556D02*
X159868Y218744D01*
X163804Y222680D02*
X161180D01*
Y218744D01*
X163804D01*
X161180Y220712D02*
X162492D01*
X167739Y222024D02*
X167083Y222680D01*
X165771D01*
X165116Y222024D01*
Y221368D01*
X165771Y220712D01*
X167083D01*
X167739Y220056D01*
Y219400D01*
X167083Y218744D01*
X165771D01*
X165116Y219400D01*
X171675Y222680D02*
X169051D01*
Y218744D01*
X171675D01*
X169051Y220712D02*
X170363D01*
X172987Y222680D02*
X175611D01*
X174299D01*
Y218744D01*
X185244Y216244D02*
Y221242D01*
X186910Y219576D01*
X188576Y221242D01*
Y216244D01*
X190243D02*
X191909D01*
X191076D01*
Y219576D01*
X190243D01*
X194408Y216244D02*
X196907D01*
X197740Y217077D01*
X196907Y217910D01*
X195241D01*
X194408Y218743D01*
X195241Y219576D01*
X197740D01*
X200239Y216244D02*
Y220409D01*
Y218743D01*
X199406D01*
X201072D01*
X200239D01*
Y220409D01*
X201072Y221242D01*
X203572Y216244D02*
X205238D01*
X204404D01*
Y219576D01*
X203572D01*
X208570Y220409D02*
Y219576D01*
X207737D01*
X209403D01*
X208570D01*
Y217077D01*
X209403Y216244D01*
X216900Y221242D02*
X220233D01*
X218567D01*
Y216244D01*
X224398D02*
X222732D01*
X221899Y217077D01*
Y218743D01*
X222732Y219576D01*
X224398D01*
X225231Y218743D01*
Y217910D01*
X221899D01*
X230229Y219576D02*
X227730D01*
X226897Y218743D01*
Y217077D01*
X227730Y216244D01*
X230229D01*
X231896Y221242D02*
Y216244D01*
Y218743D01*
X232729Y219576D01*
X234395D01*
X235228Y218743D01*
Y216244D01*
X192344Y225910D02*
X193010Y225244D01*
X194343D01*
X195010Y225910D01*
Y228576D01*
X194343Y229243D01*
X193010D01*
X192344Y228576D01*
Y227910D01*
X193010Y227243D01*
X195010D01*
X196343Y225244D02*
X199009Y227910D01*
X203007Y225244D02*
X200342D01*
X203007Y227910D01*
Y228576D01*
X202341Y229243D01*
X201008D01*
X200342Y228576D01*
X204340Y225910D02*
X205007Y225244D01*
X206340D01*
X207006Y225910D01*
Y228576D01*
X206340Y229243D01*
X205007D01*
X204340Y228576D01*
Y227910D01*
X205007Y227243D01*
X207006D01*
X208339Y225244D02*
X211005Y227910D01*
X215003Y225244D02*
X212338D01*
X215003Y227910D01*
Y228576D01*
X214337Y229243D01*
X213004D01*
X212338Y228576D01*
X216336D02*
X217003Y229243D01*
X218336D01*
X219002Y228576D01*
Y225910D01*
X218336Y225244D01*
X217003D01*
X216336Y225910D01*
Y228576D01*
X220335Y225244D02*
X221668D01*
X221002D01*
Y229243D01*
X220335Y228576D01*
X226333Y229243D02*
X225000Y228576D01*
X223667Y227243D01*
Y225910D01*
X224334Y225244D01*
X225667D01*
X226333Y225910D01*
Y226577D01*
X225667Y227243D01*
X223667D01*
X179244Y194744D02*
Y198743D01*
X181910Y194744D01*
Y198743D01*
X183909Y197410D02*
X185242D01*
X185909Y196743D01*
Y194744D01*
X183909D01*
X183243Y195411D01*
X183909Y196077D01*
X185909D01*
X187241Y194744D02*
Y197410D01*
X189241D01*
X189907Y196743D01*
Y194744D01*
X191907D02*
X193240D01*
X193906Y195411D01*
Y196743D01*
X193240Y197410D01*
X191907D01*
X191240Y196743D01*
Y195411D01*
X191907Y194744D01*
X199238Y198743D02*
X201903D01*
Y198076D01*
X199238Y195411D01*
Y194744D01*
X201903D01*
X205236D02*
X203903D01*
X203236Y195411D01*
Y196743D01*
X203903Y197410D01*
X205236D01*
X205902Y196743D01*
Y196077D01*
X203236D01*
X207235Y197410D02*
Y194744D01*
Y196077D01*
X207902Y196743D01*
X208568Y197410D01*
X209234D01*
X211900Y194744D02*
X213233D01*
X213900Y195411D01*
Y196743D01*
X213233Y197410D01*
X211900D01*
X211234Y196743D01*
Y195411D01*
X211900Y194744D01*
X221897Y198076D02*
X221231Y198743D01*
X219898D01*
X219231Y198076D01*
Y197410D01*
X219898Y196743D01*
X221231D01*
X221897Y196077D01*
Y195411D01*
X221231Y194744D01*
X219898D01*
X219231Y195411D01*
X223896Y198076D02*
Y197410D01*
X223230D01*
X224563D01*
X223896D01*
Y195411D01*
X224563Y194744D01*
X228561D02*
X227229D01*
X226562Y195411D01*
Y196743D01*
X227229Y197410D01*
X228561D01*
X229228Y196743D01*
Y196077D01*
X226562D01*
X230561Y193411D02*
Y197410D01*
X232560D01*
X233227Y196743D01*
Y195411D01*
X232560Y194744D01*
X230561D01*
X234560Y193411D02*
Y197410D01*
X236559D01*
X237225Y196743D01*
Y195411D01*
X236559Y194744D01*
X234560D01*
X240558D02*
X239225D01*
X238558Y195411D01*
Y196743D01*
X239225Y197410D01*
X240558D01*
X241224Y196743D01*
Y196077D01*
X238558D01*
X242557Y197410D02*
Y194744D01*
Y196077D01*
X243224Y196743D01*
X243890Y197410D01*
X244556D01*
X305527Y195744D02*
Y212279D01*
X327968D01*
X305527Y179209D02*
X327968D01*
Y180390D01*
Y188657D01*
X305527Y179209D02*
Y195744D01*
X327968Y202831D02*
Y212279D01*
X356823Y162494D02*
Y175994D01*
X306665Y162494D02*
X356823D01*
X306665D02*
Y175844D01*
X336744Y175949D02*
X356823Y175994D01*
X306665Y175844D02*
X326844D01*
X387244Y206244D02*
X390244Y209244D01*
X387244D02*
X390244Y206244D01*
X451295Y155295D02*
Y257105D01*
Y155295D02*
X475705D01*
Y256995D01*
X471500Y161200D02*
X475500D01*
X471500D02*
X473500Y163200D01*
X471500Y161200D02*
X473500Y159200D01*
X471705Y171200D02*
X473705Y169200D01*
X471705Y171200D02*
X473705Y173200D01*
X471705Y171200D02*
X475705D01*
X471705Y181200D02*
X473705Y179200D01*
X471705Y181200D02*
X473705Y183200D01*
X471705Y181200D02*
X475705D01*
X471705Y191200D02*
X473705Y189200D01*
X471705Y191200D02*
X473705Y193200D01*
X471705Y191200D02*
X475705D01*
X471705Y201200D02*
X473705Y199200D01*
X471705Y201200D02*
X473705Y203200D01*
X471705Y201200D02*
X475705D01*
X471705Y211200D02*
X473705Y209200D01*
X471705Y211200D02*
X473705Y213200D01*
X471705Y211200D02*
X475705D01*
X471705Y221200D02*
X473705Y219200D01*
X471705Y221200D02*
X473705Y223200D01*
X471705Y221200D02*
X475705D01*
X471705Y231200D02*
X473705Y229200D01*
X471705Y231200D02*
X473705Y233200D01*
X471705Y231200D02*
X475705D01*
X451295Y257105D02*
X475595D01*
X471500Y241400D02*
X475500D01*
X471500D02*
X473500Y243400D01*
X471500Y241400D02*
X473500Y239400D01*
X471600Y251900D02*
X475600D01*
X471600D02*
X473600Y253900D01*
X471600Y251900D02*
X473600Y249900D01*
X383776Y259709D02*
X427713D01*
Y289630D01*
X383776Y259709D02*
Y288055D01*
X384134Y289630D02*
X427713D01*
X383776Y289272D02*
X384134Y289630D01*
X383776Y288055D02*
Y289272D01*
X421213Y282209D02*
Y289630D01*
X410713Y282209D02*
X421213D01*
X410713D02*
Y289630D01*
X400713Y282209D02*
Y289709D01*
X391713Y282209D02*
X400713D01*
X391713D02*
Y289630D01*
X375644Y277744D02*
Y287244D01*
X349644D02*
X375644D01*
X345644Y283244D02*
X349644Y287244D01*
X345644Y277744D02*
Y283244D01*
Y265744D02*
Y269744D01*
Y265744D02*
X349644Y261744D01*
X375644D01*
Y268744D01*
Y269744D01*
X337244Y218744D02*
Y222680D01*
X339212D01*
X339868Y222024D01*
Y220712D01*
X339212Y220056D01*
X337244D01*
X338556D02*
X339868Y218744D01*
X343804Y222680D02*
X341180D01*
Y218744D01*
X343804D01*
X341180Y220712D02*
X342492D01*
X347739Y222024D02*
X347083Y222680D01*
X345772D01*
X345116Y222024D01*
Y221368D01*
X345772Y220712D01*
X347083D01*
X347739Y220056D01*
Y219400D01*
X347083Y218744D01*
X345772D01*
X345116Y219400D01*
X351675Y222680D02*
X349051D01*
Y218744D01*
X351675D01*
X349051Y220712D02*
X350363D01*
X352987Y222680D02*
X355611D01*
X354299D01*
Y218744D01*
X365244Y216244D02*
Y221242D01*
X366910Y219576D01*
X368576Y221242D01*
Y216244D01*
X370243D02*
X371909D01*
X371076D01*
Y219576D01*
X370243D01*
X374408Y216244D02*
X376907D01*
X377740Y217077D01*
X376907Y217910D01*
X375241D01*
X374408Y218743D01*
X375241Y219576D01*
X377740D01*
X380239Y216244D02*
Y220409D01*
Y218743D01*
X379406D01*
X381072D01*
X380239D01*
Y220409D01*
X381072Y221242D01*
X383572Y216244D02*
X385238D01*
X384405D01*
Y219576D01*
X383572D01*
X388570Y220409D02*
Y219576D01*
X387737D01*
X389403D01*
X388570D01*
Y217077D01*
X389403Y216244D01*
X396901Y221242D02*
X400233D01*
X398567D01*
Y216244D01*
X404398D02*
X402732D01*
X401899Y217077D01*
Y218743D01*
X402732Y219576D01*
X404398D01*
X405231Y218743D01*
Y217910D01*
X401899D01*
X410229Y219576D02*
X407730D01*
X406897Y218743D01*
Y217077D01*
X407730Y216244D01*
X410229D01*
X411896Y221242D02*
Y216244D01*
Y218743D01*
X412729Y219576D01*
X414395D01*
X415228Y218743D01*
Y216244D01*
X372344Y225910D02*
X373010Y225244D01*
X374343D01*
X375010Y225910D01*
Y228576D01*
X374343Y229243D01*
X373010D01*
X372344Y228576D01*
Y227910D01*
X373010Y227243D01*
X375010D01*
X376343Y225244D02*
X379009Y227910D01*
X383007Y225244D02*
X380342D01*
X383007Y227910D01*
Y228576D01*
X382341Y229243D01*
X381008D01*
X380342Y228576D01*
X384340Y225910D02*
X385007Y225244D01*
X386340D01*
X387006Y225910D01*
Y228576D01*
X386340Y229243D01*
X385007D01*
X384340Y228576D01*
Y227910D01*
X385007Y227243D01*
X387006D01*
X388339Y225244D02*
X391005Y227910D01*
X395003Y225244D02*
X392338D01*
X395003Y227910D01*
Y228576D01*
X394337Y229243D01*
X393004D01*
X392338Y228576D01*
X396336D02*
X397003Y229243D01*
X398336D01*
X399002Y228576D01*
Y225910D01*
X398336Y225244D01*
X397003D01*
X396336Y225910D01*
Y228576D01*
X400335Y225244D02*
X401668D01*
X401002D01*
Y229243D01*
X400335Y228576D01*
X406333Y229243D02*
X405000Y228576D01*
X403667Y227243D01*
Y225910D01*
X404334Y225244D01*
X405667D01*
X406333Y225910D01*
Y226577D01*
X405667Y227243D01*
X403667D01*
X359244Y194744D02*
Y198743D01*
X361910Y194744D01*
Y198743D01*
X363909Y197410D02*
X365242D01*
X365909Y196743D01*
Y194744D01*
X363909D01*
X363243Y195411D01*
X363909Y196077D01*
X365909D01*
X367242Y194744D02*
Y197410D01*
X369241D01*
X369907Y196743D01*
Y194744D01*
X371907D02*
X373240D01*
X373906Y195411D01*
Y196743D01*
X373240Y197410D01*
X371907D01*
X371240Y196743D01*
Y195411D01*
X371907Y194744D01*
X379238Y198743D02*
X381903D01*
Y198076D01*
X379238Y195411D01*
Y194744D01*
X381903D01*
X385236D02*
X383903D01*
X383236Y195411D01*
Y196743D01*
X383903Y197410D01*
X385236D01*
X385902Y196743D01*
Y196077D01*
X383236D01*
X387235Y197410D02*
Y194744D01*
Y196077D01*
X387901Y196743D01*
X388568Y197410D01*
X389234D01*
X391900Y194744D02*
X393233D01*
X393900Y195411D01*
Y196743D01*
X393233Y197410D01*
X391900D01*
X391234Y196743D01*
Y195411D01*
X391900Y194744D01*
X401897Y198076D02*
X401230Y198743D01*
X399898D01*
X399231Y198076D01*
Y197410D01*
X399898Y196743D01*
X401230D01*
X401897Y196077D01*
Y195411D01*
X401230Y194744D01*
X399898D01*
X399231Y195411D01*
X403896Y198076D02*
Y197410D01*
X403230D01*
X404563D01*
X403896D01*
Y195411D01*
X404563Y194744D01*
X408562D02*
X407229D01*
X406562Y195411D01*
Y196743D01*
X407229Y197410D01*
X408562D01*
X409228Y196743D01*
Y196077D01*
X406562D01*
X410561Y193411D02*
Y197410D01*
X412560D01*
X413227Y196743D01*
Y195411D01*
X412560Y194744D01*
X410561D01*
X414560Y193411D02*
Y197410D01*
X416559D01*
X417225Y196743D01*
Y195411D01*
X416559Y194744D01*
X414560D01*
X420558D02*
X419225D01*
X418558Y195411D01*
Y196743D01*
X419225Y197410D01*
X420558D01*
X421224Y196743D01*
Y196077D01*
X418558D01*
X422557Y197410D02*
Y194744D01*
Y196077D01*
X423223Y196743D01*
X423890Y197410D01*
X424556D01*
X125527Y375744D02*
Y392279D01*
X147968D01*
X125527Y359209D02*
X147968D01*
Y360390D01*
Y368657D01*
X125527Y359209D02*
Y375744D01*
X147968Y382831D02*
Y392279D01*
X176823Y342494D02*
Y355994D01*
X126665Y342494D02*
X176823D01*
X126665D02*
Y355844D01*
X156744Y355949D02*
X176823Y355994D01*
X126665Y355844D02*
X146844D01*
X207244Y386244D02*
X210244Y389244D01*
X207244D02*
X210244Y386244D01*
X271295Y335295D02*
Y437106D01*
Y335295D02*
X295705D01*
Y436995D01*
X291500Y341200D02*
X295500D01*
X291500D02*
X293500Y343200D01*
X291500Y341200D02*
X293500Y339200D01*
X291705Y351200D02*
X293705Y349200D01*
X291705Y351200D02*
X293705Y353200D01*
X291705Y351200D02*
X295705D01*
X291705Y361200D02*
X293705Y359200D01*
X291705Y361200D02*
X293705Y363200D01*
X291705Y361200D02*
X295705D01*
X291705Y371200D02*
X293705Y369200D01*
X291705Y371200D02*
X293705Y373200D01*
X291705Y371200D02*
X295705D01*
X291705Y381200D02*
X293705Y379200D01*
X291705Y381200D02*
X293705Y383200D01*
X291705Y381200D02*
X295705D01*
X291705Y391200D02*
X293705Y389200D01*
X291705Y391200D02*
X293705Y393200D01*
X291705Y391200D02*
X295705D01*
X291705Y401200D02*
X293705Y399200D01*
X291705Y401200D02*
X293705Y403200D01*
X291705Y401200D02*
X295705D01*
X291705Y411200D02*
X293705Y409200D01*
X291705Y411200D02*
X293705Y413200D01*
X291705Y411200D02*
X295705D01*
X271295Y437106D02*
X295595D01*
X291500Y421400D02*
X295500D01*
X291500D02*
X293500Y423400D01*
X291500Y421400D02*
X293500Y419400D01*
X291600Y431900D02*
X295600D01*
X291600D02*
X293600Y433900D01*
X291600Y431900D02*
X293600Y429900D01*
X203776Y439709D02*
X247713D01*
Y469630D01*
X203776Y439709D02*
Y468055D01*
X204134Y469630D02*
X247713D01*
X203776Y469272D02*
X204134Y469630D01*
X203776Y468055D02*
Y469272D01*
X241213Y462209D02*
Y469630D01*
X230713Y462209D02*
X241213D01*
X230713D02*
Y469630D01*
X220713Y462209D02*
Y469709D01*
X211713Y462209D02*
X220713D01*
X211713D02*
Y469630D01*
X195644Y457744D02*
Y467244D01*
X169644D02*
X195644D01*
X165644Y463244D02*
X169644Y467244D01*
X165644Y457744D02*
Y463244D01*
Y445744D02*
Y449744D01*
Y445744D02*
X169644Y441744D01*
X195644D01*
Y448744D01*
Y449744D01*
X157244Y398744D02*
Y402680D01*
X159212D01*
X159868Y402024D01*
Y400712D01*
X159212Y400056D01*
X157244D01*
X158556D02*
X159868Y398744D01*
X163804Y402680D02*
X161180D01*
Y398744D01*
X163804D01*
X161180Y400712D02*
X162492D01*
X167739Y402024D02*
X167083Y402680D01*
X165771D01*
X165116Y402024D01*
Y401368D01*
X165771Y400712D01*
X167083D01*
X167739Y400056D01*
Y399400D01*
X167083Y398744D01*
X165771D01*
X165116Y399400D01*
X171675Y402680D02*
X169051D01*
Y398744D01*
X171675D01*
X169051Y400712D02*
X170363D01*
X172987Y402680D02*
X175611D01*
X174299D01*
Y398744D01*
X185244Y396244D02*
Y401242D01*
X186910Y399576D01*
X188576Y401242D01*
Y396244D01*
X190243D02*
X191909D01*
X191076D01*
Y399576D01*
X190243D01*
X194408Y396244D02*
X196907D01*
X197740Y397077D01*
X196907Y397910D01*
X195241D01*
X194408Y398743D01*
X195241Y399576D01*
X197740D01*
X200239Y396244D02*
Y400409D01*
Y398743D01*
X199406D01*
X201072D01*
X200239D01*
Y400409D01*
X201072Y401242D01*
X203572Y396244D02*
X205238D01*
X204404D01*
Y399576D01*
X203572D01*
X208570Y400409D02*
Y399576D01*
X207737D01*
X209403D01*
X208570D01*
Y397077D01*
X209403Y396244D01*
X216900Y401242D02*
X220233D01*
X218567D01*
Y396244D01*
X224398D02*
X222732D01*
X221899Y397077D01*
Y398743D01*
X222732Y399576D01*
X224398D01*
X225231Y398743D01*
Y397910D01*
X221899D01*
X230229Y399576D02*
X227730D01*
X226897Y398743D01*
Y397077D01*
X227730Y396244D01*
X230229D01*
X231896Y401242D02*
Y396244D01*
Y398743D01*
X232729Y399576D01*
X234395D01*
X235228Y398743D01*
Y396244D01*
X192344Y405910D02*
X193010Y405244D01*
X194343D01*
X195010Y405910D01*
Y408576D01*
X194343Y409243D01*
X193010D01*
X192344Y408576D01*
Y407910D01*
X193010Y407243D01*
X195010D01*
X196343Y405244D02*
X199009Y407910D01*
X203007Y405244D02*
X200342D01*
X203007Y407910D01*
Y408576D01*
X202341Y409243D01*
X201008D01*
X200342Y408576D01*
X204340Y405910D02*
X205007Y405244D01*
X206340D01*
X207006Y405910D01*
Y408576D01*
X206340Y409243D01*
X205007D01*
X204340Y408576D01*
Y407910D01*
X205007Y407243D01*
X207006D01*
X208339Y405244D02*
X211005Y407910D01*
X215003Y405244D02*
X212338D01*
X215003Y407910D01*
Y408576D01*
X214337Y409243D01*
X213004D01*
X212338Y408576D01*
X216336D02*
X217003Y409243D01*
X218336D01*
X219002Y408576D01*
Y405910D01*
X218336Y405244D01*
X217003D01*
X216336Y405910D01*
Y408576D01*
X220335Y405244D02*
X221668D01*
X221002D01*
Y409243D01*
X220335Y408576D01*
X226333Y409243D02*
X225000Y408576D01*
X223667Y407243D01*
Y405910D01*
X224334Y405244D01*
X225667D01*
X226333Y405910D01*
Y406577D01*
X225667Y407243D01*
X223667D01*
X179244Y374744D02*
Y378743D01*
X181910Y374744D01*
Y378743D01*
X183909Y377410D02*
X185242D01*
X185909Y376743D01*
Y374744D01*
X183909D01*
X183243Y375411D01*
X183909Y376077D01*
X185909D01*
X187241Y374744D02*
Y377410D01*
X189241D01*
X189907Y376743D01*
Y374744D01*
X191907D02*
X193240D01*
X193906Y375411D01*
Y376743D01*
X193240Y377410D01*
X191907D01*
X191240Y376743D01*
Y375411D01*
X191907Y374744D01*
X199238Y378743D02*
X201903D01*
Y378076D01*
X199238Y375411D01*
Y374744D01*
X201903D01*
X205236D02*
X203903D01*
X203236Y375411D01*
Y376743D01*
X203903Y377410D01*
X205236D01*
X205902Y376743D01*
Y376077D01*
X203236D01*
X207235Y377410D02*
Y374744D01*
Y376077D01*
X207902Y376743D01*
X208568Y377410D01*
X209234D01*
X211900Y374744D02*
X213233D01*
X213900Y375411D01*
Y376743D01*
X213233Y377410D01*
X211900D01*
X211234Y376743D01*
Y375411D01*
X211900Y374744D01*
X221897Y378076D02*
X221231Y378743D01*
X219898D01*
X219231Y378076D01*
Y377410D01*
X219898Y376743D01*
X221231D01*
X221897Y376077D01*
Y375411D01*
X221231Y374744D01*
X219898D01*
X219231Y375411D01*
X223896Y378076D02*
Y377410D01*
X223230D01*
X224563D01*
X223896D01*
Y375411D01*
X224563Y374744D01*
X228561D02*
X227229D01*
X226562Y375411D01*
Y376743D01*
X227229Y377410D01*
X228561D01*
X229228Y376743D01*
Y376077D01*
X226562D01*
X230561Y373411D02*
Y377410D01*
X232560D01*
X233227Y376743D01*
Y375411D01*
X232560Y374744D01*
X230561D01*
X234560Y373411D02*
Y377410D01*
X236559D01*
X237225Y376743D01*
Y375411D01*
X236559Y374744D01*
X234560D01*
X240558D02*
X239225D01*
X238558Y375411D01*
Y376743D01*
X239225Y377410D01*
X240558D01*
X241224Y376743D01*
Y376077D01*
X238558D01*
X242557Y377410D02*
Y374744D01*
Y376077D01*
X243224Y376743D01*
X243890Y377410D01*
X244556D01*
X305527Y375744D02*
Y392279D01*
X327968D01*
X305527Y359209D02*
X327968D01*
Y360390D01*
Y368657D01*
X305527Y359209D02*
Y375744D01*
X327968Y382831D02*
Y392279D01*
X356823Y342494D02*
Y355994D01*
X306665Y342494D02*
X356823D01*
X306665D02*
Y355844D01*
X336744Y355949D02*
X356823Y355994D01*
X306665Y355844D02*
X326844D01*
X387244Y386244D02*
X390244Y389244D01*
X387244D02*
X390244Y386244D01*
X451295Y335295D02*
Y437106D01*
Y335295D02*
X475705D01*
Y436995D01*
X471500Y341200D02*
X475500D01*
X471500D02*
X473500Y343200D01*
X471500Y341200D02*
X473500Y339200D01*
X471705Y351200D02*
X473705Y349200D01*
X471705Y351200D02*
X473705Y353200D01*
X471705Y351200D02*
X475705D01*
X471705Y361200D02*
X473705Y359200D01*
X471705Y361200D02*
X473705Y363200D01*
X471705Y361200D02*
X475705D01*
X471705Y371200D02*
X473705Y369200D01*
X471705Y371200D02*
X473705Y373200D01*
X471705Y371200D02*
X475705D01*
X471705Y381200D02*
X473705Y379200D01*
X471705Y381200D02*
X473705Y383200D01*
X471705Y381200D02*
X475705D01*
X471705Y391200D02*
X473705Y389200D01*
X471705Y391200D02*
X473705Y393200D01*
X471705Y391200D02*
X475705D01*
X471705Y401200D02*
X473705Y399200D01*
X471705Y401200D02*
X473705Y403200D01*
X471705Y401200D02*
X475705D01*
X471705Y411200D02*
X473705Y409200D01*
X471705Y411200D02*
X473705Y413200D01*
X471705Y411200D02*
X475705D01*
X451295Y437106D02*
X475595D01*
X471500Y421400D02*
X475500D01*
X471500D02*
X473500Y423400D01*
X471500Y421400D02*
X473500Y419400D01*
X471600Y431900D02*
X475600D01*
X471600D02*
X473600Y433900D01*
X471600Y431900D02*
X473600Y429900D01*
X383776Y439709D02*
X427713D01*
Y469630D01*
X383776Y439709D02*
Y468055D01*
X384134Y469630D02*
X427713D01*
X383776Y469272D02*
X384134Y469630D01*
X383776Y468055D02*
Y469272D01*
X421213Y462209D02*
Y469630D01*
X410713Y462209D02*
X421213D01*
X410713D02*
Y469630D01*
X400713Y462209D02*
Y469709D01*
X391713Y462209D02*
X400713D01*
X391713D02*
Y469630D01*
X375644Y457744D02*
Y467244D01*
X349644D02*
X375644D01*
X345644Y463244D02*
X349644Y467244D01*
X345644Y457744D02*
Y463244D01*
Y445744D02*
Y449744D01*
Y445744D02*
X349644Y441744D01*
X375644D01*
Y448744D01*
Y449744D01*
X337244Y398744D02*
Y402680D01*
X339212D01*
X339868Y402024D01*
Y400712D01*
X339212Y400056D01*
X337244D01*
X338556D02*
X339868Y398744D01*
X343804Y402680D02*
X341180D01*
Y398744D01*
X343804D01*
X341180Y400712D02*
X342492D01*
X347739Y402024D02*
X347083Y402680D01*
X345772D01*
X345116Y402024D01*
Y401368D01*
X345772Y400712D01*
X347083D01*
X347739Y400056D01*
Y399400D01*
X347083Y398744D01*
X345772D01*
X345116Y399400D01*
X351675Y402680D02*
X349051D01*
Y398744D01*
X351675D01*
X349051Y400712D02*
X350363D01*
X352987Y402680D02*
X355611D01*
X354299D01*
Y398744D01*
X365244Y396244D02*
Y401242D01*
X366910Y399576D01*
X368576Y401242D01*
Y396244D01*
X370243D02*
X371909D01*
X371076D01*
Y399576D01*
X370243D01*
X374408Y396244D02*
X376907D01*
X377740Y397077D01*
X376907Y397910D01*
X375241D01*
X374408Y398743D01*
X375241Y399576D01*
X377740D01*
X380239Y396244D02*
Y400409D01*
Y398743D01*
X379406D01*
X381072D01*
X380239D01*
Y400409D01*
X381072Y401242D01*
X383572Y396244D02*
X385238D01*
X384405D01*
Y399576D01*
X383572D01*
X388570Y400409D02*
Y399576D01*
X387737D01*
X389403D01*
X388570D01*
Y397077D01*
X389403Y396244D01*
X396901Y401242D02*
X400233D01*
X398567D01*
Y396244D01*
X404398D02*
X402732D01*
X401899Y397077D01*
Y398743D01*
X402732Y399576D01*
X404398D01*
X405231Y398743D01*
Y397910D01*
X401899D01*
X410229Y399576D02*
X407730D01*
X406897Y398743D01*
Y397077D01*
X407730Y396244D01*
X410229D01*
X411896Y401242D02*
Y396244D01*
Y398743D01*
X412729Y399576D01*
X414395D01*
X415228Y398743D01*
Y396244D01*
X372344Y405910D02*
X373010Y405244D01*
X374343D01*
X375010Y405910D01*
Y408576D01*
X374343Y409243D01*
X373010D01*
X372344Y408576D01*
Y407910D01*
X373010Y407243D01*
X375010D01*
X376343Y405244D02*
X379009Y407910D01*
X383007Y405244D02*
X380342D01*
X383007Y407910D01*
Y408576D01*
X382341Y409243D01*
X381008D01*
X380342Y408576D01*
X384340Y405910D02*
X385007Y405244D01*
X386340D01*
X387006Y405910D01*
Y408576D01*
X386340Y409243D01*
X385007D01*
X384340Y408576D01*
Y407910D01*
X385007Y407243D01*
X387006D01*
X388339Y405244D02*
X391005Y407910D01*
X395003Y405244D02*
X392338D01*
X395003Y407910D01*
Y408576D01*
X394337Y409243D01*
X393004D01*
X392338Y408576D01*
X396336D02*
X397003Y409243D01*
X398336D01*
X399002Y408576D01*
Y405910D01*
X398336Y405244D01*
X397003D01*
X396336Y405910D01*
Y408576D01*
X400335Y405244D02*
X401668D01*
X401002D01*
Y409243D01*
X400335Y408576D01*
X406333Y409243D02*
X405000Y408576D01*
X403667Y407243D01*
Y405910D01*
X404334Y405244D01*
X405667D01*
X406333Y405910D01*
Y406577D01*
X405667Y407243D01*
X403667D01*
X359244Y374744D02*
Y378743D01*
X361910Y374744D01*
Y378743D01*
X363909Y377410D02*
X365242D01*
X365909Y376743D01*
Y374744D01*
X363909D01*
X363243Y375411D01*
X363909Y376077D01*
X365909D01*
X367242Y374744D02*
Y377410D01*
X369241D01*
X369907Y376743D01*
Y374744D01*
X371907D02*
X373240D01*
X373906Y375411D01*
Y376743D01*
X373240Y377410D01*
X371907D01*
X371240Y376743D01*
Y375411D01*
X371907Y374744D01*
X379238Y378743D02*
X381903D01*
Y378076D01*
X379238Y375411D01*
Y374744D01*
X381903D01*
X385236D02*
X383903D01*
X383236Y375411D01*
Y376743D01*
X383903Y377410D01*
X385236D01*
X385902Y376743D01*
Y376077D01*
X383236D01*
X387235Y377410D02*
Y374744D01*
Y376077D01*
X387901Y376743D01*
X388568Y377410D01*
X389234D01*
X391900Y374744D02*
X393233D01*
X393900Y375411D01*
Y376743D01*
X393233Y377410D01*
X391900D01*
X391234Y376743D01*
Y375411D01*
X391900Y374744D01*
X401897Y378076D02*
X401230Y378743D01*
X399898D01*
X399231Y378076D01*
Y377410D01*
X399898Y376743D01*
X401230D01*
X401897Y376077D01*
Y375411D01*
X401230Y374744D01*
X399898D01*
X399231Y375411D01*
X403896Y378076D02*
Y377410D01*
X403230D01*
X404563D01*
X403896D01*
Y375411D01*
X404563Y374744D01*
X408562D02*
X407229D01*
X406562Y375411D01*
Y376743D01*
X407229Y377410D01*
X408562D01*
X409228Y376743D01*
Y376077D01*
X406562D01*
X410561Y373411D02*
Y377410D01*
X412560D01*
X413227Y376743D01*
Y375411D01*
X412560Y374744D01*
X410561D01*
X414560Y373411D02*
Y377410D01*
X416559D01*
X417225Y376743D01*
Y375411D01*
X416559Y374744D01*
X414560D01*
X420558D02*
X419225D01*
X418558Y375411D01*
Y376743D01*
X419225Y377410D01*
X420558D01*
X421224Y376743D01*
Y376077D01*
X418558D01*
X422557Y377410D02*
Y374744D01*
Y376077D01*
X423223Y376743D01*
X423890Y377410D01*
X424556D01*
D67*
X158412Y199628D02*
G03*
X158412Y199628I-492J0D01*
G01*
X250584Y223500D02*
G03*
X250584Y223500I-492J0D01*
G01*
X207619Y144886D02*
G03*
X207619Y144886I-492J0D01*
G01*
X193450Y234536D02*
G03*
X193450Y234536I-492J0D01*
G01*
X249913Y180028D02*
G03*
X249913Y180028I-492J0D01*
G01*
X249413Y197528D02*
G03*
X249413Y197528I-492J0D01*
G01*
X249913Y213528D02*
G03*
X249913Y213528I-492J0D01*
G01*
X338412Y199628D02*
G03*
X338412Y199628I-492J0D01*
G01*
X430584Y223500D02*
G03*
X430584Y223500I-492J0D01*
G01*
X387619Y144886D02*
G03*
X387619Y144886I-492J0D01*
G01*
X373450Y234536D02*
G03*
X373450Y234536I-492J0D01*
G01*
X429913Y180028D02*
G03*
X429913Y180028I-492J0D01*
G01*
X429413Y197528D02*
G03*
X429413Y197528I-492J0D01*
G01*
X429913Y213528D02*
G03*
X429913Y213528I-492J0D01*
G01*
X158412Y379628D02*
G03*
X158412Y379628I-492J0D01*
G01*
X250584Y403500D02*
G03*
X250584Y403500I-492J0D01*
G01*
X207619Y324886D02*
G03*
X207619Y324886I-492J0D01*
G01*
X193450Y414536D02*
G03*
X193450Y414536I-492J0D01*
G01*
X249913Y360028D02*
G03*
X249913Y360028I-492J0D01*
G01*
X249413Y377528D02*
G03*
X249413Y377528I-492J0D01*
G01*
X249913Y393528D02*
G03*
X249913Y393528I-492J0D01*
G01*
X338412Y379628D02*
G03*
X338412Y379628I-492J0D01*
G01*
X430584Y403500D02*
G03*
X430584Y403500I-492J0D01*
G01*
X387619Y324886D02*
G03*
X387619Y324886I-492J0D01*
G01*
X373450Y414536D02*
G03*
X373450Y414536I-492J0D01*
G01*
X429913Y360028D02*
G03*
X429913Y360028I-492J0D01*
G01*
X429413Y377528D02*
G03*
X429413Y377528I-492J0D01*
G01*
X429913Y393528D02*
G03*
X429913Y393528I-492J0D01*
G01*
D68*
X248945Y252193D02*
X252882D01*
X248945Y241169D02*
X252882D01*
X248945D02*
Y252193D01*
X252882Y241169D02*
Y252193D01*
X127044Y257344D02*
X132044D01*
X127044Y217394D02*
Y257344D01*
X137044Y217394D02*
Y257344D01*
X132044D02*
X137044D01*
X133594Y217394D02*
X137044D01*
X127044D02*
X133594D01*
X200244Y247744D02*
Y252744D01*
Y247744D02*
X240194D01*
X200244Y257744D02*
X240194D01*
X200244Y252744D02*
Y257744D01*
X240194Y254294D02*
Y257744D01*
Y247744D02*
Y254294D01*
X428945Y252193D02*
X432882D01*
X428945Y241169D02*
X432882D01*
X428945D02*
Y252193D01*
X432882Y241169D02*
Y252193D01*
X307044Y257344D02*
X312044D01*
X307044Y217394D02*
Y257344D01*
X317044Y217394D02*
Y257344D01*
X312044D02*
X317044D01*
X313594Y217394D02*
X317044D01*
X307044D02*
X313594D01*
X380244Y247744D02*
Y252744D01*
Y247744D02*
X420194D01*
X380244Y257744D02*
X420194D01*
X380244Y252744D02*
Y257744D01*
X420194Y254294D02*
Y257744D01*
Y247744D02*
Y254294D01*
X248945Y432193D02*
X252882D01*
X248945Y421169D02*
X252882D01*
X248945D02*
Y432193D01*
X252882Y421169D02*
Y432193D01*
X127044Y437344D02*
X132044D01*
X127044Y397394D02*
Y437344D01*
X137044Y397394D02*
Y437344D01*
X132044D02*
X137044D01*
X133594Y397394D02*
X137044D01*
X127044D02*
X133594D01*
X200244Y427744D02*
Y432744D01*
Y427744D02*
X240194D01*
X200244Y437744D02*
X240194D01*
X200244Y432744D02*
Y437744D01*
X240194Y434294D02*
Y437744D01*
Y427744D02*
Y434294D01*
X428945Y432193D02*
X432882D01*
X428945Y421169D02*
X432882D01*
X428945D02*
Y432193D01*
X432882Y421169D02*
Y432193D01*
X307044Y437344D02*
X312044D01*
X307044Y397394D02*
Y437344D01*
X317044Y397394D02*
Y437344D01*
X312044D02*
X317044D01*
X313594Y397394D02*
X317044D01*
X307044D02*
X313594D01*
X380244Y427744D02*
Y432744D01*
Y427744D02*
X420194D01*
X380244Y437744D02*
X420194D01*
X380244Y432744D02*
Y437744D01*
X420194Y434294D02*
Y437744D01*
Y427744D02*
Y434294D01*
D69*
X161909Y182425D02*
X163484D01*
X161909Y180063D02*
X163484D01*
X157382D02*
Y182425D01*
X162053Y198446D02*
X163235D01*
X162053Y186242D02*
X163235D01*
X162053D02*
Y198446D01*
X163235Y186242D02*
Y198446D01*
X247722Y221791D02*
X250478D01*
X247722Y233209D02*
X250478D01*
Y221791D02*
Y233209D01*
X247722Y221791D02*
Y233209D01*
X236222Y227106D02*
Y227894D01*
X238978Y227106D02*
Y227894D01*
Y238106D02*
Y238894D01*
X236222Y238106D02*
Y238894D01*
X171165Y158181D02*
X172740D01*
X171165Y155819D02*
X172740D01*
X166638D02*
Y158181D01*
X224178Y167644D02*
X225222Y166600D01*
X224178Y165556D02*
X225222Y166600D01*
X204900Y186922D02*
X205944Y185878D01*
X203856Y185878D02*
X204900Y186922D01*
X184578Y166600D02*
X185622Y167644D01*
X184578Y166600D02*
X185622Y165556D01*
X203856Y147322D02*
X204900Y146278D01*
X205944Y147322D01*
X149176Y231797D02*
X153113D01*
X149176Y225891D02*
X153113D01*
X149076Y251497D02*
X153013D01*
X149076Y245591D02*
X153013D01*
X174061Y256583D02*
X188628D01*
X174061Y236505D02*
X188628D01*
X257197Y166642D02*
Y169791D01*
X252866Y166642D02*
X257197D01*
Y175697D02*
Y178846D01*
X252866D02*
X257197D01*
X256697Y184142D02*
Y187291D01*
X252366Y184142D02*
X256697D01*
Y193197D02*
Y196346D01*
X252366D02*
X256697D01*
X257197Y200142D02*
Y203291D01*
X252866Y200142D02*
X257197D01*
Y209197D02*
Y212346D01*
X252866D02*
X257197D01*
X341909Y182425D02*
X343484D01*
X341909Y180063D02*
X343484D01*
X337382D02*
Y182425D01*
X342053Y198446D02*
X343235D01*
X342053Y186242D02*
X343235D01*
X342053D02*
Y198446D01*
X343235Y186242D02*
Y198446D01*
X427722Y221791D02*
X430478D01*
X427722Y233209D02*
X430478D01*
Y221791D02*
Y233209D01*
X427722Y221791D02*
Y233209D01*
X416222Y227106D02*
Y227894D01*
X418978Y227106D02*
Y227894D01*
Y238106D02*
Y238894D01*
X416222Y238106D02*
Y238894D01*
X351165Y158181D02*
X352740D01*
X351165Y155819D02*
X352740D01*
X346638D02*
Y158181D01*
X404178Y167644D02*
X405222Y166600D01*
X404178Y165556D02*
X405222Y166600D01*
X384900Y186922D02*
X385944Y185878D01*
X383856Y185878D02*
X384900Y186922D01*
X364578Y166600D02*
X365622Y167644D01*
X364578Y166600D02*
X365622Y165556D01*
X383856Y147322D02*
X384900Y146278D01*
X385944Y147322D01*
X329176Y231797D02*
X333113D01*
X329176Y225891D02*
X333113D01*
X329076Y251497D02*
X333013D01*
X329076Y245591D02*
X333013D01*
X354061Y256583D02*
X368628D01*
X354061Y236505D02*
X368628D01*
X437197Y166642D02*
Y169791D01*
X432866Y166642D02*
X437197D01*
Y175697D02*
Y178846D01*
X432866D02*
X437197D01*
X436697Y184142D02*
Y187291D01*
X432366Y184142D02*
X436697D01*
Y193197D02*
Y196346D01*
X432366D02*
X436697D01*
X437197Y200142D02*
Y203291D01*
X432866Y200142D02*
X437197D01*
Y209197D02*
Y212346D01*
X432866D02*
X437197D01*
X161909Y362425D02*
X163484D01*
X161909Y360063D02*
X163484D01*
X157382D02*
Y362425D01*
X162053Y378446D02*
X163235D01*
X162053Y366242D02*
X163235D01*
X162053D02*
Y378446D01*
X163235Y366242D02*
Y378446D01*
X247722Y401791D02*
X250478D01*
X247722Y413209D02*
X250478D01*
Y401791D02*
Y413209D01*
X247722Y401791D02*
Y413209D01*
X236222Y407106D02*
Y407894D01*
X238978Y407106D02*
Y407894D01*
Y418106D02*
Y418894D01*
X236222Y418106D02*
Y418894D01*
X171165Y338181D02*
X172740D01*
X171165Y335819D02*
X172740D01*
X166638D02*
Y338181D01*
X224178Y347644D02*
X225222Y346600D01*
X224178Y345556D02*
X225222Y346600D01*
X204900Y366922D02*
X205944Y365878D01*
X203856Y365878D02*
X204900Y366922D01*
X184578Y346600D02*
X185622Y347644D01*
X184578Y346600D02*
X185622Y345556D01*
X203856Y327322D02*
X204900Y326278D01*
X205944Y327322D01*
X149176Y411797D02*
X153113D01*
X149176Y405891D02*
X153113D01*
X149076Y431497D02*
X153013D01*
X149076Y425591D02*
X153013D01*
X174061Y436583D02*
X188628D01*
X174061Y416505D02*
X188628D01*
X257197Y346642D02*
Y349791D01*
X252866Y346642D02*
X257197D01*
Y355697D02*
Y358846D01*
X252866D02*
X257197D01*
X256697Y364142D02*
Y367291D01*
X252366Y364142D02*
X256697D01*
Y373197D02*
Y376346D01*
X252366D02*
X256697D01*
X257197Y380142D02*
Y383291D01*
X252866Y380142D02*
X257197D01*
Y389197D02*
Y392346D01*
X252866D02*
X257197D01*
X341909Y362425D02*
X343484D01*
X341909Y360063D02*
X343484D01*
X337382D02*
Y362425D01*
X342053Y378446D02*
X343235D01*
X342053Y366242D02*
X343235D01*
X342053D02*
Y378446D01*
X343235Y366242D02*
Y378446D01*
X427722Y401791D02*
X430478D01*
X427722Y413209D02*
X430478D01*
Y401791D02*
Y413209D01*
X427722Y401791D02*
Y413209D01*
X416222Y407106D02*
Y407894D01*
X418978Y407106D02*
Y407894D01*
Y418106D02*
Y418894D01*
X416222Y418106D02*
Y418894D01*
X351165Y338181D02*
X352740D01*
X351165Y335819D02*
X352740D01*
X346638D02*
Y338181D01*
X404178Y347644D02*
X405222Y346600D01*
X404178Y345556D02*
X405222Y346600D01*
X384900Y366922D02*
X385944Y365878D01*
X383856Y365878D02*
X384900Y366922D01*
X364578Y346600D02*
X365622Y347644D01*
X364578Y346600D02*
X365622Y345556D01*
X383856Y327322D02*
X384900Y326278D01*
X385944Y327322D01*
X329176Y411797D02*
X333113D01*
X329176Y405891D02*
X333113D01*
X329076Y431497D02*
X333013D01*
X329076Y425591D02*
X333013D01*
X354061Y436583D02*
X368628D01*
X354061Y416505D02*
X368628D01*
X437197Y346642D02*
Y349791D01*
X432866Y346642D02*
X437197D01*
Y355697D02*
Y358846D01*
X432866D02*
X437197D01*
X436697Y364142D02*
Y367291D01*
X432366Y364142D02*
X436697D01*
Y373197D02*
Y376346D01*
X432366D02*
X436697D01*
X437197Y380142D02*
Y383291D01*
X432866Y380142D02*
X437197D01*
Y389197D02*
Y392346D01*
X432866D02*
X437197D01*
D70*
X197244Y285743D02*
X201909D01*
X251744Y284243D02*
X257076D01*
X254410Y286909D02*
Y281577D01*
X377244Y285743D02*
X381909D01*
X431744Y284243D02*
X437076D01*
X434410Y286909D02*
Y281577D01*
X197244Y465743D02*
X201909D01*
X251744Y464243D02*
X257076D01*
X254410Y466909D02*
Y461577D01*
X377244Y465743D02*
X381909D01*
X431744Y464243D02*
X437076D01*
X434410Y466909D02*
Y461577D01*
M02*
