M48
;Layer_Color=9474304
;FILE_FORMAT=2:5
INCH,LZ
;TYPE=PLATED
T1F00S00C0.00787
T2F00S00C0.01200
T5F00S00C0.02700
T6F00S00C0.04000
T7F00S00C0.04331
T8F00S00C0.05118
T9F00S00C0.13780
;TYPE=NON_PLATED
T10F00S00C0.03100
%
T01
X0357013Y0242213
Y0246544
X0361344
Y0242213
X0365675
Y0246544
Y0250875
X0361344
X0357013
X0185675
X0181344
X0177013
Y0246544
X0181344
Y0242213
X0177013
X0185675
Y0246544
Y0422213
Y0426544
Y0430875
X0181344
X0177013
Y0426544
X0181344
Y0422213
X0177013
X0357013
Y0426544
X0361344
Y0422213
X0365675
Y0426544
Y0430875
X0361344
X0357013
T02
X0151744Y0128744
X0171744Y0150744
X01889Y01524
X01926Y01531
Y01495
X01979Y0146186
X01947Y01414
X01845Y0143895
X0214744Y0142244
X0213244Y0148744
X0217744Y0150244
X02223Y015183
X0242618Y0148744
X0242744Y0128945
X0258744Y0134244
X0206744Y0128945
X0331744Y0128744
X0351744Y0150744
X03689Y01524
X03726Y01531
Y01495
X03779Y0146186
X03747Y01414
X03645Y0143895
X0394744Y0142244
X0393244Y0148744
X0397744Y0150244
X04023Y015183
X0422618Y0148744
X0422744Y0128945
X0438744Y0134244
X0386744Y0128945
X03824Y0165244
X0383744Y0178244
Y0190244
X0387744Y0188744
X0392744Y0185744
X0397744Y0187244
X0400244Y0189744
X0401744Y0185244
Y0178244
X0406244Y0191244
X04147Y01922
Y01881
X04189Y0186044
X04255Y01866
X04351Y01904
X04291Y01969
X04261Y02007
X0414744Y0202744
X04107Y02112
X0413941Y0225283
X04189Y02207
X04294Y0229705
X04239Y02372
X0412244Y0238244
X04044Y0227244
X0395244Y0243244
X0379744
X0381244Y0239744
X0382244Y0236244
X0378744Y0234244
X03757Y02302
X0381244Y0229244
X0370244Y02259
X0365744Y0227744
X0363744Y0225244
Y0230744
Y0234244
X0368244
Y0230744
X0366244Y023665
X0356744Y0236744
X0358744Y0234244
X0352444Y0234044
X0349544
X0346644
X0348744Y0225244
X0352744
X0361744Y0221244
X03708Y02173
X03663Y02006
X0358744Y0200744
X0355244Y0202244
X03531Y01913
X0363244Y0187244
X0369744Y0185244
X0367244Y0181244
X0363987Y0168409
X0358Y01566
X0346Y01653
X03346Y0181244
X0339087Y0202744
X0330244Y0207744
X0327744Y0217244
X0320744
X0321044Y0226544
X0321244Y0232244
X0330244
X0329644Y0226644
X0329244Y0246344
X0321244Y0246244
X0321244Y0251244
X0316244Y0260244
Y0269244
X0315744Y0277244
X0323744Y0283744
X0330744
X0338744Y0283244
X0339744Y0262244
X0346744Y0261644
X0346644Y0264944
X0347044Y0268444
X0356244Y0268744
X0360244Y0268744
X0364244Y0264744
X0368244Y0260744
X0372244Y0260744
X0376244Y0264744
Y0268744
X0372244
X0380244Y0264744
X0360244Y0260744
X0362744Y0256744
X0378544Y0199889
X0379744Y0188244
X04105Y0168409
X04126Y01651
X0406418Y0163
X04089Y01601
X04002Y0157244
X04322Y01627
X0439244Y0157244
X0448744Y0170344
X04467Y01818
X0438744Y02027
X0435244Y0215244
X04529Y02052
X04259Y01729
X0422744Y0308945
X0386744
X0331744Y0308744
X0242744Y0308945
X0206744
X0196244Y0268744
Y0264744
X0200244
X0192244Y0260744
X0188244Y0260744
X0180244
X0182744Y0256744
X0184244Y0264744
X0180244Y0268744
X0176244Y0268744
X0167044Y0268444
X0166644Y0264944
X0166744Y0261644
X0159744Y0262244
X0158744Y0283244
X0192244Y0268744
X0199744Y0243244
X0201244Y0239744
X0202244Y0236244
X0198744Y0234244
X01957Y02302
X0201244Y0229244
X0190244Y02259
X0185744Y0227744
X0183744Y0225244
Y0230744
Y0234244
X0188244
Y0230744
X0186244Y023665
X0176744Y0236744
X0178744Y0234244
X0172444Y0234044
X0169544
X0166644
X0168744Y0225244
X0172744
X0181744Y0221244
X01908Y02173
X01863Y02006
X0178744Y0200744
X0175244Y0202244
X01731Y01913
X0183244Y0187244
X0189744Y0185244
X0187244Y0181244
X0183987Y0168409
X0178Y01566
X0166Y01653
X02024Y0165244
X0203744Y0178244
Y0190244
X0207744Y0188744
X0212744Y0185744
X0217744Y0187244
X0220244Y0189744
X0221744Y0185244
Y0178244
X0226244Y0191244
X02347Y01922
Y01881
X02389Y0186044
X02455Y01866
X02551Y01904
X02491Y01969
X02461Y02007
X0234744Y0202744
X02307Y02112
X0233941Y0225283
X02389Y02207
X02494Y0229705
X02439Y02372
X0232244Y0238244
X02244Y0227244
X0215244Y0243244
X0198544Y0199889
X0199744Y0188244
X02305Y0168409
X02326Y01651
X0226418Y0163
X02289Y01601
X02202Y0157244
X02522Y01627
X0259244Y0157244
X0268744Y0170344
X02667Y01818
X0258744Y02027
X0255244Y0215244
X02729Y02052
X02459Y01729
X0159087Y0202744
X0150244Y0207744
X0147744Y0217244
X0140744
X0141044Y0226544
X0141244Y0232244
X0150244
X0149644Y0226644
X0149244Y0246344
X0141244Y0246244
X0141244Y0251244
X0136244Y0260244
Y0269244
X0135744Y0277244
X0143744Y0283744
X0150744
X0151744Y0308744
X01546Y0181244
Y0361244
X0150244Y0387744
X0147744Y0397244
X0140744
X0141044Y0406544
X0141244Y0412244
X0150244
X0149644Y0406644
X0149244Y0426344
X0141244Y0426244
X0141244Y0431244
X0136244Y0440244
Y0449244
X0135744Y0457244
X0143744Y0463744
X0150744
X0158744Y0463244
X0159744Y0442244
X0166744Y0441644
X0166644Y0444944
X0167044Y0448444
X0176244Y0448744
X0180244Y0448744
X0184244Y0444744
X0188244Y0440744
X0192244Y0440744
X0196244Y0444744
Y0448744
X0192244
X0200244Y0444744
X0199744Y0423244
X0201244Y0419744
X0202244Y0416244
X0198744Y0414244
X01957Y04102
X0201244Y0409244
X0190244Y04059
X0185744Y0407744
X0183744Y0405244
Y0410744
Y0414244
X0188244
Y0410744
X0186244Y041665
X0176744Y0416744
X0178744Y0414244
X0172444Y0414044
X0169544
X0166644
X0168744Y0405244
X0172744
X0181744Y0401244
X01908Y03973
X01863Y03806
X0178744Y0380744
X0175244Y0382244
X01731Y03713
X0183244Y0367244
X0189744Y0365244
X0187244Y0361244
X0183987Y0348409
X0178Y03366
X0171744Y0330744
X01889Y03324
X01926Y03331
Y03295
X01979Y0326186
X01947Y03214
X01845Y0323895
X0214744Y0322244
X0213244Y0328744
X0217744Y0330244
X02223Y033183
X02202Y0337244
X02289Y03401
X0226418Y0343
X02326Y03451
X02305Y0348409
X0221744Y0358244
Y0365244
X0220244Y0369744
X0217744Y0367244
X0212744Y0365744
X0207744Y0368744
X0203744Y0370244
X0199744Y0368244
X0198544Y0379889
X0203744Y0358244
X02024Y0345244
X0166Y03453
X0159087Y0382744
X0234744
X02347Y03722
Y03681
X02389Y0366044
X02455Y03666
X02551Y03704
X02491Y03769
X02461Y03807
X0258744Y03827
X0255244Y0395244
X02494Y0409705
X02439Y04172
X0232244Y0418244
X0233941Y0405283
X02389Y04007
X02307Y03912
X02244Y0407244
X0215244Y0423244
X0182744Y0436744
X0180244Y0440744
X0226244Y0371244
X02459Y03529
X02522Y03427
X0259244Y0337244
X0268744Y0350344
X02667Y03618
X02729Y03852
X0258744Y0314244
X0242618Y0328744
X0351744Y0330744
X0358Y03366
X03689Y03324
X03726Y03331
Y03295
X03779Y0326186
X03747Y03214
X03645Y0323895
X0363987Y0348409
X0367244Y0361244
X0369744Y0365244
X0363244Y0367244
X03531Y03713
X0355244Y0382244
X0358744Y0380744
X03663Y03806
X0378544Y0379889
X0379744Y0368244
X0383744Y0370244
X0387744Y0368744
X0392744Y0365744
X0397744Y0367244
X0400244Y0369744
X0401744Y0365244
Y0358244
X0406244Y0371244
X04147Y03722
Y03681
X04189Y0366044
X04255Y03666
X04351Y03704
X04291Y03769
X04261Y03807
X0414744Y0382744
X04107Y03912
X0413941Y0405283
X04189Y04007
X04294Y0409705
X04239Y04172
X0412244Y0418244
X04044Y0407244
X0395244Y0423244
X0379744
X0381244Y0419744
X0382244Y0416244
X0378744Y0414244
X03757Y04102
X0381244Y0409244
X0370244Y04059
X0365744Y0407744
X0363744Y0405244
Y0410744
Y0414244
X0368244
Y0410744
X0366244Y041665
X0356744Y0416744
X0358744Y0414244
X0352444Y0414044
X0349544
X0346644
X0348744Y0405244
X0352744
X0361744Y0401244
X03708Y03973
X0327744Y0397244
X0320744
X0321044Y0406544
X0321244Y0412244
X0330244
X0329644Y0406644
X0330244Y0387744
X0339087Y0382744
X03346Y0361244
X0346Y03453
X03824Y0345244
X0383744Y0358244
X04105Y0348409
X04126Y03451
X0406418Y0343
X04089Y03401
X04002Y0337244
X04023Y033183
X0397744Y0330244
X0393244Y0328744
X0394744Y0322244
X0422618Y0328744
X04322Y03427
X0439244Y0337244
X0448744Y0350344
X04467Y03618
X0438744Y03827
X0435244Y0395244
X04529Y03852
X04259Y03529
X0438744Y0314244
X0380244Y0444744
X0376244
Y0448744
X0372244
X0372244Y0440744
X0368244Y0440744
X0360244
X0362744Y0436744
X0364244Y0444744
X0360244Y0448744
X0356244Y0448744
X0347044Y0448444
X0346644Y0444944
X0346744Y0441644
X0339744Y0442244
X0338744Y0463244
X0330744Y0463744
X0323744
X0315744Y0457244
X0316244Y0449244
Y0440244
X0321244Y0431244
X0321244Y0426244
X0329244Y0426344
T05
X0321744Y0166744
Y0171744
X0326744
Y0166744
X0331744
Y0171744
X0336744
Y0166744
X0341744
Y0171744
X0161744
X0156744
Y0166744
X0161744
X0151744
X0146744
X0141744
Y0171744
X0146744
X0151744
Y0346744
X0146744
X0141744
Y0351744
X0146744
X0151744
X0156744
Y0346744
X0161744
Y0351744
X0321744
Y0346744
X0326744
Y0351744
X0331744
Y0346744
X0336744
Y0351744
X0341744
Y0346744
T06
X0385244Y0252744
X0395244
X0405244
X0415244
X0312044Y0252344
Y0242344
Y0232344
Y0222344
X0235244Y0252744
X0225244
X0215244
X0205244
X0132044Y0252344
Y0242344
Y0232344
Y0222344
Y0402344
Y0412344
Y0422344
Y0432344
X0205244Y0432744
X0215244
X0225244
X0235244
X0312044Y0432344
Y0422344
Y0412344
Y0402344
X0385244Y0432744
X0395244
X0405244
X0415244
T07
X04635Y01612
Y01712
Y01812
Y01912
Y02012
Y02112
Y02212
Y02312
Y02412
Y02512
X02835
Y02412
Y02312
Y02212
Y02112
Y02012
Y01912
Y01812
Y01712
Y01612
Y03412
Y03512
Y03612
Y03712
Y03812
Y03912
Y04012
Y04112
Y04212
Y04312
X04635
Y04212
Y04112
Y04012
Y03912
Y03812
Y03712
Y03612
Y03512
Y03412
T08
X0395744Y0276244
X0415744
X0235744
X0215744
Y0456244
X0235744
X0395744
X0415744
T09
X0147744Y0146744
X0269791
X0327744
X0449791
Y0268791
X0327744
X0269791
X0147744
Y0326744
Y0448791
X0269791
Y0326744
X0327744
X0449791
Y0448791
X0327744
T10
X01246Y01525
X01555Y0124
X01605
X01655
X01705
X01755
X01805
X02363Y01238
X02413
X02463
X02513
X02563
X02613
X02906Y015
Y0155
X03051
Y015
X0332Y0124
X0337
X0342
X0347
X0352
X0357
X04187Y01244
X04237
X04287
X04337
X04387
X04437
X04706Y01525
Y01575
Y01625
Y01675
Y01725
Y01775
X04716Y02161
Y02211
Y02261
Y02311
Y02361
Y02411
X04325Y02901
X04275
X04225
X04175
X04125
X04075
X04064Y03037
X04114
X04164
X04214
X04264
X04314
X03606Y03045
X03556
X03506
X03456
X03406
X03356
X03355Y02899
X03405
X03455
X03505
X03555
X03605
X03048Y02543
Y02493
Y02443
Y02393
Y02343
Y02293
X02914Y02298
Y02348
Y02398
Y02448
Y02498
Y02548
X02611Y02901
X02561
X02511
X02461
X02411
X02361
X02359Y03033
X02409
X02459
X02509
X02559
X02609
X01755Y03039
X01705
X01655
X01605
X01607Y02901
X01657
X01707
X01757
X02906Y0175
Y017
Y0165
Y016
X03051
Y0165
Y017
Y0175
X01246Y01775
Y01725
Y01675
Y01625
Y01575
X0125Y024
Y0245
Y025
Y0255
Y026
Y0265
X01507Y02901
X01557
X01555Y03039
X01505
X01251Y03317
Y03367
Y03417
Y03467
Y03517
Y03567
X01252Y04092
Y04142
Y04192
Y04242
Y04292
Y04342
X0291Y04291
Y04241
Y04191
Y04141
Y04091
Y04041
X03049Y04045
Y04095
Y04145
Y04195
Y04245
Y04295
X03047Y03632
Y03582
Y03532
Y03482
Y03432
Y03382
X02912Y03383
Y03433
Y03483
Y03533
Y03583
Y03633
X04716Y03645
Y03595
Y03545
Y03495
Y03445
Y03395
X04712Y04014
Y04064
Y04114
Y04164
Y04214
Y04264
X0435Y04696
X043
X0425
X042
X0415
X041
X0365
X036
X0355
X035
X0345
X034
X02526
X02476
X02426
X02376
X02326
X02276
X01832Y04698
X01782
X01732
X01682
X01632
X01582
M30
