G04 Layer_Color=32768*
%FSLAX25Y25*%
%MOIN*%
G70*
G01*
G75*
%ADD118C,0.00394*%
%ADD119C,0.00197*%
D118*
X213744Y171472D02*
Y175016D01*
X211972Y173244D02*
X215516D01*
X209118Y171275D02*
X218370D01*
X209118Y175213D02*
X218370D01*
X209118Y171275D02*
Y175213D01*
X218370Y171275D02*
Y175213D01*
X256972Y229244D02*
X260516D01*
X258744Y227472D02*
Y231016D01*
X260713Y224618D02*
Y233870D01*
X256776Y224618D02*
Y233870D01*
Y224618D02*
X260713D01*
X256776Y233870D02*
X260713D01*
X251972Y229744D02*
X255516D01*
X253744Y227972D02*
Y231516D01*
X255713Y225118D02*
Y234370D01*
X251776Y225118D02*
Y234370D01*
Y225118D02*
X255713D01*
X251776Y234370D02*
X255713D01*
X236972Y227744D02*
X240516D01*
X238744Y225972D02*
Y229516D01*
X236775Y223118D02*
Y232370D01*
X240713Y223118D02*
Y232370D01*
X236775D02*
X240713D01*
X236775Y223118D02*
X240713D01*
X242972Y227244D02*
X246516D01*
X244744Y225472D02*
Y229016D01*
X242775Y222618D02*
Y231870D01*
X246713Y222618D02*
Y231870D01*
X242775D02*
X246713D01*
X242775Y222618D02*
X246713D01*
X172244Y155374D02*
Y159114D01*
X170374Y157244D02*
X174114D01*
X167618Y155079D02*
X176870D01*
X167618Y159409D02*
X176870D01*
X167618Y155079D02*
Y159409D01*
X176870Y155079D02*
Y159409D01*
X210244Y159972D02*
Y163516D01*
X208473Y161744D02*
X212016D01*
X205618Y159775D02*
X214870D01*
X205618Y163712D02*
X214870D01*
X205618Y159775D02*
Y163712D01*
X214870Y159775D02*
Y163712D01*
X210244Y154972D02*
Y158516D01*
X208473Y156744D02*
X212016D01*
X205618Y154775D02*
X214870D01*
X205618Y158712D02*
X214870D01*
X205618Y154775D02*
Y158712D01*
X214870Y154775D02*
Y158712D01*
X186244Y191472D02*
Y195016D01*
X184472Y193244D02*
X188016D01*
X181618Y195213D02*
X190870D01*
X181618Y191275D02*
X190870D01*
Y195213D01*
X181618Y191275D02*
Y195213D01*
X210744Y225472D02*
Y229016D01*
X208972Y227244D02*
X212516D01*
X206118Y229213D02*
X215370D01*
X206118Y225275D02*
X215370D01*
Y229213D01*
X206118Y225275D02*
Y229213D01*
X226870Y235079D02*
Y239409D01*
X217618Y235079D02*
Y239409D01*
X226870D01*
X217618Y235079D02*
X226870D01*
X220374Y237244D02*
X224114D01*
X222244Y235374D02*
Y239114D01*
X213370Y235276D02*
Y239213D01*
X204118Y235276D02*
Y239213D01*
X213370D01*
X204118Y235276D02*
X213370D01*
X206972Y237244D02*
X210516D01*
X208744Y235472D02*
Y239016D01*
X226870Y241079D02*
Y245409D01*
X217618Y241079D02*
Y245409D01*
X226870D01*
X217618Y241079D02*
X226870D01*
X220374Y243244D02*
X224114D01*
X222244Y241374D02*
Y245114D01*
X213370Y241276D02*
Y245213D01*
X204118Y241276D02*
Y245213D01*
X213370D01*
X204118Y241276D02*
X213370D01*
X206972Y243244D02*
X210516D01*
X208744Y241472D02*
Y245016D01*
X162244Y179374D02*
Y183114D01*
X160374Y181244D02*
X164114D01*
X157618Y183409D02*
X166870D01*
X157618Y179079D02*
X166870D01*
Y183409D01*
X157618Y179079D02*
Y183409D01*
X172744Y195374D02*
Y199114D01*
X170874Y197244D02*
X174614D01*
X168118Y195079D02*
X177370D01*
X168118Y199410D02*
X177370D01*
X168118Y195079D02*
Y199410D01*
X177370Y195079D02*
Y199410D01*
X162244Y195374D02*
Y199114D01*
X160374Y197244D02*
X164114D01*
X157618Y195079D02*
X166870D01*
X157618Y199410D02*
X166870D01*
X157618Y195079D02*
Y199410D01*
X166870Y195079D02*
Y199410D01*
X183244Y150874D02*
Y154614D01*
X181374Y152744D02*
X185114D01*
X178618Y150579D02*
X187870D01*
X178618Y154910D02*
X187870D01*
X178618Y150579D02*
Y154910D01*
X187870Y150579D02*
Y154910D01*
X201244Y151972D02*
Y155516D01*
X199472Y153744D02*
X203016D01*
X196618Y155713D02*
X205870D01*
X196618Y151775D02*
X205870D01*
Y155713D01*
X196618Y151775D02*
Y155713D01*
X200744Y157472D02*
Y161016D01*
X198972Y159244D02*
X202516D01*
X196118Y157275D02*
X205370D01*
X196118Y161212D02*
X205370D01*
X196118Y157275D02*
Y161212D01*
X205370Y157275D02*
Y161212D01*
X189744Y166472D02*
Y170016D01*
X187973Y168244D02*
X191516D01*
X185118Y170213D02*
X194370D01*
X185118Y166276D02*
X194370D01*
Y170213D01*
X185118Y166276D02*
Y170213D01*
X176244Y228473D02*
Y232016D01*
X174472Y230244D02*
X178016D01*
X171618Y228276D02*
X180870D01*
X171618Y232213D02*
X180870D01*
Y228276D02*
Y232213D01*
X171618Y228276D02*
Y232213D01*
X158071Y179275D02*
Y183213D01*
X167323Y179275D02*
Y183213D01*
X158071D02*
X167323D01*
X158071Y179275D02*
X167323D01*
X161122Y181244D02*
X164272D01*
X162697Y179669D02*
Y182819D01*
X153392Y184273D02*
Y200415D01*
X171896Y184273D02*
Y200415D01*
X153392D02*
X171896D01*
X153392Y184273D02*
X171896D01*
X160676Y192344D02*
X164613D01*
X162644Y190376D02*
Y194313D01*
X255990Y221398D02*
Y233602D01*
X242210Y221398D02*
Y233602D01*
Y221398D02*
X255990D01*
X242210Y233602D02*
X255990D01*
X247131Y227500D02*
X251068D01*
X249100Y225531D02*
Y229468D01*
X235730Y227500D02*
X239470D01*
X237600Y225630D02*
Y229370D01*
X235435Y222874D02*
Y232126D01*
X239765Y222874D02*
Y232126D01*
X235435Y222874D02*
X239765D01*
X235435Y232126D02*
X239765D01*
X235730Y238500D02*
X239470D01*
X237600Y236630D02*
Y240370D01*
X239765Y233874D02*
Y243126D01*
X235435Y233874D02*
Y243126D01*
X239765D01*
X235435Y233874D02*
X239765D01*
X167327Y155031D02*
Y158969D01*
X176579Y155031D02*
Y158969D01*
X167327D02*
X176579D01*
X167327Y155031D02*
X176579D01*
X170378Y157000D02*
X173528D01*
X171953Y155425D02*
Y158575D01*
X240157Y142228D02*
Y145772D01*
X238386Y144000D02*
X241929D01*
X235531Y142031D02*
X244783D01*
X235531Y145969D02*
X244783D01*
Y142031D02*
Y145969D01*
X235531Y142031D02*
Y145969D01*
X240157Y152228D02*
Y155772D01*
X238386Y154000D02*
X241929D01*
X235531Y152031D02*
X244783D01*
X235531Y155969D02*
X244783D01*
Y152031D02*
Y155969D01*
X235531Y152031D02*
Y155969D01*
X203508Y165208D02*
X206292Y167992D01*
X203508D02*
X206292Y165208D01*
X151144Y226876D02*
Y230813D01*
X149176Y228844D02*
X153113D01*
X143270Y232584D02*
X159018D01*
X143270Y225104D02*
X159018D01*
X143270D02*
Y232584D01*
X159018Y225104D02*
Y232584D01*
X151044Y246576D02*
Y250513D01*
X149076Y248544D02*
X153013D01*
X143170Y252284D02*
X158918D01*
X143170Y244804D02*
X158918D01*
X143170D02*
Y252284D01*
X158918Y244804D02*
Y252284D01*
X181344Y244576D02*
Y248513D01*
X179376Y246544D02*
X183313D01*
X179276Y195567D02*
X193213D01*
X179276Y210921D02*
X193213D01*
Y195567D02*
Y210921D01*
X179276Y195567D02*
Y210921D01*
X186244Y201276D02*
Y205213D01*
X184276Y203244D02*
X188213D01*
X254244Y170776D02*
Y174713D01*
X252276Y172744D02*
X256213D01*
X253744Y188276D02*
Y192213D01*
X251776Y190244D02*
X255713D01*
X254244Y204276D02*
Y208213D01*
X252276Y206244D02*
X256213D01*
X260276Y251370D02*
X264213D01*
X260276Y242118D02*
X264213D01*
X260276D02*
Y251370D01*
X264213Y242118D02*
Y251370D01*
X262244Y244972D02*
Y248516D01*
X260472Y246744D02*
X264016D01*
X247079Y201618D02*
X251409D01*
X247079Y210870D02*
X251409D01*
Y201618D02*
Y210870D01*
X247079Y201618D02*
Y210870D01*
X249244Y204374D02*
Y208114D01*
X247374Y206244D02*
X251114D01*
X256579Y204118D02*
X260909D01*
X256579Y213370D02*
X260909D01*
Y204118D02*
Y213370D01*
X256579Y204118D02*
Y213370D01*
X258744Y206874D02*
Y210614D01*
X256874Y208744D02*
X260614D01*
X247579Y168118D02*
X251909D01*
X247579Y177370D02*
X251909D01*
Y168118D02*
Y177370D01*
X247579Y168118D02*
Y177370D01*
X249744Y170874D02*
Y174614D01*
X247874Y172744D02*
X251614D01*
X257079Y170618D02*
X261409D01*
X257079Y179870D02*
X261409D01*
Y170618D02*
Y179870D01*
X257079Y170618D02*
Y179870D01*
X259244Y173374D02*
Y177114D01*
X257374Y175244D02*
X261114D01*
X256579Y188118D02*
X260909D01*
X256579Y197370D02*
X260909D01*
Y188118D02*
Y197370D01*
X256579Y188118D02*
Y197370D01*
X258744Y190874D02*
Y194614D01*
X256874Y192744D02*
X260614D01*
X247079Y185118D02*
X251409D01*
X247079Y194370D02*
X251409D01*
Y185118D02*
Y194370D01*
X247079Y185118D02*
Y194370D01*
X249244Y187874D02*
Y191614D01*
X247374Y189744D02*
X251114D01*
X237776Y196370D02*
X241713D01*
X237776Y187118D02*
X241713D01*
X237776D02*
Y196370D01*
X241713Y187118D02*
Y196370D01*
X239744Y189972D02*
Y193516D01*
X237972Y191744D02*
X241516D01*
X208744Y205823D02*
Y209760D01*
X206776Y207791D02*
X210713D01*
X393744Y171472D02*
Y175016D01*
X391972Y173244D02*
X395516D01*
X389118Y171275D02*
X398370D01*
X389118Y175213D02*
X398370D01*
X389118Y171275D02*
Y175213D01*
X398370Y171275D02*
Y175213D01*
X436972Y229244D02*
X440516D01*
X438744Y227472D02*
Y231016D01*
X440713Y224618D02*
Y233870D01*
X436776Y224618D02*
Y233870D01*
Y224618D02*
X440713D01*
X436776Y233870D02*
X440713D01*
X431972Y229744D02*
X435516D01*
X433744Y227972D02*
Y231516D01*
X435713Y225118D02*
Y234370D01*
X431776Y225118D02*
Y234370D01*
Y225118D02*
X435713D01*
X431776Y234370D02*
X435713D01*
X416972Y227744D02*
X420516D01*
X418744Y225972D02*
Y229516D01*
X416775Y223118D02*
Y232370D01*
X420713Y223118D02*
Y232370D01*
X416775D02*
X420713D01*
X416775Y223118D02*
X420713D01*
X422972Y227244D02*
X426516D01*
X424744Y225472D02*
Y229016D01*
X422775Y222618D02*
Y231870D01*
X426713Y222618D02*
Y231870D01*
X422775D02*
X426713D01*
X422775Y222618D02*
X426713D01*
X352244Y155374D02*
Y159114D01*
X350374Y157244D02*
X354114D01*
X347618Y155079D02*
X356870D01*
X347618Y159409D02*
X356870D01*
X347618Y155079D02*
Y159409D01*
X356870Y155079D02*
Y159409D01*
X390244Y159972D02*
Y163516D01*
X388473Y161744D02*
X392016D01*
X385618Y159775D02*
X394870D01*
X385618Y163712D02*
X394870D01*
X385618Y159775D02*
Y163712D01*
X394870Y159775D02*
Y163712D01*
X390244Y154972D02*
Y158516D01*
X388473Y156744D02*
X392016D01*
X385618Y154775D02*
X394870D01*
X385618Y158712D02*
X394870D01*
X385618Y154775D02*
Y158712D01*
X394870Y154775D02*
Y158712D01*
X366244Y191472D02*
Y195016D01*
X364472Y193244D02*
X368016D01*
X361618Y195213D02*
X370870D01*
X361618Y191275D02*
X370870D01*
Y195213D01*
X361618Y191275D02*
Y195213D01*
X390744Y225472D02*
Y229016D01*
X388972Y227244D02*
X392516D01*
X386118Y229213D02*
X395370D01*
X386118Y225275D02*
X395370D01*
Y229213D01*
X386118Y225275D02*
Y229213D01*
X406870Y235079D02*
Y239409D01*
X397618Y235079D02*
Y239409D01*
X406870D01*
X397618Y235079D02*
X406870D01*
X400374Y237244D02*
X404114D01*
X402244Y235374D02*
Y239114D01*
X393370Y235276D02*
Y239213D01*
X384118Y235276D02*
Y239213D01*
X393370D01*
X384118Y235276D02*
X393370D01*
X386972Y237244D02*
X390516D01*
X388744Y235472D02*
Y239016D01*
X406870Y241079D02*
Y245409D01*
X397618Y241079D02*
Y245409D01*
X406870D01*
X397618Y241079D02*
X406870D01*
X400374Y243244D02*
X404114D01*
X402244Y241374D02*
Y245114D01*
X393370Y241276D02*
Y245213D01*
X384118Y241276D02*
Y245213D01*
X393370D01*
X384118Y241276D02*
X393370D01*
X386972Y243244D02*
X390516D01*
X388744Y241472D02*
Y245016D01*
X342244Y179374D02*
Y183114D01*
X340374Y181244D02*
X344114D01*
X337618Y183409D02*
X346870D01*
X337618Y179079D02*
X346870D01*
Y183409D01*
X337618Y179079D02*
Y183409D01*
X352744Y195374D02*
Y199114D01*
X350874Y197244D02*
X354614D01*
X348118Y195079D02*
X357370D01*
X348118Y199410D02*
X357370D01*
X348118Y195079D02*
Y199410D01*
X357370Y195079D02*
Y199410D01*
X342244Y195374D02*
Y199114D01*
X340374Y197244D02*
X344114D01*
X337618Y195079D02*
X346870D01*
X337618Y199410D02*
X346870D01*
X337618Y195079D02*
Y199410D01*
X346870Y195079D02*
Y199410D01*
X363244Y150874D02*
Y154614D01*
X361374Y152744D02*
X365114D01*
X358618Y150579D02*
X367870D01*
X358618Y154910D02*
X367870D01*
X358618Y150579D02*
Y154910D01*
X367870Y150579D02*
Y154910D01*
X381244Y151972D02*
Y155516D01*
X379472Y153744D02*
X383016D01*
X376618Y155713D02*
X385870D01*
X376618Y151775D02*
X385870D01*
Y155713D01*
X376618Y151775D02*
Y155713D01*
X380744Y157472D02*
Y161016D01*
X378972Y159244D02*
X382516D01*
X376118Y157275D02*
X385370D01*
X376118Y161212D02*
X385370D01*
X376118Y157275D02*
Y161212D01*
X385370Y157275D02*
Y161212D01*
X369744Y166472D02*
Y170016D01*
X367973Y168244D02*
X371516D01*
X365118Y170213D02*
X374370D01*
X365118Y166276D02*
X374370D01*
Y170213D01*
X365118Y166276D02*
Y170213D01*
X356244Y228473D02*
Y232016D01*
X354472Y230244D02*
X358016D01*
X351618Y228276D02*
X360870D01*
X351618Y232213D02*
X360870D01*
Y228276D02*
Y232213D01*
X351618Y228276D02*
Y232213D01*
X338071Y179275D02*
Y183213D01*
X347323Y179275D02*
Y183213D01*
X338071D02*
X347323D01*
X338071Y179275D02*
X347323D01*
X341122Y181244D02*
X344272D01*
X342697Y179669D02*
Y182819D01*
X333392Y184273D02*
Y200415D01*
X351896Y184273D02*
Y200415D01*
X333392D02*
X351896D01*
X333392Y184273D02*
X351896D01*
X340676Y192344D02*
X344613D01*
X342644Y190376D02*
Y194313D01*
X435990Y221398D02*
Y233602D01*
X422210Y221398D02*
Y233602D01*
Y221398D02*
X435990D01*
X422210Y233602D02*
X435990D01*
X427131Y227500D02*
X431068D01*
X429100Y225531D02*
Y229468D01*
X415730Y227500D02*
X419470D01*
X417600Y225630D02*
Y229370D01*
X415435Y222874D02*
Y232126D01*
X419765Y222874D02*
Y232126D01*
X415435Y222874D02*
X419765D01*
X415435Y232126D02*
X419765D01*
X415730Y238500D02*
X419470D01*
X417600Y236630D02*
Y240370D01*
X419765Y233874D02*
Y243126D01*
X415435Y233874D02*
Y243126D01*
X419765D01*
X415435Y233874D02*
X419765D01*
X347327Y155031D02*
Y158969D01*
X356579Y155031D02*
Y158969D01*
X347327D02*
X356579D01*
X347327Y155031D02*
X356579D01*
X350378Y157000D02*
X353528D01*
X351953Y155425D02*
Y158575D01*
X420157Y142228D02*
Y145772D01*
X418386Y144000D02*
X421929D01*
X415531Y142031D02*
X424783D01*
X415531Y145969D02*
X424783D01*
Y142031D02*
Y145969D01*
X415531Y142031D02*
Y145969D01*
X420157Y152228D02*
Y155772D01*
X418386Y154000D02*
X421929D01*
X415531Y152031D02*
X424783D01*
X415531Y155969D02*
X424783D01*
Y152031D02*
Y155969D01*
X415531Y152031D02*
Y155969D01*
X383508Y165208D02*
X386292Y167992D01*
X383508D02*
X386292Y165208D01*
X331144Y226876D02*
Y230813D01*
X329176Y228844D02*
X333113D01*
X323270Y232584D02*
X339018D01*
X323270Y225104D02*
X339018D01*
X323270D02*
Y232584D01*
X339018Y225104D02*
Y232584D01*
X331044Y246576D02*
Y250513D01*
X329076Y248544D02*
X333013D01*
X323170Y252284D02*
X338918D01*
X323170Y244804D02*
X338918D01*
X323170D02*
Y252284D01*
X338918Y244804D02*
Y252284D01*
X361344Y244576D02*
Y248513D01*
X359376Y246544D02*
X363313D01*
X359276Y195567D02*
X373213D01*
X359276Y210921D02*
X373213D01*
Y195567D02*
Y210921D01*
X359276Y195567D02*
Y210921D01*
X366244Y201276D02*
Y205213D01*
X364276Y203244D02*
X368213D01*
X434244Y170776D02*
Y174713D01*
X432276Y172744D02*
X436213D01*
X433744Y188276D02*
Y192213D01*
X431776Y190244D02*
X435713D01*
X434244Y204276D02*
Y208213D01*
X432276Y206244D02*
X436213D01*
X440276Y251370D02*
X444213D01*
X440276Y242118D02*
X444213D01*
X440276D02*
Y251370D01*
X444213Y242118D02*
Y251370D01*
X442244Y244972D02*
Y248516D01*
X440472Y246744D02*
X444016D01*
X427079Y201618D02*
X431409D01*
X427079Y210870D02*
X431409D01*
Y201618D02*
Y210870D01*
X427079Y201618D02*
Y210870D01*
X429244Y204374D02*
Y208114D01*
X427374Y206244D02*
X431114D01*
X436579Y204118D02*
X440909D01*
X436579Y213370D02*
X440909D01*
Y204118D02*
Y213370D01*
X436579Y204118D02*
Y213370D01*
X438744Y206874D02*
Y210614D01*
X436874Y208744D02*
X440614D01*
X427579Y168118D02*
X431909D01*
X427579Y177370D02*
X431909D01*
Y168118D02*
Y177370D01*
X427579Y168118D02*
Y177370D01*
X429744Y170874D02*
Y174614D01*
X427874Y172744D02*
X431614D01*
X437079Y170618D02*
X441409D01*
X437079Y179870D02*
X441409D01*
Y170618D02*
Y179870D01*
X437079Y170618D02*
Y179870D01*
X439244Y173374D02*
Y177114D01*
X437374Y175244D02*
X441114D01*
X436579Y188118D02*
X440909D01*
X436579Y197370D02*
X440909D01*
Y188118D02*
Y197370D01*
X436579Y188118D02*
Y197370D01*
X438744Y190874D02*
Y194614D01*
X436874Y192744D02*
X440614D01*
X427079Y185118D02*
X431409D01*
X427079Y194370D02*
X431409D01*
Y185118D02*
Y194370D01*
X427079Y185118D02*
Y194370D01*
X429244Y187874D02*
Y191614D01*
X427374Y189744D02*
X431114D01*
X417776Y196370D02*
X421713D01*
X417776Y187118D02*
X421713D01*
X417776D02*
Y196370D01*
X421713Y187118D02*
Y196370D01*
X419744Y189972D02*
Y193516D01*
X417972Y191744D02*
X421516D01*
X388744Y205823D02*
Y209760D01*
X386776Y207791D02*
X390713D01*
X213744Y351472D02*
Y355016D01*
X211972Y353244D02*
X215516D01*
X209118Y351275D02*
X218370D01*
X209118Y355213D02*
X218370D01*
X209118Y351275D02*
Y355213D01*
X218370Y351275D02*
Y355213D01*
X256972Y409244D02*
X260516D01*
X258744Y407472D02*
Y411016D01*
X260713Y404618D02*
Y413870D01*
X256776Y404618D02*
Y413870D01*
Y404618D02*
X260713D01*
X256776Y413870D02*
X260713D01*
X251972Y409744D02*
X255516D01*
X253744Y407972D02*
Y411516D01*
X255713Y405118D02*
Y414370D01*
X251776Y405118D02*
Y414370D01*
Y405118D02*
X255713D01*
X251776Y414370D02*
X255713D01*
X236972Y407744D02*
X240516D01*
X238744Y405972D02*
Y409516D01*
X236775Y403118D02*
Y412370D01*
X240713Y403118D02*
Y412370D01*
X236775D02*
X240713D01*
X236775Y403118D02*
X240713D01*
X242972Y407244D02*
X246516D01*
X244744Y405472D02*
Y409016D01*
X242775Y402618D02*
Y411870D01*
X246713Y402618D02*
Y411870D01*
X242775D02*
X246713D01*
X242775Y402618D02*
X246713D01*
X172244Y335374D02*
Y339114D01*
X170374Y337244D02*
X174114D01*
X167618Y335079D02*
X176870D01*
X167618Y339409D02*
X176870D01*
X167618Y335079D02*
Y339409D01*
X176870Y335079D02*
Y339409D01*
X210244Y339972D02*
Y343516D01*
X208473Y341744D02*
X212016D01*
X205618Y339775D02*
X214870D01*
X205618Y343712D02*
X214870D01*
X205618Y339775D02*
Y343712D01*
X214870Y339775D02*
Y343712D01*
X210244Y334972D02*
Y338516D01*
X208473Y336744D02*
X212016D01*
X205618Y334775D02*
X214870D01*
X205618Y338712D02*
X214870D01*
X205618Y334775D02*
Y338712D01*
X214870Y334775D02*
Y338712D01*
X186244Y371472D02*
Y375016D01*
X184472Y373244D02*
X188016D01*
X181618Y375213D02*
X190870D01*
X181618Y371275D02*
X190870D01*
Y375213D01*
X181618Y371275D02*
Y375213D01*
X210744Y405472D02*
Y409016D01*
X208972Y407244D02*
X212516D01*
X206118Y409213D02*
X215370D01*
X206118Y405275D02*
X215370D01*
Y409213D01*
X206118Y405275D02*
Y409213D01*
X226870Y415079D02*
Y419409D01*
X217618Y415079D02*
Y419409D01*
X226870D01*
X217618Y415079D02*
X226870D01*
X220374Y417244D02*
X224114D01*
X222244Y415374D02*
Y419114D01*
X213370Y415276D02*
Y419213D01*
X204118Y415276D02*
Y419213D01*
X213370D01*
X204118Y415276D02*
X213370D01*
X206972Y417244D02*
X210516D01*
X208744Y415472D02*
Y419016D01*
X226870Y421079D02*
Y425409D01*
X217618Y421079D02*
Y425409D01*
X226870D01*
X217618Y421079D02*
X226870D01*
X220374Y423244D02*
X224114D01*
X222244Y421374D02*
Y425114D01*
X213370Y421276D02*
Y425213D01*
X204118Y421276D02*
Y425213D01*
X213370D01*
X204118Y421276D02*
X213370D01*
X206972Y423244D02*
X210516D01*
X208744Y421472D02*
Y425016D01*
X162244Y359374D02*
Y363114D01*
X160374Y361244D02*
X164114D01*
X157618Y363409D02*
X166870D01*
X157618Y359079D02*
X166870D01*
Y363409D01*
X157618Y359079D02*
Y363409D01*
X172744Y375374D02*
Y379114D01*
X170874Y377244D02*
X174614D01*
X168118Y375079D02*
X177370D01*
X168118Y379410D02*
X177370D01*
X168118Y375079D02*
Y379410D01*
X177370Y375079D02*
Y379410D01*
X162244Y375374D02*
Y379114D01*
X160374Y377244D02*
X164114D01*
X157618Y375079D02*
X166870D01*
X157618Y379410D02*
X166870D01*
X157618Y375079D02*
Y379410D01*
X166870Y375079D02*
Y379410D01*
X183244Y330874D02*
Y334614D01*
X181374Y332744D02*
X185114D01*
X178618Y330579D02*
X187870D01*
X178618Y334910D02*
X187870D01*
X178618Y330579D02*
Y334910D01*
X187870Y330579D02*
Y334910D01*
X201244Y331972D02*
Y335516D01*
X199472Y333744D02*
X203016D01*
X196618Y335713D02*
X205870D01*
X196618Y331775D02*
X205870D01*
Y335713D01*
X196618Y331775D02*
Y335713D01*
X200744Y337472D02*
Y341016D01*
X198972Y339244D02*
X202516D01*
X196118Y337275D02*
X205370D01*
X196118Y341212D02*
X205370D01*
X196118Y337275D02*
Y341212D01*
X205370Y337275D02*
Y341212D01*
X189744Y346472D02*
Y350016D01*
X187973Y348244D02*
X191516D01*
X185118Y350213D02*
X194370D01*
X185118Y346276D02*
X194370D01*
Y350213D01*
X185118Y346276D02*
Y350213D01*
X176244Y408473D02*
Y412016D01*
X174472Y410244D02*
X178016D01*
X171618Y408276D02*
X180870D01*
X171618Y412213D02*
X180870D01*
Y408276D02*
Y412213D01*
X171618Y408276D02*
Y412213D01*
X158071Y359275D02*
Y363213D01*
X167323Y359275D02*
Y363213D01*
X158071D02*
X167323D01*
X158071Y359275D02*
X167323D01*
X161122Y361244D02*
X164272D01*
X162697Y359669D02*
Y362819D01*
X153392Y364273D02*
Y380415D01*
X171896Y364273D02*
Y380415D01*
X153392D02*
X171896D01*
X153392Y364273D02*
X171896D01*
X160676Y372344D02*
X164613D01*
X162644Y370376D02*
Y374313D01*
X255990Y401398D02*
Y413602D01*
X242210Y401398D02*
Y413602D01*
Y401398D02*
X255990D01*
X242210Y413602D02*
X255990D01*
X247131Y407500D02*
X251068D01*
X249100Y405531D02*
Y409468D01*
X235730Y407500D02*
X239470D01*
X237600Y405630D02*
Y409370D01*
X235435Y402874D02*
Y412126D01*
X239765Y402874D02*
Y412126D01*
X235435Y402874D02*
X239765D01*
X235435Y412126D02*
X239765D01*
X235730Y418500D02*
X239470D01*
X237600Y416630D02*
Y420370D01*
X239765Y413874D02*
Y423126D01*
X235435Y413874D02*
Y423126D01*
X239765D01*
X235435Y413874D02*
X239765D01*
X167327Y335031D02*
Y338969D01*
X176579Y335031D02*
Y338969D01*
X167327D02*
X176579D01*
X167327Y335031D02*
X176579D01*
X170378Y337000D02*
X173528D01*
X171953Y335425D02*
Y338575D01*
X240157Y322228D02*
Y325772D01*
X238386Y324000D02*
X241929D01*
X235531Y322031D02*
X244783D01*
X235531Y325969D02*
X244783D01*
Y322031D02*
Y325969D01*
X235531Y322031D02*
Y325969D01*
X240157Y332228D02*
Y335772D01*
X238386Y334000D02*
X241929D01*
X235531Y332031D02*
X244783D01*
X235531Y335969D02*
X244783D01*
Y332031D02*
Y335969D01*
X235531Y332031D02*
Y335969D01*
X203508Y345208D02*
X206292Y347992D01*
X203508D02*
X206292Y345208D01*
X151144Y406876D02*
Y410813D01*
X149176Y408844D02*
X153113D01*
X143270Y412584D02*
X159018D01*
X143270Y405104D02*
X159018D01*
X143270D02*
Y412584D01*
X159018Y405104D02*
Y412584D01*
X151044Y426576D02*
Y430513D01*
X149076Y428544D02*
X153013D01*
X143170Y432284D02*
X158918D01*
X143170Y424804D02*
X158918D01*
X143170D02*
Y432284D01*
X158918Y424804D02*
Y432284D01*
X181344Y424576D02*
Y428513D01*
X179376Y426544D02*
X183313D01*
X179276Y375567D02*
X193213D01*
X179276Y390921D02*
X193213D01*
Y375567D02*
Y390921D01*
X179276Y375567D02*
Y390921D01*
X186244Y381276D02*
Y385213D01*
X184276Y383244D02*
X188213D01*
X254244Y350776D02*
Y354713D01*
X252276Y352744D02*
X256213D01*
X253744Y368276D02*
Y372213D01*
X251776Y370244D02*
X255713D01*
X254244Y384276D02*
Y388213D01*
X252276Y386244D02*
X256213D01*
X260276Y431370D02*
X264213D01*
X260276Y422118D02*
X264213D01*
X260276D02*
Y431370D01*
X264213Y422118D02*
Y431370D01*
X262244Y424972D02*
Y428516D01*
X260472Y426744D02*
X264016D01*
X247079Y381618D02*
X251409D01*
X247079Y390870D02*
X251409D01*
Y381618D02*
Y390870D01*
X247079Y381618D02*
Y390870D01*
X249244Y384374D02*
Y388114D01*
X247374Y386244D02*
X251114D01*
X256579Y384118D02*
X260909D01*
X256579Y393370D02*
X260909D01*
Y384118D02*
Y393370D01*
X256579Y384118D02*
Y393370D01*
X258744Y386874D02*
Y390614D01*
X256874Y388744D02*
X260614D01*
X247579Y348118D02*
X251909D01*
X247579Y357370D02*
X251909D01*
Y348118D02*
Y357370D01*
X247579Y348118D02*
Y357370D01*
X249744Y350874D02*
Y354614D01*
X247874Y352744D02*
X251614D01*
X257079Y350618D02*
X261409D01*
X257079Y359870D02*
X261409D01*
Y350618D02*
Y359870D01*
X257079Y350618D02*
Y359870D01*
X259244Y353374D02*
Y357114D01*
X257374Y355244D02*
X261114D01*
X256579Y368118D02*
X260909D01*
X256579Y377370D02*
X260909D01*
Y368118D02*
Y377370D01*
X256579Y368118D02*
Y377370D01*
X258744Y370874D02*
Y374614D01*
X256874Y372744D02*
X260614D01*
X247079Y365118D02*
X251409D01*
X247079Y374370D02*
X251409D01*
Y365118D02*
Y374370D01*
X247079Y365118D02*
Y374370D01*
X249244Y367874D02*
Y371614D01*
X247374Y369744D02*
X251114D01*
X237776Y376370D02*
X241713D01*
X237776Y367118D02*
X241713D01*
X237776D02*
Y376370D01*
X241713Y367118D02*
Y376370D01*
X239744Y369972D02*
Y373516D01*
X237972Y371744D02*
X241516D01*
X208744Y385823D02*
Y389760D01*
X206776Y387791D02*
X210713D01*
X393744Y351472D02*
Y355016D01*
X391972Y353244D02*
X395516D01*
X389118Y351275D02*
X398370D01*
X389118Y355213D02*
X398370D01*
X389118Y351275D02*
Y355213D01*
X398370Y351275D02*
Y355213D01*
X436972Y409244D02*
X440516D01*
X438744Y407472D02*
Y411016D01*
X440713Y404618D02*
Y413870D01*
X436776Y404618D02*
Y413870D01*
Y404618D02*
X440713D01*
X436776Y413870D02*
X440713D01*
X431972Y409744D02*
X435516D01*
X433744Y407972D02*
Y411516D01*
X435713Y405118D02*
Y414370D01*
X431776Y405118D02*
Y414370D01*
Y405118D02*
X435713D01*
X431776Y414370D02*
X435713D01*
X416972Y407744D02*
X420516D01*
X418744Y405972D02*
Y409516D01*
X416775Y403118D02*
Y412370D01*
X420713Y403118D02*
Y412370D01*
X416775D02*
X420713D01*
X416775Y403118D02*
X420713D01*
X422972Y407244D02*
X426516D01*
X424744Y405472D02*
Y409016D01*
X422775Y402618D02*
Y411870D01*
X426713Y402618D02*
Y411870D01*
X422775D02*
X426713D01*
X422775Y402618D02*
X426713D01*
X352244Y335374D02*
Y339114D01*
X350374Y337244D02*
X354114D01*
X347618Y335079D02*
X356870D01*
X347618Y339409D02*
X356870D01*
X347618Y335079D02*
Y339409D01*
X356870Y335079D02*
Y339409D01*
X390244Y339972D02*
Y343516D01*
X388473Y341744D02*
X392016D01*
X385618Y339775D02*
X394870D01*
X385618Y343712D02*
X394870D01*
X385618Y339775D02*
Y343712D01*
X394870Y339775D02*
Y343712D01*
X390244Y334972D02*
Y338516D01*
X388473Y336744D02*
X392016D01*
X385618Y334775D02*
X394870D01*
X385618Y338712D02*
X394870D01*
X385618Y334775D02*
Y338712D01*
X394870Y334775D02*
Y338712D01*
X366244Y371472D02*
Y375016D01*
X364472Y373244D02*
X368016D01*
X361618Y375213D02*
X370870D01*
X361618Y371275D02*
X370870D01*
Y375213D01*
X361618Y371275D02*
Y375213D01*
X390744Y405472D02*
Y409016D01*
X388972Y407244D02*
X392516D01*
X386118Y409213D02*
X395370D01*
X386118Y405275D02*
X395370D01*
Y409213D01*
X386118Y405275D02*
Y409213D01*
X406870Y415079D02*
Y419409D01*
X397618Y415079D02*
Y419409D01*
X406870D01*
X397618Y415079D02*
X406870D01*
X400374Y417244D02*
X404114D01*
X402244Y415374D02*
Y419114D01*
X393370Y415276D02*
Y419213D01*
X384118Y415276D02*
Y419213D01*
X393370D01*
X384118Y415276D02*
X393370D01*
X386972Y417244D02*
X390516D01*
X388744Y415472D02*
Y419016D01*
X406870Y421079D02*
Y425409D01*
X397618Y421079D02*
Y425409D01*
X406870D01*
X397618Y421079D02*
X406870D01*
X400374Y423244D02*
X404114D01*
X402244Y421374D02*
Y425114D01*
X393370Y421276D02*
Y425213D01*
X384118Y421276D02*
Y425213D01*
X393370D01*
X384118Y421276D02*
X393370D01*
X386972Y423244D02*
X390516D01*
X388744Y421472D02*
Y425016D01*
X342244Y359374D02*
Y363114D01*
X340374Y361244D02*
X344114D01*
X337618Y363409D02*
X346870D01*
X337618Y359079D02*
X346870D01*
Y363409D01*
X337618Y359079D02*
Y363409D01*
X352744Y375374D02*
Y379114D01*
X350874Y377244D02*
X354614D01*
X348118Y375079D02*
X357370D01*
X348118Y379410D02*
X357370D01*
X348118Y375079D02*
Y379410D01*
X357370Y375079D02*
Y379410D01*
X342244Y375374D02*
Y379114D01*
X340374Y377244D02*
X344114D01*
X337618Y375079D02*
X346870D01*
X337618Y379410D02*
X346870D01*
X337618Y375079D02*
Y379410D01*
X346870Y375079D02*
Y379410D01*
X363244Y330874D02*
Y334614D01*
X361374Y332744D02*
X365114D01*
X358618Y330579D02*
X367870D01*
X358618Y334910D02*
X367870D01*
X358618Y330579D02*
Y334910D01*
X367870Y330579D02*
Y334910D01*
X381244Y331972D02*
Y335516D01*
X379472Y333744D02*
X383016D01*
X376618Y335713D02*
X385870D01*
X376618Y331775D02*
X385870D01*
Y335713D01*
X376618Y331775D02*
Y335713D01*
X380744Y337472D02*
Y341016D01*
X378972Y339244D02*
X382516D01*
X376118Y337275D02*
X385370D01*
X376118Y341212D02*
X385370D01*
X376118Y337275D02*
Y341212D01*
X385370Y337275D02*
Y341212D01*
X369744Y346472D02*
Y350016D01*
X367973Y348244D02*
X371516D01*
X365118Y350213D02*
X374370D01*
X365118Y346276D02*
X374370D01*
Y350213D01*
X365118Y346276D02*
Y350213D01*
X356244Y408473D02*
Y412016D01*
X354472Y410244D02*
X358016D01*
X351618Y408276D02*
X360870D01*
X351618Y412213D02*
X360870D01*
Y408276D02*
Y412213D01*
X351618Y408276D02*
Y412213D01*
X338071Y359275D02*
Y363213D01*
X347323Y359275D02*
Y363213D01*
X338071D02*
X347323D01*
X338071Y359275D02*
X347323D01*
X341122Y361244D02*
X344272D01*
X342697Y359669D02*
Y362819D01*
X333392Y364273D02*
Y380415D01*
X351896Y364273D02*
Y380415D01*
X333392D02*
X351896D01*
X333392Y364273D02*
X351896D01*
X340676Y372344D02*
X344613D01*
X342644Y370376D02*
Y374313D01*
X435990Y401398D02*
Y413602D01*
X422210Y401398D02*
Y413602D01*
Y401398D02*
X435990D01*
X422210Y413602D02*
X435990D01*
X427131Y407500D02*
X431068D01*
X429100Y405531D02*
Y409468D01*
X415730Y407500D02*
X419470D01*
X417600Y405630D02*
Y409370D01*
X415435Y402874D02*
Y412126D01*
X419765Y402874D02*
Y412126D01*
X415435Y402874D02*
X419765D01*
X415435Y412126D02*
X419765D01*
X415730Y418500D02*
X419470D01*
X417600Y416630D02*
Y420370D01*
X419765Y413874D02*
Y423126D01*
X415435Y413874D02*
Y423126D01*
X419765D01*
X415435Y413874D02*
X419765D01*
X347327Y335031D02*
Y338969D01*
X356579Y335031D02*
Y338969D01*
X347327D02*
X356579D01*
X347327Y335031D02*
X356579D01*
X350378Y337000D02*
X353528D01*
X351953Y335425D02*
Y338575D01*
X420157Y322228D02*
Y325772D01*
X418386Y324000D02*
X421929D01*
X415531Y322031D02*
X424783D01*
X415531Y325969D02*
X424783D01*
Y322031D02*
Y325969D01*
X415531Y322031D02*
Y325969D01*
X420157Y332228D02*
Y335772D01*
X418386Y334000D02*
X421929D01*
X415531Y332031D02*
X424783D01*
X415531Y335969D02*
X424783D01*
Y332031D02*
Y335969D01*
X415531Y332031D02*
Y335969D01*
X383508Y345208D02*
X386292Y347992D01*
X383508D02*
X386292Y345208D01*
X331144Y406876D02*
Y410813D01*
X329176Y408844D02*
X333113D01*
X323270Y412584D02*
X339018D01*
X323270Y405104D02*
X339018D01*
X323270D02*
Y412584D01*
X339018Y405104D02*
Y412584D01*
X331044Y426576D02*
Y430513D01*
X329076Y428544D02*
X333013D01*
X323170Y432284D02*
X338918D01*
X323170Y424804D02*
X338918D01*
X323170D02*
Y432284D01*
X338918Y424804D02*
Y432284D01*
X361344Y424576D02*
Y428513D01*
X359376Y426544D02*
X363313D01*
X359276Y375567D02*
X373213D01*
X359276Y390921D02*
X373213D01*
Y375567D02*
Y390921D01*
X359276Y375567D02*
Y390921D01*
X366244Y381276D02*
Y385213D01*
X364276Y383244D02*
X368213D01*
X434244Y350776D02*
Y354713D01*
X432276Y352744D02*
X436213D01*
X433744Y368276D02*
Y372213D01*
X431776Y370244D02*
X435713D01*
X434244Y384276D02*
Y388213D01*
X432276Y386244D02*
X436213D01*
X440276Y431370D02*
X444213D01*
X440276Y422118D02*
X444213D01*
X440276D02*
Y431370D01*
X444213Y422118D02*
Y431370D01*
X442244Y424972D02*
Y428516D01*
X440472Y426744D02*
X444016D01*
X427079Y381618D02*
X431409D01*
X427079Y390870D02*
X431409D01*
Y381618D02*
Y390870D01*
X427079Y381618D02*
Y390870D01*
X429244Y384374D02*
Y388114D01*
X427374Y386244D02*
X431114D01*
X436579Y384118D02*
X440909D01*
X436579Y393370D02*
X440909D01*
Y384118D02*
Y393370D01*
X436579Y384118D02*
Y393370D01*
X438744Y386874D02*
Y390614D01*
X436874Y388744D02*
X440614D01*
X427579Y348118D02*
X431909D01*
X427579Y357370D02*
X431909D01*
Y348118D02*
Y357370D01*
X427579Y348118D02*
Y357370D01*
X429744Y350874D02*
Y354614D01*
X427874Y352744D02*
X431614D01*
X437079Y350618D02*
X441409D01*
X437079Y359870D02*
X441409D01*
Y350618D02*
Y359870D01*
X437079Y350618D02*
Y359870D01*
X439244Y353374D02*
Y357114D01*
X437374Y355244D02*
X441114D01*
X436579Y368118D02*
X440909D01*
X436579Y377370D02*
X440909D01*
Y368118D02*
Y377370D01*
X436579Y368118D02*
Y377370D01*
X438744Y370874D02*
Y374614D01*
X436874Y372744D02*
X440614D01*
X427079Y365118D02*
X431409D01*
X427079Y374370D02*
X431409D01*
Y365118D02*
Y374370D01*
X427079Y365118D02*
Y374370D01*
X429244Y367874D02*
Y371614D01*
X427374Y369744D02*
X431114D01*
X417776Y376370D02*
X421713D01*
X417776Y367118D02*
X421713D01*
X417776D02*
Y376370D01*
X421713Y367118D02*
Y376370D01*
X419744Y369972D02*
Y373516D01*
X417972Y371744D02*
X421516D01*
X388744Y385823D02*
Y389760D01*
X386776Y387791D02*
X390713D01*
D119*
X204900Y189289D02*
X227589Y166600D01*
X182211D02*
X204900Y143911D01*
X182211Y166600D02*
X204900Y189289D01*
Y143911D02*
X227589Y166600D01*
X165990Y257568D02*
X196698D01*
X165990Y235520D02*
X196698D01*
X165990D02*
Y257568D01*
X196698Y235520D02*
Y257568D01*
X246567Y165657D02*
X261921D01*
X246567Y179831D02*
X261921D01*
Y165657D02*
Y179831D01*
X246567Y165657D02*
Y179831D01*
X246067Y183157D02*
X261421D01*
X246067Y197331D02*
X261421D01*
Y183157D02*
Y197331D01*
X246067Y183157D02*
Y197331D01*
X246567Y199157D02*
X261921D01*
X246567Y213331D02*
X261921D01*
Y199157D02*
Y213331D01*
X246567Y199157D02*
Y213331D01*
X197720Y192536D02*
X219768D01*
X197720Y223047D02*
X219768D01*
Y192536D02*
Y223047D01*
X197720Y192536D02*
Y223047D01*
X384900Y189289D02*
X407589Y166600D01*
X362211D02*
X384900Y143911D01*
X362211Y166600D02*
X384900Y189289D01*
Y143911D02*
X407589Y166600D01*
X345990Y257568D02*
X376698D01*
X345990Y235520D02*
X376698D01*
X345990D02*
Y257568D01*
X376698Y235520D02*
Y257568D01*
X426567Y165657D02*
X441921D01*
X426567Y179831D02*
X441921D01*
Y165657D02*
Y179831D01*
X426567Y165657D02*
Y179831D01*
X426067Y183157D02*
X441421D01*
X426067Y197331D02*
X441421D01*
Y183157D02*
Y197331D01*
X426067Y183157D02*
Y197331D01*
X426567Y199157D02*
X441921D01*
X426567Y213331D02*
X441921D01*
Y199157D02*
Y213331D01*
X426567Y199157D02*
Y213331D01*
X377720Y192536D02*
X399768D01*
X377720Y223047D02*
X399768D01*
Y192536D02*
Y223047D01*
X377720Y192536D02*
Y223047D01*
X204900Y369289D02*
X227589Y346600D01*
X182211D02*
X204900Y323911D01*
X182211Y346600D02*
X204900Y369289D01*
Y323911D02*
X227589Y346600D01*
X165990Y437568D02*
X196698D01*
X165990Y415520D02*
X196698D01*
X165990D02*
Y437568D01*
X196698Y415520D02*
Y437568D01*
X246567Y345657D02*
X261921D01*
X246567Y359831D02*
X261921D01*
Y345657D02*
Y359831D01*
X246567Y345657D02*
Y359831D01*
X246067Y363157D02*
X261421D01*
X246067Y377331D02*
X261421D01*
Y363157D02*
Y377331D01*
X246067Y363157D02*
Y377331D01*
X246567Y379157D02*
X261921D01*
X246567Y393331D02*
X261921D01*
Y379157D02*
Y393331D01*
X246567Y379157D02*
Y393331D01*
X197720Y372536D02*
X219768D01*
X197720Y403047D02*
X219768D01*
Y372536D02*
Y403047D01*
X197720Y372536D02*
Y403047D01*
X384900Y369289D02*
X407589Y346600D01*
X362211D02*
X384900Y323911D01*
X362211Y346600D02*
X384900Y369289D01*
Y323911D02*
X407589Y346600D01*
X345990Y437568D02*
X376698D01*
X345990Y415520D02*
X376698D01*
X345990D02*
Y437568D01*
X376698Y415520D02*
Y437568D01*
X426567Y345657D02*
X441921D01*
X426567Y359831D02*
X441921D01*
Y345657D02*
Y359831D01*
X426567Y345657D02*
Y359831D01*
X426067Y363157D02*
X441421D01*
X426067Y377331D02*
X441421D01*
Y363157D02*
Y377331D01*
X426067Y363157D02*
Y377331D01*
X426567Y379157D02*
X441921D01*
X426567Y393331D02*
X441921D01*
Y379157D02*
Y393331D01*
X426567Y379157D02*
Y393331D01*
X377720Y372536D02*
X399768D01*
X377720Y403047D02*
X399768D01*
Y372536D02*
Y403047D01*
X377720Y372536D02*
Y403047D01*
M02*
